<svg width="24" height="44" viewBox="0 0 24 44" fill="none" xmlns="http://www.w3.org/2000/svg">
<path d="M17.5179 11.2221C17.9444 14.5066 15.31 17.5546 15.31 17.5546C15.31 17.5546 11.984 15.2772 11.5575 11.9927C11.131 8.70809 13.7654 5.66016 13.7654 5.66016C13.7654 5.66016 17.0914 7.93754 17.5179 11.2221Z" stroke="#383838" stroke-width="3" stroke-linejoin="round"/>
<path d="M20.6416 22.2602C19.2495 25.2668 15.3929 26.4467 15.3929 26.4467C15.3929 26.4467 13.7933 22.7518 15.1854 19.7451C16.5775 16.7385 20.4341 15.5586 20.4341 15.5586C20.4341 15.5586 22.0337 19.2535 20.6416 22.2602Z" stroke="#383838" stroke-width="3" stroke-linejoin="round"/>
<path d="M19.0014 32.8303C16.3452 34.8165 12.3897 34.0273 12.3897 34.0273C12.3897 34.0273 12.7408 30.0177 15.397 28.0315C18.0532 26.0452 22.0087 26.8344 22.0087 26.8344C22.0087 26.8344 21.6576 30.844 19.0014 32.8303Z" stroke="#383838" stroke-width="3" stroke-linejoin="round"/>
<path d="M11.7824 41.4267C8.77248 42.8231 5.06546 41.2361 5.06546 41.2361C5.06546 41.2361 6.23851 37.3852 9.24844 35.9888C12.2584 34.5925 15.9654 36.1794 15.9654 36.1794C15.9654 36.1794 14.7923 40.0304 11.7824 41.4267Z" stroke="#383838" stroke-width="3" stroke-linejoin="round"/>
<path d="M8.44687 3.93529C10.8679 6.20116 10.7745 10.2249 10.7745 10.2249C10.7745 10.2249 6.75602 10.575 4.33503 8.30917C1.91403 6.0433 2.00734 2.01951 2.00734 2.01951C2.00734 2.01951 6.02587 1.66942 8.44687 3.93529Z" stroke="#383838" stroke-width="3" stroke-linejoin="round"/>
</svg>
