<svg width="24" height="44" viewBox="0 0 24 44" fill="none" xmlns="http://www.w3.org/2000/svg">
<path d="M6.49636 11.2221C6.06985 14.5066 8.70431 17.5546 8.70431 17.5546C8.70431 17.5546 12.0303 15.2772 12.4568 11.9927C12.8833 8.70809 10.2489 5.66016 10.2489 5.66016C10.2489 5.66016 6.92288 7.93754 6.49636 11.2221Z" stroke="#383838" stroke-width="3" stroke-linejoin="round"/>
<path d="M3.37036 22.2602C4.76246 25.2668 8.61906 26.4467 8.61906 26.4467C8.61906 26.4467 10.2186 22.7518 8.82652 19.7451C7.43442 16.7385 3.57782 15.5586 3.57782 15.5586C3.57782 15.5586 1.97826 19.2535 3.37036 22.2602Z" stroke="#383838" stroke-width="3" stroke-linejoin="round"/>
<path d="M5.01162 32.8303C7.66784 34.8165 11.6233 34.0273 11.6233 34.0273C11.6233 34.0273 11.2723 30.0177 8.61605 28.0315C5.95983 26.0452 2.00433 26.8344 2.00433 26.8344C2.00433 26.8344 2.35541 30.844 5.01162 32.8303Z" stroke="#383838" stroke-width="3" stroke-linejoin="round"/>
<path d="M12.2307 41.4267C15.2406 42.8231 18.9476 41.2361 18.9476 41.2361C18.9476 41.2361 17.7746 37.3852 14.7646 35.9888C11.7547 34.5925 8.04767 36.1794 8.04767 36.1794C8.04767 36.1794 9.22072 40.0304 12.2307 41.4267Z" stroke="#383838" stroke-width="3" stroke-linejoin="round"/>
<path d="M15.5669 3.93529C13.1459 6.20116 13.2392 10.2249 13.2392 10.2249C13.2392 10.2249 17.2577 10.575 19.6787 8.30917C22.0997 6.0433 22.0064 2.01951 22.0064 2.01951C22.0064 2.01951 17.9879 1.66942 15.5669 3.93529Z" stroke="#383838" stroke-width="3" stroke-linejoin="round"/>
</svg>
