<svg width="71" height="71" viewBox="0 0 71 71" fill="none" xmlns="http://www.w3.org/2000/svg">
<path d="M2.15151 0H0V2.15151H2.15151V0Z" fill="black"/>
<path d="M4.30303 0H2.15151V2.15151H4.30303V0Z" fill="black"/>
<path d="M6.45455 0H4.30303V2.15151H6.45455V0Z" fill="black"/>
<path d="M8.60606 0H6.45455V2.15151H8.60606V0Z" fill="black"/>
<path d="M10.7576 0H8.60606V2.15151H10.7576V0Z" fill="black"/>
<path d="M12.9091 0H10.7576V2.15151H12.9091V0Z" fill="black"/>
<path d="M15.0606 0H12.9091V2.15151H15.0606V0Z" fill="black"/>
<path d="M19.3636 0H17.2121V2.15151H19.3636V0Z" fill="black"/>
<path d="M25.8182 0H23.6667V2.15151H25.8182V0Z" fill="black"/>
<path d="M30.1212 0H27.9697V2.15151H30.1212V0Z" fill="black"/>
<path d="M38.7273 0H36.5758V2.15151H38.7273V0Z" fill="black"/>
<path d="M47.3333 0H45.1818V2.15151H47.3333V0Z" fill="black"/>
<path d="M53.7879 0H51.6364V2.15151H53.7879V0Z" fill="black"/>
<path d="M58.0909 0H55.9394V2.15151H58.0909V0Z" fill="black"/>
<path d="M60.2424 0H58.0909V2.15151H60.2424V0Z" fill="black"/>
<path d="M62.3939 0H60.2424V2.15151H62.3939V0Z" fill="black"/>
<path d="M64.5455 0H62.3939V2.15151H64.5455V0Z" fill="black"/>
<path d="M66.697 0H64.5455V2.15151H66.697V0Z" fill="black"/>
<path d="M68.8485 0H66.697V2.15151H68.8485V0Z" fill="black"/>
<path d="M71 0H68.8485V2.15151H71V0Z" fill="black"/>
<path d="M2.15151 2.15151H0V4.30303H2.15151V2.15151Z" fill="black"/>
<path d="M15.0606 2.15151H12.9091V4.30303H15.0606V2.15151Z" fill="black"/>
<path d="M23.6667 2.15151H21.5152V4.30303H23.6667V2.15151Z" fill="black"/>
<path d="M25.8182 2.15151H23.6667V4.30303H25.8182V2.15151Z" fill="black"/>
<path d="M27.9697 2.15151H25.8182V4.30303H27.9697V2.15151Z" fill="black"/>
<path d="M34.4242 2.15151H32.2727V4.30303H34.4242V2.15151Z" fill="black"/>
<path d="M36.5758 2.15151H34.4242V4.30303H36.5758V2.15151Z" fill="black"/>
<path d="M38.7273 2.15151H36.5758V4.30303H38.7273V2.15151Z" fill="black"/>
<path d="M53.7879 2.15151H51.6364V4.30303H53.7879V2.15151Z" fill="black"/>
<path d="M58.0909 2.15151H55.9394V4.30303H58.0909V2.15151Z" fill="black"/>
<path d="M71 2.15151H68.8485V4.30303H71V2.15151Z" fill="black"/>
<path d="M2.15151 4.30303H0V6.45455H2.15151V4.30303Z" fill="black"/>
<path d="M6.45455 4.30303H4.30303V6.45455H6.45455V4.30303Z" fill="black"/>
<path d="M8.60606 4.30303H6.45455V6.45455H8.60606V4.30303Z" fill="black"/>
<path d="M10.7576 4.30303H8.60606V6.45455H10.7576V4.30303Z" fill="black"/>
<path d="M15.0606 4.30303H12.9091V6.45455H15.0606V4.30303Z" fill="black"/>
<path d="M21.5152 4.30303H19.3636V6.45455H21.5152V4.30303Z" fill="black"/>
<path d="M23.6667 4.30303H21.5152V6.45455H23.6667V4.30303Z" fill="black"/>
<path d="M32.2727 4.30303H30.1212V6.45455H32.2727V4.30303Z" fill="black"/>
<path d="M34.4242 4.30303H32.2727V6.45455H34.4242V4.30303Z" fill="black"/>
<path d="M36.5758 4.30303H34.4242V6.45455H36.5758V4.30303Z" fill="black"/>
<path d="M40.8788 4.30303H38.7273V6.45455H40.8788V4.30303Z" fill="black"/>
<path d="M43.0303 4.30303H40.8788V6.45455H43.0303V4.30303Z" fill="black"/>
<path d="M45.1818 4.30303H43.0303V6.45455H45.1818V4.30303Z" fill="black"/>
<path d="M47.3333 4.30303H45.1818V6.45455H47.3333V4.30303Z" fill="black"/>
<path d="M49.4848 4.30303H47.3333V6.45455H49.4848V4.30303Z" fill="black"/>
<path d="M51.6364 4.30303H49.4848V6.45455H51.6364V4.30303Z" fill="black"/>
<path d="M53.7879 4.30303H51.6364V6.45455H53.7879V4.30303Z" fill="black"/>
<path d="M58.0909 4.30303H55.9394V6.45455H58.0909V4.30303Z" fill="black"/>
<path d="M62.3939 4.30303H60.2424V6.45455H62.3939V4.30303Z" fill="black"/>
<path d="M64.5455 4.30303H62.3939V6.45455H64.5455V4.30303Z" fill="black"/>
<path d="M66.697 4.30303H64.5455V6.45455H66.697V4.30303Z" fill="black"/>
<path d="M71 4.30303H68.8485V6.45455H71V4.30303Z" fill="black"/>
<path d="M2.15151 6.45455H0V8.60606H2.15151V6.45455Z" fill="black"/>
<path d="M6.45455 6.45455H4.30303V8.60606H6.45455V6.45455Z" fill="black"/>
<path d="M8.60606 6.45455H6.45455V8.60606H8.60606V6.45455Z" fill="black"/>
<path d="M10.7576 6.45455H8.60606V8.60606H10.7576V6.45455Z" fill="black"/>
<path d="M15.0606 6.45455H12.9091V8.60606H15.0606V6.45455Z" fill="black"/>
<path d="M21.5152 6.45455H19.3636V8.60606H21.5152V6.45455Z" fill="black"/>
<path d="M25.8182 6.45455H23.6667V8.60606H25.8182V6.45455Z" fill="black"/>
<path d="M32.2727 6.45455H30.1212V8.60606H32.2727V6.45455Z" fill="black"/>
<path d="M36.5758 6.45455H34.4242V8.60606H36.5758V6.45455Z" fill="black"/>
<path d="M40.8788 6.45455H38.7273V8.60606H40.8788V6.45455Z" fill="black"/>
<path d="M43.0303 6.45455H40.8788V8.60606H43.0303V6.45455Z" fill="black"/>
<path d="M45.1818 6.45455H43.0303V8.60606H45.1818V6.45455Z" fill="black"/>
<path d="M47.3333 6.45455H45.1818V8.60606H47.3333V6.45455Z" fill="black"/>
<path d="M49.4848 6.45455H47.3333V8.60606H49.4848V6.45455Z" fill="black"/>
<path d="M51.6364 6.45455H49.4848V8.60606H51.6364V6.45455Z" fill="black"/>
<path d="M53.7879 6.45455H51.6364V8.60606H53.7879V6.45455Z" fill="black"/>
<path d="M58.0909 6.45455H55.9394V8.60606H58.0909V6.45455Z" fill="black"/>
<path d="M62.3939 6.45455H60.2424V8.60606H62.3939V6.45455Z" fill="black"/>
<path d="M64.5455 6.45455H62.3939V8.60606H64.5455V6.45455Z" fill="black"/>
<path d="M66.697 6.45455H64.5455V8.60606H66.697V6.45455Z" fill="black"/>
<path d="M71 6.45455H68.8485V8.60606H71V6.45455Z" fill="black"/>
<path d="M2.15151 8.60606H0V10.7576H2.15151V8.60606Z" fill="black"/>
<path d="M6.45455 8.60606H4.30303V10.7576H6.45455V8.60606Z" fill="black"/>
<path d="M8.60606 8.60606H6.45455V10.7576H8.60606V8.60606Z" fill="black"/>
<path d="M10.7576 8.60606H8.60606V10.7576H10.7576V8.60606Z" fill="black"/>
<path d="M15.0606 8.60606H12.9091V10.7576H15.0606V8.60606Z" fill="black"/>
<path d="M19.3636 8.60606H17.2121V10.7576H19.3636V8.60606Z" fill="black"/>
<path d="M23.6667 8.60606H21.5152V10.7576H23.6667V8.60606Z" fill="black"/>
<path d="M25.8182 8.60606H23.6667V10.7576H25.8182V8.60606Z" fill="black"/>
<path d="M38.7273 8.60606H36.5758V10.7576H38.7273V8.60606Z" fill="black"/>
<path d="M49.4848 8.60606H47.3333V10.7576H49.4848V8.60606Z" fill="black"/>
<path d="M51.6364 8.60606H49.4848V10.7576H51.6364V8.60606Z" fill="black"/>
<path d="M58.0909 8.60606H55.9394V10.7576H58.0909V8.60606Z" fill="black"/>
<path d="M62.3939 8.60606H60.2424V10.7576H62.3939V8.60606Z" fill="black"/>
<path d="M64.5455 8.60606H62.3939V10.7576H64.5455V8.60606Z" fill="black"/>
<path d="M66.697 8.60606H64.5455V10.7576H66.697V8.60606Z" fill="black"/>
<path d="M71 8.60606H68.8485V10.7576H71V8.60606Z" fill="black"/>
<path d="M2.15151 10.7576H0V12.9091H2.15151V10.7576Z" fill="black"/>
<path d="M15.0606 10.7576H12.9091V12.9091H15.0606V10.7576Z" fill="black"/>
<path d="M38.7273 10.7576H36.5758V12.9091H38.7273V10.7576Z" fill="black"/>
<path d="M40.8788 10.7576H38.7273V12.9091H40.8788V10.7576Z" fill="black"/>
<path d="M43.0303 10.7576H40.8788V12.9091H43.0303V10.7576Z" fill="black"/>
<path d="M53.7879 10.7576H51.6364V12.9091H53.7879V10.7576Z" fill="black"/>
<path d="M58.0909 10.7576H55.9394V12.9091H58.0909V10.7576Z" fill="black"/>
<path d="M71 10.7576H68.8485V12.9091H71V10.7576Z" fill="black"/>
<path d="M2.15151 12.9091H0V15.0606H2.15151V12.9091Z" fill="black"/>
<path d="M4.30303 12.9091H2.15151V15.0606H4.30303V12.9091Z" fill="black"/>
<path d="M6.45455 12.9091H4.30303V15.0606H6.45455V12.9091Z" fill="black"/>
<path d="M8.60606 12.9091H6.45455V15.0606H8.60606V12.9091Z" fill="black"/>
<path d="M10.7576 12.9091H8.60606V15.0606H10.7576V12.9091Z" fill="black"/>
<path d="M12.9091 12.9091H10.7576V15.0606H12.9091V12.9091Z" fill="black"/>
<path d="M15.0606 12.9091H12.9091V15.0606H15.0606V12.9091Z" fill="black"/>
<path d="M19.3636 12.9091H17.2121V15.0606H19.3636V12.9091Z" fill="black"/>
<path d="M23.6667 12.9091H21.5152V15.0606H23.6667V12.9091Z" fill="black"/>
<path d="M27.9697 12.9091H25.8182V15.0606H27.9697V12.9091Z" fill="black"/>
<path d="M32.2727 12.9091H30.1212V15.0606H32.2727V12.9091Z" fill="black"/>
<path d="M36.5758 12.9091H34.4242V15.0606H36.5758V12.9091Z" fill="black"/>
<path d="M40.8788 12.9091H38.7273V15.0606H40.8788V12.9091Z" fill="black"/>
<path d="M45.1818 12.9091H43.0303V15.0606H45.1818V12.9091Z" fill="black"/>
<path d="M49.4848 12.9091H47.3333V15.0606H49.4848V12.9091Z" fill="black"/>
<path d="M53.7879 12.9091H51.6364V15.0606H53.7879V12.9091Z" fill="black"/>
<path d="M58.0909 12.9091H55.9394V15.0606H58.0909V12.9091Z" fill="black"/>
<path d="M60.2424 12.9091H58.0909V15.0606H60.2424V12.9091Z" fill="black"/>
<path d="M62.3939 12.9091H60.2424V15.0606H62.3939V12.9091Z" fill="black"/>
<path d="M64.5455 12.9091H62.3939V15.0606H64.5455V12.9091Z" fill="black"/>
<path d="M66.697 12.9091H64.5455V15.0606H66.697V12.9091Z" fill="black"/>
<path d="M68.8485 12.9091H66.697V15.0606H68.8485V12.9091Z" fill="black"/>
<path d="M71 12.9091H68.8485V15.0606H71V12.9091Z" fill="black"/>
<path d="M19.3636 15.0606H17.2121V17.2121H19.3636V15.0606Z" fill="black"/>
<path d="M30.1212 15.0606H27.9697V17.2121H30.1212V15.0606Z" fill="black"/>
<path d="M36.5758 15.0606H34.4242V17.2121H36.5758V15.0606Z" fill="black"/>
<path d="M38.7273 15.0606H36.5758V17.2121H38.7273V15.0606Z" fill="black"/>
<path d="M40.8788 15.0606H38.7273V17.2121H40.8788V15.0606Z" fill="black"/>
<path d="M49.4848 15.0606H47.3333V17.2121H49.4848V15.0606Z" fill="black"/>
<path d="M51.6364 15.0606H49.4848V17.2121H51.6364V15.0606Z" fill="black"/>
<path d="M2.15151 17.2121H0V19.3636H2.15151V17.2121Z" fill="black"/>
<path d="M8.60606 17.2121H6.45455V19.3636H8.60606V17.2121Z" fill="black"/>
<path d="M10.7576 17.2121H8.60606V19.3636H10.7576V17.2121Z" fill="black"/>
<path d="M12.9091 17.2121H10.7576V19.3636H12.9091V17.2121Z" fill="black"/>
<path d="M15.0606 17.2121H12.9091V19.3636H15.0606V17.2121Z" fill="black"/>
<path d="M17.2121 17.2121H15.0606V19.3636H17.2121V17.2121Z" fill="black"/>
<path d="M19.3636 17.2121H17.2121V19.3636H19.3636V17.2121Z" fill="black"/>
<path d="M21.5152 17.2121H19.3636V19.3636H21.5152V17.2121Z" fill="black"/>
<path d="M27.9697 17.2121H25.8182V19.3636H27.9697V17.2121Z" fill="black"/>
<path d="M36.5758 17.2121H34.4242V19.3636H36.5758V17.2121Z" fill="black"/>
<path d="M40.8788 17.2121H38.7273V19.3636H40.8788V17.2121Z" fill="black"/>
<path d="M47.3333 17.2121H45.1818V19.3636H47.3333V17.2121Z" fill="black"/>
<path d="M55.9394 17.2121H53.7879V19.3636H55.9394V17.2121Z" fill="black"/>
<path d="M58.0909 17.2121H55.9394V19.3636H58.0909V17.2121Z" fill="black"/>
<path d="M62.3939 17.2121H60.2424V19.3636H62.3939V17.2121Z" fill="black"/>
<path d="M71 17.2121H68.8485V19.3636H71V17.2121Z" fill="black"/>
<path d="M4.30303 19.3636H2.15151V21.5152H4.30303V19.3636Z" fill="black"/>
<path d="M6.45455 19.3636H4.30303V21.5152H6.45455V19.3636Z" fill="black"/>
<path d="M8.60606 19.3636H6.45455V21.5152H8.60606V19.3636Z" fill="black"/>
<path d="M10.7576 19.3636H8.60606V21.5152H10.7576V19.3636Z" fill="black"/>
<path d="M12.9091 19.3636H10.7576V21.5152H12.9091V19.3636Z" fill="black"/>
<path d="M19.3636 19.3636H17.2121V21.5152H19.3636V19.3636Z" fill="black"/>
<path d="M23.6667 19.3636H21.5152V21.5152H23.6667V19.3636Z" fill="black"/>
<path d="M32.2727 19.3636H30.1212V21.5152H32.2727V19.3636Z" fill="black"/>
<path d="M38.7273 19.3636H36.5758V21.5152H38.7273V19.3636Z" fill="black"/>
<path d="M40.8788 19.3636H38.7273V21.5152H40.8788V19.3636Z" fill="black"/>
<path d="M45.1818 19.3636H43.0303V21.5152H45.1818V19.3636Z" fill="black"/>
<path d="M47.3333 19.3636H45.1818V21.5152H47.3333V19.3636Z" fill="black"/>
<path d="M51.6364 19.3636H49.4848V21.5152H51.6364V19.3636Z" fill="black"/>
<path d="M53.7879 19.3636H51.6364V21.5152H53.7879V19.3636Z" fill="black"/>
<path d="M55.9394 19.3636H53.7879V21.5152H55.9394V19.3636Z" fill="black"/>
<path d="M62.3939 19.3636H60.2424V21.5152H62.3939V19.3636Z" fill="black"/>
<path d="M64.5455 19.3636H62.3939V21.5152H64.5455V19.3636Z" fill="black"/>
<path d="M68.8485 19.3636H66.697V21.5152H68.8485V19.3636Z" fill="black"/>
<path d="M71 19.3636H68.8485V21.5152H71V19.3636Z" fill="black"/>
<path d="M4.30303 21.5152H2.15151V23.6667H4.30303V21.5152Z" fill="black"/>
<path d="M8.60606 21.5152H6.45455V23.6667H8.60606V21.5152Z" fill="black"/>
<path d="M12.9091 21.5152H10.7576V23.6667H12.9091V21.5152Z" fill="black"/>
<path d="M15.0606 21.5152H12.9091V23.6667H15.0606V21.5152Z" fill="black"/>
<path d="M19.3636 21.5152H17.2121V23.6667H19.3636V21.5152Z" fill="black"/>
<path d="M23.6667 21.5152H21.5152V23.6667H23.6667V21.5152Z" fill="black"/>
<path d="M30.1212 21.5152H27.9697V23.6667H30.1212V21.5152Z" fill="black"/>
<path d="M32.2727 21.5152H30.1212V23.6667H32.2727V21.5152Z" fill="black"/>
<path d="M34.4242 21.5152H32.2727V23.6667H34.4242V21.5152Z" fill="black"/>
<path d="M36.5758 21.5152H34.4242V23.6667H36.5758V21.5152Z" fill="black"/>
<path d="M38.7273 21.5152H36.5758V23.6667H38.7273V21.5152Z" fill="black"/>
<path d="M40.8788 21.5152H38.7273V23.6667H40.8788V21.5152Z" fill="black"/>
<path d="M45.1818 21.5152H43.0303V23.6667H45.1818V21.5152Z" fill="black"/>
<path d="M47.3333 21.5152H45.1818V23.6667H47.3333V21.5152Z" fill="black"/>
<path d="M49.4848 21.5152H47.3333V23.6667H49.4848V21.5152Z" fill="black"/>
<path d="M58.0909 21.5152H55.9394V23.6667H58.0909V21.5152Z" fill="black"/>
<path d="M62.3939 21.5152H60.2424V23.6667H62.3939V21.5152Z" fill="black"/>
<path d="M66.697 21.5152H64.5455V23.6667H66.697V21.5152Z" fill="black"/>
<path d="M71 21.5152H68.8485V23.6667H71V21.5152Z" fill="black"/>
<path d="M2.15151 23.6667H0V25.8182H2.15151V23.6667Z" fill="black"/>
<path d="M4.30303 23.6667H2.15151V25.8182H4.30303V23.6667Z" fill="black"/>
<path d="M6.45455 23.6667H4.30303V25.8182H6.45455V23.6667Z" fill="black"/>
<path d="M8.60606 23.6667H6.45455V25.8182H8.60606V23.6667Z" fill="black"/>
<path d="M21.5152 23.6667H19.3636V25.8182H21.5152V23.6667Z" fill="black"/>
<path d="M25.8182 23.6667H23.6667V25.8182H25.8182V23.6667Z" fill="black"/>
<path d="M32.2727 23.6667H30.1212V25.8182H32.2727V23.6667Z" fill="black"/>
<path d="M34.4242 23.6667H32.2727V25.8182H34.4242V23.6667Z" fill="black"/>
<path d="M36.5758 23.6667H34.4242V25.8182H36.5758V23.6667Z" fill="black"/>
<path d="M38.7273 23.6667H36.5758V25.8182H38.7273V23.6667Z" fill="black"/>
<path d="M43.0303 23.6667H40.8788L40.8788 25.8182H43.0303V23.6667Z" fill="black"/>
<path d="M45.1818 23.6667H43.0303V25.8182H45.1818V23.6667Z" fill="black"/>
<path d="M47.3333 23.6667H45.1818V25.8182H47.3333V23.6667Z" fill="black"/>
<path d="M49.4848 23.6667H47.3333V25.8182H49.4848V23.6667Z" fill="black"/>
<path d="M53.7879 23.6667H51.6364V25.8182H53.7879V23.6667Z" fill="black"/>
<path d="M58.0909 23.6667H55.9394V25.8182H58.0909V23.6667Z" fill="black"/>
<path d="M62.3939 23.6667H60.2424V25.8182H62.3939V23.6667Z" fill="black"/>
<path d="M64.5455 23.6667H62.3939V25.8182H64.5455V23.6667Z" fill="black"/>
<path d="M71 23.6667H68.8485V25.8182H71V23.6667Z" fill="black"/>
<path d="M2.15151 25.8182H0V27.9697H2.15151V25.8182Z" fill="black"/>
<path d="M4.30303 25.8182H2.15151V27.9697H4.30303V25.8182Z" fill="black"/>
<path d="M6.45455 25.8182H4.30303V27.9697H6.45455V25.8182Z" fill="black"/>
<path d="M8.60606 25.8182H6.45455V27.9697H8.60606V25.8182Z" fill="black"/>
<path d="M15.0606 25.8182H12.9091V27.9697H15.0606V25.8182Z" fill="black"/>
<path d="M19.3636 25.8182H17.2121V27.9697H19.3636V25.8182Z" fill="black"/>
<path d="M23.6667 25.8182H21.5152V27.9697H23.6667V25.8182Z" fill="black"/>
<path d="M27.9697 25.8182H25.8182V27.9697H27.9697V25.8182Z" fill="black"/>
<path d="M36.5758 25.8182H34.4242V27.9697H36.5758V25.8182Z" fill="black"/>
<path d="M43.0303 25.8182H40.8788V27.9697H43.0303V25.8182Z" fill="black"/>
<path d="M47.3333 25.8182H45.1818V27.9697H47.3333V25.8182Z" fill="black"/>
<path d="M51.6364 25.8182H49.4848V27.9697H51.6364V25.8182Z" fill="black"/>
<path d="M58.0909 25.8182H55.9394V27.9697H58.0909V25.8182Z" fill="black"/>
<path d="M64.5455 25.8182H62.3939V27.9697H64.5455V25.8182Z" fill="black"/>
<path d="M68.8485 25.8182H66.697V27.9697H68.8485V25.8182Z" fill="black"/>
<path d="M6.45455 27.9697H4.30303V30.1212H6.45455V27.9697Z" fill="black"/>
<path d="M21.5152 27.9697H19.3636V30.1212H21.5152V27.9697Z" fill="black"/>
<path d="M27.9697 27.9697H25.8182V30.1212H27.9697V27.9697Z" fill="black"/>
<path d="M32.2727 27.9697H30.1212V30.1212H32.2727V27.9697Z" fill="black"/>
<path d="M36.5758 27.9697H34.4242V30.1212H36.5758V27.9697Z" fill="black"/>
<path d="M38.7273 27.9697H36.5758V30.1212H38.7273V27.9697Z" fill="black"/>
<path d="M40.8788 27.9697H38.7273V30.1212H40.8788L40.8788 27.9697Z" fill="black"/>
<path d="M43.0303 27.9697H40.8788L40.8788 30.1212H43.0303V27.9697Z" fill="black"/>
<path d="M47.3333 27.9697H45.1818V30.1212H47.3333V27.9697Z" fill="black"/>
<path d="M51.6364 27.9697H49.4848V30.1212H51.6364V27.9697Z" fill="black"/>
<path d="M55.9394 27.9697H53.7879V30.1212H55.9394V27.9697Z" fill="black"/>
<path d="M58.0909 27.9697H55.9394V30.1212H58.0909V27.9697Z" fill="black"/>
<path d="M64.5455 27.9697H62.3939V30.1212H64.5455V27.9697Z" fill="black"/>
<path d="M66.697 27.9697H64.5455V30.1212H66.697V27.9697Z" fill="black"/>
<path d="M71 27.9697H68.8485V30.1212H71V27.9697Z" fill="black"/>
<path d="M2.15151 30.1212H0V32.2727H2.15151V30.1212Z" fill="black"/>
<path d="M8.60606 30.1212H6.45455V32.2727H8.60606V30.1212Z" fill="black"/>
<path d="M10.7576 30.1212H8.60606V32.2727H10.7576V30.1212Z" fill="black"/>
<path d="M12.9091 30.1212H10.7576V32.2727H12.9091V30.1212Z" fill="black"/>
<path d="M15.0606 30.1212H12.9091V32.2727H15.0606V30.1212Z" fill="black"/>
<path d="M21.5152 30.1212H19.3636V32.2727H21.5152V30.1212Z" fill="black"/>
<path d="M25.8182 30.1212H23.6667V32.2727H25.8182V30.1212Z" fill="black"/>
<path d="M27.9697 30.1212H25.8182V32.2727H27.9697V30.1212Z" fill="black"/>
<path d="M34.4242 30.1212H32.2727V32.2727H34.4242V30.1212Z" fill="black"/>
<path d="M38.7273 30.1212H36.5758V32.2727H38.7273V30.1212Z" fill="black"/>
<path d="M40.8788 30.1212H38.7273V32.2727H40.8788V30.1212Z" fill="black"/>
<path d="M43.0303 30.1212H40.8788V32.2727H43.0303V30.1212Z" fill="black"/>
<path d="M49.4848 30.1212H47.3333V32.2727H49.4848V30.1212Z" fill="black"/>
<path d="M51.6364 30.1212H49.4848V32.2727H51.6364V30.1212Z" fill="black"/>
<path d="M53.7879 30.1212H51.6364V32.2727H53.7879V30.1212Z" fill="black"/>
<path d="M62.3939 30.1212H60.2424V32.2727H62.3939V30.1212Z" fill="black"/>
<path d="M64.5455 30.1212H62.3939V32.2727H64.5455V30.1212Z" fill="black"/>
<path d="M66.697 30.1212H64.5455V32.2727H66.697V30.1212Z" fill="black"/>
<path d="M68.8485 30.1212H66.697V32.2727H68.8485V30.1212Z" fill="black"/>
<path d="M2.15151 32.2727H0V34.4242H2.15151V32.2727Z" fill="black"/>
<path d="M17.2121 32.2727H15.0606V34.4242H17.2121V32.2727Z" fill="black"/>
<path d="M21.5152 32.2727H19.3636V34.4242H21.5152V32.2727Z" fill="black"/>
<path d="M23.6667 32.2727H21.5152V34.4242H23.6667V32.2727Z" fill="black"/>
<path d="M25.8182 32.2727H23.6667V34.4242H25.8182V32.2727Z" fill="black"/>
<path d="M27.9697 32.2727H25.8182V34.4242H27.9697V32.2727Z" fill="black"/>
<path d="M36.5758 32.2727H34.4242V34.4242H36.5758V32.2727Z" fill="black"/>
<path d="M38.7273 32.2727H36.5758V34.4242H38.7273V32.2727Z" fill="black"/>
<path d="M40.8788 32.2727H38.7273V34.4242H40.8788V32.2727Z" fill="black"/>
<path d="M45.1818 32.2727H43.0303V34.4242H45.1818V32.2727Z" fill="black"/>
<path d="M49.4848 32.2727H47.3333V34.4242H49.4848V32.2727Z" fill="black"/>
<path d="M51.6364 32.2727H49.4848V34.4242H51.6364V32.2727Z" fill="black"/>
<path d="M55.9394 32.2727H53.7879V34.4242H55.9394V32.2727Z" fill="black"/>
<path d="M58.0909 32.2727H55.9394V34.4242H58.0909V32.2727Z" fill="black"/>
<path d="M71 32.2727H68.8485V34.4242H71V32.2727Z" fill="black"/>
<path d="M2.15151 34.4242H0V36.5758H2.15151V34.4242Z" fill="black"/>
<path d="M4.30303 34.4242H2.15151V36.5758H4.30303V34.4242Z" fill="black"/>
<path d="M12.9091 34.4242H10.7576V36.5758H12.9091V34.4242Z" fill="black"/>
<path d="M15.0606 34.4242H12.9091V36.5758H15.0606V34.4242Z" fill="black"/>
<path d="M17.2121 34.4242H15.0606V36.5758H17.2121V34.4242Z" fill="black"/>
<path d="M30.1212 34.4242H27.9697V36.5758H30.1212V34.4242Z" fill="black"/>
<path d="M32.2727 34.4242H30.1212V36.5758H32.2727V34.4242Z" fill="black"/>
<path d="M38.7273 34.4242H36.5758V36.5758H38.7273V34.4242Z" fill="black"/>
<path d="M45.1818 34.4242H43.0303V36.5758H45.1818V34.4242Z" fill="black"/>
<path d="M51.6364 34.4242H49.4848V36.5758H51.6364V34.4242Z" fill="black"/>
<path d="M55.9394 34.4242H53.7879V36.5758H55.9394V34.4242Z" fill="black"/>
<path d="M60.2424 34.4242H58.0909V36.5758H60.2424V34.4242Z" fill="black"/>
<path d="M64.5455 34.4242H62.3939V36.5758H64.5455V34.4242Z" fill="black"/>
<path d="M66.697 34.4242H64.5455V36.5758H66.697V34.4242Z" fill="black"/>
<path d="M2.15151 36.5758H0V38.7273H2.15151V36.5758Z" fill="black"/>
<path d="M4.30303 36.5758H2.15151V38.7273H4.30303V36.5758Z" fill="black"/>
<path d="M8.60606 36.5758H6.45455V38.7273H8.60606V36.5758Z" fill="black"/>
<path d="M17.2121 36.5758H15.0606V38.7273H17.2121V36.5758Z" fill="black"/>
<path d="M19.3636 36.5758H17.2121V38.7273H19.3636V36.5758Z" fill="black"/>
<path d="M23.6667 36.5758H21.5152V38.7273H23.6667V36.5758Z" fill="black"/>
<path d="M25.8182 36.5758H23.6667V38.7273H25.8182V36.5758Z" fill="black"/>
<path d="M30.1212 36.5758H27.9697V38.7273H30.1212V36.5758Z" fill="black"/>
<path d="M32.2727 36.5758H30.1212V38.7273H32.2727V36.5758Z" fill="black"/>
<path d="M34.4242 36.5758H32.2727V38.7273H34.4242V36.5758Z" fill="black"/>
<path d="M36.5758 36.5758H34.4242V38.7273H36.5758V36.5758Z" fill="black"/>
<path d="M38.7273 36.5758H36.5758V38.7273H38.7273V36.5758Z" fill="black"/>
<path d="M49.4848 36.5758H47.3333V38.7273H49.4848V36.5758Z" fill="black"/>
<path d="M51.6364 36.5758H49.4848V38.7273H51.6364V36.5758Z" fill="black"/>
<path d="M53.7879 36.5758H51.6364V38.7273H53.7879V36.5758Z" fill="black"/>
<path d="M58.0909 36.5758H55.9394V38.7273H58.0909V36.5758Z" fill="black"/>
<path d="M60.2424 36.5758H58.0909V38.7273H60.2424V36.5758Z" fill="black"/>
<path d="M64.5455 36.5758H62.3939V38.7273H64.5455V36.5758Z" fill="black"/>
<path d="M68.8485 36.5758H66.697V38.7273H68.8485V36.5758Z" fill="black"/>
<path d="M71 36.5758H68.8485V38.7273H71V36.5758Z" fill="black"/>
<path d="M8.60606 38.7273H6.45455V40.8788H8.60606V38.7273Z" fill="black"/>
<path d="M10.7576 38.7273H8.60606V40.8788H10.7576V38.7273Z" fill="black"/>
<path d="M12.9091 38.7273H10.7576V40.8788H12.9091V38.7273Z" fill="black"/>
<path d="M15.0606 38.7273H12.9091V40.8788H15.0606V38.7273Z" fill="black"/>
<path d="M21.5152 38.7273H19.3636V40.8788H21.5152V38.7273Z" fill="black"/>
<path d="M25.8182 38.7273H23.6667V40.8788H25.8182V38.7273Z" fill="black"/>
<path d="M27.9697 38.7273H25.8182V40.8788H27.9697V38.7273Z" fill="black"/>
<path d="M32.2727 38.7273H30.1212V40.8788H32.2727V38.7273Z" fill="black"/>
<path d="M38.7273 38.7273H36.5758V40.8788H38.7273V38.7273Z" fill="black"/>
<path d="M40.8788 38.7273H38.7273V40.8788H40.8788V38.7273Z" fill="black"/>
<path d="M47.3333 38.7273H45.1818V40.8788H47.3333V38.7273Z" fill="black"/>
<path d="M49.4848 38.7273H47.3333V40.8788H49.4848V38.7273Z" fill="black"/>
<path d="M51.6364 38.7273H49.4848V40.8788H51.6364V38.7273Z" fill="black"/>
<path d="M53.7879 38.7273H51.6364V40.8788H53.7879V38.7273Z" fill="black"/>
<path d="M55.9394 38.7273H53.7879V40.8788H55.9394V38.7273Z" fill="black"/>
<path d="M60.2424 38.7273H58.0909V40.8788H60.2424V38.7273Z" fill="black"/>
<path d="M62.3939 38.7273H60.2424V40.8788H62.3939V38.7273Z" fill="black"/>
<path d="M66.697 38.7273H64.5455V40.8788H66.697V38.7273Z" fill="black"/>
<path d="M4.30303 40.8788H2.15151V43.0303H4.30303V40.8788Z" fill="black"/>
<path d="M10.7576 40.8788H8.60606V43.0303H10.7576V40.8788Z" fill="black"/>
<path d="M12.9091 40.8788H10.7576V43.0303H12.9091V40.8788Z" fill="black"/>
<path d="M19.3636 40.8788L17.2121 40.8788V43.0303H19.3636V40.8788Z" fill="black"/>
<path d="M27.9697 40.8788H25.8182V43.0303H27.9697V40.8788Z" fill="black"/>
<path d="M30.1212 40.8788H27.9697V43.0303H30.1212V40.8788Z" fill="black"/>
<path d="M32.2727 40.8788H30.1212V43.0303H32.2727V40.8788Z" fill="black"/>
<path d="M34.4242 40.8788L32.2727 40.8788V43.0303H34.4242V40.8788Z" fill="black"/>
<path d="M43.0303 40.8788L40.8788 40.8788L40.8788 43.0303H43.0303V40.8788Z" fill="black"/>
<path d="M47.3333 40.8788H45.1818V43.0303H47.3333V40.8788Z" fill="black"/>
<path d="M53.7879 40.8788H51.6364V43.0303H53.7879V40.8788Z" fill="black"/>
<path d="M62.3939 40.8788H60.2424V43.0303H62.3939V40.8788Z" fill="black"/>
<path d="M64.5455 40.8788H62.3939V43.0303H64.5455V40.8788Z" fill="black"/>
<path d="M66.697 40.8788H64.5455V43.0303H66.697V40.8788Z" fill="black"/>
<path d="M68.8485 40.8788L66.697 40.8788V43.0303H68.8485V40.8788Z" fill="black"/>
<path d="M4.30303 43.0303H2.15151V45.1818H4.30303V43.0303Z" fill="black"/>
<path d="M8.60606 43.0303H6.45455V45.1818H8.60606V43.0303Z" fill="black"/>
<path d="M10.7576 43.0303H8.60606V45.1818H10.7576V43.0303Z" fill="black"/>
<path d="M15.0606 43.0303H12.9091V45.1818H15.0606V43.0303Z" fill="black"/>
<path d="M23.6667 43.0303H21.5152V45.1818H23.6667V43.0303Z" fill="black"/>
<path d="M27.9697 43.0303H25.8182V45.1818H27.9697V43.0303Z" fill="black"/>
<path d="M34.4242 43.0303H32.2727V45.1818H34.4242V43.0303Z" fill="black"/>
<path d="M36.5758 43.0303H34.4242V45.1818H36.5758V43.0303Z" fill="black"/>
<path d="M43.0303 43.0303H40.8788V45.1818H43.0303V43.0303Z" fill="black"/>
<path d="M47.3333 43.0303H45.1818V45.1818H47.3333V43.0303Z" fill="black"/>
<path d="M49.4848 43.0303H47.3333V45.1818H49.4848V43.0303Z" fill="black"/>
<path d="M53.7879 43.0303H51.6364V45.1818H53.7879V43.0303Z" fill="black"/>
<path d="M55.9394 43.0303H53.7879V45.1818H55.9394V43.0303Z" fill="black"/>
<path d="M60.2424 43.0303H58.0909V45.1818H60.2424V43.0303Z" fill="black"/>
<path d="M62.3939 43.0303H60.2424V45.1818H62.3939V43.0303Z" fill="black"/>
<path d="M68.8485 43.0303H66.697V45.1818H68.8485V43.0303Z" fill="black"/>
<path d="M2.15151 45.1818H0V47.3333H2.15151V45.1818Z" fill="black"/>
<path d="M4.30303 45.1818H2.15151V47.3333H4.30303V45.1818Z" fill="black"/>
<path d="M8.60606 45.1818H6.45455V47.3333H8.60606V45.1818Z" fill="black"/>
<path d="M10.7576 45.1818H8.60606V47.3333H10.7576V45.1818Z" fill="black"/>
<path d="M17.2121 45.1818H15.0606V47.3333H17.2121V45.1818Z" fill="black"/>
<path d="M19.3636 45.1818H17.2121V47.3333H19.3636V45.1818Z" fill="black"/>
<path d="M23.6667 45.1818H21.5152V47.3333H23.6667V45.1818Z" fill="black"/>
<path d="M25.8182 45.1818H23.6667V47.3333H25.8182V45.1818Z" fill="black"/>
<path d="M30.1212 45.1818H27.9697V47.3333H30.1212V45.1818Z" fill="black"/>
<path d="M32.2727 45.1818H30.1212V47.3333H32.2727V45.1818Z" fill="black"/>
<path d="M34.4242 45.1818H32.2727V47.3333H34.4242V45.1818Z" fill="black"/>
<path d="M36.5758 45.1818H34.4242V47.3333H36.5758V45.1818Z" fill="black"/>
<path d="M38.7273 45.1818H36.5758V47.3333H38.7273V45.1818Z" fill="black"/>
<path d="M51.6364 45.1818H49.4848V47.3333H51.6364V45.1818Z" fill="black"/>
<path d="M53.7879 45.1818H51.6364V47.3333H53.7879V45.1818Z" fill="black"/>
<path d="M58.0909 45.1818H55.9394V47.3333H58.0909V45.1818Z" fill="black"/>
<path d="M60.2424 45.1818H58.0909V47.3333H60.2424V45.1818Z" fill="black"/>
<path d="M64.5455 45.1818H62.3939V47.3333H64.5455V45.1818Z" fill="black"/>
<path d="M66.697 45.1818H64.5455V47.3333H66.697V45.1818Z" fill="black"/>
<path d="M68.8485 45.1818H66.697V47.3333H68.8485V45.1818Z" fill="black"/>
<path d="M71 45.1818H68.8485V47.3333H71V45.1818Z" fill="black"/>
<path d="M4.30303 47.3333H2.15151V49.4848H4.30303V47.3333Z" fill="black"/>
<path d="M6.45455 47.3333H4.30303V49.4848H6.45455V47.3333Z" fill="black"/>
<path d="M12.9091 47.3333H10.7576V49.4848H12.9091V47.3333Z" fill="black"/>
<path d="M15.0606 47.3333H12.9091V49.4848H15.0606V47.3333Z" fill="black"/>
<path d="M17.2121 47.3333H15.0606V49.4848H17.2121V47.3333Z" fill="black"/>
<path d="M19.3636 47.3333H17.2121V49.4848H19.3636V47.3333Z" fill="black"/>
<path d="M23.6667 47.3333H21.5152V49.4848H23.6667V47.3333Z" fill="black"/>
<path d="M30.1212 47.3333H27.9697V49.4848H30.1212V47.3333Z" fill="black"/>
<path d="M32.2727 47.3333H30.1212V49.4848H32.2727V47.3333Z" fill="black"/>
<path d="M36.5758 47.3333H34.4242V49.4848H36.5758V47.3333Z" fill="black"/>
<path d="M43.0303 47.3333H40.8788V49.4848H43.0303V47.3333Z" fill="black"/>
<path d="M45.1818 47.3333H43.0303V49.4848H45.1818V47.3333Z" fill="black"/>
<path d="M53.7879 47.3333H51.6364V49.4848H53.7879V47.3333Z" fill="black"/>
<path d="M58.0909 47.3333H55.9394V49.4848H58.0909V47.3333Z" fill="black"/>
<path d="M64.5455 47.3333H62.3939V49.4848H64.5455V47.3333Z" fill="black"/>
<path d="M66.697 47.3333H64.5455V49.4848H66.697V47.3333Z" fill="black"/>
<path d="M68.8485 47.3333H66.697V49.4848H68.8485V47.3333Z" fill="black"/>
<path d="M71 47.3333H68.8485V49.4848H71V47.3333Z" fill="black"/>
<path d="M2.15151 49.4848H0V51.6364H2.15151V49.4848Z" fill="black"/>
<path d="M8.60606 49.4848H6.45455V51.6364H8.60606V49.4848Z" fill="black"/>
<path d="M17.2121 49.4848H15.0606V51.6364H17.2121V49.4848Z" fill="black"/>
<path d="M21.5152 49.4848H19.3636V51.6364H21.5152V49.4848Z" fill="black"/>
<path d="M23.6667 49.4848H21.5152V51.6364H23.6667V49.4848Z" fill="black"/>
<path d="M25.8182 49.4848H23.6667V51.6364H25.8182V49.4848Z" fill="black"/>
<path d="M36.5758 49.4848H34.4242V51.6364H36.5758V49.4848Z" fill="black"/>
<path d="M38.7273 49.4848H36.5758V51.6364H38.7273V49.4848Z" fill="black"/>
<path d="M40.8788 49.4848H38.7273V51.6364H40.8788L40.8788 49.4848Z" fill="black"/>
<path d="M49.4848 49.4848H47.3333V51.6364H49.4848V49.4848Z" fill="black"/>
<path d="M51.6364 49.4848H49.4848V51.6364H51.6364V49.4848Z" fill="black"/>
<path d="M55.9394 49.4848H53.7879V51.6364H55.9394V49.4848Z" fill="black"/>
<path d="M64.5455 49.4848H62.3939V51.6364H64.5455V49.4848Z" fill="black"/>
<path d="M68.8485 49.4848H66.697V51.6364H68.8485V49.4848Z" fill="black"/>
<path d="M71 49.4848H68.8485V51.6364H71V49.4848Z" fill="black"/>
<path d="M4.30303 51.6364H2.15151V53.7879H4.30303V51.6364Z" fill="black"/>
<path d="M6.45455 51.6364H4.30303V53.7879H6.45455V51.6364Z" fill="black"/>
<path d="M8.60606 51.6364H6.45455V53.7879H8.60606V51.6364Z" fill="black"/>
<path d="M10.7576 51.6364H8.60606V53.7879H10.7576V51.6364Z" fill="black"/>
<path d="M15.0606 51.6364H12.9091V53.7879H15.0606V51.6364Z" fill="black"/>
<path d="M19.3636 51.6364H17.2121V53.7879H19.3636V51.6364Z" fill="black"/>
<path d="M25.8182 51.6364H23.6667V53.7879H25.8182V51.6364Z" fill="black"/>
<path d="M27.9697 51.6364H25.8182V53.7879H27.9697V51.6364Z" fill="black"/>
<path d="M34.4242 51.6364H32.2727V53.7879H34.4242V51.6364Z" fill="black"/>
<path d="M40.8788 51.6364H38.7273V53.7879H40.8788V51.6364Z" fill="black"/>
<path d="M45.1818 51.6364H43.0303V53.7879H45.1818V51.6364Z" fill="black"/>
<path d="M47.3333 51.6364H45.1818V53.7879H47.3333V51.6364Z" fill="black"/>
<path d="M49.4848 51.6364H47.3333V53.7879H49.4848V51.6364Z" fill="black"/>
<path d="M53.7879 51.6364H51.6364V53.7879H53.7879V51.6364Z" fill="black"/>
<path d="M55.9394 51.6364H53.7879V53.7879H55.9394V51.6364Z" fill="black"/>
<path d="M58.0909 51.6364H55.9394V53.7879H58.0909V51.6364Z" fill="black"/>
<path d="M60.2424 51.6364H58.0909V53.7879H60.2424V51.6364Z" fill="black"/>
<path d="M62.3939 51.6364H60.2424V53.7879H62.3939V51.6364Z" fill="black"/>
<path d="M64.5455 51.6364H62.3939V53.7879H64.5455V51.6364Z" fill="black"/>
<path d="M71 51.6364H68.8485V53.7879H71V51.6364Z" fill="black"/>
<path d="M19.3636 53.7879H17.2121V55.9394H19.3636V53.7879Z" fill="black"/>
<path d="M21.5152 53.7879H19.3636V55.9394H21.5152V53.7879Z" fill="black"/>
<path d="M30.1212 53.7879H27.9697V55.9394H30.1212V53.7879Z" fill="black"/>
<path d="M32.2727 53.7879H30.1212V55.9394H32.2727V53.7879Z" fill="black"/>
<path d="M34.4242 53.7879H32.2727V55.9394H34.4242V53.7879Z" fill="black"/>
<path d="M43.0303 53.7879H40.8788L40.8788 55.9394H43.0303V53.7879Z" fill="black"/>
<path d="M45.1818 53.7879H43.0303V55.9394H45.1818V53.7879Z" fill="black"/>
<path d="M49.4848 53.7879H47.3333V55.9394H49.4848V53.7879Z" fill="black"/>
<path d="M53.7879 53.7879H51.6364V55.9394H53.7879V53.7879Z" fill="black"/>
<path d="M62.3939 53.7879H60.2424V55.9394H62.3939V53.7879Z" fill="black"/>
<path d="M71 53.7879H68.8485V55.9394H71V53.7879Z" fill="black"/>
<path d="M2.15151 55.9394H0V58.0909H2.15151V55.9394Z" fill="black"/>
<path d="M4.30303 55.9394H2.15151V58.0909H4.30303V55.9394Z" fill="black"/>
<path d="M6.45455 55.9394H4.30303V58.0909H6.45455V55.9394Z" fill="black"/>
<path d="M8.60606 55.9394H6.45455V58.0909H8.60606V55.9394Z" fill="black"/>
<path d="M10.7576 55.9394H8.60606V58.0909H10.7576V55.9394Z" fill="black"/>
<path d="M12.9091 55.9394H10.7576V58.0909H12.9091V55.9394Z" fill="black"/>
<path d="M15.0606 55.9394H12.9091V58.0909H15.0606V55.9394Z" fill="black"/>
<path d="M19.3636 55.9394H17.2121V58.0909H19.3636V55.9394Z" fill="black"/>
<path d="M23.6667 55.9394H21.5152V58.0909H23.6667V55.9394Z" fill="black"/>
<path d="M27.9697 55.9394H25.8182V58.0909H27.9697V55.9394Z" fill="black"/>
<path d="M32.2727 55.9394H30.1212V58.0909H32.2727V55.9394Z" fill="black"/>
<path d="M34.4242 55.9394H32.2727V58.0909H34.4242V55.9394Z" fill="black"/>
<path d="M36.5758 55.9394H34.4242V58.0909H36.5758V55.9394Z" fill="black"/>
<path d="M43.0303 55.9394H40.8788V58.0909H43.0303V55.9394Z" fill="black"/>
<path d="M45.1818 55.9394H43.0303V58.0909H45.1818V55.9394Z" fill="black"/>
<path d="M53.7879 55.9394H51.6364V58.0909H53.7879V55.9394Z" fill="black"/>
<path d="M58.0909 55.9394H55.9394V58.0909H58.0909V55.9394Z" fill="black"/>
<path d="M62.3939 55.9394H60.2424V58.0909H62.3939V55.9394Z" fill="black"/>
<path d="M64.5455 55.9394H62.3939V58.0909H64.5455V55.9394Z" fill="black"/>
<path d="M66.697 55.9394H64.5455V58.0909H66.697V55.9394Z" fill="black"/>
<path d="M2.15151 58.0909H0V60.2424H2.15151V58.0909Z" fill="black"/>
<path d="M15.0606 58.0909H12.9091V60.2424H15.0606V58.0909Z" fill="black"/>
<path d="M19.3636 58.0909H17.2121V60.2424H19.3636V58.0909Z" fill="black"/>
<path d="M27.9697 58.0909H25.8182V60.2424H27.9697V58.0909Z" fill="black"/>
<path d="M30.1212 58.0909H27.9697V60.2424H30.1212V58.0909Z" fill="black"/>
<path d="M32.2727 58.0909H30.1212V60.2424H32.2727V58.0909Z" fill="black"/>
<path d="M40.8788 58.0909H38.7273V60.2424H40.8788L40.8788 58.0909Z" fill="black"/>
<path d="M43.0303 58.0909H40.8788L40.8788 60.2424H43.0303V58.0909Z" fill="black"/>
<path d="M45.1818 58.0909H43.0303V60.2424H45.1818V58.0909Z" fill="black"/>
<path d="M47.3333 58.0909H45.1818V60.2424H47.3333V58.0909Z" fill="black"/>
<path d="M49.4848 58.0909H47.3333V60.2424H49.4848V58.0909Z" fill="black"/>
<path d="M51.6364 58.0909H49.4848V60.2424H51.6364V58.0909Z" fill="black"/>
<path d="M53.7879 58.0909H51.6364V60.2424H53.7879V58.0909Z" fill="black"/>
<path d="M62.3939 58.0909H60.2424V60.2424H62.3939V58.0909Z" fill="black"/>
<path d="M64.5455 58.0909H62.3939V60.2424H64.5455V58.0909Z" fill="black"/>
<path d="M66.697 58.0909H64.5455V60.2424H66.697V58.0909Z" fill="black"/>
<path d="M2.15151 60.2424H0V62.3939H2.15151V60.2424Z" fill="black"/>
<path d="M6.45455 60.2424H4.30303V62.3939H6.45455V60.2424Z" fill="black"/>
<path d="M8.60606 60.2424H6.45455V62.3939H8.60606V60.2424Z" fill="black"/>
<path d="M10.7576 60.2424H8.60606V62.3939H10.7576V60.2424Z" fill="black"/>
<path d="M15.0606 60.2424H12.9091V62.3939H15.0606V60.2424Z" fill="black"/>
<path d="M19.3636 60.2424H17.2121V62.3939H19.3636V60.2424Z" fill="black"/>
<path d="M34.4242 60.2424H32.2727V62.3939H34.4242V60.2424Z" fill="black"/>
<path d="M36.5758 60.2424H34.4242V62.3939H36.5758V60.2424Z" fill="black"/>
<path d="M45.1818 60.2424H43.0303V62.3939H45.1818V60.2424Z" fill="black"/>
<path d="M49.4848 60.2424H47.3333V62.3939H49.4848V60.2424Z" fill="black"/>
<path d="M51.6364 60.2424H49.4848V62.3939H51.6364V60.2424Z" fill="black"/>
<path d="M53.7879 60.2424H51.6364V62.3939H53.7879V60.2424Z" fill="black"/>
<path d="M55.9394 60.2424H53.7879V62.3939H55.9394V60.2424Z" fill="black"/>
<path d="M58.0909 60.2424H55.9394V62.3939H58.0909V60.2424Z" fill="black"/>
<path d="M60.2424 60.2424H58.0909V62.3939H60.2424V60.2424Z" fill="black"/>
<path d="M62.3939 60.2424H60.2424V62.3939H62.3939V60.2424Z" fill="black"/>
<path d="M64.5455 60.2424H62.3939V62.3939H64.5455V60.2424Z" fill="black"/>
<path d="M66.697 60.2424H64.5455V62.3939H66.697V60.2424Z" fill="black"/>
<path d="M2.15151 62.3939H0V64.5455H2.15151V62.3939Z" fill="black"/>
<path d="M6.45455 62.3939H4.30303V64.5455H6.45455V62.3939Z" fill="black"/>
<path d="M8.60606 62.3939H6.45455V64.5455H8.60606V62.3939Z" fill="black"/>
<path d="M10.7576 62.3939H8.60606V64.5455H10.7576V62.3939Z" fill="black"/>
<path d="M15.0606 62.3939H12.9091V64.5455H15.0606V62.3939Z" fill="black"/>
<path d="M19.3636 62.3939H17.2121V64.5455H19.3636V62.3939Z" fill="black"/>
<path d="M21.5152 62.3939H19.3636V64.5455H21.5152V62.3939Z" fill="black"/>
<path d="M23.6667 62.3939H21.5152V64.5455H23.6667V62.3939Z" fill="black"/>
<path d="M27.9697 62.3939H25.8182V64.5455H27.9697V62.3939Z" fill="black"/>
<path d="M30.1212 62.3939H27.9697V64.5455H30.1212V62.3939Z" fill="black"/>
<path d="M36.5758 62.3939H34.4242V64.5455H36.5758V62.3939Z" fill="black"/>
<path d="M38.7273 62.3939H36.5758V64.5455H38.7273V62.3939Z" fill="black"/>
<path d="M40.8788 62.3939H38.7273V64.5455H40.8788V62.3939Z" fill="black"/>
<path d="M45.1818 62.3939H43.0303V64.5455H45.1818V62.3939Z" fill="black"/>
<path d="M47.3333 62.3939H45.1818V64.5455H47.3333V62.3939Z" fill="black"/>
<path d="M51.6364 62.3939H49.4848V64.5455H51.6364V62.3939Z" fill="black"/>
<path d="M53.7879 62.3939H51.6364V64.5455H53.7879V62.3939Z" fill="black"/>
<path d="M58.0909 62.3939H55.9394V64.5455H58.0909V62.3939Z" fill="black"/>
<path d="M62.3939 62.3939H60.2424V64.5455H62.3939V62.3939Z" fill="black"/>
<path d="M66.697 62.3939H64.5455V64.5455H66.697V62.3939Z" fill="black"/>
<path d="M71 62.3939H68.8485V64.5455H71V62.3939Z" fill="black"/>
<path d="M2.15151 64.5455H0V66.697H2.15151V64.5455Z" fill="black"/>
<path d="M6.45455 64.5455H4.30303V66.697H6.45455V64.5455Z" fill="black"/>
<path d="M8.60606 64.5455H6.45455V66.697H8.60606V64.5455Z" fill="black"/>
<path d="M10.7576 64.5455H8.60606V66.697H10.7576V64.5455Z" fill="black"/>
<path d="M15.0606 64.5455H12.9091V66.697H15.0606V64.5455Z" fill="black"/>
<path d="M21.5152 64.5455H19.3636V66.697H21.5152V64.5455Z" fill="black"/>
<path d="M32.2727 64.5455H30.1212V66.697H32.2727V64.5455Z" fill="black"/>
<path d="M38.7273 64.5455H36.5758V66.697H38.7273V64.5455Z" fill="black"/>
<path d="M47.3333 64.5455H45.1818V66.697H47.3333V64.5455Z" fill="black"/>
<path d="M49.4848 64.5455H47.3333V66.697H49.4848V64.5455Z" fill="black"/>
<path d="M55.9394 64.5455H53.7879V66.697H55.9394V64.5455Z" fill="black"/>
<path d="M71 64.5455H68.8485V66.697H71V64.5455Z" fill="black"/>
<path d="M2.15151 66.697H0V68.8485H2.15151V66.697Z" fill="black"/>
<path d="M15.0606 66.697H12.9091V68.8485H15.0606V66.697Z" fill="black"/>
<path d="M21.5152 66.697H19.3636V68.8485H21.5152V66.697Z" fill="black"/>
<path d="M32.2727 66.697H30.1212V68.8485H32.2727V66.697Z" fill="black"/>
<path d="M36.5758 66.697H34.4242V68.8485H36.5758V66.697Z" fill="black"/>
<path d="M38.7273 66.697H36.5758V68.8485H38.7273V66.697Z" fill="black"/>
<path d="M40.8788 66.697H38.7273V68.8485H40.8788V66.697Z" fill="black"/>
<path d="M43.0303 66.697H40.8788V68.8485H43.0303V66.697Z" fill="black"/>
<path d="M45.1818 66.697H43.0303V68.8485H45.1818V66.697Z" fill="black"/>
<path d="M47.3333 66.697H45.1818V68.8485H47.3333V66.697Z" fill="black"/>
<path d="M49.4848 66.697H47.3333V68.8485H49.4848V66.697Z" fill="black"/>
<path d="M53.7879 66.697H51.6364V68.8485H53.7879V66.697Z" fill="black"/>
<path d="M55.9394 66.697H53.7879V68.8485H55.9394V66.697Z" fill="black"/>
<path d="M58.0909 66.697H55.9394V68.8485H58.0909V66.697Z" fill="black"/>
<path d="M60.2424 66.697H58.0909V68.8485H60.2424V66.697Z" fill="black"/>
<path d="M64.5455 66.697H62.3939V68.8485H64.5455V66.697Z" fill="black"/>
<path d="M2.15151 68.8485H0V71H2.15151V68.8485Z" fill="black"/>
<path d="M4.30303 68.8485H2.15151V71H4.30303V68.8485Z" fill="black"/>
<path d="M6.45455 68.8485H4.30303V71H6.45455V68.8485Z" fill="black"/>
<path d="M8.60606 68.8485H6.45455V71H8.60606V68.8485Z" fill="black"/>
<path d="M10.7576 68.8485H8.60606V71H10.7576V68.8485Z" fill="black"/>
<path d="M12.9091 68.8485H10.7576V71H12.9091V68.8485Z" fill="black"/>
<path d="M15.0606 68.8485H12.9091V71H15.0606V68.8485Z" fill="black"/>
<path d="M19.3636 68.8485H17.2121V71H19.3636V68.8485Z" fill="black"/>
<path d="M25.8182 68.8485H23.6667V71H25.8182V68.8485Z" fill="black"/>
<path d="M51.6364 68.8485H49.4848V71H51.6364V68.8485Z" fill="black"/>
<path d="M60.2424 68.8485H58.0909V71H60.2424V68.8485Z" fill="black"/>
<path d="M71 68.8485H68.8485V71H71V68.8485Z" fill="black"/>
</svg>
