<svg width="49" height="9" viewBox="0 0 49 9" fill="none" xmlns="http://www.w3.org/2000/svg">
<path d="M0 1H6C7.10457 1 8 1.89543 8 3V3C8 4.10457 7.10457 5 6 5H2C0.895431 5 0 4.10457 0 3V1Z" fill="#2552F4"/>
<rect width="4" height="4" rx="2" transform="matrix(-1 0 0 1 8 5)" fill="#2552F4"/>
<path d="M14.9062 8.85991C14.2246 8.85991 13.7192 8.66846 13.3899 8.28556C13.0683 7.90267 12.9075 7.3781 12.9075 6.71187V4.16179H12V2.72593L14.5156 1.09375V1.0948V2.72593H16.3535V4.16179H14.5156V6.37875C14.5156 6.57785 14.5386 6.75016 14.5845 6.89566C14.6381 7.04116 14.7224 7.15602 14.8372 7.24026C14.9598 7.31684 15.1244 7.35513 15.3312 7.35513C15.515 7.35513 15.6681 7.32833 15.7907 7.27472C15.9208 7.21346 16.0281 7.14837 16.1123 7.07945L16.6177 8.32002C16.4569 8.45021 16.2769 8.55742 16.0778 8.64166C15.8864 8.71824 15.6911 8.77184 15.492 8.80247C15.2929 8.84076 15.0976 8.85991 14.9062 8.85991Z" fill="black"/>
<path d="M20.0049 8.85991C19.3693 8.85991 18.8294 8.73355 18.3852 8.48084C17.9411 8.22813 17.6003 7.87204 17.3629 7.41256C17.1255 6.94543 17.0068 6.40172 17.0068 5.78143C17.0068 5.15349 17.1294 4.60595 17.3744 4.13881C17.6195 3.66403 17.9641 3.29262 18.4082 3.02459C18.86 2.75657 19.3923 2.62255 20.0049 2.62255C20.4644 2.62255 20.8664 2.69913 21.211 2.85229C21.5633 3.00545 21.8581 3.21987 22.0955 3.49555C22.3405 3.77124 22.5205 4.09287 22.6354 4.46045C22.7579 4.82037 22.8153 5.21092 22.8077 5.63211C22.8077 5.73932 22.8038 5.8427 22.7962 5.94225C22.7885 6.0418 22.7732 6.14135 22.7502 6.24091H18.6035C18.6265 6.47064 18.6916 6.68124 18.7988 6.87268C18.906 7.06413 19.0553 7.21729 19.2468 7.33216C19.4459 7.43937 19.6909 7.49297 19.9819 7.49297C20.1734 7.49297 20.3495 7.47383 20.5103 7.43554C20.6711 7.38959 20.809 7.32067 20.9238 7.22878C21.0387 7.13688 21.1191 7.02967 21.1651 6.90714H22.7502C22.6507 7.35896 22.4631 7.73037 22.1874 8.02137C21.9194 8.31237 21.5939 8.52679 21.211 8.66463C20.8281 8.79481 20.4261 8.85991 20.0049 8.85991ZM18.638 5.1152H21.2684C21.2608 4.90843 21.2072 4.71699 21.1076 4.54085C21.0157 4.35706 20.8741 4.21156 20.6826 4.10435C20.4988 3.98949 20.2614 3.93205 19.9704 3.93205C19.6794 3.93205 19.4344 3.98949 19.2353 4.10435C19.0438 4.21922 18.8983 4.36855 18.7988 4.55234C18.7069 4.72847 18.6533 4.91609 18.638 5.1152Z" fill="black"/>
<path d="M23.7978 8.7795V2.72593H25.3026L25.383 3.42663C25.5514 3.21987 25.7429 3.05905 25.9573 2.94418C26.1794 2.82166 26.4015 2.73742 26.6236 2.69147C26.8533 2.64553 27.0601 2.62255 27.2438 2.62255C27.8258 2.62255 28.2777 2.74891 28.5993 3.00162C28.9286 3.25433 29.1621 3.5951 29.3 4.02395C29.4455 4.44513 29.5182 4.91609 29.5182 5.43683V8.7795H27.9101V5.64359C27.9101 5.4598 27.8948 5.27601 27.8641 5.09222C27.8335 4.90843 27.7761 4.73996 27.6918 4.5868C27.6153 4.43364 27.5042 4.31112 27.3587 4.21922C27.2132 4.12733 27.0218 4.08138 26.7844 4.08138C26.4781 4.08138 26.2215 4.15796 26.0148 4.31112C25.808 4.46428 25.6548 4.67104 25.5553 4.93141C25.4557 5.19178 25.4059 5.47895 25.4059 5.79292V8.7795H23.7978Z" fill="black"/>
<path d="M30.7068 8.7795V2.72593H32.1541L32.2919 3.40366C32.4451 3.18924 32.6136 3.02842 32.7974 2.92121C32.9888 2.80634 33.1803 2.72976 33.3717 2.69147C33.5632 2.65318 33.7393 2.63404 33.9001 2.63404C34.26 2.63404 34.5778 2.70296 34.8535 2.8408C35.1292 2.97864 35.3513 3.20072 35.5198 3.50704C35.6806 3.28496 35.8567 3.11266 36.0481 2.99013C36.2396 2.85995 36.4425 2.76805 36.6569 2.71445C36.8714 2.66084 37.0896 2.63404 37.3117 2.63404C37.7788 2.63404 38.1541 2.73359 38.4374 2.9327C38.7284 3.12414 38.939 3.39217 39.0692 3.73678C39.207 4.08138 39.2759 4.48342 39.2759 4.94289V8.7795H37.6678V5.36791C37.6678 5.23007 37.6601 5.08839 37.6448 4.94289C37.6295 4.79739 37.5912 4.65955 37.5299 4.52937C37.4763 4.39918 37.3921 4.29197 37.2772 4.20774C37.17 4.1235 37.0169 4.08138 36.8178 4.08138C36.6263 4.08138 36.4655 4.1235 36.3353 4.20774C36.2051 4.29197 36.1017 4.40684 36.0252 4.55234C35.9486 4.69018 35.8912 4.84334 35.8529 5.01182C35.8222 5.17263 35.8069 5.33728 35.8069 5.50575V8.7795H34.1988V5.35642C34.1988 5.22624 34.1911 5.08839 34.1758 4.94289C34.1605 4.79739 34.126 4.65955 34.0724 4.52937C34.0188 4.39918 33.9307 4.29197 33.8082 4.20774C33.6933 4.1235 33.5325 4.08138 33.3258 4.08138C33.0424 4.08138 32.8242 4.16562 32.671 4.33409C32.5255 4.49491 32.4298 4.69018 32.3838 4.91992C32.3379 5.142 32.3149 5.34876 32.3149 5.54021V8.7795H30.7068Z" fill="black"/>
<path d="M40.4426 8.7795V2.72593H42.0507V8.7795H40.4426Z" fill="black"/>
<path d="M43.2796 8.7795V2.72593H44.7843L44.8647 3.42663C45.0332 3.21987 45.2247 3.05905 45.4391 2.94418C45.6612 2.82166 45.8832 2.73742 46.1053 2.69147C46.3351 2.64553 46.5418 2.62255 46.7256 2.62255C47.3076 2.62255 47.7594 2.74891 48.0811 3.00162C48.4103 3.25433 48.6439 3.5951 48.7817 4.02395C48.9272 4.44513 49 4.91609 49 5.43683V8.7795H47.3918V5.64359C47.3918 5.4598 47.3765 5.27601 47.3459 5.09222C47.3153 4.90843 47.2578 4.73996 47.1736 4.5868C47.097 4.43364 46.986 4.31112 46.8405 4.21922C46.695 4.12733 46.5035 4.08138 46.2661 4.08138C45.9598 4.08138 45.7033 4.15796 45.4965 4.31112C45.2898 4.46428 45.1366 4.67104 45.037 4.93141C44.9375 5.19178 44.8877 5.47895 44.8877 5.79292V8.7795H43.2796Z" fill="black"/>
<rect x="40.4375" y="0.378906" width="1.60786" height="1.43212" fill="black"/>
</svg>
