<svg width="114" height="33" viewBox="0 0 114 33" fill="none" xmlns="http://www.w3.org/2000/svg">
<path d="M34.698 16.4812V25.1406H30.3683V16.4812H28.933V12.8691H30.3683V9.18525H34.698V12.8691H37.1619V16.4812H34.698ZM47.4195 17.2227C47.276 16.6167 46.981 16.1303 46.5344 15.7636C46.0879 15.3968 45.5457 15.2134 44.9078 15.2134C44.238 15.2134 43.6878 15.3888 43.2573 15.7396C42.8426 16.0905 42.5795 16.5848 42.4679 17.2227H47.4195ZM42.3483 19.7345C42.3483 21.6003 43.2254 22.5332 44.9796 22.5332C45.9205 22.5332 46.6301 22.1505 47.1085 21.385H51.2947C50.4495 24.1918 48.3365 25.5951 44.9557 25.5951C43.9191 25.5951 42.9702 25.4436 42.109 25.1406C41.2479 24.8217 40.5063 24.3751 39.8844 23.801C39.2784 23.2269 38.8079 22.5412 38.473 21.7438C38.1381 20.9465 37.9707 20.0534 37.9707 19.0647C37.9707 18.044 38.1302 17.1271 38.4491 16.3137C38.7681 15.4845 39.2226 14.7828 39.8126 14.2087C40.4027 13.6346 41.1123 13.196 41.9416 12.893C42.7868 12.5741 43.7357 12.4146 44.7882 12.4146C45.8248 12.4146 46.7577 12.5741 47.587 12.893C48.4162 13.196 49.1179 13.6425 49.692 14.2326C50.2661 14.8227 50.7047 15.5483 51.0077 16.4094C51.3107 17.2546 51.4622 18.2115 51.4622 19.28V19.7345H42.3483ZM53.363 12.8691H57.6927V14.424C58.2828 13.7063 58.8808 13.2279 59.4868 12.9887C60.0928 12.7335 60.8024 12.606 61.6158 12.606C62.4769 12.606 63.2105 12.7495 63.8165 13.0365C64.4385 13.3077 64.9647 13.6984 65.3953 14.2087C65.7461 14.6233 65.9853 15.0858 66.1129 15.5961C66.2405 16.1064 66.3043 16.6885 66.3043 17.3423V25.1406H61.9746V18.9451C61.9746 18.3391 61.9267 17.8527 61.8311 17.4859C61.7513 17.1031 61.5998 16.8001 61.3766 16.5769C61.1852 16.3855 60.9699 16.2499 60.7307 16.1702C60.4915 16.0905 60.2363 16.0506 59.9652 16.0506C59.2316 16.0506 58.6655 16.2739 58.2668 16.7204C57.8841 17.151 57.6927 17.7729 57.6927 18.5862V25.1406H53.363V12.8691ZM68.674 12.8691H73.0037V14.3761C74.1838 13.2439 75.5074 12.6777 76.9746 12.6777C78.7926 12.6777 80.18 13.4432 81.1369 14.9742C82.1097 13.4273 83.4971 12.6538 85.2991 12.6538C85.8733 12.6538 86.4155 12.7415 86.9258 12.9169C87.4361 13.0764 87.8747 13.3395 88.2414 13.7063C88.6082 14.0572 88.8953 14.5197 89.1026 15.0938C89.3259 15.6679 89.4375 16.3616 89.4375 17.1749V25.1406H85.1078V19.0886C85.1078 18.4666 85.0599 17.9563 84.9643 17.5576C84.8845 17.159 84.7569 16.848 84.5815 16.6247C84.422 16.4014 84.2307 16.2499 84.0074 16.1702C83.7841 16.0905 83.5449 16.0506 83.2898 16.0506C81.9023 16.0506 81.2086 17.0633 81.2086 19.0886V25.1406H76.8789V19.0886C76.8789 18.4666 76.839 17.9563 76.7593 17.5576C76.6796 17.143 76.56 16.8161 76.4005 16.5769C76.257 16.3377 76.0656 16.1782 75.8264 16.0984C75.5872 16.0028 75.3081 15.9549 74.9892 15.9549C74.718 15.9549 74.4629 15.9948 74.2237 16.0745C73.9845 16.1543 73.7692 16.3137 73.5778 16.5529C73.4024 16.7762 73.2589 17.0952 73.1472 17.5098C73.0515 17.9085 73.0037 18.4347 73.0037 19.0886V25.1406H68.674V12.8691ZM96.1638 12.8691V25.1406H91.8341V12.8691H96.1638ZM91.547 8.15664C91.547 7.82175 91.6108 7.51077 91.7384 7.22372C91.866 6.92072 92.0414 6.65759 92.2647 6.43432C92.4879 6.21106 92.7431 6.03564 93.0301 5.90806C93.3331 5.78048 93.6521 5.71669 93.987 5.71669C94.3219 5.71669 94.6329 5.78048 94.9199 5.90806C95.2229 6.03564 95.486 6.21106 95.7093 6.43432C95.9326 6.65759 96.108 6.92072 96.2356 7.22372C96.3632 7.51077 96.4269 7.82175 96.4269 8.15664C96.4269 8.49154 96.3632 8.81049 96.2356 9.11349C96.108 9.40054 95.9326 9.6557 95.7093 9.87896C95.486 10.1022 95.2229 10.2776 94.9199 10.4052C94.6329 10.5328 94.3219 10.5966 93.987 10.5966C93.6521 10.5966 93.3331 10.5328 93.0301 10.4052C92.7431 10.2776 92.4879 10.1022 92.2647 9.87896C92.0414 9.6557 91.866 9.40054 91.7384 9.11349C91.6108 8.81049 91.547 8.49154 91.547 8.15664ZM98.5484 12.8691H102.878V14.424C103.468 13.7063 104.066 13.2279 104.672 12.9887C105.278 12.7335 105.988 12.606 106.801 12.606C107.662 12.606 108.396 12.7495 109.002 13.0365C109.624 13.3077 110.15 13.6984 110.581 14.2087C110.932 14.6233 111.171 15.0858 111.298 15.5961C111.426 16.1064 111.49 16.6885 111.49 17.3423V25.1406H107.16V18.9451C107.16 18.3391 107.112 17.8527 107.017 17.4859C106.937 17.1031 106.785 16.8001 106.562 16.5769C106.371 16.3855 106.155 16.2499 105.916 16.1702C105.677 16.0905 105.422 16.0506 105.151 16.0506C104.417 16.0506 103.851 16.2739 103.452 16.7204C103.07 17.151 102.878 17.7729 102.878 18.5862V25.1406H98.5484V12.8691Z" fill="black"/>
<rect y="7.19922" width="4.27973" height="16.4056" rx="2.13987" fill="#0039FF"/>
<rect x="15.6953" y="7.19922" width="4.27973" height="16.4056" rx="2.13987" fill="#0039FF"/>
<rect x="7.84375" y="4.3457" width="4.27973" height="22.8252" rx="2.13987" fill="#0039FF"/>
</svg>
