<svg width="31" height="27" viewBox="0 0 31 27" fill="none" xmlns="http://www.w3.org/2000/svg">
<path d="M20.6189 16.0149C20.6189 21.5459 16.135 26.0297 10.604 26.0297C5.07292 26.0297 0 26.8479 0 21.3169C0 18.8455 1.48424 11.2813 2.96798 9.53466C4.80498 7.37214 7.54424 6 10.604 6C16.135 6 20.6189 10.4838 20.6189 16.0149Z" fill="#99B0FF"/>
<path d="M9.61552 10.0149C9.61552 15.5459 14.0993 20.0297 19.6304 20.0297C25.1615 20.0297 30.2344 20.8479 30.2344 15.3169C30.2344 12.8455 28.7501 5.2813 27.2664 3.53466C25.4294 1.37214 22.6901 0 19.6304 0C14.0993 0 9.61552 4.48381 9.61552 10.0149Z" fill="#0039FF"/>
</svg>
