<svg width="114" height="32" viewBox="0 0 114 32" fill="none" xmlns="http://www.w3.org/2000/svg">
<path d="M34.698 16.3406V25H30.3683V16.3406H28.933V12.7285H30.3683V9.04462H34.698V12.7285H37.1619V16.3406H34.698ZM47.4195 17.0821C47.276 16.4761 46.981 15.9897 46.5344 15.6229C46.0879 15.2561 45.5457 15.0727 44.9078 15.0727C44.238 15.0727 43.6878 15.2482 43.2573 15.599C42.8426 15.9498 42.5795 16.4442 42.4679 17.0821H47.4195ZM42.3483 19.5938C42.3483 21.4597 43.2254 22.3926 44.9796 22.3926C45.9205 22.3926 46.6301 22.0099 47.1085 21.2444H51.2947C50.4495 24.0511 48.3365 25.4545 44.9557 25.4545C43.9191 25.4545 42.9702 25.303 42.109 25C41.2479 24.6811 40.5063 24.2345 39.8844 23.6604C39.2784 23.0863 38.8079 22.4006 38.473 21.6032C38.1381 20.8058 37.9707 19.9128 37.9707 18.924C37.9707 17.9034 38.1302 16.9864 38.4491 16.1731C38.7681 15.3438 39.2226 14.6422 39.8126 14.0681C40.4027 13.4939 41.1123 13.0554 41.9416 12.7524C42.7868 12.4334 43.7357 12.274 44.7882 12.274C45.8248 12.274 46.7577 12.4334 47.587 12.7524C48.4162 13.0554 49.1179 13.5019 49.692 14.092C50.2661 14.682 50.7047 15.4076 51.0077 16.2688C51.3107 17.114 51.4622 18.0709 51.4622 19.1393V19.5938H42.3483ZM53.363 12.7285H57.6927V14.2833C58.2828 13.5657 58.8808 13.0873 59.4868 12.8481C60.0928 12.5929 60.8024 12.4653 61.6158 12.4653C62.4769 12.4653 63.2105 12.6089 63.8165 12.8959C64.4385 13.167 64.9647 13.5577 65.3953 14.0681C65.7461 14.4827 65.9853 14.9452 66.1129 15.4555C66.2405 15.9658 66.3043 16.5479 66.3043 17.2017V25H61.9746V18.8044C61.9746 18.1984 61.9267 17.712 61.8311 17.3452C61.7513 16.9625 61.5998 16.6595 61.3766 16.4362C61.1852 16.2449 60.9699 16.1093 60.7307 16.0296C60.4915 15.9498 60.2363 15.91 59.9652 15.91C59.2316 15.91 58.6655 16.1332 58.2668 16.5798C57.8841 17.0104 57.6927 17.6323 57.6927 18.4456V25H53.363V12.7285ZM68.674 12.7285H73.0037V14.2355C74.1838 13.1032 75.5074 12.5371 76.9746 12.5371C78.7926 12.5371 80.18 13.3026 81.1369 14.8335C82.1097 13.2866 83.4971 12.5132 85.2991 12.5132C85.8733 12.5132 86.4155 12.6009 86.9258 12.7763C87.4361 12.9358 87.8747 13.1989 88.2414 13.5657C88.6082 13.9166 88.8953 14.379 89.1026 14.9531C89.3259 15.5272 89.4375 16.221 89.4375 17.0343V25H85.1078V18.948C85.1078 18.326 85.0599 17.8157 84.9643 17.417C84.8845 17.0183 84.7569 16.7074 84.5815 16.4841C84.422 16.2608 84.2307 16.1093 84.0074 16.0296C83.7841 15.9498 83.5449 15.91 83.2898 15.91C81.9023 15.91 81.2086 16.9226 81.2086 18.948V25H76.8789V18.948C76.8789 18.326 76.839 17.8157 76.7593 17.417C76.6796 17.0024 76.56 16.6755 76.4005 16.4362C76.257 16.197 76.0656 16.0376 75.8264 15.9578C75.5872 15.8621 75.3081 15.8143 74.9892 15.8143C74.718 15.8143 74.4629 15.8542 74.2237 15.9339C73.9845 16.0136 73.7692 16.1731 73.5778 16.4123C73.4024 16.6356 73.2589 16.9545 73.1472 17.3692C73.0515 17.7679 73.0037 18.2941 73.0037 18.948V25H68.674V12.7285ZM96.1638 12.7285V25H91.8341V12.7285H96.1638ZM91.547 8.01602C91.547 7.68112 91.6108 7.37015 91.7384 7.0831C91.866 6.78009 92.0414 6.51696 92.2647 6.2937C92.4879 6.07043 92.7431 5.89501 93.0301 5.76743C93.3331 5.63986 93.6521 5.57607 93.987 5.57607C94.3219 5.57607 94.6329 5.63986 94.9199 5.76743C95.2229 5.89501 95.486 6.07043 95.7093 6.2937C95.9326 6.51696 96.108 6.78009 96.2356 7.0831C96.3632 7.37015 96.4269 7.68112 96.4269 8.01602C96.4269 8.35091 96.3632 8.66986 96.2356 8.97286C96.108 9.25992 95.9326 9.51507 95.7093 9.73834C95.486 9.9616 95.2229 10.137 94.9199 10.2646C94.6329 10.3922 94.3219 10.456 93.987 10.456C93.6521 10.456 93.3331 10.3922 93.0301 10.2646C92.7431 10.137 92.4879 9.9616 92.2647 9.73834C92.0414 9.51507 91.866 9.25992 91.7384 8.97286C91.6108 8.66986 91.547 8.35091 91.547 8.01602ZM98.5484 12.7285H102.878V14.2833C103.468 13.5657 104.066 13.0873 104.672 12.8481C105.278 12.5929 105.988 12.4653 106.801 12.4653C107.662 12.4653 108.396 12.6089 109.002 12.8959C109.624 13.167 110.15 13.5577 110.581 14.0681C110.932 14.4827 111.171 14.9452 111.298 15.4555C111.426 15.9658 111.49 16.5479 111.49 17.2017V25H107.16V18.8044C107.16 18.1984 107.112 17.712 107.017 17.3452C106.937 16.9625 106.785 16.6595 106.562 16.4362C106.371 16.2449 106.155 16.1093 105.916 16.0296C105.677 15.9498 105.422 15.91 105.151 15.91C104.417 15.91 103.851 16.1332 103.452 16.5798C103.07 17.0104 102.878 17.6323 102.878 18.4456V25H98.5484V12.7285Z" fill="white"/>
<rect y="7.05859" width="4.27973" height="16.4056" rx="2.13987" fill="white"/>
<rect x="15.6953" y="7.05859" width="4.27973" height="16.4056" rx="2.13987" fill="white"/>
<rect x="7.84375" y="4.20508" width="4.27973" height="22.8252" rx="2.13987" fill="white"/>
</svg>
