<svg width="153" height="45" viewBox="0 0 153 45" fill="none" xmlns="http://www.w3.org/2000/svg">
<path d="M43.8927 34V13.8297H36.3157V9.16423H56.5562V13.8297H48.9441V34H43.8927ZM64.6566 34.2456C62.7156 34.2456 61.0669 33.8597 59.7105 33.088C58.3541 32.3162 57.3135 31.2288 56.5885 29.8256C55.8635 28.3991 55.5011 26.7387 55.5011 24.8444C55.5011 22.9268 55.8752 21.2547 56.6236 19.8282C57.3719 18.3783 58.4243 17.244 59.7807 16.4255C61.1604 15.607 62.7858 15.1978 64.6566 15.1978C66.0598 15.1978 67.2875 15.4316 68.3399 15.8993C69.4156 16.3671 70.316 17.0219 71.041 17.8638C71.7893 18.7057 72.3389 19.6879 72.6897 20.8104C73.0638 21.9095 73.2392 23.1022 73.2158 24.3884C73.2158 24.7158 73.2041 25.0315 73.1808 25.3355C73.1574 25.6396 73.1106 25.9436 73.0404 26.2476H60.377C60.4472 26.9492 60.6459 27.5923 60.9733 28.1769C61.3008 28.7616 61.7568 29.2293 62.3414 29.5801C62.9495 29.9075 63.6978 30.0712 64.5865 30.0712C65.1711 30.0712 65.709 30.0127 66.2001 29.8958C66.6912 29.7555 67.1121 29.545 67.4629 29.2644C67.8137 28.9837 68.0593 28.6563 68.1996 28.2822H73.0404C72.7364 29.6619 72.1635 30.7961 71.3216 31.6848C70.5031 32.5735 69.5092 33.2283 68.3399 33.6492C67.1706 34.0468 65.9428 34.2456 64.6566 34.2456ZM60.4822 22.8099H68.5153C68.4919 22.1785 68.3282 21.5938 68.0242 21.0559C67.7436 20.4947 67.3109 20.0503 66.7263 19.7229C66.165 19.3721 65.44 19.1968 64.5514 19.1968C63.6627 19.1968 62.9144 19.3721 62.3063 19.7229C61.7217 20.0737 61.2774 20.5297 60.9733 21.091C60.6927 21.6289 60.529 22.2018 60.4822 22.8099ZM75.5379 34V15.5135H80.1332L80.3788 17.6533C80.8933 17.0219 81.4779 16.5308 82.1327 16.18C82.8109 15.8058 83.4891 15.5486 84.1673 15.4082C84.8688 15.2679 85.5003 15.1978 86.0615 15.1978C87.8389 15.1978 89.2186 15.5836 90.2008 16.3554C91.2064 17.1271 91.9197 18.1678 92.3406 19.4774C92.785 20.7636 93.0071 22.2018 93.0071 23.7921V34H88.0961V24.4235C88.0961 23.8622 88.0493 23.301 87.9558 22.7397C87.8622 22.1785 87.6868 21.664 87.4296 21.1962C87.1957 20.7285 86.8566 20.3544 86.4123 20.0737C85.968 19.7931 85.3833 19.6528 84.6584 19.6528C83.7229 19.6528 82.9395 19.8866 82.3081 20.3544C81.6767 20.8221 81.209 21.4535 80.9049 22.2486C80.6009 23.0437 80.4489 23.9207 80.4489 24.8795V34H75.5379ZM95.9351 34V15.5135H100.355L100.776 17.5831C101.244 16.9283 101.758 16.4372 102.319 16.1098C102.904 15.759 103.489 15.5252 104.073 15.4082C104.658 15.2913 105.196 15.2329 105.687 15.2329C106.786 15.2329 107.757 15.4433 108.599 15.8643C109.44 16.2852 110.119 16.9634 110.633 17.8988C111.124 17.2207 111.662 16.6945 112.247 16.3203C112.831 15.9227 113.451 15.6421 114.106 15.4784C114.761 15.3147 115.427 15.2329 116.105 15.2329C117.532 15.2329 118.678 15.5369 119.543 16.1449C120.432 16.7295 121.075 17.5481 121.472 18.6004C121.893 19.6528 122.104 20.8805 122.104 22.2837V34H117.193V23.5816C117.193 23.1607 117.169 22.728 117.123 22.2837C117.076 21.8394 116.959 21.4184 116.772 21.0209C116.608 20.6233 116.351 20.2959 116 20.0386C115.673 19.7814 115.205 19.6528 114.597 19.6528C114.012 19.6528 113.521 19.7814 113.124 20.0386C112.726 20.2959 112.41 20.6467 112.177 21.091C111.943 21.512 111.767 21.9797 111.65 22.4942C111.557 22.9853 111.51 23.4881 111.51 24.0025V34H106.599V23.5465C106.599 23.149 106.576 22.728 106.529 22.2837C106.482 21.8394 106.377 21.4184 106.213 21.0209C106.049 20.6233 105.781 20.2959 105.406 20.0386C105.056 19.7814 104.564 19.6528 103.933 19.6528C103.068 19.6528 102.401 19.91 101.934 20.4245C101.489 20.9156 101.197 21.512 101.057 22.2135C100.916 22.8917 100.846 23.5231 100.846 24.1078V34H95.9351ZM124.965 34V15.5135H129.876V34H124.965ZM127.42 13.6543C126.508 13.6543 125.772 13.3854 125.211 12.8475C124.649 12.2862 124.369 11.573 124.369 10.7077C124.369 9.79564 124.661 9.05899 125.246 8.49773C125.83 7.93647 126.567 7.65584 127.456 7.65584C128.274 7.65584 128.976 7.93647 129.56 8.49773C130.168 9.0356 130.472 9.76056 130.472 10.6726C130.472 11.5613 130.18 12.2862 129.595 12.8475C129.034 13.3854 128.309 13.6543 127.42 13.6543ZM132.927 34V15.5135H137.522L137.768 17.6533C138.282 17.0219 138.867 16.5308 139.522 16.18C140.2 15.8058 140.878 15.5486 141.556 15.4082C142.258 15.2679 142.889 15.1978 143.451 15.1978C145.228 15.1978 146.608 15.5836 147.59 16.3554C148.596 17.1271 149.309 18.1678 149.73 19.4774C150.174 20.7636 150.396 22.2018 150.396 23.7921V34H145.485V24.4235C145.485 23.8622 145.438 23.301 145.345 22.7397C145.251 22.1785 145.076 21.664 144.819 21.1962C144.585 20.7285 144.246 20.3544 143.801 20.0737C143.357 19.7931 142.772 19.6528 142.048 19.6528C141.112 19.6528 140.329 19.8866 139.697 20.3544C139.066 20.8221 138.598 21.4535 138.294 22.2486C137.99 23.0437 137.838 23.9207 137.838 24.8795V34H132.927Z" fill="black"/>
<path d="M20.6189 24.0149C20.6189 29.5459 16.135 34.0297 10.604 34.0297C5.07292 34.0297 0 34.8479 0 29.3169C0 26.8455 1.48424 19.2813 2.96798 17.5347C4.80498 15.3721 7.54424 14 10.604 14C16.135 14 20.6189 18.4838 20.6189 24.0149Z" fill="#99B0FF"/>
<path d="M9.61552 18.0149C9.61552 23.5459 14.0993 28.0297 19.6304 28.0297C25.1615 28.0297 30.2344 28.8479 30.2344 23.3169C30.2344 20.8455 28.7501 13.2813 27.2664 11.5347C25.4294 9.37214 22.6901 8 19.6304 8C14.0993 8 9.61552 12.4838 9.61552 18.0149Z" fill="#0039FF"/>
</svg>
