<svg width="205" height="60" viewBox="0 0 205 60" fill="none" xmlns="http://www.w3.org/2000/svg">
<path d="M56.0156 31.5241V48H47.7776V31.5241H45.0468V24.6515H47.7776V17.6424H56.0156V24.6515H60.7035V31.5241H56.0156ZM80.2203 32.935C79.9472 31.782 79.3859 30.8565 78.5363 30.1587C77.6867 29.4608 76.6551 29.1119 75.4414 29.1119C74.167 29.1119 73.1202 29.4456 72.3009 30.1132C71.512 30.7807 71.0114 31.7213 70.799 32.935H80.2203ZM70.5714 37.7139C70.5714 41.264 72.2402 43.039 75.5779 43.039C77.3681 43.039 78.7183 42.3108 79.6286 40.8544H87.5935C85.9854 46.1946 81.965 48.8648 75.5324 48.8648C73.5601 48.8648 71.7548 48.5765 70.1163 48C68.4778 47.3932 67.0669 46.5436 65.8835 45.4512C64.7305 44.3589 63.8354 43.0542 63.1982 41.5371C62.561 40.0199 62.2424 38.3208 62.2424 36.4395C62.2424 34.4976 62.5458 32.7529 63.1527 31.2055C63.7595 29.6277 64.6243 28.2926 65.747 27.2003C66.8696 26.108 68.2199 25.2735 69.7977 24.697C71.4058 24.0902 73.2112 23.7868 75.2138 23.7868C77.1861 23.7868 78.9611 24.0902 80.5389 24.697C82.1167 25.2735 83.4518 26.1231 84.5441 27.2458C85.6364 28.3685 86.4708 29.749 87.0473 31.3875C87.6238 32.9957 87.9121 34.8162 87.9121 36.8492V37.7139H70.5714ZM91.5286 24.6515H99.7666V27.6099C100.889 26.2445 102.027 25.3342 103.18 24.8791C104.333 24.3936 105.683 24.1509 107.231 24.1509C108.869 24.1509 110.265 24.424 111.418 24.9701C112.601 25.4859 113.603 26.2293 114.422 27.2003C115.09 27.9892 115.545 28.8691 115.787 29.8401C116.03 30.811 116.152 31.9185 116.152 33.1626V48H107.914V36.212C107.914 35.059 107.823 34.1335 107.64 33.4356C107.489 32.7074 107.2 32.1309 106.776 31.7061C106.412 31.342 106.002 31.0841 105.547 30.9324C105.092 30.7807 104.606 30.7048 104.09 30.7048C102.695 30.7048 101.617 31.1296 100.859 31.9792C100.131 32.7985 99.7666 33.9818 99.7666 35.5293V48H91.5286V24.6515ZM120.66 24.6515H128.898V27.5189C131.143 25.3646 133.662 24.2874 136.453 24.2874C139.912 24.2874 142.552 25.7438 144.373 28.6567C146.224 25.7135 148.863 24.2419 152.292 24.2419C153.384 24.2419 154.416 24.4088 155.387 24.7425C156.358 25.046 157.192 25.5466 157.89 26.2445C158.588 26.912 159.134 27.792 159.529 28.8843C159.954 29.9766 160.166 31.2965 160.166 32.844V48H151.928V36.4851C151.928 35.3017 151.837 34.3307 151.655 33.5722C151.503 32.8136 151.261 32.222 150.927 31.7972C150.623 31.3724 150.259 31.0841 149.834 30.9324C149.41 30.7807 148.954 30.7048 148.469 30.7048C145.829 30.7048 144.509 32.6316 144.509 36.4851V48H136.271V36.4851C136.271 35.3017 136.196 34.3307 136.044 33.5722C135.892 32.7833 135.665 32.1613 135.361 31.7061C135.088 31.251 134.724 30.9476 134.269 30.7959C133.814 30.6138 133.283 30.5228 132.676 30.5228C132.16 30.5228 131.674 30.5986 131.219 30.7503C130.764 30.9021 130.355 31.2055 129.99 31.6606C129.657 32.0854 129.384 32.6923 129.171 33.4812C128.989 34.2397 128.898 35.241 128.898 36.4851V48H120.66V24.6515ZM172.964 24.6515V48H164.726V24.6515H172.964ZM164.18 15.6853C164.18 15.0482 164.301 14.4565 164.544 13.9103C164.787 13.3338 165.12 12.8332 165.545 12.4084C165.97 11.9836 166.455 11.6498 167.002 11.4071C167.578 11.1643 168.185 11.043 168.822 11.043C169.459 11.043 170.051 11.1643 170.597 11.4071C171.174 11.6498 171.674 11.9836 172.099 12.4084C172.524 12.8332 172.858 13.3338 173.1 13.9103C173.343 14.4565 173.465 15.0482 173.465 15.6853C173.465 16.3225 173.343 16.9294 173.1 17.5059C172.858 18.052 172.524 18.5375 172.099 18.9623C171.674 19.3871 171.174 19.7209 170.597 19.9636C170.051 20.2064 169.459 20.3277 168.822 20.3277C168.185 20.3277 167.578 20.2064 167.002 19.9636C166.455 19.7209 165.97 19.3871 165.545 18.9623C165.12 18.5375 164.787 18.052 164.544 17.5059C164.301 16.9294 164.18 16.3225 164.18 15.6853ZM177.501 24.6515H185.739V27.6099C186.862 26.2445 187.999 25.3342 189.152 24.8791C190.305 24.3936 191.656 24.1509 193.203 24.1509C194.842 24.1509 196.237 24.424 197.39 24.9701C198.574 25.4859 199.575 26.2293 200.394 27.2003C201.062 27.9892 201.517 28.8691 201.76 29.8401C202.002 30.811 202.124 31.9185 202.124 33.1626V48H193.886V36.212C193.886 35.059 193.795 34.1335 193.613 33.4356C193.461 32.7074 193.173 32.1309 192.748 31.7061C192.384 31.342 191.974 31.0841 191.519 30.9324C191.064 30.7807 190.579 30.7048 190.063 30.7048C188.667 30.7048 187.59 31.1296 186.831 31.9792C186.103 32.7985 185.739 33.9818 185.739 35.5293V48H177.501V24.6515Z" fill="black"/>
<rect y="15" width="31" height="24.1111" fill="#0039FF"/>
<path d="M31 39.1094H18.3704V48.2946L31 39.1094Z" fill="#0039FF"/>
</svg>
