<svg width="25" height="25" viewBox="0 0 25 25" fill="none" xmlns="http://www.w3.org/2000/svg">
<path d="M3.42353 8.46711L3.68041 9.05636C3.86832 9.48774 4.46499 9.48774 4.65301 9.05636L4.90978 8.46711C5.3676 7.41644 6.19218 6.57992 7.22114 6.12228L8.01249 5.77035C8.4403 5.58005 8.4403 4.95742 8.01249 4.76712L7.26541 4.43485C6.20999 3.96544 5.37062 3.09796 4.92072 2.01161L4.65697 1.37484C4.47312 0.931044 3.8602 0.931044 3.67645 1.37484L3.4127 2.01161C2.9627 3.09796 2.12332 3.96544 1.06791 4.43485L0.320929 4.76712C-0.106987 4.95742 -0.106987 5.58005 0.320929 5.77035L1.11218 6.12228C2.14114 6.57992 2.96572 7.41644 3.42353 8.46711ZM4.16666 11.4587C3.43895 11.4587 2.7402 11.3343 2.09072 11.1056C2.08582 11.2227 2.08333 11.3404 2.08333 11.4587C2.08333 16.0611 5.81426 19.792 10.4167 19.792V23.4378C15.625 21.3545 22.9167 18.2295 22.9167 11.4587C22.9167 6.85628 19.1857 3.12533 14.5833 3.12533H10.4167C10.2984 3.12533 10.1807 3.12779 10.0636 3.13267C10.2923 3.78221 10.4167 4.48091 10.4167 5.20866C10.4167 8.66044 7.61843 11.4587 4.16666 11.4587Z" fill="url(#paint0_linear_13_19147)"/>
<defs>
<linearGradient id="paint0_linear_13_19147" x1="23.2143" y1="1.1908" x2="2.97618" y2="23.2146" gradientUnits="userSpaceOnUse">
<stop stop-color="#2552F4"/>
<stop offset="1" stop-color="#66A6FF"/>
</linearGradient>
</defs>
</svg>
