<svg width="212" height="20" viewBox="0 0 212 20" fill="none" xmlns="http://www.w3.org/2000/svg">
<path fill-rule="evenodd" clip-rule="evenodd" d="M122.242 18.6993H125.286V0.938232H122.242V18.6993Z" fill="#A50184"/>
<path fill-rule="evenodd" clip-rule="evenodd" d="M69.7705 1.37107L68.0221 6.81143H68.0022L66.2793 1.37107H64.5219L67.0408 9.11033H68.9617H68.9563L71.5279 1.37107H69.7705ZM72.031 1.37107V9.11033H77.9102V7.67761H73.7339V5.78001H77.4868V4.45987H73.7339V2.80198H77.823V1.37107H72.031ZM83.8404 1.37107V6.56084H83.8204L80.5854 1.37107H78.8953V9.11033H80.4909V3.92782H80.5127L83.7332 9.11033H85.4361V1.37107H83.8404ZM86.1663 1.3727V2.8018H88.4871V9.11015H90.19V2.8018H92.5108V1.3727H86.1663ZM99.8102 6.18568C99.8102 7.23344 99.5158 8.01427 98.9306 8.52453C98.3454 9.03661 97.5348 9.29446 96.4989 9.29446C95.463 9.29446 94.6397 9.04024 94.0618 8.52998C93.4893 8.0179 93.1985 7.23707 93.1985 6.18205V1.36816H94.9014V6.18205C94.9014 6.39088 94.9178 6.5997 94.9559 6.79945C94.9923 6.99919 95.065 7.18441 95.1849 7.34239C95.2994 7.50219 95.463 7.6293 95.6665 7.72373C95.8719 7.81815 96.15 7.86355 96.4989 7.86355C97.1041 7.86355 97.5257 7.72736 97.7547 7.45861C97.9892 7.18805 98.1037 6.76313 98.1037 6.18568V1.3718H99.8066V6.18568H99.8102ZM101.112 1.37161H105.288C105.635 1.37161 105.946 1.42972 106.224 1.53867C106.504 1.64944 106.74 1.80561 106.942 2.00172C107.142 2.19784 107.293 2.42301 107.397 2.68449C107.502 2.94598 107.551 3.22018 107.551 3.50708C107.551 3.96105 107.457 4.35691 107.264 4.68922C107.073 5.01971 106.76 5.27393 106.328 5.44462V5.46641C106.537 5.52271 106.711 5.6135 106.848 5.73153C106.982 5.84956 107.097 5.99302 107.182 6.16189C107.269 6.32895 107.335 6.50509 107.371 6.69758C107.413 6.89006 107.437 7.08073 107.453 7.27866C107.462 7.40032 107.469 7.54378 107.473 7.71084C107.482 7.87971 107.495 8.04677 107.511 8.21383C107.527 8.38271 107.56 8.54977 107.596 8.70957C107.636 8.86936 107.695 9.00374 107.776 9.11088H106.073C106.024 8.9874 105.983 8.85302 105.959 8.70594C105.934 8.55885 105.91 8.40268 105.894 8.23925C105.877 8.07583 105.861 7.9124 105.848 7.73989C105.835 7.5692 105.819 7.4094 105.799 7.25687C105.743 6.85193 105.619 6.55775 105.43 6.37072C105.243 6.18187 104.936 6.08744 104.511 6.08744H102.808V9.11088H101.103V1.37161H101.112ZM102.815 4.87262H104.681C105.067 4.87262 105.357 4.78728 105.554 4.61114C105.754 4.43863 105.852 4.15717 105.852 3.76494C105.852 3.37089 105.754 3.11485 105.554 2.94598C105.354 2.77892 105.063 2.69357 104.681 2.69357H102.815V4.87262ZM108.735 1.37107V9.11033H114.614V7.67761H110.438V5.78001H114.191V4.45987H110.438V2.80198H114.527V1.37107H108.735ZM88.4873 10.5247V18.264H93.9649V16.8313H90.1902V10.5247H88.4873ZM97.1317 10.4888L94.1948 18.228H95.9159L96.5229 16.5048H99.4198L100.007 18.228H101.775L98.8764 10.4888H97.1317ZM97.975 12.3991H97.9968L98.9709 15.2373H96.9682L97.975 12.3991ZM102.156 10.5254H105.8C106.167 10.5254 106.503 10.5581 106.807 10.6235C107.11 10.6889 107.372 10.796 107.588 10.9431C107.804 11.0902 107.973 11.2863 108.092 11.5314C108.21 11.7766 108.271 12.0798 108.271 12.443C108.271 12.828 108.182 13.1512 108.002 13.4127C107.821 13.6742 107.559 13.8921 107.219 14.0591C107.699 14.199 108.055 14.435 108.288 14.78C108.522 15.1232 108.64 15.5354 108.64 16.0185C108.64 16.4071 108.562 16.7466 108.411 17.0335C108.259 17.3186 108.055 17.5529 107.797 17.7327C107.539 17.9124 107.248 18.0468 106.917 18.134C106.589 18.2193 106.249 18.2647 105.902 18.2647H102.147V10.5254H102.156ZM103.859 13.6578H105.582C105.885 13.6578 106.134 13.5852 106.332 13.4417C106.529 13.2983 106.621 13.0622 106.621 12.739C106.621 12.5592 106.589 12.4103 106.523 12.2923C106.458 12.1779 106.372 12.0871 106.261 12.0217C106.151 11.9564 106.029 11.9128 105.889 11.8874C105.751 11.8637 105.604 11.851 105.451 11.851H103.855V13.6578H103.859ZM103.859 16.9427H105.68C105.849 16.9427 106.003 16.9264 106.16 16.8937C106.31 16.861 106.447 16.8084 106.561 16.7303C106.676 16.6522 106.77 16.5505 106.839 16.4198C106.908 16.289 106.941 16.1256 106.941 15.9204C106.941 15.5245 106.83 15.2376 106.605 15.0706C106.381 14.9017 106.085 14.8164 105.718 14.8164H103.862V16.9391L103.859 16.9427ZM110.441 15.6956C110.441 15.9571 110.487 16.175 110.581 16.3584C110.674 16.5382 110.798 16.6853 110.954 16.796C111.108 16.9068 111.288 16.9921 111.497 17.0448C111.703 17.0993 111.923 17.1265 112.153 17.1265C112.304 17.1265 112.468 17.1156 112.64 17.0902C112.811 17.0666 112.975 17.0176 113.128 16.9431C113.278 16.8687 113.406 16.7706 113.507 16.6453C113.609 16.5182 113.658 16.3584 113.658 16.1623C113.658 15.9535 113.593 15.781 113.458 15.6502C113.324 15.5195 113.151 15.4087 112.931 15.3197C112.71 15.2289 112.468 15.1508 112.193 15.0909C111.919 15.0292 111.641 14.9602 111.359 14.8766C111.068 14.804 110.785 14.7187 110.51 14.6115C110.236 14.5062 109.991 14.37 109.774 14.2066C109.556 14.0395 109.382 13.8343 109.246 13.5892C109.111 13.344 109.046 13.0408 109.046 12.6776C109.046 12.2799 109.131 11.9331 109.3 11.6426C109.471 11.3484 109.693 11.1069 109.967 10.9108C110.241 10.7128 110.552 10.5712 110.899 10.4768C111.248 10.3824 111.595 10.337 111.939 10.337C112.344 10.337 112.733 10.3824 113.106 10.4731C113.478 10.5621 113.811 10.7092 114.096 10.9108C114.387 11.1142 114.618 11.372 114.785 11.6825C114.952 11.993 115.039 12.378 115.039 12.8283H113.389C113.373 12.5959 113.324 12.4071 113.242 12.2563C113.16 12.1038 113.049 11.9858 112.909 11.895C112.771 11.8096 112.615 11.7479 112.431 11.7116C112.252 11.6753 112.059 11.6589 111.857 11.6589C111.719 11.6589 111.583 11.6753 111.445 11.7043C111.305 11.7315 111.183 11.7806 111.072 11.855C110.961 11.9277 110.867 12.0185 110.794 12.1329C110.719 12.2436 110.683 12.3816 110.683 12.5378C110.683 12.694 110.712 12.812 110.769 12.9064C110.827 13.0008 110.941 13.0862 111.108 13.1588C111.277 13.2333 111.514 13.315 111.814 13.3967C112.112 13.4784 112.504 13.5856 112.991 13.7036C113.086 13.7236 113.209 13.7562 113.36 13.798C113.511 13.838 113.671 13.8924 113.844 13.9614C114.014 14.0304 114.183 14.1176 114.354 14.2266C114.527 14.3337 114.678 14.4681 114.821 14.6279C114.961 14.7877 115.076 14.9765 115.161 15.1962C115.247 15.4178 115.292 15.6702 115.292 15.9607C115.292 16.3166 115.223 16.6453 115.088 16.9467C114.952 17.25 114.749 17.5115 114.474 17.733C114.203 17.9527 113.867 18.1252 113.467 18.2524C113.066 18.3795 112.599 18.4394 112.07 18.4394C111.645 18.4394 111.232 18.3867 110.83 18.276C110.429 18.167 110.078 18.0018 109.774 17.7784C109.471 17.5532 109.226 17.2663 109.042 16.9231C108.857 16.5745 108.768 16.1623 108.775 15.6865H110.425L110.441 15.6956ZM43.7276 1.37107H42.2082V15.2353H38.7407V1.37107H26.1679V4.40177H29.203V18.2642H32.2362V4.40177H35.7038V18.2642H45.2397V4.40177H48.7072V18.2642H51.7423V4.40177H55.2099V18.2642H58.2431V1.37107H43.7276ZM20.0931 18.2636H20.542V1.37416H20.0931V18.2636ZM4.20472 1.56628V11.5881C4.21199 12.516 4.47369 13.2278 4.99346 13.7163C5.51324 14.2048 6.18568 14.4554 7.01441 14.4608V18.3032C6.02938 18.3159 5.0498 18.1634 4.11203 17.8529C3.29238 17.5805 2.53453 17.132 1.90208 16.54C1.28962 15.948 0.809823 15.2326 0.500866 14.4354C0.153744 13.5238 -0.0152735 12.556 0.00108304 11.5845V1.56628H4.20472ZM7.00623 10.6044C7.99126 10.5935 8.97265 10.7443 9.90861 11.0566C10.7301 11.329 11.4861 11.7757 12.1186 12.3676C12.731 12.9596 13.2108 13.6769 13.5198 14.4722H13.5325C13.8378 15.2825 14.001 16.1373 14.0194 17.0034L14.0196 18.0804H9.81229V17.3286C9.80865 16.408 9.54513 15.6961 9.02899 15.2004C8.51285 14.7047 7.83496 14.4559 7.00623 14.4559V10.6044ZM14.0166 1.56065L14.0294 11.0159H9.8221V1.56065H14.0166Z" fill="#020203"/>
<path d="M135.593 17.9089C137.029 17.9089 138.035 17.1469 138.035 15.8673V15.8477C138.035 14.7146 137.292 14.1968 135.847 13.8452C134.528 13.5326 134.215 13.2981 134.215 12.7706V12.7511C134.215 12.3017 134.626 11.9403 135.329 11.9403C135.954 11.9403 136.57 12.1845 137.185 12.6436L137.83 11.7351C137.136 11.1783 136.345 10.8755 135.348 10.8755C133.991 10.8755 133.014 11.6863 133.014 12.8585V12.8781C133.014 14.1382 133.834 14.568 135.29 14.9197C136.56 15.2128 136.833 15.4765 136.833 15.9649V15.9845C136.833 16.4924 136.364 16.8441 135.622 16.8441C134.782 16.8441 134.118 16.5218 133.463 15.9552L132.74 16.8148C133.561 17.5475 134.547 17.9089 135.593 17.9089ZM142.714 17.9284C144.814 17.9284 146.299 16.3166 146.299 14.3922V14.3727C146.299 12.4482 144.834 10.856 142.734 10.856C140.633 10.856 139.148 12.4678 139.148 14.3922V14.4117C139.148 16.3361 140.614 17.9284 142.714 17.9284ZM142.734 16.8148C141.376 16.8148 140.409 15.7207 140.409 14.3922V14.3727C140.409 13.0441 141.356 11.9598 142.714 11.9598C144.072 11.9598 145.039 13.0637 145.039 14.3922V14.4117C145.039 15.7403 144.091 16.8148 142.734 16.8148ZM147.755 17.8112H148.956V15.0272H152.404V13.9331H148.956V12.0673H152.844V10.9732H147.755V17.8112ZM155.843 17.8112H157.054V12.0868H159.223V10.9732H153.674V12.0868H155.843V17.8112ZM165.592 10.9537L167.272 16.0431L168.904 10.9732H170.164L167.79 17.8601H166.745L165.065 12.9464L163.384 17.8601H162.349L159.965 10.9732H161.265L162.896 16.0431L164.576 10.9537H165.592ZM174.052 10.9243L177.06 17.8112H175.79L175.097 16.1603H171.863L171.16 17.8112H169.929L172.938 10.9243H174.052ZM173.475 12.3603L172.303 15.0955H174.657L173.475 12.3603ZM178.233 17.8112H179.434V15.4277H180.938L182.619 17.8112H184.045L182.199 15.2225C183.146 14.949 183.82 14.275 183.82 13.1516V13.1321C183.82 12.5362 183.615 12.0282 183.254 11.657C182.814 11.2272 182.14 10.9732 181.28 10.9732H178.233V17.8112ZM179.434 14.3629V12.0673H181.183C182.072 12.0673 182.599 12.4678 182.599 13.2004V13.22C182.599 13.9135 182.052 14.3629 181.192 14.3629H179.434ZM185.295 17.8112H190.414V16.7367H186.497V14.9002H189.926V13.8256H186.497V12.0477H190.365V10.9732H185.295V17.8112ZM193.647 19.0616H194.673L199.089 10.0159H198.063L193.647 19.0616ZM202.205 17.8112H203.436L204.139 16.1603H207.372L208.066 17.8112H209.336L206.327 10.9243H205.213L202.205 17.8112ZM204.578 15.0955L205.751 12.3603L206.933 15.0955H204.578ZM210.576 17.8112H211.778V10.9732H210.576V17.8112Z" fill="black"/>
</svg>
