<svg width="54" height="36" viewBox="0 0 54 36" fill="none" xmlns="http://www.w3.org/2000/svg">
<g clip-path="url(#clip0_59_157)">
<path d="M0 0H18V36H0V0Z" fill="#1E3A8A"/>
<path d="M18 0H36V36H18V0Z" fill="#FBBF24"/>
<path d="M36 0H54V36H36V0Z" fill="#EF4444"/>
<path d="M33.3661 21.6973C33.517 21.9474 33.5387 22.2378 33.5294 22.4797C33.5273 23.4275 32.9331 24.2553 32.0483 24.5675C31.3404 24.8176 30.6055 24.8372 29.8707 24.862C29.6567 24.8693 29.4448 24.8589 29.235 24.9333C28.9043 25.0532 28.6449 25.1648 28.8082 25.6785C28.9611 26.1602 28.5022 26.3266 28.2831 26.6015C28.124 26.7999 27.9049 26.7162 27.7374 26.587C27.5534 26.4464 27.415 26.4413 27.263 26.6346C27.0853 26.8609 26.892 26.8433 26.7152 26.6263C26.5829 26.463 26.4589 26.4299 26.2822 26.5674C26.1034 26.7069 25.876 26.8123 25.6972 26.5953C25.4636 26.3131 25.013 26.1271 25.1825 25.6155C25.3251 25.1835 25.1132 25.0532 24.8259 24.9643C24.1851 24.768 23.5206 24.86 22.8673 24.7742C21.9454 24.6512 21.1341 24.3566 20.6442 23.3975C20.3672 22.8549 20.3279 22.2916 20.6039 21.7459C20.7413 21.4761 20.7837 21.3015 20.5408 21.0679C20.3238 20.857 20.3372 20.5449 20.4861 20.27C20.6173 20.024 20.7827 19.8173 21.0783 19.9682C21.2137 20.0364 21.2736 19.9454 21.3429 19.8514C21.6839 19.3822 21.4989 18.6132 20.9946 18.4365C20.8168 18.3755 20.7 18.2525 20.7672 18.0716C20.8819 17.7626 20.731 17.62 20.5615 17.4298C19.7109 16.4831 19.8484 15.0785 20.8271 14.6185C20.9388 14.5658 21.0959 14.4707 21.1723 14.5173C21.5661 14.757 21.7139 14.0687 22.0829 14.2382C22.1191 14.2547 22.1253 14.0956 22.1067 14.016C22.0436 13.7462 21.9165 13.5188 21.7315 13.3287C21.5268 13.1199 21.348 12.8874 21.2188 12.6135C21.0617 12.2786 21.0555 11.92 21.3139 11.6729C21.9465 11.0693 22.6937 10.8141 23.5237 10.9753C23.904 11.0487 24.1179 11.3246 24.058 11.7773C24.0301 11.9913 24.0497 12.1391 24.2637 12.2031C24.5603 12.292 24.8714 12.4295 25.1463 12.2186C25.3561 12.0595 25.199 11.8176 25.1308 11.6171C25.0926 11.5055 25.0285 11.4021 25.0068 11.2885C24.9272 10.8678 24.953 10.443 25.2641 10.1609C25.5794 9.87456 25.9401 10.0162 26.247 10.2311C26.7545 10.5846 27.2413 10.5887 27.7447 10.2311C28.0599 10.0058 28.4351 9.9221 28.7348 10.1784C29.048 10.4471 29.0759 10.8792 28.9725 11.3029C28.956 11.368 28.926 11.429 28.9095 11.4941C28.8443 11.7391 28.618 11.9778 28.8557 12.2404C28.9942 12.3933 29.6877 12.2972 29.8707 12.1339C29.9616 12.0543 29.9399 11.9644 29.9409 11.8631C29.9502 11.1903 30.2272 10.8688 30.8453 10.9081C31.4282 10.9443 31.9956 11.1024 32.4866 11.4859C32.9103 11.8166 32.9827 12.2269 32.7191 12.722C32.5765 12.9886 32.3708 13.1953 32.1879 13.4227C32.0153 13.6387 31.7672 13.9881 31.9098 14.1607C32.0401 14.3188 32.3057 14.5555 32.5682 14.539C33.2462 14.4966 33.7082 14.8428 33.9149 15.5188C34.1371 16.2422 33.9056 16.8944 33.4343 17.4288C33.27 17.6158 33.1088 17.7533 33.2214 18.0685C33.2969 18.2794 33.1584 18.4303 32.9548 18.4385C32.6685 18.4499 32.5475 18.6359 32.5103 18.9171C32.4638 19.2778 32.4638 19.6323 32.7036 19.9268C32.7584 19.9951 32.8245 20.0126 32.9093 19.9713C33.2049 19.8224 33.3723 20.023 33.5036 20.2689C33.6607 20.5645 33.6586 20.886 33.4219 21.1061C33.1976 21.3139 33.2318 21.4741 33.3671 21.6973H33.3661Z" fill="#A16207"/>
<path d="M26.3793 19.2695V23.4564H25.3768C25.1701 23.4564 24.9675 23.4358 24.7722 23.3944C24.4879 23.3365 24.2182 23.2383 23.9691 23.105C23.6673 22.9438 23.3945 22.7329 23.165 22.4839C22.6668 21.9454 22.3619 21.2271 22.3619 20.4416V19.2695H26.3793Z" fill="#FBBF24"/>
<path d="M31.637 19.2695V20.4416C31.637 22.0994 30.281 23.4564 28.6232 23.4564H27.6196V19.2695H31.637Z" fill="#FBBF24"/>
<path d="M23.6022 13.8418H26.3793V18.0287H22.3619V15.0821C22.3619 14.3999 22.9201 13.8418 23.6022 13.8418Z" fill="#EF4444"/>
<path d="M31.637 15.0821V18.0287H27.6196V13.8418H30.3968C30.5508 13.8418 30.6985 13.8697 30.8339 13.9224C31.3021 14.1002 31.637 14.5539 31.637 15.0821Z" fill="#FBBF24"/>
<path d="M29.2257 13.8418H28.4227V18.0287H29.2257V13.8418Z" fill="#EF4444"/>
<path d="M30.8339 13.9224V18.0287H30.0298V13.8418H30.3968C30.5508 13.8418 30.6986 13.8697 30.8339 13.9224Z" fill="#EF4444"/>
<path d="M23.9691 19.2695V23.105C23.6673 22.9438 23.3945 22.7329 23.165 22.4839V19.2695H23.9691Z" fill="#EF4444"/>
<path d="M25.5763 19.2695V23.4564H25.3768C25.1701 23.4564 24.9675 23.4358 24.7722 23.3944V19.2695H25.5763Z" fill="#EF4444"/>
<path d="M30.3285 20.7715H28.7214C28.5498 20.7715 28.4113 20.633 28.4113 20.4614C28.4113 20.2899 28.5498 20.1514 28.7214 20.1514H30.3285C30.5001 20.1514 30.6386 20.2899 30.6386 20.4614C30.6386 20.633 30.5001 20.7715 30.3285 20.7715Z" fill="#EF4444"/>
<path d="M30.3285 22.0156H28.7214C28.5498 22.0156 28.4113 21.8771 28.4113 21.7056C28.4113 21.534 28.5498 21.3955 28.7214 21.3955H30.3285C30.5001 21.3955 30.6386 21.534 30.6386 21.7056C30.6386 21.8771 30.5001 22.0156 30.3285 22.0156Z" fill="#EF4444"/>
<path d="M25.6154 15.61L24.6928 14.6874C24.5146 14.5092 24.2257 14.5092 24.0475 14.6874L23.1249 15.61C22.9468 15.7882 22.9468 16.0771 23.1249 16.2553L24.0475 17.1779C24.2257 17.3561 24.5146 17.3561 24.6928 17.1779L25.6154 16.2553C25.7936 16.0771 25.7936 15.7882 25.6154 15.61Z" fill="#FBBF24"/>
</g>
<defs>
<clipPath id="clip0_59_157">
<rect width="54" height="36" rx="8" fill="white"/>
</clipPath>
</defs>
</svg>
