<svg width="54" height="36" viewBox="0 0 54 36" fill="none" xmlns="http://www.w3.org/2000/svg">
<g clip-path="url(#clip0_61_5)">
<path d="M0 0H18V36H0V0Z" fill="#262626"/>
<path d="M18 0H36V36H18V0Z" fill="#EF4444"/>
<path d="M36 0H54V36H36V0Z" fill="#22C55E"/>
<path d="M30.7174 11.1361C30.3015 10.8747 29.7521 11.0004 29.4907 11.4163C29.2293 11.8323 29.355 12.3817 29.771 12.6431C31.3047 13.6062 32.2205 15.2605 32.2205 17.0684C32.2205 19.9472 29.8789 22.2889 27 22.2889C24.1211 22.2889 21.7795 19.9472 21.7795 17.0684C21.7795 15.2605 22.6953 13.6062 24.229 12.6431C24.645 12.3817 24.7707 11.8323 24.5093 11.4163C24.2479 11.0004 23.6985 10.8747 23.2826 11.1361C21.2273 12.4267 20 14.6444 20 17.0684C20 20.9282 23.1402 24.0684 27 24.0684C30.8598 24.0684 34 20.9282 34 17.0684C34 14.6444 32.7727 12.4267 30.7174 11.1361Z" fill="#F5F5F5"/>
<path d="M27 20.771C28.0443 20.771 28.8907 19.9246 28.8907 18.8803V15.2568C28.8907 14.2125 28.0443 13.3661 27 13.3661C25.9557 13.3661 25.1093 14.2125 25.1093 15.2568V18.8803C25.1093 19.9246 25.9557 20.771 27 20.771Z" fill="#F5F5F5"/>
</g>
<defs>
<clipPath id="clip0_61_5">
<rect width="54" height="36" rx="8" fill="white"/>
</clipPath>
</defs>
</svg>
