<svg width="54" height="36" viewBox="0 0 54 36" fill="none" xmlns="http://www.w3.org/2000/svg">
<g clip-path="url(#clip0_61_129)">
<rect width="54" height="36" rx="8" fill="#262626"/>
<path fill-rule="evenodd" clip-rule="evenodd" d="M27.6722 2.57331L28.3311 6.65019C28.4278 7.23009 29.1571 7.42339 29.5261 6.9665L32.1356 3.75947C32.6189 3.162 33.5678 3.70675 33.2954 4.42724L31.8281 8.29324C31.6172 8.838 32.1532 9.37397 32.7068 9.17188L36.5728 7.70456C37.2932 7.43218 37.838 8.38111 37.2405 8.86436L34.0335 11.4739C33.5766 11.8429 33.7787 12.581 34.3498 12.6689L38.4267 13.3278C39.1911 13.4509 39.1911 14.5491 38.4267 14.6722L34.3498 15.3311C33.7699 15.4278 33.5766 16.1571 34.0335 16.5261L37.2405 19.1356C37.838 19.6189 37.2932 20.5678 36.5728 20.2954L32.7068 18.8281C32.162 18.6172 31.626 19.1532 31.8281 19.7068L33.2954 23.5728C33.5678 24.2932 32.6189 24.838 32.1356 24.2405L29.5261 21.0335C29.1571 20.5766 28.419 20.7787 28.3311 21.3498L27.6722 25.4267C27.5491 26.1911 26.4509 26.1911 26.3278 25.4267L25.6689 21.3498C25.5722 20.7699 24.8429 20.5766 24.4739 21.0335L21.8644 24.2405C21.3811 24.838 20.4322 24.2932 20.7046 23.5728L22.1719 19.7068C22.3828 19.162 21.8468 18.626 21.2932 18.8281L17.4272 20.2954C16.7068 20.5678 16.162 19.6189 16.7595 19.1356L19.9665 16.5261C20.4234 16.1571 20.2213 15.419 19.6502 15.3311L15.5733 14.6722C14.8089 14.5491 14.8089 13.4509 15.5733 13.3278L19.6502 12.6689C20.2301 12.5722 20.4234 11.8429 19.9665 11.4739L16.7595 8.86436C16.162 8.38111 16.7068 7.43218 17.4272 7.70456L21.2932 9.17188C21.838 9.38276 22.374 8.84679 22.1719 8.29324L20.7046 4.42724C20.4322 3.70675 21.3811 3.162 21.8644 3.75947L24.4739 6.9665C24.8429 7.42339 25.581 7.22131 25.6689 6.65019L26.3278 2.57331C26.4509 1.8089 27.5491 1.8089 27.6722 2.57331Z" fill="#FBBF24"/>
<path d="M0 18H54V36H0V18Z" fill="#F5F5F5"/>
<path d="M0 14H54V22H0V14Z" fill="#3B82F6"/>
<path d="M27 36L0 0V36H27Z" fill="#EF4444"/>
<path d="M27 36L54 0V36H27Z" fill="#EF4444"/>
</g>
<defs>
<clipPath id="clip0_61_129">
<rect width="54" height="36" rx="8" fill="white"/>
</clipPath>
</defs>
</svg>
