<svg width="54" height="36" viewBox="0 0 54 36" fill="none" xmlns="http://www.w3.org/2000/svg">
<rect width="54" height="36" rx="8" fill="#EF4444"/>
<path d="M33.7602 17.9827L34.8027 18.8162C35.1858 19.1223 35.6612 19.2892 36.1521 19.2892H37.3428C37.6554 19.2892 37.9041 19.0162 37.8652 18.6963C37.8328 18.429 37.5914 18.2362 37.3225 18.2362H36.1521C35.9002 18.2362 35.6564 18.1504 35.4604 17.9932L33.9319 16.7709C33.8849 16.7337 33.8582 16.677 33.8582 16.6179C33.8582 16.4875 34.0008 16.4081 34.1117 16.4761L35.1291 17.1014C35.483 17.3193 35.8913 17.4351 36.3076 17.4351H37.3428C37.6554 17.4351 37.9041 17.1622 37.8652 16.8422C37.832 16.5749 37.5914 16.3822 37.3225 16.3822H36.3076C36.0865 16.3822 35.8694 16.3206 35.6807 16.2048L34.0064 15.1745C33.9651 15.1494 33.9449 15.0983 33.9611 15.0505C33.9813 14.9898 34.0542 14.9647 34.1125 14.9914L34.8059 15.3081C35.1639 15.4717 35.5519 15.556 35.9439 15.556C36.0427 15.556 36.1424 15.5503 36.242 15.5398L37.3808 15.4142C37.6481 15.3851 37.866 15.1664 37.8693 14.8974C37.8733 14.5751 37.5963 14.3313 37.2853 14.3653L36.127 14.4925C35.8249 14.5257 35.5195 14.4771 35.2433 14.3507L34.132 13.8428C34.0615 13.8104 34.0243 13.7278 34.0534 13.6501C34.0818 13.5755 34.1684 13.5399 34.2454 13.5626L34.7087 13.7011C34.9833 13.7829 35.266 13.8234 35.5487 13.8234C35.9536 13.8234 36.3578 13.74 36.7337 13.5747L37.5364 13.2208C37.7826 13.1122 37.9252 12.8385 37.8474 12.5809C37.7534 12.2715 37.4165 12.1232 37.1306 12.2488L36.3092 12.6109C35.8994 12.7915 35.4385 12.8198 35.01 12.6919L34.2713 12.4715C34.1701 12.4416 34.1093 12.3346 34.1433 12.2277C34.1684 12.1467 34.2494 12.0957 34.3345 12.0957H35.2222C35.6143 12.0957 35.9998 11.9936 36.3408 11.8009L37.585 11.0962C37.819 10.9633 37.9333 10.6766 37.8296 10.4279C37.7056 10.1307 37.3549 10.0157 37.0836 10.1704L35.8224 10.884C35.6394 10.9876 35.4328 11.0427 35.2222 11.0427H34.3985C34.2907 11.0427 34.2065 10.9447 34.2276 10.8345C34.2389 10.7754 34.2826 10.7276 34.3377 10.7041L35.8913 10.0343C36.3716 9.82693 36.8017 9.50536 37.1354 9.10361L37.5922 8.55362C37.7915 8.31306 37.7413 7.94775 37.4699 7.77361C37.244 7.62781 36.941 7.68937 36.7693 7.89672L36.3254 8.43051C36.097 8.7059 35.803 8.92541 35.4749 9.06716L33.3981 9.963C33.3892 9.96705 33.3811 9.9711 33.3722 9.97515C33.3398 9.98325 33.3074 9.99297 33.2758 10.0059L31.0961 10.8669C30.828 10.9731 30.6523 11.2323 30.6523 11.5198V11.8892C30.6523 12.3112 30.2805 12.6457 29.8463 12.5833C29.498 12.5331 29.2478 12.2188 29.2478 11.8673V10.8661C29.2478 10.6013 29.3968 10.3599 29.6325 10.24L31.1302 9.48025C31.1731 9.45838 31.2185 9.44056 31.2654 9.42841L32.4747 9.1028C32.8546 8.99993 33.0766 8.60465 32.9656 8.22639L32.9551 8.18913C32.8741 7.91616 32.6367 7.71853 32.3533 7.68937L32.1038 7.66345C31.9555 7.64806 31.8162 7.5865 31.7061 7.48687L31.3651 7.17989C31.1771 7.01141 30.9131 6.95633 30.6733 7.03571L28.6281 7.71853C28.4378 7.78171 28.2831 7.92426 28.2045 8.10894L27.2811 10.2773C27.2568 10.334 27.2171 10.3801 27.1685 10.4125C27.1191 10.4441 27.0616 10.4628 27 10.4628C26.9385 10.4628 26.881 10.4441 26.8316 10.4125C26.783 10.3801 26.7433 10.334 26.719 10.2773L25.7956 8.10894C25.717 7.92426 25.5623 7.78171 25.372 7.71853L23.3267 7.03571C23.087 6.95633 22.8229 7.01141 22.635 7.17989L22.294 7.48687C22.1839 7.5865 22.0445 7.64806 21.8963 7.66345L21.6468 7.68937C21.3633 7.71853 21.126 7.91616 21.045 8.18913L21.0345 8.22639C20.9235 8.60465 21.1455 8.99993 21.5253 9.1028L22.7346 9.42841C22.7816 9.44056 22.827 9.45838 22.8699 9.48025L24.3676 10.24C24.6033 10.3599 24.7523 10.6013 24.7523 10.8661V11.8673C24.7523 12.2188 24.502 12.5331 24.1537 12.5833C23.7196 12.6457 23.3478 12.3112 23.3478 11.8892V11.5198C23.3478 11.2323 23.172 10.9731 22.9039 10.8669L20.7243 10.0059C20.6927 9.99297 20.6603 9.98325 20.6279 9.97515C20.619 9.9711 20.6109 9.96705 20.602 9.963L18.5251 9.06716C18.1971 8.92541 17.9031 8.7059 17.6747 8.43051L17.2308 7.89672C17.0591 7.68937 16.7561 7.62781 16.5301 7.77361C16.2588 7.94775 16.2086 8.31306 16.4078 8.55362L16.8647 9.10361C17.1984 9.50536 17.6285 9.82693 18.1088 10.0343L19.6624 10.7041C19.7174 10.7276 19.7612 10.7754 19.7725 10.8345C19.7936 10.9447 19.7093 11.0427 19.6016 11.0427H18.7779C18.5673 11.0427 18.3607 10.9876 18.1777 10.884L16.9165 10.1704C16.6452 10.0157 16.2944 10.1307 16.1705 10.4279C16.0668 10.6766 16.181 10.9633 16.4151 11.0962L17.6593 11.8009C18.0003 11.9936 18.3858 12.0957 18.7779 12.0957H19.6656C19.7507 12.0957 19.8317 12.1467 19.8568 12.2277C19.8908 12.3346 19.83 12.4416 19.7288 12.4715L18.9901 12.6919C18.5616 12.8198 18.1007 12.7915 17.6909 12.6109L16.8695 12.2488C16.5836 12.1232 16.2466 12.2715 16.1527 12.5809C16.0749 12.8385 16.2175 13.1122 16.4637 13.2208L17.2664 13.5747C17.6423 13.74 18.0464 13.8234 18.4514 13.8234C18.7341 13.8234 19.0168 13.7829 19.2914 13.7011L19.7547 13.5626C19.8317 13.5399 19.9183 13.5755 19.9467 13.6501C19.9758 13.7278 19.9386 13.8104 19.8681 13.8428L18.7568 14.3507C18.4806 14.4771 18.1752 14.5257 17.8731 14.4925L16.7148 14.3653C16.4038 14.3313 16.1268 14.5751 16.1308 14.8974C16.1341 15.1664 16.3519 15.3851 16.6192 15.4142L17.7581 15.5398C17.8577 15.5503 17.9573 15.556 18.0562 15.556C18.4482 15.556 18.8362 15.4717 19.1942 15.3081L19.8875 14.9914C19.9459 14.9647 20.0188 14.9898 20.039 15.0505C20.0552 15.0983 20.035 15.1494 19.9936 15.1745L18.3194 16.2048C18.1307 16.3206 17.9136 16.3822 17.6925 16.3822H16.6776C16.4086 16.3822 16.1681 16.5749 16.1349 16.8422C16.0952 17.1622 16.3447 17.4351 16.6573 17.4351H17.6925C18.1088 17.4351 18.517 17.3193 18.871 17.1014L19.8884 16.4761C19.9993 16.4081 20.1419 16.4875 20.1419 16.6179C20.1419 16.677 20.1151 16.7337 20.0682 16.7709L18.5397 17.9932C18.3437 18.1504 18.0999 18.2362 17.848 18.2362H16.6776C16.4086 18.2362 16.1673 18.429 16.1349 18.6963C16.096 19.0162 16.3447 19.2892 16.6573 19.2892H17.848C18.3388 19.2892 18.8143 19.1223 19.1974 18.8162L20.2399 17.9827C20.2569 18.0532 20.2375 18.1261 20.1889 18.1787L18.858 19.6172C18.4555 20.053 17.8626 20.2741 17.2729 20.2102L16.7148 20.1494C16.3884 20.1146 16.0984 20.3843 16.1341 20.7318C16.1592 20.9805 16.3681 21.1708 16.616 21.1975L17.1587 21.2567C17.2632 21.268 17.3685 21.2737 17.4738 21.2737C18.2854 21.2737 19.0743 20.9343 19.6316 20.3325L21.2499 18.5821C21.2499 18.5821 21.2556 18.5756 21.258 18.5732C21.3439 18.5845 21.4014 18.6655 21.386 18.7506L21.2759 19.3435C21.2362 19.5614 21.1155 19.7558 20.9381 19.8886L20.0819 20.5317C19.8778 20.6848 19.796 20.9643 19.9102 21.1935C20.0058 21.3871 20.1937 21.4899 20.3849 21.4899C20.4942 21.4899 20.6052 21.4559 20.7 21.3846L21.5699 20.731C21.9587 20.4394 22.2227 20.0125 22.3118 19.5346L22.4479 18.7992C22.4536 18.7676 22.4836 18.7457 22.516 18.7497L22.9712 18.8145C23.0044 18.8186 23.0287 18.8494 23.023 18.8818C23.0028 19.0081 22.9517 19.1272 22.8748 19.2293L22.5249 19.6918C22.3661 19.9032 22.3718 20.2053 22.5581 20.3932C22.6634 20.4993 22.7994 20.5503 22.9339 20.5503C23.0927 20.5503 23.2506 20.4783 23.3543 20.3414L23.7633 19.7995C23.8427 19.6958 23.8945 19.5759 23.9472 19.4561C23.9998 19.3378 24.1805 19.3564 24.2015 19.4852C24.208 19.5225 24.2113 19.5605 24.2113 19.5994V19.6667C24.2113 19.8999 24.0954 20.1178 23.9018 20.2482L22.1515 21.4308C21.77 21.6892 21.7133 22.2286 22.0316 22.5607L21.0661 23.1042C21.0167 23.1326 20.9543 23.1131 20.9292 23.0629L20.7818 22.7697C20.7121 22.6304 20.555 22.5486 20.4043 22.5899C20.1994 22.6458 20.107 22.8693 20.197 23.0492L20.316 23.2849C20.3492 23.3513 20.2998 23.4299 20.2253 23.4282L19.9718 23.4226C19.762 23.4161 19.5878 23.6226 19.6567 23.847C19.698 23.9815 19.8292 24.0681 19.9693 24.0706L20.3079 24.0778C20.3743 24.0795 20.4205 24.1443 20.3995 24.2074L20.3112 24.4723C20.2618 24.6213 20.316 24.7931 20.4545 24.8692C20.5064 24.8976 20.5615 24.9113 20.6149 24.9113C20.7502 24.9113 20.8765 24.8255 20.9219 24.6894L21.0458 24.316C21.0645 24.2601 21.1276 24.2334 21.1811 24.2577L21.42 24.3678C21.4638 24.3881 21.5099 24.3978 21.5553 24.3978C21.6987 24.3978 21.8356 24.3022 21.872 24.1443C21.9076 23.9936 21.8218 23.8397 21.6809 23.7749L21.5901 23.7328C21.5172 23.6988 21.5132 23.5967 21.5828 23.557L22.4941 23.0435C22.7938 23.3561 23.2984 23.3391 23.5754 23.007L24.6365 21.7402C24.9338 21.3854 25.474 21.3304 25.8126 21.6455C26.1536 21.963 26.1074 22.47 25.7753 22.7276L24.383 23.8057C24.0784 24.0414 23.8581 24.346 23.7285 24.6821C23.4863 25.3066 24.2874 25.812 24.7612 25.3382C25.0739 25.0255 25.5874 25.0385 25.8839 25.3754C26.1544 25.6832 26.1204 26.1555 25.8304 26.4454L25.3712 26.9047C24.9613 27.3146 24.9022 27.9593 25.2318 28.4364L27 31L28.7682 28.4364C29.0979 27.9593 29.0388 27.3146 28.6289 26.9047L28.1697 26.4454C27.8797 26.1555 27.8457 25.6832 28.1162 25.3754C28.4127 25.0377 28.9262 25.0255 29.2388 25.3382C29.7127 25.812 30.5138 25.3066 30.2716 24.6821C30.1412 24.3468 29.9217 24.0414 29.6171 23.8057L28.2247 22.7276C27.8926 22.47 27.8465 21.963 28.1875 21.6455C28.5261 21.3304 29.0663 21.3854 29.3636 21.7402L30.4247 23.007C30.7017 23.3391 31.2063 23.3561 31.506 23.0435L32.4172 23.557C32.4869 23.5967 32.4828 23.6988 32.4099 23.7328L32.3192 23.7749C32.1783 23.8397 32.0924 23.9936 32.1281 24.1443C32.1645 24.3022 32.3014 24.3978 32.4448 24.3978C32.4901 24.3978 32.5363 24.3881 32.58 24.3678L32.819 24.2577C32.8725 24.2334 32.9356 24.2601 32.9543 24.316L33.0782 24.6894C33.1235 24.8255 33.2499 24.9113 33.3852 24.9113C33.4386 24.9113 33.4937 24.8976 33.5456 24.8692C33.6841 24.7931 33.7383 24.6213 33.6889 24.4723L33.6006 24.2074C33.5796 24.1443 33.6257 24.0795 33.6922 24.0778L34.0307 24.0706C34.1709 24.0681 34.3021 23.9815 34.3434 23.847C34.4122 23.6226 34.2381 23.4161 34.0283 23.4226L33.7748 23.4282C33.7003 23.4299 33.6509 23.3513 33.6841 23.2849L33.8031 23.0492C33.893 22.8693 33.8007 22.6458 33.5958 22.5899C33.4451 22.5486 33.288 22.6304 33.2183 22.7697L33.0709 23.0629C33.0458 23.1131 32.9834 23.1326 32.934 23.1042L31.9685 22.5607C32.2868 22.2286 32.2301 21.6892 31.8486 21.4308L30.0982 20.2482C29.9047 20.1178 29.7888 19.8999 29.7888 19.6667V19.5994C29.7888 19.5605 29.7921 19.5225 29.7985 19.4852C29.8196 19.3564 30.0002 19.3378 30.0529 19.4561C30.1055 19.5759 30.1574 19.6958 30.2368 19.7995L30.6458 20.3414C30.7495 20.4783 30.9074 20.5503 31.0662 20.5503C31.2006 20.5503 31.3367 20.4993 31.442 20.3932C31.6283 20.2053 31.634 19.9032 31.4752 19.6918L31.1253 19.2293C31.0484 19.1272 30.9973 19.0081 30.9771 18.8818C30.9714 18.8494 30.9957 18.8186 31.0289 18.8145L31.4841 18.7497C31.5165 18.7457 31.5465 18.7676 31.5522 18.7992L31.6883 19.5346C31.7773 20.0125 32.0414 20.4394 32.4302 20.731L33.3001 21.3846C33.3949 21.4559 33.5059 21.4899 33.6152 21.4899C33.8064 21.4899 33.9943 21.3871 34.0899 21.1935C34.2041 20.9643 34.1223 20.6848 33.9181 20.5317L33.062 19.8886C32.8846 19.7558 32.7639 19.5614 32.7242 19.3435L32.6141 18.7506C32.5987 18.6655 32.6562 18.5845 32.742 18.5732C32.7445 18.5756 32.7469 18.5797 32.7501 18.5821L34.3685 20.3325C34.9258 20.9343 35.7147 21.2737 36.5263 21.2737C36.6316 21.2737 36.7369 21.268 36.8414 21.2567L37.3841 21.1975C37.6319 21.1708 37.8409 20.9805 37.866 20.7318C37.9017 20.3843 37.6117 20.1146 37.2853 20.1494L36.7272 20.2102C36.1375 20.2741 35.5446 20.053 35.142 19.6172L33.8112 18.1787C33.7626 18.1261 33.7432 18.0532 33.7602 17.9835V17.9827Z" fill="#262626"/>
</svg>
