<svg width="54" height="36" viewBox="0 0 54 36" fill="none" xmlns="http://www.w3.org/2000/svg">
<g clip-path="url(#clip0_62_297)">
<path d="M0 0H54V18H0V0Z" fill="#EF4444"/>
<path d="M0 18H54V36H0V18Z" fill="#262626"/>
<path d="M17.0921 11.4213L17.4472 12.4712C17.4859 12.585 17.5872 12.6617 17.7031 12.665L18.7711 12.6928C19.1748 12.7031 19.3409 13.237 19.0202 13.4923L18.1721 14.1689C18.0802 14.2418 18.0415 14.3665 18.0744 14.4824L18.3794 15.5492C18.4948 15.9525 18.0588 16.2824 17.7266 16.0434L16.8472 15.4115C16.7521 15.3429 16.6262 15.3429 16.5312 15.4115L15.6517 16.0434C15.3196 16.2824 14.884 15.9525 14.9989 15.5492L15.3039 14.4824C15.3368 14.367 15.2982 14.2424 15.2063 14.1689L14.3571 13.4923C14.0364 13.2365 14.203 12.7031 14.6062 12.6928L15.6742 12.665C15.7896 12.6623 15.8914 12.585 15.9301 12.4712L16.2852 11.4213C16.4194 11.0245 16.9579 11.0245 17.0921 11.4213Z" fill="#FBBF24"/>
<path fill-rule="evenodd" clip-rule="evenodd" d="M22.2602 25.6144C22.3697 25.5249 22.3448 25.35 22.2188 25.2845L21.491 24.9057C21.239 24.7739 20.9398 24.7639 20.6803 24.88C18.536 25.8365 15.8437 25.8025 12.9889 24.0461C12.7212 23.882 12.3705 23.9615 12.1998 24.2251L12.0928 24.3901C11.9188 24.6595 11.9967 25.0192 12.2661 25.1933C12.4286 25.2994 12.591 25.3989 12.7535 25.4942C13.0113 25.6451 13.1107 25.9692 12.9831 26.2394L12.9599 26.2899C12.8231 26.5801 12.9475 26.9249 13.2376 27.0617L13.9861 27.4131C14.2762 27.5491 14.6218 27.4247 14.7578 27.1338L14.8382 26.9614C14.9559 26.711 15.2336 26.5759 15.5013 26.6439C15.7069 26.6961 15.9116 26.7417 16.1155 26.779C16.3932 26.8304 16.5922 27.0749 16.5922 27.3567V27.4106C16.5922 27.7356 16.8558 27.9992 17.1807 27.9992H17.993C18.318 27.9992 18.5815 27.7356 18.5815 27.4106C18.5815 27.1205 18.7937 26.8743 19.0806 26.8304C19.3044 26.7956 19.5265 26.7525 19.7437 26.7019C20.0172 26.6373 20.2966 26.779 20.4076 27.0368L20.425 27.0791C20.5519 27.3725 20.8917 27.5084 21.186 27.3833L21.9419 27.06C22.237 26.934 22.3738 26.5917 22.247 26.2966L22.2379 26.2767C22.0348 25.9277 22.1218 25.7271 22.2594 25.6144H22.2602Z" fill="#FBBF24"/>
<path fill-rule="evenodd" clip-rule="evenodd" d="M18.8816 10.0077C25.5817 11.9904 26.5341 17.4753 24.4262 21.3563C24.3043 21.5801 24.3814 21.8594 24.5969 21.9954L25.1515 22.3444C25.3032 22.4397 25.4971 22.4455 25.6513 22.3543C25.8022 22.2648 25.992 22.2457 26.1636 22.3145L26.2274 22.3402C26.5241 22.4587 26.8607 22.3153 26.9809 22.0194L27.2909 21.2552C27.4111 20.9568 27.2668 20.6177 26.9684 20.4984L26.9179 20.4785C26.6551 20.3749 26.5043 20.0964 26.5656 19.8212C26.6079 19.6305 26.6452 19.4382 26.6758 19.2442C26.7206 18.9641 26.9643 18.7593 27.2478 18.7593H27.3191C27.6399 18.7593 27.8993 18.4999 27.8993 18.1791V17.3502C27.8993 17.0294 27.6399 16.7699 27.3191 16.7699H27.2594C26.9751 16.7699 26.7289 16.5635 26.6874 16.2817C26.6518 16.0446 26.6087 15.8084 26.5556 15.5738C26.4935 15.297 26.6477 15.0176 26.9121 14.914L26.9693 14.8916C27.2677 14.7756 27.4152 14.439 27.2992 14.1406L26.9983 13.3706C26.8822 13.073 26.5474 12.9255 26.2498 13.0407L26.1752 13.0689C25.9132 13.17 25.6148 13.0705 25.4714 12.8293C25.362 12.6453 25.2451 12.4654 25.1225 12.2889C24.9617 12.0592 24.994 11.7476 25.1921 11.5503C25.3065 11.4376 25.3628 11.2884 25.3628 11.1392C25.3628 10.99 25.3073 10.8432 25.1946 10.7305L24.6102 10.1428C24.3847 9.91569 24.0184 9.91403 23.7912 10.1387L23.7887 10.1412C23.5898 10.3384 23.2781 10.365 23.0494 10.2033C22.8678 10.0765 22.6797 9.95465 22.4857 9.83943C22.2437 9.69603 22.14 9.39928 22.2403 9.13652L22.2636 9.07518C22.3771 8.77428 22.2254 8.43857 21.9245 8.32584L21.1536 8.03738C20.8552 7.92465 20.5212 8.07551 20.4085 8.37392L20.3927 8.41537C20.2907 8.6831 20.0097 8.83645 19.7296 8.77594C19.5389 8.73532 19.345 8.69885 19.1469 8.66735C18.8153 8.61513 18.5103 8.85883 18.4821 9.19288L18.4647 9.40425C18.4415 9.67945 18.6164 9.93061 18.8816 10.0094V10.0077Z" fill="#FBBF24"/>
<path fill-rule="evenodd" clip-rule="evenodd" d="M30.1597 26.2295L24.7735 22.845L23.5136 22.0534L17.9002 18.5272C17.7369 18.4244 17.5537 18.3764 17.3705 18.3764C16.9751 18.3764 16.5756 18.601 16.3485 18.9972L15.9779 19.6429C15.6455 20.2232 15.8171 20.9377 16.3568 21.2195L21.5615 23.9301L22.9971 24.6777L29.1982 27.908C29.3176 27.9702 29.4469 28 29.577 28C29.7395 28 29.9028 27.9536 30.0487 27.8666C30.1946 27.7795 30.3222 27.6527 30.4151 27.4911C30.6737 27.0393 30.5618 26.4814 30.1597 26.2295Z" fill="#FBBF24"/>
</g>
<defs>
<clipPath id="clip0_62_297">
<rect width="54" height="36" rx="8" fill="white"/>
</clipPath>
</defs>
</svg>
