<svg width="54" height="36" viewBox="0 0 54 36" fill="none" xmlns="http://www.w3.org/2000/svg">
<rect width="54" height="36" rx="8" fill="#3B82F6"/>
<path d="M16.7369 18.3149L18.6395 21.6992C19.4217 23.0908 20.9647 24.0052 22.6934 24.102L25.8685 24.2796C26.7867 24.331 27.4907 25.0344 27.4519 25.8619C27.4142 26.6681 27.9946 27.3929 28.8566 27.6153L30.0344 27.9192C30.8111 28.1198 31.6479 27.9411 32.242 27.4481L35.5384 24.7119C36.3156 24.0664 36.8627 23.228 37.1098 22.3021L37.9504 19.1528C38.1887 18.2597 38.046 17.319 37.5503 16.5161L36.7561 15.2306C36.4577 14.7474 36.2495 14.2233 36.1396 13.6794L35.6745 11.3735C35.5406 10.7094 35.0705 10.1393 34.4031 9.83104L31.9469 8.69801C31.514 8.49796 31.0417 8.37553 30.5569 8.33727L26.4216 8.00988C25.2388 7.91641 24.1156 8.49304 23.6029 9.45664L22.5371 11.4604C21.8687 12.7164 20.6378 13.657 19.1522 14.0462C18.8232 14.1325 18.4679 14.0697 18.199 13.8778L15.7744 12.1474C15.3694 11.8583 14.8158 12.2758 15.0601 12.6858L16.4281 14.9786C16.8206 15.6367 16.896 16.4106 16.6369 17.1206C16.4926 17.5147 16.5287 17.9449 16.7369 18.3149Z" fill="#F5F5F5"/>
</svg>
