<svg width="54" height="36" viewBox="0 0 54 36" fill="none" xmlns="http://www.w3.org/2000/svg">
<g clip-path="url(#clip0_62_363)">
<path d="M0 0H54V12H0V0Z" fill="#93C5FD"/>
<path d="M0 12H54V24H0V12Z" fill="#F5F5F5"/>
<path d="M0 24H54V36H0V24Z" fill="#93C5FD"/>
<path fill-rule="evenodd" clip-rule="evenodd" d="M27.3361 12.2867L27.6656 14.3251C27.7139 14.615 28.0785 14.7117 28.263 14.4833L29.5678 12.8797C29.8094 12.581 30.2839 12.8534 30.1477 13.2136L29.4141 15.1466C29.3086 15.419 29.5766 15.687 29.8534 15.5859L31.7864 14.8523C32.1466 14.7161 32.419 15.1906 32.1203 15.4322L30.5167 16.737C30.2883 16.9215 30.3893 17.2905 30.6749 17.3344L32.7133 17.6639C33.0956 17.7254 33.0956 18.2746 32.7133 18.3361L30.6749 18.6656C30.385 18.7139 30.2883 19.0785 30.5167 19.263L32.1203 20.5678C32.419 20.8094 32.1466 21.2839 31.7864 21.1477L29.8534 20.4141C29.581 20.3086 29.313 20.5766 29.4141 20.8534L30.1477 22.7864C30.2839 23.1466 29.8094 23.419 29.5678 23.1203L28.263 21.5167C28.0785 21.2883 27.7095 21.3893 27.6656 21.6749L27.3361 23.7133C27.2746 24.0956 26.7254 24.0956 26.6639 23.7133L26.3344 21.6749C26.2861 21.385 25.9215 21.2883 25.737 21.5167L24.4322 23.1203C24.1906 23.419 23.7161 23.1466 23.8523 22.7864L24.5859 20.8534C24.6914 20.581 24.4234 20.313 24.1466 20.4141L22.2136 21.1477C21.8534 21.2839 21.581 20.8094 21.8797 20.5678L23.4833 19.263C23.7117 19.0785 23.6107 18.7095 23.3251 18.6656L21.2867 18.3361C20.9044 18.2746 20.9044 17.7254 21.2867 17.6639L23.3251 17.3344C23.615 17.2861 23.7117 16.9215 23.4833 16.737L21.8797 15.4322C21.581 15.1906 21.8534 14.7161 22.2136 14.8523L24.1466 15.5859C24.419 15.6914 24.687 15.4234 24.5859 15.1466L23.8523 13.2136C23.7161 12.8534 24.1906 12.581 24.4322 12.8797L25.737 14.4833C25.9215 14.7117 26.2905 14.6107 26.3344 14.3251L26.6639 12.2867C26.7254 11.9044 27.2746 11.9044 27.3361 12.2867Z" fill="#FBBF24"/>
</g>
<defs>
<clipPath id="clip0_62_363">
<rect width="54" height="36" rx="8" fill="white"/>
</clipPath>
</defs>
</svg>
