<svg width="54" height="36" viewBox="0 0 54 36" fill="none" xmlns="http://www.w3.org/2000/svg">
<g clip-path="url(#clip0_62_399)">
<rect width="54" height="36" rx="8" fill="#1E3A8A"/>
<path d="M2.84605 18.9487C1.93435 18.6448 1.93435 17.3552 2.84605 17.0513L52.6838 0.438741C53.3313 0.222897 54 0.704867 54 1.38743V34.6126C54 35.2951 53.3313 35.7771 52.6838 35.5613L2.84605 18.9487Z" fill="#F5F5F5"/>
<path fill-rule="evenodd" clip-rule="evenodd" d="M52.0513 -1.45862L2.21359 15.154C-0.5215 16.0657 -0.521496 19.9344 2.21359 20.8461L52.0513 37.4586C53.9939 38.1062 56 36.6603 56 34.6126V1.38743C56 -0.660233 53.9939 -2.10615 52.0513 -1.45862ZM2.84605 17.0513C1.93435 17.3552 1.93435 18.6448 2.84605 18.9487L52.6838 35.5613C53.3313 35.7771 54 35.2951 54 34.6126V1.38743C54 0.704875 53.3313 0.222905 52.6838 0.438749L2.84605 17.0513Z" fill="#EF4444"/>
<path d="M49.9079 22.9614H33.6217V22.3367C33.6217 21.7466 33.0395 21.3323 32.482 21.5266L30.3583 22.2663L28.2977 22.984C27.9008 23.1221 27.9008 23.6838 28.2977 23.8219L30.3583 24.5396L32.482 25.2793C33.0395 25.4736 33.6217 25.0593 33.6217 24.4692V23.8445H49.9079C50.1515 23.8445 50.3494 23.6471 50.3494 23.4029C50.3494 23.1588 50.152 22.9614 49.9079 22.9614Z" fill="#FBBF24"/>
<path d="M42.7657 9H50.9652C51.5369 9 52.0005 9.46358 52.0005 10.0353V10.228C52.0005 11.2549 51.1684 12.087 50.1415 12.087V12.1631C50.1415 13.5912 48.9839 14.7483 47.5564 14.7483C47.5564 16.0823 46.4749 17.1638 45.1408 17.1638H42.7662V9H42.7657Z" fill="#713F12"/>
<path d="M42.7657 17.1638L47.7643 23.1867C48.3922 23.9432 47.854 25.0887 46.8707 25.0887H45.459C43.9716 25.0887 42.7657 23.8828 42.7657 22.3955V17.1638Z" fill="#D4D4D4"/>
<path d="M30.7143 15.1226V17.1638H29.0049V16.832C29.0049 15.8885 29.7708 15.1231 30.7137 15.1231L30.7143 15.1226Z" fill="#FBBF24"/>
<path d="M42.7657 9H41.3629C37.7283 9 34.782 11.9463 34.782 15.5809C34.782 19.2155 37.7283 22.1618 41.3629 22.1618H42.7657V9Z" fill="#A16207"/>
<path d="M40.503 22.1052L36.7686 22.1057C35.8787 22.1057 35.318 21.1486 35.7522 20.3721L36.1706 19.6245C36.3376 19.8387 36.5177 20.0424 36.7093 20.234C37.7094 21.2336 39.0298 21.9135 40.503 22.1052Z" fill="#713F12"/>
<path d="M34.782 15.5809C34.782 16.1264 34.8487 16.6567 34.9736 17.1638H30.7143V15.3095C30.7143 14.0794 31.7118 13.0819 32.9419 13.0819H35.2729C34.9563 13.8526 34.782 14.6963 34.782 15.5809Z" fill="#D4D4D4"/>
</g>
<defs>
<clipPath id="clip0_62_399">
<rect width="54" height="36" rx="8" fill="white"/>
</clipPath>
</defs>
</svg>
