<svg width="54" height="36" viewBox="0 0 54 36" fill="none" xmlns="http://www.w3.org/2000/svg">
<rect width="54" height="36" rx="8" fill="#1E3A8A"/>
<path d="M28.8 0V15.8C28.8 16.18 28.75 16.55 28.64 16.9C28.59 17.08 28.53 17.26 28.45 17.43C28.38 17.6 28.29 17.76 28.2 17.91C27.73 18.67 27.01 19.26 26.15 19.56C25.94 19.64 25.71 19.7 25.47 19.74C25.25 19.78 25.03 19.8 24.8 19.8H0V0H28.8Z" fill="#1E3A8A"/>
<path fill-rule="evenodd" clip-rule="evenodd" d="M28.8 0V2.13L22.52 6.48L20.95 7.56L18.04 9.57L17.57 9.9L17.09 10.23L14.88 11.76L14.41 12.09L13.93 12.42L11.88 13.83L10.8 14.58L3.25 19.8H0V17.67L5.77 13.68L7.34 12.6L10.77 10.23L11.24 9.9L11.71 9.57L13.93 8.04L14.41 7.71L14.88 7.38L16.92 5.97L18 5.23L25.56 0H28.8Z" fill="#EF4444"/>
<path fill-rule="evenodd" clip-rule="evenodd" d="M24.61 0L18 4.57L16.92 5.32L14.41 7.06L13.93 7.38L13.45 7.71L11.24 9.24L10.77 9.57L10.29 9.9L6.39 12.6L4.82 13.68L0 17.01V18.33L6.72 13.68L8.28 12.6L11.24 10.56L11.71 10.23L12.19 9.9L14.4 8.37L14.88 8.04L15.35 7.71L16.92 6.63L18 5.88L26.5 0H24.61ZM21.56 6.48L20 7.56L17.57 9.24L17.09 9.57L16.62 9.9L14.4 11.43L13.93 11.76L13.45 12.09L11.88 13.18L10.8 13.92L2.3 19.8H4.2L10.8 15.24L11.88 14.49L14.41 12.74L14.88 12.42L15.35 12.09L17.57 10.56L18.04 10.23L18.52 9.9L21.9 7.56L23.47 6.48L28.8 2.79V1.48L21.56 6.48ZM14.88 8.04L15.35 7.71L16.92 6.63V5.97L14.88 7.38L14.41 7.71L13.93 8.04L14.4 8.37L14.88 8.04Z" fill="#F5F5F5"/>
<path fill-rule="evenodd" clip-rule="evenodd" d="M28.45 17.43C28.38 17.6 28.29 17.76 28.2 17.91C27.73 18.67 27.01 19.26 26.15 19.56C25.94 19.64 25.71 19.7 25.47 19.74L18 14.57L16.92 13.83L14.88 12.42L14.41 12.09L13.93 11.76L11.71 10.23L11.24 9.9L10.77 9.57L7.86 7.56L6.29 6.48L0 2.13V0H3.25L10.8 5.22L11.88 5.97L13.93 7.38L14.41 7.71L14.88 8.04L17.09 9.57L17.57 9.9L18.04 10.23L21.47 12.6L23.04 13.68L28.45 17.43Z" fill="#EF4444"/>
<path fill-rule="evenodd" clip-rule="evenodd" d="M23.99 13.68L22.42 12.6L18.52 9.9L18.04 9.57L17.57 9.24L15.35 7.71L14.88 7.38L14.41 7.06L11.88 5.31L10.8 4.56L4.2 0H2.3L10.8 5.88L11.88 6.62L13.45 7.71L13.93 8.04L14.4 8.37L16.62 9.9L17.09 10.23L17.57 10.56L20.52 12.6L22.08 13.68L28.2 17.91C28.29 17.76 28.38 17.6 28.45 17.43C28.53 17.26 28.59 17.08 28.64 16.9L23.99 13.68ZM18 13.92L16.92 13.17L15.35 12.09L14.88 11.76L14.4 11.43L12.19 9.9L11.71 9.57L11.24 9.24L8.81 7.56L7.24 6.48L0 1.47V2.79L5.34 6.48L6.91 7.56L10.29 9.9L10.77 10.23L11.24 10.56L13.45 12.09L13.93 12.42L14.41 12.74L16.92 14.48L18 15.23L24.61 19.8H24.8C25.03 19.8 25.25 19.78 25.47 19.74C25.71 19.7 25.94 19.64 26.15 19.56L18 13.92Z" fill="#F5F5F5"/>
<path fill-rule="evenodd" clip-rule="evenodd" d="M28.8 7.56V12.6H16.92V19.8H11.88V12.6H0V7.56H11.88V0H16.92V7.56H28.8Z" fill="#EF4444"/>
<path fill-rule="evenodd" clip-rule="evenodd" d="M16.92 12.6V19.8H18V13.68H28.8V12.6H16.92ZM18 6.48V0H16.92V7.56H28.8V6.48H18ZM10.8 6.48H0V7.56H11.88V0H10.8V6.48ZM0 12.6V13.68H10.8V19.8H11.88V12.6H0Z" fill="#F5F5F5"/>
<path d="M14.8415 24.4761L15.4336 26.1559C15.4981 26.3379 15.667 26.4607 15.8603 26.4659L17.6411 26.5103C18.3142 26.5269 18.5912 27.3811 18.0565 27.7895L16.6423 28.8719C16.489 28.9886 16.4246 29.188 16.4795 29.3735L16.988 31.0803C17.1805 31.7255 16.4533 32.2532 15.8995 31.871L14.4331 30.86C14.2746 30.7502 14.0647 30.7502 13.9062 30.86L12.4398 31.871C11.886 32.2532 11.1597 31.7255 11.3513 31.0803L11.8598 29.3735C11.9147 29.1889 11.8503 28.9895 11.697 28.8719L10.2811 27.7895C9.74641 27.3802 10.0242 26.5269 10.6965 26.5103L12.4772 26.4659C12.6697 26.4615 12.8395 26.3379 12.9039 26.1559L13.4961 24.4761C13.7199 23.8413 14.6177 23.8413 14.8415 24.4761Z" fill="#F5F5F5"/>
<path d="M45.6311 25.3571L46.0752 26.6169C46.1235 26.7534 46.2502 26.8455 46.3952 26.8494L47.7308 26.8827C48.2357 26.8951 48.4434 27.5358 48.0424 27.8421L46.9817 28.6539C46.8668 28.7415 46.8184 28.891 46.8596 29.0301L47.241 30.3102C47.3853 30.7942 46.84 31.1899 46.4246 30.9032L45.3248 30.145C45.2059 30.0627 45.0485 30.0627 44.9297 30.145L43.8299 30.9032C43.4145 31.1899 42.8698 30.7942 43.0135 30.3102L43.3949 29.0301C43.436 28.8917 43.3877 28.7421 43.2728 28.6539L42.2108 27.8421C41.8098 27.5352 42.0181 26.8951 42.5223 26.8827L43.8579 26.8494C44.0023 26.8462 44.1296 26.7534 44.178 26.6169L44.6221 25.3571C44.7899 24.881 45.4633 24.881 45.6311 25.3571Z" fill="#F5F5F5"/>
<path d="M35.6311 13.3571L36.0752 14.6169C36.1235 14.7534 36.2502 14.8455 36.3952 14.8494L37.7308 14.8827C38.2357 14.8951 38.4434 15.5358 38.0424 15.8421L36.9817 16.6539C36.8668 16.7415 36.8184 16.891 36.8596 17.0301L37.241 18.3102C37.3853 18.7942 36.84 19.1899 36.4246 18.9032L35.3248 18.145C35.2059 18.0627 35.0485 18.0627 34.9297 18.145L33.8299 18.9032C33.4145 19.1899 32.8698 18.7942 33.0135 18.3102L33.3949 17.0301C33.436 16.8917 33.3877 16.7421 33.2728 16.6539L32.2108 15.8421C31.8098 15.5352 32.0181 14.8951 32.5223 14.8827L33.8579 14.8494C34.0023 14.8462 34.1296 14.7534 34.178 14.6169L34.6221 13.3571C34.7899 12.881 35.4633 12.881 35.6311 13.3571Z" fill="#F5F5F5"/>
<path d="M41.6311 2.35708L42.0752 3.61692C42.1235 3.75342 42.2502 3.8455 42.3952 3.84942L43.7308 3.88273C44.2357 3.89514 44.4434 4.53583 44.0424 4.84214L42.9817 5.65394C42.8668 5.74146 42.8184 5.89102 42.8596 6.03013L43.241 7.31021C43.3853 7.79416 42.84 8.18994 42.4246 7.90322L41.3248 7.14497C41.2059 7.06268 41.0485 7.06268 40.9297 7.14497L39.8299 7.90322C39.4145 8.18994 38.8698 7.79416 39.0135 7.31021L39.3949 6.03013C39.436 5.89167 39.3877 5.74211 39.2728 5.65394L38.2108 4.84214C37.8098 4.53518 38.0181 3.89514 38.5223 3.88273L39.8579 3.84942C40.0023 3.84616 40.1296 3.75342 40.178 3.61692L40.6221 2.35708C40.7899 1.88097 41.4633 1.88097 41.6311 2.35708Z" fill="#F5F5F5"/>
<path d="M48.6311 10.3571L49.0752 11.6169C49.1235 11.7534 49.2502 11.8455 49.3952 11.8494L50.7308 11.8827C51.2357 11.8951 51.4434 12.5358 51.0424 12.8421L49.9817 13.6539C49.8668 13.7415 49.8184 13.891 49.8596 14.0301L50.241 15.3102C50.3853 15.7942 49.84 16.1899 49.4246 15.9032L48.3248 15.145C48.2059 15.0627 48.0485 15.0627 47.9297 15.145L46.8299 15.9032C46.4145 16.1899 45.8698 15.7942 46.0135 15.3102L46.3949 14.0301C46.436 13.8917 46.3877 13.7421 46.2728 13.6539L45.2108 12.8421C44.8098 12.5352 45.0181 11.8951 45.5223 11.8827L46.8579 11.8494C47.0023 11.8462 47.1296 11.7534 47.178 11.6169L47.6221 10.3571C47.7899 9.88097 48.4633 9.88097 48.6311 10.3571Z" fill="#F5F5F5"/>
</svg>
