<svg width="54" height="36" viewBox="0 0 54 36" fill="none" xmlns="http://www.w3.org/2000/svg">
<g clip-path="url(#clip0_62_597)">
<path d="M0 0H54V12H0V0Z" fill="#93C5FD"/>
<path d="M0 12H54V24H0V12Z" fill="#EF4444"/>
<path d="M0 24H54V36H0V24Z" fill="#22C55E"/>
<path d="M32.4236 15.4463L32.8385 16.601C32.8837 16.7261 33.0021 16.8105 33.1375 16.8141L34.3854 16.8446C34.8572 16.856 35.0512 17.4432 34.6765 17.7239L33.6855 18.4679C33.5781 18.5481 33.533 18.6852 33.5714 18.8127L33.9278 19.9859C34.0626 20.4295 33.5531 20.7922 33.165 20.5295L32.1374 19.8345C32.0263 19.7591 31.8792 19.7591 31.7682 19.8345L30.7406 20.5295C30.3524 20.7922 29.8435 20.4295 29.9778 19.9859L30.3341 18.8127C30.3726 18.6858 30.3274 18.5487 30.22 18.4679L29.2278 17.7239C28.8531 17.4426 29.0478 16.856 29.5189 16.8446L30.7668 16.8141C30.9017 16.8111 31.0206 16.7261 31.0658 16.601L31.4808 15.4463C31.6376 15.0099 32.2667 15.0099 32.4236 15.4463Z" fill="#F5F5F5"/>
<path d="M28.3342 23.0058C28.3342 23.0058 28.3414 23.0058 28.3442 23.0058C28.5829 23.0058 28.6586 23.3285 28.4428 23.4313C27.6783 23.7959 26.8252 24 25.9249 24C22.6552 24 19.9843 21.2822 20.0001 17.9696C20.0158 14.657 22.6624 12 25.9249 12C26.8266 12 27.6812 12.2041 28.4457 12.5687C28.6601 12.6715 28.5829 12.9942 28.3457 12.9942C28.3414 12.9942 28.3385 12.9942 28.3342 12.9942C25.6048 12.9942 23.3912 15.2344 23.3912 18C23.3912 20.7656 25.6048 23.0058 28.3342 23.0058Z" fill="#F5F5F5"/>
</g>
<defs>
<clipPath id="clip0_62_597">
<rect width="54" height="36" rx="8" fill="white"/>
</clipPath>
</defs>
</svg>
