<svg width="54" height="36" viewBox="0 0 54 36" fill="none" xmlns="http://www.w3.org/2000/svg">
<rect width="54" height="36" rx="8" fill="#1E3A8A"/>
<path fill-rule="evenodd" clip-rule="evenodd" d="M48.6 0V34.49C48.6 35.75 47.1 36.4 46.18 35.54L8.43 0.34C8.32 0.24 8.23 0.12 8.16 0H48.6Z" fill="#FBBF24"/>
<path d="M4.42 2.07C4.31 2.15 4.27 2.3 4.31 2.43L4.67 3.66C4.81 4.12 4.29 4.5 3.89 4.23L2.83 3.5C2.72 3.42 2.57 3.42 2.45 3.5L1.4 4.23C1 4.5 0.47 4.12 0.61 3.66L0.98 2.43C1.02 2.3 0.97 2.15 0.86 2.07L0 1.41V0.39C0 0.39 0.09 0.37 0.14 0.37L1.42 0.34C1.56 0.33 1.68 0.24 1.73 0.11L1.77 0H3.51L3.55 0.11C3.6 0.24 3.72 0.33 3.86 0.34L5.14 0.37C5.63 0.38 5.83 0.99 5.44 1.29L4.42 2.07Z" fill="#F5F5F5"/>
<path d="M9.25 4.65994L9.68 5.86994C9.73 5.99994 9.85 6.08994 9.99 6.08994L11.27 6.11994C11.75 6.12994 11.95 6.74994 11.57 7.03994L10.55 7.81994C10.44 7.89994 10.39 8.04994 10.43 8.17994L10.8 9.40994C10.94 9.86994 10.42 10.2499 10.02 9.97994L8.96 9.24994C8.85 9.16994 8.69 9.16994 8.58 9.24994L7.52 9.97994C7.12 10.2599 6.6 9.87994 6.74 9.40994L7.11 8.17994C7.15 8.04994 7.11 7.89994 6.99 7.81994L5.97 7.03994C5.59 6.74994 5.79 6.12994 6.27 6.11994L7.55 6.08994C7.69 6.08994 7.81 5.99994 7.86 5.86994L8.29 4.65994C8.45 4.19994 9.1 4.19994 9.26 4.65994H9.25Z" fill="#F5F5F5"/>
<path d="M15.37 10.42L15.8 11.63C15.85 11.76 15.97 11.85 16.11 11.85L17.39 11.88C17.87 11.89 18.07 12.51 17.69 12.8L16.67 13.58C16.56 13.66 16.51 13.81 16.55 13.94L16.92 15.17C17.06 15.63 16.54 16.01 16.14 15.74L15.08 15.01C14.97 14.93 14.81 14.93 14.7 15.01L13.64 15.74C13.24 16.02 12.72 15.64 12.86 15.17L13.23 13.94C13.27 13.81 13.23 13.66 13.11 13.58L12.09 12.8C11.71 12.51 11.91 11.89 12.39 11.88L13.67 11.85C13.81 11.85 13.93 11.76 13.98 11.63L14.41 10.42C14.57 9.95995 15.22 9.95995 15.38 10.42H15.37Z" fill="#F5F5F5"/>
<path d="M21.49 16.18L21.92 17.39C21.97 17.52 22.09 17.61 22.23 17.61L23.51 17.64C23.99 17.65 24.19 18.27 23.81 18.56L22.79 19.34C22.68 19.42 22.63 19.57 22.67 19.7L23.04 20.93C23.18 21.39 22.66 21.77 22.26 21.5L21.2 20.77C21.09 20.69 20.93 20.69 20.82 20.77L19.76 21.5C19.36 21.78 18.84 21.4 18.98 20.93L19.35 19.7C19.39 19.57 19.35 19.42 19.23 19.34L18.21 18.56C17.83 18.27 18.03 17.65 18.51 17.64L19.79 17.61C19.93 17.61 20.05 17.52 20.1 17.39L20.53 16.18C20.69 15.72 21.34 15.72 21.5 16.18H21.49Z" fill="#F5F5F5"/>
<path d="M27.61 21.94L28.04 23.15C28.09 23.28 28.21 23.37 28.35 23.37L29.63 23.4C30.11 23.41 30.31 24.03 29.93 24.32L28.91 25.1C28.8 25.18 28.75 25.33 28.79 25.46L29.16 26.69C29.3 27.15 28.78 27.53 28.38 27.26L27.32 26.53C27.21 26.45 27.05 26.45 26.94 26.53L25.88 27.26C25.48 27.54 24.96 27.16 25.1 26.69L25.47 25.46C25.51 25.33 25.47 25.18 25.35 25.1L24.33 24.32C23.95 24.03 24.15 23.41 24.63 23.4L25.91 23.37C26.05 23.37 26.17 23.28 26.22 23.15L26.65 21.94C26.81 21.48 27.46 21.48 27.62 21.94H27.61Z" fill="#F5F5F5"/>
<path d="M33.73 27.7L34.16 28.91C34.21 29.04 34.33 29.13 34.47 29.13L35.75 29.16C36.23 29.17 36.43 29.79 36.05 30.08L35.03 30.86C34.92 30.94 34.87 31.09 34.91 31.22L35.28 32.45C35.42 32.91 34.9 33.29 34.5 33.02L33.44 32.29C33.33 32.21 33.17 32.21 33.06 32.29L32 33.02C31.6 33.3 31.08 32.92 31.22 32.45L31.59 31.22C31.63 31.09 31.59 30.94 31.47 30.86L30.45 30.08C30.07 29.79 30.27 29.17 30.75 29.16L32.03 29.13C32.17 29.13 32.29 29.04 32.34 28.91L32.77 27.7C32.93 27.24 33.58 27.24 33.74 27.7H33.73Z" fill="#F5F5F5"/>
<path d="M42.16 35.8501L41.96 36.0001H36.76L36.56 35.8501C36.18 35.5501 36.38 34.9401 36.86 34.9301L38.14 34.9001C38.28 34.8901 38.4 34.8001 38.45 34.6701L38.88 33.4601C39.04 33.0101 39.68 33.0101 39.85 33.4601L40.27 34.6701C40.32 34.8001 40.44 34.8901 40.58 34.9001L41.86 34.9301C42.35 34.9401 42.55 35.5501 42.16 35.8501Z" fill="#F5F5F5"/>
</svg>
