<svg width="54" height="36" viewBox="0 0 54 36" fill="none" xmlns="http://www.w3.org/2000/svg">
<g clip-path="url(#clip0_87_183)">
<path d="M0 0H18V36H0V0Z" fill="#1E3A8A"/>
<path d="M18 0H36V36H18V0Z" fill="#FBBF24"/>
<path d="M36 0H54V36H36V0Z" fill="#1E3A8A"/>
<path d="M33.6974 12.5837C33.3163 12.2255 32.7174 12.2444 32.3592 12.6256C30.7464 14.3425 29.996 17.1933 29.6512 19.2827C29.5486 19.9037 28.9608 20.3345 28.3406 20.2414L27.9437 20.1823V14.7173H28.7777C29.4066 14.7173 29.7995 14.0364 29.4855 13.4919L28.5955 11.9501L27.7054 10.4083C27.3914 9.86389 26.6047 9.86389 26.2906 10.4083L25.4006 11.9501L24.5106 13.4919C24.1965 14.0364 24.5895 14.7173 25.2183 14.7173H26.0524V20.1823L25.6555 20.2414C25.0353 20.3337 24.4474 19.9037 24.3449 19.2827C24 17.1933 23.2497 14.3425 21.6369 12.6256C21.2786 12.2444 20.6797 12.2255 20.2986 12.5837C19.9175 12.942 19.8986 13.5408 20.2568 13.922C21.2613 14.9911 22.0495 17.004 22.4764 19.5913C22.7218 21.077 24.0253 22.1478 25.4898 22.1478C25.6365 22.1478 25.7857 22.1367 25.9348 22.1146L26.0531 22.0973V25.801C26.0531 26.3242 26.4769 26.7479 27 26.7479C27.5231 26.7479 27.9469 26.3242 27.9469 25.801V22.0973L28.0652 22.1146C28.2143 22.1367 28.3635 22.1478 28.5102 22.1478C29.9747 22.1478 31.2782 21.077 31.5236 19.5913C31.9513 17.004 32.7395 14.9911 33.7432 13.922C34.1014 13.5408 34.0825 12.942 33.7014 12.5837H33.6974Z" fill="#262626"/>
</g>
<defs>
<clipPath id="clip0_87_183">
<rect width="54" height="36" rx="8" fill="white"/>
</clipPath>
</defs>
</svg>
