<svg width="54" height="36" viewBox="0 0 54 36" fill="none" xmlns="http://www.w3.org/2000/svg">
<g clip-path="url(#clip0_90_257)">
<rect width="54" height="36" rx="8" fill="#DC2626"/>
<path d="M27 17.9104L22.83 20.7065L21.22 21.791H21.21L20.06 22.5672H20.05L9.13 29.8806L8.88 30.0498L8.71 30.1592L0.13 35.9104L0 36V0L0.14 0.0895522L25.08 16.6368L25.51 16.9254L27 17.9104Z" fill="#22C55E"/>
<path d="M54 0.0894775L53.83 0.19893L27.13 17.9999L27 17.9104L25.51 16.9253H25.49L25.09 16.6566L0 0.0894775H54Z" fill="#EF4444"/>
<path d="M54 35.9104H0L8.71 30.1592L8.88 30.0498L9.13 29.8806L21.36 21.8109L22.85 20.8259L27.13 18L27.85 18.4776L28.33 18.806L31.18 20.6965L32.82 21.791H32.83L33.62 22.3284H33.64L34.05 22.607C34.06 22.6269 34.08 22.6269 34.1 22.6368L53.94 35.8706L54 35.9104Z" fill="#EF4444"/>
<path d="M54 0V36L53.9 35.9303L53.87 35.9104L33.96 22.5672L32.79 21.791C32.79 21.791 32.77 21.7811 32.76 21.7811L31.17 20.7065L28.33 18.806L27.85 18.4776L27.13 18L27 17.9104L28.49 16.9254L28.92 16.6368L53.79 0.139303L53.87 0.0895522L54 0Z" fill="#22C55E"/>
<path d="M54 4.39801L38.1 14.9552C38.36 15.9204 38.52 16.9453 38.52 18C38.52 19.1244 38.35 20.2189 38.04 21.2438L54 31.8308V35.7811L53.94 35.8706L53.91 35.9104V35.9303L53.87 35.9104H47.17L33.94 27.1343C32.01 28.5871 29.61 29.4627 27 29.4627C24.39 29.4627 21.86 28.5473 19.9 27.0149L6.49 35.9104H0.13L0 36V31.6119L15.91 21.0547C15.64 20.0796 15.48 19.0647 15.48 18C15.48 17.005 15.62 16.0498 15.86 15.1343L0 4.61692V0L0.14 0.0895522H6.15L19.74 9.10448C21.72 7.50249 24.25 6.53731 27 6.53731C29.75 6.53731 32.15 7.46269 34.1 8.98507L47.52 0.0895522H53.76L53.79 0.139303L53.83 0.199005L54 0.447761V4.39801Z" fill="#F5F5F5"/>
<path d="M27.46 11.5324L27.87 12.7364C27.91 12.8657 28.03 12.9553 28.16 12.9553L29.39 12.9851C29.86 12.9951 30.05 13.612 29.68 13.9005L28.7 14.6766C28.59 14.7563 28.55 14.9055 28.59 15.0349L28.94 16.2587C29.07 16.7165 28.57 17.0946 28.19 16.8259L27.18 16.0995C27.07 16.0199 26.93 16.0199 26.82 16.0995L25.81 16.8259C25.43 17.1045 24.93 16.7264 25.06 16.2587L25.41 15.0349C25.45 14.9055 25.41 14.7563 25.3 14.6766L24.32 13.9005C23.95 13.612 24.14 12.9951 24.61 12.9851L25.84 12.9553C25.97 12.9553 26.09 12.8657 26.13 12.7364L26.54 11.5324C26.69 11.0747 27.31 11.0747 27.47 11.5324H27.46Z" fill="#EF4444"/>
<path d="M33.22 17.2637L33.63 18.4677C33.67 18.597 33.79 18.6866 33.92 18.6866L35.15 18.7164C35.62 18.7264 35.81 19.3433 35.44 19.6319L34.46 20.408C34.35 20.4876 34.31 20.6368 34.35 20.7662L34.7 21.9901C34.83 22.4478 34.33 22.8259 33.95 22.5572L32.94 21.8309C32.83 21.7513 32.69 21.7513 32.58 21.8309L31.57 22.5572C31.19 22.8358 30.69 22.4577 30.82 21.9901L31.17 20.7662C31.21 20.6368 31.17 20.4876 31.06 20.408L30.08 19.6319C29.71 19.3433 29.9 18.7264 30.37 18.7164L31.6 18.6866C31.73 18.6866 31.85 18.597 31.89 18.4677L32.3 17.2637C32.45 16.806 33.07 16.806 33.23 17.2637H33.22Z" fill="#EF4444"/>
<path d="M21.7 17.2637L22.11 18.4677C22.15 18.597 22.27 18.6866 22.4 18.6866L23.63 18.7164C24.1 18.7264 24.29 19.3433 23.92 19.6319L22.94 20.408C22.83 20.4876 22.79 20.6368 22.83 20.7662L23.18 21.9901C23.31 22.4478 22.81 22.8259 22.43 22.5572L21.42 21.8309C21.31 21.7513 21.17 21.7513 21.06 21.8309L20.05 22.5572C19.67 22.8358 19.17 22.4577 19.3 21.9901L19.65 20.7662C19.69 20.6368 19.65 20.4876 19.54 20.408L18.56 19.6319C18.19 19.3433 18.38 18.7264 18.85 18.7164L20.08 18.6866C20.21 18.6866 20.33 18.597 20.37 18.4677L20.78 17.2637C20.93 16.806 21.55 16.806 21.71 17.2637H21.7Z" fill="#EF4444"/>
</g>
<defs>
<clipPath id="clip0_90_257">
<rect width="54" height="36" rx="8" fill="white"/>
</clipPath>
</defs>
</svg>
