<svg width="54" height="36" viewBox="0 0 54 36" fill="none" xmlns="http://www.w3.org/2000/svg">
<rect width="54" height="36" rx="8" fill="#22C55E"/>
<path fill-rule="evenodd" clip-rule="evenodd" d="M30.9502 31.0225L48.6258 20.0821C50.1927 19.1122 50.1911 16.9251 48.6226 15.9576L30.8245 4.97303C28.7182 3.67295 26.0078 3.67605 23.9048 4.97999L6.17236 15.9753C4.60382 16.9483 4.61031 19.1401 6.18533 20.1037L24.0548 31.0395C26.157 32.3264 28.8545 32.3195 30.9502 31.0225Z" fill="#FBBF24"/>
<path fill-rule="evenodd" clip-rule="evenodd" d="M36.9296 18.0075C36.9296 23.222 32.6942 27.4501 27.4648 27.4501C22.2458 27.4419 18.0215 23.2042 18.0296 17.9852C18.0378 12.7662 22.2658 8.54412 27.4908 8.55006C32.709 8.55599 36.9341 12.7899 36.9296 18.0075Z" fill="#3B82F6"/>
<path fill-rule="evenodd" clip-rule="evenodd" d="M36.3066 21.4047C36.4905 20.9277 36.6344 20.4367 36.7368 19.936C31.7077 15.5225 26.1074 13.2602 19.031 13.7275C18.7744 14.2245 18.563 14.7429 18.4005 15.2778C26.7824 14.4767 32.939 18.1854 36.3066 21.4047Z" fill="#F5F5F5"/>
</svg>
