<svg width="54" height="36" viewBox="0 0 54 36" fill="none" xmlns="http://www.w3.org/2000/svg">
<g clip-path="url(#clip0_92_55)">
<rect width="54" height="36" rx="8" fill="#EF4444"/>
<path d="M54 0L0 36V0H54Z" fill="#FBBF24"/>
<path d="M14.897 21.045C15.1859 19.8022 16.4231 18.7297 17.8903 18.8092C18.1758 18.8248 18.4635 18.8081 18.7502 18.812C19.0006 18.8154 19.1303 18.7102 19.1203 18.4469C19.1125 18.2343 19.1142 18.0217 19.1203 17.8091C19.1325 17.3377 19.3791 17.0944 19.8483 17.0928C20.6158 17.0905 21.3833 17.0872 22.1503 17.0955C22.9045 17.1033 23.5429 17.3833 24.0059 17.9855C24.3939 18.4903 24.7478 19.0213 25.1168 19.5406C25.905 20.0994 26.5122 20.8246 27.0487 21.6194C27.5814 22.4075 28.0706 23.2262 28.6567 23.9776C29.1576 24.6193 29.7247 25.1843 30.5374 25.418C31.0177 25.5566 31.493 25.5138 31.9332 25.2783C32.9779 24.7201 33.5835 23.2151 32.4219 21.9895C31.9811 21.5242 31.4251 21.232 30.8713 20.9359C30.0704 20.5079 29.3769 19.9575 28.8186 19.2345C28.5019 18.8243 28.2276 18.3874 27.9465 17.9543C27.642 17.9449 27.3365 17.9465 27.0331 17.9232C25.9395 17.8402 25.118 17.1351 24.8397 16.0737C24.646 15.3351 24.7445 14.5848 24.7261 13.8396C24.7144 13.3687 24.9477 13.1544 25.4291 13.1505C25.7185 13.1483 26.0079 13.1505 26.2979 13.1505C26.028 13.0425 25.7703 12.934 25.5393 12.7648C24.7835 12.2099 24.6477 11.4257 24.7395 10.5675C24.7679 10.3031 24.9588 10.1706 25.2237 10.1634C25.5193 10.1556 25.8148 10.1556 26.1103 10.1522C25.9573 9.93017 25.8398 9.69474 25.7853 9.42536C25.6985 9.00013 25.7079 8.98065 26.1393 8.98009C26.9808 8.97954 27.8224 8.98232 28.6639 8.97564C28.7374 8.97509 28.8888 9.06302 28.8737 8.86377C28.8426 8.44522 28.5776 8.19143 28.1496 8.18475C27.8352 8.17974 27.5201 8.17195 27.2062 8.18753C26.9814 8.19866 26.8267 8.13911 26.702 7.93596C26.5233 7.64542 26.3079 7.37771 26.1131 7.09664C26.063 7.02428 25.9601 6.95304 26.0096 6.85731C26.0558 6.76714 26.1699 6.7844 26.2623 6.7844C26.919 6.7844 27.5758 6.78273 28.232 6.78551C28.8737 6.78829 29.398 7.03542 29.7904 7.54858C30.0364 7.87028 30.2045 8.23539 30.2585 8.63112C30.2991 8.92889 30.4216 9.00792 30.7054 8.98677C31.0455 8.96173 31.39 8.97008 31.7312 8.99178C32.2967 9.02685 32.7965 9.22555 33.0375 9.77433C33.1844 10.1088 33.382 10.2535 33.7366 10.2118C33.8551 10.1979 33.9781 10.199 34.0967 10.2118C34.5453 10.258 34.9282 10.1317 35.2721 9.83388C35.4887 9.64632 35.7491 9.51886 36.043 9.47879C36.1421 9.46543 36.289 9.51775 36.2846 9.33575C36.2807 9.16989 36.289 8.98622 36.0836 8.92499C35.9701 8.89104 35.8476 8.87768 35.7285 8.87546C35.3773 8.86934 35.0228 8.84485 34.6749 8.87935C34.0182 8.94392 33.6013 8.63836 33.323 8.08178C33.2651 7.96657 33.2156 7.8469 33.1616 7.72947C32.7475 6.83783 32.9919 6.86733 31.8275 6.85954C31.3577 6.8562 30.8841 6.91297 30.4177 6.81668C30.1639 6.76436 30.0548 6.57123 30.1205 6.32077C30.1928 6.04359 30.4216 6.01521 30.6453 6.01131C31.1908 6.00185 31.7373 5.99072 32.2822 6.01298C32.9685 6.04081 33.5217 6.28515 33.7466 7.01148C33.8173 7.23968 33.9341 7.4534 34.021 7.67715C34.125 7.94597 34.316 8.05673 34.6009 8.05172C35.0445 8.04338 35.4914 8.01944 35.9322 8.06007C36.7014 8.13076 37.0315 8.48697 37.1077 9.11423C37.2246 10.0799 37.2469 11.0472 37.2213 12.0173C37.209 12.4743 36.9241 12.7743 36.4732 12.8277C36.3363 12.8439 36.1972 12.8544 36.0591 12.855C35.153 12.8572 34.2464 12.8611 33.3403 12.8539C33.0063 12.8511 32.7214 12.944 32.4976 13.1962C32.4208 13.283 32.2956 13.3604 32.3473 13.5001C32.403 13.6498 32.5494 13.6014 32.6624 13.6019C33.7627 13.6047 34.8636 13.6025 35.964 13.6041C36.3052 13.6041 36.4554 13.7956 36.3931 14.139C36.2818 14.7512 35.5616 15.364 34.9254 15.3702C34.0744 15.3779 33.2234 15.3718 32.3729 15.3724C32.0824 15.3724 32.0601 15.4035 32.1236 15.6902C32.2182 16.1176 32.4804 16.4238 32.8048 16.7037C33.4277 17.2414 34.1835 17.5614 34.8647 18.0033C36.6953 19.1905 37.7317 20.8352 37.8246 23.0415C37.8875 24.5359 37.5613 25.9223 36.687 27.154C36.5912 27.2892 36.6419 27.3644 36.712 27.4674C37.0999 28.0417 37.4845 28.6189 37.8719 29.1944C37.9866 29.3647 38.0517 29.5378 37.9482 29.7382C37.8435 29.9413 37.6632 29.9792 37.4573 29.9781C36.9207 29.9753 36.3803 29.9358 35.8493 29.9881C35.2093 30.0515 34.7495 29.869 34.4918 29.2612C34.4167 29.0837 34.3159 29.0898 34.1506 29.1777C32.8549 29.8645 31.4757 30.1283 30.0247 29.8907C28.006 29.5595 26.3981 28.5449 25.177 26.9047C24.3438 25.7854 23.4983 24.6756 22.6546 23.5641C22.3562 23.1711 21.9137 23.0359 21.4741 23.1878C21.0616 23.3303 20.8384 23.6787 20.839 24.1819C20.8401 24.8943 20.8418 25.6062 20.8462 26.3186C20.8473 26.4755 20.8485 26.6342 20.873 26.7883C20.957 27.3143 21.2826 27.6232 21.8091 27.6911C22.1202 27.7312 22.4325 27.7657 22.7425 27.8124C23.7187 27.9599 24.2453 28.4686 24.2876 29.2979C24.3104 29.751 24.1122 29.9742 23.6553 29.9758C22.6935 29.9792 21.7306 29.9959 20.77 29.9597C20.101 29.9341 19.4654 29.7426 18.8821 29.387C18.0901 28.9039 17.5396 28.2143 17.1155 27.4072C16.7292 27.4078 16.3424 27.4161 15.9562 27.4072C15.4714 27.3961 15.1185 27.1679 14.9042 26.7299C14.8781 26.6759 14.8808 26.5974 14.7968 26.5857V21.2571C14.8987 21.2209 14.8803 21.119 14.897 21.0472V21.045Z" fill="#F5F5F5"/>
</g>
<defs>
<clipPath id="clip0_92_55">
<rect width="54" height="36" rx="8" fill="white"/>
</clipPath>
</defs>
</svg>
