<svg width="54" height="36" viewBox="0 0 54 36" fill="none" xmlns="http://www.w3.org/2000/svg">
<g clip-path="url(#clip0_92_242)">
<path d="M0 0H13.5V36H0V0Z" fill="#EF4444"/>
<path d="M13.5 0H27V36H13.5V0Z" fill="#F5F5F5"/>
<path d="M27 0H40.5V36H27V0Z" fill="#F5F5F5"/>
<path d="M40.5 0H54V36H40.5V0Z" fill="#EF4444"/>
<path d="M35.9079 17.8072C35.4662 17.6612 35.1829 17.2217 35.2493 16.761C35.3406 16.1295 35.672 15.3264 35.9093 14.6554C35.986 14.4379 35.7881 14.224 35.5647 14.2831C34.7463 14.4992 33.7957 14.8102 33.4716 14.6722C33.1715 14.5386 32.9817 14.0604 32.7795 13.6297C32.6918 13.4428 32.4407 13.4063 32.3042 13.5618L30.3439 15.779C30.3125 15.8148 30.2731 15.8426 30.2293 15.8586C30.1081 15.9032 29.9993 15.89 29.9183 15.8228C29.8431 15.7601 29.8153 15.6571 29.8328 15.5607L30.7031 10.8546C30.7469 10.6152 30.4936 10.4326 30.2804 10.5509L29.1422 11.1824C29.0553 11.2569 28.9472 11.2576 28.8363 11.1802C28.799 11.154 28.7698 11.1167 28.7494 11.0758L27.3104 8.16062C27.2571 8.05403 27.1556 8 27.0527 8C26.9497 8 26.8483 8.05403 26.795 8.16062L25.356 11.0758C25.3355 11.1167 25.3063 11.154 25.2691 11.1802C25.1581 11.2576 25.0501 11.2569 24.9632 11.1824L23.825 10.5509C23.6118 10.4326 23.3585 10.6152 23.4023 10.8546L24.2725 15.5607C24.29 15.6571 24.2623 15.7601 24.1871 15.8228C24.1061 15.89 23.9973 15.9032 23.8761 15.8586C23.8323 15.8426 23.7929 15.8148 23.7615 15.779L21.8012 13.5618C21.6647 13.4063 21.4135 13.4428 21.3259 13.6297C21.1237 14.0604 20.9338 14.5386 20.6338 14.6722C20.3096 14.8102 19.3591 14.4992 18.5406 14.2831C18.3172 14.224 18.1194 14.4379 18.196 14.6554C18.4333 15.3264 18.7648 16.1295 18.856 16.761C18.9225 17.2217 18.6392 17.6612 18.1975 17.8072C17.9865 17.8773 17.931 18.1496 18.0975 18.2964L22.1451 21.8555C22.1837 21.8891 22.213 21.9329 22.2283 21.9818C22.329 22.3031 22.3436 22.5491 22.3079 22.7543C22.2276 23.2171 22.6006 23.6311 23.0672 23.572C23.6191 23.5026 24.2762 23.4194 24.8763 23.3434C25.8137 23.2252 26.6373 23.9691 26.6146 24.9146L26.5526 27.4983C26.546 27.7772 26.7731 28.005 27.0527 27.9999C27.3323 28.005 27.5594 27.7772 27.5528 27.4983L27.4907 24.9146C27.4681 23.9691 28.2916 23.2252 29.2291 23.3434C29.8292 23.4194 30.4863 23.5026 31.0382 23.572C31.5047 23.6311 31.8778 23.2171 31.7975 22.7543C31.7617 22.5491 31.7763 22.3031 31.8771 21.9818C31.8924 21.9329 31.9216 21.8891 31.9603 21.8555L36.0079 18.2964C36.1743 18.1496 36.1189 17.8773 35.9079 17.8072Z" fill="#EF4444"/>
</g>
<defs>
<clipPath id="clip0_92_242">
<rect width="54" height="36" rx="8" fill="white"/>
</clipPath>
</defs>
</svg>
