<svg width="54" height="36" viewBox="0 0 54 36" fill="none" xmlns="http://www.w3.org/2000/svg">
<g clip-path="url(#clip0_92_282)">
<path d="M54 0H0V36H54V0Z" fill="#3B82F6"/>
<path fill-rule="evenodd" clip-rule="evenodd" d="M54 0.36V4.33L6.5 36H0V31.68L47.52 0H53.76L54 0.36Z" fill="#EF4444"/>
<path fill-rule="evenodd" clip-rule="evenodd" d="M6.5 36H10.4L54 6.93V4.33L6.5 36ZM53.76 0L54 0.36V0H53.76ZM43.62 0L0 29.08V31.68L47.52 0H43.62Z" fill="#FBBF24"/>
<path d="M11.29 4.28992L12.14 6.70992C12.23 6.96992 12.48 7.14992 12.75 7.15992L15.31 7.21992C16.28 7.23992 16.68 8.46992 15.91 9.05992L13.87 10.6199C13.65 10.7899 13.56 11.0799 13.64 11.3399L14.37 13.7999C14.65 14.7299 13.6 15.4899 12.8 14.9399L10.69 13.4799C10.46 13.3199 10.16 13.3199 9.93 13.4799L7.82 14.9399C7.02 15.4899 5.98 14.7299 6.25 13.7999L6.98 11.3399C7.06 11.0699 6.97 10.7899 6.75 10.6199L4.71 9.05992C3.94 8.46992 4.34 7.23992 5.31 7.21992L7.87 7.15992C8.15 7.15992 8.39 6.97992 8.48 6.70992L9.33 4.28992C9.65 3.37992 10.95 3.37992 11.27 4.28992H11.29Z" fill="#FBBF24"/>
</g>
<defs>
<clipPath id="clip0_92_282">
<rect width="54" height="36" rx="8" fill="white"/>
</clipPath>
</defs>
</svg>
