<svg width="54" height="36" viewBox="0 0 54 36" fill="none" xmlns="http://www.w3.org/2000/svg">
<rect width="54" height="36" rx="8" fill="#EF4444"/>
<path d="M35.1709 14.6644H32.1424C31.1396 14.6644 30.3233 13.8514 30.3233 12.8451V9.81939C30.3267 8.81306 29.5137 8 28.5076 8H25.4791C24.4763 8 23.66 8.81306 23.66 9.81939V12.8484C23.66 13.8514 22.8471 14.6678 21.8409 14.6678H18.8191C17.8129 14.6644 17 15.4775 17 16.4838V19.5128C17 20.5158 17.8129 21.3322 18.8191 21.3322H21.8476C22.8504 21.3322 23.6667 22.1453 23.6667 23.1516V26.1806C23.6667 27.1836 24.4796 28 25.4858 28H28.5142C29.5171 28 30.3333 27.1869 30.3333 26.1806V23.1516C30.3333 22.1486 31.1463 21.3322 32.1524 21.3322H35.1809C36.1837 21.3322 37 20.5192 37 19.5128V16.4838C37 15.4808 36.1871 14.6644 35.1809 14.6644H35.1709Z" fill="#F5F5F5"/>
</svg>
