<svg width="54" height="36" viewBox="0 0 54 36" fill="none" xmlns="http://www.w3.org/2000/svg">
<g clip-path="url(#clip0_92_521)">
<path d="M0 0H54V18H0V0Z" fill="#F5F5F5"/>
<path d="M0 18H54V36H0V18Z" fill="#EF4444"/>
<rect width="24" height="18" fill="#1E3A8A"/>
<path d="M12.7567 5.03563L13.4228 6.92538C13.4953 7.13012 13.6854 7.26825 13.9029 7.27413L15.9062 7.32409C16.6635 7.34271 16.975 8.30375 16.3735 8.76321L14.7826 9.98091C14.6102 10.1122 14.5377 10.3365 14.5994 10.5452L15.1715 12.4653C15.388 13.1912 14.57 13.7849 13.9469 13.3548L12.2972 12.2175C12.1189 12.094 11.8828 12.094 11.7045 12.2175L10.0548 13.3548C9.43171 13.7849 8.61468 13.1912 8.83021 12.4653L9.40232 10.5452C9.46404 10.3375 9.39155 10.1132 9.21913 9.98091L7.62621 8.76321C7.02471 8.30277 7.33722 7.34271 8.09351 7.32409L10.0969 7.27413C10.3134 7.26923 10.5044 7.13012 10.5769 6.92538L11.2431 5.03563C11.4949 4.32146 12.5049 4.32146 12.7567 5.03563Z" fill="#F5F5F5"/>
</g>
<defs>
<clipPath id="clip0_92_521">
<rect width="54" height="36" rx="8" fill="white"/>
</clipPath>
</defs>
</svg>
