<svg width="54" height="36" viewBox="0 0 54 36" fill="none" xmlns="http://www.w3.org/2000/svg">
<g clip-path="url(#clip0_92_503)">
<path d="M0 0H18V36H0V0Z" fill="#22C55E"/>
<path d="M18 0H36V36H18V0Z" fill="#EF4444"/>
<path d="M36 0H54V36H36V0Z" fill="#FBBF24"/>
<path d="M28.2622 12.7142L29.1504 15.2338C29.2471 15.5068 29.5005 15.691 29.7905 15.6988L32.4617 15.7655C33.4714 15.7903 33.8867 17.0717 33.0847 17.6843L30.9634 19.3079C30.7335 19.4829 30.6369 19.782 30.7192 20.0603L31.482 22.6204C31.7707 23.5883 30.68 24.3799 29.8492 23.8065L27.6496 22.2899C27.4119 22.1254 27.0971 22.1254 26.8593 22.2899L24.6597 23.8065C23.829 24.3799 22.7396 23.5883 23.0269 22.6204L23.7898 20.0603C23.8721 19.7833 23.7754 19.4842 23.5455 19.3079L21.4216 17.6843C20.6196 17.0704 21.0363 15.7903 22.0447 15.7655L24.7159 15.6988C25.0045 15.6923 25.2592 15.5068 25.3559 15.2338L26.2441 12.7142C26.5798 11.7619 27.9265 11.7619 28.2622 12.7142Z" fill="#FBBF24"/>
</g>
<defs>
<clipPath id="clip0_92_503">
<rect width="54" height="36" rx="8" fill="white"/>
</clipPath>
</defs>
</svg>
