<svg width="54" height="36" viewBox="0 0 54 36" fill="none" xmlns="http://www.w3.org/2000/svg">
<g clip-path="url(#clip0_92_750)">
<path d="M0 0H54V7.2H0V0Z" fill="#1E3A8A"/>
<path d="M0 7.19995H54V14.4H0V7.19995Z" fill="#F5F5F5"/>
<path d="M0 14.3999H54V21.5999H0V14.3999Z" fill="#1E3A8A"/>
<path d="M0 21.6001H54V28.8001H0V21.6001Z" fill="#F5F5F5"/>
<path d="M0 28.8H54V36H0V28.8Z" fill="#1E3A8A"/>
<path d="M27.66 20.63C29.72 19.48 29.72 16.52 27.66 15.37L0 0V36L27.66 20.63Z" fill="#EF4444"/>
<path d="M12.0518 13.5951L12.792 15.6949C12.8726 15.9224 13.0837 16.0758 13.3254 16.0824L15.5514 16.1379C16.3928 16.1586 16.7389 17.2264 16.0706 17.7369L14.3029 19.0899C14.1113 19.2358 14.0307 19.485 14.0993 19.7169L14.735 21.8503C14.9756 22.6569 14.0667 23.3166 13.3744 22.8387L11.5413 21.575C11.3432 21.4378 11.0809 21.4378 10.8828 21.575L9.04975 22.8387C8.35746 23.3166 7.44965 22.6569 7.68912 21.8503L8.32481 19.7169C8.39338 19.4861 8.31283 19.2369 8.12126 19.0899L6.35135 17.7369C5.68301 17.2253 6.03024 16.1586 6.87057 16.1379L9.09656 16.0824C9.33712 16.0769 9.54937 15.9224 9.62992 15.6949L10.3701 13.5951C10.6499 12.8016 11.7721 12.8016 12.0518 13.5951Z" fill="#F5F5F5"/>
</g>
<defs>
<clipPath id="clip0_92_750">
<rect width="54" height="36" rx="8" fill="white"/>
</clipPath>
</defs>
</svg>
