<svg width="54" height="36" viewBox="0 0 54 36" fill="none" xmlns="http://www.w3.org/2000/svg">
<rect width="54" height="36" rx="8" fill="#F5F5F5"/>
<mask id="mask0_92_825" style="mask-type:luminance" maskUnits="userSpaceOnUse" x="17" y="7" width="27" height="21">
<path d="M43.2 7.19995H17.28V27.33H43.2V7.19995Z" fill="white"/>
</mask>
<g mask="url(#mask0_92_825)">
<path d="M20.17 14.4199L18.98 15.4099C18.78 15.5699 18.51 15.6299 18.27 15.5499C17.68 15.3599 17.12 15.9299 17.33 16.5199L18.38 19.4499C18.46 19.6599 18.62 19.8299 18.83 19.8999L24.36 21.9199C25.11 22.1899 25.93 22.1499 26.65 21.8099L32.82 18.8599C33.26 18.6499 33.59 18.2699 33.74 17.7999C33.92 17.2399 34.43 16.8599 35.02 16.8499L37.72 16.8199C38.44 16.8199 38.89 16.0299 38.54 15.3999L37.39 13.3499C37.2 13.0199 37.3 12.5899 37.61 12.3699L42.9 8.57994C43.64 8.04994 42.98 6.90995 42.15 7.28995L34.07 10.9899C33.97 11.0399 33.85 11.0599 33.74 11.0599L26.67 10.8799C25.65 10.8499 24.76 11.5499 24.54 12.5499L24.35 13.4299C24.27 13.8099 23.92 14.0599 23.54 14.0199L22.1 13.8699C21.42 13.7999 20.73 13.9999 20.2 14.4399L20.17 14.4199Z" fill="#FB923C"/>
<path d="M25.36 27.33C22.75 27.33 20.31 26.05 18.81 23.91C18.58 23.58 18.66 23.13 18.99 22.9C19.32 22.67 19.77 22.75 20 23.08C21.22 24.83 23.22 25.87 25.35 25.87C25.75 25.87 26.08 26.2 26.08 26.6C26.08 27 25.75 27.33 25.35 27.33H25.36Z" fill="#22C55E"/>
<path d="M27.84 27.33C27.44 27.33 27.11 27 27.11 26.6C27.11 26.2 27.44 25.87 27.84 25.87C29.97 25.87 31.97 24.83 33.19 23.08C33.42 22.75 33.87 22.67 34.2 22.9C34.53 23.13 34.61 23.58 34.38 23.91C32.89 26.05 30.44 27.33 27.83 27.33H27.84Z" fill="#22C55E"/>
</g>
</svg>
