<svg width="54" height="36" viewBox="0 0 54 36" fill="none" xmlns="http://www.w3.org/2000/svg">
<g clip-path="url(#clip0_92_1061)">
<path d="M0 0H27V36H0V0Z" fill="#22C55E"/>
<path d="M27 0H54V36H27V0Z" fill="#F5F5F5"/>
<path d="M33.5498 14.6304L33.5423 16.4708C33.5418 16.6703 33.6653 16.85 33.8544 16.9245L35.5978 17.6078C36.2568 17.8658 36.2291 18.7931 35.5569 18.9966L33.7784 19.5369C33.5858 19.5949 33.4518 19.7649 33.4406 19.9643L33.3411 21.8009C33.3036 22.4953 32.3993 22.7451 31.987 22.1756L30.8951 20.6689C30.7772 20.5056 30.5699 20.4301 30.3747 20.4795L28.5697 20.9318C27.8878 21.1031 27.3566 20.3307 27.7734 19.7744L28.8776 18.3035C28.9969 18.1444 29.0035 17.928 28.8936 17.759L27.8767 16.2012C27.4929 15.6124 28.0683 14.8854 28.7381 15.1111L30.5128 15.7083C30.7044 15.7733 30.9158 15.7145 31.0436 15.5613L32.2209 14.1467C32.6658 13.612 33.5526 13.9348 33.5498 14.6304Z" fill="#EF4444"/>
<path d="M30.5014 25.5087C30.5014 25.5087 30.5121 25.5087 30.5164 25.5087C30.8743 25.5087 30.9879 25.9928 30.6643 26.1469C29.5175 26.6939 28.2378 27 26.8873 27C21.9828 27 17.9765 22.9233 18.0001 17.9544C18.0237 12.9855 21.9936 9 26.8873 9C28.2399 9 29.5217 9.30608 30.6686 9.85311C30.9901 10.0072 30.8743 10.4913 30.5185 10.4913C30.5121 10.4913 30.5078 10.4913 30.5014 10.4913C26.4072 10.4913 23.0868 13.8517 23.0868 18C23.0868 22.1483 26.4072 25.5087 30.5014 25.5087Z" fill="#EF4444"/>
</g>
<defs>
<clipPath id="clip0_92_1061">
<rect width="54" height="36" rx="8" fill="white"/>
</clipPath>
</defs>
</svg>
