<svg width="54" height="36" viewBox="0 0 54 36" fill="none" xmlns="http://www.w3.org/2000/svg">
<g clip-path="url(#clip0_92_1113)">
<path d="M0 0H54V18H0V0Z" fill="#FBBF24"/>
<path d="M0 18H54V27H0V18Z" fill="#3B82F6"/>
<path d="M0 27H54V36H0V27Z" fill="#EF4444"/>
<path d="M27.01 10.3C23.95 10.3 21.47 13.72 21.47 17.94H32.55C32.55 13.72 30.07 10.3 27.01 10.3Z" fill="#93C5FD"/>
<path d="M27.01 25.5799C30.07 25.5799 32.55 22.1599 32.55 17.9399H21.47C21.47 22.1599 23.95 25.5799 27.01 25.5799Z" fill="#22C55E"/>
<path d="M27.01 26.64C23.37 26.64 20.41 22.74 20.41 17.94C20.41 13.14 23.37 9.23999 27.01 9.23999C30.65 9.23999 33.61 13.14 33.61 17.94C33.61 22.74 30.65 26.64 27.01 26.64ZM27.01 11.36C24.58 11.36 22.53 14.37 22.53 17.94C22.53 21.51 24.58 24.52 27.01 24.52C29.44 24.52 31.49 21.51 31.49 17.94C31.49 14.37 29.44 11.36 27.01 11.36Z" fill="#EF4444"/>
<path d="M27.01 11.36C26.43 11.36 25.95 10.89 25.95 10.3C25.95 7.35004 29.43 5.04004 33.88 5.04004C34.46 5.04004 34.94 5.51004 34.94 6.10004C34.94 6.69004 34.47 7.16004 33.88 7.16004C31.13 7.16004 28.06 8.45004 28.06 10.31C28.06 10.89 27.59 11.37 27 11.37L27.01 11.36Z" fill="#A16207"/>
<path d="M27.01 11.36C26.43 11.36 25.95 10.89 25.95 10.3C25.95 8.45003 22.88 7.15003 20.13 7.15003C19.55 7.15003 19.07 6.68003 19.07 6.09003C19.07 5.50003 19.54 5.03003 20.13 5.03003C24.58 5.03003 28.06 7.34003 28.06 10.29C28.06 10.87 27.59 11.35 27 11.35L27.01 11.36Z" fill="#A16207"/>
<path d="M18.64 23.6799C18.18 23.6799 17.76 23.3799 17.63 22.9199C17.16 21.3299 16.93 19.6599 16.93 17.9399C16.93 16.2199 17.17 14.5499 17.63 12.9599C17.79 12.3999 18.38 12.0799 18.94 12.2399C19.5 12.3999 19.82 12.9899 19.66 13.5499C19.25 14.9399 19.04 16.4199 19.04 17.9299C19.04 19.4399 19.25 20.9199 19.66 22.3099C19.82 22.8699 19.5 23.4599 18.94 23.6199C18.84 23.6499 18.74 23.6599 18.64 23.6599V23.6799Z" fill="#FBBF24"/>
<path d="M35.39 23.68C35.29 23.68 35.19 23.67 35.09 23.64C34.53 23.47 34.21 22.89 34.38 22.33C34.79 20.95 35 19.48 35 17.95C35 16.42 34.79 14.95 34.38 13.57C34.21 13.01 34.53 12.42 35.09 12.26C35.65 12.09 36.24 12.41 36.4 12.97C36.87 14.55 37.11 16.22 37.11 17.95C37.11 19.68 36.87 21.36 36.4 22.93C36.26 23.39 35.84 23.69 35.39 23.69V23.68Z" fill="#FBBF24"/>
</g>
<defs>
<clipPath id="clip0_92_1113">
<rect width="54" height="36" rx="8" fill="white"/>
</clipPath>
</defs>
</svg>
