<svg width="54" height="36" viewBox="0 0 54 36" fill="none" xmlns="http://www.w3.org/2000/svg">
<g clip-path="url(#clip0_92_1193)">
<path d="M0 0H54V12H0V0Z" fill="#EF4444"/>
<path d="M0 12H54V24H0V12Z" fill="#F5F5F5"/>
<path d="M0 24H54V36H0V24Z" fill="#262626"/>
<path d="M29.9606 14.5215C29.2055 14.7456 28.4339 14.8925 27.6575 14.9655V12H26.5305C25.9814 12 25.5242 12.3932 25.4241 12.9135C24.8815 13.0096 24.4695 13.4824 24.4695 14.052H25.4036V14.9655C24.6271 14.8925 23.8555 14.7456 23.1004 14.5215C22.0523 14.2104 21 14.9951 21 16.0884V21.412C21 22.0367 21.6952 22.4101 22.2164 22.0654L24.1445 20.2531L23.2449 21.8109C22.9814 22.2681 22.9814 22.8131 23.2449 23.2703C23.5083 23.7275 23.9811 24 24.5089 24H28.5521C29.0799 24 29.5518 23.7275 29.8161 23.2703C30.0796 22.8131 30.0796 22.2681 29.8161 21.8109L28.9166 20.2531L30.8446 22.0654C31.365 22.4109 32.061 22.0375 32.061 21.412V16.0884C32.061 14.9951 31.0088 14.2096 29.9606 14.5207V14.5215ZM28.8205 22.6949C28.7934 22.7417 28.7138 22.8501 28.5521 22.8501H24.5089C24.3472 22.8501 24.2668 22.7417 24.2405 22.6949C24.2134 22.6482 24.1601 22.525 24.2405 22.3847L25.9477 19.4274C26.1234 19.1237 26.414 19.0908 26.5305 19.0908C26.6471 19.0908 26.9376 19.1237 27.1133 19.4274L28.8205 22.3847C28.901 22.5242 28.8476 22.6482 28.8205 22.6949Z" fill="#FBBF24"/>
</g>
<defs>
<clipPath id="clip0_92_1193">
<rect width="54" height="36" rx="8" fill="white"/>
</clipPath>
</defs>
</svg>
