<svg width="54" height="36" viewBox="0 0 54 36" fill="none" xmlns="http://www.w3.org/2000/svg">
<g clip-path="url(#clip0_92_1211)">
<path d="M0 0H54V12H0V0Z" fill="#262626"/>
<path d="M0 12H54V24H0V12Z" fill="#F5F5F5"/>
<path d="M0 24H54V36H0V24Z" fill="#22C55E"/>
<path d="M27.66 20.63C29.72 19.48 29.72 16.52 27.66 15.37L0 0V36L27.66 20.63Z" fill="#EF4444"/>
<path d="M42.989 15.6874L43.3852 16.7898C43.4283 16.9092 43.5413 16.9898 43.6707 16.9932L44.862 17.0224C45.3124 17.0332 45.4976 17.5939 45.1399 17.8619L44.1938 18.5722C44.0913 18.6488 44.0482 18.7796 44.0849 18.9014L44.4251 20.0214C44.5539 20.4449 44.0674 20.7912 43.6969 20.5403L42.7158 19.8769C42.6098 19.8048 42.4694 19.8048 42.3633 19.8769L41.3823 20.5403C41.0117 20.7912 40.5259 20.4449 40.654 20.0214L40.9943 18.9014C41.031 18.7802 40.9879 18.6493 40.8853 18.5722L39.938 17.8619C39.5803 17.5933 39.7662 17.0332 40.2159 17.0224L41.4073 16.9932C41.5361 16.9904 41.6497 16.9092 41.6928 16.7898L42.0889 15.6874C42.2387 15.2709 42.8393 15.2709 42.989 15.6874Z" fill="#EF4444"/>
<path d="M42.2507 21.7543C42.2507 21.7543 42.256 21.7543 42.2582 21.7543C42.4372 21.7543 42.494 21.9964 42.3321 22.0734C41.7587 22.347 41.1189 22.5 40.4437 22.5C37.9914 22.5 35.9883 20.4616 36.0001 17.9772C36.0118 15.4928 37.9968 13.5 40.4437 13.5C41.12 13.5 41.7609 13.653 42.3343 13.9266C42.495 14.0036 42.4372 14.2457 42.2593 14.2457C42.256 14.2457 42.2539 14.2457 42.2507 14.2457C40.2036 14.2457 38.5434 15.9258 38.5434 18C38.5434 20.0742 40.2036 21.7543 42.2507 21.7543Z" fill="#EF4444"/>
</g>
<defs>
<clipPath id="clip0_92_1211">
<rect width="54" height="36" rx="8" fill="white"/>
</clipPath>
</defs>
</svg>
