<svg width="54" height="36" viewBox="0 0 54 36" fill="none" xmlns="http://www.w3.org/2000/svg">
<g clip-path="url(#clip0_92_1241)">
<path d="M0 7.2C0 3.22 3.22 0 7.2 0H46.8C50.78 0 54 3.22 54 7.2V28.8C54 32.78 50.78 36 46.8 36H7.2C3.22 36 0 32.78 0 28.8V7.2Z" fill="#22C55E"/>
<path d="M54 0H0V18H54V0Z" fill="#22C55E"/>
<path d="M54 18H0V36H54V18Z" fill="#93C5FD"/>
<path d="M52.9 19.47C54.28 19.04 54.28 16.96 52.9 16.53L0 0V36L52.9 19.47Z" fill="#EF4444"/>
<path d="M15.8 8.28978C10.19 8.10978 5.58 12.7098 5.76 18.3298C5.93 23.4198 10.06 27.5598 15.15 27.7198C20.76 27.8998 25.37 23.2998 25.19 17.6798C25.02 12.5898 20.89 8.44978 15.8 8.28978ZM8.4 17.9998C8.4 14.8198 10.51 12.1298 13.4 11.2398C13.78 11.1198 14.16 11.4098 14.16 11.7998V24.1898C14.16 24.5798 13.78 24.8698 13.4 24.7498C10.51 23.8598 8.4 21.1698 8.4 17.9898V17.9998ZM16.8 24.1998V11.7998C16.8 11.4098 17.18 11.1198 17.56 11.2398C20.45 12.1298 22.56 14.8198 22.56 17.9998C22.56 21.1798 20.45 23.8698 17.56 24.7598C17.18 24.8798 16.8 24.5898 16.8 24.1998Z" fill="#FBBF24"/>
</g>
<defs>
<clipPath id="clip0_92_1241">
<rect width="54" height="36" rx="8" fill="white"/>
</clipPath>
</defs>
</svg>
