<svg width="54" height="36" viewBox="0 0 54 36" fill="none" xmlns="http://www.w3.org/2000/svg">
<g clip-path="url(#clip0_92_1366)">
<rect width="54" height="36" rx="8" fill="#F5F5F5"/>
<path fill-rule="evenodd" clip-rule="evenodd" d="M0 0.36V4.33L47.5 36H54V31.68L6.48 0H0.240002L0 0.36Z" fill="#93C5FD"/>
<path d="M30.721 9.86192C30.6789 9.81276 30.6327 9.76308 30.5836 9.71391C30.0512 9.18057 29.3413 8.88656 28.5867 8.88656C28.3152 8.88656 28.0478 8.92569 27.7894 9.00196C27.6775 8.96834 27.5626 8.94225 27.4462 8.92419V8.45758C27.4462 8.33164 27.3951 8.21725 27.3118 8.13396C27.229 8.05118 27.1151 8 26.9881 8C26.7353 8 26.5301 8.20521 26.5301 8.45758V8.92469C26.4152 8.94376 26.3013 8.96985 26.1904 9.00246C25.931 8.92569 25.6626 8.88656 25.3896 8.88656C24.5703 8.88656 23.7931 9.24178 23.2573 9.85992C22.8112 10.3727 22.5654 11.0305 22.5654 11.7108C22.5654 11.9642 22.7701 12.1689 23.0235 12.1689H23.9702C24.0129 12.1659 24.0555 12.1639 24.0992 12.1639H29.8771C29.9208 12.1639 29.9634 12.1659 30.0061 12.1689H30.9528C31.2062 12.1689 31.4109 11.9642 31.4109 11.7113C31.4109 11.03 31.1651 10.3727 30.721 9.86192ZM24.202 11.2532H23.5372C23.6085 10.9622 23.7495 10.6898 23.9487 10.4595C24.186 10.1855 24.494 9.98886 24.8342 9.88551C24.5016 10.2774 24.2843 10.751 24.202 11.2532ZM26.5301 11.2532H25.1358C25.207 10.9622 25.348 10.6898 25.5472 10.4595C25.8076 10.1595 26.1518 9.95173 26.5301 9.85791V11.2532ZM27.4462 11.2532V9.85741C27.7809 9.93919 28.0874 10.1113 28.3373 10.3616C28.3699 10.3943 28.401 10.4269 28.4296 10.4605C28.6293 10.6898 28.7693 10.9622 28.8405 11.2532H27.4462ZM29.7743 11.2532C29.692 10.749 29.4737 10.2743 29.1406 9.8835C29.4376 9.97331 29.7105 10.1354 29.9358 10.3616C29.9689 10.3943 29.9995 10.4269 30.0281 10.4605C30.2278 10.6898 30.3678 10.9622 30.4391 11.2532H29.7743Z" fill="#FBBF24"/>
<path d="M30.4391 11.2535H29.7743C29.692 10.7493 29.4737 10.2746 29.1406 9.88379C29.4376 9.9736 29.7106 10.1357 29.9358 10.3619C29.969 10.3946 29.9996 10.4272 30.0282 10.4608C30.2278 10.6901 30.3678 10.9625 30.4391 11.2535Z" fill="#EF4444"/>
<path d="M28.8406 11.2532H27.4463V9.85742C27.7809 9.9392 28.0875 10.1113 28.3373 10.3617C28.3699 10.3943 28.4011 10.4269 28.4297 10.4605C28.6293 10.6898 28.7693 10.9622 28.8406 11.2532Z" fill="#EF4444"/>
<path d="M26.5301 9.85791V11.2532H25.1358C25.207 10.9622 25.348 10.6898 25.5472 10.4595C25.8076 10.1595 26.1518 9.95173 26.5301 9.85791Z" fill="#EF4444"/>
<path d="M24.8342 9.88574C24.5016 10.2776 24.2843 10.7512 24.202 11.2535H23.5372C23.6085 10.9625 23.7495 10.69 23.9487 10.4597C24.186 10.1858 24.494 9.9891 24.8342 9.88574Z" fill="#EF4444"/>
<path d="M32.9763 14.21V22.0119C32.9763 25.0218 30.7542 27.5144 27.8612 27.9364C27.5767 27.9785 27.2852 28.0001 26.9882 28.0001C26.6911 28.0001 26.4001 27.9785 26.1152 27.9364C23.2222 27.5139 21 25.0218 21 22.0119V14.21C21 13.5858 21.5062 13.0796 22.1304 13.0796H31.8459C32.4701 13.0796 32.9763 13.5858 32.9763 14.21Z" fill="#3B82F6"/>
<path d="M26.9882 20.8449C27.7998 20.8449 28.4577 20.187 28.4577 19.3753C28.4577 18.5637 27.7998 17.9058 26.9882 17.9058C26.1765 17.9058 25.5186 18.5637 25.5186 19.3753C25.5186 20.187 26.1765 20.8449 26.9882 20.8449Z" fill="#D4D4D4"/>
<path d="M29.4321 21.9842C29.4321 22.6881 29.0402 23.2997 28.4628 23.6128C28.0945 23.8125 27.8612 24.1928 27.8612 24.6117V27.9362C27.5767 27.9784 27.2852 27.9999 26.9882 27.9999C26.6911 27.9999 26.4001 27.9784 26.1152 27.9362V24.6117C26.1152 24.1933 25.8818 23.813 25.5136 23.6133C25.3164 23.5064 25.1413 23.3649 24.9953 23.1969C24.7138 22.8722 24.5437 22.4483 24.5437 21.9842C24.5437 21.7569 24.7284 21.5728 24.9552 21.5728H29.0202C29.1341 21.5728 29.2369 21.6189 29.3117 21.6932C29.3859 21.7679 29.4321 21.8703 29.4321 21.9847V21.9842Z" fill="#FBBF24"/>
</g>
<defs>
<clipPath id="clip0_92_1366">
<rect width="54" height="36" rx="8" fill="white"/>
</clipPath>
</defs>
</svg>
