<svg width="54" height="36" viewBox="0 0 54 36" fill="none" xmlns="http://www.w3.org/2000/svg">
<g clip-path="url(#clip0_93_1742)">
<path d="M0 0H54V12H0V0Z" fill="#22C55E"/>
<path d="M0 12H54V24H0V12Z" fill="#FBBF24"/>
<path d="M0 24H54V36H0V24Z" fill="#EF4444"/>
<path d="M35 18C35 22.4183 31.4183 26 27 26C22.5817 26 19 22.4183 19 18C19 13.5817 22.5817 10 27 10C31.4183 10 35 13.5817 35 18Z" fill="#3B82F6"/>
<path d="M27.8014 14.6439L28.3654 16.2437C28.4267 16.417 28.5876 16.5339 28.7717 16.5389L30.4677 16.5812C31.1088 16.597 31.3725 17.4105 30.8633 17.7995L29.5165 18.8304C29.3705 18.9415 29.3091 19.1314 29.3614 19.3081L29.8457 20.9336C30.029 21.5481 29.3365 22.0507 28.809 21.6866L27.4124 20.7237C27.2615 20.6192 27.0616 20.6192 26.9107 20.7237L25.5141 21.6866C24.9866 22.0507 24.295 21.5481 24.4774 20.9336L24.9618 19.3081C25.014 19.1322 24.9526 18.9423 24.8067 18.8304L23.4582 17.7995C22.949 17.4097 23.2135 16.597 23.8538 16.5812L25.5498 16.5389C25.733 16.5348 25.8948 16.417 25.9561 16.2437L26.5201 14.6439C26.7332 14.0393 27.5883 14.0393 27.8014 14.6439Z" fill="#FBBF24"/>
</g>
<defs>
<clipPath id="clip0_93_1742">
<rect width="54" height="36" rx="8" fill="white"/>
</clipPath>
</defs>
</svg>
