<svg width="54" height="36" viewBox="0 0 54 36" fill="none" xmlns="http://www.w3.org/2000/svg">
<rect width="54" height="36" rx="8" fill="#1E3A8A"/>
<path d="M28.926 27.0959L27.9842 27.0724C27.8815 27.0695 27.7926 27.0049 27.7583 26.9081L27.4454 26.0192C27.327 25.6837 26.8518 25.6837 26.7334 26.0192L26.4205 26.9081C26.3863 27.004 26.2963 27.0695 26.1946 27.0724L25.2528 27.0959C24.8968 27.1047 24.7501 27.5565 25.0328 27.7726L25.7819 28.3457C25.863 28.4083 25.8973 28.5129 25.8679 28.6107L25.599 29.5134C25.4973 29.8547 25.8816 30.1334 26.175 29.932L26.9505 29.397C27.0346 29.3393 27.1451 29.3393 27.2293 29.397L28.0048 29.932C28.2982 30.1344 28.6825 29.8547 28.5808 29.5134L28.3118 28.6107C28.2825 28.5129 28.3167 28.4073 28.3979 28.3457L29.146 27.7726C29.4287 27.5565 29.282 27.1047 28.926 27.0959Z" fill="#FBBF24"/>
<path d="M21.9366 24.2014L20.9948 24.1779C20.8921 24.1749 20.8031 24.1104 20.7689 24.0136L20.456 23.1246C20.3376 22.7892 19.8624 22.7892 19.744 23.1246L19.4311 24.0136C19.3968 24.1094 19.3069 24.1749 19.2052 24.1779L18.2634 24.2014C17.9074 24.2102 17.7607 24.662 18.0434 24.8781L18.7925 25.4512C18.8736 25.5138 18.9079 25.6184 18.8785 25.7162L18.6096 26.6189C18.5079 26.9602 18.8922 27.2389 19.1856 27.0374L19.9611 26.5025C20.0452 26.4448 20.1557 26.4448 20.2398 26.5025L21.0154 27.0374C21.3087 27.2399 21.6931 26.9602 21.5914 26.6189L21.3224 25.7162C21.2931 25.6184 21.3273 25.5128 21.4085 25.4512L22.1566 24.8781C22.4393 24.662 22.2926 24.2102 21.9366 24.2014Z" fill="#FBBF24"/>
<path d="M18.6966 19.6296L18.4277 18.7269C18.3983 18.6292 18.4326 18.5235 18.5137 18.4619L19.2619 17.8888C19.5445 17.6727 19.3978 17.2209 19.0418 17.2121L18.1001 17.1886C17.9974 17.1857 17.9084 17.1211 17.8742 17.0243L17.5612 16.1354C17.4429 15.7999 16.9676 15.7999 16.8493 16.1354L16.5363 17.0243C16.5021 17.1202 16.4121 17.1857 16.3104 17.1886L15.3686 17.2121C15.0127 17.2209 14.866 17.6727 15.1486 17.8888L15.8977 18.4619C15.9789 18.5245 16.0131 18.6292 15.9838 18.7269L15.7148 19.6296C15.6131 19.9709 15.9975 20.2496 16.2908 20.0482L17.0664 19.5132C17.1505 19.4555 17.261 19.4555 17.3451 19.5132L18.1206 20.0482C18.414 20.2506 18.7983 19.9709 18.6966 19.6296Z" fill="#FBBF24"/>
<path d="M21.9366 10.2238L20.9948 10.2003C20.8921 10.1974 20.8031 10.1329 20.7689 10.036L20.456 9.14709C20.3376 8.81165 19.8624 8.81165 19.744 9.14709L19.4311 10.036C19.3968 10.1319 19.3069 10.1974 19.2052 10.2003L18.2634 10.2238C17.9074 10.2326 17.7607 10.6844 18.0434 10.9006L18.7925 11.4736C18.8736 11.5362 18.9079 11.6409 18.8785 11.7387L18.6096 12.6413C18.5079 12.9826 18.8922 13.2613 19.1856 13.0599L19.9611 12.5249C20.0452 12.4672 20.1557 12.4672 20.2398 12.5249L21.0154 13.0599C21.3087 13.2623 21.6931 12.9826 21.5914 12.6413L21.3224 11.7387C21.2931 11.6409 21.3273 11.5353 21.4085 11.4736L22.1566 10.9006C22.4393 10.6844 22.2926 10.2326 21.9366 10.2238Z" fill="#FBBF24"/>
<path d="M28.926 7.32831L27.9842 7.30484C27.8815 7.3019 27.7926 7.23736 27.7583 7.14054L27.4454 6.25158C27.327 5.91614 26.8518 5.91614 26.7334 6.25158L26.4205 7.14054C26.3863 7.23638 26.2963 7.3019 26.1946 7.30484L25.2528 7.32831C24.8968 7.33711 24.7501 7.78892 25.0328 8.00505L25.7819 8.57813C25.863 8.64072 25.8973 8.74536 25.8679 8.84316L25.599 9.74581C25.4973 10.0871 25.8816 10.3658 26.175 10.1644L26.9505 9.62943C27.0346 9.57174 27.1451 9.57174 27.2293 9.62943L28.0048 10.1644C28.2982 10.3668 28.6825 10.0871 28.5808 9.74581L28.3118 8.84316C28.2825 8.74536 28.3167 8.63974 28.3979 8.57813L29.146 8.00505C29.4287 7.78892 29.282 7.33711 28.926 7.32831Z" fill="#FBBF24"/>
<path d="M32.0213 10.9006L32.7704 11.4736C32.8516 11.5362 32.8858 11.6409 32.8565 11.7387L32.5876 12.6413C32.4858 12.9826 32.8702 13.2613 33.1636 13.0599L33.9391 12.5249C34.0232 12.4672 34.1337 12.4672 34.2178 12.5249L34.9933 13.0599C35.2867 13.2623 35.671 12.9826 35.5693 12.6413L35.3004 11.7387C35.2711 11.6409 35.3053 11.5353 35.3865 11.4736L36.1346 10.9006C36.4172 10.6844 36.2705 10.2326 35.9146 10.2238L34.9728 10.2003C34.8701 10.1974 34.7811 10.1329 34.7469 10.036L34.4339 9.14709C34.3156 8.81165 33.8403 8.81165 33.722 9.14709L33.409 10.036C33.3748 10.1319 33.2848 10.1974 33.1831 10.2003L32.2414 10.2238C31.8854 10.2326 31.7387 10.6844 32.0213 10.9006Z" fill="#FBBF24"/>
<path d="M38.8092 17.2116L37.8675 17.1881C37.7648 17.1852 37.6758 17.1207 37.6416 17.0238L37.3286 16.1349C37.2103 15.7994 36.735 15.7994 36.6167 16.1349L36.3037 17.0238C36.2695 17.1197 36.1795 17.1852 36.0778 17.1881L35.136 17.2116C34.7801 17.2204 34.6334 17.6722 34.916 17.8884L35.6651 18.4614C35.7463 18.524 35.7805 18.6287 35.7512 18.7265L35.4822 19.6291C35.3805 19.9704 35.7649 20.2491 36.0582 20.0477L36.8338 19.5127C36.9179 19.455 37.0284 19.455 37.1125 19.5127L37.888 20.0477C38.1814 20.2501 38.5657 19.9704 38.464 19.6291L38.1951 18.7265C38.1657 18.6287 38.2 18.523 38.2811 18.4614L39.0293 17.8884C39.3119 17.6722 39.1652 17.2204 38.8092 17.2116Z" fill="#FBBF24"/>
<path d="M35.9145 24.2014L34.9727 24.1779C34.871 24.1759 34.781 24.1104 34.7468 24.0136L34.4339 23.1246C34.3155 22.7892 33.8403 22.7892 33.7219 23.1246L33.409 24.0136C33.3747 24.1094 33.2858 24.1749 33.1831 24.1779L32.2413 24.2014C31.8853 24.2102 31.7386 24.662 32.0213 24.8781L32.7694 25.4512C32.8506 25.5128 32.8848 25.6184 32.8555 25.7162L32.5865 26.6189C32.4848 26.9602 32.8691 27.2389 33.1625 27.0374L33.938 26.5025C34.0222 26.4448 34.1327 26.4448 34.2168 26.5025L34.9923 27.0374C35.2857 27.2399 35.669 26.9602 35.5683 26.6189L35.2994 25.7162C35.27 25.6184 35.3043 25.5128 35.3854 25.4512L36.1345 24.8781C36.4172 24.662 36.2705 24.2102 35.9145 24.2014Z" fill="#FBBF24"/>
</svg>
