<svg width="54" height="36" viewBox="0 0 54 36" fill="none" xmlns="http://www.w3.org/2000/svg">
<rect width="54" height="36" rx="8" fill="#93C5FD"/>
<path d="M28.8 0V15.8C28.8 16.18 28.75 16.55 28.64 16.9C28.59 17.08 28.53 17.26 28.45 17.43C28.38 17.6 28.29 17.76 28.2 17.91C27.73 18.67 27.01 19.26 26.15 19.56C25.94 19.64 25.71 19.7 25.47 19.74C25.25 19.78 25.03 19.8 24.8 19.8H0V0H28.8Z" fill="#1E3A8A"/>
<path fill-rule="evenodd" clip-rule="evenodd" d="M28.8 0V2.13L22.52 6.48L20.95 7.56L18.04 9.57L17.57 9.9L17.09 10.23L14.88 11.76L14.41 12.09L13.93 12.42L11.88 13.83L10.8 14.58L3.25 19.8H0V17.67L5.77 13.68L7.34 12.6L10.77 10.23L11.24 9.9L11.71 9.57L13.93 8.04L14.41 7.71L14.88 7.38L16.92 5.97L18 5.23L25.56 0H28.8Z" fill="#EF4444"/>
<path fill-rule="evenodd" clip-rule="evenodd" d="M24.61 0L18 4.57L16.92 5.32L14.41 7.06L13.93 7.38L13.45 7.71L11.24 9.24L10.77 9.57L10.29 9.9L6.39 12.6L4.82 13.68L0 17.01V18.33L6.72 13.68L8.28 12.6L11.24 10.56L11.71 10.23L12.19 9.9L14.4 8.37L14.88 8.04L15.35 7.71L16.92 6.63L18 5.88L26.5 0H24.61ZM21.56 6.48L20 7.56L17.57 9.24L17.09 9.57L16.62 9.9L14.4 11.43L13.93 11.76L13.45 12.09L11.88 13.18L10.8 13.92L2.3 19.8H4.2L10.8 15.24L11.88 14.49L14.41 12.74L14.88 12.42L15.35 12.09L17.57 10.56L18.04 10.23L18.52 9.9L21.9 7.56L23.47 6.48L28.8 2.79V1.48L21.56 6.48ZM14.88 8.04L15.35 7.71L16.92 6.63V5.97L14.88 7.38L14.41 7.71L13.93 8.04L14.4 8.37L14.88 8.04Z" fill="#F5F5F5"/>
<path fill-rule="evenodd" clip-rule="evenodd" d="M28.45 17.43C28.38 17.6 28.29 17.76 28.2 17.91C27.73 18.67 27.01 19.26 26.15 19.56C25.94 19.64 25.71 19.7 25.47 19.74L18 14.57L16.92 13.83L14.88 12.42L14.41 12.09L13.93 11.76L11.71 10.23L11.24 9.9L10.77 9.57L7.86 7.56L6.29 6.48L0 2.13V0H3.25L10.8 5.22L11.88 5.97L13.93 7.38L14.41 7.71L14.88 8.04L17.09 9.57L17.57 9.9L18.04 10.23L21.47 12.6L23.04 13.68L28.45 17.43Z" fill="#EF4444"/>
<path fill-rule="evenodd" clip-rule="evenodd" d="M23.99 13.68L22.42 12.6L18.52 9.9L18.04 9.57L17.57 9.24L15.35 7.71L14.88 7.38L14.41 7.06L11.88 5.31L10.8 4.56L4.2 0H2.3L10.8 5.88L11.88 6.62L13.45 7.71L13.93 8.04L14.4 8.37L16.62 9.9L17.09 10.23L17.57 10.56L20.52 12.6L22.08 13.68L28.2 17.91C28.29 17.76 28.38 17.6 28.45 17.43C28.53 17.26 28.59 17.08 28.64 16.9L23.99 13.68ZM18 13.92L16.92 13.17L15.35 12.09L14.88 11.76L14.4 11.43L12.19 9.9L11.71 9.57L11.24 9.24L8.81 7.56L7.24 6.48L0 1.47V2.79L5.34 6.48L6.91 7.56L10.29 9.9L10.77 10.23L11.24 10.56L13.45 12.09L13.93 12.42L14.41 12.74L16.92 14.48L18 15.23L24.61 19.8H24.8C25.03 19.8 25.25 19.78 25.47 19.74C25.71 19.7 25.94 19.64 26.15 19.56L18 13.92Z" fill="#F5F5F5"/>
<path fill-rule="evenodd" clip-rule="evenodd" d="M28.8 7.56V12.6H16.92V19.8H11.88V12.6H0V7.56H11.88V0H16.92V7.56H28.8Z" fill="#EF4444"/>
<path fill-rule="evenodd" clip-rule="evenodd" d="M16.92 12.6V19.8H18V13.68H28.8V12.6H16.92ZM18 6.48V0H16.92V7.56H28.8V6.48H18ZM10.8 6.48H0V7.56H11.88V0H10.8V6.48ZM0 12.6V13.68H10.8V19.8H11.88V12.6H0Z" fill="#F5F5F5"/>
<path d="M47.4315 16.296V25.5227C47.4315 28.9634 41.2213 31 41.2213 31C41.2213 31 35.0034 28.9634 35.0034 25.5227V16.296C35.0034 15.5801 35.5835 15 36.2994 15H46.1355C46.8514 15 47.4315 15.5801 47.4315 16.296Z" fill="#F5F5F5"/>
<path d="M40.3539 18.6953V22.362C40.3539 22.953 39.8748 23.4321 39.2839 23.4321H35V25.1524H39.2839C39.8748 25.1524 40.3539 25.6315 40.3539 26.2224V30.6683L41.2179 31L42.0743 30.6683V26.2301C42.0743 25.6392 42.5533 25.1601 43.1443 25.1601H47.4282V23.4321H43.1443C42.5533 23.4321 42.0743 22.953 42.0743 22.362V18.6953H40.3539Z" fill="#EF4444"/>
<path d="M47.4315 16.296V18.6953H35.0034V16.296C35.0034 15.5801 35.5835 15 36.2994 15H46.1355C46.8514 15 47.4315 15.5801 47.4315 16.296Z" fill="#EF4444"/>
<path d="M45.1693 15.9458H37.2588C36.7607 15.9458 36.357 16.3496 36.357 16.8476V16.8484C36.357 17.3465 36.7607 17.7502 37.2588 17.7502H45.1693C45.6674 17.7502 46.0712 17.3465 46.0712 16.8484V16.8476C46.0712 16.3496 45.6674 15.9458 45.1693 15.9458Z" fill="#FBBF24"/>
<path d="M38.6619 20.7053L38.04 20.0835C37.8601 19.9036 37.5685 19.9036 37.3887 20.0835L36.7668 20.7053C36.5869 20.8852 36.5869 21.1768 36.7668 21.3567L37.3887 21.9786C37.5685 22.1584 37.8601 22.1584 38.04 21.9786L38.6619 21.3567C38.8417 21.1768 38.8417 20.8852 38.6619 20.7053Z" fill="#22C55E"/>
<path d="M45.9367 20.7053L45.3148 20.0835C45.135 19.9036 44.8434 19.9036 44.6635 20.0835L44.0416 20.7053C43.8618 20.8852 43.8618 21.1768 44.0416 21.3567L44.6635 21.9786C44.8434 22.1584 45.135 22.1584 45.3148 21.9786L45.9367 21.3567C46.1166 21.1768 46.1166 20.8852 45.9367 20.7053Z" fill="#22C55E"/>
</svg>
