<svg width="54" height="36" viewBox="0 0 54 36" fill="none" xmlns="http://www.w3.org/2000/svg">
<rect width="54" height="36" rx="8" fill="#93C5FD"/>
<path d="M27.5873 4.49302L28.2005 6.23248C28.2672 6.42094 28.4421 6.54808 28.6423 6.55349L30.4864 6.59948C31.1834 6.61662 31.4701 7.50122 30.9165 7.92413L29.4521 9.04499C29.2934 9.16583 29.2266 9.37232 29.2834 9.56439L29.8101 11.3318C30.0093 12 29.2564 12.5464 28.6829 12.1506L27.1644 11.1037C27.0002 10.99 26.7829 10.99 26.6188 11.1037L25.1003 12.1506C24.5268 12.5464 23.7747 12 23.9731 11.3318L24.4997 9.56439C24.5565 9.37323 24.4898 9.16673 24.3311 9.04499L22.8649 7.92413C22.3112 7.50032 22.5989 6.61662 23.295 6.59948L25.1391 6.55349C25.3383 6.54899 25.5142 6.42094 25.5809 6.23248L26.1941 4.49302C26.4258 3.83566 27.3555 3.83566 27.5873 4.49302Z" fill="#F5F5F5"/>
<path d="M41.3996 14.3048L41.0609 16.1178C41.0245 16.3144 41.1124 16.512 41.283 16.6167L42.857 17.5786C43.4521 17.9419 43.2582 18.8514 42.5672 18.9408L40.7386 19.1793C40.5407 19.2046 40.3797 19.3501 40.3328 19.5448L39.9052 21.3387C39.7437 22.017 38.8184 22.1138 38.5196 21.4842L37.728 19.8183C37.6427 19.6379 37.4545 19.5292 37.2556 19.5455L35.417 19.6929C34.7224 19.749 34.3444 18.8997 34.8503 18.4203L36.19 17.153C36.3348 17.0158 36.3803 16.8036 36.3037 16.6188L35.5943 14.915C35.3267 14.2712 36.0177 13.6497 36.6292 13.9829L38.2491 14.8651C38.424 14.9608 38.6403 14.9379 38.7923 14.808L40.1931 13.6082C40.7224 13.1548 41.5276 13.6196 41.3996 14.3048Z" fill="#F5F5F5"/>
<path d="M13.5883 13.6087L14.9891 14.8085C15.1411 14.9384 15.3561 14.961 15.5322 14.8656L17.1522 13.9834C17.7644 13.6497 18.4551 14.2725 18.187 14.9155L17.4792 16.6184C17.4022 16.8024 17.4477 17.0146 17.5929 17.1526L18.9327 18.4199C19.4393 18.8989 19.0605 19.7486 18.3659 19.6925L16.5274 19.5452C16.3284 19.5288 16.1402 19.6375 16.0549 19.8179L15.2633 21.4838C14.9645 22.1134 14.04 22.0162 13.8777 21.3383L13.4501 19.5444C13.4037 19.3505 13.2427 19.205 13.0444 19.1789L11.2141 18.9413C10.5227 18.8511 10.33 17.942 10.9243 17.5791L12.4983 16.6172C12.6686 16.5137 12.7569 16.3149 12.7205 16.1183L12.3818 14.3053C12.2538 13.6201 13.0589 13.1553 13.5883 13.6087Z" fill="#F5F5F5"/>
<path d="M29.6507 23.6039L29.0882 25.3604C29.0275 25.5509 29.0901 25.7579 29.2463 25.8832L30.6878 27.0341C31.2329 27.469 30.9268 28.3471 30.2301 28.3495L28.386 28.3577C28.1865 28.3581 28.0086 28.4823 27.9378 28.6697L27.2894 30.3961C27.0444 31.0489 26.1143 31.0293 25.8965 30.3674L25.3192 28.6156C25.2571 28.4259 25.0839 28.2946 24.8845 28.286L23.0419 28.2025C22.3458 28.1714 22.0768 27.2816 22.6386 26.869L24.1262 25.779C24.287 25.661 24.3586 25.4562 24.3057 25.2633L23.8147 23.4842C23.6297 22.812 24.3928 22.2817 24.9579 22.6887L26.455 23.7663C26.6165 23.8831 26.834 23.8874 27.001 23.7775L28.5407 22.7621C29.1225 22.3783 29.8633 22.9401 29.6507 23.6039Z" fill="#F5F5F5"/>
</svg>
