<svg width="54" height="36" viewBox="0 0 54 36" fill="none" xmlns="http://www.w3.org/2000/svg">
<g clip-path="url(#clip0_93_2507)">
<path d="M0 0H54V18H0V0Z" fill="#F5F5F5"/>
<path d="M0 18H54V36H0V18Z" fill="#22C55E"/>
<path d="M44.6639 15.9191L43.729 14.2994L42.7941 12.6772C42.3847 11.9722 41.3664 11.9722 40.9596 12.6772L40.0221 14.2994L39.0872 15.9191C38.6804 16.6267 39.1882 17.5085 40.0044 17.5085H40.8433C40.6943 18.6153 39.7467 19.4719 38.5995 19.4719H35.4536C35.0771 19.4719 34.9305 18.9842 35.2464 18.777C38.1068 16.9071 39.2413 15.1889 39.2413 11.5148C39.2413 10.9615 39.0189 10.4637 38.6551 10.1023C38.2937 9.73847 37.796 9.51611 37.2426 9.51611H27.2413C26.0638 9.51611 25.1087 10.4713 25.1087 11.6488V13.2306C25.1087 13.7132 24.7852 14.1605 24.3102 14.2438C23.6961 14.35 23.163 13.88 23.163 13.2862V11.1383C23.163 10.6785 23.3879 10.2539 23.7568 9.98358C24.2268 9.63487 24.5704 9.12445 24.7018 8.53569C24.7625 8.26027 24.5452 8 24.2647 8H19.4738C18.1118 8 17.0076 9.10423 17.0076 10.4662V10.5572C17.0076 10.585 16.9848 10.6077 16.957 10.6077C15.5925 10.6077 14.4858 11.717 14.4908 13.079C14.4908 13.1421 14.5439 13.1927 14.6071 13.1927H16.4315C16.7498 13.1927 17.0076 13.4504 17.0076 13.7688V19.8206C17.0076 20.187 16.7119 20.4826 16.3455 20.4826C16.0752 20.4826 15.8275 20.3209 15.734 20.0682C15.3778 19.1282 14.4681 18.4637 13.4043 18.4687C13.1769 18.4713 13 18.6658 13 18.8907V22.8579C13 23.3178 13.3714 23.6892 13.8313 23.6892H18.4479C18.9684 23.6892 19.3904 24.1112 19.3904 24.6317C19.3904 24.892 19.211 25.1194 18.9558 25.1699C17.8465 25.3898 17.0076 26.3702 17.0076 27.5426C17.0076 27.7928 17.2097 28 17.4624 28H21.3992C21.8768 28 22.2634 27.6134 22.2634 27.1358V24.6292C22.2634 24.1112 22.6854 23.6892 23.2034 23.6892H30.2205C30.7385 23.6892 31.1605 24.1087 31.1605 24.6292C31.1605 24.8945 30.9735 25.1194 30.7157 25.1725C29.609 25.3973 28.7776 26.3752 28.7776 27.5452C28.7776 27.7953 28.9823 28 29.2325 28H33.1718C33.6469 28 34.0335 27.6134 34.0335 27.1358V23.9166C34.0335 22.5774 35.1175 21.4934 36.4567 21.4934H38.5995C40.861 21.4934 42.7157 19.7322 42.8724 17.5085H43.7492C44.5629 17.5085 45.0733 16.6267 44.6639 15.9191Z" fill="#EF4444"/>
</g>
<defs>
<clipPath id="clip0_93_2507">
<rect width="54" height="36" rx="8" fill="white"/>
</clipPath>
</defs>
</svg>
