<svg width="54" height="36" viewBox="0 0 54 36" fill="none" xmlns="http://www.w3.org/2000/svg">
<g clip-path="url(#clip0_95_2)">
<rect width="54" height="36" rx="8" fill="#F5F5F5"/>
<path fill-rule="evenodd" clip-rule="evenodd" d="M30 0H23V15H0V22H23V36H30V22H54V15H30V0Z" fill="#EF4444"/>
<path fill-rule="evenodd" clip-rule="evenodd" d="M12 3.5C11.2636 3.5 10.6667 4.09695 10.6667 4.83333V6.16623H9.33333C8.59695 6.16623 8 6.76319 8 7.49957C8 8.23595 8.59695 8.8329 9.33333 8.8329H10.6667V10.1667C10.6667 10.903 11.2636 11.5 12 11.5C12.7364 11.5 13.3333 10.903 13.3333 10.1667V8.8329H14.6667C15.403 8.8329 16 8.23595 16 7.49957C16 6.76319 15.403 6.16623 14.6667 6.16623H13.3333V4.83333C13.3333 4.09695 12.7364 3.5 12 3.5Z" fill="#EF4444"/>
<path fill-rule="evenodd" clip-rule="evenodd" d="M42 3.5C41.2636 3.5 40.6667 4.09695 40.6667 4.83333V6.16623H39.3333C38.597 6.16623 38 6.76319 38 7.49957C38 8.23595 38.597 8.8329 39.3333 8.8329H40.6667V10.1667C40.6667 10.903 41.2636 11.5 42 11.5C42.7364 11.5 43.3333 10.903 43.3333 10.1667V8.8329H44.6667C45.403 8.8329 46 8.23595 46 7.49957C46 6.76319 45.403 6.16623 44.6667 6.16623H43.3333V4.83333C43.3333 4.09695 42.7364 3.5 42 3.5Z" fill="#EF4444"/>
<path fill-rule="evenodd" clip-rule="evenodd" d="M12 25C11.2636 25 10.6667 25.597 10.6667 26.3333V27.6662H9.33333C8.59695 27.6662 8 28.2632 8 28.9996C8 29.7359 8.59695 30.3329 9.33333 30.3329H10.6667V31.6667C10.6667 32.403 11.2636 33 12 33C12.7364 33 13.3333 32.403 13.3333 31.6667V30.3329H14.6667C15.403 30.3329 16 29.7359 16 28.9996C16 28.2632 15.403 27.6662 14.6667 27.6662H13.3333V26.3333C13.3333 25.597 12.7364 25 12 25Z" fill="#EF4444"/>
<path fill-rule="evenodd" clip-rule="evenodd" d="M42 25C41.2636 25 40.6667 25.597 40.6667 26.3333V27.6662H39.3333C38.597 27.6662 38 28.2632 38 28.9996C38 29.7359 38.597 30.3329 39.3333 30.3329H40.6667V31.6667C40.6667 32.403 41.2636 33 42 33C42.7364 33 43.3333 32.403 43.3333 31.6667V30.3329H44.6667C45.403 30.3329 46 29.7359 46 28.9996C46 28.2632 45.403 27.6662 44.6667 27.6662H43.3333V26.3333C43.3333 25.597 42.7364 25 42 25Z" fill="#EF4444"/>
</g>
<defs>
<clipPath id="clip0_95_2">
<rect width="54" height="36" rx="8" fill="white"/>
</clipPath>
</defs>
</svg>
