<svg width="54" height="36" viewBox="0 0 54 36" fill="none" xmlns="http://www.w3.org/2000/svg">
<g clip-path="url(#clip0_95_88)">
<path d="M0 0H54V24H0V0Z" fill="#F5F5F5"/>
<path d="M0 24H54V36H0V24Z" fill="#EF4444"/>
<path d="M35.2577 9.67039V6.69049C35.2577 5.87226 34.5931 5.21126 33.7785 5.21126H32.2278C31.4096 5.21126 30.7486 5.87584 30.7486 6.69049V10.1599C30.7486 10.6494 30.352 11.046 29.8624 11.046C29.3729 11.046 28.9763 10.6494 28.9763 10.1599V5.47923C28.9763 4.66101 28.3118 4 27.4971 4H25.9464C25.1282 4 24.4672 4.66458 24.4672 5.47923V10.1563C24.4672 10.6458 24.0706 11.0424 23.5811 11.0424C23.0916 11.0424 22.695 10.6458 22.695 10.1563V6.69049C22.695 5.87226 22.0304 5.21126 21.2157 5.21126H19.665C18.8468 5.21126 18.1858 5.87584 18.1858 6.69049V9.67039C18.1858 10.3743 17.8321 11.0424 17.2282 11.4033C16.4958 11.8428 16.0063 12.6431 16.0063 13.5578V19.757C16.0063 21.1469 17.1318 22.2724 18.5217 22.2724H34.9326C36.3225 22.2724 37.448 21.1469 37.448 19.757V13.5578C37.448 12.6431 36.9585 11.8392 36.226 11.4033C35.6222 11.0424 35.2684 10.3743 35.2684 9.67039H35.2577Z" fill="#EF4444"/>
<path d="M20.4341 15.2656C21.3381 15.2656 22.0741 16.0017 22.0741 16.9056V19.8784C22.0741 20.1714 21.8383 20.4072 21.5453 20.4072H19.3229C19.0299 20.4072 18.7941 20.1714 18.7941 19.8784V16.9056C18.7941 16.0017 19.5302 15.2656 20.4341 15.2656Z" fill="#262626"/>
<path d="M20.4341 7.76611C21.0094 7.76611 21.481 8.23418 21.481 8.81301V10.7103C21.481 10.8961 21.331 11.0461 21.1452 11.0461H19.7267C19.5409 11.0461 19.3908 10.8961 19.3908 10.7103V8.81301C19.3908 8.23775 19.8589 7.76611 20.4377 7.76611H20.4341Z" fill="#262626"/>
<path d="M26.7191 7.76611C27.2943 7.76611 27.766 8.23418 27.766 8.81301V10.7103C27.766 10.8961 27.6159 11.0461 27.4301 11.0461H26.0116C25.8258 11.0461 25.6758 10.8961 25.6758 10.7103V8.81301C25.6758 8.23775 26.1438 7.76611 26.7226 7.76611H26.7191Z" fill="#262626"/>
<path d="M33.004 7.76611C33.5793 7.76611 34.0509 8.23418 34.0509 8.81301V10.7103C34.0509 10.8961 33.9009 11.0461 33.7151 11.0461H32.2966C32.1108 11.0461 31.9607 10.8961 31.9607 10.7103V8.81301C31.9607 8.23775 32.4288 7.76611 33.0076 7.76611H33.004Z" fill="#262626"/>
<path d="M26.7191 14.3867C27.7767 14.3867 28.6378 15.2478 28.6378 16.3054V19.7498C28.6378 20.1107 28.3448 20.4037 27.9839 20.4037H25.4578C25.0969 20.4037 24.8039 20.1107 24.8039 19.7498V16.3054C24.8039 15.2478 25.665 14.3867 26.7227 14.3867H26.7191Z" fill="#262626"/>
<path d="M33.004 15.2656C33.908 15.2656 34.644 16.0017 34.644 16.9056V19.8784C34.644 20.1714 34.4082 20.4072 34.1152 20.4072H31.8928C31.5998 20.4072 31.364 20.1714 31.364 19.8784V16.9056C31.364 16.0017 32.1001 15.2656 33.004 15.2656Z" fill="#262626"/>
<path d="M28.9844 25.556L27.791 24.3626C27.791 24.3626 27.791 24.3626 27.7874 24.359C27.5016 24.0767 27.3301 23.698 27.3301 23.2942V20.4072H26.1188V23.2942C26.1188 23.698 25.9473 24.0767 25.6615 24.359C25.6615 24.359 25.6615 24.359 25.6579 24.3626L24.4645 25.556C23.875 26.1455 23.875 27.1031 24.4645 27.6926L25.6579 28.8896L25.6865 28.9182C25.9652 29.1969 26.1224 29.572 26.1224 29.9651V31.0477C26.1224 31.2085 25.9938 31.3371 25.833 31.3371H24.8254C24.6253 31.3371 24.4645 31.4979 24.4645 31.698V32.3983C24.4645 32.5984 24.6253 32.7592 24.8254 32.7592H25.8187C25.9723 32.7592 26.1081 32.8735 26.1224 33.0271C26.1295 33.1165 26.0974 33.1987 26.0402 33.2558C25.9866 33.3094 25.9151 33.3416 25.8365 33.3416H24.8289C24.6289 33.3416 24.4681 33.5024 24.4681 33.7024V34.4028C24.4681 34.6029 24.6289 34.7636 24.8289 34.7636H25.8365C25.9973 34.7636 26.126 34.8923 26.126 35.0531V35.3782C26.126 35.7176 26.4011 36.0106 26.7405 36.0035C26.9049 36.0035 27.0514 35.932 27.1586 35.8248C27.2693 35.7141 27.3372 35.564 27.3372 35.3961V30.0008C27.3372 29.5863 27.5016 29.1897 27.7946 28.8967H27.7981L28.9915 27.6962C29.5811 27.1066 29.5811 26.1491 28.9915 25.5595L28.9844 25.556ZM28.1268 27.0852L27.3015 27.9106L27.18 28.0321C26.9263 28.2857 26.5118 28.2857 26.2582 28.0321L26.1367 27.9106L25.3113 27.0852C25.0576 26.8315 25.0576 26.4171 25.3113 26.1634L26.2546 25.2201C26.5083 24.9664 26.9227 24.9664 27.1764 25.2201L28.1197 26.1634C28.3734 26.4171 28.3734 26.8315 28.1197 27.0852H28.1268Z" fill="#FBBF24"/>
</g>
<defs>
<clipPath id="clip0_95_88">
<rect width="54" height="36" rx="8" fill="white"/>
</clipPath>
</defs>
</svg>
