<svg width="54" height="36" viewBox="0 0 54 36" fill="none" xmlns="http://www.w3.org/2000/svg">
<g clip-path="url(#clip0_95_289)">
<path d="M0 0H54V12H0V0Z" fill="#22C55E"/>
<path d="M0 12H54V24H0V12Z" fill="#F5F5F5"/>
<path d="M0 24H54V36H0V24Z" fill="#EF4444"/>
<path d="M18.942 20.63C20.3527 19.48 20.3527 16.52 18.942 15.37L0 0V36L18.942 20.63Z" fill="#3B82F6"/>
<g clip-path="url(#clip1_95_289)">
<path d="M27.361 14.3608H32.8917V20.1515C32.8917 22.1009 30.3502 20.5991 30.1336 21.6388C29.7581 20.5702 27.3754 22.1154 27.3754 20.0359L27.361 14.3608Z" fill="#F5F5F5"/>
<path d="M30.1336 22C29.9812 22 29.844 21.904 29.7935 21.7588C29.7336 21.5884 29.517 21.5632 28.9372 21.5747C28.4137 21.5856 27.8209 21.5978 27.4116 21.1964C27.1444 20.9343 27.0144 20.5552 27.0144 20.0361L27 14.3617C27 14.2657 27.0375 14.174 27.1054 14.1061C27.1733 14.0383 27.265 14 27.361 14H32.8917C33.091 14 33.2527 14.1617 33.2527 14.361V20.1516C33.2527 20.6144 33.1249 20.9733 32.8736 21.2173C32.4534 21.6253 31.8282 21.6072 31.2765 21.5913C30.8318 21.5783 30.5148 21.5798 30.4866 21.7126C30.4534 21.8715 30.3191 21.9884 30.1574 21.9993C30.1495 21.9993 30.1415 22 30.1336 22ZM29.1632 20.8491C29.4982 20.8491 29.8513 20.8773 30.1184 21.0513C30.4404 20.844 30.9162 20.8585 31.2982 20.8693C31.7069 20.8816 32.1704 20.8946 32.3711 20.6996C32.4773 20.5964 32.5307 20.4123 32.5307 20.1516V14.722H27.7227L27.7365 20.0354C27.7365 20.3466 27.7971 20.5632 27.9162 20.6801C28.109 20.8693 28.522 20.8607 28.922 20.8527C29 20.8513 29.0809 20.8491 29.1625 20.8491H29.1632Z" fill="#D4D4D4"/>
<path d="M30.5069 15.712C30.5069 15.5019 30.3365 15.3315 30.1264 15.3315C29.9162 15.3315 29.7458 15.5019 29.7458 15.712V19.9178C29.7458 20.128 29.9162 20.2983 30.1264 20.2983C30.3365 20.2983 30.5069 20.128 30.5069 19.9178V15.712Z" fill="#A16207"/>
<path d="M30.7126 15.3315H29.5408C29.1636 15.3315 28.8578 15.6373 28.8578 16.0146V16.0153C28.8578 16.3925 29.1636 16.6983 29.5408 16.6983H30.7126C31.0899 16.6983 31.3957 16.3925 31.3957 16.0153V16.0146C31.3957 15.6373 31.0899 15.3315 30.7126 15.3315Z" fill="#22C55E"/>
</g>
</g>
<defs>
<clipPath id="clip0_95_289">
<rect width="54" height="36" rx="8" fill="white"/>
</clipPath>
<clipPath id="clip1_95_289">
<rect width="6.25271" height="8" fill="white" transform="translate(27 14)"/>
</clipPath>
</defs>
</svg>
