<svg width="54" height="36" viewBox="0 0 54 36" fill="none" xmlns="http://www.w3.org/2000/svg">
<g clip-path="url(#clip0_95_460)">
<path d="M0 0H18V36H0V0Z" fill="#93C5FD"/>
<path d="M18 0H36V36H18V0Z" fill="#F5F5F5"/>
<path d="M36 0H54V36H36V0Z" fill="#93C5FD"/>
<path d="M23.3306 20.8515C23.1256 20.8515 22.9207 20.7735 22.7647 20.6175C22.4528 20.3056 22.4528 19.7987 22.7647 19.4867L26.4341 15.8173C26.746 15.5054 27.253 15.5044 27.5649 15.8173C27.8769 16.1293 27.8779 16.6362 27.5649 16.9482L23.8955 20.6175C23.7395 20.7735 23.5346 20.8515 23.3296 20.8515H23.3306Z" fill="#A16207"/>
<path d="M30.6694 20.8516C30.4644 20.8516 30.2605 20.7736 30.1035 20.6177L26.4341 16.9483C26.1221 16.6363 26.1221 16.1294 26.4341 15.8175C26.746 15.5055 27.253 15.5055 27.5649 15.8175L31.2343 19.4868C31.5462 19.7988 31.5462 20.3057 31.2343 20.6177C31.0783 20.7736 30.8734 20.8516 30.6684 20.8516H30.6694Z" fill="#A16207"/>
<path d="M29.3446 15.7225L27.6598 14.0378C27.2951 13.6731 26.7039 13.6731 26.3392 14.0378L24.6544 15.7225C24.2897 16.0872 24.2897 16.6785 24.6544 17.0432L26.3392 18.7279C26.7039 19.0926 27.2951 19.0926 27.6598 18.7279L29.3446 17.0432C29.7093 16.6785 29.7093 16.0872 29.3446 15.7225Z" fill="#FBBF24"/>
<path d="M27 22.3674C23.6916 22.3674 21 19.6758 21 16.3674C21 15.3286 21.27 14.3037 21.7819 13.4049C21.9998 13.021 22.4888 12.886 22.8727 13.1049C23.2566 13.3229 23.3906 13.8118 23.1726 14.1958C22.7977 14.8546 22.5997 15.6055 22.5997 16.3674C22.5997 18.794 24.5734 20.7677 27 20.7677C29.4266 20.7677 31.4003 18.794 31.4003 16.3674C31.4003 15.6055 31.2023 14.8536 30.8274 14.1958C30.6094 13.8118 30.7434 13.3239 31.1273 13.1049C31.5112 12.887 32.0002 13.021 32.2181 13.4049C32.73 14.3037 33 15.3286 33 16.3674C33 19.6758 30.3084 22.3674 27 22.3674Z" fill="#22C55E"/>
<path d="M30.4264 20.5046C29.9895 20.5046 29.6336 20.1536 29.6266 19.7157C29.6126 18.7109 29.3306 17.721 28.8107 16.8522C28.2988 15.9963 27.5729 15.2854 26.7101 14.7975C26.3251 14.5796 26.1901 14.0916 26.4081 13.7077C26.6261 13.3238 27.113 13.1878 27.4979 13.4058C28.6017 14.0307 29.5306 14.9385 30.1845 16.0313C30.8474 17.1411 31.2083 18.4069 31.2263 19.6927C31.2323 20.1346 30.8794 20.4976 30.4384 20.5036C30.4344 20.5036 30.4304 20.5036 30.4264 20.5036V20.5046Z" fill="#22C55E"/>
</g>
<defs>
<clipPath id="clip0_95_460">
<rect width="54" height="36" rx="8" fill="white"/>
</clipPath>
</defs>
</svg>
