<svg width="54" height="36" viewBox="0 0 54 36" fill="none" xmlns="http://www.w3.org/2000/svg">
<g clip-path="url(#clip0_95_499)">
<path d="M0 0H22V36H0V0Z" fill="#EF4444"/>
<path d="M22 0H54V18H22V0Z" fill="#FBBF24"/>
<path d="M22 18H54V36H22V18Z" fill="#22C55E"/>
<path d="M12.0518 12.5951L12.792 14.6949C12.8726 14.9224 13.0837 15.0758 13.3254 15.0824L15.5514 15.1379C16.3928 15.1586 16.7389 16.2264 16.0706 16.7369L14.3029 18.0899C14.1113 18.2358 14.0307 18.485 14.0993 18.7169L14.735 20.8503C14.9756 21.6569 14.0667 22.3166 13.3744 21.8387L11.5413 20.575C11.3432 20.4378 11.0809 20.4378 10.8828 20.575L9.04975 21.8387C8.35746 22.3166 7.44965 21.6569 7.68912 20.8503L8.32481 18.7169C8.39338 18.4861 8.31283 18.2369 8.12126 18.0899L6.35135 16.7369C5.68301 16.2253 6.03024 15.1586 6.87057 15.1379L9.09656 15.0824C9.33712 15.0769 9.54937 14.9224 9.62992 14.6949L10.3701 12.5951C10.6499 11.8016 11.7721 11.8016 12.0518 12.5951Z" fill="#262626"/>
</g>
<defs>
<clipPath id="clip0_95_499">
<rect width="54" height="36" rx="8" fill="white"/>
</clipPath>
</defs>
</svg>
