<svg width="54" height="36" viewBox="0 0 54 36" fill="none" xmlns="http://www.w3.org/2000/svg">
<g clip-path="url(#clip0_95_689)">
<path d="M54 0H0V36H54V0Z" fill="#22C55E"/>
<path d="M50.93 20.4L6.24001 34.14L3.04001 35.13L0.200006 36H-0.00999451V0H0.200006L3.04001 0.87L6.23001 1.85L50.91 15.59C53.33 16.33 53.33 19.65 50.91 20.39L50.93 20.4Z" fill="#FBBF24"/>
<path d="M51.24 14.57L3.88 0H0V1.07L2.56 1.85L5.76 2.84L8.96 3.82L50.62 16.63C51.39 16.87 51.67 17.49 51.67 18C51.67 18.51 51.39 19.13 50.62 19.37L8.96 32.18L5.76 33.16L2.56 34.15L0 34.93V36H3.88L51.24 21.43C52.81 20.95 53.82 19.6 53.82 18C53.82 16.4 52.81 15.05 51.24 14.57Z" fill="#F5F5F5"/>
<path d="M23.74 20.13L5.75 33.16L3.04 35.13L1.83 36H0V0H1.84C2.21 0.27 2.62 0.57 3.05 0.87C3.87 1.46 4.78 2.12 5.75 2.83C11.51 7.01 19.49 12.78 23.74 15.86C25.19 16.91 25.19 19.07 23.74 20.12V20.13Z" fill="#EF4444"/>
<path d="M24.37 14.99L8.95 3.82L6.24 1.86L3.68 0H0L2.56 1.85L23.11 16.74C23.52 17.04 23.75 17.49 23.75 18C23.75 18.51 23.52 18.96 23.11 19.26L2.56 34.15L0 36H3.68L6.24 34.14L8.95 32.18L24.37 21.01C25.35 20.3 25.9 19.21 25.9 18C25.9 16.79 25.34 15.7 24.37 14.99Z" fill="#262626"/>
</g>
<defs>
<clipPath id="clip0_95_689">
<rect width="54" height="36" rx="8" fill="white"/>
</clipPath>
</defs>
</svg>
