<svg width="54" height="36" viewBox="0 0 54 36" fill="none" xmlns="http://www.w3.org/2000/svg">
<rect width="54" height="36" rx="8" fill="#EF4444"/>
<path d="M24.8522 18.7771C25.121 18.5391 25.0165 18.0964 24.6678 18.0113C22.1393 17.3956 22.2052 15.3967 22.1068 14.9312C21.9997 14.4245 20.8729 12.3395 18.3356 12.7769C16.7486 13.05 16.0609 12.249 15.7693 11.6097C15.6701 11.3927 15.3566 11.4059 15.2854 11.6334C13.9865 15.8051 17.3625 19.8705 20.7288 20.0005C22.9403 20.0866 24.2085 19.3488 24.8531 18.7771H24.8522ZM20.0693 16.6412L19.5098 16.534C19.4492 16.5226 19.3877 16.549 19.3553 16.6017L19.0558 17.0865C18.9425 17.27 18.6623 17.2085 18.6351 16.9951L18.5639 16.4295C18.556 16.368 18.5113 16.318 18.4515 16.3039L17.8974 16.1696C17.6883 16.1186 17.6593 15.8332 17.8543 15.7418L18.3699 15.4994C18.4261 15.4731 18.4594 15.4151 18.455 15.3537L18.412 14.7854C18.3953 14.5711 18.6588 14.4552 18.8063 14.6124L19.1963 15.0278C19.2384 15.0726 19.3043 15.0867 19.3614 15.0638L19.8883 14.8478C20.0877 14.7661 20.2783 14.9804 20.1747 15.1692L19.8998 15.6681C19.8699 15.7216 19.8769 15.7884 19.9165 15.8358L20.2853 16.2697C20.425 16.4339 20.2801 16.6816 20.0684 16.6412H20.0693Z" fill="#F5F5F5"/>
<path d="M24.8022 16.2829C25.1104 16.4665 25.5013 16.2329 25.4758 15.8745C25.2958 13.2784 27.2209 12.7348 27.6337 12.5003C28.0833 12.2447 29.7292 10.5391 28.5435 8.25305C27.8014 6.82326 28.3573 5.92569 28.8773 5.45406C29.0547 5.29422 28.9466 4.99825 28.7086 5.00001C24.3393 5.02723 21.4894 9.47734 22.3852 12.7242C22.9737 14.8575 24.0618 15.8429 24.8013 16.2829H24.8022ZM24.6142 9.81986L25.1315 9.58097C25.1877 9.5555 25.222 9.49754 25.2176 9.43606L25.1781 8.86695C25.1631 8.65178 25.4266 8.53849 25.5733 8.69569L25.9606 9.11374C26.0027 9.15941 26.0677 9.17346 26.1248 9.15063L26.6535 8.93721C26.8529 8.85641 27.0435 9.07246 26.9381 9.26041L26.6606 9.7575C26.6307 9.81107 26.6368 9.87782 26.6764 9.92525L27.0426 10.3617C27.1814 10.5268 27.0347 10.7736 26.8239 10.7324L26.2653 10.6217C26.2047 10.6094 26.1433 10.6366 26.1108 10.6884L25.8087 11.1715C25.6945 11.3542 25.4143 11.2909 25.3888 11.0775L25.3212 10.5119C25.3142 10.4504 25.2694 10.4004 25.2097 10.3855L24.6573 10.2476C24.4482 10.1957 24.421 9.90944 24.6169 9.81898L24.6142 9.81986Z" fill="#F5F5F5"/>
<path d="M39.1001 15.7806C37.7494 11.6256 32.645 10.2591 29.8223 12.0973C27.9683 13.3048 27.3588 14.6398 27.1638 15.4785C27.0821 15.8281 27.4238 16.1293 27.7575 15.9967C30.1771 15.0376 31.2784 16.7072 31.6271 17.0304C32.0074 17.3817 34.1318 18.433 35.9507 16.6097C37.088 15.4697 38.1121 15.7262 38.7198 16.0792C38.9253 16.1987 39.1748 16.0072 39.101 15.7806H39.1001ZM34.5033 15.3846L33.9448 15.2704C33.8842 15.2581 33.8227 15.2844 33.7893 15.3362L33.4846 15.8175C33.3695 15.9993 33.0894 15.9352 33.0656 15.7209L33.0015 15.1544C32.9945 15.093 32.9506 15.0429 32.8909 15.0271L32.3393 14.8857C32.1303 14.8321 32.1057 14.5458 32.3016 14.4571L32.8197 14.2209C32.8759 14.1954 32.9102 14.1374 32.9067 14.076L32.8707 13.5077C32.8566 13.2926 33.121 13.1801 33.2668 13.3391L33.6514 13.7598C33.6927 13.8055 33.7586 13.8204 33.8157 13.7975L34.3453 13.5868C34.5455 13.5077 34.7343 13.7238 34.6281 13.9108L34.347 14.4071C34.3163 14.4606 34.3224 14.5274 34.3619 14.5748L34.7255 15.0139C34.8625 15.1799 34.715 15.4258 34.5042 15.3828L34.5033 15.3846Z" fill="#F5F5F5"/>
<path d="M32.674 18.994C30.9605 17.5932 29.5043 17.4176 28.6454 17.4861C28.2871 17.5142 28.1044 17.9305 28.331 18.2089C29.9786 20.2236 28.7209 21.779 28.5189 22.2093C28.2994 22.6783 27.9419 25.0215 30.2307 26.2019C31.6622 26.9405 31.7272 27.9935 31.5753 28.6794C31.5234 28.9121 31.7825 29.0913 31.9757 28.9526C35.5256 26.4056 35.2806 21.1273 32.6731 18.9949L32.674 18.994ZM32.4008 24.123L31.8431 24.0062C31.7825 23.9931 31.721 24.0194 31.6877 24.0712L31.3794 24.5507C31.2626 24.7317 30.9833 24.6658 30.9605 24.4515L30.8999 23.885C30.8929 23.8236 30.8498 23.7726 30.7901 23.7568L30.2386 23.6119C30.0304 23.5574 30.0067 23.2711 30.2034 23.1833L30.7234 22.9506C30.7796 22.9251 30.8147 22.868 30.8112 22.8065L30.7787 22.2374C30.7664 22.0223 31.0316 21.9116 31.1757 22.0714L31.5577 22.4939C31.599 22.5396 31.664 22.5554 31.7219 22.5325L32.2524 22.3253C32.4526 22.2471 32.6406 22.4649 32.5334 22.6511L32.2498 23.1447C32.219 23.1982 32.2243 23.265 32.2638 23.3124L32.6248 23.7533C32.7609 23.9202 32.6116 24.1652 32.4017 24.1213L32.4008 24.123Z" fill="#F5F5F5"/>
<path d="M26.3988 19.4264C24.9778 21.6071 23.115 20.8808 22.6434 20.8193C22.1305 20.7517 19.7891 21.1223 19.3579 23.6614C19.0883 25.2492 18.1046 25.6313 17.4046 25.6945C17.1675 25.7156 17.0753 26.0168 17.2659 26.1591C20.7692 28.7701 25.7252 26.9355 26.9662 23.8036C27.7821 21.7459 27.5072 20.3047 27.1822 19.5072C27.047 19.1744 26.5947 19.1261 26.3979 19.4273L26.3988 19.4264ZM23.4382 24.7785L22.8814 24.6573C22.8208 24.6441 22.7593 24.6696 22.7251 24.7214L22.4142 25.1992C22.2965 25.3792 22.0181 25.3116 21.9961 25.0982L21.9391 24.5308C21.9329 24.4693 21.889 24.4184 21.8302 24.4026L21.2804 24.2542C21.0722 24.198 21.0503 23.9117 21.2479 23.8247L21.7696 23.5955C21.8258 23.5709 21.8609 23.5138 21.8583 23.4515L21.8293 22.8823C21.8179 22.6672 22.084 22.5583 22.2271 22.719L22.6065 23.1441C22.6478 23.1897 22.7128 23.2055 22.7708 23.1836L23.303 22.9798C23.5041 22.9025 23.6903 23.1221 23.5814 23.3074L23.2942 23.8001C23.2635 23.8537 23.2679 23.9204 23.3074 23.9679L23.6657 24.4114C23.801 24.5791 23.6508 24.8233 23.44 24.7776L23.4382 24.7785Z" fill="#F5F5F5"/>
</svg>
