<svg width="54" height="36" viewBox="0 0 54 36" fill="none" xmlns="http://www.w3.org/2000/svg">
<g clip-path="url(#clip0_95_647)">
<path d="M0 0H54V12H0V0Z" fill="#22D3EE"/>
<path d="M0 12H54V24H0V12Z" fill="#F5F5F5"/>
<path d="M0 24H54V36H0V24Z" fill="#22D3EE"/>
<path d="M27.0949 15.7551L27.421 16.6549C27.4565 16.7524 27.5495 16.8182 27.656 16.821L28.6367 16.8448C29.0074 16.8537 29.1599 17.3113 28.8655 17.5301L28.0867 18.11C28.0023 18.1725 27.9668 18.2793 27.997 18.3787L28.2771 19.293C28.383 19.6387 27.9826 19.9214 27.6776 19.7166L26.87 19.175C26.7827 19.1162 26.6671 19.1162 26.5798 19.175L25.7722 19.7166C25.4672 19.9214 25.0673 19.6387 25.1728 19.293L25.4528 18.3787C25.4831 18.2798 25.4476 18.1729 25.3632 18.11L24.5834 17.5301C24.2889 17.3108 24.4419 16.8537 24.8121 16.8448L25.7929 16.821C25.8988 16.8187 25.9924 16.7524 26.0279 16.6549L26.354 15.7551C26.4772 15.415 26.9717 15.415 27.0949 15.7551Z" fill="#22D3EE"/>
<path d="M15.6663 13.2551L15.9924 14.1549C16.0279 14.2524 16.121 14.3182 16.2274 14.321L17.2082 14.3448C17.5789 14.3537 17.7314 14.8113 17.4369 15.0301L16.6581 15.61C16.5737 15.6725 16.5382 15.7793 16.5684 15.8787L16.8485 16.793C16.9545 17.1387 16.554 17.4214 16.249 17.2166L15.4414 16.675C15.3541 16.6162 15.2385 16.6162 15.1513 16.675L14.3437 17.2166C14.0387 17.4214 13.6387 17.1387 13.7442 16.793L14.0243 15.8787C14.0545 15.7798 14.019 15.6729 13.9346 15.61L13.1548 15.0301C12.8603 14.8108 13.0133 14.3537 13.3836 14.3448L14.3643 14.321C14.4703 14.3187 14.5638 14.2524 14.5993 14.1549L14.9254 13.2551C15.0486 12.915 15.5431 12.915 15.6663 13.2551Z" fill="#22D3EE"/>
<path d="M15.6663 18.9694L15.9924 19.8693C16.0279 19.9668 16.121 20.0326 16.2274 20.0354L17.2082 20.0592C17.5789 20.068 17.7314 20.5257 17.4369 20.7445L16.6581 21.3243C16.5737 21.3868 16.5382 21.4937 16.5684 21.593L16.8485 22.5074C16.9545 22.853 16.554 23.1357 16.249 22.9309L15.4414 22.3893C15.3541 22.3306 15.2385 22.3306 15.1513 22.3893L14.3437 22.9309C14.0387 23.1357 13.6387 22.853 13.7442 22.5074L14.0243 21.593C14.0545 21.4941 14.019 21.3873 13.9346 21.3243L13.1548 20.7445C12.8603 20.5252 13.0133 20.068 13.3836 20.0592L14.3643 20.0354C14.4703 20.033 14.5638 19.9668 14.5993 19.8693L14.9254 18.9694C15.0486 18.6293 15.5431 18.6293 15.6663 18.9694Z" fill="#22D3EE"/>
<path d="M37.7826 13.2551L37.4565 14.1549C37.421 14.2524 37.328 14.3182 37.2215 14.321L36.2408 14.3448C35.8701 14.3537 35.7176 14.8113 36.0121 15.0301L36.7909 15.61C36.8753 15.6725 36.9108 15.7793 36.8806 15.8787L36.6005 16.793C36.4945 17.1387 36.895 17.4214 37.2 17.2166L38.0076 16.675C38.0948 16.6162 38.2104 16.6162 38.2977 16.675L39.1053 17.2166C39.4103 17.4214 39.8103 17.1387 39.7048 16.793L39.4247 15.8787C39.3945 15.7798 39.43 15.6729 39.5144 15.61L40.2942 15.0301C40.5886 14.8108 40.4357 14.3537 40.0654 14.3448L39.0847 14.321C38.9787 14.3187 38.8852 14.2524 38.8497 14.1549L38.5236 13.2551C38.4003 12.915 37.9059 12.915 37.7826 13.2551Z" fill="#22D3EE"/>
<path d="M37.7826 18.9694L37.4565 19.8693C37.421 19.9668 37.328 20.0326 37.2215 20.0354L36.2408 20.0592C35.8701 20.068 35.7176 20.5257 36.0121 20.7445L36.7909 21.3243C36.8753 21.3868 36.9108 21.4937 36.8806 21.593L36.6005 22.5074C36.4945 22.853 36.895 23.1357 37.2 22.9309L38.0076 22.3893C38.0948 22.3306 38.2104 22.3306 38.2977 22.3893L39.1053 22.9309C39.4103 23.1357 39.8103 22.853 39.7048 22.5074L39.4247 21.593C39.3945 21.4941 39.43 21.3873 39.5144 21.3243L40.2942 20.7445C40.5886 20.5252 40.4357 20.068 40.0654 20.0592L39.0847 20.0354C38.9787 20.033 38.8852 19.9668 38.8497 19.8693L38.5236 18.9694C38.4003 18.6293 37.9059 18.6293 37.7826 18.9694Z" fill="#22D3EE"/>
</g>
<defs>
<clipPath id="clip0_95_647">
<rect width="54" height="36" rx="8" fill="white"/>
</clipPath>
</defs>
</svg>
