<svg width="54" height="36" viewBox="0 0 54 36" fill="none" xmlns="http://www.w3.org/2000/svg">
<g clip-path="url(#clip0_95_845)">
<path d="M0 0H54V12H0V0Z" fill="#EF4444"/>
<path d="M0 12H54V24H0V12Z" fill="#F5F5F5"/>
<path d="M0 24H54V36H0V24Z" fill="#1E3A8A"/>
<path d="M27.1708 29.2628C23.0726 29.2628 19.738 25.9291 19.738 21.8299V12.0581H34.6027V21.8299C34.6027 25.9281 31.2681 29.2628 27.1699 29.2628H27.1708Z" fill="#F5F5F5"/>
<path d="M33.8648 12.7958V21.8296C33.8648 25.5214 30.8617 28.5245 27.1699 28.5245C23.478 28.5245 20.476 25.5214 20.476 21.8296V12.7958H33.8648ZM35.3407 11.3198H19V21.8296C19 26.342 22.6584 30.0004 27.1709 30.0004C31.6833 30.0004 35.3417 26.342 35.3417 21.8296V11.3198H35.3407Z" fill="#F5F5F5"/>
<path d="M34.6028 12.0578V21.8296C34.6028 25.9278 31.2681 29.2625 27.1699 29.2625C23.0717 29.2625 19.738 25.9278 19.738 21.8296V12.0578H34.6028ZM35.3407 11.3198H19V21.8296C19 26.342 22.6584 30.0004 27.1709 30.0004C31.6833 30.0004 35.3417 26.342 35.3417 21.8296V11.3198H35.3407Z" fill="#EF4444"/>
<path d="M21.6301 8.20277C21.6301 7.47621 21.0414 6.88721 20.3151 6.88721C19.5888 6.88721 19 7.47621 19 8.20277V9.47799C19 10.2046 19.5888 10.7936 20.3151 10.7936C21.0414 10.7936 21.6301 10.2046 21.6301 9.47799V8.20277Z" fill="#93C5FD"/>
<path d="M25.0593 7.71058C25.0593 6.98402 24.4705 6.39502 23.7442 6.39502C23.0179 6.39502 22.4292 6.98402 22.4292 7.71058V8.9858C22.4292 9.71237 23.0179 10.3014 23.7442 10.3014C24.4705 10.3014 25.0593 9.71237 25.0593 8.9858V7.71058Z" fill="#3B82F6"/>
<path d="M28.4884 7.31556C28.4884 6.589 27.8996 6 27.1733 6C26.447 6 25.8582 6.589 25.8582 7.31556V8.59079C25.8582 9.31735 26.447 9.90635 27.1733 9.90635C27.8996 9.90635 28.4884 9.31735 28.4884 8.59079V7.31556Z" fill="#93C5FD"/>
<path d="M31.9185 7.71058C31.9185 6.98402 31.3297 6.39502 30.6034 6.39502C29.8771 6.39502 29.2884 6.98402 29.2884 7.71058V8.9858C29.2884 9.71237 29.8771 10.3014 30.6034 10.3014C31.3297 10.3014 31.9185 9.71237 31.9185 8.9858V7.71058Z" fill="#3B82F6"/>
<path d="M35.3477 8.20277C35.3477 7.47621 34.7589 6.88721 34.0326 6.88721C33.3063 6.88721 32.7175 7.47621 32.7175 8.20277V9.47799C32.7175 10.2046 33.3063 10.7936 34.0326 10.7936C34.7589 10.7936 35.3477 10.2046 35.3477 9.47799V8.20277Z" fill="#93C5FD"/>
<path d="M33.8677 12.7959V21.8297C33.8677 23.4906 33.2586 25.0138 32.252 26.1847C31.4983 27.0644 30.5192 27.7463 29.4054 28.1399C28.7078 28.3888 27.956 28.5236 27.1738 28.5236C26.3915 28.5236 25.6398 28.3888 24.9421 28.1409C23.8283 27.7463 22.8492 27.0644 22.0945 26.1847C21.0879 25.0138 20.4789 23.4906 20.4789 21.8297V12.7959H33.8677Z" fill="#F5F5F5"/>
<path d="M24.9428 12.7959H20.4795V17.2592H24.9428V12.7959Z" fill="#EF4444"/>
<path d="M33.8688 12.7959H29.4055V17.2592H33.8688V12.7959Z" fill="#EF4444"/>
<path d="M29.4065 17.2598H24.9432V21.723H29.4065V17.2598Z" fill="#EF4444"/>
<path d="M24.9421 21.7227V26.1859H22.0945C21.0879 25.015 20.4789 23.4918 20.4789 21.8309V21.7227H24.9421Z" fill="#EF4444"/>
<path d="M33.8678 21.7227V21.8309C33.8678 23.4918 33.2587 25.015 32.2521 26.1859H29.4055V21.7227H33.8678Z" fill="#EF4444"/>
<path d="M29.4054 26.1826V28.1378C28.7078 28.3867 27.9561 28.5215 27.1738 28.5215C26.3916 28.5215 25.6398 28.3867 24.9422 28.1387V26.1826H29.4054Z" fill="#EF4444"/>
</g>
<defs>
<clipPath id="clip0_95_845">
<rect width="54" height="36" rx="8" fill="white"/>
</clipPath>
</defs>
</svg>
