<svg width="54" height="36" viewBox="0 0 54 36" fill="none" xmlns="http://www.w3.org/2000/svg">
<g clip-path="url(#clip0_95_824)">
<path d="M0 0H54V18H0V0Z" fill="#1E3A8A"/>
<path d="M0 18H54V36H0V18Z" fill="#EF4444"/>
<path d="M33.8229 10.9771H20.1629C18.9555 10.9771 17.9768 11.9558 17.9768 13.1632V22.8374C17.9768 24.0448 18.9555 25.0235 20.1629 25.0235H33.8229C35.0303 25.0235 36.009 24.0448 36.009 22.8374V13.1632C36.009 11.9558 35.0303 10.9771 33.8229 10.9771Z" fill="#F5F5F5"/>
<path d="M33.8229 11.9535C34.4908 11.9535 35.0323 12.495 35.0323 13.1629V22.8371C35.0323 23.505 34.4908 24.0465 33.8229 24.0465H20.1629C19.495 24.0465 18.9535 23.505 18.9535 22.8371V13.1629C18.9535 12.495 19.495 11.9535 20.1629 11.9535H33.8229ZM33.8229 10H20.1629C18.4187 10 17 11.4187 17 13.1629V22.8371C17 24.5813 18.4187 26 20.1629 26H33.8229C35.5671 26 36.9858 24.5813 36.9858 22.8371V13.1629C36.9858 11.4187 35.5671 10 33.8229 10Z" fill="#F5F5F5"/>
<path d="M18.9535 20.7085H35.0316V22.847C35.0316 23.5088 34.4944 24.046 33.8327 24.046H20.1525C19.4907 24.046 18.9535 23.5088 18.9535 22.847V20.7085Z" fill="#22C55E"/>
<path d="M27.9086 14.1196H26.0772V20.4338H27.9086V14.1196Z" fill="#FBBF24"/>
<path d="M28.0106 12.4127L28.3182 12.1856C29.1814 11.5476 30.4085 12.3199 30.1582 13.3632C30.0984 13.6141 29.9586 13.8546 29.7266 14.0487L28.1046 15.407C27.4611 15.9461 26.524 15.9461 25.8806 15.407L24.2586 14.0487C24.0266 13.8546 23.8868 13.6141 23.827 13.3632C23.5773 12.3193 24.8037 11.5476 25.6669 12.1856L25.9746 12.4127C26.5796 12.8595 27.405 12.8595 28.0099 12.4127H28.0106Z" fill="#22C55E"/>
<path d="M20.6195 16.3901L25.5399 20.7477C26.0466 21.1964 25.7292 22.0339 25.0522 22.0339H20.2843C19.5493 22.0339 18.9535 21.4381 18.9535 20.7031V17.1397C18.9535 16.2765 19.973 15.8174 20.6195 16.3901Z" fill="#1E3A8A"/>
<path d="M33.3663 16.3901L28.4459 20.7477C27.9392 21.1964 28.2566 22.0339 28.9336 22.0339H33.7021C34.4371 22.0339 35.0329 21.4381 35.0329 20.7031V17.1397C35.0329 16.2765 34.0134 15.8174 33.3669 16.3901H33.3663Z" fill="#1E3A8A"/>
<path d="M24.3453 22.0339C24.3453 20.5718 25.5308 19.3862 26.9929 19.3862C28.455 19.3862 29.6406 20.5718 29.6406 22.0339" fill="#EF4444"/>
</g>
<defs>
<clipPath id="clip0_95_824">
<rect width="54" height="36" rx="8" fill="white"/>
</clipPath>
</defs>
</svg>
