<svg width="54" height="36" viewBox="0 0 54 36" fill="none" xmlns="http://www.w3.org/2000/svg">
<g clip-path="url(#clip0_95_1037)">
<path d="M0 0H54V4.5H0V0Z" fill="#F5F5F5"/>
<path d="M0 4.5H54V9H0V4.5Z" fill="#3B82F6"/>
<path d="M0 9H54V27H0V9Z" fill="#F5F5F5"/>
<path d="M0 27H54V31.5H0V27Z" fill="#3B82F6"/>
<path d="M0 31.5H54V36H0V31.5Z" fill="#F5F5F5"/>
<path d="M31.8178 18.0007L33.2 15.6067C33.4489 15.1756 33.4489 14.6615 33.2 14.2304C32.9511 13.7993 32.5067 13.543 32.0089 13.543H29.2444L27.8844 11.1874C27.6356 10.7563 27.1911 10.5 26.6933 10.5C26.1956 10.5 25.7511 10.7578 25.5022 11.1874L24.1422 13.543H21.3778C20.88 13.543 20.4356 13.8007 20.1867 14.2304C19.9378 14.6615 19.9378 15.1756 20.1867 15.6052L21.5689 17.9993L20.1867 20.3948C19.9378 20.8259 19.9378 21.34 20.1867 21.7696C20.4356 22.2007 20.88 22.457 21.3778 22.457H24.1422L25.5022 24.8126C25.7511 25.2437 26.1956 25.5 26.6933 25.5C27.1911 25.5 27.6356 25.2422 27.8844 24.8126L29.2444 22.457H32.0089C32.5067 22.457 32.9511 22.1993 33.2 21.7696C33.4489 21.3385 33.4489 20.8244 33.2 20.3933L31.8178 17.9993V18.0007ZM31.8252 15.0244L30.963 16.5193L30.1007 15.0244H31.8267H31.8252ZM30.1067 18.0007L28.3881 20.977H24.9956L23.277 18.0007L24.9956 15.0244H28.3881L30.1067 18.0007ZM26.6933 12.0867L27.5333 13.543H25.8519L26.6919 12.0867H26.6933ZM21.5615 15.0244H23.2874L22.4252 16.5193L21.563 15.0244H21.5615ZM21.5615 20.9756L22.4237 19.4807L23.2859 20.9756H21.56H21.5615ZM26.6933 23.9133L25.8533 22.457H27.5348L26.6948 23.9133H26.6933ZM30.0993 20.9756L30.9615 19.4807L31.8237 20.9756H30.0978H30.0993Z" fill="#3B82F6"/>
</g>
<defs>
<clipPath id="clip0_95_1037">
<rect width="54" height="36" rx="8" fill="white"/>
</clipPath>
</defs>
</svg>
