<svg width="54" height="36" viewBox="0 0 54 36" fill="none" xmlns="http://www.w3.org/2000/svg">
<g clip-path="url(#clip0_95_1180)">
<path d="M0 0H54V12H0V0Z" fill="#EF4444"/>
<path d="M0 12H54V24H0V12Z" fill="#F5F5F5"/>
<path d="M0 24H54V36H0V24Z" fill="#262626"/>
<g clip-path="url(#clip1_95_1180)">
<path d="M21.5877 17.5687H18.905L20.9071 15.5666C21.2308 15.2429 21.2308 14.7173 20.9071 14.3927C20.5825 14.069 20.0578 14.069 19.7331 14.3927L16.9555 17.1703C16.6097 17.5161 16.5073 18.0316 16.6945 18.4844C16.8817 18.9372 17.3188 19.2286 17.8085 19.2286H21.5886C21.8948 19.2286 22.1447 19.4776 22.1447 19.7847C22.1447 20.0918 21.8957 20.3408 21.5886 20.3408H11.83C11.3716 20.3408 11 20.7124 11 21.1708C11 21.6291 11.3716 22.0007 11.83 22.0007H21.5877C22.8096 22.0007 23.8037 21.0066 23.8037 19.7847C23.8037 18.5628 22.8096 17.5687 21.5877 17.5687Z" fill="#22C55E"/>
<path d="M26.7455 20.3401H26.2733C26.1036 20.3401 25.9653 20.2018 25.9653 20.0321V14.9804C25.9653 14.522 25.5937 14.1504 25.1353 14.1504C24.677 14.1504 24.3054 14.522 24.3054 14.9804V20.0321C24.3054 21.1175 25.1879 22.0001 26.2733 22.0001H26.7455C27.2038 22.0001 27.5754 21.6284 27.5754 21.1701C27.5754 20.7118 27.2038 20.3401 26.7455 20.3401Z" fill="#22C55E"/>
<path d="M33.5079 15.0376C33.0496 15.0376 32.6779 15.4092 32.6779 15.8676V20.1438H32.3874V16.8792C32.3874 16.4209 32.0158 16.0492 31.5575 16.0492C31.0991 16.0492 30.7275 16.4209 30.7275 16.8792V20.1438H30.437V18.9403C30.437 18.482 30.0654 18.1103 29.607 18.1103C29.1487 18.1103 28.7771 18.482 28.7771 18.9403V20.5615C28.7771 21.2467 29.3341 21.8037 30.0192 21.8037H33.0938C33.779 21.8037 34.336 21.2467 34.336 20.5615V15.8676C34.336 15.4092 33.9644 15.0376 33.506 15.0376H33.5079Z" fill="#22C55E"/>
<path d="M30.2646 15.6599H30.935C31.3933 15.6599 31.765 15.2883 31.765 14.83C31.765 14.3716 31.3933 14 30.935 14H30.2646C29.8062 14 29.4346 14.3716 29.4346 14.83C29.4346 15.2883 29.8062 15.6599 30.2646 15.6599Z" fill="#22C55E"/>
<path d="M37.4991 20.3401H37.027C36.8573 20.3401 36.719 20.2018 36.719 20.0321V14.9804C36.719 14.522 36.3473 14.1504 35.889 14.1504C35.4307 14.1504 35.059 14.522 35.059 14.9804V20.0321C35.059 21.1175 35.9425 22.0001 37.027 22.0001H37.4991C37.9575 22.0001 38.3291 21.6284 38.3291 21.1701C38.3291 20.7118 37.9575 20.3401 37.4991 20.3401Z" fill="#22C55E"/>
</g>
</g>
<defs>
<clipPath id="clip0_95_1180">
<rect width="54" height="36" rx="8" fill="white"/>
</clipPath>
<clipPath id="clip1_95_1180">
<rect width="27.3291" height="8" fill="white" transform="translate(11 14)"/>
</clipPath>
</defs>
</svg>
