<svg width="54" height="36" viewBox="0 0 54 36" fill="none" xmlns="http://www.w3.org/2000/svg">
<g clip-path="url(#clip0_95_1213)">
<path d="M0 0H54V12H0V0Z" fill="#22C55E"/>
<path d="M0 12H54V24H0V12Z" fill="#F5F5F5"/>
<path d="M0 24H54V36H0V24Z" fill="#EF4444"/>
<path d="M0 10H54V11H0V10Z" fill="#F5F5F5"/>
<path d="M0 25H54V26H0V25Z" fill="#F5F5F5"/>
<path d="M23.2825 20.8486C22.5639 20.1581 22.1859 18.9518 22.2958 17.7011C22.4056 16.4505 22.9888 15.3292 23.8171 14.775C24.11 14.5792 24.1883 14.1825 23.9925 13.8896C23.7967 13.5967 23.4 13.5184 23.1071 13.7142C21.9484 14.4898 21.1694 15.9388 21.0247 17.5896C20.8791 19.2404 21.3925 20.8026 22.3979 21.7697C22.5214 21.8889 22.6814 21.9477 22.8406 21.9477C23.0083 21.9477 23.1761 21.8821 23.3012 21.7519C23.5455 21.4973 23.5379 21.0938 23.2833 20.8494L23.2825 20.8486Z" fill="#EF4444"/>
<path d="M33.182 17.5895C33.0364 15.9387 32.2583 14.4897 31.0996 13.7141C30.8067 13.5175 30.41 13.5966 30.2142 13.8895C30.0184 14.1824 30.0967 14.5791 30.3896 14.7749C31.2179 15.3291 31.8003 16.4504 31.9109 17.701C32.0208 18.9516 31.6428 20.1572 30.9242 20.8485C30.6697 21.0928 30.662 21.4972 30.9064 21.7509C31.0315 21.8812 31.1992 21.9467 31.3669 21.9467C31.5346 21.9467 31.6853 21.8871 31.8096 21.7688C32.8151 20.8025 33.3285 19.2394 33.1829 17.5886L33.182 17.5895Z" fill="#EF4444"/>
<path d="M30.2253 21.7231H29.6608C30.4006 20.8513 30.8646 19.6083 30.8646 18.2292C30.8646 16.7699 30.3538 15.4129 29.4625 14.5062C29.2156 14.255 28.8112 14.2508 28.5592 14.4977C28.3072 14.7446 28.3038 15.149 28.5507 15.401C29.1994 16.0616 29.5868 17.119 29.5868 18.23C29.5868 19.8459 28.8027 21.2089 27.7419 21.6065V14.9531C27.7419 14.6007 27.4558 14.3146 27.1034 14.3146C26.7509 14.3146 26.4648 14.6007 26.4648 14.9531V21.6056C25.4041 21.208 24.62 19.845 24.62 18.2292C24.62 17.119 25.0073 16.0616 25.6561 15.4001C25.9029 15.1481 25.8995 14.7446 25.6475 14.4968C25.3964 14.2499 24.992 14.2533 24.7443 14.5053C23.8529 15.4129 23.3421 16.7699 23.3421 18.2283C23.3421 19.6075 23.8061 20.8505 24.5459 21.7223H23.9814C23.629 21.7223 23.3429 22.0083 23.3429 22.3608C23.3429 22.7132 23.629 22.9993 23.9814 22.9993H30.2253C30.5777 22.9993 30.8638 22.7132 30.8638 22.3608C30.8638 22.0083 30.5777 21.7223 30.2253 21.7223V21.7231Z" fill="#EF4444"/>
<path d="M26.4487 14.277H27.7572C28.1097 14.277 28.3957 13.991 28.3957 13.6385C28.3957 13.2861 28.1097 13 27.7572 13H26.4487C26.0962 13 25.8102 13.2861 25.8102 13.6385C25.8102 13.991 26.0962 14.277 26.4487 14.277Z" fill="#EF4444"/>
</g>
<defs>
<clipPath id="clip0_95_1213">
<rect width="54" height="36" rx="8" fill="white"/>
</clipPath>
</defs>
</svg>
