<svg width="54" height="36" viewBox="0 0 54 36" fill="none" xmlns="http://www.w3.org/2000/svg">
<g clip-path="url(#clip0_97_66)">
<path d="M0 0H54V18H0V0Z" fill="#262626"/>
<path d="M0 18H54V36H0V18Z" fill="#22C55E"/>
<path d="M0 12H54V24H0V12Z" fill="#EF4444"/>
<path fill-rule="evenodd" clip-rule="evenodd" d="M-2.5 9.5H56.5V26.5H-2.5V9.5ZM0 12V24H54V12H0Z" fill="#F5F5F5"/>
<path d="M27.6173 16.9347L32.8312 7.87599L33.3103 8.15171C34.0667 8.5866 35.0104 8.03998 35.0096 7.16779L35.0072 5.65011L35.0048 4.13242C35.004 3.26023 34.0587 2.71602 33.303 3.15332L31.9895 3.91377L30.676 4.67422C29.9212 5.11152 29.9228 6.20236 30.6784 6.63724L31.1575 6.91297L26.5032 14.9998L21.8505 6.91458L22.3296 6.63885C23.086 6.20396 23.0876 5.11313 22.332 4.67583L21.0185 3.91538L19.7058 3.15413C18.9509 2.71683 18.0056 3.26104 18.004 4.13322L18.0016 5.65091L18 7.16859C17.9992 8.04158 18.9429 8.58821 19.6993 8.15252L20.1784 7.87679L25.3923 16.9355L18.1286 29.5536C17.8625 30.0151 18.0217 30.6051 18.4831 30.8712C18.635 30.9588 18.7998 30.9998 18.963 30.9998C19.2966 30.9998 19.6214 30.8262 19.7998 30.5159L26.5032 18.868L33.2066 30.5159C33.385 30.8262 33.7098 30.9998 34.0434 30.9998C34.2066 30.9998 34.3722 30.958 34.5233 30.8712C34.9847 30.6051 35.1439 30.0159 34.8778 29.5536L27.6149 16.9347H27.6173Z" fill="#F5F5F5"/>
<path d="M33.5603 18.5684C33.5603 25.3385 30.4011 30.8273 26.5048 30.8273C24.041 30.8273 21.873 28.6335 20.6117 25.3088C20.4855 24.9752 20.3682 24.6311 20.2604 24.2758C19.742 22.5716 19.4494 20.6295 19.4494 18.5684C19.4494 16.5073 19.742 14.5652 20.2604 12.861C20.3682 12.5057 20.4855 12.1617 20.6117 11.8281C21.873 8.5033 24.041 6.30957 26.5048 6.30957C30.4011 6.30957 33.5603 11.7983 33.5603 18.5684Z" fill="#EF4444"/>
<path d="M26.5048 20.015C27.3039 20.015 27.9518 19.3672 27.9518 18.568C27.9518 17.7689 27.3039 17.1211 26.5048 17.1211C25.7057 17.1211 25.0579 17.7689 25.0579 18.568C25.0579 19.3672 25.7057 20.015 26.5048 20.015Z" fill="#F5F5F5"/>
<path d="M22.2114 18.568C22.2114 20.9924 21.6359 23.2826 20.6117 25.3083C20.4855 24.9747 20.3682 24.6307 20.2604 24.2754C19.742 22.5712 19.4494 20.6291 19.4494 18.568C19.4494 16.5069 19.742 14.5648 20.2604 12.8606C20.3682 12.5053 20.4855 12.1612 20.6117 11.8276C21.6359 13.8534 22.2114 16.1436 22.2114 18.568Z" fill="#262626"/>
<path d="M27.7106 8.97874C27.7106 8.3128 27.1708 7.77295 26.5048 7.77295C25.8389 7.77295 25.299 8.3128 25.299 8.97874V14.732C25.299 15.3979 25.8389 15.9377 26.5048 15.9377C27.1708 15.9377 27.7106 15.3979 27.7106 14.732V8.97874Z" fill="#F5F5F5"/>
<path d="M25.2982 28.1575C25.2982 28.8234 25.8381 29.3633 26.504 29.3633C27.17 29.3633 27.7098 28.8234 27.7098 28.1575V22.4043C27.7098 21.7383 27.17 21.1985 26.504 21.1985C25.8381 21.1985 25.2982 21.7383 25.2982 22.4043V28.1575Z" fill="#F5F5F5"/>
<path d="M30.7982 18.568C30.7982 20.9924 31.3738 23.2826 32.3979 25.3083C32.5241 24.9747 32.6415 24.6307 32.7492 24.2754C33.2677 22.5712 33.5603 20.6291 33.5603 18.568C33.5603 16.5069 33.2677 14.5648 32.7492 12.8606C32.6415 12.5053 32.5241 12.1612 32.3979 11.8276C31.3738 13.8534 30.7982 16.1436 30.7982 18.568Z" fill="#262626"/>
</g>
<defs>
<clipPath id="clip0_97_66">
<rect width="54" height="36" rx="8" fill="white"/>
</clipPath>
</defs>
</svg>
