<svg width="54" height="36" viewBox="0 0 54 36" fill="none" xmlns="http://www.w3.org/2000/svg">
<rect width="54" height="36" rx="8" fill="#EF4444"/>
<path fill-rule="evenodd" clip-rule="evenodd" d="M38.4267 17.3289L34.3511 16.6711C33.7778 16.5822 33.5778 15.8444 34.0356 15.4756L37.24 12.8667C37.84 12.3822 37.2933 11.4311 36.5733 11.7067L32.7067 13.1733C32.1556 13.3733 31.6178 12.84 31.8311 12.2933L33.2978 8.42667C33.5689 7.70667 32.6222 7.16444 32.1378 7.76L29.5289 10.9689C29.16 11.4222 28.4311 11.2311 28.3333 10.6489L27.6711 6.57333C27.5511 5.80889 26.4533 5.80889 26.3289 6.57333L25.6711 10.6489C25.5822 11.2222 24.8444 11.4222 24.4756 10.9689L21.8667 7.76C21.3822 7.16444 20.4311 7.70667 20.7067 8.42667L22.1733 12.2933C22.3733 12.8489 21.84 13.3822 21.2933 13.1733L17.4267 11.7067C16.7067 11.4311 16.1644 12.3822 16.76 12.8667L19.9689 15.4756C20.4267 15.8444 20.2311 16.5733 19.6533 16.6711L15.5733 17.3289C14.8089 17.4533 14.8089 18.5511 15.5733 18.6711L19.6533 19.3333C20.2222 19.4178 20.4267 20.1556 19.9689 20.5244L16.76 23.1378C16.1644 23.6178 16.7067 24.5689 17.4267 24.2978L21.2933 22.8267C21.8489 22.6267 22.3822 23.1644 22.1733 23.7067L20.7067 27.5733C20.4311 28.2933 21.3822 28.84 21.8667 28.24L24.4756 25.0356C24.8444 24.5778 25.5733 24.7689 25.6711 25.3511L26.3289 29.4267C26.4533 30.1911 27.5511 30.1911 27.6711 29.4267L28.3333 25.3511C28.4222 24.7778 29.16 24.5778 29.5289 25.0356L32.1378 28.24C32.6222 28.84 33.5689 28.2933 33.2978 27.5733L31.8311 23.7067C31.6267 23.1556 32.1644 22.6178 32.7067 22.8267L36.5733 24.2978C37.2933 24.5689 37.84 23.6178 37.24 23.1378L34.0356 20.5244C33.5778 20.1556 33.7689 19.4267 34.3511 19.3333L38.4267 18.6711C39.1911 18.5511 39.1911 17.4533 38.4267 17.3289ZM27 23.3778C24.0311 23.3778 21.6222 20.9689 21.6222 18C21.6222 15.0311 24.0311 12.6222 27 12.6222C29.9689 12.6222 32.3778 15.0311 32.3778 18C32.3778 20.9689 29.9689 23.3778 27 23.3778Z" fill="#FBBF24"/>
<path fill-rule="evenodd" clip-rule="evenodd" d="M30.7733 21.7731C30.9422 21.6042 31.0978 21.4265 31.24 21.2354C31.0844 21.4354 30.92 21.622 30.7422 21.7998C30.7511 21.7954 30.7644 21.782 30.7733 21.7731Z" fill="#FBBF24"/>
<path fill-rule="evenodd" clip-rule="evenodd" d="M25.8356 16.9593C25.3733 16.7682 24.8622 16.666 24.3333 16.666C23.9333 16.666 23.5422 16.7238 23.1733 16.8393C23.0578 17.2082 23 17.5949 23 17.9993C23 19.1905 23.52 20.2571 24.3467 20.9905C24.3378 20.8838 24.3333 20.7727 24.3333 20.666C24.3333 19.226 24.9022 17.9193 25.8356 16.9593Z" fill="#FBBF24"/>
<path fill-rule="evenodd" clip-rule="evenodd" d="M27 17.6885C26.1822 18.4174 25.6667 19.484 25.6667 20.6663C25.6667 21.0707 25.7244 21.4574 25.84 21.8263C26.2089 21.9418 26.6 21.9996 27 21.9996C27.4 21.9996 27.7911 21.9418 28.16 21.8263C28.2755 21.4574 28.3333 21.0707 28.3333 20.6663C28.3333 19.484 27.8178 18.4174 27 17.6885Z" fill="#FBBF24"/>
<path fill-rule="evenodd" clip-rule="evenodd" d="M27.0045 16.0444C27.7867 15.5911 28.6978 15.3333 29.6667 15.3333C29.7733 15.3333 29.8845 15.3378 29.9911 15.3467C29.2578 14.52 28.1911 14 27 14C25.8089 14 24.7422 14.52 24.0089 15.3467C24.1156 15.3378 24.2267 15.3333 24.3333 15.3333C25.3067 15.3333 26.2178 15.5911 27.0045 16.0444Z" fill="#FBBF24"/>
<path fill-rule="evenodd" clip-rule="evenodd" d="M28.1689 16.9593C29.0978 17.9193 29.6667 19.226 29.6667 20.666C29.6667 20.7727 29.6622 20.8838 29.6533 20.9905C30.48 20.2571 31 19.1905 31 17.9993C31 17.5949 30.9422 17.2082 30.8267 16.8393C30.4578 16.7238 30.0667 16.666 29.6667 16.666C29.1378 16.666 28.6311 16.7682 28.1689 16.9593Z" fill="#FBBF24"/>
</svg>
