<svg width="54" height="36" viewBox="0 0 54 36" fill="none" xmlns="http://www.w3.org/2000/svg">
<g clip-path="url(#clip0_97_132)">
<path d="M0 0H54V9H0V0Z" fill="#1E3A8A"/>
<path d="M0 9H54V27H0V9Z" fill="#EF4444"/>
<path d="M0 27H54V36H0V27Z" fill="#1E3A8A"/>
<path d="M35.1891 21.4443C34.8956 21.0412 34.7377 20.5559 34.7377 20.0576V18.1121C34.7377 17.1762 34.0505 16.401 33.1527 16.264C32.9905 16.2395 32.8679 16.1046 32.8679 15.9409V15.5638C32.8679 15.258 32.7871 14.9581 32.635 14.6934L32.0876 13.7452L31.8655 13.3601C31.6175 12.9304 30.9966 12.9304 30.7486 13.3601L30.5265 13.7452L29.9792 14.6934C29.8263 14.9581 29.7463 15.258 29.7463 15.5638V15.876C29.7463 16.0599 29.6121 16.2236 29.429 16.2416C29.2191 16.2618 29.0425 16.0974 29.0425 15.8912V15.059C29.0425 14.5276 28.9026 14.0062 28.6372 13.5462L27.9046 12.2778L27.3667 11.3461C27.0999 10.8846 26.4336 10.8846 26.1668 11.3461L25.6288 12.2778L24.8962 13.5462C24.6308 14.0062 24.4909 14.5283 24.4909 15.059V15.876C24.4909 16.0599 24.3568 16.2236 24.1737 16.2416C23.9638 16.2618 23.7872 16.0974 23.7872 15.8912V15.5638C23.7872 15.258 23.7064 14.9581 23.5542 14.6934L23.0069 13.7452L22.7848 13.3601C22.5368 12.9304 21.9159 12.9304 21.6679 13.3601L21.4458 13.7452L20.8985 14.6934C20.7456 14.9581 20.6655 15.258 20.6655 15.5638V15.9597C20.6655 16.1133 20.5509 16.2402 20.3987 16.2618C19.4923 16.3909 18.7958 17.1704 18.7958 18.1129V20.0584C18.7958 20.5566 18.6378 21.0419 18.3444 21.445L17.2497 22.9478C16.6282 23.8015 17.2382 25 18.2939 25H35.2403C36.2967 25 36.9067 23.8015 36.2844 22.9478L35.1898 21.445L35.1891 21.4443Z" fill="#F5F5F5"/>
</g>
<defs>
<clipPath id="clip0_97_132">
<rect width="54" height="36" rx="8" fill="white"/>
</clipPath>
</defs>
</svg>
