<svg width="54" height="36" viewBox="0 0 54 36" fill="none" xmlns="http://www.w3.org/2000/svg">
<g clip-path="url(#clip0_97_261)">
<rect width="54" height="36" rx="8" fill="#EF4444"/>
<path fill-rule="evenodd" clip-rule="evenodd" d="M27.48 9.90957L27.95 12.8496C28.02 13.2696 28.54 13.4096 28.81 13.0796L30.69 10.7696C31.04 10.3396 31.72 10.7296 31.53 11.2496L30.47 14.0296C30.32 14.4196 30.7 14.8096 31.1 14.6596L33.88 13.5996C34.4 13.3996 34.79 14.0896 34.36 14.4396L32.05 16.3196C31.72 16.5896 31.87 17.1196 32.28 17.1796L35.22 17.6496C35.77 17.7396 35.77 18.5296 35.22 18.6196L32.28 19.0896C31.86 19.1596 31.72 19.6796 32.05 19.9496L34.36 21.8296C34.79 22.1796 34.4 22.8596 33.88 22.6696L31.1 21.6096C30.71 21.4596 30.32 21.8396 30.47 22.2396L31.53 25.0196C31.73 25.5396 31.04 25.9296 30.69 25.4996L28.81 23.1896C28.54 22.8596 28.01 23.0096 27.95 23.4196L27.48 26.3596C27.39 26.9096 26.6 26.9096 26.51 26.3596L26.04 23.4196C25.97 22.9996 25.45 22.8596 25.18 23.1896L23.3 25.4996C22.95 25.9296 22.27 25.5396 22.46 25.0196L23.52 22.2396C23.67 21.8496 23.29 21.4596 22.89 21.6096L20.11 22.6696C19.59 22.8696 19.2 22.1796 19.63 21.8296L21.94 19.9496C22.27 19.6796 22.12 19.1496 21.71 19.0896L18.77 18.6196C18.22 18.5296 18.22 17.7396 18.77 17.6496L21.71 17.1796C22.13 17.1096 22.27 16.5896 21.94 16.3196L19.63 14.4396C19.2 14.0896 19.59 13.4096 20.11 13.5996L22.89 14.6596C23.28 14.8096 23.67 14.4296 23.52 14.0296L22.46 11.2496C22.26 10.7296 22.95 10.3396 23.3 10.7696L25.18 13.0796C25.45 13.4096 25.98 13.2596 26.04 12.8496L26.51 9.90957C26.6 9.35957 27.39 9.35957 27.48 9.90957Z" fill="#FBBF24"/>
<path d="M54 17.0596V35.9996H0V17.0596C2.61 17.1296 4.01 18.5496 5.14 19.6996C6.22 20.7996 7.08 21.6696 8.87 21.6696C10.66 21.6696 11.52 20.7996 12.6 19.6996C13.76 18.5196 15.2 17.0596 17.93 17.0596C20.66 17.0596 22.11 18.5196 23.26 19.6996C24.34 20.7996 25.2 21.6696 26.99 21.6696C28.78 21.6696 29.64 20.7996 30.72 19.6996C31.88 18.5196 33.32 17.0596 36.05 17.0596C38.78 17.0596 40.22 18.5196 41.38 19.6996C42.46 20.7996 43.31 21.6696 45.11 21.6696C46.91 21.6696 47.76 20.7996 48.84 19.6996C49.97 18.5496 51.37 17.1296 53.98 17.0596H54Z" fill="#3B82F6"/>
<path d="M54 17.0596V19.2996C52.33 19.3496 51.5 20.1996 50.45 21.2696C49.29 22.4396 47.85 23.9096 45.12 23.9096C42.39 23.9096 40.95 22.4396 39.79 21.2696C38.71 20.1696 37.86 19.2996 36.06 19.2996C34.26 19.2996 33.41 20.1696 32.33 21.2696C31.17 22.4396 29.73 23.9096 27 23.9096C24.27 23.9096 22.82 22.4396 21.67 21.2696C20.59 20.1696 19.73 19.2996 17.94 19.2996C16.15 19.2996 15.29 20.1696 14.21 21.2696C13.05 22.4396 11.61 23.9096 8.87999 23.9096C6.14999 23.9096 4.70999 22.4396 3.54999 21.2696C2.50999 20.2096 1.66999 19.3596 0.00999451 19.2996V17.0596C2.61999 17.1296 4.01999 18.5496 5.14999 19.6996C6.22999 20.7996 7.08999 21.6696 8.87999 21.6696C10.67 21.6696 11.53 20.7996 12.61 19.6996C13.77 18.5196 15.21 17.0596 17.94 17.0596C20.67 17.0596 22.12 18.5196 23.27 19.6996C24.35 20.7996 25.21 21.6696 27 21.6696C28.79 21.6696 29.65 20.7996 30.73 19.6996C31.89 18.5196 33.33 17.0596 36.06 17.0596C38.79 17.0596 40.23 18.5196 41.39 19.6996C42.47 20.7996 43.32 21.6696 45.12 21.6696C46.92 21.6696 47.77 20.7996 48.85 19.6996C49.98 18.5496 51.38 17.1296 53.99 17.0596H54Z" fill="#F5F5F5"/>
<path d="M54 22.9102V25.1602C52.33 25.2102 51.5 26.0602 50.45 27.1202C49.29 28.3002 47.85 29.7602 45.12 29.7602C42.39 29.7602 40.95 28.2902 39.79 27.1202C38.71 26.0202 37.86 25.1502 36.06 25.1502C34.26 25.1502 33.41 26.0202 32.33 27.1202C31.17 28.3002 29.73 29.7602 27 29.7602C24.27 29.7602 22.82 28.2902 21.67 27.1202C20.59 26.0202 19.73 25.1502 17.94 25.1502C16.15 25.1502 15.29 26.0202 14.21 27.1202C13.05 28.3002 11.61 29.7602 8.87999 29.7602C6.14999 29.7602 4.70999 28.2902 3.54999 27.1202C2.50999 26.0602 1.66999 25.2202 0.00999451 25.1602V22.9102C2.61999 22.9802 4.01999 24.4002 5.14999 25.5502C6.22999 26.6502 7.08999 27.5202 8.87999 27.5202C10.67 27.5202 11.53 26.6502 12.61 25.5502C13.77 24.3702 15.21 22.9102 17.94 22.9102C20.67 22.9102 22.12 24.3802 23.27 25.5502C24.35 26.6502 25.21 27.5202 27 27.5202C28.79 27.5202 29.65 26.6502 30.73 25.5502C31.89 24.3702 33.33 22.9102 36.06 22.9102C38.79 22.9102 40.23 24.3802 41.39 25.5502C42.47 26.6502 43.32 27.5202 45.12 27.5202C46.92 27.5202 47.77 26.6502 48.85 25.5502C49.98 24.4002 51.38 22.9802 53.99 22.9102H54Z" fill="#F5F5F5"/>
<path d="M54 28.7695V31.0195C52.33 31.0695 51.5 31.9195 50.45 32.9795C49.29 34.1595 47.85 35.6195 45.12 35.6195C42.39 35.6195 40.95 34.1495 39.79 32.9795C38.71 31.8795 37.86 31.0095 36.06 31.0095C34.26 31.0095 33.41 31.8795 32.33 32.9795C31.17 34.1595 29.73 35.6195 27 35.6195C24.27 35.6195 22.82 34.1495 21.67 32.9795C20.59 31.8795 19.73 31.0095 17.94 31.0095C16.15 31.0095 15.29 31.8795 14.21 32.9795C13.05 34.1595 11.61 35.6195 8.87999 35.6195C6.14999 35.6195 4.70999 34.1495 3.54999 32.9795C2.50999 31.9195 1.66999 31.0795 0.00999451 31.0195V28.7695C2.61999 28.8395 4.01999 30.2595 5.14999 31.4095C6.22999 32.5095 7.08999 33.3795 8.87999 33.3795C10.67 33.3795 11.53 32.5095 12.61 31.4095C13.77 30.2295 15.21 28.7695 17.94 28.7695C20.67 28.7695 22.12 30.2395 23.27 31.4095C24.35 32.5095 25.21 33.3795 27 33.3795C28.79 33.3795 29.65 32.5095 30.73 31.4095C31.89 30.2295 33.33 28.7695 36.06 28.7695C38.79 28.7695 40.23 30.2395 41.39 31.4095C42.47 32.5095 43.32 33.3795 45.12 33.3795C46.92 33.3795 47.77 32.5095 48.85 31.4095C49.98 30.2595 51.38 28.8395 53.99 28.7695H54Z" fill="#F5F5F5"/>
<path d="M23.4 3.74023H30.6C31.4 3.74023 32.04 4.38023 32.04 5.18023C32.04 5.98023 31.4 6.62023 30.6 6.62023H23.4C22.6 6.62023 21.96 5.98023 21.96 5.18023C21.96 4.38023 22.6 3.74023 23.4 3.74023Z" fill="#FBBF24"/>
</g>
<defs>
<clipPath id="clip0_97_261">
<rect width="54" height="36" rx="8" fill="white"/>
</clipPath>
</defs>
</svg>
