<svg width="54" height="36" viewBox="0 0 54 36" fill="none" xmlns="http://www.w3.org/2000/svg">
<path d="M54 0H0V7.2H54V0Z" fill="#1E3A8A"/>
<path d="M54 7.2002H0V9.0002H54V7.2002Z" fill="#F5F5F5"/>
<path d="M54 9H0V27H54V9Z" fill="#EF4444"/>
<path d="M54 27H0V28.8H54V27Z" fill="#F5F5F5"/>
<path d="M54 28.7998H0V35.9998H54V28.7998Z" fill="#1E3A8A"/>
<path d="M14.76 10.4404C10.58 10.4404 7.2 13.8204 7.2 18.0004C7.2 22.1804 10.58 25.5604 14.76 25.5604C18.94 25.5604 22.32 22.1804 22.32 18.0004C22.32 13.8204 18.94 10.4404 14.76 10.4404ZM18.78 17.7704L17.25 18.9404C17.08 19.0704 17.01 19.2804 17.07 19.4804L17.62 21.3204C17.83 22.0204 17.04 22.5904 16.44 22.1704L14.86 21.0804C14.69 20.9604 14.46 20.9604 14.29 21.0804L12.71 22.1704C12.11 22.5804 11.33 22.0104 11.53 21.3204L12.08 19.4804C12.14 19.2804 12.07 19.0704 11.9 18.9404L10.37 17.7704C9.79 17.3304 10.09 16.4104 10.82 16.3904L12.74 16.3404C12.95 16.3404 13.13 16.2004 13.2 16.0104L13.84 14.2004C14.08 13.5104 15.05 13.5104 15.29 14.2004L15.93 16.0104C16 16.2104 16.18 16.3404 16.39 16.3404L18.31 16.3904C19.04 16.4104 19.34 17.3304 18.76 17.7704H18.78Z" fill="#F5F5F5"/>
</svg>
