<svg width="54" height="36" viewBox="0 0 54 36" fill="none" xmlns="http://www.w3.org/2000/svg">
<rect width="54" height="36" rx="8" fill="#EEEEEE"/>
<path fill-rule="evenodd" clip-rule="evenodd" d="M13.65 3.73044C13.3 3.50044 12.83 3.59044 12.6 3.94044L8.4 10.2304C8.31 10.3604 8.27 10.5104 8.27 10.6504C8.27 10.8904 8.39 11.1304 8.61 11.2804C8.96 11.5104 9.43 11.4204 9.66 11.0704L13.86 4.78044C13.95 4.65044 13.99 4.50044 13.99 4.36044C13.99 4.12044 13.87 3.88044 13.65 3.73044ZM15.54 4.99044C15.19 4.76044 14.72 4.85044 14.49 5.20044L10.29 11.4904C10.2 11.6204 10.16 11.7604 10.16 11.9104C10.16 12.1504 10.28 12.3904 10.5 12.5404C10.85 12.7704 11.32 12.6804 11.55 12.3304L15.75 6.04044C15.84 5.91044 15.88 5.77044 15.88 5.62044C15.88 5.37044 15.76 5.14044 15.54 4.99044Z" fill="#262626"/>
<path fill-rule="evenodd" clip-rule="evenodd" d="M42.19 23.6699L40.72 25.8699C40.49 26.2199 40.58 26.6899 40.93 26.9199C41.28 27.1499 41.75 27.0599 41.98 26.7099L43.45 24.5099C43.68 24.1599 43.59 23.6899 43.24 23.4599C42.89 23.2299 42.42 23.3199 42.19 23.6699ZM38.2 31.0099C38.55 31.2399 39.02 31.1499 39.25 30.7999L40.72 28.5999C40.95 28.2499 40.86 27.7799 40.51 27.5499C40.16 27.3199 39.69 27.4099 39.46 27.7599L37.99 29.9599C37.76 30.3099 37.85 30.7799 38.2 31.0099ZM44.08 24.9299L42.61 27.1299C42.38 27.4799 42.47 27.9499 42.82 28.1799C43.17 28.4099 43.64 28.3199 43.87 27.9699L45.34 25.7699C45.57 25.4199 45.48 24.9499 45.13 24.7199C44.78 24.4899 44.31 24.5799 44.08 24.9299ZM40.09 32.2699C40.44 32.4999 40.91 32.4099 41.14 32.0599L42.61 29.8599C42.84 29.5099 42.75 29.0399 42.4 28.8099C42.05 28.5799 41.58 28.6699 41.35 29.0199L39.88 31.2199C39.65 31.5699 39.74 32.0399 40.09 32.2699Z" fill="#262626"/>
<path fill-rule="evenodd" clip-rule="evenodd" d="M34.48 22.95C34.48 22.95 34.44 23.01 34.43 23.03C31.65 27.2 26.01 28.33 21.84 25.55C17.7 22.79 16.56 17.2 19.27 13.04C17.95 15.12 18.52 17.88 20.58 19.25C22.67 20.64 25.48 20.08 26.88 17.99C28.27 15.9 31.09 15.34 33.18 16.73C35.24 18.1 35.81 20.86 34.49 22.94L34.48 22.95Z" fill="#1255AA"/>
<path fill-rule="evenodd" clip-rule="evenodd" d="M34.48 22.9498C35.8 20.8698 35.23 18.1098 33.17 16.7398C31.08 15.3498 28.27 15.9098 26.87 17.9998C25.48 20.0898 22.66 20.6498 20.57 19.2598C18.51 17.8898 17.94 15.1298 19.26 13.0498C19.28 13.0198 19.3 12.9898 19.31 12.9698C22.09 8.79982 27.73 7.66982 31.9 10.4498C36.04 13.2098 37.18 18.7998 34.47 22.9598L34.48 22.9498Z" fill="#EF4444"/>
<path fill-rule="evenodd" clip-rule="evenodd" d="M13.26 27.5499C12.91 27.7799 12.82 28.2499 13.05 28.5999L14.52 30.7999C14.75 31.1499 15.22 31.2399 15.57 31.0099C15.92 30.7799 16.01 30.3099 15.78 29.9599L14.31 27.7599C14.08 27.4099 13.61 27.3199 13.26 27.5499ZM10.53 23.4599C10.18 23.6899 10.09 24.1599 10.32 24.5099L11.79 26.7099C12.02 27.0599 12.49 27.1499 12.84 26.9199C13.19 26.6899 13.28 26.2199 13.05 25.8699L11.58 23.6699C11.35 23.3199 10.88 23.2299 10.53 23.4599ZM8.64001 24.7199C8.29001 24.9499 8.20001 25.4199 8.43001 25.7699L12.63 32.0599C12.86 32.4099 13.33 32.4999 13.68 32.2699C14.03 32.0399 14.12 31.5699 13.89 31.2199L9.69 24.9299C9.46 24.5799 8.99001 24.4899 8.64001 24.7199Z" fill="#262626"/>
<path fill-rule="evenodd" clip-rule="evenodd" d="M38.22 4.99044C37.87 5.22044 37.78 5.69044 38.01 6.04044L42.21 12.3304C42.44 12.6804 42.91 12.7704 43.26 12.5404C43.61 12.3104 43.7 11.8404 43.47 11.4904L39.27 5.20044C39.04 4.85044 38.57 4.76044 38.22 4.99044ZM42.84 7.82044C42.49 8.05044 42.4 8.52044 42.63 8.87044L44.1 11.0704C44.33 11.4204 44.8 11.5104 45.15 11.2804C45.5 11.0504 45.59 10.5804 45.36 10.2304L43.89 8.03044C43.66 7.68044 43.19 7.59044 42.84 7.82044ZM40.11 3.73044C39.76 3.96044 39.67 4.43044 39.9 4.78044L41.37 6.98044C41.6 7.33044 42.07 7.42044 42.42 7.19044C42.77 6.96044 42.86 6.49044 42.63 6.14044L41.16 3.94044C40.93 3.59044 40.46 3.50044 40.11 3.73044Z" fill="#262626"/>
</svg>
