<svg width="54" height="36" viewBox="0 0 54 36" fill="none" xmlns="http://www.w3.org/2000/svg">
<rect width="54" height="36" rx="8" fill="#22D3EE"/>
<path fill-rule="evenodd" clip-rule="evenodd" d="M6.74113 3.21123C7.02277 2.92959 7.47941 2.92959 7.76105 3.21123L9.29095 4.74112C9.57259 5.02277 9.57259 5.47941 9.29095 5.76105L7.76105 7.29094C7.47941 7.57259 7.02277 7.57259 6.74113 7.29094L5.21123 5.76105C4.92959 5.47941 4.92959 5.02277 5.21123 4.74112L6.74113 3.21123ZM5.21123 9.84069L6.74113 8.3108C7.02277 8.02915 7.47941 8.02915 7.76105 8.3108L9.29095 9.84069C9.57259 10.1223 9.57259 10.579 9.29095 10.8606L7.76105 12.3905C7.47941 12.6722 7.02277 12.6722 6.74113 12.3905L5.21123 10.8606C4.92959 10.579 4.92959 10.1223 5.21123 9.84069ZM6.74113 13.4104L5.21123 14.9403C4.92959 15.2219 4.92959 15.6785 5.21123 15.9602L6.74113 17.4901C7.02277 17.7717 7.47941 17.7717 7.76105 17.4901L9.29095 15.9602C9.57259 15.6785 9.57259 15.2219 9.29095 14.9403L7.76105 13.4104C7.47941 13.1287 7.02277 13.1287 6.74113 13.4104ZM5.21123 20.0398L6.74113 18.5099C7.02277 18.2283 7.47941 18.2283 7.76105 18.5099L9.29095 20.0398C9.57259 20.3215 9.57259 20.7781 9.29095 21.0597L7.76105 22.5896C7.47941 22.8713 7.02277 22.8713 6.74113 22.5896L5.21123 21.0597C4.92959 20.7781 4.92959 20.3215 5.21123 20.0398ZM6.74113 23.6104L5.21123 25.1403C4.92959 25.4219 4.92959 25.8786 5.21123 26.1602L6.74113 27.6901C7.02277 27.9718 7.47941 27.9718 7.76105 27.6901L9.29095 26.1602C9.57259 25.8786 9.57259 25.4219 9.29095 25.1403L7.76105 23.6104C7.47941 23.3288 7.02277 23.3288 6.74113 23.6104ZM8.27102 5.25109L7.25109 6.27102L6.23116 5.25109L7.25109 4.23116L8.27102 5.25109ZM5.21123 30.2389L6.74113 28.7091C7.02277 28.4274 7.47941 28.4274 7.76105 28.7091L9.29095 30.2389C9.57259 30.5206 9.57259 30.9772 9.29095 31.2589L7.76105 32.7888C7.47941 33.0704 7.02277 33.0704 6.74113 32.7888L5.21123 31.2589C4.92959 30.9772 4.92959 30.5206 5.21123 30.2389ZM6.23116 10.3507L7.25109 9.33073L8.27102 10.3507L7.25109 11.3706L6.23116 10.3507ZM6.23116 15.4502L7.25109 16.4701L8.27102 15.4502L7.25109 14.4303L6.23116 15.4502ZM6.23116 20.5498L7.25109 19.5299L8.27102 20.5498L7.25109 21.5697L6.23116 20.5498ZM7.25109 24.6303L6.23116 25.6503L7.25109 26.6702L8.27102 25.6503L7.25109 24.6303ZM6.23116 30.7489L7.25109 29.729L8.27102 30.7489L7.25109 31.7688L6.23116 30.7489Z" fill="#FBBF24"/>
<path fill-rule="evenodd" clip-rule="evenodd" d="M31.4481 10.3822L31.8874 13.1001C31.9519 13.4867 32.438 13.6156 32.6841 13.311L34.4238 11.173C34.7459 10.7747 35.3785 11.1378 35.197 11.6182L34.2187 14.1955C34.0782 14.5587 34.4355 14.916 34.8045 14.7813L37.3818 13.803C37.8622 13.6215 38.2253 14.2541 37.827 14.5762L35.689 16.3159C35.3844 16.562 35.5191 17.054 35.8999 17.1126L38.6178 17.5519C39.1274 17.6339 39.1274 18.3661 38.6178 18.4481L35.8999 18.8874C35.5133 18.9519 35.3844 19.438 35.689 19.6841L37.827 21.4238C38.2253 21.7459 37.8622 22.3785 37.3818 22.197L34.8045 21.2187C34.4413 21.0782 34.084 21.4355 34.2187 21.8045L35.197 24.3818C35.3785 24.8622 34.7459 25.2253 34.4238 24.827L32.6841 22.689C32.438 22.3844 31.946 22.5191 31.8874 22.8999L31.4481 25.6178C31.3661 26.1274 30.6339 26.1274 30.5519 25.6178L30.1126 22.8999C30.0481 22.5133 29.562 22.3844 29.3159 22.689L27.5762 24.827C27.2541 25.2253 26.6215 24.8622 26.803 24.3818L27.7813 21.8045C27.9218 21.4413 27.5645 21.084 27.1955 21.2187L24.6182 22.197C24.1378 22.3785 23.7747 21.7459 24.173 21.4238L26.311 19.6841C26.6156 19.438 26.4809 18.946 26.1001 18.8874L23.3822 18.4481C22.8726 18.3661 22.8726 17.6339 23.3822 17.5519L26.1001 17.1126C26.4867 17.0481 26.6156 16.562 26.311 16.3159L24.173 14.5762C23.7747 14.2541 24.1378 13.6215 24.6182 13.803L27.1955 14.7813C27.5587 14.9218 27.916 14.5645 27.7813 14.1955L26.803 11.6182C26.6215 11.1378 27.2541 10.7747 27.5762 11.173L29.3159 13.311C29.562 13.6156 30.054 13.4809 30.1126 13.1001L30.5519 10.3822C30.6339 9.8726 31.3661 9.8726 31.4481 10.3822Z" fill="#FBBF24"/>
</svg>
