<svg width="54" height="36" viewBox="0 0 54 36" fill="none" xmlns="http://www.w3.org/2000/svg">
<g clip-path="url(#clip0_97_640)">
<path d="M0 0H54V9H0V0Z" fill="#EF4444"/>
<path d="M0 9H54V27H0V9Z" fill="#F5F5F5"/>
<path d="M0 27H54V36H0V27Z" fill="#EF4444"/>
<path d="M30.5081 19.3038C31.2514 18.8783 31.5913 17.8932 31.1133 17.0651L29.5984 14.4411L28.0835 11.8171C27.454 10.7276 25.881 10.7276 25.2522 11.8171L23.7373 14.4411L22.2216 17.0644C21.7436 17.8925 22.0835 18.8783 22.8268 19.303L22.2216 20.3509C21.5921 21.4403 22.3786 22.803 23.6376 22.803H25.1784C25.1753 22.8328 25.1737 22.8634 25.1737 22.894V24.1185C25.1737 24.6052 25.5686 25 26.0552 25H27.2797C27.7664 25 28.1612 24.6052 28.1612 24.1185V22.894C28.1612 22.8634 28.1596 22.8328 28.1565 22.803H29.6973C30.9555 22.803 31.742 21.4403 31.1133 20.3509L30.5081 19.303V19.3038Z" fill="#22C55E"/>
</g>
<defs>
<clipPath id="clip0_97_640">
<rect width="54" height="36" rx="8" fill="white"/>
</clipPath>
</defs>
</svg>
