<svg width="54" height="36" viewBox="0 0 54 36" fill="none" xmlns="http://www.w3.org/2000/svg">
<g clip-path="url(#clip0_97_742)">
<path d="M0 0H54V18H0V0Z" fill="#1E3A8A"/>
<path d="M0 18H54V36H0V18Z" fill="#EF4444"/>
<path d="M18.8753 7.48233C18.8181 7.41884 18.7546 7.349 18.6911 7.28552C17.9801 6.57447 17.0341 6.18085 16.0311 6.18085C15.6692 6.18085 15.3137 6.23164 14.9708 6.33322C14.8185 6.28878 14.6661 6.25069 14.5137 6.23164V5.60947C14.5137 5.44441 14.4439 5.29204 14.336 5.17776C14.228 5.06349 14.0757 5 13.9043 5C13.5678 5 13.2948 5.27299 13.2948 5.60947V6.23164C13.1424 6.25704 12.99 6.28878 12.844 6.33322C12.5012 6.23164 12.1393 6.18085 11.7775 6.18085C10.6855 6.18085 9.65065 6.657 8.93325 7.47598C8.33648 8.16163 8.0127 9.03775 8.0127 9.94561C8.0127 10.2821 8.28569 10.5551 8.62217 10.5551H9.88555C9.94269 10.5551 9.99983 10.5487 10.057 10.5487H17.7579C17.815 10.5487 17.8722 10.5487 17.9293 10.5551H19.1927C19.5292 10.5551 19.8022 10.2821 19.8022 9.94561C19.8022 9.03775 19.472 8.16163 18.8816 7.48233H18.8753ZM10.1839 9.33614H9.29513C9.39036 8.94887 9.58081 8.58699 9.84111 8.27591C10.1585 7.90769 10.5712 7.64739 11.022 7.50772C10.5776 8.02831 10.2919 8.66318 10.1776 9.32979L10.1839 9.33614ZM13.2884 9.33614H11.4283C11.5235 8.94887 11.714 8.58699 11.9743 8.27591C12.3234 7.87594 12.7805 7.5966 13.2821 7.47598V9.33614H13.2884ZM14.5074 9.33614V7.47598C14.9518 7.58391 15.3644 7.81246 15.6946 8.14894C15.739 8.19338 15.7771 8.23782 15.8152 8.28226C16.0818 8.58699 16.266 8.94887 16.3612 9.33614H14.501H14.5074ZM17.6119 9.33614C17.5039 8.66318 17.2119 8.02831 16.7675 7.50772C17.1611 7.62835 17.5293 7.8442 17.8277 8.14259C17.8722 8.18703 17.9103 8.23147 17.9484 8.27591C18.215 8.58065 18.3991 8.94252 18.4943 9.32979H17.6055L17.6119 9.33614Z" fill="#FBBF24"/>
<path d="M19.18 11.7812H8.60947C8.27287 11.7812 8 12.0541 8 12.3907C8 12.7273 8.27287 13.0002 8.60947 13.0002H19.18C19.5166 13.0002 19.7895 12.7273 19.7895 12.3907C19.7895 12.0541 19.5166 11.7812 19.18 11.7812Z" fill="#FBBF24"/>
</g>
<defs>
<clipPath id="clip0_97_742">
<rect width="54" height="36" rx="8" fill="white"/>
</clipPath>
</defs>
</svg>
