<svg width="54" height="36" viewBox="0 0 54 36" fill="none" xmlns="http://www.w3.org/2000/svg">
<rect width="54" height="36" rx="8" fill="#FBBF24"/>
<path d="M3.60001 6.47961C3.60001 4.88961 4.89001 3.59961 6.48001 3.59961H10.8V32.3996H6.48001C4.89001 32.3996 3.60001 31.1096 3.60001 29.5196V6.47961Z" fill="#14532D"/>
<path d="M10.8 3.59961H15.12C16.71 3.59961 18 4.88961 18 6.47961V29.5196C18 31.1096 16.71 32.3996 15.12 32.3996H10.8V3.59961Z" fill="#FB923C"/>
<path d="M47.52 3.59961H24.48C22.89 3.59961 21.6 4.88961 21.6 6.47961V29.5196C21.6 31.1096 22.89 32.3996 24.48 32.3996H47.52C49.11 32.3996 50.4 31.1096 50.4 29.5196V6.47961C50.4 4.88961 49.11 3.59961 47.52 3.59961ZM24.48 30.5996C23.88 30.5996 23.4 30.1196 23.4 29.5196C23.4 28.9196 23.88 28.4396 24.48 28.4396C25.08 28.4396 25.56 28.9196 25.56 29.5196C25.56 30.1196 25.08 30.5996 24.48 30.5996ZM24.48 7.19961C23.88 7.19961 23.4 6.71961 23.4 6.11961C23.4 5.51961 23.88 5.03961 24.48 5.03961C25.08 5.03961 25.56 5.51961 25.56 6.11961C25.56 6.71961 25.08 7.19961 24.48 7.19961ZM44.46 17.2596C44.46 17.2596 44.46 17.3296 44.44 17.3696V24.8396C44.44 25.2296 44.13 25.5396 43.74 25.5396H40.54C40.35 25.5396 40.17 25.3896 40.17 25.1896C40.16 24.2396 40.82 23.4396 41.72 23.2496C41.93 23.1996 42.1 23.0196 42.1 22.7996C42.1 22.3796 41.76 22.0396 41.34 22.0396H35.64C35.22 22.0396 34.88 22.3796 34.88 22.7996V24.8396C34.88 25.2296 34.57 25.5396 34.18 25.5396H30.98C30.77 25.5396 30.61 25.3596 30.61 25.1496C30.61 24.2196 31.28 23.4296 32.16 23.2396C32.37 23.1896 32.54 23.0196 32.54 22.7996C32.54 22.3796 32.2 22.0396 31.77 22.0396H28.78V25.1496C28.78 25.3696 28.6 25.5596 28.37 25.5596C28.14 25.5596 27.96 25.3796 27.96 25.1496V22.0296C27.61 22.0096 27.34 21.7196 27.34 21.3596V18.1296C27.34 17.9496 27.48 17.7896 27.66 17.7896C27.77 17.7896 27.87 17.7896 27.97 17.8096V11.7496C27.97 11.5296 28.15 11.3396 28.38 11.3396C28.61 11.3396 28.79 11.5196 28.79 11.7496V18.1296C29.14 18.3596 29.42 18.6996 29.57 19.0996C29.66 19.3496 29.94 19.4896 30.2 19.4196C30.44 19.3596 30.6 19.1196 30.6 18.8696V16.9396C30.6 15.9996 31.18 15.1896 32 14.8496C32.13 14.7996 32.21 14.6696 32.21 14.5296C32.21 14.3396 32.05 14.1796 31.86 14.1796H31.58C31.28 14.1796 31.05 13.9096 31.1 13.6096C31.14 13.3696 31.37 13.1996 31.61 13.1996H31.98C32.11 13.1996 32.21 13.0996 32.21 12.9696C32.21 12.8396 32.11 12.7396 31.98 12.7396H31.58C31.28 12.7396 31.05 12.4696 31.1 12.1696C31.14 11.9296 31.37 11.7596 31.61 11.7596H31.91C32.08 11.7596 32.21 11.6196 32.21 11.4596C32.21 10.8996 32.66 10.4396 33.23 10.4396H35.52C36.49 10.4396 37.28 11.2296 37.28 12.1996V12.9996C37.28 13.9296 38.03 14.6796 38.96 14.6796H43C43.23 14.6796 43.44 14.7396 43.63 14.8296V14.1996C43.63 13.9796 43.45 13.7896 43.22 13.7896H39.52C38.81 13.7896 38.24 13.1796 38.31 12.4496C38.37 11.8196 38.94 11.3496 39.58 11.3496H44.04C44.26 11.3496 44.45 11.5296 44.45 11.7596C44.45 11.9896 44.27 12.1696 44.04 12.1696H39.53C39.31 12.1696 39.12 12.3496 39.12 12.5796C39.12 12.8096 39.3 12.9896 39.53 12.9896H43.23C43.9 12.9896 44.45 13.5296 44.45 14.1996V17.2696L44.46 17.2596ZM47.88 30.5996C47.28 30.5996 46.8 30.1196 46.8 29.5196C46.8 28.9196 47.28 28.4396 47.88 28.4396C48.48 28.4396 48.96 28.9196 48.96 29.5196C48.96 30.1196 48.48 30.5996 47.88 30.5996ZM47.88 7.19961C47.28 7.19961 46.8 6.71961 46.8 6.11961C46.8 5.51961 47.28 5.03961 47.88 5.03961C48.48 5.03961 48.96 5.51961 48.96 6.11961C48.96 6.71961 48.48 7.19961 47.88 7.19961Z" fill="#713F12"/>
</svg>
