<svg width="54" height="36" viewBox="0 0 54 36" fill="none" xmlns="http://www.w3.org/2000/svg">
<g clip-path="url(#clip0_97_919)">
<path d="M0 0H54V12H0V0Z" fill="#3B82F6"/>
<path d="M0 12H54V24H0V12Z" fill="#F5F5F5"/>
<path d="M0 24H54V36H0V24Z" fill="#22C55E"/>
<path d="M31.0648 20.6795L29.5109 17.9875L29.4254 17.8392C29.8397 17.3282 30.0896 16.6786 30.0896 15.9693C30.0879 14.3299 28.7597 13 27.1187 13C25.4776 13 24.151 14.3299 24.151 15.9693C24.151 16.6786 24.4008 17.3282 24.8151 17.8392L24.7297 17.9875L23.1741 20.6795C22.7502 21.413 23.1354 22.3479 23.9511 22.572C26.0257 23.1427 28.2148 23.1427 30.2878 22.572C31.1035 22.3479 31.4888 21.413 31.0648 20.6795ZM28.9724 15.9693C28.9724 16.2482 28.908 16.5125 28.7967 16.7511L28.239 15.7839C28.1004 15.5421 27.9005 15.3712 27.678 15.2649V14.2009C28.4276 14.4379 28.9724 15.1407 28.9724 15.9677V15.9693ZM25.2665 15.9693C25.2665 15.1423 25.8113 14.4395 26.5609 14.2025V15.2665C26.3368 15.3729 26.1386 15.5437 25.9999 15.7855L25.4422 16.7527C25.331 16.5141 25.2665 16.2498 25.2665 15.9709V15.9693Z" fill="#262626"/>
</g>
<defs>
<clipPath id="clip0_97_919">
<rect width="54" height="36" rx="8" fill="white"/>
</clipPath>
</defs>
</svg>
