<svg width="54" height="36" viewBox="0 0 54 36" fill="none" xmlns="http://www.w3.org/2000/svg">
<rect width="54" height="36" rx="8" fill="#EF4444"/>
<path d="M28.0518 13.5951L28.792 15.6949C28.8726 15.9224 29.0837 16.0758 29.3254 16.0824L31.5514 16.1379C32.3928 16.1586 32.7389 17.2264 32.0706 17.7369L30.3029 19.0899C30.1113 19.2358 30.0307 19.485 30.0993 19.7169L30.735 21.8503C30.9756 22.6569 30.0667 23.3166 29.3744 22.8387L27.5413 21.575C27.3432 21.4378 27.0809 21.4378 26.8828 21.575L25.0498 22.8387C24.3575 23.3166 23.4497 22.6569 23.6891 21.8503L24.3248 19.7169C24.3934 19.4861 24.3128 19.2369 24.1213 19.0899L22.3514 17.7369C21.683 17.2253 22.0302 16.1586 22.8706 16.1379L25.0966 16.0824C25.3371 16.0769 25.5494 15.9224 25.6299 15.6949L26.3701 13.5951C26.6499 12.8016 27.7721 12.8016 28.0518 13.5951Z" fill="#22C55E"/>
<path fill-rule="evenodd" clip-rule="evenodd" d="M28.792 15.6949L28.0518 13.5951C27.7721 12.8016 26.6499 12.8016 26.3701 13.5951L25.6299 15.6949C25.5494 15.9224 25.3371 16.0769 25.0966 16.0824L22.8706 16.1379C22.0302 16.1586 21.683 17.2253 22.3514 17.7369L24.1213 19.0899C24.3128 19.2369 24.3934 19.4861 24.3248 19.7169L23.6891 21.8503C23.4497 22.6569 24.3575 23.3166 25.0498 22.8387L26.8828 21.575C27.0809 21.4378 27.3432 21.4378 27.5413 21.575L29.3744 22.8387C30.0667 23.3166 30.9756 22.6569 30.735 21.8503L30.0993 19.7169C30.0307 19.485 30.1113 19.2358 30.3029 19.0899L32.0706 17.7369C32.7389 17.2264 32.3928 16.1586 31.5514 16.1379L29.3254 16.0824C29.0837 16.0758 28.8726 15.9224 28.792 15.6949ZM28.1096 20.7521C27.5694 20.3788 26.8547 20.3788 26.3146 20.7521C26.3142 20.7523 26.3139 20.7525 26.3136 20.7528L24.7354 21.8408L25.2832 20.0024C25.4697 19.3749 25.2506 18.6959 24.7299 18.2964L23.2039 17.1299L25.1192 17.0821C25.1197 17.0821 25.1202 17.0821 25.1207 17.0821M27.211 14.2177L27.8489 16.0273L27.8494 16.0286C28.0682 16.6467 28.6438 17.0643 29.2984 17.082L31.2184 17.1299L29.6971 18.2943C29.6967 18.2946 29.6963 18.2949 29.6959 18.2952C29.1713 18.6953 28.9554 19.3752 29.1404 20.0005L29.6887 21.8408L28.1105 20.7528C28.1102 20.7525 28.1099 20.7523 28.1096 20.7521" fill="#22C55E"/>
</svg>
