<svg width="54" height="36" viewBox="0 0 54 36" fill="none" xmlns="http://www.w3.org/2000/svg">
<g clip-path="url(#clip0_97_1191)">
<path d="M0 0H18V36H0V0Z" fill="#1E3A8A"/>
<path d="M18 0H36V36H18V0Z" fill="#FBBF24"/>
<path d="M36 0H54V36H36V0Z" fill="#EF4444"/>
<path d="M32.6051 9C31.8348 9 31.2101 9.6247 31.2101 10.3949V12.2305C31.2101 12.8834 30.7678 13.4534 30.135 13.6151C29.1163 13.8757 28.1252 13.106 28.1252 12.0545V10.7361V10.1252C28.1252 9.5039 27.6213 9 27 9H26.4052C25.9301 9 25.5355 9.34111 25.4503 9.79152C25.0224 9.89334 24.7031 10.2776 24.7031 10.7366H25.3767C25.6517 10.7366 25.8748 10.9598 25.8748 11.2348V12.0551C25.8748 13.1066 24.8837 13.8757 23.865 13.6157C23.2322 13.454 22.7899 12.884 22.7899 12.2311V10.3955C22.7899 9.62528 22.1652 9.00058 21.3949 9.00058C20.6247 9 20 9.6247 20 10.3949V25.0547C20 25.825 20.6247 26.4497 21.3949 26.4497C22.1652 26.4497 22.7899 25.825 22.7899 25.0547V17.8879C22.7899 17.6941 23.0343 17.6147 23.1523 17.7688C23.1546 17.7717 23.1563 17.774 23.1586 17.7769C23.464 18.1721 23.6297 18.657 23.6297 19.1569V21.115C23.6297 21.4923 23.9248 21.8156 24.3022 21.8225C24.6795 21.8294 24.9999 21.5199 24.9999 21.1374V20.4362C24.9999 20.3459 25.1144 20.3068 25.1696 20.3781C25.7333 21.1069 25.765 22.1159 25.2478 22.8786L24.7836 23.5632C24.3781 24.1614 24.5219 24.9736 25.1081 25.3958L26.2188 26.1966C26.6853 26.5331 27.3147 26.5331 27.7812 26.1966L28.8919 25.3958C29.4781 24.973 29.6219 24.1608 29.2164 23.5632L28.7522 22.8786C28.235 22.1159 28.2667 21.1069 28.8304 20.3781C28.8856 20.3068 29.0001 20.3459 29.0001 20.4362V21.115C29.0001 21.4923 29.2952 21.8156 29.6725 21.8225C30.0568 21.8294 30.3703 21.5199 30.3703 21.1374V19.1563C30.3703 18.657 30.536 18.1715 30.8414 17.7763C30.8414 17.7763 30.8454 17.7711 30.8477 17.7683C30.9657 17.6141 31.2101 17.6935 31.2101 17.8873V25.0542C31.2101 25.8244 31.8348 26.4491 32.6051 26.4491C33.3753 26.4491 34 25.8244 34 25.0542V10.3949C34 9.6247 33.3753 9 32.6051 9Z" fill="#A16207"/>
<path d="M31.4801 13.6525V17.3715H22.5201V13.6525C22.5201 13.0409 23.1112 12.5449 23.8405 12.5449H30.1596C30.8889 12.5449 31.4801 13.0409 31.4801 13.6525Z" fill="#EF4444"/>
<path d="M31.4801 17.0244V18.3887C31.4801 19.3654 30.9682 20.2831 30.1052 20.8622L27.0001 22.2511L23.8949 20.8622C23.0319 20.2831 22.5201 19.3654 22.5201 18.3887V17.0244H31.4801Z" fill="#1E3A8A"/>
<path fill-rule="evenodd" clip-rule="evenodd" d="M30.7023 13.6525C30.7023 13.6106 30.684 13.5412 30.5935 13.4653C30.5013 13.3879 30.3504 13.3227 30.1596 13.3227H23.8405C23.6497 13.3227 23.4988 13.3879 23.4067 13.4653C23.3161 13.5412 23.2978 13.6106 23.2978 13.6525V18.3891C23.2978 19.0678 23.6442 19.7346 24.2771 20.1814L27.0001 21.3994L29.7231 20.1814C30.356 19.7346 30.7023 19.0678 30.7023 18.3891V13.6525ZM30.1053 20.8625L27.0001 22.2514L23.8949 20.8625C23.0319 20.2834 22.5201 19.3657 22.5201 18.3891V13.6525C22.5201 13.0409 23.1112 12.5449 23.8405 12.5449H30.1596C30.8889 12.5449 31.4801 13.0409 31.4801 13.6525V18.3891C31.4801 19.3657 30.9682 20.2834 30.1053 20.8625Z" fill="#FBBF24"/>
<path d="M27.3927 15.3823L27.6691 16.1662C27.6991 16.2512 27.778 16.3085 27.8682 16.3109L28.6992 16.3316C29.0134 16.3394 29.1426 16.738 28.8931 16.9286L28.2331 17.4337C28.1616 17.4882 28.1315 17.5812 28.1571 17.6678L28.3944 18.4643C28.4843 18.7654 28.1449 19.0117 27.8865 18.8333L27.2021 18.3615C27.1282 18.3103 27.0302 18.3103 26.9563 18.3615L26.272 18.8333C26.0135 19.0117 25.6746 18.7654 25.764 18.4643L26.0013 17.6678C26.0269 17.5816 25.9968 17.4886 25.9253 17.4337L25.2645 16.9286C25.015 16.7376 25.1447 16.3394 25.4584 16.3316L26.2894 16.3109C26.3792 16.3089 26.4585 16.2512 26.4885 16.1662L26.7649 15.3823C26.8693 15.0861 27.2883 15.0861 27.3927 15.3823Z" fill="#FBBF24"/>
</g>
<defs>
<clipPath id="clip0_97_1191">
<rect width="54" height="36" rx="8" fill="white"/>
</clipPath>
</defs>
</svg>
