<svg width="54" height="36" viewBox="0 0 54 36" fill="none" xmlns="http://www.w3.org/2000/svg">
<rect x="1.25" y="1.25" width="51.5" height="33.5" rx="6.75" fill="#EF4444"/>
<rect x="1.25" y="1.25" width="51.5" height="33.5" rx="6.75" stroke="#FBBF24" stroke-width="2.5"/>
<path d="M31.7263 21.278C36.2967 20.264 39.7244 16.1782 39.7244 11.3074C39.7244 9.90491 38.5816 8.76995 37.1769 8.78133C35.7858 8.79272 34.6822 9.95472 34.6722 11.3459C34.6601 12.9547 33.9087 14.3907 32.741 15.33C32.0237 15.9063 30.9571 15.3855 30.9571 14.4654V12.182C30.9571 11.8418 31.2332 11.5657 31.5733 11.5657H32.4065C32.4065 10.9972 32.0123 10.5226 31.4822 10.3966C31.3769 9.83945 30.8888 9.41748 30.301 9.41748H29.5652C28.7967 9.41748 28.1734 10.0408 28.1734 10.8093V12.8103C28.1734 13.2579 27.8105 13.6215 27.3622 13.6215C26.9139 13.6215 26.551 13.2586 26.551 12.8103V10.8093C26.551 10.0408 25.9277 9.41748 25.1592 9.41748H24.4234C23.8356 9.41748 23.3475 9.83945 23.2422 10.3966C22.7128 10.5226 22.3178 10.9979 22.3178 11.5657H23.1511C23.4912 11.5657 23.7673 11.8418 23.7673 12.182V14.4654C23.7673 15.3855 22.7007 15.9063 21.9834 15.33C20.8157 14.3907 20.0643 12.9547 20.0522 11.3459C20.0422 9.95472 18.9379 8.79343 17.5474 8.78133C16.1428 8.76995 15 9.90491 15 11.3074C15 16.1782 18.4277 20.264 22.9981 21.278C23.5218 21.394 23.7054 22.0472 23.3268 22.4265L22.0368 23.7166C21.5365 24.2168 21.5365 25.0273 22.0368 25.5275C22.2865 25.778 22.6146 25.9032 22.9419 25.9032C23.2692 25.9032 23.598 25.778 23.8477 25.5275L24.6689 24.7064C25.0652 24.31 25.7555 24.5883 25.7469 25.149C25.7391 25.6506 25.5889 26.1516 25.2936 26.5871L24.7194 27.4338C24.2177 28.1739 24.3956 29.1786 25.1207 29.7009L26.4948 30.6914C26.7545 30.8793 27.0569 30.9825 27.3622 31.0003C27.6675 30.9825 27.9699 30.8793 28.2296 30.6914L29.6037 29.7009C30.3287 29.1786 30.5066 28.1739 30.005 27.4338L29.4307 26.5871C29.1354 26.1516 28.9846 25.6506 28.9775 25.149C28.9689 24.5883 29.6592 24.31 30.0555 24.7064L30.8767 25.5275C31.1264 25.778 31.4545 25.9032 31.7825 25.9032C32.1105 25.9032 32.4379 25.778 32.6876 25.5275C33.1879 25.0273 33.1879 24.2168 32.6876 23.7166L31.3975 22.4265C31.0183 22.0472 31.2026 21.394 31.7263 21.278Z" fill="#FBBF24"/>
<path d="M25.9604 8.78134H28.7647C29.2564 8.78134 29.6549 8.38286 29.6549 7.89116C29.6549 7.39946 29.2564 7.00098 28.7647 7.00098H25.9604C25.4687 7.00098 25.0702 7.39946 25.0702 7.89116C25.0702 8.38286 25.4687 8.78134 25.9604 8.78134Z" fill="#FBBF24"/>
<path d="M32.2 15.8856V20.2006H22.6V15.8856C22.6 15.1761 23.2334 14.6006 24.0148 14.6006H30.7852C31.5666 14.6006 32.2 15.1761 32.2 15.8856Z" fill="#3B82F6"/>
<path fill-rule="evenodd" clip-rule="evenodd" d="M31.45 19.4506V15.8856C31.45 15.6565 31.2218 15.3506 30.7852 15.3506H24.0148C23.5781 15.3506 23.35 15.6565 23.35 15.8856V19.4506H31.45ZM32.2 15.8856C32.2 15.1761 31.5666 14.6006 30.7852 14.6006H24.0148C23.2334 14.6006 22.6 15.1761 22.6 15.8856V20.2006H32.2V15.8856Z" fill="#FBBF24"/>
<path d="M32.2 19.8008V21.4714C32.2 22.6673 31.6516 23.791 30.727 24.5001L27.4 26.2008L24.073 24.5001C23.1484 23.791 22.6 22.6673 22.6 21.4714V19.8008H32.2Z" fill="#22C55E"/>
<path fill-rule="evenodd" clip-rule="evenodd" d="M31.45 21.4714V20.5508H23.35V21.4714C23.35 22.4174 23.7741 23.2995 24.4787 23.8652L27.4 25.3585L30.3212 23.8652C31.0258 23.2995 31.45 22.4174 31.45 21.4714ZM30.727 24.5001L27.4 26.2008L24.073 24.5001C23.1484 23.791 22.6 22.6673 22.6 21.4714V19.8008H32.2V21.4714C32.2 22.6673 31.6516 23.791 30.727 24.5001Z" fill="#FBBF24"/>
</svg>
