<svg width="54" height="36" viewBox="0 0 54 36" fill="none" xmlns="http://www.w3.org/2000/svg">
<g clip-path="url(#clip0_97_1381)">
<rect width="54" height="36" rx="8" fill="#EF4444"/>
<path d="M27 9.36C27.45 9.36 27.88 9.39 28.31 9.46L30.38 0H23.62L25.69 9.46C26.12 9.39 26.55 9.36 27 9.36Z" fill="#FBBF24"/>
<path d="M27 26.64C26.55 26.64 26.12 26.61 25.69 26.54L23.62 36H30.38L28.31 26.54C27.88 26.61 27.45 26.64 27 26.64Z" fill="#FBBF24"/>
<path d="M35.64 18.0004C35.64 18.3904 35.61 18.7704 35.56 19.1404L54 21.6004V14.4004L35.56 16.8604C35.61 17.2304 35.64 17.6104 35.64 18.0004Z" fill="#FBBF24"/>
<path d="M20.98 11.82L8.1 0H0L19.82 13.21C20.16 12.7 20.54 12.24 20.98 11.82Z" fill="#FBBF24"/>
<path d="M54 0H45.9L33.02 11.82C33.46 12.24 33.84 12.7 34.18 13.21L54 0Z" fill="#FBBF24"/>
<path d="M18.36 18.0004C18.36 17.6104 18.39 17.2304 18.44 16.8604L0 14.4004V21.6004L18.44 19.1404C18.39 18.7704 18.36 18.3904 18.36 18.0004Z" fill="#FBBF24"/>
<path d="M0 36H8.1L20.98 24.18C20.54 23.76 20.16 23.3 19.82 22.79L0 36Z" fill="#FBBF24"/>
<path d="M33.02 24.18L45.9 36H54L34.18 22.79C33.84 23.3 33.46 23.76 33.02 24.18Z" fill="#FBBF24"/>
<path d="M27 24.4795C30.5788 24.4795 33.48 21.5783 33.48 17.9995C33.48 14.4207 30.5788 11.5195 27 11.5195C23.4212 11.5195 20.52 14.4207 20.52 17.9995C20.52 21.5783 23.4212 24.4795 27 24.4795Z" fill="#FBBF24"/>
</g>
<defs>
<clipPath id="clip0_97_1381">
<rect width="54" height="36" rx="8" fill="white"/>
</clipPath>
</defs>
</svg>
