<svg width="54" height="36" viewBox="0 0 54 36" fill="none" xmlns="http://www.w3.org/2000/svg">
<g clip-path="url(#clip0_97_1360)">
<path d="M0 0H54V12H0V0Z" fill="#FBBF24"/>
<path d="M0 12H54V24H0V12Z" fill="#22C55E"/>
<path d="M0 24H54V36H0V24Z" fill="#EF4444"/>
<path d="M29.1037 9.19028L30.5841 13.3897C30.7451 13.8447 31.1675 14.1517 31.6508 14.1647L36.1028 14.2758C37.7856 14.3171 38.4779 16.4528 37.1412 17.4738L33.6057 20.1798C33.2226 20.4715 33.0615 20.9701 33.1986 21.4338L34.47 25.7007C34.9511 27.3139 33.1333 28.6331 31.7487 27.6774L28.0827 25.1499C27.6865 24.8756 27.1618 24.8756 26.7656 25.1499L23.0995 27.6774C21.7149 28.6331 19.8993 27.3139 20.3782 25.7007L21.6496 21.4338C21.7868 20.9722 21.6257 20.4737 21.2425 20.1798L17.7027 17.4738C16.366 16.4506 17.0605 14.3171 18.7411 14.2758L23.1931 14.1647C23.6742 14.1539 24.0987 13.8447 24.2598 13.3897L25.7402 9.19028C26.2997 7.60324 28.5442 7.60324 29.1037 9.19028Z" fill="#F5F5F5"/>
</g>
<defs>
<clipPath id="clip0_97_1360">
<rect width="54" height="36" rx="8" fill="white"/>
</clipPath>
</defs>
</svg>
