<svg width="54" height="36" viewBox="0 0 54 36" fill="none" xmlns="http://www.w3.org/2000/svg">
<g clip-path="url(#clip0_97_1478)">
<path d="M0 0H18V36H0V0Z" fill="#EF4444"/>
<path d="M18 0H36V36H18V0Z" fill="#1E3A8A"/>
<path d="M36 0H54V36H36V0Z" fill="#EF4444"/>
<path d="M6.01748 19.7861C6.01748 18.9528 5.34199 18.2773 4.50874 18.2773C3.67549 18.2773 3 18.9528 3 19.7861V29.5959C3 30.4292 3.67549 31.1047 4.50874 31.1047C5.34199 31.1047 6.01748 30.4292 6.01748 29.5959V19.7861Z" fill="#FBBF24"/>
<path d="M15 19.7861C15 18.9528 14.3245 18.2773 13.4913 18.2773C12.658 18.2773 11.9825 18.9528 11.9825 19.7861V29.5959C11.9825 30.4292 12.658 31.1047 13.4913 31.1047C14.3245 31.1047 15 30.4292 15 29.5959V19.7861Z" fill="#FBBF24"/>
<path d="M10.399 28.0527H7.60035C6.99613 28.0527 6.50618 28.5427 6.50618 29.1469C6.50618 29.7511 6.99613 30.2411 7.60035 30.2411H10.399C11.0032 30.2411 11.4932 29.7511 11.4932 29.1469C11.4932 28.5427 11.0032 28.0527 10.399 28.0527Z" fill="#FBBF24"/>
<path d="M11.4938 25.0589C11.4938 23.6818 10.3775 22.5654 9.00034 22.5654C7.62323 22.5654 6.50685 23.6818 6.50685 25.0589C6.50685 26.436 7.62323 27.5524 9.00034 27.5524C10.3775 27.5524 11.4938 26.436 11.4938 25.0589Z" fill="#FBBF24"/>
<path d="M11.2488 14.2491C11.2488 13.007 10.2419 12 8.99971 12C7.75755 12 6.75058 13.007 6.75058 14.2491C6.75058 15.4913 7.75755 16.4983 8.99971 16.4983C10.2419 16.4983 11.2488 15.4913 11.2488 14.2491Z" fill="#FBBF24"/>
<path d="M6.70801 17.9223L7.26725 18.4007L8.40701 19.3751C8.7225 19.645 9.27688 19.645 9.59237 19.3751L10.7321 18.4007L11.2914 17.9223C11.7461 17.5339 11.3826 16.9199 10.6987 16.9199H7.30069C6.61683 16.9199 6.25332 17.5339 6.70801 17.9223Z" fill="#FBBF24"/>
<path d="M10.399 19.874H7.60035C6.99613 19.874 6.50618 20.364 6.50618 20.9682C6.50618 21.5724 6.99613 22.0624 7.60035 22.0624H10.399C11.0032 22.0624 11.4932 21.5724 11.4932 20.9682C11.4932 20.364 11.0032 19.874 10.399 19.874Z" fill="#FBBF24"/>
</g>
<defs>
<clipPath id="clip0_97_1478">
<rect width="54" height="36" rx="8" fill="white"/>
</clipPath>
</defs>
</svg>
