<svg width="54" height="36" viewBox="0 0 54 36" fill="none" xmlns="http://www.w3.org/2000/svg">
<g clip-path="url(#clip0_97_1537)">
<path d="M0 0H54V5.14286H0V0Z" fill="#EF4444"/>
<path d="M0 5.14258H54V10.2854H0V5.14258Z" fill="#14532D"/>
<path d="M0 10.2861H54V15.429H0V10.2861Z" fill="#14532D"/>
<path d="M0 15.4287H54V20.5716H0V15.4287Z" fill="#14532D"/>
<path d="M0 20.5713H54V25.7141H0V20.5713Z" fill="#14532D"/>
<path d="M0 25.7139H54V30.8567H0V25.7139Z" fill="#14532D"/>
<path d="M0 30.8574H54V36.0003H0V30.8574Z" fill="#EF4444"/>
<path d="M38.0972 13.111C38.0695 12.8674 37.7152 12.8607 37.6801 13.1036C36.8953 18.5283 32.227 22.6966 26.5848 22.6966C20.9426 22.6966 16.2743 18.5283 15.4896 13.1036C15.4544 12.8607 15.1002 12.8674 15.0725 13.111C15.0239 13.5438 15 13.9788 15 14.4153C15 20.8131 20.187 26.0001 26.5848 26.0001C32.9826 26.0001 38.1697 20.8131 38.1697 14.4153C38.1704 13.9788 38.1457 13.5438 38.0972 13.111Z" fill="#FBBF24"/>
<path d="M27.0946 8.37809L27.5709 9.71204C27.6227 9.85657 27.7586 9.95407 27.9141 9.95822L29.3463 9.99349C29.8877 10.0066 30.1104 10.685 29.6804 11.0093L28.543 11.8689C28.4197 11.9616 28.3679 12.1199 28.412 12.2672L28.821 13.6226C28.9758 14.135 28.391 14.5541 27.9456 14.2505L26.7662 13.4476C26.6387 13.3605 26.4699 13.3605 26.3424 13.4476L25.163 14.2505C24.7176 14.5541 24.1335 14.135 24.2876 13.6226L24.6966 12.2672C24.7407 12.1206 24.6889 11.9623 24.5656 11.8689L23.4268 11.0093C22.9968 10.6843 23.2202 10.0066 23.7609 9.99349L25.1931 9.95822C25.3479 9.95476 25.4845 9.85657 25.5363 9.71204L26.0126 8.37809C26.1926 7.87397 26.9146 7.87397 27.0946 8.37809Z" fill="#FBBF24"/>
</g>
<defs>
<clipPath id="clip0_97_1537">
<rect width="54" height="36" rx="8" fill="white"/>
</clipPath>
</defs>
</svg>
