<svg width="54" height="36" viewBox="0 0 54 36" fill="none" xmlns="http://www.w3.org/2000/svg">
<g clip-path="url(#clip0_97_1609)">
<path d="M0 0H27V36H0V0Z" fill="#F5F5F5"/>
<path d="M27 0H54V36H27V0Z" fill="#EF4444"/>
<path d="M11.8932 17.9963H10.1068C8.90608 17.9963 7.93002 17.0203 7.93002 15.8195V14.0663H6.1768C4.97606 14.0663 4 13.0902 4 11.8895V10.1031C4 9.52118 4.22836 8.97238 4.6372 8.56354C4.91344 8.28729 5.2523 8.09576 5.62431 8V7.93002H7.92634V6.1768C7.92634 4.97606 8.90239 4 10.1031 4H11.8895C12.4715 4 13.0203 4.22836 13.4291 4.6372C13.7053 4.91344 13.8969 5.2523 13.9926 5.62431H14.0626V7.92634H15.8158C17.0203 7.92634 18 8.90239 18 10.1031V11.8895C18 13.0902 17.0239 14.0663 15.8232 14.0663H14.07V15.8195C14.07 17.0203 13.0939 17.9963 11.8932 17.9963ZM6.1326 9.03499C5.86372 9.04604 5.61326 9.15286 5.42173 9.34438C5.21915 9.54696 5.10866 9.81584 5.10866 10.1031V11.8895C5.10866 12.4788 5.59116 12.9613 6.18048 12.9613H7.96685C8.55617 12.9613 9.03867 13.4438 9.03867 14.0332V15.8195C9.03867 16.4088 9.52118 16.8913 10.1105 16.8913H11.8969C12.4862 16.8913 12.9687 16.4088 12.9687 15.8195V14.0332C12.9687 13.4438 13.4512 12.9613 14.0405 12.9613H15.8269C16.4162 12.9613 16.8987 12.4788 16.8987 11.8895V10.1031C16.8987 9.51381 16.4162 9.03131 15.8269 9.03131H14.0368C13.4475 9.03131 12.965 8.5488 12.965 7.95949V6.12891C12.954 5.86004 12.8435 5.60958 12.6519 5.41805C12.4494 5.21547 12.1805 5.10497 11.8932 5.10497H10.1068C9.5175 5.10497 9.03499 5.58748 9.03499 6.1768V7.96317C9.03499 8.55249 8.55249 9.03499 7.96317 9.03499H6.13628H6.1326Z" fill="#EF4444"/>
<path d="M11.0018 14.6819C8.97236 14.6819 7.31859 13.0281 7.31859 10.9987C7.31859 8.9692 8.97236 7.31543 11.0018 7.31543C13.0313 7.31543 14.6851 8.9692 14.6851 10.9987C14.6851 13.0281 13.0313 14.6819 11.0018 14.6819ZM11.0018 8.4204C9.5801 8.4204 8.42356 9.57694 8.42356 10.9987C8.42356 12.4204 9.5801 13.5769 11.0018 13.5769C12.4236 13.5769 13.5801 12.4204 13.5801 10.9987C13.5801 9.57694 12.4236 8.4204 11.0018 8.4204Z" fill="#D4D4D4"/>
</g>
<defs>
<clipPath id="clip0_97_1609">
<rect width="54" height="36" rx="8" fill="white"/>
</clipPath>
</defs>
</svg>
