<svg width="54" height="36" viewBox="0 0 54 36" fill="none" xmlns="http://www.w3.org/2000/svg">
<rect x="3.5" y="3.5" width="47" height="29" rx="4.5" fill="#22C55E"/>
<rect x="3.5" y="3.5" width="47" height="29" rx="4.5" stroke="#DC2626" stroke-width="7"/>
<path d="M31.7233 23.8401C31.7233 23.8401 31.7316 23.8401 31.7349 23.8401C32.0134 23.8401 32.1017 24.2166 31.85 24.3365C30.958 24.7619 29.9627 25 28.9124 25C25.0978 25 21.9817 21.8292 22.0001 17.9645C22.0184 14.0999 25.1061 11 28.9124 11C29.9644 11 30.9614 11.2381 31.8533 11.6635C32.1034 11.7834 32.0134 12.1599 31.7366 12.1599C31.7316 12.1599 31.7283 12.1599 31.7233 12.1599C28.5389 12.1599 25.9564 14.7735 25.9564 18C25.9564 21.2265 28.5389 23.8401 31.7233 23.8401Z" fill="#F5F5F5"/>
</svg>
