<svg width="54" height="36" viewBox="0 0 54 36" fill="none" xmlns="http://www.w3.org/2000/svg">
<g clip-path="url(#clip0_97_1768)">
<path d="M0 0H18V36H0V0Z" fill="#22C55E"/>
<path d="M18 0H36V36H18V0Z" fill="#F5F5F5"/>
<path d="M36 0H54V36H36V0Z" fill="#EF4444"/>
<path d="M27.0002 24.7655C25.4057 24.7655 23.8926 24.2589 22.6232 23.2996C21.3974 22.3724 20.4797 21.0548 20.0402 19.5889C19.8899 19.089 20.1744 18.5625 20.6744 18.4122C21.1743 18.262 21.7008 18.5465 21.8511 19.0464C22.5268 21.3006 24.6439 22.8752 27.0002 22.8752C29.3564 22.8752 31.4735 21.3006 32.1493 19.0464C32.2996 18.5465 32.826 18.2629 33.326 18.4122C33.826 18.5625 34.1095 19.089 33.9602 19.5889C33.5207 21.0548 32.603 22.3733 31.3771 23.2996C30.1087 24.2579 28.5946 24.7655 27.0002 24.7655Z" fill="#22C55E"/>
<path d="M27.0006 21.3336C29.578 21.3336 31.6674 19.2442 31.6674 16.6668C31.6674 14.0894 29.578 12 27.0006 12C24.4233 12 22.3339 14.0894 22.3339 16.6668C22.3339 19.2442 24.4233 21.3336 27.0006 21.3336Z" fill="#713F12"/>
</g>
<defs>
<clipPath id="clip0_97_1768">
<rect width="54" height="36" rx="8" fill="white"/>
</clipPath>
</defs>
</svg>
