<svg width="54" height="36" viewBox="0 0 54 36" fill="none" xmlns="http://www.w3.org/2000/svg">
<g clip-path="url(#clip0_97_1801)">
<path d="M0 0H54V2.57143H0V0Z" fill="#EF4444"/>
<path d="M0 2.57129H54V5.14272H0V2.57129Z" fill="#F5F5F5"/>
<path d="M0 5.14258H54V7.71401H0V5.14258Z" fill="#EF4444"/>
<path d="M0 7.71387H54V10.2853H0V7.71387Z" fill="#F5F5F5"/>
<path d="M0 10.2861H54V12.8576H0V10.2861Z" fill="#EF4444"/>
<path d="M0 12.8574H54V15.4289H0V12.8574Z" fill="#F5F5F5"/>
<path d="M0 15.4287H54V18.0001H0V15.4287Z" fill="#EF4444"/>
<path d="M0 18H54V20.5714H0V18Z" fill="#F5F5F5"/>
<path d="M0 20.5713H54V23.1427H0V20.5713Z" fill="#EF4444"/>
<path d="M0 23.1426H54V25.714H0V23.1426Z" fill="#F5F5F5"/>
<path d="M0 25.7139H54V28.2853H0V25.7139Z" fill="#EF4444"/>
<path d="M0 28.2861H54V30.8576H0V28.2861Z" fill="#F5F5F5"/>
<path d="M0 30.8574H54V33.4289H0V30.8574Z" fill="#EF4444"/>
<path d="M0 33.4287H54V36.0001H0V33.4287Z" fill="#F5F5F5"/>
<path d="M0 0H26V18.56C26 19.6646 25.1046 20.56 24 20.56H0V0Z" fill="#1E3A8A"/>
<path d="M14.0312 15.2861C14.0312 15.2861 14.0385 15.2861 14.0414 15.2861C14.2844 15.2861 14.3615 15.6088 14.1418 15.7115C13.3634 16.0762 12.4947 16.2803 11.5781 16.2803C8.24896 16.2803 5.52952 13.5625 5.54553 10.2499C5.56153 6.93729 8.25624 4.28027 11.5781 4.28027C12.4962 4.28027 13.3663 4.48433 14.1447 4.84901C14.363 4.95176 14.2844 5.27448 14.0429 5.27448C14.0385 5.27448 14.0356 5.27448 14.0312 5.27448C11.2521 5.27448 8.9983 7.51472 8.9983 10.2803C8.9983 13.0458 11.2521 15.2861 14.0312 15.2861Z" fill="#FBBF24"/>
<path fill-rule="evenodd" clip-rule="evenodd" d="M17.0219 6.81729L17.2216 8.0527C17.2508 8.22843 17.4718 8.28701 17.5837 8.14856L18.3744 7.17673C18.5209 6.99568 18.8084 7.16075 18.7259 7.37908L18.2813 8.5506C18.2174 8.71568 18.3798 8.87809 18.5475 8.81685L19.719 8.37221C19.9374 8.28967 20.1024 8.57722 19.9214 8.72366L18.9496 9.51444C18.8111 9.62626 18.8723 9.84992 19.0454 9.87654L20.2808 10.0762C20.5125 10.1135 20.5125 10.4463 20.2808 10.4836L19.0454 10.6833C18.8697 10.7126 18.8111 10.9336 18.9496 11.0454L19.9214 11.8362C20.1024 11.9826 19.9374 12.2702 19.719 12.1876L18.5475 11.743C18.3824 11.6791 18.22 11.8415 18.2813 12.0092L18.7259 13.1808C18.8084 13.3991 18.5209 13.5642 18.3744 13.3831L17.5837 12.4113C17.4718 12.2728 17.2482 12.3341 17.2216 12.5071L17.0219 13.7426C16.9846 13.9742 16.6518 13.9742 16.6145 13.7426L16.4148 12.5071C16.3855 12.3314 16.1645 12.2728 16.0527 12.4113L15.2619 13.3831C15.1155 13.5642 14.8279 13.3991 14.9105 13.1808L15.3551 12.0092C15.419 11.8442 15.2566 11.6817 15.0889 11.743L13.9174 12.1876C13.699 12.2702 13.5339 11.9826 13.715 11.8362L14.6868 11.0454C14.8253 10.9336 14.764 10.7099 14.591 10.6833L13.3556 10.4836C13.1239 10.4463 13.1239 10.1135 13.3556 10.0762L14.591 9.87654C14.7667 9.84726 14.8253 9.62626 14.6868 9.51444L13.715 8.72366C13.5339 8.57722 13.699 8.28967 13.9174 8.37221L15.0889 8.81685C15.2539 8.88075 15.4164 8.71834 15.3551 8.5506L14.9105 7.37908C14.8279 7.16075 15.1155 6.99568 15.2619 7.17673L16.0527 8.14856C16.1645 8.28701 16.3882 8.22577 16.4148 8.0527L16.6145 6.81729C16.6518 6.58564 16.9846 6.58564 17.0219 6.81729Z" fill="#FBBF24"/>
</g>
<defs>
<clipPath id="clip0_97_1801">
<rect width="54" height="36" rx="8" fill="white"/>
</clipPath>
</defs>
</svg>
