<svg width="54" height="36" viewBox="0 0 54 36" fill="none" xmlns="http://www.w3.org/2000/svg">
<g clip-path="url(#clip0_97_1882)">
<rect width="54" height="36" rx="8" fill="#93C5FD"/>
<path d="M0 0H54V18H0V0Z" fill="#22C55E"/>
<path d="M0 18H54V36H0V18Z" fill="#FBBF24"/>
<path d="M0 12H54V24H0V12Z" fill="#262626"/>
<path fill-rule="evenodd" clip-rule="evenodd" d="M-2.5 9.5H56.5V26.5H-2.5V9.5ZM0 12V24H54V12H0Z" fill="#F5F5F5"/>
<path d="M27.66 20.63C29.72 19.48 29.72 16.52 27.66 15.37L0 0V36L27.66 20.63Z" fill="#EF4444"/>
<path d="M11.2622 11.7142L12.1504 14.2338C12.2471 14.5068 12.5005 14.691 12.7905 14.6988L15.4617 14.7655C16.4714 14.7903 16.8867 16.0717 16.0847 16.6843L13.9634 18.3079C13.7335 18.4829 13.6369 18.782 13.7192 19.0603L14.482 21.6204C14.7707 22.5883 13.68 23.3799 12.8492 22.8064L10.6496 21.2899C10.4119 21.1254 10.0971 21.1254 9.85935 21.2899L7.6597 22.8064C6.82896 23.3799 5.73958 22.5883 6.02695 21.6204L6.78977 19.0603C6.87206 18.7833 6.7754 18.4842 6.54551 18.3079L4.42162 16.6843C3.61961 16.0704 4.03629 14.7903 5.04468 14.7655L7.71587 14.6988C8.00454 14.6923 8.25925 14.5068 8.35591 14.2338L9.24413 11.7142C9.57982 10.7619 10.9265 10.7619 11.2622 11.7142Z" fill="#FBBF24"/>
<path d="M13.3732 20.2818H7.37684C6.75777 20.2818 6.30013 19.7054 6.44001 19.1024L7.16879 15.9632C7.26988 15.5275 7.65816 15.2188 8.10562 15.2188H12.6444C13.0919 15.2188 13.4802 15.5271 13.5812 15.9632L14.31 19.1024C14.4499 19.7054 13.9923 20.2818 13.3732 20.2818Z" fill="#F5F5F5"/>
<path d="M11.2613 17.0003L14.6912 13.5703C14.9361 13.3255 14.9361 12.9285 14.6912 12.6837C14.4463 12.4388 14.0494 12.4388 13.8046 12.6837L10.375 16.1132L6.94504 12.6841C6.70055 12.4392 6.30364 12.4392 6.05876 12.6841C5.81387 12.9289 5.81387 13.3258 6.05876 13.5707L9.48832 17.0003L6.05876 20.4299C5.81387 20.6747 5.81387 21.0716 6.05876 21.3165C6.181 21.4388 6.34165 21.5003 6.5019 21.5003C6.66215 21.5003 6.8228 21.4392 6.94504 21.3165L10.3746 17.887L13.8042 21.3165C13.9264 21.4388 14.0871 21.5003 14.2473 21.5003C14.4076 21.5003 14.5682 21.4392 14.6904 21.3165C14.9353 21.0716 14.9353 20.6747 14.6904 20.4299L11.2609 17.0003H11.2613Z" fill="#262626"/>
</g>
<defs>
<clipPath id="clip0_97_1882">
<rect width="54" height="36" rx="8" fill="white"/>
</clipPath>
</defs>
</svg>
