<svg width="54" height="36" viewBox="0 0 54 36" fill="none" xmlns="http://www.w3.org/2000/svg">
<g clip-path="url(#clip0_97_1977)">
<rect width="54" height="36" rx="8" fill="#22C55E"/>
<path d="M54 0L0 36V0H54Z" fill="#3B82F6"/>
<path fill-rule="evenodd" clip-rule="evenodd" d="M54 0.36V4.33L6.5 36H0V31.68L47.52 0H53.76L54 0.36Z" fill="#EF4444"/>
<path fill-rule="evenodd" clip-rule="evenodd" d="M6.5 36H10.4L54 6.93V4.33L6.5 36ZM53.76 0L54 0.36V0H53.76ZM43.62 0L0 29.08V31.68L47.52 0H43.62Z" fill="#F5F5F5"/>
<path fill-rule="evenodd" clip-rule="evenodd" d="M17.2801 3.23888L17.5546 4.93758C17.5949 5.17921 17.8988 5.25975 18.0525 5.06938L19.1399 3.73311C19.3412 3.48417 19.7366 3.71115 19.6231 4.01135L19.0117 5.62219C18.9239 5.84917 19.1472 6.07249 19.3778 5.98828L20.9887 5.3769C21.2889 5.26341 21.5158 5.6588 21.2669 5.86015L19.9306 6.94746C19.7403 7.10123 19.8245 7.40875 20.0624 7.44536L21.7611 7.71993C22.0796 7.77119 22.0796 8.22881 21.7611 8.28007L20.0624 8.55464C19.8208 8.59491 19.7403 8.89877 19.9306 9.05254L21.2669 10.1399C21.5158 10.3412 21.2889 10.7366 20.9887 10.6231L19.3778 10.0117C19.1508 9.92385 18.9275 10.1472 19.0117 10.3778L19.6231 11.9887C19.7366 12.2889 19.3412 12.5158 19.1399 12.2669L18.0525 10.9306C17.8988 10.7403 17.5913 10.8245 17.5546 11.0624L17.2801 12.7611C17.2288 13.0796 16.7712 13.0796 16.7199 12.7611L16.4454 11.0624C16.4051 10.8208 16.1012 10.7403 15.9475 10.9306L14.8602 12.2669C14.6588 12.5158 14.2634 12.2889 14.3769 11.9887L14.9883 10.3778C15.0761 10.1508 14.8528 9.92751 14.6222 10.0117L13.0113 10.6231C12.7111 10.7366 12.4842 10.3412 12.7331 10.1399L14.0694 9.05254C14.2597 8.89877 14.1755 8.59125 13.9376 8.55464L12.2389 8.28007C11.9204 8.22881 11.9204 7.77119 12.2389 7.71993L13.9376 7.44536C14.1792 7.40509 14.2597 7.10123 14.0694 6.94746L12.7331 5.86015C12.4842 5.6588 12.7111 5.26341 13.0113 5.3769L14.6222 5.98828C14.8492 6.07615 15.0725 5.85283 14.9883 5.62219L14.3769 4.01135C14.2634 3.71115 14.6588 3.48417 14.8602 3.73311L15.9475 5.06938C16.1012 5.25975 16.4087 5.17554 16.4454 4.93758L16.7199 3.23888C16.7712 2.92037 17.2288 2.92037 17.2801 3.23888Z" fill="#FBBF24"/>
</g>
<defs>
<clipPath id="clip0_97_1977">
<rect width="54" height="36" rx="8" fill="white"/>
</clipPath>
</defs>
</svg>
