<svg width="54" height="36" viewBox="0 0 54 36" fill="none" xmlns="http://www.w3.org/2000/svg">
<g clip-path="url(#clip0_97_2032)">
<path d="M0 0H18V36H0V0Z" fill="#22C55E"/>
<path d="M18 0H36V36H18V0Z" fill="#F5F5F5"/>
<path d="M36 0H54V36H36V0Z" fill="#22C55E"/>
<path d="M31.1147 19.8958C31.911 19.44 32.2751 18.3847 31.763 17.4975L30.1401 14.6865L28.5172 11.8754C27.8428 10.7082 26.1576 10.7082 25.4841 11.8754L23.8612 14.6865L22.2374 17.4967C21.7253 18.3838 22.0894 19.44 22.8857 19.8949L22.2374 21.0175C21.563 22.1847 22.4056 23.6444 23.7544 23.6444H25.405C25.4017 23.6764 25.4 23.7092 25.4 23.742V25.0538C25.4 25.5751 25.823 25.9981 26.3443 25.9981H27.6561C28.1774 25.9981 28.6004 25.5751 28.6004 25.0538V23.742C28.6004 23.7092 28.5987 23.6764 28.5954 23.6444H30.246C31.594 23.6444 32.4365 22.1847 31.763 21.0175L31.1147 19.8949V19.8958Z" fill="#22C55E"/>
</g>
<defs>
<clipPath id="clip0_97_2032">
<rect width="54" height="36" rx="8" fill="white"/>
</clipPath>
</defs>
</svg>
