<svg width="54" height="36" viewBox="0 0 54 36" fill="none" xmlns="http://www.w3.org/2000/svg">
<g clip-path="url(#clip0_97_2108)">
<path d="M0 0H54V12H0V0Z" fill="#3B82F6"/>
<path d="M0 12H54V24H0V12Z" fill="#F5F5F5"/>
<path d="M0 24H54V36H0V24Z" fill="#3B82F6"/>
<path d="M30.3944 21.9987H24.4112C23.3262 21.9987 22.6488 20.8246 23.1907 19.8851L23.3676 19.579L24.6871 17.2949L24.7273 17.2259L26.1823 14.7046C26.7242 13.7651 28.0802 13.7651 28.622 14.7046L30.0796 17.2271L30.1185 17.2949L31.4368 19.579L31.6137 19.8851C32.1555 20.8246 31.4782 21.9987 30.3944 21.9987Z" fill="#93C5FD"/>
<path d="M30.3944 22.0003H24.4112C23.3262 22.0003 22.6488 20.8262 23.1907 19.8867H31.6137C32.1555 20.8262 31.4782 22.0003 30.3944 22.0003Z" fill="#22C55E"/>
<path d="M30.1185 17.2955L30.0796 17.2277C29.253 16.889 28.3486 16.7021 27.4028 16.7021C26.457 16.7021 25.5539 16.8878 24.7273 17.2265L24.6872 17.2955L23.3676 19.5796C24.4162 18.5749 25.8387 17.9565 27.4028 17.9565C28.967 17.9565 30.3882 18.5749 31.4368 19.5796L30.1185 17.2955Z" fill="#3B82F6"/>
</g>
<defs>
<clipPath id="clip0_97_2108">
<rect width="54" height="36" rx="8" fill="white"/>
</clipPath>
</defs>
</svg>
