<svg width="54" height="36" viewBox="0 0 54 36" fill="none" xmlns="http://www.w3.org/2000/svg">
<rect width="54" height="36" rx="8" fill="#1E3A8A"/>
<path d="M28.8 0V15.8C28.8 16.18 28.75 16.55 28.64 16.9C28.59 17.08 28.53 17.26 28.45 17.43C28.38 17.6 28.29 17.76 28.2 17.91C27.73 18.67 27.01 19.26 26.15 19.56C25.94 19.64 25.71 19.7 25.47 19.74C25.25 19.78 25.03 19.8 24.8 19.8H0V0H28.8Z" fill="#1E3A8A"/>
<path fill-rule="evenodd" clip-rule="evenodd" d="M28.8 0V2.13L22.52 6.48L20.95 7.56L18.04 9.57L17.57 9.9L17.09 10.23L14.88 11.76L14.41 12.09L13.93 12.42L11.88 13.83L10.8 14.58L3.25 19.8H0V17.67L5.77 13.68L7.34 12.6L10.77 10.23L11.24 9.9L11.71 9.57L13.93 8.04L14.41 7.71L14.88 7.38L16.92 5.97L18 5.23L25.56 0H28.8Z" fill="#EF4444"/>
<path fill-rule="evenodd" clip-rule="evenodd" d="M24.61 0L18 4.57L16.92 5.32L14.41 7.06L13.93 7.38L13.45 7.71L11.24 9.24L10.77 9.57L10.29 9.9L6.39 12.6L4.82 13.68L0 17.01V18.33L6.72 13.68L8.28 12.6L11.24 10.56L11.71 10.23L12.19 9.9L14.4 8.37L14.88 8.04L15.35 7.71L16.92 6.63L18 5.88L26.5 0H24.61ZM21.56 6.48L20 7.56L17.57 9.24L17.09 9.57L16.62 9.9L14.4 11.43L13.93 11.76L13.45 12.09L11.88 13.18L10.8 13.92L2.3 19.8H4.2L10.8 15.24L11.88 14.49L14.41 12.74L14.88 12.42L15.35 12.09L17.57 10.56L18.04 10.23L18.52 9.9L21.9 7.56L23.47 6.48L28.8 2.79V1.48L21.56 6.48ZM14.88 8.04L15.35 7.71L16.92 6.63V5.97L14.88 7.38L14.41 7.71L13.93 8.04L14.4 8.37L14.88 8.04Z" fill="#F5F5F5"/>
<path fill-rule="evenodd" clip-rule="evenodd" d="M28.45 17.43C28.38 17.6 28.29 17.76 28.2 17.91C27.73 18.67 27.01 19.26 26.15 19.56C25.94 19.64 25.71 19.7 25.47 19.74L18 14.57L16.92 13.83L14.88 12.42L14.41 12.09L13.93 11.76L11.71 10.23L11.24 9.9L10.77 9.57L7.86 7.56L6.29 6.48L0 2.13V0H3.25L10.8 5.22L11.88 5.97L13.93 7.38L14.41 7.71L14.88 8.04L17.09 9.57L17.57 9.9L18.04 10.23L21.47 12.6L23.04 13.68L28.45 17.43Z" fill="#EF4444"/>
<path fill-rule="evenodd" clip-rule="evenodd" d="M23.99 13.68L22.42 12.6L18.52 9.9L18.04 9.57L17.57 9.24L15.35 7.71L14.88 7.38L14.41 7.06L11.88 5.31L10.8 4.56L4.2 0H2.3L10.8 5.88L11.88 6.62L13.45 7.71L13.93 8.04L14.4 8.37L16.62 9.9L17.09 10.23L17.57 10.56L20.52 12.6L22.08 13.68L28.2 17.91C28.29 17.76 28.38 17.6 28.45 17.43C28.53 17.26 28.59 17.08 28.64 16.9L23.99 13.68ZM18 13.92L16.92 13.17L15.35 12.09L14.88 11.76L14.4 11.43L12.19 9.9L11.71 9.57L11.24 9.24L8.81 7.56L7.24 6.48L0 1.47V2.79L5.34 6.48L6.91 7.56L10.29 9.9L10.77 10.23L11.24 10.56L13.45 12.09L13.93 12.42L14.41 12.74L16.92 14.48L18 15.23L24.61 19.8H24.8C25.03 19.8 25.25 19.78 25.47 19.74C25.71 19.7 25.94 19.64 26.15 19.56L18 13.92Z" fill="#F5F5F5"/>
<path fill-rule="evenodd" clip-rule="evenodd" d="M28.8 7.56V12.6H16.92V19.8H11.88V12.6H0V7.56H11.88V0H16.92V7.56H28.8Z" fill="#EF4444"/>
<path fill-rule="evenodd" clip-rule="evenodd" d="M16.92 12.6V19.8H18V13.68H28.8V12.6H16.92ZM18 6.48V0H16.92V7.56H28.8V6.48H18ZM10.8 6.48H0V7.56H11.88V0H10.8V6.48ZM0 12.6V13.68H10.8V19.8H11.88V12.6H0Z" fill="#F5F5F5"/>
<path d="M44.1091 25.0574L44.4709 26.0557C44.5102 26.1639 44.6134 26.2369 44.7316 26.24L45.8196 26.2664C46.2309 26.2762 46.4001 26.7839 46.0734 27.0267L45.2093 27.67C45.1157 27.7393 45.0763 27.8579 45.1099 27.9681L45.4206 28.9825C45.5382 29.366 45.0939 29.6796 44.7555 29.4524L43.8595 28.8516C43.7627 28.7863 43.6345 28.7863 43.5376 28.8516L42.6416 29.4524C42.3033 29.6796 41.8595 29.366 41.9766 28.9825L42.2873 27.9681C42.3208 27.8584 42.2814 27.7399 42.1878 27.67L41.3227 27.0267C40.996 26.7834 41.1657 26.2762 41.5765 26.2664L42.6645 26.24C42.7821 26.2374 42.8859 26.1639 42.9252 26.0557L43.287 25.0574C43.4238 24.6801 43.9723 24.6801 44.1091 25.0574Z" fill="#EF4444"/>
<path d="M35.9581 13.5281L36.3199 14.5264C36.3593 14.6346 36.4625 14.7076 36.5806 14.7107L37.6687 14.7371C38.08 14.7469 38.2491 15.2546 37.9225 15.4974L37.0584 16.1407C36.9648 16.21 36.9254 16.3286 36.9589 16.4388L37.2696 17.4532C37.3872 17.8367 36.943 18.1503 36.6046 17.9231L35.7086 17.3223C35.6117 17.2571 35.4835 17.2571 35.3867 17.3223L34.4907 17.9231C34.1523 18.1503 33.7086 17.8367 33.8256 17.4532L34.1364 16.4388C34.1699 16.3291 34.1305 16.2106 34.0369 16.1407L33.1717 15.4974C32.8451 15.2541 33.0148 14.7469 33.4255 14.7371L34.5136 14.7107C34.6312 14.7081 34.7349 14.6346 34.7743 14.5264L35.1361 13.5281C35.2728 13.1508 35.8214 13.1508 35.9581 13.5281Z" fill="#EF4444"/>
<path d="M42.4109 5.3777L42.7727 6.37606C42.8121 6.48423 42.9153 6.5572 43.0334 6.56031L44.1215 6.5867C44.5328 6.59653 44.702 7.10425 44.3753 7.34699L43.5112 7.9903C43.4176 8.05965 43.3782 8.17817 43.4117 8.28841L43.7225 9.30281C43.84 9.68632 43.3958 9.99996 43.0574 9.77275L42.1614 9.17187C42.0646 9.10666 41.9363 9.10666 41.8395 9.17187L40.9435 9.77275C40.6051 9.99996 40.1614 9.68632 40.2785 9.30281L40.5892 8.28841C40.6227 8.17869 40.5833 8.06017 40.4897 7.9903L39.6246 7.34699C39.2979 7.10374 39.4676 6.59653 39.8783 6.5867L40.9664 6.56031C41.084 6.55772 41.1877 6.48423 41.2271 6.37606L41.5889 5.3777C41.7256 5.0004 42.2742 5.0004 42.4109 5.3777Z" fill="#EF4444"/>
<path d="M48.8638 11.1502L49.2256 12.1485C49.2649 12.2567 49.3682 12.3297 49.4863 12.3328L50.5743 12.3592C50.9856 12.369 51.1548 12.8767 50.8281 13.1194L49.9641 13.7628C49.8704 13.8321 49.831 13.9506 49.8646 14.0609L50.1753 15.0753C50.2929 15.4588 49.8486 15.7724 49.5102 15.5452L48.6142 14.9443C48.5174 14.8791 48.3892 14.8791 48.2923 14.9443L47.3964 15.5452C47.058 15.7724 46.6142 15.4588 46.7313 15.0753L47.042 14.0609C47.0755 13.9512 47.0362 13.8326 46.9425 13.7628L46.0774 13.1194C45.7507 12.8762 45.9204 12.369 46.3312 12.3592L47.4192 12.3328C47.5368 12.3302 47.6406 12.2567 47.6799 12.1485L48.0417 11.1502C48.1785 10.7729 48.727 10.7729 48.8638 11.1502Z" fill="#EF4444"/>
</svg>
