<svg width="54" height="36" viewBox="0 0 54 36" fill="none" xmlns="http://www.w3.org/2000/svg">
<g clip-path="url(#clip0_97_2216)">
<path d="M0 0H14V36H0V0Z" fill="#EF4444"/>
<path d="M14 0H54V12H14V0Z" fill="#F5F5F5"/>
<path d="M14 12H54V24H14V12Z" fill="#EF4444"/>
<path d="M14 24H54V36H14V24Z" fill="#22C55E"/>
<path d="M10.3882 5.41067H9.14907C8.8809 5.41067 8.74682 5.08651 8.93616 4.89717L9.80918 4.02415C10.0383 3.79503 10.0626 3.41783 9.83938 3.18281C9.61615 2.9478 9.22864 2.93748 8.9951 3.17176L8.10292 4.06393C7.91358 4.25327 7.58943 4.11919 7.58943 3.85102V2.61185C7.58943 2.29653 7.35146 2.02026 7.03688 2.0011C6.69504 1.98048 6.41067 2.25159 6.41067 2.58901V3.85102C6.41067 4.11919 6.08651 4.25327 5.89717 4.06393L5.02415 3.19091C4.79503 2.96179 4.41783 2.93748 4.18281 3.16071C3.9478 3.38394 3.93748 3.77145 4.17176 4.00499L5.06393 4.89717C5.25327 5.08651 5.11919 5.41067 4.85102 5.41067H3.61185C3.29653 5.41067 3.02026 5.64863 3.0011 5.96321C2.98048 6.30505 3.25159 6.58942 3.58901 6.58942H4.85102C5.11919 6.58942 5.25327 6.91358 5.06393 7.10292L4.1887 7.97815C3.96621 8.20064 3.93674 8.56311 4.14376 8.7996C4.26164 8.93442 4.42519 9.00146 4.58801 9.00146C4.73904 9.00146 4.88933 8.944 5.005 8.82907L5.89717 7.93689C6.08651 7.74756 6.41067 7.88164 6.41067 8.14981V9.38898C6.41067 9.7043 6.64863 9.98057 6.96321 9.99972C7.30505 10.0204 7.58943 9.74924 7.58943 9.41182V8.14981C7.58943 7.88164 7.91358 7.74756 8.10292 7.93689L8.9951 8.82907C9.11002 8.944 9.26105 9.00146 9.41208 9.00146C9.57564 9.00146 9.73845 8.93442 9.85633 8.7996C10.0633 8.56311 10.0339 8.20064 9.81139 7.97815L8.93616 7.10292C8.74682 6.91358 8.8809 6.58942 9.14907 6.58942H10.4111C10.7485 6.58942 11.0204 6.30579 10.999 5.96321C10.9798 5.64863 10.7036 5.41067 10.3882 5.41067Z" fill="#F5F5F5"/>
</g>
<defs>
<clipPath id="clip0_97_2216">
<rect width="54" height="36" rx="8" fill="white"/>
</clipPath>
</defs>
</svg>
