<svg width="54" height="36" viewBox="0 0 54 36" fill="none" xmlns="http://www.w3.org/2000/svg">
<rect width="54" height="36" rx="8" fill="#262626"/>
<path d="M37.9155 7.8795C37.5043 7.76571 37.3116 7.56518 37.1787 7.16187C36.8002 6.01614 35.9428 5.8404 34.9909 6.1119C34.1888 6.34059 33.6796 7.46266 34.1043 8.23887C34.4727 8.91256 34.2214 9.25617 33.7584 9.63808C33.6289 9.74398 33.5173 9.87241 33.4002 9.99295C32.1508 11.2705 32.0652 10.9089 33.5004 12.3531C33.764 12.6179 34.0096 12.6179 34.2721 12.352C34.7047 11.9126 35.1599 11.4958 35.5745 11.0407C35.8933 10.6903 36.1648 10.6058 36.6357 10.8334C37.7904 11.3933 38.9936 10.6024 38.9846 9.34742C38.979 8.63092 38.6094 8.06989 37.9155 7.8795ZM20.5313 23.5963C20.2632 23.3338 20.0131 23.353 19.7551 23.6166C19.3101 24.0718 18.8471 24.51 18.4077 24.9696C18.1204 25.2693 17.841 25.4428 17.4389 25.1533C17.2203 24.9967 16.9432 24.9967 16.6795 24.9955C15.8493 24.9933 15.2071 25.4822 15.0359 26.2472C14.8691 26.9963 15.2961 27.7849 16.0588 28.0993C16.4024 28.2412 16.7156 28.3212 16.835 28.7898C17.0772 29.7362 18.0438 30.1812 18.971 29.8623C19.8137 29.5717 20.3274 28.6006 19.9151 27.768C19.5827 27.1 19.7923 26.7361 20.2643 26.3463C20.4074 26.228 20.5302 26.0838 20.6631 25.9509C21.8753 24.7409 21.8911 24.9302 20.5313 23.5963ZM38.9046 26.0286C38.6432 25.2175 37.7093 24.6948 36.8542 25.0857C36.1231 25.418 35.7479 25.1566 35.339 24.6655C35.232 24.5359 35.1002 24.4289 34.9807 24.3106C33.728 23.0725 34.0401 23.0815 32.6915 24.4086C32.3885 24.7071 32.3919 24.9854 32.6825 25.2794C33.1039 25.7053 33.5072 26.1503 33.9488 26.5536C34.2947 26.869 34.4738 27.1586 34.1493 27.6024C33.995 27.812 33.9736 28.0925 33.9882 28.3223C33.9984 29.183 34.5031 29.7857 35.3108 29.9356C36.1422 30.091 36.8971 29.6708 37.164 28.8439C37.2846 28.4688 37.4615 28.2592 37.8468 28.1319C38.7874 27.821 39.2032 26.9502 38.9046 26.0286ZM21.2985 10.6385C20.8963 10.2464 20.5167 9.8296 20.0931 9.46233C19.7134 9.13225 19.6481 8.83934 19.8723 8.35378C20.4164 7.17088 19.6436 6.01276 18.3762 6.02065C17.5954 6.02515 16.9893 6.42283 16.8339 7.1506C16.7392 7.5956 16.5151 7.75107 16.1129 7.86823C15.2679 8.11382 14.8117 9.03198 15.0821 9.83072C15.3952 10.7523 16.3393 11.3065 17.1628 10.9043C17.8354 10.5776 18.2376 10.7387 18.6375 11.257C18.7513 11.4045 18.8978 11.5251 19.0318 11.6558C20.2756 12.8747 19.9849 12.9119 21.3222 11.5634C21.6387 11.2457 21.6072 10.9415 21.2985 10.6385ZM33.8767 20.0071C33.2199 18.8591 33.2289 17.7821 33.4892 16.6037C33.5117 16.4967 33.4914 16.3806 33.4914 16.268C33.497 15.0107 33.1399 13.8717 32.3581 12.8759C30.791 10.8807 27.9475 9.77101 24.9114 10.7095C21.9373 11.6299 20.0683 14.7877 20.8681 17.719C21.027 18.2958 20.9684 18.7284 20.6428 19.232C19.6334 20.7979 20.2677 22.5441 22.0465 23.0691C22.6718 23.2539 22.9275 23.5513 22.843 24.1765C22.8284 24.2858 22.843 24.4007 22.8509 24.5122C22.9118 25.3144 23.3703 25.8078 24.0518 25.8101C24.6884 25.8123 25.1457 25.3189 25.2629 24.5596C25.3091 24.2588 25.1074 23.727 25.5569 23.7203C26.0729 23.7135 25.8566 24.261 25.887 24.5753C25.9603 25.3211 26.3974 25.7841 27.0936 25.7932C27.7312 25.8022 28.219 25.3256 28.29 24.6193C28.3103 24.4154 28.3069 24.2081 28.3283 24.0042C28.3441 23.8464 28.4106 23.7034 28.5942 23.6932C28.8094 23.6808 28.8871 23.8329 28.9051 24.0154C28.9254 24.2385 28.9164 24.4649 28.9446 24.6869C29.0291 25.347 29.5349 25.8044 30.1489 25.792C30.8282 25.7785 31.2799 25.3335 31.3261 24.6181C31.343 24.3568 31.3442 24.0943 31.3385 23.8329C31.3318 23.4837 31.4816 23.2696 31.8252 23.1795C32.0607 23.1175 32.2939 23.0432 32.5181 22.9508C33.648 22.4855 34.4603 21.0255 33.8767 20.0071ZM23.9876 19.8268C22.9805 20.0465 22.1153 19.428 22.0522 18.4006C21.9609 16.8955 22.5986 15.8883 24.2907 15.9694C25.8656 15.8421 26.3388 17.1861 25.8577 18.2812C25.4939 19.1103 24.8641 19.6353 23.9876 19.8268ZM27.9577 22.0586C27.6636 22.0957 27.3617 22.0653 27.0643 22.0653C27.0632 22.0766 27.0632 22.0879 27.0632 22.1002C26.7658 22.0845 26.4627 22.0969 26.1709 22.0473C25.6978 21.9673 25.5153 21.6541 25.7237 21.2384C25.9986 20.6887 26.305 20.1524 26.6385 19.6376C26.9088 19.2207 27.2998 19.2309 27.5814 19.6601C27.8968 20.1423 28.1852 20.6458 28.45 21.1584C28.7091 21.6575 28.5266 21.9853 27.9577 22.0586ZM31.378 19.6601C30.7212 20.0026 30.0734 19.9102 29.4594 19.5384C28.5717 19.0033 28.0748 18.2485 28.183 17.1749C28.2348 16.6679 28.4793 16.2522 28.9615 16.1046C29.7478 15.8635 30.5623 15.8444 31.2968 16.277C31.9683 16.6735 32.1159 17.3484 32.0809 18.0863C32.1192 18.725 32.0224 19.3244 31.378 19.6601Z" fill="#F5F5F5"/>
</svg>
