<svg width="54" height="36" viewBox="0 0 54 36" fill="none" xmlns="http://www.w3.org/2000/svg">
<rect width="54" height="36" rx="8" fill="#F5F5F5"/>
<path d="M14.1688 21.3377C10.7669 21.3377 8 18.5707 8 15.1688C8 11.7669 10.7669 9 14.1688 9C17.5707 9 20.3377 11.7669 20.3377 15.1688C20.3377 18.5707 17.5707 21.3377 14.1688 21.3377ZM14.1688 10.5354C11.6136 10.5354 9.53535 12.6136 9.53535 15.1688C9.53535 17.7241 11.6136 19.8023 14.1688 19.8023C16.7241 19.8023 18.8023 17.7241 18.8023 15.1688C18.8023 12.6136 16.7241 10.5354 14.1688 10.5354Z" fill="#3B82F6"/>
<path d="M27 21.3377C23.5981 21.3377 20.8312 18.5707 20.8312 15.1688C20.8312 11.7669 23.5981 9 27 9C30.4019 9 33.1688 11.7669 33.1688 15.1688C33.1688 18.5707 30.4019 21.3377 27 21.3377ZM27 10.5354C24.4447 10.5354 22.3665 12.6136 22.3665 15.1688C22.3665 17.7241 24.4447 19.8023 27 19.8023C29.5553 19.8023 31.6335 17.7241 31.6335 15.1688C31.6335 12.6136 29.5553 10.5354 27 10.5354Z" fill="#262626"/>
<path d="M39.8312 21.3377C36.4293 21.3377 33.6623 18.5707 33.6623 15.1688C33.6623 11.7669 36.4293 9 39.8312 9C43.2331 9 46 11.7669 46 15.1688C46 18.5707 43.2331 21.3377 39.8312 21.3377ZM39.8312 10.5354C37.2759 10.5354 35.1977 12.6136 35.1977 15.1688C35.1977 17.7241 37.2759 19.8023 39.8312 19.8023C42.3864 19.8023 44.4646 17.7241 44.4646 15.1688C44.4646 12.6136 42.3864 10.5354 39.8312 10.5354Z" fill="#EF4444"/>
<path d="M20.5844 26.8211C17.1825 26.8211 14.4156 24.0541 14.4156 20.6522C14.4156 17.2503 17.1825 14.4834 20.5844 14.4834C23.9863 14.4834 26.7533 17.2503 26.7533 20.6522C26.7533 24.0541 23.9863 26.8211 20.5844 26.8211ZM20.5844 16.0188C18.0292 16.0188 15.9509 18.097 15.9509 20.6522C15.9509 23.2075 18.0292 25.2857 20.5844 25.2857C23.1397 25.2857 25.2179 23.2075 25.2179 20.6522C25.2179 18.097 23.1397 16.0188 20.5844 16.0188Z" fill="#FBBF24"/>
<path d="M33.4156 26.8211C30.0137 26.8211 27.2467 24.0541 27.2467 20.6522C27.2467 17.2503 30.0137 14.4834 33.4156 14.4834C36.8175 14.4834 39.5844 17.2503 39.5844 20.6522C39.5844 24.0541 36.8175 26.8211 33.4156 26.8211ZM33.4156 16.0188C30.8603 16.0188 28.7821 18.097 28.7821 20.6522C28.7821 23.2075 30.8603 25.2857 33.4156 25.2857C35.9708 25.2857 38.0491 23.2075 38.0491 20.6522C38.0491 18.097 35.9708 16.0188 33.4156 16.0188Z" fill="#22C55E"/>
<path d="M19.1039 18.8704L17.8756 17.9492C19.1028 16.3118 19.1028 14.0263 17.8756 12.389L19.1039 11.4678C20.7379 13.6469 20.7379 16.6913 19.1039 18.8704Z" fill="#3B82F6"/>
<path d="M27 21.3379C25.6741 21.3379 24.3592 20.8992 23.2987 20.1041L24.2199 18.8759C25.0172 19.4735 26.0042 19.8025 27 19.8025V21.3379ZM31.9351 18.8704L30.7068 17.9492C31.934 16.3118 31.934 14.0263 30.7068 12.389L31.9351 11.4678C33.5691 13.6469 33.5691 16.6913 31.9351 18.8704Z" fill="#262626"/>
<path d="M39.8312 21.338C38.5053 21.338 37.1904 20.8994 36.1299 20.1043L37.0511 18.876C37.8473 19.4737 38.8354 19.8027 39.8312 19.8027V21.338Z" fill="#EF4444"/>
</svg>
