<svg width="54" height="36" viewBox="0 0 54 36" fill="none" xmlns="http://www.w3.org/2000/svg">
<g clip-path="url(#clip0_98_2504)">
<rect width="54" height="36" rx="8" fill="#F5F5F5"/>
<path d="M4.5 0H0V4.5H4.5V0Z" fill="#262626"/>
<path d="M13.5 0H9V4.5H13.5V0Z" fill="#262626"/>
<path d="M22.5 0H18V4.5H22.5V0Z" fill="#262626"/>
<path d="M31.5 0H27V4.5H31.5V0Z" fill="#262626"/>
<path d="M9 4.5H4.5V9H9V4.5Z" fill="#262626"/>
<path d="M18 4.5H13.5V9H18V4.5Z" fill="#262626"/>
<path d="M27 4.5H22.5V9H27V4.5Z" fill="#262626"/>
<path d="M36 4.5H31.5V9H36V4.5Z" fill="#262626"/>
<path d="M4.5 9H0V13.5H4.5V9Z" fill="#262626"/>
<path d="M13.5 9H9V13.5H13.5V9Z" fill="#262626"/>
<path d="M22.5 9H18V13.5H22.5V9Z" fill="#262626"/>
<path d="M31.5 9H27V13.5H31.5V9Z" fill="#262626"/>
<path d="M9 13.5H4.5V18H9V13.5Z" fill="#262626"/>
<path d="M18 13.5H13.5V18H18V13.5Z" fill="#262626"/>
<path d="M27 13.5H22.5V18H27V13.5Z" fill="#262626"/>
<path d="M36 13.5H31.5V18H36V13.5Z" fill="#262626"/>
<path d="M4.5 18H0V22.5H4.5V18Z" fill="#262626"/>
<path d="M13.5 18H9V22.5H13.5V18Z" fill="#262626"/>
<path d="M22.5 18H18V22.5H22.5V18Z" fill="#262626"/>
<path d="M31.5 18H27V22.5H31.5V18Z" fill="#262626"/>
<path d="M9 22.5H4.5V27H9V22.5Z" fill="#262626"/>
<path d="M18 22.5H13.5V27H18V22.5Z" fill="#262626"/>
<path d="M27 22.5H22.5V27H27V22.5Z" fill="#262626"/>
<path d="M36 22.5H31.5V27H36V22.5Z" fill="#262626"/>
<path d="M4.5 27H0V31.5H4.5V27Z" fill="#262626"/>
<path d="M13.5 27H9V31.5H13.5V27Z" fill="#262626"/>
<path d="M22.5 27H18V31.5H22.5V27Z" fill="#262626"/>
<path d="M31.5 27H27V31.5H31.5V27Z" fill="#262626"/>
<path d="M9 31.5H4.5V36H9V31.5Z" fill="#262626"/>
<path d="M18 31.5H13.5V36H18V31.5Z" fill="#262626"/>
<path d="M27 31.5H22.5V36H27V31.5Z" fill="#262626"/>
<path d="M36 31.5H31.5V36H36V31.5Z" fill="#262626"/>
<path d="M40.5 0H36V4.5H40.5V0Z" fill="#262626"/>
<path d="M49.5 0H45V4.5H49.5V0Z" fill="#262626"/>
<path d="M45 4.5H40.5V9H45V4.5Z" fill="#262626"/>
<path d="M54 4.5H49.5V9H54V4.5Z" fill="#262626"/>
<path d="M40.5 9H36V13.5H40.5V9Z" fill="#262626"/>
<path d="M49.5 9H45V13.5H49.5V9Z" fill="#262626"/>
<path d="M45 13.5H40.5V18H45V13.5Z" fill="#262626"/>
<path d="M54 13.5H49.5V18H54V13.5Z" fill="#262626"/>
<path d="M40.5 18H36V22.5H40.5V18Z" fill="#262626"/>
<path d="M49.5 18H45V22.5H49.5V18Z" fill="#262626"/>
<path d="M45 22.5H40.5V27H45V22.5Z" fill="#262626"/>
<path d="M54 22.5H49.5V27H54V22.5Z" fill="#262626"/>
<path d="M40.5 27H36V31.5H40.5V27Z" fill="#262626"/>
<path d="M49.5 27H45V31.5H49.5V27Z" fill="#262626"/>
<path d="M45 31.5H40.5V36H45V31.5Z" fill="#262626"/>
<path d="M54 31.5H49.5V36H54V31.5Z" fill="#262626"/>
</g>
<defs>
<clipPath id="clip0_98_2504">
<rect width="54" height="36" rx="8" fill="white"/>
</clipPath>
</defs>
</svg>
