<svg width="54" height="36" viewBox="0 0 54 36" fill="none" xmlns="http://www.w3.org/2000/svg">
<g clip-path="url(#clip0_98_2731)">
<path d="M0 0H27V18H0V0Z" fill="#F5F5F5"/>
<path d="M0 18H27V36H0V18Z" fill="#1E3A8A"/>
<path d="M27 0H54V18H27V0Z" fill="#EF4444"/>
<path d="M27 18H54V36H27V18Z" fill="#F5F5F5"/>
<path d="M14.0518 4.59514L14.792 6.69486C14.8726 6.92236 15.0837 7.07584 15.3254 7.08237L17.5514 7.13788C18.3928 7.15856 18.7389 8.22639 18.0706 8.73689L16.3029 10.0899C16.1113 10.2358 16.0307 10.485 16.0993 10.7169L16.735 12.8503C16.9756 13.6569 16.0667 14.3166 15.3744 13.8387L13.5413 12.575C13.3432 12.4378 13.0809 12.4378 12.8828 12.575L11.0498 13.8387C10.3575 14.3166 9.44965 13.6569 9.68912 12.8503L10.3248 10.7169C10.3934 10.4861 10.3128 10.2369 10.1213 10.0899L8.35135 8.73689C7.68301 8.2253 8.03024 7.15856 8.87057 7.13788L11.0966 7.08237C11.3371 7.07693 11.5494 6.92236 11.6299 6.69486L12.3701 4.59514C12.6499 3.80162 13.7721 3.80162 14.0518 4.59514Z" fill="#1E3A8A"/>
<path d="M41.0518 22.5951L41.792 24.6949C41.8726 24.9224 42.0837 25.0758 42.3254 25.0824L44.5514 25.1379C45.3928 25.1586 45.7389 26.2264 45.0706 26.7369L43.3029 28.0899C43.1113 28.2358 43.0307 28.485 43.0993 28.7169L43.735 30.8503C43.9756 31.6569 43.0667 32.3166 42.3744 31.8387L40.5413 30.575C40.3432 30.4378 40.0809 30.4378 39.8828 30.575L38.0498 31.8387C37.3575 32.3166 36.4497 31.6569 36.6891 30.8503L37.3248 28.7169C37.3934 28.4861 37.3128 28.2369 37.1213 28.0899L35.3514 26.7369C34.683 26.2253 35.0302 25.1586 35.8706 25.1379L38.0966 25.0824C38.3371 25.0769 38.5494 24.9224 38.6299 24.6949L39.3701 22.5951C39.6499 21.8016 40.7721 21.8016 41.0518 22.5951Z" fill="#EF4444"/>
</g>
<defs>
<clipPath id="clip0_98_2731">
<rect width="54" height="36" rx="8" fill="white"/>
</clipPath>
</defs>
</svg>
