<svg width="54" height="36" viewBox="0 0 54 36" fill="none" xmlns="http://www.w3.org/2000/svg">
<g clip-path="url(#clip0_98_2788)">
<rect width="54" height="36" rx="8" fill="#262626"/>
<path d="M0 0L54 36V0H0Z" fill="#EF4444"/>
<path d="M12.9763 17.2267L13.2637 18.0266C13.295 18.1133 13.377 18.1718 13.4709 18.1742L14.3354 18.1954C14.6622 18.2033 14.7966 18.6101 14.537 18.8046L13.8505 19.32C13.7761 19.3756 13.7448 19.4705 13.7714 19.5588L14.0183 20.3716C14.1117 20.6789 13.7588 20.9302 13.4899 20.7481L12.778 20.2667C12.7011 20.2144 12.5992 20.2144 12.5222 20.2667L11.8103 20.7481C11.5415 20.9302 11.1889 20.6789 11.2819 20.3716L11.5288 19.5588C11.5554 19.4709 11.5241 19.376 11.4497 19.32L10.7624 18.8046C10.5028 18.6097 10.6377 18.2033 10.964 18.1954L11.8285 18.1742C11.9219 18.1722 12.0044 18.1133 12.0357 18.0266L12.3231 17.2267C12.4318 16.9244 12.8676 16.9244 12.9763 17.2267Z" fill="#F5F5F5"/>
<path d="M8.35035 21.0363L8.63781 21.8362C8.6691 21.9229 8.75111 21.9813 8.84496 21.9838L9.70946 22.005C10.0362 22.0128 10.1707 22.4196 9.91111 22.6141L9.22458 23.1296C9.15017 23.1851 9.11889 23.2801 9.14552 23.3684L9.3924 24.1812C9.48583 24.4884 9.13284 24.7397 8.86398 24.5577L8.15208 24.0763C8.07514 24.024 7.97326 24.024 7.89632 24.0763L7.18443 24.5577C6.91557 24.7397 6.563 24.4884 6.656 24.1812L6.90288 23.3684C6.92952 23.2805 6.89823 23.1855 6.82383 23.1296L6.13645 22.6141C5.87689 22.4192 6.01175 22.0128 6.3381 22.005L7.20261 21.9838C7.29603 21.9817 7.37847 21.9229 7.40975 21.8362L7.69721 21.0363C7.80586 20.734 8.2417 20.734 8.35035 21.0363Z" fill="#F5F5F5"/>
<path d="M17.6022 21.0363L17.8896 21.8362C17.9209 21.9229 18.0029 21.9813 18.0968 21.9838L18.9613 22.005C19.2881 22.0128 19.4225 22.4196 19.1629 22.6141L18.4764 23.1296C18.402 23.1851 18.3707 23.2801 18.3974 23.3684L18.6442 24.1812C18.7377 24.4884 18.3847 24.7397 18.1158 24.5577L17.4039 24.0763C17.327 24.024 17.2251 24.024 17.1482 24.0763L16.4363 24.5577C16.1674 24.7397 15.8148 24.4884 15.9078 24.1812L16.1547 23.3684C16.1813 23.2805 16.1501 23.1855 16.0757 23.1296L15.3883 22.6141C15.1287 22.4192 15.2636 22.0128 15.5899 22.005L16.4544 21.9838C16.5479 21.9817 16.6303 21.9229 16.6616 21.8362L16.949 21.0363C17.0577 20.734 17.4935 20.734 17.6022 21.0363Z" fill="#F5F5F5"/>
<path d="M12.9763 27.4172L13.2637 28.2171C13.295 28.3037 13.377 28.3622 13.4709 28.3647L14.3354 28.3858C14.6622 28.3937 14.7966 28.8005 14.537 28.995L13.8505 29.5104C13.7761 29.566 13.7448 29.6609 13.7714 29.7493L14.0183 30.562C14.1117 30.8693 13.7588 31.1206 13.4899 30.9386L12.778 30.4571C12.7011 30.4049 12.5992 30.4049 12.5222 30.4571L11.8103 30.9386C11.5415 31.1206 11.1889 30.8693 11.2819 30.562L11.5288 29.7493C11.5554 29.6614 11.5241 29.5664 11.4497 29.5104L10.7624 28.995C10.5028 28.8001 10.6377 28.3937 10.964 28.3858L11.8285 28.3647C11.9219 28.3626 12.0044 28.3037 12.0357 28.2171L12.3231 27.4172C12.4318 27.1149 12.8676 27.1149 12.9763 27.4172Z" fill="#F5F5F5"/>
<path d="M38.0236 3.18439L35.9384 5.6443C35.8576 5.73924 35.8135 5.85998 35.8135 5.9849V8.09423C35.8135 8.43482 35.4954 8.68631 35.1631 8.6072L33.0072 8.0909C32.4168 7.94933 32.0945 8.7546 32.6199 9.05938L34.1081 9.92293C34.3829 10.0828 34.4553 10.4467 34.2621 10.699C34.1788 10.8081 34.0556 10.8806 33.9199 10.9006L31.2634 11.287C31.091 11.3119 30.9428 11.4202 30.8662 11.5768L30.0543 13.2322C29.8927 13.562 30.1092 13.9509 30.474 13.9884L33.9382 14.344C34.0623 14.3564 34.1872 14.3248 34.2904 14.254L35.3555 13.5229C35.5703 13.3755 35.8618 13.4071 36.04 13.5987L38.5965 16.3442C38.6965 16.4516 38.8364 16.5124 38.9821 16.5124H42.3614C42.682 16.5124 42.9276 16.2293 42.8835 15.912L42.6212 14.0458C42.5537 13.5645 43.1175 13.2556 43.4864 13.572C44.3733 14.3323 45.3892 15.5797 44.5814 16.8713C44.3108 17.3035 44.7347 17.8381 45.2102 17.6524C45.4342 17.565 45.6524 17.4526 45.848 17.3094C46.2736 16.9962 46.8448 17.4126 46.6625 17.9081C46.5351 18.252 46.3194 18.5976 45.9696 18.9115C45.5041 19.3287 46.0013 20.0632 46.5575 19.7784C47.3337 19.3804 47.9499 18.6151 47.9974 17.2003C48.074 14.9519 46.4734 13.6553 45.0578 12.9524C44.5889 12.7193 44.718 12.0156 45.2376 11.9565L45.7406 11.899C46.1462 11.8524 46.3469 11.3827 46.1012 11.058L42.7769 6.65609C42.6578 6.49786 42.4596 6.42042 42.2648 6.45456L40.0755 6.84179C39.7882 6.89258 39.5142 6.70022 39.4643 6.41293L38.9471 3.43754C38.8705 2.99702 38.3151 2.84546 38.0253 3.18688L38.0236 3.18439Z" fill="#FBBF24"/>
</g>
<defs>
<clipPath id="clip0_98_2788">
<rect width="54" height="36" rx="8" fill="white"/>
</clipPath>
</defs>
</svg>
