<svg width="54" height="36" viewBox="0 0 54 36" fill="none" xmlns="http://www.w3.org/2000/svg">
<g clip-path="url(#clip0_98_2927)">
<path d="M0 0H13.5V36H0V0Z" fill="#F5F5F5"/>
<path d="M13.5 0H27V36H13.5V0Z" fill="#14532D"/>
<path d="M27 0H40.5V36H27V0Z" fill="#14532D"/>
<path d="M40.5 0H54V36H40.5V0Z" fill="#14532D"/>
<path d="M32.1534 12.6981L33.1556 13.4059C33.2644 13.4825 33.4098 13.4837 33.5228 13.409L34.5625 12.7182C34.9555 12.4569 35.4512 12.8267 35.3053 13.2715L34.9203 14.4494C34.8783 14.5767 34.92 14.7149 35.0246 14.7973L35.9894 15.5539C36.3543 15.8399 36.145 16.4293 35.6763 16.4367L34.436 16.4568C34.3017 16.4588 34.1813 16.5431 34.1335 16.6686L33.6904 17.8273C33.5232 18.2651 32.8982 18.2599 32.7538 17.8196L32.3728 16.6541C32.3315 16.5281 32.2159 16.4417 32.0815 16.4372L30.842 16.3968C30.3737 16.3812 30.1967 15.7891 30.5761 15.5095L31.5808 14.7688C31.6895 14.689 31.7383 14.5511 31.7035 14.4227L31.3811 13.2388C31.2593 12.7914 31.7747 12.4306 32.1534 12.6981Z" fill="#F5F5F5"/>
<path d="M33.1397 21.2351C33.1397 21.2351 33.1455 21.231 33.1479 21.2294C33.3434 21.0925 33.5905 21.3134 33.4727 21.5213C33.0556 22.2586 32.4738 22.9151 31.7363 23.4315C29.058 25.3068 25.3112 24.6125 23.4241 21.89C21.5369 19.1674 22.1809 15.4729 24.8534 13.6016C25.592 13.0844 26.4091 12.7614 27.2445 12.6216C27.4791 12.5828 27.6009 12.8915 27.4066 13.0275C27.4031 13.03 27.4008 13.0316 27.3973 13.0341C25.1614 14.5996 24.6331 17.7044 26.2194 19.9698C27.8056 22.2352 30.9038 22.8007 33.1397 21.2351Z" fill="#F5F5F5"/>
</g>
<defs>
<clipPath id="clip0_98_2927">
<rect width="54" height="36" rx="8" fill="white"/>
</clipPath>
</defs>
</svg>
