<svg width="54" height="36" viewBox="0 0 54 36" fill="none" xmlns="http://www.w3.org/2000/svg">
<g clip-path="url(#clip0_98_3074)">
<path d="M21.6 0H0V36H21.6V0Z" fill="#14532D"/>
<path d="M54 0H21.6V36H54V0Z" fill="#EF4444"/>
<path d="M21.57 8.63965C16.41 8.63965 12.21 12.8396 12.21 17.9996C12.21 23.1596 16.41 27.3596 21.57 27.3596C26.73 27.3596 30.93 23.1596 30.93 17.9996C30.93 12.8396 26.73 8.63965 21.57 8.63965ZM28.36 13.9396L23.58 16.1696L26.22 11.5996C27.08 12.2296 27.81 13.0196 28.36 13.9396ZM22.39 10.1196C23.24 10.2096 24.04 10.4296 24.79 10.7696L22.39 14.9296V10.1196ZM20.75 16.0096L16.59 11.8496C17.75 10.9096 19.18 10.2796 20.75 10.1196V16.0096ZM17.69 15.2796L14.79 13.9296C14.98 13.6096 15.19 13.2996 15.42 13.0196L17.69 15.2896V15.2796ZM17.86 17.1796H13.7C13.76 16.5696 13.9 15.9796 14.1 15.4196L17.87 17.1796H17.86ZM17.89 18.8196L14.1 20.5896C13.9 20.0296 13.76 19.4396 13.7 18.8196H17.9H17.89ZM20.75 25.8796C19.9 25.7896 19.1 25.5696 18.35 25.2296L20.75 21.0696V25.8796ZM22.39 19.9896L26.55 24.1496C25.39 25.0896 23.96 25.7196 22.39 25.8796V19.9896ZM25.45 20.7196L28.35 22.0696C28.16 22.3896 27.95 22.6996 27.72 22.9796L25.45 20.7096V20.7196ZM25.28 18.8196H29.45C29.39 19.4296 29.25 20.0196 29.05 20.5796L25.28 18.8196ZM25.31 17.1796L29.05 15.4296C29.24 15.9896 29.38 16.5696 29.44 17.1796H25.3H25.31ZM14.79 22.0796L19.54 19.8696L16.92 24.3996C16.06 23.7796 15.34 22.9896 14.79 22.0796Z" fill="#FBBF24"/>
<path d="M15.48 12.6002C15.48 11.8002 16.12 11.1602 16.92 11.1602H26.28C27.08 11.1602 27.72 11.8002 27.72 12.6002V19.0802C27.72 22.4602 24.98 25.2002 21.6 25.2002C18.22 25.2002 15.48 22.4602 15.48 19.0802V12.6002Z" fill="#EF4444"/>
<path d="M17.28 13.85V18.89C17.28 21.14 18.92 23.16 21.17 23.38C23.75 23.63 25.92 21.61 25.92 19.08V13.85C25.92 13.36 25.52 12.96 25.03 12.96H18.17C17.68 12.96 17.28 13.36 17.28 13.85Z" fill="#F5F5F5"/>
<path d="M21.6 18.7199C22.0971 18.7199 22.5 18.317 22.5 17.8199C22.5 17.3229 22.0971 16.9199 21.6 16.9199C21.1029 16.9199 20.7 17.3229 20.7 17.8199C20.7 18.317 21.1029 18.7199 21.6 18.7199Z" fill="#3B82F6"/>
<path d="M21.6 21.5998C22.0971 21.5998 22.5 21.1969 22.5 20.6998C22.5 20.2027 22.0971 19.7998 21.6 19.7998C21.1029 19.7998 20.7 20.2027 20.7 20.6998C20.7 21.1969 21.1029 21.5998 21.6 21.5998Z" fill="#3B82F6"/>
<path d="M21.6 15.4797C22.0971 15.4797 22.5 15.0767 22.5 14.5797C22.5 14.0826 22.0971 13.6797 21.6 13.6797C21.1029 13.6797 20.7 14.0826 20.7 14.5797C20.7 15.0767 21.1029 15.4797 21.6 15.4797Z" fill="#3B82F6"/>
<path d="M24.12 18.7199C24.6171 18.7199 25.02 18.317 25.02 17.8199C25.02 17.3229 24.6171 16.9199 24.12 16.9199C23.6229 16.9199 23.22 17.3229 23.22 17.8199C23.22 18.317 23.6229 18.7199 24.12 18.7199Z" fill="#3B82F6"/>
<path d="M19.08 18.7199C19.577 18.7199 19.98 18.317 19.98 17.8199C19.98 17.3229 19.577 16.9199 19.08 16.9199C18.5829 16.9199 18.18 17.3229 18.18 17.8199C18.18 18.317 18.5829 18.7199 19.08 18.7199Z" fill="#3B82F6"/>
</g>
<defs>
<clipPath id="clip0_98_3074">
<rect width="54" height="36" rx="8" fill="white"/>
</clipPath>
</defs>
</svg>
