<svg width="54" height="36" viewBox="0 0 54 36" fill="none" xmlns="http://www.w3.org/2000/svg">
<g clip-path="url(#clip0_98_3191)">
<path d="M0 0H54V12H0V0Z" fill="#EF4444"/>
<path d="M0 12H54V24H0V12Z" fill="#F5F5F5"/>
<path d="M0 24H54V36H0V24Z" fill="#3B82F6"/>
<path fill-rule="evenodd" clip-rule="evenodd" d="M27 21.9286C29.1697 21.9286 30.9286 20.1697 30.9286 18C30.9286 15.8303 29.1697 14.0714 27 14.0714C24.8303 14.0714 23.0714 15.8303 23.0714 18C23.0714 20.1697 24.8303 21.9286 27 21.9286ZM27 23C29.7614 23 32 20.7614 32 18C32 15.2386 29.7614 13 27 13C24.2386 13 22 15.2386 22 18C22 20.7614 24.2386 23 27 23Z" fill="#22C55E"/>
<path d="M27.4033 15.7976L27.7584 16.8474C27.7971 16.9612 27.8984 17.0379 28.0143 17.0412L29.0822 17.0689C29.4859 17.0793 29.6519 17.6132 29.3313 17.8684L28.4833 18.545C28.3913 18.6179 28.3527 18.7425 28.3856 18.8584L28.6906 19.9252C28.806 20.3285 28.3699 20.6583 28.0378 20.4194L27.1584 19.7875C27.0634 19.7189 26.9375 19.7189 26.8425 19.7875L25.9631 20.4194C25.631 20.6583 25.1955 20.3285 25.3103 19.9252L25.6153 18.8584C25.6482 18.7431 25.6096 18.6184 25.5177 18.545L24.6686 17.8684C24.3479 17.6126 24.5145 17.0793 24.9176 17.0689L25.9856 17.0412C26.101 17.0385 26.2028 16.9612 26.2414 16.8474L26.5965 15.7976C26.7307 15.4008 27.2691 15.4008 27.4033 15.7976Z" fill="#FBBF24"/>
</g>
<defs>
<clipPath id="clip0_98_3191">
<rect width="54" height="36" rx="8" fill="white"/>
</clipPath>
</defs>
</svg>
