<svg width="54" height="36" viewBox="0 0 54 36" fill="none" xmlns="http://www.w3.org/2000/svg">
<g clip-path="url(#clip0_98_3200)">
<rect width="54" height="36" rx="8" fill="#450A0A"/>
<path d="M11.52 3.65L17.08 2.36C17.45 2.27 17.45 1.74 17.08 1.65L10.04 0C10.04 0 9.99 0 9.96 0H0V36H9.96C9.96 36 10.02 36 10.04 36L17.08 34.36C17.45 34.27 17.45 33.74 17.08 33.65L11.52 32.36C11.15 32.27 11.15 31.74 11.52 31.65L17.08 30.36C17.45 30.27 17.45 29.74 17.08 29.65L11.52 28.36C11.15 28.27 11.15 27.74 11.52 27.65L17.08 26.36C17.45 26.27 17.45 25.74 17.08 25.65L11.52 24.36C11.15 24.27 11.15 23.74 11.52 23.65L17.08 22.36C17.45 22.27 17.45 21.74 17.08 21.65L11.52 20.36C11.15 20.27 11.15 19.74 11.52 19.65L17.08 18.36C17.45 18.27 17.45 17.74 17.08 17.65L11.52 16.36C11.15 16.27 11.15 15.74 11.52 15.65L17.08 14.36C17.45 14.27 17.45 13.74 17.08 13.65L11.52 12.36C11.15 12.27 11.15 11.74 11.52 11.65L17.08 10.36C17.45 10.27 17.45 9.74 17.08 9.65L11.52 8.36C11.15 8.27 11.15 7.74 11.52 7.65L17.08 6.36C17.45 6.27 17.45 5.74 17.08 5.65L11.52 4.36C11.15 4.27 11.15 3.74 11.52 3.65Z" fill="#F5F5F5"/>
</g>
<defs>
<clipPath id="clip0_98_3200">
<rect width="54" height="36" rx="8" fill="white"/>
</clipPath>
</defs>
</svg>
