<svg width="54" height="36" viewBox="0 0 54 36" fill="none" xmlns="http://www.w3.org/2000/svg">
<g clip-path="url(#clip0_98_3330)">
<path d="M0 0H54V18H0V0Z" fill="#3B82F6"/>
<path d="M0 18H54V27H0V18Z" fill="#FBBF24"/>
<path d="M0 27H54V36H0V27Z" fill="#22C55E"/>
<path fill-rule="evenodd" clip-rule="evenodd" d="M44.2241 5.1911L44.4437 6.55006C44.4759 6.74336 44.719 6.8078 44.842 6.6555L45.7119 5.58649C45.873 5.38733 46.1893 5.56892 46.0985 5.80908L45.6094 7.09775C45.5391 7.27933 45.7177 7.45799 45.9023 7.39063L47.1909 6.90152C47.4311 6.81073 47.6127 7.12704 47.4135 7.28812L46.3445 8.15797C46.1922 8.28098 46.2596 8.527 46.4499 8.55629L47.8089 8.77595C48.0637 8.81695 48.0637 9.18305 47.8089 9.22405L46.4499 9.44371C46.2566 9.47593 46.1922 9.71902 46.3445 9.84203L47.4135 10.7119C47.6127 10.873 47.4311 11.1893 47.1909 11.0985L45.9023 10.6094C45.7207 10.5391 45.542 10.7177 45.6094 10.9023L46.0985 12.1909C46.1893 12.4311 45.873 12.6127 45.7119 12.4135L44.842 11.3445C44.719 11.1922 44.473 11.2596 44.4437 11.4499L44.2241 12.8089C44.183 13.0637 43.817 13.0637 43.7759 12.8089L43.5563 11.4499C43.5241 11.2566 43.281 11.1922 43.158 11.3445L42.2881 12.4135C42.127 12.6127 41.8107 12.4311 41.9015 12.1909L42.3906 10.9023C42.4609 10.7207 42.2823 10.542 42.0977 10.6094L40.8091 11.0985C40.5689 11.1893 40.3873 10.873 40.5865 10.7119L41.6555 9.84203C41.8078 9.71902 41.7404 9.473 41.5501 9.44371L40.1911 9.22405C39.9363 9.18305 39.9363 8.81695 40.1911 8.77595L41.5501 8.55629C41.7434 8.52407 41.8078 8.28098 41.6555 8.15797L40.5865 7.28812C40.3873 7.12704 40.5689 6.81073 40.8091 6.90152L42.0977 7.39063C42.2793 7.46092 42.458 7.28226 42.3906 7.09775L41.9015 5.80908C41.8107 5.56892 42.127 5.38733 42.2881 5.58649L43.158 6.6555C43.281 6.8078 43.527 6.74044 43.5563 6.55006L43.7759 5.1911C43.817 4.9363 44.183 4.9363 44.2241 5.1911Z" fill="#FBBF24"/>
</g>
<defs>
<clipPath id="clip0_98_3330">
<rect width="54" height="36" rx="8" fill="white"/>
</clipPath>
</defs>
</svg>
