<svg width="54" height="36" viewBox="0 0 54 36" fill="none" xmlns="http://www.w3.org/2000/svg">
<rect width="54" height="36" rx="8" fill="#14532D"/>
<path d="M17.95 9.26953C17.55 9.26953 17.23 9.58953 17.23 9.98953V17.4295C17.23 18.3895 16.45 19.1595 15.5 19.1595H11.52C11.12 19.1595 10.8 19.4795 10.8 19.8795C10.8 20.2795 11.12 20.5995 11.52 20.5995H15.5C17.25 20.5995 18.67 19.1795 18.67 17.4295V9.98953C18.67 9.58953 18.35 9.26953 17.95 9.26953Z" fill="#F5F5F5"/>
<path d="M12.68 18.3495H13.84C14.24 18.3495 14.56 18.0295 14.56 17.6295V10.9795C14.56 10.8295 14.68 10.7195 14.82 10.7195H15.08V17.6295C15.08 18.0295 15.4 18.3495 15.8 18.3495C16.2 18.3495 16.52 18.0295 16.52 17.6295V9.99953C16.52 9.59953 16.2 9.27953 15.8 9.27953H14.82C13.88 9.27953 13.12 10.0395 13.12 10.9795V16.9095H12.68C12.44 16.9095 12.24 16.7095 12.24 16.4695V9.98953C12.24 9.58953 11.92 9.26953 11.52 9.26953C11.12 9.26953 10.8 9.58953 10.8 9.98953V16.4695C10.8 17.4995 11.64 18.3495 12.68 18.3495Z" fill="#F5F5F5"/>
<path d="M29.15 19.1695H20.91V9.98953C20.91 9.58953 20.59 9.26953 20.19 9.26953C19.79 9.26953 19.47 9.58953 19.47 9.98953V19.8895C19.47 20.2895 19.79 20.6095 20.19 20.6095H29.15C29.55 20.6095 29.87 20.2895 29.87 19.8895C29.87 19.4895 29.55 19.1695 29.15 19.1695Z" fill="#F5F5F5"/>
<path d="M22.36 18.3495C22.76 18.3495 23.08 18.0295 23.08 17.6295V10.7095H24.03V17.6295C24.03 18.0295 24.35 18.3495 24.75 18.3495C25.15 18.3495 25.47 18.0295 25.47 17.6295V9.98953C25.47 9.58953 25.15 9.26953 24.75 9.26953H22.36C21.96 9.26953 21.64 9.58953 21.64 9.98953V17.6295C21.64 18.0295 21.96 18.3495 22.36 18.3495Z" fill="#F5F5F5"/>
<path d="M26.49 9.26953C26.09 9.26953 25.77 9.58953 25.77 9.98953C25.77 10.3895 26.09 10.7095 26.49 10.7095C27.8 10.7095 28.87 11.7795 28.87 13.0895V16.7095C28.87 16.8195 28.78 16.9195 28.66 16.9195H26.49C26.09 16.9195 25.77 17.2395 25.77 17.6395C25.77 18.0395 26.09 18.3595 26.49 18.3595H28.66C29.57 18.3595 30.31 17.6195 30.31 16.7095V13.0895C30.31 10.9895 28.6 9.26953 26.49 9.26953Z" fill="#F5F5F5"/>
<path d="M34.9 9.98953C34.9 9.58953 34.58 9.26953 34.18 9.26953C33.78 9.26953 33.46 9.58953 33.46 9.98953V17.0295C33.46 18.2095 32.5 19.1695 31.32 19.1695C30.92 19.1695 30.6 19.4895 30.6 19.8895C30.6 20.2895 30.92 20.6095 31.32 20.6095C33.29 20.6095 34.9 18.9995 34.9 17.0295V9.98953Z" fill="#F5F5F5"/>
<path d="M42.48 9.26953C42.08 9.26953 41.76 9.58953 41.76 9.98953V17.0295C41.76 18.2095 40.8 19.1695 39.62 19.1695C39.22 19.1695 38.9 19.4895 38.9 19.8895C38.9 20.2895 39.22 20.6095 39.62 20.6095C41.59 20.6095 43.2 18.9995 43.2 17.0295V9.98953C43.2 9.58953 42.88 9.26953 42.48 9.26953Z" fill="#F5F5F5"/>
<path d="M31.82 18.3504C32.22 18.3504 32.54 18.0304 32.54 17.6304V10.1604C32.54 9.76043 32.22 9.44043 31.82 9.44043C31.42 9.44043 31.1 9.76043 31.1 10.1604V17.6304C31.1 18.0304 31.42 18.3504 31.82 18.3504Z" fill="#F5F5F5"/>
<path d="M39.62 16.8597C39.62 16.8597 39.62 16.8697 39.62 16.8897C39.62 16.9097 39.61 16.9097 39.59 16.9097H37.75C37.31 16.9097 36.94 16.5497 36.94 16.0997V13.8897C36.94 13.4897 36.62 13.1697 36.22 13.1697C35.82 13.1697 35.5 13.4897 35.5 13.8897V16.0997C35.5 17.3397 36.51 18.3497 37.75 18.3497H39.59C40.14 18.3497 40.64 18.0497 40.89 17.5597C41.14 17.0797 41.11 16.4897 40.8 16.0397L36.45 9.7497C36.22 9.4197 35.78 9.3397 35.45 9.5697C35.12 9.7997 35.04 10.2397 35.27 10.5697L39.62 16.8597Z" fill="#F5F5F5"/>
<path d="M37.7 19.1201H35.35C34.95 19.1201 34.63 19.4401 34.63 19.8401C34.63 20.2401 34.95 20.5601 35.35 20.5601H37.7C38.1 20.5601 38.42 20.2401 38.42 19.8401C38.42 19.4401 38.1 19.1201 37.7 19.1201Z" fill="#F5F5F5"/>
<path d="M40.07 14.29C40.21 14.5 40.43 14.61 40.67 14.61C40.74 14.61 40.81 14.61 40.88 14.58C41.18 14.49 41.39 14.21 41.39 13.89V9.98996C41.39 9.58996 41.07 9.26996 40.67 9.26996C40.27 9.26996 39.95 9.58996 39.95 9.98996V11.5L38.69 9.58996C38.47 9.25996 38.02 9.16996 37.69 9.38996C37.36 9.60996 37.27 10.06 37.49 10.39L40.07 14.29Z" fill="#F5F5F5"/>
<path d="M27 16.0595C27.4 16.0595 27.72 15.7395 27.72 15.3395V12.2395C27.72 11.8395 27.4 11.5195 27 11.5195C26.6 11.5195 26.28 11.8395 26.28 12.2395V15.3395C26.28 15.7395 26.6 16.0595 27 16.0595Z" fill="#F5F5F5"/>
<path d="M18.72 25.6504H35.28C35.68 25.6504 36 25.9704 36 26.3704C36 26.7704 35.68 27.0904 35.28 27.0904H18.72C18.32 27.0904 18 26.7704 18 26.3704C18 25.9704 18.32 25.6504 18.72 25.6504Z" fill="#F5F5F5"/>
</svg>
