<svg width="54" height="36" viewBox="0 0 54 36" fill="none" xmlns="http://www.w3.org/2000/svg">
<g clip-path="url(#clip0_98_3732)">
<path d="M0 0H54V18H0V0Z" fill="#EF4444"/>
<path d="M0 18H54V36H0V18Z" fill="#F5F5F5"/>
<path d="M13.6476 6.65091L13.865 7.25569C13.8886 7.32122 13.9506 7.36542 14.0216 7.3673L14.6752 7.38329C14.9223 7.38925 15.0239 7.69681 14.8277 7.84385L14.3086 8.23356C14.2524 8.27557 14.2287 8.34737 14.2488 8.41415L14.4355 9.02865C14.5061 9.26097 14.2393 9.45096 14.036 9.31332L13.4977 8.94933C13.4396 8.90982 13.3625 8.90982 13.3044 8.94933L12.7661 9.31332C12.5628 9.45096 12.2963 9.26097 12.3666 9.02865L12.5533 8.41415C12.5734 8.34768 12.5497 8.27588 12.4935 8.23356L11.9738 7.84385C11.7775 7.6965 11.8795 7.38925 12.1262 7.38329L12.7799 7.3673C12.8505 7.36574 12.9128 7.32122 12.9365 7.25569L13.1538 6.65091C13.236 6.42235 13.5655 6.42235 13.6476 6.65091Z" fill="#F5F5F5"/>
<path d="M15.4478 10.6128L15.6652 11.2176C15.6888 11.2831 15.7508 11.3273 15.8218 11.3292L16.4754 11.3452C16.7225 11.3512 16.8241 11.6587 16.6279 11.8058L16.1088 12.1955C16.0526 12.2375 16.0289 12.3093 16.049 12.3761L16.2357 12.9906C16.3063 13.2229 16.0395 13.4129 15.8362 13.2752L15.2979 12.9112C15.2398 12.8717 15.1627 12.8717 15.1046 12.9112L14.5663 13.2752C14.3631 13.4129 14.0965 13.2229 14.1668 12.9906L14.3535 12.3761C14.3736 12.3096 14.3499 12.2378 14.2937 12.1955L13.774 11.8058C13.5777 11.6584 13.6797 11.3512 13.9264 11.3452L14.5801 11.3292C14.6507 11.3276 14.713 11.2831 14.7367 11.2176L14.954 10.6128C15.0362 10.3843 15.3657 10.3843 15.4478 10.6128Z" fill="#F5F5F5"/>
<path d="M20.8483 6.65091L21.0657 7.25569C21.0893 7.32122 21.1513 7.36542 21.2223 7.3673L21.8759 7.38329C22.123 7.38925 22.2246 7.69681 22.0284 7.84385L21.5093 8.23356C21.4531 8.27557 21.4294 8.34737 21.4495 8.41415L21.6362 9.02865C21.7068 9.26097 21.44 9.45096 21.2367 9.31332L20.6984 8.94933C20.6403 8.90982 20.5632 8.90982 20.5051 8.94933L19.9668 9.31332C19.7635 9.45096 19.497 9.26097 19.5673 9.02865L19.754 8.41415C19.7741 8.34768 19.7504 8.27588 19.6942 8.23356L19.1745 7.84385C18.9782 7.6965 19.0802 7.38925 19.3269 7.38329L19.9806 7.3673C20.0512 7.36574 20.1135 7.32122 20.1372 7.25569L20.3545 6.65091C20.4367 6.42235 20.7662 6.42235 20.8483 6.65091Z" fill="#F5F5F5"/>
<path d="M19.4082 10.6128L19.6256 11.2176C19.6492 11.2831 19.7112 11.3273 19.7822 11.3292L20.4358 11.3452C20.6829 11.3512 20.7845 11.6587 20.5883 11.8058L20.0692 12.1955C20.013 12.2375 19.9893 12.3093 20.0095 12.3761L20.1961 12.9906C20.2667 13.2229 19.9999 13.4129 19.7966 13.2752L19.2583 12.9112C19.2002 12.8717 19.1231 12.8717 19.065 12.9112L18.5267 13.2752C18.3235 13.4129 18.0569 13.2229 18.1272 12.9906L18.3139 12.3761C18.334 12.3096 18.3103 12.2378 18.2541 12.1955L17.7344 11.8058C17.5381 11.6584 17.6401 11.3512 17.8869 11.3452L18.5405 11.3292C18.6111 11.3276 18.6734 11.2831 18.6971 11.2176L18.9144 10.6128C18.9966 10.3843 19.3261 10.3843 19.4082 10.6128Z" fill="#F5F5F5"/>
<path d="M17.248 4.13138L17.4653 4.73616C17.489 4.80168 17.551 4.84589 17.622 4.84777L18.2756 4.86376C18.5226 4.86972 18.6243 5.17728 18.428 5.32432L17.909 5.71403C17.8527 5.75604 17.8291 5.82784 17.8492 5.89462L18.0359 6.50912C18.1065 6.74143 17.8396 6.93143 17.6363 6.79379L17.0981 6.4298C17.0399 6.39029 16.9629 6.39029 16.9047 6.4298L16.3665 6.79379C16.1632 6.93143 15.8966 6.74143 15.967 6.50912L16.1536 5.89462C16.1738 5.82815 16.1501 5.75635 16.0938 5.71403L15.5741 5.32432C15.3779 5.17697 15.4799 4.86972 15.7266 4.86376L16.3802 4.84777C16.4509 4.8462 16.5132 4.80168 16.5368 4.73616L16.7542 4.13138C16.8363 3.90282 17.1659 3.90282 17.248 4.13138Z" fill="#F5F5F5"/>
<path d="M13.3342 14.0058C13.3342 14.0058 13.3414 14.0058 13.3442 14.0058C13.5829 14.0058 13.6586 14.3285 13.4428 14.4313C12.6783 14.7959 11.8252 15 10.9249 15C7.65523 15 4.98435 12.2822 5.00007 8.96961C5.01579 5.65702 7.66237 3 10.9249 3C11.8266 3 12.6812 3.20405 13.4457 3.56874C13.6601 3.67149 13.5829 3.99421 13.3457 3.99421C13.3414 3.99421 13.3385 3.99421 13.3342 3.99421C10.6048 3.99421 8.39118 6.23444 8.39118 9C8.39118 11.7656 10.6048 14.0058 13.3342 14.0058Z" fill="#F5F5F5"/>
</g>
<defs>
<clipPath id="clip0_98_3732">
<rect width="54" height="36" rx="8" fill="white"/>
</clipPath>
</defs>
</svg>
