<svg width="54" height="36" viewBox="0 0 54 36" fill="none" xmlns="http://www.w3.org/2000/svg">
<g clip-path="url(#clip0_98_3759)">
<path d="M0 0H54V12H0V0Z" fill="#F5F5F5"/>
<path d="M0 12H54V24H0V12Z" fill="#1E3A8A"/>
<path d="M0 24H54V36H0V24Z" fill="#EF4444"/>
<g clip-path="url(#clip1_98_3759)">
<path d="M28.0075 6.89254H15.8177C14.343 6.89254 13.1259 8.0495 13.0536 9.52224C12.9718 11.198 12.8919 13.7008 12.8919 17.0993C12.8919 23.2995 17.0442 26.7948 20.5724 28.7553C21.407 29.2196 22.422 29.2196 23.2566 28.7553C26.7848 26.7967 30.9361 23.307 30.9276 17.0984C30.9276 13.7018 30.8506 11.2018 30.7707 9.52506C30.7002 8.05044 29.4831 6.8916 28.0066 6.8916L28.0075 6.89254Z" fill="#EF4444"/>
<path d="M21.9154 30C21.3055 30 20.6955 29.8459 20.1391 29.5367C17.8609 28.2707 16.0329 26.7669 14.7058 25.0677C12.9107 22.7679 12 20.0865 12 17.0996C12 14.1128 12.0545 11.6852 12.1626 9.47932C12.2575 7.5282 13.8637 6 15.8177 6H28.0075C29.9643 6 31.5705 7.53007 31.6635 9.48402C31.7679 11.6889 31.8214 14.2509 31.8214 17.0996C31.8252 20.0893 30.9173 22.7716 29.1231 25.0705C27.7979 26.7679 25.9699 28.2707 23.6908 29.5367C23.1353 29.8449 22.5254 30 21.9154 30ZM15.8177 7.78571C14.8167 7.78571 13.9944 8.56767 13.9455 9.56579C13.8393 11.7434 13.7848 14.2782 13.7848 17.0996C13.7848 21.6532 16.2143 25.312 21.0056 27.9756C21.5742 28.2914 22.2538 28.2914 22.8224 27.9756C27.6137 25.3149 30.0404 21.656 30.0338 17.1006C30.0338 14.2791 29.9812 11.7453 29.8778 9.56861C29.8299 8.56861 29.0085 7.78571 28.0056 7.78571H15.8177Z" fill="#F5F5F5"/>
<path d="M26.9173 15.6279C26.1184 15.6279 24.7942 15.6279 23.9727 15.6279C23.5695 15.6279 23.2425 15.3008 23.2425 14.8967C23.2425 14.4935 23.5695 14.1655 23.9737 14.1655H25.0141C25.7312 14.1655 26.3477 13.6147 26.3816 12.8986C26.4173 12.1345 25.8083 11.5029 25.0517 11.5029H23.9859C23.5761 11.5029 23.2434 11.1702 23.2434 10.7604V10.3065C23.2434 9.58937 22.6927 8.97283 21.9765 8.93899C21.2124 8.90328 20.5808 9.5123 20.5808 10.2689V10.7604C20.5808 11.1702 20.2481 11.5029 19.8383 11.5029H18.8101C18.093 11.5029 17.4765 12.0537 17.4427 12.7698C17.4069 13.5339 18.016 14.1655 18.7725 14.1655H19.8506C20.2538 14.1655 20.5818 14.4926 20.5818 14.8967C20.5818 15.2999 20.2547 15.6279 19.8506 15.6279H16.906C16.1889 15.6279 15.5724 16.1787 15.5385 16.8948C15.5028 17.6589 16.1118 18.2905 16.8684 18.2905H19.8383C20.2481 18.2905 20.5808 18.6232 20.5808 19.033V21.9653C20.5808 22.6824 21.1316 23.299 21.8477 23.3328C22.6118 23.3685 23.2434 22.7595 23.2434 22.0029V19.033C23.2434 18.6232 23.5761 18.2905 23.9859 18.2905H26.9558C27.7124 18.2905 28.3214 17.6589 28.2857 16.8948C28.2519 16.1787 27.6353 15.6279 26.9182 15.6279H26.9173Z" fill="#F5F5F5"/>
<path d="M28.6457 22.57C27.4577 24.6743 25.5141 26.4826 22.8243 27.976C22.2547 28.2918 21.5761 28.2918 21.0066 27.976C18.3158 26.4807 16.3703 24.6715 15.1814 22.5653C17.0658 21.179 19.3929 20.3613 21.9107 20.3613C24.4286 20.3613 26.7603 21.1809 28.6457 22.57Z" fill="#1E3A8A"/>
</g>
</g>
<defs>
<clipPath id="clip0_98_3759">
<rect width="54" height="36" rx="8" fill="white"/>
</clipPath>
<clipPath id="clip1_98_3759">
<rect width="19.8214" height="24" fill="white" transform="translate(12 6)"/>
</clipPath>
</defs>
</svg>
