<svg width="54" height="36" viewBox="0 0 54 36" fill="none" xmlns="http://www.w3.org/2000/svg">
<g clip-path="url(#clip0_98_3915)">
<path d="M0 0H54V18H0V0Z" fill="#F5F5F5"/>
<path d="M0 18H54V36H0V18Z" fill="#93C5FD"/>
<path d="M30.5017 9.73588C30.4625 9.68933 30.4196 9.6437 30.373 9.59807C29.8775 9.10067 29.2158 8.82687 28.5121 8.82687C28.2593 8.82687 28.0102 8.86338 27.7692 8.93456C27.6652 8.90262 27.5584 8.87889 27.4498 8.86155V8.42712C27.4498 8.30939 27.4014 8.20261 27.3239 8.12503C27.2463 8.04746 27.1413 8 27.0227 8C26.7872 8 26.5956 8.19166 26.5956 8.42712V8.86246C26.4888 8.8798 26.3829 8.90444 26.2789 8.93456C26.0379 8.86338 25.7869 8.82687 25.5332 8.82687C24.7693 8.82687 24.0456 9.15725 23.5454 9.73405C23.1302 10.2114 22.9011 10.8247 22.9011 11.459C22.9011 11.6944 23.0919 11.8852 23.3282 11.8852H24.2099C24.25 11.8824 24.2893 11.8806 24.3303 11.8806H29.715C29.7561 11.8806 29.7953 11.8824 29.8355 11.8852H30.7171C30.9535 11.8852 31.1442 11.6944 31.1442 11.459C31.1442 10.8238 30.9152 10.2114 30.5017 9.73588ZM24.4262 11.0319H23.8065C23.8731 10.7608 24.0045 10.5071 24.1898 10.2926C24.4116 10.0371 24.6981 9.85361 25.0157 9.75778C24.7054 10.1228 24.5028 10.5646 24.4262 11.0319ZM26.5956 11.0319H25.2959C25.3625 10.7608 25.494 10.5071 25.6802 10.2926C25.922 10.0124 26.2433 9.81893 26.5956 9.73223V11.0319ZM27.4498 11.0319V9.73131C27.7619 9.80798 28.0476 9.96769 28.2803 10.2013C28.3104 10.2315 28.3396 10.2625 28.3661 10.2935C28.5523 10.5071 28.6828 10.7608 28.7494 11.0319H27.4498ZM29.6192 11.0319C29.5425 10.5627 29.339 10.1201 29.0287 9.75596C29.3052 9.83901 29.5599 9.99051 29.7698 10.2013C29.8008 10.2315 29.8291 10.2625 29.8556 10.2935C30.0417 10.5071 30.1723 10.7608 30.2389 11.0319H29.6192Z" fill="#FBBF24"/>
<path d="M30.2389 11.0318H29.6192C29.5425 10.5626 29.339 10.12 29.0287 9.75586C29.3052 9.83891 29.5599 9.99041 29.7698 10.2012C29.8008 10.2314 29.8291 10.2624 29.8556 10.2934C30.0418 10.507 30.1723 10.7607 30.2389 11.0318Z" fill="#EF4444"/>
<path d="M28.7494 11.032H27.4498V9.73145C27.7619 9.80811 28.0476 9.96782 28.2803 10.2015C28.3104 10.2316 28.3396 10.2626 28.3661 10.2936C28.5523 10.5072 28.6828 10.7609 28.7494 11.032Z" fill="#EF4444"/>
<path d="M26.5956 9.73242V11.032H25.2959C25.3626 10.761 25.494 10.5073 25.6802 10.2928C25.922 10.0126 26.2433 9.81912 26.5956 9.73242Z" fill="#EF4444"/>
<path d="M25.0157 9.75781C24.7054 10.1229 24.5028 10.5646 24.4262 11.0319H23.8065C23.8731 10.7608 24.0045 10.5071 24.1898 10.2926C24.4116 10.0371 24.6981 9.85364 25.0157 9.75781Z" fill="#EF4444"/>
<path d="M27.0227 26.8301C21.7722 26.8301 17.5 22.558 17.5 17.3074C17.5 15.0377 18.3123 12.84 19.7862 11.1178C20.2106 10.6222 20.9562 10.5647 21.4518 10.9882C21.9474 11.4126 22.0049 12.1582 21.5814 12.6538C20.4734 13.9479 19.8629 15.6008 19.8629 17.3074C19.8629 21.2556 23.0745 24.4682 27.0236 24.4682C30.9727 24.4682 34.1843 21.2556 34.1843 17.3074C34.1843 15.6008 33.5737 13.9489 32.4658 12.6538C32.0414 12.1582 32.0998 11.4126 32.5954 10.9882C33.0909 10.5638 33.8366 10.6213 34.261 11.1178C35.7349 12.84 36.5472 15.0377 36.5472 17.3074C36.5472 22.558 32.275 26.8301 27.0245 26.8301H27.0227Z" fill="#22C55E"/>
<path d="M35.3644 25.6377H34.313C34.3075 24.9907 33.7809 24.4668 33.132 24.4668H20.9133C20.2644 24.4668 19.7388 24.9898 19.7324 25.6377H18.681C18.0284 25.6377 17.5 26.1662 17.5 26.8187C17.5 27.4713 18.0284 27.9997 18.681 27.9997H20.9133C21.5622 27.9997 22.0879 27.4767 22.0943 26.8288H31.9519C31.9574 27.4758 32.484 27.9997 33.1329 27.9997H35.3653C36.0178 27.9997 36.5463 27.4713 36.5463 26.8187C36.5463 26.1662 36.0178 25.6377 35.3653 25.6377H35.3644Z" fill="#F5F5F5"/>
<path d="M31.4418 18.7673C30.9663 20.3663 29.7269 22.0127 27.0227 23.2631C24.3185 22.0127 23.0791 20.3663 22.6036 18.7673C21.7475 15.8934 23.3574 13.1709 23.3574 13.1709H30.6879C30.6879 13.1709 32.2978 15.8934 31.4418 18.7673Z" fill="#93C5FD"/>
<path d="M31.4418 18.7676C30.9663 20.3666 29.7269 22.013 27.0227 23.2633C24.3185 22.013 23.0791 20.3666 22.6036 18.7676H31.4418Z" fill="#22C55E"/>
<path d="M27.0227 23.8104C26.9442 23.8104 26.8657 23.794 26.7927 23.7602C24.2728 22.5948 22.6866 20.9675 22.0788 18.9231C21.1652 15.8557 22.8153 13.0118 22.8865 12.8923C22.9851 12.7253 23.164 12.623 23.3574 12.623H30.6879C30.8814 12.623 31.0603 12.7253 31.1598 12.8923C31.23 13.0118 32.881 15.8557 31.9665 18.924C31.3587 20.9684 29.7725 22.5957 27.2527 23.7602C27.1797 23.794 27.1012 23.8104 27.0227 23.8104ZM23.6896 13.7182C23.341 14.4392 22.5014 16.5037 23.1284 18.611C23.6248 20.2803 24.9345 21.6401 27.0227 22.6568C29.1108 21.6401 30.4205 20.2803 30.917 18.611C31.5476 16.4936 30.7071 14.4374 30.3566 13.7182H23.6887H23.6896Z" fill="#FBBF24"/>
<path d="M27.0227 18.2272C26.7206 18.2272 26.4751 17.9817 26.4751 17.6796V14.8093C26.4751 14.5072 26.7206 14.2617 27.0227 14.2617C27.3248 14.2617 27.5703 14.5072 27.5703 14.8093V17.6796C27.5703 17.9817 27.3248 18.2272 27.0227 18.2272Z" fill="#F5F5F5"/>
</g>
<defs>
<clipPath id="clip0_98_3915">
<rect width="54" height="36" rx="8" fill="white"/>
</clipPath>
</defs>
</svg>
