<svg width="54" height="36" viewBox="0 0 54 36" fill="none" xmlns="http://www.w3.org/2000/svg">
<g clip-path="url(#clip0_98_4085)">
<path d="M0 0H54V4H0V0Z" fill="#22C55E"/>
<path d="M0 4H54V8H0V4Z" fill="#22C55E"/>
<path d="M0 8H54V12H0V8Z" fill="#F5F5F5"/>
<path d="M0 12H54V24H0V12Z" fill="#EF4444"/>
<path d="M0 24H54V28H0V24Z" fill="#F5F5F5"/>
<path d="M0 28H54V32H0V28Z" fill="#22C55E"/>
<path d="M0 32H54V36H0V32Z" fill="#22C55E"/>
<path d="M28.0518 13.5951L28.792 15.6949C28.8726 15.9224 29.0837 16.0758 29.3254 16.0824L31.5514 16.1379C32.3928 16.1586 32.7389 17.2264 32.0706 17.7369L30.3029 19.0899C30.1113 19.2358 30.0307 19.485 30.0993 19.7169L30.735 21.8503C30.9756 22.6569 30.0667 23.3166 29.3744 22.8387L27.5413 21.575C27.3432 21.4378 27.0809 21.4378 26.8828 21.575L25.0498 22.8387C24.3575 23.3166 23.4497 22.6569 23.6891 21.8503L24.3248 19.7169C24.3934 19.4861 24.3128 19.2369 24.1213 19.0899L22.3514 17.7369C21.683 17.2253 22.0302 16.1586 22.8706 16.1379L25.0966 16.0824C25.3371 16.0769 25.5494 15.9224 25.6299 15.6949L26.3701 13.5951C26.6499 12.8016 27.7721 12.8016 28.0518 13.5951Z" fill="#FBBF24"/>
</g>
<defs>
<clipPath id="clip0_98_4085">
<rect width="54" height="36" rx="8" fill="white"/>
</clipPath>
</defs>
</svg>
