<svg width="54" height="36" viewBox="0 0 54 36" fill="none" xmlns="http://www.w3.org/2000/svg">
<g clip-path="url(#clip0_98_4170)">
<path d="M0 0H54V12H0V0Z" fill="#3B82F6"/>
<path d="M0 12H54V24H0V12Z" fill="#F5F5F5"/>
<path d="M0 24H54V36H0V24Z" fill="#3B82F6"/>
<path d="M31.0608 16.8423C30.8252 16.8423 30.6002 16.7028 30.5056 16.4702C30.0435 15.345 29.0668 14.4897 27.8965 14.1792C27.5754 14.0951 27.3848 13.7666 27.4689 13.4455C27.5529 13.1244 27.883 12.9339 28.2026 13.0179C29.7344 13.423 31.0098 14.5423 31.6159 16.0111C31.7419 16.3172 31.5964 16.6683 31.2888 16.7943C31.2138 16.8258 31.1373 16.8393 31.0608 16.8393V16.8423Z" fill="#FBBF24"/>
<path d="M22.7187 16.8428C22.6422 16.8428 22.5656 16.8278 22.4906 16.7978C22.1846 16.6717 22.0375 16.3207 22.1635 16.0146C22.7682 14.5442 24.045 13.4249 25.5769 13.0198C25.898 12.9358 26.2266 13.1264 26.3106 13.4474C26.3946 13.7685 26.2041 14.0956 25.883 14.1811C24.7112 14.4902 23.7359 15.3469 23.2738 16.4722C23.1778 16.7033 22.9542 16.8443 22.7187 16.8443V16.8428Z" fill="#FBBF24"/>
<path d="M26.8897 20.659C25.3338 20.659 24.069 19.3927 24.069 17.8383V16.731C24.069 16.3994 24.3376 16.1309 24.6692 16.1309C25.0007 16.1309 25.2693 16.3994 25.2693 16.731V17.8383C25.2693 18.7325 25.997 19.4587 26.8897 19.4587C27.7824 19.4587 28.5101 18.731 28.5101 17.8383V16.731C28.5101 16.3994 28.7787 16.1309 29.1103 16.1309C29.4419 16.1309 29.7104 16.3994 29.7104 16.731V17.8383C29.7104 19.3942 28.4441 20.659 26.8897 20.659Z" fill="#3B82F6"/>
<path d="M26.8897 20.0545H25.1583C24.6992 20.0545 24.4126 19.5579 24.6422 19.1603L25.5079 17.6599L26.3736 16.1595C26.6031 15.7619 27.1763 15.7619 27.4058 16.1595L28.2716 17.6599L29.1373 19.1603C29.3668 19.5579 29.0803 20.0545 28.6212 20.0545H26.8897Z" fill="#FBBF24"/>
<path d="M26.8897 23.0003C24.1935 23.0003 22 20.8067 22 18.112C22 17.6964 22.3376 17.3604 22.7517 17.3604C23.1658 17.3604 23.5034 17.6979 23.5034 18.112C23.5034 19.9785 25.0218 21.4969 26.8882 21.4969C28.7547 21.4969 30.2731 19.9785 30.2731 18.112C30.2731 17.6964 30.6107 17.3604 31.0248 17.3604C31.4389 17.3604 31.7764 17.6979 31.7764 18.112C31.7764 20.8082 29.5829 23.0018 26.8867 23.0018L26.8897 23.0003Z" fill="#22C55E"/>
</g>
<defs>
<clipPath id="clip0_98_4170">
<rect width="54" height="36" rx="8" fill="white"/>
</clipPath>
</defs>
</svg>
