<svg width="54" height="36" viewBox="0 0 54 36" fill="none" xmlns="http://www.w3.org/2000/svg">
<g clip-path="url(#clip0_98_4206)">
<path d="M0 0H54V12H0V0Z" fill="#EF4444"/>
<path d="M0 12H54V24H0V12Z" fill="#F5F5F5"/>
<path d="M0 24H54V36H0V24Z" fill="#262626"/>
<path d="M18.8415 14.4761L19.4336 16.1559C19.4981 16.3379 19.667 16.4607 19.8603 16.4659L21.6411 16.5103C22.3142 16.5269 22.5911 17.3811 22.0565 17.7895L20.6423 18.8719C20.489 18.9886 20.4246 19.188 20.4795 19.3735L20.988 21.0803C21.1804 21.7255 20.4533 22.2532 19.8995 21.871L18.4331 20.86C18.2746 20.7502 18.0647 20.7502 17.9062 20.86L16.4398 21.871C15.886 22.2532 15.1597 21.7255 15.3513 21.0803L15.8598 19.3735C15.9147 19.1889 15.8503 18.9895 15.697 18.8719L14.2811 17.7895C13.7464 17.3802 14.0242 16.5269 14.6965 16.5103L16.4772 16.4659C16.6697 16.4615 16.8395 16.3379 16.9039 16.1559L17.4961 14.4761C17.7199 13.8413 18.6177 13.8413 18.8415 14.4761Z" fill="#22C55E"/>
<path d="M35.5081 14.4761L36.1003 16.1559C36.1647 16.3379 36.3337 16.4607 36.527 16.4659L38.3078 16.5103C38.9809 16.5269 39.2578 17.3811 38.7231 17.7895L37.3089 18.8719C37.1557 18.9886 37.0912 19.188 37.1461 19.3735L37.6547 21.0803C37.8471 21.7255 37.12 22.2532 36.5662 21.871L35.0997 20.86C34.9412 20.7502 34.7314 20.7502 34.5729 20.86L33.1065 21.871C32.5526 22.2532 31.8264 21.7255 32.018 21.0803L32.5265 19.3735C32.5814 19.1889 32.5169 18.9895 32.3637 18.8719L30.9477 17.7895C30.4131 17.3802 30.6909 16.5269 31.3631 16.5103L33.1439 16.4659C33.3363 16.4615 33.5062 16.3379 33.5706 16.1559L34.1627 14.4761C34.3865 13.8413 35.2843 13.8413 35.5081 14.4761Z" fill="#22C55E"/>
</g>
<defs>
<clipPath id="clip0_98_4206">
<rect width="54" height="36" rx="8" fill="white"/>
</clipPath>
</defs>
</svg>
