<svg width="54" height="36" viewBox="0 0 54 36" fill="none" xmlns="http://www.w3.org/2000/svg">
<g clip-path="url(#clip0_98_4448)">
<path d="M0 0H54V12H0V0Z" fill="#EF4444"/>
<path d="M0 12H54V24H0V12Z" fill="#F5F5F5"/>
<path d="M0 24H54V36H0V24Z" fill="#22C55E"/>
<path d="M27.8994 13.2241L28.1891 14.0147C28.2206 14.1004 28.3033 14.1582 28.3978 14.1606L29.2691 14.1815C29.5984 14.1893 29.7339 14.5914 29.4723 14.7836L28.7804 15.2931C28.7054 15.348 28.6739 15.4419 28.7007 15.5292L28.9495 16.3325C29.0437 16.6362 28.688 16.8846 28.417 16.7046L27.6996 16.2288C27.622 16.1771 27.5194 16.1771 27.4418 16.2288L26.7244 16.7046C26.4534 16.8846 26.0981 16.6362 26.1919 16.3325L26.4407 15.5292C26.4675 15.4423 26.436 15.3484 26.361 15.2931L25.6683 14.7836C25.4067 14.591 25.5426 14.1893 25.8715 14.1815L26.7427 14.1606C26.8369 14.1586 26.9199 14.1004 26.9515 14.0147L27.2412 13.2241C27.3507 12.9253 27.7899 12.9253 27.8994 13.2241Z" fill="#FBBF24"/>
<path d="M20.3686 16.6128L20.6583 17.4034C20.6899 17.489 20.7725 17.5468 20.8671 17.5493L21.7383 17.5702C22.0676 17.578 22.2031 17.9801 21.9415 18.1723L21.2497 18.6817C21.1747 18.7367 21.1431 18.8305 21.17 18.9178L21.4188 19.7212C21.5129 20.0249 21.1572 20.2732 20.8863 20.0933L20.1688 19.6175C20.0913 19.5658 19.9886 19.5658 19.9111 19.6175L19.1936 20.0933C18.9227 20.2732 18.5674 20.0249 18.6611 19.7212L18.9099 18.9178C18.9367 18.8309 18.9052 18.7371 18.8302 18.6817L18.1375 18.1723C17.8759 17.9797 18.0118 17.578 18.3407 17.5702L19.212 17.5493C19.3061 17.5472 19.3892 17.489 19.4207 17.4034L19.7104 16.6128C19.8199 16.314 20.2591 16.314 20.3686 16.6128Z" fill="#FBBF24"/>
<path d="M35.0536 16.6128L35.3433 17.4034C35.3748 17.489 35.4574 17.5468 35.552 17.5493L36.4232 17.5702C36.7526 17.578 36.888 17.9801 36.6265 18.1723L35.9346 18.6817C35.8596 18.7367 35.8281 18.8305 35.8549 18.9178L36.1037 19.7212C36.1979 20.0249 35.8421 20.2732 35.5712 20.0933L34.8538 19.6175C34.7762 19.5658 34.6735 19.5658 34.596 19.6175L33.8786 20.0933C33.6076 20.2732 33.2523 20.0249 33.346 19.7212L33.5948 18.9178C33.6217 18.8309 33.5902 18.7371 33.5152 18.6817L32.8225 18.1723C32.5609 17.9797 32.6968 17.578 33.0257 17.5702L33.8969 17.5493C33.991 17.5472 34.0741 17.489 34.1057 17.4034L34.3954 16.6128C34.5048 16.314 34.9441 16.314 35.0536 16.6128Z" fill="#FBBF24"/>
<path d="M30.5873 19.4794C30.5509 19.4389 30.5104 19.3944 30.4698 19.3539C30.0161 18.9001 29.4125 18.649 28.7725 18.649C28.5416 18.649 28.3147 18.6814 28.096 18.7462C27.9988 18.7179 27.9015 18.6935 27.8043 18.6814V18.2844C27.8043 18.1791 27.7598 18.0819 27.6909 18.0089C27.622 17.936 27.5248 17.8955 27.4154 17.8955C27.2007 17.8955 27.0265 18.0697 27.0265 18.2844V18.6814C26.9293 18.6976 26.8321 18.7179 26.7389 18.7462C26.5202 18.6814 26.2893 18.649 26.0583 18.649C25.3616 18.649 24.7013 18.9528 24.2435 19.4754C23.8627 19.9129 23.6561 20.4719 23.6561 21.0512C23.6561 21.2659 23.8303 21.4401 24.045 21.4401H24.8512C24.8876 21.4401 24.9241 21.436 24.9605 21.436H29.8744C29.9108 21.436 29.9473 21.436 29.9837 21.4401H30.7899C31.0046 21.4401 31.1788 21.2659 31.1788 21.0512C31.1788 20.4719 30.9681 19.9129 30.5914 19.4794H30.5873ZM25.0416 20.6623H24.4744C24.5352 20.4152 24.6567 20.1843 24.8228 19.9858C25.0254 19.7508 25.2887 19.5848 25.5763 19.4956C25.2927 19.8278 25.1104 20.2329 25.0375 20.6583L25.0416 20.6623ZM27.0225 20.6623H25.8355C25.8963 20.4152 26.0178 20.1843 26.1839 19.9858C26.4067 19.7306 26.6984 19.5524 27.0184 19.4754V20.6623H27.0225ZM27.8003 20.6623V19.4754C28.0838 19.5442 28.3471 19.6901 28.5578 19.9048C28.5861 19.9331 28.6105 19.9615 28.6348 19.9899C28.8049 20.1843 28.9224 20.4152 28.9831 20.6623H27.7962H27.8003ZM29.7812 20.6623C29.7123 20.2329 29.526 19.8278 29.2424 19.4956C29.4936 19.5726 29.7285 19.7103 29.9189 19.9007C29.9473 19.9291 29.9716 19.9574 29.9959 19.9858C30.166 20.1803 30.2835 20.4112 30.3443 20.6583H29.7771L29.7812 20.6623Z" fill="#FBBF24"/>
<path d="M30.7818 22.2227H24.0369C23.8221 22.2227 23.648 22.3968 23.648 22.6115C23.648 22.8263 23.8221 23.0004 24.0369 23.0004H30.7818C30.9966 23.0004 31.1707 22.8263 31.1707 22.6115C31.1707 22.3968 30.9966 22.2227 30.7818 22.2227Z" fill="#FBBF24"/>
</g>
<defs>
<clipPath id="clip0_98_4448">
<rect width="54" height="36" rx="8" fill="white"/>
</clipPath>
</defs>
</svg>
