<svg width="54" height="36" viewBox="0 0 54 36" fill="none" xmlns="http://www.w3.org/2000/svg">
<rect width="54" height="36" rx="8" fill="#EF4444"/>
<path d="M36.72 19.31C37.85 18.8 37.85 17.2 36.72 16.69L0 0V36L36.72 19.31Z" fill="#FBBF24"/>
<path d="M22.24 19.15C23 18.57 23 17.43 22.24 16.85L0 0V36L22.24 19.15Z" fill="#262626"/>
<path d="M7.87 14.8901L8.97 15.8301C9.09 15.9301 9.26 15.9501 9.4 15.8701L10.68 15.1701C11.16 14.9101 11.71 15.3901 11.49 15.9001L10.92 17.2401C10.86 17.3801 10.89 17.5501 11.01 17.6601L12.06 18.6501C12.46 19.0201 12.16 19.6901 11.61 19.6501L10.16 19.5401C10 19.5301 9.85 19.6101 9.79 19.7601L9.16 21.0701C8.92 21.5701 8.19 21.4901 8.07 20.9601L7.74 19.5501C7.7 19.4001 7.58 19.2801 7.42 19.2601L5.98 19.0801C5.43 19.0101 5.29 18.3001 5.76 18.0101L7.01 17.2501C7.14 17.1701 7.22 17.0101 7.19 16.8601L6.93 15.4401C6.83 14.9001 7.47 14.5301 7.89 14.8901H7.87Z" fill="#F5F5F5"/>
</svg>
