<svg width="54" height="36" viewBox="0 0 54 36" fill="none" xmlns="http://www.w3.org/2000/svg">
<rect width="54" height="36" rx="8" fill="#EF4444"/>
<path d="M37 18C37 23.5228 32.5228 28 27 28C21.4772 28 17 23.5228 17 18C17 12.4772 21.4772 8 27 8C32.5228 8 37 12.4772 37 18Z" fill="#F5F5F5"/>
<path d="M29.8096 14.4753L30.9063 15.7931C31.0254 15.9358 31.2211 15.99 31.4007 15.93L33.0539 15.3737C33.6787 15.1632 34.2141 15.8415 33.8563 16.3892L32.9106 17.8397C32.808 17.9963 32.8142 18.1979 32.9256 18.3469L33.9542 19.7171C34.3432 20.235 33.8475 20.9548 33.2124 20.7953L31.531 20.3739C31.3491 20.3279 31.156 20.3982 31.0462 20.5503L30.0291 21.9539C29.645 22.4844 28.8035 22.2513 28.7678 21.6048L28.675 19.894C28.6648 19.709 28.54 19.5506 28.3604 19.4959L26.702 18.9931C26.0756 18.8028 26.0509 17.9395 26.664 17.6994L28.2879 17.063C28.4636 16.9946 28.5792 16.8261 28.5787 16.6403L28.5717 14.9259C28.5691 14.278 29.3952 13.9773 29.8096 14.4753Z" fill="#EF4444"/>
<path d="M29.8818 24.1792C29.8818 24.1792 29.8906 24.1792 29.8941 24.1792C30.1888 24.1792 30.2823 24.5776 30.0159 24.7045C29.072 25.1547 28.0187 25.4066 26.9073 25.4066C22.8707 25.4066 19.5733 22.0513 19.5927 17.9617C19.6121 13.8721 22.8795 10.5918 26.9073 10.5918C28.0205 10.5918 29.0755 10.8437 30.0194 11.2939C30.284 11.4208 30.1888 11.8192 29.8959 11.8192C29.8906 11.8192 29.8871 11.8192 29.8818 11.8192C26.5121 11.8192 23.7793 14.5849 23.7793 17.9992C23.7793 21.4135 26.5121 24.1792 29.8818 24.1792Z" fill="#EF4444"/>
</svg>
