<svg width="54" height="36" viewBox="0 0 54 36" fill="none" xmlns="http://www.w3.org/2000/svg">
<rect width="54" height="36" rx="8" fill="#DC2626"/>
<path d="M0 0H22V16C22 17.1046 21.1046 18 20 18H0V0Z" fill="#F5F5F5"/>
<path d="M15.0855 7.33222H13.5712C13.0698 7.33222 12.6617 6.92569 12.6617 6.42253V4.9097C12.6633 4.40653 12.2569 4 11.7538 4H10.2395C9.73813 4 9.33 4.40653 9.33 4.9097V6.42419C9.33 6.92569 8.92354 7.33389 8.42046 7.33389H6.90955C6.40646 7.33222 6 7.73875 6 8.24192V9.75641C6 10.2579 6.40646 10.6661 6.90955 10.6661H8.42379C8.9252 10.6661 9.33333 11.0726 9.33333 11.5758V13.0903C9.33333 13.5918 9.7398 14 10.2429 14H11.7571C12.2585 14 12.6667 13.5935 12.6667 13.0903V11.5758C12.6667 11.0743 13.0731 10.6661 13.5762 10.6661H15.0905C15.5919 10.6661 16 10.2596 16 9.75641V8.24192C16 7.74042 15.5935 7.33222 15.0905 7.33222H15.0855Z" fill="#DC2626"/>
</svg>
