<svg width="54" height="36" viewBox="0 0 54 36" fill="none" xmlns="http://www.w3.org/2000/svg">
<rect width="54" height="36" rx="8" fill="#EF4444"/>
<path d="M34.5159 13.7182L35.824 15.2901C35.9661 15.4603 36.1996 15.525 36.4138 15.4534L38.3856 14.7898C39.1309 14.5388 39.7695 15.3478 39.3427 16.0011L38.2148 17.7312C38.0923 17.9181 38.0997 18.1585 38.2326 18.3363L39.4595 19.9706C39.9236 20.5884 39.3323 21.4469 38.5747 21.2566L36.5691 20.754C36.3522 20.6992 36.1219 20.783 35.9909 20.9644L34.7777 22.6386C34.3196 23.2714 33.3158 22.9934 33.2732 22.2222L33.1626 20.1816C33.1504 19.961 33.0016 19.772 32.7873 19.7067L30.8092 19.107C30.062 18.88 30.0325 17.8503 30.7638 17.5639L32.7008 16.8048C32.9104 16.7232 33.0483 16.5223 33.0477 16.3006L33.0394 14.2557C33.0362 13.4829 34.0216 13.1242 34.5159 13.7182Z" fill="#F5F5F5"/>
<path d="M29.8904 26.343C29.8904 26.343 29.9023 26.343 29.9071 26.343C30.3048 26.343 30.4311 26.8808 30.0714 27.0521C28.7972 27.6599 27.3753 28 25.8748 28C20.4254 28 15.9739 23.4703 16.0001 17.9493C16.0263 12.4284 20.4373 8 25.8748 8C27.3777 8 28.8019 8.34009 30.0762 8.9479C30.4334 9.11915 30.3048 9.65702 29.9095 9.65702C29.9023 9.65702 29.8975 9.65702 29.8904 9.65702C25.3413 9.65702 21.652 13.3907 21.652 18C21.652 22.6093 25.3413 26.343 29.8904 26.343Z" fill="#F5F5F5"/>
</svg>
