<svg width="54" height="36" viewBox="0 0 54 36" fill="none" xmlns="http://www.w3.org/2000/svg">
<rect width="54" height="36" rx="8" fill="#EF4444"/>
<path d="M0 0H30V18C30 19.1046 29.1046 20 28 20H0V0Z" fill="#1E3A8A"/>
<path fill-rule="evenodd" clip-rule="evenodd" d="M15.3361 4.28666L15.6656 6.3251C15.7139 6.61505 16.0785 6.7117 16.263 6.48325L17.5678 4.87974C17.8094 4.581 18.2839 4.85338 18.1477 5.21362L17.4141 7.14662C17.3086 7.419 17.5766 7.68698 17.8534 7.58594L19.7864 6.85228C20.1466 6.71609 20.419 7.19055 20.1203 7.43218L18.5167 8.73696C18.2883 8.92147 18.3893 9.2905 18.6749 9.33443L20.7133 9.66392C21.0956 9.72543 21.0956 10.2746 20.7133 10.3361L18.6749 10.6656C18.385 10.7139 18.2883 11.0785 18.5167 11.263L20.1203 12.5678C20.419 12.8094 20.1466 13.2839 19.7864 13.1477L17.8534 12.4141C17.581 12.3086 17.313 12.5766 17.4141 12.8534L18.1477 14.7864C18.2839 15.1466 17.8094 15.419 17.5678 15.1203L16.263 13.5167C16.0785 13.2883 15.7095 13.3893 15.6656 13.6749L15.3361 15.7133C15.2746 16.0956 14.7254 16.0956 14.6639 15.7133L14.3344 13.6749C14.2861 13.385 13.9215 13.2883 13.737 13.5167L12.4322 15.1203C12.1906 15.419 11.7161 15.1466 11.8523 14.7864L12.5859 12.8534C12.6914 12.581 12.4234 12.313 12.1466 12.4141L10.2136 13.1477C9.85338 13.2839 9.581 12.8094 9.87974 12.5678L11.4833 11.263C11.7117 11.0785 11.6107 10.7095 11.3251 10.6656L9.28666 10.3361C8.90445 10.2746 8.90445 9.72543 9.28666 9.66392L11.3251 9.33443C11.615 9.28611 11.7117 8.92147 11.4833 8.73696L9.87974 7.43218C9.581 7.19055 9.85338 6.71609 10.2136 6.85228L12.1466 7.58594C12.419 7.69138 12.687 7.42339 12.5859 7.14662L11.8523 5.21362C11.7161 4.85338 12.1906 4.581 12.4322 4.87974L13.737 6.48325C13.9215 6.7117 14.2905 6.61065 14.3344 6.3251L14.6639 4.28666C14.7254 3.90445 15.2746 3.90445 15.3361 4.28666Z" fill="#F5F5F5"/>
</svg>
