<svg width="54" height="36" viewBox="0 0 54 36" fill="none" xmlns="http://www.w3.org/2000/svg">
<g clip-path="url(#clip0_98_4892)">
<path d="M0 0H54V6H0V0Z" fill="#262626"/>
<path d="M0 6H54V12H0V6Z" fill="#FBBF24"/>
<path d="M0 12H54V18H0V12Z" fill="#EF4444"/>
<path d="M0 18H54V24H0V18Z" fill="#262626"/>
<path d="M0 24H54V30H0V24Z" fill="#FBBF24"/>
<path d="M0 30H54V36H0V30Z" fill="#EF4444"/>
<path d="M33 18C33 21.3137 30.3137 24 27 24C23.6863 24 21 21.3137 21 18C21 14.6863 23.6863 12 27 12C30.3137 12 33 14.6863 33 18Z" fill="#F5F5F5"/>
</g>
<defs>
<clipPath id="clip0_98_4892">
<rect width="54" height="36" rx="8" fill="white"/>
</clipPath>
</defs>
</svg>
