<svg width="54" height="36" viewBox="0 0 54 36" fill="none" xmlns="http://www.w3.org/2000/svg">
<g clip-path="url(#clip0_98_5186)">
<path d="M54 0H0V18H54V0Z" fill="#93C5FD"/>
<path d="M54 18H0V36H54V18Z" fill="#22C55E"/>
<path d="M54 11.2812H0V24.7212H54V11.2812Z" fill="#F5F5F5"/>
<path d="M0 25.4405H54V24.0005H0V25.4405ZM0 10.5605V12.0005H54V10.5605H0Z" fill="#EF4444"/>
<path d="M10.76 8.40078C10.9 8.40078 10.95 8.59078 10.82 8.66078C10.36 8.88078 9.85 9.00078 9.31 9.00078C7.35 9.00078 5.75 7.37078 5.76 5.38078C5.76 3.39078 7.36 1.80078 9.31 1.80078C9.85 1.80078 10.36 1.92078 10.82 2.14078C10.95 2.20078 10.9 2.40078 10.76 2.40078C9.12 2.40078 7.79 3.74078 7.79 5.40078C7.79 7.06078 9.12 8.40078 10.76 8.40078Z" fill="#F5F5F5"/>
<path d="M14.74 6.28969L14.96 6.88969C14.98 6.95969 15.05 6.99969 15.12 6.99969L15.77 7.01969C16.02 7.01969 16.12 7.32969 15.92 7.47969L15.4 7.86969C15.34 7.90969 15.32 7.97969 15.34 8.04969L15.53 8.65969C15.6 8.88969 15.33 9.07969 15.13 8.93969L14.59 8.57969C14.53 8.53969 14.45 8.53969 14.4 8.57969L13.86 8.93969C13.66 9.07969 13.39 8.88969 13.46 8.65969L13.65 8.04969C13.67 7.97969 13.65 7.90969 13.59 7.86969L13.07 7.47969C12.87 7.32969 12.98 7.02969 13.22 7.01969L13.87 6.99969C13.94 6.99969 14 6.94969 14.03 6.88969L14.25 6.28969C14.33 6.05969 14.66 6.05969 14.74 6.28969Z" fill="#F5F5F5"/>
<path d="M19.42 6.28969L19.64 6.88969C19.66 6.95969 19.73 6.99969 19.8 6.99969L20.45 7.01969C20.7 7.01969 20.8 7.32969 20.6 7.47969L20.08 7.86969C20.02 7.90969 20 7.97969 20.02 8.04969L20.21 8.65969C20.28 8.88969 20.01 9.07969 19.81 8.93969L19.27 8.57969C19.21 8.53969 19.13 8.53969 19.08 8.57969L18.54 8.93969C18.34 9.07969 18.07 8.88969 18.14 8.65969L18.33 8.04969C18.35 7.97969 18.33 7.90969 18.27 7.86969L17.75 7.47969C17.55 7.32969 17.66 7.02969 17.9 7.01969L18.55 6.99969C18.62 6.99969 18.68 6.94969 18.71 6.88969L18.93 6.28969C19.01 6.05969 19.34 6.05969 19.42 6.28969Z" fill="#F5F5F5"/>
<path d="M19.42 1.96937L19.64 2.56937C19.66 2.63937 19.73 2.67938 19.8 2.67938L20.45 2.69938C20.7 2.69938 20.8 3.00938 20.6 3.15938L20.08 3.54937C20.02 3.58937 20 3.65938 20.02 3.72938L20.21 4.33938C20.28 4.56938 20.01 4.75937 19.81 4.61937L19.27 4.25938C19.21 4.21938 19.13 4.21938 19.08 4.25938L18.54 4.61937C18.34 4.75937 18.07 4.56938 18.14 4.33938L18.33 3.72938C18.35 3.65938 18.33 3.58937 18.27 3.54937L17.75 3.15938C17.55 3.00938 17.66 2.70938 17.9 2.69938L18.55 2.67938C18.62 2.67938 18.68 2.62937 18.71 2.56937L18.93 1.96937C19.01 1.73937 19.34 1.73937 19.42 1.96937Z" fill="#F5F5F5"/>
<path d="M24.1 6.28969L24.32 6.88969C24.34 6.95969 24.41 6.99969 24.48 6.99969L25.13 7.01969C25.38 7.01969 25.48 7.32969 25.28 7.47969L24.76 7.86969C24.7 7.90969 24.68 7.97969 24.7 8.04969L24.89 8.65969C24.96 8.88969 24.69 9.07969 24.49 8.93969L23.95 8.57969C23.89 8.53969 23.81 8.53969 23.76 8.57969L23.22 8.93969C23.02 9.07969 22.75 8.88969 22.82 8.65969L23.01 8.04969C23.03 7.97969 23.01 7.90969 22.95 7.86969L22.43 7.47969C22.23 7.32969 22.34 7.02969 22.58 7.01969L23.23 6.99969C23.3 6.99969 23.36 6.94969 23.39 6.88969L23.61 6.28969C23.69 6.05969 24.02 6.05969 24.1 6.28969Z" fill="#F5F5F5"/>
<path d="M24.1 1.96937L24.32 2.56937C24.34 2.63937 24.41 2.67938 24.48 2.67938L25.13 2.69938C25.38 2.69938 25.48 3.00938 25.28 3.15938L24.76 3.54937C24.7 3.58937 24.68 3.65938 24.7 3.72938L24.89 4.33938C24.96 4.56938 24.69 4.75937 24.49 4.61937L23.95 4.25938C23.89 4.21938 23.81 4.21938 23.76 4.25938L23.22 4.61937C23.02 4.75937 22.75 4.56938 22.82 4.33938L23.01 3.72938C23.03 3.65938 23.01 3.58937 22.95 3.54937L22.43 3.15938C22.23 3.00938 22.34 2.70938 22.58 2.69938L23.23 2.67938C23.3 2.67938 23.36 2.62937 23.39 2.56937L23.61 1.96937C23.69 1.73937 24.02 1.73937 24.1 1.96937Z" fill="#F5F5F5"/>
</g>
<defs>
<clipPath id="clip0_98_5186">
<rect width="54" height="36" rx="8" fill="white"/>
</clipPath>
</defs>
</svg>
