<svg width="54" height="36" viewBox="0 0 54 36" fill="none" xmlns="http://www.w3.org/2000/svg">
<g clip-path="url(#clip0_98_5228)">
<path d="M0 0H27V36H0V0Z" fill="#FBBF24"/>
<path d="M27 0H54V36H27V0Z" fill="#F5F5F5"/>
<path d="M33.9651 11.7891C33.6302 11.4541 33.0806 11.4637 32.7578 11.8184C32.4559 12.1501 32.4852 12.6679 32.8023 12.985L33.1239 13.3065C33.2799 13.4626 33.2799 13.7147 33.1239 13.8707L32.1452 14.8495C31.9516 15.043 31.9516 15.357 32.1452 15.5506L32.8272 16.2325C33.0208 16.4261 33.3341 16.4261 33.5276 16.2325L34.507 15.2532C34.6656 15.0946 34.9247 15.0978 35.0795 15.2621C35.2291 15.4213 35.2132 15.6747 35.0591 15.8295L34.0918 16.7967C33.8982 16.9897 33.8982 17.3036 34.0918 17.4972L34.7738 18.1792C34.9674 18.3728 35.2807 18.3728 35.4743 18.1792L36.4536 17.1998C36.609 17.0444 36.8618 17.0444 37.0172 17.1998L38.1812 18.3639L39.0281 17.5169C39.1491 17.3966 39.3039 17.3189 39.4701 17.2941L33.9651 11.7891ZM45.1011 19.6973H42.7667C42.2095 19.6998 41.6714 19.4954 41.2773 19.1012L41.2715 19.0955C41.2467 19.2573 41.1722 19.4126 41.0474 19.5368L40.4533 20.1309C40.3641 20.2207 40.2902 20.322 40.2342 20.4315C40.5386 20.8065 40.6959 21.2809 40.694 21.77V24.1044C40.694 25.2538 41.6256 26.1854 42.775 26.1854H45.1011C46.2505 26.1854 47.1821 25.2538 47.1821 24.1044V21.7783C47.1821 20.6289 46.2505 19.6973 45.1011 19.6973ZM45.3565 23.3263C45.5367 23.3549 45.7099 23.4396 45.8487 23.5784C46.0245 23.7542 46.1123 23.9847 46.1123 24.2152C46.1123 24.4457 46.0245 24.6763 45.8487 24.852C45.673 25.0278 45.4424 25.1163 45.2119 25.1163C44.9814 25.1163 44.7509 25.0278 44.5751 24.852C44.4357 24.7132 44.3516 24.54 44.323 24.3598C44.0778 24.4629 43.7989 24.4629 43.5531 24.3598C43.5245 24.54 43.4398 24.7132 43.3009 24.852C43.1252 25.0278 42.8947 25.1163 42.6642 25.1163C42.4336 25.1163 42.2031 25.0278 42.0274 24.852C41.8516 24.6763 41.7638 24.4457 41.7638 24.2152C41.7638 23.9847 41.8516 23.7542 42.0274 23.5784C42.1662 23.4396 42.3394 23.3549 42.5196 23.3263C42.4165 23.0805 42.4165 22.8016 42.5196 22.5564C42.3394 22.5278 42.1662 22.4437 42.0274 22.3043C41.8516 22.1285 41.7638 21.898 41.7638 21.6675C41.7638 21.437 41.8516 21.2064 42.0274 21.0307C42.3789 20.6792 42.9494 20.6792 43.3009 21.0307C43.4398 21.1695 43.5245 21.3427 43.5531 21.5229C43.7989 21.4198 44.0778 21.4198 44.323 21.5229C44.3516 21.3427 44.4357 21.1695 44.5751 21.0307C44.9266 20.6792 45.4972 20.6792 45.8487 21.0307C46.0245 21.2064 46.1123 21.437 46.1123 21.6675C46.1123 21.898 46.0245 22.1285 45.8487 22.3043C45.7099 22.4437 45.5367 22.5278 45.3565 22.5564C45.4596 22.8016 45.4596 23.0805 45.3565 23.3263Z" fill="#737373"/>
<path d="M38.7289 20.1316L38.1347 19.5368C38.0099 19.4126 37.9354 19.2573 37.9106 19.0955L37.9049 19.1012C37.5107 19.4954 36.9726 19.6998 36.4154 19.6973H34.081C32.9316 19.6973 32 20.6289 32 21.7783V24.1044C32 25.2538 32.9316 26.1854 34.081 26.1854H36.4072C37.5565 26.1854 38.4882 25.2538 38.4882 24.1044V21.77C38.4862 21.2809 38.6435 20.8065 38.9479 20.4315C38.8919 20.322 38.818 20.2207 38.7289 20.1316ZM36.6625 23.3263C36.8427 23.3549 37.0159 23.4396 37.1547 23.5784C37.3305 23.7542 37.4184 23.9847 37.4184 24.2152C37.4184 24.4457 37.3305 24.6763 37.1547 24.852C36.979 25.0278 36.7485 25.1163 36.518 25.1163C36.2874 25.1163 36.0569 25.0278 35.8812 24.852C35.7424 24.7132 35.6577 24.54 35.629 24.3598C35.3832 24.4629 35.1043 24.4629 34.8591 24.3598C34.8305 24.54 34.7464 24.7132 34.607 24.852C34.4312 25.0278 34.2007 25.1163 33.9702 25.1163C33.7397 25.1163 33.5092 25.0278 33.3334 24.852C33.1577 24.6763 33.0698 24.4457 33.0698 24.2152C33.0698 23.9847 33.1577 23.7542 33.3334 23.5784C33.4722 23.4396 33.6454 23.3549 33.8256 23.3263C33.7225 23.0805 33.7225 22.8016 33.8256 22.5564C33.6454 22.5278 33.4722 22.4437 33.3334 22.3043C33.1577 22.1285 33.0698 21.898 33.0698 21.6675C33.0698 21.437 33.1577 21.2064 33.3334 21.0307C33.6849 20.6792 34.2555 20.6792 34.607 21.0307C34.7464 21.1695 34.8305 21.3427 34.8591 21.5229C35.1043 21.4198 35.3832 21.4198 35.629 21.5229C35.6577 21.3427 35.7424 21.1695 35.8812 21.0307C36.2327 20.6792 36.8032 20.6792 37.1547 21.0307C37.3305 21.2064 37.4184 21.437 37.4184 21.6675C37.4184 21.898 37.3305 22.1285 37.1547 22.3043C37.0159 22.4437 36.8427 22.5278 36.6625 22.5564C36.7657 22.8016 36.7657 23.0805 36.6625 23.3263ZM47.0369 14.8495L46.0582 13.8707C45.9022 13.7147 45.9022 13.4626 46.0582 13.3065L46.3798 12.985C46.6969 12.6679 46.7262 12.1501 46.4244 11.8184C46.1015 11.4637 45.552 11.4541 45.217 11.7891L39.712 17.2941C39.8782 17.3189 40.033 17.3966 40.154 17.5169L41.0009 18.3639L42.1649 17.1998C42.3203 17.0444 42.5731 17.0444 42.7285 17.1998L43.7078 18.1792C43.9014 18.3728 44.2147 18.3728 44.4083 18.1792L45.0903 17.4972C45.2839 17.3036 45.2839 16.9897 45.0903 16.7967L44.123 15.8295C43.9689 15.6747 43.953 15.4213 44.1026 15.2621C44.2574 15.0978 44.5166 15.0946 44.6751 15.2532L45.6545 16.2325C45.8481 16.4261 46.1614 16.4261 46.3549 16.2325L47.0369 15.5506C47.2305 15.357 47.2305 15.043 47.0369 14.8495Z" fill="#FBBF24"/>
<path d="M41.2715 19.0942C41.2467 19.2559 41.1722 19.4113 41.0474 19.5355L40.4533 20.1296C40.3641 20.2194 40.2902 20.3206 40.2342 20.4302C40.147 20.5983 40.1005 20.7861 40.1005 20.9791V27.473C40.1005 27.7442 39.8954 27.9811 39.6248 27.9989C39.6133 27.9989 39.6025 28.0002 39.5911 28.0002C39.5796 28.0002 39.5688 27.9996 39.5573 27.9989C39.2867 27.9811 39.0816 27.7442 39.0816 27.473V20.9791C39.0816 20.7861 39.0352 20.5983 38.9479 20.4302C38.8919 20.3206 38.818 20.2194 38.7289 20.1302L38.1347 19.5355C38.0099 19.4113 37.9354 19.2559 37.9106 19.0942C37.873 18.8522 37.9482 18.5962 38.1347 18.4097L38.1812 18.3625L39.0281 17.5156C39.1491 17.3953 39.3039 17.3176 39.4701 17.2928C39.5102 17.2864 39.5503 17.2832 39.5911 17.2832C39.6318 17.2832 39.6719 17.2864 39.712 17.2928C39.8782 17.3176 40.033 17.3953 40.154 17.5156L41.0009 18.3625L41.0474 18.4097C41.234 18.5962 41.3091 18.8522 41.2715 19.0942Z" fill="#DC2626"/>
<path d="M42.9615 10.7662H39.9808V9.5799C40.2654 9.6493 40.5258 9.79576 40.7385 10.0084C40.7666 10.0365 40.7927 10.0638 40.8169 10.0925C40.9862 10.2874 41.1053 10.5191 41.1658 10.7662H41.9599C41.8898 10.3377 41.7039 9.93458 41.4212 9.60218C41.6733 9.6786 41.9051 9.81614 42.0974 10.0084C42.1254 10.0365 42.1515 10.0638 42.1757 10.0925C42.3451 10.2874 42.4642 10.5191 42.5247 10.7662H42.9615C43.1768 10.7662 43.3506 10.9401 43.3506 11.1553C43.3506 10.5765 43.1417 10.018 42.7641 9.58372C42.7285 9.54233 42.689 9.49966 42.6476 9.45827C42.1948 9.00488 41.5918 8.75526 40.9499 8.75526C40.7194 8.75526 40.4921 8.78838 40.2724 8.85333C40.1775 8.82467 40.0795 8.80302 39.9808 8.7871V8.39103C39.9808 8.28405 39.9375 8.18662 39.8668 8.11594C39.7961 8.04525 39.6993 8.00195 39.5917 8.00195C39.3765 8.00195 39.2026 8.17643 39.2026 8.39103V8.78774C39.1046 8.80366 39.0078 8.82595 38.9135 8.85397C38.6932 8.78901 38.4646 8.75526 38.2328 8.75526C37.5362 8.75526 36.8758 9.0571 36.4205 9.58244C36.0416 10.018 35.8321 10.5777 35.8321 11.1559C35.8321 10.9407 36.006 10.7669 36.2212 10.7669H36.658C36.7185 10.5191 36.8383 10.288 37.0076 10.0925C37.2095 9.85944 37.4712 9.69197 37.7603 9.60409C37.4776 9.93713 37.2929 10.3396 37.2229 10.7669H38.0169C38.0774 10.5191 38.1971 10.288 38.3665 10.0925C38.5875 9.83715 38.8804 9.66077 39.202 9.58117V10.7675H36.2212C36.006 10.7675 35.8321 10.9413 35.8321 11.1566C35.8321 11.3718 36.006 11.5456 36.2212 11.5456H37.0261C37.0624 11.5431 37.0981 11.5412 37.1356 11.5412H42.0471C42.084 11.5412 42.1203 11.5431 42.1566 11.5456H42.9615C43.1768 11.5456 43.3506 11.3718 43.3506 11.1566C43.3506 10.9413 43.1768 10.7675 42.9615 10.7675V10.7662Z" fill="#FBBF24"/>
<path d="M41.5702 12.3223H37.6119C37.3967 12.3223 37.2229 12.4967 37.2229 12.7113C37.2229 12.9259 37.3973 13.1004 37.6119 13.1004H41.5702C41.7854 13.1004 41.9592 12.9259 41.9592 12.7113C41.9592 12.4967 41.7848 12.3223 41.5702 12.3223Z" fill="#FBBF24"/>
<path d="M40.3858 13.8809H38.7957C38.5805 13.8809 38.4066 14.0553 38.4066 14.2699C38.4066 14.4845 38.5811 14.659 38.7957 14.659H40.3858C40.601 14.659 40.7748 14.4845 40.7748 14.2699C40.7748 14.0553 40.6004 13.8809 40.3858 13.8809Z" fill="#FBBF24"/>
</g>
<defs>
<clipPath id="clip0_98_5228">
<rect width="54" height="36" rx="8" fill="white"/>
</clipPath>
</defs>
</svg>
