<svg width="54" height="36" viewBox="0 0 54 36" fill="none" xmlns="http://www.w3.org/2000/svg">
<g clip-path="url(#clip0_98_5271)">
<path d="M0 0H54V12H0V0Z" fill="#FBBF24"/>
<path d="M0 12H54V24H0V12Z" fill="#1E3A8A"/>
<path d="M0 24H54V36H0V24Z" fill="#EF4444"/>
<path d="M16.0259 18.2976L16.396 19.3474C16.4363 19.4612 16.5419 19.5379 16.6627 19.5412L17.7757 19.5689C18.1964 19.5793 18.3695 20.1132 18.0353 20.3684L17.1514 21.045C17.0556 21.1179 17.0154 21.2425 17.0497 21.3584L17.3675 22.4252C17.4878 22.8285 17.0333 23.1583 16.6872 22.9194L15.7707 22.2875C15.6716 22.2189 15.5404 22.2189 15.4414 22.2875L14.5249 22.9194C14.1787 23.1583 13.7248 22.8285 13.8446 22.4252L14.1624 21.3584C14.1967 21.2431 14.1564 21.1184 14.0606 21.045L13.1757 20.3684C12.8415 20.1126 13.0151 19.5793 13.4353 19.5689L14.5483 19.5412C14.6686 19.5385 14.7747 19.4612 14.815 19.3474L15.1851 18.2976C15.3249 17.9008 15.886 17.9008 16.0259 18.2976Z" fill="#F5F5F5"/>
<path d="M22.8116 13.2976L23.1817 14.3474C23.222 14.4612 23.3276 14.5379 23.4484 14.5412L24.5614 14.5689C24.9821 14.5793 25.1552 15.1132 24.821 15.3684L23.9372 16.045C23.8414 16.1179 23.8011 16.2425 23.8354 16.3584L24.1532 17.4252C24.2735 17.8285 23.8191 18.1583 23.4729 17.9194L22.5564 17.2875C22.4573 17.2189 22.3262 17.2189 22.2271 17.2875L21.3106 17.9194C20.9645 18.1583 20.5105 17.8285 20.6303 17.4252L20.9481 16.3584C20.9824 16.2431 20.9421 16.1184 20.8463 16.045L19.9614 15.3684C19.6272 15.1126 19.8008 14.5793 20.221 14.5689L21.334 14.5412C21.4543 14.5385 21.5604 14.4612 21.6007 14.3474L21.9708 13.2976C22.1106 12.9008 22.6718 12.9008 22.8116 13.2976Z" fill="#F5F5F5"/>
<path d="M31.7402 13.2976L32.1103 14.3474C32.1506 14.4612 32.2562 14.5379 32.377 14.5412L33.49 14.5689C33.9107 14.5793 34.0838 15.1132 33.7496 15.3684L32.8657 16.045C32.7699 16.1179 32.7297 16.2425 32.764 16.3584L33.0818 17.4252C33.2021 17.8285 32.7476 18.1583 32.4015 17.9194L31.485 17.2875C31.3859 17.2189 31.2547 17.2189 31.1557 17.2875L30.2392 17.9194C29.893 18.1583 29.4391 17.8285 29.5589 17.4252L29.8767 16.3584C29.911 16.2431 29.8707 16.1184 29.7749 16.045L28.89 15.3684C28.5558 15.1126 28.7294 14.5793 29.1496 14.5689L30.2626 14.5412C30.3829 14.5385 30.489 14.4612 30.5293 14.3474L30.8993 13.2976C31.0392 12.9008 31.6003 12.9008 31.7402 13.2976Z" fill="#F5F5F5"/>
<path d="M38.5259 18.2976L38.896 19.3474C38.9363 19.4612 39.0419 19.5379 39.1627 19.5412L40.2757 19.5689C40.6964 19.5793 40.8695 20.1132 40.5353 20.3684L39.6514 21.045C39.5556 21.1179 39.5154 21.2425 39.5497 21.3584L39.8675 22.4252C39.9878 22.8285 39.5333 23.1583 39.1872 22.9194L38.2707 22.2875C38.1716 22.2189 38.0404 22.2189 37.9414 22.2875L37.0249 22.9194C36.6787 23.1583 36.2248 22.8285 36.3446 22.4252L36.6624 21.3584C36.6967 21.2431 36.6564 21.1184 36.5606 21.045L35.6757 20.3684C35.3415 20.1126 35.5151 19.5793 35.9353 19.5689L37.0483 19.5412C37.1686 19.5385 37.2747 19.4612 37.315 19.3474L37.6851 18.2976C37.8249 17.9008 38.386 17.9008 38.5259 18.2976Z" fill="#F5F5F5"/>
</g>
<defs>
<clipPath id="clip0_98_5271">
<rect width="54" height="36" rx="8" fill="white"/>
</clipPath>
</defs>
</svg>
