<svg width="54" height="36" viewBox="0 0 54 36" fill="none" xmlns="http://www.w3.org/2000/svg">
<rect width="54" height="36" rx="8" fill="#EF4444"/>
<path d="M28.8933 10.0713L30.2256 13.8508C30.3706 14.2602 30.7507 14.5365 31.1857 14.5483L35.1925 14.6482C36.707 14.6854 37.3301 16.6075 36.1271 17.5264L32.9452 19.9618C32.6003 20.2244 32.4553 20.6731 32.5788 21.0904L33.723 24.9306C34.156 26.3825 32.52 27.5698 31.2739 26.7097L27.9744 24.4349C27.6178 24.188 27.1456 24.188 26.789 24.4349L23.4896 26.7097C22.2434 27.5698 20.6094 26.3825 21.0404 24.9306L22.1847 21.0904C22.3081 20.675 22.1631 20.2263 21.8183 19.9618L18.6324 17.5264C17.4294 16.6055 18.0544 14.6854 19.567 14.6482L23.5738 14.5483C24.0068 14.5385 24.3889 14.2602 24.5339 13.8508L25.8662 10.0713C26.3697 8.64292 28.3898 8.64292 28.8933 10.0713Z" fill="#FBBF24"/>
</svg>
