<svg width="54" height="36" viewBox="0 0 54 36" fill="none" xmlns="http://www.w3.org/2000/svg">
<rect width="54" height="36" rx="8" fill="#EF4444"/>
<path d="M0 0H27V18C27 19.1046 26.1046 20 25 20H0V0Z" fill="#1E3A8A"/>
<path d="M13.8265 3.72672L14.114 4.52661C14.1453 4.61328 14.2273 4.67175 14.3211 4.67424L15.1856 4.69538C15.5124 4.70326 15.6468 5.11005 15.3873 5.30453L14.7007 5.81996C14.6263 5.87553 14.595 5.97049 14.6217 6.05881L14.8686 6.87156C14.962 7.17883 14.609 7.43012 14.3401 7.24808L13.6283 6.76665C13.5513 6.7144 13.4494 6.7144 13.3725 6.76665L12.6606 7.24808C12.3918 7.43012 12.0392 7.17883 12.1322 6.87156L12.3791 6.05881C12.4057 5.9709 12.3744 5.87594 12.3 5.81996L11.6126 5.30453C11.3531 5.10964 11.4879 4.70326 11.8143 4.69538L12.6788 4.67424C12.7722 4.67216 12.8546 4.61328 12.8859 4.52661L13.1734 3.72672C13.282 3.42443 13.7179 3.42443 13.8265 3.72672Z" fill="#F5F5F5"/>
<path d="M9.20066 7.53531L9.48812 8.33521C9.5194 8.42187 9.60141 8.48034 9.69526 8.48283L10.5598 8.50398C10.8865 8.51186 11.021 8.91864 10.7614 9.11312L10.0749 9.62856C10.0005 9.68412 9.96919 9.77908 9.99583 9.8674L10.2427 10.6802C10.3361 10.9874 9.98314 11.2387 9.71428 11.0567L9.0024 10.5752C8.92546 10.523 8.82358 10.523 8.74664 10.5752L8.03476 11.0567C7.7659 11.2387 7.41333 10.9874 7.50634 10.6802L7.75321 9.8674C7.77985 9.77949 7.74856 9.68454 7.67416 9.62856L6.98679 9.11312C6.72723 8.91823 6.86209 8.51186 7.18844 8.50398L8.05293 8.48283C8.14636 8.48076 8.22879 8.42187 8.26007 8.33521L8.54753 7.53531C8.65618 7.23302 9.09202 7.23302 9.20066 7.53531Z" fill="#F5F5F5"/>
<path d="M18.4524 7.53531L18.7398 8.33521C18.7711 8.42187 18.8531 8.48034 18.947 8.48283L19.8114 8.50398C20.1382 8.51186 20.2727 8.91864 20.0131 9.11312L19.3266 9.62856C19.2522 9.68412 19.2209 9.77908 19.2475 9.8674L19.4944 10.6802C19.5878 10.9874 19.2348 11.2387 18.966 11.0567L18.2541 10.5752C18.1772 10.523 18.0753 10.523 17.9983 10.5752L17.2864 11.0567C17.0176 11.2387 16.665 10.9874 16.758 10.6802L17.0049 9.8674C17.0315 9.77949 17.0003 9.68454 16.9259 9.62856L16.2385 9.11312C15.9789 8.91823 16.1138 8.51186 16.4401 8.50398L17.3046 8.48283C17.3981 8.48076 17.4805 8.42187 17.5118 8.33521L17.7992 7.53531C17.9079 7.23302 18.3437 7.23302 18.4524 7.53531Z" fill="#F5F5F5"/>
<path d="M13.8265 12.9181L14.114 13.718C14.1453 13.8047 14.2273 13.8632 14.3211 13.8656L15.1856 13.8868C15.5124 13.8947 15.6468 14.3015 15.3873 14.4959L14.7007 15.0114C14.6263 15.0669 14.595 15.1619 14.6217 15.2502L14.8686 16.063C14.962 16.3702 14.609 16.6215 14.3401 16.4395L13.6283 15.9581C13.5513 15.9058 13.4494 15.9058 13.3725 15.9581L12.6606 16.4395C12.3918 16.6215 12.0392 16.3702 12.1322 16.063L12.3791 15.2502C12.4057 15.1623 12.3744 15.0673 12.3 15.0114L11.6126 14.4959C11.3531 14.301 11.4879 13.8947 11.8143 13.8868L12.6788 13.8656C12.7722 13.8636 12.8546 13.8047 12.8859 13.718L13.1734 12.9181C13.282 12.6158 13.7179 12.6158 13.8265 12.9181Z" fill="#F5F5F5"/>
</svg>
