<svg width="54" height="36" viewBox="0 0 54 36" fill="none" xmlns="http://www.w3.org/2000/svg">
<g clip-path="url(#clip0_98_5474)">
<rect width="54" height="36" rx="8" fill="#F5F5F5"/>
<path d="M17.45 16.2401L11.74 12.1801L0 3.83008V6.48008L8.02 12.1801L15.25 17.3201C15.71 17.6501 15.71 18.3401 15.25 18.6701L8 23.8301L0 29.5201V32.1701L11.73 23.8301L17.46 19.7601C18.03 19.3601 18.37 18.7001 18.37 18.0001C18.37 17.3001 18.03 16.6401 17.46 16.2401H17.45Z" fill="#FBBF24"/>
<path d="M54 0V12.18H30.29C29.14 12.18 28.01 11.84 27.06 11.19L10.53 0H54Z" fill="#EF4444"/>
<path d="M54 23.8301V36.0001H10.53L27.06 24.8201C28.01 24.1801 29.14 23.8301 30.29 23.8301H54.01H54Z" fill="#3B82F6"/>
<path d="M54 14.34V21.67H29.62C28.47 21.67 27.35 22.01 26.39 22.66L24.65 23.83L6.66 36H0V32.17L11.73 23.83L17.46 19.76C18.03 19.36 18.37 18.7 18.37 18C18.37 17.3 18.03 16.64 17.46 16.24L11.75 12.18L0 3.83V0H6.68L24.67 12.18L26.4 13.35C27.35 14 28.48 14.34 29.63 14.34H54.01H54Z" fill="#22C55E"/>
<path d="M15.25 18.6705L8 23.8305L0 29.5205V6.48047L8.02 12.1805L15.25 17.3205C15.71 17.6505 15.71 18.3405 15.25 18.6705Z" fill="#262626"/>
</g>
<defs>
<clipPath id="clip0_98_5474">
<rect width="54" height="36" rx="8" fill="white"/>
</clipPath>
</defs>
</svg>
