<svg width="54" height="36" viewBox="0 0 54 36" fill="none" xmlns="http://www.w3.org/2000/svg">
<rect width="54" height="36" rx="8" fill="#22C55E"/>
<path d="M52 5.6393C50.66 6.2293 48.78 6.8693 46.83 6.9293C46.69 6.9293 46.57 6.8193 46.57 6.6793C46.57 6.4793 46.73 6.3093 46.94 6.3093H47.44C47.44 5.9693 47.2 5.6893 46.89 5.6093C46.83 5.2793 46.54 5.0293 46.19 5.0293H45.75C45.29 5.0293 44.92 5.3993 44.92 5.8593V6.3893C44.92 6.6893 44.67 6.9293 44.37 6.9193C42.5 6.8093 40.71 6.1993 39.43 5.6293C38.81 5.3593 38.25 6.0893 38.66 6.6193C39.66 7.9093 41.38 9.4293 44.16 9.8393C44.43 9.8793 44.63 10.1093 44.63 10.3793V10.9293C44.63 11.1793 44.82 11.3993 45.07 11.4093C45.32 11.4093 45.54 11.2093 45.54 10.9493V10.1093C45.54 10.0093 45.62 9.9293 45.72 9.9293C45.82 9.9293 45.9 10.0093 45.9 10.1093V10.9493C45.9 11.1993 46.11 11.4093 46.36 11.4093C46.61 11.4093 46.82 11.1993 46.82 10.9493V10.3793C46.82 10.1093 47.02 9.8793 47.29 9.8393C50.07 9.4193 51.8 7.8993 52.79 6.6193C53.2 6.0893 52.63 5.3593 52.01 5.6293L52 5.6393Z" fill="#FB923C"/>
<path d="M39 17C39 15.8954 39.8954 15 41 15H44V36H39V17Z" fill="#EF4444"/>
<path d="M44 15H49V36H44V15Z" fill="#262626"/>
<path d="M49 15H52C53.1046 15 54 15.8954 54 17V36H49V15Z" fill="#FB923C"/>
</svg>
