<svg width="60" height="45" viewBox="0 0 60 45" fill="none" xmlns="http://www.w3.org/2000/svg">
<g clip-path="url(#clip0_4046_9112)">
<path d="M0 0H60V45H0V0Z" fill="#012169"/>
<path d="M45.4062 16.9141L45.5938 17.1016L45.4062 16.9141Z" fill="#49497D"/>
<path d="M45.5938 16.9141L45.7812 17.1016L45.5938 16.9141Z" fill="#0E0E6E"/>
<path d="M45.0156 17.1016L45.2031 17.2891L45.0156 17.1016Z" fill="#262678"/>
<path d="M45.2188 17.1016L45.4062 17.2891L45.2188 17.1016Z" fill="#808067"/>
<path d="M45.7812 17.1016L45.9688 17.2891L45.7812 17.1016Z" fill="#58587B"/>
<path d="M38.7344 17.2969L38.9219 17.4844L38.7344 17.2969Z" fill="#0E0E6E"/>
<path d="M44.6406 17.2969L44.8281 17.4844L44.6406 17.2969Z" fill="#1B1B74"/>
<path d="M44.8281 17.2969L45.0156 17.4844L44.8281 17.2969Z" fill="#6E6C70"/>
<path d="M39.078 17.6234C39.078 22.5547 38.5155 28.0953 42.1718 31.9484C42.9218 32.7359 44.3655 34.5453 45.5936 34.4797C46.878 34.4047 48.5374 32.5016 49.2686 31.5734C52.4561 27.3734 51.9593 22.3672 52.0624 17.4922C50.628 18.1391 49.9061 18.3547 48.6499 18.3359C47.7124 18.4297 46.278 17.8203 45.4155 17.3984C44.853 17.7734 44.0374 18.2328 42.5655 18.2797C40.878 18.3547 40.3343 18.0641 39.078 17.6234V17.6234Z" fill="#CCCC33"/>
<path d="M45.9766 17.2969L46.1641 17.4844L45.9766 17.2969Z" fill="#99994E"/>
<path d="M46.1641 17.2969L46.3516 17.4844L46.1641 17.2969Z" fill="#49497D"/>
<path d="M52.0625 17.2969L52.25 17.4844L52.0625 17.2969Z" fill="#0E0E6E"/>
<path d="M38.9375 17.4844L39.125 17.6719L38.9375 17.4844Z" fill="#A4A43D"/>
<path d="M39.125 17.4844L39.3125 17.6719L39.125 17.4844Z" fill="#6E6C70"/>
<path d="M39.3125 17.4844L39.5 17.6719L39.3125 17.4844Z" fill="#3A3A7C"/>
<path d="M44.25 17.4844L44.4375 17.6719L44.25 17.4844Z" fill="#1B1B74"/>
<path d="M44.4375 17.4844L44.625 17.6719L44.4375 17.4844Z" fill="#6E6C70"/>
<path d="M44.6406 17.4844L44.8281 17.6719L44.6406 17.4844Z" fill="#A4A43D"/>
<path d="M45.4062 17.4844L45.5938 17.6719L45.4062 17.4844Z" fill="#D0D045"/>
<path d="M46.1641 17.4844L46.3516 17.6719L46.1641 17.4844Z" fill="#A4A43D"/>
<path d="M46.3516 17.4844L46.5391 17.6719L46.3516 17.4844Z" fill="#8D8D5B"/>
<path d="M46.5469 17.4844L46.7344 17.6719L46.5469 17.4844Z" fill="#3A3A7C"/>
<path d="M51.4844 17.4844L51.6719 17.6719L51.4844 17.4844Z" fill="#262678"/>
<path d="M51.6875 17.4844L51.875 17.6719L51.6875 17.4844Z" fill="#53527C"/>
<path d="M51.875 17.4844L52.0625 17.6719L51.875 17.4844Z" fill="#8D8D5B"/>
<path d="M39.6953 17.6797L39.8828 17.8672L39.6953 17.6797Z" fill="#737370"/>
<path d="M39.8828 17.6797L40.0703 17.8672L39.8828 17.6797Z" fill="#53527C"/>
<path d="M40.0703 17.6797L40.2578 17.8672L40.0703 17.6797Z" fill="#1B1B74"/>
<path d="M43.875 17.6797L44.0625 17.8672L43.875 17.6797Z" fill="#262678"/>
<path d="M44.0625 17.6797L44.25 17.8672L44.0625 17.6797Z" fill="#6E6C70"/>
<path d="M44.25 17.6797L44.4375 17.8672L44.25 17.6797Z" fill="#A4A43D"/>
<path d="M45.2188 17.6797L45.4062 17.8672L45.2188 17.6797Z" fill="#E5E59D"/>
<path d="M39.4582 18.1672C39.3645 20.7547 39.4395 23.6609 39.8332 26.4172C40.2926 27.8703 40.227 28.6672 40.8926 29.5297L50.1738 29.4547C50.7363 28.5453 51.1582 27.1672 51.2051 26.6141C51.7301 23.8297 51.7395 20.7453 51.7582 17.9891C50.7373 18.5505 49.5713 18.7922 48.4113 18.6828C47.404 18.6223 46.4248 18.3269 45.552 17.8203C44.6613 18.3453 44.352 18.5891 42.8895 18.6547C41.7457 18.7109 40.827 18.8047 39.4582 18.1672Z" fill="white"/>
<path d="M45.5938 17.6797L45.7812 17.8672L45.5938 17.6797Z" fill="#F2F1D7"/>
<path d="M45.7812 17.6797L45.9688 17.8672L45.7812 17.6797Z" fill="#D9D868"/>
<path d="M46.5469 17.6797L46.7344 17.8672L46.5469 17.6797Z" fill="#A4A43D"/>
<path d="M46.7344 17.6797L46.9219 17.8672L46.7344 17.6797Z" fill="#99994E"/>
<path d="M46.9219 17.6797L47.1094 17.8672L46.9219 17.6797Z" fill="#49497D"/>
<path d="M47.1094 17.6797L47.2969 17.8672L47.1094 17.6797Z" fill="#0E0E6E"/>
<path d="M50.9219 17.6797L51.1094 17.8672L50.9219 17.6797Z" fill="#3A3A7C"/>
<path d="M51.1094 17.6797L51.2969 17.8672L51.1094 17.6797Z" fill="#666677"/>
<path d="M51.2969 17.6797L51.4844 17.8672L51.2969 17.6797Z" fill="#99994E"/>
<path d="M51.4891 17.6797L51.6766 17.8672L51.4891 17.6797ZM40.0703 17.8672L40.2578 18.0547L40.0703 17.8672Z" fill="#A4A43D"/>
<path d="M40.2656 17.8672L40.4531 18.0547L40.2656 17.8672Z" fill="#99994E"/>
<path d="M40.4531 17.8672L40.6406 18.0547L40.4531 17.8672Z" fill="#6E6C70"/>
<path d="M40.6406 17.8672L40.8281 18.0547L40.6406 17.8672Z" fill="#49497D"/>
<path d="M40.8281 17.8672L41.0156 18.0547L40.8281 17.8672ZM43.3031 17.8672L43.4906 18.0547L43.3031 17.8672Z" fill="#1B1B74"/>
<path d="M43.4922 17.8672L43.6797 18.0547L43.4922 17.8672Z" fill="#53527C"/>
<path d="M43.6875 17.8672L43.875 18.0547L43.6875 17.8672Z" fill="#8D8D5B"/>
<path d="M43.875 17.8672L44.0625 18.0547L43.875 17.8672Z" fill="#A4A43D"/>
<path d="M44.8281 17.8672L45.0156 18.0547L44.8281 17.8672Z" fill="#E5E59D"/>
<path d="M45.0156 17.8672L45.2031 18.0547L45.0156 17.8672Z" fill="#FBFAF2"/>
<path d="M45.9766 17.8672L46.1641 18.0547L45.9766 17.8672Z" fill="#F2F1D2"/>
<path d="M46.1641 17.8672L46.3516 18.0547L46.1641 17.8672Z" fill="#D9D868"/>
<path d="M47.1094 17.8672L47.2969 18.0547L47.1094 17.8672Z" fill="#A4A43D"/>
<path d="M47.3047 17.8672L47.4922 18.0547L47.3047 17.8672Z" fill="#6E6C70"/>
<path d="M47.4922 17.8672L47.6797 18.0547L47.4922 17.8672Z" fill="#3A3A7C"/>
<path d="M49.9688 17.8672L50.1562 18.0547L49.9688 17.8672Z" fill="#0E0E6E"/>
<path d="M50.1562 17.8672L50.3438 18.0547L50.1562 17.8672Z" fill="#32327B"/>
<path d="M50.3438 17.8672L50.5312 18.0547L50.3438 17.8672Z" fill="#58587B"/>
<path d="M50.5312 17.8672L50.7188 18.0547L50.5312 17.8672Z" fill="#808067"/>
<path d="M50.8594 17.9258L50.9812 17.9914L50.8594 17.9258Z" fill="#A4A43D"/>
<path d="M39.3125 18.0547L39.5 18.2422L39.3125 18.0547Z" fill="#DDDC7A"/>
<path d="M39.5 18.0547L39.6875 18.2422L39.5 18.0547Z" fill="#D0D045"/>
<path d="M40.9609 18.1133L41.0922 18.1789L40.9609 18.1133Z" fill="#A4A43D"/>
<path d="M41.2109 18.0547L41.3984 18.2422L41.2109 18.0547Z" fill="#808067"/>
<path d="M41.3984 18.0547L41.5859 18.2422L41.3984 18.0547Z" fill="#666677"/>
<path d="M41.5938 18.0547L41.7812 18.2422L41.5938 18.0547Z" fill="#58587B"/>
<path d="M41.7812 18.0547L41.9688 18.2422L41.7812 18.0547Z" fill="#49497D"/>
<path d="M42.9297 18.0547L43.1172 18.2422L42.9297 18.0547Z" fill="#737370"/>
<path d="M43.1172 18.0547L43.3047 18.2422L43.1172 18.0547Z" fill="#99994E"/>
<path d="M43.3047 18.0547L43.4922 18.2422L43.3047 18.0547Z" fill="#A4A43D"/>
<path d="M44.4375 18.0547L44.625 18.2422L44.4375 18.0547Z" fill="#E5E59D"/>
<path d="M44.6406 18.0547L44.8281 18.2422L44.6406 18.0547Z" fill="#FBFAF2"/>
<path d="M46.3516 18.0547L46.5391 18.2422L46.3516 18.0547Z" fill="#F2F1D2"/>
<path d="M46.5469 18.0547L46.7344 18.2422L46.5469 18.0547Z" fill="#D9D868"/>
<path d="M47.6172 18.1133L47.7484 18.1789L47.6266 18.1133H47.6172Z" fill="#A4A43D"/>
<path d="M47.875 18.0547L48.0625 18.2422L47.875 18.0547Z" fill="#808067"/>
<path d="M48.0625 18.0547L48.25 18.2422L48.0625 18.0547Z" fill="#666677"/>
<path d="M48.25 18.0547L48.4375 18.2422L48.25 18.0547Z" fill="#58587B"/>
<path d="M48.4531 18.0547L48.6406 18.2422L48.4531 18.0547Z" fill="#3A3A7C"/>
<path d="M49.3281 18.1133L49.4594 18.1789L49.3281 18.1133Z" fill="#58587B"/>
<path d="M49.5859 18.0547L49.7734 18.2422L49.5859 18.0547Z" fill="#737370"/>
<path d="M49.7734 18.0547L49.9609 18.2422L49.7734 18.0547Z" fill="#99994E"/>
<path d="M49.9688 18.0547L50.1562 18.2422L49.9688 18.0547Z" fill="#A4A43D"/>
<path d="M51.4844 18.0547L51.6719 18.2422L51.4844 18.0547Z" fill="#DDDC7A"/>
<path d="M51.6875 18.0547L51.875 18.2422L51.6875 18.0547Z" fill="#D0D045"/>
<path d="M39.6953 18.2422L39.8828 18.4297L39.6953 18.2422Z" fill="#F2F1D7"/>
<path d="M39.8828 18.2422L40.0703 18.4297L39.8828 18.2422Z" fill="#E0DEA1"/>
<path d="M40.0703 18.2422L40.2578 18.4297L40.0703 18.2422Z" fill="#DDDC7A"/>
<path d="M43.875 18.2422L44.0625 18.4297L43.875 18.2422Z" fill="#D9D868"/>
<path d="M44.0625 18.2422L44.25 18.4297L44.0625 18.2422Z" fill="#E5E3AF"/>
<path d="M46.7344 18.2422L46.9219 18.4297L46.7344 18.2422Z" fill="#F6F6E4"/>
<path d="M46.9219 18.2422L47.1094 18.4297L46.9219 18.2422Z" fill="#E1E18C"/>
<path d="M50.7188 18.2422L50.9062 18.4297L50.7188 18.2422Z" fill="#D4D456"/>
<path d="M50.9219 18.2422L51.1094 18.4297L50.9219 18.2422Z" fill="#E1E18C"/>
<path d="M51.1094 18.2422L51.2969 18.4297L51.1094 18.2422Z" fill="#EEEDC1"/>
<path d="M40.4531 18.4297L40.6406 18.6172L40.4531 18.4297Z" fill="#F2F1D2"/>
<path d="M40.6406 18.4297L40.8281 18.6172L40.6406 18.4297Z" fill="#E0DEA1"/>
<path d="M40.8281 18.4297L41.0156 18.6172L40.8281 18.4297Z" fill="#DDDC7A"/>
<path d="M41.0234 18.4297L41.2109 18.6172L41.0234 18.4297Z" fill="#D0D045"/>
<path d="M43.3047 18.4297L43.4922 18.6172L43.3047 18.4297Z" fill="#DDDC7A"/>
<path d="M43.4922 18.4297L43.6797 18.6172L43.4922 18.4297Z" fill="#E5E3AF"/>
<path d="M43.6875 18.4297L43.875 18.6172L43.6875 18.4297Z" fill="#F6F6E4"/>
<path d="M47.3047 18.4297L47.4922 18.6172L47.3047 18.4297Z" fill="#EEEDC1"/>
<path d="M47.4922 18.4297L47.6797 18.6172L47.4922 18.4297Z" fill="#E1E18C"/>
<path d="M47.6797 18.4297L47.8672 18.6172L47.6797 18.4297Z" fill="#D4D456"/>
<path d="M49.9688 18.4297L50.1562 18.6172L49.9688 18.4297Z" fill="#D9D868"/>
<path d="M50.1562 18.4297L50.3438 18.6172L50.1562 18.4297Z" fill="#E1E18C"/>
<path d="M50.3438 18.4297L50.5312 18.6172L50.3438 18.4297Z" fill="#EEEDC1"/>
<path d="M50.5312 18.4297L50.7188 18.6172L50.5312 18.4297Z" fill="#F6F6E4"/>
<path d="M41.3984 18.6172L41.5859 18.8047L41.3984 18.6172Z" fill="#F2F1D7"/>
<path d="M41.5938 18.6172L41.7812 18.8047L41.5938 18.6172Z" fill="#F2F1D2"/>
<path d="M41.7812 18.6172L41.9688 18.8047L41.7812 18.6172Z" fill="#EEEDC1"/>
<path d="M42.6719 18.6836L42.7937 18.7492L42.6719 18.6836Z" fill="#F2F1D2"/>
<path d="M42.9297 18.6172L43.1172 18.8047L42.9297 18.6172Z" fill="#FBFAF2"/>
<path d="M43.875 18.6172L44.25 18.9922V18.6172H43.875Z" fill="#FEF8F1"/>
<path d="M48.0625 18.6172L48.25 18.8047L48.0625 18.6172Z" fill="#F2F1D7"/>
<path d="M48.25 18.6172L48.4375 18.8047L48.25 18.6172Z" fill="#F2F1D2"/>
<path d="M48.4531 18.6172L48.6406 18.8047L48.4531 18.6172Z" fill="#E5E3AF"/>
<path d="M48.7672 18.6836L48.8891 18.7492L48.7578 18.6836H48.7672Z" fill="#E5E59D"/>
<path d="M49.0234 18.6172L49.2109 18.8047L49.0234 18.6172Z" fill="#E0DEA1"/>
<path d="M49.3281 18.6836L49.4594 18.7492L49.3281 18.6836Z" fill="#F2F1D2"/>
<path d="M49.5859 18.6172L49.7734 18.8047L49.5859 18.6172Z" fill="#FBFAF2"/>
<path d="M43.4922 18.8164L43.6797 19.0039L43.4922 18.8164Z" fill="#FEF8F1"/>
<path d="M43.6875 18.8164L43.875 19.0039L43.6875 18.8164Z" fill="#FBBE66"/>
<path d="M43.4922 19.0039L43.6797 19.1914L43.4922 19.0039Z" fill="#FBC477"/>
<path d="M43.875 19.0039L44.0625 19.1914L43.875 19.0039Z" fill="#FCB144"/>
<path d="M43.4922 19.1992L43.6797 19.3867L43.4922 19.1992Z" fill="#FE9F11"/>
<path d="M43.875 19.1992L44.0625 19.3867L43.875 19.1992Z" fill="#FEA522"/>
<path d="M43.3047 19.3867L43.4922 19.5742L43.3047 19.3867ZM44.0734 19.3867L44.2609 19.5742L44.0734 19.3867Z" fill="#FAE3C9"/>
<path d="M45.0156 19.3867L45.2031 19.5742L45.0156 19.3867Z" fill="#FBEAD6"/>
<path d="M45.2188 19.3867L45.4062 19.5742L45.2188 19.3867Z" fill="#F9D6AA"/>
<path d="M45.9766 19.3867L46.1641 19.5742L45.9766 19.3867Z" fill="#FAE3C9"/>
<path d="M46.1641 19.3867L46.3516 19.5742L46.1641 19.3867Z" fill="#FEF8F1"/>
<path d="M43.3047 19.5742L43.4922 19.7617L43.3047 19.5742Z" fill="#F9D099"/>
<path d="M44.0625 19.5742L44.25 19.7617L44.0625 19.5742Z" fill="#FDAB33"/>
<path d="M44.4375 19.5742L44.625 19.7617L44.4375 19.5742Z" fill="#FCF1E4"/>
<path d="M44.6406 19.5742L44.8281 19.7617L44.6406 19.5742Z" fill="#FBC477"/>
<path d="M44.8281 19.5742L45.0156 19.7617L44.8281 19.5742Z" fill="#FEA522"/>
<path d="M46.3516 19.5742L46.5391 19.7617L46.3516 19.5742Z" fill="#FCB755"/>
<path d="M46.5469 19.5742L46.7344 19.7617L46.5469 19.5742Z" fill="#F9D6AA"/>
<path d="M43.3047 19.7734L43.4922 19.9609L43.3047 19.7734Z" fill="#FACA88"/>
<path d="M44.25 19.7734L44.4375 19.9609L44.25 19.7734ZM46.7344 19.7734L46.9219 19.9609L46.7344 19.7734Z" fill="#FEA522"/>
<path d="M46.9219 19.7734L47.1094 19.9609L46.9219 19.7734Z" fill="#F8DCBB"/>
<path d="M39.3125 19.9609L39.5 20.1484L39.3125 19.9609Z" fill="#F6F6E4"/>
<path d="M43.3047 19.9609L43.4922 20.1484L43.3047 19.9609Z" fill="#FBC477"/>
<path d="M47.1094 19.9609L47.2969 20.1484L47.1094 19.9609Z" fill="#FBBE66"/>
<path d="M47.3047 19.9609L47.4922 20.1484L47.3047 19.9609Z" fill="#F8DCBB"/>
<path d="M43.3047 20.1484L43.4922 20.3359L43.3047 20.1484Z" fill="#FACA88"/>
<path d="M47.6797 20.1484L47.8672 20.3359L47.6797 20.1484Z" fill="#FCB755"/>
<path d="M47.875 20.1484L48.0625 20.3359L47.875 20.1484Z" fill="#F8DCBB"/>
<path d="M43.1172 20.3438L43.3047 20.5312L43.1172 20.3438Z" fill="#FEF8F1"/>
<path d="M43.3047 20.3438L43.4922 20.5312L43.3047 20.3438Z" fill="#FE9F11"/>
<path d="M48.6406 20.3438L48.8281 20.5312L48.6406 20.3438Z" fill="#FDAB33"/>
<path d="M48.8359 20.3438L49.0234 20.5312L48.8359 20.3438Z" fill="#FCB144"/>
<path d="M49.0234 20.3438L49.2109 20.5312L49.0234 20.3438Z" fill="#FBC477"/>
<path d="M49.2109 20.3438L49.5859 20.7188L49.2109 20.3438Z" fill="#F9D6AA"/>
<path d="M49.3984 20.3438L49.5859 20.5312L49.3984 20.3438Z" fill="#FEF8F1"/>
<path d="M43.1172 20.5312L43.3047 20.7188L43.1172 20.5312Z" fill="#FCB144"/>
<path d="M45.7812 20.5312L45.9688 20.7188L45.7812 20.5312Z" fill="#FDAB33"/>
<path d="M45.9766 20.5312L46.1641 20.7188L45.9766 20.5312ZM46.7266 20.5312L46.9141 20.7188L46.7266 20.5312Z" fill="#FBC477"/>
<path d="M46.9219 20.5312L47.1094 20.7188L46.9219 20.5312Z" fill="#FEA522"/>
<path d="M42.9297 20.7188L43.1172 20.9062L42.9297 20.7188Z" fill="#FAE3C9"/>
<path d="M45.4062 20.7188L45.5938 20.9062L45.4062 20.7188Z" fill="#FCB144"/>
<path d="M45.5938 20.7188L45.7812 20.9062L45.5938 20.7188Z" fill="#FAE3C9"/>
<path d="M47.1094 20.7188L47.2969 20.9062L47.1094 20.7188Z" fill="#F8DCBB"/>
<path d="M47.3047 20.7188L47.4922 20.9062L47.3047 20.7188Z" fill="#FDAB33"/>
<path d="M48.4531 20.7188L48.6406 20.9062L48.4531 20.7188Z" fill="#FE9F11"/>
<path d="M48.6406 20.7188L48.8281 20.9062L48.6406 20.7188Z" fill="#FCB755"/>
<path d="M48.8359 20.7188L49.0234 20.9062L48.8359 20.7188Z" fill="#F9D099"/>
<path d="M49.0234 20.7188L49.2109 20.9062L49.0234 20.7188Z" fill="#FBEAD6"/>
<path d="M42.9297 20.9062L43.1172 21.0938L42.9297 20.9062Z" fill="#FCB144"/>
<path d="M45.2188 20.9062L45.4062 21.0938L45.2188 20.9062Z" fill="#FBBE66"/>
<path d="M47.4922 20.9062L47.6797 21.0938L47.4922 20.9062Z" fill="#F9D099"/>
<path d="M48.25 20.9062L48.4375 21.0938L48.25 20.9062Z" fill="#FBEAD6"/>
<path d="M42.7422 21.0938L42.9297 21.2812L42.7422 21.0938Z" fill="#FCF1E4"/>
<path d="M45.0156 21.0938L45.2031 21.2812L45.0156 21.0938Z" fill="#FBBE66"/>
<path d="M47.6797 21.0938L47.8672 21.2812L47.6797 21.0938Z" fill="#F9D099"/>
<path d="M48.25 21.0938L48.4375 21.2812L48.25 21.0938Z" fill="#FAE3C9"/>
<path d="M42.7422 21.2812L42.9297 21.4688L42.7422 21.2812Z" fill="#FBC477"/>
<path d="M44.8281 21.2812L45.0156 21.4688L44.8281 21.2812ZM47.875 21.2812L48.0625 21.4688L47.875 21.2812Z" fill="#FCB144"/>
<path d="M48.25 21.2812L48.4375 21.4688L48.25 21.2812Z" fill="#FBBE66"/>
<path d="M39.3125 21.4688L39.5 21.6562L39.3125 21.4688Z" fill="#F6F6E4"/>
<path d="M42.7422 21.4688L42.9297 21.6562L42.7422 21.4688Z" fill="#FEA522"/>
<path d="M44.8281 21.4688L45.0156 21.6562L44.8281 21.4688Z" fill="#FBEAD6"/>
<path d="M47.875 21.4688L48.0625 21.6562L47.875 21.4688Z" fill="#FCF1E4"/>
<path d="M48.4531 21.4688L48.6406 21.6562L48.4531 21.4688Z" fill="#FEF8F1"/>
<path d="M42.5547 21.6758L42.7422 21.8633L42.5547 21.6758Z" fill="#FCF1E4"/>
<path d="M44.6406 21.6758L44.8281 21.8633L44.6406 21.6758Z" fill="#FBBE66"/>
<path d="M48.0625 21.6758L48.25 21.8633L48.0625 21.6758Z" fill="#FACA88"/>
<path d="M48.4531 21.6758L48.6406 21.8633L48.4531 21.6758Z" fill="#F9D099"/>
<path d="M42.5547 21.8633L42.7422 22.0508L42.5547 21.8633Z" fill="#F9D6AA"/>
<path d="M44.6406 21.8633L44.8281 22.0508L44.6406 21.8633Z" fill="#FCF1E4"/>
<path d="M45.5938 21.8633L45.7812 22.0508L45.5938 21.8633Z" fill="#FAE3C9"/>
<path d="M45.7812 21.8633L45.9688 22.0508L45.7812 21.8633Z" fill="#FEA522"/>
<path d="M45.9766 21.8633L46.1641 22.0508L45.9766 21.8633Z" fill="#FCB144"/>
<path d="M46.1641 21.8633L46.3516 22.0508L46.1641 21.8633Z" fill="#F9D6AA"/>
<path d="M48.0625 21.8633L48.25 22.0508L48.0625 21.8633Z" fill="#FEF8F1"/>
<path d="M48.25 21.8633L48.4375 22.0508L48.25 21.8633Z" fill="#FEA522"/>
<path d="M48.4531 21.8633L48.6406 22.0508L48.4531 21.8633Z" fill="#FDAB33"/>
<path d="M42.5563 22.0508L42.3594 22.6133L42.5469 22.0508H42.5563Z" fill="#FACA88"/>
<path d="M44.4375 22.0508L44.625 22.2383L44.4375 22.0508Z" fill="#FEA522"/>
<path d="M44.6406 22.0508L44.8281 22.2383L44.6406 22.0508Z" fill="#FEF8F1"/>
<path d="M45.5938 22.0508L45.7812 22.2383L45.5938 22.0508Z" fill="#F9D099"/>
<path d="M46.3516 22.0508L46.5391 22.2383L46.3516 22.0508Z" fill="#FDAB33"/>
<path d="M46.5469 22.0508L46.7344 22.2383L46.5469 22.0508Z" fill="#FAE3C9"/>
<path d="M48.25 22.0508L48.4375 22.2383L48.25 22.0508Z" fill="#F8DCBB"/>
<path d="M48.4531 22.0508L48.6406 22.2383L48.4531 22.0508Z" fill="#FF9900"/>
<path d="M48.7031 22.1797L48.7594 22.3016L48.7031 22.1797Z" fill="#FBEAD6"/>
<path d="M44.8281 22.2383L45.0156 22.4258L44.8281 22.2383Z" fill="#FEA522"/>
<path d="M45.0156 22.2383L45.2031 22.4258L45.0156 22.2383Z" fill="#FBBE66"/>
<path d="M45.2188 22.2383L45.4062 22.4258L45.2188 22.2383Z" fill="#FACA88"/>
<path d="M45.4062 22.2383L45.5938 22.4258L45.4062 22.2383Z" fill="#FCB144"/>
<path d="M45.5938 22.2383L45.7812 22.4258L45.5938 22.2383Z" fill="#FAE3C9"/>
<path d="M45.7812 22.2383L45.9688 22.4258L45.7812 22.2383Z" fill="#FE9F11"/>
<path d="M46.7344 22.2383L46.9219 22.4258L46.7344 22.2383Z" fill="#FDAB33"/>
<path d="M46.9219 22.2383L47.1094 22.4258L46.9219 22.2383Z" fill="#FBC477"/>
<path d="M47.1094 22.2383L47.2969 22.4258L47.1094 22.2383Z" fill="#FACA88"/>
<path d="M47.3047 22.2383L47.4922 22.4258L47.3047 22.2383Z" fill="#F9D6AA"/>
<path d="M47.6172 22.3047L47.7484 22.3703L47.6266 22.3047H47.6172Z" fill="#FAE3C9"/>
<path d="M47.875 22.2383L48.0625 22.4258L47.875 22.2383Z" fill="#FEF8F1"/>
<path d="M48.4531 22.2383L48.6406 22.4258L48.4531 22.2383Z" fill="#FBC477"/>
<path d="M40.2656 22.4336L40.4531 22.6211L40.2656 22.4336Z" fill="#FEF8F1"/>
<path d="M40.4531 22.4336L40.6406 22.6211L40.4531 22.4336Z" fill="#FCF1E4"/>
<path d="M45.4062 22.4336L45.5938 22.6211L45.4062 22.4336Z" fill="#FCB755"/>
<path d="M45.7812 22.4336L45.9688 22.6211L45.7812 22.4336Z" fill="#FBEAD6"/>
<path d="M45.9766 22.4336L46.1641 22.6211L45.9766 22.4336Z" fill="#FEA522"/>
<path d="M47.4922 22.4336L47.6797 22.6211L47.4922 22.4336Z" fill="#FE9F11"/>
<path d="M47.6797 22.4336L47.4922 22.8086L47.6797 22.4336Z" fill="#FCB144"/>
<path d="M48.0625 22.4336L48.25 22.6211L48.0625 22.4336Z" fill="#FE9F11"/>
<path d="M48.25 22.4336L48.4375 22.6211L48.25 22.4336Z" fill="#FBBE66"/>
<path d="M48.4531 22.4336L48.6406 22.6211L48.4531 22.4336Z" fill="#FCF1E4"/>
<path d="M40.2656 22.6211L40.4531 22.8086L40.2656 22.6211Z" fill="#FAE3C9"/>
<path d="M40.4531 22.6211L40.8281 22.9961L40.4531 22.6211Z" fill="#FE9F11"/>
<path d="M40.6406 22.6211L40.8281 22.8086L40.6406 22.6211ZM42.3562 22.6211L42.5437 22.8086L42.3562 22.6211Z" fill="#FBEAD6"/>
<path d="M42.5547 22.6211L42.7422 22.8086L42.5547 22.6211Z" fill="#FAE3C9"/>
<path d="M44.25 22.6211L44.4375 22.8086L44.25 22.6211Z" fill="#FE9F11"/>
<path d="M44.4375 22.6211L44.625 22.8086L44.4375 22.6211Z" fill="#FBC477"/>
<path d="M44.6406 22.6211L44.8281 22.8086L44.6406 22.6211Z" fill="#FEA522"/>
<path d="M45.2188 22.6211L45.4062 22.8086L45.2188 22.6211Z" fill="#FBC477"/>
<path d="M45.4062 22.6211L45.5938 22.8086L45.4062 22.6211Z" fill="#FEF8F1"/>
<path d="M46.1641 22.6211L46.3516 22.8086L46.1641 22.6211Z" fill="#FBC477"/>
<path d="M47.6797 22.6211L47.8672 22.8086L47.6797 22.6211Z" fill="white"/>
<path d="M47.875 22.6211L48.0625 22.8086L47.875 22.6211Z" fill="#FDAB33"/>
<path d="M48.6406 22.6211L48.8281 22.8086L48.6406 22.6211Z" fill="#FBC477"/>
<path d="M40.2656 22.8086L40.4531 22.9961L40.2656 22.8086Z" fill="#FEF8F1"/>
<path d="M40.8281 22.8086L41.0156 22.9961L40.8281 22.8086Z" fill="#FBEAD6"/>
<path d="M41.7812 22.8086L41.9688 22.9961L41.7812 22.8086Z" fill="#F9D6AA"/>
<path d="M42.7422 22.8086L42.9297 22.9961L42.7422 22.8086Z" fill="#FE9F11"/>
<path d="M43.0469 22.875L43.1781 22.9406L43.0469 22.875Z" fill="#F9D6AA"/>
<path d="M44.25 22.8086L44.4375 22.9961L44.25 22.8086Z" fill="#F8DCBB"/>
<path d="M44.8281 22.8086L45.0156 22.9961L44.8281 22.8086Z" fill="#FCF1E4"/>
<path d="M46.3516 22.8086L46.5391 22.9961L46.3516 22.8086Z" fill="#F9D6AA"/>
<path d="M47.6797 22.8086L47.8672 22.9961L47.6797 22.8086Z" fill="#FDAB33"/>
<path d="M48.8359 22.8086L49.0234 22.9961L48.8359 22.8086Z" fill="#FCB755"/>
<path d="M49.0234 22.8086L49.2109 22.9961L49.0234 22.8086Z" fill="#FEF8F1"/>
<path d="M38.7344 23.0078L38.9219 23.1953L38.7344 23.0078Z" fill="#53527C"/>
<path d="M40.4531 23.0078L40.6406 23.1953L40.4531 23.0078Z" fill="#FCB755"/>
<path d="M40.8281 23.0078L41.0156 23.1953L40.8281 23.0078Z" fill="#FEA522"/>
<path d="M41.5938 23.0078L41.7812 23.1953L41.5938 23.0078Z" fill="#FBEAD6"/>
<path d="M41.9688 23.0078L42.1562 23.1953L41.9688 23.0078Z" fill="#FE9F11"/>
<path d="M42.1719 23.0078L42.3594 23.1953L42.1719 23.0078Z" fill="#FCF1E4"/>
<path d="M42.7422 23.0078L42.9297 23.1953L42.7422 23.0078Z" fill="#FBBE66"/>
<path d="M42.9297 23.0078L43.1172 23.1953L42.9297 23.0078Z" fill="#FBC477"/>
<path d="M43.1172 23.0078L43.3047 23.1953L43.1172 23.0078Z" fill="#FBBE66"/>
<path d="M44.0625 23.0078L44.25 23.1953L44.0625 23.0078Z" fill="#FEA522"/>
<path d="M46.5469 23.0078L46.7344 23.1953L46.5469 23.0078Z" fill="#F9D6AA"/>
<path d="M49.0234 23.0078L49.2109 23.1953L49.0234 23.0078Z" fill="#FCB144"/>
<path d="M52.0625 23.0078L52.25 23.1953L52.0625 23.0078Z" fill="#8D8D5B"/>
<path d="M39.3125 23.1953L39.5 23.3828L39.3125 23.1953Z" fill="#E5E3AF"/>
<path d="M40.4531 23.1953L40.6406 23.3828L40.4531 23.1953Z" fill="#F8DCBB"/>
<path d="M41.0234 23.1953L41.2109 23.3828L41.0234 23.1953Z" fill="#FDAB33"/>
<path d="M41.5938 23.1953L41.7812 23.3828L41.5938 23.1953Z" fill="#FE9F11"/>
<path d="M41.9688 23.1953L42.1562 23.3828L41.9688 23.1953Z" fill="#FACA88"/>
<path d="M42.7422 23.1953L42.9297 23.3828L42.7422 23.1953Z" fill="#FCF1E4"/>
<path d="M44.0625 23.1953L44.25 23.3828L44.0625 23.1953ZM46.7344 23.1953L46.9219 23.3828L46.7344 23.1953Z" fill="#F9D099"/>
<path d="M49.2109 23.1953L49.3984 23.3828L49.2109 23.1953Z" fill="#FBBE66"/>
<path d="M40.6406 23.3828L40.8281 23.5703L40.6406 23.3828Z" fill="#FEA522"/>
<path d="M41.2109 23.3828L41.3984 23.5703L41.2109 23.3828Z" fill="#FDAB33"/>
<path d="M41.3984 23.3828L41.5859 23.5703L41.3984 23.3828Z" fill="#FEA522"/>
<path d="M41.7812 23.3828L41.9688 23.5703L41.7812 23.3828Z" fill="#FE9F11"/>
<path d="M41.9688 23.3828L42.1562 23.5703L41.9688 23.3828Z" fill="#FEF8F1"/>
<path d="M42.9297 23.3828L43.1172 23.5703L42.9297 23.3828Z" fill="#FBBE66"/>
<path d="M44.0625 23.3828L44.25 23.5703L44.0625 23.3828Z" fill="#FEF8F1"/>
<path d="M46.9219 23.3828L47.1094 23.5703L46.9219 23.3828Z" fill="#FBBE66"/>
<path d="M49.3984 23.3828L49.5859 23.5703L49.3984 23.3828Z" fill="#F9D099"/>
<path d="M40.6406 23.5781L40.8281 23.7656L40.6406 23.5781Z" fill="#F9D6AA"/>
<path d="M41.7812 23.5781L41.9688 23.7656L41.7812 23.5781Z" fill="#F9D099"/>
<path d="M42.9297 23.5781L43.1172 23.7656L42.9297 23.5781Z" fill="#FCF1E4"/>
<path d="M43.875 23.5781L44.0625 23.7656L43.875 23.5781ZM47.1094 23.5781L47.2969 23.7656L47.1094 23.5781Z" fill="#FDAB33"/>
<path d="M49.5859 23.5781L49.7734 23.7656L49.5859 23.5781Z" fill="#FBEAD6"/>
<path d="M40.8281 23.7656L41.0156 23.9531L40.8281 23.7656Z" fill="#FEA522"/>
<path d="M41.5938 23.7656L41.7812 23.9531L41.5938 23.7656Z" fill="#FE9F11"/>
<path d="M43.1172 23.7656L43.3047 23.9531L43.1172 23.7656Z" fill="#FCB144"/>
<path d="M43.875 23.7656L44.0625 23.9531L43.875 23.7656Z" fill="#FACA88"/>
<path d="M47.1094 23.7656L47.2969 23.9531L47.1094 23.7656Z" fill="#F8DCBB"/>
<path d="M49.5859 23.7656L49.7734 23.9531L49.5859 23.7656Z" fill="#FCB144"/>
<path d="M39.3125 23.9609L39.5 24.1484L39.3125 23.9609Z" fill="#D3D079"/>
<path d="M40.8281 23.9609L41.0156 24.1484L40.8281 23.9609ZM43.1156 23.9609L43.3031 24.1484L43.1156 23.9609Z" fill="#FACA88"/>
<path d="M43.875 23.9609L44.0625 24.1484L43.875 23.9609M47.1094 23.9609L47.2969 24.1484L47.1094 23.9609Z" fill="#FAE3C9"/>
<path d="M49.7734 23.9609L49.9609 24.1484L49.7734 23.9609V23.9609Z" fill="#F8DCBB"/>
<path d="M51.4844 23.9609L51.6719 24.1484L51.4844 23.9609Z" fill="#F2F1D7"/>
<path d="M52.125 24.0859L52.1906 24.2078L52.125 24.0859Z" fill="#58587B"/>
<path d="M39.3672 24.2734L39.4422 24.4047L39.3766 24.2734H39.3672Z" fill="#D9D868"/>
<path d="M40.8281 24.1484L41.0156 24.3359L40.8281 24.1484Z" fill="#F8DCBB"/>
<path d="M46.9219 24.1484L47.1094 24.3359L46.9219 24.1484Z" fill="#F9D6AA"/>
<path d="M47.1094 24.1484L47.2969 24.3359L47.1094 24.1484Z" fill="#FE9F11"/>
<path d="M49.7734 24.1484L49.9609 24.3359L49.7734 24.1484Z" fill="#FCB144"/>
<path d="M51.5547 24.2734L51.6203 24.4047L51.5547 24.2734Z" fill="#F2F1D2"/>
<path d="M40.8281 24.3359L41.0156 24.5234L40.8281 24.3359Z" fill="#FCF1E4"/>
<path d="M46.7344 24.3359L46.9219 24.5234L46.7344 24.3359Z" fill="#FEF8F1"/>
<path d="M46.9219 24.3359L47.1094 24.5234L46.9219 24.3359Z" fill="#FE9F11"/>
<path d="M47.4922 24.3359L47.3047 24.7109L47.4922 24.3359Z" fill="#FDAB33"/>
<path d="M47.6797 24.3359L47.8672 24.5234L47.6797 24.3359Z" fill="#FCB755"/>
<path d="M49.9688 24.3359L50.1562 24.5234L49.9688 24.3359Z" fill="#FEA522"/>
<path d="M50.1562 24.3359L50.3438 24.5234L50.1562 24.3359Z" fill="#F9D099"/>
<path d="M52.0625 24.3359L52.25 24.5234L52.0625 24.3359Z" fill="#53527C"/>
<path d="M38.9922 24.6562L39.0578 24.7781L38.9922 24.6562Z" fill="#808067"/>
<path d="M41.0234 24.5234L41.2109 24.7109L41.0234 24.5234ZM41.5859 24.5234L41.7734 24.7109L41.5859 24.5234Z" fill="#FEA522"/>
<path d="M43.6875 24.5234L43.875 24.7109L43.6875 24.5234Z" fill="#FE9F11"/>
<path d="M46.7344 24.5234L46.9219 24.7109L46.7344 24.5234Z" fill="#FAE3C9"/>
<path d="M47.4922 24.5234L47.6797 24.7109L47.4922 24.5234Z" fill="#FEF8F1"/>
<path d="M47.875 24.5234L48.0625 24.7109L47.875 24.5234Z" fill="#FCB144"/>
<path d="M50.3438 24.5234L50.5312 24.7109L50.3438 24.5234Z" fill="#FCB755"/>
<path d="M50.5312 24.5234L50.9062 24.8984L50.5312 24.5234Z" fill="#FEF8F1"/>
<path d="M51.5547 24.6562L51.6203 24.7781L51.5547 24.6562Z" fill="#E5E59D"/>
<path d="M52.125 24.6562L52.1906 24.7781L52.125 24.6562Z" fill="#32327B"/>
<path d="M41.0938 24.8438L41.15 24.975L41.0938 24.8438Z" fill="#FCB755"/>
<path d="M41.7812 24.7109L41.9688 24.8984L41.7812 24.7109Z" fill="#FEF8F1"/>
<path d="M43.6875 24.7109L43.875 24.8984L43.6875 24.7109Z" fill="#FBBE66"/>
<path d="M46.7344 24.7109L46.9219 24.8984L46.7344 24.7109Z" fill="#FBEAD6"/>
<path d="M47.1094 24.7109L47.2969 24.8984L47.1094 24.7109Z" fill="#FE9F11"/>
<path d="M47.3047 24.7109L47.4922 24.8984L47.3047 24.7109Z" fill="#FCF1E4"/>
<path d="M47.875 24.7109L48.0625 24.8984L47.875 24.7109Z" fill="#FBEAD6"/>
<path d="M50.5312 24.7109L50.7188 24.8984L50.5312 24.7109Z" fill="#FDAB33"/>
<path d="M38.9375 24.8984L39.125 25.0859L38.9375 24.8984Z" fill="#666677"/>
<path d="M39.5 24.8984L39.6875 25.0859L39.5 24.8984Z" fill="#F6F6E4"/>
<path d="M41.7812 24.8984L41.9688 25.0859L41.7812 24.8984Z" fill="#F9D6AA"/>
<path d="M43.3047 24.8984L43.4922 25.0859L43.3047 24.8984Z" fill="#FDAB33"/>
<path d="M43.4922 24.8984L43.6797 25.0859L43.4922 24.8984Z" fill="#FE9F11"/>
<path d="M43.6875 24.8984L43.875 25.0859L43.6875 24.8984Z" fill="#FCF1E4"/>
<path d="M46.9219 24.8984L47.1094 25.0859L46.9219 24.8984Z" fill="#FEA522"/>
<path d="M47.1094 24.8984L47.2969 25.0859L47.1094 24.8984ZM48.0656 24.8984L48.2531 25.0859L48.0656 24.8984Z" fill="#FACA88"/>
<path d="M50.7188 24.8984L50.9062 25.0859L50.7188 24.8984Z" fill="#FCB144"/>
<path d="M51.4844 24.8984L51.6719 25.0859L51.4844 24.8984Z" fill="#DDDC7A"/>
<path d="M38.9375 25.0977L39.125 25.2852L38.9375 25.0977Z" fill="#58587B"/>
<path d="M39.5 25.0977L39.6875 25.2852L39.5 25.0977Z" fill="#F2F1D2"/>
<path d="M41.0938 25.2188L41.15 25.35L41.0938 25.2188Z" fill="#FCB144"/>
<path d="M41.7812 25.0977L41.9688 25.2852L41.7812 25.0977Z" fill="#FEA522"/>
<path d="M43.6875 25.0977L43.875 25.2852L43.6875 25.0977Z" fill="#FEF8F1"/>
<path d="M43.875 25.0977L44.0625 25.2852L43.875 25.0977Z" fill="#FEA522"/>
<path d="M44.25 25.0977L44.4375 25.2852L44.25 25.0977Z" fill="#FCB144"/>
<path d="M44.4375 25.0977L44.625 25.2852L44.4375 25.0977Z" fill="#FBEAD6"/>
<path d="M46.9219 25.0977L47.1094 25.2852L46.9219 25.0977Z" fill="#F8DCBB"/>
<path d="M47.1094 25.0977L47.2969 25.2852L47.1094 25.0977Z" fill="#FCF1E4"/>
<path d="M48.0625 25.0977L48.25 25.2852L48.0625 25.0977Z" fill="#FEF8F1"/>
<path d="M48.25 25.0977L48.4375 25.2852L48.25 25.0977Z" fill="#FE9F11"/>
<path d="M50.9219 25.0977L51.1094 25.2852L50.9219 25.0977Z" fill="#FBEAD6"/>
<path d="M51.4844 25.0977L51.6719 25.2852L51.4844 25.0977Z" fill="#D9D868"/>
<path d="M38.9375 25.2852L39.125 25.4727L38.9375 25.2852Z" fill="#3A3A7C"/>
<path d="M39.5 25.2852L39.6875 25.4727L39.5 25.2852Z" fill="#E5E3AF"/>
<path d="M41.9688 25.2852L42.1562 25.4727L41.9688 25.2852Z" fill="#FACA88"/>
<path d="M43.875 25.2852L44.0625 25.4727L43.875 25.2852Z" fill="#FBEAD6"/>
<path d="M44.4375 25.2852L44.625 25.4727L44.4375 25.2852Z" fill="#FE9F11"/>
<path d="M44.6406 25.2852L44.8281 25.4727L44.6406 25.2852Z" fill="#FCF1E4"/>
<path d="M46.7344 25.2852L46.9219 25.4727L46.7344 25.2852Z" fill="#FBEAD6"/>
<path d="M46.9219 25.2852L47.1094 25.4727L46.9219 25.2852Z" fill="#FAE3C9"/>
<path d="M47.1094 25.2852L47.2969 25.4727L47.1094 25.2852Z" fill="#FBEAD6"/>
<path d="M48.25 25.2852L48.4375 25.4727L48.25 25.2852ZM49.7781 25.2852L49.9656 25.4727L49.7781 25.2852Z" fill="#FBBE66"/>
<path d="M49.9688 25.2852L50.1562 25.4727L49.9688 25.2852Z" fill="#FCF1E4"/>
<path d="M50.1562 25.2852L50.3438 25.4727L50.1562 25.2852Z" fill="#FEF8F1"/>
<path d="M50.3438 25.2852L50.5312 25.4727L50.3438 25.2852Z" fill="#F8DCBB"/>
<path d="M50.5312 25.2852L50.7188 25.4727L50.5312 25.2852Z" fill="#FCB755"/>
<path d="M50.9219 25.2852L51.1094 25.4727L50.9219 25.2852Z" fill="#FAE3C9"/>
<path d="M51.875 25.2852L52.0625 25.4727L51.875 25.2852Z" fill="#808067"/>
<path d="M38.9375 25.4805L39.125 25.668L38.9375 25.4805Z" fill="#32327B"/>
<path d="M39.1797 25.5938L39.2453 25.7344L39.1891 25.6031L39.1797 25.5938Z" fill="#A4A43D"/>
<path d="M39.5 25.4805L39.6875 25.668L39.5 25.4805Z" fill="#E5E59D"/>
<path d="M41.0234 25.4805L41.2109 25.668L41.0234 25.4805Z" fill="#FBC477"/>
<path d="M42.1719 25.4805L42.3594 25.668L42.1719 25.4805Z" fill="#F9D6AA"/>
<path d="M44.0625 25.4805L44.25 25.668L44.0625 25.4805Z" fill="#FBBE66"/>
<path d="M44.6406 25.4805L44.8281 25.668L44.6406 25.4805Z" fill="#F9D099"/>
<path d="M46.3516 25.4805L46.5391 25.668L46.3516 25.4805Z" fill="#FAE3C9"/>
<path d="M46.5469 25.4805L46.7344 25.668L46.5469 25.4805Z" fill="#FCB144"/>
<path d="M47.3047 25.4805L47.4922 25.668L47.3047 25.4805Z" fill="#FAE3C9"/>
<path d="M48.25 25.4805L48.4375 25.668L48.25 25.4805Z" fill="#F8DCBB"/>
<path d="M49.7734 25.4805L49.9609 25.668L49.7734 25.4805Z" fill="#F9D099"/>
<path d="M50.7188 25.4805L50.9062 25.668L50.7188 25.4805Z" fill="#FBC477"/>
<path d="M50.9219 25.4805L51.1094 25.668L50.9219 25.4805Z" fill="#FBEAD6"/>
<path d="M51.875 25.4805L52.0625 25.668L51.875 25.4805Z" fill="#737370"/>
<path d="M39.5 25.668L39.6875 25.8555L39.5 25.668Z" fill="#D9D868"/>
<path d="M41.0234 25.668L41.2109 25.8555L41.0234 25.668Z" fill="#F9D099"/>
<path d="M42.3594 25.668L42.5469 25.8555L42.3594 25.668ZM44.075 25.668L44.2625 25.8555L44.075 25.668Z" fill="#F9D6AA"/>
<path d="M44.6406 25.668L44.8281 25.8555L44.6406 25.668Z" fill="#FBC477"/>
<path d="M45.5938 25.668L45.7812 25.8555L45.5938 25.668Z" fill="#FEF8F1"/>
<path d="M45.7812 25.668L45.9688 25.8555L45.7812 25.668Z" fill="#F8DCBB"/>
<path d="M45.9766 25.668L46.1641 25.8555L45.9766 25.668Z" fill="#FBC477"/>
<path d="M46.1641 25.668L46.3516 25.8555L46.1641 25.668Z" fill="#FEA522"/>
<path d="M47.3047 25.668L47.4922 25.8555L47.3047 25.668Z" fill="#FBEAD6"/>
<path d="M51.2969 25.668L51.4844 25.8555L51.2969 25.668Z" fill="#F2F1D2"/>
<path d="M51.875 25.668L52.0625 25.8555L51.875 25.668Z" fill="#58587B"/>
<path d="M39.125 25.8555L39.3125 26.043L39.125 25.8555Z" fill="#99994E"/>
<path d="M39.5 25.8555L39.6875 26.043L39.5 25.8555Z" fill="#D0D045"/>
<path d="M42.5547 25.8555L42.7422 26.043L42.5547 25.8555Z" fill="#FCB144"/>
<path d="M42.7422 25.8555L42.9297 26.043L42.7422 25.8555Z" fill="#FAE3C9"/>
<path d="M44.0625 25.8555L44.25 26.043L44.0625 25.8555Z" fill="#FEF8F1"/>
<path d="M44.8281 25.8555L45.0156 26.043L44.8281 25.8555Z" fill="#FCB755"/>
<path d="M45.0156 25.8555L45.2031 26.043L45.0156 25.8555Z" fill="#FBC477"/>
<path d="M45.2188 25.8555L45.4062 26.043L45.2188 25.8555Z" fill="#FCB144"/>
<path d="M45.4062 25.8555L45.5938 26.043L45.4062 25.8555Z" fill="#FEA522"/>
<path d="M46.9219 25.8555L47.1094 26.043L46.9219 25.8555Z" fill="#FE9F11"/>
<path d="M47.1094 25.8555L47.2969 26.043L47.1094 25.8555Z" fill="#F9D6AA"/>
<path d="M49.7734 25.8555L49.9609 26.043L49.7734 25.8555Z" fill="#FEF8F1"/>
<path d="M51.2969 25.8555L51.4844 26.043L51.2969 25.8555Z" fill="#E0DEA1"/>
<path d="M51.875 25.8555L52.0625 26.043L51.875 25.8555Z" fill="#3A3A7C"/>
<path d="M39.125 26.0547L39.3125 26.2422L39.125 26.0547Z" fill="#737370"/>
<path d="M39.6953 26.0547L39.8828 26.2422L39.6953 26.0547Z" fill="#FBFAF2"/>
<path d="M41.2109 26.0547L41.3984 26.2422L41.2109 26.0547Z" fill="#FEA522"/>
<path d="M42.9297 26.0547L43.1172 26.2422L42.9297 26.0547Z" fill="#FE9F11"/>
<path d="M43.1172 26.0547L43.3047 26.2422L43.1172 26.0547Z" fill="#FCB144"/>
<path d="M43.3047 26.0547L43.4922 26.2422L43.3047 26.0547Z" fill="#FBC477"/>
<path d="M43.4922 26.0547L43.6797 26.2422L43.4922 26.0547Z" fill="#FACA88"/>
<path d="M43.6875 26.0547L43.875 26.2422L43.6875 26.0547Z" fill="#FBC477"/>
<path d="M43.875 26.0547L44.0625 26.2422L43.875 26.0547Z" fill="#FCB144"/>
<path d="M44.0625 26.0547L44.25 26.2422L44.0625 26.0547Z" fill="#FDAB33"/>
<path d="M46.7344 26.0547L46.9219 26.2422L46.7344 26.0547Z" fill="#FBC477"/>
<path d="M46.9219 26.0547L47.1094 26.2422L46.9219 26.0547Z" fill="#FEF8F1"/>
<path d="M49.5859 26.0547L49.7734 26.2422L49.5859 26.0547Z" fill="#FDAB33"/>
<path d="M51.2969 26.0547L51.4844 26.2422L51.2969 26.0547Z" fill="#E1E18C"/>
<path d="M51.7422 26.1758L51.8078 26.307L51.7422 26.1758Z" fill="#A4A43D"/>
<path d="M51.875 26.0547L52.0625 26.2422L51.875 26.0547Z" fill="#262678"/>
<path d="M39.125 26.2422L39.3125 26.4297L39.125 26.2422Z" fill="#58587B"/>
<path d="M39.6953 26.2422L39.8828 26.4297L39.6953 26.2422Z" fill="#F2F1D2"/>
<path d="M41.2109 26.2422L41.3984 26.4297L41.2109 26.2422Z" fill="#FACA88"/>
<path d="M46.3516 26.2422L46.5391 26.4297L46.3516 26.2422Z" fill="#FE9F11"/>
<path d="M46.5469 26.2422L46.7344 26.4297L46.5469 26.2422Z" fill="#FBEAD6"/>
<path d="M48.25 26.2422L48.4375 26.4297L48.25 26.2422Z" fill="#FBC477"/>
<path d="M49.5859 26.2422L49.7734 26.4297L49.5859 26.2422Z" fill="#FACA88"/>
<path d="M51.2969 26.2422L51.4844 26.4297L51.2969 26.2422Z" fill="#D4D456"/>
<path d="M39.125 26.4297L39.3125 26.6172L39.125 26.4297Z" fill="#32327B"/>
<path d="M39.6953 26.4297L39.8828 26.6172L39.6953 26.4297Z" fill="#E5E59D"/>
<path d="M41.2109 26.4297L41.3984 26.6172L41.2109 26.4297Z" fill="#FEF8F1"/>
<path d="M41.3984 26.4297L41.5859 26.6172L41.3984 26.4297Z" fill="#FE9F11"/>
<path d="M46.3516 26.4297L46.5391 26.6172L46.3516 26.4297Z" fill="#FBEAD6"/>
<path d="M48.25 26.4297L48.4375 26.6172L48.25 26.4297Z" fill="#FEA522"/>
<path d="M49.5859 26.4297L49.7734 26.6172L49.5859 26.4297Z" fill="#FCF1E4"/>
<path d="M51.6875 26.4297L51.875 26.6172L51.6875 26.4297Z" fill="#808067"/>
<path d="M39.125 26.6172L39.3125 26.8047L39.125 26.6172Z" fill="#0E0E6E"/>
<path d="M39.3125 26.6172L39.5 26.8047L39.3125 26.6172Z" fill="#A4A43D"/>
<path d="M39.6953 26.6172L39.8828 26.8047L39.6953 26.6172Z" fill="#D9D868"/>
<path d="M41.3984 26.6172L41.5859 26.8047L41.3984 26.6172Z" fill="#F8DCBB"/>
<path d="M48.0625 26.6172L48.25 26.8047L48.0625 26.6172Z" fill="#F9D6AA"/>
<path d="M49.3984 26.6172L49.5859 26.8047L49.3984 26.6172Z" fill="#FACA88"/>
<path d="M51.1094 26.6172L51.2969 26.8047L51.1094 26.6172Z" fill="#F2F1D2"/>
<path d="M51.6875 26.6172L51.875 26.8047L51.6875 26.6172Z" fill="#58587B"/>
<path d="M39.3125 26.8125L39.5 27L39.3125 26.8125Z" fill="#8D8D5B"/>
<path d="M41.5938 26.8125L41.7812 27L41.5938 26.8125Z" fill="#F9D6AA"/>
<path d="M45.4062 26.8125L45.5938 27L45.4062 26.8125Z" fill="#FDAB33"/>
<path d="M45.5938 26.8125L45.7812 27L45.5938 26.8125Z" fill="white"/>
<path d="M45.9062 26.8672L46.0375 26.9328L45.9062 26.8672Z" fill="#FCB144"/>
<path d="M47.875 26.8125L47.6875 27.1875L47.875 26.8125Z" fill="#FEF8F1"/>
<path d="M48.0625 26.8125L48.25 27L48.0625 26.8125Z" fill="#FE9F11"/>
<path d="M49.2109 26.8125L49.0234 27.1875L49.2109 26.8125Z" fill="#FDAB33"/>
<path d="M51.1094 26.8125L51.2969 27L51.1094 26.8125Z" fill="#E5E59D"/>
<path d="M51.6875 26.8125L51.875 27L51.6875 26.8125Z" fill="#3A3A7C"/>
<path d="M39.3125 27L39.5 27.1875L39.3125 27Z" fill="#666677"/>
<path d="M39.8828 27L40.0703 27.1875L39.8828 27Z" fill="#F2F1D2"/>
<path d="M41.7812 27L41.9688 27.1875L41.7812 27Z" fill="#F9D6AA"/>
<path d="M45.4062 27L45.5938 27.1875L45.4062 27Z" fill="#FE9F11"/>
<path d="M45.5938 27L45.7812 27.1875L45.5938 27Z" fill="#FACA88"/>
<path d="M45.7812 27L45.9688 27.1875L45.7812 27Z" fill="#FEA522"/>
<path d="M45.9766 27L46.1641 27.1875L45.9766 27Z" fill="#FCF1E4"/>
<path d="M47.875 27L48.0625 27.1875L47.875 27Z" fill="#FDAB33"/>
<path d="M49.2109 27L49.3984 27.1875L49.2109 27Z" fill="#FEF8F1"/>
<path d="M51.1094 27L51.2969 27.1875L51.1094 27Z" fill="#D9D868"/>
<path d="M51.4844 27L51.6719 27.1875L51.4844 27Z" fill="#A4A43D"/>
<path d="M51.6875 27L51.875 27.1875L51.6875 27Z" fill="#0E0E6E"/>
<path d="M39.3125 27.1875L39.5 27.375L39.3125 27.1875Z" fill="#3A3A7C"/>
<path d="M39.8828 27.1875L40.0703 27.375L39.8828 27.1875Z" fill="#E5E59D"/>
<path d="M41.9688 27.1875L42.3438 27.5625L41.9688 27.1875Z" fill="#FAE3C9"/>
<path d="M42.1719 27.1875L42.3594 27.375L42.1719 27.1875Z" fill="#FE9F11"/>
<path d="M45.7812 27.1875L45.9688 27.375L45.7812 27.1875Z" fill="#F8DCBB"/>
<path d="M47.4922 27.1875L47.6797 27.375L47.4922 27.1875Z" fill="#FCF1E4"/>
<path d="M47.6797 27.1875L47.8672 27.375L47.6797 27.1875Z" fill="#FDAB33"/>
<path d="M48.8359 27.1875L49.0234 27.375L48.8359 27.1875Z" fill="#FCB144"/>
<path d="M49.0234 27.1875L49.2109 27.375L49.0234 27.1875Z" fill="#FEF8F1"/>
<path d="M50.9219 27.1875L51.1094 27.375L50.9219 27.1875Z" fill="#FBFAF2"/>
<path d="M51.4844 27.1875L51.6719 27.375L51.4844 27.1875Z" fill="#8D8D5B"/>
<path d="M39.3125 27.375L39.5 27.5625L39.3125 27.375Z" fill="#0E0E6E"/>
<path d="M39.5 27.375L39.6875 27.5625L39.5 27.375Z" fill="#A4A43D"/>
<path d="M39.8828 27.375L40.0703 27.5625L39.8828 27.375Z" fill="#D4D456"/>
<path d="M45.5938 27.375L45.7812 27.5625L45.5938 27.375Z" fill="#F9D6AA"/>
<path d="M47.3047 27.375L47.4922 27.5625L47.3047 27.375Z" fill="#F9D099"/>
<path d="M47.4922 27.375L47.6797 27.5625L47.4922 27.375Z" fill="#FE9F11"/>
<path d="M48.6406 27.375L48.8281 27.5625L48.6406 27.375Z" fill="#FACA88"/>
<path d="M50.9219 27.375L51.1094 27.5625L50.9219 27.375Z" fill="#EEEDC1"/>
<path d="M51.4844 27.375L51.6719 27.5625L51.4844 27.375Z" fill="#58587B"/>
<path d="M39.5 27.5625L39.6875 27.75L39.5 27.5625Z" fill="#737370"/>
<path d="M40.0703 27.5625L40.2578 27.75L40.0703 27.5625Z" fill="#F6F6E4"/>
<path d="M42.1719 27.5625L42.3594 27.75L42.1719 27.5625Z" fill="#FBBE66"/>
<path d="M45.2188 27.5625L45.4062 27.75L45.2188 27.5625Z" fill="#FCB144"/>
<path d="M45.4609 27.7031L45.5266 27.825L45.4609 27.7031Z" fill="#F8DCBB"/>
<path d="M46.9219 27.5625L47.1094 27.75L46.9219 27.5625Z" fill="#FBBE66"/>
<path d="M47.1094 27.5625L47.2969 27.75L47.1094 27.5625Z" fill="#FE9F11"/>
<path d="M48.25 27.5625L48.4375 27.75L48.25 27.5625Z" fill="#FBC477"/>
<path d="M48.4531 27.5625L48.6406 27.75L48.4531 27.5625Z" fill="#FCF1E4"/>
<path d="M50.9219 27.5625L51.1094 27.75L50.9219 27.5625Z" fill="#D3D079"/>
<path d="M51.2969 27.5625L51.4844 27.75L51.2969 27.5625Z" fill="#A4A43D"/>
<path d="M51.4844 27.5625L51.6719 27.75L51.4844 27.5625Z" fill="#262678"/>
<path d="M39.5 27.75L39.6875 27.9375L39.5 27.75Z" fill="#49497D"/>
<path d="M40.0703 27.75L40.2578 27.9375L40.0703 27.75Z" fill="#E0DEA1"/>
<path d="M41.9688 27.75L42.1562 27.9375L41.9688 27.75Z" fill="#FAE3C9"/>
<path d="M44.6406 27.75L44.8281 27.9375L44.6406 27.75Z" fill="#FDAB33"/>
<path d="M44.8281 27.75L45.0156 27.9375L44.8281 27.75Z" fill="#FBC477"/>
<path d="M45.0156 27.75L45.2031 27.9375L45.0156 27.75Z" fill="#FBEAD6"/>
<path d="M45.5938 27.75L45.7812 27.9375L45.5938 27.75Z" fill="#FCB144"/>
<path d="M48.0625 27.75L48.25 27.9375L48.0625 27.75Z" fill="#F9D6AA"/>
<path d="M51.2969 27.75L51.4844 27.9375L51.2969 27.75Z" fill="#99994E"/>
<path d="M39.5 27.957L39.6875 28.1445L39.5 27.957Z" fill="#0E0E6E"/>
<path d="M39.6953 27.957L39.8828 28.1445L39.6953 27.957Z" fill="#A4A43D"/>
<path d="M40.0703 27.957L40.2578 28.1445L40.0703 27.957Z" fill="#D4D456"/>
<path d="M41.7812 27.957L41.9688 28.1445L41.7812 27.957Z" fill="#F9D099"/>
<path d="M41.9688 27.957L42.1562 28.1445L41.9688 27.957ZM42.925 27.957L43.1125 28.1445L42.925 27.957Z" fill="#FE9F11"/>
<path d="M43.1172 27.957L43.3047 28.1445L43.1172 27.957Z" fill="#F9D6AA"/>
<path d="M43.3047 27.957L43.4922 28.1445L43.3047 27.957Z" fill="#F9D099"/>
<path d="M44.0625 27.957L44.25 28.1445L44.0625 27.957Z" fill="#F9D6AA"/>
<path d="M44.25 27.957L44.4375 28.1445L44.25 27.957Z" fill="#FAE3C9"/>
<path d="M44.4375 27.957L44.625 28.1445L44.4375 27.957Z" fill="#FEF8F1"/>
<path d="M45.9766 27.957L46.1641 28.1445L45.9766 27.957Z" fill="#FBEAD6"/>
<path d="M46.1641 27.957L46.3516 28.1445L46.1641 27.957Z" fill="#FAE3C9"/>
<path d="M46.3516 27.957L46.5391 28.1445L46.3516 27.957Z" fill="#FACA88"/>
<path d="M46.5469 27.957L46.7344 28.1445L46.5469 27.957Z" fill="#FBC477"/>
<path d="M46.7344 27.957L46.9219 28.1445L46.7344 27.957Z" fill="#FDAB33"/>
<path d="M47.6797 27.957L47.8672 28.1445L47.6797 27.957Z" fill="#FE9F11"/>
<path d="M47.875 27.957L48.0625 28.1445L47.875 27.957Z" fill="#F9D6AA"/>
<path d="M50.7188 27.957L50.9062 28.1445L50.7188 27.957Z" fill="#E5E3AF"/>
<path d="M51.2969 27.957L51.4844 28.1445L51.2969 27.957Z" fill="#666677"/>
<path d="M39.6953 28.1445L39.8828 28.332L39.6953 28.1445Z" fill="#737370"/>
<path d="M40.2656 28.1445L40.4531 28.332L40.2656 28.1445Z" fill="#F2F1D7"/>
<path d="M41.5938 28.1445L41.7812 28.332L41.5938 28.1445Z" fill="#FEA522"/>
<path d="M42.5547 28.1445L42.7422 28.332L42.5547 28.1445Z" fill="#FE9F11"/>
<path d="M42.7422 28.1445L42.9297 28.332L42.7422 28.1445Z" fill="#FBBE66"/>
<path d="M42.9297 28.1445L43.1172 28.332L42.9297 28.1445Z" fill="#FCF1E4"/>
<path d="M47.4922 28.1445L47.6797 28.332L47.4922 28.1445Z" fill="#FEA522"/>
<path d="M47.6797 28.1445L47.8672 28.332L47.6797 28.1445Z" fill="#FBEAD6"/>
<path d="M50.7188 28.1445L50.9062 28.332L50.7188 28.1445Z" fill="#DDDC7A"/>
<path d="M51.1094 28.1445L51.2969 28.332L51.1094 28.1445Z" fill="#A4A43D"/>
<path d="M51.2969 28.1445L51.4844 28.332L51.2969 28.1445Z" fill="#262678"/>
<path d="M39.6953 28.332L39.8828 28.5195L39.6953 28.332Z" fill="#49497D"/>
<path d="M39.9375 28.4609L40.0125 28.5828L39.9375 28.4609Z" fill="#A4A43D"/>
<path d="M40.2656 28.332L40.4531 28.5195L40.2656 28.332Z" fill="#D3D079"/>
<path d="M41.7812 28.332L41.9688 28.5195L41.7812 28.332Z" fill="#F9D099"/>
<path d="M41.9688 28.332L42.1562 28.5195L41.9688 28.332Z" fill="#FCB144"/>
<path d="M42.1719 28.332L42.3594 28.5195L42.1719 28.332Z" fill="#FACA88"/>
<path d="M42.3594 28.332L42.5469 28.5195L42.3594 28.332Z" fill="#F8DCBB"/>
<path d="M42.5547 28.332L42.7422 28.5195L42.5547 28.332Z" fill="#FEF8F1"/>
<path d="M46.7344 28.332L46.9219 28.5195L46.7344 28.332Z" fill="#F8DCBB"/>
<path d="M47.4922 28.332L47.6797 28.5195L47.4922 28.332Z" fill="#FCF1E4"/>
<path d="M50.5312 28.332L50.7188 28.5195L50.5312 28.332Z" fill="#F6F6E4"/>
<path d="M51.1094 28.332L51.2969 28.5195L51.1094 28.332Z" fill="#8D8D5B"/>
<path d="M40.4531 28.5195L40.6406 28.707L40.4531 28.5195Z" fill="#FBFAF2"/>
<path d="M46.7344 28.5195L46.9219 28.707L46.7344 28.5195Z" fill="#FBBE66"/>
<path d="M47.3047 28.5195L47.4922 28.707L47.3047 28.5195Z" fill="#FACA88"/>
<path d="M50.5312 28.5195L50.7188 28.707L50.5312 28.5195Z" fill="#E1E18C"/>
<path d="M51.1094 28.5195L51.2969 28.707L51.1094 28.5195Z" fill="#49497D"/>
<path d="M39.8828 28.7148L40.0703 28.9023L39.8828 28.7148Z" fill="#58587B"/>
<path d="M40.4531 28.7148L40.6406 28.9023L40.4531 28.7148Z" fill="#E5E59D"/>
<path d="M46.7344 28.7148L46.9219 28.9023L46.7344 28.7148Z" fill="#FE9F11"/>
<path d="M47.1094 28.7148L47.2969 28.9023L47.1094 28.7148Z" fill="#FDAB33"/>
<path d="M50.3438 28.7148L50.5312 28.9023L50.3438 28.7148Z" fill="#FBFAF2"/>
<path d="M50.9219 28.7148L51.1094 28.9023L50.9219 28.7148Z" fill="#A4A43D"/>
<path d="M51.1094 28.7148L51.2969 28.9023L51.1094 28.7148Z" fill="#0E0E6E"/>
<path d="M39.8828 28.9023L40.0703 29.0898L39.8828 28.9023Z" fill="#1B1B74"/>
<path d="M40.0703 28.9023L40.2578 29.0898L40.0703 28.9023Z" fill="#A4A43D"/>
<path d="M40.4531 28.9023L40.6406 29.0898L40.4531 28.9023Z" fill="#D0D045"/>
<path d="M46.5469 28.9023L46.7344 29.0898L46.5469 28.9023Z" fill="#FBEAD6"/>
<path d="M46.9219 28.9023L47.1094 29.0898L46.9219 28.9023Z" fill="#FE9F11"/>
<path d="M47.1094 28.9023L47.2969 29.0898L47.1094 28.9023Z" fill="#FBEAD6"/>
<path d="M50.3438 28.9023L50.5312 29.0898L50.3438 28.9023Z" fill="#E5E59D"/>
<path d="M50.9219 28.9023L51.1094 29.0898L50.9219 28.9023Z" fill="#666677"/>
<path d="M40.0703 29.0898L40.2578 29.2773L40.0703 29.0898Z" fill="#6E6C70"/>
<path d="M40.6406 29.0898L40.8281 29.2773L40.6406 29.0898Z" fill="#E5E3AF"/>
<path d="M46.5938 29.2227L46.6687 29.3539L46.5938 29.2227Z" fill="#FACA88"/>
<path d="M46.9219 29.0898L47.1094 29.2773L46.9219 29.0898Z" fill="#FAE3C9"/>
<path d="M50.1562 29.0898L50.3438 29.2773L50.1562 29.0898Z" fill="#FBFAF2"/>
<path d="M50.7188 29.0898L50.9062 29.2773L50.7188 29.0898Z" fill="#A4A43D"/>
<path d="M50.9266 29.0898L51.1141 29.2773L50.9266 29.0898ZM40.0703 29.2773L40.2578 29.4648L40.0703 29.2773Z" fill="#1B1B74"/>
<path d="M40.2656 29.2891L40.4531 29.4766L40.2656 29.2891Z" fill="#A4A43D"/>
<path d="M40.6406 29.2891L40.8281 29.4766L40.6406 29.2891Z" fill="#D0D045"/>
<path d="M40.8281 29.2891L41.0156 29.4766L40.8281 29.2891Z" fill="#FBFAF2"/>
<path d="M46.7344 29.2891L46.9219 29.4766L46.7344 29.2891Z" fill="#F9D6AA"/>
<path d="M50.1562 29.2891L50.3438 29.4766L50.1562 29.2891Z" fill="#E5E59D"/>
<path d="M50.7188 29.2891L50.9062 29.4766L50.7188 29.2891ZM40.2656 29.4766L40.4531 29.6641L40.2656 29.4766Z" fill="#6E6C70"/>
<path d="M40.8281 29.4766L41.0156 29.6641L40.8281 29.4766Z" fill="#8CBF84"/>
<path d="M40.9141 29.4766C41.5703 30.8641 43.9141 34.1453 45.6953 34.0891C47.4391 34.0234 49.3984 30.8078 50.1578 29.4766H40.9141Z" fill="#00CCFF"/>
<path d="M50.5312 29.4766L50.7188 29.6641L50.5312 29.4766Z" fill="#A4A43D"/>
<path d="M50.7188 29.4766L50.9062 29.6641L50.7188 29.4766ZM40.2656 29.6641L40.4531 29.8516L40.2656 29.6641Z" fill="#1B1B74"/>
<path d="M40.4531 29.6641L40.6406 29.8516L40.4531 29.6641Z" fill="#A4A43D"/>
<path d="M40.8281 29.6641L41.0156 29.8516L40.8281 29.6641Z" fill="#ADB333"/>
<path d="M41.0234 29.6641L41.2109 29.8516L41.0234 29.6641Z" fill="#1AC5B5"/>
<path d="M49.9688 29.6641L50.1562 29.8516L49.9688 29.6641Z" fill="#68B070"/>
<path d="M50.5312 29.6641L50.7188 29.8516L50.5312 29.6641Z" fill="#666677"/>
<path d="M40.4531 29.8594L40.6406 30.0469L40.4531 29.8594Z" fill="#58587B"/>
<path d="M41.0234 29.8594L41.2109 30.0469L41.0234 29.8594Z" fill="#7FB15C"/>
<path d="M49.7734 29.8594L49.9609 30.0469L49.7734 29.8594Z" fill="#27C2AA"/>
<path d="M50.3438 29.8594L50.1562 30.2344L50.3438 29.8594Z" fill="#A4A43D"/>
<path d="M50.5312 29.8594L50.7188 30.0469L50.5312 29.8594ZM40.4531 30.0469L40.6406 30.2344L40.4531 30.0469Z" fill="#0E0E6E"/>
<path d="M40.6406 30.0469L41.0156 30.4219L40.6406 30.0469Z" fill="#A4A43D"/>
<path d="M41.2109 30.0469L41.3984 30.2344L41.2109 30.0469Z" fill="#34BE9E"/>
<path d="M49.7734 30.0469L49.9609 30.2344L49.7734 30.0469Z" fill="#96B247"/>
<path d="M50.3438 30.0469L50.5312 30.2344L50.3438 30.0469Z" fill="#53527C"/>
<path d="M40.6406 30.2422L40.8281 30.4297L40.6406 30.2422Z" fill="#3A3A7C"/>
<path d="M41.2109 30.2422L41.3984 30.4297L41.2109 30.2422Z" fill="#A2B23D"/>
<path d="M41.3984 30.2422L41.5859 30.4297L41.3984 30.2422Z" fill="#0DC9C1"/>
<path d="M49.5859 30.2422L49.7734 30.4297L49.5859 30.2422Z" fill="#5BB47C"/>
<path d="M50.1562 30.2422L50.3438 30.4297L50.1562 30.2422Z" fill="#8D8D5B"/>
<path d="M40.8281 30.4297L41.0156 30.6172L40.8281 30.4297Z" fill="#737370"/>
<path d="M41.3984 30.4297L41.5859 30.6172L41.3984 30.4297Z" fill="#74B166"/>
<path d="M49.3984 30.4297L49.5859 30.6172L49.3984 30.4297Z" fill="#27C2AA"/>
<path d="M49.9688 30.4297L49.7812 30.8047L49.9688 30.4297Z" fill="#A4A43D"/>
<path d="M50.1562 30.4297L50.3438 30.6172L50.1562 30.4297Z" fill="#262678"/>
<path d="M40.8281 30.6172L41.0156 30.8047L40.8281 30.6172Z" fill="#0E0E6E"/>
<path d="M41.0234 30.6172L41.3984 30.9922L41.0234 30.6172Z" fill="#A4A43D"/>
<path d="M41.5938 30.6172L41.7812 30.8047L41.5938 30.6172Z" fill="#42BB92"/>
<path d="M49.2109 30.6172L49.3984 30.8047L49.2109 30.6172Z" fill="#0DC9C1"/>
<path d="M49.3984 30.6172L49.5859 30.8047L49.3984 30.6172Z" fill="#96B247"/>
<path d="M49.9688 30.6172L50.1562 30.8047L49.9688 30.6172Z" fill="#58587B"/>
<path d="M41.0234 30.8047L41.2109 30.9922L41.0234 30.8047Z" fill="#3A3A7C"/>
<path d="M41.5938 30.8047L41.7812 30.9922L41.5938 30.8047Z" fill="#ADB333"/>
<path d="M41.7812 30.8047L41.9688 30.9922L41.7812 30.8047Z" fill="#27C2AA"/>
<path d="M49.2109 30.8047L49.3984 30.9922L49.2109 30.8047Z" fill="#74B166"/>
<path d="M49.7734 30.8047L49.9609 30.9922L49.7734 30.8047Z" fill="#8D8D5B"/>
<path d="M41.2109 30.9922L41.3984 31.1797L41.2109 30.9922Z" fill="#6E6C70"/>
<path d="M41.7812 30.9922L41.9688 31.1797L41.7812 30.9922Z" fill="#96B247"/>
<path d="M41.9688 30.9922L42.1562 31.1797L41.9688 30.9922Z" fill="#0DC9C1"/>
<path d="M49.0234 30.9922L49.2109 31.1797L49.0234 30.9922Z" fill="#42BB92"/>
<path d="M49.5859 30.9922L49.2109 31.5547L49.5859 30.9922Z" fill="#A4A43D"/>
<path d="M49.7734 30.9922L49.9609 31.1797L49.7734 30.9922Z" fill="#1B1B74"/>
<path d="M41.2109 31.1797L41.3984 31.3672L41.2109 31.1797Z" fill="#0E0E6E"/>
<path d="M41.3984 31.1797L41.5859 31.3672L41.3984 31.1797Z" fill="#8D8D5B"/>
<path d="M41.9688 31.1797L42.1562 31.3672L41.9688 31.1797Z" fill="#7FB15C"/>
<path d="M48.8359 31.1797L49.0234 31.3672L48.8359 31.1797Z" fill="#34BE9E"/>
<path d="M49.5859 31.1797L49.7734 31.3672L49.5859 31.1797Z" fill="#3A3A7C"/>
<path d="M41.3984 31.3789L41.5859 31.5664L41.3984 31.3789Z" fill="#1B1B74"/>
<path d="M41.5938 31.3789L43.6844 33.4695L41.5938 31.3789Z" fill="#A4A43D"/>
<path d="M42.1719 31.3789L42.3594 31.5664L42.1719 31.3789Z" fill="#74B166"/>
<path d="M48.6406 31.3789L48.8281 31.5664L48.6406 31.3789Z" fill="#27C2AA"/>
<path d="M48.8359 31.3789L49.0234 31.5664L48.8359 31.3789Z" fill="#ADB333"/>
<path d="M49.3984 31.3789L49.5859 31.5664L49.3984 31.3789Z" fill="#666677"/>
<path d="M41.5938 31.5664L41.7812 31.7539L41.5938 31.5664Z" fill="#32327B"/>
<path d="M42.3594 31.5664L42.5469 31.7539L42.3594 31.5664Z" fill="#42BB92"/>
<path d="M48.4484 31.5641L47.6797 32.5203L48.4578 31.5547L48.4484 31.5641Z" fill="#0DC9C1"/>
<path d="M48.6406 31.5664L48.8281 31.7539L48.6406 31.5664Z" fill="#ADB333"/>
<path d="M49.2109 31.5664L49.3984 31.7539L49.2109 31.5664Z" fill="#737370"/>
<path d="M41.7812 31.7617L41.9688 31.9492L41.7812 31.7617Z" fill="#49497D"/>
<path d="M42.5547 31.7617L42.7422 31.9492L42.5547 31.7617Z" fill="#42BB92"/>
<path d="M48.4531 31.7617L48.6406 31.9492L48.4531 31.7617Z" fill="#96B247"/>
<path d="M49.0234 31.7617L48.8359 32.1367L49.0234 31.7617Z" fill="#8D8D5B"/>
<path d="M49.2109 31.7617L49.3984 31.9492L49.2109 31.7617Z" fill="#0E0E6E"/>
<path d="M41.9688 31.9492L42.1562 32.1367L41.9688 31.9492Z" fill="#53527C"/>
<path d="M42.7422 31.9492L42.9297 32.1367L42.7422 31.9492Z" fill="#42BB92"/>
<path d="M48.25 31.9492L48.4375 32.1367L48.25 31.9492Z" fill="#96B247"/>
<path d="M49.0234 31.9492L49.2109 32.1367L49.0234 31.9492Z" fill="#0E0E6E"/>
<path d="M42.1719 32.1367L42.3594 32.3242L42.1719 32.1367Z" fill="#6E6C70"/>
<path d="M42.9297 32.1367L43.1172 32.3242L42.9297 32.1367Z" fill="#42BB92"/>
<path d="M48.0625 32.1367L48.25 32.3242L48.0625 32.1367Z" fill="#96B247"/>
<path d="M48.6406 32.1367L48.2656 32.6992L48.6406 32.1367Z" fill="#A4A43D"/>
<path d="M48.8359 32.1367L49.0234 32.3242L48.8359 32.1367Z" fill="#262678"/>
<path d="M42.3594 32.3359L42.5469 32.5234L42.3594 32.3359Z" fill="#6E6C70"/>
<path d="M43.1172 32.3359L43.3047 32.5234L43.1172 32.3359Z" fill="#42BB92"/>
<path d="M47.875 32.3359L48.0625 32.5234L47.875 32.3359Z" fill="#96B247"/>
<path d="M48.6406 32.3359L48.8281 32.5234L48.6406 32.3359Z" fill="#262678"/>
<path d="M42.5547 32.5234L42.7422 32.7109L42.5547 32.5234Z" fill="#6E6C70"/>
<path d="M43.3047 32.5234L43.4922 32.7109L43.3047 32.5234Z" fill="#68B070"/>
<path d="M47.4922 32.5234L47.6797 32.7109L47.4922 32.5234Z" fill="#27C2AA"/>
<path d="M47.6797 32.5234L47.8672 32.7109L47.6797 32.5234Z" fill="#ADB333"/>
<path d="M48.4531 32.5234L48.6406 32.7109L48.4531 32.5234Z" fill="#262678"/>
<path d="M42.7422 32.7109L42.9297 32.8984L42.7422 32.7109Z" fill="#666677"/>
<path d="M43.4922 32.7109L43.6797 32.8984L43.4922 32.7109Z" fill="#74B166"/>
<path d="M47.3047 32.7109L47.4922 32.8984L47.3047 32.7109Z" fill="#34BE9E"/>
<path d="M47.4922 32.7109L47.6797 32.8984L47.4922 32.7109Z" fill="#ADB333"/>
<path d="M48.0625 32.7109L47.875 33.0859L48.0625 32.7109Z" fill="#8D8D5B"/>
<path d="M48.25 32.7109L48.4375 32.8984L48.25 32.7109Z" fill="#262678"/>
<path d="M42.9297 32.8984L43.1172 33.0859L42.9297 32.8984Z" fill="#49497D"/>
<path d="M43.6875 32.8984L43.875 33.0859L43.6875 32.8984Z" fill="#96B247"/>
<path d="M43.875 32.8984L44.0625 33.0859L43.875 32.8984Z" fill="#0DC9C1"/>
<path d="M47.1094 32.8984L47.2969 33.0859L47.1094 32.8984Z" fill="#42BB92"/>
<path d="M48.0625 32.8984L48.25 33.0859L48.0625 32.8984Z" fill="#0E0E6E"/>
<path d="M43.1172 33.0938L43.3047 33.2812L43.1172 33.0938Z" fill="#49497D"/>
<path d="M43.875 33.0938L44.0625 33.2812L43.875 33.0938Z" fill="#A2B23D"/>
<path d="M44.0625 33.0938L44.25 33.2812L44.0625 33.0938Z" fill="#27C2AA"/>
<path d="M46.9219 33.0938L47.1094 33.2812L46.9219 33.0938Z" fill="#74B166"/>
<path d="M47.4922 33.0938L46.9297 33.8438L47.4922 33.0938Z" fill="#A4A43D"/>
<path d="M47.6797 33.0938L47.8672 33.2812L47.6797 33.0938Z" fill="#808067"/>
<path d="M47.875 33.0938L48.0625 33.2812L47.875 33.0938Z" fill="#0E0E6E"/>
<path d="M43.3047 33.2812L43.4922 33.4688L43.3047 33.2812Z" fill="#262678"/>
<path d="M44.0625 33.2812L44.25 33.4688L44.0625 33.2812Z" fill="#ADB333"/>
<path d="M44.25 33.2812L44.4375 33.4688L44.25 33.2812Z" fill="#42BB92"/>
<path d="M46.5469 33.2812L46.7344 33.4688L46.5469 33.2812Z" fill="#0DC9C1"/>
<path d="M46.7344 33.2812L46.9219 33.4688L46.7344 33.2812Z" fill="#96B247"/>
<path d="M47.4922 33.2812L47.6797 33.4688L47.4922 33.2812Z" fill="#6E6C70"/>
<path d="M43.4922 33.4688L43.6797 33.6562L43.4922 33.4688Z" fill="#1B1B74"/>
<path d="M43.6875 33.4688L43.875 33.6562L43.6875 33.4688Z" fill="#8D8D5B"/>
<path d="M44.4375 33.4688L44.625 33.6562L44.4375 33.4688Z" fill="#74B166"/>
<path d="M44.6406 33.4688L44.8281 33.6562L44.6406 33.4688Z" fill="#0DC9C1"/>
<path d="M46.3516 33.4688L46.5391 33.6562L46.3516 33.4688Z" fill="#34BE9E"/>
<path d="M46.5469 33.4688L46.7344 33.6562L46.5469 33.4688Z" fill="#ADB333"/>
<path d="M47.3047 33.4688L47.4922 33.6562L47.3047 33.4688Z" fill="#49497D"/>
<path d="M43.6875 33.6562L43.875 33.8438L43.6875 33.6562Z" fill="#0E0E6E"/>
<path d="M43.875 33.6562L44.0625 33.8438L43.875 33.6562Z" fill="#6E6C70"/>
<path d="M44.0625 33.6562L44.4375 34.0312L44.0625 33.6562Z" fill="#A4A43D"/>
<path d="M44.6406 33.6562L44.8281 33.8438L44.6406 33.6562Z" fill="#96B247"/>
<path d="M44.8281 33.6562L45.0156 33.8438L44.8281 33.6562Z" fill="#27C2AA"/>
<path d="M46.1641 33.6562L46.3516 33.8438L46.1641 33.6562Z" fill="#68B070"/>
<path d="M47.1094 33.6562L47.2969 33.8438L47.1094 33.6562Z" fill="#32327B"/>
<path d="M44.0625 33.8438L44.25 34.0312L44.0625 33.8438Z" fill="#49497D"/>
<path d="M45.0156 33.8438L45.2031 34.0312L45.0156 33.8438Z" fill="#5BB47C"/>
<path d="M45.7812 33.8438L45.9688 34.0312L45.7812 33.8438Z" fill="#27C2AA"/>
<path d="M45.9766 33.8438L46.1641 34.0312L45.9766 33.8438Z" fill="#96B247"/>
<path d="M46.5469 33.8438L46.3594 34.2188L46.5469 33.8438Z" fill="#A4A43D"/>
<path d="M46.7344 33.8438L46.9219 34.0312L46.7344 33.8438Z" fill="#808067"/>
<path d="M46.9219 33.8438L47.1094 34.0312L46.9219 33.8438Z" fill="#0E0E6E"/>
<path d="M44.25 34.0312L44.4375 34.2188L44.25 34.0312Z" fill="#262678"/>
<path d="M44.4375 34.0312L44.625 34.2188L44.4375 34.0312Z" fill="#8D8D5B"/>
<path d="M45.2188 34.0312L45.4062 34.2188L45.2188 34.0312Z" fill="#8BB252"/>
<path d="M45.4062 34.0312L45.5938 34.2188L45.4062 34.0312Z" fill="#1AC5B5"/>
<path d="M45.5938 34.0312L45.7812 34.2188L45.5938 34.0312Z" fill="#5BB47C"/>
<path d="M46.5469 34.0312L46.7344 34.2188L46.5469 34.0312Z" fill="#58587B"/>
<path d="M44.4375 34.2383L44.625 34.4258L44.4375 34.2383Z" fill="#0E0E6E"/>
<path d="M44.6406 34.2383L44.8281 34.4258L44.6406 34.2383Z" fill="#666677"/>
<path d="M44.8281 34.2383L45.0156 34.4258L44.8281 34.2383Z" fill="#A4A43D"/>
<path d="M46.1641 34.2383L46.3516 34.4258L46.1641 34.2383Z" fill="#99994E"/>
<path d="M46.3469 34.2383L46.5344 34.4258L46.3469 34.2383ZM44.8281 34.4258L45.0156 34.6133L44.8281 34.4258Z" fill="#32327B"/>
<path d="M45.0156 34.4258L45.2031 34.6133L45.0156 34.4258Z" fill="#99994E"/>
<path d="M45.7812 34.4258L45.9688 34.6133L45.7812 34.4258Z" fill="#A4A43D"/>
<path d="M45.9766 34.4258L46.1641 34.6133L45.9766 34.4258Z" fill="#666677"/>
<path d="M46.1594 34.4258L46.3469 34.6133L46.1594 34.4258ZM45.0156 34.6133L45.2031 34.8008L45.0156 34.6133Z" fill="#0E0E6E"/>
<path d="M45.2188 34.6133L45.4062 34.8008L45.2188 34.6133Z" fill="#666677"/>
<path d="M45.4062 34.6133L45.5938 34.8008L45.4062 34.6133Z" fill="#A4A43D"/>
<path d="M45.5938 34.6133L45.7812 34.8008L45.5938 34.6133Z" fill="#99994E"/>
<path d="M45.7812 34.6133L45.9688 34.8008L45.7812 34.6133Z" fill="#32327B"/>
<path d="M45.4062 34.8008L45.5938 34.9883L45.4062 34.8008Z" fill="#262678"/>
<path d="M45.5938 34.8008L45.7812 34.9883L45.5938 34.8008Z" fill="#0E0E6E"/>
<path d="M45.7806 22.0481C46.0806 22.7419 47.0181 23.5013 47.2806 23.8763C46.9524 24.2513 46.8868 24.2138 46.9243 24.9075C47.4868 24.3075 47.5056 24.2513 47.8806 24.3356C48.6868 25.1419 48.0212 26.8669 47.3556 27.2419C46.6899 27.645 46.8118 27.2325 45.8087 27.7294C46.2681 28.1231 46.8024 27.6731 47.2337 27.795C47.4681 28.0763 47.1212 28.5825 47.2993 29.07C47.6743 29.0325 47.6368 28.2544 47.7306 27.9731C48.0118 26.9419 49.6993 26.2294 49.7837 25.2825C50.1399 25.1231 50.4868 25.2356 50.9087 25.47C50.7024 24.5888 49.9993 24.5981 49.8024 24.3263C49.3524 23.6325 48.9493 22.845 47.9837 22.6388C47.2337 22.4794 47.2993 22.6856 46.8306 22.3575C46.5306 22.1325 45.6399 21.7013 45.7806 22.0481V22.0481Z" fill="#FF9900"/>
<path fill-rule="evenodd" clip-rule="evenodd" d="M47.8953 22.8383C47.8953 22.8793 47.879 22.9187 47.85 22.9477C47.821 22.9767 47.7817 22.993 47.7406 22.993C47.6996 22.993 47.6603 22.9767 47.6312 22.9477C47.6022 22.9187 47.5859 22.8793 47.5859 22.8383C47.5859 22.7973 47.6022 22.7579 47.6312 22.7289C47.6603 22.6999 47.6996 22.6836 47.7406 22.6836C47.7817 22.6836 47.821 22.6999 47.85 22.7289C47.879 22.7579 47.8953 22.7973 47.8953 22.8383V22.8383Z" fill="white"/>
<path d="M43.426 24.9859C43.8947 24.4047 44.1385 23.2047 44.3447 22.8109C44.8322 22.9234 44.8135 22.9984 45.4228 22.6422C44.626 22.4172 44.5603 22.4359 44.4666 22.0703C44.8041 20.9734 46.6416 20.7578 47.2791 21.1703C47.9541 21.5734 47.5322 21.6578 48.4416 22.2953C48.5728 21.7141 47.926 21.4516 47.8322 21.0203C47.9728 20.6734 48.5822 20.7391 48.9197 20.3641C48.7135 20.0359 48.0478 20.4391 47.7572 20.4953C46.726 20.7297 45.2916 19.5766 44.4197 19.9328C44.1103 19.6984 44.0447 19.3328 44.0447 18.8359C43.3791 19.4453 43.7166 20.0547 43.5572 20.3641C43.1635 21.0859 42.6478 21.8172 42.9197 22.7641C43.126 23.4953 43.276 23.3453 43.2197 23.9172C43.1541 24.2828 43.1822 25.2766 43.426 24.9859V24.9859Z" fill="#FF9900"/>
<path fill-rule="evenodd" clip-rule="evenodd" d="M43.1237 22.7431C43.2081 22.7056 43.3018 22.7337 43.3393 22.8087C43.3523 22.8351 43.3572 22.8647 43.3535 22.8939C43.3498 22.9231 43.3375 22.9505 43.3183 22.9728C43.2992 22.9951 43.2738 23.0112 43.2455 23.0192C43.2173 23.0272 43.1872 23.0267 43.1592 23.0178C43.1312 23.0089 43.1064 22.992 43.0879 22.9691C43.0695 22.9462 43.0581 22.9184 43.0554 22.8891C43.0526 22.8598 43.0585 22.8304 43.0723 22.8044C43.0861 22.7785 43.1072 22.7571 43.1331 22.7431H43.1237Z" fill="white"/>
<path d="M47.2765 25.3883C46.5265 25.2945 45.3921 25.6977 44.9328 25.7352C44.7921 25.257 44.8578 25.2195 44.239 24.8914C44.4546 25.6977 44.5015 25.7352 44.239 26.0164C43.1328 26.2883 41.989 24.8258 42.0078 24.0664C42.0078 23.2883 42.3078 23.5977 42.3828 22.4727C41.8203 22.6602 41.9328 23.3633 41.6046 23.6727C41.2296 23.7289 40.9859 23.1758 40.4796 23.082C40.3109 23.4289 40.9953 23.7852 41.1921 24.0102C41.9328 24.7789 41.6796 26.5883 42.439 27.1508C42.4015 27.5445 42.1203 27.7883 41.689 28.032C42.5609 28.3039 42.9078 27.6852 43.2546 27.657C44.0796 27.6383 44.9703 27.6945 45.6453 26.9727C46.1515 26.4102 45.9546 26.3633 46.4703 26.1289C46.8171 25.9977 47.6515 25.4539 47.2765 25.3789V25.3883Z" fill="#FF9900"/>
<path fill-rule="evenodd" clip-rule="evenodd" d="M45.5192 26.8043C45.5019 26.7939 45.4869 26.7801 45.475 26.7638C45.4631 26.7476 45.4545 26.7291 45.4497 26.7095C45.4449 26.69 45.444 26.6696 45.4471 26.6497C45.4502 26.6298 45.4571 26.6106 45.4676 26.5934C45.4781 26.5762 45.4918 26.5612 45.5081 26.5492C45.5244 26.5373 45.5428 26.5287 45.5624 26.5239C45.582 26.5191 45.6023 26.5183 45.6223 26.5213C45.6422 26.5244 45.6613 26.5314 45.6785 26.5418C45.7134 26.563 45.7383 26.5971 45.748 26.6366C45.7577 26.6762 45.7512 26.718 45.7301 26.7528C45.709 26.7876 45.6749 26.8126 45.6353 26.8222C45.5958 26.8319 45.554 26.8255 45.5192 26.8043V26.8043Z" fill="white"/>
<path d="M0 0H30V22.5H0V0Z" fill="#012169"/>
<path d="M3.51562 0L14.9531 8.48438L26.3438 0H30V2.90625L18.75 11.2969L30 19.6406V22.5H26.25L15 14.1094L3.79688 22.5H0V19.6875L11.2031 11.3438L0 3V0H3.51562Z" fill="white"/>
<path d="M19.875 13.1719L30 20.625V22.5L17.2969 13.1719H19.875ZM11.25 14.1094L11.5312 15.75L2.53125 22.5H0L11.25 14.1094ZM30 0V0.140625L18.3281 8.95312L18.4219 6.89062L27.6562 0H30ZM0 0L11.2031 8.25H8.39062L0 1.96875V0Z" fill="#C8102E"/>
<path d="M11.2969 0V22.5H18.7969V0H11.2969ZM0 7.5V15H30V7.5H0Z" fill="white"/>
<path d="M0 9.04688V13.5469H30V9.04688H0ZM12.7969 0V22.5H17.2969V0H12.7969Z" fill="#C8102E"/>
</g>
<defs>
<clipPath id="clip0_4046_9112">
<rect width="60" height="45" fill="white"/>
</clipPath>
</defs>
</svg>
