<svg width="60" height="45" viewBox="0 0 60 45" fill="none" xmlns="http://www.w3.org/2000/svg">
<g clip-path="url(#clip0_4046_9869)">
<path d="M0 0H60V45H0V0Z" fill="#E41E20"/>
<path d="M25.5031 8.74609C25.0719 8.74609 24.35 8.88672 24.3594 9.21484C23.1406 9.01797 23.0187 9.51484 23.0938 9.96484C23.2063 9.78672 23.3469 9.68359 23.4594 9.67422C23.6187 9.64609 23.7875 9.70234 23.9656 9.80547C24.1336 9.91086 24.2853 10.0404 24.4156 10.1898C23.9844 10.293 23.6469 10.2273 23.3094 10.1711C23.1187 10.1304 22.9374 10.0541 22.775 9.94609C22.6344 9.85234 22.5875 9.75859 22.3719 9.54297C22.1188 9.28047 21.8469 9.35547 21.9312 9.75859C22.1281 10.1336 22.4562 10.3023 22.8687 10.3773C23.0656 10.4055 23.3656 10.4711 23.7031 10.4711C24.0406 10.4711 24.4156 10.4242 24.6219 10.4711C24.5 10.5461 24.3594 10.6867 24.0781 10.7336C23.7969 10.7898 23.375 10.5648 23.1125 10.5086C23.1406 10.7242 23.4219 10.9305 23.9656 11.043C24.8656 11.2305 25.6062 11.3805 26.1031 11.6523C26.4961 11.8714 26.843 12.1643 27.125 12.5148C27.5656 13.0305 27.5937 13.4336 27.6125 13.5273C27.7062 14.3523 27.4156 14.8211 26.8719 14.9711C26.6094 15.0367 26.1219 14.9055 25.9531 14.6992C25.7656 14.493 25.6063 14.1367 25.6531 13.5742C25.7 13.368 25.9437 12.7961 25.7375 12.6836C24.76 12.1464 23.7484 11.6735 22.7094 11.268C22.475 11.1742 22.2875 11.493 22.2125 11.6242C21.5203 11.5277 20.8582 11.2783 20.2744 10.8939C19.6906 10.5096 19.1998 10.0001 18.8375 9.40234C18.4437 8.68984 17.7781 9.40234 17.8906 10.0867C18.0687 10.8367 18.6406 11.3805 19.3344 11.7742C20.0375 12.1586 20.9281 12.543 21.8187 12.5242C22.3062 12.618 22.2969 13.2367 21.725 13.3586C20.5906 13.3586 19.6813 13.3398 18.8281 12.5148C18.1812 11.9242 17.825 12.6273 18.0031 13.0211C18.3219 14.2492 20.075 14.5961 21.8469 14.2023C22.5406 14.0898 22.1281 14.8211 21.9406 14.8305C21.1906 15.3648 19.8687 15.8805 18.6969 14.8305C18.1625 14.418 17.7969 14.7555 18.0031 15.3461C18.5187 16.893 20.5062 16.5648 21.8656 15.8148C22.2125 15.618 22.5312 16.068 22.1094 16.4148C20.4125 17.5961 19.5687 17.6148 18.8 17.1648C17.8437 16.7805 17.7687 17.8398 18.3312 18.1961C18.9594 18.5711 20.5625 18.2898 21.7437 17.5398C22.25 17.1648 22.2688 17.7555 21.95 17.9898C20.5531 19.1992 20 19.518 18.5469 19.3211C17.825 19.2648 17.8344 20.1555 18.3969 20.5023C19.175 20.9805 20.6937 20.193 21.8656 19.2086C22.3625 18.9461 22.4469 19.3773 22.2031 19.893C21.6842 20.6273 20.9786 21.2098 20.1594 21.5805C19.5031 21.8336 18.8844 21.7961 18.4437 21.6461C17.9 21.4586 17.8344 22.0211 18.1344 22.5273C18.3125 22.8367 19.0531 22.9305 19.8594 22.6492C20.6656 22.368 21.5281 21.693 22.1187 20.9148C22.6344 20.4555 22.5781 21.0648 22.3344 21.4961C21.1531 23.3711 20.0656 24.0648 18.6312 23.9523C18.0031 23.8398 17.8531 24.3273 18.2562 24.7961C18.9687 25.3773 19.85 25.3586 20.6375 24.7773C21.3219 24.1211 22.6437 22.6773 23.3375 21.9086C23.825 21.5242 23.9844 21.9086 23.8344 22.6961C23.7031 23.1461 23.3844 23.6336 22.4937 23.9711C21.8844 24.318 22.3438 24.7961 22.7938 24.8148C23.0469 24.8148 23.5531 24.5148 23.9469 24.0836C24.4531 23.5023 24.4906 23.118 24.7719 22.218C25.0344 21.7867 25.5125 21.993 25.5125 22.443C25.2781 23.343 25.0906 23.5023 24.6219 23.868C24.1813 24.2898 24.9313 24.4305 25.1844 24.2523C25.9156 23.7648 26.1781 23.1273 26.4219 22.5461C26.6094 22.1336 27.1156 22.3305 26.8719 23.0148C26.3094 24.6461 25.3719 25.2836 23.75 25.6211C23.5906 25.6492 23.4875 25.743 23.5438 25.9305L24.2 26.5867C23.1969 26.8867 22.3812 27.0555 21.3687 27.3367L19.9813 26.418C19.8594 26.118 19.7938 25.6492 19.0625 25.9773C18.575 25.7523 18.3406 25.8367 18.0687 26.0711C18.4625 26.0711 18.6312 26.1836 18.7906 26.3617C18.9969 26.8961 19.4656 26.9523 19.9437 26.8023C20.2531 27.0555 20.4125 27.2617 20.7313 27.5242L19.1656 27.4773C18.6031 26.8867 18.1719 26.9148 17.7781 27.3836C17.4688 27.4305 17.3469 27.4305 17.1406 27.7961C17.4594 27.6648 17.6656 27.6273 17.8062 27.768C18.3969 28.1148 18.7812 28.0398 19.0719 27.768L20.7125 27.8711C20.5062 28.0586 20.225 28.1523 20.0094 28.3211C19.1656 28.0773 18.7156 28.4148 18.5656 29.0992C18.4471 29.3735 18.4081 29.6757 18.4531 29.9711C18.5281 29.6898 18.6687 29.4555 18.9125 29.3148C19.6625 29.5023 19.9437 29.193 19.9906 28.743C20.3656 28.443 20.9094 28.3773 21.275 28.0773C21.7062 28.2086 21.9125 28.293 22.3438 28.4336C22.4938 28.9023 22.8406 29.0805 23.4031 28.9586C24.0594 28.9773 23.9469 29.2586 24.0031 29.4742C24.1906 29.1648 24.1812 28.8555 23.7687 28.5742C23.6187 28.1711 23.2812 27.9836 22.85 28.218C22.4375 28.1055 22.3344 27.9367 21.9219 27.8148C22.9531 27.4867 23.6844 27.4117 24.7156 27.0836L25.4375 27.7211C25.5781 27.8055 25.7094 27.8242 25.7938 27.7211C26.4406 26.7836 26.7312 25.968 27.3219 25.3492C27.5562 25.0867 27.8469 24.7492 28.1656 24.6648C28.325 24.618 28.5219 24.6461 28.6531 24.7867C28.775 24.918 28.8781 25.1711 28.8406 25.5555C28.775 26.0898 28.6437 26.268 28.4937 26.5867C28.3344 26.9148 28.1563 27.1117 27.9594 27.3648C27.5844 27.8617 27.0781 28.1523 26.7781 28.3492C26.1781 28.7336 25.9344 28.5648 25.4656 28.5367C24.8656 28.6023 24.7156 28.893 25.2031 29.2961C25.6531 29.5398 26.0656 29.568 26.4031 29.5023C26.6844 29.4461 27.0219 29.0805 27.2656 28.8836C27.5281 28.5742 27.9781 28.9398 27.6688 29.3055C27.1156 29.9617 26.5719 30.393 25.8875 30.3836C25.1656 30.4773 25.3062 30.8805 25.775 31.0773C26.6375 31.4242 27.4062 30.768 27.8 30.3273C28.1 29.9992 28.3156 29.9898 28.2687 30.5055C27.9594 31.4336 27.5563 31.7898 26.8813 31.8367C26.3375 31.7805 26.3281 32.2117 26.7313 32.493C27.6313 33.1117 28.2875 32.043 28.5969 31.4055C28.8125 30.8242 29.15 31.0961 29.1875 31.5742C29.1875 32.2211 28.9062 32.7367 28.1281 33.393C28.7187 34.3398 29.4125 35.3055 30.0031 36.2523L31.8031 16.1898L30.0031 13.0305C29.8156 12.8617 29.1781 12.1117 29.0187 11.9992C28.9531 11.943 28.925 11.9055 29.0094 11.868C29.0937 11.8305 29.2906 11.793 29.4312 11.7742C29.0562 11.3898 28.7188 11.268 27.9969 11.0617C28.175 10.9867 28.3437 11.0242 28.8687 11.0055C28.5466 10.5726 28.1075 10.2409 27.6031 10.0492C27.9969 9.76797 28.0719 9.74922 28.4656 9.42109C27.8446 9.37311 27.2311 9.25357 26.6375 9.06484C26.283 8.89637 25.9027 8.78863 25.5125 8.74609H25.5031ZM25.5781 9.53359C25.9344 9.53359 26.15 9.65547 26.15 9.80547C26.15 9.95547 25.9344 10.0773 25.5781 10.0773C25.2219 10.0773 24.9969 9.93672 24.9969 9.79609C24.9969 9.64609 25.2219 9.53359 25.5781 9.53359V9.53359Z" fill="black"/>
</g>
<defs>
<clipPath id="clip0_4046_9869">
<rect width="60" height="45" fill="white"/>
</clipPath>
</defs>
</svg>
