<svg width="60" height="45" viewBox="0 0 60 45" fill="none" xmlns="http://www.w3.org/2000/svg">
<g clip-path="url(#clip0_4046_9876)">
<path fill-rule="evenodd" clip-rule="evenodd" d="M0 0H60V22.8375H0V0Z" fill="#FF0000"/>
<path fill-rule="evenodd" clip-rule="evenodd" d="M0 22.1641H60V45.0016H0V22.1641Z" fill="black"/>
<path fill-rule="evenodd" clip-rule="evenodd" d="M21.4391 13.8922C36.9266 17.9516 26.9703 37.8547 14.7547 29.5672L13.9297 30.8422C21.1203 35.9609 28.2359 31.8359 30.2422 26.4922C32.3234 20.9797 29.5297 13.2266 21.5609 12.4297L21.4391 13.8922V13.8922Z" fill="#FFEC00"/>
<path fill-rule="evenodd" clip-rule="evenodd" d="M15.9406 31.0125L17.975 31.9594L17.0187 34.0031L14.9844 33.0469L15.9406 31.0125ZM29.9094 21.6844H32.1594V23.9344H29.9094V21.6844ZM28.8125 18.0375L30.9031 17.2313L31.7187 19.3219L29.6281 20.1375L28.8125 18.0375ZM26.375 15.3094L27.9781 13.725L29.5625 15.3187L27.9687 16.9031L26.375 15.3094ZM23.9188 11.5781L26.0187 12.3656L25.2219 14.4656L23.1219 13.6781L23.9188 11.5781ZM29.6281 25.3125L31.7187 26.1469L30.875 28.2281L28.7938 27.3938L29.6281 25.3125ZM23.075 31.875L25.1375 31.0031L26.0281 33.0656L23.9656 33.9469L23.075 31.875ZM19.3719 32.1375H21.6219V34.3875H19.3719V32.1375ZM23.2437 21.2625L21.3406 19.8563L19.4375 21.225L20.1875 19.0687L18.2844 17.6625H20.5812L21.3781 15.5438L22.1094 17.6719L24.425 17.6437L22.5875 19.0781L23.2437 21.2719V21.2625Z" fill="#FFEC00"/>
<path fill-rule="evenodd" clip-rule="evenodd" d="M31.5031 32.4766C31.3906 32.5141 30.9219 33.6391 30.5938 34.1828L30.9406 34.2766C32.2156 34.7266 32.8531 35.1391 33.3969 35.9172C33.5226 36.0397 33.6878 36.1135 33.863 36.1255C34.0381 36.1376 34.2118 36.087 34.3531 35.9828C34.3531 35.9828 34.6156 35.8891 34.9531 35.5141C35.2344 35.0922 35.1594 34.7641 34.8219 34.4734C33.7906 33.7234 32.675 33.1609 31.5031 32.4766V32.4766Z" fill="#FFEE00"/>
<path fill-rule="evenodd" clip-rule="evenodd" d="M34.2437 34.9484C34.2437 35.0566 34.2008 35.1603 34.1243 35.2368C34.0478 35.3133 33.9441 35.3562 33.8359 35.3562C33.7278 35.3562 33.624 35.3133 33.5476 35.2368C33.4711 35.1603 33.4281 35.0566 33.4281 34.9484C33.4281 34.8415 33.4706 34.739 33.5462 34.6634C33.6218 34.5878 33.7243 34.5453 33.8312 34.5453C33.9382 34.5453 34.0407 34.5878 34.1163 34.6634C34.1919 34.739 34.2344 34.8415 34.2344 34.9484H34.2437ZM32.2375 33.6734C32.2375 33.7816 32.1945 33.8853 32.1181 33.9618C32.0416 34.0383 31.9378 34.0812 31.8297 34.0812C31.7215 34.0812 31.6178 34.0383 31.5413 33.9618C31.4648 33.8853 31.4219 33.7816 31.4219 33.6734C31.4219 33.5653 31.4648 33.4615 31.5413 33.3851C31.6178 33.3086 31.7215 33.2656 31.8297 33.2656C31.9378 33.2656 32.0416 33.3086 32.1181 33.3851C32.1945 33.4615 32.2375 33.5653 32.2375 33.6734ZM33.2594 34.3297C33.2594 34.4378 33.2164 34.5416 33.1399 34.6181C33.0634 34.6945 32.9597 34.7375 32.8516 34.7375C32.7434 34.7375 32.6397 34.6945 32.5632 34.6181C32.4867 34.5416 32.4437 34.4378 32.4437 34.3297C32.4437 34.2215 32.4867 34.1178 32.5632 34.0413C32.6397 33.9648 32.7434 33.9219 32.8516 33.9219C32.9597 33.9219 33.0634 33.9648 33.1399 34.0413C33.2164 34.1178 33.2594 34.2215 33.2594 34.3297V34.3297Z" fill="black"/>
<path fill-rule="evenodd" clip-rule="evenodd" d="M30.4227 34.0984C26.429 31.8203 22.2383 29.3641 18.2352 27.0859C16.4821 25.9891 16.3977 23.9547 17.579 22.4078C17.6915 22.1922 17.8415 22.2391 17.8977 22.3609C18.0383 23.1109 18.4602 23.8891 18.9665 24.3766C23.1216 26.9903 27.2377 29.6656 31.3133 32.4016C30.9946 32.9453 30.7508 33.5547 30.4227 34.0891V34.0984Z" fill="#FFEE00"/>
<path fill-rule="evenodd" clip-rule="evenodd" d="M27.8594 28.6406L29.5281 30.1406L28.0281 31.8094L26.3594 30.3094L27.8594 28.6406Z" fill="#FFEC00"/>
<path fill-rule="evenodd" clip-rule="evenodd" d="M19.4345 25.5L31.1532 32.5781L31.0078 32.8189L19.2891 25.7407L19.4345 25.5ZM25.7664 28.3899L29.7133 30.9493L29.5603 31.1852L25.6134 28.6259L25.7664 28.3899ZM23.4446 30.0643L27.4665 32.3893L27.3258 32.6327L23.3039 30.3077L23.4446 30.0643Z" fill="black"/>
</g>
<defs>
<clipPath id="clip0_4046_9876">
<rect width="60" height="45" fill="white"/>
</clipPath>
</defs>
</svg>
