<svg width="60" height="45" viewBox="0 0 60 45" fill="none" xmlns="http://www.w3.org/2000/svg">
<g clip-path="url(#clip0_4046_9887)">
<path d="M0 0H60V45H0V0Z" fill="#3A7DCE"/>
<path d="M14.7828 21.6384C14.4547 20.9071 14.4547 20.9071 14.4547 20.1759C14.2859 20.1759 14.2672 20.204 14.1734 20.1759C14.0703 20.1477 14.0328 20.8509 13.7234 20.7196C13.6766 20.6446 13.9484 20.1384 13.6578 19.9227C13.5641 19.8571 13.6766 19.4352 13.6391 19.2477C13.6391 19.2477 13.2641 19.4727 12.9828 18.704C12.8422 18.4977 12.6547 18.8915 12.6547 18.8915C12.6547 18.8915 12.7391 19.1165 12.5891 19.1727C12.3828 19.004 12.2234 19.0977 11.9609 18.854C11.6984 18.6196 12.0172 18.3477 11.5109 18.1509C11.8391 17.2321 11.8391 17.4102 12.6547 17.0446C12.1672 16.6696 12.1672 16.6696 11.8391 16.1259C11.3516 15.9384 11.1828 15.7509 10.6953 15.3946C10.0391 14.4665 9.71094 12.629 9.71094 11.3446C10.1234 10.9134 10.6953 12.8165 11.5109 13.3696L12.6547 13.9227C13.3109 14.2884 13.4703 14.654 13.9672 15.0196L15.4297 15.5821C16.0859 16.1259 16.4141 16.8571 16.9016 17.0446C17.4359 17.0446 17.5391 16.6977 17.7078 16.679C18.6734 16.6227 19.1609 16.4915 19.3484 16.1634C19.5453 15.9009 20.0047 16.3134 21.3172 15.7602L21.1578 15.0196C21.1578 15.0196 21.5047 14.7009 21.9734 14.8321C21.9641 14.504 21.9266 13.6134 22.3953 13.2009C22.1141 12.8727 22.5641 12.3571 22.5828 12.1977C22.4516 11.3915 22.7141 11.3821 22.7703 11.1384C22.8266 10.904 22.5453 10.979 22.6203 10.6509C22.7047 10.3227 23.1828 10.2477 23.2391 9.97585C23.3047 9.70398 23.1359 8.63523 23.1172 8.40085C23.9984 8.13835 24.2797 7.3321 24.5891 7.6696C24.7484 6.56335 24.9172 6.18835 25.9016 6.18835C26.0328 5.85085 25.5359 5.56023 25.7328 5.44773C26.0609 5.40085 26.3047 5.42898 26.6891 5.9821C26.8109 6.1696 26.8391 5.72898 26.9609 5.6821C27.0828 5.63523 27.3734 5.63523 27.4203 5.4196C27.4672 5.1946 27.5328 4.8946 27.7016 4.52898C27.8328 4.22898 27.9359 4.65085 28.0578 5.2321C28.7516 5.26023 30.3078 5.42898 30.9641 5.63523C31.4516 5.77585 31.7797 5.4946 32.2484 5.42898C32.5953 5.82273 32.9234 5.52273 33.1109 6.36648C33.3641 6.81648 33.7953 6.40398 33.8891 6.53523C34.4328 8.2321 36.3078 7.08835 36.4578 7.11648C36.6922 7.11648 36.9828 7.86648 37.1797 7.8571C37.4797 7.80085 37.3953 7.56648 37.6672 7.66023C37.5922 8.29773 38.1922 9.02898 38.1922 9.5071C38.1922 9.5071 38.3328 9.59148 38.4734 9.45085C38.6047 9.30085 38.7266 8.9446 38.8484 8.95398C39.1297 9.00085 40.9109 9.51648 41.2672 9.6946C41.4266 10.0227 41.5766 10.1915 41.9047 10.1352C42.1672 10.3321 41.9797 10.604 42.1297 10.6134C42.4578 10.4259 42.5703 10.2384 42.8984 10.4165C43.2266 10.604 43.5547 10.9696 43.7141 11.3352C43.7141 11.5227 43.5453 12.254 43.7141 13.3602C43.7984 13.7259 44.6234 16.3884 44.6234 16.6602C44.6234 17.0352 44.3703 17.2227 44.2016 17.5884C44.8578 18.1415 44.2016 19.0602 43.8734 19.6134C46.3297 20.1665 45.1859 21.2634 47.1453 20.7102C46.6578 22.004 46.8266 21.9009 47.3141 23.1852C46.3391 23.9165 47.2953 24.1415 46.6484 25.0602C46.6016 25.1259 47.0328 25.8665 47.6328 25.8665C47.4734 27.329 46.9766 26.7852 47.1453 28.9884C45.8609 28.9602 46.3766 30.6384 45.5141 30.4602C45.5609 31.5102 46.0016 31.604 45.8328 32.6634C45.1766 32.8509 45.1766 32.8509 44.8578 33.404L44.3703 33.2165C44.2016 34.1352 43.8734 34.3227 44.3703 35.2415C44.3703 35.2415 43.7328 35.2602 43.5453 35.2415C43.5359 35.5602 43.8266 35.6446 43.8734 35.9727C43.8547 36.104 42.9453 36.6852 42.2422 36.7134C42.0547 37.1634 42.7297 37.6509 42.6922 37.8759C41.9234 38.0446 41.5859 39.0946 41.5859 39.0946C41.5859 39.0946 41.9797 39.2821 41.9141 39.4696C41.7078 39.3009 41.5859 39.2821 41.2578 39.2821C41.0984 39.329 40.6953 39.2821 40.3203 40.004C39.8984 40.154 39.7016 40.0977 39.3828 40.5665C39.2422 40.1259 39.0359 40.5759 38.7922 40.754C38.5391 40.9227 38.2109 41.3634 38.1641 41.3446C38.1734 41.2134 38.3141 40.754 38.3141 40.754L37.4047 40.9696C37.3391 40.979 37.3578 40.4352 37.1984 40.454C37.0391 40.4727 36.5984 41.1384 36.4484 41.1571C36.2984 41.1759 36.2516 40.9509 36.1203 40.9696C35.9891 40.9884 35.7453 41.6727 35.6516 41.6915C35.5578 41.7009 35.1828 41.2696 34.8734 41.3352C33.2703 41.9727 33.0078 40.079 32.7641 41.1477C32.4266 40.9415 32.4828 41.054 32.1359 41.1571C31.9203 41.2227 31.9016 40.8384 31.7047 40.8384C31.3203 40.8571 31.3297 41.2696 31.1234 41.1477C30.9547 40.2852 29.9047 40.4352 29.8109 40.0696C29.7172 39.6946 30.2609 39.6946 30.4297 39.4321C30.5609 39.0571 30.2891 38.9071 30.8328 38.5509C31.5359 38.0165 31.4703 36.6946 31.2922 36.179C31.2922 36.179 30.7391 34.5196 30.6359 34.5196C30.3078 34.4259 30.3078 35.129 29.8297 35.3259C28.8453 35.7009 27.1109 34.3977 26.8109 34.3977C26.5391 34.3977 25.2641 34.7352 25.3109 34.0227C25.1234 34.7165 24.4203 34.1821 24.3734 34.1821C23.7172 34.1821 23.9703 34.754 23.5297 34.7352C23.3328 34.6602 21.3172 34.5196 21.3172 34.5196V34.8946L18.8703 33.7884C17.8859 33.4134 18.3734 32.504 16.7422 33.0571V31.9509H15.9266C16.2547 29.7384 15.9266 30.8446 15.7578 28.8196L15.1016 29.0071C14.4453 28.0134 16.0203 28.2009 14.6141 27.5352C14.6141 27.5352 14.6422 26.4384 14.2859 26.804C14.2203 26.8509 14.4547 27.3477 14.4547 27.3477C13.1422 27.1602 12.8234 26.804 12.8234 25.3321C12.8234 25.3321 13.8922 25.5009 13.7984 25.3321C13.6484 25.0509 13.4516 23.2696 13.4797 23.1384C13.4703 22.8946 14.4828 22.2946 14.2859 21.7134C14.4172 21.6571 14.7828 21.6477 14.7828 21.6477" fill="white"/>
<path fill-rule="evenodd" clip-rule="evenodd" d="M9.5903 12.758C9.59846 12.758 9.6061 12.7581 9.613 12.7581C9.67205 12.7581 9.71992 12.806 9.71992 12.865C9.71992 12.9056 9.69796 12.9313 9.69 12.9396C9.6806 12.9495 9.67137 12.9555 9.66749 12.9579C9.65925 12.963 9.65138 12.9664 9.64858 12.9676L9.64852 12.9676C9.64531 12.969 9.63869 12.9717 9.63355 12.9738C9.63097 12.9749 9.62877 12.9757 9.62755 12.9763C9.61413 12.9818 9.59746 12.9894 9.57927 13.0009C9.5438 13.0232 9.49984 13.0619 9.46953 13.1335C9.4517 13.1756 9.40905 13.2018 9.36343 13.1985C9.31781 13.1952 9.27932 13.1633 9.26767 13.1191C9.24927 13.0492 9.24326 12.9834 9.25923 12.9249C9.27679 12.8606 9.31772 12.8168 9.36805 12.7912C9.41335 12.7683 9.46282 12.7617 9.50164 12.7593C9.53121 12.7575 9.56352 12.7577 9.5903 12.758ZM9.56308 12.7716C9.56381 12.7713 9.56396 12.7712 9.5633 12.7715C9.56323 12.7715 9.56315 12.7716 9.56308 12.7716ZM9.65295 13.3399C9.653 13.3399 9.65305 13.3399 9.63719 13.4457L9.65305 13.3399C9.69186 13.3458 9.72435 13.3724 9.73772 13.4093C9.75108 13.4461 9.74317 13.4874 9.71711 13.5167C9.70401 13.5314 9.6896 13.5393 9.68633 13.5411C9.68622 13.5411 9.68612 13.5412 9.68603 13.5412C9.68095 13.544 9.67618 13.5462 9.67397 13.5472C9.67134 13.5484 9.66952 13.5492 9.66797 13.5499C9.66563 13.5509 9.66388 13.5517 9.66081 13.5532C9.65334 13.5567 9.64369 13.5619 9.63234 13.5705C9.61032 13.5872 9.57485 13.6224 9.54135 13.6978C9.52242 13.7404 9.47807 13.7658 9.43174 13.7606C9.38541 13.7554 9.34779 13.7208 9.33875 13.6751C9.32359 13.5983 9.32824 13.5285 9.35828 13.4697C9.38881 13.41 9.43802 13.3765 9.48292 13.3587C9.52639 13.3415 9.56911 13.3375 9.59807 13.3369C9.61312 13.3366 9.62593 13.3373 9.63529 13.338C9.64 13.3384 9.64393 13.3388 9.64692 13.3391C9.64841 13.3393 9.64968 13.3395 9.65071 13.3396L9.65207 13.3398L9.65261 13.3399L9.65284 13.3399L9.65295 13.3399ZM10.8932 16.2073C10.9156 16.2644 10.9181 16.3311 10.9034 16.4059C10.8943 16.4516 10.8567 16.4863 10.8104 16.4914C10.7641 16.4966 10.7197 16.4712 10.7008 16.4286C10.6649 16.3479 10.6309 16.3034 10.6089 16.2795C10.5978 16.2675 10.5888 16.2596 10.5817 16.2535C10.5814 16.2532 10.5809 16.2528 10.5804 16.2524C10.5774 16.2498 10.5718 16.2451 10.5677 16.2413C10.5652 16.239 10.559 16.2331 10.5528 16.2248L10.5527 16.2247C10.5487 16.2194 10.5303 16.195 10.5303 16.1584C10.5303 16.1029 10.5727 16.0566 10.628 16.0519L10.6372 16.1584C10.628 16.0519 10.628 16.0518 10.6281 16.0518L10.6282 16.0518L10.6285 16.0518L10.6291 16.0518L10.6305 16.0517C10.6316 16.0516 10.6329 16.0515 10.6344 16.0514C10.6374 16.0513 10.6412 16.0512 10.6458 16.0512C10.6548 16.0511 10.6669 16.0515 10.6811 16.0531C10.7086 16.0562 10.7486 16.0643 10.7884 16.0867C10.83 16.1101 10.8702 16.1486 10.8932 16.2073ZM47.9251 26.9595C47.9416 26.9194 47.9807 26.8932 48.0241 26.8932H48.0321C48.0851 26.8932 48.1301 26.932 48.1379 26.9844C48.1405 27.002 48.1455 27.019 48.1531 27.0423L48.1552 27.0487C48.162 27.0694 48.1711 27.0972 48.1766 27.1268C48.1907 27.2026 48.1808 27.2827 48.1248 27.38C48.1054 27.4137 48.0693 27.4342 48.0304 27.4336C47.9915 27.433 47.9561 27.4113 47.9378 27.377C47.8734 27.2563 47.8655 27.1048 47.9251 26.9595Z" fill="white"/>
</g>
<defs>
<clipPath id="clip0_4046_9887">
<rect width="60" height="45" fill="white"/>
</clipPath>
</defs>
</svg>
