<svg width="60" height="45" viewBox="0 0 60 45" fill="none" xmlns="http://www.w3.org/2000/svg">
<g clip-path="url(#clip0_4046_9891)">
<path d="M0 0H60V45H0V0Z" fill="#74ACDF"/>
<path d="M0 15H60V30H0V15Z" fill="white"/>
<path d="M29.7109 22.6141L32.2759 28.1941C32.2759 28.1941 32.3209 28.3021 32.3929 28.2751C32.4649 28.2391 32.4199 28.1311 32.4199 28.1311L30.2869 22.3711M30.2239 24.5491C30.1879 25.3951 30.7099 25.8631 30.6469 26.6191C30.5749 27.3841 30.9889 27.8071 31.0969 28.1041C31.1869 28.4011 30.9889 28.5721 31.0699 28.6171C31.1599 28.6621 31.3399 28.4281 31.2859 28.0051C31.2229 27.5911 30.9079 27.4651 30.9799 26.5381C31.0519 25.6111 30.6019 25.3951 30.7099 24.5581" fill="#F6B40E"/>
<path fill-rule="evenodd" clip-rule="evenodd" d="M32.4642 28.1148L30.3315 22.3555L30.2386 22.3898L32.372 28.1508L32.3723 28.1515L32.3723 28.1516L32.3723 28.1517L32.3724 28.1519C32.3726 28.1523 32.3729 28.1531 32.3733 28.1542C32.374 28.1563 32.3752 28.1597 32.3764 28.1639C32.3789 28.1724 32.3814 28.1835 32.3822 28.1947C32.3837 28.2168 32.3788 28.2262 32.3713 28.231C32.3656 28.2323 32.3573 28.2306 32.3431 28.2141C32.3359 28.2057 32.3299 28.1961 32.3256 28.1882C32.3234 28.1844 32.3219 28.1812 32.3209 28.1791C32.3205 28.1783 32.3202 28.1776 32.32 28.1772L32.3198 28.1768L32.3197 28.1766L32.3197 28.1765L32.3194 28.1758L30.742 24.7443C30.7441 24.6881 30.749 24.6288 30.7571 24.566L30.6589 24.5533C30.6586 24.556 30.6583 24.5587 30.6579 24.5614L29.754 22.595L29.6641 22.6363L30.6423 24.7645C30.6344 25.0782 30.7078 25.3034 30.7825 25.5313L30.7835 25.5345C30.8727 25.8065 30.9638 26.0842 30.9287 26.5358C30.8922 27.006 30.9537 27.2768 31.0343 27.4835C31.0601 27.5498 31.0886 27.6109 31.1152 27.6679C31.1289 27.6973 31.1421 27.7257 31.1542 27.7531C31.1905 27.8355 31.2202 27.9163 31.235 28.0135C31.2609 28.2171 31.23 28.3714 31.1852 28.4672C31.1626 28.5155 31.1376 28.5464 31.117 28.5624C31.1095 28.5682 31.1033 28.5714 31.0989 28.5731C31.0989 28.5726 31.099 28.5721 31.0992 28.5716C31.1013 28.5614 31.1054 28.5485 31.1115 28.5311C31.1132 28.5262 31.115 28.521 31.117 28.5154C31.1217 28.5022 31.1269 28.4875 31.1319 28.4721C31.1616 28.3819 31.1916 28.2535 31.1424 28.0913L31.142 28.09L31.1416 28.0887C31.1129 28.0098 31.0644 27.9239 31.0121 27.8315L31.0082 27.8246C30.9562 27.7328 30.8993 27.6323 30.8476 27.5182C30.7422 27.2855 30.6593 26.9972 30.6943 26.6253L30.6944 26.6248C30.7266 26.2375 30.6098 25.9236 30.493 25.6099L30.4901 25.6021C30.3719 25.2847 30.254 24.9647 30.2715 24.5528L30.1726 24.5486C30.1541 24.9826 30.2792 25.3196 30.3973 25.6367L30.3976 25.6375C30.5159 25.9553 30.6261 26.2512 30.5957 26.6163C30.5588 27.0093 30.6469 27.3149 30.7574 27.5591C30.811 27.6772 30.8698 27.7811 30.9215 27.8724L30.926 27.8803C30.9791 27.9741 31.0227 28.052 31.0481 28.1213C31.0884 28.2555 31.0644 28.3607 31.0379 28.4412C31.0332 28.4555 31.0286 28.4684 31.0241 28.4811C31.022 28.487 31.02 28.4928 31.018 28.4986C31.0119 28.5161 31.0059 28.5341 31.0023 28.5509C30.9988 28.5673 30.9963 28.5878 31.0018 28.6085C31.0079 28.6319 31.0228 28.6502 31.044 28.6619L31.0449 28.6625L31.0459 28.6629C31.0928 28.6864 31.1417 28.6685 31.1777 28.6406C31.2145 28.6121 31.248 28.5666 31.2749 28.5091C31.329 28.3935 31.3611 28.2195 31.3331 28.0004L31.333 27.9992C31.3163 27.8897 31.283 27.7997 31.2448 27.7132C31.231 27.6819 31.217 27.6518 31.2029 27.6216C31.1772 27.5666 31.1514 27.5112 31.1265 27.4476C31.0519 27.256 30.9919 27.0003 31.0274 26.5435C31.064 26.0721 30.968 25.7792 30.8779 25.5044L30.8766 25.5005C30.8239 25.3398 30.7737 25.1856 30.752 25.003L32.2288 28.2158L32.2293 28.2169C32.2295 28.2175 32.2298 28.2181 32.2302 28.2189C32.2305 28.2196 32.2309 28.2205 32.2314 28.2214C32.2331 28.2251 32.2356 28.2301 32.2388 28.236C32.2452 28.2475 32.2549 28.2633 32.268 28.2785C32.2922 28.3068 32.3421 28.3479 32.4084 28.323L32.4109 28.3221L32.4132 28.3209C32.4763 28.2893 32.4837 28.2262 32.4809 28.1876C32.4795 28.1673 32.4752 28.1491 32.4715 28.1363C32.4696 28.1298 32.4678 28.1245 32.4664 28.1206C32.4657 28.1186 32.4651 28.1171 32.4646 28.1159L32.4642 28.1148Z" fill="#85340A"/>
<path d="M30.3826 24.6953C30.4276 25.5053 30.8866 25.8653 30.7966 26.6123C30.9946 26.0273 30.5176 25.5683 30.5446 24.7043M29.8516 22.5623L31.6066 26.3963L30.1396 22.4453" fill="#85340A"/>
<path d="M30.0031 25.0023C31.3856 25.0023 32.5063 23.8817 32.5063 22.4992C32.5063 21.1168 31.3856 19.9961 30.0031 19.9961C28.6207 19.9961 27.5 21.1168 27.5 22.4992C27.5 23.8817 28.6207 25.0023 30.0031 25.0023Z" fill="#F6B40E"/>
<path fill-rule="evenodd" clip-rule="evenodd" d="M29.9984 20.0609C28.6522 20.0609 27.5609 21.1522 27.5609 22.4984C27.5609 23.8446 28.6522 24.9359 29.9984 24.9359C31.3446 24.9359 32.4359 23.8446 32.4359 22.4984C32.4359 21.1522 31.3446 20.0609 29.9984 20.0609ZM27.4297 22.4984C27.4297 21.0798 28.5798 19.9297 29.9984 19.9297C31.4171 19.9297 32.5672 21.0798 32.5672 22.4984C32.5672 23.9171 31.4171 25.0672 29.9984 25.0672C28.5798 25.0672 27.4297 23.9171 27.4297 22.4984Z" fill="#85340A"/>
<path d="M30.8438 21.9648C30.6844 21.9648 30.5156 22.0398 30.4219 22.1898C30.6094 22.368 31.0406 22.3773 31.3313 22.1711C31.2698 22.1059 31.1957 22.054 31.1135 22.0185C31.0313 21.983 30.9427 21.9648 30.8531 21.9648H30.8438ZM30.8438 22.0023C31.0125 22.0023 31.1719 22.0773 31.1906 22.1523C31.0031 22.368 30.6937 22.3398 30.4969 22.1898C30.5906 22.0586 30.7219 22.0023 30.8531 22.0023H30.8438Z" fill="#843511"/>
<path d="M29.6219 22.8477C29.5958 22.8538 29.5716 22.8661 29.5512 22.8834C29.5309 22.9008 29.5149 22.9227 29.5047 22.9475C29.4945 22.9722 29.4903 22.999 29.4925 23.0257C29.4947 23.0524 29.5032 23.0781 29.5173 23.1009C29.5314 23.1236 29.5507 23.1427 29.5737 23.1565C29.5966 23.1703 29.6225 23.1784 29.6492 23.1802C29.6759 23.1821 29.7026 23.1775 29.7272 23.167C29.7518 23.1564 29.7735 23.1401 29.7906 23.1195C29.8525 23.1579 29.9241 23.1774 29.9969 23.1758H30.0156C30.0719 23.1758 30.1656 23.1664 30.2312 23.1195C30.2594 23.1664 30.3156 23.1852 30.3719 23.1852C30.4166 23.1889 30.461 23.1747 30.4953 23.1457C30.5296 23.1167 30.551 23.0752 30.5547 23.0305C30.5584 22.9857 30.5442 22.9413 30.5152 22.907C30.4862 22.8727 30.4448 22.8514 30.4 22.8477C30.4469 22.8664 30.475 22.9039 30.475 22.9602C30.475 22.99 30.4631 23.0186 30.442 23.0397C30.421 23.0608 30.3923 23.0727 30.3625 23.0727C30.3327 23.0727 30.304 23.0608 30.283 23.0397C30.2619 23.0186 30.25 22.99 30.25 22.9602C30.2278 23.0064 30.1933 23.0458 30.1504 23.0739C30.1074 23.1019 30.0576 23.1177 30.0062 23.1195C29.9566 23.1161 29.9087 23.0995 29.8675 23.0715C29.8263 23.0435 29.7933 23.0051 29.7719 22.9602C29.7719 23.0258 29.7156 23.0727 29.65 23.0727C29.5937 23.0727 29.5375 23.0164 29.5375 22.9602C29.5375 22.9039 29.5656 22.8664 29.6125 22.8477H29.6219ZM29.8094 23.3539C29.6125 23.3539 29.5281 23.5414 29.3594 23.6445C29.4531 23.607 29.5281 23.532 29.6687 23.457C29.8 23.382 29.9125 23.4758 29.9969 23.4758C30.0719 23.4758 30.1844 23.382 30.325 23.457C30.4562 23.532 30.5406 23.607 30.6344 23.6445C30.4562 23.532 30.3812 23.3633 30.1844 23.3633C30.1469 23.3633 30.0719 23.382 29.9969 23.4195L29.8094 23.3539Z" fill="#85340A"/>
<path d="M29.7406 23.5878C29.6656 23.5878 29.5719 23.6065 29.4219 23.644C29.7688 23.569 29.8438 23.6909 30.0031 23.6909C30.1531 23.6909 30.2375 23.569 30.575 23.644C30.2 23.5315 30.1156 23.6065 30.0031 23.6065C29.9281 23.6065 29.8719 23.5784 29.7406 23.5878Z" fill="#85340A"/>
<path d="M29.4344 23.6444H29.3594C29.7625 23.6913 29.575 23.9257 29.9969 23.9257C30.4187 23.9257 30.2312 23.6913 30.6344 23.6444C30.2125 23.6069 30.3437 23.86 29.9969 23.86C29.6687 23.86 29.7719 23.6444 29.4344 23.6444Z" fill="#85340A"/>
<path d="M30.35 24.2727C30.35 24.1807 30.3135 24.0924 30.2484 24.0274C30.1834 23.9623 30.0951 23.9258 30.0031 23.9258C29.9111 23.9258 29.8229 23.9623 29.7578 24.0274C29.6928 24.0924 29.6562 24.1807 29.6562 24.2727C29.6746 24.1944 29.7188 24.1246 29.7818 24.0747C29.8448 24.0248 29.9228 23.9976 30.0031 23.9976C30.0835 23.9976 30.1615 24.0248 30.2245 24.0747C30.2874 24.1246 30.3317 24.1944 30.35 24.2727Z" fill="#85340A"/>
<path d="M28.4453 21.9663C28.8859 21.5819 29.4484 21.5163 29.7578 21.8069C29.8291 21.9007 29.8772 22.0099 29.8984 22.1257C29.9359 22.3507 29.8703 22.5851 29.7016 22.8288L29.7766 22.8663C29.9266 22.5757 29.9828 22.2757 29.9266 21.9851L29.8703 21.7694C29.4484 21.4226 28.8672 21.3944 28.4453 21.9569V21.9663Z" fill="#85340A"/>
<path d="M29.1403 21.8438C29.3934 21.8438 29.4497 21.9 29.5622 22.0031C29.6747 22.0969 29.7403 22.0781 29.7497 22.0969C29.7778 22.1156 29.7497 22.1719 29.7216 22.1531C29.6747 22.1344 29.5997 22.0969 29.4872 22.0031C29.3747 21.9094 29.2528 21.9094 29.1403 21.9094C28.7934 21.9094 28.6059 22.1906 28.5684 22.1719C28.5216 22.1531 28.7559 21.8438 29.1403 21.8438Z" fill="#85340A"/>
<path d="M29.1453 22.3219C29.2385 22.3219 29.3141 22.2463 29.3141 22.1531C29.3141 22.0599 29.2385 21.9844 29.1453 21.9844C29.0521 21.9844 28.9766 22.0599 28.9766 22.1531C28.9766 22.2463 29.0521 22.3219 29.1453 22.3219Z" fill="#85340A"/>
<path d="M28.6797 22.2641C29.0078 22.5172 29.3359 22.4984 29.5234 22.3859C29.7109 22.2641 29.7109 22.2266 29.6734 22.2266C29.6359 22.2266 29.5984 22.2641 29.4484 22.3484C29.2891 22.4234 29.0641 22.4234 28.6797 22.2641V22.2641Z" fill="#85340A"/>
</g>
<defs>
<clipPath id="clip0_4046_9891">
<rect width="60" height="45" fill="white"/>
</clipPath>
</defs>
</svg>
