<svg width="60" height="45" viewBox="0 0 60 45" fill="none" xmlns="http://www.w3.org/2000/svg">
<g clip-path="url(#clip0_4046_9909)">
<path d="M0 0H60V45H0V0Z" fill="#000066"/>
<path d="M-0.0546875 22.5L59.9453 0V45L-0.0546875 22.5Z" fill="#BD1021"/>
<path d="M5.59375 22.5008L59.9688 2.41016V42.5914" fill="white"/>
<path d="M44.4359 25.3484C44.9141 25.3766 44.9047 25.8547 44.9047 25.8547L46.5922 25.8922C46.8078 25.3016 47.0422 25.3672 47.4547 25.6672C47.7057 25.8379 47.9805 25.9705 48.2703 26.0609C48.4297 25.2172 49.6297 25.3859 49.6297 25.3859C50.1547 24.1672 50.1922 24.1766 49.8828 24.0266C49.6992 23.9335 49.5486 23.7862 49.4516 23.6047C49.1703 23.2578 49.0203 22.7516 48.9828 22.4422C48.9453 22.1328 48.5891 22.5922 48.5141 22.4984C48.4578 22.4047 47.9234 22.4609 47.9234 22.4609C48.0547 22.6016 47.6047 22.5172 47.6047 22.5172C47.6516 22.5547 47.6047 22.6766 47.6047 22.6766C47.5672 22.6203 47.2203 22.5641 47.2203 22.5641C47.1942 22.6192 47.1594 22.6699 47.1172 22.7141C46.9297 22.6391 46.5547 22.6484 46.5547 22.6484C46.196 22.6363 45.8413 22.7274 45.5328 22.9109C45.3828 22.9953 44.8391 23.2672 44.3797 23.7078C43.9391 24.1391 43.6859 24.0828 43.6859 24.0828C43.5547 24.5703 42.4859 25.1609 42.4859 25.1609C42.3172 25.3109 41.7734 25.3859 41.5016 25.1609C41.2297 24.9359 41.5016 24.5141 41.5016 24.5141C41.6141 24.3266 41.7078 24.3359 41.7172 23.6703C41.7266 23.2297 42.1859 22.8734 42.6547 22.3578C43.2453 21.7203 44.0609 20.6703 44.0609 20.6703C44.0609 20.9891 44.2297 21.0453 44.2297 21.0453C44.3891 20.7172 44.6234 20.4547 44.6234 20.4547C44.6328 20.4828 44.6703 20.4922 44.6703 20.4922C44.8578 20.2484 44.9516 20.1547 44.9516 20.1547C44.9047 20.1266 44.3891 20.1547 43.9203 20.5672C43.4516 20.9797 43.1328 20.8484 43.1328 20.8484C42.8047 20.7359 42.7766 20.4734 42.7766 20.4734C42.5422 19.4516 43.4703 18.7203 43.4703 18.7203C42.2141 18.4203 43.1234 16.8172 44.6891 16.1422C46.2453 15.4672 46.2266 15.1578 46.2266 15.1578C46.2952 15.2435 46.352 15.3381 46.3953 15.4391C46.4047 15.4391 46.5266 15.2609 47.4266 14.8672C48.3266 14.4641 48.7578 14.1172 48.7578 14.1172C48.8703 14.3422 48.8516 14.4922 48.8516 14.4922C51.3172 13.6391 53.7266 11.6609 53.7266 11.6609C53.8016 11.8203 53.7734 12.0734 53.7734 12.0734C54.1672 11.6984 55.6203 10.8359 55.6203 10.8359C55.6308 10.9921 55.5956 11.148 55.519 11.2845C55.4425 11.421 55.3278 11.5322 55.1891 11.6047C55.2253 11.6721 55.2507 11.7449 55.2641 11.8203C55.7211 11.5343 56.1712 11.2373 56.6141 10.9297C57.0172 11.2766 56.6516 11.8484 56.6516 11.8484C56.8016 11.8203 56.8953 11.6984 56.8953 11.6984C57.0078 12.2984 56.3422 12.8234 56.3422 12.8234C56.4641 12.8234 56.6516 12.7016 56.6516 12.7016C56.5297 13.3578 55.3016 14.0703 55.3016 14.0703C55.4797 14.2391 55.3016 14.4453 55.1516 14.5391C55.0109 14.6328 54.7484 14.8484 54.8328 14.9328C54.9078 15.0266 55.4609 14.6328 55.4609 14.6328C55.5547 14.9047 54.8516 15.4391 54.8516 15.4391C55.3391 15.5047 56.6891 14.8859 56.6891 14.8859C56.5859 15.4109 56.0703 15.8234 55.4422 16.0578C54.8141 16.2922 54.8422 16.3391 54.8422 16.3391C54.9547 16.4141 55.8266 16.1703 55.8266 16.1703C55.5641 16.7516 54.6547 17.1547 54.6547 17.1547C54.9078 17.3703 55.2453 17.1172 55.5922 16.8828C56.0012 16.6256 56.4426 16.4238 56.9047 16.2828C57.4016 16.1047 57.7672 16.2359 57.7672 16.2359C58.1984 16.1047 58.5547 16.2922 58.5547 16.2922C59.3703 16.3578 59.4547 16.6578 59.4547 16.6578C59.5484 16.6766 59.6141 16.7141 59.8297 16.8734C60.0266 17.0234 60.0172 17.4922 60.0172 17.7359C59.9984 17.9609 59.9328 17.9609 59.8953 18.0172C59.8578 18.0922 59.8484 18.1672 59.8484 18.2516C59.8484 18.3453 59.6422 18.8984 58.3766 18.8984H56.4734C56.3609 18.8984 56.2391 18.9641 56.2391 18.9641C55.7047 19.2266 55.9859 18.7766 55.3578 19.3016C54.7203 19.8172 54.4016 19.7328 54.4016 19.7328C54.0475 20.0948 53.6615 20.4243 53.2484 20.7172C52.8734 20.9609 52.9391 20.9328 53.2766 21.0734C53.6141 21.2141 54.1016 21.0734 54.1016 21.0734C53.7828 21.2891 54.0078 21.3922 54.0078 21.3922C54.4203 21.1391 54.6828 21.2328 54.6828 21.2328C54.8141 21.5984 54.3266 22.1703 54.3266 22.1703C54.5141 22.1984 54.8703 22.1703 54.8703 22.1703C54.7766 22.4234 54.4391 22.6953 54.1766 22.7703C53.9234 22.8641 53.9609 22.8922 54.0453 23.0516C54.1109 23.2016 54.0547 23.3609 54.0547 23.3609C53.6047 23.0516 53.5859 23.3234 53.5859 23.3234C53.5391 23.6984 53.5484 24.2234 53.5484 24.2234C53.2297 24.0641 53.2203 24.2703 53.2203 24.2703C53.1266 24.6078 52.7422 24.9922 52.7422 24.9922C52.7234 24.7859 52.5359 24.7297 52.5359 24.7297C52.3297 25.1234 51.9641 25.3578 51.9641 25.3578C51.9172 25.6859 52.0109 26.1641 52.0109 26.1641C51.7672 26.1078 51.6828 26.1078 51.6359 26.1641C51.6078 26.2297 51.6922 26.2578 51.6922 26.2578L54.8234 26.3328C54.8703 26.3328 55.0578 26.3609 55.0578 26.6891C55.0578 27.0359 54.7766 27.0547 54.7766 27.0547L51.3641 26.9703C51.3641 26.9703 51.3734 27.0641 51.1953 27.1578C51.0172 27.2516 51.0828 27.0547 51.0359 27.4766C50.9797 27.8891 50.3047 27.4391 50.3047 27.4391C50.1922 27.6078 49.9297 27.8141 49.9297 27.8141C49.7703 27.3453 49.6109 27.2141 49.3672 27.6078C49.1234 28.0109 49.8172 27.9453 49.8172 27.9453C49.8172 27.9453 53.8297 27.3547 54.0453 27.3359C54.2609 27.3078 54.5047 27.3266 54.6078 27.6266C54.7016 27.9359 54.1109 27.9828 54.1109 27.9828L49.9859 28.4328C49.9016 28.6766 49.5641 28.6578 49.5641 28.6578C49.5922 28.8922 49.3484 29.0328 49.2266 29.1266C49.0953 29.2016 48.7016 29.1734 48.7016 29.1734C48.2328 29.4922 47.9891 29.2391 47.9891 29.2391C47.6797 29.3703 47.4828 29.3141 47.2297 29.2016C46.9672 29.0891 46.9953 28.7797 46.9953 28.7797L44.3891 29.0609C44.3138 29.0851 44.2439 29.1233 44.1828 29.1734C44.2766 29.2953 43.9953 29.5766 43.9953 29.5766C44.0797 29.6234 44.2297 29.7734 44.2484 30.0922C44.2672 30.4391 43.8266 30.4953 44.0422 30.7484C44.2578 30.9828 44.6703 30.7766 45.1203 30.5609C45.5703 30.3453 46.0109 30.3734 46.1984 30.3734C46.3859 30.3734 46.9297 30.5234 47.2672 30.6359C47.6047 30.7484 47.7172 30.6734 47.7359 30.5047C47.7547 30.3453 47.9141 30.2891 47.9141 30.2891C47.8672 30.4578 47.9609 30.5328 47.9609 30.5328C48.0829 30.5133 48.2004 30.472 48.3078 30.4109C48.2891 30.5422 48.1203 30.6172 48.1203 30.6172C47.8016 30.8328 48.2516 30.7578 48.2516 30.7578C49.1422 30.5703 49.4703 30.5891 49.6953 30.6172C50.1519 30.7517 50.5996 30.9146 51.0359 31.1047C51.0734 30.9922 51.0453 30.7297 51.0453 30.7297C51.3266 30.8047 51.4391 30.9641 51.4391 30.9641C51.5516 30.8516 51.4766 30.6453 51.4766 30.6453C52.3859 31.1609 51.2891 31.3953 50.9984 31.4891C50.7172 31.5828 50.7172 31.7047 50.7172 31.7047C50.9516 31.6297 51.1203 31.6016 51.3172 31.5828C51.5234 31.5641 51.4484 31.5828 51.9266 31.4891C52.4141 31.3953 52.6578 31.6016 52.6578 31.6016C52.2547 31.6203 52.1422 31.7422 52.1422 31.7422C52.3859 31.9016 52.1422 32.0609 52.1422 32.0609C51.7859 31.5922 51.4672 32.0703 51.4672 32.0703C51.6743 32.0702 51.879 32.115 52.0672 32.2016L52.5734 32.4547C52.9109 32.6047 52.8453 32.5109 53.0984 32.6047C53.3609 32.6984 53.2578 32.9516 53.2578 32.9516C53.1547 32.7453 52.9109 32.6703 52.9109 32.6703C52.8922 32.9516 52.6203 32.9984 52.6203 32.9984C52.9578 32.6234 52.2359 32.4547 51.8891 32.4641C51.5516 32.4641 51.2984 32.6891 51.2984 32.6891C51.9828 33.3359 52.4516 33.1203 52.4516 33.1203C52.3672 33.3547 51.8047 33.2609 51.8047 33.2609C52.0672 33.4672 52.0391 33.5984 52.0391 33.5984C51.8984 33.4672 51.6641 33.5328 51.1766 33.2234C50.6891 32.8953 50.2484 33.0078 50.2484 33.0078C50.7359 33.5047 50.0797 33.8141 50.0797 33.8141C49.8359 33.9641 50.1734 34.1422 50.1734 34.1422C49.8734 34.1984 49.8359 33.8984 49.8359 33.8984C49.6766 33.8609 49.4422 34.0484 49.4422 34.0484C49.4609 33.7484 49.8734 33.8984 49.8734 33.5797C49.8922 33.2516 49.4984 32.9984 48.3453 33.1578C47.1828 33.3172 46.8453 32.9516 46.8453 32.9516C46.7516 32.9516 46.7328 33.0453 46.7328 33.0453C46.9203 33.2328 47.0047 33.3078 46.9766 33.4391C46.9391 33.5609 47.0328 33.6078 47.0328 33.6078C46.8172 33.5891 46.8078 33.3453 46.8078 33.3453C46.8078 33.4484 46.7609 33.4578 46.6859 33.5609C46.6109 33.6641 46.6859 33.8141 46.6859 33.8141C46.5922 33.7391 46.4328 33.6453 46.5922 33.4109C46.7047 33.2422 46.3391 33.0172 46.3391 33.0172C46.1984 32.8766 45.8141 33.0172 45.8141 33.0172C45.5937 33.0642 45.3651 33.0573 45.148 32.9969C44.9309 32.9365 44.7316 32.8244 44.5672 32.6703C44.4734 32.6703 44.2953 32.6141 44.2953 32.6141C43.4609 32.9891 42.7297 32.1828 42.7297 32.1828C42.1016 32.3047 41.8109 31.9953 41.6234 31.6953C41.5154 31.4908 41.3445 31.3265 41.1359 31.2266C40.8922 31.0766 40.6484 30.6453 40.8922 30.4109C41.0797 30.2141 41.0328 30.1672 41.0328 30.1672C40.7047 29.6141 41.6047 29.4453 41.6234 29.3047C41.6516 29.1172 41.8391 28.9953 42.0453 28.9859C42.2516 28.9672 42.2516 28.9859 42.3922 28.8547C42.5141 28.7141 42.7672 28.8828 42.7672 28.8828C42.8328 28.8453 43.2828 28.4984 43.6766 28.6766C44.0797 28.8547 44.4172 28.7328 44.4172 28.7328C44.6984 28.6672 47.0422 28.3578 47.0422 28.3578C47.1828 28.1234 47.2953 27.8516 47.9422 27.7016C48.5891 27.5516 49.0672 27.1391 49.0672 27.1391C48.9547 27.0266 48.7672 27.0266 48.6734 27.0172C48.5703 27.0172 48.3734 26.8297 48.3734 26.8297C48.2516 26.8859 48.1859 26.8578 47.3422 27.3734C46.5828 27.8422 46.5641 26.9234 46.5641 26.9234H44.9047C44.8766 27.2703 44.6234 27.4109 44.6234 27.4109L44.0141 27.4391C43.6766 27.2703 43.6766 26.6703 43.6766 26.6703C41.8578 26.6984 40.8547 27.3453 40.8547 27.3453C38.7922 26.2953 37.1797 26.0516 37.1797 26.0516C38.5003 25.9559 39.7944 25.6324 41.0047 25.0953C41.8152 25.5858 42.7314 25.8751 43.6766 25.9391C43.7234 25.4328 44.0609 25.3109 44.0609 25.3109L44.4359 25.3484Z" fill="black"/>
<path d="M41.4673 29.4921C40.9517 29.7921 41.0454 29.9609 41.0923 30.0546C41.1392 30.1484 41.1392 30.2421 40.9986 30.3921C40.8579 30.5327 40.8673 30.5796 40.8673 30.5796C40.8954 31.0859 41.2423 31.1984 41.4017 31.3296C41.5329 31.4234 41.7392 31.7515 41.7392 31.7515C42.0111 32.1359 42.2923 32.1452 42.4986 32.1452C42.7142 32.1452 42.6861 32.1171 42.5923 32.0234L42.2736 31.7702C42.4824 31.859 42.6707 31.9898 42.8267 32.1546C43.3517 32.7359 43.8392 32.6609 44.0548 32.6421C44.2704 32.614 44.2423 32.4827 44.2423 32.4827C44.1694 32.4601 44.0937 32.4475 44.0173 32.4452C43.2204 32.3702 42.9861 31.8452 42.9861 31.8452C43.3909 32.2012 43.9096 32.4007 44.4486 32.4077C44.6736 32.3984 44.6642 32.464 44.6079 32.4827L44.3829 32.464C44.2798 32.464 44.2798 32.4921 44.2986 32.539C44.3267 32.5765 44.4298 32.5765 44.5517 32.5765C44.6829 32.5765 44.5798 32.5859 44.9079 32.839C45.2454 33.1015 46.0611 32.8859 46.0611 32.8859C45.5267 32.764 45.4611 32.5109 45.4611 32.5109C44.7392 32.6046 44.4486 32.1734 44.4486 32.1734C44.2852 32.0464 44.1093 31.9365 43.9236 31.8452C43.5298 31.6671 43.4548 31.3015 43.4548 31.3015C43.5767 31.4702 43.8017 31.6577 44.0829 31.7327C44.3642 31.8077 44.4392 31.8452 44.4392 31.8452C44.3671 31.8615 44.2918 31.855 44.2236 31.8265C43.9423 31.7327 44.1017 31.8546 44.1017 31.8546C44.4204 32.1077 44.5048 32.089 44.5048 32.089C45.3111 32.1734 44.9079 31.8452 44.9079 31.8452C45.4892 31.9859 45.5829 31.7702 45.5829 31.7702C45.7048 32.0234 46.1454 31.9296 46.1454 31.9296C45.5642 32.2109 46.0048 32.1265 46.0048 32.1265C46.5954 32.0234 46.7173 32.1734 46.7173 32.1734C46.8673 32.314 47.0361 32.3046 47.0361 32.3046C47.0361 32.3046 47.1486 32.3046 47.3642 32.3421C47.5892 32.389 47.9454 32.5765 48.2642 32.5484C48.5923 32.5015 48.6392 32.6046 48.6392 32.6046C48.5829 32.5765 48.4329 32.5577 48.1892 32.6702C47.9361 32.7921 47.4954 32.8202 46.8579 32.6702C46.2204 32.5202 46.1642 32.5484 46.1642 32.5484C46.3236 32.6515 46.4548 32.8202 46.4829 32.9234C46.5111 33.0359 46.6236 33.0359 46.6236 33.0359C46.6704 32.8952 46.8579 32.839 46.8579 32.839C47.0044 32.9429 47.1616 33.0309 47.3267 33.1015C47.3642 33.0359 47.3267 32.9796 47.3267 32.9796C47.5704 33.214 47.8517 33.139 47.8517 33.139C47.9267 33.0921 47.9079 32.9515 47.9079 32.9515C48.0017 32.9515 48.0204 33.0077 48.0954 33.064C48.1611 33.1015 48.3767 33.0734 48.3767 33.0734C48.3017 33.0359 48.2361 32.914 48.2361 32.914C48.5642 32.6984 49.2673 32.7921 49.2673 32.7921C49.7642 32.8859 49.7079 33.214 49.7079 33.214C49.7963 33.2663 49.8755 33.3328 49.9423 33.4109C49.9892 33.2984 49.9423 33.1765 49.9423 33.1765C50.1861 33.289 50.2236 33.5515 50.2236 33.5515C50.5048 33.2515 49.9704 32.914 49.9704 32.914C50.2236 32.8765 50.5048 32.8952 50.6736 32.914C50.9021 32.9536 51.1159 33.054 51.2923 33.2046C51.4892 33.364 51.8454 33.439 51.8454 33.439C51.8361 33.3734 51.6392 33.2515 51.5923 33.2327C51.5548 33.214 51.5361 33.1484 51.5361 33.1484C51.7142 33.1859 51.8267 33.1671 51.8267 33.1671C51.2267 32.7921 51.0673 32.614 51.0673 32.614C51.2923 32.6421 51.4236 32.5015 51.4236 32.5015C50.9454 32.5015 50.9173 32.389 50.9173 32.389C50.9829 32.3984 51.2079 32.4546 51.4986 32.3984C51.7892 32.3421 52.1736 32.3984 52.1736 32.3984C51.9673 32.0609 51.1704 32.1171 50.9079 32.1359C50.6454 32.1546 50.5517 32.1171 50.5517 32.1171C50.5892 32.0984 50.6361 32.0609 50.8329 32.0515C51.0392 32.0515 51.2361 32.0702 51.4704 31.9015C51.6861 31.7515 52.0048 31.8077 52.0048 31.8077C51.9298 31.6577 51.5642 31.6015 51.2548 31.8077C50.9267 32.0046 50.6454 31.9484 50.6454 31.9484C51.1423 31.8734 51.2923 31.6952 51.2923 31.6952C51.1423 31.6577 51.0579 31.7046 50.7486 31.7702C50.4486 31.8265 50.3736 31.7234 50.3736 31.7234C50.7017 31.5265 50.9361 31.4421 50.9361 31.4421C50.6548 31.3859 50.3923 31.2546 50.3923 31.2546C50.0923 31.5359 49.8673 31.6859 49.2954 31.4046C48.7329 31.1046 48.4329 31.1421 48.4329 31.1421C48.9392 30.8515 49.4454 30.9734 49.8204 31.1984C50.1954 31.414 50.2892 31.2359 50.2892 31.2359C50.1767 31.1702 50.1954 31.0952 50.1954 31.0952C51.0954 31.5546 51.4892 31.2827 51.6861 31.1421C51.8829 31.0015 51.5923 30.8234 51.5923 30.8234C51.5736 31.1046 51.2173 31.2546 50.9173 31.1515C50.6361 31.0577 50.3548 30.9265 49.9423 30.7484C49.5298 30.5796 49.0048 30.6734 48.5267 30.7671C48.0392 30.8702 47.9736 30.8234 47.9267 30.7859C47.8798 30.7484 47.8611 30.6265 47.6079 30.7296C47.3642 30.8327 46.7829 30.5609 46.4267 30.4765C46.0704 30.3827 45.4798 30.4296 44.9736 30.7109C44.4673 31.0015 44.2048 30.9265 44.0548 30.8609C43.9048 30.7859 43.8017 30.5984 43.9704 30.4296C44.1392 30.2609 44.1579 30.214 44.1392 29.9609C44.1204 29.7171 43.8767 29.5671 43.8767 29.5671C44.1017 29.3327 44.1579 29.2859 44.0829 29.1921C44.0079 29.0796 44.1204 29.0796 44.2517 29.0234C44.3829 28.9671 44.3267 28.9577 44.2986 28.8827C44.2611 28.8077 44.1861 28.8265 44.1861 28.8265C43.8954 28.8359 43.7267 28.7515 43.7267 28.7515C43.2392 28.5265 42.7798 28.9671 42.7798 28.9671C42.4986 28.7515 42.4329 28.9015 42.3861 28.9484C42.3392 28.9952 42.2361 29.0421 42.1048 29.0421C41.9923 29.0609 41.8142 29.1077 41.7486 29.2202C41.7486 29.2202 41.6923 29.314 41.7579 29.4077C41.7579 29.4077 41.8329 29.5202 41.7017 29.6609C41.5611 29.8015 41.5142 29.8296 41.5611 29.9702C41.5986 30.0921 41.5892 30.1952 41.5329 30.2796C41.5329 30.2796 41.4673 30.214 41.4861 30.1202C41.5048 30.0265 41.5048 29.9702 41.4861 29.9327C41.4861 29.9327 41.3454 30.064 41.3173 30.1577C41.3173 30.1577 41.2611 30.0077 41.4673 29.8109C41.6548 29.6234 41.7486 29.5109 41.6923 29.4359C41.6548 29.3796 41.5048 29.4734 41.4767 29.4921H41.4673Z" fill="#FFC221"/>
<path d="M42.0353 31.6867C42.0353 31.6867 41.7821 31.4992 41.8103 31.2273C41.8384 30.9742 41.8384 30.9461 41.8103 30.8805C41.8103 30.8805 41.7634 30.9086 41.7728 31.0117C41.7728 31.1055 41.754 31.2086 41.7446 31.2273C41.7446 31.2273 41.6228 31.0117 41.5571 30.9648C41.5571 30.9648 41.6134 30.7398 41.5384 30.6461C41.4728 30.543 41.3978 30.5336 41.3134 30.5711C41.2009 30.6086 41.1165 30.7117 41.5009 31.0211C41.5009 31.0211 41.6415 31.143 41.7353 31.3867C41.829 31.6305 41.9978 31.668 42.0259 31.6867H42.0353ZM43.254 30.9555C43.254 30.9555 43.2447 30.8148 43.3759 30.5523C43.4222 30.4735 43.449 30.3846 43.4539 30.2933C43.4588 30.2019 43.4417 30.1107 43.404 30.0273C43.3759 29.9523 43.3478 29.9805 43.4884 29.868C43.6478 29.7273 43.4228 29.5492 43.704 29.3055C43.704 29.3055 43.8728 29.1555 43.9196 29.0898C43.9196 29.0898 43.6384 29.2398 43.4321 29.3242C43.2446 29.3992 42.5321 29.7555 42.6821 29.9898C42.8509 30.2242 42.8322 30.243 42.804 30.3461C42.804 30.3461 42.3728 30.1117 42.5228 29.7461C42.5228 29.7461 42.5978 29.6055 42.7759 29.4273C42.9446 29.2773 42.8509 29.4648 43.179 29.268C43.179 29.268 43.4321 29.118 43.5821 28.9023C43.5821 28.9023 43.3946 29.0148 43.3384 29.0336C43.3384 29.0336 42.9634 29.1086 42.7946 29.268C42.6446 29.4273 42.3165 29.7086 42.4196 30.018C42.4196 30.018 42.0446 29.9805 41.9509 29.5773C41.9509 29.5773 41.2384 30.4586 42.7384 30.8711C42.7384 30.8711 43.0196 30.9461 43.2634 30.9648L43.254 30.9555Z" fill="black"/>
<path d="M49.8395 28.0302C50.402 27.9364 53.627 27.4489 53.927 27.4208C54.2458 27.3927 54.3677 27.3458 54.4802 27.6083C54.602 27.8895 54.0302 27.8989 54.0302 27.8989L50.177 28.3395C49.9895 28.3583 49.9427 28.2833 49.9427 28.2833L49.802 28.0958C49.802 28.0958 49.7552 28.0395 49.8395 28.0208V28.0302Z" fill="#FFC221"/>
<path d="M41.9372 29.7852C41.9372 29.7852 41.5247 30.657 43.1559 30.8727C43.1559 30.8727 43.1653 30.7789 43.2309 30.6383C43.3059 30.4977 43.4465 30.2164 43.3059 30.0383C43.1747 29.8602 43.4184 29.9539 43.4465 29.7195C43.4934 29.4852 43.4278 29.5133 43.5403 29.3633C43.5403 29.3633 43.034 29.5508 42.8278 29.7852C42.6403 30.0102 43.0997 30.1789 42.8278 30.432C42.8278 30.432 42.5934 30.3383 42.4528 30.0945C42.4528 30.0945 42.1434 30.0945 41.9372 29.7852Z" fill="#5A3719"/>
<path d="M43.5485 30.8633C43.5485 30.8633 43.9516 31.2102 44.4297 31.2008C44.9078 31.1727 45.1235 31.0508 45.2453 30.8633C45.2453 30.8633 45.3391 31.0039 45.3391 31.107C45.3391 31.107 45.7516 30.7602 46.4641 31.0602C47.1766 31.3602 46.9703 31.2758 47.1297 31.2945C47.1297 31.2945 46.8203 31.2477 46.1266 31.5664C45.4047 31.8945 43.5297 31.782 43.5391 30.8633H43.5485Z" fill="black"/>
<path d="M42.8689 29.307C42.8689 29.307 43.047 29.3352 43.2251 29.1289C43.2251 29.1289 42.9814 29.1758 42.8689 29.3164V29.307ZM41.4907 30.9383C41.4907 30.9383 41.1532 30.6758 41.3689 30.6195C41.3689 30.6195 41.5282 30.5914 41.4907 30.9383Z" fill="#5A3719"/>
<path d="M48.8594 32.6055C48.8594 32.6055 49.0469 32.2773 49.5625 32.2773C50.0781 32.2773 50.1344 32.5211 50.7906 32.5586C50.7906 32.5586 50.0031 32.7836 49.4594 32.5867C49.1781 32.4836 48.9156 32.568 48.8594 32.6055Z" fill="black"/>
<path d="M43.7188 31.0971C43.7188 31.0971 44.5063 31.5659 45.1906 31.0502C45.1906 31.0502 45.2469 31.1065 45.3031 31.2377C45.3031 31.2377 45.8281 30.7315 46.7563 31.2752C46.7563 31.2752 46.6437 31.2658 46.2031 31.444C45.6313 31.6971 44.1969 31.8658 43.7188 31.0877V31.0971Z" fill="#5A3719"/>
<path d="M46.7188 31.5664C46.7188 31.5664 47.4688 31.6602 48.0969 31.6227C48.4813 31.6039 48.9031 31.5289 48.6969 31.6602C48.4813 31.782 48.5938 31.8008 49.4844 31.7258C50.3656 31.632 49.475 31.8852 50.0844 31.9695C50.0844 31.9695 48.5938 32.7195 46.7188 31.5664V31.5664Z" fill="black"/>
<path d="M48.6719 31.0983C48.6719 31.0983 49.1031 30.939 49.5156 31.1265C49.9188 31.314 49.8531 31.3327 50.125 31.3608C50.125 31.3608 49.9375 31.6327 49.4969 31.4171C49.0469 31.2015 48.9344 31.1546 48.6719 31.0983V31.0983ZM49.1594 32.439C49.1594 32.439 49.5906 32.2233 50.0594 32.439C50.1156 32.4765 50.2469 32.5327 50.3687 32.5515C50.3687 32.5515 50.0125 32.6733 49.6375 32.5515C49.4781 32.5046 49.3563 32.4671 49.1594 32.439ZM47.0312 31.6702C47.0312 31.6702 47.9969 31.764 48.5125 31.6608C48.5125 31.6608 47.9125 31.9421 49.4219 31.8202C49.4219 31.8202 49.75 31.7827 49.7031 31.8296C49.675 31.8765 49.6469 31.9233 49.8156 31.9702C49.8156 31.9702 48.6906 32.4765 47.0312 31.6702V31.6702Z" fill="#5A3719"/>
<path d="M42.2534 30.8609C42.2534 30.8609 42.2722 30.9266 42.4784 31.0203C42.6941 31.1234 42.8066 31.2922 42.8534 31.3859C42.8861 31.4517 42.9322 31.5098 42.9887 31.5567C43.0452 31.6035 43.1109 31.638 43.1816 31.6578C43.1816 31.6578 42.4316 31.8172 42.0941 31.4141C42.0941 31.4141 41.8409 31.1328 42.2441 30.8516" fill="black"/>
<path d="M48.1555 32.5883C48.1555 32.5883 47.8649 32.5695 47.4524 32.4289C47.0493 32.2883 46.9461 32.4102 46.7118 32.2414C46.4868 32.0633 46.0274 32.1758 45.943 32.1852C45.8493 32.1945 45.6055 32.1852 45.9149 31.9883C45.9149 31.9883 45.6711 31.9883 45.5774 31.857C45.5774 31.857 45.4649 31.9695 45.0524 31.932C45.0524 31.932 45.2399 32.2133 44.4899 32.1289C44.6157 32.2739 44.7819 32.3782 44.9673 32.4283C45.1527 32.4784 45.3487 32.4721 45.5305 32.4102C45.5305 32.4289 45.4836 32.6445 45.8118 32.7383C46.168 32.8227 46.2336 32.8883 46.4118 32.9539C46.4118 32.9539 46.4399 32.8133 45.9805 32.4852C45.9805 32.4852 46.2243 32.4664 46.5805 32.5508C46.9368 32.6352 47.7243 32.8414 48.1555 32.5883V32.5883ZM48.343 32.9352C48.343 32.9352 48.418 33.1039 48.643 33.0664C48.868 33.0289 49.243 32.9727 49.5993 33.1414C49.5993 33.1414 49.6649 32.8414 48.943 32.8227C48.943 32.8227 48.493 32.8414 48.343 32.9352V32.9352ZM42.2305 30.9664C42.2305 30.9664 41.9493 31.2008 42.2024 31.4352C42.4274 31.6508 42.7836 31.632 42.9524 31.6227C42.9524 31.6227 42.8586 31.5664 42.7649 31.4352C42.6711 31.2945 42.6711 31.2008 42.4836 31.1164C42.2868 31.032 42.268 31.0133 42.2305 30.9664ZM41.9493 29.7852C41.9493 29.7852 41.518 30.657 43.168 30.8727C43.168 30.8727 43.168 30.7789 43.2336 30.6383C43.2899 30.4977 43.4305 30.2164 43.3086 30.0383C43.1586 29.8602 43.4118 29.9539 43.4493 29.7195C43.4868 29.4852 43.4211 29.5133 43.543 29.3633C43.543 29.3633 43.0274 29.5508 42.8211 29.7852C42.6336 30.0102 43.093 30.1789 42.8211 30.432C42.8211 30.432 42.5868 30.3383 42.4461 30.0945C42.4461 30.0945 42.1368 30.0945 41.9305 29.7852H41.9493Z" fill="#5A3719"/>
<path d="M46.25 31.8084C46.25 31.8084 46.5969 31.7521 47.4688 32.0802C48.35 32.399 48.7156 32.324 48.8375 32.3146C48.8375 32.3146 48.35 32.5771 47.5813 32.2396C46.9063 31.9396 46.8687 32.0521 46.25 31.8084V31.8084Z" fill="black"/>
<path d="M51.7324 31.6117C51.7324 31.6117 51.9199 31.6117 52.0512 31.6586C52.0512 31.6586 52.1168 31.593 52.3043 31.5648C52.3043 31.5648 52.1824 31.4523 51.7324 31.6117ZM51.1324 31.1242C51.1324 31.1242 51.3293 31.1242 51.3949 31.0117C51.3949 31.0117 51.2918 30.8898 51.1324 30.8242C51.1324 30.8242 51.1699 30.9742 51.1324 31.1242ZM44.4106 28.893C44.4106 28.893 44.3637 28.7992 44.5793 28.7617L47.5137 28.3398C47.5137 28.3398 47.6543 28.3398 47.6731 28.4336C47.7012 28.5367 47.6637 28.6117 46.9981 28.6867L44.5981 28.9867C44.5981 28.9867 44.4199 29.0148 44.4106 28.893Z" fill="#FFC221"/>
<path d="M47.0625 28.7701C47.0625 28.7701 47.0625 29.1545 47.4563 29.2107C47.8313 29.267 47.9719 29.192 48.0656 28.9951C48.0938 28.9295 48.2156 28.5263 48.0469 28.4982C47.9719 28.4888 47.8594 28.4982 47.775 28.5263C47.6438 28.592 47.5219 28.6576 47.5594 28.7138C47.6531 28.8638 47.6719 28.9013 47.6531 28.9013C47.5406 28.9295 47.4844 28.8451 47.4656 28.7888C47.4375 28.7138 47.5125 28.6763 47.2594 28.7138C47.1469 28.7232 47.0719 28.7232 47.0719 28.7701H47.0625ZM48.7031 28.4701C48.8906 28.4982 48.8813 28.9201 48.6469 29.117C48.3844 29.3232 48.1406 29.2388 48.1406 29.2388C48.0094 29.192 48.0281 29.2013 48.1313 29.0513C48.225 28.9107 48.2719 28.7138 48.2156 28.5826C48.1969 28.5357 48.2437 28.4982 48.3094 28.4888C48.3094 28.4888 48.4969 28.4513 48.7031 28.4701Z" fill="#FFC221"/>
<path d="M48.8735 28.5094C48.8735 28.5094 49.0235 28.6969 48.836 29.0251C48.836 29.0251 48.761 29.1188 48.9391 29.1094C49.1079 29.0907 49.511 28.9032 49.4735 28.6594C49.4735 28.6594 49.4547 28.6032 49.3516 28.6032C49.2485 28.6032 49.3329 28.5563 49.3797 28.5282C49.4172 28.5282 49.5579 28.4719 49.2016 28.2469C49.2016 28.2469 49.1454 28.1907 49.0797 28.2188C49.0235 28.2376 48.836 28.3126 48.836 28.4251C48.836 28.4719 48.8735 28.5188 48.8735 28.5188V28.5094Z" fill="#FFC221"/>
<path d="M49.2547 28.2108C49.2547 28.2108 49.5359 28.4077 49.5359 28.4733C49.5359 28.5296 49.5078 28.614 49.5828 28.5952C49.6578 28.5952 49.9578 28.5296 49.8641 28.3327C49.7891 28.1358 49.7047 28.0514 49.5641 28.0139C49.4234 27.9577 49.3859 28.0233 49.2641 28.1171C49.2641 28.1171 49.1797 28.1733 49.2547 28.2108V28.2108ZM47.7453 28.4921C47.7453 28.4921 47.7922 28.3515 47.5391 28.2858C47.5391 28.2858 47.6422 28.1921 47.8578 28.2483C48.0641 28.2858 48.0453 28.4358 48.0453 28.4452C48.0453 28.4452 47.8766 28.4452 47.7453 28.4921V28.4921ZM48.2891 28.4546C48.2891 28.4546 48.5703 28.4077 48.7109 28.4171C48.7109 28.4171 48.5609 28.1077 48.1766 28.2014C48.1766 28.2014 48.3172 28.3702 48.2891 28.4546ZM48.7859 28.3796C48.7859 28.3796 48.7859 28.2765 49.0297 28.1827C49.0297 28.1827 48.9172 28.0702 48.7484 28.089C48.5609 28.089 48.5141 28.1546 48.5141 28.1546C48.5141 28.1546 48.7297 28.2296 48.7859 28.3796V28.3796ZM48.8797 28.0421C48.8797 28.0421 49.0391 28.0796 49.1328 28.164C49.1328 28.164 49.2734 28.0046 49.3953 27.9765C49.3953 27.9765 49.1609 27.8452 48.8797 28.0421Z" fill="#FFC221"/>
<path d="M40.8562 27.2736C40.8562 27.2736 41.5312 26.6924 41.9062 26.7674C42.2812 26.8424 42.0937 26.7861 42.5062 26.7205C42.9187 26.6642 43.35 26.6174 43.5188 26.6361C43.5188 26.6361 43.0125 26.2799 42.1219 26.2892C42.1219 26.2892 41.5031 26.5049 41.0625 26.7861C41.0625 26.7861 40.2281 26.3267 39.375 26.5986C39.375 26.5986 40.3031 26.9455 40.8562 27.2736V27.2736Z" fill="#5A3719"/>
<path d="M48.0203 28.2578L48.1328 28.2391C48.1328 28.2391 48.3203 28.4734 48.1891 28.4734C48.0766 28.4734 48.1141 28.4453 48.0953 28.3797C48.0849 28.3317 48.0585 28.2887 48.0203 28.2578V28.2578ZM47.1766 28.2766C47.1766 28.2766 47.1016 28.3703 47.2328 28.3516C47.3922 28.3234 47.3641 28.3516 47.5234 28.2297C47.5234 28.2297 47.6359 28.1266 47.8234 28.1922C47.8234 28.1922 47.9922 28.2484 48.1234 28.1828C48.2547 28.1078 48.2828 28.1172 48.3578 28.1266C48.4328 28.1266 48.4328 28.1453 48.5172 28.0703C48.6109 28.0047 48.7797 28.0609 48.8828 27.9766C48.9859 27.8828 49.1172 27.9578 48.8828 27.7891C48.8828 27.7891 48.8359 27.7422 48.8359 27.6953C48.8359 27.6953 48.9297 27.7328 49.0047 27.7891C49.0797 27.8641 49.1922 27.8359 49.2109 27.8266C49.2109 27.8266 49.2297 27.6109 49.4266 27.4234C49.6422 27.2359 49.6422 27.2172 49.5203 27.2172C49.3984 27.2172 49.1922 27.1609 49.1172 27.2172C49.0422 27.2734 48.4422 27.6672 48.0859 27.7328C47.7297 27.7984 47.4016 27.9016 47.1766 28.2766V28.2766ZM37.6797 26.0828C37.6797 26.0828 38.7766 26.3641 39.0203 26.4766C39.0203 26.4766 39.0766 26.2984 38.5797 26.1578C38.5797 26.1578 39.7891 26.1203 41.0547 26.7016C41.0547 26.7016 41.6734 26.1766 43.6516 26.3359C43.6516 26.3359 43.6516 26.1672 43.6703 26.0266C43.6703 26.0266 42.2828 25.9891 41.0078 25.2109C41.0078 25.2109 39.8547 25.7734 37.6797 26.0828V26.0828ZM43.7453 26.6078C43.6797 25.5016 44.1016 25.3891 44.1016 25.3891C44.1016 25.3891 44.2984 25.3891 44.5141 25.4359C44.5141 25.4359 44.1766 25.8391 44.2703 26.6359C44.2703 26.6359 44.3078 26.7578 44.0172 26.7578C43.7266 26.7578 43.7453 26.6172 43.7453 26.6172V26.6078Z" fill="#FFC221"/>
<path d="M44.0469 27.3487C44.0469 27.3487 43.8313 27.1331 43.8125 26.8893C43.8125 26.8893 43.8125 26.8331 44.0188 26.8331C44.2344 26.8331 44.2531 26.8143 44.3 26.9362C44.3563 27.0581 44.4875 27.3112 44.5156 27.3393L44.0469 27.3487Z" fill="#5A3719"/>
<path d="M44.4839 26.7825C44.4664 26.6426 44.4601 26.5016 44.4651 26.3607C44.4745 25.7419 44.5776 25.7982 44.6245 25.8732H44.8401C44.8401 25.8732 44.6807 25.1794 44.4932 25.5919C44.3556 25.8972 44.3069 26.2351 44.3526 26.5669C44.362 26.7544 44.3807 26.8763 44.4089 26.9419L44.4839 26.7825Z" fill="#FFC221"/>
<path d="M46.8969 26.7834C46.8969 26.7834 47.3 26.8584 46.6813 26.9991C46.6813 26.9991 46.7094 27.7678 47.45 27.2334C47.45 27.2334 47.8906 26.9522 48.2 26.8397C48.2 26.8397 48.35 26.7834 48.3313 26.6709C48.3313 26.6709 48.35 26.5303 48.1906 26.5678C48.1906 26.5678 48.0594 26.5678 47.975 26.5397C47.975 26.5397 47.8813 26.4272 47.825 26.4647C47.7688 26.5116 47.6281 26.4834 47.7406 26.6241C47.8531 26.7553 47.8813 26.7178 47.9281 26.6803C47.9844 26.6428 48.2187 26.5491 48.0125 26.7459C47.8062 26.9428 47.6188 26.6334 47.5438 26.5772L46.8969 26.7834ZM44.8344 26.8772H44.6469C44.6469 26.8772 44.5531 27.0272 44.4875 26.7834L44.4219 26.9334C44.4219 26.9334 44.6375 27.7584 44.8344 26.8772Z" fill="#5A3719"/>
<path d="M44.5657 25.9296C44.5657 25.9296 44.4719 26.4733 44.5938 26.7921L46.5719 26.839C46.5719 26.839 46.5532 26.464 46.5719 25.9296H46.3094C46.3094 25.9296 46.2626 26.3608 46.3094 26.6327H46.2626C46.2626 26.6327 46.2251 26.2577 46.2626 25.9296H46.0282C46.0282 25.9296 45.9907 26.3327 46.0282 26.6327H45.9813C45.9813 26.6327 45.9438 26.2858 45.9813 25.9296H45.7469C45.7469 25.9296 45.7001 26.2952 45.7469 26.6327H45.6907C45.6907 26.6327 45.6438 26.2671 45.6907 25.9296H45.4376C45.4376 25.9296 45.3813 26.2671 45.4376 26.6327H45.3907C45.3907 26.6327 45.3344 26.2952 45.3907 25.9296H45.1376C45.1376 25.9296 45.0813 26.3233 45.1376 26.6327H45.0813C45.0813 26.6327 45.0438 26.2577 45.0907 25.9296H44.8563C44.8563 25.9296 44.7907 26.2577 44.8563 26.6327H44.7907C44.7907 26.6327 44.7532 26.3515 44.8094 25.9296H44.5657ZM46.6563 26.9046C46.6563 26.9046 46.6094 25.9483 46.7876 25.6858C46.9751 25.4421 47.0219 25.4983 47.3313 25.6858C47.6501 25.8921 48.0532 26.1077 48.1282 26.1358C48.1844 26.164 48.2782 26.1827 48.2782 26.3608C48.2782 26.539 48.3063 26.5858 48.0344 26.3608C48.0063 26.3327 47.8751 26.2202 47.7813 26.1921C47.5376 26.1077 47.8376 26.239 47.9219 26.3702C47.9969 26.464 48.0626 26.464 47.8657 26.5108C47.4586 26.6296 47.0553 26.7609 46.6563 26.9046Z" fill="#FFC221"/>
<path d="M47.3406 26.2108C47.3406 26.2108 47.1999 26.0421 47.3874 25.9952C47.5749 25.9577 47.5843 26.2765 47.6218 26.4733C47.6499 26.6796 47.3874 26.2765 47.3593 26.2202L47.3406 26.2108ZM47.0874 27.0546C47.0874 27.0546 46.8718 27.139 47.0218 27.2046C47.1531 27.2702 47.5374 26.9515 47.4156 26.9702C47.2656 26.9983 47.0874 27.064 47.0874 27.064V27.0546ZM47.3687 26.7733C47.3687 26.7733 47.5562 26.7452 47.5187 26.8202C47.4906 26.914 47.4249 26.8577 47.3874 26.839C47.3593 26.8202 47.2374 26.7733 47.3781 26.764L47.3687 26.7733Z" fill="black"/>
<path d="M48.3777 26.5109C48.3777 26.5109 48.434 26.8859 48.7527 26.9797C48.7527 26.9797 48.9402 27.0172 48.8934 26.8578C48.8934 26.8578 48.8652 26.7172 48.8371 26.6703C48.809 26.6047 48.6871 26.5765 48.6684 26.5672C48.6496 26.5672 48.6402 26.5203 48.7246 26.5484C48.8184 26.5765 48.8184 26.5859 48.8184 26.5203C48.8184 26.4547 48.7621 26.4828 48.6871 26.4453C48.6496 26.4265 48.6871 26.4078 48.7152 26.4172C48.7527 26.4172 48.8371 26.4453 48.8371 26.3234C48.8371 26.3234 48.8465 26.2484 48.7527 26.2484C48.6496 26.2484 48.659 26.1922 48.6871 26.1828C48.7152 26.1828 48.8277 26.2578 48.8652 26.1265C48.8934 26.0047 48.7152 26.0797 48.734 26.014C48.7621 25.939 48.8934 26.0422 48.8934 25.9672C48.9121 25.8922 49.0152 25.864 48.8371 25.8359C48.7527 25.8265 48.8371 25.7797 48.9309 25.7984C49.0246 25.8078 49.0809 25.6859 49.1465 25.6484C49.2027 25.6015 49.5402 25.4047 49.0902 25.4703C48.6496 25.5359 48.5184 25.7515 48.4996 25.7984C48.3879 26.0181 48.3454 26.2666 48.3777 26.5109V26.5109Z" fill="#FFC221"/>
<path d="M49.4096 26.7941C49.4752 26.7941 49.5221 26.7941 49.5408 26.841C49.6158 26.991 49.4471 26.9348 49.3533 27.0473C49.2596 27.1598 49.2596 27.141 49.1283 27.0941C48.9971 27.0566 48.9408 26.8598 48.9408 26.8598C48.9408 26.7941 48.9877 26.7848 49.0533 26.8035C49.0533 26.8035 49.2689 26.8223 49.4189 26.8035L49.4096 26.7941ZM48.9408 26.7191C48.9408 26.7191 48.9408 26.7566 49.0252 26.766C49.0908 26.766 49.3064 26.7941 49.4471 26.7566C49.4471 26.7566 49.4846 26.7473 49.4658 26.6629C49.4658 26.6629 49.4658 26.5973 49.3533 26.6254C49.2314 26.6441 49.0721 26.6254 49.0064 26.616C48.9502 26.5973 48.9127 26.616 48.9314 26.7098L48.9408 26.7191ZM48.9221 26.4473C48.9221 26.4473 48.9127 26.5691 49.0252 26.5785C49.1471 26.5973 49.2971 26.5973 49.3533 26.5785C49.4002 26.5785 49.4846 26.5598 49.4939 26.4848C49.4939 26.4191 49.5127 26.3723 49.3721 26.4098C49.2314 26.4473 49.0533 26.4098 49.0346 26.4098C49.0252 26.4098 48.9221 26.3816 48.9221 26.4473V26.4473ZM48.9689 26.2129C48.9689 26.2129 48.9408 26.2691 48.9502 26.3254C48.9502 26.3723 49.0346 26.391 49.1846 26.391C49.3346 26.391 49.4658 26.3723 49.4846 26.3254C49.4939 26.2598 49.5314 26.2035 49.4189 26.2316C49.2971 26.241 49.1377 26.2504 49.0814 26.2316C49.0252 26.2035 48.9783 26.1941 48.9689 26.2129V26.2129Z" fill="#FFC221"/>
<path d="M54.575 26.8133C54.575 26.8133 54.575 26.907 54.6594 27.0195L50.4219 26.8977C50.4219 26.8977 50.4781 26.8602 50.4969 26.6914L54.575 26.8133Z" fill="#5A3719"/>
<path d="M49.0016 26.0437C49.0016 26.0437 48.9641 26.1469 49.0391 26.175C49.1047 26.1938 49.2453 26.2125 49.4141 26.1844C49.4141 26.1844 49.5078 26.1844 49.5359 26.0906C49.5641 25.9969 49.5641 26.0531 49.3203 26.0156C49.3203 26.0156 49.2453 25.9875 49.4609 25.9875C49.4609 25.9875 49.5922 25.9875 49.6016 25.9688C49.6297 25.95 49.7891 25.8094 49.5734 25.8281C49.3578 25.8281 49.4703 25.7812 49.5734 25.7812C49.6859 25.7812 49.7234 25.8094 49.7609 25.7812C49.7984 25.7531 49.7609 25.7625 49.6953 25.7063C49.6297 25.65 49.6859 25.6594 49.7234 25.6969C49.7703 25.725 49.7984 25.7438 49.8453 25.6969C49.8922 25.65 49.8078 25.5844 49.8453 25.6031C49.8734 25.6031 49.9016 25.6781 50.0328 25.6031C50.1828 25.5375 50.3609 25.575 50.4078 25.6031C50.4641 25.65 50.6141 25.6969 50.6984 25.6031C50.7922 25.5281 50.5953 25.4437 50.6703 25.4344C50.7641 25.425 50.8203 25.4531 50.8484 25.3875C50.8859 25.3125 50.7172 25.2563 50.8766 25.2188C51.0266 25.1719 50.8953 24.75 50.8484 24.7031C50.8484 24.7031 50.6703 24.8062 50.4922 25.1062C50.2953 25.4156 50.1828 25.5938 49.9297 25.5C49.5641 25.3594 49.3672 25.5562 49.3203 25.5938C49.2266 25.65 49.5078 25.6687 49.3391 25.6781C49.1797 25.6781 49.1797 25.6969 49.1703 25.7156C49.1516 25.7437 49.1703 25.7625 49.1984 25.7719C49.2266 25.7719 49.2828 25.8281 49.1891 25.8281C49.0953 25.8281 49.0203 25.8 49.0484 25.9125C49.0484 25.9125 49.0484 25.9313 49.1047 25.9406C49.1609 25.9406 49.1797 26.0156 49.0766 26.0156C49.0016 26.0156 49.0016 26.0344 49.0016 26.0437V26.0437ZM49.3859 27.1031C49.3859 27.1031 49.3203 27.15 49.4141 27.1594C49.5266 27.1594 49.5734 27.1875 49.6109 27.1312C49.6484 27.075 49.7797 27.0938 49.6859 27.0188C49.5922 26.9438 49.5359 26.9906 49.3859 27.1125V27.1031Z" fill="#FFC221"/>
<path d="M49.8291 25.8265C49.8291 25.8265 50.1854 25.4984 50.476 25.714C50.776 25.9484 50.7947 25.9765 50.8041 25.9859C50.8041 25.9859 50.8416 26.014 50.7666 26.0796C50.6822 26.1546 50.7666 26.1546 50.851 26.1078C50.9354 26.0609 50.9447 26.1078 50.9822 26.1546C51.0291 26.2015 51.0854 26.2296 50.9541 26.2296H50.5229C50.5229 26.2296 50.326 26.2484 50.4291 26.164C50.5229 26.0796 50.5041 25.9859 50.4572 25.9765C50.401 25.9765 50.4572 26.0328 50.4291 26.0703C50.3916 26.1078 50.326 26.1359 50.251 26.1359C50.176 26.1359 50.1197 26.1921 50.2322 26.2296C50.3353 26.2671 50.2135 26.2953 50.1572 26.2953C50.101 26.2953 49.8291 26.314 50.1104 26.3515C50.3916 26.3796 50.0822 26.3796 50.2979 26.4921C50.5229 26.6234 50.3541 26.8953 50.2697 26.9234C50.2697 26.9234 50.176 26.9703 50.2885 26.9609C50.4104 26.9421 50.476 26.9328 50.3822 26.9984C50.3072 27.0546 50.1385 27.2703 49.9135 27.1109C49.9135 27.1109 49.801 27.0546 49.9885 27.0453C50.176 27.0453 49.8385 26.9984 49.7729 26.9515C49.726 26.9234 49.4916 26.6984 49.6322 26.7171C49.7822 26.7546 49.726 26.6703 49.6416 26.6421C49.5666 26.614 49.5479 26.4921 49.6416 26.5109C49.7354 26.539 49.8291 26.5953 49.9229 26.5859C49.9885 26.5859 49.9697 26.5578 49.8103 26.5109C49.651 26.4546 49.5853 26.4453 49.6228 26.3234C49.6603 26.1828 49.8385 26.3703 49.7916 26.2671C49.7541 26.1734 49.6041 26.2203 49.6791 26.089C49.7541 25.9578 49.7729 26.014 49.8197 26.0328C49.8479 26.0421 49.9135 26.0328 49.8103 25.9578C49.7353 25.9109 49.8104 25.8359 49.8291 25.8265Z" fill="#FFC221"/>
<path d="M50.0781 25.9227C50.0781 25.9227 50.0781 25.8758 50.1531 25.8852C50.2094 25.8852 50.1906 25.8664 50.2094 25.8477C50.2281 25.8477 50.3875 25.8945 50.2375 25.9414C50.1813 25.9695 50.0875 25.9602 50.0875 25.9227H50.0781Z" fill="black"/>
<path d="M50.4274 26.2969C50.4274 26.2969 50.3055 26.3531 50.4086 26.4844C50.5024 26.5781 50.5024 26.625 50.5024 26.6906C50.493 26.7656 54.5711 26.8125 54.5711 26.8125C54.5711 26.8125 54.5711 26.5406 54.7399 26.3906L50.4274 26.2969V26.2969Z" fill="#FFC221"/>
<path d="M54.6406 26.7384C54.6406 26.7384 54.6594 26.5134 54.7906 26.4477C54.8563 26.4009 54.9406 26.4196 54.9781 26.5977C55.0344 26.8509 54.8188 27.0759 54.725 26.9727C54.6313 26.879 54.65 26.7384 54.65 26.7384H54.6406Z" fill="#5A3719"/>
<path d="M49.9595 27.6921C49.9595 27.6921 50.2314 27.4577 50.2782 27.3546C50.2782 27.3546 51.0095 27.8796 50.9626 27.3921L50.9814 27.1484C50.9814 27.1484 51.2532 27.1765 51.2907 26.9609L50.6064 26.9327C50.6064 26.9327 50.5314 26.9234 50.4189 27.0359C50.3251 27.1484 50.1001 27.2702 49.9032 27.1671C49.9032 27.1671 49.8095 27.0921 49.7251 27.1671C49.6314 27.214 49.6314 27.2327 49.7064 27.3077C49.7814 27.3827 49.9314 27.5796 49.9595 27.6827V27.6921ZM51.5345 26.2484L51.1314 26.2296C51.1314 26.2296 50.9907 26.0234 50.7001 25.7984C50.7001 25.7984 50.6157 25.7609 50.7751 25.6296C50.9439 25.4984 50.9908 25.3671 50.9908 25.3015C50.9908 25.2452 50.9907 25.1421 51.047 25.2077C51.1032 25.2827 51.5157 25.6671 51.5907 25.5546C51.647 25.4421 51.6564 25.3952 51.6564 25.3577C51.6751 25.3202 51.6845 25.2171 51.7501 25.3296C51.8064 25.4327 51.8439 25.4046 51.8532 25.6859C51.8532 25.6859 51.8532 25.9671 51.9001 26.0609C51.9001 26.0609 51.3751 25.9015 51.5439 26.2484H51.5345ZM49.7907 25.3859C49.7907 25.3859 50.1001 25.5734 50.2595 25.3296C50.4001 25.0952 50.5032 25.0671 50.3907 24.8327C50.2782 24.6171 50.3908 24.514 50.4751 24.4202C50.5689 24.3265 50.6439 24.3452 50.6439 23.989C50.6626 23.6234 50.9064 23.5202 51.0189 23.3984C51.1314 23.2859 51.4126 23.1171 50.9814 23.0515C50.5689 22.9765 49.7251 22.7702 49.5095 22.4421C49.2939 22.114 49.2001 22.3015 49.2001 22.3202C49.2001 22.339 49.1251 22.5734 49.3407 23.0046C49.5564 23.4359 49.7345 23.7171 49.9501 23.8484C50.1564 23.989 50.3439 24.064 50.2314 24.3546C50.1189 24.6452 49.9501 25.1609 49.7907 25.3859V25.3859Z" fill="#7B3C20"/>
<path d="M50.9223 24.4689C50.9223 24.4689 50.9786 25.2189 51.5129 25.4814C51.5129 25.4814 51.6348 25.2002 51.5879 24.9096C51.5879 24.9096 51.7661 24.919 51.8129 25.0033C51.8129 25.0033 51.8129 24.7877 51.5692 24.7033C51.3161 24.6377 51.4379 24.1408 51.5317 24.0939C51.6161 24.0377 51.5879 23.9346 51.5317 23.8502C51.4661 23.7564 51.4567 23.6346 51.6629 23.6908C51.8786 23.7471 51.8504 23.6346 51.7098 23.5314C51.5879 23.4283 51.5879 23.2971 51.7754 23.2971C51.9629 23.2971 52.2442 23.119 52.0754 23.0721C51.8879 23.0158 51.8411 22.9502 52.0754 22.8846C52.3286 22.8096 52.4504 22.7252 52.2629 22.6971C52.0754 22.6783 51.9536 22.6127 52.1317 22.5846C52.3098 22.5564 52.1036 22.369 51.8973 22.369C51.6817 22.3502 51.2411 22.4346 51.5879 22.1533C51.9442 21.8721 51.0817 22.0783 51.4379 21.8908C51.7942 21.7033 51.3161 21.7877 51.2504 21.7877C51.1848 21.7877 51.1848 21.7877 51.2129 21.6939C51.2317 21.6002 51.1661 21.5439 51.0536 21.6096C50.9598 21.6658 50.9598 21.6658 50.9598 21.544C50.9598 21.4033 50.8379 21.5065 50.7629 21.544C50.6786 21.5721 50.4817 21.7221 50.3973 21.6377C50.3317 21.5533 50.2848 21.4783 50.0411 21.619C49.7973 21.7596 49.8536 21.6377 49.8536 21.5721C49.8536 21.5065 49.9473 21.2533 49.6286 21.5252C49.3098 21.7971 49.5629 21.244 49.3004 21.4315C49.0473 21.619 49.0192 21.6565 48.9723 21.5721C48.9254 21.4783 48.8786 21.4127 48.5973 21.6002C48.3067 21.7783 48.5223 21.4783 48.5504 21.4127C48.5973 21.3564 48.7192 20.944 48.4661 21.2627C48.4661 21.2627 48.3442 21.4877 48.0723 21.0846C48.0723 21.0846 47.7911 21.4877 47.7067 21.3096C47.6317 21.1221 47.5661 21.1221 47.4629 21.2346C47.3692 21.3471 47.4442 21.2252 47.3973 21.1221C47.3598 21.0283 47.3317 20.8502 46.8536 21.1971C46.3754 21.5533 47.0223 21.2908 46.6567 21.4502C46.2911 21.6096 45.3911 22.1064 46.2067 22.0033C47.0223 21.8814 45.8129 22.3127 46.0942 22.3971C46.3754 22.4721 46.2817 22.7252 47.3504 22.4252C48.4004 22.1439 48.2317 22.3877 48.7754 22.1439C49.3192 21.9189 48.6442 22.2283 49.3754 22.2189C50.0973 22.2002 49.4973 22.219 49.6379 22.369C49.7786 22.519 50.3879 22.8658 50.9598 22.9315C51.5317 22.9877 51.6817 22.7721 51.5129 23.0252C51.3442 23.269 51.2879 23.3627 51.1942 23.4564C51.1004 23.5314 50.8192 23.7377 50.8192 24.0752C50.8192 24.4221 50.3692 24.4783 50.5379 24.8533L50.9223 24.4783V24.4689Z" fill="#5A3719"/>
<path d="M51.8758 25.304C51.8758 25.304 51.7445 25.2103 51.7445 25.0415C51.7445 25.0415 51.8383 25.0603 51.8758 25.1165C51.8758 25.1165 52.2039 24.7415 51.8008 24.6103C51.4164 24.479 51.6133 24.1134 51.7445 24.1134C51.8758 24.1134 51.9039 24.0853 51.782 23.9259C51.6695 23.7853 51.6883 23.7759 51.9039 23.7384C52.1195 23.7009 52.1008 23.6446 51.9976 23.5978C51.9305 23.5577 51.8704 23.5071 51.8195 23.4478C51.8195 23.4478 52.457 23.1759 52.2508 23.0446C52.0445 22.9228 52.2508 22.9509 52.4383 22.829C52.6258 22.6978 52.6445 22.6696 52.6726 22.6134C52.6726 22.6134 52.4851 22.6415 52.3539 22.6134C52.3539 22.6134 52.5133 22.529 52.3539 22.3978C52.1945 22.2665 52.1383 22.154 51.8851 22.2103C51.632 22.2759 51.7164 22.1915 51.8101 22.0884C51.9039 21.9853 51.8664 21.929 51.6883 21.9009C51.6883 21.9009 51.707 21.7884 51.8476 21.6665C51.8476 21.6665 51.5008 21.6853 51.3789 21.629C51.3789 21.629 51.5289 21.5353 51.5289 21.4134C51.5289 21.4134 51.3414 21.479 51.107 21.4603C51.107 21.4603 51.2476 21.3384 51.2476 21.2353C51.2476 21.2353 50.8351 21.329 50.6476 21.4696C50.6476 21.4696 50.6008 21.4696 50.5726 21.4134C50.5351 21.3759 50.5164 21.3196 50.057 21.4696C50.057 21.4696 50.1039 21.2634 50.2164 21.1884C50.3289 21.1134 50.3101 20.9446 49.607 21.3853C49.607 21.3853 49.5133 21.329 49.4289 21.1134C49.4289 21.1134 49.2695 21.329 49.157 21.404C49.157 21.404 49.0633 21.4509 49.0633 21.3103C49.082 21.1696 48.9976 21.2634 48.932 21.3103C48.857 21.3478 48.8101 21.4509 48.8383 21.1696C48.8664 20.8884 48.7445 20.8321 48.7445 20.8321C48.7445 20.8321 48.5289 21.1415 48.3976 21.179C48.3976 21.179 48.1633 20.954 48.0789 20.804C48.0039 20.654 48.0039 20.5978 47.9195 20.8603C47.8351 21.1134 47.732 21.1415 47.732 21.1415C47.732 21.1415 47.5914 21.0196 47.582 20.954C47.582 20.954 47.5539 21.0196 47.507 21.0478C47.507 21.0478 47.3851 20.9071 47.3945 20.7009C47.3945 20.7009 46.6258 21.1228 46.532 21.3759C46.532 21.3759 45.8101 21.329 45.5195 21.3853C45.5195 21.3853 45.5851 21.1603 45.7726 21.0384C45.7726 21.0384 45.5851 21.0196 45.5851 20.8228C45.5851 20.8228 45.7351 20.8415 45.8289 20.8228C45.9226 20.804 45.6976 20.5321 45.932 20.5228C46.1664 20.5134 46.3258 20.6353 46.2133 20.3165C46.1195 20.0071 46.157 20.0071 46.157 20.0071C46.157 20.0071 46.5695 20.2509 46.6351 20.1853C46.7101 20.129 46.5883 19.9978 46.9539 20.054C47.3195 20.1196 47.2164 19.9134 47.3664 19.8946C47.507 19.8946 47.582 19.9884 47.4883 19.3228C47.3945 18.6571 47.9383 19.6509 47.5726 18.6478C47.5726 18.6478 47.4789 18.3384 47.2633 18.2071C47.2633 18.2071 47.207 18.4228 46.9633 18.2353C46.7195 18.0478 46.232 17.9728 46.4383 17.8228C46.6445 17.6634 46.7383 17.4571 46.682 17.3353C46.682 17.3353 46.4383 17.579 46.0258 17.4009C45.6883 17.2603 45.6133 17.5228 45.2758 17.4478C45.2758 17.4478 45.2758 17.354 45.5664 17.129C45.8476 16.9134 45.3976 17.204 45.2289 17.2509C45.0508 17.2884 45.0039 17.2509 45.3695 16.9603C45.7445 16.679 46.4945 16.1634 46.4008 15.7415C46.4008 15.7415 46.5695 15.9571 47.0289 15.7978C47.4976 15.6384 47.8351 15.5821 47.9664 15.329C48.1164 15.0946 48.4726 14.8603 48.5664 14.804C48.6695 14.7571 48.7914 14.7103 48.6508 14.9446C48.5008 15.1696 48.2758 15.5634 47.6383 15.8259C47.0008 16.0884 46.7476 16.2759 46.6351 16.4165C46.5226 16.5571 45.9414 16.8665 46.3258 16.8196C46.7008 16.754 47.3476 16.8196 47.0383 16.7259C46.7383 16.6415 46.3914 16.7821 46.6726 16.529C46.9539 16.2759 47.0008 16.1915 47.4133 16.0228C47.8258 15.8446 48.2758 15.4509 48.2289 15.8728C48.182 16.2853 47.4226 16.7259 47.2351 16.8665C47.0476 16.9978 47.1226 16.979 47.1226 17.0353C47.1226 17.0915 47.0851 17.204 47.0101 17.2509C46.9351 17.3071 46.9633 17.3634 46.982 17.4759C47.0008 17.5978 46.9633 17.6446 47.0195 17.6634C47.0758 17.6728 47.132 17.6821 47.1508 17.7665C47.1695 17.8603 47.207 17.8603 47.3195 17.8603C47.4226 17.8415 47.507 17.8603 47.507 17.9165C47.507 17.9821 47.6195 18.0759 47.6289 17.879C47.6383 17.6728 47.7226 17.6446 47.5164 17.7384C47.3101 17.8228 47.2726 17.7946 47.2726 17.7009C47.2726 17.6071 47.2539 17.6259 47.1789 17.6165C47.0851 17.6165 47.057 17.4946 47.207 17.4103C47.357 17.3353 47.357 17.4103 47.5445 17.2603C47.732 17.1009 47.732 17.0728 47.7601 16.979C47.7883 16.9134 47.4883 17.204 47.3476 17.2603C47.207 17.3353 47.2539 17.2134 47.2726 17.0634C47.3008 16.904 47.6476 16.6884 47.807 16.6884C47.9758 16.6884 48.332 16.7821 48.182 16.9978C48.0226 17.2134 47.582 17.4853 47.7601 17.504C47.957 17.5228 47.9851 17.4478 48.0976 17.5415C48.2101 17.6353 48.0976 17.8415 48.0601 17.954C48.0098 18.0519 47.9396 18.1381 47.8539 18.2071C47.8539 18.2071 47.6476 17.8509 47.657 18.1321C47.657 18.4228 47.6101 18.5259 47.657 18.5353C47.7039 18.5446 47.9195 18.6946 47.9945 18.6946C48.0695 18.6946 47.6101 18.9103 47.807 18.929C47.9945 18.9384 48.3039 18.8353 48.407 18.6478C48.407 18.6478 48.0133 18.554 47.8539 18.404C47.8539 18.404 48.3133 18.2915 48.182 17.8603C48.182 17.8603 48.6414 17.9821 48.4351 18.1884C48.2476 18.3853 48.1258 18.3571 48.2945 18.4134C48.4726 18.4696 48.5476 18.5259 48.5476 18.5259C48.5476 18.5259 48.6695 18.5821 48.5945 18.6759C48.5289 18.7696 48.5289 18.9196 48.5945 18.9103C48.6414 18.9103 48.8383 18.8165 48.6789 18.7228C48.5101 18.629 48.857 18.6478 48.7164 18.5634C48.5664 18.4696 48.5289 18.4603 48.4914 18.4134C48.4445 18.3853 50.3383 17.2696 49.382 17.6821C49.382 17.6821 49.5789 17.2509 49.8601 17.2509C50.1414 17.2509 50.1601 17.4665 50.0008 17.6446C49.8414 17.804 49.7383 18.0759 49.3726 18.1321C49.3726 18.1321 49.8976 18.3853 49.2789 18.8071C49.2789 18.8071 49.1383 18.8728 49.1851 18.9196C49.232 18.9665 49.607 18.7603 49.6539 18.6384C49.6798 18.5752 49.718 18.5178 49.7663 18.4696C49.8146 18.4213 49.872 18.3831 49.9351 18.3571C50.0758 18.2915 50.7789 17.8134 50.9851 17.4571C51.2008 17.0915 51.2476 17.0821 51.6601 16.754C52.0726 16.4259 51.9976 16.4915 52.0539 16.4165C52.1008 16.3321 52.1195 16.2009 52.307 16.0978C52.4945 15.9853 53.2258 15.5915 53.4601 15.4228C53.6851 15.254 54.1539 14.954 54.3601 14.6915C54.557 14.4384 55.1101 14.1103 55.2414 14.1665C55.3726 14.2321 55.2226 14.429 54.9133 14.6728C54.5851 14.9071 53.7883 15.5446 53.6664 15.6478C53.3484 15.9041 52.9947 16.1125 52.6164 16.2665C52.3633 16.2946 52.3914 16.3884 52.2414 16.5478C52.0914 16.7071 51.7445 17.054 51.632 17.1478C51.5101 17.2415 51.2289 17.429 51.2195 17.5696C51.2008 17.7103 51.2664 17.7196 51.0414 17.9259C50.7081 18.2315 50.3323 18.4873 49.9258 18.6853C49.9258 18.6853 50.3476 18.8353 50.0945 19.1165C49.8508 19.3978 49.8601 19.3603 49.8508 19.379C49.8508 19.379 50.4789 19.2853 50.0383 19.7821C50.0383 19.7821 49.9445 19.9228 50.1414 19.7821C50.357 19.604 50.2726 19.3978 50.2351 19.3603C50.2351 19.3603 50.582 19.1446 50.9758 19.1446C51.3601 19.1446 51.3508 19.1165 50.9945 19.0134C50.9945 19.0134 51.2476 18.7134 51.4633 18.8634C51.6695 19.004 51.5945 19.0978 51.3789 19.2196C51.1539 19.3321 50.8351 19.379 50.582 19.5196C50.582 19.5196 51.0508 19.6134 51.2945 19.4165C51.5383 19.229 51.557 19.3228 51.5758 19.3603C51.6226 19.3978 51.6508 19.454 51.5383 19.604C51.4258 19.7634 51.4164 19.7728 51.4258 19.8103C51.4258 19.8478 51.4164 19.9509 51.1914 19.9978C50.9758 20.0259 50.8633 20.1196 50.9476 20.2228C51.0133 20.3353 51.0133 20.5978 50.8351 20.5696C50.6476 20.5415 50.6851 20.3915 50.6195 20.3353C50.5445 20.279 50.4414 20.1946 50.1133 20.354C49.7758 20.5321 49.757 20.3259 49.7664 20.2134C49.7664 20.2134 49.5508 20.4009 49.3726 20.2321C49.1851 20.054 49.3539 19.9884 49.4664 19.904C49.5601 19.8103 49.982 19.6228 49.7289 19.6696C49.4758 19.6978 49.1008 19.7071 49.0164 19.5196C48.9226 19.3228 49.2039 19.3415 49.2414 19.3603C49.2883 19.379 49.457 19.5196 49.4758 19.3321C49.4758 19.1446 49.757 19.1165 49.6633 19.0884C49.5695 19.0509 49.4289 19.1728 49.3914 19.2103C49.3914 19.2103 49.2039 18.9384 48.8851 19.0228C48.5664 19.1165 48.9789 19.0884 49.0726 19.0978C49.1476 19.1165 49.1008 19.2665 48.8195 19.529C48.5383 19.7821 48.6601 19.6978 48.8664 19.6978C49.082 19.6978 49.607 19.6978 49.2976 19.9415C48.9976 20.1946 48.8758 20.3165 48.7351 20.279C48.5664 20.2321 48.7351 20.129 48.8101 20.0821C48.8851 20.0353 48.9226 19.9696 48.7726 20.0259C48.6226 20.0728 48.5758 20.0915 48.4539 19.8853C48.3414 19.6696 48.3789 19.7353 48.4351 19.5946C48.4914 19.454 48.6039 19.3134 48.4726 19.3603C48.3226 19.4165 48.3414 19.4259 48.3508 19.2665C48.3601 19.1071 48.1914 19.0696 48.1914 19.0696C48.1914 19.0696 48.2664 19.229 48.2008 19.3321C48.1445 19.4259 48.1351 19.4634 48.2383 19.4821C48.332 19.5196 48.4258 19.604 48.2945 19.6978C48.1633 19.7821 48.182 19.7634 48.257 19.8196C48.3508 19.8853 48.4726 19.9415 48.3414 20.0728C48.2101 20.204 48.3133 20.1665 48.3789 20.1665C48.4539 20.1665 48.5945 20.2228 48.5945 20.354C48.5945 20.4665 48.5945 20.4946 48.8101 20.3821C49.0258 20.2603 49.4383 20.279 49.4383 20.4384C49.4383 20.6071 49.382 20.654 49.607 20.5134C49.832 20.3728 49.9351 20.6446 50.0945 20.5134C50.2445 20.3728 50.3383 20.2509 50.5258 20.4759C50.7039 20.7009 50.6476 20.7571 50.432 20.9259C50.2164 21.0853 50.5351 20.9634 50.7039 20.879C50.8726 20.7946 51.332 20.7384 51.5945 20.8603C51.8664 20.9728 51.9414 20.954 52.1383 20.8603C52.3351 20.7853 52.4383 20.7665 52.7289 20.9634C53.0383 21.1696 53.2633 21.2071 53.4226 21.1978C53.4226 21.1978 53.0945 21.329 52.7195 21.3478C52.3445 21.3759 52.157 21.4415 52.0914 21.4978C52.0914 21.4978 52.307 21.6384 52.3539 21.7978C52.3539 21.7978 52.5976 21.7696 52.7101 21.8165C52.7101 21.8165 52.6539 21.9946 52.8039 22.0884C52.9539 22.1821 53.057 22.2196 52.9445 22.3415C52.832 22.4728 53.1226 22.4165 52.9539 22.5946C52.7945 22.7821 52.757 22.8759 52.7476 23.0165C52.7476 23.1665 52.7851 23.1853 52.6445 23.204C52.4945 23.2134 52.6633 23.3821 52.5976 23.579C52.532 23.7665 52.1289 23.7384 52.1476 24.254C52.1476 24.254 52.2601 24.0009 52.5039 23.7853C52.7383 23.5603 52.7476 23.5415 52.7383 23.4103C52.7383 23.279 52.7289 23.3071 52.8508 23.204C52.982 23.1103 52.7945 23.0165 52.9258 22.8665C53.0476 22.7259 52.9445 22.754 53.0945 22.6134C53.2351 22.4634 52.9539 22.454 53.1133 22.304C53.2539 22.154 52.7383 21.9759 52.8976 21.8821C53.0383 21.7884 53.3008 21.6571 52.4289 21.6665C52.4289 21.6665 52.6445 21.329 53.3664 21.3946C53.3664 21.3946 53.1789 21.5446 53.1601 21.6759L53.3101 21.7228C53.3101 21.7228 53.2726 21.8259 53.132 21.9384C53.132 21.9384 53.5258 22.154 53.5914 22.2946C53.5914 22.2946 53.3476 22.3696 53.282 22.4634C53.282 22.4634 53.3945 22.5853 53.432 22.7446C53.432 22.7446 53.1601 22.7071 53.132 22.904C53.0945 23.1009 53.0101 22.9696 53.0101 23.0915C53.0101 23.2134 53.0195 23.2509 52.9258 23.279C52.832 23.279 52.9164 23.3821 52.9258 23.4478C52.9445 23.5134 52.982 23.6634 52.9633 23.7103C52.9633 23.7103 52.8226 23.7103 52.7664 23.729C52.7664 23.729 52.8039 24.0103 52.6445 24.0571C52.4851 24.0946 52.7383 24.1509 52.5601 24.179C52.3914 24.2071 52.4195 24.2259 52.2133 24.6009C52.2133 24.6009 52.3914 24.5071 52.5695 24.3759C52.757 24.254 52.5508 24.2821 52.8508 24.0009C53.1601 23.6915 53.1039 23.6728 53.0758 23.5228C53.057 23.3728 53.0476 23.2415 53.1601 23.1009C53.2726 22.9603 53.3008 22.8009 53.6945 22.8196C53.6945 22.8196 53.582 22.5571 53.4414 22.4915C53.4414 22.4915 53.6289 22.3696 53.8164 22.3509C53.8164 22.3509 53.6476 22.1353 53.2914 21.9384C53.2914 21.9384 53.5726 21.6946 53.657 21.5728C53.657 21.5728 53.5164 21.6009 53.4039 21.5728C53.4039 21.5728 53.4601 21.4509 53.7226 21.2821C53.7226 21.2821 53.8633 21.4134 53.8539 21.554C53.8539 21.554 54.3039 21.3009 54.557 21.329C54.557 21.329 54.6883 21.6478 54.0601 22.2665C54.0601 22.2665 54.4539 22.2946 54.6226 22.2665C54.6226 22.2665 54.5289 22.5665 54.0601 22.7353C53.5914 22.9228 54.1539 23.129 53.6758 23.0915C53.207 23.054 53.3476 23.2134 53.357 23.4571C53.3758 23.7009 53.3851 23.954 53.3758 24.0196C53.3758 24.0196 53.0008 23.8978 53.0008 24.2634C53.0101 24.6384 52.8133 24.7134 52.7664 24.7415C52.7664 24.7415 52.6539 24.6478 52.4851 24.5821C52.4851 24.5821 52.2508 25.0415 51.8758 25.304V25.304Z" fill="#5A3719"/>
<path d="M51.3158 20.6713C51.3158 20.6713 51.447 20.6525 51.672 20.7838C51.8877 20.9244 52.1033 20.6432 51.8595 20.5682C51.6158 20.4932 51.8595 20.3994 52.0845 20.5869C52.3095 20.765 52.3939 20.6713 52.4783 20.615C52.5533 20.5494 52.6564 20.5119 52.5064 20.4088C52.3564 20.3057 52.6002 20.3525 52.722 20.4369C52.8345 20.5025 52.7877 20.5775 52.7783 20.5963C52.7595 20.615 52.7502 20.8682 52.9658 20.6432C53.1908 20.4088 53.3127 20.1932 53.3033 20.0807C53.3033 20.0807 53.4252 20.1557 53.4439 20.2963C53.4627 20.4369 53.6314 20.2213 53.6877 20.1463C53.7439 20.0713 53.8377 19.865 53.8283 19.7338C53.8283 19.7338 53.9783 19.9682 54.2033 19.7338C54.4283 19.4994 54.3345 19.64 54.597 19.5744C54.9041 19.4921 55.1808 19.3228 55.3939 19.0869C55.5814 18.8525 55.5908 19.0119 55.8252 18.9557C56.0595 18.8994 56.547 18.5619 56.5939 18.3838C56.6314 18.2057 56.622 18.0932 56.5564 18.1588C56.4908 18.215 56.5189 18.1588 56.4158 18.1025C56.3127 18.0369 56.1627 18.1869 56.1627 18.1869C56.1627 18.1869 56.3127 18.2994 56.1908 18.3463C56.0783 18.4025 55.9752 18.5619 55.7595 18.4963C55.5439 18.44 55.3095 18.7025 55.3095 18.7025C55.3095 18.7025 55.497 18.8525 55.2439 18.9557C54.9908 19.0494 55.0283 19.0869 54.8783 18.9744C54.8783 18.9744 54.6064 19.3213 54.447 19.3963C54.447 19.3963 54.3814 19.3963 54.3345 19.3213C54.3345 19.3213 54.147 19.5182 54.072 19.5557C54.072 19.5557 53.9502 19.4619 53.8564 19.415C53.8564 19.415 53.6408 19.6869 53.4627 19.7619C53.4627 19.7619 53.4064 19.6682 53.2939 19.6025C53.2939 19.6025 53.2377 19.94 52.8627 20.1463C52.8627 20.1463 52.8814 20.0525 52.6939 19.9307C52.6939 19.9307 52.2252 20.3338 52.047 20.3713C51.8595 20.4088 52.0283 20.2869 52.047 20.2307C52.0845 20.1838 52.197 20.015 51.972 19.9494C51.747 19.8838 51.7845 19.9963 51.7377 20.015C51.6814 20.0338 51.6814 19.9775 51.5314 19.9963C51.3814 20.015 51.4095 20.0807 51.3439 20.1088C51.2689 20.1275 51.0064 20.0619 51.0252 20.24C51.0345 20.4088 51.1658 20.5307 50.9314 20.6338C50.697 20.7275 51.0252 20.7088 51.3158 20.6713V20.6713Z" fill="#7B3C20"/>
<path d="M52.2656 20.1828C52.2656 20.1828 52.3219 19.9484 52.125 19.8547C52.125 19.8547 53.3625 19.6578 52.425 19.1797C52.425 19.1797 53.5406 18.9641 53.2688 18.6078C53.0156 18.2516 52.7625 18.3266 52.725 18.3266C52.6875 18.3266 52.9594 18.1297 53.0344 18.1578C53.1 18.1859 53.9906 18.5234 53.7656 18.2234C53.5406 17.9422 53.5594 17.9516 53.5219 17.8672C53.5219 17.8672 53.8125 17.8672 54.2625 18.2984C54.2625 18.2984 54.3563 18.2047 54.3469 18.0266C54.3469 18.0266 54.6562 18.1203 54.7594 18.2141C54.7594 18.2141 54.8156 18.1016 54.7875 18.0453C54.7875 18.0453 55.0688 18.1859 55.1625 18.3453C55.1625 18.3453 55.2844 18.2328 55.3031 18.1016C55.3031 18.1016 55.5844 18.2234 55.65 18.3078C55.65 18.3078 55.7438 18.1859 55.7063 18.0266C55.7063 18.0266 56.1656 18.1484 56.2219 17.8766C56.2219 17.8766 56.6813 17.9703 56.3813 18.1484C56.0063 18.3828 56.3437 18.0922 55.95 18.3641C55.65 18.5797 55.4813 18.8234 55.3313 18.7766C55.2281 18.7297 55.0969 19.0484 54.9563 18.8984C54.8156 18.7391 54.8156 18.8047 54.7031 18.9641C54.6258 19.0812 54.538 19.1911 54.4406 19.2922C54.4406 19.2922 54.3656 19.2453 54.2906 19.1797C54.2906 19.1797 54.2156 19.3297 54.1031 19.4422C54.1031 19.4422 54.0094 19.3203 53.8594 19.2547C53.8594 19.2547 53.6438 19.5078 53.5031 19.6016C53.5031 19.6016 53.3719 19.4703 53.2312 19.4234C53.2312 19.4234 53.2125 19.7797 52.9406 19.9578C52.9406 19.9578 52.8844 19.8453 52.6969 19.7703C52.6969 19.7703 52.5656 19.9859 52.2656 20.1734V20.1828Z" fill="#5A3719"/>
<path d="M51.6181 19.6414C51.6181 19.6414 51.4681 19.7539 51.5618 19.8758C51.6556 20.007 51.6649 19.857 51.7868 19.8477C51.9087 19.8289 53.4274 19.5664 52.0493 19.1633C52.0493 19.1633 52.1149 19.107 52.3399 19.0883C52.5837 19.0602 53.4462 18.8352 53.0431 18.5258C52.6399 18.2258 52.3024 18.6289 52.6399 18.2633C52.9212 17.9727 52.6962 17.832 52.6962 17.832C52.6962 17.832 51.8993 18.357 51.7212 18.4602C51.5524 18.5539 51.2899 18.7414 51.5899 18.8352C51.8993 18.9289 52.0962 18.5164 52.1243 18.6102C52.1524 18.7039 51.5243 19.0602 51.6181 19.2102C51.7024 19.3789 51.6837 19.5195 51.8431 19.482C51.9931 19.4539 52.4056 19.557 52.0774 19.5477C51.7306 19.5383 51.6087 19.6414 51.6087 19.6414H51.6181Z" fill="#5A3719"/>
<path d="M52.16 18.871C52.16 18.871 52.0194 18.9741 52.2069 18.9273C52.3944 18.8804 52.76 18.796 52.6944 18.7023C52.6194 18.6085 52.3756 18.721 52.16 18.871Z" fill="black"/>
<path d="M54.5988 17.296C54.5988 17.296 55.3019 17.2773 55.5832 17.4741C55.8644 17.6616 56.0144 17.7929 56.0988 17.8304C56.0988 17.8304 56.0894 18.0929 55.6301 17.896C55.6301 17.896 55.6676 18.0273 55.6113 18.1585C55.6113 18.1585 55.4519 18.046 55.2551 17.9991C55.2551 17.9991 55.2176 18.0929 55.1613 18.1585C55.1613 18.1585 54.9644 17.9523 54.7301 17.8866C54.7301 17.8866 54.6926 17.9898 54.6551 18.0366C54.6551 18.0366 54.4113 17.8866 54.2238 17.8866C54.2238 17.8866 54.2613 18.046 54.2238 18.1023C54.2238 18.1023 53.7176 17.6991 53.2582 17.746C53.2582 17.746 53.4738 18.0741 53.6144 18.2241C53.6144 18.2241 52.6957 18.1585 52.8644 17.6616C53.0051 17.1648 52.8457 17.2866 53.4457 17.2866H54.5988V17.296Z" fill="#7B3C20"/>
<path d="M50.2802 18.6656C50.2802 18.6656 50.1771 18.7594 50.2802 18.825C50.3833 18.9 50.749 18.6375 50.7958 18.6C50.8521 18.5625 50.9833 18.5625 50.7958 18.7031C50.6083 18.8438 50.4396 18.9844 50.3271 19.1344C50.3271 19.1344 50.9271 18.9656 51.3208 18.6281C51.724 18.2812 51.3115 18.5062 51.9771 18.1781C52.6615 17.85 53.0177 17.325 52.6521 17.3812C52.2958 17.4375 51.9677 17.85 51.6771 18.0094C51.3958 18.1688 51.2365 18.1969 51.2833 18.1031C51.3208 18.0094 51.5365 18.0469 51.9302 17.7281C52.3146 17.4188 52.2302 17.4469 52.2302 17.3344C52.2302 17.2219 52.0896 16.9594 52.6708 16.6406C53.2521 16.3313 55.0708 15.2812 55.2302 14.9062C55.2302 14.9062 54.6958 14.9625 53.9927 15.4781C53.6071 15.8005 53.1855 16.0774 52.7365 16.3031C52.549 16.3781 52.5677 16.3219 52.4458 16.4813C52.1429 16.8003 51.827 17.1068 51.499 17.4C51.3771 17.4938 51.3302 17.55 51.3208 17.7562C51.3208 17.85 50.5333 18.4406 50.2896 18.6656H50.2802Z" fill="#5A3719"/>
<path d="M52.6872 17.2781C52.6872 17.2781 52.5465 17.3344 52.4059 17.2781C52.284 17.2125 52.3309 16.9406 52.6403 16.7625C53.0119 16.5599 53.4093 16.4085 53.8215 16.3125C53.8215 16.3125 53.7747 16.6688 52.8747 16.9781C52.8747 16.9781 52.9309 17.1656 52.6872 17.2781V17.2781Z" fill="#5A3719"/>
<path d="M53.0078 17.0445C53.0078 17.0445 53.0359 17.1383 53.0078 17.2133C53.0078 17.2133 54.6859 17.3727 55.5484 16.3508C55.5484 16.3508 54.3578 16.4633 53.8891 16.7539C53.8891 16.7539 54.1891 16.3789 55.0797 16.0695C55.9703 15.7602 56.3359 15.3758 56.4109 15.1602C56.4109 15.1602 55.2859 15.5633 54.7516 15.5633C54.7516 15.5633 54.6391 15.5633 54.5359 15.6102C54.4328 15.6758 53.7109 16.1914 53.5234 16.2852C53.5234 16.2852 53.9266 16.2477 54.0766 16.1164C54.0766 16.1164 53.7953 16.8664 53.0078 17.0539V17.0445Z" fill="#AA5323"/>
<path d="M49.7812 18.0008C49.7812 18.0008 49.5656 18.1602 49.6594 18.2258C49.7531 18.3102 49.9031 18.3195 50.2219 18.0477C50.5594 17.7664 51.3563 17.0914 50.8594 17.0633C50.8594 17.0633 50.2031 17.0258 50.2312 17.4195C50.25 17.8133 49.8188 17.982 49.7812 18.0008ZM48.2906 17.7664C48.2906 17.7664 48.7219 18.0195 48.5531 18.2258C48.5531 18.2258 49.8656 17.1195 49.4906 16.8758C49.1344 16.632 48.8438 17.0914 48.9281 17.1289C49.0219 17.1852 49.2094 17.0914 49.1438 17.1852C48.8765 17.3985 48.5946 17.5928 48.3 17.7664H48.2906ZM47.9531 17.4102C47.9531 17.4102 48.2344 17.5039 48.2531 17.6258C48.2625 17.7383 49.1156 17.0258 48.8906 16.7164C48.7875 16.5758 48.3281 16.5289 48.2906 16.7914C48.2719 17.0727 48.7219 16.7633 48.5719 16.9602C48.3656 17.2133 48.0187 17.3727 47.9531 17.4102V17.4102ZM51.0094 16.8102C51.0094 16.8102 50.8313 16.9414 51 17.0258C51.1687 17.0914 51.2625 16.9695 51.3469 16.9039C51.4313 16.8289 51.8438 16.5289 51.9281 16.3414C52.0219 16.1539 52.1625 16.0883 52.3125 15.9945C52.4531 15.9008 53.4937 15.3758 54.1406 14.8039C54.7781 14.232 54.5156 14.382 55.1719 14.0164C55.8281 13.6508 56.2688 13.3133 56.4094 12.9102C56.4094 12.9102 56.1 13.0039 55.8281 13.1914C55.499 13.4031 55.1646 13.6063 54.825 13.8008C54.7031 13.8477 54.5437 13.857 54.45 13.9508C54.3562 14.0445 54.3562 14.1664 54.0469 14.4195C53.7188 14.6914 52.0781 15.8539 51.8719 16.0133C51.5794 16.2735 51.2919 16.5392 51.0094 16.8102Z" fill="#5A3719"/>
<path d="M49.6875 17.1945C49.6875 17.1945 49.875 17.1008 50.2125 17.1195C50.55 17.1383 51.8812 15.8445 52.275 15.5914C52.8739 15.1802 53.4586 14.7487 54.0281 14.2977C54.1969 14.1289 54.2156 13.9602 54.3656 13.8664C54.5063 13.7727 54.6469 13.782 54.9656 13.5945C55.2937 13.407 56.8687 12.4695 56.775 11.9258C56.775 11.9258 54.4313 13.332 53.8969 13.782C53.1477 14.3662 52.3752 14.9198 51.5813 15.4414C51.3188 15.6195 51.1125 15.9102 50.6531 16.2664C50.2125 16.632 49.7625 16.9414 49.6875 17.2039V17.1945Z" fill="#AA5323"/>
<path d="M49.2031 16.6859C49.2031 16.6859 49.6344 16.6484 49.6906 16.8641C49.6906 16.8641 50.6281 16.2266 50.8344 15.9641C51.0406 15.7016 50.7594 15.8516 51.2937 15.5047C52.1539 14.9314 52.998 14.3343 53.825 13.7141C54.0781 13.4984 54.5563 13.1984 54.9406 12.9453C55.3156 12.6828 56.8062 11.9516 56.6375 11.3516L55.3063 12.2422C55.0531 12.4109 54.9406 12.3172 54.6969 12.5141C54.4531 12.7109 53.9 13.1047 53.8063 13.2266C53.3759 13.5953 52.9252 13.9396 52.4563 14.2578C52.0438 14.5391 51.1344 15.0641 50.6844 15.4578C50.1977 15.8787 49.7039 16.2913 49.2031 16.6953V16.6859Z" fill="#AA5323"/>
<path d="M47.8516 16.575C47.8516 16.575 48.0672 16.575 48.1422 16.6594C48.1422 16.6594 48.5453 16.2937 48.9766 16.6594C48.9766 16.6594 50.5516 15.5813 50.7109 15.3094C50.8703 15.0469 51.1328 15.0375 51.7422 14.5969C52.3609 14.1469 52.7453 13.95 53.1484 13.6406C53.5609 13.3219 53.9078 12.9562 54.1984 12.7687C54.4891 12.5812 55.2297 12.0938 55.1172 11.6719C55.1172 11.6719 54.5078 12.0094 54.1234 12.4406C53.7297 12.8719 53.7672 12.5062 53.3641 12.8625C52.9011 13.2888 52.3879 13.6571 51.8359 13.9594C51.3203 14.2125 51.6297 14.1844 51.2547 14.4281C50.8891 14.6625 50.9172 14.6156 50.7859 14.6625C50.6018 14.7059 50.4352 14.8039 50.3078 14.9437C50.1578 15.1031 49.8016 15.3187 49.4078 15.5531C48.8584 15.8445 48.3374 16.1866 47.8516 16.575V16.575Z" fill="#AA5323"/>
<path d="M48.3243 15.7484C48.3243 15.7484 48.2305 15.5703 48.3899 15.4391C48.5399 15.3172 48.8211 14.9891 48.8586 14.7828C48.9055 14.5672 48.868 14.6047 49.3086 14.4266C50.5773 13.8935 51.7792 13.2139 52.8899 12.4016C53.0586 12.2609 53.4899 11.9703 53.668 11.8203C53.668 11.8203 53.743 12.0547 53.5555 12.2141C52.9117 12.7189 52.2386 13.1853 51.5399 13.6109C51.3336 13.7141 50.8274 13.9766 50.6399 14.1266C50.4618 14.2766 50.4899 14.3141 49.6836 14.7172C48.8868 15.1016 48.8399 15.1484 48.868 15.1766C48.8961 15.2141 49.2618 15.0547 49.4305 14.9516C49.5993 14.8578 50.2555 14.5484 50.4618 14.3891C50.6706 14.2193 50.8897 14.0628 51.118 13.9203C51.6929 13.5906 52.2557 13.2404 52.8055 12.8703C53.1336 12.6172 53.2274 12.5422 53.3024 12.5891C53.368 12.6266 53.4899 12.6266 53.3399 12.7766C53.1899 12.9266 52.7118 13.3391 52.5243 13.4609C52.3368 13.5828 51.7649 13.9297 51.6055 14.0047C51.4461 14.0984 51.3805 14.2391 51.2868 14.3047C51.2024 14.3797 50.9399 14.5578 50.6305 14.6328C50.3211 14.7078 50.2555 14.9422 50.0399 15.0828C49.8243 15.2141 48.3524 16.0203 48.3055 16.0484C48.3055 16.0484 48.3899 15.9547 48.3243 15.7484V15.7484Z" fill="#AA5323"/>
<path d="M53.4657 12.4109C53.4657 12.4109 53.3814 12.4859 53.4282 12.5234C53.4845 12.5797 53.6907 12.7297 53.9532 12.4672C54.3198 12.1257 54.7115 11.8123 55.1251 11.5297C55.3407 11.3891 55.4626 11.2672 55.4532 11.0891C55.4532 11.0891 54.3845 11.6516 53.4657 12.4109ZM54.9282 12.3172C54.9282 12.3172 55.0876 12.0453 55.4907 11.7828C55.8939 11.5297 56.5032 11.1547 56.5689 11.0703C56.5689 11.0703 56.7189 11.2297 56.4095 11.4266C56.0675 11.6383 55.7299 11.8571 55.397 12.0828C55.3314 12.1484 55.2095 12.2328 54.9282 12.3172Z" fill="#AA5323"/>
<path d="M46.7779 15.2812C46.7779 15.2812 46.3279 15.525 46.4873 15.675C46.6467 15.8156 46.8811 15.7688 46.9936 15.7313L47.2936 15.6375C47.3311 15.6375 47.7154 15.5156 47.8186 15.3375C47.9123 15.15 48.1748 14.9438 48.3811 14.7938C48.5873 14.6531 48.6623 14.4938 48.6342 14.3906L46.7779 15.2812ZM44.1154 17.3438C44.1154 17.3438 44.4342 17.1563 44.8654 17.2781C44.8654 17.2781 44.8467 17.175 44.7717 17.1188C44.7717 17.1188 45.3061 16.9781 45.4186 16.7438C45.5311 16.5094 45.5592 16.5563 45.6529 16.5C45.7654 16.425 46.4686 15.8625 46.3842 15.7406C46.2998 15.6187 46.2904 15.45 46.2248 15.3937C46.2248 15.3937 46.0842 15.5906 45.3811 15.9281C44.7061 16.2656 43.9373 16.5094 43.3748 17.2594C42.8217 18.0094 42.8779 18.4406 43.5623 18.6375C43.5623 18.6375 44.0311 18.3375 45.2123 18.4406C46.3748 18.5437 46.7686 18.9844 46.8436 19.0594C46.9186 19.1438 47.1529 19.4344 46.9279 19.9125C46.9279 19.9125 47.1623 20.0156 47.1717 19.7906C47.1998 19.575 47.2092 19.6219 47.2654 19.65C47.3217 19.6875 47.3873 19.6969 47.3592 19.5187C47.3359 19.281 47.2624 19.051 47.1436 18.8438C47.0404 18.7031 47.1623 18.7687 47.2279 18.7875C47.2936 18.8156 47.5373 19.0219 47.3967 18.6469C47.2561 18.2906 47.2092 18.4594 47.2092 18.4781C47.2092 18.5063 47.1717 18.5906 46.8529 18.3469C46.6058 18.1596 46.326 18.0198 46.0279 17.9344C45.8123 17.8781 45.9623 17.8781 46.0936 17.8406C46.2248 17.7844 46.3842 17.7656 46.4498 17.6156C46.4498 17.6156 46.3186 17.6438 46.0936 17.5594C45.9115 17.5059 45.7196 17.495 45.5327 17.5275C45.3457 17.56 45.1687 17.6351 45.0154 17.7469C45.0154 17.7469 45.1279 17.325 44.7811 17.3438C44.4436 17.3719 44.1998 17.3625 43.8436 17.6437C43.8436 17.6437 43.8154 17.2125 44.1623 16.9875C44.5092 16.7531 44.4623 16.8938 44.6498 16.8375C44.8373 16.7813 44.8654 16.5844 44.7811 16.5187C44.7811 16.5187 45.2311 16.6031 45.9811 15.975C45.9811 15.975 45.5779 16.5094 45.0904 16.6125C45.0904 16.6125 45.0061 16.8937 44.5561 16.9594C44.1061 17.025 44.1248 17.2781 44.1248 17.3438H44.1154Z" fill="#7B3C20"/>
<path d="M42.8469 19.939C42.8469 19.939 43.0531 18.6171 44.3 18.5233C45.3688 18.4296 45.7156 18.5702 45.9313 18.6452C46.1469 18.7202 46.6813 18.8702 46.475 19.039C46.2688 19.2077 46.1469 19.1796 46.1469 19.1796C46.1469 19.1796 46.3813 18.9077 46.1656 18.8702C45.95 18.8233 45.9406 18.9546 45.9125 19.0577C45.875 19.1796 45.8656 19.3015 45.7625 19.3952C45.7625 19.3952 45.65 19.264 45.4906 19.3765C45.3313 19.489 45.4719 19.489 45.5375 19.4702C45.5938 19.4515 45.6781 19.4233 45.6594 19.5171C45.65 19.6108 45.5656 19.7796 45.3031 19.9108C45.05 20.0421 45.0594 20.0327 44.7594 20.089C44.45 20.1358 44.1688 20.2577 43.775 20.5858C43.3813 20.9233 42.9594 20.8108 42.875 20.4452C42.8 20.1265 42.8375 19.939 42.8375 19.939H42.8469Z" fill="#5A3719"/>
<path d="M44.25 19.8922C44.25 19.8922 44.3625 19.6391 44.1562 19.5172C44.1562 19.5172 43.5094 19.6297 43.3125 19.4328C43.3125 19.4328 44.0156 19.3953 44.4563 19.2172C44.8875 19.0578 44.7656 18.9359 44.6156 18.8984C44.4656 18.8703 44.1844 18.9453 44.1562 19.0859C44.1562 19.0859 44.0625 18.9359 44.175 18.8422C44.2969 18.7391 44.4562 18.7203 44.6156 18.7672C44.775 18.8047 44.9062 18.8797 45.4219 18.6172C45.4219 18.6172 45.7125 18.6828 45.7312 18.8797C45.7312 19.0859 45.7031 19.1609 45.675 19.1891C45.6563 19.2266 45.6187 19.2828 45.5531 19.2828C45.4969 19.2641 45.4125 19.2547 45.3375 19.3953C45.2719 19.5359 45.2156 19.6484 45.0938 19.7422C45.0938 19.7422 45.2344 19.3109 44.8594 19.2078C44.8594 19.2078 44.55 19.3953 44.3156 19.4047C44.3156 19.4047 44.6156 19.6859 44.2406 19.8922H44.25Z" fill="black"/>
<path d="M44.9318 19.1044C44.9318 19.1044 44.7818 18.9544 44.9693 18.9262C45.1568 18.9169 45.4006 19.0575 45.3631 19.1794C45.3068 19.2919 45.0818 19.2825 44.9318 19.1044V19.1044Z" fill="#5A3719"/>
<path d="M55.5583 17.0244C55.5583 17.0244 55.2114 17.1182 55.5396 17.3338C55.8583 17.5494 56.0083 17.7276 56.2427 17.7838C56.4771 17.8494 56.7114 17.9244 56.7114 18.1588C56.7114 18.3932 56.6646 18.4869 56.5333 18.6463C56.4114 18.8057 56.6083 18.8713 56.7771 18.7869C56.9458 18.6932 57.0864 18.6463 57.1989 18.5807C57.3021 18.5151 57.4802 18.5244 57.3302 18.6088C57.1521 18.7026 56.9833 18.7494 57.1989 18.7494C57.4146 18.7588 58.7177 18.7869 58.9896 18.6932C59.2708 18.6088 59.6271 18.5807 59.6458 18.2244C59.6458 18.2244 59.6646 18.0744 59.7677 17.9994C59.8614 17.9338 59.9364 17.7838 59.7864 17.8869C59.6458 17.9901 59.5333 18.0463 59.5052 18.0088C59.4771 17.9807 59.4583 17.9526 59.5708 17.9057C59.6833 17.8588 59.7396 17.9057 59.8427 17.7651C59.9364 17.6151 59.9364 17.6338 59.8802 17.5776C59.8239 17.5213 59.7114 17.4838 59.7677 17.4088C59.8239 17.3338 59.8802 17.1276 59.6364 17.2494C59.4021 17.3713 58.9239 17.6994 58.6989 17.7463C58.4927 17.7932 58.3239 17.8588 58.0333 17.9151C57.7521 17.9807 57.5646 18.0463 57.2364 18.2244C56.9271 18.3932 56.9552 18.1213 57.0021 18.0838C57.0021 18.0838 57.1239 18.2994 57.4427 18.0182C57.7614 17.7463 57.6583 18.0088 58.4364 17.7463C59.2146 17.4932 59.0271 17.4557 59.3271 17.2963C59.6364 17.1369 59.9271 17.1276 59.7021 16.9213C59.4958 16.6963 59.4771 16.6869 59.2052 16.9213C58.764 17.245 58.2479 17.4514 57.7052 17.5213C57.7052 17.5213 59.4677 16.7713 59.2896 16.6588C59.1358 16.5576 58.9685 16.4787 58.7927 16.4244C58.6708 16.3963 58.6333 16.3682 58.3521 16.4994C58.0708 16.6213 58.0239 16.6494 57.9489 16.6588C57.8552 16.6588 57.6208 16.7151 57.2927 16.8838C56.9552 17.0619 56.7771 17.1276 56.5427 17.2588C56.5427 17.2588 56.7021 16.9494 57.3958 16.7432C58.0896 16.5369 58.4364 16.3494 58.3708 16.3119C58.3052 16.2744 58.1177 16.2369 57.9958 16.2651C57.8552 16.2932 57.9021 16.2557 57.4708 16.4244C57.0489 16.5932 57.2271 16.5557 56.8896 16.6307C56.5427 16.6963 56.4114 16.7713 56.2427 16.8463C56.2427 16.8463 56.3177 16.7526 56.5333 16.6682C56.6552 16.6307 56.4114 16.5838 56.7396 16.5744H56.8333C57.1155 16.5105 57.387 16.4063 57.6396 16.2651C57.5739 16.2557 57.1614 16.2088 56.7489 16.4151C56.3271 16.6026 56.5146 16.5369 56.3739 16.5557C56.2239 16.5932 55.9052 16.7807 55.8114 16.8744C55.7083 16.9588 55.5583 17.0151 55.5583 17.0151V17.0244Z" fill="white"/>
<path d="M45.2509 18.9204C45.2509 18.9204 45.4197 18.9673 45.4572 19.0892C45.5041 19.2017 45.6072 19.0329 45.6072 18.9861C45.5978 18.9298 45.4947 18.7048 45.3259 18.8079C45.1384 18.9111 45.2322 18.9111 45.2509 18.9204Z" fill="#5A3719"/>
<path d="M44.8016 21.1891C44.8016 21.1891 45.1484 21.0203 45.4484 21.0484C45.4484 21.0484 45.3266 20.6359 45.5328 20.7016C45.7297 20.7766 45.6734 20.7391 45.7203 20.7391C45.7203 20.7391 45.7297 20.4672 45.6734 20.3641C45.6734 20.3641 45.8891 20.4109 46.1047 20.4109C46.1047 20.4109 45.8984 20.0266 46.1234 19.7547C46.1642 19.8316 46.2202 19.8994 46.2878 19.9542C46.3555 20.009 46.4335 20.0495 46.5172 20.0734V19.8578C46.5172 19.8578 46.6766 19.8297 46.7984 19.8953C46.9297 19.9703 47.0328 19.1828 46.6578 19.0234C46.6578 19.0234 46.5641 19.1641 46.2172 19.2391C45.8703 19.3141 45.8703 19.3797 45.7297 19.6422C45.5891 19.9047 45.4484 19.9141 45.1484 20.1109C44.8672 20.2984 44.6797 20.6734 44.6797 20.7109C44.6797 20.7109 44.8203 20.8984 44.8016 21.1891V21.1891Z" fill="#7B3C20"/>
<path d="M56.5427 16.6686C56.6646 16.6499 56.4114 16.5842 56.7302 16.5749H56.8239C57.1094 16.5118 57.3841 16.4076 57.6396 16.2655C57.5739 16.2561 57.1614 16.2092 56.7489 16.4061C56.3364 16.603 56.5146 16.5374 56.3739 16.5655C56.2239 16.5936 55.9052 16.7811 55.8114 16.8749C55.7083 16.9592 55.5583 17.0155 55.5583 17.0155C55.5583 17.0155 55.2114 17.1092 55.5396 17.3342C55.8583 17.5499 56.0083 17.728 56.2427 17.7842C56.4771 17.8499 56.7114 17.9249 56.7114 18.1592C56.7165 18.2483 56.7032 18.3375 56.6726 18.4213C56.642 18.5052 56.5946 18.5819 56.5333 18.6467C56.4114 18.8061 56.6083 18.8717 56.7771 18.7874C56.9458 18.6936 57.0864 18.6467 57.1989 18.5811C57.3021 18.5155 57.4802 18.5249 57.3208 18.6092C57.1521 18.703 56.9833 18.7499 57.1989 18.7499C57.4146 18.7592 58.7177 18.7874 58.9896 18.6936C59.2708 18.6092 59.6271 18.5811 59.6458 18.2249C59.6458 18.2249 59.6646 18.0749 59.7677 17.9999C59.8614 17.9342 59.9364 17.7842 59.7864 17.8874C59.6458 17.9905 59.5239 18.0467 59.5052 18.0092C59.4771 17.9811 59.4583 17.953 59.5708 17.9061C59.6833 17.8592 59.7396 17.9061 59.8427 17.7655C59.9364 17.6155 59.9364 17.6342 59.8802 17.578L59.7864 17.4936C59.7864 17.4936 59.7021 17.428 59.6083 17.4842C59.4021 17.5981 59.1813 17.6833 58.9521 17.7374C58.8021 17.7467 58.6239 17.8217 58.3427 17.9624C58.0614 18.103 57.5739 18.3936 57.4989 18.1217L57.2364 18.2155C56.9177 18.3842 56.9552 18.1499 57.0021 18.0842C57.0021 18.0842 56.8333 18.2717 56.8427 18.103C56.8427 17.9342 56.9552 17.9624 57.1521 17.9061C57.3396 17.8499 57.6208 17.7186 57.5083 17.6249C57.3864 17.5311 57.2552 17.7186 57.1146 17.7936C56.9833 17.8592 56.7114 17.9061 56.6646 17.7092C56.6271 17.5124 56.6271 17.3717 56.2614 17.353C55.8864 17.3342 55.8958 17.0999 55.9989 16.9967C56.1021 16.903 56.1864 16.7342 56.5333 16.6686H56.5427Z" fill="#999999"/>
<path d="M57.7153 18.4609C57.7153 18.4609 58.2871 18.1984 58.8121 18.0765C59.3465 17.9547 58.9246 18.0953 58.8403 18.114C58.7465 18.1422 57.9309 18.414 57.734 18.5078C57.5465 18.6015 57.5746 18.5265 57.7153 18.4703V18.4609ZM57.8465 18.5828C57.8465 18.5828 58.4934 18.3672 58.6153 18.4515C58.7371 18.5453 58.634 18.5078 58.4934 18.5265C58.3434 18.5359 57.959 18.6015 57.8559 18.6015C57.7528 18.6015 57.8465 18.5828 57.8465 18.5828V18.5828ZM58.8778 18.3484C58.8778 18.3484 59.009 18.3297 59.0184 18.3859C59.0278 18.4234 58.9621 18.4328 58.8965 18.4234C58.8309 18.414 58.7746 18.3765 58.8871 18.3484H58.8778Z" fill="black"/>
<path d="M41.8132 23.9914C41.8132 23.9914 41.7851 23.4102 42.0757 23.1289C42.3664 22.8477 43.7445 21.3945 43.9601 20.9914C43.9601 20.9914 44.1476 21.1133 44.1476 21.3477C44.1476 21.3477 44.382 20.9445 44.5695 20.7852C44.5695 20.7852 44.7289 20.9539 44.7101 21.2914C44.7101 21.2914 45.0382 21.1133 45.5539 21.1133C45.5539 21.1133 45.3664 21.3383 45.357 21.4789C45.357 21.4789 46.0695 21.3852 46.4539 21.4508C46.4539 21.4508 45.4601 22.0133 45.732 22.0602C46.0226 22.107 46.3132 22.0602 46.3132 22.0602C46.3132 22.0602 45.9945 22.3695 45.4882 22.4352C45.4882 22.4352 46.1351 22.4352 46.257 22.5758C46.257 22.5758 45.6382 22.6695 45.132 23.0445C45.132 23.0445 45.0945 23.0258 45.0945 22.8852C45.0945 22.8852 45.0664 23.0164 44.9257 23.1383C44.7851 23.2508 44.4476 23.5133 44.3164 23.6352C44.1851 23.757 43.9601 24.0102 43.6976 24.0102C43.6976 24.0102 43.7539 23.8133 43.5664 23.7477C43.469 23.7145 43.3642 23.7101 43.2644 23.735C43.1646 23.76 43.0742 23.8132 43.0039 23.8883C43.0039 23.8883 42.3476 23.8977 42.1226 23.9352C42.1226 23.9352 42.2726 23.6914 42.4039 23.6914C42.5539 23.6914 43.1164 23.7852 43.1632 23.3914C43.2195 23.0164 42.807 23.1102 42.957 22.8852C43.1164 22.6602 43.0789 22.6789 43.0882 22.6414C43.0882 22.6414 42.957 22.7164 42.882 22.9227C42.821 23.1506 42.6816 23.3498 42.4882 23.4852C42.3037 23.6041 42.1496 23.7647 42.0382 23.9539C42.0382 23.9539 41.9164 23.9539 41.8132 23.9914V23.9914Z" fill="white"/>
<path d="M42.4531 23.6453C42.4531 23.6453 42.4813 23.5703 42.6688 23.5328C42.875 23.5047 42.8844 23.4109 42.8563 23.3641C42.8281 23.3266 42.7156 23.3266 42.9031 23.1016C42.9031 23.1016 42.9781 23.1297 43.0156 23.1766C43.0719 23.2328 43.2875 23.6922 42.4531 23.6453Z" fill="white"/>
<path d="M41.9922 23.2414C41.9922 23.6164 42.4891 23.4758 42.4891 23.4758C42.357 23.5733 42.2373 23.6866 42.1328 23.8133C42.1703 23.6258 41.8516 23.5789 41.8516 23.5789C41.8802 23.4596 41.9277 23.3457 41.9922 23.2414V23.2414ZM43.8016 21.2258L43.9609 20.9914C43.9609 20.9914 44.1484 21.1133 44.1484 21.3477C44.1484 21.3477 44.3828 20.9445 44.5703 20.7852C44.5703 20.7852 44.7297 20.9539 44.7109 21.2914C44.7109 21.2914 45.0391 21.1133 45.5547 21.1133C45.5547 21.1133 45.3672 21.3383 45.3578 21.4789C45.3578 21.4789 46.0703 21.3852 46.4547 21.4508C46.4547 21.4508 45.4609 22.0133 45.7328 22.0602C46.0234 22.107 46.3141 22.0602 46.3141 22.0602C46.3141 22.0602 45.9953 22.3695 45.4891 22.4352C45.4891 22.4352 46.1359 22.4352 46.2578 22.5758C46.2578 22.5758 46.0703 22.6039 45.8266 22.6883C45.8266 22.6883 45.6484 22.5195 45.1141 22.5477C45.1141 22.5477 45.5266 22.3039 45.8641 22.2289C45.8641 22.2289 45.7141 22.0414 45.4891 22.2195C45.4891 22.2195 45.0297 21.9102 45.4141 21.6383C45.4141 21.6383 45.1516 21.5914 44.9734 21.7133C44.9734 21.7133 44.9734 21.4977 45.1703 21.4039C45.1703 21.4039 44.6641 21.3102 44.5422 21.6852C44.5422 21.6852 44.4484 21.5445 44.4953 21.3664C44.4953 21.3664 44.1859 21.5445 44.0453 21.7414C44.0453 21.7414 43.9984 21.3664 43.8016 21.2258M42.8266 23.6258C42.7422 23.6445 42.6109 23.6539 42.4516 23.6445C42.4516 23.6445 42.4703 23.5977 42.5734 23.5508C42.5734 23.5508 42.6109 23.6258 42.8266 23.6258Z" fill="#999999"/>
<path d="M43.7422 22.1898C43.7422 22.1898 43.9766 22.3773 44.0516 22.4711C44.0516 22.4711 44.2672 22.3398 44.3328 22.218C44.3328 22.218 44.5109 22.3211 44.5578 22.4805C44.5578 22.4805 44.6797 22.4055 44.6984 22.293C44.6984 22.293 44.9797 22.3492 45.0922 22.443C45.0922 22.443 45.1297 22.1617 45.0922 21.993C45.0922 21.993 45.2891 22.0117 45.4109 22.0586C45.4109 22.0586 45.2984 21.8711 45.8797 21.6367C45.8797 21.6367 45.4391 21.7398 45.2703 21.918C45.2703 21.918 45.0828 21.9367 44.9984 21.8805V22.3023C44.9984 22.3023 44.8859 22.2461 44.6703 22.1992C44.6703 22.1992 44.6141 22.293 44.5766 22.3117C44.5766 22.3117 44.4359 22.1992 44.3797 22.0586C44.3797 22.0586 44.1641 22.2555 44.0984 22.3398C44.0984 22.3398 43.8828 22.1898 43.7422 22.1898V22.1898Z" fill="black"/>
<path d="M42.4219 25.0588C42.4219 25.0588 42.5156 25.0963 42.7312 24.9275C42.9469 24.7588 43.5469 24.3744 43.5938 24.065C43.6594 23.7556 43.4062 23.7463 43.2188 23.8306C43.0125 23.9244 43.0969 24.0838 43.1062 24.1494C43.1062 24.2056 43.125 24.4213 42.7969 24.7119L42.4219 25.0588Z" fill="#FFC221"/>
<path d="M42.3659 25.1515C42.3659 25.1515 41.8784 24.9453 42.3096 24.7297C42.7409 24.514 42.9377 24.4578 42.9846 24.2703C43.0409 24.0922 43.0034 24.1297 42.844 24.2047C42.6846 24.2703 42.0752 24.5609 41.9815 24.2984C41.9815 24.2984 42.2346 24.3922 42.544 24.2422C42.8627 24.0828 43.1252 24.0453 42.919 23.9797C42.5748 23.9438 42.2272 23.9596 41.8877 24.0265C41.7565 24.064 41.794 24.0547 41.7659 24.1765C41.7471 24.2984 41.6159 24.5515 41.5596 24.6172C41.5127 24.6922 41.3909 24.9922 41.6159 25.1328C41.73 25.1965 41.8579 25.2314 41.9885 25.2347C42.1192 25.238 42.2487 25.2094 42.3659 25.1515V25.1515Z" fill="#FFC221"/>
<path d="M42.1761 24.0938C42.1761 24.0938 42.0542 24.1125 42.0823 24.1594C42.1011 24.2063 42.1292 24.1969 42.1761 24.1969C42.2042 24.1969 42.2698 24.1781 42.2792 24.15C42.2792 24.1219 42.2042 24.0844 42.1761 24.1031V24.0938Z" fill="black"/>
<path d="M42.3319 25.0422C42.3319 25.0422 42.1069 24.9391 42.3694 24.7984C42.6226 24.6578 42.8944 24.5172 42.9319 24.4609C42.9319 24.4609 42.8101 24.6391 42.3319 25.0422V25.0422Z" fill="white"/>
</g>
<defs>
<clipPath id="clip0_4046_9909">
<rect width="60" height="45" fill="white"/>
</clipPath>
</defs>
</svg>
