<svg width="60" height="45" viewBox="0 0 60 45" fill="none" xmlns="http://www.w3.org/2000/svg">
<g clip-path="url(#clip0_4046_9991)">
<path d="M0 0V44.9996H67.4993V0H0Z" fill="#3399CC"/>
<path d="M0 30V32.5H67.4993V30H0ZM0 34.9999V37.4999H67.4993V34.9999H0Z" fill="#FFFF00"/>
<path d="M13.375 2.625L13.6469 2.90625L13.3656 2.625H13.375ZM13.0938 3.1875L13.375 3.46875L13.0938 3.1875ZM13.6469 3.1875L13.9281 3.46875L13.6469 3.1875Z" fill="#99CCCC"/>
<path d="M13.0938 3.47031L13.375 3.74219L13.0938 3.46094M13.6469 3.46094L13.9281 3.74219L13.6469 3.46094Z" fill="#CCCCFF"/>
<path d="M12.8125 4.01172L13.0938 4.29297L12.8125 4.01172Z" fill="#66CCCC"/>
<path d="M13.3766 4.01172L13.6484 4.29297L13.3672 4.01172H13.3766Z" fill="#CC6666"/>
<path d="M13.9313 4.01172L14.2031 4.29297L13.9219 4.01172H13.9313Z" fill="#66CCCC"/>
<path d="M12.8125 4.29297L13.0938 4.57422L12.8125 4.29297ZM13.9281 4.29297L14.2 4.57422L13.9188 4.29297H13.9281Z" fill="#CCCCFF"/>
<path d="M13.0938 4.56641L13.375 4.84766L13.0938 4.56641ZM13.6469 4.56641L13.9281 4.84766L13.6469 4.56641Z" fill="#FFCCCC"/>
<path d="M12.5469 4.84766L12.8281 5.12891L12.5469 4.84766Z" fill="#66CCCC"/>
<path d="M13.3344 3.1875L11.3937 10.5469L4.01562 12.5625L11.3656 14.4844L13.3344 21.8344L15.2938 14.4844L22.6437 12.5156L15.2938 10.5562L13.325 3.20625L13.3344 3.1875Z" fill="#CC0000"/>
<path fill-rule="evenodd" clip-rule="evenodd" d="M13.1475 3.21437L11.2512 10.4054L3.34375 12.5656L11.2239 14.6261L13.3345 22.5056L15.4352 14.6254L23.3153 12.5147L15.435 10.4139L13.4922 3.16081L13.3887 3.18852L13.1789 3.10938L13.1401 3.18699L13.1475 3.21437ZM13.3282 3.88924L11.5356 10.6873L4.68687 12.5583L11.5067 14.3415L13.3337 21.162L15.1517 14.3422L21.9716 12.5155L15.1519 10.6974L13.3282 3.88924Z" fill="white"/>
<path d="M14.2031 4.84766L14.4844 5.12891L14.2031 4.84766Z" fill="#66CCCC"/>
<path d="M12.5469 5.11719L12.8281 5.39844L12.5469 5.11719ZM14.2062 5.11719L14.4875 5.39844L14.2062 5.11719Z" fill="#99CCFF"/>
<path d="M12.8125 5.39844L13.0938 5.67969L12.8125 5.39844ZM13.9281 5.39844L14.2 5.67969L13.9188 5.39844H13.9281Z" fill="#FFCCCC"/>
<path d="M12.2656 5.67188L12.5469 5.95312L12.2656 5.67188Z" fill="#6699CC"/>
<path d="M12.9062 5.85938L13 6.04688L12.9062 5.85938ZM14.0125 5.85938L14.1063 6.04688L14.0125 5.85938Z" fill="#CC3333"/>
<path d="M14.4844 5.67188L14.7656 5.95312L14.4844 5.67188Z" fill="#6699CC"/>
<path d="M12.2656 5.95312L12.5469 6.23438L12.2656 5.95312ZM14.4875 5.95312L14.7687 6.23438L14.4875 5.95312Z" fill="#99CCFF"/>
<path d="M12.5469 6.22656L12.8281 6.50781L12.5469 6.22656ZM14.2062 6.22656L14.4875 6.50781L14.2062 6.22656Z" fill="#FFCCCC"/>
<path d="M11.9922 6.50781L12.2734 6.78906L11.9922 6.50781ZM14.7578 6.50781L15.0391 6.78906L14.7578 6.50781Z" fill="#6699CC"/>
<path d="M11.9922 6.77734L12.2734 7.05859L11.9922 6.77734ZM14.7578 6.77734L15.0391 7.05859L14.7578 6.77734Z" fill="#99CCCC"/>
<path d="M11.9922 7.05859L12.2734 7.33984L11.9922 7.05859ZM14.7578 7.05859L15.0391 7.33984L14.7578 7.05859Z" fill="#CCFFFF"/>
<path d="M11.7203 7.34141L11.9922 7.61328L11.7109 7.33203L11.7203 7.34141Z" fill="#6699CC"/>
<path d="M12.2656 7.34141L12.5469 7.61328L12.2656 7.33203M14.4875 7.33203L14.7687 7.61328L14.4875 7.33203Z" fill="#FFCCCC"/>
<path d="M15.0391 7.34141L15.3203 7.61328L15.0391 7.33203V7.34141Z" fill="#6699CC"/>
<path d="M11.7203 7.61328L11.9922 7.89453L11.7109 7.61328H11.7203Z" fill="#99CCCC"/>
<path d="M12.3594 7.80078L12.4531 7.98828L12.3594 7.80078ZM14.5719 7.80078L14.6656 7.98828L14.5719 7.80078Z" fill="#CC3333"/>
<path d="M15.0391 7.61328L15.3203 7.89453L15.0391 7.61328Z" fill="#99CCCC"/>
<path d="M11.7203 7.89453L11.9922 8.17578L11.7109 7.89453M15.0391 7.89453L15.3203 8.17578L15.0391 7.89453Z" fill="#CCFFFF"/>
<path d="M11.9922 8.16406L12.2734 8.44531L11.9922 8.16406ZM14.7578 8.16406L15.0391 8.44531L14.7578 8.16406Z" fill="#FFCCCC"/>
<path d="M11.4375 8.4375L11.7188 8.71875L11.4375 8.4375Z" fill="#99CCCC"/>
<path d="M12.0859 8.625L12.1797 8.8125L12.0859 8.625ZM14.8516 8.625L14.9453 8.8125L14.8516 8.625Z" fill="#CC3333"/>
<path d="M15.3125 8.4375L15.5938 8.71875L15.3125 8.4375Z" fill="#99CCCC"/>
<path d="M11.4375 8.71875L11.7188 9L11.4375 8.71875ZM15.3094 8.71875L15.5906 9L15.3094 8.71875Z" fill="#CCCCFF"/>
<path d="M11.7203 9L11.9922 9.28125L11.7109 9M15.0391 9L15.3203 9.28125L15.0391 9Z" fill="#FFCCCC"/>
<path d="M11.1562 9.28281L11.4375 9.55469L11.1562 9.27344V9.28281Z" fill="#99CCCC"/>
<path d="M11.8141 9.46094L11.8984 9.64844L11.8047 9.46094M15.1234 9.46094L15.2172 9.64844L15.1234 9.46094Z" fill="#CC3333"/>
<path d="M15.5938 9.28281L15.875 9.55469L15.5938 9.27344V9.28281Z" fill="#99CCCC"/>
<path d="M11.1562 9.55469L11.4375 9.83594L11.1562 9.55469ZM15.5906 9.55469L15.8719 9.83594L15.5906 9.55469Z" fill="#CCCCFF"/>
<path d="M11.4375 9.82422L11.7188 10.1055L11.4375 9.82422ZM15.3094 9.82422L15.5906 10.1055L15.3094 9.82422Z" fill="#FFCCCC"/>
<path d="M10.875 10.1055L11.1562 10.3867L10.875 10.1055Z" fill="#99CCCC"/>
<path d="M11.4375 10.1055L11.7188 10.3867L11.4375 10.1055ZM15.3094 10.1055L15.5906 10.3867L15.3094 10.1055Z" fill="#CC3333"/>
<path d="M15.8594 10.1055L16.1406 10.3867L15.8594 10.1055ZM10.0469 10.3867L10.3281 10.6586L10.0469 10.3773V10.3867Z" fill="#99CCCC"/>
<path d="M10.3281 10.3789L10.6094 10.6602L10.3281 10.3789ZM16.4219 10.3789L16.6938 10.6602L16.4125 10.3789H16.4219Z" fill="#CCCCFF"/>
<path d="M16.6891 10.3789L16.9703 10.6602L16.6891 10.3789ZM9.22656 10.6602L9.50781 10.9414L9.22656 10.6602Z" fill="#99CCCC"/>
<path d="M9.5 10.6602L9.78125 10.9414L9.5 10.6602Z" fill="#CCCCFF"/>
<path d="M10.6016 10.6602L10.8828 10.9414L10.6016 10.6602Z" fill="#FFCCCC"/>
<path d="M10.875 10.6602L11.1562 10.9414L10.875 10.6602ZM15.8625 10.6602L16.1437 10.9414L15.8625 10.6602Z" fill="#CC3333"/>
<path d="M16.1406 10.6602L16.4219 10.9414L16.1406 10.6602Z" fill="#FFCCCC"/>
<path d="M17.25 10.6602L17.5312 10.9414L17.25 10.6602Z" fill="#CCCCFF"/>
<path d="M17.5328 10.6602L17.8047 10.9414L17.5234 10.6602H17.5328Z" fill="#99CCCC"/>
<path d="M8.11719 10.9297L8.39844 11.2109L8.11719 10.9297Z" fill="#6699CC"/>
<path d="M8.39062 10.9297L8.67188 11.2109L8.39062 10.9297Z" fill="#99CCCC"/>
<path d="M8.67188 10.9297L8.95312 11.2109L8.67188 10.9297Z" fill="#CCFFFF"/>
<path d="M9.78125 10.9297L10.0625 11.2109L9.78125 10.9297Z" fill="#FFCCCC"/>
<path d="M10.2344 11.0234L10.4219 11.1172L10.2344 11.0234ZM16.6 11.0234L16.7875 11.1172L16.6 11.0234Z" fill="#CC3333"/>
<path d="M16.9688 10.9297L17.25 11.2109L16.9688 10.9297Z" fill="#FFCCCC"/>
<path d="M18.0781 10.9297L18.3594 11.2109L18.0781 10.9297Z" fill="#CCFFFF"/>
<path d="M18.3594 10.9297L18.6406 11.2109L18.3594 10.9297Z" fill="#99CCCC"/>
<path d="M18.625 10.9297L18.9062 11.2109L18.625 10.9297ZM7.28125 11.2109L7.5625 11.4922L7.28125 11.2109Z" fill="#6699CC"/>
<path d="M7.5625 11.2109L7.84375 11.4922L7.5625 11.2109Z" fill="#99CCCC"/>
<path d="M7.83594 11.2109L8.11719 11.4922L7.83594 11.2109Z" fill="#CCFFFF"/>
<path d="M8.94531 11.2109L9.22656 11.4922L8.94531 11.2109Z" fill="#FFCCCC"/>
<path d="M9.40625 11.3047L9.59375 11.3984L9.40625 11.3047ZM17.4312 11.3047L17.6187 11.3984L17.4312 11.3047Z" fill="#CC3333"/>
<path d="M17.8047 11.2109L18.0859 11.4922L17.8047 11.2109Z" fill="#FFCCCC"/>
<path d="M18.9062 11.2109L19.1875 11.4922L18.9062 11.2109Z" fill="#CCFFFF"/>
<path d="M19.1797 11.2109L19.4609 11.4922L19.1797 11.2109Z" fill="#99CCCC"/>
<path d="M19.4656 11.2109L19.7469 11.4922L19.4656 11.2109ZM6.45312 11.4922L6.73438 11.7641L6.45312 11.4828V11.4922Z" fill="#6699CC"/>
<path d="M6.73438 11.4844L7.01562 11.7656L6.73438 11.4844Z" fill="#99CCFF"/>
<path d="M8.11719 11.4844L8.39844 11.7656L8.11719 11.4844Z" fill="#FFCCCC"/>
<path d="M8.57812 11.5781L8.76563 11.6719L8.57812 11.5781ZM18.2625 11.5781L18.45 11.6719L18.2625 11.5781Z" fill="#CC3333"/>
<path d="M18.625 11.4844L18.9062 11.7656L18.625 11.4844Z" fill="#FFCCCC"/>
<path d="M20.0156 11.4844L20.2969 11.7656L20.0156 11.4844Z" fill="#99CCFF"/>
<path d="M20.2891 11.4844L20.5703 11.7656L20.2891 11.4844Z" fill="#6699CC"/>
<path d="M5.625 11.7656L5.90625 12.0469L5.625 11.7656Z" fill="#66CCCC"/>
<path d="M5.90781 11.7656L6.17969 12.0469L5.89844 11.7656H5.90781Z" fill="#99CCFF"/>
<path d="M7.00938 11.7656L7.28125 12.0469L7 11.7656H7.00938ZM19.7406 11.7656L20.0125 12.0469L19.7313 11.7656H19.7406Z" fill="#FFCCCC"/>
<path d="M20.8438 11.7656L21.125 12.0469L20.8438 11.7656Z" fill="#99CCFF"/>
<path d="M21.1203 11.7656L21.4016 12.0469L21.1203 11.7656ZM4.78906 12.0469L5.07031 12.3187L4.78906 12.0375V12.0469Z" fill="#66CCCC"/>
<path d="M5.0625 12.0391L5.34375 12.3203L5.0625 12.0391Z" fill="#CCCCFF"/>
<path d="M6.17969 12.0391L6.46094 12.3203L6.17969 12.0391Z" fill="#FFCCCC"/>
<path d="M6.64062 12.1328L6.82812 12.2266L6.64062 12.1328ZM20.2062 12.1328L20.3937 12.2266L20.2062 12.1328Z" fill="#CC3333"/>
<path d="M20.5703 12.0391L20.8516 12.3203L20.5703 12.0391Z" fill="#FFCCCC"/>
<path d="M21.6719 12.0391L21.9531 12.3203L21.6719 12.0391Z" fill="#CCCCFF"/>
<path d="M21.9531 12.0391L22.2344 12.3203L21.9531 12.0391Z" fill="#66CCCC"/>
<path d="M3.96875 12.3203L4.25 12.6016L3.96875 12.3203Z" fill="#99CCCC"/>
<path d="M4.23438 12.3203L4.51562 12.6016L4.23438 12.3203Z" fill="#CCCCFF"/>
<path d="M5.34375 12.3203L5.625 12.6016L5.34375 12.3203ZM21.4031 12.3203L21.6844 12.6016L21.4031 12.3203Z" fill="#FFCCCC"/>
<path d="M22.5 12.3203L22.7812 12.6016L22.5 12.3203Z" fill="#CCCCFF"/>
<path d="M22.7828 12.3203L23.0641 12.6016L22.7828 12.3203ZM3.41406 12.6016L3.69531 12.8734L3.41406 12.5922V12.6016Z" fill="#99CCCC"/>
<path d="M4.78906 12.5898L5.07031 12.8711L4.78906 12.5898ZM21.9453 12.5898L22.2266 12.8711L21.9453 12.5898Z" fill="#CC6666"/>
<path d="M23.3469 12.5898L23.6187 12.8711L23.3375 12.5898M3.96875 12.8711L4.25 13.1523L3.96875 12.8711Z" fill="#99CCCC"/>
<path d="M4.23438 12.8711L4.51562 13.1523L4.23438 12.8711Z" fill="#CCCCFF"/>
<path d="M5.34375 12.8711L5.625 13.1523L5.34375 12.8711ZM21.4031 12.8711L21.6844 13.1523L21.4031 12.8711Z" fill="#FFCCCC"/>
<path d="M22.5 12.8711L22.7812 13.1523L22.5 12.8711Z" fill="#CCCCFF"/>
<path d="M22.7812 12.8711L23.0625 13.1523L22.7812 12.8711Z" fill="#99CCCC"/>
<path d="M4.78906 13.1539L5.07031 13.4258L4.78906 13.1445V13.1539Z" fill="#66CCCC"/>
<path d="M5.0625 13.1539L5.34375 13.4258L5.0625 13.1445V13.1539Z" fill="#CCCCFF"/>
<path d="M6.17969 13.1539L6.46094 13.4258L6.17969 13.1445V13.1539Z" fill="#FFCCCC"/>
<path d="M6.64062 13.2383L6.82812 13.332L6.64062 13.2383ZM20.2062 13.2383L20.3937 13.332L20.2062 13.2383Z" fill="#CC3333"/>
<path d="M20.5703 13.1539L20.8516 13.4258L20.5703 13.1445V13.1539Z" fill="#FFCCCC"/>
<path d="M21.6719 13.1539L21.9531 13.4258L21.6719 13.1445V13.1539Z" fill="#CCCCFF"/>
<path d="M21.9562 13.1539L22.2375 13.4258L21.9562 13.1445M5.625 13.4258L5.90625 13.707L5.625 13.4258Z" fill="#66CCCC"/>
<path d="M5.90781 13.4258L6.17969 13.707L5.89844 13.4258H5.90781Z" fill="#99CCFF"/>
<path d="M7.00938 13.4258L7.28125 13.707L7 13.4258H7.00938ZM19.7406 13.4258L20.0125 13.707L19.7313 13.4258H19.7406Z" fill="#FFCCCC"/>
<path d="M20.8438 13.4258L21.125 13.707L20.8438 13.4258Z" fill="#99CCFF"/>
<path d="M21.125 13.4258L21.4062 13.707L21.125 13.4258Z" fill="#66CCCC"/>
<path d="M6.45312 13.7047L6.73438 13.9766L6.45312 13.6953V13.7047Z" fill="#6699CC"/>
<path d="M6.73438 13.7047L7.01562 13.9766L6.73438 13.6953V13.7047Z" fill="#99CCFF"/>
<path d="M8.11719 13.7047L8.39844 13.9766L8.11719 13.6953V13.7047Z" fill="#FFCCCC"/>
<path d="M8.57812 13.7891L8.76563 13.8828L8.57812 13.7891ZM18.2625 13.7891L18.45 13.8828L18.2625 13.7891Z" fill="#CC3333"/>
<path d="M18.625 13.7047L18.9062 13.9766L18.625 13.6953V13.7047Z" fill="#FFCCCC"/>
<path d="M20.0156 13.7047L20.2969 13.9766L20.0156 13.6953V13.7047Z" fill="#99CCFF"/>
<path d="M20.2844 13.7047L20.5656 13.9766L20.2844 13.6953M7.28125 13.9766L7.5625 14.2578L7.28125 13.9766Z" fill="#6699CC"/>
<path d="M7.5625 13.9766L7.84375 14.2578L7.5625 13.9766Z" fill="#99CCCC"/>
<path d="M7.83594 13.9766L8.11719 14.2578L7.83594 13.9766Z" fill="#CCFFFF"/>
<path d="M8.94531 13.9766L9.22656 14.2578L8.94531 13.9766Z" fill="#FFCCCC"/>
<path d="M9.40625 14.0625L9.59375 14.1562L9.40625 14.0625ZM17.4312 14.0625L17.6187 14.1562L17.4312 14.0625Z" fill="#CC3333"/>
<path d="M17.8047 13.9766L18.0859 14.2578L17.8047 13.9766Z" fill="#FFCCCC"/>
<path d="M18.9062 13.9766L19.1875 14.2578L18.9062 13.9766Z" fill="#CCFFFF"/>
<path d="M19.1797 13.9766L19.4609 14.2578L19.1797 13.9766Z" fill="#99CCCC"/>
<path d="M19.4625 13.9766L19.7438 14.2578L19.4625 13.9766ZM8.11875 14.2578L8.39062 14.5297L8.10938 14.2484L8.11875 14.2578Z" fill="#6699CC"/>
<path d="M8.39062 14.25L8.67188 14.5312L8.39062 14.25Z" fill="#99CCCC"/>
<path d="M8.67188 14.25L8.95312 14.5312L8.67188 14.25Z" fill="#CCFFFF"/>
<path d="M9.78125 14.25L10.0625 14.5312L9.78125 14.25Z" fill="#FFCCCC"/>
<path d="M10.2344 14.3438L10.4219 14.4375L10.2344 14.3438ZM16.6 14.3438L16.7875 14.4375L16.6 14.3438Z" fill="#CC3333"/>
<path d="M16.9688 14.25L17.25 14.5312L16.9688 14.25Z" fill="#FFCCCC"/>
<path d="M18.0781 14.25L18.3594 14.5312L18.0781 14.25Z" fill="#CCFFFF"/>
<path d="M18.3594 14.25L18.6406 14.5312L18.3594 14.25Z" fill="#99CCCC"/>
<path d="M18.625 14.25L18.9062 14.5312L18.625 14.25Z" fill="#6699CC"/>
<path d="M9.22656 14.5312L9.50781 14.8125L9.22656 14.5312Z" fill="#99CCCC"/>
<path d="M9.5 14.5312L9.78125 14.8125L9.5 14.5312Z" fill="#CCCCFF"/>
<path d="M10.6016 14.5312L10.8828 14.8125L10.6016 14.5312Z" fill="#FFCCCC"/>
<path d="M10.875 14.5312L11.1562 14.8125L10.875 14.5312ZM15.8625 14.5312L16.1437 14.8125L15.8625 14.5312Z" fill="#CC3333"/>
<path d="M16.1406 14.5312L16.4219 14.8125L16.1406 14.5312Z" fill="#FFCCCC"/>
<path d="M17.25 14.5312L17.5312 14.8125L17.25 14.5312Z" fill="#CCCCFF"/>
<path d="M17.5281 14.5312L17.8 14.8125L17.5187 14.5312M10.0469 14.8125L10.3281 15.0938L10.0469 14.8125Z" fill="#99CCCC"/>
<path d="M10.3281 14.8125L10.6094 15.0938L10.3281 14.8125ZM16.4219 14.8125L16.6938 15.0938L16.4125 14.8125H16.4219Z" fill="#CCCCFF"/>
<path d="M16.6875 14.8125L16.9688 15.0938L16.6875 14.8125ZM10.875 15.0938L11.1562 15.3656L10.875 15.0844V15.0938Z" fill="#99CCCC"/>
<path d="M11.4375 15.0953L11.7188 15.3672L11.4375 15.0859M15.3094 15.0859L15.5906 15.3672L15.3094 15.0859Z" fill="#CC3333"/>
<path d="M15.8594 15.0953L16.1406 15.3672L15.8594 15.0859V15.0953Z" fill="#99CCCC"/>
<path d="M11.4375 15.3672L11.7188 15.6484L11.4375 15.3672ZM15.3094 15.3672L15.5906 15.6484L15.3094 15.3672Z" fill="#FFCCCC"/>
<path d="M11.1562 15.6367L11.4375 15.918L11.1562 15.6367Z" fill="#CCCCFF"/>
<path d="M11.8141 15.8242L11.8984 16.0117L11.8047 15.8242M15.1234 15.8242L15.2172 16.0117L15.1234 15.8242Z" fill="#CC3333"/>
<path d="M15.5938 15.6367L15.875 15.918L15.5938 15.6367Z" fill="#CCCCFF"/>
<path d="M11.1562 15.918L11.4375 16.1992L11.1562 15.918ZM15.5906 15.918L15.8719 16.1992L15.5906 15.918Z" fill="#99CCCC"/>
<path d="M11.7203 16.1914L11.9922 16.4727L11.7109 16.1914M15.0391 16.1914L15.3203 16.4727L15.0391 16.1914Z" fill="#FFCCCC"/>
<path d="M11.4375 16.4727L11.7188 16.7539L11.4375 16.4727Z" fill="#CCCCFF"/>
<path d="M12.0859 16.6484L12.1797 16.8359L12.0859 16.6484ZM14.8516 16.6484L14.9453 16.8359L14.8516 16.6484Z" fill="#CC3333"/>
<path d="M15.3125 16.4727L15.5938 16.7539L15.3125 16.4727Z" fill="#CCCCFF"/>
<path d="M11.4375 16.7422L11.7188 17.0234L11.4375 16.7422ZM15.3094 16.7422L15.5906 17.0234L15.3094 16.7422Z" fill="#99CCCC"/>
<path d="M11.9922 17.0234L12.2734 17.3047L11.9922 17.0234ZM14.7578 17.0234L15.0391 17.3047L14.7578 17.0234Z" fill="#FFCCCC"/>
<path d="M11.7203 17.2969L11.9922 17.5781L11.7109 17.2969H11.7203Z" fill="#CCFFFF"/>
<path d="M12.3594 17.4844L12.4531 17.6719L12.3594 17.4844ZM14.5719 17.4844L14.6656 17.6719L14.5719 17.4844Z" fill="#CC3333"/>
<path d="M15.0391 17.2969L15.3203 17.5781L15.0391 17.2969Z" fill="#CCFFFF"/>
<path d="M11.7203 17.5781L11.9922 17.8594L11.7109 17.5781M15.0391 17.5781L15.3203 17.8594L15.0391 17.5781Z" fill="#99CCCC"/>
<path d="M11.7203 17.8516L11.9922 18.1328L11.7109 17.8516H11.7203Z" fill="#6699CC"/>
<path d="M12.2656 17.8516L12.5469 18.1328L12.2656 17.8516ZM14.4875 17.8516L14.7687 18.1328L14.4875 17.8516Z" fill="#FFCCCC"/>
<path d="M15.0391 17.8516L15.3203 18.1328L15.0391 17.8516Z" fill="#6699CC"/>
<path d="M11.9922 18.1328L12.2734 18.4141L11.9922 18.1328ZM14.7578 18.1328L15.0391 18.4141L14.7578 18.1328Z" fill="#CCFFFF"/>
<path d="M11.9922 18.4023L12.2734 18.6836L11.9922 18.4023ZM14.7578 18.4023L15.0391 18.6836L14.7578 18.4023Z" fill="#99CCCC"/>
<path d="M11.9922 18.6836L12.2734 18.9648L11.9922 18.6836ZM14.7578 18.6836L15.0391 18.9648L14.7578 18.6836Z" fill="#6699CC"/>
<path d="M12.5469 18.957L12.8281 19.2383L12.5469 18.957ZM14.2062 18.957L14.4875 19.2383L14.2062 18.957Z" fill="#FFCCCC"/>
<path d="M12.2656 19.2383L12.5469 19.5195L12.2656 19.2383Z" fill="#99CCFF"/>
<path d="M12.9062 19.4258L13 19.6133L12.9062 19.4258ZM14.0125 19.4258L14.1063 19.6133L14.0125 19.4258Z" fill="#CC3333"/>
<path d="M14.4844 19.2383L14.7656 19.5195L14.4844 19.2383Z" fill="#99CCFF"/>
<path d="M12.2656 19.5172L12.5469 19.7891L12.2656 19.5078M14.4875 19.5078L14.7687 19.7891L14.4875 19.5078Z" fill="#6699CC"/>
<path d="M12.8125 19.7891L13.0938 20.0703L12.8125 19.7891ZM13.9281 19.7891L14.2 20.0703L13.9188 19.7891H13.9281Z" fill="#FFCCCC"/>
<path d="M12.5469 20.0625L12.8281 20.3438L12.5469 20.0625ZM14.2062 20.0625L14.4875 20.3438L14.2062 20.0625Z" fill="#99CCFF"/>
<path d="M12.5469 20.3438L12.8281 20.625L12.5469 20.3438ZM14.2062 20.3438L14.4875 20.625L14.2062 20.3438Z" fill="#66CCCC"/>
<path d="M13.0938 20.625L13.375 20.9062L13.0938 20.625ZM13.6469 20.625L13.9281 20.9062L13.6469 20.625Z" fill="#FFCCCC"/>
<path d="M12.8125 20.8984L13.0938 21.1797L12.8125 20.8984ZM13.9281 20.8984L14.2 21.1797L13.9188 20.8984H13.9281Z" fill="#CCCCFF"/>
<path d="M12.8125 21.1797L13.0938 21.4609L12.8125 21.1797Z" fill="#66CCCC"/>
<path d="M13.3766 21.1797L13.6484 21.4609L13.3672 21.1797H13.3766Z" fill="#CC6666"/>
<path d="M13.9313 21.1797L14.2031 21.4609L13.9219 21.1797H13.9313Z" fill="#66CCCC"/>
<path d="M13.0938 21.7305L13.375 22.0117L13.0938 21.7305ZM13.6469 21.7305L13.9281 22.0117L13.6469 21.7305Z" fill="#CCCCFF"/>
<path d="M13.0938 22.0039L13.375 22.2852L13.0938 22.0039ZM13.6469 22.0039L13.9281 22.2852L13.6469 22.0039ZM13.3656 22.5664L13.6469 22.8383L13.3656 22.557V22.5664Z" fill="#99CCCC"/>
</g>
<defs>
<clipPath id="clip0_4046_9991">
<rect width="60" height="45" fill="white"/>
</clipPath>
</defs>
</svg>
