<svg width="60" height="45" viewBox="0 0 60 45" fill="none" xmlns="http://www.w3.org/2000/svg">
<g clip-path="url(#clip0_4046_10187)">
<path fill-rule="evenodd" clip-rule="evenodd" d="M0 0H59.9941V45H0V0Z" fill="#000099"/>
<path fill-rule="evenodd" clip-rule="evenodd" d="M12.4609 0L57.373 45.0264V0.0263672L12.4609 0Z" fill="#FFCC00"/>
<path fill-rule="evenodd" clip-rule="evenodd" d="M46.1592 42.3193L43.707 40.5352L41.1934 42.3105L42.1426 39.3926L39.6641 37.5908H42.7402L43.6895 34.6729L44.6299 37.5996H47.7061L45.2451 39.4189L46.1592 42.3193ZM53.3047 43.2334L50.2285 43.2246L49.2881 40.2979L48.3389 43.2158H45.2627L47.7412 45.0176L46.792 47.9356L49.3057 46.1602L51.7666 47.9443L50.8438 45.0439L53.3047 43.2334V43.2334ZM39.6289 33.8115L42.0898 31.9922L39.0137 31.9834L38.0732 29.0654L37.124 31.9834L34.0479 31.9746L36.5264 33.7764L35.5771 36.7031L38.0908 34.9189L40.5518 36.7119L39.6289 33.8115V33.8115ZM33.9775 28.1426L36.4385 26.332L33.3623 26.3232L32.4219 23.3965L31.4639 26.3145H28.3965L30.875 28.1162L29.9258 31.0342L32.4395 29.2588L34.8916 31.043L33.9775 28.1426V28.1426ZM28.3789 22.5527L30.8398 20.7334H27.7637L26.832 17.7979L25.8828 20.7158H22.8066L25.2852 22.5088L24.3359 25.4355L26.8496 23.6514L29.3105 25.4443L28.3877 22.5439L28.3789 22.5527ZM22.7188 16.9014L25.1797 15.0908L22.1035 15.082L21.1631 12.1553L20.2051 15.0732H17.1377L19.625 16.875L18.6758 19.793L21.1895 18.0176L23.6416 19.8018L22.7275 16.9014H22.7188ZM17.1289 11.2852L19.5811 9.46582H16.5049L15.5732 6.53027L14.6152 9.45703H11.5391L14.0352 11.25L13.0771 14.168L15.5908 12.3926L18.0342 14.1855L17.1289 11.2852V11.2852ZM11.5039 5.66016L13.9561 3.84082H10.8799L9.94824 0.905273L8.99023 3.83203H5.91406L8.41016 5.625L7.44336 8.55176L9.96582 6.76758L12.4092 8.56055L11.5039 5.66016V5.66016ZM5.87891 0.0351566L8.32227 -1.78418H5.24609L4.30566 -4.71094L3.36523 -1.79297H0.289062L2.77637 0L1.82715 2.91797L4.34082 1.14258L6.78418 2.93555L5.87891 0.0351566V0.0351566Z" fill="white"/>
</g>
<defs>
<clipPath id="clip0_4046_10187">
<rect width="60" height="45" fill="white"/>
</clipPath>
</defs>
</svg>
