<svg width="60" height="45" viewBox="0 0 60 45" fill="none" xmlns="http://www.w3.org/2000/svg">
<g clip-path="url(#clip0_4046_10192)">
<path d="M0 0H60V45H0V0Z" fill="#00267F"/>
<path d="M20 0H40.0063V45H20V0Z" fill="#FFC726"/>
<path d="M29.9842 12.7031C29.3279 14.4844 28.6717 16.3219 27.2467 17.7375C27.6873 17.5875 28.4654 17.4562 28.9529 17.475V24.9281L26.8529 25.2375C26.7779 25.2375 26.7592 25.1156 26.7592 24.9563C26.5529 22.6406 26.0092 20.6906 25.3717 18.675C25.3248 18.4031 24.5279 17.3625 25.1467 17.55C25.2217 17.55 26.0373 17.8875 25.9154 17.7281C24.7375 16.5401 23.2156 15.7529 21.5654 15.4781C21.4248 15.45 21.3404 15.525 21.4717 15.6844C23.5717 18.9281 25.3435 22.7625 25.3248 27.3094C26.1498 27.3094 28.1373 26.8219 28.9529 26.8219V32.0813H30.0029L30.2373 17.3906L29.9842 12.7031Z" fill="black"/>
</g>
<defs>
<clipPath id="clip0_4046_10192">
<rect width="60" height="45" fill="white"/>
</clipPath>
</defs>
</svg>
