<svg width="60" height="45" viewBox="0 0 60 45" fill="none" xmlns="http://www.w3.org/2000/svg">
<g clip-path="url(#clip0_4046_10218)">
<path fill-rule="evenodd" clip-rule="evenodd" d="M-7.6875 0L30 22.5L-7.6875 45V0ZM67.6875 0L30 22.5L67.6875 45V0Z" fill="#18B637"/>
<path fill-rule="evenodd" clip-rule="evenodd" d="M-7.6875 0L30 22.5L67.6875 0H-7.6875ZM-7.6875 45L30 22.5L67.6875 45H-7.6875Z" fill="#CF0921"/>
<path fill-rule="evenodd" clip-rule="evenodd" d="M67.6875 0H60.665L-7.6875 40.8076V45H-0.665039L67.6875 4.19238V0Z" fill="white"/>
<path fill-rule="evenodd" clip-rule="evenodd" d="M43.0166 22.5C43.0166 25.9511 41.6457 29.2608 39.2054 31.701C36.7652 34.1413 33.4554 35.5122 30.0044 35.5122C26.5533 35.5122 23.2436 34.1413 20.8034 31.701C18.3631 29.2608 16.9922 25.9511 16.9922 22.5C16.9922 19.0501 18.3626 15.7415 20.8021 13.3021C23.2415 10.8626 26.5501 9.49219 30 9.49219C33.4499 9.49219 36.7585 10.8626 39.1979 13.3021C41.6374 15.7415 43.0078 19.0501 43.0078 22.5H43.0166Z" fill="white"/>
<path fill-rule="evenodd" clip-rule="evenodd" d="M-7.6875 0V4.19238L60.665 45H67.6875V40.8076L-0.665039 0H-7.6875Z" fill="white"/>
<path fill-rule="evenodd" clip-rule="evenodd" d="M32.5674 17.5957L30.8711 17.6221L29.9922 19.0635L29.1221 17.6221L27.4346 17.5869L28.252 16.1016L27.4434 14.625L29.1309 14.5898L30.0098 13.1484L30.8799 14.5986L32.5674 14.6338L31.75 16.1104L32.5674 17.5957ZM26.8896 27.4043L25.2021 27.4307L24.3232 28.8721L23.4531 27.4307L21.7656 27.3955L22.583 25.9102L21.7744 24.4336L23.4619 24.3984L24.3408 22.957L25.2109 24.4072L26.8984 24.4424L26.0811 25.9189L26.8896 27.4043ZM38.3682 27.4043L36.6807 27.4307L35.8018 28.8721L34.9229 27.4307L33.2441 27.3955L34.0615 25.9102L33.2441 24.4336L34.9316 24.3984L35.8105 22.957L36.6895 24.4072L38.377 24.4424L37.5508 25.9189L38.3682 27.4043Z" fill="#CF0921"/>
<path fill-rule="evenodd" clip-rule="evenodd" d="M30.0086 12.8164L30.9757 14.4284L32.8525 14.4675L31.9434 16.1097L32.8525 17.7618L30.9658 17.7911L29.9891 19.393L29.0217 17.7906L27.1455 17.7515L28.054 16.1005L27.155 14.4586L29.031 14.4196L30.0086 12.8164ZM30.0062 13.4787L29.2259 14.7584L27.727 14.7896L28.4451 16.1009L27.7188 17.4206L29.2176 17.4518L29.9905 18.7322L30.7716 17.4513L32.2775 17.4279L31.5519 16.1092L32.2775 14.7983L30.7792 14.7671L30.0062 13.4787ZM24.3396 22.625L25.3068 24.237L27.1835 24.2761L26.2742 25.9187L27.1733 27.5703L25.2969 27.5997L24.3201 29.2016L23.3528 27.5992L21.4766 27.5601L22.3851 25.9091L21.486 24.2672L23.3621 24.2282L24.3396 22.625ZM35.8086 22.6262L36.7848 24.237L38.6635 24.2761L37.7444 25.9187L38.6532 27.5703L36.7754 27.5997L35.7994 29.2004L34.823 27.5992L32.9551 27.56L33.8634 25.9095L32.9543 24.2673L34.8318 24.2282L35.8086 22.6262ZM24.3372 23.2873L23.557 24.5669L22.058 24.5982L22.7761 25.9095L22.0499 27.2292L23.5487 27.2604L24.3216 28.5408L25.1026 27.2599L26.6012 27.2365L25.8831 25.9174L26.6086 24.6069L25.1103 24.5757L24.3372 23.2873ZM35.8077 23.2861L35.0267 24.5669L33.5292 24.5981L34.2549 25.909L33.5284 27.2292L35.0179 27.2604L35.7994 28.542L36.5811 27.2599L38.0783 27.2365L37.3524 25.9174L38.0856 24.6069L36.5893 24.5757L35.8077 23.2861Z" fill="#18B637"/>
</g>
<defs>
<clipPath id="clip0_4046_10218">
<rect width="60" height="45" fill="white"/>
</clipPath>
</defs>
</svg>
