<svg width="60" height="45" viewBox="0 0 60 45" fill="none" xmlns="http://www.w3.org/2000/svg">
<g clip-path="url(#clip0_4046_10371)">
<path d="M0 0H60V45H0V0Z" fill="#F7E017"/>
<path d="M0 3.12109V23.1273L60 32.5023V21.8711L0 3.12109Z" fill="white"/>
<path d="M0 13.7539V23.1289L60 41.8789V32.5039L0 13.7539Z" fill="black"/>
<path d="M28.4823 35.6069C27.3853 35.4858 26.3298 35.1183 25.3948 34.5319C25.2448 34.4319 25.1073 34.3444 25.0823 34.3444C25.0573 34.3444 25.0448 34.4632 25.0448 34.6007C25.0448 35.0007 24.8823 35.2007 24.4823 35.3069C24.0948 35.4069 23.5073 35.2069 23.0323 34.8069C22.5819 34.4215 22.0561 34.1342 21.4885 33.9632C20.8973 33.8224 20.2749 33.9024 19.7385 34.1882C19.6855 34.2255 19.6262 34.253 19.5635 34.2694C19.4948 34.2694 19.501 33.8382 19.576 33.7069C19.6698 33.5194 19.8948 33.3444 20.1635 33.2507C20.301 33.2007 20.4135 33.1382 20.4135 33.1069C20.4135 33.0819 20.3635 32.9819 20.3073 32.8819C20.126 32.5632 20.201 32.2569 20.5198 32.0132C20.8448 31.7632 21.3948 31.7257 21.876 31.9069C21.9573 31.9416 22.0408 31.9708 22.126 31.9944C22.1885 31.9944 22.151 31.9007 21.976 31.6444C21.776 31.3507 21.7323 31.2069 21.7573 30.8507C21.7744 30.6326 21.8689 30.4278 22.0235 30.2732C22.1782 30.1185 22.383 30.0241 22.601 30.0069C22.9635 29.9819 23.1885 30.1069 23.726 30.6132C25.1696 32.0662 27.0657 32.9834 29.1011 33.2132C29.6198 33.2757 30.6511 33.2444 31.2573 33.1507C33.1779 32.8302 34.9585 31.9421 36.3698 30.6007C36.7698 30.2257 36.9573 30.1257 37.2886 30.1257C37.5698 30.1257 37.7699 30.2132 37.9761 30.4382C38.1636 30.6444 38.2261 30.8382 38.2011 31.1569C38.1886 31.3569 38.1574 31.4507 38.0386 31.6507C37.8636 31.9319 37.8949 31.9632 38.2386 31.8257C38.7136 31.6382 39.2949 31.7257 39.6074 32.0257C39.8824 32.2882 39.9074 32.5507 39.6949 32.9007C39.6136 33.0319 39.5511 33.1507 39.5511 33.1757C39.5511 33.2132 39.6136 33.2257 39.8949 33.2757C40.2699 33.3382 40.4886 33.6132 40.4886 34.0382C40.4886 34.1632 40.4699 34.2694 40.4511 34.2694C40.4324 34.2694 40.2886 34.2132 40.1386 34.1507C39.7011 33.9694 39.4511 33.9257 38.9386 33.9319C38.5511 33.9319 38.4199 33.9507 38.1511 34.0382C37.7012 34.1946 37.287 34.439 36.9323 34.7569C36.5323 35.1132 36.2823 35.2257 35.8948 35.2194C35.5323 35.2194 35.2886 35.1132 35.1573 34.9069C35.0886 34.7944 35.0761 34.7319 35.0948 34.4819C35.1073 34.3194 35.1011 34.1882 35.0948 34.1882C35.0761 34.1882 34.9386 34.2757 34.7823 34.3819C34.4256 34.6377 34.0368 34.8458 33.6261 35.0007C31.9811 35.5965 30.2207 35.804 28.4823 35.6069Z" fill="#CF1126"/>
<path d="M29.1461 32.8266C27.9371 32.7155 26.7658 32.3475 25.7106 31.7471C24.6553 31.1467 23.7405 30.3279 23.0273 29.3454C21.5023 27.2704 21.0273 24.5266 21.4898 22.0203C21.7398 20.8766 22.2398 19.7328 23.0835 18.9203C22.388 20.3638 22.1965 21.9989 22.5398 23.5641C23.1023 26.6766 25.7273 29.3079 28.8711 29.7641C30.1211 30.1204 31.4023 29.7391 32.5898 29.3579C35.2149 28.4329 37.2149 25.9453 37.4524 23.1641C37.6586 21.6641 37.4336 20.0953 36.7524 18.7266C37.1399 18.9328 37.6274 19.7391 37.9149 20.2766C38.9149 22.2141 38.9586 24.5328 38.3711 26.6016C37.5711 29.2329 35.5586 31.5391 32.9023 32.3766C31.6905 32.7552 30.4193 32.9078 29.1523 32.8266H29.1461Z" fill="#CF1126"/>
<path d="M17.0005 29.3737C16.8442 29.3487 16.6692 29.505 16.7317 29.6675C16.8442 29.83 17.0442 29.9175 17.2192 29.9925C17.6803 30.1725 18.1753 30.2493 18.6693 30.2175C19.0317 30.2176 19.3913 30.1541 19.7318 30.03C19.9193 29.9675 20.1568 29.905 20.2318 29.6925C20.313 29.5612 20.1693 29.4237 20.038 29.4487C19.8505 29.4925 19.663 29.5737 19.4755 29.63C19.0634 29.7467 18.6337 29.789 18.2067 29.755C17.896 29.7098 17.5931 29.6214 17.3067 29.4925C17.2067 29.4487 17.113 29.3862 17.0005 29.3737V29.3737Z" fill="#CF1126"/>
<path d="M17.1764 28.721C17.0201 28.696 16.8826 28.8835 16.9451 29.0335C17.0701 29.2085 17.2764 29.3023 17.4701 29.3835C17.8081 29.5161 18.1698 29.5778 18.5326 29.5648H18.6264C18.935 29.5661 19.2408 29.5066 19.5264 29.3898C19.6951 29.321 19.9076 29.2523 19.9826 29.0648C20.0389 28.9585 19.9951 28.8085 19.8576 28.796C19.7451 28.796 19.6389 28.871 19.5264 28.9023C19.1192 29.0704 18.6778 29.139 18.2389 29.1023C17.9639 29.071 17.7076 28.971 17.4576 28.8523C17.3639 28.8085 17.2826 28.7398 17.1764 28.7273V28.721Z" fill="#CF1126"/>
<path d="M17.3978 28.1031C17.2603 28.0844 17.1665 28.2406 17.1915 28.3594C17.2103 28.4719 17.304 28.5469 17.3853 28.6094C17.7256 28.8451 18.1344 28.9615 18.5478 28.9406H18.6478C18.9077 28.9387 19.1639 28.8789 19.3978 28.7656C19.5541 28.7031 19.7353 28.6219 19.7916 28.4406C19.8166 28.3594 19.8291 28.2406 19.7353 28.1906C19.6353 28.1406 19.5416 28.2219 19.4541 28.2531C19.1551 28.4102 18.823 28.4937 18.4853 28.4969C18.1954 28.4853 17.9134 28.3992 17.6665 28.2469C17.5728 28.2031 17.4978 28.1219 17.3978 28.1031V28.1031Z" fill="#CF1126"/>
<path d="M15.0952 18.9219C14.8952 19.1281 15.0514 19.5031 15.0327 19.7656C15.1452 20.5906 15.2764 21.4219 15.5827 22.2031C15.9577 22.9531 16.7577 23.3594 17.2389 24.0281C17.4139 24.3469 17.3514 24.7344 17.389 25.0907C17.414 26.0469 17.4077 27.0094 17.389 27.9657C17.8265 28.1907 18.2952 28.4032 18.7952 28.3219C19.089 28.2532 19.639 28.2094 19.7015 27.9157L19.639 22.9469C19.4702 22.4406 18.9515 22.1781 18.5702 21.8531C18.2515 21.5386 17.955 21.2023 17.6827 20.8469C17.5202 20.5656 16.8764 20.4719 17.1077 20.9469C17.2452 21.3656 17.5889 21.6719 17.6764 22.1094C17.6952 22.3531 17.989 22.7969 17.739 22.9344C17.585 22.6627 17.3516 22.4447 17.0702 22.3094C16.7952 22.1031 16.3389 22.0156 16.2389 21.6531C16.1489 21.1375 15.9099 20.6595 15.5514 20.2781C15.6452 19.8156 15.5514 19.2344 15.1514 18.9344L15.0952 18.9219V18.9219Z" fill="#CF1126"/>
<path d="M15.7125 19.0156C15.525 19.0469 15.5375 19.2781 15.6188 19.4031C15.7114 19.6721 15.735 19.9601 15.6875 20.2406C16.0303 20.6223 16.2597 21.092 16.35 21.5969C16.35 21.7844 16.55 21.8469 16.6813 21.9406C16.9875 22.1344 17.325 22.2781 17.6 22.5219C17.6563 22.5844 17.7 22.6469 17.6625 22.5219C17.6188 22.3594 17.6 22.1844 17.475 22.0656C17.3 21.8781 17.0875 21.7156 16.8375 21.6656C16.8188 21.4031 16.6938 21.1656 16.5813 20.9406C16.4563 20.7219 16.325 20.4906 16.1125 20.3531C16.1125 19.9719 16.1125 19.5719 15.95 19.2156C15.9 19.1281 15.825 19.0219 15.7125 19.0156Z" fill="#CF1126"/>
<path d="M16.2337 19.1641C16.1087 19.2016 16.1337 19.3641 16.1712 19.4578C16.2257 19.7292 16.2467 20.0063 16.2337 20.2828C16.4774 20.4703 16.6212 20.7453 16.7587 21.0078C16.8462 21.1828 16.9212 21.3703 16.9524 21.5641C17.1462 21.6266 17.3149 21.7516 17.4649 21.8766C17.4024 21.7016 17.2774 21.5641 17.1837 21.3953C17.0899 21.2266 16.9962 21.0453 16.9524 20.8516C16.7649 20.6578 16.6649 20.3766 16.7024 20.1016C16.7149 19.8078 16.6212 19.5016 16.4212 19.2766C16.3712 19.2266 16.3087 19.1703 16.2337 19.1641Z" fill="#CF1126"/>
<path d="M16.8251 19.2517C16.7501 19.2642 16.7126 19.3267 16.6751 19.3829C16.6563 19.4392 16.7251 19.4954 16.7376 19.5579C16.8193 19.7642 16.8493 19.9874 16.8251 20.2079C16.8188 20.3642 16.8751 20.5204 16.9501 20.6454C16.9641 20.5973 16.9927 20.5547 17.0318 20.5234C17.071 20.492 17.1188 20.4736 17.1688 20.4704C17.2001 20.4704 17.2563 20.4829 17.2313 20.4267C17.2063 20.1267 17.1626 19.8267 17.0563 19.5517C17.0256 19.4433 16.9649 19.3459 16.8813 19.2704C16.8688 19.2579 16.8438 19.2454 16.8188 19.2517H16.8251Z" fill="#CF1126"/>
<path d="M29.7359 29.7509C29.3138 29.7052 28.9135 29.5397 28.5824 29.2739C28.2513 29.0082 28.0031 28.6532 27.8672 28.2509C27.8859 28.1134 28.0547 28.3259 28.1359 28.3446C28.2884 28.4355 28.4592 28.491 28.6359 28.5071C28.8547 28.6009 28.9922 28.8196 29.2047 28.9384C29.3047 29.0134 29.6547 29.1634 29.5859 28.9196C29.5047 28.7946 29.4484 28.6321 29.5234 28.4821C29.6359 28.2259 29.8172 28.0009 30.0047 27.7821C30.1359 27.7384 30.2297 28.0071 30.3234 28.0946C30.4547 28.3009 30.6172 28.5509 30.536 28.8009C30.461 28.8946 30.411 29.1759 30.6172 29.0884C30.8672 28.9759 31.0735 28.7884 31.2797 28.6134C31.4672 28.4884 31.6985 28.4821 31.886 28.3634C31.9797 28.3446 32.161 28.1696 32.1985 28.2634C32.0865 28.5428 31.9304 28.8023 31.736 29.0321C31.4354 29.3889 31.0199 29.6298 30.561 29.7134C30.286 29.7634 30.0109 29.7759 29.7359 29.7509V29.7509Z" fill="#CF1126"/>
<path d="M30.7222 28.7649C30.7409 28.5961 30.7034 28.4274 30.6159 28.2649C30.4847 28.0024 30.3034 27.7649 30.1159 27.5211C29.9409 27.4211 29.8472 27.7524 29.7347 27.8461C29.5534 28.1149 29.3284 28.3899 29.3159 28.7211C29.2159 28.8774 29.0284 28.5961 28.9472 28.5024C28.7806 28.2883 28.6924 28.0236 28.6972 27.7524C28.6821 27.3122 28.7587 26.8738 28.9222 26.4649C29.0472 26.1149 29.2409 25.7774 29.2222 25.4024C29.2347 25.1086 29.1784 24.7961 28.9472 24.6024C28.7222 24.4274 29.0909 24.3899 29.2034 24.4774C29.4034 24.4961 29.5097 24.8211 29.6909 24.7399C29.7597 24.5711 29.7784 24.3649 29.9284 24.2336C30.0722 24.0336 30.2222 24.3149 30.2722 24.4524C30.3784 24.5649 30.2722 24.8586 30.4347 24.8649C30.6347 24.7211 30.7784 24.4898 31.0347 24.4336C31.1409 24.3711 31.3159 24.4336 31.1784 24.5461C30.9909 24.7274 30.8284 24.9461 30.7909 25.2149C30.7347 25.5461 30.8159 25.8836 30.9597 26.1774C31.2409 26.7649 31.4597 27.4274 31.3159 28.0836C31.2534 28.3711 31.0534 28.6211 30.8159 28.7899C30.7847 28.8086 30.7347 28.8086 30.7222 28.7649V28.7649Z" fill="#CF1126"/>
<path d="M30.4234 24.3526C30.3393 24.1835 30.22 24.0343 30.0734 23.9151C29.9234 23.9151 29.8297 24.1026 29.7297 24.2026C29.6609 24.3338 29.5734 24.5526 29.3984 24.3838C29.1172 24.2213 29.0734 23.8651 29.0734 23.5713C29.0547 23.0963 29.2484 22.6526 29.4172 22.2213C29.5234 21.9526 29.4984 21.6463 29.4297 21.3713C29.3484 21.0588 29.0922 20.8338 28.8984 20.5838C28.9109 20.49 29.1609 20.54 29.2547 20.5588C29.4672 20.615 29.5922 20.7963 29.7484 20.9338C29.8609 20.8963 29.8109 20.6713 29.8672 20.565C29.8672 20.415 30.0672 20.2213 30.1484 20.4338C30.2734 20.5713 30.1484 20.84 30.3047 20.9213C30.4547 20.865 30.5297 20.7025 30.6672 20.6275C30.739 20.5811 30.8215 20.5538 30.9069 20.5483C30.9922 20.5429 31.0776 20.5594 31.1547 20.5963C31.211 20.7338 30.9922 20.8463 30.9297 20.9713C30.8048 21.1271 30.7182 21.3101 30.6769 21.5055C30.6357 21.7009 30.6409 21.9033 30.6922 22.0963C30.7797 22.4088 30.9297 22.6901 30.9859 23.0026C31.0534 23.3589 31.0428 23.7257 30.9547 24.0776C30.8984 24.2901 30.7172 24.4276 30.5297 24.5151C30.4797 24.4713 30.4547 24.4088 30.4234 24.3526V24.3526Z" fill="#CF1126"/>
<path d="M29.4794 20.4314C29.2669 20.2752 29.1982 20.1314 29.1982 19.8377C29.1982 19.6939 29.2294 19.6127 29.3232 19.4752C29.4732 19.2752 29.4482 19.2127 29.2419 19.2689C28.9107 19.3627 28.7544 19.2814 28.7419 19.0002C28.7419 18.8627 28.7669 18.8064 28.9482 18.5814C29.0982 18.4064 29.1544 18.3127 29.1232 18.2814C29.0919 18.2564 28.9169 18.4064 28.5607 18.7689C28.3373 19.0045 28.0993 19.2257 27.8482 19.4314C27.2357 19.8439 26.6482 19.9064 26.3794 19.5877C26.2419 19.4252 26.2482 19.3377 26.4044 19.2377C26.5039 19.1705 26.5961 19.0929 26.6794 19.0064C26.9857 18.7267 27.3234 18.4835 27.6857 18.2814C27.9107 18.1689 27.9607 18.0939 27.8169 18.0939C27.6294 18.0939 27.0357 18.4814 26.5794 18.8939C26.4482 19.0189 26.2544 19.1564 26.1544 19.2064C25.8763 19.3079 25.5754 19.3295 25.2857 19.2689C25.1482 19.2252 24.8919 18.9877 24.8919 18.9002C24.8919 18.8814 24.9544 18.8314 25.0169 18.7877C25.1188 18.7301 25.215 18.6632 25.3044 18.5877C25.6669 18.2752 26.3544 17.9439 26.8982 17.8252C27.0732 17.7939 27.0044 17.7002 26.8107 17.7127C26.237 17.8222 25.6998 18.0736 25.2482 18.4439C24.7294 18.8752 23.9482 18.8314 23.6982 18.3627C23.6544 18.2814 23.6232 18.2064 23.6357 18.1939C24.0784 18.0822 24.5063 17.9185 24.9107 17.7064C25.2589 17.5012 25.6427 17.3634 26.0419 17.3002C26.2169 17.2689 26.2294 17.1814 26.0607 17.1627C25.8357 17.1377 25.4982 17.2502 24.9044 17.5377C24.1357 17.9189 23.9169 17.9877 23.5169 17.9627C23.1419 17.9377 22.9357 17.8439 22.6419 17.5627C22.4419 17.3752 22.1669 16.9064 22.2169 16.8502C22.5414 16.9184 22.8731 16.9457 23.2044 16.9314C23.7232 16.9314 23.8669 16.9189 24.1419 16.8377C24.6791 16.6674 25.1856 16.4121 25.6419 16.0814C26.2852 15.5372 27.0993 15.2363 27.9419 15.2314C28.7169 15.2314 29.2044 15.4064 29.6419 15.8502C29.7919 16.0002 29.9169 16.0939 29.9357 16.0752C29.9544 16.0564 29.9732 15.7939 29.9794 15.4939C29.9794 15.4939 30.2107 15.4689 30.2607 15.5377C30.2607 16.0189 30.2607 16.0627 30.3357 16.0627C30.3794 16.0627 30.4294 16.0127 30.4607 15.9377C30.5232 15.7814 30.7732 15.5627 31.0357 15.4252C31.5982 15.1439 32.5795 15.1314 33.367 15.4064C33.7434 15.5493 34.0955 15.7496 34.4107 16.0002C34.8705 16.3236 35.3761 16.5764 35.9107 16.7502C36.3357 16.8752 37.0982 16.9064 37.4795 16.8127C37.591 16.7869 37.7036 16.766 37.817 16.7502C37.9607 16.7502 37.717 17.2252 37.4295 17.5064C36.9045 18.0189 36.2232 18.0127 35.267 17.5002C34.667 17.1752 33.9545 17.0002 33.9545 17.1752C33.9545 17.2127 33.992 17.2377 34.0482 17.2377C34.2545 17.2377 34.6545 17.3752 35.217 17.6439C35.5704 17.8477 35.9579 17.9854 36.3607 18.0502C36.5045 18.0502 36.5107 18.1439 36.3732 18.3439C36.2295 18.5564 35.9857 18.6564 35.642 18.6564C35.3107 18.6564 35.1232 18.5877 34.8295 18.3439C34.3295 17.9314 33.1045 17.4689 33.1482 17.7189C33.1607 17.7627 33.217 17.7939 33.3482 17.8127C33.8761 17.9274 34.3702 18.1627 34.792 18.5002L35.1607 18.7689C35.2295 18.8064 35.2295 18.8189 35.1732 18.9252C35.0857 19.1002 34.8482 19.2314 34.5982 19.2564C34.2732 19.2939 33.9857 19.1939 33.692 18.9439C33.067 18.4252 32.4857 18.0502 32.2982 18.0502C32.142 18.0502 32.2107 18.1377 32.4857 18.2814C32.8414 18.4699 33.173 18.7007 33.4732 18.9689C33.5982 19.0877 33.742 19.2002 33.7857 19.2252C33.9045 19.2877 33.8982 19.3752 33.7732 19.5377C33.6482 19.7002 33.4357 19.7752 33.167 19.7439C32.6295 19.6877 32.2044 19.4314 31.5419 18.7439C31.3844 18.568 31.213 18.405 31.0294 18.2564C30.9419 18.2564 30.9982 18.3752 31.1669 18.5689C31.3794 18.8002 31.4169 18.9314 31.3357 19.1314C31.2669 19.2939 31.1482 19.3377 30.9107 19.2689C30.6607 19.2064 30.6232 19.2689 30.7857 19.4627C31.0232 19.7689 30.9919 20.1314 30.6919 20.3877C30.6299 20.4475 30.558 20.4961 30.4794 20.5314C30.4544 20.5314 30.3919 20.4689 30.3357 20.3814C30.1482 20.0939 29.9794 20.0939 29.7919 20.3814C29.7524 20.4453 29.7107 20.5079 29.6669 20.5689C29.6037 20.5241 29.5412 20.4783 29.4794 20.4314V20.4314Z" fill="#CF1126"/>
<path d="M30.4172 14.5625L30.0922 14.8125L29.8047 14.6V16.3375H30.4172V14.5625Z" fill="#CF1126"/>
<path d="M28.4297 12.7695C28.3728 13.4722 28.1819 14.1575 27.8672 14.7883L28.5609 14.1445L29.0422 14.7195L29.5672 14.132L30.0984 14.632L30.6109 14.1133L31.1422 14.7383L31.6047 14.2258L32.3922 14.7883C32.1047 14.1633 31.7235 13.6258 31.7672 12.7383C31.011 13.3008 29.2047 13.4008 28.4297 12.7633V12.7695Z" fill="#CF1126"/>
<path d="M29.8172 12.35C29.5359 12.35 29.2422 12.3563 28.9797 12.4125C28.8058 12.4402 28.6398 12.504 28.4922 12.6C28.5109 13.1375 31.0547 13.3563 31.736 12.6125C31.5826 12.5064 31.4075 12.4359 31.2235 12.4063C30.9735 12.3563 30.6859 12.3563 30.4172 12.3438V12.7875H29.8172V12.35V12.35Z" fill="#CF1126"/>
<path d="M30.3078 9.625H29.9141V12.7125H30.3141L30.3078 9.625Z" fill="#CF1126"/>
<path d="M30.3109 9.70156L30.1609 11.1828L31.6797 11.9266L30.9109 10.8953L31.9609 10.5516L30.3109 9.70156ZM30.1422 9.32031C29.9109 9.32031 29.7422 9.40781 29.7422 9.50781C29.7422 9.60781 29.9109 9.69531 30.1422 9.69531C30.3734 9.69531 30.5422 9.60781 30.5422 9.50781C30.5422 9.40781 30.3734 9.32031 30.1422 9.32031Z" fill="#CF1126"/>
<path d="M29.4315 35.2379C29.6847 35.1535 29.8253 35.0035 29.9284 34.7129C29.9753 34.5629 30.0128 34.4129 30.0034 34.3754C29.9847 34.2816 29.8722 34.2816 29.7597 34.3848C29.6753 34.4504 29.6659 34.4879 29.6847 34.6285C29.7503 34.9754 29.619 35.0691 28.9628 35.1348C28.8972 35.1348 28.7003 35.1348 28.5409 35.1066C28.2222 35.0691 28.1097 35.1066 28.2222 35.2004C28.2827 35.2391 28.3492 35.2676 28.419 35.2848C28.5972 35.3316 29.244 35.3035 29.4315 35.2379V35.2379ZM30.8097 35.1816C30.8472 35.1441 30.969 35.0879 31.0909 35.041C31.2503 34.9941 31.3347 34.9473 31.4003 34.8348C31.5972 34.5535 31.5597 34.3004 31.2784 33.9629C31.119 33.7754 31.0534 33.7848 30.9315 33.991C30.819 34.1598 30.8284 34.1785 30.9784 34.216C31.0628 34.2348 31.1378 34.291 31.1753 34.366C31.344 34.6566 31.2972 34.8348 31.044 34.8348C30.819 34.8348 30.7628 34.8723 30.6972 35.0223L30.6409 35.2004C30.6409 35.2566 30.7347 35.2473 30.8097 35.1816V35.1816ZM30.3597 34.8535C30.3972 34.7316 30.4159 34.5254 30.4065 34.1035C30.4167 33.9031 30.4072 33.7021 30.3784 33.5035C30.3409 33.466 30.1628 33.5785 30.1347 33.6629C30.1253 33.7321 30.142 33.8022 30.1815 33.8598C30.2378 33.9723 30.2472 34.0848 30.2284 34.516C30.2003 35.0785 30.2378 35.1723 30.3597 34.8535V34.8535Z" fill="#F7E017"/>
<path d="M29.304 34.5935L29.3696 34.1247C29.379 33.9653 29.4165 33.7685 29.4352 33.6841C29.5009 33.4685 29.4352 33.4122 29.2665 33.5341L29.1446 33.6278L29.1634 33.9372C29.1915 34.2185 29.1446 34.7341 29.079 34.9403C29.0602 34.9966 29.0884 34.9778 29.1634 34.8935C29.2196 34.8278 29.2852 34.6872 29.304 34.5841V34.5935ZM28.3665 34.7435C28.5915 34.556 28.5634 34.2185 28.6196 33.956C28.6196 33.7778 28.7321 33.5716 28.6571 33.4122C28.4415 33.4497 28.3102 33.656 28.4227 33.8528C28.4227 34.0872 28.4227 34.3403 28.3009 34.5466C28.2071 34.6872 27.8884 34.6497 27.9071 34.4528C27.9821 34.1716 27.6352 34.3122 27.504 34.3872C27.4009 34.4622 27.1759 34.4716 27.2602 34.2935C27.204 34.0403 26.8946 34.1997 26.7259 34.1997C26.5665 34.1997 26.7165 33.8716 26.4821 33.9185C26.0602 33.8903 25.5915 33.9278 25.2165 33.6747C25.0009 33.5716 25.029 33.3091 25.1509 33.1403C25.2821 32.9153 25.3196 32.6247 25.5259 32.4466C25.7415 32.2497 25.3384 32.3341 25.2446 32.3997C25.0384 32.5122 25.2259 32.8028 25.0571 32.9622C24.9634 33.131 24.8321 33.356 24.6071 33.3278C24.279 33.2622 24.0915 32.9528 23.8571 32.7653C23.6509 32.7185 23.7634 33.0841 23.8759 33.1591C24.0837 33.3144 24.3191 33.4289 24.5696 33.4966C24.8134 33.4497 24.8227 33.7778 25.0384 33.8247C25.4134 34.0122 25.8446 34.0591 26.2665 34.0872C26.4352 34.0966 26.3415 34.3966 26.5571 34.331C26.679 34.3685 26.9602 34.2841 26.9696 34.4247C26.7821 34.6497 27.1477 34.6403 27.279 34.6122C27.4571 34.5747 27.6727 34.5185 27.7196 34.7435C27.8602 34.9028 28.1227 34.8747 28.3009 34.7903L28.3665 34.7435V34.7435Z" fill="#F7E017"/>
<path d="M24.6319 32.85C24.72 32.7267 24.7954 32.5948 24.8569 32.4563C24.9046 32.3361 24.9676 32.2227 25.0444 32.1188C25.1569 32.0063 25.0912 31.9312 24.9131 31.9688C24.8194 31.9875 24.7819 32.025 24.7725 32.1094C24.7305 32.3394 24.6513 32.561 24.5381 32.7656C24.3787 33 24.3787 33.0094 24.4444 33.0094C24.4725 33.0094 24.5569 32.9344 24.6319 32.85ZM22.2881 31.3781C22.11 31.3781 22.1006 31.4906 22.2694 31.5469C22.3631 31.575 22.4287 31.6406 22.485 31.7625C22.6444 32.0906 22.7475 32.1562 23.1881 32.1937L23.4694 32.2125L23.4881 32.3906C23.4881 32.4844 23.5162 32.5594 23.535 32.5594L23.7787 32.4656C23.985 32.3531 24.1819 32.1094 24.1819 31.95C24.1819 31.8562 24.0131 31.7438 23.8631 31.7438C23.7975 31.7438 23.6756 31.8 23.5725 31.875C23.2537 32.1 22.9162 32.0625 22.7287 31.7625C22.5881 31.5187 22.4287 31.3875 22.2881 31.3875V31.3781ZM23.8162 31.9875C23.9006 31.9875 23.91 32.0531 23.8725 32.175C23.8667 32.1915 23.856 32.2059 23.8417 32.216C23.8274 32.2262 23.8103 32.2316 23.7928 32.2316C23.7753 32.2316 23.7582 32.2262 23.7439 32.216C23.7296 32.2059 23.7189 32.1915 23.7131 32.175C23.6756 32.0813 23.7225 31.9875 23.8069 31.9875H23.8162ZM35.6756 31.6125C35.5537 31.6125 35.5256 31.6313 35.4506 31.7438C35.3287 31.9219 35.3194 32.3063 35.4319 32.4375C35.4975 32.5219 35.5069 32.5219 35.6475 32.4563C35.8537 32.3719 35.8912 32.3812 35.8819 32.4844C35.8819 32.7656 35.4881 33.3 35.0756 33.5813C34.991 33.6312 34.915 33.6945 34.8506 33.7688C34.8225 33.8438 34.9725 33.8344 35.16 33.7312C35.4704 33.5532 35.7265 33.2939 35.9006 32.9812C36.0037 32.7656 36.0225 32.7 36.0412 32.325C36.0412 31.9687 36.0412 31.8563 35.985 31.7438C35.91 31.6125 35.8912 31.6031 35.7225 31.6031H35.6756V31.6125ZM35.685 31.8469C35.7787 31.8469 35.7787 31.8656 35.7975 31.9969C35.7975 32.0906 35.7881 32.1563 35.7319 32.2125C35.6569 32.2781 35.6381 32.2781 35.5819 32.175C35.4881 32.025 35.5444 31.8469 35.685 31.8469V31.8469ZM33.7912 34.5188C34.1569 34.3313 34.3725 34.1344 34.5037 33.8438C34.5524 33.7505 34.5932 33.6532 34.6256 33.5531C34.6256 33.4969 34.4475 33.4125 34.3444 33.4125C34.2412 33.4125 34.2131 33.3375 34.2506 33.1312C34.2975 32.9344 34.2506 32.6813 34.1569 32.6813C34.1287 32.6813 34.0631 32.7281 34.035 32.7844C33.9787 32.8781 33.9694 32.9156 34.0162 33.0375C34.0819 33.225 34.0256 33.375 33.8569 33.4969C33.7725 33.5531 33.735 33.6187 33.735 33.6844L33.7444 33.7781L33.9412 33.6844L34.1287 33.5719L34.2319 33.6656C34.2975 33.7031 34.3444 33.7781 34.3444 33.825C34.3444 34.05 33.7069 34.425 33.2756 34.4625C33.0412 34.4813 32.9944 34.4625 32.9194 34.3875C32.8537 34.3219 32.835 34.2656 32.8537 34.2L32.9006 33.9563C32.9381 33.7594 32.8631 33.7875 32.7131 34.0125C32.6006 34.2 32.5631 34.3969 32.6287 34.5C32.685 34.5938 33.0412 34.6688 33.3037 34.65C33.4631 34.65 33.6225 34.6031 33.7912 34.5188V34.5188ZM36.2287 33.1594C36.4537 32.925 36.5569 32.6438 36.5569 32.2219V31.8938L36.7444 31.8C36.9975 31.6875 37.2319 31.4531 37.2319 31.3219C37.2319 31.1906 37.1662 31.1906 37.0631 31.3406C36.9787 31.4437 36.8756 31.5094 36.5006 31.6875C36.4069 31.725 36.3975 31.7531 36.3694 32.1562C36.3506 32.625 36.2756 32.7938 36.0225 33.1125C35.8631 33.3 35.8537 33.3375 35.9662 33.3375C36.0131 33.3375 36.135 33.2531 36.2287 33.15V33.1594ZM33.7256 32.8969C33.7444 32.8312 33.6131 32.7844 33.5662 32.8406C33.5381 32.8594 33.5287 32.8969 33.5475 32.925C33.585 32.9813 33.6975 32.9625 33.7256 32.8969V32.8969ZM37.1756 32.0062C37.2037 31.9312 37.0725 31.8844 37.0162 31.9406C36.9975 31.9688 36.9881 32.0063 37.0069 32.0344C37.0444 32.0906 37.1569 32.0719 37.1756 32.0062ZM33.0225 29.5781C32.9287 29.625 32.8819 29.7187 32.8256 29.7937C32.7787 29.8219 32.8162 29.85 32.835 29.8875C32.9944 30.0469 33.06 30.2812 33.135 30.4969C33.21 30.75 33.3037 31.0219 33.2287 31.2844C33.2006 31.3781 33.1162 31.4813 33.0037 31.4531C32.8162 31.4437 32.6287 31.3875 32.4412 31.3875C32.2631 31.3969 32.1319 31.5562 31.9631 31.5375C31.8506 31.5375 31.8506 31.3125 31.7569 31.3781C31.7006 31.5 31.7287 31.6313 31.7194 31.7531C31.7381 31.7813 31.7944 31.7625 31.8225 31.7719H32.1694C32.1881 31.8844 32.1881 32.025 32.2631 32.1188C32.385 32.1563 32.5256 32.1188 32.6381 32.0719C32.7506 32.0156 32.7694 31.875 32.8069 31.7625C32.8444 31.6406 32.9944 31.6687 33.0881 31.6219C33.2009 31.5868 33.2988 31.5153 33.3667 31.4186C33.4345 31.3219 33.4684 31.2055 33.4631 31.0875C33.4444 30.7219 33.3131 30.3938 33.2006 30.0563C33.1537 29.9063 33.1162 29.7469 33.06 29.5969L33.0225 29.5781V29.5781ZM32.46 31.6219C32.5819 31.6219 32.6381 31.7719 32.61 31.875C32.5631 32.0156 32.385 31.9313 32.3569 31.8281C32.2912 31.7344 32.3287 31.6125 32.4506 31.6219H32.46Z" fill="#F7E017"/>
<path d="M27.7492 30.4492C27.693 30.4492 27.6274 30.468 27.5617 30.5148C27.2336 30.7492 27.1399 31.0211 27.3742 31.1336C27.5336 31.2086 27.4961 31.3023 27.2336 31.4336C26.8586 31.6211 26.5305 31.593 25.9024 31.3398C25.7524 31.2742 25.7149 31.3023 25.743 31.4336C25.7805 31.5742 25.9118 31.6492 26.2211 31.7148C26.5586 31.8086 26.9711 31.7805 27.2336 31.668C27.3877 31.5893 27.5247 31.481 27.6367 31.3492L27.843 31.1336L28.0774 31.1617C28.368 31.1992 28.3774 31.1992 28.3774 31.3398C28.3774 31.4523 28.3774 31.4523 28.6493 31.4805L29.0899 31.4992C29.2117 31.4992 29.2774 31.5273 29.3149 31.5836C29.3711 31.6492 29.3992 31.6586 29.8399 31.6211C30.2524 31.5836 30.3274 31.5836 30.5149 31.6492C30.6461 31.6867 30.7961 31.7055 30.8993 31.6961C31.218 31.6586 31.6492 31.4055 31.7149 31.218C31.7149 31.1898 31.8367 31.1523 31.968 31.1242C32.2867 31.0586 32.2961 30.993 32.0055 30.9555C31.8586 30.9361 31.7141 30.9015 31.5742 30.8523C31.4697 30.8081 31.3591 30.7797 31.2461 30.768C31.0867 30.768 30.9367 30.8617 30.9367 30.9742C30.9367 31.0398 30.9555 31.0492 31.1524 31.0305C31.3211 31.0117 31.3774 31.0211 31.4711 31.0961C31.5368 31.143 31.5743 31.1992 31.5649 31.218C31.518 31.293 31.143 31.4617 30.9836 31.4898C30.8873 31.5058 30.7883 31.4893 30.7024 31.443C30.5524 31.368 30.3461 31.3586 30.2993 31.4242C30.2805 31.4523 30.243 31.4336 30.1774 31.3773L30.0836 31.2836L29.8586 31.3773C29.6336 31.4711 29.5493 31.4711 29.5493 31.3586C29.5493 31.3117 29.4836 31.3023 29.1555 31.3305C28.7899 31.3492 28.7524 31.3398 28.6867 31.2648C28.6211 31.1992 28.6211 31.1711 28.668 31.1055C28.7055 31.0305 28.7055 31.0117 28.668 30.9648C28.6305 30.9273 28.5742 30.9273 28.4336 30.9648C28.068 31.0586 27.9649 31.0117 27.9649 30.7305C27.9649 30.5523 27.8711 30.4492 27.7492 30.4492V30.4492ZM27.6555 30.7117C27.6742 30.7117 27.693 30.7211 27.7211 30.7492C27.7493 30.7773 27.768 30.843 27.7492 30.8711C27.7211 30.9555 27.5618 30.9555 27.5336 30.8711C27.5149 30.8242 27.5336 30.7773 27.5805 30.7492L27.6555 30.7117Z" fill="#F7E017"/>
<path d="M26.9973 30.9742C27.2223 30.8336 27.2224 30.843 27.2505 30.4586C27.2692 30.1773 27.2692 30.1586 27.1942 30.1586C27.0817 30.1586 27.0255 30.2805 27.0255 30.5055C27.0255 30.6555 27.0067 30.7211 26.9317 30.7867C26.7442 30.9742 26.2942 30.8898 26.2286 30.6648C26.2098 30.5898 26.238 30.5148 26.3317 30.3836C26.5286 30.1023 26.4911 30.0273 26.238 30.243C26.0786 30.393 26.0505 30.393 26.0786 30.2711C26.1067 30.1492 26.0505 30.1023 25.9098 30.1398C25.8442 30.1586 25.7974 30.1961 25.788 30.2898C25.7692 30.3648 25.7317 30.4117 25.6661 30.4305C25.5536 30.4586 25.3661 30.3555 25.3661 30.2617C25.3661 30.1961 25.6473 29.8492 26.013 29.4742C26.1442 29.3336 26.2567 29.193 26.2567 29.1836C26.2567 29.1648 26.1817 29.1461 26.0973 29.1461C25.9661 29.1461 25.9286 29.1648 25.9286 29.2211C25.9286 29.2586 25.7505 29.5023 25.5255 29.7555C25.0567 30.2805 25.0192 30.3836 25.2442 30.5242C25.3379 30.582 25.4464 30.6109 25.5564 30.6076C25.6664 30.6043 25.773 30.5688 25.863 30.5055L26.013 30.4023V30.5898C26.013 30.8242 26.0598 30.918 26.2473 31.0117C26.3646 31.0719 26.4957 31.1002 26.6274 31.0936C26.7591 31.087 26.8867 31.0458 26.9973 30.9742V30.9742ZM36.7848 27.7305C36.6161 27.8336 36.7473 28.0492 36.7848 28.1992C36.7098 28.3867 36.4567 28.443 36.2692 28.4805C36.0067 28.5273 35.8192 28.743 35.7255 28.9773C35.6692 29.1273 35.538 29.3523 35.3974 29.1273C35.2755 29.0055 35.0505 28.9023 34.9098 29.0523C34.7973 29.1555 34.7692 29.3055 34.7223 29.4461C34.6567 29.343 34.6286 29.1836 34.4973 29.1461C34.2723 29.1742 34.3567 29.4555 34.4599 29.568C34.5536 29.7086 34.6474 29.8773 34.5536 30.0367C34.4599 30.2242 34.1786 30.3555 34.0192 30.1961C33.8692 30.1117 33.9724 29.8211 33.813 29.8023C33.738 29.8586 33.738 30.168 33.6161 29.9992C33.5224 29.8586 33.5786 29.6617 33.4661 29.5398C33.3442 29.5586 33.2411 29.7742 33.2786 29.8867C33.4473 30.1117 33.5223 30.393 33.588 30.6648C33.6255 30.7773 33.5786 30.993 33.6817 31.0398C33.7473 30.8617 33.6817 30.6648 33.738 30.4867C33.9067 30.468 34.0848 30.543 34.2536 30.5055C34.5067 30.4773 34.6942 30.2617 34.7786 30.0461C34.8067 29.8773 34.7786 29.7086 34.7692 29.5398C34.9567 29.5773 35.163 29.5773 35.3505 29.6336C35.4442 29.7742 35.3224 29.9805 35.2942 30.1305C35.2005 30.4492 34.9473 30.6742 34.713 30.8805C34.6098 30.9461 34.6005 31.1055 34.7411 31.0211C35.0617 30.8688 35.3129 30.6009 35.4442 30.2711C35.5474 30.0273 35.463 29.7555 35.538 29.5117C35.6317 29.3242 35.8661 29.3617 36.0442 29.3617C36.2224 29.3617 36.3723 29.1461 36.3161 28.968C36.2598 28.7617 36.4755 28.668 36.6161 28.593C36.813 28.4992 36.963 28.3023 36.9442 28.0773C36.9442 27.9555 36.9442 27.7398 36.7848 27.7305V27.7305ZM36.1005 28.9023C36.3067 28.9586 36.063 29.3523 35.9505 29.0992C35.913 29.0055 35.9974 28.9023 36.1005 28.9023ZM35.1348 29.1836C35.4067 29.1742 35.3036 29.5586 35.0786 29.3898C34.9567 29.3242 34.9942 29.1836 35.1348 29.1836ZM25.3098 30.7117C25.3098 30.6742 25.2911 30.6461 25.2536 30.6461C25.188 30.6461 25.1411 30.7117 25.1692 30.768C25.2067 30.8336 25.2911 30.7961 25.3098 30.7117ZM28.4973 30.3742C28.4973 30.3086 28.4692 30.2898 28.4224 30.2992C28.3192 30.318 28.3005 30.4586 28.413 30.4586C28.4692 30.4586 28.4973 30.4305 28.4973 30.3648V30.3742ZM24.5598 28.4617C24.438 28.4336 24.3536 28.5461 24.3067 28.6492C24.213 28.8086 24.1005 28.968 23.9317 29.0523C23.8099 29.0898 23.6786 29.043 23.5661 28.9773C23.4442 28.9117 23.4724 28.7617 23.4161 28.6586C23.3224 28.5836 23.163 28.6867 23.1723 28.7992C23.163 28.9492 23.2942 29.0336 23.4161 29.0898C23.5099 29.1555 23.6599 29.1836 23.6974 29.3055C23.6974 29.4086 23.7348 29.5305 23.8567 29.493C23.9973 29.493 24.0442 29.6617 23.9786 29.7648C23.9159 29.8792 23.8929 30.011 23.913 30.1398C23.9786 30.2055 24.0442 30.0461 24.1005 30.0086L24.1942 29.8773C24.4474 29.8867 24.6911 29.9242 24.9442 29.9148C25.1317 29.9148 25.2723 29.8023 25.3848 29.6711C25.5536 29.5023 25.6848 29.3055 25.863 29.1648C25.9942 29.1273 25.9286 28.8836 25.788 28.9586C25.6661 29.0055 25.6286 29.1461 25.5442 29.2305C25.4075 29.4107 25.2502 29.5743 25.0755 29.718C24.9348 29.7742 24.7848 29.7461 24.6442 29.718C24.588 29.6711 24.7567 29.6242 24.7848 29.568C24.8598 29.493 24.9536 29.418 25.0005 29.3148C24.9536 29.2211 24.8223 29.2211 24.7286 29.2211C24.5036 29.2398 24.3255 29.4367 24.0911 29.4555C23.913 29.4555 24.0067 29.268 24.0911 29.2023C24.2411 29.0148 24.4099 28.8461 24.5692 28.668C24.6161 28.6117 24.7848 28.5555 24.6817 28.4805C24.6442 28.4617 24.5973 28.4617 24.5598 28.4617V28.4617ZM24.6724 29.3992C24.7942 29.4648 24.5974 29.568 24.5224 29.5586C24.4192 29.5867 24.4098 29.4836 24.5036 29.4648C24.5598 29.4273 24.6161 29.3992 24.6724 29.3992ZM24.3161 29.643C24.3817 29.643 24.5224 29.7086 24.3911 29.7461C24.2974 29.8211 24.2036 29.6711 24.3161 29.643Z" fill="#F7E017"/>
<path d="M27.129 29.793C27.129 29.6992 26.979 29.718 26.9603 29.8117C26.9415 29.868 26.9603 29.8773 27.0353 29.868C27.0915 29.868 27.129 29.8305 27.129 29.793ZM34.1322 29.1742C34.1509 29.0898 34.0384 29.0336 33.9728 29.0992C33.9072 29.1555 33.9728 29.2773 34.0478 29.2586C34.0853 29.2586 34.1228 29.2117 34.1415 29.1742H34.1322ZM23.2478 28.3211C23.3509 28.2273 23.3603 28.218 23.3134 28.0117C23.2384 27.7211 23.2478 27.6836 23.3603 27.6555C23.5009 27.6273 23.8572 27.8148 23.9228 27.9648C23.9978 28.0867 23.9884 28.0961 23.8853 28.1898C23.7728 28.293 23.7728 28.4148 23.8853 28.4148C23.979 28.4148 24.2322 28.1711 24.2322 28.0867C24.2322 27.9648 23.9509 27.6742 23.7259 27.5711C23.5909 27.5082 23.4436 27.4762 23.2947 27.4773C23.004 27.4773 22.9665 27.543 23.0415 27.8711C23.1353 28.2648 23.0134 28.3211 22.6947 28.0211C22.5812 27.9213 22.4926 27.7965 22.4356 27.6566C22.3787 27.5167 22.355 27.3655 22.3665 27.2148C22.3665 26.8398 22.5165 26.643 22.8447 26.5961C23.0697 26.568 23.0603 26.5117 22.8447 26.4836C22.5072 26.4273 22.2259 26.6523 22.1228 27.0461C22.0009 27.4867 22.2728 28.0211 22.7509 28.293C23.004 28.4336 23.0978 28.443 23.2478 28.3211V28.3211ZM36.2978 27.8336C36.3259 27.8148 36.3447 27.7492 36.3447 27.7023C36.3447 27.6555 36.3915 27.5523 36.4478 27.4773C36.504 27.4023 36.5415 27.3273 36.5415 27.3086C36.5415 27.2336 36.4197 27.2336 36.3259 27.3086C36.2228 27.393 36.1384 27.4023 36.1384 27.3086L36.2509 27.2242C36.4009 27.1586 36.4103 27.0836 36.2884 27.0273C36.129 26.9523 35.9603 27.0836 35.9509 27.3086C35.9415 27.4586 35.9509 27.4773 36.0634 27.543C36.1665 27.6086 36.1853 27.6367 36.1665 27.7305C36.1384 27.8805 36.204 27.9367 36.2978 27.8336V27.8336ZM37.5165 27.7023C37.6103 27.6086 37.6853 27.5242 37.6853 27.4961C37.6853 27.468 37.7697 27.3836 37.8634 27.3086C38.1259 27.1211 38.1915 26.9336 38.0697 26.6242C38.0228 26.5023 37.8822 26.343 37.554 26.0617C37.4045 25.9021 37.2343 25.7634 37.0478 25.6492C36.9634 25.6492 36.9822 25.968 37.0665 25.9961C37.2259 26.0523 37.329 26.118 37.5728 26.343C37.8728 26.6055 38.004 26.8586 37.929 26.9992C37.8634 27.1305 37.7697 27.093 37.5072 26.8117C37.422 26.7059 37.3208 26.6142 37.2072 26.5398C37.179 26.5398 37.1603 26.5961 37.1603 26.6711C37.1603 26.7648 37.2072 26.8586 37.3478 26.9992C37.5634 27.243 37.5822 27.3836 37.4134 27.5148C37.3754 27.5534 37.331 27.5852 37.2822 27.6086C37.0678 27.2418 36.7807 26.9227 36.4384 26.6711C36.4103 26.6711 36.3915 26.7086 36.3915 26.8023C36.3915 26.9242 36.4103 26.9617 36.504 27.0086C36.7505 27.1978 36.9711 27.4184 37.1603 27.6648L37.329 27.8523C37.399 27.8087 37.4622 27.755 37.5165 27.693V27.7023ZM38.079 26.1273C38.0322 26.0148 37.2915 25.2461 37.2072 25.2461C37.1697 25.2461 37.1603 25.293 37.1697 25.4148C37.1697 25.5648 37.1978 25.5836 37.3009 25.6117C37.461 25.7054 37.6064 25.8223 37.7322 25.9586C37.834 26.0682 37.9508 26.1628 38.079 26.2398V26.1273V26.1273ZM33.5978 34.8086C33.6028 34.8226 33.6038 34.8374 33.6007 34.8517C33.5977 34.8661 33.5906 34.8797 33.5802 34.8914C33.5697 34.9031 33.5561 34.9126 33.5404 34.9192C33.5248 34.9257 33.5075 34.9291 33.49 34.9291C33.4724 34.9291 33.4552 34.9257 33.4395 34.9192C33.4238 34.9126 33.4102 34.9031 33.3998 34.8914C33.3893 34.8797 33.3823 34.8661 33.3792 34.8517C33.3761 34.8374 33.3772 34.8226 33.3822 34.8086C33.3772 34.7946 33.3761 34.7798 33.3792 34.7655C33.3823 34.7511 33.3893 34.7375 33.3998 34.7258C33.4102 34.7141 33.4238 34.7046 33.4395 34.698C33.4552 34.6915 33.4724 34.6881 33.49 34.6881C33.5075 34.6881 33.5248 34.6915 33.5404 34.698C33.5561 34.7046 33.5697 34.7141 33.5802 34.7258C33.5906 34.7375 33.5977 34.7511 33.6007 34.7655C33.6038 34.7798 33.6028 34.7946 33.5978 34.8086V34.8086ZM33.9915 34.6773C33.9915 34.6897 33.9886 34.7018 33.983 34.7132C33.9773 34.7246 33.969 34.7349 33.9586 34.7436C33.9481 34.7523 33.9357 34.7592 33.9221 34.764C33.9084 34.7687 33.8938 34.7711 33.879 34.7711C33.8643 34.7711 33.8496 34.7687 33.836 34.764C33.8223 34.7592 33.8099 34.7523 33.7995 34.7436C33.789 34.7349 33.7807 34.7246 33.7751 34.7132C33.7694 34.7018 33.7665 34.6897 33.7665 34.6773C33.7665 34.665 33.7694 34.6528 33.7751 34.6415C33.7807 34.6301 33.789 34.6198 33.7995 34.6111C33.8099 34.6023 33.8223 34.5954 33.836 34.5907C33.8496 34.586 33.8643 34.5836 33.879 34.5836C33.8938 34.5836 33.9084 34.586 33.9221 34.5907C33.9357 34.5954 33.9481 34.6023 33.9586 34.6111C33.969 34.6198 33.9773 34.6301 33.983 34.6415C33.9886 34.6528 33.9915 34.665 33.9915 34.6773V34.6773Z" fill="#F7E017"/>
</g>
<defs>
<clipPath id="clip0_4046_10371">
<rect width="60" height="45" fill="white"/>
</clipPath>
</defs>
</svg>
