<svg width="60" height="45" viewBox="0 0 60 45" fill="none" xmlns="http://www.w3.org/2000/svg">
<g clip-path="url(#clip0_4046_11373)">
<path fill-rule="evenodd" clip-rule="evenodd" d="M0 0H60V45H0V0Z" fill="#229E45"/>
<path fill-rule="evenodd" clip-rule="evenodd" d="M30.1297 40.875L58.3953 22.5281L29.9609 4.125L1.60156 22.5656L30.1297 40.875Z" fill="#F8E509"/>
<path fill-rule="evenodd" clip-rule="evenodd" d="M42.45 22.5C42.45 29.0906 37.0969 34.4344 30.4875 34.4344C28.1257 34.4307 25.8179 33.7268 23.8561 32.4117C21.8942 31.0967 20.3662 29.2294 19.4654 27.0461C18.5646 24.8628 18.3313 22.4615 18.795 20.1456C19.2587 17.8297 20.3986 15.7033 22.0707 14.0352C23.7427 12.3671 25.8718 11.2321 28.1888 10.7739C30.5057 10.3156 32.9066 10.5546 35.0877 11.4605C37.2689 12.3665 39.1325 13.8988 40.443 15.8638C41.7534 17.8288 42.4519 20.1381 42.45 22.5V22.5Z" fill="#2B49A3"/>
<path fill-rule="evenodd" clip-rule="evenodd" d="M26.5609 29.6547L26.1859 29.4391L25.8109 29.6266L25.8953 29.2047L25.5953 28.8859L26.0172 28.8391L26.2234 28.4641L26.4016 28.8578L26.8141 28.9328L26.5047 29.2141M34.5672 31.6797L34.2016 31.4641L33.8266 31.6516L33.9016 31.2297L33.6109 30.9203L34.0328 30.8734L34.2297 30.4891L34.4172 30.8828L34.8297 30.9578L34.5109 31.2484M31.1172 28.4359L30.7984 28.2484L30.4703 28.4172L30.5453 28.0516L30.2828 27.7797L30.6578 27.7422L30.8266 27.4047L30.9766 27.7516L31.3422 27.8172L31.0609 28.0703M39.2172 27.2734L38.8984 27.0859L38.5703 27.2547L38.6453 26.8891L38.3922 26.6266L38.7578 26.5891L38.9266 26.2609L39.0766 26.5984L39.4328 26.6641L39.1609 26.9078M30.9766 24.8453L30.6016 24.6391L30.2266 24.8266L30.3016 24.3953L30.0109 24.0859L30.4328 24.0391L30.6297 23.6547L30.8172 24.0484L31.2297 24.1234L30.9109 24.4234M21.1047 21.1422L20.7297 20.9359L20.3547 21.1234L20.4484 20.6922L20.1391 20.3828L20.5703 20.3359L20.7578 19.9516L20.9453 20.3453L21.3578 20.4203L21.0484 20.7109M22.2953 26.0734L21.9203 25.8578L21.5453 26.0453L21.6297 25.6234L21.3297 25.3141L21.7516 25.2578L21.9484 24.8828L22.1359 25.2766L22.5484 25.3516L22.2391 25.6422M34.6141 19.3328L34.2766 19.1453L33.9391 19.3141L34.0141 18.9391L33.7516 18.6578L34.1266 18.6109L34.3047 18.2734L34.4641 18.6297L34.8391 18.6953L34.5578 18.9484M33.9297 22.5391L33.6766 22.3891L33.4047 22.5203L33.4609 22.2203L33.2547 22.0047L33.5547 21.9672L33.6953 21.7047L33.8172 21.9859L34.0984 22.0328L33.8922 22.2391M20.5609 26.9641L20.3078 26.8234L20.0547 26.9453L20.1109 26.6641L19.9141 26.4578L20.1953 26.4203L20.3266 26.1672L20.4484 26.4297L20.7297 26.4859L20.5141 26.6734M39.2828 28.1078L39.0766 28.0047L38.8703 28.0984L38.9172 27.8828L38.7578 27.7328L38.9828 27.7047L39.0953 27.5172L39.1891 27.7047L39.4234 27.7516L39.2453 27.8922" fill="#FFFFEF"/>
<path fill-rule="evenodd" clip-rule="evenodd" d="M20.5609 26.9609L20.3078 26.8203L20.0547 26.9422L20.1109 26.6609L19.9141 26.4547L20.1953 26.4172L20.3266 26.1641L20.4484 26.4266L20.7297 26.4828L20.5141 26.6703" fill="#FFFFEF"/>
<path fill-rule="evenodd" clip-rule="evenodd" d="M20.5609 26.9641L20.3078 26.8234L20.0547 26.9453L20.1109 26.6641L19.9141 26.4578L20.1953 26.4203L20.3266 26.1672L20.4484 26.4297L20.7297 26.4859L20.5141 26.6734M24.4797 26.9547L24.2359 26.8234L23.9828 26.9453L24.0391 26.6641L23.8422 26.4578L24.1234 26.4203L24.2547 26.1672L24.3766 26.4297L24.6578 26.4766L24.4422 26.6734M23.9922 28.2672L23.7484 28.1266L23.4953 28.2578L23.5516 27.9766L23.3547 27.7609L23.6359 27.7234L23.7672 27.4703L23.8891 27.7328L24.1703 27.7891L23.9547 27.9766M32.1484 25.8953L31.9047 25.7453L31.6422 25.8766L31.6984 25.5953L31.5109 25.3797L31.7922 25.3516L31.9234 25.0984L32.0359 25.3609L32.3172 25.4078L32.1109 25.6047M29.7578 25.8859L29.5047 25.7453L29.2516 25.8766L29.3078 25.5953L29.1203 25.3797L29.4016 25.3516L29.5328 25.0891L29.6453 25.3609L29.9266 25.4078L29.7203 25.6047M23.2703 25.0609L23.1109 24.9672L22.9516 25.0422L22.9891 24.8641L22.8672 24.7328L23.0453 24.7141L23.1203 24.5547L23.1953 24.7234L23.3734 24.7516L23.2422 24.8734M38.9734 29.1297L38.7297 28.9891L38.4766 29.1203L38.5328 28.8391L38.3359 28.6234L38.6172 28.5859L38.7484 28.3328L38.8703 28.5953L39.1516 28.6516L38.9359 28.8391M36.9859 29.4016L36.7797 29.2703L36.5641 29.3828L36.6109 29.1391L36.4516 28.9703L36.6859 28.9422L36.7984 28.7266L36.8922 28.9516L37.1266 28.9891L36.9484 29.1578M37.9234 29.3734L37.7359 29.2609L37.5391 29.3547L37.5766 29.1391L37.4266 28.9797L37.6422 28.9516L37.7453 28.7641L37.8391 28.9516L38.0547 28.9984L37.8953 29.1484M40.6234 27.0109L40.4359 26.9172L40.2484 27.0109L40.2953 26.7953L40.1453 26.6359L40.3609 26.6078L40.4547 26.4203L40.5484 26.6172L40.7453 26.6547L40.5953 26.8047M36.9578 30.7234L36.7234 30.5922L36.4703 30.7047L36.5266 30.4422L36.3391 30.2547L36.6203 30.2266L36.7422 29.9922L36.8547 30.2359L37.1359 30.2828L36.9203 30.4609M36.9766 31.7922L36.7516 31.6609L36.5266 31.7828L36.5828 31.5203L36.4047 31.3328L36.6578 31.2953L36.7703 31.0609L36.8734 31.3047L37.1266 31.3516L36.9391 31.5391M35.1578 29.3734L34.9797 29.2609L34.7922 29.3547L34.8297 29.1484L34.6891 28.9891L34.8953 28.9703L34.9891 28.7828L35.0828 28.9703L35.2891 29.0078L35.1391 29.1578M33.4703 29.3734L33.2828 29.2609L33.0953 29.3547L33.1422 29.1484L32.9922 28.9891L33.2078 28.9703L33.3016 28.7828L33.3953 28.9703L33.5922 29.0078L33.4422 29.1578M30.5922 26.8516L30.4047 26.7484L30.2172 26.8422L30.2641 26.6266L30.1141 26.4766L30.3203 26.4484L30.4141 26.2609L30.5078 26.4484L30.7141 26.4953L30.5641 26.6359M30.9109 31.9797L30.7609 31.8953L30.5922 31.9797L30.6297 31.7922L30.5078 31.6609L30.6859 31.6422L30.7703 31.4828L30.8453 31.6516L31.0234 31.6797L30.8922 31.8016M26.5609 23.6828L26.1859 23.4672L25.8109 23.6547L25.8953 23.2328L25.5953 22.9234L26.0172 22.8672L26.2234 22.4922L26.4016 22.8859L26.8141 22.9609L26.5047 23.2516" fill="#FFFFEF"/>
<path fill-rule="evenodd" clip-rule="evenodd" d="M41.6625 26.795C41.8948 26.1924 42.0766 25.5715 42.2063 24.9388C35.85 19.3607 28.7719 16.5013 19.8281 17.0919C19.5037 17.7196 19.237 18.3754 19.0312 19.0513C29.625 18.0388 37.4062 22.7263 41.6625 26.795Z" fill="white"/>
<path d="M38.8094 23.6625L39.025 23.7844C38.9928 23.848 38.9829 23.9207 38.9969 23.9906C39.0188 24.0585 39.0658 24.1154 39.1281 24.15C39.1937 24.1969 39.2594 24.225 39.3156 24.2156C39.3719 24.2156 39.4094 24.1875 39.4375 24.15C39.4538 24.1251 39.4605 24.0951 39.4562 24.0656C39.4486 24.031 39.4325 23.9988 39.4094 23.9719C39.3906 23.9437 39.3437 23.8781 39.2687 23.8031C39.1917 23.7236 39.1339 23.6273 39.1 23.5219C39.0766 23.4421 39.0827 23.3565 39.1171 23.2808C39.1515 23.2051 39.212 23.1442 39.2875 23.1094C39.3557 23.0809 39.431 23.0744 39.5031 23.0906C39.5913 23.1109 39.6742 23.1492 39.7469 23.2031C39.8781 23.2969 39.9625 23.3906 39.9906 23.5031C40.0036 23.5557 40.0053 23.6105 39.9956 23.6638C39.9859 23.7171 39.965 23.7678 39.9344 23.8125L39.7094 23.6719C39.7375 23.6156 39.7469 23.5594 39.7281 23.5125C39.7187 23.4656 39.6812 23.4187 39.6156 23.3812C39.5675 23.3425 39.5085 23.3196 39.4469 23.3156C39.4299 23.3151 39.4131 23.3191 39.3982 23.3274C39.3833 23.3356 39.371 23.3478 39.3625 23.3625C39.3437 23.3906 39.3437 23.4187 39.3531 23.4562C39.3625 23.4937 39.4094 23.5687 39.5031 23.6625C39.5969 23.7562 39.6531 23.8406 39.6906 23.8969C39.7241 23.9583 39.7393 24.0281 39.7343 24.0979C39.7293 24.1677 39.7044 24.2346 39.6625 24.2906C39.6186 24.3544 39.5566 24.4034 39.4844 24.4313C39.4141 24.4636 39.3355 24.4734 39.2594 24.4594C39.175 24.4406 39.0906 24.4031 38.9969 24.3375C38.8562 24.2438 38.7719 24.1406 38.7437 24.0281C38.7132 23.9006 38.7334 23.7661 38.8 23.6531L38.8094 23.6625ZM37.7219 22.95L37.9562 23.0719C37.9272 23.1366 37.9206 23.2092 37.9375 23.2781C37.9615 23.3425 38.0082 23.3958 38.0687 23.4281C38.1437 23.475 38.2 23.4938 38.2562 23.4844C38.3125 23.4844 38.35 23.4562 38.3781 23.4094C38.3923 23.3871 38.3989 23.3607 38.3969 23.3344C38.3969 23.3062 38.3781 23.2687 38.35 23.2406C38.302 23.1827 38.2519 23.1264 38.2 23.0719C38.0969 22.9688 38.0312 22.8844 38.0125 22.8094C37.9972 22.7611 37.9926 22.7101 37.9991 22.6599C38.0055 22.6097 38.0229 22.5615 38.05 22.5187C38.0856 22.4609 38.1379 22.4152 38.2 22.3875C38.2644 22.3578 38.3362 22.348 38.4062 22.3594C38.493 22.374 38.5758 22.4059 38.65 22.4531C38.7906 22.5469 38.875 22.6406 38.9031 22.7438C38.9202 22.7964 38.9257 22.8522 38.9192 22.9072C38.9128 22.9622 38.8945 23.0152 38.8656 23.0625L38.6312 22.9313C38.6594 22.8656 38.6687 22.8187 38.65 22.7719C38.6312 22.725 38.5937 22.6781 38.5281 22.6406C38.4762 22.6034 38.4138 22.5837 38.35 22.5844C38.3346 22.5854 38.3197 22.5902 38.3066 22.5984C38.2935 22.6066 38.2827 22.6179 38.275 22.6312C38.2562 22.6594 38.2562 22.6875 38.2656 22.725C38.275 22.7625 38.3312 22.8375 38.425 22.9313C38.5187 23.025 38.5844 23.1 38.6125 23.1562C38.6501 23.215 38.67 23.2834 38.67 23.3531C38.67 23.4229 38.6501 23.4912 38.6125 23.55C38.5721 23.6154 38.5134 23.6675 38.4437 23.7C38.3734 23.7324 38.2949 23.7422 38.2188 23.7281C38.1223 23.7118 38.0299 23.6768 37.9469 23.625C37.8257 23.5604 37.7323 23.4537 37.6844 23.325C37.6481 23.1998 37.6616 23.0655 37.7219 22.95V22.95ZM36.3906 22.5938L37.075 21.4688L37.9 21.9844L37.7875 22.1719L37.1875 21.7969L37.0375 22.05L37.6 22.3969L37.4781 22.5844L36.9156 22.2375L36.7281 22.5469L37.3562 22.9219L37.2437 23.1094L36.4 22.5938H36.3906ZM34.45 21L34.5531 20.8125L35.0594 21.0656L34.825 21.5344C34.75 21.5531 34.6562 21.5625 34.5437 21.5531C34.4357 21.5412 34.3308 21.5094 34.2344 21.4594C34.1209 21.4041 34.024 21.3201 33.9531 21.2156C33.8887 21.1186 33.8559 21.0039 33.8594 20.8875C33.8641 20.7663 33.8962 20.6477 33.9531 20.5406C34.0095 20.4279 34.0933 20.3312 34.1969 20.2594C34.296 20.1909 34.4139 20.1548 34.5344 20.1562C34.6281 20.1562 34.7219 20.1844 34.8344 20.25C34.9844 20.3156 35.0781 20.4094 35.125 20.5125C35.1738 20.6149 35.1837 20.7314 35.1531 20.8406L34.9 20.7656C34.9155 20.7028 34.9089 20.6366 34.8812 20.5781C34.8531 20.5219 34.8062 20.4844 34.7312 20.4469C34.6875 20.4219 34.639 20.4065 34.589 20.4017C34.5389 20.3968 34.4883 20.4026 34.4406 20.4188C34.3469 20.4469 34.2625 20.5312 34.1969 20.6625C34.1312 20.7937 34.1031 20.9156 34.1312 21.0187C34.1442 21.0677 34.1677 21.1131 34.2001 21.152C34.2325 21.1909 34.273 21.2222 34.3187 21.2438C34.3656 21.2719 34.4219 21.2906 34.4781 21.2906C34.5341 21.2991 34.5909 21.2991 34.6469 21.2906L34.7219 21.1406L34.45 21V21ZM25.9937 18.9094L26.1812 17.5969L26.575 17.6625L26.6781 18.5812L27.0437 17.7375L27.4375 17.7938L27.25 19.0875L26.9969 19.05L27.1562 18.0281L26.7437 19.0125L26.4906 18.975L26.3875 17.9156L26.2375 18.9469L25.9937 18.9094V18.9094ZM24.6719 18.75L24.7937 17.4375L25.7594 17.5312L25.7406 17.7562L25.0375 17.6906L25.0094 17.9719L25.6656 18.0375L25.6375 18.2625L24.9812 18.1969L24.9531 18.5531L25.6844 18.6188L25.6656 18.8438L24.6719 18.75V18.75Z" fill="#309E3A"/>
<path d="M20.2991 17.9328C20.2991 17.7922 20.3272 17.6891 20.3647 17.5953C20.3976 17.5286 20.442 17.4683 20.496 17.4172C20.5441 17.3687 20.6015 17.3304 20.6647 17.3047C20.7585 17.2766 20.8522 17.2578 20.946 17.2578C21.1429 17.2578 21.2929 17.3328 21.4147 17.4453C21.4727 17.517 21.5159 17.5995 21.5416 17.688C21.5674 17.7766 21.5752 17.8693 21.5647 17.9609C21.5647 18.1672 21.4991 18.3359 21.3772 18.4578C21.3146 18.5157 21.2405 18.5598 21.1598 18.5873C21.079 18.6147 20.9934 18.6249 20.9085 18.6172C20.8247 18.618 20.7416 18.6019 20.6642 18.5696C20.5869 18.5374 20.5169 18.4898 20.4585 18.4297C20.3418 18.2916 20.2845 18.113 20.2991 17.9328V17.9328Z" fill="#309E3A"/>
<path d="M20.5703 17.9345C20.5703 18.0752 20.5984 18.1877 20.6641 18.272C20.7297 18.347 20.8141 18.3939 20.9266 18.3939C20.9752 18.3973 21.024 18.3898 21.0695 18.372C21.1149 18.3542 21.1557 18.3264 21.1891 18.2908C21.2547 18.2158 21.2828 18.1033 21.2922 17.9439C21.2922 17.7939 21.2734 17.6814 21.1984 17.6064C21.1679 17.5686 21.1294 17.5381 21.0856 17.517C21.0418 17.4959 20.9939 17.4849 20.9453 17.4845C20.896 17.483 20.8469 17.4922 20.8016 17.5117C20.7562 17.5311 20.7157 17.5602 20.6828 17.597C20.6078 17.672 20.5797 17.7845 20.5703 17.9345V17.9345Z" fill="#F7FFFF"/>
<path d="M21.8438 18.6094L21.8625 17.2969H22.425C22.5656 17.2969 22.6594 17.3156 22.725 17.3438C22.7906 17.3625 22.8375 17.4094 22.875 17.4656C22.9125 17.5219 22.9313 17.5969 22.9313 17.6813C22.932 17.7714 22.8985 17.8585 22.8375 17.925C22.7682 17.9899 22.679 18.0296 22.5844 18.0375L22.725 18.15C22.7625 18.1875 22.8094 18.2625 22.8656 18.3656L23.025 18.6281H22.7062L22.5187 18.3281L22.3875 18.1406C22.3648 18.1148 22.3357 18.0954 22.3031 18.0844C22.2605 18.0719 22.2163 18.0656 22.1719 18.0656H22.1156V18.6094H21.8438V18.6094Z" fill="#309E3A"/>
<path d="M22.125 17.8609H22.3125C22.4437 17.8609 22.5281 17.8609 22.5563 17.8422C22.5844 17.8422 22.6125 17.8141 22.6312 17.7953C22.65 17.7766 22.6594 17.7297 22.6594 17.7016C22.6594 17.6453 22.65 17.6078 22.6219 17.5891C22.6031 17.5609 22.5656 17.5422 22.5281 17.5328H22.3406L22.125 17.5234V17.8516V17.8609Z" fill="white"/>
<path d="M23.3469 17.3633L23.8344 17.3914C23.9375 17.3914 24.0219 17.4008 24.0781 17.4195C24.1511 17.446 24.2158 17.4913 24.2656 17.5508C24.3196 17.6163 24.3581 17.6933 24.3781 17.7758C24.4062 17.8602 24.4156 17.9633 24.4062 18.0852C24.4062 18.1808 24.3903 18.2759 24.3594 18.3664C24.3219 18.4602 24.2656 18.5352 24.2 18.5914C24.1454 18.6364 24.0813 18.6685 24.0125 18.6852C23.9563 18.7039 23.8719 18.7039 23.7781 18.7039L23.2812 18.6758L23.3469 17.3633V17.3633Z" fill="#309E3A"/>
<path d="M23.6016 17.5977L23.5547 18.4695H23.9109C23.9578 18.4695 23.9953 18.4508 24.0234 18.4227C24.0516 18.3945 24.0797 18.357 24.0984 18.3008C24.1172 18.2445 24.1359 18.1602 24.1359 18.057L24.1266 17.8227C24.1132 17.7732 24.0874 17.728 24.0516 17.6914C24.0204 17.6601 23.9816 17.6375 23.9391 17.6258C23.8682 17.61 23.796 17.6006 23.7234 17.5977H23.6016V17.5977Z" fill="white"/>
<path d="M29.7734 19.7047L30.0828 18.4297L30.4953 18.5234L30.7953 18.6172C30.8609 18.6547 30.9172 18.7109 30.9453 18.7953C30.9828 18.8703 30.9828 18.9547 30.9641 19.0578C30.9453 19.1328 30.9172 19.1984 30.8703 19.2453C30.8359 19.2865 30.7929 19.3196 30.7443 19.3423C30.6957 19.3649 30.6427 19.3767 30.5891 19.3766C30.5234 19.3766 30.4297 19.3578 30.3078 19.3297L30.1484 19.2828L30.0359 19.7703L29.7734 19.7047V19.7047Z" fill="#309E3A"/>
<path d="M30.2781 18.7109L30.2031 19.0672L30.3438 19.1047C30.4375 19.1234 30.5125 19.1422 30.55 19.1328C30.5865 19.1278 30.6205 19.1115 30.6473 19.0863C30.6742 19.0611 30.6926 19.0283 30.7 18.9922C30.7 18.9453 30.7 18.9078 30.6812 18.8703C30.6607 18.8322 30.6276 18.8024 30.5875 18.7859L30.4094 18.7391L30.2875 18.7109H30.2781Z" fill="white"/>
<path d="M30.9922 20.0734L31.4328 18.8359L31.9484 19.0234C32.0891 19.0703 32.1734 19.1172 32.2297 19.1547C32.2766 19.2016 32.3141 19.2484 32.3234 19.3234C32.3328 19.3984 32.3422 19.4641 32.3234 19.5391C32.2859 19.6328 32.2297 19.6984 32.1547 19.7453C32.0797 19.7828 31.9859 19.7922 31.8734 19.7734C31.9109 19.8203 31.9484 19.8672 31.9672 19.9234L32.0422 20.1766L32.0984 20.4672L31.8078 20.3641L31.7141 20.0266C31.697 19.9502 31.6751 19.8751 31.6484 19.8016C31.636 19.7724 31.6167 19.7467 31.5922 19.7266C31.5734 19.6984 31.5359 19.6797 31.4703 19.6609L31.4234 19.6422L31.2359 20.1672L30.9922 20.0734V20.0734Z" fill="#309E3A"/>
<path d="M31.5016 19.4461L31.6797 19.5117C31.8016 19.5586 31.8766 19.5773 31.9141 19.5773C31.9422 19.5773 31.9703 19.5773 31.9984 19.5492C32.0266 19.5305 32.0453 19.5023 32.0547 19.4648C32.0734 19.4273 32.0734 19.3898 32.0547 19.3523C32.0408 19.316 32.0141 19.286 31.9797 19.268L31.7922 19.2023L31.6047 19.1367L31.4922 19.4461H31.5016Z" fill="white"/>
<path d="M32.5278 20.0258C32.5601 19.916 32.6143 19.8139 32.6872 19.7258C32.7346 19.6692 32.7918 19.6216 32.8559 19.5852C32.9141 19.5523 32.9775 19.5301 33.0434 19.5195C33.1372 19.5195 33.2309 19.5195 33.3341 19.557C33.4179 19.5778 33.4963 19.6161 33.5642 19.6694C33.6321 19.7227 33.6878 19.7899 33.7278 19.8664C33.8028 20.0164 33.8028 20.1945 33.7466 20.4008C33.7002 20.578 33.5856 20.7296 33.4278 20.8227C33.2872 20.907 33.1184 20.9164 32.9403 20.8602C32.8567 20.8389 32.7786 20.8004 32.7107 20.7471C32.6429 20.6938 32.587 20.6269 32.5466 20.5508C32.509 20.4688 32.488 20.3802 32.4848 20.2902C32.4816 20.2001 32.4962 20.1102 32.5278 20.0258V20.0258Z" fill="#309E3A"/>
<path d="M32.7896 20.1005C32.7521 20.2411 32.7427 20.363 32.7896 20.4568C32.8364 20.5505 32.9021 20.6068 33.0052 20.6443C33.0989 20.6724 33.1927 20.663 33.2864 20.6068C33.3802 20.5599 33.4364 20.4568 33.4833 20.3068C33.5302 20.1661 33.5302 20.0536 33.4833 19.9599C33.4648 19.9154 33.4367 19.8755 33.4011 19.8431C33.3654 19.8107 33.3231 19.7866 33.2771 19.7724C33.2309 19.7565 33.1819 19.7507 33.1333 19.7556C33.0848 19.7604 33.0379 19.7758 32.9958 19.8005C32.9021 19.8568 32.8364 19.9505 32.7896 20.1005V20.1005Z" fill="white"/>
<path d="M35.0938 21.8539L35.6938 20.6914L36.1906 20.9445C36.2843 20.9895 36.3698 21.0497 36.4438 21.1227C36.4906 21.1695 36.5188 21.2258 36.5188 21.3008C36.5188 21.3758 36.5188 21.4414 36.4813 21.507C36.4452 21.5913 36.378 21.6585 36.2938 21.6945C36.2 21.7133 36.1063 21.7133 36.0031 21.6758C36.0406 21.732 36.0594 21.7883 36.0781 21.8352C36.0969 21.8914 36.1063 21.9758 36.1156 22.0977L36.1344 22.3977L35.8531 22.257L35.8156 21.9102C35.8112 21.8315 35.8018 21.7532 35.7875 21.6758C35.7811 21.6407 35.7648 21.6082 35.7406 21.582L35.6281 21.5164L35.5813 21.4883L35.3281 21.9758L35.0938 21.8539V21.8539Z" fill="#309E3A"/>
<path d="M35.6719 21.3L35.85 21.3937C35.9625 21.45 36.0375 21.4875 36.0656 21.4875C36.0938 21.4875 36.1313 21.4875 36.1594 21.4688C36.1875 21.4594 36.2062 21.4312 36.225 21.3937C36.2437 21.3562 36.2531 21.3188 36.2438 21.2812C36.2322 21.2439 36.2092 21.2111 36.1781 21.1875C36.1233 21.1538 36.067 21.1225 36.0094 21.0938L35.8219 21L35.6719 21.3V21.3Z" fill="white"/>
<path d="M39.9439 24.2526C40.0046 24.1562 40.0843 24.0733 40.1783 24.0089C40.2414 23.9685 40.3112 23.9399 40.3845 23.9245C40.4526 23.9106 40.5227 23.9106 40.5908 23.9245C40.6845 23.9432 40.7689 23.9807 40.8533 24.037C40.9262 24.0824 40.9889 24.1426 41.0374 24.2136C41.0858 24.2846 41.1189 24.365 41.1345 24.4495C41.1627 24.6089 41.1158 24.787 41.0033 24.9651C40.9092 25.12 40.7575 25.2313 40.5814 25.2745C40.4975 25.2926 40.4107 25.2928 40.3266 25.275C40.2426 25.2573 40.1633 25.2219 40.0939 25.1714C40.0209 25.1259 39.9583 25.0658 39.9098 24.9947C39.8614 24.9237 39.8283 24.8434 39.8127 24.7589C39.7845 24.5901 39.8314 24.4214 39.9439 24.2526Z" fill="#309E3A"/>
<path d="M40.1789 24.404C40.0852 24.5259 40.057 24.6384 40.0758 24.7415C40.0827 24.789 40.0997 24.8345 40.1255 24.8749C40.1514 24.9153 40.1856 24.9497 40.2258 24.9759C40.3195 25.0415 40.4133 25.0603 40.507 25.0321C40.6008 25.004 40.6945 24.9384 40.7789 24.8071C40.8633 24.6759 40.9008 24.5634 40.882 24.4696C40.8727 24.3759 40.8164 24.2915 40.732 24.2259C40.6477 24.1603 40.5445 24.1509 40.4508 24.179C40.357 24.1978 40.2633 24.2728 40.1695 24.404H40.1789Z" fill="white"/>
<path d="M28.2969 19.1727L28.5125 18.2539L29.1875 18.4133L29.1594 18.5633L28.6625 18.4508L28.6156 18.657L29.075 18.7602L29.0375 18.9195L28.5781 18.807L28.5219 19.0602L29.0375 19.182L29 19.332L28.2969 19.1727V19.1727Z" fill="#309E3A"/>
</g>
<defs>
<clipPath id="clip0_4046_11373">
<rect width="60" height="45" fill="white"/>
</clipPath>
</defs>
</svg>
