<svg width="60" height="45" viewBox="0 0 60 45" fill="none" xmlns="http://www.w3.org/2000/svg">
<g clip-path="url(#clip0_4046_11730)">
<path d="M14.0719 0H45.9187V45H14.0625L14.0719 0Z" fill="white"/>
<path d="M-1.84375 0H14.075V45H-1.84375V0ZM45.9219 0H61.8406V45H45.9313L45.9219 0ZM18.8469 21.75L17.6 22.1625L23.3563 27.225C23.7969 28.5094 23.2063 28.8937 22.8313 29.5687L29.075 28.7812L28.925 35.0625L30.2281 35.0344L29.9375 28.7906L36.1906 29.5406C35.8063 28.725 35.4594 28.2937 35.8156 26.9906L41.5625 22.2094L40.5594 21.8344C39.7344 21.1969 40.9156 18.7781 41.0844 17.25C41.0844 17.25 37.7375 18.4031 37.5219 17.7938L36.6594 16.1531L33.6031 19.5094C33.275 19.5938 33.1344 19.4625 33.05 19.1813L34.4563 12.1688L32.225 13.425C32.0375 13.5094 31.85 13.4344 31.7375 13.2188L29.5813 8.90625L27.3688 13.3875C27.2 13.5469 27.0313 13.5656 26.9 13.4531L24.7531 12.2625L26.0375 19.2094C25.9344 19.4906 25.6906 19.5656 25.4094 19.4156L22.4844 16.1063C22.1094 16.7156 21.8469 17.7094 21.3406 17.9344C20.8344 18.15 19.1375 17.5125 18.0031 17.2781C18.3969 18.6656 19.5969 20.9906 18.8469 21.75V21.75Z" fill="#D52B1E"/>
</g>
<defs>
<clipPath id="clip0_4046_11730">
<rect width="60" height="45" fill="white"/>
</clipPath>
</defs>
</svg>
