<svg width="60" height="45" viewBox="0 0 60 45" fill="none" xmlns="http://www.w3.org/2000/svg">
<g clip-path="url(#clip0_4046_11733)">
<path d="M0 0H60V45H0V0Z" fill="#008000"/>
<path d="M30.0031 28.7523C33.4566 28.7523 36.2563 25.9527 36.2563 22.4992C36.2563 19.0457 33.4566 16.2461 30.0031 16.2461C26.5496 16.2461 23.75 19.0457 23.75 22.4992C23.75 25.9527 26.5496 28.7523 30.0031 28.7523Z" fill="#FFE000"/>
<path d="M31.9516 27.6453C34.7941 27.6453 37.0984 25.341 37.0984 22.4984C37.0984 19.6559 34.7941 17.3516 31.9516 17.3516C29.109 17.3516 26.8047 19.6559 26.8047 22.4984C26.8047 25.341 29.109 27.6453 31.9516 27.6453Z" fill="#008000"/>
<path d="M10.2938 22.7906C13.9078 22.7906 16.8375 19.8609 16.8375 16.2469C16.8375 12.6329 13.9078 9.70312 10.2938 9.70312C6.67974 9.70312 3.75 12.6329 3.75 16.2469C3.75 19.8609 6.67974 22.7906 10.2938 22.7906Z" fill="#FFE000"/>
<path d="M9.84375 21.1875H11.4844C11.4844 21.1875 11.55 21.0375 11.4656 20.9625C11.3719 20.8875 11.025 20.8688 11.1187 20.6063C11.3062 20.0625 11.3438 20.2313 11.4656 18.9375C11.5548 17.8298 11.6173 16.7201 11.6531 15.6094H11.4094C11.4094 15.6094 11.4562 16.2375 11.3156 17.0625C11.1844 17.8875 11.1375 17.9531 10.9875 18.5906C10.9168 18.9494 10.8133 19.3009 10.6781 19.6406C10.5469 20.0156 10.5281 20.025 10.3219 20.3719C10.1062 20.7094 10.1813 20.5781 10.0688 20.7844C10.0031 20.8875 9.9375 20.8594 9.89062 20.9344C9.85312 21.0094 9.84375 21.1875 9.84375 21.1875V21.1875Z" fill="#802000"/>
<path fill-rule="evenodd" clip-rule="evenodd" d="M11.3335 15.5391H11.7256L11.7233 15.6116C11.6875 16.7235 11.6249 17.8343 11.5356 18.9431L11.5355 18.9441C11.4747 19.5902 11.4344 19.8769 11.3848 20.0706C11.3597 20.1685 11.3324 20.2419 11.3003 20.3238C11.2952 20.3366 11.29 20.3497 11.2847 20.363C11.2564 20.4347 11.2241 20.5161 11.1851 20.6292L11.1849 20.6299C11.1665 20.6813 11.1726 20.7107 11.1824 20.7296C11.1938 20.7514 11.2171 20.7722 11.2552 20.7928C11.2906 20.812 11.3311 20.827 11.3737 20.8427C11.3768 20.8439 11.3799 20.845 11.383 20.8462L11.3842 20.8466C11.4247 20.8616 11.4756 20.8805 11.5095 20.9076L11.5109 20.9087L11.5122 20.9099C11.5808 20.9709 11.5831 21.0575 11.5763 21.1118C11.5727 21.1407 11.5659 21.1662 11.5602 21.1842C11.5573 21.1933 11.5546 21.2007 11.5526 21.2061C11.5515 21.2088 11.5507 21.211 11.55 21.2126L11.5492 21.2146L11.5489 21.2152L11.5488 21.2155L11.5487 21.2156C11.5487 21.2156 11.5487 21.2157 11.4843 21.1875L11.5487 21.2157L11.5303 21.2578H9.84365V21.1875C9.77344 21.1838 9.77344 21.1838 9.77344 21.1838L9.77345 21.1836L9.77348 21.1831L9.77358 21.1814L9.77397 21.1751C9.77432 21.1697 9.77486 21.1621 9.77563 21.1528C9.77715 21.1341 9.77961 21.1083 9.78331 21.08C9.79023 21.0269 9.80291 20.9524 9.82764 20.9029L9.82913 20.8999L9.8309 20.8971C9.86348 20.845 9.90567 20.8244 9.93386 20.8106C9.93639 20.8094 9.93882 20.8082 9.94111 20.807C9.96488 20.7951 9.98518 20.7839 10.0081 20.7485C10.0544 20.6637 10.0695 20.6351 10.0862 20.6075C10.1099 20.5681 10.1369 20.5307 10.2619 20.335C10.2877 20.2916 10.3104 20.2538 10.3307 20.22C10.3922 20.1174 10.4312 20.0524 10.4653 19.985C10.5099 19.8969 10.5461 19.8046 10.6117 19.6174L10.6121 19.616L10.6127 19.6146C10.7463 19.2789 10.8486 18.9316 10.9184 18.577L10.9187 18.5758L10.919 18.5745C10.9612 18.3949 10.9952 18.2609 11.0251 18.1429C11.102 17.8399 11.152 17.6428 11.2461 17.0515L11.2462 17.0507C11.3158 16.6423 11.339 16.2825 11.3448 16.025C11.3477 15.8963 11.3463 15.7932 11.3441 15.7226C11.343 15.6872 11.3418 15.66 11.3408 15.6417C11.3403 15.6326 11.3399 15.6257 11.3396 15.6211L11.3393 15.6161L11.3392 15.6149L11.3392 15.6146L11.3335 15.5391ZM11.4833 15.6797C11.4838 15.6913 11.4843 15.7042 11.4847 15.7183C11.4869 15.7912 11.4884 15.8967 11.4854 16.0281C11.4795 16.2909 11.4559 16.6575 11.3849 17.0739C11.2898 17.6715 11.2383 17.8747 11.1609 18.1798C11.1311 18.2972 11.0975 18.4296 11.0561 18.6055C10.9847 18.9676 10.8802 19.3223 10.7439 19.6652C10.6785 19.8522 10.6398 19.9518 10.5908 20.0486C10.5542 20.1208 10.5117 20.1916 10.4491 20.296C10.429 20.3294 10.4069 20.3663 10.3822 20.4078L10.3816 20.4088L10.381 20.4097C10.2529 20.6103 10.2274 20.6454 10.2051 20.6825C10.1897 20.7082 10.1758 20.7348 10.1304 20.818L10.1292 20.8201L10.128 20.8221C10.0858 20.8884 10.0408 20.9144 10.004 20.9328C10.0025 20.9335 10.0011 20.9343 9.99971 20.935C9.97169 20.9489 9.9621 20.9537 9.95199 20.9688C9.93984 20.9953 9.92962 21.0455 9.92275 21.0982C9.9219 21.1047 9.92112 21.111 9.92041 21.1172H11.4328C11.4344 21.11 11.4358 21.1023 11.4368 21.0944C11.4416 21.0561 11.435 21.0305 11.4201 21.0163C11.4069 21.0064 11.3802 20.9951 11.3341 20.978C11.3306 20.9767 11.327 20.9754 11.3233 20.974C11.2826 20.959 11.233 20.9407 11.1883 20.9165C11.1397 20.8903 11.088 20.8525 11.0578 20.7946C11.0261 20.7339 11.0239 20.6627 11.0523 20.583C11.0923 20.4669 11.1258 20.3826 11.1541 20.3109C11.1594 20.2976 11.1645 20.2848 11.1694 20.2723C11.2008 20.1924 11.2256 20.1253 11.2486 20.0357C11.295 19.8544 11.3345 19.5787 11.3955 18.9314C11.4826 17.8491 11.5443 16.7649 11.5804 15.6797H11.4833Z" fill="#7B3100"/>
<path d="M11.0938 11.4844C11.1152 11.7765 11.0769 12.07 10.9812 12.3469C10.8513 12.6365 10.7781 12.9484 10.7656 13.2656C10.5969 13.3219 10.4188 12.9 10.25 13.1531C10.3719 13.5 10.6625 13.7719 10.85 14.0812C10.8875 14.175 11.1688 14.4281 11 14.4844C10.5969 14.3438 10.4938 13.8281 10.25 13.5187C10.1073 13.2519 9.89908 13.0259 9.64484 12.8618C9.3906 12.6978 9.09877 12.6012 8.79688 12.5812C8.5625 12.5906 7.82188 12.5344 8.00938 12.9281C8.29063 13.1156 8.64687 13.2469 8.92812 13.4625C9.14375 13.4813 9.51875 13.8375 9.5 13.9688C9.125 13.8187 8.95625 13.6406 8.5625 13.4813C8.01875 13.275 7.27813 13.3969 6.96875 13.9313C6.92188 14.0719 6.8375 14.475 7.01563 14.5219C7.22188 14.2031 7.5125 13.8375 7.94375 13.9406C8.28125 13.9687 7.56875 14.5688 7.84062 14.4469C7.93437 14.4094 8.12187 14.2781 8.27187 14.2594C8.4125 14.2594 8.4875 14.3531 8.59062 14.3719C8.80625 14.4 8.87188 14.4844 8.84375 14.5406C8.825 14.5969 8.75 14.5406 8.53438 14.6156C8.43125 14.6531 8.375 14.7469 8.25313 14.7938C8.12188 14.8313 7.85938 14.8406 7.76563 14.7938C7.41875 14.6531 6.85625 14.6719 6.75313 15.1031C6.75313 15.2906 6.58438 15.0844 6.50938 15.1688C6.44375 15.375 6.43438 15.5813 6.13438 15.5625C5.94688 15.75 5.75937 15.9562 5.51562 16.0969C5.65625 16.4156 6.2 15.7781 6.17188 16.05C5.9375 16.3781 6.30313 16.4437 6.45313 16.1906C6.725 15.9094 7.0625 15.5625 7.45625 15.8531C7.64375 16.0313 7.75625 15.7594 7.89687 15.7594C7.99062 15.9938 8.09375 15.7781 8.19688 15.7125C8.35625 15.6938 8.30937 15.9188 8.49687 15.7781C8.88125 15.525 9.35 15.7406 9.725 15.4969C10.1281 15.3094 9.78125 15.6375 9.67812 15.7687C9.5 16.1062 9.65 16.5563 9.275 16.7625C9.11563 17.1656 9.45312 17.7 9.11562 18C9.06875 18.1875 9.54687 18.1688 9.67812 18.2438C9.92187 18.2438 9.67812 17.7 9.9125 17.625C10.2312 17.8125 10.2125 17.2687 10.1469 17.1C10.1844 16.725 10.2031 16.2938 10.3906 15.9469C10.5969 15.525 10.7844 16.125 10.5594 16.2938C10.4281 16.6781 10.2406 17.175 10.5313 17.5406C10.625 17.5594 10.6906 17.7656 10.7937 17.8219C10.9062 17.8875 11.0562 17.8125 11.075 17.625C11.225 17.0625 11.15 16.4625 11.3562 15.9094C11.4969 15.7406 11.6938 15.8813 11.7781 16.0406C12.0594 16.3688 12.2563 16.7719 12.5938 17.0438C12.9132 17.1744 13.1735 17.418 13.325 17.7281C13.325 17.9719 14.0188 18.0094 13.8125 17.7281C13.6156 17.475 13.7469 17.2031 13.9437 17.025C14.0562 17.0531 14.0281 16.8563 13.9437 16.9313C13.8031 16.9031 13.7938 16.65 13.9813 16.7719C14.3094 16.875 13.9625 16.5375 13.8406 16.5281C13.5688 16.3594 13.2594 16.1719 13.1281 15.8719C13.4844 15.8719 13.85 16.0687 14.2062 15.9562C14.4969 15.8062 14.7875 15.9563 14.8906 16.2188C15.1156 16.1812 15.0219 15.9562 14.8906 15.8812C15.05 15.8156 15.1719 15.675 14.9656 15.5531C14.8719 15.4219 15.1062 15.1781 14.8062 15.1969C14.8156 14.9625 14.7312 14.7562 14.4781 14.6719C14.225 14.4656 13.4844 14.9906 13.5125 14.5125C13.4375 14.25 13.8125 14.475 13.9156 14.3438C14.0187 14.0625 13.4 14.1 13.6063 13.875C13.7375 13.8 14.3656 13.6781 13.8781 13.5844C13.7679 13.6167 13.6519 13.6242 13.5384 13.6064C13.425 13.5885 13.3169 13.5458 13.2219 13.4813C13.0437 13.7719 12.5469 13.3125 12.6312 13.8375C12.5656 14.0344 12.1156 14.55 11.9938 14.1562C12.0875 13.8469 12.6312 13.7531 12.4625 13.3312C12.4344 13.0781 12.2188 13.3781 12.125 13.3594C12.0687 13.2 12.275 13.0031 12.425 12.9656C12.7062 13.1906 12.7062 12.6844 12.9875 12.7313C13.1844 12.6844 12.9219 12.6 12.8656 12.5625C12.9219 12.4219 13.2312 12.3469 12.9312 12.2156C12.6594 12.0281 12.4625 12.4125 12.2469 12.4313C12.0406 12.1969 12.4344 12.0844 12.5469 11.9625C12.5563 11.8687 12.3219 11.9344 12.3875 11.85C12.4531 11.7469 12.875 11.7375 12.6688 11.5688C12.3535 11.4726 12.0143 11.4925 11.7125 11.625C11.525 11.6813 11.4781 12.0938 11.3187 12.075C11.2531 11.8875 11.3469 11.5312 11.0938 11.4844V11.4844ZM12.5 15.45C12.725 15.4125 12.5 15.7969 12.4062 15.7875C12.4062 15.6562 12.0687 15.6656 12.2844 15.5438C12.3503 15.5003 12.4233 15.4686 12.5 15.45V15.45Z" fill="#008000"/>
<path d="M45.0036 30.3633L45.4168 31.648L46.6788 31.1699L45.9323 32.2945L47.0932 32.9833L45.7478 33.1005L45.9329 34.4376L45.0036 33.4589L44.0737 34.437L44.2589 33.1005L42.9141 32.9827L44.0749 32.2939L43.3278 31.1693L44.5899 31.6474L45.0036 30.3633Z" fill="#FFE000"/>
<path d="M37.5036 18.4844L37.9168 19.7691L39.1788 19.291L38.4323 20.4156L39.5932 21.1043L38.2478 21.2216L38.4329 22.5587L37.5036 21.58L36.5737 22.5581L36.7589 21.2216L35.4141 21.1037L36.5749 20.415L35.8278 19.2904L37.0899 19.7685L37.5036 18.4844Z" fill="#FFE000"/>
<path d="M45.0036 10.3594L45.4168 11.6441L46.6788 11.166L45.9323 12.2906L47.0932 12.9793L45.7478 13.0966L45.9329 14.4337L45.0036 13.455L44.0737 14.4331L44.2589 13.0966L42.9141 12.9787L44.0749 12.29L43.3278 11.1654L44.5899 11.6435L45.0036 10.3594Z" fill="#FFE000"/>
<path d="M51.6755 16.4844L52.0886 17.7691L53.3507 17.291L52.6042 18.4156L53.765 19.1043L52.4196 19.2216L52.6048 20.5587L51.6755 19.58L50.7456 20.5581L50.9307 19.2216L49.5859 19.1037L50.7468 18.415L49.9997 17.2904L51.2617 17.7685L51.6755 16.4844Z" fill="#FFE000"/>
<path d="M48.0019 22.5039L48.3288 23.3046L49.1908 23.3677L48.53 23.9261L48.7366 24.7655L48.0019 24.3095L47.2673 24.7661L47.4733 23.9267L46.8125 23.3683L47.6757 23.3052L48.0019 22.5039Z" fill="#FFE000"/>
</g>
<defs>
<clipPath id="clip0_4046_11733">
<rect width="60" height="45" fill="white"/>
</clipPath>
</defs>
</svg>
