<svg width="60" height="45" viewBox="0 0 60 45" fill="none" xmlns="http://www.w3.org/2000/svg">
<g clip-path="url(#clip0_4046_11752)">
<path d="M0 0H60V45H0V0Z" fill="#003399"/>
<path fill-rule="evenodd" clip-rule="evenodd" d="M29.9984 21.8594C29.1364 21.8594 28.4375 22.5582 28.4375 23.4203C28.4375 24.2824 29.1364 24.9813 29.9984 24.9813C30.8605 24.9813 31.5594 24.2824 31.5594 23.4203C31.5594 22.5582 30.8605 21.8594 29.9984 21.8594ZM25.8594 23.4203C25.8594 21.1344 27.7125 19.2812 29.9984 19.2812C32.2844 19.2812 34.1375 21.1344 34.1375 23.4203C34.1375 25.7063 32.2844 27.5594 29.9984 27.5594C27.7125 27.5594 25.8594 25.7063 25.8594 23.4203Z" fill="#FFCC00"/>
<path fill-rule="evenodd" clip-rule="evenodd" d="M29.9969 16.4297C26.1369 16.4297 23.0078 19.5588 23.0078 23.4188C23.0078 27.2787 26.1369 30.4078 29.9969 30.4078C33.8568 30.4078 36.9859 27.2787 36.9859 23.4188C36.9859 19.5588 33.8568 16.4297 29.9969 16.4297ZM20.4297 23.4188C20.4297 18.1349 24.7131 13.8516 29.9969 13.8516C35.2807 13.8516 39.5641 18.1349 39.5641 23.4188C39.5641 28.7026 35.2807 32.9859 29.9969 32.9859C24.7131 32.9859 20.4297 28.7026 20.4297 23.4188Z" fill="#FFCC00"/>
<path d="M37.9406 15.4766L45.8812 23.4172L37.9406 31.3578L30 23.4172L37.9406 15.4766Z" fill="#003399"/>
<path d="M16.4688 22.1328H22.0188V24.7109H16.4688V22.1328ZM40.7594 22.1328H49.0375V24.7109H40.7594V22.1328ZM34.0281 17.5672L37.6656 13.9297L39.4844 15.7578L35.8563 19.3859L34.0281 17.5672ZM28.7125 4.55469H31.2906V14.5953H28.7125V4.55469Z" fill="#FFCC00"/>
<path d="M21.1047 16.2484C21.814 16.2484 22.3891 15.6734 22.3891 14.9641C22.3891 14.2547 21.814 13.6797 21.1047 13.6797C20.3953 13.6797 19.8203 14.2547 19.8203 14.9641C19.8203 15.6734 20.3953 16.2484 21.1047 16.2484Z" fill="#FFCC00"/>
<path d="M13.5266 24.7016C14.2359 24.7016 14.8109 24.1265 14.8109 23.4172C14.8109 22.7078 14.2359 22.1328 13.5266 22.1328C12.8172 22.1328 12.2422 22.7078 12.2422 23.4172C12.2422 24.1265 12.8172 24.7016 13.5266 24.7016Z" fill="#FFCC00"/>
<path d="M30.0031 37.0414C30.7125 37.0414 31.2875 36.4664 31.2875 35.757C31.2875 35.0477 30.7125 34.4727 30.0031 34.4727C29.2938 34.4727 28.7188 35.0477 28.7188 35.757C28.7188 36.4664 29.2938 37.0414 30.0031 37.0414Z" fill="#FFCC00"/>
<path d="M30.0031 41.1742C30.7125 41.1742 31.2875 40.5992 31.2875 39.8898C31.2875 39.1805 30.7125 38.6055 30.0031 38.6055C29.2938 38.6055 28.7188 39.1805 28.7188 39.8898C28.7188 40.5992 29.2938 41.1742 30.0031 41.1742Z" fill="#FFCC00"/>
<path d="M38.2766 24.7016C38.9859 24.7016 39.5609 24.1265 39.5609 23.4172C39.5609 22.7078 38.9859 22.1328 38.2766 22.1328C37.5672 22.1328 36.9922 22.7078 36.9922 23.4172C36.9922 24.1265 37.5672 24.7016 38.2766 24.7016Z" fill="#FFCC00"/>
<path d="M19.5312 32.0141L21.3594 30.1953L23.1781 32.0141L21.3594 33.8422L19.5312 32.0141ZM38.7219 33.9828L40.55 32.1547L42.3781 33.9828L40.55 35.8016L38.7219 33.9828Z" fill="#FFCC00"/>
</g>
<defs>
<clipPath id="clip0_4046_11752">
<rect width="60" height="45" fill="white"/>
</clipPath>
</defs>
</svg>
