<svg width="60" height="45" viewBox="0 0 60 45" fill="none" xmlns="http://www.w3.org/2000/svg">
<g clip-path="url(#clip0_4046_11788)">
<path d="M0 0H60V45H0V0Z" fill="#000066"/>
<path fill-rule="evenodd" clip-rule="evenodd" d="M44.2141 19.9688L44.7016 18.4031L43.3891 17.4094L45.0391 17.3906L45.6016 15.8438L46.1266 17.3906L47.7859 17.4375L46.4641 18.4219L46.9328 19.9875L45.5734 19.05M48.1141 20.2687L49.0891 18.9656L48.1797 17.5781L49.7453 18.1219L50.7766 16.8563V18.5062L52.3141 19.1063L50.7391 19.575L50.6641 21.2156L49.7078 19.8656M40.4828 21.2719L40.4172 19.6312L38.8422 19.1437L40.4078 18.5625V16.9313L41.4297 18.1969L43.0047 17.6719L42.0859 19.05L43.0516 20.3625L41.4578 19.9406M37.7453 23.775L37.0516 22.2938L35.4203 22.4625L36.6203 21.3094L36.0016 19.7812L37.4266 20.55L38.6734 19.4437L38.3547 21.075L39.7516 21.9094L38.1297 22.1437M36.4703 27.3562L35.2234 26.3156L33.8172 27.1781L34.4172 25.6125L33.2078 24.525L34.8297 24.5906L35.4859 23.0531L35.8891 24.6656L37.5016 24.8063L36.1328 25.725M36.4328 31.3875L34.8859 30.9375L33.9391 32.2969L33.8734 30.6188L32.3359 30.1031L33.8453 29.5219V27.8344L34.8484 29.1562L36.3859 28.6312L35.4859 30.0375M38.2516 34.8L36.6578 35.025L36.3297 36.6562L35.5984 35.1562L33.9953 35.3063L35.1391 34.1531L34.4734 32.6156L35.9078 33.4125L37.1078 32.3063L36.8453 33.9375M41.0641 37.5L39.6484 38.2688L39.8922 39.9187L38.7016 38.7562L37.2391 39.4688L37.9234 37.9781L36.7703 36.7688L38.3922 37.0125L39.1422 35.5594L39.4609 37.1906M44.5047 38.0344L43.7266 39.4688L44.8234 40.7063L43.1922 40.3969L42.3578 41.8031L42.1328 40.1813L40.5203 39.8063L42.0016 39.1125L41.8422 37.4719L42.9859 38.6719M48.3672 37.4437L48.3203 39.075L49.8484 39.675L48.2547 40.1438L48.1422 41.7844L47.2047 40.4437L45.6109 40.8562L46.6234 39.5531L45.7422 38.175L47.2984 38.7094M52.4078 19.6688L53.5328 20.85L55.0234 20.1562L54.2453 21.6375L55.3234 22.8656L53.7297 22.6031L52.8859 24.0563L52.6891 22.4062L51.0953 22.0781L52.5672 21.3281M55.7734 23.2969L56.2891 24.8531L57.9297 24.8812L56.5984 25.8844L57.0391 27.4594L55.7172 26.5219L54.3484 27.4688L54.8547 25.8938L53.5609 24.9L55.2109 24.8625M57.0391 27.975L56.8516 29.6062L58.3234 30.3281L56.7016 30.6656L56.4484 32.2875L55.6328 30.8719L54.0016 31.1438L55.1266 29.925L54.3672 28.4719L55.8672 29.1469M56.1484 32.8781L55.4172 34.3406L56.5328 35.5312L54.9016 35.2781L54.1141 36.7125L53.8328 35.0906L52.2016 34.7812L53.6641 34.0312L53.4484 32.4L54.6297 33.5531M53.7109 37.2188L52.3328 38.0813L52.6891 39.7031L51.4234 38.625L50.0172 39.4313L50.6078 37.9031L49.3797 36.7688L51.0109 36.9094L51.6672 35.4094L52.0797 37.0219" fill="white"/>
<path d="M0 0H30V22.5H0V0Z" fill="#000066"/>
<path d="M3.51562 0L14.9531 8.48438L26.3438 0H30V2.90625L18.75 11.2969L30 19.6406V22.5H26.25L15 14.1094L3.79688 22.5H0V19.6875L11.2031 11.3438L0 3V0H3.51562Z" fill="white"/>
<path d="M19.875 13.1719L30 20.625V22.5L17.2969 13.1719H19.875ZM11.25 14.1094L11.5312 15.75L2.53125 22.5H0L11.25 14.1094ZM30 0V0.140625L18.3281 8.95312L18.4219 6.89062L27.6562 0H30ZM0 0L11.2031 8.25H8.39062L0 1.96875V0Z" fill="#C8102E"/>
<path d="M11.2969 0V22.5H18.7969V0H11.2969ZM0 7.5V15H30V7.5H0Z" fill="white"/>
<path d="M0 9.04688V13.5469H30V9.04688H0ZM12.7969 0V22.5H17.2969V0H12.7969Z" fill="#C8102E"/>
</g>
<defs>
<clipPath id="clip0_4046_11788">
<rect width="60" height="45" fill="white"/>
</clipPath>
</defs>
</svg>
