<svg width="60" height="45" viewBox="0 0 60 45" fill="none" xmlns="http://www.w3.org/2000/svg">
<g clip-path="url(#clip0_4046_11809)">
<path d="M0 0H60V45H0V0Z" fill="#EE1C25"/>
<path d="M7.19997 16.65L11.2499 4.5L15.2999 16.65L4.5 9.225H17.9998L7.19997 16.65Z" fill="#FFFF00"/>
<path d="M24.7693 4.73226L20.6013 5.6559L23.3815 2.41621L23.1088 6.7764L20.7959 2.91632L24.7693 4.73226Z" fill="#FFFF00"/>
<path d="M28.9762 10.065L24.7763 9.29985L28.5953 7.392L26.653 11.3052L26.0182 6.85016L28.9762 10.065Z" fill="#FFFF00"/>
<path d="M28.3601 17.5413L24.8374 15.1297L29.1025 14.9453L25.733 17.726L26.9704 13.3995L28.3601 17.5413Z" fill="#FFFF00"/>
<path d="M23.06 22.4301L20.7421 18.8451L24.7474 20.3224L20.5654 21.5859L23.3778 18.073L23.06 22.4301Z" fill="#FFFF00"/>
</g>
<defs>
<clipPath id="clip0_4046_11809">
<rect width="60" height="45" fill="white"/>
</clipPath>
</defs>
</svg>
