<svg width="60" height="45" viewBox="0 0 60 45" fill="none" xmlns="http://www.w3.org/2000/svg">
<g clip-path="url(#clip0_4046_11837)">
<path fill-rule="evenodd" clip-rule="evenodd" d="M-0.0302501 20.5312H74.5588V38.685H-0.0390625L-0.0302501 20.5312Z" fill="white"/>
<path fill-rule="evenodd" clip-rule="evenodd" d="M0.0234375 0H74.5772V22.6129H0.0234375V0ZM0.0498753 34.0074H75.1412V45.12H0.0498753V34.0074Z" fill="#081873"/>
<path fill-rule="evenodd" clip-rule="evenodd" d="M0.046875 26.668H74.6006V30.1577H0.046875V26.668Z" fill="#DE3929"/>
<path fill-rule="evenodd" clip-rule="evenodd" d="M22.3863 35.1783L22.9679 36.9761H24.8538L23.3204 38.0953L23.902 39.9018L22.3863 38.7738L20.8529 39.893L21.4433 38.0864L19.9099 36.9673H21.8046M38.7775 22.0653L39.3679 23.8719H41.245L39.7116 24.9823L40.2933 26.7888L38.7599 25.6696L37.2265 26.7888L37.8081 24.9823L36.2748 23.8719H38.1783M18.6145 29.5471L19.1961 31.3537H21.0908L19.5663 32.4817L20.1567 34.2794L18.6233 33.1691L17.0899 34.2794L17.6716 32.4817L16.1382 31.3625H18.0329M38.7775 29.036L39.3679 30.8338H41.245L39.7116 31.9529L40.2933 33.7507L38.7599 32.6403L37.2265 33.7595L37.8081 31.9529L36.2748 30.8338H38.1783M34.6092 16.5839L35.1996 18.3817H37.1031L35.5698 19.5009L36.1514 21.3074L34.618 20.1883L33.0846 21.3074L33.6751 19.5009L32.1329 18.3817H34.0364M28.3523 14.3984L28.9427 16.205H30.8374L29.3041 17.3154L29.8857 19.1219L28.3523 18.0116L26.8189 19.1219L27.4094 17.3154L25.876 16.205H27.7619M22.0778 16.4606L22.6682 18.2671H24.5629L23.0296 19.3775L23.62 21.1841L22.0778 20.0649L20.5444 21.1841L21.1349 19.3775L19.6015 18.2671H21.505M18.4382 22.0741L19.0199 23.8807H20.9234L19.3812 24.9911L19.9716 26.7976L18.4382 25.6784L16.9049 26.7976L17.4865 24.9911L15.9531 23.8807H17.8478M28.3523 37.0466L28.9427 38.8531H30.8374L29.3041 39.9635L29.8945 41.7701L28.3523 40.6509L26.8189 41.7701L27.4094 39.9635L25.876 38.8531H27.7619M35.0058 35.1783L35.5874 36.9761H37.4821L35.9575 38.0953L36.5479 39.9018L35.0146 38.7826L33.4724 39.9018L34.0628 38.0953L32.5294 36.9761H34.4241" fill="#FFCE08"/>
</g>
<defs>
<clipPath id="clip0_4046_11837">
<rect width="60" height="45" fill="white"/>
</clipPath>
</defs>
</svg>
