<svg width="60" height="45" viewBox="0 0 60 45" fill="none" xmlns="http://www.w3.org/2000/svg">
<g clip-path="url(#clip0_4046_11849)">
<path d="M0 0H60V45H0V0Z" fill="#0021AD"/>
<path d="M0 0H60V45L0 0Z" fill="#1C8A42"/>
<path d="M29.9969 27.9195C32.9896 27.9195 35.4156 25.4935 35.4156 22.5008C35.4156 19.5081 32.9896 17.082 29.9969 17.082C27.0042 17.082 24.5781 19.5081 24.5781 22.5008C24.5781 25.4935 27.0042 27.9195 29.9969 27.9195Z" fill="#FFC639"/>
<path d="M26.6931 20.0633C27.0681 20.5789 27.6306 21.432 28.0806 21.207C28.4275 21.207 28.615 21.2352 28.6618 21.4695C29.249 21.5276 29.8412 21.435 30.3826 21.2004C30.9239 20.9658 31.3965 20.597 31.7556 20.1289C31.7556 20.1289 31.8306 20.1289 31.8025 19.707C31.8025 19.5195 32.065 19.557 32.065 19.6133C32.1025 19.707 32.1025 19.7727 32.1493 19.782C32.2431 19.7445 32.4025 19.5008 32.5243 19.3508C32.5525 19.2852 32.5337 19.2102 32.5431 19.1258C32.6087 18.9664 32.7681 19.0039 32.8056 19.0883L32.8618 19.2383C33.0306 19.3508 33.3306 19.2383 33.3493 19.2383C33.3775 19.107 33.4618 19.1258 33.4618 19.1258C33.5743 19.0977 33.5275 19.107 33.6025 19.1445C33.5368 19.8664 33.7431 19.8945 33.7243 20.2695C33.7337 20.682 33.6025 20.7945 33.6025 20.9539C33.64 21.1414 34.2587 21.1508 34.0337 21.3195C33.8462 21.4133 34.0337 21.6008 33.7525 21.6758C32.9275 22.0977 32.7775 22.4539 32.7775 22.4539C32.7775 22.4539 32.5712 22.8477 32.5431 22.8477C32.4025 23.1102 32.2337 22.9602 32.1306 23.0914C32.0837 23.2508 32.0368 23.607 32.1306 23.7852C32.1775 24.0383 32.1306 24.1789 32.065 24.432C32.0087 24.957 31.8025 25.0414 31.7743 25.2195C31.6806 25.4258 31.7931 26.3445 31.6993 26.3445C31.09 26.3633 30.6212 26.232 30.3775 26.1852C30.6118 25.1633 30.5181 24.2727 30.5181 24.1789C30.4618 23.4477 29.4306 23.6258 29.2712 23.5227C29.14 23.5039 29.0556 23.4008 29.0181 23.3539C28.8681 23.3352 28.8118 23.2977 28.6712 23.2883C28.5962 23.3258 28.6431 23.3633 28.4837 23.4102C28.0618 23.457 27.8837 23.0539 27.8837 23.0539C27.9025 22.9133 26.9556 23.082 26.4493 22.9602C26.2337 23.082 26.14 23.4289 25.9712 23.4664C25.9712 23.5695 25.69 23.3727 25.6337 23.2789C25.615 22.9602 25.8962 22.8289 25.8962 22.8289C26.1212 22.6695 26.2525 22.6414 26.365 22.5383C26.4118 22.2664 26.3837 22.0695 26.5056 21.8727C26.5993 21.7133 26.74 21.7789 26.8337 21.7227C26.9368 21.6477 26.9837 21.1977 26.89 21.0664L26.4493 20.6727C26.3181 20.2883 26.6087 20.0352 26.6931 20.0633V20.0633Z" fill="#1C8A42"/>
<path d="M52.6819 13.3503C52.4382 12.3847 50.2444 10.2847 48.585 8.95341C48.1913 8.69091 47.9288 8.85028 47.985 9.23466C48.1913 9.57216 48.3413 9.94716 48.5475 10.294C48.6038 10.5284 48.7163 10.6878 48.7725 10.9128C48.7725 10.9128 48.7913 11.3065 48.8288 11.344C49.335 11.9065 49.41 12.3847 49.41 12.3847C49.6685 12.9391 50.035 13.4363 50.4882 13.8472C51.0694 14.2128 50.6382 15.3472 50.6569 15.9565C50.6569 16.3315 50.385 16.294 50.1413 16.2378C48.2569 14.5034 46.3819 14.5034 44.7225 13.9972C44.085 13.9315 44.0663 14.2409 44.2819 14.4097C45.3151 15.5605 46.5595 16.5026 47.9475 17.1847L48.6694 17.6347L49.4944 18.319C50.1319 18.7315 50.1788 19.1065 50.1788 19.144C50.1975 19.9128 49.785 20.5128 49.6632 20.7565C49.4475 21.5722 49.0069 21.7128 49.0069 21.7128C45.4819 24.094 43.6257 24.7128 37.9069 23.9722C37.8132 23.9347 37.2694 24.019 37.9069 24.2534C39.36 24.7409 42.9413 25.519 46.4007 23.8784C47.2444 23.2972 47.7882 23.4847 48.3975 23.1284C49.2542 22.5979 50.14 22.1159 51.0507 21.6847C51.8288 21.2628 53.985 20.8034 54.4819 20.3909C55.0538 20.344 55.6444 20.269 55.6819 19.7815C55.8694 19.6597 56.1507 19.7534 56.3569 19.3503C56.8069 19.2659 56.7319 19.1065 56.7319 19.1065C56.6194 18.7878 56.1882 18.6565 55.8882 18.4222C55.4382 18.2722 55.1382 18.2347 54.81 18.3847L54.5007 18.5253C54.5007 18.5253 54.0225 18.4597 54.0225 18.4222C52.9538 18.3659 53.0569 14.8315 52.6819 13.3597V13.3503Z" fill="#FFC639"/>
<path d="M55.1845 19.1421C55.177 19.1633 55.163 19.1822 55.1433 19.1977C55.1237 19.2132 55.0987 19.2251 55.0699 19.2327C55.0411 19.2402 55.009 19.2433 54.9754 19.2417C54.9418 19.2401 54.9074 19.2339 54.8742 19.2235C54.8409 19.213 54.8095 19.1985 54.7817 19.1807C54.7538 19.163 54.7301 19.1423 54.7119 19.12C54.6937 19.0976 54.6814 19.074 54.6756 19.0505C54.6699 19.0269 54.6707 19.0039 54.6783 18.9828C54.6934 18.9401 54.7347 18.9075 54.7929 18.8923C54.8511 18.877 54.9215 18.8803 54.9886 18.9015C55.0557 18.9226 55.1141 18.9598 55.1508 19.005C55.1876 19.0501 55.1997 19.0994 55.1845 19.1421V19.1421Z" fill="#1C8A42"/>
<path d="M11.2929 18.96L10.5249 18.24L9.75087 18.948L9.83487 17.904L8.79688 17.736L9.66687 17.148L9.15087 16.236L10.1529 16.554L10.5429 15.582L10.9209 16.56L11.9229 16.26L11.3949 17.16L12.2589 17.76L11.2209 17.91L11.2929 18.954V18.96Z" fill="white"/>
<path d="M14.0037 27.631L13.1758 27.085L12.3718 27.661L12.6598 26.731L11.8438 26.161L12.8398 26.137L13.1398 25.207L13.4758 26.125L14.4778 26.119L13.6798 26.701L13.9978 27.625L14.0037 27.631Z" fill="white"/>
</g>
<defs>
<clipPath id="clip0_4046_11849">
<rect width="60" height="45" fill="white"/>
</clipPath>
</defs>
</svg>
