<svg width="60" height="45" viewBox="0 0 60 45" fill="none" xmlns="http://www.w3.org/2000/svg">
<g clip-path="url(#clip0_4046_11859)">
<path d="M0 0H60V45H0V0Z" fill="white"/>
<path d="M28.8568 37.3681C28.8495 37.363 28.8431 37.3567 28.838 37.3494H28.8286L28.7068 37.2181L28.3505 36.7962L27.8911 36.2056L27.8349 36.1212L27.2536 35.9431L26.8224 35.7462L27.0474 35.4931L27.8349 35.8212L28.4161 35.9431L29.4943 36.74L29.1849 37.0119C29.0748 37.1145 28.9715 37.2241 28.8755 37.34L28.9411 37.2931L29.0161 37.3494L28.8661 37.3681H28.8568ZM24.863 36.1681C24.3344 36.1634 23.8166 36.0178 23.363 35.7462C23.363 35.7462 23.4286 35.6244 23.5786 35.5212C23.7286 35.4087 23.9911 35.2869 24.4224 35.2775C24.9286 35.2775 25.5474 35.4556 26.2505 35.7837C25.8304 36.0318 25.3509 36.1614 24.863 36.1587V36.1681ZM22.6599 35.6806C22.5661 35.6806 22.4724 35.6431 22.4161 35.5869C22.363 35.522 22.3275 35.4445 22.313 35.3619C22.2881 35.2576 22.2786 35.1502 22.2849 35.0431C22.324 35.0292 22.3653 35.0229 22.4068 35.0244C22.5943 35.0244 22.7443 35.1837 22.8099 35.3431C22.8474 35.4369 22.8568 35.5119 22.8286 35.5775C22.8099 35.6337 22.7349 35.6712 22.6599 35.6712V35.6806ZM26.5318 35.2306C25.2286 35.0431 24.6755 34.5744 24.4411 34.2087C24.1974 33.8244 24.2536 33.4587 24.2536 33.4587C24.2536 33.4587 24.3286 33.44 24.4411 33.44C24.7974 33.44 25.6786 33.6181 26.5318 35.2212V35.2306ZM23.8599 34.9681C23.3068 34.9681 22.8849 34.8744 22.6036 34.6869C22.4834 34.6113 22.3862 34.5043 22.3224 34.3775C22.3023 34.3297 22.2896 34.2791 22.2849 34.2275C22.4987 34.1384 22.7283 34.0937 22.9599 34.0962C23.2945 34.1082 23.6234 34.1865 23.9276 34.3265C24.2317 34.4665 24.505 34.6655 24.7318 34.9119C24.413 34.9494 24.1224 34.9681 23.8599 34.9681V34.9681ZM21.1693 34.8744C20.588 34.8744 19.7818 34.6869 19.2755 34.19C19.2755 34.19 19.8286 34.0494 20.438 34.0306H20.5505C21.1036 34.0306 21.5255 34.1337 21.8068 34.3494C21.9005 34.4244 21.9568 34.49 21.9661 34.5556C21.9755 34.6119 21.9474 34.6681 21.8911 34.715C21.7599 34.8087 21.5349 34.865 21.2161 34.865H21.1693V34.8744ZM19.2661 33.89C19.2299 33.8893 19.1942 33.8805 19.1618 33.8643C19.1294 33.8481 19.101 33.8248 19.0786 33.7962C19.0395 33.7404 19.0138 33.6762 19.0036 33.6087C18.9755 33.4775 18.9849 33.3462 18.9849 33.3369C19.0144 33.324 19.0464 33.3176 19.0786 33.3181C19.163 33.3181 19.2286 33.365 19.2661 33.4119C19.3232 33.464 19.368 33.528 19.3974 33.5994C19.4161 33.6837 19.4255 33.7494 19.3974 33.8056C19.3974 33.8431 19.3411 33.8994 19.2755 33.8994L19.2661 33.89ZM23.663 33.7962C23.5693 33.7962 23.4755 33.7587 23.4193 33.7025C23.3661 33.6376 23.3306 33.5601 23.3161 33.4775C23.2912 33.3732 23.2818 33.2658 23.288 33.1587C23.3271 33.1448 23.3685 33.1385 23.4099 33.14C23.5974 33.14 23.7568 33.2994 23.813 33.4587C23.8505 33.5525 23.8599 33.6275 23.8411 33.6931C23.813 33.7494 23.7474 33.7869 23.6536 33.7869L23.663 33.7962ZM21.5255 33.7025C20.3443 33.665 19.7255 33.3275 19.4255 33.0462C19.2948 32.9332 19.1866 32.7964 19.1068 32.6431C19.0599 32.5494 19.0411 32.4744 19.0411 32.4556C19.0411 32.4369 19.1536 32.4181 19.3224 32.4181H19.3599C19.7536 32.4181 20.5693 32.5869 21.5161 33.7025H21.5255ZM22.8005 33.59C22.1258 33.5166 21.4984 33.2079 21.0286 32.7181C20.8557 32.5289 20.7247 32.3053 20.6443 32.0619C20.6443 32.0619 20.7568 32.0337 20.9255 32.0244C20.9568 32.0233 20.988 32.0233 21.0193 32.0244C21.488 32.0337 22.3599 32.2494 22.8005 33.59ZM17.9255 33.1212C17.626 33.124 17.3272 33.0925 17.0349 33.0275C16.538 32.8962 16.3224 32.7087 16.2286 32.5681C16.1903 32.5118 16.1647 32.4478 16.1536 32.3806C16.1507 32.3557 16.1507 32.3305 16.1536 32.3056C16.1536 32.3056 16.4818 32.2119 16.9411 32.2025C17.1737 32.1966 17.4063 32.2154 17.6349 32.2587C18.1131 32.3595 18.5391 32.6291 18.8349 33.0181C18.8349 33.0181 18.4599 33.1306 17.9255 33.1306V33.1212ZM20.1286 32.3337C20.0853 32.3349 20.0421 32.3272 20.0018 32.3111C19.9615 32.2949 19.9249 32.2708 19.8943 32.24C19.8411 32.1751 19.8056 32.0976 19.7911 32.015C19.7536 31.865 19.763 31.715 19.763 31.6962C19.7986 31.6803 19.8366 31.6707 19.8755 31.6681H19.8849C20.0724 31.6681 20.2224 31.8369 20.288 31.9962C20.3255 32.09 20.3255 32.165 20.3068 32.2212C20.2786 32.2869 20.213 32.3244 20.1286 32.3244V32.3337ZM18.4786 32.0994C18.1621 32.0096 17.8594 31.8772 17.5786 31.7056C17.1661 31.4525 16.6505 31.0025 16.5943 30.2994L16.688 30.29H16.7161C16.838 30.29 17.0911 30.3181 17.4005 30.5525C17.7943 30.8525 18.1505 31.3775 18.4786 32.0994V32.0994ZM19.5568 32.0619C19.2982 31.9442 19.0582 31.7894 18.8443 31.6025C18.2956 31.1289 17.8681 30.5311 17.5974 29.8587C17.5974 29.8587 17.6818 29.8119 17.813 29.8025C17.8193 29.8023 17.8255 29.8023 17.8318 29.8025H17.8693C18.0568 29.8025 18.3286 29.8869 18.6286 30.215C18.9849 30.59 19.2943 31.2087 19.5661 32.0619H19.5568ZM16.7536 31.9775C16.388 31.9775 16.2661 31.79 16.2286 31.6962C16.1923 31.6072 16.1794 31.5104 16.1911 31.415C16.2527 31.4013 16.3156 31.3951 16.3786 31.3962C16.4951 31.3926 16.6108 31.4161 16.7165 31.4649C16.8223 31.5137 16.9153 31.5865 16.988 31.6775C17.0068 31.715 17.063 31.8087 17.0161 31.8931C16.9786 31.9494 16.8943 31.9869 16.7536 31.9869V31.9775ZM15.9568 30.965C15.6741 30.968 15.3918 30.9461 15.113 30.8994C14.7943 30.8431 14.6161 30.5712 14.513 30.3462C14.4193 30.1119 14.3818 29.8775 14.3818 29.8775C15.3755 29.9056 15.8536 30.1962 16.0693 30.44C16.2054 30.5801 16.2912 30.7615 16.313 30.9556C16.313 30.9556 16.163 30.9744 15.9568 30.9744V30.965ZM16.988 29.9337C16.9079 29.8312 16.8328 29.7248 16.763 29.615C16.6411 29.4275 16.538 29.24 16.538 29.09C16.538 28.9306 16.5005 28.6212 16.4818 28.4337L16.4255 28.0119C16.4536 28.0119 17.0443 28.2369 17.0443 28.7994C17.0443 29.3619 16.988 29.9244 16.988 29.9244V29.9337ZM16.2193 29.8775H16.2005C15.5574 29.6849 14.9715 29.3372 14.4943 28.865C14.3349 28.6775 14.2318 28.3775 14.2036 27.9837C14.1849 27.7025 14.2036 27.4681 14.2036 27.44C14.2373 27.4311 14.2721 27.4279 14.3068 27.4306C14.438 27.4306 14.588 27.4869 14.7755 27.6181C14.9496 27.7414 15.1127 27.8794 15.263 28.0306C15.563 28.3306 15.7974 28.6306 15.7974 28.6306C15.8255 28.6681 15.9849 28.9775 16.1255 29.2775C16.1913 29.4152 16.2416 29.5599 16.2755 29.7087C16.2849 29.765 16.2943 29.8025 16.2755 29.84C16.2711 29.8555 16.2611 29.8689 16.2474 29.8775C16.2351 29.8803 16.2222 29.8803 16.2099 29.8775H16.2193Z" fill="#435125"/>
<path d="M48.6594 7.16406L48.4906 7.22969L48.4156 7.25781L48.2094 7.24844L48.0031 7.34219L47.6469 7.58594L47.6375 7.59531L47.4969 7.63281L47.375 7.57656L47.3094 7.61406L47.2812 7.75469L47.2156 7.85781L47.1313 7.91406L46.85 7.94219L46.6156 8.07344L46.2969 7.97969L46.1562 8.04531L45.8469 8.32656L45.6875 8.39219H45.6406L45.425 8.38281L45.3406 8.41094L45.2094 8.53281L44.9656 8.55156L44.8813 8.60781L44.7594 8.85156L44.6281 9.00156L44.5531 9.01094L44.4781 8.98281L44.4125 8.99219L44.3844 9.15156L44.3281 9.21719L44.1594 9.27344L44.0281 9.38594L43.9062 9.44219H43.7188L43.5594 9.53594L43.2688 9.55469L43.1469 9.66719L43.1187 9.69531L43.0625 9.72344L42.9688 9.77969L42.95 9.79844L42.8375 9.77969L42.7063 9.82656L42.65 9.75156L42.5562 9.79844L42.4438 9.80781L42.2937 9.74219L42.1719 9.68594L42.0875 9.70469L42.0594 9.84531V9.86406L41.9656 9.97656L41.8062 10.0797L41.7875 10.1078L41.6 10.3516L41.2437 10.7266L40.9438 10.8766L40.6344 10.9703L40.4187 11.1484L39.8562 11.4297L38.9469 11.8797L38.7594 11.9359L38.4969 11.9734L38.0281 12.1516L37.6156 12.2734L37.5875 12.2828L37.5125 12.3109L36.9219 12.4891L36.65 12.4516L36.4906 12.5172L36.0688 12.4703H35.7781L35.5906 12.5078L35.2437 12.6766L34.6531 12.9578L34.4656 13.1453L34.1656 13.2953L33.8094 13.4078V13.2578L33.6875 13.2953L33.5937 13.3234L33.3125 13.3609H33.1531L33.05 13.3328H33.0312L32.45 13.5297L31.7938 13.5953L31.4656 13.6984H31.2219L31.0719 13.7453L30.7719 13.7828L30.6594 13.7547L30.6406 13.7453L29.7594 13.7828L29.3563 13.7359L29.1688 13.7828L28.8406 13.6703L28.3719 13.6141L28.2594 13.5859L28.0156 13.5109L27.9031 13.5766L27.8094 13.5859L27.6219 13.5109H27.5469L27.3781 13.5672L27.2844 13.5484L27.1906 13.4734L26.9937 13.4453L26.8625 13.3422L26.1594 13.4359L25.9719 13.3797L25.325 13.1922H25.2313L25.1 13.2859L24.9125 13.3609L24.7344 13.3984L24.5094 13.4078L24.2469 13.3422L23.9844 13.2109L23.8812 13.1828L23.6562 13.2109H23.5906L23.1781 12.9953L22.6531 12.6672L22.2969 12.4891L22.1562 12.4703L22.1375 12.5359L22.2031 12.7422L22.2313 12.9578V13.1453L22.2219 13.2672L22.25 13.3703L22.3812 13.5203L22.4375 13.6609L22.475 14.0547V14.4578L22.4094 15.0953L22.3906 15.1891L22.3156 15.5266L22.25 15.8359L21.9781 16.6516L21.9125 16.7453L21.725 16.8672L21.3219 17.1484L21.0219 17.3172L20.9281 17.3547L20.6844 17.3734H20.5344L20.3469 17.2703L20.1594 17.2234L19.9156 17.0453L19.6531 16.9891L19.3531 16.8203L19.2781 16.7266L19.1187 16.7078L18.8937 16.6422L18.8094 16.6141L18.7531 16.6047L18.4719 16.5953L18.2 16.4734L18.0594 16.4359H17.8719L17.675 16.5297L17.5719 16.5672L17.4406 16.5203H17.3469L17.2531 16.6797L17.2344 16.7078L17.1594 16.7453H17L16.925 16.7734L16.8219 16.8203L16.7281 16.8578L16.6812 16.8766H16.6531L16.6063 16.8953H16.55L16.4375 16.8391L16.3812 16.8109L16.2875 16.7922L16.2406 16.8203L16.2313 16.9984L16.1844 17.1016L16.0344 17.2328L15.8844 17.3641L15.7906 17.5141L15.5094 18.1422L15.3312 18.3953L15.2844 18.4609L15.0969 18.6578L14.9375 18.7797L14.5719 19.0609L14.225 19.2016L13.925 19.2578H13.775L13.4937 19.2203L13.25 19.1453L12.9688 18.9766L12.6781 18.7328L12.2375 18.3109L12.1812 18.2734L12.1625 18.2641L12.0312 18.1703H11.9281L11.8906 18.2453L11.8625 18.3391L11.8438 18.4234L11.7969 18.8922V18.9203L11.825 19.1172L12.1625 19.5859L12.2562 19.8297L12.275 19.8578L12.3406 19.9703L12.3969 20.0641L12.5187 20.4016L12.4344 20.5891L12.4719 20.7203L12.3781 20.7953L12.3594 20.9078L12.65 21.2828L12.7156 21.4422L12.65 21.6672L12.5281 21.7984L12.5 21.8266L12.5187 21.9203L12.65 22.0516L12.8844 22.2578L13.0062 22.5578L13.1 22.6516L13.2125 22.6234L13.2687 22.6703H13.3625L13.4562 22.7641L13.5125 22.7828L13.6063 22.8297L13.6812 22.9234L13.6906 23.2234L13.8312 23.5797V23.8141L13.925 23.9547L13.9437 24.0672L13.8969 24.3766L14.0094 24.4703L14.1219 24.4516L14.1969 24.4609L14.3187 24.5641L14.4688 24.7891L14.6187 24.7703L14.7125 24.8078L15.1531 25.2109L15.2469 25.2672L15.3312 25.3047L15.425 25.3984L15.5562 25.3047H15.575L15.725 25.2859L15.7906 25.3328L15.9219 25.4172H16.0812L16.4562 25.5297L16.6063 25.5672L16.925 25.7641L17.0656 25.8484L17.1406 25.9141L17.2531 26.0078L17.4594 26.1016L17.6469 26.1391L17.7406 26.1578L17.825 26.1859L18.2188 26.3453L18.4344 26.3922L18.6219 26.4672L18.7719 26.5141H18.8844L19.0344 26.3922H19.175L19.2969 26.4109L19.4188 26.3922L19.6063 26.2797L19.6344 26.2234L19.7656 26.1672L20.2156 26.1109L20.3469 26.1484L20.6844 26.0078L20.9094 26.0641L21.0969 25.9984L21.5375 26.0922L21.65 26.1766L21.7812 26.3172H21.9406L21.875 26.4203L22.0625 26.6266L22.2406 26.8797L22.25 26.9172L22.3719 27.2828L22.4656 27.4141L22.5312 27.5922V27.7047L22.4375 27.7891L22.4188 27.8266V27.8453L22.4375 27.8922L22.475 27.8734L22.5406 27.8359L22.6344 27.8172L22.7844 27.8359L22.8875 27.8453L23.0469 27.7703L23.1594 27.7141L23.3281 27.7891H23.5156L23.6 27.8172L23.825 27.9203L23.9375 27.9297L23.975 27.9016L24.0031 27.8453L23.9937 27.7703L23.9 27.6672L23.7125 27.4422L23.6375 27.3297L23.5812 27.1703L23.5625 26.9641L23.5438 26.8234L23.5719 26.6359L23.6187 26.5703L23.6562 26.4203L23.6656 26.3828L23.7781 26.2422L24.0594 26.0547L24.3594 25.7922L24.5937 25.6328L24.8375 25.5297V25.5016L24.875 25.5109L25.4937 25.2953L25.775 25.2484L27.65 25.3797L27.7156 25.3609L27.7812 25.1828L27.8094 25.1547L27.8375 25.1359L28.0438 25.0422L28.1375 25.0234L28.4 25.0891L28.5125 25.1172L28.6906 25.0234H28.8125L29.0656 24.8828H29.225L29.2906 24.8641L29.6 24.6391L29.8906 24.5547L29.9656 24.5172L29.9937 24.4984L30.3031 24.3391L30.4906 24.1891L30.6594 24.0953L30.8469 24.0578L31.3156 24.0203L31.4188 23.8609L31.625 23.8328L31.7469 23.6922L31.8875 23.6359L31.9906 23.4859L32.0844 23.3641L32.1969 23.2984L32.5812 23.2703L33.0312 23.3266L33.0969 23.2891L33.1906 22.9234L33.3031 22.8578L33.5844 22.4359V22.2859L33.5937 22.1547L33.6406 21.9672L33.6125 21.6484L33.65 21.3109L33.8281 20.8891L33.9875 20.7203L34.2406 20.5422L34.3719 20.4859L34.5594 20.4578H34.5781L34.625 20.4391H35.4875L35.7031 20.4297L36.2375 20.5234H36.275L36.4531 20.5891L36.6594 20.7484L36.8844 20.9641L36.9219 21.0016L37.0625 21.0672L37.1094 21.0859L37.2219 21.0672L37.3906 20.9734L37.5219 20.8797L37.6906 20.7859V20.7672L37.7937 20.6266L37.8313 20.5609L38.1687 20.4297L38.5625 20.4109L38.6094 20.3828H38.6281L38.7312 20.2516H38.825L39.0688 20.3453L39.2281 20.3078L39.3594 20.3547L39.4625 20.3453L39.65 20.3172L39.8656 20.4672L39.9875 20.4859L40.4094 20.7297H40.4469L40.4656 20.7391L40.5125 20.7203L40.5875 20.7016H40.5969L40.6062 20.7109L40.6625 20.7766L40.7281 20.7859L40.8031 20.6922L40.775 20.6359L40.7656 20.6172L40.6062 20.5891L40.475 20.3547L40.6062 20.2141L40.4 19.9703L40.3625 19.9234V19.9141L40.2875 19.8016L39.9312 19.2578L39.4625 18.8828L39.3031 18.7609L39.2469 18.7141L38.9937 18.4609L38.8156 18.2266L38.7969 18.1797L38.7594 18.0953L38.6562 17.8703L38.4688 17.7297L38.3188 17.5609L38 17.1297L37.9531 17.0641L37.8781 17.0172H37.7188L37.7094 16.9984H37.7V16.9891L37.775 16.9141L37.8687 16.8953L37.8969 16.8109L37.7375 16.3516V16.3328L37.7281 16.1922L37.85 15.5266L37.8687 15.4422L38.0938 15.0016L38.225 14.8891L38.375 14.5984L38.5063 14.4109L38.6281 14.2891L38.6469 14.2797L38.8625 14.1484L39.05 14.1203L39.2281 14.0922L39.5375 14.1859H39.8188L39.8844 14.1766L40.0156 14.1578L40.2312 14.0922L40.3344 14.0266L40.3906 13.9516L40.5031 13.5766L40.5406 13.4547L40.6062 13.3234L41.0094 12.8641L41.3094 12.5828L41.9844 12.0953L42.3125 11.8984L42.4812 11.7953L43.9906 11.1203L44.3844 10.7266L44.5906 10.5203L44.9469 10.2766L45.3687 10.0984L45.7437 9.81719L45.8188 9.71406L45.9125 9.38594L46.0063 9.36719L46.0719 9.20781L46.1 9.16094L46.3906 8.95469L46.4281 8.93594L47.5813 8.35469L47.75 8.38281L47.8438 8.24219L48.1719 8.18594H48.2375L48.3219 8.13906L48.3875 8.01719V7.98906L48.3969 7.67031L48.4719 7.58594L48.5094 7.37969L48.5469 7.32344L48.5844 7.27656L48.6781 7.21094L48.6594 7.17344V7.16406Z" fill="#D47600"/>
</g>
<defs>
<clipPath id="clip0_4046_11859">
<rect width="60" height="45" fill="white"/>
</clipPath>
</defs>
</svg>
