<svg width="60" height="45" viewBox="0 0 60 45" fill="none" xmlns="http://www.w3.org/2000/svg">
<g clip-path="url(#clip0_4046_19000)">
<path d="M30 0H60V45H30V0Z" fill="white"/>
<path d="M0 0H30V45H0V0Z" fill="#006233"/>
<path d="M39.7506 16.875C38.5123 14.7303 36.601 13.0541 34.313 12.1064C32.025 11.1586 29.4882 10.9924 27.0961 11.6333C24.704 12.2743 22.5902 13.6867 21.0826 15.6514C19.575 17.6162 18.7578 20.0235 18.7578 22.5C18.7578 24.9765 19.575 27.3838 21.0826 29.3486C22.5902 31.3133 24.704 32.7257 27.0961 33.3667C29.4882 34.0076 32.025 33.8414 34.313 32.8936C36.601 31.9459 38.5123 30.2697 39.7506 28.125C38.5852 29.5806 36.9965 30.6383 35.204 31.1519C33.4114 31.6655 31.5037 31.6096 29.7443 30.9921C27.9848 30.3745 26.4607 29.2257 25.3824 27.7045C24.3041 26.1832 23.725 24.3646 23.725 22.5C23.725 20.6354 24.3041 18.8168 25.3824 17.2955C26.4607 15.7743 27.9848 14.6255 29.7443 14.0079C31.5037 13.3904 33.4114 13.3345 35.204 13.8481C36.9965 14.3617 38.5852 15.4194 39.7506 16.875M40.1256 22.5L30.0006 19.2L36.3006 27.825V17.175L30.0006 25.8L40.1256 22.5Z" fill="#D21034"/>
</g>
<defs>
<clipPath id="clip0_4046_19000">
<rect width="60" height="45" fill="white"/>
</clipPath>
</defs>
</svg>
