<svg width="60" height="45" viewBox="0 0 60 45" fill="none" xmlns="http://www.w3.org/2000/svg">
<g clip-path="url(#clip0_4046_19811)">
<path d="M0 30H60V45H0V30Z" fill="black"/>
<path d="M0 15H60V30H0V15Z" fill="white"/>
<path d="M0 0H60V15H0V0Z" fill="#CE1126"/>
<path d="M30.0544 22.6787L35.1919 27.4487L34.8244 18.7862C34.7719 17.4737 33.6319 17.7737 32.7994 18.2462C31.9669 18.7862 30.9994 18.7862 29.9944 18.4337C28.9819 18.7862 28.0219 18.7862 27.1894 18.2462C26.3644 17.7737 25.2169 17.4737 25.1644 18.7862L24.7969 27.4487L30.0544 22.6787V22.6787Z" fill="white"/>
<path fill-rule="evenodd" clip-rule="evenodd" d="M25.8854 17.8001C26.2972 17.7689 26.8011 17.9684 27.2155 18.2058C27.2163 18.2062 27.217 18.2067 27.2178 18.2072C28.0337 18.7364 28.9768 18.7389 29.9802 18.3895C29.9906 18.3859 30.002 18.3859 30.0124 18.3896C31.0082 18.7389 31.9588 18.7364 32.7747 18.2072C32.7755 18.2067 32.7763 18.2062 32.7772 18.2057C33.1951 17.9685 33.6991 17.7689 34.1099 17.8001C34.3175 17.8158 34.5043 17.8908 34.6418 18.0519C34.7786 18.2121 34.8616 18.4515 34.875 18.7861L35.2425 27.4485C35.2433 27.4683 35.2321 27.4866 35.2142 27.4948C35.1962 27.5031 35.1751 27.4998 35.1606 27.4863L30.0559 22.7467L24.8315 27.4867C24.8169 27.4999 24.7959 27.5031 24.7781 27.4947C24.7603 27.4864 24.7492 27.4682 24.75 27.4485L25.1175 18.7861C25.1175 18.7861 25.1175 18.7861 25.1175 18.7861C25.1309 18.4514 25.2144 18.212 25.3518 18.0518C25.4899 17.8907 25.6774 17.8158 25.8854 17.8001ZM30.0562 22.6806L30.0894 22.6449L35.14 27.3342L34.7775 18.7901L34.7775 18.79C34.7647 18.4684 34.6854 18.2531 34.5677 18.1152C34.4507 17.9782 34.2906 17.9116 34.1026 17.8973C33.7225 17.8685 33.2408 18.0548 32.8266 18.2898C31.9822 18.8368 31.0042 18.8371 29.9962 18.4872C28.9809 18.8371 28.0102 18.8369 27.1659 18.2897C26.7555 18.0549 26.2737 17.8685 25.8927 17.8973C25.7042 17.9116 25.5433 17.9782 25.4258 18.1153C25.3075 18.2532 25.2278 18.4685 25.215 18.79L25.215 18.7901L24.8524 27.3361L30.0235 22.6445L30.0562 22.6806Z" fill="#C09300"/>
<path d="M25.7569 18.4883L25.3969 26.9108L24.7969 27.4508L25.1644 18.7883C25.3416 18.6524 25.5425 18.5507 25.7569 18.4883V18.4883ZM26.4769 19.0883L26.1769 26.1383L25.5769 26.7533L25.9369 18.6158C26.0569 18.7358 26.4094 19.0283 26.4769 19.0883ZM27.1294 19.6283L26.8969 25.5083L26.4094 25.9808L26.7094 19.2758C26.8294 19.3883 27.0694 19.5608 27.1294 19.6283ZM27.8419 19.9283L27.6094 24.9383L27.1369 25.3208L27.3694 19.7483C27.4894 19.8008 27.7219 19.9283 27.8419 19.9283ZM28.5019 19.9283L28.3294 24.1058L27.8419 24.5783L28.0294 19.9808C28.1419 19.9808 28.4494 19.9808 28.5019 19.9283Z" fill="#C09300"/>
<path d="M30.2391 23.625L30.9591 26.91L30.7191 27.15L30.4716 26.9625L30.0666 24.0375L30.2391 26.9625L29.9991 27.2625L29.7666 26.9625L29.9391 24.0375L29.5266 26.9625L29.2791 27.15L29.0391 26.91L29.7591 23.6325H30.2391V23.625Z" fill="#C09300"/>
<path fill-rule="evenodd" clip-rule="evenodd" d="M29.7241 23.5898H30.2373V23.6191L30.2776 23.6148L31.0024 26.9218L30.7211 27.2032L30.4313 26.9837L30.1677 25.0799L30.2794 26.9745L29.9968 27.3278L29.7227 26.9741L29.8364 25.0474L29.5633 26.9837L29.2736 27.2032L28.9922 26.9218L29.7241 23.5898ZM30.2058 23.6723H29.7905L29.0825 26.8954L29.2811 27.094L29.4864 26.9385L29.8965 24.0303L29.9785 24.0385L29.8069 26.9481L29.9978 27.1944L30.1952 26.9477L30.0236 24.0385L30.1057 24.0304L30.5083 26.9385L30.7136 27.094L30.9122 26.8954L30.2058 23.6723Z" fill="#C09300"/>
<path d="M28.3856 22.1875L26.9531 27.265L28.9256 27.565L29.7581 23.7475L28.3856 22.1875Z" fill="white"/>
<path fill-rule="evenodd" clip-rule="evenodd" d="M28.3738 22.1417C28.3899 22.1381 28.4066 22.1435 28.4175 22.1559L29.79 23.7159C29.7995 23.7266 29.8033 23.7412 29.8002 23.7552L28.9677 27.5727C28.9627 27.5959 28.9405 27.6112 28.917 27.6076L26.9445 27.3076C26.9317 27.3057 26.9204 27.2984 26.9134 27.2875C26.9064 27.2767 26.9044 27.2633 26.9079 27.2509L28.3404 22.1734C28.3449 22.1575 28.3577 22.1454 28.3738 22.1417ZM28.4046 22.2775L27.0084 27.2263L28.8888 27.5123L29.7074 23.7583L28.4046 22.2775Z" fill="#C09300"/>
<path fill-rule="evenodd" clip-rule="evenodd" d="M29.0483 23.4886L28.1183 24.3736C28.1067 24.3847 28.0903 24.3893 28.0746 24.386C28.0589 24.3827 28.0459 24.3719 28.0397 24.3571L27.8672 23.9446L27.9571 23.907L28.1023 24.2542L28.9811 23.418L29.0483 23.4886Z" fill="#C09300"/>
<path fill-rule="evenodd" clip-rule="evenodd" d="M28.7047 24.704L28.5097 22.8815L28.6066 22.8711L28.7885 24.5716L29.3068 23.8893L29.3844 23.9483L29.1625 24.2404L29.402 25.0758L29.5149 24.9045L29.5963 24.9581L29.4374 25.1992L29.475 25.3303L29.3813 25.3572L29.3667 25.3065L28.9494 25.9397L29.1533 26.9012L29.0579 26.9214L28.8723 26.0463L28.4865 26.6379C28.4762 26.6536 28.4578 26.6621 28.4392 26.6596C28.4205 26.6571 28.405 26.6441 28.3992 26.6263L28.1992 26.0067L27.8196 26.6219C27.8094 26.6384 27.7903 26.6473 27.7711 26.6445C27.7519 26.6417 27.7361 26.6277 27.7311 26.609L27.4236 25.469C27.4191 25.4523 27.4237 25.4346 27.4357 25.4222L28.0507 24.7922C28.0629 24.7797 28.0809 24.7747 28.0978 24.7791C28.1147 24.7834 28.128 24.7965 28.1326 24.8134L28.2937 25.3997L28.6766 24.8871C28.6882 24.8715 28.7079 24.8644 28.7268 24.8688C28.7457 24.8733 28.7602 24.8886 28.7636 24.9077L28.9237 25.8015L29.3313 25.183L29.0889 24.3373L28.7919 24.7283C28.7799 24.7442 28.7593 24.7511 28.7401 24.7457C28.7208 24.7404 28.7068 24.7238 28.7047 24.704ZM28.8442 25.9108L28.6874 25.0355L28.3122 25.538C28.301 25.5529 28.2824 25.5601 28.2641 25.5567C28.2458 25.5532 28.2311 25.5397 28.2261 25.5217L28.0611 24.9212L27.5249 25.4704L27.7958 26.4747L28.1716 25.8657C28.1816 25.8495 28.2001 25.8406 28.219 25.8429C28.2379 25.8452 28.2537 25.8582 28.2595 25.8763L28.4606 26.4991L28.8442 25.9108Z" fill="#C09300"/>
<path fill-rule="evenodd" clip-rule="evenodd" d="M27.7734 26.5397C27.7918 26.5428 27.8069 26.5561 27.8122 26.574L28.0357 27.3301L28.3386 26.8252C28.3485 26.8088 28.367 26.7997 28.386 26.8019C28.405 26.8041 28.421 26.8171 28.4268 26.8353L28.6593 27.5553L28.5665 27.5853L28.367 26.9674L28.0622 27.4754C28.0523 27.492 28.0335 27.5011 28.0143 27.4987C27.9951 27.4962 27.9792 27.4827 27.9737 27.4641L27.7472 26.6981L27.4078 27.1784L27.3281 27.1222L27.7256 26.5597C27.7364 26.5444 27.755 26.5367 27.7734 26.5397Z" fill="#C09300"/>
<path d="M29.9984 29.5344C31.4984 29.5344 32.9234 29.4144 33.7634 29.1819C34.1159 29.1144 34.1159 28.9344 34.1159 28.6944C34.4759 28.5744 34.2959 28.1544 34.5434 28.1544C34.2884 28.2294 34.2434 27.7419 33.9434 27.8019C33.9434 27.3819 33.5159 27.3294 33.1634 27.4494C32.4509 27.6819 31.1909 27.7419 29.9984 27.7419C28.7984 27.6819 27.5534 27.6819 26.8334 27.4419C26.4809 27.3294 26.0609 27.3819 26.0609 27.8019C25.7609 27.7419 25.7084 28.2219 25.4609 28.1544C25.7084 28.1544 25.5209 28.5819 25.8809 28.6944C25.8809 28.9344 25.8809 29.1144 26.2409 29.1819C27.0659 29.4144 28.5059 29.5344 29.9984 29.5344V29.5344Z" fill="white"/>
<path fill-rule="evenodd" clip-rule="evenodd" d="M26.2818 27.3374C26.4558 27.2772 26.6703 27.2967 26.8571 27.3564L26.8582 27.3567L26.8582 27.3567C27.2064 27.4728 27.6876 27.5323 28.2383 27.5698C28.5776 27.5929 28.9381 27.6073 29.306 27.6221C29.5345 27.6313 29.7659 27.6406 29.9969 27.6521C31.1908 27.652 32.4349 27.5913 33.1312 27.3642C33.3185 27.3006 33.5347 27.279 33.7105 27.338C33.8 27.368 33.8813 27.4199 33.9399 27.4997C33.9829 27.5582 34.011 27.6282 34.023 27.7087C34.0816 27.715 34.1326 27.7377 34.1766 27.7692C34.2395 27.8143 34.2888 27.8782 34.328 27.9292L34.3293 27.931C34.3718 27.9862 34.4024 28.0262 34.4352 28.0512C34.4502 28.0627 34.4635 28.0695 34.4777 28.0717C34.4975 28.0668 34.5182 28.0646 34.5397 28.0646C34.5844 28.0646 34.6224 28.0975 34.6288 28.1418C34.6352 28.1861 34.608 28.2283 34.5651 28.2409C34.5458 28.2466 34.5271 28.2501 34.5091 28.2516C34.5061 28.254 34.5021 28.2582 34.4973 28.2667C34.4837 28.2905 34.4754 28.3229 34.4623 28.3747C34.4601 28.3832 34.4578 28.3924 34.4553 28.4021C34.4396 28.463 34.4176 28.5397 34.3709 28.6096C34.332 28.6677 34.2779 28.7185 34.2021 28.7552C34.2011 28.8525 34.1944 28.9566 34.1477 29.0451C34.0862 29.1616 33.9682 29.2332 33.7802 29.2698C32.9277 29.505 31.4946 29.6246 29.9947 29.6246C28.5028 29.6246 27.0547 29.5051 26.2166 29.2698C26.0257 29.2333 25.9058 29.1622 25.843 29.0458C25.7953 28.9573 25.7883 28.8533 25.7873 28.7562C25.7117 28.7208 25.6578 28.6705 25.6194 28.6124C25.5731 28.5423 25.5523 28.4648 25.5375 28.4034C25.535 28.393 25.5327 28.3832 25.5305 28.374C25.5184 28.3227 25.5107 28.2903 25.4976 28.2663C25.4923 28.2566 25.4881 28.2525 25.4853 28.2505C25.4686 28.2492 25.4514 28.2463 25.4335 28.2414C25.39 28.2296 25.362 28.1873 25.368 28.1426C25.374 28.098 25.4121 28.0646 25.4572 28.0646C25.4765 28.0646 25.4953 28.0664 25.5133 28.0704C25.5277 28.0682 25.5416 28.0612 25.5579 28.0485C25.59 28.0236 25.6201 27.9851 25.6609 27.933C25.6628 27.9306 25.6647 27.9281 25.6667 27.9256C25.7065 27.8748 25.7566 27.8118 25.8202 27.7675C25.8645 27.7367 25.9155 27.7146 25.9738 27.7086C25.9856 27.6284 26.0132 27.5587 26.0553 27.5002C26.113 27.4202 26.1932 27.368 26.2818 27.3374ZM25.6631 28.1947C25.6843 28.2396 25.6968 28.2935 25.707 28.3378C25.7089 28.346 25.7107 28.3539 25.7125 28.3614C25.7268 28.4209 25.742 28.4714 25.7696 28.5132C25.7951 28.5518 25.8339 28.5868 25.904 28.6087C25.9416 28.6204 25.9672 28.6552 25.9672 28.6946C25.9672 28.8215 25.9694 28.9009 26.0014 28.9603C26.0282 29.0099 26.087 29.0624 26.2538 29.0936C26.2564 29.0941 26.259 29.0947 26.2616 29.0955C27.0741 29.3245 28.5038 29.4446 29.9947 29.4446C31.4928 29.4446 32.9078 29.3245 33.7357 29.0954C33.738 29.0947 33.7404 29.0942 33.7428 29.0937C33.9052 29.0626 33.9624 29.0106 33.9885 28.961C34.0201 28.9013 34.0222 28.8215 34.0222 28.6946C34.0222 28.6559 34.047 28.6215 34.0837 28.6092C34.1546 28.5856 34.1946 28.5494 34.2212 28.5096C34.2497 28.467 34.2658 28.4162 34.281 28.3571C34.2828 28.3499 34.2847 28.3423 34.2867 28.3344C34.2972 28.2921 34.3099 28.2411 34.3305 28.1977C34.3289 28.1965 34.3274 28.1954 34.3259 28.1942C34.2735 28.1541 34.2293 28.0964 34.1932 28.0493C34.1905 28.0457 34.1878 28.0422 34.1852 28.0388C34.1437 27.9847 34.1096 27.9427 34.0717 27.9156C34.0386 27.8918 34.0045 27.8809 33.9573 27.8903C33.9309 27.8956 33.9035 27.8888 33.8826 27.8717C33.8618 27.8546 33.8497 27.8291 33.8497 27.8021C33.8497 27.7128 33.8272 27.6503 33.7948 27.6062C33.7623 27.5618 33.7147 27.5293 33.6533 27.5087C33.5274 27.4664 33.3538 27.4786 33.1887 27.5348L33.1876 27.5352L33.1876 27.5352C32.4593 27.7728 31.1848 27.8321 29.9947 27.8321C29.9932 27.8321 29.9917 27.8321 29.9902 27.832C29.7625 27.8206 29.532 27.8113 29.3032 27.8022C28.9329 27.7873 28.5672 27.7726 28.2261 27.7494C27.6746 27.7119 27.1735 27.6515 26.8018 27.5277C26.6362 27.4749 26.4647 27.4646 26.3407 27.5075C26.2802 27.5284 26.2334 27.561 26.2013 27.6055C26.1694 27.6498 26.1472 27.7125 26.1472 27.8021C26.1472 27.8291 26.1351 27.8546 26.1143 27.8717C26.0934 27.8888 26.066 27.8956 26.0395 27.8903C25.9919 27.8808 25.957 27.8916 25.9231 27.9152C25.8848 27.9419 25.8501 27.9834 25.8083 28.0367C25.8051 28.0408 25.8018 28.045 25.7984 28.0493C25.7625 28.0955 25.719 28.1512 25.6685 28.1906C25.6667 28.192 25.6649 28.1933 25.6631 28.1947Z" fill="#C09300"/>
<path d="M27.9629 27.261C28.4429 27.3285 28.9829 27.381 29.4029 27.3285C29.6429 27.3285 29.8154 27.741 29.3354 27.801C28.9229 27.8535 28.2629 27.801 27.9104 27.741C27.4465 27.6598 26.9861 27.5598 26.5304 27.441C26.1104 27.261 26.4104 26.916 26.6504 26.961C27.0785 27.0982 27.5176 27.1986 27.9629 27.261V27.261ZM32.0279 27.261C31.5479 27.3285 31.0079 27.381 30.6029 27.3285C30.3479 27.3285 30.1754 27.741 30.6554 27.801C31.0754 27.8535 31.7279 27.801 32.0804 27.741C32.3804 27.681 33.0404 27.5685 33.4604 27.441C33.8804 27.261 33.5804 26.916 33.3404 26.961C32.9122 27.0983 32.4731 27.1986 32.0279 27.261V27.261Z" fill="white"/>
<path fill-rule="evenodd" clip-rule="evenodd" d="M26.5482 27.3967C26.4518 27.3548 26.4042 27.3067 26.3841 27.2647C26.3644 27.2235 26.3677 27.1809 26.3882 27.1407C26.4092 27.0994 26.4481 27.0617 26.4957 27.0369C26.5424 27.0125 26.5939 27.0024 26.6405 27.0103C27.0703 27.1478 27.5111 27.2485 27.958 27.3112M26.5482 27.3967C27.0014 27.5146 27.4592 27.6141 27.9206 27.6949C28.2707 27.7545 28.9253 27.8062 29.3311 27.7546L29.3312 27.7545C29.4447 27.7404 29.5124 27.7062 29.5498 27.6691C29.5861 27.6332 29.5975 27.5912 29.5926 27.5499C29.5822 27.4625 29.4996 27.3808 29.4076 27.3792C28.981 27.4319 28.4369 27.3785 27.958 27.3112M26.4507 26.9504C26.5137 26.9175 26.5885 26.9014 26.6612 26.915C26.6632 26.9154 26.6652 26.9159 26.6671 26.9165C27.0927 27.0528 27.529 27.1526 27.9715 27.2146L27.9648 27.2629L27.9716 27.2146C28.4514 27.2821 28.9857 27.3337 29.3987 27.282C29.4007 27.2818 29.4027 27.2817 29.4048 27.2817C29.5516 27.2817 29.6736 27.4054 29.6894 27.5384C29.6977 27.6078 29.6772 27.6802 29.6184 27.7384C29.5606 27.7956 29.4698 27.8355 29.3434 27.8513C28.9242 27.9046 28.2589 27.8514 27.9041 27.791L27.9039 27.7909C27.4387 27.7095 26.977 27.6091 26.52 27.4901C26.5176 27.4895 26.5153 27.4887 26.5131 27.4877C26.4017 27.44 26.3301 27.378 26.2961 27.3067C26.2614 27.2339 26.2693 27.1593 26.3013 27.0964C26.3328 27.0345 26.3877 26.9832 26.4507 26.9504ZM33.6984 27.3067C33.6644 27.378 33.5929 27.44 33.4815 27.4877C33.4798 27.4884 33.4781 27.489 33.4764 27.4896C33.1399 27.5917 32.6506 27.6843 32.315 27.7478C32.2287 27.7642 32.1526 27.7786 32.0918 27.7907L32.0904 27.791C31.7355 27.8514 31.0778 27.9046 30.6512 27.8513C30.5248 27.8355 30.4339 27.7956 30.3763 27.7383C30.3176 27.6799 30.2976 27.6073 30.3071 27.5376C30.3253 27.4036 30.4521 27.2817 30.6048 27.2817C30.6069 27.2817 30.609 27.2818 30.611 27.2821C31.0088 27.3336 31.543 27.2821 32.023 27.2146L32.0298 27.2629L32.023 27.2146C32.4655 27.1526 32.9019 27.0529 33.3274 26.9165C33.3293 26.9159 33.3313 26.9154 33.3333 26.915C33.406 26.9014 33.4808 26.9175 33.5439 26.9504C33.6068 26.9832 33.6617 27.0345 33.6932 27.0964C33.7252 27.1593 33.7332 27.2339 33.6984 27.3067ZM32.0365 27.3112C31.5578 27.3785 31.0136 27.4319 30.6018 27.3792C30.5008 27.3808 30.4154 27.4643 30.4037 27.5507C30.3981 27.5917 30.4091 27.6334 30.4451 27.6692C30.4822 27.7062 30.5498 27.7404 30.6633 27.7545C31.0764 27.8062 31.7231 27.7545 32.0734 27.695C32.1359 27.6825 32.2133 27.6678 32.3005 27.6513C32.6355 27.5879 33.1148 27.4972 33.4455 27.3971C33.5425 27.355 33.5903 27.3069 33.6105 27.2647C33.6301 27.2235 33.6268 27.1809 33.6063 27.1407C33.5853 27.0994 33.5465 27.0617 33.4988 27.0369C33.4521 27.0125 33.4006 27.0024 33.3541 27.0103C32.9242 27.1479 32.4835 27.2485 32.0366 27.3112" fill="#C09300"/>
<path d="M26.4709 27.0307C26.1109 26.9632 25.9459 27.3832 26.0584 27.6232C26.1109 27.5032 26.3584 27.5032 26.4109 27.3832C26.4784 27.2032 26.3584 27.2032 26.4784 27.0307H26.4709ZM27.9109 28.1332C27.9109 27.8932 28.1434 27.9232 28.1434 27.6832C28.1434 27.5707 28.0834 27.3832 27.9634 27.3832C27.9009 27.3868 27.8419 27.4132 27.7976 27.4575C27.7534 27.5017 27.7269 27.5607 27.7234 27.6232C27.6709 27.8557 27.9109 27.8932 27.9109 28.1332V28.1332ZM29.6134 27.4507C29.9659 27.4507 29.9284 27.9232 29.7634 28.1632C29.7634 27.9907 29.4634 27.9232 29.4634 27.8032C29.4634 27.6232 29.7334 27.6232 29.6134 27.4507ZM33.5134 27.0307C33.8809 26.9632 34.0534 27.3832 33.9334 27.6232C33.8809 27.5032 33.6334 27.5032 33.5809 27.3832C33.5134 27.2032 33.6334 27.2032 33.5134 27.0307V27.0307ZM32.0959 28.1257C32.0959 27.8857 31.8559 27.9157 31.8559 27.6757C31.8559 27.5632 31.9159 27.3757 32.0359 27.3757C32.0984 27.3793 32.1573 27.4057 32.2016 27.45C32.2458 27.4942 32.2723 27.5532 32.2759 27.6157C32.3284 27.8482 32.0884 27.8857 32.0884 28.1257H32.0959ZM30.3709 27.4507C30.0184 27.4507 30.0559 27.9232 30.2209 28.1632C30.2209 27.9907 30.5209 27.9232 30.5209 27.8032C30.5209 27.6232 30.2509 27.6232 30.3709 27.4507Z" fill="white"/>
<path fill-rule="evenodd" clip-rule="evenodd" d="M26.4772 26.9799C26.2754 26.944 26.1269 27.0454 26.047 27.1855C25.9682 27.3236 25.9521 27.5054 26.0161 27.6419C26.0242 27.6592 26.0417 27.6702 26.0609 27.6699C26.08 27.6697 26.0972 27.6583 26.1049 27.6407C26.1123 27.6239 26.1278 27.6081 26.1551 27.5918C26.1826 27.5754 26.2162 27.5618 26.2546 27.5465L26.2565 27.5457C26.2927 27.5312 26.3332 27.515 26.3679 27.4943C26.4035 27.4731 26.4385 27.444 26.4574 27.4007C26.4578 27.3999 26.4581 27.3991 26.4584 27.3983C26.4771 27.3486 26.4835 27.3091 26.4836 27.2746C26.4838 27.248 26.4799 27.2244 26.4769 27.2066C26.4762 27.2024 26.4756 27.1985 26.475 27.1949C26.4722 27.1759 26.4714 27.1612 26.4759 27.1429C26.4807 27.1236 26.4923 27.0968 26.5203 27.0565C26.5306 27.0416 26.5319 27.0222 26.5235 27.0061C26.5151 26.99 26.4984 26.9799 26.4802 26.9799H26.4772ZM26.3991 27.0702C26.2765 27.0696 26.1863 27.1379 26.1317 27.2338C26.0809 27.3228 26.0633 27.4317 26.0804 27.5243C26.0885 27.5184 26.0968 27.513 26.1051 27.5081C26.1398 27.4873 26.1803 27.4711 26.2165 27.4567L26.2184 27.4559C26.2568 27.4406 26.2904 27.427 26.3179 27.4106C26.3446 27.3947 26.3601 27.3791 26.3676 27.3627C26.3823 27.3232 26.3861 27.2955 26.3861 27.2742C26.3862 27.2566 26.384 27.2429 26.3812 27.226C26.3804 27.2208 26.3795 27.2153 26.3786 27.2093C26.3749 27.1843 26.3724 27.1554 26.3812 27.1195C26.3851 27.1039 26.391 27.0876 26.3991 27.0702ZM33.5152 27.0287L33.4752 27.0565C33.5032 27.0968 33.5148 27.1236 33.5196 27.1429C33.5241 27.1612 33.5233 27.1759 33.5205 27.1949C33.5199 27.1985 33.5193 27.2024 33.5186 27.2066C33.5156 27.2244 33.5117 27.248 33.5119 27.2746C33.512 27.3091 33.5184 27.3486 33.5371 27.3983C33.5374 27.3991 33.5377 27.3999 33.5381 27.4007C33.557 27.444 33.592 27.4731 33.6276 27.4943C33.6623 27.515 33.7028 27.5312 33.739 27.5457L33.7409 27.5465C33.7793 27.5618 33.8129 27.5754 33.8404 27.5918C33.8677 27.6081 33.8832 27.6239 33.8906 27.6407C33.8982 27.6581 33.9151 27.6694 33.934 27.6699C33.9529 27.6704 33.9704 27.6599 33.9789 27.643C34.0474 27.5059 34.0311 27.3234 33.9501 27.185C33.8674 27.0437 33.7135 26.9427 33.5064 26.9807L33.5152 27.0287ZM33.866 27.2342C33.8108 27.14 33.7197 27.0717 33.5964 27.0702C33.6045 27.0876 33.6104 27.1039 33.6143 27.1195C33.6231 27.1554 33.6206 27.1843 33.6169 27.2093C33.616 27.2153 33.6151 27.2208 33.6143 27.226C33.6115 27.2429 33.6093 27.2566 33.6093 27.2742C33.6094 27.2955 33.6132 27.3232 33.6279 27.3627C33.6354 27.3791 33.6509 27.3947 33.6776 27.4106C33.7051 27.427 33.7387 27.4406 33.7771 27.4559L33.779 27.4567C33.8152 27.4711 33.8557 27.4873 33.8904 27.5081C33.8993 27.5134 33.9082 27.5192 33.9168 27.5256C33.9359 27.433 33.9183 27.3237 33.866 27.2342ZM31.9465 27.503C31.92 27.5568 31.9065 27.6244 31.9065 27.6737C31.9065 27.7246 31.919 27.7585 31.9361 27.785C31.9544 27.8131 31.9791 27.8351 32.0099 27.862L32.0117 27.8636C32.0364 27.8852 32.0652 27.9104 32.0894 27.9425C32.1097 27.9064 32.1338 27.8759 32.1556 27.8482C32.1589 27.844 32.1621 27.8399 32.1653 27.8359C32.192 27.8017 32.2128 27.7728 32.225 27.7405C32.2366 27.7098 32.2413 27.6736 32.2302 27.6244C32.2296 27.6218 32.2292 27.6192 32.2291 27.6165C32.2262 27.5659 32.2048 27.5182 32.169 27.4824C32.1336 27.447 32.0865 27.4257 32.0365 27.4225C32.0057 27.4231 31.9737 27.4477 31.9465 27.503ZM32.1432 28.0743C32.1554 28.0065 32.1924 27.9593 32.2345 27.9056C32.237 27.9024 32.2396 27.8991 32.2421 27.8959C32.2688 27.8617 32.2982 27.8225 32.3162 27.775C32.3345 27.7267 32.3402 27.6722 32.3262 27.6068C32.321 27.5339 32.2897 27.4652 32.238 27.4135C32.1852 27.3608 32.115 27.3293 32.0405 27.325C32.04 27.325 32.0395 27.325 32.039 27.325C32.0386 27.3249 32.0382 27.3249 32.0378 27.3249C31.9489 27.3249 31.8914 27.3941 31.859 27.46C31.8255 27.5281 31.809 27.6105 31.809 27.6737C31.809 27.7427 31.8265 27.7951 31.8543 27.838C31.8806 27.8785 31.9149 27.9085 31.9438 27.9338L31.9456 27.9354C31.9764 27.9623 32.0011 27.9843 32.0193 28.0124C32.0304 28.0294 32.0395 28.0494 32.0446 28.0751C32.0426 28.0905 32.0415 28.1067 32.0415 28.1237C32.0415 28.1506 32.0633 28.1724 32.0902 28.1724H32.0977C32.1247 28.1724 32.1465 28.1506 32.1465 28.1237C32.1465 28.1062 32.1454 28.0898 32.1432 28.0743ZM27.9625 27.3325C27.9634 27.3325 27.9643 27.3324 27.9652 27.3324C28.0541 27.3324 28.1116 27.4016 28.144 27.4675C28.1775 27.5356 28.194 27.618 28.194 27.6812C28.194 27.7499 28.1771 27.8021 28.1502 27.8449C28.1248 27.8854 28.0914 27.9155 28.0634 27.9408L28.0617 27.9424C28.0319 27.9693 28.008 27.9912 27.9904 28.0193C27.9737 28.0459 27.9615 28.0799 27.9615 28.1312H27.864C27.864 28.035 27.8201 27.9789 27.7685 27.9131C27.766 27.9099 27.7634 27.9066 27.7609 27.9034C27.7342 27.8692 27.7048 27.83 27.6868 27.7825C27.6685 27.7342 27.6628 27.6797 27.6768 27.6143C27.682 27.5414 27.7133 27.4727 27.765 27.421C27.8178 27.3683 27.888 27.3368 27.9625 27.3325ZM27.9163 27.9547C27.8953 27.9165 27.8701 27.8846 27.8474 27.8557C27.8441 27.8515 27.8409 27.8474 27.8377 27.8434C27.811 27.8091 27.7902 27.7803 27.778 27.748C27.7664 27.7173 27.7617 27.6811 27.7728 27.6319C27.7734 27.6293 27.7738 27.6267 27.7739 27.624C27.7768 27.5734 27.7982 27.5257 27.834 27.4899C27.8694 27.4545 27.9165 27.4332 27.9665 27.43C27.9973 27.4306 28.0293 27.4552 28.0565 27.5105C28.083 27.5643 28.0965 27.6319 28.0965 27.6812C28.0965 27.7325 28.0843 27.7665 28.0676 27.7931C28.05 27.8211 28.0261 27.8431 27.9963 27.87L27.9946 27.8716C27.9696 27.8942 27.9403 27.9206 27.9163 27.9547ZM29.572 27.4261C29.5804 27.41 29.5971 27.3999 29.6152 27.3999C29.7153 27.3999 29.7928 27.434 29.8467 27.4936C29.8995 27.5518 29.9252 27.6296 29.9328 27.7103C29.9481 27.8706 29.8939 28.06 29.8054 28.1888C29.7933 28.2064 29.7712 28.2141 29.7508 28.2077C29.7304 28.2014 29.7165 28.1825 29.7165 28.1612C29.7165 28.1335 29.7048 28.1079 29.6815 28.081C29.6576 28.0533 29.6244 28.0279 29.587 28.0012C29.5808 27.9968 29.5744 27.9923 29.5679 27.9877C29.5374 27.9663 29.5047 27.9433 29.4791 27.9197C29.4485 27.8915 29.4165 27.8525 29.4165 27.8012C29.4165 27.6956 29.4906 27.636 29.5386 27.5973C29.5441 27.5929 29.5492 27.5887 29.5539 27.5848C29.5807 27.5623 29.5922 27.5486 29.5959 27.5367C29.5982 27.5294 29.6005 27.5128 29.5752 27.4765C29.5649 27.4616 29.5636 27.4422 29.572 27.4261ZM29.6933 27.5082C29.728 27.5188 29.7544 27.5368 29.7745 27.559C29.8087 27.5968 29.8294 27.6521 29.8358 27.7195C29.8455 27.8222 29.821 27.9426 29.7755 28.0432C29.7692 28.0341 29.7624 28.0254 29.7552 28.0171C29.7229 27.9798 29.6811 27.9485 29.6435 27.9218C29.6361 27.9165 29.6289 27.9114 29.6219 27.9065C29.5916 27.8851 29.5656 27.8668 29.5451 27.8479C29.5195 27.8243 29.514 27.8099 29.514 27.8012C29.514 27.7446 29.5495 27.7151 29.6007 27.6727C29.6059 27.6684 29.6112 27.664 29.6166 27.6595C29.6423 27.6379 29.6758 27.608 29.689 27.5657C29.6949 27.5468 29.6962 27.5276 29.6933 27.5082ZM30.1412 27.4936C30.1952 27.434 30.2727 27.3999 30.3727 27.3999C30.3909 27.3999 30.4075 27.41 30.416 27.4261C30.4244 27.4422 30.4231 27.4616 30.4128 27.4765C30.3875 27.5128 30.3898 27.5294 30.3921 27.5367C30.3958 27.5486 30.4073 27.5623 30.4341 27.5848C30.4388 27.5887 30.4439 27.5929 30.4494 27.5973C30.4974 27.636 30.5715 27.6956 30.5715 27.8012C30.5715 27.8525 30.5395 27.8915 30.5089 27.9197C30.4833 27.9433 30.4506 27.9663 30.4201 27.9877C30.4136 27.9923 30.4072 27.9968 30.401 28.0012C30.3636 28.0279 30.3304 28.0533 30.3065 28.081C30.2832 28.1079 30.2715 28.1335 30.2715 28.1612C30.2715 28.1825 30.2576 28.2014 30.2372 28.2077C30.2168 28.2141 30.1947 28.2064 30.1826 28.1888C30.0941 28.06 30.0399 27.8706 30.0552 27.7103C30.0628 27.6296 30.0885 27.5518 30.1412 27.4936ZM30.2125 28.0432C30.167 27.9426 30.1425 27.8222 30.1522 27.7195C30.1586 27.6521 30.1793 27.5968 30.2135 27.559C30.2336 27.5368 30.26 27.5188 30.2947 27.5082C30.2918 27.5276 30.2931 27.5468 30.299 27.5657C30.3122 27.608 30.3457 27.6379 30.3714 27.6595C30.3768 27.664 30.3821 27.6684 30.3872 27.6727C30.4385 27.7151 30.474 27.7446 30.474 27.8012C30.474 27.8099 30.4685 27.8243 30.4429 27.8479C30.4224 27.8668 30.3964 27.8851 30.3661 27.9065C30.3591 27.9114 30.3519 27.9165 30.3445 27.9218C30.3069 27.9485 30.2651 27.9798 30.2328 28.0171C30.2256 28.0254 30.2188 28.0341 30.2125 28.0432Z" fill="#C09300"/>
<path d="M26.5938 27.1523C26.7138 27.1523 26.8937 27.2048 26.9462 27.2723L26.5938 27.1523ZM27.1862 27.3323C27.2462 27.3323 27.4862 27.3848 27.5987 27.4523L27.1862 27.3323ZM29.3313 27.5723C29.2188 27.5723 28.9788 27.5723 28.9188 27.6248L29.3313 27.5648V27.5723ZM28.6787 27.5723C28.6112 27.5048 28.3787 27.5048 28.2587 27.5723H28.6787ZM33.3887 27.1523C33.2615 27.1539 33.138 27.196 33.0362 27.2723L33.3887 27.1523ZM32.8037 27.3323C32.7287 27.3323 32.5037 27.3848 32.3837 27.4523L32.8037 27.3323ZM30.6512 27.5723C30.7637 27.5723 31.0037 27.5723 31.0712 27.6248L30.6512 27.5648V27.5723ZM31.3037 27.5723C31.3712 27.5048 31.6037 27.5048 31.7237 27.5723H31.3037Z" fill="white"/>
<path fill-rule="evenodd" clip-rule="evenodd" d="M33.4245 27.1452C33.4273 27.1616 33.4178 27.1775 33.4021 27.1829L33.0496 27.3029C33.0339 27.3082 33.0167 27.3014 33.0089 27.2867C33.0012 27.272 33.0052 27.2539 33.0185 27.2439C33.126 27.1633 33.2564 27.1189 33.3908 27.1172C33.4074 27.117 33.4217 27.1289 33.4245 27.1452ZM26.563 27.1454C26.5657 27.1291 26.5797 27.1172 26.5963 27.1172C26.6604 27.1172 26.739 27.1311 26.8082 27.1535C26.843 27.1648 26.8762 27.1785 26.9047 27.1942C26.9327 27.2096 26.9583 27.2282 26.9754 27.2502C26.9845 27.262 26.9849 27.2784 26.9762 27.2905C26.9676 27.3027 26.952 27.3077 26.9379 27.3029L26.5854 27.1829C26.5697 27.1776 26.5603 27.1617 26.563 27.1454ZM27.1553 27.3262C27.1577 27.3095 27.172 27.2972 27.1888 27.2972C27.2235 27.2972 27.3023 27.3114 27.3839 27.333C27.4661 27.3547 27.5581 27.3857 27.6186 27.422C27.6332 27.4307 27.639 27.4489 27.6322 27.4644C27.6254 27.48 27.6081 27.4881 27.5918 27.4833L27.1793 27.3633C27.1632 27.3587 27.153 27.3428 27.1553 27.3262ZM32.6044 27.333C32.6855 27.3113 32.7641 27.2972 32.8063 27.2972C32.8231 27.2972 32.8373 27.3096 32.8397 27.3263C32.842 27.3429 32.8317 27.3588 32.8155 27.3634L32.3955 27.4834C32.3791 27.4881 32.3617 27.4797 32.3551 27.4639C32.3485 27.4481 32.3548 27.4299 32.3697 27.4215C32.4333 27.3857 32.5227 27.3549 32.6044 27.333ZM28.6123 27.5003C28.6481 27.5093 28.682 27.524 28.7051 27.5471C28.7148 27.5567 28.7177 27.5712 28.7124 27.5839C28.7072 27.5965 28.6949 27.6047 28.6813 27.6047H28.2613C28.2459 27.6047 28.2325 27.5943 28.2286 27.5795C28.2247 27.5646 28.2313 27.549 28.2447 27.5415C28.3115 27.504 28.406 27.4866 28.4909 27.4866C28.5338 27.4866 28.5759 27.491 28.6123 27.5003ZM31.4966 27.4866C31.5815 27.4866 31.676 27.504 31.7428 27.5415C31.7562 27.549 31.7628 27.5646 31.7589 27.5795C31.755 27.5943 31.7416 27.6047 31.7263 27.6047H31.3063C31.2926 27.6047 31.2803 27.5965 31.2751 27.5839C31.2698 27.5712 31.2727 27.5567 31.2824 27.5471C31.3055 27.524 31.3394 27.5093 31.3752 27.5003C31.4116 27.491 31.4537 27.4866 31.4966 27.4866ZM29.3558 27.5379C29.3632 27.5443 29.3675 27.5536 29.3675 27.5634V27.5709C29.3675 27.5896 29.3524 27.6047 29.3338 27.6047C29.319 27.6047 29.3021 27.6047 29.2838 27.6048L28.9261 27.6568C28.9113 27.659 28.8969 27.6511 28.8906 27.6376C28.8843 27.624 28.8878 27.6079 28.899 27.598C28.9208 27.579 28.9543 27.5677 28.9878 27.5602C29.0227 27.5523 29.0636 27.5472 29.1051 27.5439C29.1646 27.5391 29.2273 27.5377 29.2787 27.5373L29.3289 27.53C29.3386 27.5286 29.3484 27.5315 29.3558 27.5379ZM30.6316 27.5379C30.639 27.5315 30.6488 27.5286 30.6585 27.53L30.7098 27.5373C30.761 27.5377 30.8235 27.5391 30.8833 27.5439C30.9253 27.5472 30.9668 27.5523 31.0027 27.5601C31.0374 27.5677 31.0713 27.5788 31.0945 27.5968C31.1066 27.6062 31.1108 27.6225 31.1048 27.6366C31.0988 27.6507 31.0841 27.659 31.069 27.6568L30.7047 27.6048C30.686 27.6047 30.6688 27.6047 30.6538 27.6047C30.6351 27.6047 30.62 27.5896 30.62 27.5709V27.5634C30.62 27.5537 30.6242 27.5444 30.6316 27.5379Z" fill="#C09300"/>
<path d="M26.495 28.0966C26.4575 28.0891 26.435 28.0516 26.45 28.0216C26.4575 27.9691 26.495 27.9466 26.525 27.9616C26.555 27.9616 26.5925 28.0066 26.5925 28.0216L26.5625 28.0741L26.5475 28.0816C26.5475 28.0966 26.5175 28.0966 26.495 28.0966ZM30.62 28.3891C30.605 28.3891 30.575 28.3516 30.575 28.3366C30.575 28.3066 30.62 28.2616 30.65 28.2616L30.71 28.2916C30.7325 28.3141 30.7325 28.3591 30.7025 28.3816C30.6875 28.3966 30.6425 28.3966 30.62 28.3816V28.3891ZM30.6425 28.5766C30.6125 28.5616 30.605 28.5466 30.5975 28.5166C30.5975 28.4791 30.5975 28.4716 30.635 28.4491L30.665 28.4341L30.695 28.4491C30.725 28.4641 30.7475 28.4791 30.7475 28.5091C30.7475 28.5316 30.725 28.5541 30.695 28.5691C30.6725 28.5841 30.665 28.5841 30.6425 28.5691V28.5766Z" fill="#C09300"/>
<path d="M26.8309 27.75C26.8009 27.75 26.7634 27.78 26.7409 27.795C26.6959 27.8025 26.6359 27.8325 26.5909 27.795C26.5459 27.7875 26.4859 27.795 26.4784 27.855C26.4859 27.9075 26.5534 27.93 26.5984 27.9C26.6284 27.8625 26.7109 27.8325 26.7259 27.9C26.6884 27.96 26.6959 28.0275 26.6659 28.08C26.6659 28.1175 26.6434 28.1475 26.6284 28.1775C26.5909 28.1775 26.5534 28.1775 26.5234 28.2C26.5002 28.2 26.4772 28.2054 26.4564 28.2158C26.4355 28.2263 26.4174 28.2414 26.4034 28.26C26.3734 28.305 26.3434 28.35 26.3359 28.41C26.3434 28.455 26.4109 28.47 26.4559 28.4775L26.6059 28.5225L26.8459 28.59C26.9659 28.6275 27.0859 28.6425 27.2059 28.6725L27.2434 28.68C27.2959 28.695 27.3184 28.6425 27.3184 28.605L27.3934 28.335C27.4084 28.2975 27.4309 28.2225 27.3634 28.2375C27.3259 28.26 27.2884 28.2975 27.2434 28.2975C27.1759 28.2975 27.2134 28.3725 27.2434 28.395C27.2434 28.44 27.2284 28.4925 27.2059 28.53C27.1609 28.5525 27.1159 28.53 27.0709 28.515C27.0334 28.515 26.9434 28.4925 26.9809 28.44L27.0184 28.305C27.0409 28.26 27.0409 28.2075 27.0559 28.155C27.0259 28.1025 26.9809 28.1775 26.9434 28.185C26.9134 28.2 26.8234 28.2075 26.8684 28.26C26.9134 28.29 26.8834 28.3425 26.8684 28.3875C26.8684 28.44 26.8084 28.4625 26.7634 28.44C26.7184 28.44 26.6509 28.4025 26.6884 28.3575L26.7259 28.2225L26.7784 28.0725C26.7784 28.02 26.8009 27.9825 26.8234 27.9375C26.8234 27.885 26.8609 27.84 26.8609 27.7875C26.8609 27.765 26.8459 27.7575 26.8309 27.7575V27.75ZM26.5534 28.2975C26.5569 28.2955 26.5607 28.2945 26.5647 28.2945C26.5686 28.2945 26.5725 28.2955 26.5759 28.2975C26.5909 28.3125 26.5909 28.3275 26.5759 28.3425L26.5534 28.3575C26.5159 28.3575 26.5084 28.35 26.5084 28.335C26.5084 28.3275 26.5084 28.32 26.5309 28.3125C26.5401 28.3059 26.5502 28.3009 26.5609 28.2975H26.5534ZM26.4784 28.6725C26.4409 28.6425 26.4484 28.62 26.5009 28.575C26.5309 28.56 26.5384 28.56 26.5684 28.5825C26.6134 28.62 26.6134 28.6425 26.5684 28.68C26.5534 28.695 26.5459 28.695 26.5309 28.695C26.5084 28.695 26.5009 28.695 26.4784 28.68V28.6725ZM26.7034 28.7475C26.6867 28.7423 26.6726 28.7308 26.6642 28.7154C26.6558 28.7 26.6537 28.6819 26.6584 28.665C26.6734 28.635 26.6809 28.6275 26.7259 28.6275C26.7784 28.6275 26.7859 28.635 26.7934 28.68C26.7934 28.71 26.7934 28.7175 26.7709 28.7325C26.7626 28.7391 26.7529 28.7439 26.7426 28.7465C26.7322 28.7491 26.7214 28.7494 26.7109 28.7475H26.7034ZM33.3934 28.7475C33.3784 28.74 33.3709 28.7325 33.3709 28.71C33.3709 28.68 33.3859 28.6575 33.4309 28.6425C33.4759 28.62 33.5059 28.62 33.5209 28.6575C33.5434 28.7025 33.5434 28.7175 33.5134 28.7475C33.4984 28.77 33.4909 28.77 33.4534 28.77C33.4159 28.77 33.4084 28.77 33.3934 28.755V28.7475ZM27.0184 28.8375C26.9884 28.8375 26.9734 28.8075 26.9734 28.7775C26.9734 28.755 26.9734 28.7475 26.9884 28.7325L27.0334 28.7175L27.0784 28.725C27.1159 28.755 27.1234 28.785 27.1009 28.815C27.0784 28.845 27.0559 28.845 27.0109 28.8375H27.0184ZM28.6534 28.9125L28.6384 28.89C28.6384 28.845 28.6384 28.8075 28.6534 28.7625C28.6609 28.725 28.6534 28.6875 28.6684 28.65L28.6984 28.44C28.6984 28.4025 28.6984 28.365 28.7134 28.335C28.7209 28.275 28.7134 28.2225 28.7284 28.17C28.7284 28.1475 28.7509 28.095 28.7734 28.125C28.8034 28.17 28.8409 28.2 28.8784 28.2375C28.9084 28.26 28.8784 28.29 28.8559 28.2975C28.8259 28.305 28.8184 28.3425 28.8184 28.3725L28.8034 28.4625C28.8034 28.515 28.8034 28.56 28.7884 28.6125L28.7809 28.7475L28.7659 28.8375C28.7659 28.8675 28.7659 28.905 28.7359 28.92C28.7134 28.935 28.6759 28.935 28.6609 28.9125H28.6534ZM30.8809 28.1775L30.7834 28.2675C30.7384 28.305 30.8209 28.32 30.8284 28.35C30.8434 28.395 30.8434 28.44 30.8434 28.485C30.8584 28.53 30.8659 28.5675 30.8584 28.6125C30.8584 28.665 30.7984 28.65 30.7684 28.68C30.7309 28.695 30.7159 28.7325 30.6934 28.755C30.6756 28.7926 30.6654 28.8334 30.6634 28.875C30.6634 28.9125 30.6409 28.95 30.6634 28.98L30.6709 28.995H30.7084L30.8209 28.9875C30.9109 28.9725 31.0084 28.9725 31.0984 28.965L31.2634 28.95C31.3084 28.9575 31.3309 28.9125 31.3309 28.875C31.3009 28.8225 31.3234 28.77 31.3009 28.725C31.2859 28.665 31.2934 28.6125 31.2859 28.56C31.2859 28.515 31.2334 28.5 31.2109 28.53C31.1809 28.56 31.1359 28.5675 31.1209 28.5975C31.0984 28.6425 31.1659 28.6425 31.1809 28.6725L31.1884 28.785C31.1959 28.83 31.1509 28.83 31.1134 28.8375C31.0759 28.8525 31.0234 28.86 31.0009 28.815C30.9859 28.7775 30.9859 28.74 30.9859 28.7025C30.9859 28.6275 30.9634 28.5675 30.9634 28.5C30.9634 28.425 30.9409 28.3425 30.9409 28.26C30.9409 28.2225 30.9334 28.17 30.8809 28.1775V28.1775ZM30.8359 28.7925H30.8584V28.8525L30.8359 28.86C30.8261 28.8631 30.8161 28.8656 30.8059 28.8675C30.8009 28.8677 30.7959 28.8677 30.7909 28.8675C30.7759 28.8525 30.7759 28.83 30.7984 28.8075L30.8359 28.7925V28.7925ZM28.5859 28.1025C28.5634 28.1025 28.5259 28.155 28.4959 28.1475C28.4284 28.155 28.4359 28.2225 28.4884 28.245V28.305C28.4959 28.365 28.4584 28.4175 28.4659 28.4775C28.4659 28.5375 28.4434 28.605 28.4434 28.6725C28.4209 28.74 28.4209 28.8075 28.4134 28.875C28.4059 28.935 28.3609 28.9125 28.3234 28.8975V28.8225C28.3309 28.755 28.2859 28.74 28.2334 28.7325C28.1809 28.7325 28.1584 28.695 28.1734 28.65C28.1959 28.62 28.2484 28.6275 28.2859 28.6275C28.3609 28.6425 28.3534 28.545 28.3159 28.5075C28.2859 28.4625 28.2259 28.4325 28.2109 28.3875C28.2109 28.3275 28.1734 28.26 28.1209 28.23C28.0384 28.2225 27.9709 28.29 27.9484 28.365C27.9109 28.365 27.8734 28.38 27.8434 28.395C27.7909 28.41 27.7159 28.5 27.7909 28.5375C27.8284 28.545 27.9559 28.575 27.8959 28.6275C27.8659 28.6875 27.8059 28.6875 27.7534 28.6725C27.7009 28.6725 27.6409 28.6425 27.6409 28.5825C27.6334 28.5225 27.6334 28.4625 27.6109 28.41C27.5959 28.35 27.5284 28.365 27.5209 28.425C27.4684 28.4625 27.4759 28.53 27.5134 28.575C27.5359 28.6275 27.5134 28.695 27.4909 28.74C27.4759 28.815 27.4009 28.815 27.3484 28.83C27.3259 28.845 27.2284 28.83 27.2659 28.8825C27.3222 28.9084 27.3851 28.9163 27.4459 28.905C27.5059 28.905 27.5584 28.8525 27.5959 28.8C27.6334 28.7625 27.7009 28.785 27.7609 28.785C27.8134 28.785 27.8734 28.8225 27.9334 28.7925C27.9484 28.755 28.0234 28.68 28.0459 28.755C28.0459 28.8225 28.0984 28.8525 28.1584 28.845C28.2259 28.845 28.1959 28.89 28.1959 28.935C28.1959 29.0025 28.2484 29.04 28.3084 29.07H28.3684C28.4209 29.0475 28.4809 29.025 28.5034 28.965C28.5259 28.9125 28.5259 28.8525 28.5409 28.8C28.5559 28.7175 28.5709 28.6275 28.5709 28.545C28.5934 28.47 28.5859 28.3875 28.6009 28.305L28.6234 28.1325C28.6234 28.095 28.6084 28.095 28.5859 28.1025V28.1025ZM28.0834 28.41C28.0909 28.41 28.0984 28.425 28.0984 28.4475C28.0984 28.4775 28.1134 28.5 28.1359 28.5075V28.53L28.0759 28.545C28.0384 28.545 28.0084 28.53 27.9859 28.5075L27.9709 28.4925L27.9934 28.4775L28.0309 28.44C28.0534 28.4175 28.0684 28.41 28.0834 28.41V28.41ZM33.0334 27.8175C32.9903 27.8206 32.9476 27.8281 32.9059 27.84C32.8309 27.84 32.7934 27.915 32.8684 27.96C32.9134 28.0725 32.9809 27.93 33.0559 27.945C33.1609 27.96 33.1684 28.08 33.1909 28.17C33.1909 28.2525 33.2209 28.335 33.2434 28.4175C33.3184 28.5 33.1909 28.5525 33.1384 28.4925C33.0934 28.44 32.9884 28.38 32.9359 28.4475C32.8684 28.4775 32.8609 28.5675 32.8084 28.5975C32.7184 28.62 32.7109 28.5075 32.6584 28.4625C32.6134 28.395 32.5309 28.3875 32.4634 28.3725C32.4334 28.305 32.4484 28.1925 32.3884 28.1475C32.3284 28.17 32.2234 28.275 32.3134 28.3275C32.3884 28.4025 32.2759 28.4325 32.2384 28.4775C32.1784 28.545 32.1634 28.6275 32.1634 28.7025C32.0659 28.755 32.0509 28.6425 32.0359 28.575C32.0359 28.4925 31.9609 28.515 31.9084 28.545C31.8334 28.575 31.8034 28.6425 31.7584 28.695V28.845C31.7734 28.9125 31.8484 28.8825 31.8934 28.875C31.9684 28.845 31.9984 28.9275 31.9384 28.9725C31.8934 29.0175 31.7734 28.995 31.7884 29.0775H31.9084C31.9834 29.055 32.0734 28.995 32.0809 28.905C32.0959 28.83 32.2084 28.8375 32.2684 28.8225C32.3434 28.8 32.4409 28.7925 32.4634 28.8975C32.5159 28.95 32.6284 29.01 32.6884 28.935C32.717 28.9169 32.7399 28.8911 32.7545 28.8606C32.7691 28.8301 32.7748 28.7961 32.7709 28.7625C32.7634 28.7025 32.8684 28.7025 32.8984 28.74C32.9359 28.8 33.0559 28.785 33.1159 28.74C33.1759 28.7025 33.1909 28.62 33.2809 28.62L33.6859 28.5075C33.7909 28.485 33.6709 28.4175 33.6409 28.3725C33.5659 28.335 33.4909 28.5 33.4009 28.4175C33.3259 28.365 33.3334 28.2675 33.3109 28.185C33.2884 28.08 33.2959 27.96 33.2209 27.885C33.1759 27.8325 33.1009 27.8175 33.0334 27.8175V27.8175ZM32.5234 28.53C32.5309 28.53 32.5459 28.53 32.5609 28.545C32.5909 28.56 32.6134 28.59 32.6134 28.62C32.6134 28.635 32.6134 28.635 32.5909 28.6425L32.5534 28.6575C32.5384 28.6575 32.5009 28.635 32.5009 28.62V28.59C32.4859 28.56 32.4859 28.56 32.5009 28.545L32.5234 28.53ZM33.0109 28.56C33.0409 28.56 33.0559 28.56 33.0709 28.5825C33.0784 28.6125 33.0709 28.6275 33.0409 28.6425L33.0034 28.6575L32.9734 28.635C32.9584 28.6275 32.9509 28.62 32.9509 28.605C32.9509 28.5825 32.9809 28.56 33.0109 28.5525V28.56ZM32.3359 28.56C32.3509 28.56 32.3584 28.56 32.3659 28.575C32.3809 28.59 32.3884 28.5975 32.3884 28.62V28.665C32.3884 28.6875 32.3884 28.68 32.3434 28.68C32.2984 28.68 32.2909 28.68 32.2909 28.635C32.2909 28.605 32.2909 28.5975 32.3134 28.5825C32.3209 28.5675 32.3359 28.5675 32.3434 28.5675L32.3359 28.56ZM31.9309 28.6725C31.938 28.6746 31.9445 28.6785 31.9497 28.6837C31.9549 28.689 31.9588 28.6954 31.9609 28.7025C31.9609 28.725 31.9609 28.74 31.9459 28.7475C31.9234 28.755 31.8859 28.7625 31.8709 28.7475C31.8707 28.745 31.8707 28.7425 31.8709 28.74C31.8559 28.7325 31.8559 28.725 31.8709 28.7175V28.71L31.8859 28.6875C31.8906 28.6802 31.8976 28.6747 31.9058 28.672C31.914 28.6692 31.9229 28.6694 31.9309 28.6725V28.6725ZM32.6209 28.7625L32.6584 28.77V28.815H32.5684L32.5609 28.8C32.5609 28.785 32.5609 28.7775 32.5759 28.77L32.6209 28.7625V28.7625ZM31.3384 29.1225C31.3309 29.1225 31.3159 29.115 31.3309 29.1075C31.3384 29.085 31.3684 29.0775 31.3909 29.0625C31.4318 29.0469 31.4679 29.0211 31.4959 28.9875C31.4959 28.9575 31.5259 28.9425 31.5259 28.9125L31.5184 28.8075C31.5083 28.776 31.487 28.7493 31.4584 28.7325C31.4359 28.725 31.4059 28.7175 31.3984 28.6875C31.3984 28.665 31.4209 28.6425 31.4284 28.62L31.4734 28.53C31.4959 28.5075 31.5259 28.53 31.5334 28.545L31.5709 28.62C31.5934 28.6425 31.6084 28.665 31.6159 28.695C31.6309 28.725 31.6459 28.7475 31.6459 28.77L31.6609 28.8675C31.6609 28.905 31.6609 28.95 31.6459 28.9875L31.6009 29.0475C31.5784 29.07 31.5559 29.0925 31.5259 29.1C31.5034 29.1075 31.4884 29.13 31.4584 29.13H31.3459L31.3384 29.1225ZM30.8209 29.1525C30.8059 29.1375 30.7984 29.13 30.7984 29.1075C30.7984 29.085 30.7984 29.085 30.8209 29.0625C30.8509 29.0325 30.8659 29.0325 30.9259 29.0625C30.9784 29.0925 31.0009 29.0925 31.0009 29.07C31.0084 29.055 31.0384 29.0325 31.0759 29.0325C31.0898 29.033 31.103 29.0383 31.1134 29.0475C31.1284 29.0625 31.1359 29.07 31.1359 29.1C31.1359 29.1375 31.1359 29.1375 31.1134 29.16C31.0909 29.175 31.0909 29.175 31.0609 29.175C31.0476 29.1743 31.0348 29.1696 31.0241 29.1616C31.0134 29.1536 31.0054 29.1426 31.0009 29.13C31.0009 29.115 31.0009 29.1075 30.9859 29.1225L30.9709 29.13C30.9559 29.13 30.9259 29.1525 30.9109 29.1675L30.8734 29.175C30.8434 29.175 30.8434 29.175 30.8209 29.1525V29.1525ZM29.3359 28.485C29.2834 28.485 29.2309 28.53 29.2234 28.5825C29.2384 28.635 29.2834 28.695 29.2534 28.7475C29.2759 28.8225 29.1934 28.8525 29.1409 28.815C29.1109 28.74 29.0959 28.665 29.0434 28.59C28.9834 28.575 28.9609 28.6725 28.9159 28.71C28.9384 28.7625 28.9984 28.815 29.0059 28.8825C29.0209 28.9575 28.9759 29.0325 28.9234 29.0625C28.8709 29.115 28.7959 29.1 28.7359 29.1075C28.6609 29.1525 28.7884 29.1675 28.8259 29.1675C28.9009 29.175 28.9834 29.1675 29.0509 29.1075C29.1034 29.085 29.0959 28.98 29.1634 28.9725L29.5234 28.995C29.5834 29.01 29.6809 28.9875 29.7259 29.0325C29.7259 29.1075 29.8009 29.1675 29.8684 29.1975C29.9059 29.2125 29.9434 29.16 29.9809 29.1525C30.0559 29.13 30.0334 29.04 30.0784 29.0025H30.4534C30.4684 29.0025 30.4759 28.965 30.4984 28.95L30.4834 28.8075C30.4609 28.7475 30.4834 28.6725 30.4459 28.62C30.3784 28.605 30.3259 28.6575 30.2659 28.665C30.1909 28.695 30.1384 28.7625 30.1309 28.8375C30.0934 28.905 30.0259 28.8225 30.0559 28.7625L30.0484 28.6875C30.0109 28.65 29.9434 28.665 29.8909 28.6575L29.6659 28.6425C29.5909 28.6425 29.5234 28.65 29.4634 28.635C29.3884 28.635 29.3884 28.56 29.3884 28.5C29.3734 28.4886 29.3547 28.4832 29.3359 28.485V28.485ZM29.4859 28.7625L29.5609 28.77H29.6584C29.7334 28.785 29.8084 28.785 29.8834 28.785C29.8984 28.785 29.9134 28.8 29.9284 28.815V28.965C29.9284 28.9875 29.9284 29.0175 29.9134 29.025C29.9095 29.031 29.9044 29.0361 29.8984 29.04C29.8874 29.0381 29.877 29.0337 29.8679 29.0272C29.8589 29.0207 29.8513 29.0123 29.8459 29.0025V28.8975C29.8311 28.8849 29.8128 28.8771 29.7934 28.875L29.5984 28.8675L29.4484 28.86C29.4259 28.8525 29.3959 28.86 29.3809 28.83C29.3659 28.815 29.3884 28.785 29.4109 28.7775C29.4345 28.767 29.4601 28.7618 29.4859 28.7625V28.7625ZM30.3334 28.785C30.3409 28.785 30.3484 28.785 30.3484 28.8075L30.3634 28.845C30.3634 28.8525 30.3634 28.86 30.3484 28.86C30.3109 28.875 30.2734 28.875 30.2584 28.86C30.2584 28.8525 30.2584 28.8225 30.2734 28.815L30.3334 28.785Z" fill="#C09300"/>
<path d="M29.9977 24.5414C32.4427 22.6664 32.2327 19.9064 32.2327 19.9064L32.0452 19.9214C31.5277 19.9214 30.3052 19.6214 30.0202 19.2539C29.7202 19.5914 28.4602 19.9289 27.9502 19.9289L27.7627 19.9064C27.7627 19.9064 27.5452 22.6589 29.9977 24.5414Z" fill="white"/>
<path fill-rule="evenodd" clip-rule="evenodd" d="M30.0246 19.1875L30.055 19.2267C30.1204 19.311 30.2432 19.3953 30.4045 19.4743C30.5646 19.5528 30.758 19.624 30.9595 19.6841C31.3625 19.8041 31.7923 19.878 32.0458 19.8783L32.2729 19.8601L32.2761 19.9014L32.2349 19.9045C32.2761 19.9014 32.2761 19.9014 32.2761 19.9014L32.2761 19.902L32.2762 19.9037L32.2766 19.91C32.277 19.9155 32.2774 19.9235 32.2779 19.9341C32.2789 19.9552 32.2799 19.9862 32.2804 20.0263C32.2814 20.1064 32.28 20.2225 32.2707 20.3677C32.252 20.658 32.2015 21.0644 32.0741 21.5298C31.8192 22.4607 31.2563 23.6281 30.025 24.5723L29.9999 24.5915L29.9748 24.5722C28.7399 23.6243 28.1769 22.457 27.923 21.527C27.796 21.062 27.7462 20.6563 27.7281 20.3666C27.7191 20.2217 27.718 20.1058 27.7191 20.0259C27.7197 19.9859 27.7209 19.955 27.7219 19.9339C27.7224 19.9234 27.7229 19.9153 27.7232 19.9098L27.7236 19.9036L27.7238 19.9019L27.7238 19.9015L27.7238 19.9013C27.7238 19.9013 27.7238 19.9013 27.7649 19.9045L27.7238 19.9013L27.7272 19.8584L27.9549 19.8858C28.2043 19.8852 28.6408 19.8023 29.0542 19.6766C29.261 19.6137 29.4606 19.5406 29.6266 19.4625C29.7938 19.3839 29.9224 19.3025 29.9916 19.2246L30.0246 19.1875ZM27.8037 19.9507C27.8029 19.97 27.8021 19.9956 27.8016 20.0271C27.8005 20.1051 27.8015 20.2189 27.8104 20.3614C27.8282 20.6466 27.8773 21.0467 28.0025 21.5052C28.2512 22.4158 28.7999 23.5564 29.9999 24.4874C31.1963 23.5601 31.7449 22.4195 31.9945 21.508C32.1202 21.049 32.17 20.6482 32.1884 20.3624C32.1976 20.2195 32.1989 20.1055 32.1979 20.0273C32.1975 19.9948 32.1968 19.9686 32.196 19.949L32.0491 19.9608H32.0474C31.7832 19.9608 31.344 19.8847 30.936 19.7631C30.7316 19.7022 30.5336 19.6295 30.3681 19.5484C30.2238 19.4776 30.1006 19.3987 30.0205 19.3131C29.9369 19.3919 29.81 19.4675 29.6617 19.5372C29.4911 19.6174 29.2876 19.6919 29.0782 19.7556C28.6605 19.8826 28.2134 19.9683 27.9524 19.9683H27.95L27.8037 19.9507Z" fill="#C09300"/>
<path d="M32.0331 20.1003H31.9731C31.5081 20.1003 30.4281 19.8678 30.0081 19.5078C29.5731 19.8378 28.4706 20.1078 28.0131 20.1078C27.9929 20.107 27.9729 20.1045 27.9531 20.1003C27.9572 20.5743 28.0228 21.0457 28.1481 21.5028C28.449 22.6041 29.0958 23.5796 29.9931 24.2853C30.891 23.5769 31.5378 22.5989 31.8381 21.4953C31.9628 21.0406 32.0284 20.5718 32.0331 20.1003V20.1003Z" fill="white"/>
<path fill-rule="evenodd" clip-rule="evenodd" d="M30.0123 19.4648L30.033 19.4826C30.2369 19.6573 30.6055 19.8039 30.9854 19.9069C31.3644 20.0095 31.7475 20.0669 31.976 20.0669H32.036V20.1007L32.0697 20.101C32.065 20.5754 31.999 21.0471 31.8735 21.5046C31.5713 22.6151 30.9205 23.5993 30.0169 24.3122L29.996 24.3286L29.9751 24.3122C29.0721 23.602 28.4212 22.6204 28.1184 21.5121C27.9923 21.0522 27.9264 20.5778 27.9222 20.101L27.9219 20.0589L27.963 20.0677C27.9807 20.0714 27.9986 20.0737 28.0167 20.0744C28.241 20.0743 28.6272 20.0078 29.0128 19.8994C29.3993 19.7909 29.7784 19.6422 29.9906 19.4813L30.0123 19.4648ZM32.0018 20.1344H31.976C31.7395 20.1344 31.3501 20.0756 30.9678 19.972C30.5983 19.8719 30.2289 19.7283 30.0097 19.5511C29.7839 19.7137 29.4067 19.8589 29.0311 19.9644C28.6427 20.0735 28.2492 20.1419 28.016 20.1419H28.0147L28.0147 20.1419C28.0065 20.1416 27.9984 20.141 27.9902 20.1402C27.9975 20.5978 28.0625 21.0528 28.1835 21.4943L28.1835 21.4943C28.4801 22.58 29.1151 23.5427 29.996 24.2426C30.8773 23.54 31.5123 22.5749 31.8084 21.4868L31.8084 21.4868C31.9294 21.0458 31.9943 20.5915 32.0018 20.1344Z" fill="#C09300"/>
<path d="M29.1981 19.8747C28.7953 20.0059 28.3764 20.0816 27.9531 20.0997L27.9606 20.4072C27.9862 20.7751 28.0491 21.1395 28.1481 21.4947C28.3497 22.2323 28.7079 22.9178 29.1981 23.5047V19.8747ZM30.7431 19.8747V23.5647C31.257 22.9643 31.631 22.2573 31.8381 21.4947C31.9371 21.1394 31.9999 20.7751 32.0256 20.4072L32.0331 20.1072H31.9731C31.6881 20.1072 31.1931 20.0172 30.7431 19.8672V19.8747Z" fill="#C09300"/>
<path d="M30.915 18.9772C30.9675 18.9847 30.8475 18.7147 30.8475 18.7147C30.9825 18.8497 31.4775 18.8872 31.4775 18.8872C31.1775 18.7522 30.8775 17.7547 30.915 16.9522C30.945 16.1572 30.8025 15.8422 30.69 15.7222C30.54 15.5722 30.0525 15.4372 29.7375 15.4222C29.55 15.4147 29.5875 15.5572 29.5875 15.5572C29.25 15.4747 28.9125 15.4372 28.7625 15.5422C28.6275 15.6322 28.5975 16.1047 28.7025 16.0222C28.95 15.8197 29.1675 16.0072 29.3175 16.2247C29.4525 16.4122 29.445 16.9522 29.25 17.5897C29.0773 18.0716 28.8237 18.5205 28.5 18.9172C28.8 18.9172 29.22 18.6547 29.22 18.6547L29.1225 19.0672C29.4375 18.9172 29.685 18.6847 29.685 18.6847L29.985 18.9997C30.0825 18.8647 30.285 18.6847 30.285 18.6847C30.285 18.6847 30.5325 18.9472 30.915 18.9847V18.9772Z" fill="white"/>
<path fill-rule="evenodd" clip-rule="evenodd" d="M29.6147 15.3986C29.6467 15.3813 29.6882 15.3732 29.7404 15.3753L29.7407 15.3753C29.9026 15.383 30.1069 15.4214 30.2897 15.4766C30.3812 15.5042 30.4683 15.5364 30.5425 15.5716C30.6161 15.6064 30.68 15.6456 30.7229 15.6885L30.7234 15.689L30.7239 15.6895C30.8493 15.8233 30.9911 16.1542 30.961 16.952L30.961 16.9524C30.9425 17.348 31.0073 17.7929 31.1139 18.1554C31.1672 18.3366 31.2305 18.4957 31.2981 18.6169C31.3669 18.7403 31.4359 18.8168 31.497 18.8442L31.4752 18.9302L31.4786 18.8853C31.4752 18.9302 31.4752 18.9302 31.4752 18.9302L31.475 18.9301L31.4747 18.9301L31.4736 18.93L31.4692 18.9297C31.4654 18.9294 31.4599 18.9289 31.4528 18.9282C31.4388 18.9269 31.4186 18.9249 31.3939 18.922C31.3447 18.9163 31.2775 18.9073 31.2059 18.8939C31.1345 18.8806 31.0576 18.8627 30.9893 18.8392C30.9728 18.8336 30.9564 18.8274 30.9405 18.8208C30.9418 18.8245 30.9431 18.8282 30.9444 18.8319C30.9563 18.8655 30.9675 18.9018 30.9721 18.9303C30.9742 18.9434 30.976 18.9613 30.9718 18.9775C30.9702 18.9837 30.9671 18.9919 30.9611 18.9996V19.0324L30.9117 19.0276C30.7113 19.0079 30.547 18.9295 30.4333 18.8566C30.3764 18.8201 30.3318 18.7848 30.3013 18.7584C30.2955 18.7534 30.2901 18.7487 30.2853 18.7443C30.2847 18.7449 30.2841 18.7455 30.2835 18.746C30.2632 18.7648 30.2352 18.7912 30.2042 18.8217C30.1417 18.8833 30.0689 18.9599 30.0225 19.0241L29.9908 19.068L29.6836 18.7454C29.6799 18.7486 29.676 18.752 29.6718 18.7556C29.6431 18.7802 29.6016 18.8146 29.5501 18.8536C29.4475 18.9316 29.3041 19.0291 29.1429 19.1059L29.0582 19.1463L29.1533 18.7438C29.1105 18.7672 29.055 18.7961 28.9924 18.8249C28.849 18.8909 28.6615 18.9603 28.5011 18.9603H28.4062L28.4662 18.8868C28.7864 18.4945 29.0374 18.0503 29.2083 17.5736C29.3047 17.2582 29.3544 16.9681 29.3636 16.7348C29.3682 16.6179 29.3626 16.5163 29.3481 16.4333C29.3334 16.3496 29.3102 16.2882 29.282 16.2491L29.2815 16.2483C29.2079 16.1415 29.1216 16.0484 29.0285 16.0048C28.9829 15.9834 28.9365 15.9743 28.8888 15.9805C28.8411 15.9868 28.7887 16.0088 28.7321 16.0551L28.7314 16.0557C28.711 16.0716 28.6795 16.0843 28.6479 16.066C28.623 16.0515 28.612 16.0246 28.6064 16.0052C28.5942 15.963 28.593 15.9021 28.5988 15.8407C28.6047 15.7782 28.6185 15.7094 28.6402 15.6495C28.661 15.5919 28.6922 15.534 28.7382 15.5031C28.8262 15.4418 28.9611 15.4259 29.1078 15.4325C29.2407 15.4385 29.3915 15.4635 29.543 15.4982C29.5447 15.4886 29.5474 15.4784 29.5515 15.4681C29.5622 15.4419 29.5818 15.4163 29.6147 15.3986ZM29.1972 18.6146L29.29 18.5566L29.1897 18.9811C29.3088 18.9166 29.4148 18.8434 29.4957 18.7819C29.5455 18.7441 29.5856 18.711 29.6132 18.6873C29.6269 18.6755 29.6376 18.6661 29.6447 18.6596C29.6483 18.6564 29.651 18.654 29.6527 18.6523L29.6547 18.6505L29.6552 18.65M29.1972 18.6146L29.197 18.6148L29.1962 18.6153L29.1928 18.6173C29.1898 18.6192 29.1853 18.6219 29.1794 18.6254C29.1677 18.6324 29.1504 18.6424 29.1288 18.6545C29.0855 18.6787 29.0247 18.711 28.9547 18.7432C28.8456 18.7934 28.7183 18.8417 28.6017 18.8612C28.8974 18.4813 29.1309 18.0566 29.2934 17.603L29.2938 17.602L29.2941 17.6009C29.3925 17.2792 29.444 16.981 29.4535 16.7383C29.4583 16.617 29.4526 16.5087 29.4367 16.4178C29.4209 16.3277 29.3945 16.2515 29.3554 16.1969C29.279 16.0863 29.1817 15.9771 29.0667 15.9233C29.0083 15.8959 28.9446 15.8825 28.8772 15.8913C28.8151 15.8994 28.7529 15.9259 28.691 15.9729C28.685 15.9458 28.6834 15.9018 28.6884 15.8492C28.6937 15.7927 28.7061 15.7316 28.7248 15.6802C28.7442 15.6267 28.7672 15.5919 28.7885 15.5777L28.7894 15.5772C28.8514 15.5338 28.96 15.5159 29.1037 15.5224C29.245 15.5288 29.4106 15.5581 29.5779 15.599L29.6513 15.617L29.6322 15.5442C29.6322 15.5441 29.6321 15.5441 29.6321 15.544C29.632 15.5436 29.6319 15.5428 29.6317 15.5416C29.6313 15.5393 29.6308 15.5356 29.6306 15.5311C29.6302 15.5219 29.6311 15.5113 29.635 15.5019C29.6384 15.4934 29.6445 15.4848 29.6574 15.4778C29.671 15.4705 29.6951 15.4636 29.7366 15.4652C29.8897 15.4726 30.0865 15.5092 30.2637 15.5627C30.3521 15.5895 30.4348 15.6201 30.504 15.6529C30.5735 15.6859 30.6265 15.7196 30.6587 15.7516C30.7583 15.8583 30.9009 16.1576 30.8711 16.9484C30.8521 17.3553 30.9186 17.8102 31.0276 18.1808C31.0821 18.3662 31.1477 18.5319 31.2195 18.6608C31.2541 18.7228 31.2911 18.7781 31.3303 18.8231" fill="#C09300"/>
<path fill-rule="evenodd" clip-rule="evenodd" d="M29.9248 17.0312L29.9735 17.0342C30.0222 17.0371 30.0222 17.0371 30.0222 17.0371L30.0219 17.0408L30.0213 17.0515C30.0206 17.0608 30.0197 17.0746 30.0185 17.0922C30.016 17.1274 30.0123 17.1781 30.0071 17.2401C29.9967 17.3642 29.9807 17.5339 29.9581 17.7161C29.9355 17.8982 29.9063 18.0935 29.8693 18.2687C29.8326 18.4427 29.7875 18.6012 29.7316 18.7069L29.6454 18.6614C29.6945 18.5684 29.7375 18.4212 29.7739 18.2486C29.8101 18.0771 29.839 17.8848 29.8614 17.7041C29.8838 17.5235 29.8996 17.3552 29.9099 17.232C29.9151 17.1704 29.9188 17.1202 29.9212 17.0853C29.9225 17.0679 29.9234 17.0544 29.924 17.0452L29.9246 17.0347L29.9248 17.0312ZM29.6552 17.0652L29.7035 17.0717C29.7518 17.0781 29.7518 17.0781 29.7518 17.0782L29.7517 17.0791L29.7513 17.0818L29.7498 17.0924C29.7485 17.1016 29.7466 17.1151 29.744 17.1324C29.7388 17.167 29.7311 17.2167 29.7209 17.2774C29.7004 17.3987 29.6697 17.5642 29.6291 17.7407C29.5886 17.917 29.5379 18.1053 29.4772 18.2717C29.417 18.4368 29.345 18.5859 29.2595 18.6795L29.1875 18.6138C29.2595 18.5349 29.3263 18.4009 29.3856 18.2383C29.4444 18.0771 29.494 17.8931 29.5341 17.7189C29.5742 17.5447 29.6044 17.3812 29.6247 17.2611C29.6349 17.2011 29.6425 17.152 29.6476 17.118C29.6501 17.101 29.652 17.0877 29.6533 17.0787L29.6547 17.0685L29.6551 17.066L29.6552 17.0652ZM30.1572 17.0867C30.1572 17.0867 30.1572 17.0867 30.206 17.0867C30.2547 17.0867 30.2547 17.0867 30.2547 17.0867L30.2548 17.102C30.2548 17.112 30.2548 17.1267 30.2549 17.1456C30.255 17.1833 30.2553 17.2374 30.2559 17.3031C30.2571 17.4346 30.2594 17.6122 30.2641 17.797C30.2688 17.9819 30.2758 18.1736 30.2863 18.3333C30.2915 18.4132 30.2976 18.4846 30.3046 18.5429C30.3118 18.6023 30.3196 18.645 30.3274 18.6692L30.2346 18.6991C30.2237 18.6652 30.2151 18.6144 30.2078 18.5546C30.2005 18.4938 30.1943 18.4204 30.189 18.3397C30.1784 18.178 30.1713 17.9849 30.1666 17.7995C30.1619 17.6139 30.1596 17.4358 30.1584 17.304C30.1578 17.2381 30.1575 17.1838 30.1574 17.146C30.1573 17.127 30.1573 17.1122 30.1573 17.1021L30.1572 17.0867ZM30.4573 17.1567C30.4573 17.1567 30.4573 17.1567 30.506 17.1542L30.5547 17.1516L30.5547 17.1524L30.5549 17.1547L30.5554 17.1642C30.5559 17.1726 30.5567 17.185 30.5578 17.2009C30.5599 17.2328 30.5634 17.279 30.5684 17.3356C30.5784 17.449 30.5947 17.6043 30.6198 17.7723C30.645 17.9404 30.6789 18.1204 30.7239 18.2834C30.7691 18.4473 30.8245 18.5901 30.8911 18.6864L30.8109 18.7419C30.735 18.632 30.676 18.4766 30.6299 18.3094C30.5835 18.1412 30.5489 17.957 30.5234 17.7867C30.4979 17.6162 30.4814 17.4589 30.4713 17.3442C30.4662 17.2868 30.4627 17.2401 30.4605 17.2076C30.4594 17.1914 30.4586 17.1787 30.4581 17.1701L30.4575 17.1602L30.4574 17.1576L30.4573 17.1567Z" fill="#C09300"/>
<path d="M29.3931 16.4703C29.3864 16.3834 29.3608 16.2989 29.3181 16.2228C29.1681 15.9978 28.9506 15.8178 28.7031 16.0203C28.7031 16.0203 28.7856 15.7578 28.9731 15.7503C29.1081 15.7428 29.4306 15.8553 29.7156 16.3353C29.7156 16.3353 29.5056 16.2903 29.4531 16.3353C29.3631 16.4103 29.4006 16.4703 29.4006 16.4703H29.3931Z" fill="#C09300"/>
<path fill-rule="evenodd" clip-rule="evenodd" d="M29.6916 16.3191C29.4111 15.8595 29.0997 15.754 28.9723 15.7611L28.9722 15.7611C28.884 15.7646 28.8192 15.8283 28.7758 15.8939C28.7542 15.9265 28.7383 15.9589 28.7279 15.9832C28.7273 15.9846 28.7267 15.9859 28.7261 15.9873C28.7784 15.9508 28.8296 15.9303 28.8796 15.9233C28.9395 15.9149 28.9968 15.9259 29.0505 15.9506C29.1574 15.9997 29.2507 16.1031 29.3261 16.2161L29.3266 16.2169C29.357 16.2711 29.3788 16.3295 29.3916 16.39C29.4011 16.3704 29.4175 16.3488 29.4445 16.3263C29.4605 16.3125 29.4867 16.3068 29.514 16.3047C29.542 16.3025 29.5739 16.304 29.6037 16.3068C29.6336 16.3096 29.6618 16.3139 29.6825 16.3175C29.6857 16.318 29.6887 16.3185 29.6916 16.3191ZM29.4088 16.4639L29.4087 16.4637C29.4085 16.4635 29.4083 16.463 29.4079 16.4623C29.4073 16.461 29.4064 16.4588 29.4055 16.456C29.4037 16.4503 29.4021 16.4419 29.4029 16.4314C29.4045 16.4106 29.4158 16.3795 29.4589 16.3435L29.459 16.3434C29.4692 16.3347 29.4889 16.3292 29.5157 16.3271C29.5419 16.3251 29.5723 16.3264 29.6016 16.3292C29.6307 16.332 29.6583 16.3362 29.6787 16.3396C29.6888 16.3414 29.6972 16.3429 29.7029 16.3441C29.7058 16.3446 29.7081 16.3451 29.7096 16.3454L29.7113 16.3458L29.7117 16.3458L29.7118 16.3459L29.737 16.3513L29.7239 16.3291C29.4377 15.8471 29.1119 15.7309 28.9712 15.7386C28.8719 15.7426 28.8017 15.814 28.757 15.8815C28.7345 15.9155 28.718 15.9491 28.7072 15.9743C28.7018 15.9869 28.6977 15.9974 28.6951 16.0047C28.6937 16.0084 28.6927 16.0113 28.692 16.0133L28.6913 16.0156L28.6911 16.0163L28.691 16.0164C28.691 16.0164 28.691 16.0165 28.7017 16.0199L28.691 16.0164L28.6797 16.0524L28.7088 16.0286C28.7694 15.979 28.8276 15.9533 28.8827 15.9456C28.9378 15.9378 28.9907 15.9479 29.0411 15.971C29.1422 16.0175 29.2325 16.1165 29.3071 16.2283C29.3489 16.3028 29.3739 16.3855 29.3805 16.4707L29.3813 16.4811H29.4195L29.4088 16.4639C29.4088 16.4639 29.4088 16.4639 29.4088 16.4639Z" fill="#C09300"/>
<path d="M28.6719 15.6997C28.6944 15.6247 28.7244 15.5647 28.7694 15.5422C28.9194 15.4372 29.2494 15.4672 29.5869 15.5572C29.5869 15.5572 29.5569 15.4147 29.7369 15.4222C30.0519 15.4372 30.5319 15.5722 30.6819 15.7222C30.7299 15.7749 30.768 15.8359 30.7944 15.9022C30.7194 15.7972 30.5094 15.8047 30.4569 15.8122C30.3819 15.8197 30.3294 15.8122 30.2244 15.8422C30.1719 15.8572 30.0969 15.8722 30.0519 15.9022C30.0219 15.9322 29.9919 16.0222 29.9469 16.0222C29.8719 16.0222 29.8719 16.0072 29.8494 15.9847C29.8269 15.9472 29.8119 15.9022 29.7819 15.9097C29.7069 15.9172 29.5719 15.8572 29.4069 15.7222C29.2344 15.5872 29.1669 15.5572 28.9569 15.5722C28.7319 15.5872 28.6719 15.7147 28.6719 15.7147V15.6997V15.6997Z" fill="#C09300"/>
<path fill-rule="evenodd" clip-rule="evenodd" d="M29.6013 15.5544L29.6013 15.5542L29.6011 15.5532C29.601 15.5523 29.6008 15.551 29.6005 15.5492C29.6001 15.5457 29.5997 15.5406 29.5997 15.5345C29.5997 15.5223 29.6014 15.5063 29.6081 15.4908C29.6148 15.4755 29.6263 15.4605 29.6463 15.4495C29.6666 15.4384 29.6962 15.4311 29.7398 15.4329C29.8962 15.4404 30.094 15.4777 30.2714 15.5318C30.3601 15.5589 30.4434 15.5901 30.5138 15.6238C30.5842 15.6575 30.641 15.6933 30.6772 15.7295C30.7111 15.7668 30.7401 15.8083 30.7632 15.853C30.7228 15.8253 30.671 15.8107 30.6223 15.8034C30.5529 15.7929 30.4863 15.7966 30.459 15.8005C30.459 15.8005 30.4591 15.8005 30.4592 15.8005L30.4603 15.8117L30.4587 15.8006C30.4588 15.8005 30.4589 15.8005 30.459 15.8005M29.8618 15.9773C29.8574 15.97 29.8534 15.9624 29.8493 15.9548C29.8485 15.9533 29.8477 15.9518 29.8469 15.9503C29.8419 15.9409 29.8367 15.9315 29.8311 15.9234C29.8257 15.9155 29.8192 15.9079 29.8113 15.9029C29.8032 15.8979 29.7938 15.8957 29.7835 15.8981C29.7491 15.9013 29.6991 15.8892 29.6365 15.8588C29.5737 15.8283 29.4995 15.7801 29.4174 15.713L29.4174 15.713L29.4172 15.7128C29.331 15.6453 29.2697 15.603 29.2031 15.5798C29.1362 15.5566 29.065 15.5529 28.9595 15.5605C28.8449 15.5681 28.7715 15.6045 28.7265 15.6397C28.7155 15.6483 28.7063 15.6568 28.6986 15.6647C28.7066 15.6429 28.7155 15.6233 28.7253 15.6064C28.7407 15.5803 28.758 15.5617 28.7778 15.5518L28.7786 15.5514L28.7793 15.5509C28.8511 15.5006 28.9679 15.4817 29.1108 15.4873C29.2531 15.4929 29.4192 15.5227 29.5874 15.5676L29.6051 15.5723L29.6013 15.5544L29.6013 15.5544L29.6013 15.5544M28.6866 15.7008C28.6904 15.6883 28.6944 15.6762 28.6986 15.6647C28.6905 15.673 28.6841 15.6807 28.6792 15.6873C28.6762 15.6914 28.6737 15.695 28.6717 15.6981L28.6645 15.696C28.6759 15.658 28.6893 15.6233 28.7059 15.5951C28.7223 15.5671 28.7422 15.5447 28.767 15.532C28.7668 15.5322 28.7666 15.5323 28.7664 15.5325L28.7728 15.5417L28.7678 15.5316C28.7675 15.5318 28.7673 15.5319 28.767 15.532C28.8452 15.4777 28.9681 15.4592 29.1117 15.4648C29.2517 15.4703 29.4135 15.4988 29.5774 15.5416C29.5775 15.5457 29.5779 15.5492 29.5782 15.5519C29.5785 15.5541 29.5787 15.5558 29.5789 15.557L29.5792 15.5584L29.5793 15.5588L29.5793 15.5589L29.5793 15.559L29.5793 15.559C29.5793 15.559 29.5793 15.559 29.5903 15.5567L29.5932 15.5458C29.5879 15.5444 29.5826 15.543 29.5774 15.5416C29.5773 15.5394 29.5772 15.5371 29.5772 15.5345C29.5772 15.5203 29.5792 15.5011 29.5875 15.4819C29.5959 15.4625 29.6106 15.4434 29.6355 15.4298C29.6603 15.4162 29.6944 15.4085 29.7408 15.4105L29.7408 15.4105V15.4105C29.8995 15.418 30.0991 15.4557 30.278 15.5103C30.3674 15.5376 30.4519 15.5692 30.5235 15.6035C30.595 15.6377 30.6545 15.6749 30.6933 15.7137L30.6936 15.7141L30.6936 15.7141C30.7426 15.7679 30.7814 15.83 30.8083 15.8975L30.7887 15.9082C30.754 15.8596 30.6867 15.8358 30.619 15.8256C30.5517 15.8155 30.4872 15.8192 30.4619 15.8228L30.4614 15.8229L30.4614 15.8229C30.4392 15.8251 30.4192 15.826 30.3996 15.827C30.3512 15.8292 30.3047 15.8314 30.2309 15.8525C30.2196 15.8558 30.2077 15.8589 30.1955 15.8621C30.1782 15.8666 30.1603 15.8713 30.142 15.8768C30.1118 15.886 30.0835 15.8967 30.0625 15.9104C30.0563 15.9169 30.0496 15.9268 30.0422 15.939C30.0395 15.9434 30.0367 15.9481 30.0338 15.953C30.0287 15.9616 30.0233 15.9706 30.0179 15.979C30.0093 15.9924 29.9998 16.0055 29.9891 16.0154C29.9785 16.0253 29.9655 16.0329 29.9503 16.0329C29.9125 16.0329 29.8913 16.0293 29.8765 16.0213C29.869 16.0172 29.8636 16.0123 29.8588 16.0073C29.8566 16.0049 29.8548 16.0029 29.853 16.0009C29.8506 15.9982 29.8482 15.9955 29.8449 15.9921L29.8439 15.9912L29.8432 15.99C29.8383 15.9818 29.8337 15.9733 29.8294 15.9653C29.8286 15.9638 29.8279 15.9624 29.8271 15.9609C29.822 15.9515 29.8174 15.9431 29.8126 15.9362C29.8078 15.9292 29.8034 15.9246 29.7994 15.922C29.7958 15.9197 29.7923 15.919 29.788 15.9201L29.7872 15.9203L29.7864 15.9204C29.7458 15.9244 29.691 15.9102 29.6267 15.879C29.5619 15.8476 29.4862 15.7983 29.4033 15.7305C29.3171 15.663 29.2584 15.6229 29.1957 15.6011C29.1332 15.5793 29.0656 15.5754 28.9611 15.5829L28.9611 15.5829C28.8507 15.5903 28.7817 15.6251 28.7404 15.6574C28.7197 15.6736 28.7058 15.6893 28.6972 15.7008C28.6929 15.7065 28.6899 15.7112 28.688 15.7144C28.6871 15.716 28.6864 15.7172 28.686 15.718L28.6856 15.7188L28.6855 15.719C28.6855 15.719 28.6855 15.719 28.6854 15.719L28.6641 15.7142V15.6992H28.671C28.6712 15.6988 28.6714 15.6985 28.6717 15.6981L28.6753 15.6992M28.9595 15.5605C28.9595 15.5605 28.9595 15.5605 28.9595 15.5605L28.9603 15.5717L28.9596 15.5605C28.9596 15.5605 28.9595 15.5605 28.9595 15.5605ZM29.7835 15.8981C29.7832 15.8981 29.7829 15.8982 29.7826 15.8983L29.7853 15.9092L29.7842 15.898C29.784 15.898 29.7837 15.898 29.7835 15.8981ZM29.8618 15.9773C29.862 15.9776 29.8622 15.978 29.8625 15.9784L29.8528 15.9842L29.8608 15.9762C29.8611 15.9766 29.8614 15.9769 29.8618 15.9773Z" fill="#C09300"/>
<path d="M29.9025 15.8909C29.9522 15.8909 29.9925 15.8506 29.9925 15.8009C29.9925 15.7512 29.9522 15.7109 29.9025 15.7109C29.8528 15.7109 29.8125 15.7512 29.8125 15.8009C29.8125 15.8506 29.8528 15.8909 29.9025 15.8909Z" fill="white"/>
</g>
<defs>
<clipPath id="clip0_4046_19811">
<rect width="60" height="45" fill="white"/>
</clipPath>
</defs>
</svg>
