<svg width="60" height="45" viewBox="0 0 60 45" fill="none" xmlns="http://www.w3.org/2000/svg">
<g clip-path="url(#clip0_4046_19862)">
<path fill-rule="evenodd" clip-rule="evenodd" d="M0 0H60V45H0V0Z" fill="#BE0027"/>
<path fill-rule="evenodd" clip-rule="evenodd" d="M0 45L60 44.9719V22.5L0 45Z" fill="#B4D7F4"/>
<path fill-rule="evenodd" clip-rule="evenodd" d="M0 0L60 0.028125V22.5L0 0Z" fill="#239E46"/>
<path fill-rule="evenodd" clip-rule="evenodd" d="M17.4578 33.7875C16.4547 34.0687 15.8828 34.8469 15.8922 35.5781L20.8422 35.5594C20.8797 34.7719 20.2328 34.0406 19.2484 33.75C24.0859 33.6562 28.2859 31.8375 29.0547 30.675C28.3047 30.3469 27.4234 30.8719 26.8047 30.75C28.2766 30.0656 32.7109 27.1969 31.9891 24.1219C31.4266 25.8281 29.7391 27.2438 29.0078 27.6281C30.6672 25.1156 32.9266 22.4906 30.9672 20.4656C31.0609 21.6375 30.2172 22.9312 29.8422 23.0344C30.8078 20.3719 31.7172 17.0344 29.6453 14.8406C29.9172 15.6375 29.8047 17.8781 29.4297 17.9813C29.3172 16.1719 29.0078 12.375 27.1047 12.4219C27.7047 12.9656 27.9672 14.4281 27.9859 15.9094C27.5991 14.8842 26.9091 14.0012 26.0078 13.3781C25.0671 11.751 23.7283 10.3897 22.1172 9.42188C22.2859 10.6125 22.4266 11.55 24.0859 12.7875C23.2234 12.7312 22.3609 11.0906 21.4328 11.0438C20.6922 11.0063 20.1203 11.7094 18.9109 11.3062C19.0422 11.7 19.6047 11.8781 19.7266 12.1688C19.4641 12.3563 18.8547 12.1406 18.3484 11.8875C19.0516 12.825 20.1297 13.3875 21.0484 13.2C22.1453 12.9938 23.3172 13.1063 24.4422 13.7438C23.7481 13.889 23.0336 13.908 22.3328 13.8C22.9797 14.4562 23.4109 14.8969 24.5453 14.8875C25.5484 14.8875 26.0828 14.3438 26.3359 14.6813C26.9734 15.4313 27.3953 16.1813 27.9297 17.0625C26.7578 17.1844 27.1141 15.7406 25.8109 15C25.0703 16.5 26.6547 18.3 27.7141 19.05C27.684 20.0747 27.9129 21.0904 28.3797 22.0031C28.7078 22.6125 29.1297 23.2406 28.9703 24.6188C28.3234 24.15 27.7047 22.575 27.9391 21.3281C27.1328 21.5437 26.8141 22.9594 27.1891 23.6719C27.4703 24.2062 27.6578 25.2469 27.3391 25.7063C27.0203 26.1375 26.9922 26.0813 26.9922 27.0188C27.0016 27.5625 26.6922 28.2187 26.1953 28.6781C26.3408 28.1984 26.376 27.6921 26.2984 27.1969C25.9047 27.8719 24.9016 28.5656 24.5922 29.2969C24.2828 30.0187 24.2078 31.2844 22.7172 31.575C20.7859 31.95 20.1203 32.2875 18.8922 32.7937C18.7516 31.8562 19.1641 29.8875 19.9516 30.0094C20.7109 30.1406 23.0453 29.2031 22.2016 27.2438C22.0422 27.8625 21.4984 28.4625 20.8984 28.4906C21.5453 27.6656 22.6797 26.8031 22.1266 25.4156C21.7917 26.1145 21.2607 26.7008 20.5984 27.1031C21.3859 25.6031 20.6922 25.1344 19.7547 26.3906C19.3984 26.8687 19.1828 27.8344 18.9578 29.0625C18.5828 28.0687 18.6109 26.7562 18.1703 25.6875C17.7203 24.5344 18.7797 24.2344 19.2766 24.3281C20.4953 24.6562 22.5484 24.6562 22.3984 22.6312C21.8641 23.3156 20.9453 23.5219 19.9422 23.2875C21.0672 22.4625 21.9484 20.9156 20.6922 20.1C20.636 20.5784 20.4618 21.0353 20.1853 21.4297C19.9087 21.8241 19.5385 22.1436 19.1078 22.3594C18.9065 21.5986 18.8968 20.7998 19.0797 20.0344C18.5922 20.5594 18.2359 21.6281 17.9453 22.8656C17.9172 21.6469 18.1516 20.775 18.3203 20.1188C18.5828 19.1719 19.2203 19.7906 20.1953 19.8563C21.1516 19.9125 22.4453 19.3875 22.2016 18.1031C21.8828 18.6188 21.2172 18.8156 20.5422 18.7594C21.3578 18.2625 22.7734 17.3906 21.9953 16.0406C21.6672 16.5469 21.5641 16.9781 20.6172 17.1375C20.8609 16.575 20.8984 15.7594 21.6484 15.45C20.3359 15.1781 19.5859 16.0406 19.1922 17.3906C19.0422 16.4531 18.8547 16.1156 18.8172 15.4219C19.5297 14.6437 19.6047 13.0969 18.0672 12.7594C17.9664 13.3039 18.0051 13.8651 18.1797 14.3906C17.4578 13.9594 16.4453 13.725 15.7609 14.325C16.2297 14.8219 16.9328 15.2625 18.0297 14.7188C17.7672 15.5625 17.0922 15.4219 16.1734 15.0938C16.7359 16.1531 17.4484 16.3406 18.2359 16.2188C18.6484 17.3063 18.6672 18.1312 17.4578 19.7062C17.5141 18.7312 17.4484 18 16.6703 17.2031C15.9953 16.5469 15.4516 17.2313 16.5016 18.6844C15.8641 18.2156 15.1516 17.2781 14.9359 16.3312C14.7297 17.4937 14.9172 18.8719 15.5641 19.65C15.2547 19.9781 14.9078 19.6125 14.3922 18.8063C14.5797 21.375 15.6766 21.8719 17.1484 21.3C17.1859 22.7062 17.1859 24.0094 17.2703 25.7063C16.4172 24.4688 15.3297 23.55 14.7297 23.325C14.5422 24.0094 15.2453 24.9188 15.6484 25.4156C15.0391 25.2844 13.7266 24.2906 13.7266 24.2906C13.5953 25.425 15.0672 26.4844 16.0234 26.9531C14.8984 26.9062 14.4016 26.4844 13.6797 25.7906C13.6984 28.9594 17.1109 28.4062 17.7578 27.9187L18.0391 32.8406C17.0734 32.6719 17.1484 32.3719 16.3234 32.3063C14.0266 32.2125 12.2078 29.55 11.6078 27.5906C11.4297 27.9094 11.5703 28.2469 11.4109 28.65C11.0359 27.6844 10.5672 26.4375 9.92031 25.8562C10.0891 26.4187 10.1078 26.9906 10.0516 28.0406C9.82656 27.3656 9.62969 27.15 9.61094 26.3531C9.62031 25.7438 10.2016 25.2938 10.1734 24.4313C10.1453 23.8031 9.57344 22.4344 9.48906 21.3844C9.20781 22.4719 9.03906 23.6156 8.60781 24.2906C8.82344 23.1281 8.75781 22.3219 9.11406 21.5438C9.52656 20.7281 9.87344 19.9875 9.60156 19.1625C9.33906 19.4812 9.42344 19.7719 8.75781 20.55C8.61719 19.7062 9.62031 18.3469 10.5953 17.8031C11.2797 17.4469 12.1422 16.1531 11.5797 15.2719C10.9328 15.7406 10.6422 16.3594 9.73281 17.4281C10.3891 14.8969 12.0766 14.2219 14.0922 14.2125C14.5328 14.2125 15.4328 14.0531 15.6859 13.4625C15.1234 13.6781 14.4484 13.7063 13.8484 13.5938C14.2891 12.9469 15.1984 13.0312 16.0609 13.0312C16.7266 13.0312 17.7766 12.9375 18.1984 11.9813C17.272 12.3426 16.2558 12.4049 15.2922 12.1594C16.5766 11.5031 18.5734 11.4281 19.6047 10.5562C18.4328 9.68437 15.5078 10.7625 13.6609 12.0281C14.1766 11.5594 14.9922 10.7156 15.4422 10.0406C14.4297 9.55312 11.8797 12.3844 10.9984 14.0719C10.1547 14.5406 9.82656 15.2906 9.49844 15.8063C9.93906 14.2969 9.98594 13.2 10.3609 11.9625C7.50156 12.9375 8.68281 18.2437 8.06406 19.5187C8.13906 18.1125 8.07344 16.3219 7.50156 15.3937C6.62031 16.0687 6.54531 20.0344 7.37031 23.3344C7.07031 22.4531 6.50781 21.6281 6.32969 20.55C5.01719 22.9312 7.09844 25.7531 8.83281 27.975C7.52031 27.2906 6.23594 25.8281 5.38281 24.6C5.61719 28.875 10.0703 29.7563 10.7641 30.8063C9.82656 30.3656 8.03594 29.5031 7.26719 30.4125C8.33516 30.6105 9.36009 30.9945 10.2953 31.5469C11.4578 32.9906 13.6422 33.6281 17.4578 33.7875V33.7875Z" fill="#F3E295"/>
</g>
<defs>
<clipPath id="clip0_4046_19862">
<rect width="60" height="45" fill="white"/>
</clipPath>
</defs>
</svg>
