<svg width="60" height="45" viewBox="0 0 60 45" fill="none" xmlns="http://www.w3.org/2000/svg">
<g clip-path="url(#clip0_4046_20649)">
<path fill-rule="evenodd" clip-rule="evenodd" d="M-15.5781 0.308594H75.8956V44.1948H-15.5781V0.308594Z" fill="#FFC621"/>
<path fill-rule="evenodd" clip-rule="evenodd" d="M-15.7578 30.1836H75.8305V45.1208H-15.7578V30.1836Z" fill="#EF2118"/>
<path fill-rule="evenodd" clip-rule="evenodd" d="M-15.5781 0H75.8956V15.8625H-15.5781V0Z" fill="#298C08"/>
<path d="M28.5423 32.8229C33.7908 32.8229 38.0455 28.5681 38.0455 23.3196C38.0455 18.0711 33.7908 13.8164 28.5423 13.8164C23.2938 13.8164 19.0391 18.0711 19.0391 23.3196C19.0391 28.5681 23.2938 32.8229 28.5423 32.8229Z" fill="#006BC6"/>
<path fill-rule="evenodd" clip-rule="evenodd" d="M24.2738 16.5845L23.701 16.9811L25.7719 19.8892L26.3271 19.5367L24.265 16.5845H24.2738ZM26.8647 23.4583L26.0099 22.859L26.3624 21.7398L22.1236 21.8015L20.8898 20.8586L26.6796 20.7969L27.7548 17.5451L28.3364 18.8669L26.8647 23.4494V23.4583ZM33.6063 17.2278L33.0511 16.8048L30.9096 19.6601L31.4031 20.0743L33.6063 17.2278ZM27.8429 21.7662L28.1513 20.7793H29.3234L27.9839 16.7431L28.5126 15.2891L30.3192 20.7881L33.7384 20.8321L32.6633 21.7751L27.8429 21.7574V21.7662ZM35.827 26.2783L36.0649 25.6261L32.6898 24.4541L32.443 25.0709L35.827 26.2783V26.2783ZM29.7376 22.1893L30.7686 22.1804L31.1299 23.2908L34.5492 20.7793L36.1002 20.8321L31.4208 24.2426L32.4342 27.5208L31.2004 26.7806L29.7376 22.1893V22.1893ZM27.9927 31.178L28.6889 31.1956L28.7153 27.6266L28.0632 27.5825L27.9927 31.1868V31.178ZM29.9314 24.1016L30.2663 25.0798L29.3234 25.7848L32.7955 28.2258L33.2361 29.7063L28.5126 26.3576L25.7367 28.358L26.0451 26.948L29.9226 24.1016H29.9314ZM20.8281 25.2472L21.0308 25.9081L24.4413 24.833L24.265 24.1985L20.8281 25.2472ZM28.1601 24.8947L27.3318 25.5204L26.38 24.8418L25.1286 28.8956L23.8596 29.7768L25.5781 24.2514L22.8109 22.2245L24.2474 22.0835L28.1601 24.8947V24.8947Z" fill="#FFC621"/>
</g>
<defs>
<clipPath id="clip0_4046_20649">
<rect width="60" height="45" fill="white"/>
</clipPath>
</defs>
</svg>
