<svg width="60" height="45" viewBox="0 0 60 45" fill="none" xmlns="http://www.w3.org/2000/svg">
<g clip-path="url(#clip0_4046_20656)">
<path d="M0 0H60V45H0V0Z" fill="#003399"/>
<path d="M30.2924 8.1107L30.6727 9.25076L31.8744 9.2601C32.0301 9.26129 32.0945 9.4598 31.9694 9.55229L31.0026 10.2662L31.365 11.412C31.412 11.5602 31.2431 11.6831 31.1165 11.5925L30.1388 10.8937L29.1612 11.5925C29.0346 11.683 28.8656 11.5603 28.9126 11.412L29.275 10.2662L28.3082 9.55229C28.1831 9.4598 28.2475 9.26129 28.4032 9.2601L29.6049 9.25076L29.9852 8.1107C30.0343 7.9631 30.2432 7.9631 30.2924 8.1107Z" fill="#FFE15A"/>
<path d="M30.2924 32.5873L30.6727 33.7273L31.8744 33.7367C32.0301 33.7378 32.0945 33.9364 31.9694 34.0288L31.0026 34.7428L31.365 35.8885C31.412 36.0368 31.2431 36.1597 31.1165 36.0691L30.1388 35.3702L29.1612 36.0691C29.0346 36.1595 28.8656 36.0369 28.9126 35.8885L29.275 34.7428L28.3082 34.0288C28.1831 33.9364 28.2475 33.7378 28.4032 33.7367L29.6049 33.7273L29.9852 32.5873C30.0343 32.4397 30.2432 32.4397 30.2924 32.5873Z" fill="#FFE15A"/>
<path d="M42.5268 20.349L42.9071 21.489L44.1088 21.4984C44.2645 21.4996 44.3289 21.6981 44.2038 21.7906L43.237 22.5045L43.5994 23.6502C43.6464 23.7985 43.4775 23.9214 43.3508 23.8308L42.3732 23.1319L41.3955 23.8308C41.269 23.9213 41.1 23.7986 41.147 23.6502L41.5094 22.5045L40.5426 21.7906C40.4175 21.6981 40.4819 21.4996 40.6376 21.4984L41.8393 21.489L42.2196 20.349C42.2687 20.2014 42.4776 20.2014 42.5268 20.349Z" fill="#FFE15A"/>
<path d="M18.0502 20.349L18.4305 21.489L19.6322 21.4984C19.7879 21.4996 19.8524 21.6981 19.7272 21.7906L18.7604 22.5045L19.1228 23.6502C19.1698 23.7985 19.0009 23.9214 18.8743 23.8308L17.8966 23.1319L16.919 23.8308C16.7924 23.9213 16.6235 23.7986 16.6704 23.6502L17.0328 22.5045L16.066 21.7906C15.9409 21.6981 16.0053 21.4996 16.161 21.4984L17.3627 21.489L17.743 20.349C17.7922 20.2014 18.0011 20.2014 18.0502 20.349Z" fill="#FFE15A"/>
<path d="M19.8862 13.9584L20.2664 15.0984L21.4682 15.1078C21.6238 15.1089 21.6883 15.3075 21.5631 15.3999L20.5963 16.1139L20.9588 17.2596C21.0057 17.4079 20.8369 17.5308 20.7102 17.4402L19.7326 16.7413L18.7549 17.4402C18.6284 17.5306 18.4594 17.408 18.5063 17.2596L18.8688 16.1139L17.902 15.3999C17.7768 15.3075 17.8413 15.1089 17.9969 15.1078L19.1987 15.0984L19.5789 13.9584C19.6281 13.8108 19.8369 13.8108 19.8862 13.9584Z" fill="#FFE15A"/>
<path d="M41.0893 26.1966L41.4696 27.3367L42.6713 27.346C42.827 27.3472 42.8914 27.5457 42.7663 27.6382L41.7995 28.3522L42.1619 29.4979C42.2089 29.6461 42.04 29.769 41.9133 29.6785L40.9357 28.9796L39.958 29.6785C39.8315 29.7689 39.6625 29.6463 39.7095 29.4979L40.0719 28.3522L39.1051 27.6382C38.98 27.5457 39.0444 27.3472 39.2001 27.346L40.4018 27.3367L40.7821 26.1966C40.8313 26.049 41.0401 26.049 41.0893 26.1966Z" fill="#FFE15A"/>
<path d="M36.6049 9.47788L36.9852 10.6179L38.1869 10.6273C38.3426 10.6285 38.407 10.827 38.2819 10.9195L37.3151 11.6334L37.6775 12.7791C37.7245 12.9274 37.5556 13.0503 37.429 12.9597L36.4513 12.2608L35.4737 12.9597C35.3471 13.0502 35.1781 12.9275 35.2251 12.7791L35.5875 11.6334L34.6207 10.9195C34.4956 10.827 34.56 10.6285 34.7157 10.6273L35.9174 10.6179L36.2977 9.47788C36.3468 9.33029 36.5555 9.33029 36.6049 9.47788Z" fill="#FFE15A"/>
<path d="M24.3705 30.6771L24.7508 31.8172L25.9525 31.8265C26.1082 31.8277 26.1727 32.0262 26.0475 32.1187L25.0807 32.8326L25.4432 33.9784C25.4901 34.1266 25.3212 34.2495 25.1946 34.1589L24.2169 33.4601L23.2393 34.1589C23.1127 34.2494 22.9438 34.1267 22.9907 33.9784L23.3532 32.8326L22.3864 32.1187C22.2612 32.0262 22.3257 31.8277 22.4813 31.8265L23.683 31.8172L24.0633 30.6771C24.1125 30.5295 24.3212 30.5295 24.3705 30.6771Z" fill="#FFE15A"/>
<path d="M40.7821 13.9584L40.4018 15.0984L39.2001 15.1078C39.0444 15.1089 38.98 15.3075 39.1051 15.3999L40.0719 16.1139L39.7095 17.2596C39.6625 17.4079 39.8314 17.5308 39.958 17.4402L40.9357 16.7413L41.9133 17.4402C42.0399 17.5306 42.2089 17.408 42.1619 17.2596L41.7995 16.1139L42.7663 15.3999C42.8914 15.3075 42.827 15.1089 42.6713 15.1078L41.4696 15.0984L41.0893 13.9584C41.0401 13.8108 40.8313 13.8108 40.7821 13.9584Z" fill="#FFE15A"/>
<path d="M19.5789 26.1966L19.1987 27.3367L17.9969 27.346C17.8413 27.3472 17.7768 27.5457 17.902 27.6382L18.8688 28.3522L18.5063 29.4979C18.4594 29.6461 18.6283 29.769 18.7549 29.6785L19.7326 28.9796L20.7102 29.6785C20.8368 29.7689 21.0057 29.6463 20.9588 29.4979L20.5963 28.3522L21.5631 27.6382C21.6883 27.5457 21.6238 27.3472 21.4682 27.346L20.2664 27.3367L19.8862 26.1966C19.8369 26.049 19.6281 26.049 19.5789 26.1966Z" fill="#FFE15A"/>
<path d="M24.0633 9.47788L23.683 10.6179L22.4813 10.6273C22.3257 10.6285 22.2612 10.827 22.3864 10.9195L23.3532 11.6334L22.9907 12.7791C22.9438 12.9274 23.1126 13.0503 23.2393 12.9597L24.2169 12.2608L25.1946 12.9597C25.3211 13.0502 25.4901 12.9275 25.4432 12.7791L25.0807 11.6334L26.0475 10.9195C26.1727 10.827 26.1082 10.6285 25.9525 10.6273L24.7508 10.6179L24.3705 9.47788C24.3212 9.33029 24.1125 9.33029 24.0633 9.47788Z" fill="#FFE15A"/>
<path d="M36.2977 30.6771L35.9174 31.8172L34.7157 31.8265C34.56 31.8277 34.4956 32.0262 34.6207 32.1187L35.5875 32.8326L35.2251 33.9784C35.1781 34.1266 35.347 34.2495 35.4737 34.1589L36.4513 33.4601L37.429 34.1589C37.5555 34.2494 37.7245 34.1267 37.6775 33.9784L37.3151 32.8326L38.2819 32.1187C38.407 32.0262 38.3426 31.8277 38.1869 31.8265L36.9852 31.8172L36.6049 30.6771C36.5556 30.5295 36.3469 30.5295 36.2977 30.6771Z" fill="#FFE15A"/>
</g>
<defs>
<clipPath id="clip0_4046_20656">
<rect width="60" height="45" fill="white"/>
</clipPath>
</defs>
</svg>
