<svg width="60" height="45" viewBox="0 0 60 45" fill="none" xmlns="http://www.w3.org/2000/svg">
<g clip-path="url(#clip0_4046_20928)">
<path fill-rule="evenodd" clip-rule="evenodd" d="M-15.0547 0H75.1853V45.12H-15.0547V0Z" fill="#6797D6"/>
<path fill-rule="evenodd" clip-rule="evenodd" d="M30.0488 10.8391L27.1936 12.7955L28.2863 9.63178L25.4222 7.67541H28.9561L30.0488 4.51172L31.1416 7.68422H34.6666L31.8113 9.63178L32.9041 12.7955M30.0488 34.3685L27.1936 32.4121L28.2863 35.5846L25.4222 37.5322H28.9561L30.0488 40.6958L31.1416 37.5233L34.6666 37.5322L31.8113 35.5758L32.9041 32.4121M16.3013 24.2693L14.1423 26.966L14.2656 23.6172L10.9609 22.5862L14.3449 21.5551L14.4595 18.2063L16.4247 20.9206L19.8087 19.8807L17.6408 22.5862L19.6148 25.2916M43.7787 24.2605L45.9466 26.966L45.8232 23.6172L49.1279 22.5862L45.7439 21.5551L45.6293 18.2063L43.6641 20.9206L40.2801 19.8807L42.448 22.5862L40.474 25.2916" fill="white"/>
</g>
<defs>
<clipPath id="clip0_4046_20928">
<rect width="60" height="45" fill="white"/>
</clipPath>
</defs>
</svg>
