<svg width="60" height="45" viewBox="0 0 60 45" fill="none" xmlns="http://www.w3.org/2000/svg">
<g clip-path="url(#clip0_4046_21148)">
<path d="M0 0H60V45H0V0Z" fill="#CE1126"/>
<path d="M6.29688 6.30078H53.6969V38.7008H6.29688V6.30078Z" fill="#007A5E"/>
<path d="M6.29688 6.30859H53.6969L6.29688 38.7086H53.6969L6.29688 6.30859Z" fill="#FCD116"/>
<path d="M29.9938 27.9094C32.9761 27.9094 35.3938 25.4917 35.3938 22.5094C35.3938 19.527 32.9761 17.1094 29.9938 17.1094C27.0114 17.1094 24.5938 19.527 24.5938 22.5094C24.5938 25.4917 27.0114 27.9094 29.9938 27.9094Z" fill="#CE1126"/>
<path d="M9.59375 22.5672C10.3059 23.8953 11.3999 24.9795 12.7344 25.6797C12.6824 24.2145 12.3214 22.7769 11.675 21.4609L9.59375 22.5672V22.5672Z" fill="#CE1126"/>
<path d="M8.44519 18.2539C9.42019 20.2883 5.90457 25.1633 11.7733 26.307C10.9808 25.1588 10.619 23.7678 10.7514 22.3789C12.0558 22.9819 13.1262 23.9963 13.7983 25.2664C15.3358 19.6883 9.86082 20.0352 8.44519 18.2539Z" fill="#FCD116"/>
</g>
<defs>
<clipPath id="clip0_4046_21148">
<rect width="60" height="45" fill="white"/>
</clipPath>
</defs>
</svg>
