<svg width="60" height="45" viewBox="0 0 60 45" fill="none" xmlns="http://www.w3.org/2000/svg">
<g clip-path="url(#clip0_4046_21175)">
<path d="M0 0H60V45H0V0Z" fill="#DA000C"/>
<path d="M0 0H60V30.15H0V0Z" fill="white"/>
<path d="M19.5625 20.4375H30.8125V28.1719H19.5625V20.4375Z" fill="black"/>
<path d="M25.4004 27.0488H18.5449L17.0156 28.0508V29.1055H25.4004M22.5352 22.6016C23.5195 22.6016 24.3281 23.4277 24.3281 24.4473V27.0312H25.6113V17.1875H18.5273V27.0312H20.7422V24.4473C20.7422 23.4629 21.5332 22.6016 22.5352 22.6016V22.6016Z" fill="#DA000C"/>
<path fill-rule="evenodd" clip-rule="evenodd" d="M18.4336 17.1016H25.6934V27.1211H25.4824V27.1387H18.5653L17.0977 28.1002V29.0195H25.4824V29.1953H16.9219V28.0052L18.4336 27.0148V17.1016ZM20.8242 26.9629V24.4492C20.8242 23.5095 21.5797 22.6914 22.5293 22.6914C23.4629 22.6914 24.2344 23.476 24.2344 24.4492V26.9629H20.8242ZM24.4102 26.9453H25.5176V17.2773H18.6094V26.9453H20.6484V24.4492C20.6484 23.4202 21.475 22.5156 22.5293 22.5156C23.5644 22.5156 24.4102 23.3834 24.4102 24.4492V26.9453Z" fill="black"/>
<path d="M20.9531 10.543H24.2227V16.5195H20.9531V10.543Z" fill="black"/>
<path d="M24.1992 15.5859H21.3516V14.5664H19.2598V15.5859H17.8535V14.5664H16.9922V16.3945H24.1992M17.8359 16.3945H23.9883V17.1855H17.8359V16.3945ZM26.6602 7.55273V14.584H27.7148V12.8789C27.7148 12.2461 28.1543 11.7188 28.7871 11.6836H28.8574C29.1744 11.6836 29.4785 11.8095 29.7026 12.0337C29.9268 12.2579 30.0527 12.5619 30.0527 12.8789V14.584H31.0547V8.36133L26.6602 7.55273ZM26.2559 6.70898V7.55273H31.4062V6.70898H26.2559ZM25.6055 5.10938V6.70898H31.7578V5.10938H30.8262V5.93555H29.666V5.10938H27.9082V5.93555H26.7656V5.10938H25.6055ZM16.9922 28.0488H25.4297ZM30.8789 27.5566H25.1836L23.4609 28.3828V29.6133H30.8789" fill="#DA000C"/>
<path fill-rule="evenodd" clip-rule="evenodd" d="M25.5195 5.02344H26.8555V5.84961H27.8223V5.02344H29.7559V5.84961H30.7402V5.02344H31.8477V6.79883H31.4961V7.64258H27.6255L31.1445 8.29009V14.6738H29.9668V12.8809C29.9668 12.5872 29.8501 12.3055 29.6424 12.0978C29.4348 11.8901 29.1531 11.7734 28.8594 11.7734H28.7916C28.2125 11.8069 27.8047 12.2894 27.8047 12.8809V14.6738H26.5742V7.64258H26.1699V6.79883H25.5195V5.02344ZM31.6719 6.62305V5.19922H30.916V6.02539H29.5801V5.19922H27.998V6.02539H26.6797V5.19922H25.6953V6.62305H31.6719ZM26.3457 6.79883V7.4668H26.5742V7.44915L26.6701 7.4668H31.3203V6.79883H26.3457ZM26.75 7.66023V14.498H27.6289V12.8809C27.6289 12.2075 28.0989 11.6359 28.7842 11.5978L28.7866 11.5977H28.8594C29.1997 11.5977 29.5261 11.7329 29.7667 11.9735C30.0074 12.2141 30.1426 12.5405 30.1426 12.8809V14.498H30.9688V8.43648L26.75 7.66023ZM16.9062 14.4805H17.9434V15.5H19.1738V14.4805H21.4414V15.5H24.2891V15.6758H21.2656V14.6563H19.3496V15.6758H17.7676V14.6563H17.082V16.3086H24.2891V16.4844H24.0781V17.2754H17.75V16.4844H16.9062V14.4805ZM17.9258 16.4844V17.0996H23.9023V16.4844H17.9258ZM25.1656 27.4707H30.9688V27.6465H25.2055L24.5458 27.9629H25.5195V28.1387H24.1793L23.5508 28.4401V29.5273H30.9688V29.7031H23.375V28.3294L23.7728 28.1387H16.9062V27.9629H24.1393L25.1656 27.4707Z" fill="black"/>
<path fill-rule="evenodd" clip-rule="evenodd" d="M31.0547 28.4727H23.4609V28.2969H31.0547V28.4727Z" fill="black"/>
<path d="M33.0455 26.3672C32.5709 26.543 32.1666 26.7891 31.7272 27.0352C31.1803 27.3475 30.6574 27.7001 30.1627 28.0898C29.9869 28.2129 29.8112 28.3359 29.6881 28.5117C29.5123 28.6523 29.3366 28.8633 29.3717 29.127C29.3717 29.2324 29.5123 28.9863 29.6178 28.9688C29.7847 28.8794 29.9786 28.8544 30.1627 28.8984C30.3912 28.6523 30.6901 28.4941 30.9362 28.3008C31.6527 27.7823 32.418 27.3348 33.2213 26.9648L33.0455 26.3672Z" fill="#F8D80E"/>
<path fill-rule="evenodd" clip-rule="evenodd" d="M33.0918 26.2734L33.306 27.0016L33.2508 27.0271C32.452 27.3949 31.691 27.8398 30.9785 28.3553C30.8924 28.4229 30.7988 28.4871 30.7062 28.5507C30.6648 28.579 30.6236 28.6073 30.5834 28.6356C30.4506 28.7293 30.3235 28.827 30.2143 28.9446L30.1864 28.9747L30.1464 28.9652C29.979 28.9251 29.8028 28.9479 29.651 29.0291L29.6408 29.0345L29.6294 29.0364C29.6233 29.0375 29.6072 29.0448 29.5805 29.0676C29.5572 29.0875 29.5337 29.112 29.5101 29.1367C29.5087 29.1381 29.5074 29.1395 29.5061 29.1409C29.4941 29.1534 29.4817 29.1663 29.4702 29.1772C29.4596 29.1873 29.4456 29.1998 29.4304 29.2085C29.4215 29.2136 29.3756 29.2385 29.3334 29.2038C29.3156 29.1892 29.3085 29.1707 29.3054 29.1591C29.3027 29.149 29.3018 29.1391 29.3015 29.1304C29.2642 28.8344 29.4591 28.6054 29.6364 28.4615C29.7662 28.2799 29.9478 28.1529 30.1178 28.0338L30.1208 28.0317C30.6178 27.6403 31.143 27.2862 31.6924 26.9724L31.6929 26.9721C31.7596 26.9348 31.8256 26.8973 31.8915 26.86C32.2565 26.653 32.6135 26.4506 33.0212 26.2996L33.0918 26.2734ZM31.7618 27.0947C31.2181 27.4053 30.6982 27.7558 30.2063 28.1434L30.2047 28.1446L30.2031 28.1458C30.0255 28.2701 29.8605 28.3865 29.7458 28.5504L29.74 28.5587L29.7321 28.565C29.5894 28.6791 29.462 28.8292 29.4407 29.0062C29.456 28.9908 29.4725 28.9749 29.4893 28.9606C29.5159 28.9378 29.5522 28.911 29.5935 28.9004C29.7614 28.8131 29.9536 28.7849 30.139 28.8198C30.2515 28.7045 30.3775 28.6087 30.5024 28.5207C30.5459 28.49 30.5889 28.4605 30.6312 28.4316C30.7222 28.3691 30.81 28.3089 30.8928 28.2438L30.8939 28.243L30.895 28.2422C31.5988 27.7328 32.3494 27.2917 33.1368 26.9249L32.9996 26.4583C32.6325 26.6016 32.3061 26.7866 31.9627 26.9813C31.8966 27.0188 31.8297 27.0567 31.7618 27.0947ZM29.4421 29.1272C29.4421 29.1272 29.4421 29.1271 29.4421 29.127Z" fill="black"/>
<path d="M30.7734 27.666V28.3516ZM31.1953 27.3672V28.0527ZM31.6172 27.1035V27.7715ZM32.0566 26.8398V27.543Z" fill="#F8D80E"/>
<path fill-rule="evenodd" clip-rule="evenodd" d="M32.0586 26.7539C32.1071 26.7539 32.1465 26.7933 32.1465 26.8418V27.5449C32.1465 27.5935 32.1071 27.6328 32.0586 27.6328C32.0101 27.6328 31.9707 27.5935 31.9707 27.5449V26.8418C31.9707 26.7933 32.0101 26.7539 32.0586 26.7539ZM31.6191 27.0176C31.6677 27.0176 31.707 27.0569 31.707 27.1055V27.7734C31.707 27.822 31.6677 27.8613 31.6191 27.8613C31.5706 27.8613 31.5313 27.822 31.5313 27.7734V27.1055C31.5313 27.0569 31.5706 27.0176 31.6191 27.0176ZM31.1973 27.2812C31.2458 27.2812 31.2852 27.3206 31.2852 27.3691V28.0547C31.2852 28.1032 31.2458 28.1426 31.1973 28.1426C31.1487 28.1426 31.1094 28.1032 31.1094 28.0547V27.3691C31.1094 27.3206 31.1487 27.2812 31.1973 27.2812ZM30.7754 27.5801C30.8239 27.5801 30.8633 27.6194 30.8633 27.668V28.3535C30.8633 28.4021 30.8239 28.4414 30.7754 28.4414C30.7268 28.4414 30.6875 28.4021 30.6875 28.3535V27.668C30.6875 27.6194 30.7268 27.5801 30.7754 27.5801Z" fill="black"/>
<path d="M26.9922 26.4023L26.7812 26.9824C27.7527 27.355 28.6833 27.8262 29.5586 28.3887C29.8574 28.5996 30.1738 28.793 30.4023 29.0742C30.4551 29.2148 30.3145 29.3379 30.1738 29.2852C30.0508 29.25 29.9102 29.1973 29.7871 29.2852C29.5938 29.373 29.418 29.6719 29.6992 29.7598C30.1211 30.041 30.7715 29.918 30.9648 29.4434C31.0703 29.1973 31.0879 28.8809 30.877 28.6699C30.5254 28.2656 30.0332 27.9668 29.5762 27.668C28.7555 27.1678 27.8905 26.7441 26.9922 26.4023V26.4023Z" fill="#F8D80E"/>
<path fill-rule="evenodd" clip-rule="evenodd" d="M27.0209 26.3359C27.9233 26.6793 28.7921 27.1048 29.6165 27.6072L29.6175 27.6078L29.6184 27.6084C29.6658 27.6394 29.7137 27.6705 29.7619 27.7017C30.1744 27.9692 30.6104 28.2519 30.9322 28.6213C31.1705 28.8614 31.1437 29.2122 31.0335 29.4698C30.9264 29.7319 30.6943 29.8939 30.4372 29.9529C30.1835 30.011 29.8992 29.9708 29.6722 29.823C29.5941 29.7966 29.5371 29.7523 29.5075 29.6906C29.4771 29.6274 29.482 29.5589 29.5024 29.4991C29.5415 29.3844 29.6453 29.2756 29.7556 29.2233C29.8333 29.1701 29.9156 29.1608 29.9912 29.1684C30.0533 29.1746 30.1157 29.193 30.1679 29.2084C30.178 29.2114 30.1877 29.2142 30.1969 29.2169L30.1996 29.2176L30.2023 29.2186C30.2474 29.2355 30.2901 29.2239 30.3172 29.1994C30.3413 29.1775 30.3538 29.1453 30.3434 29.108C30.161 28.8872 29.9228 28.7229 29.6752 28.5521C29.6247 28.5173 29.5739 28.4822 29.5231 28.4463C28.6522 27.8868 27.7263 27.4181 26.7598 27.0474L26.6953 27.0226L26.9299 26.3776L26.9959 26.4017L27.0209 26.3359ZM27.0376 26.4929L26.8746 26.941C27.8273 27.3113 28.7404 27.7763 29.6004 28.3288L29.6016 28.3297L29.6029 28.3305C29.6513 28.3647 29.7006 28.3987 29.7503 28.4329C30.0018 28.6062 30.2633 28.7862 30.4607 29.0292L30.4679 29.0381L30.4719 29.0488C30.5091 29.148 30.4776 29.2439 30.4115 29.3036C30.347 29.362 30.2504 29.3857 30.1557 29.3513C30.1451 29.3483 30.1347 29.3452 30.1245 29.3423C30.0723 29.3269 30.0249 29.3131 29.9772 29.3083C29.9228 29.3028 29.8755 29.3104 29.8317 29.3417L29.8262 29.3457L29.82 29.3485C29.7392 29.3852 29.6616 29.4679 29.6355 29.5445C29.6229 29.5813 29.6245 29.6095 29.6342 29.6298C29.6435 29.6491 29.6664 29.674 29.7239 29.692L29.7336 29.695L29.742 29.7006C29.9355 29.8296 30.1835 29.8668 30.4058 29.8158C30.6275 29.7649 30.8171 29.6283 30.9035 29.4161L30.904 29.415C31.0042 29.181 31.0125 28.9004 30.831 28.719L30.8293 28.7172L30.8276 28.7154C30.5195 28.3611 30.1003 28.089 29.6846 27.8193C29.6371 27.7884 29.5896 27.7576 29.5424 27.7267C28.7459 27.2414 27.9077 26.8285 27.0376 26.4929Z" fill="black"/>
<path d="M29.6504 27.7715L29.5977 28.3691ZM30.1426 28.0703L30.002 28.6504ZM30.6699 28.4746L30.3535 28.9316ZM30.8281 29.5645L30.3711 29.3184ZM30.9688 29.0723L30.4414 29.125ZM30.3008 29.8281L30.2656 29.3711ZM30.0898 29.3184L29.668 29.6348ZM28.0156 26.875V27.4199ZM29.123 27.4727V28.0879ZM28.5605 27.1738V27.7539Z" fill="#F8D80E"/>
<path fill-rule="evenodd" clip-rule="evenodd" d="M28.0176 26.7891C28.0661 26.7891 28.1055 26.8284 28.1055 26.877V27.4219C28.1055 27.4704 28.0661 27.5098 28.0176 27.5098C27.969 27.5098 27.9297 27.4704 27.9297 27.4219V26.877C27.9297 26.8284 27.969 26.7891 28.0176 26.7891ZM28.5625 27.0879C28.611 27.0879 28.6504 27.1272 28.6504 27.1758V27.7559C28.6504 27.8044 28.611 27.8438 28.5625 27.8438C28.514 27.8438 28.4746 27.8044 28.4746 27.7559V27.1758C28.4746 27.1272 28.514 27.0879 28.5625 27.0879ZM29.125 27.3867C29.1735 27.3867 29.2129 27.4261 29.2129 27.4746V28.0898C29.2129 28.1384 29.1735 28.1777 29.125 28.1777C29.0765 28.1777 29.0371 28.1384 29.0371 28.0898V27.4746C29.0371 27.4261 29.0765 27.3867 29.125 27.3867ZM29.6601 27.6859C29.7084 27.6902 29.7442 27.7328 29.7399 27.7812L29.6872 28.3788C29.6829 28.4272 29.6402 28.4629 29.5919 28.4586C29.5435 28.4544 29.5078 28.4117 29.5121 28.3634L29.5648 27.7657C29.5691 27.7174 29.6117 27.6816 29.6601 27.6859ZM30.1652 27.9868C30.2124 27.9983 30.2414 28.0458 30.2299 28.093L30.0893 28.6731C30.0779 28.7202 30.0304 28.7492 29.9832 28.7378C29.936 28.7263 29.9071 28.6788 29.9185 28.6316L30.0591 28.0516C30.0705 28.0044 30.1181 27.9754 30.1652 27.9868ZM30.7219 28.4043C30.7618 28.4319 30.7718 28.4867 30.7441 28.5266L30.4277 28.9836C30.4001 29.0235 30.3454 29.0335 30.3054 29.0059C30.2655 28.9782 30.2556 28.9235 30.2832 28.8836L30.5996 28.4265C30.6272 28.3866 30.682 28.3767 30.7219 28.4043ZM31.0582 29.0655C31.063 29.1138 31.0277 29.1568 30.9794 29.1617L30.4521 29.2144C30.4038 29.2192 30.3607 29.184 30.3559 29.1357C30.3511 29.0874 30.3863 29.0443 30.4346 29.0395L30.962 28.9868C31.0103 28.9819 31.0533 29.0172 31.0582 29.0655ZM30.2957 29.2786C30.3187 29.2359 30.372 29.2199 30.4147 29.2429L30.8717 29.489C30.9145 29.512 30.9305 29.5653 30.9075 29.6081C30.8845 29.6508 30.8312 29.6668 30.7884 29.6438L30.3588 29.4124L30.3904 29.8233C30.3941 29.8717 30.3579 29.914 30.3095 29.9177C30.2611 29.9214 30.2188 29.8852 30.2151 29.8368L30.1799 29.3798C30.1762 29.3314 30.2124 29.2891 30.2608 29.2854C30.2713 29.2846 30.2816 29.2857 30.2912 29.2884C30.2925 29.2851 30.2939 29.2818 30.2957 29.2786ZM30.1621 29.2676C30.1912 29.3064 30.1834 29.3615 30.1445 29.3906L29.7227 29.707C29.6838 29.7362 29.6287 29.7283 29.5996 29.6895C29.5705 29.6506 29.5784 29.5955 29.6172 29.5664L30.0391 29.25C30.0779 29.2209 30.133 29.2287 30.1621 29.2676Z" fill="black"/>
<path d="M26.4453 40.0078V41.4141H27.3242V40.7109H28.5371V41.4141H29.4863V40.0078H26.4453ZM26.4453 41.9414V43.3477H29.4687V41.9414H28.5195V42.6445H27.3066V41.9414H26.4453Z" fill="#F8D80E"/>
<path fill-rule="evenodd" clip-rule="evenodd" d="M26.3594 39.918H29.5762V41.5H28.4512V40.7969H27.4141V41.5H26.3594V39.918ZM26.5352 40.0938V41.3242H27.2383V40.6211H28.627V41.3242H29.4004V40.0938H26.5352ZM26.3594 41.8516H27.3965V42.5547H28.4336V41.8516H29.5586V43.4336H26.3594V41.8516ZM26.5352 42.0273V43.2578H29.3828V42.0273H28.6094V42.7305H27.2207V42.0273H26.5352Z" fill="black"/>
<path d="M29.4688 34.0469H30.3477V44.2422H29.4688V34.0469Z" fill="#F8D80E"/>
<path fill-rule="evenodd" clip-rule="evenodd" d="M29.3828 33.9609H30.4375V44.332H29.3828V33.9609ZM29.5586 34.1367V44.1562H30.2617V34.1367H29.5586Z" fill="black"/>
<path d="M29.4687 34.9258H30.3477V43.7148H29.4687V34.9258ZM29.9258 31.5332L31.7891 32.623L29.9258 33.7129L28.0449 32.623L29.9258 31.5332ZM27.4121 32.2363H26.9375V33.0098H27.4121L29.9258 34.4688L32.4219 33.0098H32.9141V32.2363H32.4219L29.9258 30.7773L27.4121 32.2363Z" fill="#F8D80E"/>
<path fill-rule="evenodd" clip-rule="evenodd" d="M29.9279 30.6758L32.4476 32.1486H33.0039V33.0978H32.4476L29.9279 34.5706L27.3904 33.0978H26.8516V32.1486H27.3904L29.9279 30.6758ZM29.9276 30.8792L27.4377 32.3244H27.0273V32.922H27.4377L29.9276 34.3672L32.4 32.922H32.8281V32.3244H32.4L29.9276 30.8792ZM29.9279 31.4317L31.9651 32.6232L29.9279 33.8147L27.8716 32.6232L29.9279 31.4317ZM28.2222 32.6232L29.9275 33.6113L31.6169 32.6232L29.9275 31.6351L28.2222 32.6232ZM29.3828 34.838H30.4375V43.8029H29.3828V34.838ZM29.5586 35.0138V43.6271H30.2617V35.0138H29.5586Z" fill="black"/>
<path d="M29.8757 28.8789C29.6711 28.9205 29.488 29.0335 29.3592 29.1978C29.2304 29.362 29.1642 29.5668 29.1726 29.7754V31.7441C29.1887 31.9532 29.2791 32.1496 29.4274 32.2979C29.5757 32.4462 29.7721 32.5366 29.9812 32.5527C30.1551 32.5658 30.3289 32.5257 30.4796 32.4378C30.6302 32.3499 30.7507 32.2184 30.8249 32.0605L30.5261 31.8848C30.4846 31.9877 30.4107 32.0743 30.3155 32.1314C30.2203 32.1886 30.1091 32.213 29.9988 32.2012C29.7175 32.2012 29.489 31.9199 29.5241 31.6563V29.6875C29.5375 29.5585 29.5994 29.4395 29.6974 29.3546C29.7953 29.2697 29.9219 29.2253 30.0515 29.2305C30.157 29.1953 30.3152 29.3535 30.3855 29.2305C30.4909 29.0723 30.3152 28.9668 30.2097 28.8789H29.8757V28.8789ZM30.8952 29.5645C30.8093 29.6848 30.6945 29.7815 30.5613 29.8457V31.1641L30.9128 31.3574V29.5645H30.8952Z" fill="#F8D80E"/>
<path fill-rule="evenodd" clip-rule="evenodd" d="M29.8777 28.793H30.2435L30.2679 28.8133C30.2798 28.8233 30.2928 28.8335 30.3074 28.8451L30.3083 28.8457C30.3229 28.8573 30.3389 28.8699 30.3547 28.8831C30.386 28.9092 30.4204 28.9404 30.4483 28.9767C30.4764 29.0132 30.5013 29.0592 30.5068 29.1145C30.5123 29.1706 30.4967 29.226 30.4621 29.2788C30.431 29.3314 30.3844 29.3605 30.3304 29.3667C30.2838 29.3721 30.2384 29.3592 30.2067 29.3491C30.1909 29.344 30.178 29.3394 30.1665 29.3354C30.1494 29.3294 30.1351 29.3244 30.1182 29.32C30.0926 29.3133 30.0832 29.3152 30.0812 29.3158L30.066 29.3209L30.0499 29.3202C29.9427 29.316 29.8379 29.3527 29.7569 29.423C29.6769 29.4923 29.6259 29.5891 29.614 29.6942V31.664L29.6132 31.6698C29.5994 31.7731 29.6372 31.8851 29.7117 31.9726C29.7859 32.0597 29.8901 32.1152 30.0007 32.1152H30.0054L30.0101 32.1157C30.1014 32.1256 30.1935 32.1053 30.2722 32.058C30.351 32.0108 30.4122 31.9391 30.4465 31.8539L30.4846 31.7592L30.9405 32.0274L30.9064 32.0999C30.8246 32.2738 30.6918 32.4188 30.5258 32.5157C30.3598 32.6125 30.1682 32.6567 29.9766 32.6423L29.9764 32.6423C29.7464 32.6245 29.5303 32.5251 29.3672 32.362C29.2041 32.1989 29.1047 31.9829 29.0869 31.7529L29.0866 31.7495V29.7791C29.0779 29.5502 29.1507 29.3257 29.292 29.1455C29.4337 28.9648 29.6351 28.8405 29.8602 28.7947L29.8777 28.8809V28.793ZM29.8867 28.9688C29.706 29.0075 29.5445 29.1084 29.4303 29.254C29.3144 29.4018 29.2548 29.5861 29.2624 29.7738L29.2624 29.7756V31.7426C29.2777 31.9296 29.3588 32.105 29.4915 32.2377C29.6249 32.3711 29.8016 32.4525 29.9897 32.467C30.1459 32.4787 30.3019 32.4428 30.4372 32.3638C30.5494 32.2984 30.643 32.206 30.7097 32.0955L30.564 32.0098C30.514 32.0909 30.4452 32.1593 30.3627 32.2088C30.2524 32.2749 30.1238 32.3037 29.996 32.291C29.8272 32.2894 29.6785 32.2048 29.5778 32.0865C29.4778 31.969 29.4191 31.811 29.4382 31.6527V29.6849L29.4387 29.6804C29.4543 29.5292 29.5269 29.3897 29.6417 29.2901C29.7531 29.1937 29.896 29.1418 30.0429 29.1442C30.0876 29.134 30.1305 29.1416 30.1623 29.1498C30.1853 29.1558 30.213 29.1654 30.2352 29.1731C30.245 29.1765 30.2537 29.1795 30.2605 29.1817C30.2882 29.1906 30.3022 29.1925 30.309 29.1922C30.3095 29.1914 30.3103 29.1903 30.3111 29.1888L30.3126 29.1862L30.3143 29.1837C30.3314 29.1581 30.3328 29.1418 30.3318 29.1317C30.3307 29.12 30.3248 29.1045 30.309 29.0839C30.2929 29.063 30.2702 29.0415 30.2422 29.0181C30.2284 29.0066 30.2141 28.9954 30.1993 28.9837L30.1977 28.9824C30.192 28.9779 30.1862 28.9734 30.1805 28.9688H29.8867ZM30.8519 29.4785H31.0027V31.508L30.4753 31.218V29.7924L30.5251 29.7685C30.645 29.7107 30.7483 29.6237 30.8257 29.5153L30.8519 29.4785ZM30.8269 29.7759C30.7733 29.824 30.7143 29.866 30.6511 29.9011V31.114L30.8269 31.2107V29.7759Z" fill="black"/>
<path d="M27.3281 6.75H32.4785V16.1016H27.3281V6.75Z" fill="black"/>
<path d="M26.9766 6.74609V14.5684H28.6113V12.248C28.6113 11.7207 28.9629 10.9648 30 10.9648C31.0371 10.9648 31.4062 11.7207 31.4062 12.248V14.5859H33.0234V6.74609H26.9766ZM29.7539 7.625H30.2461V10.2969H29.7539V7.625ZM28.2949 8.15234H28.8223V10.1035H28.2949V8.15234ZM31.1953 8.15234H31.7051V10.1035H31.1777L31.1953 8.15234ZM26.4141 5.62109V6.72852H33.5859V5.62109H26.4141ZM25.7461 4.32031V5.62109H34.2715V4.32031H33.1992V5.02344H31.9688V4.32031H30.5977V5.02344H29.4023V4.32031H28.0137V5.02344H26.8359V4.32031H25.7461ZM24.1641 17.1875V17.9961H35.8535V17.1875H24.1641Z" fill="#DA000C"/>
<path fill-rule="evenodd" clip-rule="evenodd" d="M25.6602 4.23438H26.9258V4.9375H27.9277V4.23438H29.4922V4.9375H30.5117V4.23438H32.0586V4.9375H33.1133V4.23438H34.3613V5.71094H33.6758V6.81836H33.1133V14.6758H31.3203V12.25C31.3203 12.0048 31.234 11.7053 31.0277 11.4684C30.8236 11.234 30.4969 11.0547 30.002 11.0547C29.5071 11.0547 29.1851 11.2339 28.9856 11.4677C28.7837 11.7043 28.7012 12.0038 28.7012 12.25V14.6582H26.8906V6.81836H26.3281V5.71094H25.6602V4.23438ZM34.1855 5.53516V4.41016H33.2891V5.11328H31.8828V4.41016H30.6875V5.11328H29.3164V4.41016H28.1035V5.11328H26.75V4.41016H25.8359V5.53516H34.1855ZM26.5039 5.71094V6.64258H33.5V5.71094H26.5039ZM27.0664 6.83594V14.4824H28.5254V12.25C28.5254 11.9688 28.6187 11.6268 28.8518 11.3536C29.0874 11.0776 29.4597 10.8789 30.002 10.8789C30.5441 10.8789 30.9205 11.0775 31.1603 11.3529C31.3978 11.6258 31.4961 11.9678 31.4961 12.25V14.5H32.9375V6.83594H27.0664ZM29.668 7.53906H30.3359V10.3867H29.668V7.53906ZM29.8438 7.71484V10.2109H30.1602V7.71484H29.8438ZM28.209 8.06641H28.9121V10.1934H28.209V8.06641ZM28.3848 8.24219V10.0176H28.7363V8.24219H28.3848ZM31.1102 8.06641H31.7949V10.1934H31.091L31.1102 8.06641ZM31.2844 8.24219L31.2684 10.0176H31.6191V8.24219H31.2844ZM24.0781 17.1016H35.9434V18.0859H24.0781V17.1016ZM24.2539 17.2773V17.9102H35.7676V17.2773H24.2539Z" fill="black"/>
<path d="M23.6719 14.5703V17.207H36.3281V14.5703H35.1328V15.5898H33.5156V14.5703H31.3711V15.5898H28.5938V14.5703H26.4492V15.5898H24.8672V14.5703H23.6719Z" fill="#DA000C"/>
<path fill-rule="evenodd" clip-rule="evenodd" d="M23.5859 14.4844H24.957V15.5039H26.3633V14.4844H28.6836V15.5039H31.2852V14.4844H33.6055V15.5039H35.0469V14.4844H36.418V17.2969H23.5859V14.4844ZM23.7617 14.6602V17.1211H36.2422V14.6602H35.2227V15.6797H33.4297V14.6602H31.4609V15.6797H28.5078V14.6602H26.5391V15.6797H24.7813V14.6602H23.7617Z" fill="black"/>
<path d="M25.2031 18V27.5625H27.4531V23.9766C27.4531 22.3066 28.5781 21.5156 30.002 21.5156C31.373 21.5156 32.5508 22.3066 32.5508 23.9766V27.5625H34.8008V18H25.2031Z" fill="#DA000C"/>
<path fill-rule="evenodd" clip-rule="evenodd" d="M25.1172 17.998C25.1172 17.9495 25.1565 17.9102 25.2051 17.9102H34.8027C34.8513 17.9102 34.8906 17.9495 34.8906 17.998V27.5605C34.8906 27.6091 34.8513 27.6484 34.8027 27.6484H32.5527C32.5042 27.6484 32.4648 27.6091 32.4648 27.5605V23.9746C32.4648 23.1619 32.1792 22.572 31.7347 22.1841C31.2884 21.7947 30.6734 21.6016 30.0039 21.6016C29.3074 21.6016 28.693 21.795 28.2538 22.1837C27.8163 22.571 27.543 23.1607 27.543 23.9746V27.5605C27.543 27.6091 27.5036 27.6484 27.4551 27.6484H25.2051C25.1565 27.6484 25.1172 27.6091 25.1172 27.5605V17.998ZM25.293 18.0859V27.4727H27.3672V23.9746C27.3672 23.1186 27.6563 22.4778 28.1373 22.0521C28.6166 21.6278 29.2766 21.4258 30.0039 21.4258C30.7055 21.4258 31.3649 21.6282 31.8503 22.0517C32.3374 22.4768 32.6406 23.1173 32.6406 23.9746V27.4727H34.7148V18.0859H25.293Z" fill="black"/>
</g>
<defs>
<clipPath id="clip0_4046_21175">
<rect width="60" height="45" fill="white"/>
</clipPath>
</defs>
</svg>
