<svg width="60" height="45" viewBox="0 0 60 45" fill="none" xmlns="http://www.w3.org/2000/svg">
<g clip-path="url(#clip0_4046_21234)">
<path d="M0 0H60V45H0V0Z" fill="#E32118"/>
<path d="M0 0H60V30H0V0Z" fill="white"/>
<path d="M0 0H60V15H0V0Z" fill="#3E9A00"/>
<path d="M0 0V45L16.875 22.5L0 0Z" fill="#0073CE"/>
<path d="M26.3984 17.9805H33.5797V25.4992C33.5797 28.0305 30.2797 26.0805 29.9984 27.4305C29.5109 26.043 26.4172 28.0492 26.4172 25.3492L26.3984 17.9805V17.9805Z" fill="white"/>
<path fill-rule="evenodd" clip-rule="evenodd" d="M26.4454 18.0273L26.4641 25.3492C26.4641 26.0153 26.6544 26.3788 26.9355 26.5803C27.2203 26.7843 27.609 26.8305 28.0255 26.8352C28.161 26.8367 28.2974 26.8339 28.4331 26.8311C28.5058 26.8296 28.5784 26.8281 28.6505 26.8272C28.856 26.8249 29.0567 26.8281 29.2396 26.8532C29.4224 26.8783 29.5906 26.9257 29.7297 27.0138C29.837 27.0819 29.9257 27.1734 29.9903 27.2949C30.0372 27.1791 30.111 27.091 30.2064 27.0251C30.3323 26.9383 30.4926 26.8924 30.6705 26.8687C30.8486 26.8449 31.0485 26.8428 31.256 26.8467C31.3363 26.8482 31.4174 26.8505 31.499 26.8529C31.63 26.8567 31.7622 26.8606 31.8947 26.8609C32.3245 26.8621 32.7336 26.8257 33.035 26.6391C33.3312 26.4558 33.5328 26.1208 33.5328 25.4992V18.0273H26.4454ZM26.3984 17.9805V17.9336H33.6266V25.4992C33.6266 26.1433 33.4157 26.5138 33.0843 26.7189C32.7582 26.9208 32.3247 26.9559 31.8944 26.9547C31.7612 26.9543 31.6262 26.9504 31.494 26.9466C31.4127 26.9442 31.3324 26.9419 31.2543 26.9404C31.0476 26.9366 30.8536 26.9388 30.6829 26.9616C30.5118 26.9844 30.3682 27.0274 30.2597 27.1023C30.1528 27.176 30.0771 27.2827 30.0443 27.44L30.01 27.6048L29.9542 27.446C29.8968 27.2825 29.8018 27.1706 29.6795 27.093C29.5561 27.0148 29.4026 26.9702 29.2268 26.946C29.0511 26.9219 28.8563 26.9187 28.6516 26.921C28.5813 26.9218 28.5096 26.9233 28.4373 26.9248C28.3005 26.9276 28.1613 26.9304 28.0245 26.9289C27.6066 26.9242 27.1914 26.8789 26.8809 26.6565C26.5667 26.4313 26.3703 26.0332 26.3703 25.3492L26.3516 17.9806L26.3984 17.9805Z" fill="black"/>
<path d="M30.5047 26.2305C30.5047 26.2305 30.4109 26.3242 30.2422 26.2492C30.0734 26.1742 30.0547 21.4305 30.0547 21.4305C30.4297 21.018 30.7297 20.8867 30.7297 20.8867L30.9547 21.0742C30.1109 21.5055 30.1859 22.1242 30.2609 23.193C30.2797 23.5867 30.2797 24.093 30.3734 24.5805C30.5047 25.1992 30.7672 25.7242 30.7859 26.118C30.8047 26.3617 30.5047 26.2305 30.5047 26.2305V26.2305Z" fill="#73452B"/>
<path fill-rule="evenodd" clip-rule="evenodd" d="M30.7328 20.8789L30.9732 21.0792L30.9605 21.0857C30.7504 21.193 30.5981 21.3118 30.4886 21.4459C30.3792 21.58 30.3124 21.7298 30.274 21.8997C30.2023 22.2171 30.2298 22.6037 30.2643 23.088C30.2668 23.1233 30.2693 23.1591 30.2719 23.1954L30.2719 23.1956C30.2755 23.2725 30.2785 23.3536 30.2815 23.4379C30.2942 23.7862 30.3089 24.19 30.3842 24.5817C30.4428 24.8577 30.5275 25.1151 30.6051 25.3509C30.6143 25.3788 30.6234 25.4065 30.6324 25.4338C30.7166 25.6913 30.7874 25.9222 30.7969 26.1205C30.8017 26.1832 30.7861 26.224 30.7576 26.2486C30.7295 26.2728 30.6909 26.2793 30.6536 26.2781C30.6161 26.2769 30.5783 26.2678 30.5501 26.2592C30.536 26.2549 30.5241 26.2507 30.5158 26.2475C30.5127 26.2463 30.5102 26.2453 30.5081 26.2445C30.508 26.2445 30.508 26.2446 30.5079 26.2446C30.5048 26.2473 30.5002 26.2508 30.4942 26.2548C30.4821 26.2629 30.4644 26.2727 30.4411 26.28C30.3944 26.2947 30.3264 26.2993 30.24 26.2609C30.2353 26.2588 30.2315 26.2551 30.2285 26.251C30.2253 26.2469 30.2225 26.2417 30.2198 26.2357C30.2145 26.2238 30.2095 26.2077 30.2047 26.188C30.1952 26.1486 30.1863 26.0934 30.178 26.0249C30.1613 25.8877 30.1467 25.696 30.1339 25.4683C30.1084 25.0128 30.0903 24.4127 30.0774 23.815C30.0645 23.2173 30.0569 22.622 30.0525 22.176C30.0503 21.9531 30.0489 21.7675 30.048 21.6376C30.0476 21.5727 30.0473 21.5217 30.0471 21.4869L30.0469 21.4337C30.0469 21.4336 30.0469 21.4336 30.0563 21.4336L30.0469 21.4337L30.0469 21.43L30.0493 21.4273C30.2373 21.2205 30.4066 21.0841 30.5291 20.9993C30.5903 20.9569 30.6398 20.9275 30.674 20.9086C30.6911 20.8991 30.7044 20.8923 30.7135 20.8879C30.718 20.8856 30.7215 20.884 30.7239 20.8829L30.7265 20.8817L30.7272 20.8813L30.7274 20.8813C30.7274 20.8813 30.7275 20.8812 30.7313 20.8898L30.7274 20.8813L30.7328 20.8789ZM30.7298 20.9008C30.7277 20.9018 30.725 20.9031 30.7218 20.9047C30.713 20.909 30.6999 20.9157 30.6831 20.925C30.6493 20.9436 30.6004 20.9727 30.5397 21.0147C30.4189 21.0983 30.2517 21.233 30.0657 21.4372L30.0659 21.4868C30.0661 21.5216 30.0664 21.5726 30.0668 21.6375C30.0676 21.7673 30.069 21.9529 30.0712 22.1759C30.0756 22.6217 30.0832 23.217 30.0961 23.8146C30.109 24.4122 30.1272 25.0121 30.1526 25.4672C30.1654 25.6948 30.1799 25.886 30.1966 26.0226C30.2049 26.0909 30.2137 26.1453 30.223 26.1836C30.2276 26.2028 30.2323 26.2177 30.2369 26.2281C30.2393 26.2333 30.2415 26.2371 30.2435 26.2398C30.2455 26.2425 30.2469 26.2435 30.2476 26.2437C30.3298 26.2803 30.3931 26.2755 30.4355 26.2621C30.4568 26.2554 30.473 26.2465 30.4838 26.2392C30.4892 26.2356 30.4932 26.2325 30.4959 26.2303C30.4972 26.2291 30.4982 26.2283 30.4988 26.2277L30.4995 26.2271L30.4996 26.2269C30.4996 26.2269 30.4996 26.2269 30.5063 26.2336L30.51 26.225L30.5102 26.2251L30.5108 26.2253L30.5132 26.2263C30.5153 26.2272 30.5185 26.2284 30.5225 26.23C30.5305 26.233 30.5419 26.2371 30.5556 26.2413C30.583 26.2497 30.6191 26.2582 30.6542 26.2594C30.6896 26.2605 30.7225 26.2541 30.7454 26.2344C30.7678 26.215 30.7827 26.1809 30.7782 26.1218L30.7781 26.1215C30.7688 25.9261 30.699 25.6977 30.6145 25.4396C30.6056 25.4123 30.5965 25.3847 30.5873 25.3567C30.5097 25.121 30.4246 24.8626 30.3658 24.5855L30.3658 24.5853C30.2902 24.192 30.2754 23.7863 30.2628 23.438C30.2597 23.3538 30.2568 23.2731 30.2532 23.1966C30.2506 23.1599 30.248 23.1238 30.2455 23.0881C30.2111 22.6051 30.1833 22.2158 30.2557 21.8956C30.2947 21.7233 30.3626 21.5707 30.4741 21.4341C30.5833 21.3002 30.7341 21.182 30.9394 21.0755L30.7298 20.9008Z" fill="black"/>
<path d="M29.9266 20.7773H30.2641C29.9828 23.4961 30.2266 25.1086 30.2266 25.8961C30.2266 26.1586 30.3766 26.2523 30.3578 26.2523C30.0203 26.6273 29.8516 26.2336 29.8516 26.2336L29.9266 20.7773Z" fill="#73452B"/>
<path fill-rule="evenodd" clip-rule="evenodd" d="M29.9189 20.7656H30.276L30.275 20.776C30.0632 22.8236 30.1492 24.2426 30.2046 25.1554C30.2227 25.4544 30.2375 25.6991 30.2375 25.8938C30.2375 26.0231 30.2744 26.1104 30.3088 26.1653C30.3259 26.1928 30.3426 26.2123 30.3538 26.225C30.355 26.2264 30.3562 26.2277 30.3574 26.229C30.3613 26.2334 30.3646 26.2371 30.3666 26.2398C30.3673 26.2408 30.3681 26.2418 30.3687 26.2429C30.3692 26.2439 30.3701 26.2457 30.3704 26.248C30.3706 26.251 30.3696 26.2549 30.366 26.2574C30.3655 26.2578 30.3651 26.258 30.3646 26.2583C30.2802 26.3515 30.2055 26.398 30.1402 26.4144C30.0741 26.4309 30.0188 26.4161 29.9748 26.3892C29.9311 26.3625 29.8985 26.3238 29.877 26.2922C29.8663 26.2763 29.8582 26.2621 29.8528 26.2518C29.8501 26.2467 29.848 26.2425 29.8467 26.2396C29.846 26.2381 29.8454 26.237 29.8451 26.2362L29.8447 26.2353L29.8446 26.235L29.8445 26.235C29.8445 26.2349 29.8445 26.2349 29.8532 26.2312L29.8445 26.235L29.8438 26.2331L29.9189 20.7656ZM29.8626 26.2293C29.8628 26.2299 29.8632 26.2307 29.8636 26.2316C29.8649 26.2343 29.8668 26.2382 29.8694 26.2431C29.8745 26.2529 29.8822 26.2665 29.8925 26.2816C29.9132 26.3121 29.944 26.3484 29.9846 26.3732C30.025 26.3979 30.0751 26.4113 30.1356 26.3962C30.1956 26.3812 30.2667 26.3379 30.3489 26.2477C30.3475 26.2461 30.3459 26.2443 30.3439 26.2421C30.3427 26.2407 30.3413 26.2392 30.3398 26.2375C30.3282 26.2244 30.3108 26.204 30.2929 26.1753C30.2569 26.1177 30.2188 26.0269 30.2188 25.8938C30.2188 25.7001 30.204 25.4563 30.1859 25.158C30.1306 24.2469 30.0446 22.8283 30.2553 20.7844H29.9374L29.8626 26.2293Z" fill="black"/>
<path d="M29.404 26.2312C29.0852 26.3812 29.0477 26.0812 29.0665 26.0437C29.7602 24.6375 30.0602 21.5437 29.4227 21.2062L29.4602 20.9062C29.704 20.9813 29.929 21.3 29.929 21.3C30.0227 24.7687 29.929 26.1937 29.8727 26.25C29.5352 26.6062 29.404 26.1938 29.3852 26.1562" fill="#A36629"/>
<path fill-rule="evenodd" clip-rule="evenodd" d="M29.4461 20.8945L29.4567 20.8978C29.581 20.936 29.6995 21.0359 29.7865 21.1252C29.8301 21.17 29.866 21.2125 29.8911 21.2437C29.9036 21.2593 29.9134 21.2721 29.9201 21.2811C29.9234 21.2855 29.926 21.289 29.9277 21.2914L29.9297 21.2942L29.9302 21.2949L29.9303 21.295L29.932 21.2974L29.9321 21.3003C29.979 23.0348 29.979 24.2584 29.9602 25.0554C29.9508 25.454 29.9368 25.7459 29.9215 25.9419C29.9139 26.0398 29.906 26.1139 29.8981 26.1654C29.8942 26.1911 29.8903 26.2113 29.8865 26.2261C29.8845 26.2335 29.8826 26.2398 29.8805 26.2448C29.8786 26.2495 29.8763 26.254 29.8732 26.2571C29.7882 26.3468 29.715 26.3893 29.6522 26.4007C29.5889 26.4121 29.5376 26.3916 29.4972 26.3586C29.4572 26.3258 29.4278 26.2806 29.4073 26.2417C29.397 26.2222 29.3889 26.2042 29.3828 26.1899C29.3802 26.1838 29.3781 26.1785 29.3762 26.1741C29.3737 26.1679 29.3719 26.1635 29.3706 26.161L29.3874 26.1526C29.3889 26.1557 29.3912 26.1612 29.3941 26.1682C29.3959 26.1725 29.3979 26.1773 29.4001 26.1825C29.4061 26.1965 29.4139 26.2141 29.4239 26.233C29.4438 26.2709 29.4719 26.3136 29.5091 26.3441C29.5461 26.3743 29.5921 26.3925 29.6489 26.3822C29.7062 26.3719 29.776 26.3324 29.8597 26.2441L29.8598 26.2439C29.8602 26.2435 29.8615 26.2418 29.8632 26.2377C29.8648 26.2337 29.8665 26.2284 29.8683 26.2214C29.872 26.2075 29.8758 26.188 29.8796 26.1625C29.8873 26.1118 29.8952 26.0382 29.9028 25.9404C29.918 25.745 29.9321 25.4533 29.9415 25.055C29.9602 24.2588 29.9602 23.0364 29.9134 21.3037L29.9125 21.3024C29.9109 21.3001 29.9084 21.2967 29.9051 21.2923C29.8985 21.2835 29.8888 21.2709 29.8764 21.2554C29.8517 21.2245 29.8161 21.1826 29.773 21.1383C29.6891 21.0521 29.5776 20.9583 29.4619 20.9192L29.4266 21.2016C29.5063 21.2462 29.5706 21.3324 29.6213 21.4502C29.6732 21.5708 29.7112 21.7258 29.7366 21.906C29.7874 22.2664 29.788 22.7294 29.7469 23.2255C29.6648 24.2175 29.4162 25.3438 29.0686 26.0484C29.0673 26.0511 29.0658 26.0581 29.0656 26.0694C29.0655 26.0802 29.0666 26.0938 29.0694 26.1087C29.0751 26.1388 29.0875 26.1736 29.1098 26.2026C29.132 26.2314 29.164 26.2546 29.2093 26.2618C29.2549 26.269 29.3151 26.2603 29.3937 26.2233L29.4017 26.2403C29.321 26.2783 29.2569 26.2883 29.2064 26.2803C29.1557 26.2723 29.1197 26.2462 29.095 26.2141C29.0704 26.1821 29.0571 26.1443 29.051 26.1122C29.048 26.0962 29.0467 26.0813 29.0469 26.0691C29.047 26.0574 29.0485 26.0468 29.0518 26.0401C29.398 25.3385 29.6462 24.2148 29.7282 23.224C29.7692 22.7286 29.7686 22.2671 29.718 21.9086C29.6927 21.7293 29.655 21.5762 29.604 21.4576C29.553 21.3388 29.4891 21.2558 29.4121 21.2151L29.4064 21.212L29.4461 20.8945Z" fill="black"/>
<path fill-rule="evenodd" clip-rule="evenodd" d="M29.4414 25.873C29.3989 26.0001 29.3763 26.1022 29.3899 26.1745L29.3714 26.1779C29.3569 26.1003 29.3812 25.9938 29.4236 25.8671C29.4513 25.7844 29.4871 25.6921 29.5258 25.5923C29.5466 25.5387 29.5682 25.4829 29.5898 25.4253C29.714 25.0949 29.8399 24.7027 29.8213 24.3017L29.84 24.3008C29.8589 24.706 29.7317 25.1013 29.6074 25.4319C29.5856 25.4899 29.5638 25.546 29.543 25.5997C29.5044 25.6992 29.4689 25.7908 29.4414 25.873ZM30.4963 26.2316C30.5336 25.8397 30.459 25.4286 30.2906 24.9606L30.3082 24.9543C30.4772 25.4238 30.5527 25.8378 30.515 26.2334L30.4963 26.2316Z" fill="black"/>
<path d="M31.0305 19.5012C31.143 19.37 31.143 19.37 31.3493 19.37C31.3868 19.0887 31.8555 19.0887 31.893 19.445C32.268 19.37 32.343 19.595 32.193 19.82C32.5493 19.7262 32.868 19.82 32.7743 20.2325C33.4118 20.4012 33.168 20.8512 32.8868 20.945C32.8493 21.2262 32.5868 21.32 32.2305 21.2075C31.7805 21.5262 31.518 21.4137 31.3118 21.095C30.8055 21.17 30.768 21.0575 30.543 20.7762C30.1493 20.945 30.0743 20.945 29.7368 20.7387C29.718 21.0012 29.6243 20.9262 29.4555 20.9075C29.4743 21.245 29.343 21.395 29.043 21.2825C29.268 21.7512 28.6868 21.9575 28.4055 21.5637C28.143 21.5825 28.1243 21.5075 27.993 21.4137C27.8805 21.7887 27.468 21.7325 27.393 21.5262C26.868 21.4512 26.9243 21.17 27.3555 21.1512C27.393 20.8512 27.6555 20.9075 27.8243 20.945C27.843 20.7575 27.9555 20.795 28.0493 20.8325C27.993 20.7012 28.0305 20.6262 28.1993 20.5887C27.9555 20.27 28.1055 20.1575 28.3493 20.045C28.218 19.745 28.443 19.7637 28.6118 19.745C28.593 19.4262 28.6868 19.37 29.0243 19.3325C28.9868 19.22 29.043 19.1262 29.2305 19.1262C29.118 18.8075 29.268 18.7325 29.6055 18.7887C29.6618 18.32 30.6555 18.545 30.5805 19.1825C30.8618 19.22 30.9555 19.2762 31.0305 19.5012V19.5012Z" fill="#009A3B"/>
<path fill-rule="evenodd" clip-rule="evenodd" d="M29.7968 18.5733C29.6997 18.6071 29.6299 18.6783 29.6164 18.7914L29.6152 18.8012L29.6055 18.7996C29.5215 18.7856 29.4497 18.7798 29.3909 18.7838C29.3321 18.7879 29.2873 18.8017 29.2566 18.8258C29.2262 18.8497 29.2085 18.8845 29.2051 18.9333C29.2017 18.9825 29.213 19.0456 29.2409 19.1247L29.2453 19.1372H29.2321C29.1395 19.1372 29.0819 19.1604 29.0516 19.1949C29.0217 19.2291 29.0166 19.2768 29.0347 19.3311L29.0384 19.3421L29.0269 19.3434C28.9426 19.3527 28.8741 19.3632 28.8189 19.3785C28.7637 19.3939 28.7225 19.4138 28.6923 19.4417C28.6325 19.4972 28.6133 19.5868 28.6227 19.746L28.6232 19.7549L28.6144 19.7559C28.596 19.7579 28.577 19.7595 28.5579 19.7611C28.555 19.7614 28.552 19.7616 28.549 19.7619C28.527 19.7637 28.505 19.7657 28.4839 19.7685C28.4413 19.774 28.403 19.7826 28.3743 19.7992C28.346 19.8155 28.3269 19.8395 28.322 19.877C28.3171 19.9152 28.3269 19.9684 28.3594 20.0428L28.3631 20.0512L28.3547 20.0551C28.2939 20.0831 28.2395 20.111 28.1957 20.1418C28.1519 20.1727 28.1193 20.2061 28.1015 20.245C28.0663 20.322 28.0868 20.4258 28.2083 20.5846L28.2172 20.5963L28.2028 20.5995C28.119 20.6181 28.0709 20.6455 28.0495 20.6818C28.0284 20.7177 28.0317 20.7656 28.0594 20.8304L28.0683 20.8512L28.0473 20.8428C28.0239 20.8334 27.9998 20.8242 27.9765 20.8186C27.9532 20.8129 27.9313 20.8108 27.9122 20.8151C27.8935 20.8192 27.8768 20.8295 27.8635 20.8498C27.85 20.8703 27.8397 20.9014 27.8351 20.9475L27.8341 20.958L27.8238 20.9557C27.739 20.9369 27.6332 20.914 27.5441 20.9323C27.4999 20.9414 27.4603 20.9605 27.4294 20.995C27.3985 21.0296 27.3756 21.0803 27.3664 21.154L27.3654 21.1618L27.3575 21.1622C27.2505 21.1668 27.1676 21.1877 27.1115 21.2171C27.0551 21.2466 27.0276 21.2834 27.0266 21.3195C27.0256 21.3555 27.0508 21.3957 27.1114 21.4322C27.1718 21.4685 27.2653 21.4999 27.3959 21.5185L27.4015 21.5193L27.4034 21.5246C27.4391 21.6228 27.5563 21.687 27.68 21.6802C27.8025 21.6734 27.9305 21.5964 27.9856 21.4126L27.9894 21.4001L28 21.4077C28.0267 21.4267 28.0489 21.4451 28.0691 21.4619C28.074 21.4659 28.0787 21.4698 28.0834 21.4737C28.1076 21.4935 28.1299 21.5106 28.1559 21.5242C28.2077 21.5512 28.276 21.5653 28.4064 21.556L28.4116 21.5556L28.4147 21.5599C28.553 21.7535 28.7642 21.7986 28.9122 21.7394C28.9861 21.7098 29.0443 21.6543 29.0706 21.5781C29.0968 21.5018 29.0916 21.4036 29.0361 21.2881L29.026 21.2671L29.0479 21.2753C29.1966 21.3311 29.2998 21.3204 29.3638 21.2586C29.4287 21.1959 29.4571 21.0778 29.4477 20.9096L29.4471 20.8985L29.4581 20.8997C29.4885 20.9031 29.5167 20.9083 29.5422 20.9131C29.5523 20.9149 29.5619 20.9167 29.5711 20.9183C29.604 20.9238 29.6303 20.9264 29.6517 20.9211C29.672 20.916 29.6887 20.9034 29.7017 20.876C29.715 20.848 29.7243 20.8049 29.729 20.7396L29.7301 20.7243L29.7432 20.7323C29.9121 20.8355 30.0133 20.8857 30.1207 20.8903C30.2284 20.8949 30.3436 20.8537 30.5409 20.7692L30.5474 20.7664L30.5519 20.772C30.5706 20.7953 30.5879 20.8174 30.6043 20.8383C30.6375 20.8807 30.6667 20.918 30.6955 20.9506C30.7382 20.9991 30.7789 21.0363 30.8279 21.0625C30.9258 21.1149 31.059 21.1248 31.3119 21.0873L31.3179 21.0864L31.3212 21.0915C31.4238 21.25 31.5391 21.3552 31.683 21.3827C31.827 21.4101 32.0025 21.3602 32.2266 21.2014L32.2304 21.1987L32.2349 21.2001C32.4119 21.256 32.5642 21.2602 32.6763 21.2167C32.7878 21.1735 32.8607 21.0828 32.879 20.9453L32.8798 20.9395L32.8854 20.9377C33.0233 20.8917 33.1514 20.7583 33.1673 20.6174C33.1752 20.5474 33.1556 20.4751 33.095 20.4098C33.0342 20.3441 32.9318 20.285 32.7734 20.2431L32.7647 20.2408L32.7667 20.232C32.7899 20.13 32.7873 20.0486 32.7658 19.9854C32.7443 19.9224 32.7037 19.8767 32.6493 19.8461C32.54 19.7846 32.3742 19.784 32.197 19.8306L32.1731 19.8369L32.1868 19.8164C32.261 19.705 32.2774 19.5968 32.2335 19.5265C32.1899 19.4567 32.0829 19.4185 31.8964 19.4558L31.8863 19.4578L31.8852 19.4475C31.867 19.2744 31.7445 19.1884 31.622 19.1793C31.4989 19.1702 31.378 19.2384 31.3601 19.3728L31.359 19.3809H31.3508C31.2991 19.3809 31.2608 19.3809 31.2304 19.383C31.2001 19.385 31.1784 19.389 31.1599 19.3966C31.1226 19.412 31.096 19.4426 31.0392 19.5089L31.0321 19.5028L31.0232 19.5058C30.9859 19.3941 30.9446 19.326 30.8791 19.2808C30.8131 19.2353 30.7214 19.2121 30.5808 19.1934L30.5717 19.1921L30.5728 19.183C30.6095 18.8703 30.3845 18.6578 30.141 18.5813C30.0193 18.543 29.8943 18.5392 29.7968 18.5733ZM31.0356 19.4842C31.0846 19.4272 31.1131 19.3956 31.1527 19.3793C31.174 19.3705 31.198 19.3663 31.2292 19.3643C31.2587 19.3623 31.2953 19.3622 31.3427 19.3622C31.366 19.2207 31.4958 19.1512 31.6234 19.1606C31.7516 19.1701 31.8797 19.2591 31.9027 19.4354C32.0854 19.401 32.2002 19.4378 32.2494 19.5166C32.2963 19.5916 32.2803 19.6995 32.2152 19.8067C32.3858 19.7655 32.5478 19.7675 32.6585 19.8298C32.7167 19.8625 32.7605 19.9117 32.7835 19.9794C32.8059 20.0449 32.8085 20.1271 32.7869 20.2273C32.9424 20.2697 33.0459 20.3291 33.1088 20.397C33.173 20.4664 33.1944 20.5441 33.1859 20.6195C33.1692 20.7673 33.038 20.9041 32.8968 20.9536C32.8764 21.0942 32.7998 21.189 32.6831 21.2342C32.5665 21.2794 32.4111 21.2747 32.2337 21.2194C32.0096 21.3773 31.83 21.4297 31.6795 21.4011C31.5298 21.3726 31.4116 21.2642 31.3087 21.1067C31.0592 21.1432 30.9219 21.1341 30.8191 21.079C30.7673 21.0513 30.7248 21.0123 30.6814 20.963C30.6523 20.93 30.6225 20.8919 30.5891 20.8493C30.5741 20.8302 30.5584 20.8102 30.5417 20.7892C30.3491 20.8716 30.2313 20.9138 30.1199 20.9091C30.01 20.9044 29.9075 20.854 29.7465 20.7562C29.7414 20.8141 29.7323 20.8553 29.7187 20.8841C29.7036 20.9159 29.6827 20.9326 29.6562 20.9392C29.6307 20.9456 29.6008 20.9423 29.568 20.9368C29.5583 20.9351 29.5483 20.9333 29.538 20.9314C29.516 20.9273 29.4925 20.9229 29.467 20.9197C29.4746 21.0834 29.4464 21.2049 29.3769 21.2721C29.3084 21.3382 29.203 21.3487 29.0624 21.3004C29.1107 21.4107 29.1149 21.5069 29.0883 21.5842C29.0601 21.6662 28.9975 21.7255 28.9191 21.7568C28.7636 21.819 28.5455 21.7715 28.4025 21.575C28.2737 21.5837 28.2026 21.5697 28.1473 21.5408C28.1194 21.5263 28.0959 21.5082 28.0715 21.4882C28.0667 21.4842 28.0619 21.4802 28.0569 21.4761C28.0395 21.4617 28.0211 21.4465 27.9996 21.4306C27.9402 21.6128 27.8087 21.6918 27.681 21.6989C27.5537 21.706 27.4292 21.6412 27.3878 21.5363C27.2586 21.5174 27.1641 21.4858 27.1017 21.4482C27.0387 21.4103 27.0065 21.365 27.0079 21.3189C27.0092 21.273 27.0438 21.2313 27.1028 21.2005C27.1607 21.1702 27.2438 21.1492 27.3488 21.1438C27.359 21.0715 27.3825 21.0193 27.4154 20.9825C27.4496 20.9443 27.4931 20.9236 27.5403 20.9139C27.6303 20.8955 27.7352 20.9169 27.8177 20.9351C27.8229 20.8928 27.8333 20.8617 27.8479 20.8395C27.8639 20.8151 27.8847 20.802 27.9082 20.7968C27.9312 20.7917 27.9563 20.7943 27.981 20.8003C27.9987 20.8047 28.0167 20.8108 28.0341 20.8174C28.0128 20.76 28.0103 20.7115 28.0334 20.6723C28.0574 20.6313 28.1077 20.6033 28.1846 20.5845C28.0698 20.4307 28.0456 20.3222 28.0845 20.2372C28.1042 20.1941 28.1396 20.1583 28.1849 20.1265C28.2281 20.0961 28.2808 20.0688 28.3386 20.0419C28.3083 19.9704 28.298 19.9161 28.3034 19.8746C28.3091 19.8306 28.3322 19.8018 28.3649 19.783C28.397 19.7644 28.4384 19.7555 28.4814 19.7499C28.5031 19.747 28.5254 19.7451 28.5474 19.7432C28.5504 19.7429 28.5534 19.7427 28.5564 19.7424C28.5724 19.7411 28.5881 19.7398 28.6035 19.7382C28.5953 19.5839 28.6142 19.4885 28.6796 19.428C28.7128 19.3973 28.7571 19.3762 28.8138 19.3605C28.868 19.3454 28.9341 19.3351 29.0135 19.326C28.9982 19.2718 29.0041 19.2208 29.0375 19.1826C29.0712 19.144 29.1312 19.1207 29.219 19.1186C29.1937 19.0439 29.1829 18.9821 29.1864 18.932C29.19 18.8789 29.2098 18.8388 29.245 18.8111C29.2799 18.7836 29.3289 18.7693 29.3896 18.7651C29.4481 18.7611 29.5183 18.7665 29.5991 18.7795C29.6164 18.6639 29.6906 18.5905 29.7906 18.5556C29.8929 18.5199 30.0222 18.5243 30.1466 18.5634C30.3929 18.6408 30.6252 18.8562 30.5924 19.176C30.7281 19.1946 30.8213 19.2182 30.8897 19.2654C30.9569 19.3117 30.9991 19.3798 31.0356 19.4842Z" fill="black"/>
<path fill-rule="evenodd" clip-rule="evenodd" d="M30.4934 19.2425C30.5297 19.2221 30.5596 19.2019 30.577 19.1758L30.5926 19.1862C30.5725 19.2163 30.539 19.2383 30.5026 19.2589C30.4919 19.2649 30.4809 19.2709 30.4698 19.2769C30.4426 19.2915 30.4148 19.3066 30.3885 19.3246C30.3518 19.3499 30.3191 19.3805 30.2978 19.4225C30.2765 19.4645 30.2661 19.5188 30.2753 19.5923L30.2584 19.5989C30.2129 19.5352 30.1448 19.4946 30.0796 19.4856C30.0147 19.4766 29.9532 19.4989 29.9179 19.5606L29.9016 19.5513C29.9413 19.4818 30.0111 19.4572 30.0821 19.467C30.1437 19.4755 30.2067 19.5098 30.2538 19.5631C30.2504 19.5019 30.2611 19.4534 30.2811 19.414C30.3043 19.3682 30.3396 19.3355 30.3779 19.3092C30.4051 19.2905 30.4343 19.2747 30.4618 19.2598C30.4727 19.254 30.4833 19.2482 30.4934 19.2425ZM29.0803 19.358C29.0622 19.3535 29.0427 19.3486 29.0243 19.3394L29.0327 19.3226C29.0492 19.3309 29.0667 19.3353 29.0853 19.34C29.0865 19.3403 29.0878 19.3406 29.0891 19.3409C29.1087 19.3459 29.1293 19.3514 29.1482 19.3628C29.1835 19.384 29.2104 19.4237 29.2222 19.5089C29.2561 19.456 29.2921 19.422 29.328 19.4051C29.3696 19.3856 29.4106 19.3893 29.4461 19.4122C29.4811 19.4347 29.5103 19.4753 29.5306 19.5286C29.551 19.582 29.5629 19.6488 29.5629 19.7247H29.5441C29.5441 19.6507 29.5325 19.5862 29.5131 19.5353C29.4936 19.4843 29.4665 19.4476 29.4359 19.4279C29.4058 19.4086 29.3717 19.4053 29.336 19.4221C29.2998 19.4391 29.2611 19.4771 29.2241 19.5419L29.2094 19.5677L29.2067 19.5381C29.1974 19.4362 29.1699 19.3977 29.1385 19.3789C29.1223 19.3691 29.1042 19.3641 29.0845 19.3591C29.0831 19.3588 29.0817 19.3584 29.0803 19.358ZM31.0068 19.6903C31.0207 19.6111 31.0254 19.5367 31.0254 19.4997H31.0441C31.0441 19.5378 31.0394 19.6133 31.0252 19.6935C31.0111 19.7735 30.9874 19.8595 30.9488 19.9174L30.9332 19.907C30.9696 19.8525 30.9928 19.7697 31.0068 19.6903ZM32.1888 19.8204C32.1889 19.8233 32.1904 19.8249 32.1906 19.8251L32.2039 19.8119C32.2052 19.8132 32.2074 19.8159 32.2075 19.8199C32.2076 19.8242 32.2053 19.8272 32.2035 19.8287C32.2018 19.8302 32.1999 19.8311 32.1984 19.8316C32.1968 19.8322 32.1951 19.8327 32.1933 19.8332C32.1864 19.8348 32.1757 19.836 32.1629 19.8372C32.1545 19.838 32.1449 19.8387 32.1344 19.8396C32.1124 19.8413 32.0862 19.8434 32.0577 19.8465C31.9732 19.8559 31.8724 19.8746 31.809 19.9199L31.7981 19.9046C31.8659 19.8562 31.9713 19.8373 32.0556 19.8279C32.0844 19.8247 32.1112 19.8226 32.1334 19.8208C32.1438 19.82 32.1532 19.8193 32.1612 19.8185C32.1742 19.8173 32.1835 19.8162 32.1889 19.8149C32.1902 19.8146 32.1911 19.8143 32.1916 19.8142C32.1922 19.8139 32.1919 19.8139 32.1912 19.8145C32.1905 19.8151 32.1887 19.8171 32.1888 19.8204ZM29.1789 20.0267C29.1141 20.0468 29.0266 20.1148 28.9239 20.2736L28.9133 20.29L28.9071 20.2714C28.8935 20.2308 28.8734 20.2031 28.8498 20.1841C28.8261 20.1651 28.7983 20.1544 28.7689 20.1488C28.7395 20.1431 28.7086 20.1425 28.679 20.1434C28.6668 20.1437 28.6545 20.1444 28.6427 20.145C28.6264 20.1458 28.6108 20.1466 28.5973 20.1466V20.1279C28.6106 20.1279 28.6251 20.1271 28.6408 20.1263C28.6527 20.1257 28.6652 20.125 28.6784 20.1246C28.7086 20.1238 28.741 20.1243 28.7725 20.1304C28.804 20.1364 28.8348 20.1481 28.8615 20.1695C28.8845 20.1879 28.904 20.2133 28.9183 20.2479C29.0176 20.0986 29.1046 20.0301 29.1734 20.0087C29.2454 19.9864 29.2972 20.0161 29.3181 20.058L29.3014 20.0664C29.2848 20.0333 29.2428 20.0068 29.1789 20.0267ZM29.9611 20.0913C29.8589 20.0286 29.759 20.0069 29.688 20.0335L29.6815 20.016C29.7605 19.9863 29.8668 20.0115 29.9709 20.0753C30.0709 20.1367 30.1707 20.2349 30.2455 20.3594C30.2825 20.2675 30.3284 20.2269 30.38 20.2081C30.407 20.1983 30.4349 20.1947 30.4627 20.1923C30.47 20.1917 30.4772 20.1912 30.4845 20.1907C30.505 20.1891 30.5253 20.1876 30.5457 20.1842L30.5488 20.2027C30.5274 20.2063 30.5059 20.2079 30.4851 20.2094C30.4781 20.2099 30.4711 20.2104 30.4643 20.211C30.4369 20.2134 30.411 20.2168 30.3864 20.2257C30.3382 20.2433 30.2929 20.2828 30.2561 20.3842L30.2492 20.4032L30.2391 20.3856C30.1649 20.2557 30.0628 20.1537 29.9611 20.0913ZM31.552 20.4145C31.4769 20.362 31.3819 20.3349 31.2637 20.3895L31.2558 20.3725C31.3813 20.3146 31.4833 20.3437 31.5628 20.3991C31.6304 20.4462 31.6822 20.5127 31.7189 20.5599C31.7222 20.5641 31.7253 20.5681 31.7284 20.572C31.7826 20.5022 31.8333 20.4659 31.8847 20.4472C31.9378 20.4279 31.9908 20.4279 32.0465 20.4279H32.0473V20.4466C31.9907 20.4466 31.9408 20.4467 31.8911 20.4648C31.8417 20.4828 31.7915 20.5189 31.736 20.5929L31.7287 20.6025L31.7212 20.5931C31.7158 20.5863 31.71 20.5789 31.7038 20.571C31.667 20.5238 31.6171 20.4598 31.552 20.4145ZM30.5326 20.7178C30.5353 20.7386 30.5379 20.7583 30.5379 20.7747H30.5191C30.5191 20.7597 30.5168 20.7414 30.5141 20.7206C30.5135 20.7166 30.513 20.7124 30.5125 20.7082C30.5092 20.6827 30.5062 20.6545 30.5074 20.6267C30.5086 20.5988 30.5141 20.5708 30.5283 20.546C30.5425 20.5209 30.5653 20.4997 30.5998 20.4849L30.6072 20.5021C30.5761 20.5154 30.5567 20.534 30.5446 20.5553C30.5324 20.5767 30.5273 20.6014 30.5262 20.6275C30.525 20.6536 30.5278 20.6804 30.5311 20.7059C30.5316 20.7099 30.5321 20.7139 30.5326 20.7178ZM28.3954 20.5474C28.3259 20.5451 28.2636 20.5592 28.2289 20.5939L28.2156 20.5806C28.2559 20.5403 28.3249 20.5263 28.396 20.5286C28.4676 20.531 28.5439 20.5501 28.6014 20.5788L28.5931 20.5956C28.5381 20.5681 28.4644 20.5497 28.3954 20.5474ZM29.3281 20.6009C29.2954 20.6336 29.2724 20.6915 29.2816 20.7737L29.2837 20.7925L29.2674 20.7828C29.1771 20.7286 29.0521 20.7474 28.999 20.8358L28.983 20.8262C29.0393 20.7322 29.1657 20.7106 29.2614 20.7581C29.2567 20.6805 29.2799 20.6226 29.3148 20.5876C29.3523 20.5502 29.4035 20.5392 29.4452 20.5601L29.4368 20.5769C29.4036 20.5602 29.3609 20.5681 29.3281 20.6009ZM32.5627 20.9363C32.5619 20.8967 32.5577 20.8403 32.5364 20.7898C32.523 20.7582 32.5027 20.7285 32.4719 20.7067C32.4411 20.6849 32.4004 20.6716 32.3473 20.6716V20.6904C32.3972 20.6904 32.4339 20.7028 32.4611 20.722C32.4883 20.7413 32.5067 20.7679 32.5191 20.7971C32.544 20.8561 32.5441 20.9245 32.5441 20.9622V20.9904L32.561 20.9679C32.5882 20.9316 32.6173 20.9105 32.6465 20.8995C32.6757 20.8885 32.7056 20.8873 32.7349 20.8918C32.7854 20.8996 32.8325 20.9239 32.869 20.9428C32.8753 20.946 32.8812 20.9491 32.8868 20.9519L32.8952 20.9351C32.8899 20.9325 32.8842 20.9295 32.8782 20.9264C32.8418 20.9076 32.7915 20.8816 32.7377 20.8733C32.7061 20.8684 32.6727 20.8696 32.6398 20.882C32.6131 20.8921 32.5871 20.9094 32.5627 20.9363ZM31.5055 20.8969C31.5429 20.8953 31.5825 20.9067 31.6216 20.936L31.6104 20.951C31.5745 20.9241 31.5391 20.9143 31.5062 20.9156C31.4733 20.917 31.4422 20.9297 31.4152 20.9488C31.3882 20.9679 31.3656 20.9933 31.3498 21.0195C31.334 21.0459 31.3254 21.0723 31.3254 21.0935H31.3066C31.3066 21.0678 31.3168 21.038 31.3338 21.0098C31.3508 20.9816 31.3751 20.9542 31.4043 20.9335C31.4336 20.9128 31.4681 20.8985 31.5055 20.8969ZM32.2203 21.0039C32.2347 21.0497 32.2441 21.1117 32.2441 21.206H32.2254C32.2254 21.1128 32.2161 21.0529 32.2024 21.0096C32.1887 20.9664 32.1706 20.9392 32.152 20.9112L32.1676 20.9008L32.1677 20.9009C32.1864 20.9291 32.2058 20.9581 32.2203 21.0039ZM28.5486 21.2687C28.5359 21.1951 28.4884 21.127 28.4177 21.1011C28.3428 21.0736 28.2453 21.0947 28.1406 21.1994L28.1539 21.2126C28.2554 21.111 28.3455 21.0946 28.4112 21.1187C28.4776 21.143 28.5227 21.2099 28.5317 21.2821L28.5317 21.2821L28.5318 21.2828C28.536 21.3037 28.5319 21.3189 28.5228 21.3331C28.5147 21.3459 28.5027 21.3577 28.4882 21.3722C28.4857 21.3746 28.4831 21.3772 28.4805 21.3798C28.4447 21.4156 28.4011 21.4641 28.3818 21.5604L28.4002 21.5641C28.4184 21.4729 28.4592 21.4276 28.4937 21.3931C28.4962 21.3906 28.4987 21.3882 28.5011 21.3857C28.5156 21.3714 28.5293 21.3579 28.5387 21.3431C28.5489 21.3271 28.5542 21.3095 28.5515 21.2874C28.604 21.2712 28.6558 21.2674 28.699 21.2738C28.7446 21.2807 28.779 21.2987 28.7957 21.3237L28.8113 21.3133C28.7905 21.282 28.7499 21.2625 28.7018 21.2553C28.6563 21.2485 28.6026 21.2524 28.5486 21.2687Z" fill="black"/>
<path d="M29.7562 16.9227L29.3438 16.9414L29.1375 17.3164L28.9125 16.9602L28.5 16.9789L28.6875 16.6039L28.4625 16.257L28.8938 16.2383L29.0813 15.8633L29.3063 16.2195L29.7188 16.2008L29.5312 16.5758L29.7562 16.9227ZM27.9938 17.0633L27.5813 17.157L27.4688 17.5602L27.1687 17.2602L26.775 17.3539L26.8875 16.9602L26.6062 16.6602L27 16.557L27.1125 16.1539L27.4125 16.4539L27.825 16.3602L27.6937 16.7633L27.9938 17.0633ZM26.2875 17.4102L25.9125 17.5977L25.8938 18.0102L25.5375 17.7852L25.1625 17.9727L25.2 17.5508L24.8438 17.3258L25.2188 17.1383L25.2562 16.7164L25.5938 16.9508L25.9688 16.7633L25.95 17.1758L26.2875 17.4102ZM30.3 16.9227L30.7125 16.9414L30.9 17.3164L31.125 16.9602L31.5375 16.9789L31.35 16.6039L31.575 16.257L31.1625 16.2383L30.9563 15.8633L30.7312 16.2195L30.3187 16.2008L30.5062 16.5758L30.3 16.9227ZM32.0625 17.0633L32.4563 17.157L32.5687 17.5602L32.8688 17.2602L33.2625 17.3539L33.15 16.9602L33.45 16.6602L33.0375 16.557L32.925 16.1539L32.625 16.4539L32.2312 16.3602L32.3438 16.7633L32.0625 17.0633ZM33.75 17.4102L34.125 17.5977L34.1438 18.0102L34.5 17.7852L34.875 17.9727L34.8562 17.5508L35.1937 17.3258L34.8187 17.1383L34.8 16.7164L34.4437 16.9508L34.0687 16.7633L34.1062 17.1758L33.75 17.4102Z" fill="#FFD700"/>
<path fill-rule="evenodd" clip-rule="evenodd" d="M29.0743 15.7969L29.3202 16.1862L29.7695 16.1658L29.5654 16.574L29.8113 16.9531L29.36 16.9737L29.1359 17.3813L28.8913 16.9941L28.4421 17.0145L28.6462 16.6063L28.4001 16.2271L28.8694 16.2066L29.0743 15.7969ZM30.9546 15.7991L31.1788 16.2066L31.6301 16.2272L31.3841 16.6063L31.5882 17.0145L31.139 16.9941L30.8931 17.3834L30.6882 16.9736L30.2402 16.9533L30.4653 16.5747L30.2608 16.1658L30.7101 16.1862L30.9546 15.7991ZM30.9507 15.9281L30.7452 16.2535L30.3695 16.2364L30.54 16.5775L30.3526 16.8927L30.7296 16.9098L30.8997 17.25L31.1038 16.9268L31.4796 16.9439L31.3087 16.6021L31.5127 16.2875L31.139 16.2705L30.9507 15.9281ZM29.081 15.9303L29.2851 16.2535L29.6608 16.2364L29.4899 16.5782L29.694 16.8928L29.3203 16.9098L29.1319 17.2522L28.9265 16.9268L28.5507 16.9439L28.7216 16.6021L28.5177 16.2876L28.9109 16.2705L29.081 15.9303ZM27.0924 16.0913L27.4193 16.4182L27.8705 16.3157L27.7276 16.7546L28.0554 17.0824L27.604 17.185L27.4817 17.6234L27.1549 17.2966L26.7244 17.3991L26.8472 16.9693L26.541 16.6427L26.9699 16.5304L27.0924 16.0913ZM32.9379 16.0913L33.0604 16.5301L33.5106 16.6427L33.1833 16.97L33.3059 17.3991L32.8754 17.2966L32.5486 17.6234L32.4262 17.1848L31.9963 17.0824L32.3036 16.7546L32.1811 16.3156L32.6112 16.418L32.9379 16.0913ZM32.9049 16.2171L32.6316 16.4904L32.2742 16.4053L32.3767 16.7726L32.1215 17.0448L32.4791 17.1299L32.5817 17.4976L32.8549 17.2243L33.2119 17.3093L33.1095 16.9509L33.3822 16.6782L33.0074 16.5845L32.9049 16.2171ZM27.1254 16.2171L27.0229 16.5843L26.6643 16.6782L26.9206 16.9516L26.8184 17.3093L27.1754 17.2243L27.4486 17.4976L27.5513 17.1297L27.9249 17.0448L27.6527 16.7726L27.7723 16.4053L27.3985 16.4902L27.1254 16.2171ZM25.225 16.6575L25.5929 16.913L26.0005 16.7092L25.98 17.1595L26.3481 17.4151L25.9408 17.6187L25.9204 18.0684L25.532 17.8231L25.121 18.0286L25.1619 17.5681L24.7734 17.3228L25.1841 17.1174L25.225 16.6575ZM34.8266 16.6576L34.8471 17.1179L35.2554 17.322L34.8863 17.5681L34.9067 18.0273L34.4983 17.8231L34.1099 18.0684L34.0895 17.6187L33.6808 17.4143L34.0682 17.1595L34.0271 16.7079L34.4379 16.9133L34.8266 16.6576ZM34.7662 16.7759L34.4424 16.9889L34.1032 16.8193L34.1371 17.1927L33.812 17.4066L34.1533 17.5772L34.1704 17.9526L34.4945 17.7478L34.8361 17.9187L34.819 17.5341L35.1249 17.3302L34.7832 17.1593L34.7662 16.7759ZM25.2803 16.7759L25.2462 17.1597L24.9069 17.3294L25.2309 17.534L25.1968 17.9173L25.5358 17.7478L25.8599 17.9526L25.877 17.5772L26.2197 17.4059L25.9128 17.1927L25.9298 16.8179L25.5874 16.9891L25.2803 16.7759Z" fill="black"/>
<path d="M34.2594 25.35L34.7281 26.025L35.1594 25.3875L34.8594 24.8438L34.2594 25.35ZM31.2781 27.3187L31.3156 27.9938C31.3156 27.9938 31.5031 27.9938 31.6719 27.9375C31.8219 27.8812 31.9531 27.7688 31.9531 27.7688L31.9344 27.4125L31.2781 27.3187ZM28.7656 27.3187L28.7281 27.975C28.7281 27.975 28.5594 27.975 28.3906 27.9375C28.2406 27.9 28.1094 27.8063 28.1094 27.8063L27.9219 27.3562L28.7656 27.3187ZM25.7469 25.35L25.2594 26.025L24.7344 25.1625L25.1281 24.75L25.7469 25.35Z" fill="white"/>
<path fill-rule="evenodd" clip-rule="evenodd" d="M25.1215 24.7031L25.7843 25.3459L25.2513 26.084L24.6875 25.1578L25.1215 24.7031ZM25.1233 24.7963L24.7697 25.1666L25.256 25.9654L25.6979 25.3535L25.1233 24.7963ZM34.863 24.7926L35.1921 25.3889L34.7227 26.0827L34.2096 25.3439L34.863 24.7926ZM34.2976 25.3555L34.722 25.9667L35.1152 25.3855L34.8442 24.8943L34.2976 25.3555ZM31.2374 27.2803L31.96 27.3835L31.981 27.7829L31.9687 27.7934L31.9474 27.7685C31.9687 27.7934 31.9687 27.7934 31.9687 27.7934L31.9686 27.7935L31.9682 27.7938L31.967 27.7949C31.9659 27.7958 31.9643 27.7971 31.9623 27.7988C31.9582 27.8021 31.9523 27.8069 31.9447 27.8128C31.9296 27.8246 31.9079 27.8408 31.8815 27.8588C31.8288 27.8948 31.7561 27.9385 31.6776 27.9679L31.6765 27.9684C31.589 27.9975 31.4973 28.0119 31.4281 28.0191C31.3934 28.0227 31.364 28.0245 31.3432 28.0254C31.3328 28.0258 31.3246 28.026 31.3189 28.0262C31.3161 28.0262 31.3139 28.0262 31.3123 28.0263L31.3106 28.0263L31.3101 28.0263H31.3099C31.3099 28.0263 31.3099 28.0263 31.3099 27.9935L31.3099 28.0263L31.2788 28.0263L31.2374 27.2803ZM31.3409 27.9598C31.3605 27.9589 31.3884 27.9572 31.4213 27.9538C31.4879 27.9469 31.5741 27.9332 31.6552 27.9063C31.7265 27.8794 31.7942 27.8389 31.8445 27.8046C31.8696 27.7875 31.8901 27.7721 31.9043 27.761C31.9079 27.7583 31.911 27.7558 31.9137 27.7536L31.8973 27.4409L31.3074 27.3566L31.3409 27.9598ZM28.7947 27.2841L28.7534 28.0075H28.7224H28.7222L28.7218 28.0075L28.7202 28.0075L28.7143 28.0074C28.7092 28.0074 28.7018 28.0072 28.6923 28.0069C28.6735 28.0063 28.6466 28.0051 28.6145 28.0027C28.5503 27.998 28.4642 27.9884 28.3778 27.9692L28.3769 27.969C28.2982 27.9494 28.2252 27.9152 28.1723 27.8863C28.1457 27.8718 28.124 27.8585 28.1088 27.8488C28.1012 27.844 28.0952 27.84 28.0911 27.8372C28.0891 27.8358 28.0875 27.8347 28.0864 27.8339L28.0851 27.833L28.0846 27.8327C28.0846 27.8327 28.0845 27.8327 28.1036 27.806L28.0846 27.8327L28.0769 27.8272L27.8678 27.3253L28.7947 27.2841ZM28.1302 27.7844C28.1337 27.7868 28.1384 27.7899 28.1442 27.7936C28.1583 27.8026 28.1787 27.8151 28.2037 27.8287C28.2539 27.8561 28.3213 27.8874 28.3924 27.9053C28.4746 27.9235 28.5571 27.9327 28.6193 27.9373C28.6488 27.9395 28.6735 27.9406 28.6914 27.9412L28.725 27.3528L27.9645 27.3866L28.1302 27.7844Z" fill="black"/>
<path d="M28.0859 28.6695C28.0859 29.307 31.9484 29.307 31.9484 28.6695V27.7695C31.9484 28.2383 28.0859 28.1445 28.0859 27.7695V28.6695Z" fill="white"/>
<path fill-rule="evenodd" clip-rule="evenodd" d="M31.8849 27.8263C31.9089 27.8051 31.9172 27.7863 31.9172 27.7695H31.9828V28.6695C31.9828 28.7678 31.9085 28.846 31.8002 28.9073C31.6904 28.9694 31.5359 29.02 31.3535 29.0602C30.9883 29.1405 30.5029 29.1805 30.0187 29.1805C29.5346 29.1805 29.0492 29.1405 28.684 29.0602C28.5016 29.02 28.3471 28.9694 28.2373 28.9073C28.129 28.846 28.0547 28.7678 28.0547 28.6695V27.7695H28.1203C28.1203 27.7776 28.1255 27.7915 28.1505 27.8102C28.175 27.8285 28.2129 27.8472 28.2645 27.8655C28.3671 27.902 28.5155 27.9342 28.6959 27.9612C29.056 28.0151 29.5373 28.0473 30.0191 28.0531C30.5011 28.059 30.9821 28.0385 31.3419 27.9875C31.5221 27.962 31.67 27.9291 31.772 27.889C31.8231 27.8688 31.8607 27.8477 31.8849 27.8263ZM31.9172 27.8848C31.8859 27.9094 31.8445 27.9309 31.796 27.95C31.6868 27.993 31.533 28.0268 31.3511 28.0525C30.9867 28.1041 30.502 28.1246 30.0184 28.1187C29.5346 28.1129 29.0502 28.0806 28.6862 28.0261C28.5044 27.9989 28.3511 27.9659 28.2425 27.9273C28.1933 27.9099 28.1516 27.8907 28.1203 27.8693V28.6695C28.1203 28.7307 28.1667 28.7919 28.2696 28.8502C28.3711 28.9076 28.5183 28.9565 28.6981 28.9961C29.0571 29.0751 29.5373 29.1148 30.0187 29.1148C30.5002 29.1148 30.9804 29.0751 31.3394 28.9961C31.5192 28.9565 31.6664 28.9076 31.7679 28.8502C31.8708 28.7919 31.9172 28.7307 31.9172 28.6695V27.8848Z" fill="black"/>
<path d="M24.6406 26.5875C24.9781 28.3125 28.0906 28.35 28.0906 28.35V27.7688C28.0156 27.5438 28.1469 27.4688 28.6531 27.3938C28.8594 27.375 28.7656 27.075 28.7656 27.075C28.7656 27.075 27.4156 27.3187 26.4594 26.9437C25.1656 26.4187 24.9781 25.4062 24.9781 25.4062C24.9781 25.4062 24.8844 26.1938 24.6406 26.5875V26.5875ZM35.3844 26.5875C35.0656 28.3125 31.9531 28.35 31.9531 28.35V27.7688C32.0094 27.5438 31.8781 27.4688 31.3719 27.3938C31.1656 27.375 31.2781 27.075 31.2781 27.075C31.2781 27.075 32.6281 27.3187 33.5844 26.9437C34.8594 26.4187 35.0094 25.4062 35.0094 25.4062C35.0094 25.4062 35.1406 26.1938 35.3844 26.5875V26.5875Z" fill="white"/>
<path fill-rule="evenodd" clip-rule="evenodd" d="M25.2542 25.9583C25.4595 26.272 25.8247 26.6517 26.4647 26.9115C26.9366 27.0965 27.5078 27.1294 27.9632 27.1154C28.1906 27.1084 28.3882 27.0897 28.529 27.0728C28.5993 27.0644 28.6555 27.0564 28.6939 27.0505C28.7132 27.0475 28.728 27.0451 28.738 27.0435C28.7406 27.043 28.7428 27.0426 28.7448 27.0423C28.7465 27.042 28.748 27.0418 28.7492 27.0415L28.7521 27.0411L28.7527 27.0409L28.7529 27.0409L28.7588 27.0732C28.7901 27.0634 28.7901 27.0634 28.7901 27.0634L28.7902 27.0638L28.7904 27.0646L28.7913 27.0674C28.792 27.0699 28.793 27.0734 28.7941 27.0778C28.7964 27.0866 28.7995 27.0991 28.8024 27.114C28.8082 27.1438 28.8139 27.1845 28.8127 27.2265C28.8114 27.2681 28.8032 27.3143 28.7783 27.3522C28.7524 27.3917 28.7106 27.4188 28.6502 27.4245C28.5244 27.4432 28.4229 27.4617 28.3424 27.4823C28.2614 27.5031 28.2038 27.5255 28.1649 27.5507C28.1268 27.5754 28.108 27.6018 28.1007 27.6317C28.0931 27.6629 28.097 27.7029 28.1149 27.7566L28.1166 27.7616V28.3814L28.0834 28.381L28.0838 28.3482C28.0834 28.381 28.0834 28.381 28.0834 28.381L28.0832 28.381L28.0827 28.381L28.081 28.381L28.0741 28.3808C28.0681 28.3807 28.0593 28.3805 28.0477 28.3801C28.0246 28.3794 27.9908 28.3782 27.9477 28.376C27.8614 28.3716 27.738 28.3633 27.5888 28.348C27.2906 28.3174 26.8891 28.2586 26.4766 28.1455C25.6555 27.9202 24.7743 27.475 24.6016 26.592L24.6338 26.5857L24.6059 26.5684C24.7246 26.3766 24.808 26.0861 24.8619 25.8404C24.8887 25.7181 24.9079 25.608 24.9204 25.5285C24.9267 25.4888 24.9312 25.4567 24.9342 25.4346C24.9358 25.4236 24.9369 25.415 24.9376 25.4092L24.9384 25.4027L24.9386 25.4011L24.9387 25.4006L25.0034 25.3985C25.0035 25.3984 25.0035 25.3984 25.0035 25.3984L25.0036 25.3989L25.004 25.4008C25.0043 25.4025 25.0049 25.4052 25.0057 25.4088C25.0073 25.4159 25.0098 25.4266 25.0136 25.4405C25.021 25.4683 25.0331 25.509 25.0516 25.5596C25.0886 25.6607 25.1515 25.8013 25.2542 25.9583ZM24.9819 25.5596C24.9692 25.6379 24.9508 25.741 24.926 25.8544C24.873 26.0964 24.7898 26.3901 24.6685 26.5918C24.839 27.4257 25.6786 27.8585 26.494 28.0822C26.9019 28.194 27.2996 28.2524 27.5955 28.2827C27.7434 28.2979 27.8658 28.3061 27.951 28.3104C27.9937 28.3126 28.0271 28.3139 28.0497 28.3145C28.0501 28.3146 28.0505 28.3146 28.051 28.3146V27.7722C28.0326 27.7153 28.0255 27.6633 28.0369 27.6162C28.049 27.5664 28.0805 27.5272 28.1292 27.4957C28.177 27.4647 28.2425 27.4402 28.3261 27.4187C28.4101 27.3972 28.5145 27.3783 28.6415 27.3595L28.6424 27.3593L28.6433 27.3593C28.6855 27.3554 28.7091 27.3381 28.7234 27.3162C28.7389 27.2926 28.746 27.2603 28.7471 27.2245C28.7481 27.1892 28.7433 27.1537 28.738 27.1267C28.7368 27.1208 28.7357 27.1154 28.7346 27.1105C28.726 27.1119 28.7158 27.1135 28.7039 27.1154C28.6648 27.1213 28.6079 27.1294 28.5368 27.138C28.3946 27.1551 28.1949 27.1739 27.9652 27.181C27.5067 27.1951 26.9248 27.1624 26.4405 26.9725L26.4402 26.9723C25.7865 26.7071 25.4112 26.3181 25.1993 25.9943C25.0934 25.8325 25.0285 25.6873 24.99 25.5821C24.9871 25.5744 24.9844 25.5669 24.9819 25.5596ZM28.7588 27.0732L28.7901 27.0634L28.7814 27.0357L28.7529 27.0409L28.7588 27.0732ZM34.9702 25.3996L35.0349 25.399L35.035 25.3996L35.0352 25.4012L35.0364 25.4077C35.0374 25.4135 35.0389 25.4221 35.0409 25.4332C35.0449 25.4553 35.051 25.4874 35.059 25.5272C35.075 25.6067 35.0989 25.7169 35.1304 25.8392C35.1936 26.085 35.2864 26.3761 35.4054 26.5684L35.3775 26.5857L35.4098 26.5916C35.2466 27.4749 34.3699 27.9202 33.5511 28.1454C33.1398 28.2586 32.7388 28.3174 32.4409 28.348C32.2919 28.3633 32.1685 28.3716 32.0823 28.376C32.0392 28.3782 32.0054 28.3794 31.9823 28.3801C31.9708 28.3805 31.9619 28.3807 31.9559 28.3808L31.9491 28.381L31.9473 28.381L31.9468 28.381L31.9467 28.381C31.9467 28.381 31.9467 28.381 31.9463 28.3482L31.9467 28.381L31.9135 28.3814V27.7629L31.9144 27.759C31.9278 27.7056 31.9288 27.6654 31.919 27.6337C31.9095 27.6029 31.8886 27.5759 31.8491 27.5509C31.8088 27.5255 31.7505 27.5031 31.6692 27.4823C31.5884 27.4617 31.4868 27.4432 31.3611 27.4245C31.3006 27.4188 31.2594 27.3915 31.2352 27.3511C31.2121 27.3126 31.2067 27.266 31.208 27.2245C31.2093 27.1825 31.2175 27.1419 31.2251 27.1122C31.229 27.0972 31.2328 27.0848 31.2356 27.076C31.237 27.0716 31.2382 27.0681 31.2391 27.0657L31.2401 27.0628L31.2404 27.062L31.2405 27.0618L31.2405 27.0617C31.2405 27.0617 31.2405 27.0617 31.2713 27.0732L31.2771 27.0409L31.2773 27.0409L31.278 27.0411L31.2808 27.0415C31.2833 27.042 31.2871 27.0426 31.2921 27.0435C31.3021 27.0451 31.3169 27.0475 31.3361 27.0505C31.3746 27.0564 31.4307 27.0644 31.5011 27.0728C31.6418 27.0897 31.8395 27.1084 32.0668 27.1154C32.5222 27.1294 33.0934 27.0965 33.5653 26.9115C34.1957 26.6519 34.5467 26.2724 34.7402 25.9591C34.8371 25.8022 34.8947 25.6616 34.928 25.5606C34.9446 25.5101 34.9552 25.4694 34.9616 25.4416C34.9648 25.4277 34.9669 25.417 34.9683 25.4099C34.9689 25.4063 34.9694 25.4037 34.9697 25.402L34.97 25.4001L34.9701 25.3997C34.9701 25.3997 34.9701 25.3996 34.9702 25.3996ZM34.9981 25.5569C34.9956 25.5647 34.9931 25.5728 34.9903 25.5811C34.9557 25.6863 34.896 25.8317 34.7961 25.9936C34.5959 26.3176 34.2345 26.7069 33.59 26.9723L33.5895 26.9725C33.1052 27.1624 32.5233 27.1951 32.0648 27.181C31.8351 27.1739 31.6355 27.1551 31.4932 27.138C31.4221 27.1294 31.3653 27.1213 31.3262 27.1154C31.3134 27.1134 31.3026 27.1117 31.2937 27.1103C31.2921 27.1157 31.2904 27.1218 31.2887 27.1285C31.2817 27.1557 31.2747 27.1912 31.2736 27.2265C31.2725 27.2624 31.2777 27.2944 31.2915 27.3173C31.3041 27.3383 31.3259 27.3554 31.368 27.3593L31.3689 27.3593L31.3698 27.3595C31.4968 27.3783 31.6012 27.3972 31.6854 27.4187C31.7694 27.4402 31.8353 27.4646 31.8841 27.4954C31.9336 27.5267 31.9666 27.5653 31.9817 27.6143C31.9962 27.6611 31.993 27.7134 31.9791 27.7709V28.3146C31.9795 28.3146 31.9799 28.3146 31.9803 28.3145C32.003 28.3139 32.0363 28.3126 32.0789 28.3104C32.1642 28.3061 32.2865 28.2979 32.4342 28.2827C32.7299 28.2524 33.127 28.194 33.5337 28.0822C34.3468 27.8585 35.1815 27.4257 35.3429 26.592C35.2215 26.3908 35.1291 26.0976 35.0668 25.8556C35.0372 25.7403 35.0142 25.6357 34.9981 25.5569ZM31.2713 27.0732L31.2771 27.0409L31.2502 27.036L31.2405 27.0617L31.2713 27.0732Z" fill="black"/>
<path d="M24.8798 25.9297C24.0173 25.4609 24.6923 24.9734 24.7673 23.5859C24.8986 24.4297 25.8548 24.7859 25.7423 25.3297C25.3486 25.3484 25.1611 24.7484 24.9736 25.4047L24.8798 25.9297V25.9297ZM35.1361 25.9297C35.9986 25.4422 35.2861 24.9734 35.2111 23.5859C35.0798 24.4297 34.1423 24.7859 34.2548 25.3297C34.6298 25.3484 34.8173 24.7484 35.0048 25.4047L35.1361 25.9109V25.9297Z" fill="white"/>
<path fill-rule="evenodd" clip-rule="evenodd" d="M24.7361 23.5853L24.8013 23.582C24.8652 23.9927 25.1298 24.2859 25.3719 24.5492C25.3754 24.553 25.3789 24.5568 25.3824 24.5606C25.4986 24.6869 25.6098 24.8078 25.6854 24.9304C25.7638 25.0576 25.8064 25.1905 25.776 25.3375L25.7709 25.3624L25.7454 25.3636C25.6382 25.3687 25.5462 25.3315 25.4677 25.2867C25.4285 25.2643 25.392 25.2395 25.3586 25.2169L25.3583 25.2167C25.3246 25.1938 25.2945 25.1735 25.2664 25.158C25.238 25.1425 25.2143 25.1334 25.1936 25.1313C25.1742 25.1293 25.1565 25.1332 25.1382 25.1465C25.119 25.1604 25.0976 25.1859 25.075 25.2299C25.0527 25.2735 25.0301 25.3331 25.0071 25.4132L24.9137 25.9366L24.8814 25.9308L24.8657 25.9597C24.6468 25.8407 24.5201 25.7177 24.4592 25.5748C24.3984 25.4323 24.4058 25.2761 24.4414 25.0971C24.4624 24.9912 24.4932 24.877 24.5272 24.7509C24.6092 24.4467 24.7097 24.0739 24.7361 23.5853ZM24.8572 25.8797L24.9431 25.3984L24.9436 25.3968C24.9673 25.3137 24.9915 25.249 25.0167 25.2C25.0417 25.1511 25.0689 25.1157 25.0997 25.0933C25.1316 25.0702 25.1655 25.0624 25.2003 25.066C25.2338 25.0694 25.2665 25.0833 25.2979 25.1005C25.3288 25.1175 25.361 25.1393 25.3935 25.1613L25.3954 25.1626C25.4291 25.1854 25.4636 25.2087 25.5003 25.2297C25.5664 25.2674 25.6372 25.2962 25.7163 25.2983C25.7326 25.1832 25.6977 25.0754 25.6295 24.9648C25.5573 24.8477 25.4499 24.7309 25.3316 24.6023C25.3289 24.5994 25.3263 24.5965 25.3236 24.5937C25.1225 24.3749 24.8944 24.1247 24.7856 23.7955C24.7455 24.1936 24.6593 24.5137 24.5887 24.7757C24.5554 24.8994 24.5256 25.0101 24.5057 25.1099C24.471 25.2848 24.4667 25.425 24.5196 25.5491C24.5689 25.6649 24.6704 25.7719 24.8572 25.8797ZM34.6187 24.5495C34.8561 24.2862 35.1163 23.9929 35.1802 23.582L35.2454 23.5853C35.2725 24.0866 35.3827 24.4641 35.472 24.7704C35.5057 24.8858 35.5365 24.9912 35.5587 25.0892C35.599 25.2668 35.6113 25.4226 35.5543 25.5662C35.497 25.7102 35.3726 25.8357 35.1538 25.9594L35.1048 25.9871V25.9163L34.9748 25.4148C34.9748 25.4147 34.9748 25.4146 34.9747 25.4145C34.9516 25.3337 34.9289 25.2737 34.9065 25.2299C34.8839 25.1859 34.8626 25.1604 34.8435 25.1464C34.8254 25.1332 34.8079 25.1293 34.7889 25.1313C34.7687 25.1334 34.7454 25.1424 34.7177 25.1579C34.6901 25.1734 34.6607 25.1938 34.6278 25.2167L34.6263 25.2177C34.5943 25.24 34.5594 25.2643 34.5221 25.2864C34.4464 25.3312 34.3577 25.3687 34.2547 25.3636L34.2294 25.3623L34.2242 25.3375C34.1939 25.1907 34.2351 25.058 34.3118 24.9307C34.3859 24.8076 34.4953 24.6863 34.6098 24.5594L34.6187 24.5495ZM35.1627 25.8782C35.3483 25.7667 35.4472 25.658 35.4933 25.5419C35.5428 25.4172 35.5341 25.2776 35.4947 25.1037C35.4736 25.0108 35.4438 24.9087 35.4108 24.7955C35.3336 24.531 35.2387 24.2058 35.1962 23.7957C35.0886 24.1246 34.8647 24.3747 34.6675 24.5934L34.6611 24.6005C34.5445 24.7297 34.4388 24.8469 34.368 24.9646C34.3014 25.0751 34.2675 25.183 34.284 25.2983C34.3581 25.2958 34.4253 25.2675 34.4887 25.2299C34.5239 25.2091 34.5571 25.186 34.5896 25.1633L34.5903 25.1628C34.6226 25.1404 34.6547 25.118 34.6857 25.1006C34.7165 25.0833 34.7489 25.0695 34.7822 25.066C34.8167 25.0624 34.8505 25.0703 34.8822 25.0934C34.9128 25.1157 34.9399 25.1512 34.9649 25.2C34.99 25.249 35.0142 25.3137 35.0379 25.3968L35.0381 25.3976L35.1627 25.8782Z" fill="black"/>
<path d="M25.4053 26.5687L25.499 26.6438L25.2928 26.8688C25.199 26.9625 25.1897 27.0187 25.2459 27.075C25.3115 27.1406 25.3678 27.1125 25.4334 27.0375L25.6678 26.7937L25.7428 26.8688L25.5178 27.1312C25.3959 27.2719 25.2834 27.2438 25.1803 27.15C25.1053 27.075 25.049 26.9625 25.1803 26.8219L25.4053 26.5687ZM25.7803 26.8875L25.874 26.9437L25.8553 27.3938L26.0615 27.075L26.1553 27.1312L25.8553 27.6188L25.7428 27.5625L25.7615 27.1125L25.5553 27.4313L25.4615 27.375L25.7803 26.8875ZM25.949 27.675L26.2115 27.15L26.3053 27.2063L26.0615 27.7125L25.949 27.675ZM26.3615 27.225L26.1553 27.7688L26.3615 27.8438C26.549 27.9094 26.6428 27.825 26.699 27.6656C26.7647 27.4969 26.7365 27.3844 26.549 27.3L26.3615 27.225V27.225ZM26.4365 27.3562C26.624 27.4219 26.6428 27.4969 26.5865 27.6375C26.5303 27.7594 26.4928 27.8063 26.3053 27.7125L26.4365 27.3562ZM26.9803 27.4313L26.6428 27.9375L26.774 27.975L26.849 27.8438L27.074 27.9L27.0928 28.0312L27.224 28.05L27.0928 27.45L26.9803 27.4313V27.4313ZM27.0178 27.5625L27.0553 27.7875L26.9053 27.7688L27.0178 27.5625V27.5625ZM27.299 27.4781L27.2803 28.0594H27.4959C27.7022 28.0687 27.7584 27.9656 27.7678 27.7781C27.7678 27.6094 27.7022 27.4969 27.4959 27.4969L27.299 27.4781ZM27.4115 27.5719C27.6178 27.5813 27.6459 27.6469 27.6459 27.7875C27.6365 27.9281 27.6084 27.9844 27.4022 27.9563V27.5813L27.4115 27.5719ZM29.2678 28.2937V28.8938H29.399V28.6687C29.399 28.6687 29.5115 28.6688 29.6053 28.65C29.6709 28.6313 29.7272 28.5844 29.7272 28.4625C29.7272 28.35 29.6615 28.2937 29.549 28.2937H29.2678ZM29.399 28.3875H29.5303C29.6334 28.3875 29.624 28.5563 29.5303 28.5563H29.399V28.3875ZM29.9428 28.2937L29.699 28.8938H29.8303L29.8865 28.7438H30.1303L30.1865 28.8938H30.3178L30.074 28.2937H29.9428ZM29.999 28.425L30.0928 28.65H29.924L29.999 28.425ZM30.3178 28.7812L30.6365 28.3875H30.3553V28.2937H30.8053V28.3875L30.4678 28.7812H30.8053V28.8938H30.3178V28.7812ZM32.2115 27.6188L32.324 27.6L32.3803 27.9375C32.399 28.0594 32.3428 28.1344 32.2584 28.1719C32.1647 28.2094 32.0334 28.1719 32.024 28.0125L32.1178 27.9938C32.1365 28.0875 32.174 28.0969 32.2115 28.0875C32.2584 28.0688 32.2772 28.0125 32.2678 27.9563L32.2115 27.6188ZM32.399 27.5813L32.5022 27.5625L32.5584 27.8438C32.5772 27.9656 32.6147 28.0125 32.699 28.0031C32.7928 27.9844 32.8022 27.9281 32.7834 27.8156L32.7178 27.525L32.8303 27.5062L32.9053 27.8156C32.9428 28.0031 32.849 28.0688 32.7178 28.0969C32.6147 28.1156 32.4928 28.0969 32.4553 27.9094L32.399 27.5813ZM32.9803 27.8438L33.074 27.8063C33.1209 27.8906 33.1865 27.8813 33.2428 27.8625C33.3178 27.825 33.3365 27.7594 33.2897 27.7312C33.2334 27.7031 33.1022 27.75 33.0365 27.7312C32.9522 27.6937 32.9147 27.6375 32.924 27.5719C32.924 27.4781 32.999 27.4406 33.0834 27.4125C33.1772 27.3844 33.2709 27.3937 33.3365 27.5062L33.224 27.5437C33.1865 27.4781 33.1303 27.4875 33.0928 27.5062C33.0553 27.525 32.999 27.5531 33.0365 27.6C33.0553 27.6469 33.1959 27.6188 33.2709 27.6188C33.3459 27.6188 33.4022 27.675 33.4115 27.7406C33.4303 27.8437 33.3928 27.9 33.2709 27.9469C33.1303 28.0031 32.999 27.9469 32.9803 27.8438V27.8438ZM33.4865 27.375L33.3365 27.45L33.299 27.3562L33.7115 27.1875L33.749 27.2625L33.599 27.3375L33.7678 27.75L33.674 27.8063L33.4865 27.375ZM33.7303 27.1687L33.824 27.1125L34.0865 27.6L33.9928 27.6562L33.7303 27.1687ZM34.3678 27.2063L34.4803 27.1687C34.4948 27.2042 34.4999 27.2428 34.4953 27.2808C34.4907 27.3189 34.4765 27.3551 34.4539 27.3861C34.4314 27.4171 34.4013 27.4418 34.3666 27.4579C34.3318 27.474 34.2935 27.481 34.2553 27.4781C33.974 27.4781 33.9365 27.1594 33.9834 27.0563C34.0584 26.8781 34.2647 26.8875 34.3584 26.9812L34.2647 27.0563C34.2084 26.9813 34.0772 27.0281 34.0772 27.0938C34.0647 27.1485 34.0709 27.2059 34.0946 27.2569C34.1184 27.3078 34.1584 27.3493 34.2084 27.375C34.3022 27.4125 34.4334 27.3 34.3678 27.2063ZM34.3115 26.8125L34.4053 26.7375L34.7428 27.1875L34.649 27.2625L34.3115 26.8125ZM34.6678 26.5312L34.574 26.6062L34.7803 27.1687L34.874 27.075L34.8178 26.9625L34.9865 26.8125L35.099 26.8688L35.1928 26.7937L34.6678 26.5312V26.5312ZM34.7053 26.6625L34.8928 26.7562L34.7803 26.8688L34.7053 26.6625Z" fill="black"/>
</g>
<defs>
<clipPath id="clip0_4046_21234">
<rect width="60" height="45" fill="white"/>
</clipPath>
</defs>
</svg>
