<svg width="60" height="45" viewBox="0 0 60 45" fill="none" xmlns="http://www.w3.org/2000/svg">
<g clip-path="url(#clip0_4046_21686)">
<path fill-rule="evenodd" clip-rule="evenodd" d="M0 0H60V45H0V0Z" fill="#BE0027"/>
<path fill-rule="evenodd" clip-rule="evenodd" d="M2.39844 2.55859H57.6641V42.7211H2.39844V2.55859Z" fill="#3B5AA3"/>
<path fill-rule="evenodd" clip-rule="evenodd" d="M29.4746 38.7366C29.5973 38.7952 29.7313 38.8264 29.8673 38.828C30.0033 38.8296 30.138 38.8016 30.2621 38.746C43.1809 31.8741 43.1809 13.0303 30.2715 6.25221C30.1429 6.19368 30.0028 6.16497 29.8615 6.16822C29.7203 6.17146 29.5816 6.20659 29.4559 6.27097C16.8652 13.1522 16.8277 31.7803 29.4652 38.7366H29.4746Z" fill="#CBE0E5"/>
<path fill-rule="evenodd" clip-rule="evenodd" d="M29.4785 39.0828C29.666 39.2422 30.0785 39.2234 30.266 39.0828C39.7816 31.9578 39.8285 27.5234 39.416 27.5234H20.5722C20.291 27.5234 20.741 32.0422 29.4785 39.0828Z" fill="#ADD2D9"/>
<path fill-rule="evenodd" clip-rule="evenodd" d="M22.0563 31.0513C22.9181 30.7812 23.8492 30.8379 24.6719 31.2107C25.3844 31.5857 25.7969 31.5857 26.5656 31.5857C27.3719 31.6044 28 32.195 28.8719 32.2232C30.475 32.2607 31.15 33.0575 29.9031 33.0669C29.3219 33.0669 28.0562 32.6638 27.4469 32.7482C26.1719 32.8794 25.3656 33.1607 24.1656 34.5013L25.5531 35.4388C26.7531 34.9607 26.95 34.4075 27.6156 34.3888C28.3656 34.3607 28.6188 33.9013 29.4906 33.9013C30.5315 33.9882 31.5796 33.8866 32.5844 33.6013C33.9719 33.2825 33.3156 32.3075 32.4719 31.9607C31.7875 31.67 30.5219 31.9513 29.7344 31.6607C29.1344 31.4263 29.6219 31.0513 29.95 30.9763C30.2688 30.9107 30.6156 31.0232 31.0187 31.0888C31.7406 31.145 32.65 31.0794 33.2781 30.9763C34.5906 30.7794 34.5344 30.395 35.1531 30.3857C35.6219 30.3575 35.9688 30.2263 36.2781 30.0013C36.6531 29.7482 37.0375 29.2513 37.4875 29.27L38.6781 29.3169L36.9906 33.1044L32.2375 37.9513L29.7719 38.8888L24.3531 35.3544L21.625 31.1638L22.0656 31.0513H22.0563Z" fill="#FDF9A1"/>
<path fill-rule="evenodd" clip-rule="evenodd" d="M28.2906 27.376L39.1656 27.3197L39.3531 26.3541C39.3531 26.3541 38.9687 26.2979 38.65 26.2791C38.2656 26.251 37.5906 26.6916 37.15 26.6822C36.8219 26.6822 36.4656 26.1197 36.1469 26.1197C35.5844 26.1197 35.5469 26.6166 35.0219 26.6354C34.6 26.6166 34.4219 26.2979 33.8687 26.3354C33.3062 26.3635 33.3437 26.6822 32.6219 26.6635C31.6656 26.6354 31.2812 25.8104 30.5125 25.801C29.2375 25.7822 29.2 27.0197 28.2812 27.3666L28.2906 27.376Z" fill="#179A3B"/>
<path fill-rule="evenodd" clip-rule="evenodd" d="M28.2937 27.5984L39.4875 27.5422V27.2422L28.0312 27.2984L28.2844 27.5984H28.2937Z" fill="#FDF9A1"/>
<path fill-rule="evenodd" clip-rule="evenodd" d="M32.8875 30.9641C33.0656 31.6203 33.2437 31.8453 33.9375 32.0234C34.6219 32.1828 35.6719 31.5172 35.025 30.8703C34.4063 30.2703 33.75 30.1203 33.1969 29.5766C32.025 28.4234 30.2625 25.5922 30.2625 23.5953C30.2625 21.8797 30.0938 18.3641 30.0938 15.0359C30.0938 14.8203 29.4375 15.6359 29.4375 15.8609C29.475 18.7953 29.475 21.0172 29.5875 23.9797C29.775 26.1453 30.8062 27.6078 31.7156 28.9203C32.1187 29.5578 32.7094 30.2328 32.8875 30.9641Z" fill="#A79270"/>
<path d="M25.8261 21.7845C25.8011 21.7082 25.7682 21.6398 25.7274 21.5794C25.6874 21.5182 25.6394 21.466 25.5835 21.4229C25.5283 21.3799 25.4656 21.347 25.3953 21.3243C25.325 21.3017 25.248 21.2903 25.1641 21.2903C25.0265 21.2903 24.9015 21.3258 24.7889 21.3969C24.6763 21.4679 24.5867 21.5726 24.5202 21.7109C24.4537 21.8491 24.4205 22.0188 24.4205 22.2198C24.4205 22.4208 24.4541 22.5905 24.5214 22.7288C24.5886 22.8671 24.6797 22.9717 24.7945 23.0427C24.9094 23.1138 25.0386 23.1493 25.1822 23.1493C25.3152 23.1493 25.4323 23.121 25.5336 23.0643C25.6356 23.0069 25.715 22.926 25.7716 22.8217C25.8291 22.7167 25.8578 22.5931 25.8578 22.451L25.9439 22.4692H25.2457V22.2198H26.1298V22.4692C26.1298 22.6604 26.089 22.8266 26.0074 22.9679C25.9266 23.1092 25.8147 23.2188 25.6719 23.2967C25.5298 23.3737 25.3666 23.4123 25.1822 23.4123C24.9767 23.4123 24.7961 23.3639 24.6404 23.2672C24.4855 23.1705 24.3646 23.0329 24.2777 22.8546C24.1915 22.6762 24.1484 22.4647 24.1484 22.2198C24.1484 22.0362 24.173 21.8711 24.2221 21.7245C24.272 21.5771 24.3423 21.4517 24.433 21.3481C24.5236 21.2446 24.6309 21.1653 24.7549 21.1101C24.8788 21.0549 25.0152 21.0273 25.1641 21.0273C25.2865 21.0273 25.4006 21.0459 25.5064 21.0829C25.6129 21.1192 25.7078 21.1709 25.7909 21.2382C25.8748 21.3047 25.9447 21.3844 26.0006 21.4774C26.0565 21.5695 26.0951 21.6719 26.1162 21.7845H25.8261Z" fill="#BD0728"/>
<path fill-rule="evenodd" clip-rule="evenodd" d="M25.1701 21.1253C25.0338 21.1253 24.9114 21.1505 24.8014 21.1994C24.6909 21.2486 24.5953 21.3192 24.514 21.412C24.433 21.5045 24.3689 21.618 24.3226 21.7545C24.2776 21.8891 24.2542 22.0432 24.2542 22.218C24.2542 22.4512 24.2952 22.6473 24.3734 22.8092C24.4528 22.9721 24.5615 23.0948 24.6991 23.1807C24.8371 23.2664 24.999 23.3107 25.1882 23.3107C25.3583 23.3107 25.5048 23.2753 25.6303 23.2072C25.7568 23.1382 25.8552 23.0418 25.9268 22.9166L25.927 22.9162C25.9985 22.7925 26.0361 22.6441 26.0361 22.4674V22.3177H25.3514V22.3676H25.764V22.3263L25.9705 22.3698L25.9622 22.4492H25.9635C25.9635 22.6048 25.932 22.7454 25.8652 22.8676C25.7997 22.9881 25.7071 23.0826 25.5885 23.1494L25.5883 23.1495C25.4701 23.2157 25.3357 23.2472 25.1882 23.2472C25.0273 23.2472 24.8797 23.2072 24.7481 23.1258C24.615 23.0435 24.512 22.9234 24.4377 22.7706C24.3621 22.6152 24.3267 22.4297 24.3267 22.218C24.3267 22.0065 24.3617 21.8211 24.4363 21.6658C24.5097 21.5133 24.6109 21.3932 24.7417 21.3107C24.8707 21.2293 25.0144 21.1888 25.1701 21.1888C25.263 21.1888 25.3505 21.2013 25.4319 21.2276C25.5126 21.2536 25.5858 21.2917 25.6506 21.3423C25.7154 21.3923 25.7707 21.4525 25.8165 21.5223C25.8499 21.5718 25.8782 21.6255 25.9017 21.683H25.9935C25.9748 21.6275 25.9507 21.5757 25.9213 21.5273L25.9211 21.527C25.8713 21.4441 25.8093 21.3735 25.7349 21.3145L25.7342 21.3139C25.6606 21.2544 25.5763 21.2082 25.4803 21.1755L25.4794 21.1752C25.3852 21.1422 25.2823 21.1253 25.1701 21.1253ZM25.756 22.5671H25.1519V22.1182H26.2356V22.4674C26.2356 22.673 26.1916 22.857 26.0999 23.0158C26.0099 23.1731 25.8846 23.2958 25.7256 23.3824L25.7255 23.3825C25.5668 23.4686 25.3868 23.5102 25.1882 23.5102C24.9664 23.5102 24.7671 23.4578 24.5937 23.3501L24.5936 23.35C24.4214 23.2425 24.2884 23.0901 24.194 22.8965L24.1938 22.8962C24.0998 22.7015 24.0547 22.4744 24.0547 22.218C24.0547 22.0256 24.0804 21.8495 24.1335 21.691L24.1336 21.6907C24.1872 21.5325 24.2635 21.3952 24.3639 21.2806C24.464 21.1664 24.583 21.0783 24.7203 21.0171C24.8582 20.9558 25.0086 20.9258 25.1701 20.9258C25.3025 20.9258 25.4277 20.9458 25.5449 20.9868C25.6617 21.0266 25.7667 21.0837 25.8593 21.1585C25.9524 21.2324 26.0301 21.3211 26.092 21.424C26.1545 21.527 26.197 21.6407 26.2203 21.7643L26.2425 21.8825H25.7597L25.7372 21.8137C25.7149 21.7453 25.6859 21.6854 25.6508 21.6334L25.6504 21.6328L25.65 21.6322C25.6158 21.58 25.5754 21.5362 25.5286 21.5002L25.5281 21.4998C25.4826 21.4643 25.4305 21.4367 25.3707 21.4174C25.3115 21.3984 25.2449 21.3883 25.1701 21.3883C25.0507 21.3883 24.9442 21.4188 24.8481 21.4794C24.7536 21.539 24.6758 21.6282 24.6161 21.7523C24.5578 21.8736 24.5262 22.0275 24.5262 22.218C24.5262 22.4084 24.5581 22.5621 24.6171 22.6833C24.6772 22.807 24.7564 22.8963 24.853 22.9561C24.9511 23.0168 25.0619 23.0477 25.1882 23.0477C25.3066 23.0477 25.4065 23.0226 25.4908 22.9755C25.5762 22.9274 25.6422 22.8603 25.69 22.7723L25.6901 22.772C25.7226 22.7126 25.745 22.6446 25.756 22.5671Z" fill="white"/>
<path d="M28.6328 21.0703H28.9139V22.6074C28.9139 22.7661 28.8765 22.9078 28.8017 23.0324C28.7277 23.1564 28.623 23.2542 28.4877 23.326C28.3525 23.3971 28.1938 23.4326 28.0117 23.4326C27.8295 23.4326 27.6708 23.3971 27.5356 23.326C27.4003 23.2542 27.2953 23.1564 27.2205 23.0324C27.1464 22.9078 27.1094 22.7661 27.1094 22.6074V21.0703H27.3905V22.5847C27.3905 22.6981 27.4154 22.7989 27.4653 22.8873C27.5152 22.975 27.5862 23.0442 27.6784 23.0948C27.7714 23.1447 27.8824 23.1696 28.0117 23.1696C28.1409 23.1696 28.252 23.1447 28.3449 23.0948C28.4379 23.0442 28.5089 22.975 28.558 22.8873C28.6079 22.7989 28.6328 22.6981 28.6328 22.5847V21.0703Z" fill="#BD0728"/>
<path fill-rule="evenodd" clip-rule="evenodd" d="M27.0078 20.9727H27.4884V22.5868C27.4884 22.6849 27.5098 22.7685 27.5503 22.8403C27.5905 22.911 27.6477 22.9671 27.7242 23.0092C27.7996 23.0496 27.8936 23.0719 28.0098 23.0719C28.1261 23.0719 28.2202 23.0496 28.2957 23.0091C28.3729 22.967 28.4298 22.911 28.4692 22.8407L28.4693 22.8404C28.5098 22.7687 28.5313 22.685 28.5313 22.5868V20.9727H29.0119V22.6095C29.0119 22.7845 28.9704 22.9442 28.8855 23.0857C28.8016 23.2262 28.683 23.3364 28.5327 23.4162L28.5323 23.4164C28.3802 23.4963 28.205 23.5344 28.0098 23.5344C27.8147 23.5344 27.6395 23.4963 27.4874 23.4164L27.487 23.4162C27.3367 23.3365 27.2179 23.2264 27.1333 23.0861L27.1329 23.0855C27.0488 22.9439 27.0078 22.7843 27.0078 22.6095V20.9727ZM27.2073 21.1722V22.6095C27.2073 22.7518 27.2403 22.8755 27.3042 22.9833C27.3691 23.0907 27.4603 23.1761 27.5803 23.2399C27.6987 23.302 27.8409 23.3349 28.0098 23.3349C28.1788 23.3349 28.3209 23.302 28.4394 23.2399C28.5595 23.1761 28.6502 23.0906 28.7143 22.9834L28.7144 22.9832C28.779 22.8754 28.8124 22.7518 28.8124 22.6095V21.1722H28.7308V22.5868C28.7308 22.7152 28.7024 22.8333 28.6432 22.9383C28.5844 23.0432 28.4993 23.1254 28.3908 23.1845L28.3903 23.1848C28.2799 23.244 28.1519 23.2714 28.0098 23.2714C27.8678 23.2714 27.7398 23.244 27.6294 23.1848L27.6286 23.1843C27.5209 23.1252 27.4362 23.0432 27.3768 22.9388L27.3766 22.9385C27.3173 22.8334 27.2889 22.7153 27.2889 22.5868V21.1722H27.2073Z" fill="white"/>
<path d="M30.6853 23.3918H30.3906L31.243 21.0703H31.5332L32.3856 23.3918H32.0909L31.3972 21.4376H31.3791L30.6853 23.3918ZM30.7942 22.4849H31.9821V22.7343H30.7942V22.4849Z" fill="#BD0728"/>
<path fill-rule="evenodd" clip-rule="evenodd" d="M31.1757 20.9727H31.6051L32.5308 23.4936H32.0227L31.7893 22.8362H30.9914L30.758 23.4936H30.25L31.1757 20.9727ZM31.0622 22.6367H31.7185L31.7008 22.5868H31.08L31.0622 22.6367ZM31.1508 22.3873H31.63L31.3904 21.7123L31.1508 22.3873ZM31.8417 22.3873L31.4699 21.3399H31.3109L30.9391 22.3873H30.8688L31.3149 21.1722H31.4658L31.912 22.3873H31.8417ZM32.001 22.8362L32.1636 23.2941H32.245L32.0768 22.8362H32.001ZM30.7039 22.8362H30.7797L30.6172 23.2941H30.5358L30.7039 22.8362Z" fill="white"/>
<path d="M33.5156 21.0586H33.8511L34.6401 22.9856H34.6673L35.4562 21.0586H35.7917V23.38H35.5288V21.6163H35.5061L34.7806 23.38H34.5267L33.8013 21.6163H33.7786V23.38H33.5156V21.0586Z" fill="#BD0728"/>
<path fill-rule="evenodd" clip-rule="evenodd" d="M33.4219 20.957H33.9241L34.6597 22.7537L35.3953 20.957H35.8975V23.478H35.435V22.0641L34.8535 23.478H34.4659L33.8844 22.0641V23.478H33.4219V20.957ZM33.6214 21.1565V23.2785H33.6849V21.5147H33.8741L34.5996 23.2785H34.7198L35.4453 21.5147H35.6345V23.2785H35.698V21.1565H35.5292L34.7402 23.0835H34.5791L33.7902 21.1565H33.6214Z" fill="white"/>
<path fill-rule="evenodd" clip-rule="evenodd" d="M24.3382 15.0829C24.1975 15.3642 24.6757 14.9985 24.7882 14.961C25.4163 14.736 25.66 13.9485 26.7382 14.4267C27.5819 14.7923 28.7163 14.5767 28.1257 14.9517C27.3944 15.3923 25.9225 15.8798 25.8944 18.0642C26.0163 18.2704 26.0257 18.2423 26.1288 18.0079C26.3538 17.5017 27.4132 16.1235 27.9382 16.236C28.1538 16.2923 28.7725 15.6079 28.7819 15.8048C28.8475 16.3485 27.9382 17.4548 27.9569 18.9267C27.9569 19.2735 28.3788 19.386 28.5757 19.1423C28.7819 18.9267 28.8944 18.711 29.2507 18.4298C29.8694 17.9235 29.7007 15.7485 29.7757 15.8517C30.2163 16.4142 30.2819 18.036 30.9382 18.6923C31.4913 19.2454 31.9319 18.9735 31.81 18.2235C31.5757 16.686 30.8538 17.1267 30.5069 15.5423C30.4319 15.2329 30.4132 14.961 30.8257 15.0829C31.3225 15.2329 31.6225 15.4579 31.9882 16.0204C32.3632 16.5642 33.0569 17.0798 33.46 17.3892C34.1632 17.9329 34.4163 17.4642 34.0788 16.7704C33.6502 15.9825 32.9508 15.3764 32.11 15.0642C31.5288 14.8579 31.3225 14.8392 30.8163 14.7454C30.6757 14.7173 30.535 14.4267 30.7788 14.2673C31.321 13.8763 31.9529 13.6281 32.6163 13.5454C33.2444 13.5267 33.7413 14.0329 34.1819 14.1642C35.0632 14.3892 35.0632 13.836 34.6694 13.4142C34.3507 13.0673 33.6757 12.4767 33.0475 12.561C31.7819 12.7204 31.8663 12.6829 31.0788 13.1985C30.7975 13.3673 30.4788 13.5548 30.6007 13.3485C30.8819 12.8329 30.6194 12.9267 31.06 12.4017C31.3975 12.0267 31.6507 11.7454 31.9975 11.6517C32.3163 11.5673 32.7475 11.2298 32.8694 11.0517C33.1882 10.6204 32.9163 10.3673 32.4288 10.5173C31.9975 10.6298 31.7725 10.911 31.4913 10.986C30.7975 11.211 30.2444 12.7673 30.16 12.9923C30.0569 13.2548 29.935 13.1235 29.9538 12.8985C30.0475 11.8017 30.1413 9.94541 29.7663 9.18604C29.1663 8.06104 29.2225 8.58604 28.9975 9.12041C28.66 9.96416 28.7819 10.761 28.9975 11.586C29.0913 11.9985 29.4288 12.4673 29.4944 12.7954C29.5413 13.0485 29.3444 12.7204 29.2319 12.561C28.8663 11.9985 28.5944 11.6235 27.9944 11.3142C27.3951 11.0676 26.7366 11.0024 26.1007 11.1267C25.9319 11.1829 26.2882 11.4267 26.4288 11.5392C26.8319 11.8579 27.5913 11.961 28.1163 12.2798C28.5475 12.5517 28.885 12.7204 29.035 13.0954C29.0913 13.3767 29.185 13.7892 28.9975 13.7798C28.5194 13.7517 27.7788 13.3298 26.2413 13.4985C25.4538 13.611 24.7788 14.2767 24.3382 15.0829V15.0829Z" fill="#239E46"/>
<path fill-rule="evenodd" clip-rule="evenodd" d="M27.6875 29.1172H28.1281V29.8578H27.6875V29.1172Z" fill="black"/>
<path fill-rule="evenodd" clip-rule="evenodd" d="M25.4719 24.1797C27.2344 26.6172 30.0656 28.0422 30.1219 29.1484H24.6094C25.875 27.6297 26.6531 26.5984 25.4719 24.1797Z" fill="#FDF9FF"/>
<path fill-rule="evenodd" clip-rule="evenodd" d="M23.8694 29.2039C26.2694 29.7383 29.1288 30.0383 30.9569 29.1289C30.9756 29.6633 30.3663 30.4414 29.86 30.4414H25.2663C25.8006 30.357 26.11 30.1977 26.9725 30.1602L24.535 30.1789C24.2538 30.1883 23.785 29.4664 23.8694 29.2039Z" fill="#A68861"/>
<path fill-rule="evenodd" clip-rule="evenodd" d="M29.3039 39.8436C29.5477 39.9842 29.932 39.9749 30.1477 39.8624C44.0039 32.4842 44.0133 12.2624 30.1664 4.98736C30.0278 4.92318 29.8763 4.89151 29.7236 4.89476C29.5709 4.89801 29.4209 4.93609 29.2852 5.00611C15.7852 12.3936 15.7477 32.3811 29.3039 39.853V39.8436ZM29.3695 38.1842C29.486 38.2415 29.6137 38.2721 29.7435 38.2737C29.8732 38.2753 30.0017 38.248 30.1195 38.1936C41.707 31.3686 41.8477 13.3405 30.1289 6.88111C29.9039 6.71236 29.5758 6.76861 29.3508 6.88111C18.2508 13.453 17.632 30.7405 29.3695 38.1842Z" fill="#BE0027"/>
<path d="M25.2031 21.1328C25.4156 21.1328 25.6031 21.1766 25.7656 21.2641C25.9844 21.3766 26.1188 21.5828 26.1688 21.8828H25.8781C25.8406 21.7203 25.7594 21.5953 25.6344 21.5078C25.5219 21.4328 25.375 21.3953 25.1938 21.3953C24.9875 21.3953 24.8094 21.4797 24.6594 21.6484C24.5156 21.8047 24.4438 22.0422 24.4438 22.3609C24.4438 22.6234 24.5031 22.8422 24.6219 23.0172C24.7469 23.1859 24.9438 23.2703 25.2125 23.2703C25.4188 23.2703 25.5875 23.2109 25.7188 23.0922C25.8625 22.9734 25.9344 22.7797 25.9344 22.5109H25.2219V22.2578H26.2156V23.4766H26.0188L25.9438 23.1766C25.8438 23.2953 25.75 23.3797 25.6625 23.4297C25.525 23.5047 25.3531 23.5422 25.1469 23.5422C24.8781 23.5422 24.6438 23.4547 24.4438 23.2797C24.2313 23.0547 24.125 22.7516 24.125 22.3703C24.125 21.9891 24.2281 21.6859 24.4344 21.4609C24.6344 21.2422 24.8906 21.1328 25.2031 21.1328Z" fill="#BD0728"/>
<path d="M27.4125 21.1969V22.6219C27.4125 22.7844 27.4437 22.9188 27.5062 23.025C27.5937 23.1938 27.75 23.2781 27.975 23.2781C28.2312 23.2781 28.4094 23.1906 28.5094 23.0156C28.5594 22.9156 28.5844 22.7844 28.5844 22.6219V21.1875H28.9031V22.4813C28.9031 22.7563 28.8594 22.975 28.7719 23.1375C28.6406 23.4063 28.3844 23.5406 28.0031 23.5406C27.6094 23.5406 27.3438 23.4031 27.2063 23.1281C27.1313 22.9719 27.0938 22.7563 27.0938 22.4813V21.1875L27.4125 21.1969Z" fill="#BD0728"/>
<path d="M31.7281 22.5469L31.3813 21.5438L31.0063 22.5469H31.7281ZM31.2219 21.1875H31.5688L32.4125 23.4844H32.0563L31.8313 22.8H30.9219L30.6688 23.4844H30.3594L31.2219 21.1875Z" fill="#BD0728"/>
<path d="M33.4688 21.1875H33.9281L34.575 23.1281L35.2312 21.1875H35.6719V23.475H35.3719V21.5438L34.7156 23.475H34.425L33.7688 21.5438V23.475H33.4688V21.1875Z" fill="#BD0728"/>
</g>
<defs>
<clipPath id="clip0_4046_21686">
<rect width="60" height="45" fill="white"/>
</clipPath>
</defs>
</svg>
