<svg width="60" height="45" viewBox="0 0 60 45" fill="none" xmlns="http://www.w3.org/2000/svg">
<g clip-path="url(#clip0_4046_21725)">
<path fill-rule="evenodd" clip-rule="evenodd" d="M62.2906 45.12H-2.16406V0H62.2906V45.12Z" fill="#BA0000"/>
<path fill-rule="evenodd" clip-rule="evenodd" d="M29.1466 21.8381C29.1466 21.8381 24.5994 19.8817 25.2515 14.8057C25.8772 12.3646 26.9964 10.6991 29.0144 9.79137C29.9662 9.50056 30.9356 9.36837 31.9226 9.28906C31.6582 9.53581 31.4467 9.78256 31.3321 10.0822C31.1206 10.6462 31.2792 11.1749 31.5701 11.7125C31.9314 12.3294 32.1517 12.9639 32.2222 13.7922C32.2884 14.3567 32.2043 14.9287 31.9783 15.4502C31.7524 15.9717 31.3927 16.4243 30.9356 16.7621C30.3539 17.2115 29.6666 17.3701 29.1026 17.8812C28.6619 18.3042 28.3976 18.7361 28.3094 19.4763C28.2918 20.8951 28.6707 21.0978 29.1466 21.8381V21.8381Z" fill="white"/>
<path fill-rule="evenodd" clip-rule="evenodd" d="M28.3647 14.4688V14.4952H28.1797V14.4688H28.3647Z" fill="black"/>
<path fill-rule="evenodd" clip-rule="evenodd" d="M27.3573 17.8085C27.3715 19.14 27.7716 20.4836 28.6249 21.2387L28.5022 21.3773C27.593 20.5727 27.1867 19.1668 27.1723 17.8105C27.165 17.1301 27.2561 16.4563 27.4353 15.868C27.6141 15.2808 27.8826 14.7725 28.2346 14.4297L28.3637 14.5623C28.0416 14.876 27.7857 15.3525 27.6123 15.9219C27.4393 16.4903 27.3503 17.145 27.3573 17.8085Z" fill="#BA0000"/>
<path fill-rule="evenodd" clip-rule="evenodd" d="M29.3838 13.6163L29.6746 14.101L29.1459 13.8807L28.7317 14.3213L28.8022 13.7485L28.2734 13.5282L28.8463 13.396L28.9168 12.832L29.2076 13.3167L29.7892 13.1845" fill="#BA0000"/>
<path fill-rule="evenodd" clip-rule="evenodd" d="M29.5312 21.5012C29.5312 21.5012 30.06 16.575 35.1096 15.7114C37.6299 15.6056 39.5511 16.1784 41.0139 17.8528C41.5691 18.6724 41.9745 19.5624 42.3358 20.4789C42.0274 20.3027 41.7366 20.1705 41.4017 20.1529C40.8112 20.1088 40.3442 20.4173 39.9212 20.8491C39.4272 21.3959 38.8113 21.8186 38.1234 22.0828C37.6038 22.3126 37.0326 22.401 36.4678 22.3391C35.9029 22.2772 35.3645 22.0672 34.9069 21.7303C34.3076 21.2985 33.9551 20.6904 33.303 20.3027C32.773 19.9876 32.1448 19.8809 31.5405 20.0031C30.1746 20.4084 30.1041 20.8314 29.5312 21.5012V21.5012Z" fill="white"/>
<path fill-rule="evenodd" clip-rule="evenodd" d="M36.3233 18.6147H36.2969V18.4297H36.3233V18.6147Z" fill="black"/>
<path fill-rule="evenodd" clip-rule="evenodd" d="M32.8587 18.6155C31.5895 19.0193 30.4197 19.7959 29.9416 20.8373L29.7734 20.7601C30.2824 19.6513 31.5096 18.8505 32.8026 18.4391C33.4512 18.2328 34.1218 18.1225 34.7363 18.1211C35.3496 18.1197 35.9135 18.2268 36.3438 18.4615L36.2552 18.624C35.8614 18.4092 35.3315 18.3048 34.7367 18.3062C34.143 18.3075 33.4912 18.4143 32.8587 18.6155Z" fill="#BA0000"/>
<path fill-rule="evenodd" clip-rule="evenodd" d="M37.4642 19.3242L37.0852 19.7384L37.1381 19.1656L36.6094 18.9012L37.1646 18.8131L37.2174 18.2227L37.5171 18.7514L38.0811 18.6457L37.7021 19.0598L37.9929 19.5886" fill="#BA0000"/>
<path fill-rule="evenodd" clip-rule="evenodd" d="M29.8672 21.8535C29.8672 21.8535 34.7141 20.796 37.1287 25.3168C38.0364 27.6698 38.0981 29.6702 36.9789 31.5825C36.3796 32.3756 35.657 33.0366 34.9079 33.6799C34.9784 33.3274 35.0049 33.0101 34.9167 32.6929C34.7757 32.1113 34.3351 31.7676 33.7887 31.5032C33.1108 31.2067 32.5128 30.7537 32.0439 30.1813C31.6637 29.7614 31.4008 29.2487 31.2817 28.6949C31.1626 28.141 31.1914 27.5656 31.3653 27.0265C31.5768 26.3215 32.0439 25.7927 32.2025 25.0525C32.3344 24.4514 32.2369 23.8228 31.9293 23.29C31.1097 22.1267 30.6868 22.1884 29.8672 21.8535Z" fill="white"/>
<path fill-rule="evenodd" clip-rule="evenodd" d="M34.8359 27.3281L34.8536 27.3457Z" fill="#BA0000"/>
<path fill-rule="evenodd" clip-rule="evenodd" d="M34.7911 27.4102L34.7734 27.3926L34.9043 27.2617L34.9219 27.2793L34.7911 27.4102Z" fill="black"/>
<path fill-rule="evenodd" clip-rule="evenodd" d="M33.6658 24.0976C32.8811 23.0216 31.7758 22.1593 30.6406 22.0355L30.6607 21.8516C31.8696 21.9834 33.0159 22.8924 33.8153 23.9886C34.2163 24.5385 34.5335 25.14 34.73 25.7235C34.9261 26.3059 35.004 26.8764 34.9189 27.3616L34.7366 27.3296C34.8146 26.8851 34.7448 26.3474 34.5546 25.7826C34.3647 25.2188 34.0568 24.6339 33.6658 24.0976Z" fill="#BA0000"/>
<path fill-rule="evenodd" clip-rule="evenodd" d="M34.4496 28.6939L33.9297 28.4648L34.5025 28.3326L34.573 27.7422L34.8462 28.2445L35.419 28.1123L35.0224 28.5529L35.2868 29.0553L34.7757 28.8261L34.3791 29.2756" fill="#BA0000"/>
<path fill-rule="evenodd" clip-rule="evenodd" d="M29.7608 22.3565C29.7608 22.3565 32.1314 26.7098 28.483 30.2877C26.4737 31.8211 24.5703 32.4468 22.42 31.9092C21.4947 31.5567 20.6575 31.0544 19.8203 30.508C20.1728 30.4816 20.4989 30.4199 20.7809 30.2437C21.292 29.944 21.4947 29.4241 21.6004 28.8337C21.6922 28.0973 21.958 27.3935 22.3759 26.7803C22.6716 26.2965 23.0896 25.8993 23.5878 25.6285C24.086 25.3578 24.6468 25.2231 25.2136 25.2382C25.9538 25.247 26.5883 25.5554 27.3462 25.5025C27.9543 25.4232 28.4301 25.2558 28.9677 24.727C29.8489 23.6255 29.6727 23.2289 29.7608 22.3477V22.3565Z" fill="white"/>
<path fill-rule="evenodd" clip-rule="evenodd" d="M25.9073 28.668L25.8984 28.6856Z" fill="#BA0000"/>
<path fill-rule="evenodd" clip-rule="evenodd" d="M25.8125 28.6426L25.8213 28.625L25.9868 28.7078L25.978 28.7254L25.8125 28.6426Z" fill="black"/>
<path fill-rule="evenodd" clip-rule="evenodd" d="M28.6774 26.6284C29.4893 25.5721 30.0035 24.2657 29.7944 23.1392L29.9764 23.1055C30.1991 24.3055 29.6514 25.6649 28.8241 26.7412C28.4092 27.2811 27.9205 27.7545 27.4151 28.1058C26.9106 28.4565 26.3841 28.6892 25.894 28.7398L25.875 28.5558C26.3235 28.5094 26.8203 28.2938 27.3094 27.9538C27.7976 27.6145 28.2728 27.1548 28.6774 26.6284Z" fill="#BA0000"/>
<path fill-rule="evenodd" clip-rule="evenodd" d="M24.4869 28.6773L24.5662 28.1133L24.857 28.6156L25.4386 28.5275L25.0332 28.9328L25.3241 29.4352L24.7865 29.1796L24.3811 29.585L24.4516 29.021L23.9141 28.7654" fill="#BA0000"/>
<path fill-rule="evenodd" clip-rule="evenodd" d="M29.2287 22.2618C29.2287 22.2618 25.9152 25.9454 21.3151 23.7071C19.2001 22.3235 17.9839 20.7284 17.7812 18.5253C17.8077 17.5295 17.9927 16.5778 18.2307 15.6172C18.3805 15.9344 18.5479 16.2164 18.8035 16.4279C19.2529 16.8069 19.8169 16.8245 20.4162 16.7276C21.1355 16.5701 21.8821 16.5882 22.5929 16.7804C23.1494 16.8976 23.6651 17.1598 24.0876 17.5405C24.5101 17.9213 24.8244 18.4069 24.9987 18.9483C25.2366 19.6445 25.1573 20.3495 25.4658 21.0457C25.7301 21.5921 26.0474 21.9798 26.7259 22.3147C28.0654 22.7818 28.3739 22.4821 29.2287 22.2706V22.2618Z" fill="white"/>
<path fill-rule="evenodd" clip-rule="evenodd" d="M21.9942 20.7276L21.9766 20.7188Z" fill="#BA0000"/>
<path fill-rule="evenodd" clip-rule="evenodd" d="M22.0124 20.6367L22.0301 20.6455L21.9473 20.8111L21.9297 20.8022L22.0124 20.6367Z" fill="black"/>
<path fill-rule="evenodd" clip-rule="evenodd" d="M24.8332 22.6587C26.0992 23.0735 27.5006 23.1259 28.4904 22.5584L28.5825 22.719C27.5278 23.3236 26.0652 23.2571 24.7756 22.8346C24.1286 22.6227 23.5196 22.3195 23.0198 21.9604C22.521 21.6019 22.1257 21.1838 21.9141 20.7398L22.0811 20.6602C22.2748 21.0665 22.6441 21.4625 23.1278 21.8101C23.6106 22.1571 24.2023 22.4521 24.8332 22.6587Z" fill="#BA0000"/>
<path fill-rule="evenodd" clip-rule="evenodd" d="M21.5161 19.3871L22.0712 19.2726L21.6923 19.7132L21.9655 20.2331L21.4544 19.9864L21.0754 20.427L21.1371 19.8277L20.6172 19.581L21.1724 19.4664L21.2341 18.8672" fill="#BA0000"/>
</g>
<defs>
<clipPath id="clip0_4046_21725">
<rect width="60" height="45" fill="white"/>
</clipPath>
</defs>
</svg>
