<svg width="60" height="45" viewBox="0 0 60 45" fill="none" xmlns="http://www.w3.org/2000/svg">
<g clip-path="url(#clip0_4046_21753)">
<path d="M0 0H60V45H0V0Z" fill="#00008B"/>
<path d="M3.51562 0L14.9531 8.48438L26.3438 0H30V2.90625L18.75 11.2969L30 19.6406V22.5H26.25L15 14.1094L3.79688 22.5H0V19.6875L11.2031 11.3438L0 3V0H3.51562Z" fill="white"/>
<path d="M19.875 13.1719L30 20.625V22.5L17.2969 13.1719H19.875ZM11.25 14.1094L11.5312 15.75L2.53125 22.5H0L11.25 14.1094ZM30 0V0.140625L18.3281 8.95312L18.4219 6.89062L27.6562 0H30ZM0 0L11.2031 8.25H8.39062L0 1.96875V0Z" fill="#FF0000"/>
<path d="M11.2969 0V22.5H18.7969V0H11.2969ZM0 7.5V15H30V7.5H0Z" fill="white"/>
<path d="M0 9.04688V13.5469H30V9.04688H0ZM12.7969 0V22.5H17.2969V0H12.7969Z" fill="#FF0000"/>
<path d="M49.4047 37.1922L47.4828 37.4359L47.6891 39.3578L46.3016 38.0078L44.9234 39.3672L45.1109 37.4453L43.1891 37.2203L44.8109 36.1703L43.7891 34.5297L45.6266 35.1391L46.2734 33.3109L46.9391 35.1297L48.7672 34.5016L47.7641 36.1516L49.3953 37.1922H49.4047ZM49.0578 26.2047L49.3109 24.9859L48.3922 24.1422L49.6297 24.0016L50.1453 22.8672L50.6609 24.0016L51.8984 24.1422L50.9797 24.9859L51.2328 26.2047L50.1453 25.5859L49.0578 26.2047V26.2047ZM39.2984 20.5797L37.3953 20.7859L37.5641 22.6891L36.2141 21.3297L34.8266 22.6516L35.0516 20.7484L33.1578 20.4953L34.7797 19.4828L33.7953 17.8422L35.6047 18.4797L36.2797 16.6891L36.9078 18.4984L38.7266 17.9078L37.7047 19.5297L39.3078 20.5797H39.2984ZM58.4047 17.5047L56.4453 17.7578L56.6609 19.7172L55.2453 18.3391L53.8391 19.7266L54.0359 17.7578L52.0766 17.5328L53.7359 16.4547L52.6953 14.7766L54.5703 15.4047L55.2266 13.5484L55.9016 15.4047L57.7672 14.7578L56.7359 16.4453L58.4047 17.5047ZM49.3953 9.67656L47.4547 9.89219L47.6328 11.8422L46.2547 10.4547L44.8391 11.8047L45.0641 9.86406L43.1234 9.60156L44.7828 8.57031L43.7797 6.89219L45.6266 7.53906L46.3109 5.71094L46.9484 7.55781L48.8047 6.94844L47.7641 8.59844L49.3953 9.67656V9.67656ZM21.9359 36.1609L17.6422 36.6672L18.0734 40.9703L14.9984 37.9328L11.9047 40.9516L12.3641 36.6484L8.07031 36.1047L11.7172 33.7797L9.46719 30.0859L13.5547 31.4922L15.0359 27.4234L16.4891 31.5016L20.5859 30.1234L18.3078 33.7984L21.9453 36.1516L21.9359 36.1609Z" fill="white"/>
</g>
<defs>
<clipPath id="clip0_4046_21753">
<rect width="60" height="45" fill="white"/>
</clipPath>
</defs>
</svg>
