<svg width="60" height="45" viewBox="0 0 60 45" fill="none" xmlns="http://www.w3.org/2000/svg">
<g clip-path="url(#clip0_4046_22025)">
<path fill-rule="evenodd" clip-rule="evenodd" d="M62.2828 45.12H-2.17188V0H62.2828V45.12Z" fill="white"/>
<path fill-rule="evenodd" clip-rule="evenodd" d="M62.2828 10.1525H-2.17188V4.23047H62.2828V10.1525ZM62.2828 41.0403H-2.17188V35.1183H62.2828V41.0403ZM19.7184 16.8059L29.4209 33.6907L39.335 16.8852L19.7184 16.8147V16.8059Z" fill="#0038B8"/>
<path fill-rule="evenodd" clip-rule="evenodd" d="M27.5948 28.0078L29.4366 31.1362L31.3224 28.0254L27.5859 28.0078H27.5948Z" fill="white"/>
<path fill-rule="evenodd" clip-rule="evenodd" d="M19.6797 28.2519L29.3911 11.3672L39.2963 28.1814L19.6797 28.2519V28.2519Z" fill="#0038B8"/>
<path fill-rule="evenodd" clip-rule="evenodd" d="M27.6003 16.8862L29.4421 13.7578L31.328 16.8774L27.5915 16.8862H27.6003ZM23.7404 23.8922L21.8281 27.0647L25.4412 27.0559L23.7404 23.8834V23.8922ZM21.8634 18.0319L25.4941 18.0583L23.7493 21.2572L21.8634 18.0319V18.0319ZM35.1879 23.9362L37.0297 27.0647L33.3549 27.0206L35.1879 23.9362ZM36.9944 18.0319L33.3637 18.0583L35.1086 21.2572L36.9944 18.0319V18.0319ZM26.9218 18.0319L24.419 22.5615L26.957 26.9942L31.61 27.0999L34.43 22.5615L31.8215 17.979L26.9218 18.0231V18.0319Z" fill="white"/>
</g>
<defs>
<clipPath id="clip0_4046_22025">
<rect width="60" height="45" fill="white"/>
</clipPath>
</defs>
</svg>
