<svg width="60" height="45" viewBox="0 0 60 45" fill="none" xmlns="http://www.w3.org/2000/svg">
<g clip-path="url(#clip0_4046_22071)">
<path d="M0 0H60V15H0V0Z" fill="#FF9933"/>
<path d="M0 15H60V30H0V15Z" fill="white"/>
<path d="M0 30H60V45H0V30Z" fill="#128807"/>
<path d="M30 28.5C33.3137 28.5 36 25.8137 36 22.5C36 19.1863 33.3137 16.5 30 16.5C26.6863 16.5 24 19.1863 24 22.5C24 25.8137 26.6863 28.5 30 28.5Z" fill="#000088"/>
<path d="M30 27.75C32.8995 27.75 35.25 25.3995 35.25 22.5C35.25 19.6005 32.8995 17.25 30 17.25C27.1005 17.25 24.75 19.6005 24.75 22.5C24.75 25.3995 27.1005 27.75 30 27.75Z" fill="white"/>
<path d="M30.0031 23.5492C30.583 23.5492 31.0531 23.0791 31.0531 22.4992C31.0531 21.9193 30.583 21.4492 30.0031 21.4492C29.4232 21.4492 28.9531 21.9193 28.9531 22.4992C28.9531 23.0791 29.4232 23.5492 30.0031 23.5492Z" fill="#000088"/>
<path d="M35.1738 23.4534C35.3216 23.4729 35.4572 23.3688 35.4767 23.221C35.4962 23.0731 35.3921 22.9375 35.2443 22.9181C35.0964 22.8986 34.9608 23.0027 34.9413 23.1505C34.9219 23.2983 35.0259 23.434 35.1738 23.4534Z" fill="#000088"/>
<path d="M30.0003 27.7477L30.1803 24.5977L30.0003 23.0977L29.8203 24.5977L30.0003 27.7477Z" fill="#000088"/>
</g>
<defs>
<clipPath id="clip0_4046_22071">
<rect width="60" height="45" fill="white"/>
</clipPath>
</defs>
</svg>
