<svg width="60" height="45" viewBox="0 0 60 45" fill="none" xmlns="http://www.w3.org/2000/svg">
<g clip-path="url(#clip0_4046_22274)">
<path d="M0 15H60V30H0V15Z" fill="white"/>
<path d="M0 0H60V15H0V0Z" fill="#CE1126"/>
<path d="M0 30H60V45H0V30Z" fill="black"/>
<path d="M36.652 19.7437C36.5665 19.7026 36.4887 19.6471 36.4221 19.5795C36.3728 19.4973 36.4057 19.4973 36.6192 19.5466C36.9969 19.6616 37.2433 19.6123 37.4896 19.4152L37.7031 19.2346L37.9495 19.3495C38.0973 19.4317 38.2451 19.4809 38.2779 19.4645C38.3929 19.4317 38.6228 19.136 38.6064 19.0375C38.6064 18.9225 38.7049 18.9554 38.7706 19.0868C38.8692 19.3495 38.7214 19.6616 38.4422 19.7273C38.3272 19.7601 38.2122 19.7437 38.0152 19.678C37.7852 19.5959 37.736 19.5959 37.621 19.678C37.4834 19.782 37.3184 19.8436 37.1463 19.8553C36.9742 19.8669 36.8024 19.8282 36.652 19.7437V19.7437ZM37.6046 18.8733C37.4934 18.6724 37.4368 18.4459 37.4404 18.2163C37.4568 18.1178 37.4896 18.0849 37.5717 18.1178C37.736 18.1671 37.7688 18.282 37.736 18.6105C37.736 18.9061 37.6867 18.9882 37.6046 18.8733ZM26.5024 18.5612C26.486 18.7747 26.8966 19.3167 27.0772 19.4152C26.9459 19.4645 26.798 19.4481 26.6831 19.4973C26.0261 20.1543 23.6612 22.4535 23.2342 23.0119C24.5152 23.0448 25.9276 22.9955 27.1265 22.9462C27.1265 22.0758 27.9477 22.0265 28.5061 21.7145C28.7853 22.1579 29.4915 22.1251 29.59 22.7984V25.6889H18.6685C18.6272 25.9081 18.5403 26.1162 18.4135 26.2996C18.2867 26.4831 18.1228 26.6379 17.9324 26.754C17.742 26.8701 17.5293 26.9449 17.3081 26.9737C17.0869 27.0024 16.8622 26.9843 16.6484 26.9207C16.9769 26.5922 17.5353 26.4608 17.7324 25.9846C17.8966 24.9335 17.4039 24.293 17.0754 23.6853C17.4886 23.5528 17.877 23.3531 18.2251 23.0941C17.8473 24.2437 19.2433 24.1287 20.2616 24.0959C20.2944 23.7017 20.278 23.2419 19.9824 23.1762C20.3601 23.0284 20.4258 22.9791 21.0663 22.4535V24.0302L28.6375 24.0138C28.6375 23.5211 28.7688 22.7163 28.3747 22.7163C28.0134 22.7163 28.3747 23.7346 28.0791 23.7346H22.2159V22.7492C22.4623 22.4864 22.4294 22.5028 24.121 20.8112C24.2853 20.647 25.4842 19.563 26.5188 18.5612H26.5024ZM41.1356 18.5119C41.5462 18.7419 41.8746 19.0375 42.3673 19.1689C42.3181 19.3824 42.121 19.4645 42.0717 19.678V24.1123C42.6301 24.2273 42.7615 23.8988 43.0243 23.7346C43.09 24.4408 43.5498 25.1305 43.517 25.7054H41.1356V18.5284V18.5119ZM37.9495 20.8933C37.9495 20.8933 38.8199 20.1543 38.8199 20.1214V23.9809H39.444L39.4276 19.6616C39.6739 19.3988 40.183 19.0375 40.298 18.7747V25.6725H34.8126C34.7305 24.2437 34.7141 22.7656 36.3893 23.0776V22.5028C36.34 22.4043 36.2415 22.5192 36.225 22.3878C36.4878 22.1251 36.5699 22.0594 37.2925 21.4353L37.309 23.9809H37.9495V20.8933V20.8933ZM35.8801 23.9481C35.9951 24.1123 36.4057 24.1123 36.3728 23.8167C36.3236 23.5703 35.798 23.6524 35.8801 23.9481Z" fill="#007A3D"/>
<path d="M19.9847 26.8366C20.1661 26.8366 20.3132 26.6896 20.3132 26.5082C20.3132 26.3267 20.1661 26.1797 19.9847 26.1797C19.8033 26.1797 19.6562 26.3267 19.6562 26.5082C19.6562 26.6896 19.8033 26.8366 19.9847 26.8366Z" fill="#007A3D"/>
<path d="M30.3281 18.5273C30.7387 18.7408 31.0672 19.0529 31.5763 19.1843C31.5106 19.3814 31.3299 19.4635 31.2807 19.677V24.1113C31.8391 24.2262 31.954 23.9142 32.2168 23.7335C32.2989 24.4397 32.7424 25.1459 32.7259 25.7043H30.3281V18.5273Z" fill="#007A3D"/>
</g>
<defs>
<clipPath id="clip0_4046_22274">
<rect width="60" height="45" fill="white"/>
</clipPath>
</defs>
</svg>
