<svg width="60" height="45" viewBox="0 0 60 45" fill="none" xmlns="http://www.w3.org/2000/svg">
<g clip-path="url(#clip0_4046_22283)">
<path fill-rule="evenodd" clip-rule="evenodd" d="M-9.375 0H69.375V45H-9.375V0Z" fill="white"/>
<path fill-rule="evenodd" clip-rule="evenodd" d="M-9.375 30.2188H69.375V45.002H-9.375V30.2188Z" fill="#DA0000"/>
<path fill-rule="evenodd" clip-rule="evenodd" d="M5.60156 30.8516H9.9082V31.1416H5.60156V30.8516ZM6.24316 32.3281H6.54199V32.6182H6.24316V32.3281ZM9.92578 32.3281V32.6182H9.06445V32.3193L9.92578 32.3281ZM10.3828 30.8516H10.6816V32.6094H10.3828V30.8516Z" fill="white"/>
<path fill-rule="evenodd" clip-rule="evenodd" d="M12.1045 32.3193V32.6182H10.4697V32.3193H12.1045ZM9.06348 31.625H9.34473V32.6182H9.05469L9.06348 31.625Z" fill="white"/>
<path fill-rule="evenodd" clip-rule="evenodd" d="M11.8594 30.8516H12.1582V32.6094H11.8594V30.8516ZM11.1211 30.8516H11.4111V32.6094H11.1211V30.8516ZM7.18359 31.5547V31.8535H5.60156V31.5547H7.18359ZM10.6377 31.5547V31.8535H9.05566V31.5547H10.6377Z" fill="white"/>
<path fill-rule="evenodd" clip-rule="evenodd" d="M9.06348 31.6328H9.34473V32.6084H9.05469L9.06348 31.6328Z" fill="white"/>
<path fill-rule="evenodd" clip-rule="evenodd" d="M9.06348 31.6328H9.34473V32.6084H9.05469L9.06348 31.6328Z" fill="white"/>
<path fill-rule="evenodd" clip-rule="evenodd" d="M9.06348 31.6328H9.34473V32.6084H9.05469L9.06348 31.6328ZM5.60938 31.6328H5.89941V32.6084H5.60938V31.6328ZM8.14062 31.6328H8.43945V32.6084H8.14062V31.6328ZM6.88379 31.6328H7.18262V32.6084H6.88379V31.6328Z" fill="white"/>
<path fill-rule="evenodd" clip-rule="evenodd" d="M8.34277 32.3193V32.6182H7.01562V32.3193H8.34277ZM8.43066 31.5547V31.8535H7.58691V31.5547H8.43066Z" fill="white"/>
<path fill-rule="evenodd" clip-rule="evenodd" d="M-1.48438 30.8516H2.82227V31.1416H-1.48438V30.8516ZM-0.842774 32.3281H-0.543946V32.6182H-0.851563L-0.842774 32.3281ZM2.83984 32.3281V32.6182H1.97852V32.3193L2.83984 32.3281ZM3.29687 30.8516H3.5957V32.6094H3.29687V30.8516Z" fill="white"/>
<path fill-rule="evenodd" clip-rule="evenodd" d="M5.01758 32.3193V32.6182H3.38281V32.3193H5.01758ZM1.97656 31.625H2.2666V32.6182H1.97656V31.625Z" fill="white"/>
<path fill-rule="evenodd" clip-rule="evenodd" d="M4.77344 30.8516H5.07227V32.6094H4.77344V30.8516ZM4.03516 30.8516H4.3252V32.6094H4.03516V30.8516ZM0.0976562 31.5547V31.8535H-1.48438V31.5547H0.0976562ZM3.55176 31.5547V31.8535H1.96973V31.5547H3.55176Z" fill="white"/>
<path fill-rule="evenodd" clip-rule="evenodd" d="M1.97656 31.6328H2.2666V32.6084H1.97656V31.6328Z" fill="white"/>
<path fill-rule="evenodd" clip-rule="evenodd" d="M1.97656 31.6328H2.2666V32.6084H1.97656V31.6328Z" fill="white"/>
<path fill-rule="evenodd" clip-rule="evenodd" d="M1.97754 31.6328H2.26758V32.6084H1.97754V31.6328ZM-1.47656 31.6328H-1.18652V32.6084H-1.47656V31.6328ZM1.05469 31.6328H1.34473V32.6084H1.05469V31.6328ZM-0.202148 31.6328H0.0966799V32.6084H-0.202148V31.6328Z" fill="white"/>
<path fill-rule="evenodd" clip-rule="evenodd" d="M1.25586 32.3193V32.6182H-0.0625V32.3193H1.25586ZM1.34375 31.5547V31.8535H0.5V31.5547H1.34375Z" fill="white"/>
<path fill-rule="evenodd" clip-rule="evenodd" d="M12.625 30.8516H16.9316V31.1416H12.625V30.8516ZM13.2666 32.3281H13.5654V32.6182H13.2666V32.3281ZM16.9492 32.3281V32.6182H16.0879V32.3193L16.9492 32.3281ZM17.415 30.8516H17.7139V32.6094H17.415V30.8516Z" fill="white"/>
<path fill-rule="evenodd" clip-rule="evenodd" d="M19.127 32.3193V32.6182H17.4922V32.3193H19.127ZM16.0859 31.625H16.3848V32.6182H16.0859V31.625Z" fill="white"/>
<path fill-rule="evenodd" clip-rule="evenodd" d="M18.8828 30.8516H19.1816V32.6094H18.8828V30.8516ZM18.1445 30.8516H18.4434V32.6094H18.1357L18.1445 30.8516ZM14.207 31.5547V31.8535H12.625V31.5547H14.207ZM17.6611 31.5547V31.8535H16.0791V31.5547H17.6611Z" fill="white"/>
<path fill-rule="evenodd" clip-rule="evenodd" d="M16.0859 31.6328H16.3848V32.6084H16.0859V31.6328Z" fill="white"/>
<path fill-rule="evenodd" clip-rule="evenodd" d="M16.0859 31.6328H16.3848V32.6084H16.0859V31.6328Z" fill="white"/>
<path fill-rule="evenodd" clip-rule="evenodd" d="M16.0869 31.6328H16.3857V32.6084H16.0869V31.6328ZM12.6328 31.6328H12.9316V32.6084H12.6328V31.6328ZM15.1641 31.6328H15.4629V32.6084H15.1641V31.6328ZM13.9072 31.6328H14.2061V32.6084H13.9072V31.6328Z" fill="white"/>
<path fill-rule="evenodd" clip-rule="evenodd" d="M15.375 32.3193V32.6182H14.0391V32.3193H15.375ZM15.4629 31.5547V31.8535H14.6191V31.5547H15.4629Z" fill="white"/>
<path fill-rule="evenodd" clip-rule="evenodd" d="M19.6875 30.8516H24.0029V31.1416H19.6963L19.6875 30.8516ZM20.3379 32.3281H20.6279V32.6182H20.3379V32.3281ZM24.0117 32.3281V32.6182H23.1504V32.3193L24.0117 32.3281ZM24.4775 30.8516H24.7764V32.6094H24.4775V30.8516Z" fill="white"/>
<path fill-rule="evenodd" clip-rule="evenodd" d="M26.1982 32.3193V32.6182H24.5635V32.3193H26.1982ZM23.1484 31.625H23.4473V32.6182H23.1484V31.625Z" fill="white"/>
<path fill-rule="evenodd" clip-rule="evenodd" d="M25.9531 30.8516H26.252V32.6094H25.9531V30.8516ZM25.2061 30.8516H25.5049V32.6094H25.2061V30.8516ZM21.2686 31.5547V31.8535H19.6953V31.5547H21.2686ZM24.7227 31.5547V31.8535H23.1494V31.5547H24.7227Z" fill="white"/>
<path fill-rule="evenodd" clip-rule="evenodd" d="M23.1484 31.6328H23.4473V32.6084H23.1484V31.6328Z" fill="white"/>
<path fill-rule="evenodd" clip-rule="evenodd" d="M23.1484 31.6328H23.4473V32.6084H23.1484V31.6328Z" fill="white"/>
<path fill-rule="evenodd" clip-rule="evenodd" d="M23.1494 31.6328H23.4482V32.6084H23.1494V31.6328ZM19.6953 31.6328H19.9941V32.6084H19.6953V31.6328ZM22.2266 31.6328H22.5254V32.6084H22.2266V31.6328ZM20.9785 31.6328H21.2686V32.6084H20.9785V31.6328Z" fill="white"/>
<path fill-rule="evenodd" clip-rule="evenodd" d="M22.4365 32.3193V32.6182H21.1094V32.3193H22.4365ZM22.5244 31.5547V31.8535H21.6807V31.5547H22.5244Z" fill="white"/>
<path fill-rule="evenodd" clip-rule="evenodd" d="M26.7891 30.8516H31.0957V31.1416H26.7891V30.8516ZM27.4307 32.3281H27.7295V32.6182H27.4307V32.3281ZM31.1133 32.3281V32.6182H30.252V32.3193L31.1133 32.3281ZM31.5791 30.8516H31.8691V32.6094H31.5791V30.8516Z" fill="white"/>
<path fill-rule="evenodd" clip-rule="evenodd" d="M33.291 32.3193V32.6182H31.6563V32.3193H33.291ZM30.25 31.625H30.5488V32.6182H30.25V31.625Z" fill="white"/>
<path fill-rule="evenodd" clip-rule="evenodd" d="M33.0469 30.8516H33.3457V32.6094H33.0469V30.8516ZM32.3086 30.8516H32.6074V32.6094H32.3086V30.8516ZM28.3711 31.5547V31.8535H26.7891V31.5547H28.3711ZM31.8252 31.5547V31.8535H30.2432V31.5547H31.8252Z" fill="white"/>
<path fill-rule="evenodd" clip-rule="evenodd" d="M30.25 31.6328H30.5488V32.6084H30.25V31.6328Z" fill="white"/>
<path fill-rule="evenodd" clip-rule="evenodd" d="M30.25 31.6328H30.5488V32.6084H30.25V31.6328Z" fill="white"/>
<path fill-rule="evenodd" clip-rule="evenodd" d="M30.251 31.6328H30.5498V32.6084H30.251V31.6328ZM26.7969 31.6328H27.0869V32.6084H26.7969V31.6328ZM29.3281 31.6328H29.627V32.6084H29.3281V31.6328ZM28.0713 31.6328H28.3701V32.6084H28.0625L28.0713 31.6328Z" fill="white"/>
<path fill-rule="evenodd" clip-rule="evenodd" d="M29.5391 32.3193V32.6182H28.2031V32.3193H29.5391ZM29.627 31.5547V31.8535H28.7656V31.5547H29.627Z" fill="white"/>
<path fill-rule="evenodd" clip-rule="evenodd" d="M-9.375 0H69.375V14.7832H-9.375V0Z" fill="#239F40"/>
<path fill-rule="evenodd" clip-rule="evenodd" d="M33.9297 30.8516H38.2363V31.1416H33.9297V30.8516ZM34.5713 32.3281H34.8701V32.6182H34.5713V32.3281ZM38.2539 32.3281V32.6182H37.3838V32.3193L38.2539 32.3281ZM38.7197 30.8516H39.0098V32.6094H38.7197V30.8516Z" fill="white"/>
<path fill-rule="evenodd" clip-rule="evenodd" d="M40.4326 32.3193V32.6182H38.7979V32.3193H40.4326ZM37.3916 31.625H37.6904V32.6182H37.3828L37.3916 31.625Z" fill="white"/>
<path fill-rule="evenodd" clip-rule="evenodd" d="M40.1963 30.8516H40.4863V32.6094H40.1963V30.8516ZM39.4492 30.8516H39.748V32.6094H39.4492V30.8516ZM35.5117 31.5547V31.8535H33.9297V31.5547H35.5117ZM38.9658 31.5547V31.8535H37.3838V31.5547H38.9658Z" fill="white"/>
<path fill-rule="evenodd" clip-rule="evenodd" d="M37.3828 31.6328H37.6904V32.6084H37.3828V31.6328Z" fill="white"/>
<path fill-rule="evenodd" clip-rule="evenodd" d="M37.3828 31.6328H37.6904V32.6084H37.3828V31.6328Z" fill="white"/>
<path fill-rule="evenodd" clip-rule="evenodd" d="M37.3828 31.6328H37.6904V32.6084H37.3828V31.6328ZM33.9375 31.6328H34.2363V32.6084H33.9375V31.6328ZM36.4688 31.6328H36.7676V32.6084H36.4688V31.6328ZM35.2119 31.6328H35.5107V32.6084H35.2119V31.6328Z" fill="white"/>
<path fill-rule="evenodd" clip-rule="evenodd" d="M36.6797 32.3193V32.6182H35.3438V32.3193H36.6797ZM36.7676 31.5547V31.8535H35.9238V31.5547H36.7676Z" fill="white"/>
<path fill-rule="evenodd" clip-rule="evenodd" d="M41.0234 30.8516H45.3301V31.1416H41.0234V30.8516ZM41.665 32.3281H41.9639V32.6182H41.665V32.3281ZM45.3564 32.3281V32.6182H44.4863V32.3193L45.3564 32.3281ZM45.8135 30.8516H46.1123V32.6094H45.8135V30.8516Z" fill="white"/>
<path fill-rule="evenodd" clip-rule="evenodd" d="M47.5254 32.3193V32.6182H45.8906V32.3193H47.5254ZM44.4844 31.625H44.7832V32.6182H44.4844V31.625Z" fill="white"/>
<path fill-rule="evenodd" clip-rule="evenodd" d="M47.2891 30.8516H47.5791V32.6094H47.2891V30.8516ZM46.542 30.8516H46.8408V32.6094H46.542V30.8516ZM42.6045 31.5547V31.8535H41.0312V31.5547H42.6045ZM46.0586 31.5547V31.8535H44.4854V31.5547H46.0586Z" fill="white"/>
<path fill-rule="evenodd" clip-rule="evenodd" d="M44.4844 31.6328H44.7832V32.6084H44.4844V31.6328Z" fill="white"/>
<path fill-rule="evenodd" clip-rule="evenodd" d="M44.4844 31.6328H44.7832V32.6084H44.4844V31.6328Z" fill="white"/>
<path fill-rule="evenodd" clip-rule="evenodd" d="M44.4854 31.6328H44.7842V32.6084H44.4854V31.6328ZM41.0312 31.6328H41.3301V32.6084H41.0312V31.6328ZM43.5625 31.6328H43.8613V32.6084H43.5625V31.6328ZM42.3057 31.6328H42.6045V32.6084H42.3145L42.3057 31.6328Z" fill="white"/>
<path fill-rule="evenodd" clip-rule="evenodd" d="M43.7725 32.3193V32.6182H42.4453V32.3193H43.7725ZM43.8604 31.5547V31.8535H43.0078V31.5547H43.8604Z" fill="white"/>
<path fill-rule="evenodd" clip-rule="evenodd" d="M48.125 30.8516H52.4316V31.1416H48.125V30.8516ZM48.7666 32.3281H49.0654V32.6182H48.7666V32.3281ZM52.4492 32.3281V32.6182H51.5879V32.3193L52.4492 32.3281ZM52.9062 30.8516H53.2051V32.6094H52.9062V30.8516Z" fill="white"/>
<path fill-rule="evenodd" clip-rule="evenodd" d="M54.6279 32.3193V32.6182H52.9932V32.3193H54.6279ZM51.5781 31.625H51.877V32.6182H51.5781V31.625Z" fill="white"/>
<path fill-rule="evenodd" clip-rule="evenodd" d="M54.3828 30.8516H54.6816V32.6094H54.3828V30.8516ZM53.6445 30.8516H53.9346V32.6094H53.6445V30.8516ZM49.707 31.5547V31.8535H48.125V31.5547H49.707ZM53.1611 31.5547V31.8535H51.5791V31.5547H53.1611Z" fill="white"/>
<path fill-rule="evenodd" clip-rule="evenodd" d="M51.5859 31.6328H51.876V32.6084H51.5859V31.6328Z" fill="white"/>
<path fill-rule="evenodd" clip-rule="evenodd" d="M51.5859 31.6328H51.876V32.6084H51.5859V31.6328Z" fill="white"/>
<path fill-rule="evenodd" clip-rule="evenodd" d="M51.5879 31.6328H51.8779V32.6084H51.5879V31.6328ZM48.125 31.6328H48.4238V32.6084H48.125V31.6328ZM50.665 31.6328H50.9551V32.6084H50.665V31.6328ZM49.4082 31.6328H49.707V32.6084H49.4082V31.6328Z" fill="white"/>
<path fill-rule="evenodd" clip-rule="evenodd" d="M50.8662 32.3193V32.6182H49.5391V32.3193H50.8662ZM50.9541 31.5547V31.8535H50.1104V31.5547H50.9541Z" fill="white"/>
<path fill-rule="evenodd" clip-rule="evenodd" d="M55.2578 30.8516H59.5645V31.1416H55.2578V30.8516ZM55.8994 32.3281H56.1982V32.6182H55.8994V32.3281ZM59.582 32.3281V32.6182H58.7207V32.3193L59.582 32.3281ZM60.0391 30.8516H60.3379V32.6094H60.0391V30.8516Z" fill="white"/>
<path fill-rule="evenodd" clip-rule="evenodd" d="M61.7598 32.3193V32.6182H60.125V32.3193H61.7598ZM58.7188 31.625H59.0088V32.6182H58.7188V31.625Z" fill="white"/>
<path fill-rule="evenodd" clip-rule="evenodd" d="M61.5156 30.8516H61.8145V32.6094H61.5156V30.8516ZM60.7773 30.8516H61.0674V32.6094H60.7773V30.8516ZM56.8398 31.5547V31.8535H55.2578V31.5547H56.8398ZM60.2939 31.5547V31.8535H58.7119V31.5547H60.2939Z" fill="white"/>
<path fill-rule="evenodd" clip-rule="evenodd" d="M58.7188 31.6328H59.0088V32.6084H58.7188V31.6328Z" fill="white"/>
<path fill-rule="evenodd" clip-rule="evenodd" d="M58.7188 31.6328H59.0088V32.6084H58.7188V31.6328Z" fill="white"/>
<path fill-rule="evenodd" clip-rule="evenodd" d="M58.7197 31.6328H59.0098V32.6084H58.7197V31.6328ZM55.2656 31.6328H55.5557V32.6084H55.2656V31.6328ZM57.7969 31.6328H58.0957V32.6084H57.7969V31.6328ZM56.54 31.6328H56.8389V32.6084H56.54V31.6328Z" fill="white"/>
<path fill-rule="evenodd" clip-rule="evenodd" d="M57.999 32.3193V32.6182H56.6719V32.3193H57.999ZM58.0869 31.5547V31.8535H57.2432V31.5547H58.0869Z" fill="white"/>
<path fill-rule="evenodd" clip-rule="evenodd" d="M5.60156 12.6016H9.9082V12.9004H5.60156V12.6016ZM6.24316 14.0957H6.54199V14.377H6.24316V14.0957ZM9.92578 14.0781V14.377H9.06445V14.0781H9.92578ZM10.3828 12.6016H10.6816V14.377H10.3828V12.6016Z" fill="white"/>
<path fill-rule="evenodd" clip-rule="evenodd" d="M12.1045 14.0771V14.376H10.4697V14.0771H12.1045ZM9.06348 13.3828H9.34473V14.376H9.05469L9.06348 13.3828Z" fill="white"/>
<path fill-rule="evenodd" clip-rule="evenodd" d="M11.8594 12.6016H12.1582V14.377H11.8594V12.6016ZM11.1211 12.6016H11.4111V14.377H11.1211V12.6016ZM7.18359 13.3047V13.6035H5.60156V13.3135L7.18359 13.3047ZM10.6377 13.3047V13.6035H9.05566V13.3135L10.6377 13.3047Z" fill="white"/>
<path fill-rule="evenodd" clip-rule="evenodd" d="M9.06348 13.3828H9.34473V14.376H9.05469L9.06348 13.3828Z" fill="white"/>
<path fill-rule="evenodd" clip-rule="evenodd" d="M9.06348 13.3828H9.34473V14.376H9.05469L9.06348 13.3828Z" fill="white"/>
<path fill-rule="evenodd" clip-rule="evenodd" d="M9.06348 13.3828H9.34473V14.376H9.05469L9.06348 13.3828ZM5.60938 13.3828H5.89941V14.376H5.60938V13.3828ZM8.14062 13.3828H8.43945V14.376H8.14062V13.3828ZM6.88379 13.3828H7.18262V14.376H6.88379V13.3828Z" fill="white"/>
<path fill-rule="evenodd" clip-rule="evenodd" d="M8.34277 14.0771V14.376H7.01562V14.0771H8.34277ZM8.43066 13.3125V13.6025H7.58691V13.3125H8.43066Z" fill="white"/>
<path fill-rule="evenodd" clip-rule="evenodd" d="M-1.48438 12.6016H2.82227V12.9004H-1.48438V12.6016ZM-0.842774 14.0957H-0.543946V14.377H-0.851563L-0.842774 14.0957ZM2.83984 14.0781V14.377H1.97852V14.0781H2.83984ZM3.29687 12.6016H3.5957V14.377H3.29687V12.6016Z" fill="white"/>
<path fill-rule="evenodd" clip-rule="evenodd" d="M5.01758 14.0771V14.376H3.38281V14.0771H5.01758ZM1.97656 13.3828H2.2666V14.376H1.97656V13.3828Z" fill="white"/>
<path fill-rule="evenodd" clip-rule="evenodd" d="M4.77344 12.6016H5.07227V14.377H4.77344V12.6016ZM4.03516 12.6016H4.3252V14.377H4.03516V12.6016ZM0.0976562 13.3047V13.6035H-1.48438V13.3135L0.0976562 13.3047ZM3.55176 13.3047V13.6035H1.96973V13.3135L3.55176 13.3047Z" fill="white"/>
<path fill-rule="evenodd" clip-rule="evenodd" d="M1.97656 13.3828H2.2666V14.376H1.97656V13.3828Z" fill="white"/>
<path fill-rule="evenodd" clip-rule="evenodd" d="M1.97656 13.3828H2.2666V14.376H1.97656V13.3828Z" fill="white"/>
<path fill-rule="evenodd" clip-rule="evenodd" d="M1.97754 13.3828H2.26758V14.376H1.97754V13.3828ZM-1.47656 13.3828H-1.18652V14.376H-1.47656V13.3828ZM1.05469 13.3828H1.34473V14.376H1.05469V13.3828ZM-0.202148 13.3828H0.0966799V14.376H-0.202148V13.3828Z" fill="white"/>
<path fill-rule="evenodd" clip-rule="evenodd" d="M1.25586 14.0771V14.376H-0.0625V14.0771H1.25586ZM1.34375 13.3125V13.6025H0.5V13.3125H1.34375Z" fill="white"/>
<path fill-rule="evenodd" clip-rule="evenodd" d="M12.625 12.6016H16.9316V12.9004H12.625V12.6016ZM13.2666 14.0957H13.5654V14.377H13.2666V14.0957ZM16.9492 14.0781V14.377H16.0879V14.0781H16.9492ZM17.415 12.6016H17.7139V14.377H17.415V12.6016Z" fill="white"/>
<path fill-rule="evenodd" clip-rule="evenodd" d="M19.127 14.0771V14.376H17.4922V14.0771H19.127ZM16.0859 13.3828H16.3848V14.376H16.0859V13.3828Z" fill="white"/>
<path fill-rule="evenodd" clip-rule="evenodd" d="M18.8828 12.6016H19.1816V14.377H18.8828V12.6016ZM18.1445 12.6016H18.4434V14.377H18.1357L18.1445 12.6016ZM14.207 13.3047V13.6035H12.625V13.3135L14.207 13.3047ZM17.6611 13.3047V13.6035H16.0791V13.3135L17.6611 13.3047Z" fill="white"/>
<path fill-rule="evenodd" clip-rule="evenodd" d="M16.0859 13.3828H16.3848V14.376H16.0859V13.3828Z" fill="white"/>
<path fill-rule="evenodd" clip-rule="evenodd" d="M16.0859 13.3828H16.3848V14.376H16.0859V13.3828Z" fill="white"/>
<path fill-rule="evenodd" clip-rule="evenodd" d="M16.0869 13.3828H16.3857V14.376H16.0869V13.3828ZM12.6328 13.3828H12.9316V14.376H12.6328V13.3828ZM15.1641 13.3828H15.4629V14.376H15.1641V13.3828ZM13.9072 13.3828H14.2061V14.376H13.9072V13.3828Z" fill="white"/>
<path fill-rule="evenodd" clip-rule="evenodd" d="M15.375 14.0771V14.376H14.0391V14.0771H15.375ZM15.4629 13.3125V13.6025H14.6191V13.3125H15.4629Z" fill="white"/>
<path fill-rule="evenodd" clip-rule="evenodd" d="M19.6875 12.6016H24.0029V12.9004H19.6963L19.6875 12.6016ZM20.3379 14.0957H20.6279V14.377H20.3379V14.0957ZM24.0117 14.0781V14.377H23.1504V14.0781H24.0117ZM24.4775 12.6016H24.7764V14.377H24.4775V12.6016Z" fill="white"/>
<path fill-rule="evenodd" clip-rule="evenodd" d="M26.1982 14.0771V14.376H24.5635V14.0771H26.1982ZM23.1484 13.3828H23.4473V14.376H23.1484V13.3828Z" fill="white"/>
<path fill-rule="evenodd" clip-rule="evenodd" d="M25.9531 12.6016H26.252V14.377H25.9531V12.6016ZM25.2061 12.6016H25.5049V14.377H25.2061V12.6016ZM21.2686 13.3047V13.6035H19.6953V13.3135L21.2686 13.3047ZM24.7227 13.3047V13.6035H23.1494V13.3135L24.7227 13.3047Z" fill="white"/>
<path fill-rule="evenodd" clip-rule="evenodd" d="M23.1484 13.3828H23.4473V14.376H23.1484V13.3828Z" fill="white"/>
<path fill-rule="evenodd" clip-rule="evenodd" d="M23.1484 13.3828H23.4473V14.376H23.1484V13.3828Z" fill="white"/>
<path fill-rule="evenodd" clip-rule="evenodd" d="M23.1494 13.3828H23.4482V14.376H23.1494V13.3828ZM19.6953 13.3828H19.9941V14.376H19.6953V13.3828ZM22.2266 13.3828H22.5254V14.376H22.2266V13.3828ZM20.9785 13.3828H21.2686V14.376H20.9785V13.3828Z" fill="white"/>
<path fill-rule="evenodd" clip-rule="evenodd" d="M22.4365 14.0771V14.376H21.1094V14.0771H22.4365ZM22.5244 13.3125V13.6025H21.6807V13.3125H22.5244Z" fill="white"/>
<path fill-rule="evenodd" clip-rule="evenodd" d="M26.7891 12.6016H31.0957V12.9004H26.7891V12.6016ZM27.4307 14.0957H27.7295V14.377H27.4307V14.0957ZM31.1133 14.0781V14.377H30.252V14.0781H31.1133ZM31.5791 12.6016H31.8691V14.377H31.5791V12.6016Z" fill="white"/>
<path fill-rule="evenodd" clip-rule="evenodd" d="M33.291 14.0771V14.376H31.6563V14.0771H33.291ZM30.25 13.3828H30.5488V14.376H30.25V13.3828Z" fill="white"/>
<path fill-rule="evenodd" clip-rule="evenodd" d="M33.0469 12.6016H33.3457V14.377H33.0469V12.6016ZM32.3086 12.6016H32.6074V14.377H32.3086V12.6016ZM28.3711 13.3047V13.6035H26.7891V13.3135L28.3711 13.3047ZM31.8252 13.3047V13.6035H30.2432V13.3135L31.8252 13.3047Z" fill="white"/>
<path fill-rule="evenodd" clip-rule="evenodd" d="M30.25 13.3828H30.5488V14.376H30.25V13.3828Z" fill="white"/>
<path fill-rule="evenodd" clip-rule="evenodd" d="M30.25 13.3828H30.5488V14.376H30.25V13.3828Z" fill="white"/>
<path fill-rule="evenodd" clip-rule="evenodd" d="M30.251 13.3828H30.5498V14.376H30.251V13.3828ZM26.7969 13.3828H27.0869V14.376H26.7969V13.3828ZM29.3281 13.3828H29.627V14.376H29.3281V13.3828ZM28.0713 13.3828H28.3701V14.376H28.0625L28.0713 13.3828Z" fill="white"/>
<path fill-rule="evenodd" clip-rule="evenodd" d="M29.5391 14.0771V14.376H28.2031V14.0771H29.5391ZM29.627 13.3125V13.6025H28.7656V13.3125H29.627Z" fill="white"/>
<path fill-rule="evenodd" clip-rule="evenodd" d="M33.9297 12.6016H38.2363V12.9004H33.9297V12.6016ZM34.5713 14.0957H34.8701V14.377H34.5713V14.0957ZM38.2539 14.0781V14.377H37.3838V14.0781H38.2539ZM38.7197 12.6016H39.0098V14.377H38.7197V12.6016Z" fill="white"/>
<path fill-rule="evenodd" clip-rule="evenodd" d="M40.4326 14.0771V14.376H38.7979V14.0771H40.4326ZM37.3916 13.3828H37.6904V14.376H37.3828L37.3916 13.3828Z" fill="white"/>
<path fill-rule="evenodd" clip-rule="evenodd" d="M40.1963 12.6016H40.4863V14.377H40.1963V12.6016ZM39.4492 12.6016H39.748V14.377H39.4492V12.6016ZM35.5117 13.3047V13.6035H33.9297V13.3135L35.5117 13.3047ZM38.9658 13.3047V13.6035H37.3838V13.3135L38.9658 13.3047Z" fill="white"/>
<path fill-rule="evenodd" clip-rule="evenodd" d="M37.3828 13.3828H37.6904V14.376H37.3828V13.3828Z" fill="white"/>
<path fill-rule="evenodd" clip-rule="evenodd" d="M37.3828 13.3828H37.6904V14.376H37.3828V13.3828Z" fill="white"/>
<path fill-rule="evenodd" clip-rule="evenodd" d="M37.3828 13.3828H37.6904V14.376H37.3828V13.3828ZM33.9375 13.3828H34.2363V14.376H33.9375V13.3828ZM36.4688 13.3828H36.7676V14.376H36.4688V13.3828ZM35.2119 13.3828H35.5107V14.376H35.2119V13.3828Z" fill="white"/>
<path fill-rule="evenodd" clip-rule="evenodd" d="M36.6797 14.0771V14.376H35.3438V14.0771H36.6797ZM36.7676 13.3125V13.6025H35.9238V13.3125H36.7676Z" fill="white"/>
<path fill-rule="evenodd" clip-rule="evenodd" d="M41.0234 12.6016H45.3301V12.9004H41.0234V12.6016ZM41.665 14.0957H41.9639V14.377H41.665V14.0957ZM45.3564 14.0781V14.377H44.4863V14.0781H45.3564ZM45.8135 12.6016H46.1123V14.377H45.8135V12.6016Z" fill="white"/>
<path fill-rule="evenodd" clip-rule="evenodd" d="M47.5254 14.0771V14.376H45.8906V14.0771H47.5254ZM44.4844 13.3828H44.7832V14.376H44.4844V13.3828Z" fill="white"/>
<path fill-rule="evenodd" clip-rule="evenodd" d="M47.2891 12.6016H47.5791V14.377H47.2891V12.6016ZM46.542 12.6016H46.8408V14.377H46.542V12.6016ZM42.6045 13.3047V13.6035H41.0312V13.3135L42.6045 13.3047ZM46.0586 13.3047V13.6035H44.4854V13.3135L46.0586 13.3047Z" fill="white"/>
<path fill-rule="evenodd" clip-rule="evenodd" d="M44.4844 13.3828H44.7832V14.376H44.4844V13.3828Z" fill="white"/>
<path fill-rule="evenodd" clip-rule="evenodd" d="M44.4844 13.3828H44.7832V14.376H44.4844V13.3828Z" fill="white"/>
<path fill-rule="evenodd" clip-rule="evenodd" d="M44.4854 13.3828H44.7842V14.376H44.4854V13.3828ZM41.0312 13.3828H41.3301V14.376H41.0312V13.3828ZM43.5625 13.3828H43.8613V14.376H43.5625V13.3828ZM42.3057 13.3828H42.6045V14.376H42.3145L42.3057 13.3828Z" fill="white"/>
<path fill-rule="evenodd" clip-rule="evenodd" d="M43.7725 14.0771V14.376H42.4453V14.0771H43.7725ZM43.8604 13.3125V13.6025H43.0078V13.3125H43.8604Z" fill="white"/>
<path fill-rule="evenodd" clip-rule="evenodd" d="M48.125 12.6016H52.4316V12.9004H48.125V12.6016ZM48.7666 14.0957H49.0654V14.377H48.7666V14.0957ZM52.4492 14.0781V14.377H51.5879V14.0781H52.4492ZM52.9062 12.6016H53.2051V14.377H52.9062V12.6016Z" fill="white"/>
<path fill-rule="evenodd" clip-rule="evenodd" d="M54.6279 14.0771V14.376H52.9932V14.0771H54.6279ZM51.5781 13.3828H51.877V14.376H51.5781V13.3828Z" fill="white"/>
<path fill-rule="evenodd" clip-rule="evenodd" d="M54.3828 12.6016H54.6816V14.377H54.3828V12.6016ZM53.6445 12.6016H53.9346V14.377H53.6445V12.6016ZM49.707 13.3047V13.6035H48.125V13.3135L49.707 13.3047ZM53.1611 13.3047V13.6035H51.5791V13.3135L53.1611 13.3047Z" fill="white"/>
<path fill-rule="evenodd" clip-rule="evenodd" d="M51.5859 13.3828H51.876V14.376H51.5859V13.3828Z" fill="white"/>
<path fill-rule="evenodd" clip-rule="evenodd" d="M51.5859 13.3828H51.876V14.376H51.5859V13.3828Z" fill="white"/>
<path fill-rule="evenodd" clip-rule="evenodd" d="M51.5879 13.3828H51.8779V14.376H51.5879V13.3828ZM48.125 13.3828H48.4238V14.376H48.125V13.3828ZM50.665 13.3828H50.9551V14.376H50.665V13.3828ZM49.4082 13.3828H49.707V14.376H49.4082V13.3828Z" fill="white"/>
<path fill-rule="evenodd" clip-rule="evenodd" d="M50.8662 14.0771V14.376H49.5391V14.0771H50.8662ZM50.9541 13.3125V13.6025H50.1104V13.3125H50.9541Z" fill="white"/>
<path fill-rule="evenodd" clip-rule="evenodd" d="M55.2578 12.6016H59.5645V12.9004H55.2578V12.6016ZM55.8994 14.0957H56.1982V14.377H55.8994V14.0957ZM59.582 14.0781V14.377H58.7207V14.0781H59.582ZM60.0391 12.6016H60.3379V14.377H60.0391V12.6016Z" fill="white"/>
<path fill-rule="evenodd" clip-rule="evenodd" d="M61.7598 14.0771V14.376H60.125V14.0771H61.7598ZM58.7188 13.3828H59.0088V14.376H58.7188V13.3828Z" fill="white"/>
<path fill-rule="evenodd" clip-rule="evenodd" d="M61.5156 12.6016H61.8145V14.377H61.5156V12.6016ZM60.7773 12.6016H61.0674V14.377H60.7773V12.6016ZM56.8398 13.3047V13.6035H55.2578V13.3135L56.8398 13.3047ZM60.2939 13.3047V13.6035H58.7119V13.3135L60.2939 13.3047Z" fill="white"/>
<path fill-rule="evenodd" clip-rule="evenodd" d="M58.7188 13.3828H59.0088V14.376H58.7188V13.3828Z" fill="white"/>
<path fill-rule="evenodd" clip-rule="evenodd" d="M58.7188 13.3828H59.0088V14.376H58.7188V13.3828Z" fill="white"/>
<path fill-rule="evenodd" clip-rule="evenodd" d="M58.7197 13.3828H59.0098V14.376H58.7197V13.3828ZM55.2656 13.3828H55.5557V14.376H55.2656V13.3828ZM57.7969 13.3828H58.0957V14.376H57.7969V13.3828ZM56.54 13.3828H56.8389V14.376H56.54V13.3828Z" fill="white"/>
<path fill-rule="evenodd" clip-rule="evenodd" d="M57.999 14.0771V14.376H56.6719V14.0771H57.999ZM58.0869 13.3125V13.6025H57.2432V13.3125H58.0869Z" fill="white"/>
<path fill-rule="evenodd" clip-rule="evenodd" d="M1.45312 29.8398H1.98047V30.7627H1.45312V29.8398ZM15.5596 29.8398H16.0869V30.7627H15.5596V29.8398ZM-9.375 29.8398H-8.84766V30.7627H-9.375V29.8398ZM-2.21191 29.8398H-1.68457V30.7627H-2.21191V29.8398ZM4.89844 29.8398H5.42578V30.7627H4.89844V29.8398ZM8.41406 29.8398H8.94141V30.7627H8.41406V29.8398ZM12.0088 29.8398H12.5361V30.7627H12.0088V29.8398ZM19.0752 29.8398H19.6025V30.7627H19.0752V29.8398ZM36.917 29.8398H37.4531V30.7627H36.9258L36.917 29.8398ZM22.6699 29.8398H23.1973V30.7627H22.6699V29.8398ZM26.1855 29.8398H26.7129V30.7627H26.1855V29.8398ZM29.7451 29.8398H30.2725V30.7627H29.7451V29.8398ZM33.2959 29.8398H33.8232V30.7627H33.2959V29.8398ZM61.7021 29.8398H62.2295V30.7627H61.7021V29.8398ZM40.3711 29.8398H40.8984V30.7627H40.3711V29.8398ZM43.957 29.8398H44.4844V30.7627H43.957V29.8398ZM47.5869 29.8398H48.1143V30.7627H47.5869V29.8398ZM50.9971 29.8398H51.5244V30.7627H50.9971V29.8398ZM54.627 29.8398H55.1543V30.7627H54.627V29.8398ZM58.1777 29.8398H58.7051V30.7627H58.1777V29.8398ZM68.6982 29.8398H69.2256V30.7627H68.6982V29.8398ZM65.2881 29.8398H65.8154V30.7627H65.2881V29.8398ZM-5.80664 29.8398H-5.2793V30.7627H-5.80664V29.8398Z" fill="#D90000"/>
<path fill-rule="evenodd" clip-rule="evenodd" d="M1.45312 14.2891H1.98047V15.2119H1.45312V14.2891ZM15.5596 14.2891H16.0869V15.2119H15.5596V14.2891ZM-9.375 14.2891H-8.84766V15.2119H-9.375V14.2891ZM-2.21191 14.2891H-1.68457V15.2119H-2.21191V14.2891ZM4.89844 14.2891H5.42578V15.2119H4.89844V14.2891ZM8.41406 14.2891H8.94141V15.2119H8.41406V14.2891ZM12.0088 14.2891H12.5361V15.2119H12.0088V14.2891ZM19.0752 14.2891H19.6025V15.2119H19.0752V14.2891ZM36.917 14.2891H37.4531V15.2119H36.9258L36.917 14.2891ZM22.6699 14.2891H23.1973V15.2119H22.6699V14.2891ZM26.1855 14.2891H26.7129V15.2119H26.1855V14.2891ZM29.7451 14.2891H30.2725V15.2119H29.7451V14.2891ZM33.2959 14.2891H33.8232V15.2119H33.2959V14.2891ZM61.7021 14.2891H62.2295V15.2119H61.7021V14.2891ZM40.3711 14.2891H40.8984V15.2119H40.3711V14.2891ZM43.957 14.2891H44.4844V15.2119H43.957V14.2891ZM47.5869 14.2891H48.1143V15.2119H47.5869V14.2891ZM50.9971 14.2891H51.5244V15.2119H50.9971V14.2891ZM54.627 14.2891H55.1543V15.2119H54.627V14.2891ZM58.1777 14.2891H58.7051V15.2119H58.1777V14.2891ZM68.6982 14.2891H69.2256V15.2119H68.6982V14.2891ZM65.2881 14.2891H65.8154V15.2119H65.2881V14.2891ZM-5.80664 14.2891H-5.2793V15.2119H-5.80664V14.2891Z" fill="#239E3F"/>
<path fill-rule="evenodd" clip-rule="evenodd" d="M32.0928 17.3594C32.8311 18.2734 35.1251 23.3008 30.7129 26.6055C28.6299 28.1699 29.9219 28.2402 29.9835 28.5039C33.3233 26.7373 34.4043 24.3291 34.378 22.1758C34.3604 20.0312 33.2178 18.1328 32.0928 17.3594Z" fill="#DA0000"/>
<path fill-rule="evenodd" clip-rule="evenodd" d="M32.5301 17.1211C33.3455 17.6173 34.0405 18.2885 34.5648 19.0862C35.0891 19.8839 35.4296 20.7881 35.5616 21.7335C35.6937 22.6788 35.614 23.6418 35.3284 24.5526C35.0427 25.4634 34.5582 26.2994 33.9099 27C36.3006 26.4727 39.3592 19.4062 32.5301 17.1211V17.1211ZM27.4676 17.1211C26.6527 17.618 25.9585 18.2898 25.4351 19.0879C24.9116 19.8859 24.572 20.7903 24.4408 21.7356C24.3096 22.6809 24.3901 23.6436 24.6764 24.5541C24.9627 25.4645 25.4478 26.2999 26.0965 27C23.697 26.4727 20.6472 19.4062 27.4676 17.1211V17.1211Z" fill="#DA0000"/>
<path fill-rule="evenodd" clip-rule="evenodd" d="M27.9106 17.3594C27.1723 18.2734 24.8784 23.3008 29.2905 26.6055C31.3647 28.1699 30.0815 28.2402 30.02 28.5039C26.6802 26.7373 25.5991 24.3291 25.6255 22.1758C25.643 20.0312 26.7856 18.1328 27.9106 17.3594Z" fill="#DA0000"/>
<path fill-rule="evenodd" clip-rule="evenodd" d="M34.2324 28.0459C32.9229 28.0635 31.2793 27.8701 30.0576 27.2285C30.2598 27.624 30.4268 27.8701 30.6289 28.2568C31.7891 28.3711 33.3975 28.5029 34.2324 28.0459ZM25.8828 28.0459C27.1924 28.0635 28.8359 27.8701 30.0576 27.2285C29.8555 27.624 29.6885 27.8701 29.4863 28.2568C28.3262 28.3711 26.7178 28.5029 25.8828 28.0459ZM28.2822 15.8555C28.5459 16.5586 29.2402 16.6641 29.9785 16.251C30.5234 16.5674 31.3584 16.5938 31.6484 15.8906C31.8682 17.6309 30.04 17.209 29.9785 16.875C29.293 17.5342 28.0273 17.1562 28.2822 15.8555Z" fill="#DA0000"/>
<path fill-rule="evenodd" clip-rule="evenodd" d="M30.0322 29.1455L30.7178 28.3545L30.8145 17.7988L29.9971 17.0781L29.1797 17.7637L29.3467 28.3984L30.0322 29.1455Z" fill="#DA0000"/>
</g>
<defs>
<clipPath id="clip0_4046_22283">
<rect width="60" height="45" fill="white"/>
</clipPath>
</defs>
</svg>
