<svg width="60" height="45" viewBox="0 0 60 45" fill="none" xmlns="http://www.w3.org/2000/svg">
<g clip-path="url(#clip0_4046_22482)">
<path d="M0 0H60V45H0V0Z" fill="white"/>
<path fill-rule="evenodd" clip-rule="evenodd" d="M-7.5 0V3L25.35 22.5L-7.35 42V45H-2.55L30.15 25.5L62.7 45H67.5V42L34.95 22.5L67.65 3V0H62.7L30 19.5L-2.55 0H-7.35H-7.5Z" fill="#DF112D"/>
<path d="M33.9046 6.74959C34.9546 10.6496 34.3546 15.4496 30.0046 18.1496C25.6546 15.4496 25.0546 10.6496 26.1046 6.74959C27.1546 5.84959 31.8046 5.24959 33.9046 6.74959Z" fill="#E8112D"/>
<path d="M30.0031 6.00078C31.5031 6.00078 32.7031 6.30078 33.9031 6.90078C34.1191 5.60125 34.6325 4.3692 35.4031 3.30078C34.6531 3.30078 34.3531 3.60078 34.3531 4.05078C34.2031 3.60078 33.4531 3.60078 33.1531 3.90078C34.0531 4.35078 33.4531 5.40078 32.7031 5.25078C32.2531 5.10078 32.1031 4.80078 32.1031 4.50078C32.2144 4.48198 32.3145 4.42206 32.3837 4.33291C32.4528 4.24376 32.486 4.13188 32.4765 4.01944C32.4671 3.90701 32.4158 3.80222 32.3327 3.72584C32.2497 3.64946 32.141 3.60708 32.0281 3.60708C31.9153 3.60708 31.8066 3.64946 31.7235 3.72584C31.6405 3.80222 31.5891 3.90701 31.5797 4.01944C31.5703 4.13188 31.6034 4.24376 31.6726 4.33291C31.7417 4.42206 31.8419 4.48198 31.9531 4.50078C31.6762 4.7834 31.2988 4.94515 30.9031 4.95078C30.7309 4.86933 30.584 4.74253 30.4783 4.58399C30.3726 4.42544 30.3121 4.24112 30.3031 4.05078C30.3031 3.30078 31.2031 3.15078 31.3531 3.30078C31.3531 2.85078 30.4531 2.25078 30.3031 2.85078C30.458 2.55952 30.5126 2.22531 30.4583 1.89991C30.4041 1.57452 30.2441 1.27607 30.0031 1.05078C29.7945 1.26465 29.6544 1.53597 29.601 1.82994C29.5475 2.12391 29.5831 2.42715 29.7031 2.70078C29.4031 2.25078 28.6531 2.70078 28.6531 3.30078C28.8031 3.15078 29.5531 3.30078 29.5531 4.05078C29.5531 4.35078 29.5531 4.80078 29.1031 4.80078C28.9194 4.87279 28.7171 4.88243 28.5274 4.82823C28.3377 4.77402 28.1711 4.65897 28.0531 4.50078L28.3531 4.35078C28.4389 4.30125 28.506 4.2248 28.5439 4.13328C28.5818 4.04176 28.5884 3.94029 28.5628 3.8446C28.5372 3.74892 28.4807 3.66437 28.4021 3.60406C28.3235 3.54376 28.2272 3.51107 28.1281 3.51107C28.0291 3.51107 27.9328 3.54376 27.8542 3.60406C27.7756 3.66437 27.7191 3.74892 27.6935 3.8446C27.6678 3.94029 27.6745 4.04176 27.7124 4.13328C27.7503 4.2248 27.8173 4.30125 27.9031 4.35078C27.9031 4.80078 27.6031 5.10078 27.3031 5.10078C27.1457 5.10078 26.9923 5.05125 26.8646 4.95921C26.7369 4.86717 26.6414 4.73729 26.5916 4.58795C26.5418 4.43862 26.5403 4.27741 26.5872 4.12716C26.6342 3.9769 26.7272 3.84523 26.8531 3.75078C26.5531 3.45078 25.8031 3.45078 25.6531 4.05078C25.6531 3.60078 25.3531 3.30078 24.4531 3.30078C25.2238 4.3692 25.7371 5.60125 25.9531 6.90078C27.1997 6.2476 28.5973 5.93703 30.0031 6.00078V6.00078Z" fill="#F9DD16"/>
<path d="M33.45 9.90182H33.15H33.6C33.75 9.90182 33.9 9.75182 33.75 9.60182H34.05L33.75 9.30182H34.05L33.75 9.00182H33.9C33.8737 8.95622 33.8598 8.90448 33.8598 8.85182C33.8598 8.79916 33.8737 8.74743 33.9 8.70182H32.85L32.1 8.55182L33 8.10182C33 7.80182 32.55 7.35182 31.8 7.65182L30.15 7.50182L31.2 7.20182L32.4 7.05182H31.35C30.9 7.05182 29.85 6.90182 29.85 7.50182C29.85 8.10182 30.9 7.95182 31.95 7.80182L32.85 7.95182L31.95 8.25182C31.5058 8.14926 31.0442 8.14926 30.6 8.25182H29.55C29.25 8.25182 28.8 8.25182 28.5 7.95182C28.5 7.95182 27.9 8.25182 27.9 8.55182V9.00182C28.2 9.30182 27.9 9.15182 27.6 9.15182L26.85 9.00182C26.7 8.70182 26.55 8.55182 26.25 8.70182V9.00182H26.55C26.5044 8.97549 26.4527 8.96163 26.4 8.96163C26.3473 8.96163 26.2956 8.97549 26.25 9.00182V9.30182H26.7H26.4V9.45182H27C26.9204 9.45182 26.8441 9.48343 26.7879 9.53969C26.7316 9.59595 26.7 9.67226 26.7 9.75182C26.85 9.60182 27 9.75182 27.3 9.75182L27 9.90182C27.15 9.90182 28.05 10.0518 28.05 9.75182V9.90182C28.05 9.90182 28.5 9.90182 28.5 9.60182V9.90182C28.5 9.90182 28.8 9.90182 28.95 9.60182V9.30182H29.7C30 9.00182 30.15 9.30182 30.3 9.15182H30.6C30.75 9.15182 30.9 9.15182 31.05 8.85182C31.35 9.00182 31.8 9.15182 32.7 9.00182C33.15 9.00182 33.45 9.15182 33.45 9.45182H32.7C32.7 9.45182 32.55 9.60182 32.7 9.75182C32.85 9.90182 32.7 9.75182 32.85 9.75182C32.85 9.75182 32.7 9.90182 32.85 10.0518L33.3 9.90182H33.45ZM27.45 7.35182V7.50182L27.6 7.80182L27.75 7.35182H27.45Z" fill="#F9DD16"/>
<path d="M28.5 7.50156C28.65 7.35156 28.8 7.35156 28.8 7.50156L28.65 7.80156L28.5 7.35156V7.50156Z" fill="#F9DD16"/>
<path d="M28.0531 7.20312C28.5031 7.20312 28.6531 7.50313 28.6531 7.80313L28.3531 8.40313L28.0531 8.55313L27.7531 8.40313C27.7531 7.95313 27.4531 8.10313 27.4531 7.80313C27.4531 7.50313 27.4531 7.20312 28.0531 7.20312V7.20312Z" fill="#F9DD16"/>
<path d="M26.8516 8.40216H26.5516C26.7016 8.40216 26.7016 8.70216 27.1516 8.70216H26.8516C27.0016 8.70216 27.1516 9.00216 27.6016 9.00216C27.7516 9.00216 27.6016 9.00216 27.6016 9.00216C27.6016 9.15216 27.9016 9.00216 28.0516 9.30216C28.0516 9.15216 27.7516 8.85216 28.0516 8.55216C27.4516 8.55216 27.3016 8.25216 27.1516 8.10216C26.8516 7.95216 26.8516 7.65216 26.7016 7.35216C26.7016 7.35216 26.5516 7.05216 26.4016 7.20216V7.50216H26.2516C26.4016 7.50216 26.2516 7.80216 26.5516 7.95216C26.4016 7.80216 26.2516 7.65216 26.1016 7.80216H26.2516L26.8516 8.40216V8.40216ZM30.7516 9.90216H31.5016L31.8016 9.75216V9.45216C31.6516 9.45216 31.5016 9.30216 31.6516 9.15216C31.2016 8.55216 30.3016 8.85216 30.3016 9.15216L30.9016 9.45216H31.0516H30.0016L30.1516 9.60216L29.8516 9.75216C29.8516 10.0522 30.1516 9.75216 30.1516 9.75216V9.90216C30.1516 9.90216 30.1516 10.0522 30.3016 9.90216C30.3986 9.86784 30.5045 9.86784 30.6016 9.90216H30.7516Z" fill="#F9DD16"/>
<path d="M28.05 8.40156H28.2V8.10156H27.75V8.25156L28.05 8.40156V8.40156Z" fill="#FF0016"/>
<path d="M26.4031 7.19948C26.4031 7.04948 26.1031 7.19948 26.1031 7.19948H26.4031ZM26.4031 7.34948L25.9531 7.49948H26.2531L26.4031 7.34948ZM26.4031 7.79948H25.9531H26.2531H26.4031ZM26.4031 8.84948C26.2531 8.84948 26.1031 8.84948 26.1031 9.14948C26.1031 8.99948 26.2531 9.14948 26.4031 9.14948V8.84948ZM26.4031 9.14948L26.1031 9.44948L26.4031 9.29948V8.99948V9.14948ZM26.4031 9.29948C26.4031 9.29948 26.2531 9.44948 26.4031 9.59948V9.14948V9.29948ZM30.1531 9.74948C30.0031 9.74948 29.8531 9.74948 29.8531 10.0495L30.1531 9.89948V9.74948V9.74948ZM30.3031 9.74948C30.1531 9.74948 30.0031 10.0495 30.1531 10.1995L30.3031 10.0495V9.89948V9.74948ZM30.3031 9.44948C30.0031 9.44948 29.8531 9.44948 29.8531 9.74948L30.1531 9.59948L30.3031 9.44948ZM32.7031 9.74948C32.7031 9.74948 32.4031 9.89948 32.5531 10.0495L32.7031 9.89948V9.74948V9.74948ZM32.7031 9.59948L32.4031 9.74948H32.7031V9.29948V9.59948ZM32.7031 9.89948C32.7031 9.89948 32.5531 10.1995 32.7031 10.1995H32.8531V9.74948L32.7031 9.89948ZM28.2031 8.39948V8.99948C27.9031 8.99948 27.9031 8.99948 27.9031 8.69948V8.39948H28.0531H28.2031Z" fill="#0051BA"/>
<path d="M32.8547 13.0516H33.1547C33.1547 13.0516 33.3047 13.0516 33.1547 12.9016H33.4547L33.3047 12.6016H33.4547L33.3047 12.3016C33.2784 12.256 33.2645 12.2042 33.2645 12.1516C33.2645 12.0989 33.2784 12.0472 33.3047 12.0016H32.5547L31.8047 11.8516C32.2547 12.0016 32.7047 11.7016 32.7047 11.4016C32.7047 11.1016 32.2547 10.8016 31.6547 11.1016L30.0047 10.9516L30.9047 10.6516H32.1047L31.0547 10.5016C30.6047 10.3516 29.7047 10.5016 29.7047 10.9516C29.7047 11.4016 30.7547 11.4016 31.6547 11.2516H32.4047L31.6547 11.5516C31.2598 11.4615 30.8496 11.4615 30.4547 11.5516L29.4047 11.7016C29.2547 11.7016 28.8047 11.7016 28.5047 11.4016L27.9047 11.8516L28.0547 12.4516C28.2047 12.6016 28.0547 12.4516 27.7547 12.4516H27.0047C27.0047 12.1516 26.7047 12.0016 26.5547 12.1516V12.3016H26.8547C26.8091 12.2752 26.7573 12.2614 26.7047 12.2614C26.652 12.2614 26.6003 12.2752 26.5547 12.3016V12.6016H26.8547H26.7047C27.0047 12.6016 27.0047 12.9016 27.1547 12.7516C27.1055 12.7389 27.0539 12.7389 27.0047 12.7516C27.0047 12.7516 27.3047 13.0516 27.4547 12.9016L27.3047 13.2016C27.3047 13.0516 28.2047 13.2016 28.2047 12.9016V13.2016C28.2047 13.2016 28.5047 13.2016 28.6547 12.9016H28.9547V12.6016H29.2547L29.7047 12.4516H30.4547C30.6047 12.4516 30.7547 12.4516 30.9047 12.1516C31.2047 12.3016 31.5047 12.4516 32.4047 12.3016C32.7047 12.3016 32.8547 12.3016 32.8547 12.6016V12.7516H32.2547V13.0516C32.2547 13.2016 32.4047 13.0516 32.5547 13.0516C32.4047 13.0516 32.2547 13.0516 32.4047 13.2016H32.5547L32.8547 13.0516V13.0516ZM27.7547 10.8016H27.4547L27.6047 11.2516L27.7547 10.8016V10.8016Z" fill="#F9DD16"/>
<path d="M28.5078 10.8008H28.8078L28.6578 11.2508L28.5078 10.8008Z" fill="#F9DD16"/>
<path d="M28.2094 10.6523C28.6594 10.6523 28.6594 10.9523 28.6594 11.2523C28.6594 11.5523 28.5094 11.2523 28.3594 11.7023L28.0594 11.8523H27.9094C27.9094 11.4023 27.6094 11.4023 27.6094 11.2523C27.6094 11.1023 27.6094 10.6523 28.2094 10.6523V10.6523Z" fill="#F9DD16"/>
<path d="M27.0062 11.7023H26.8563C26.8563 11.7023 26.8562 12.0023 27.3062 12.0023H27.0062L27.6063 12.3023C27.9063 12.3023 27.6063 12.3023 27.6063 12.3023L28.2062 12.6023C28.2062 12.3023 27.9062 12.1523 28.0562 11.8523C27.6062 11.8523 27.4562 11.5523 27.3062 11.4023C27.0062 11.4023 27.0062 11.1023 27.0062 10.8023L26.7062 10.6523C26.7062 10.6523 26.5562 10.6523 26.7062 10.6523V10.9523H26.5562L26.7062 11.2523H26.4062C26.7063 11.2523 26.8562 11.7023 27.0062 11.7023V11.7023ZM30.6063 13.0523H30.4562H31.6562V12.7523C31.5062 12.7523 31.3562 12.6023 31.5062 12.3023C31.0562 11.8523 30.3062 12.1523 30.3062 12.3023L30.9062 12.6023C30.9062 12.6023 31.2063 12.6023 30.9062 12.7523H30.6063C30.3063 12.7523 30.1562 12.6023 30.0062 12.7523V13.0523H30.1562C30.1562 13.0523 30.1562 13.2023 30.3062 13.0523C30.4033 13.018 30.5092 13.018 30.6063 13.0523V13.0523Z" fill="#F9DD16"/>
<path d="M28.2062 11.8523V11.7023C28.2062 11.7023 28.3562 11.5523 28.2062 11.4023C28.3562 11.5523 28.2062 11.5523 28.2062 11.4023C28.2062 11.5523 27.9062 11.5523 27.9062 11.4023V11.7023H28.2062V11.8523Z" fill="#FF0016"/>
<path d="M28.05 11.5523L27.75 11.4023ZM28.05 11.4023H27.75ZM28.05 11.4023L27.75 11.5523ZM28.2 11.5523L28.5 11.4023ZM28.2 11.4023H28.5ZM28.2 11.4023L28.5 11.5523Z" fill="black"/>
<path d="M26.7 10.5L26.4 10.65H26.7V10.5ZM26.7 10.8L26.25 10.95H26.55L26.7 10.8ZM26.55 11.25C26.55 11.1 26.25 11.25 26.25 11.25H26.55ZM26.55 12.15L26.25 12.3H26.7L26.55 12.15ZM26.55 12.45C26.55 12.45 26.25 12.45 26.55 12.75V12.45ZM26.85 12.45L26.55 12.9L26.85 12.75V12.6V12.45ZM29.85 12.9C29.85 12.9 29.7 12.9 29.85 13.2L30 13.05V12.9H29.85ZM30.15 13.05C30.15 13.05 29.85 13.2 30 13.35L30.15 13.2V13.05ZM30.15 12.6C30 12.6 29.7 12.75 29.85 12.9H30V12.75L30.15 12.6ZM32.25 13.05C32.25 13.05 32.1 13.05 32.25 13.2V12.9V13.05ZM32.25 12.75L32.1 12.9H32.4V12.75H32.25ZM32.4 13.2C32.4 13.2 32.25 13.2 32.4 13.35V13.2ZM28.2 11.7V12.3V12C28.2 11.85 28.2 11.7 28.05 11.85V11.7H28.2Z" fill="#0051BA"/>
<path d="M32.8488 15.6458C32.7648 15.6458 32.7648 15.7583 32.7438 15.7583C32.9118 15.7583 32.9958 15.6908 33.0378 15.6008V15.7358C33.1638 15.6908 33.2058 15.5783 33.1638 15.5108L33.3108 15.5558C33.2268 15.4883 33.2898 15.3308 33.1428 15.2408C33.1848 15.2408 33.2688 15.2858 33.3108 15.3533C33.2898 15.1958 33.2688 15.1058 33.1428 15.0158H33.2478C33.2204 14.9962 33.1982 14.9693 33.1835 14.9377C33.1688 14.9062 33.162 14.871 33.1638 14.8358C33.1638 14.7458 33.1218 14.7458 33.0378 14.7683L32.6598 14.7908C32.4498 14.7908 32.2398 14.7908 32.0718 14.6558C32.3448 14.7908 32.7018 14.5208 32.7018 14.3183C32.7018 14.0933 32.4078 13.8683 31.8618 14.0033C31.3158 14.1383 30.6438 14.0933 30.6438 13.8908C30.6438 13.6883 31.1268 13.6658 31.3788 13.7108C31.6308 13.7558 31.7988 13.7783 32.2608 13.5983C32.1558 13.6433 31.7778 13.6658 31.4838 13.5758C31.1898 13.4858 30.4758 13.4858 30.4758 13.8908C30.4758 14.3183 31.2318 14.2733 31.9038 14.1608C32.2818 14.1158 32.4918 14.1608 32.4918 14.2733C32.4918 14.4083 32.1348 14.4533 31.8618 14.4308C31.5736 14.3891 31.2804 14.4121 31.0008 14.4983C30.7278 14.5883 30.5388 14.4983 30.2448 14.5658C30.0978 14.5658 29.7408 14.5658 29.5728 14.2508C29.4678 14.3408 29.1528 14.4983 29.0898 14.6783C29.0268 14.8133 29.0898 14.9708 29.1738 15.1283C29.2998 15.3083 29.1108 15.2858 28.9638 15.2858C28.7958 15.2858 28.5438 15.2858 28.4178 15.1058C28.2918 14.9708 28.1448 14.8583 28.0188 14.9483C27.9558 15.0158 28.0188 15.0833 28.0608 15.0608L28.2288 15.1058C28.1951 15.0893 28.1579 15.0828 28.121 15.0867C28.0841 15.0907 28.0489 15.105 28.0188 15.1283C27.9558 15.1733 28.0188 15.2633 28.0818 15.2408C28.1238 15.2183 28.2288 15.1958 28.2918 15.2408C28.2288 15.2408 28.1448 15.2408 28.1238 15.2858C28.1028 15.3308 28.1238 15.3758 28.1868 15.3758C28.3128 15.3758 28.3338 15.4658 28.4598 15.4433C28.4305 15.445 28.4019 15.454 28.3764 15.4697C28.3509 15.4853 28.3291 15.5071 28.3128 15.5333C28.4388 15.4658 28.5438 15.6233 28.6908 15.5783C28.6488 15.6008 28.5438 15.6683 28.5438 15.7133C28.6278 15.6008 29.2158 15.8033 29.2158 15.5558L29.1948 15.7358C29.2578 15.6908 29.4888 15.6683 29.5728 15.5108C29.5728 15.5558 29.5728 15.6233 29.5308 15.6458C29.5938 15.6458 29.6988 15.6008 29.8038 15.4433C29.8458 15.3758 29.8458 15.3308 29.8458 15.2858C29.9508 15.2858 30.0138 15.2633 30.0978 15.1958C30.1818 15.1283 30.2658 15.2633 30.4128 15.1508C30.5388 15.0608 30.6648 15.1508 30.7488 15.1058C30.8118 15.0608 30.9168 15.1058 31.0008 15.0608C31.0848 15.0158 31.2108 15.0833 31.3368 14.9708C31.5468 15.0608 31.8198 15.1958 32.4288 15.0833C32.7648 15.0158 32.8908 15.1508 32.8908 15.3083C32.8908 15.4433 32.8068 15.4433 32.7648 15.4433C32.5548 15.4658 32.4918 15.3758 32.4078 15.3983C32.3658 15.4208 32.3238 15.5108 32.4078 15.5558C32.3448 15.5783 32.3448 15.6458 32.3868 15.6683C32.4288 15.6908 32.4918 15.6683 32.5548 15.6458C32.4708 15.6683 32.4078 15.7358 32.4498 15.8033C32.4708 15.8483 32.5338 15.8708 32.5968 15.8033C32.6598 15.7133 32.7648 15.6458 32.8488 15.6458V15.6458ZM28.9428 13.8458C28.7748 13.7783 28.7328 13.7783 28.7538 13.9358C28.7538 14.0033 28.8168 14.0933 28.8588 14.1383C28.8588 14.0708 28.8798 13.9133 28.9428 13.8683V13.8458Z" fill="#F9DD16"/>
<path fill-rule="evenodd" clip-rule="evenodd" d="M30.8707 13.5361C31.0877 13.4964 31.3414 13.519 31.4901 13.5645C31.6357 13.6091 31.8026 13.6259 31.9463 13.6259C32.0181 13.6259 32.0839 13.6217 32.1382 13.6148C32.1854 13.6087 32.2233 13.6006 32.2487 13.5917C32.2525 13.5902 32.2562 13.5888 32.26 13.5873L32.2682 13.6074C32.2645 13.609 32.2606 13.6105 32.2563 13.612C32.0311 13.6991 31.8756 13.7377 31.7451 13.7489C31.6123 13.7603 31.5061 13.7431 31.38 13.7206C31.2551 13.6983 31.0726 13.6927 30.9217 13.7178C30.8462 13.7304 30.7795 13.7505 30.732 13.7793C30.6846 13.8081 30.6578 13.8445 30.6578 13.8899C30.6578 13.9335 30.6939 13.9717 30.7647 14.0019C30.8347 14.0319 30.9345 14.0521 31.0521 14.0619C31.2871 14.0815 31.5904 14.0591 31.8623 13.9919C32.137 13.924 32.3497 13.9462 32.4943 14.0151C32.639 14.084 32.7158 14.1998 32.7158 14.3174C32.7158 14.3711 32.6922 14.4282 32.6536 14.481C32.615 14.5339 32.5608 14.5834 32.498 14.622C32.396 14.6848 32.2699 14.7198 32.1504 14.6931C32.3018 14.7787 32.4803 14.7791 32.6626 14.7791L33.0392 14.7566C33.0598 14.7511 33.0785 14.7468 33.0948 14.745C33.1113 14.7432 33.1265 14.7437 33.1395 14.7489C33.1672 14.7601 33.1778 14.7893 33.1778 14.8349V14.8355C33.176 14.869 33.1824 14.9024 33.1964 14.9323C33.2104 14.9622 33.2314 14.9876 33.2572 15.0061L33.2849 15.0258H33.1782C33.2271 15.0655 33.2582 15.1064 33.2792 15.154C33.3035 15.209 33.3142 15.2723 33.3247 15.351L33.3047 15.3582C33.2848 15.3261 33.2546 15.2991 33.2241 15.2801C33.2142 15.2739 33.2045 15.2686 33.1952 15.2644C33.2381 15.3066 33.2537 15.3567 33.2641 15.4035C33.2662 15.4128 33.2681 15.4219 33.2699 15.4307C33.2739 15.4506 33.2777 15.4692 33.2832 15.4866C33.2911 15.5111 33.302 15.5314 33.3207 15.5465L33.3107 15.5653L33.1872 15.5275C33.2129 15.6025 33.1615 15.7034 33.0446 15.7452L33.03 15.7503V15.6418C33.0095 15.673 32.9825 15.7005 32.9467 15.7218C32.8974 15.7511 32.8323 15.7683 32.7469 15.7683V15.7466C32.7454 15.7466 32.7446 15.7471 32.7443 15.7473C32.7445 15.7472 32.7447 15.7469 32.7451 15.7463C32.7465 15.7443 32.7482 15.741 32.7503 15.7358C32.7515 15.7327 32.7529 15.7291 32.7544 15.7251C32.7576 15.7166 32.7614 15.7063 32.7659 15.6966C32.7701 15.6877 32.7751 15.6786 32.7814 15.6701C32.7623 15.6773 32.7429 15.6871 32.7238 15.6991C32.6804 15.7265 32.6395 15.7649 32.6088 15.8087L32.6084 15.8093L32.6079 15.8098C32.5747 15.8453 32.5401 15.8587 32.5095 15.8554C32.4793 15.8522 32.4554 15.8329 32.4433 15.8076C32.432 15.7891 32.4274 15.7701 32.4289 15.7516C32.4305 15.733 32.438 15.7157 32.4494 15.7003C32.4535 15.6948 32.4581 15.6896 32.4631 15.6846C32.4351 15.6895 32.4077 15.6893 32.3848 15.677C32.3596 15.6635 32.3471 15.6365 32.3502 15.6099C32.3528 15.5882 32.3654 15.5673 32.3885 15.5535C32.3752 15.5434 32.3658 15.5318 32.3598 15.5192C32.3514 15.5017 32.35 15.4832 32.3529 15.4659C32.3587 15.4319 32.3816 15.4008 32.4058 15.3878L32.4069 15.3872L32.4081 15.3869C32.4314 15.3807 32.453 15.3824 32.4751 15.3875C32.4903 15.3911 32.5064 15.3965 32.5235 15.4023C32.5306 15.4047 32.538 15.4072 32.5455 15.4096C32.597 15.4261 32.6637 15.4427 32.7667 15.4316L32.7679 15.4315C32.7893 15.4315 32.8176 15.4313 32.8408 15.4164C32.8629 15.4022 32.883 15.3726 32.883 15.3074C32.883 15.2317 32.8529 15.1625 32.7832 15.1198C32.713 15.0768 32.6007 15.0596 32.434 15.0931L32.4339 15.0931C32.1283 15.1496 31.9065 15.144 31.7343 15.1128C31.5772 15.0843 31.4619 15.0345 31.3633 14.9918C31.3561 14.9887 31.3489 14.9856 31.3419 14.9826C31.2781 15.0372 31.2142 15.0483 31.1567 15.0511C31.1433 15.0517 31.1303 15.0519 31.1177 15.0521L31.1141 15.0522C31.1004 15.0524 31.0873 15.0527 31.0749 15.0535C31.0499 15.0553 31.028 15.0593 31.009 15.0695C30.9646 15.0933 30.915 15.0933 30.8712 15.0933H30.87C30.8244 15.0933 30.7863 15.0937 30.7582 15.1138L30.7577 15.1142L30.757 15.1145C30.7337 15.127 30.7078 15.1299 30.6814 15.1291C30.6635 15.1287 30.6445 15.1265 30.6252 15.1243C30.6163 15.1232 30.6074 15.1222 30.5986 15.1214C30.5417 15.1158 30.4821 15.1161 30.4224 15.1587C30.3844 15.1877 30.3499 15.2012 30.318 15.2057C30.2862 15.2102 30.2578 15.2056 30.2324 15.1999C30.2254 15.1983 30.2187 15.1967 30.2123 15.1951C30.1949 15.1908 30.1794 15.1871 30.1642 15.1861C30.1444 15.1848 30.1262 15.1885 30.1077 15.2034C30.0651 15.2376 30.0273 15.2609 29.9864 15.2755C29.9483 15.2891 29.9081 15.295 29.8598 15.2957C29.8596 15.3149 29.8589 15.3351 29.8543 15.3574C29.8488 15.3841 29.8377 15.4134 29.8161 15.4482L29.816 15.4485C29.7098 15.6077 29.6019 15.6558 29.5339 15.6558L29.5288 15.6353C29.5455 15.6264 29.555 15.6079 29.56 15.5837C29.5624 15.5723 29.5636 15.5603 29.5643 15.5484C29.5182 15.6103 29.4488 15.648 29.3831 15.6747C29.3524 15.6872 29.3219 15.6974 29.2948 15.7066C29.2881 15.7089 29.2815 15.7111 29.2753 15.7132C29.243 15.7242 29.2184 15.7336 29.2042 15.7438L29.1843 15.758L29.1981 15.6391C29.1804 15.6574 29.1565 15.6699 29.1289 15.6785C29.0705 15.6967 28.9927 15.698 28.914 15.6952C28.8844 15.6941 28.8547 15.6925 28.8256 15.6909C28.7766 15.6882 28.7293 15.6856 28.6875 15.686C28.6543 15.6864 28.6254 15.6886 28.6024 15.6941C28.5792 15.6996 28.5639 15.7079 28.5556 15.7189L28.536 15.7451V15.7124C28.536 15.6973 28.5446 15.6822 28.5555 15.6687C28.5667 15.6548 28.5818 15.6409 28.5978 15.628C28.6119 15.6167 28.627 15.606 28.6413 15.5965C28.5892 15.597 28.5423 15.5773 28.4992 15.5592C28.497 15.5583 28.4949 15.5574 28.4928 15.5565C28.4319 15.531 28.3789 15.511 28.321 15.542L28.2852 15.5612L28.3067 15.5267C28.3238 15.4991 28.3468 15.4761 28.3738 15.4595C28.3777 15.4571 28.3817 15.4549 28.3858 15.4528C28.3846 15.4525 28.3834 15.4522 28.3822 15.4519C28.3592 15.4463 28.3398 15.4366 28.3213 15.4267C28.3187 15.4253 28.3161 15.4239 28.3135 15.4225C28.2793 15.404 28.2456 15.3858 28.1899 15.3858C28.1559 15.3858 28.1307 15.3735 28.1177 15.3525C28.1047 15.3318 28.1054 15.3052 28.1171 15.2803C28.13 15.2526 28.1613 15.2406 28.1932 15.2348C28.2098 15.2319 28.2276 15.2305 28.2453 15.2297C28.2255 15.225 28.204 15.2239 28.1828 15.2255C28.1447 15.2282 28.1095 15.2391 28.09 15.2495L28.0893 15.2499L28.0886 15.2502C28.051 15.2636 28.0146 15.2432 27.9969 15.2147C27.988 15.2003 27.9832 15.183 27.9855 15.1657C27.9879 15.1481 27.9975 15.1316 28.0154 15.1187C28.0396 15.1 28.067 15.0868 28.0959 15.0798L28.065 15.0715C28.0382 15.0828 28.0085 15.0674 27.9941 15.0429C27.9783 15.0157 27.9796 14.9768 28.014 14.94L28.0147 14.9392L28.0156 14.9386C28.0829 14.8905 28.1557 14.8972 28.2262 14.9321C28.2963 14.9667 28.3656 15.0298 28.4289 15.0975L28.4294 15.0981L28.4298 15.0987C28.4907 15.1857 28.5823 15.2297 28.6805 15.2518C28.7789 15.274 28.8827 15.2741 28.9669 15.2741C28.9819 15.2741 28.9971 15.2743 29.0122 15.2745C29.0349 15.2748 29.0574 15.2752 29.0792 15.2748C29.1156 15.2741 29.1476 15.2712 29.1708 15.2634C29.1938 15.2556 29.2054 15.244 29.2071 15.2269C29.209 15.2078 29.1993 15.1783 29.168 15.1337L29.1672 15.1326C29.1251 15.0536 29.0879 14.9739 29.0692 14.8965C29.0505 14.8193 29.0502 14.7436 29.0828 14.6733C29.0994 14.6264 29.1319 14.5817 29.1724 14.5398C29.213 14.4977 29.2621 14.4579 29.3122 14.4212C29.3572 14.3882 29.4032 14.3575 29.4448 14.3298C29.4496 14.3266 29.4543 14.3234 29.459 14.3203C29.5044 14.29 29.5432 14.2637 29.5688 14.2417L29.5791 14.2329L29.5855 14.2448C29.7496 14.5526 30.0981 14.554 30.2467 14.5541C30.3851 14.5224 30.5006 14.5254 30.6111 14.5282C30.6188 14.5284 30.6264 14.5286 30.634 14.5287C30.752 14.5316 30.8659 14.5315 31.0005 14.4871L31.0007 14.487C31.2817 14.4005 31.5764 14.3773 31.8661 14.4191C32.0018 14.4303 32.158 14.4246 32.2801 14.3996C32.3413 14.387 32.393 14.3698 32.4292 14.3479C32.4655 14.3259 32.484 14.3006 32.484 14.2724C32.484 14.2483 32.473 14.2274 32.4496 14.2097C32.4259 14.1918 32.3896 14.1775 32.3406 14.1678C32.2425 14.1484 32.0969 14.1483 31.9084 14.1707C31.5724 14.2269 31.2143 14.2665 30.9398 14.2382C30.8026 14.2241 30.685 14.1929 30.6015 14.1373C30.5173 14.0813 30.468 14.0007 30.468 13.8899C30.468 13.7849 30.5145 13.706 30.5884 13.6486C30.6618 13.5916 30.7622 13.556 30.8707 13.5361ZM28.1564 15.096L28.2291 15.1154L28.2367 15.0952C28.2124 15.0833 28.1864 15.0763 28.16 15.0744L28.0626 15.0483L28.0588 15.0503C28.0445 15.058 28.0241 15.0511 28.0129 15.0319C28.0026 15.0143 28.0012 14.9861 28.0291 14.9556C28.0876 14.9144 28.151 14.9191 28.2166 14.9515C28.2828 14.9843 28.3498 15.0447 28.4124 15.1118C28.4776 15.2044 28.5747 15.2502 28.6758 15.273C28.7767 15.2958 28.8827 15.2958 28.9664 15.2958H28.9669C28.9812 15.2958 28.9961 15.296 29.0112 15.2962C29.0342 15.2966 29.0577 15.2969 29.0797 15.2965C29.1162 15.2958 29.1511 15.293 29.1778 15.284C29.2047 15.2749 29.2258 15.2583 29.2287 15.229C29.2314 15.2018 29.2176 15.1668 29.1862 15.1217C29.1444 15.0434 29.1083 14.9658 29.0903 14.8914C29.0723 14.817 29.0726 14.7466 29.1028 14.682L29.1032 14.681C29.1182 14.6381 29.1485 14.5958 29.188 14.5549C29.2274 14.514 29.2754 14.4751 29.3251 14.4387C29.3696 14.406 29.4152 14.3756 29.4569 14.3478C29.4617 14.3447 29.4664 14.3415 29.471 14.3384C29.5107 14.3119 29.5464 14.2878 29.5727 14.2667C29.7463 14.5758 30.1021 14.5758 30.247 14.5758H30.2491L30.2503 14.5755C30.3865 14.5442 30.4999 14.5471 30.6109 14.5499C30.6184 14.5501 30.626 14.5503 30.6335 14.5505C30.7518 14.5533 30.8689 14.5534 31.0072 14.5078C31.2852 14.4221 31.5767 14.3993 31.8634 14.4407L31.864 14.4408C32.0013 14.4521 32.1599 14.4464 32.2845 14.4209C32.3467 14.4081 32.4012 14.3902 32.4405 14.3664C32.4796 14.3427 32.5058 14.3117 32.5058 14.2724C32.5058 14.2403 32.4906 14.2134 32.4627 14.1924C32.4353 14.1716 32.3954 14.1564 32.3448 14.1464C32.2434 14.1264 32.095 14.1266 31.9056 14.1491L31.9051 14.1492C31.5692 14.2054 31.2135 14.2446 30.942 14.2166C30.8062 14.2026 30.6928 14.1719 30.6136 14.1192C30.535 14.067 30.4898 13.9929 30.4898 13.8899C30.4898 13.7924 30.5325 13.7195 30.6017 13.6658C30.6713 13.6117 30.7679 13.577 30.8746 13.5575C31.0881 13.5184 31.3384 13.5408 31.4837 13.5853C31.6321 13.6307 31.8012 13.6477 31.9463 13.6477C32.0099 13.6477 32.069 13.6444 32.1198 13.6388C31.9628 13.6927 31.8449 13.7185 31.7432 13.7272C31.6135 13.7383 31.5097 13.7217 31.3838 13.6992C31.2567 13.6765 31.0717 13.6709 30.9181 13.6964C30.8414 13.7091 30.7716 13.7298 30.7207 13.7608C30.6696 13.7918 30.636 13.8341 30.636 13.8899C30.636 13.9476 30.6839 13.991 30.7562 14.0219C30.8292 14.0532 30.9316 14.0737 31.0503 14.0836C31.2877 14.1034 31.5934 14.0807 31.8675 14.013C32.1388 13.9459 32.3461 13.9686 32.485 14.0347C32.6239 14.1009 32.694 14.21 32.694 14.3174C32.694 14.365 32.673 14.4176 32.6361 14.4682C32.5993 14.5186 32.5472 14.5662 32.4866 14.6035C32.3651 14.6783 32.2117 14.7104 32.0797 14.6452L32.0681 14.6634C32.2391 14.8008 32.4525 14.8008 32.6611 14.8008H32.6629L33.0427 14.7782L33.0437 14.7779C33.0646 14.7723 33.0823 14.7683 33.0972 14.7666C33.1122 14.7649 33.1233 14.7658 33.1314 14.7691C33.1456 14.7748 33.156 14.7905 33.156 14.8347C33.1541 14.8715 33.1613 14.9084 33.1767 14.9415C33.1877 14.9651 33.2028 14.9863 33.221 15.0041H33.112L33.1396 15.0238C33.2013 15.0678 33.2366 15.1114 33.2593 15.1628C33.2781 15.2052 33.2885 15.2534 33.2974 15.3128C33.2788 15.2924 33.2572 15.2751 33.2357 15.2616C33.2035 15.2415 33.1699 15.2291 33.1459 15.2291H33.1073L33.1402 15.2492C33.21 15.2919 33.23 15.3502 33.2429 15.4082C33.2448 15.4166 33.2465 15.4252 33.2483 15.4337C33.2524 15.4542 33.2566 15.4746 33.2625 15.4932C33.2671 15.5073 33.2727 15.5209 33.2805 15.5333L33.1424 15.491L33.1577 15.5157C33.1931 15.5725 33.1623 15.6724 33.0518 15.719V15.5999L33.0311 15.5953C33.0108 15.6387 32.9807 15.6762 32.9356 15.7031C32.8947 15.7275 32.8407 15.7434 32.7695 15.7461C32.7698 15.7454 32.7701 15.7447 32.7704 15.7439C32.7721 15.7399 32.7736 15.7357 32.7752 15.7314C32.7782 15.7234 32.7814 15.7148 32.7856 15.7058C32.7982 15.6789 32.8164 15.6558 32.8519 15.6558V15.6341C32.8072 15.6341 32.7579 15.6519 32.7122 15.6807C32.6666 15.7095 32.6237 15.7496 32.5915 15.7955C32.5618 15.8271 32.5336 15.8361 32.5118 15.8338C32.4897 15.8314 32.4718 15.8172 32.4628 15.7978L32.4621 15.7967C32.4528 15.7816 32.4495 15.767 32.4506 15.7534C32.4517 15.7396 32.4573 15.7261 32.4669 15.7133C32.4808 15.6947 32.5027 15.6783 32.5291 15.6666C32.5398 15.6629 32.5505 15.6591 32.5611 15.6553L32.5616 15.6552L32.5551 15.6344C32.5434 15.6376 32.5321 15.6415 32.5213 15.6463C32.5013 15.653 32.482 15.6589 32.464 15.6624C32.4359 15.6678 32.4127 15.6673 32.395 15.6578C32.3782 15.6488 32.3697 15.6308 32.3718 15.6124C32.3739 15.5944 32.3866 15.5752 32.4146 15.5652L32.4376 15.5569L32.416 15.5453C32.3968 15.535 32.3854 15.5225 32.3794 15.5098C32.3733 15.497 32.3721 15.4832 32.3744 15.4696C32.379 15.4422 32.3975 15.4175 32.415 15.4076C32.4332 15.403 32.4506 15.4041 32.4701 15.4087C32.4843 15.412 32.4988 15.4169 32.5154 15.4225C32.5228 15.425 32.5305 15.4276 32.5388 15.4303C32.5922 15.4474 32.6619 15.4646 32.7685 15.4533H32.7687C32.7894 15.4533 32.8236 15.4533 32.8525 15.4347C32.8829 15.4152 32.9048 15.3773 32.9048 15.3074C32.9048 15.2256 32.8719 15.1486 32.7946 15.1013C32.7178 15.0543 32.5991 15.0378 32.4298 15.0718C32.1265 15.1278 31.9073 15.1221 31.7382 15.0914C31.5836 15.0634 31.4704 15.0145 31.3718 14.9718C31.3625 14.9678 31.3533 14.9638 31.3442 14.9599L31.3378 14.9572L31.3327 14.9618C31.2722 15.0158 31.2121 15.0266 31.1556 15.0294C31.1426 15.03 31.1299 15.0302 31.1173 15.0304L31.1137 15.0305C31.1001 15.0307 31.0865 15.031 31.0734 15.0319C31.0472 15.0337 31.0218 15.038 30.9988 15.0503C30.9596 15.0713 30.9151 15.0716 30.87 15.0716L30.868 15.0716C30.8253 15.0715 30.7805 15.0715 30.7462 15.0956C30.7277 15.1054 30.7065 15.1081 30.682 15.1074C30.6651 15.107 30.6476 15.1049 30.6289 15.1028C30.6198 15.1018 30.6104 15.1007 30.6007 15.0997C30.5422 15.094 30.4758 15.0938 30.4096 15.1411L30.4093 15.1413C30.3739 15.1684 30.3428 15.1802 30.315 15.1842C30.287 15.1881 30.2616 15.1842 30.2372 15.1787C30.2312 15.1773 30.2252 15.1759 30.2191 15.1744C30.2011 15.17 30.1829 15.1655 30.1656 15.1644C30.1414 15.1628 30.1176 15.1676 30.0941 15.1865C30.0527 15.2197 30.017 15.2415 29.9791 15.255C29.9413 15.2685 29.9006 15.2741 29.8489 15.2741H29.838V15.2849C29.838 15.3075 29.838 15.3289 29.833 15.353C29.8281 15.3769 29.8181 15.4038 29.7978 15.4365C29.7105 15.5674 29.6245 15.6178 29.5648 15.6306C29.5732 15.6179 29.5782 15.603 29.5813 15.5881C29.5868 15.5617 29.5868 15.5326 29.5868 15.5104V15.5099L29.5663 15.5048C29.5262 15.5801 29.4504 15.6239 29.3749 15.6545C29.3448 15.6668 29.3152 15.6768 29.2882 15.6859C29.2814 15.6882 29.2747 15.6904 29.2682 15.6926C29.2468 15.7 29.2271 15.7071 29.2112 15.7148L29.2259 15.5885C29.2285 15.5782 29.2298 15.567 29.2298 15.5549L29.2081 15.5537L29.2045 15.5846C29.2008 15.599 29.1942 15.6109 29.1853 15.6209C29.1708 15.6373 29.1496 15.6493 29.1225 15.6577C29.068 15.6747 28.9936 15.6763 28.9148 15.6734C28.8862 15.6724 28.8569 15.6708 28.828 15.6692C28.7783 15.6665 28.7297 15.6638 28.6872 15.6643C28.6535 15.6646 28.6227 15.6669 28.5974 15.6729C28.5892 15.6749 28.5815 15.6772 28.5743 15.6801C28.5839 15.6686 28.5969 15.6566 28.6115 15.645C28.6423 15.6202 28.6785 15.598 28.699 15.587L28.6907 15.567C28.6233 15.5877 28.5652 15.5633 28.5057 15.5383C28.5042 15.5377 28.5027 15.5371 28.5012 15.5365C28.4524 15.516 28.4018 15.4956 28.3478 15.5086C28.3589 15.4967 28.3715 15.4864 28.3851 15.4781C28.4024 15.4675 28.421 15.4602 28.4404 15.4563C28.4481 15.4557 28.4562 15.4547 28.4648 15.4531L28.4623 15.4316C28.4539 15.4321 28.4456 15.4331 28.4374 15.4347C28.4182 15.4361 28.4019 15.4343 28.3874 15.4308C28.3671 15.4259 28.3498 15.4173 28.3315 15.4075C28.3289 15.4061 28.3263 15.4047 28.3236 15.4033C28.2892 15.3846 28.2512 15.3641 28.1899 15.3641C28.161 15.3641 28.1441 15.3538 28.1361 15.3411C28.1281 15.3281 28.1274 15.3096 28.1368 15.2895C28.1448 15.2723 28.166 15.2618 28.1971 15.2562C28.2274 15.2508 28.2632 15.2508 28.2949 15.2508H28.3288L28.3012 15.2311C28.2668 15.2065 28.2218 15.2009 28.1813 15.2038C28.141 15.2066 28.1032 15.218 28.0805 15.2299C28.0553 15.2385 28.0291 15.2252 28.0154 15.2032C28.0086 15.1924 28.0055 15.1801 28.0071 15.1686C28.0086 15.1574 28.0147 15.1459 28.0282 15.1363L28.0286 15.136C28.057 15.1139 28.0904 15.1004 28.1252 15.0967C28.1356 15.0955 28.1461 15.0953 28.1564 15.096ZM32.7443 15.7474C32.7443 15.7474 32.7443 15.7473 32.7443 15.7473ZM28.8453 13.7978C28.8732 13.8051 28.908 13.818 28.95 13.8348L28.9568 13.8376V13.873L28.9522 13.8763C28.9385 13.886 28.9264 13.9025 28.916 13.9239C28.9056 13.9451 28.8973 13.9703 28.8908 13.9966C28.8779 14.0491 28.8728 14.1045 28.8728 14.1374V14.165L28.854 14.1448C28.8324 14.1218 28.8057 14.0874 28.7842 14.05C28.7631 14.0132 28.7463 13.9721 28.746 13.9357C28.7408 13.8965 28.7394 13.8658 28.7432 13.8431C28.7472 13.8198 28.7573 13.8029 28.7766 13.7954C28.7944 13.7885 28.8177 13.7907 28.8453 13.7978ZM28.7647 13.8468C28.7613 13.8661 28.7624 13.8943 28.7677 13.9335L28.7678 13.9342V13.9349C28.7678 13.9658 28.7824 14.0031 28.8031 14.0392C28.818 14.0651 28.8356 14.0896 28.852 14.1095C28.854 14.0761 28.8595 14.0329 28.8697 13.9914C28.8764 13.9642 28.8852 13.9374 28.8964 13.9143C28.9067 13.8934 28.9193 13.8748 28.935 13.8621V13.8523C28.8962 13.8368 28.8649 13.8253 28.8398 13.8189C28.8129 13.8119 28.7955 13.8114 28.7845 13.8157C28.7749 13.8194 28.7679 13.8278 28.7647 13.8468Z" fill="black"/>
<path d="M29.5156 13.8655C29.6836 13.7755 29.7466 13.7755 29.7046 13.933C29.7046 14.0005 29.6416 14.0905 29.5996 14.1355C29.5996 14.068 29.5996 13.9105 29.5156 13.8655Z" fill="#F9DD16"/>
<path fill-rule="evenodd" clip-rule="evenodd" d="M29.5365 13.8696C29.5722 13.8976 29.5901 13.9457 29.5994 13.993C29.6075 14.0342 29.6094 14.0768 29.6099 14.1097C29.6261 14.09 29.6434 14.0659 29.658 14.0403C29.6787 14.0042 29.6933 13.9669 29.6933 13.9361V13.9346L29.6937 13.9333C29.7041 13.8942 29.7076 13.8663 29.7052 13.8478C29.7041 13.8386 29.7016 13.8324 29.6985 13.8283C29.6955 13.8243 29.6914 13.8215 29.6856 13.82C29.6733 13.8167 29.6537 13.8191 29.6251 13.8292C29.6007 13.8378 29.5713 13.8515 29.5365 13.8696ZM29.7151 13.9375C29.7254 13.8985 29.7297 13.8677 29.7268 13.845C29.7253 13.8334 29.7219 13.8233 29.7158 13.8152C29.7097 13.807 29.7013 13.8017 29.6913 13.799C29.6721 13.7939 29.6471 13.7984 29.6179 13.8087C29.5882 13.8192 29.5522 13.8364 29.5101 13.859L29.4922 13.8686L29.5101 13.8781C29.5475 13.8982 29.5676 13.9443 29.578 13.9972C29.5883 14.0495 29.5883 14.1047 29.5883 14.1386V14.1661L29.6071 14.146C29.6287 14.1229 29.6554 14.0885 29.6769 14.0512C29.6979 14.0146 29.7146 13.9738 29.7151 13.9375Z" fill="black"/>
<path d="M29.2374 13.7539C29.5734 13.7539 29.6154 13.9339 29.5944 14.1364C29.5944 14.3614 29.4894 14.2714 29.4264 14.5864C29.4054 14.6764 29.3214 14.6989 29.2164 14.6989C29.1534 14.6989 29.0694 14.6989 29.0274 14.5639C28.9644 14.2714 28.8594 14.3389 28.8594 14.1139C28.8594 13.9339 28.9014 13.7539 29.2374 13.7539V13.7539Z" fill="#F9DD16"/>
<path fill-rule="evenodd" clip-rule="evenodd" d="M28.934 13.8722C28.8839 13.9367 28.8733 14.0234 28.8733 14.1131C28.8733 14.1685 28.8798 14.2051 28.89 14.2335C28.9003 14.2618 28.9146 14.2826 28.9317 14.3064C28.9325 14.3076 28.9333 14.3088 28.9342 14.31C28.9506 14.3329 28.9692 14.3589 28.9874 14.3962C29.0065 14.4354 29.0251 14.4867 29.041 14.5603C29.0613 14.6254 29.0911 14.6562 29.1219 14.6714C29.1534 14.687 29.1876 14.6872 29.2194 14.6872C29.2714 14.6872 29.3168 14.6816 29.3514 14.6657C29.3853 14.6501 29.4091 14.6246 29.4188 14.5833C29.4347 14.5039 29.4533 14.4497 29.4724 14.4093C29.4916 14.3689 29.5112 14.3429 29.5284 14.3202L29.5289 14.3196C29.5458 14.2973 29.5598 14.2788 29.5699 14.2526C29.5801 14.2261 29.5866 14.191 29.5866 14.1356V14.1344L29.5866 14.1344C29.5971 14.0337 29.5914 13.9415 29.5439 13.8747C29.497 13.8084 29.4067 13.7639 29.2404 13.7639C29.0742 13.7639 28.9837 13.8084 28.934 13.8722ZM28.9169 13.8589C28.9722 13.7877 29.0706 13.7422 29.2404 13.7422C29.4101 13.7422 29.5089 13.7877 29.5617 13.8621C29.6139 13.9357 29.6188 14.0346 29.6083 14.1361C29.6083 14.1929 29.6016 14.2307 29.5902 14.2604C29.579 14.2895 29.5633 14.3101 29.5468 14.332L29.5457 14.3334C29.5287 14.3557 29.5103 14.3803 29.4921 14.4187C29.4738 14.4571 29.4557 14.5096 29.4401 14.5877L29.44 14.588L29.44 14.588C29.4287 14.6366 29.4 14.6673 29.3605 14.6854C29.3216 14.7033 29.2724 14.7089 29.2194 14.7089H29.2186C29.1876 14.7089 29.1486 14.7089 29.1122 14.6909C29.0748 14.6724 29.0417 14.6359 29.0201 14.5663L29.0198 14.5654L29.0198 14.5653C29.0042 14.4929 28.9861 14.4432 28.9678 14.4058C28.9504 14.3701 28.9328 14.3454 28.9164 14.3224C28.9156 14.3213 28.9148 14.3202 28.914 14.3191C28.8969 14.2951 28.881 14.2723 28.8696 14.2409C28.8582 14.2094 28.8516 14.1701 28.8516 14.1131C28.8516 14.0227 28.862 13.9295 28.9169 13.8589Z" fill="black"/>
<path d="M28.3758 14.587C28.2918 14.542 28.2288 14.587 28.1868 14.587C28.3128 14.6095 28.3128 14.767 28.5648 14.812C28.5018 14.812 28.4808 14.857 28.4178 14.812C28.5228 14.902 28.6278 15.0145 28.8798 15.0145C29.0268 15.0145 28.9218 15.082 28.8378 15.037C28.9218 15.1495 29.1108 15.0595 29.2368 15.262C29.2368 15.1045 29.0268 14.8795 29.1318 14.722C28.7748 14.6995 28.7538 14.497 28.5648 14.3395C28.3968 14.2045 28.3758 14.0695 28.3128 13.822C28.2918 13.7095 28.1658 13.642 28.1028 13.6645C28.0398 13.6645 27.9978 13.732 28.0608 13.777C28.1028 13.822 28.1868 13.822 28.1868 13.9345C28.1238 13.8445 28.0188 13.822 27.9768 13.867C27.9558 13.912 27.9768 13.9795 28.0188 13.9795C28.1238 13.9795 28.0608 14.1145 28.1658 14.2045C28.0608 14.092 27.9768 14.0695 27.9138 14.137C27.8928 14.182 27.9138 14.2495 27.9978 14.2495C28.1028 14.2495 28.2078 14.5195 28.3758 14.587V14.587ZM31.1058 15.622C31.0638 15.622 31.0848 15.7345 31.0008 15.7345C31.1688 15.7345 31.2738 15.6895 31.3368 15.622L31.2948 15.7345C31.3788 15.667 31.6098 15.6445 31.7148 15.667C31.8198 15.6895 31.8408 15.6445 31.8828 15.577C31.9248 15.487 31.8828 15.442 31.8198 15.397C31.7568 15.3295 31.7358 15.2395 31.7568 15.1045C31.4628 14.6545 30.9168 14.8795 30.9168 15.0595C31.1058 15.307 31.1268 15.2845 31.2948 15.307C31.4418 15.352 31.5468 15.352 31.4418 15.442C31.3998 15.487 31.2318 15.442 31.1268 15.4645C30.8538 15.4645 30.7068 15.262 30.6438 15.3745C30.5808 15.4645 30.6438 15.5095 30.7698 15.5095C30.6858 15.5095 30.5598 15.5095 30.5808 15.5995C30.6228 15.757 30.7488 15.577 30.8118 15.622C30.7698 15.622 30.6858 15.6445 30.6858 15.6895C30.6858 15.7345 30.7908 15.802 30.8958 15.6895C30.9568 15.6424 31.0308 15.6187 31.1058 15.622V15.622Z" fill="#F9DD16"/>
<path fill-rule="evenodd" clip-rule="evenodd" d="M28.3265 13.8188C28.3319 13.8399 28.337 13.8602 28.3418 13.8798C28.3942 14.0894 28.4242 14.2092 28.5747 14.3301L28.5748 14.3303C28.6229 14.3703 28.6602 14.4131 28.6944 14.4548C28.701 14.4628 28.7075 14.4708 28.7139 14.4787C28.7409 14.5119 28.7668 14.5437 28.796 14.5728C28.8676 14.644 28.9596 14.6992 29.1356 14.7103L29.1544 14.7115L29.1439 14.7271C29.0949 14.8006 29.1185 14.891 29.1581 14.987C29.1669 15.0084 29.1764 15.0299 29.1859 15.0513C29.1869 15.0536 29.1879 15.0559 29.1889 15.0582C29.1994 15.0818 29.2097 15.1054 29.2188 15.1285C29.237 15.1744 29.2507 15.2196 29.2507 15.2611V15.2992L29.2307 15.2669C29.1698 15.1691 29.0943 15.142 29.0222 15.1255C29.0114 15.123 29.0006 15.1207 28.9898 15.1185C28.9647 15.1133 28.94 15.1081 28.9175 15.1006C28.8847 15.0896 28.8549 15.0731 28.8322 15.0426L28.846 15.0265C28.8652 15.0368 28.8857 15.0407 28.9036 15.0407C28.9217 15.0407 28.9359 15.0367 28.9428 15.0325C28.943 15.0324 28.9432 15.0322 28.9434 15.0321C28.94 15.0305 28.9342 15.0286 28.925 15.0272C28.9147 15.0255 28.9009 15.0245 28.8829 15.0245C28.7551 15.0245 28.664 14.9959 28.5915 14.9556C28.5316 14.9223 28.4845 14.8811 28.4405 14.8425C28.4315 14.8347 28.4226 14.8269 28.4138 14.8194L28.4272 14.8023C28.442 14.8129 28.4537 14.8177 28.4635 14.8194C28.4732 14.8211 28.482 14.8201 28.4916 14.8175C28.4963 14.8162 28.5014 14.8145 28.5069 14.8126C28.5093 14.8118 28.5117 14.811 28.5141 14.8102C28.4189 14.7839 28.3653 14.7397 28.3239 14.6978C28.3153 14.6892 28.3075 14.6808 28.3 14.6728C28.2861 14.6581 28.2734 14.6446 28.2596 14.6327C28.2389 14.6149 28.217 14.602 28.188 14.5968L28.1899 14.5752C28.1988 14.5752 28.2093 14.5728 28.2225 14.5693C28.2246 14.5687 28.2267 14.5682 28.2289 14.5676C28.2402 14.5645 28.253 14.561 28.2667 14.5585C28.2786 14.5564 28.2912 14.5551 28.3046 14.5553C28.2877 14.5424 28.2715 14.5279 28.2561 14.5126C28.2204 14.4773 28.1879 14.4367 28.1577 14.3988C28.1565 14.3973 28.1553 14.3958 28.1541 14.3943C28.1252 14.3578 28.0986 14.3244 28.0731 14.2997C28.0461 14.2736 28.0226 14.2595 28.0009 14.2595C27.9557 14.2595 27.9255 14.2411 27.9101 14.2147C27.895 14.1889 27.8952 14.157 27.907 14.1315L27.9078 14.13L27.9089 14.1287C27.9257 14.1107 27.9444 14.0983 27.9649 14.092C27.9855 14.0857 28.0072 14.0858 28.0299 14.0919C28.0537 14.0982 28.0786 14.1112 28.1046 14.1303C28.0959 14.1084 28.091 14.0868 28.0866 14.0677C28.086 14.065 28.0854 14.0624 28.0848 14.0598C28.0795 14.037 28.0746 14.0196 28.0657 14.0076C28.0576 13.9968 28.0454 13.9895 28.0219 13.9895C27.9941 13.9895 27.9755 13.9673 27.967 13.9428C27.9583 13.918 27.9582 13.8869 27.97 13.8615L27.9708 13.86L27.9719 13.8587C27.9968 13.832 28.0385 13.8269 28.08 13.8388C28.1127 13.8481 28.1467 13.8682 28.1756 13.8989C28.1734 13.8888 28.1703 13.8803 28.1664 13.8729C28.1589 13.8582 28.1483 13.8474 28.1361 13.8382C28.1262 13.8308 28.1157 13.8247 28.1046 13.8184C28.1017 13.8167 28.0988 13.815 28.0958 13.8133C28.0822 13.8053 28.0682 13.7964 28.0567 13.7843C28.0399 13.7721 28.0293 13.7579 28.0246 13.7428C28.0198 13.7274 28.0215 13.7119 28.0278 13.6984C28.0401 13.6721 28.0696 13.6534 28.104 13.6528C28.122 13.6469 28.1432 13.6473 28.1648 13.6523C28.1872 13.6576 28.2107 13.668 28.2327 13.6827C28.2764 13.712 28.3153 13.7592 28.3265 13.8188ZM28.1374 14.187C28.1444 14.1955 28.1525 14.2039 28.1618 14.2119L28.1768 14.1962C28.1689 14.1877 28.1611 14.1797 28.1533 14.1722C28.1249 14.1371 28.1159 14.0977 28.1076 14.062C28.1071 14.0596 28.1065 14.0573 28.106 14.0549C28.1008 14.0328 28.0952 14.0108 28.0831 13.9946C28.0702 13.9773 28.0509 13.9677 28.0219 13.9677C28.0076 13.9677 27.9947 13.9562 27.9875 13.9357C27.9806 13.916 27.9806 13.8917 27.989 13.8723C28.0064 13.8549 28.0376 13.8493 28.074 13.8597C28.1109 13.8702 28.1508 13.8968 28.181 13.9398L28.2007 13.9681V13.9336C28.2007 13.9041 28.1952 13.8812 28.1858 13.8629C28.1763 13.8445 28.1632 13.8314 28.1492 13.8209C28.1381 13.8126 28.1261 13.8057 28.1149 13.7992C28.1121 13.7976 28.1094 13.7961 28.1068 13.7945C28.0931 13.7865 28.0812 13.7787 28.0718 13.7687L28.0711 13.7679L28.0702 13.7673C28.056 13.7571 28.0485 13.7463 28.0454 13.7363C28.0423 13.7264 28.0433 13.7166 28.0475 13.7076C28.056 13.6894 28.0781 13.6745 28.1059 13.6745H28.1078L28.1095 13.6739C28.1227 13.6692 28.1401 13.6689 28.1598 13.6735C28.1794 13.6781 28.2005 13.6874 28.2206 13.7008C28.2607 13.7277 28.2954 13.7704 28.3052 13.8231L28.3053 13.8238C28.3108 13.8453 28.316 13.866 28.3209 13.8859C28.373 14.0945 28.4046 14.2213 28.561 14.347C28.6074 14.3857 28.6436 14.4273 28.6776 14.4686C28.684 14.4764 28.6904 14.4842 28.6968 14.492C28.7238 14.5253 28.7505 14.5582 28.7807 14.5882C28.8536 14.6607 28.9467 14.7167 29.1165 14.7307C29.0734 14.8114 29.1011 14.9058 29.138 14.9953C29.1469 15.017 29.1565 15.0387 29.166 15.0601C29.167 15.0624 29.168 15.0647 29.169 15.067C29.1795 15.0906 29.1897 15.1138 29.1986 15.1364C29.2103 15.1661 29.2197 15.1943 29.2248 15.2206C29.1642 15.1438 29.0929 15.1194 29.0271 15.1043C29.0153 15.1016 29.0038 15.0992 28.9928 15.0969C28.9683 15.0918 28.9456 15.0871 28.9244 15.08C28.9096 15.075 28.8959 15.069 28.8835 15.0611C28.8904 15.062 28.8971 15.0625 28.9036 15.0625C28.9241 15.0625 28.9427 15.058 28.9542 15.051C28.9595 15.0477 28.9659 15.0423 28.9671 15.0341C28.9685 15.0246 28.962 15.0179 28.9557 15.0141C28.9492 15.0103 28.94 15.0075 28.9284 15.0057C28.9167 15.0038 28.9016 15.0027 28.8829 15.0027C28.7587 15.0027 28.6712 14.9751 28.602 14.9366C28.552 14.9088 28.5114 14.8754 28.4729 14.842C28.4815 14.842 28.4895 14.8405 28.4972 14.8385C28.5041 14.8366 28.5106 14.8344 28.5169 14.8323C28.5321 14.8271 28.547 14.822 28.5679 14.822L28.5698 14.8004C28.4465 14.7784 28.3854 14.7292 28.3394 14.6825C28.3317 14.6748 28.3243 14.6669 28.3169 14.6591C28.3025 14.6437 28.2884 14.6288 28.2738 14.6162C28.2614 14.6056 28.2482 14.5962 28.2333 14.5889C28.2338 14.5888 28.2343 14.5886 28.2349 14.5885C28.2462 14.5854 28.2579 14.5822 28.2705 14.5799C28.2951 14.5756 28.3226 14.5748 28.3535 14.5865C28.3605 14.59 28.3676 14.5933 28.3748 14.5962L28.3789 14.5861L28.384 14.5765C28.3766 14.5726 28.3694 14.5693 28.3624 14.5666C28.3301 14.5499 28.3 14.5255 28.2714 14.4972C28.2368 14.4629 28.205 14.4233 28.1748 14.3853C28.1734 14.3836 28.172 14.3819 28.1707 14.3802C28.1422 14.3443 28.1148 14.3098 28.0882 14.2841C28.0606 14.2574 28.0317 14.2377 28.0009 14.2377C27.9621 14.2377 27.9397 14.2224 27.9289 14.2038C27.918 14.1851 27.9176 14.1615 27.926 14.1423C27.9404 14.1272 27.9555 14.1176 27.9712 14.1128C27.9874 14.1078 28.005 14.1077 28.0243 14.1129C28.0574 14.1217 28.095 14.146 28.1374 14.187ZM31.2282 14.8341C31.4051 14.8111 31.6194 14.8688 31.769 15.0977L31.7713 15.1012L31.7706 15.1053C31.75 15.2379 31.7708 15.3238 31.8301 15.3879C31.8613 15.4103 31.8893 15.434 31.9036 15.4646C31.9184 15.4964 31.9177 15.5337 31.8957 15.5807L31.8952 15.5819C31.893 15.5854 31.8908 15.5889 31.8886 15.5923C31.8808 15.6051 31.8732 15.6173 31.8655 15.6281C31.8557 15.642 31.845 15.6543 31.8318 15.6637C31.8047 15.6831 31.7697 15.6883 31.7156 15.6767C31.6648 15.6659 31.5822 15.6657 31.5015 15.6769C31.4613 15.6824 31.4219 15.6908 31.3875 15.7018C31.353 15.7128 31.3242 15.7264 31.3047 15.7421L31.2739 15.7669L31.3139 15.6596C31.2468 15.712 31.1473 15.7445 31.0039 15.7445V15.7227C31.0221 15.7227 31.0337 15.7168 31.0421 15.7084C31.0509 15.6995 31.0568 15.6873 31.0619 15.6736C31.0637 15.6689 31.0653 15.6643 31.0668 15.6597C31.0676 15.6575 31.0683 15.6553 31.0691 15.6531C31.0714 15.6465 31.0739 15.6398 31.0768 15.6339C31.0771 15.6333 31.0774 15.6327 31.0777 15.6322C31.0162 15.6357 30.9567 15.658 30.9062 15.6967C30.8518 15.7547 30.7958 15.7676 30.7522 15.7583C30.7306 15.7537 30.7124 15.7436 30.6994 15.7313C30.6867 15.7192 30.678 15.7039 30.678 15.6886C30.678 15.6808 30.6799 15.6737 30.6832 15.6672C30.6643 15.6743 30.6442 15.6786 30.6255 15.6726C30.6016 15.665 30.5843 15.6422 30.5734 15.6014L30.5733 15.6011C30.5674 15.576 30.5716 15.5555 30.5843 15.5398C30.5965 15.5246 30.6154 15.5153 30.636 15.5094C30.6451 15.5068 30.6549 15.5048 30.665 15.5032C30.6517 15.4979 30.6403 15.4911 30.6315 15.4827C30.6175 15.4694 30.6102 15.4522 30.6114 15.432C30.6126 15.4125 30.6215 15.391 30.6377 15.3678C30.6463 15.3526 30.6568 15.3418 30.6697 15.3354C30.6827 15.329 30.6969 15.3277 30.7118 15.3294C30.7408 15.3328 30.7754 15.3485 30.8142 15.3666C30.8163 15.3675 30.8184 15.3685 30.8205 15.3695C30.8983 15.4057 30.999 15.4525 31.1287 15.4527C31.1758 15.4429 31.2345 15.446 31.2878 15.4488C31.2958 15.4492 31.3038 15.4496 31.3115 15.4499C31.3417 15.4514 31.3692 15.452 31.3916 15.4496C31.4144 15.4472 31.4293 15.4419 31.4369 15.4337L31.4378 15.4328C31.4506 15.4218 31.4599 15.4125 31.4662 15.4046C31.4726 15.3965 31.4754 15.3906 31.4762 15.3863C31.477 15.3825 31.4763 15.3797 31.4744 15.3769C31.4721 15.3737 31.4679 15.3702 31.4607 15.3663C31.4463 15.3586 31.4239 15.3518 31.3948 15.344C31.388 15.3422 31.3808 15.3403 31.3733 15.3384C31.3498 15.3322 31.3234 15.3253 31.2956 15.3168C31.2797 15.3147 31.2651 15.3129 31.2514 15.3113C31.1943 15.3047 31.1534 15.2999 31.1114 15.2762C31.0593 15.2468 31.0055 15.1887 30.9112 15.0652L30.909 15.0623V15.0586C30.909 15.0083 30.9467 14.9576 31.0035 14.9176C31.0609 14.8771 31.14 14.8455 31.2282 14.8341ZM30.7729 15.4977V15.5195C30.7304 15.5195 30.6796 15.5196 30.642 15.5303C30.6232 15.5357 30.6093 15.5433 30.6012 15.5534C30.5935 15.5629 30.5898 15.5762 30.5944 15.596C30.6046 15.6338 30.6187 15.6476 30.6321 15.6519C30.6466 15.6565 30.6649 15.6519 30.6871 15.6421C30.6962 15.6381 30.7053 15.6335 30.7147 15.6289C30.7165 15.6279 30.7184 15.627 30.7203 15.626C30.7315 15.6204 30.743 15.6149 30.7543 15.6106C30.7762 15.6023 30.8007 15.5976 30.8212 15.6123L30.8488 15.632H30.8149C30.7953 15.632 30.7653 15.6373 30.7404 15.648C30.728 15.6533 30.7175 15.6597 30.7103 15.6668C30.7032 15.6739 30.6997 15.6811 30.6997 15.6886C30.6997 15.6958 30.7042 15.7058 30.7144 15.7155C30.7244 15.725 30.739 15.7332 30.7568 15.7371C30.7918 15.7446 30.8406 15.7351 30.8909 15.6812L30.8915 15.6806L30.8922 15.68C30.9552 15.6315 31.0317 15.6069 31.1094 15.6103L31.1089 15.6211V15.632C31.1048 15.632 31.101 15.6341 31.0963 15.6435C31.094 15.6482 31.0919 15.6537 31.0896 15.6603C31.0889 15.6622 31.0882 15.6643 31.0875 15.6664C31.0859 15.6711 31.0842 15.6762 31.0823 15.6812C31.0773 15.6945 31.0708 15.7091 31.0602 15.7209C31.1935 15.712 31.2788 15.6706 31.3319 15.6137L31.3501 15.6249L31.3196 15.7065C31.3376 15.6967 31.3584 15.6883 31.3809 15.6811C31.4167 15.6696 31.4574 15.661 31.4985 15.6554C31.5806 15.644 31.6659 15.6439 31.7202 15.6555C31.7711 15.6664 31.799 15.6604 31.8192 15.646C31.8296 15.6386 31.8386 15.6284 31.8478 15.6155C31.8551 15.6053 31.8621 15.594 31.8699 15.5813C31.872 15.5779 31.8741 15.5745 31.8763 15.5709C31.8961 15.5283 31.8953 15.4982 31.8839 15.4738C31.8721 15.4485 31.848 15.4274 31.8166 15.405L31.8157 15.4043L31.8149 15.4035C31.7495 15.3334 31.7283 15.2407 31.7485 15.1061C31.6042 14.8879 31.3998 14.8337 31.231 14.8556C31.146 14.8667 31.0703 14.897 31.0161 14.9353C30.9629 14.9728 30.9326 15.0163 30.9308 15.055C31.0241 15.1769 31.0749 15.2306 31.1221 15.2573C31.16 15.2786 31.1956 15.2828 31.252 15.2895C31.2663 15.2912 31.2819 15.293 31.2993 15.2953L31.3002 15.2955L31.3011 15.2957C31.3287 15.3042 31.3548 15.311 31.3785 15.3172C31.3861 15.3192 31.3934 15.3212 31.4004 15.323C31.4291 15.3307 31.454 15.338 31.471 15.3472C31.4796 15.3518 31.4872 15.3573 31.4922 15.3645C31.4975 15.3721 31.4994 15.3809 31.4975 15.3905C31.4958 15.3996 31.4907 15.4087 31.4833 15.4181C31.4759 15.4274 31.4656 15.4377 31.4524 15.449C31.439 15.463 31.4173 15.4688 31.3939 15.4713C31.3696 15.4738 31.3407 15.4731 31.3105 15.4717C31.3025 15.4713 31.2945 15.4709 31.2864 15.4705C31.2322 15.4677 31.1763 15.4648 31.1322 15.4742L31.131 15.4745H31.1299C30.9947 15.4745 30.8899 15.4257 30.812 15.3895C30.8096 15.3884 30.8073 15.3873 30.8051 15.3863C30.7651 15.3678 30.7341 15.3539 30.7093 15.351C30.6972 15.3496 30.6875 15.3509 30.6793 15.3549C30.6712 15.359 30.6634 15.3663 30.6564 15.3789L30.6558 15.3799C30.6407 15.4015 30.6339 15.4192 30.6331 15.4333C30.6323 15.4469 30.6369 15.4579 30.6465 15.467C30.6564 15.4765 30.6721 15.4843 30.6938 15.4896C30.7153 15.495 30.742 15.4977 30.7729 15.4977Z" fill="black"/>
<path fill-rule="evenodd" clip-rule="evenodd" d="M29.4292 14.0275C29.4431 14.0323 29.4561 14.036 29.4699 14.036V14.0578C29.4523 14.0578 29.4364 14.053 29.4221 14.048C29.4188 14.0469 29.4156 14.0457 29.4126 14.0446C29.4017 14.0407 29.3917 14.0371 29.3812 14.0351C29.3684 14.0325 29.3554 14.0326 29.3409 14.0381C29.3306 14.042 29.3191 14.0488 29.3062 14.06C29.3101 14.0622 29.3143 14.0649 29.3183 14.0675C29.3186 14.0677 29.319 14.068 29.3194 14.0682C29.324 14.0712 29.3285 14.0741 29.3333 14.0767C29.3429 14.0818 29.3524 14.085 29.3625 14.0839C29.3723 14.0828 29.3845 14.0775 29.399 14.062L29.4149 14.0768C29.3979 14.095 29.3812 14.1037 29.3648 14.1055C29.3486 14.1072 29.3345 14.1019 29.3231 14.0958C29.3174 14.0928 29.3121 14.0894 29.3075 14.0864C29.3072 14.0862 29.3069 14.086 29.3067 14.0859C29.3023 14.083 29.2987 14.0807 29.2955 14.079C29.294 14.0782 29.2928 14.0776 29.2918 14.0772V14.1362C29.2958 14.1659 29.3005 14.1922 29.3047 14.2158C29.306 14.223 29.3072 14.2299 29.3084 14.2366C29.3133 14.2649 29.3168 14.2894 29.3154 14.3092C29.3139 14.3296 29.3071 14.3467 29.2898 14.358C29.2736 14.3686 29.2499 14.3728 29.2179 14.3728C29.1911 14.3728 29.1707 14.3686 29.1572 14.3572C29.143 14.3454 29.1388 14.328 29.1388 14.3084C29.1388 14.289 29.143 14.2648 29.1482 14.2365C29.1488 14.233 29.1495 14.2294 29.1502 14.2257C29.155 14.1997 29.1605 14.1701 29.1651 14.1362V14.0772C29.1641 14.0776 29.1629 14.0782 29.1614 14.079C29.1582 14.0807 29.1546 14.083 29.1502 14.0859C29.15 14.086 29.1497 14.0862 29.1494 14.0864C29.1448 14.0894 29.1395 14.0928 29.1338 14.0958C29.1224 14.1019 29.1083 14.1072 29.0921 14.1055C29.0757 14.1037 29.059 14.095 29.042 14.0768L29.0579 14.062C29.0724 14.0775 29.0846 14.0828 29.0944 14.0839C29.1044 14.085 29.114 14.0818 29.1236 14.0767C29.1284 14.0741 29.1329 14.0712 29.1375 14.0682C29.1379 14.068 29.1382 14.0677 29.1386 14.0675C29.1425 14.065 29.1466 14.0623 29.1505 14.0602C29.1379 14.0497 29.1268 14.0441 29.117 14.0411C29.1031 14.0369 29.0906 14.038 29.0785 14.0406C29.0742 14.0416 29.0702 14.0426 29.0661 14.0437C29.0642 14.0442 29.0621 14.0447 29.06 14.0452C29.0539 14.0467 29.0474 14.0482 29.0408 14.0486C29.0341 14.049 29.027 14.0484 29.0199 14.0457C29.0128 14.043 29.0062 14.0385 29 14.0318L29.0159 14.017C29.0202 14.0216 29.0241 14.024 29.0276 14.0254C29.0312 14.0267 29.035 14.0272 29.0394 14.0269C29.044 14.0266 29.0489 14.0256 29.0548 14.0241C29.0565 14.0237 29.0582 14.0232 29.0601 14.0228C29.0644 14.0216 29.0692 14.0204 29.0739 14.0194C29.088 14.0164 29.1045 14.0147 29.1233 14.0203C29.142 14.0259 29.162 14.0385 29.1839 14.062L29.1759 14.0694H29.1868V14.1376L29.1867 14.1383C29.1821 14.1731 29.1764 14.2036 29.1716 14.2297C29.1709 14.2334 29.1702 14.237 29.1696 14.2405C29.1643 14.2692 29.1606 14.2913 29.1606 14.3084C29.1606 14.3254 29.1642 14.3348 29.1711 14.3405C29.1786 14.3468 29.1923 14.351 29.2179 14.351C29.249 14.351 29.2673 14.3468 29.278 14.3398C29.2877 14.3334 29.2926 14.3238 29.2937 14.3077C29.2949 14.2909 29.2919 14.269 29.287 14.2403C29.2858 14.2338 29.2846 14.227 29.2834 14.2199C29.2791 14.1961 29.2742 14.1688 29.2702 14.1383L29.2701 14.1376V14.0694H29.2809L29.273 14.062C29.2947 14.0387 29.3144 14.0248 29.3332 14.0177C29.3522 14.0106 29.3694 14.0106 29.3854 14.0137C29.3977 14.0161 29.4097 14.0205 29.4208 14.0245C29.4237 14.0255 29.4265 14.0265 29.4292 14.0275ZM31.0427 14.9138C31.1506 14.8906 31.2582 14.9138 31.3441 14.9598L31.3338 14.979C31.2517 14.935 31.1493 14.9131 31.0472 14.935L31.0427 14.9138ZM29.8082 15.1386C29.8055 15.0804 29.8165 15.0112 29.8591 14.9198L29.8788 14.929C29.8374 15.0176 29.8274 15.0834 29.8299 15.1376C29.8318 15.1788 29.8409 15.2133 29.8498 15.2475C29.8528 15.2589 29.8558 15.2703 29.8585 15.2819L29.8374 15.2869C29.8349 15.2763 29.8321 15.2655 29.8292 15.2545C29.8201 15.2198 29.8103 15.1823 29.8082 15.1386Z" fill="black"/>
<path d="M29.2361 14.6323C29.3201 14.6323 29.3621 14.6323 29.3621 14.4973C29.3621 14.4523 29.4251 14.4298 29.3831 14.3398C29.4251 14.4298 29.2361 14.4298 29.2361 14.3848C29.2361 14.4298 29.0261 14.4298 29.0681 14.3398C29.0471 14.4298 29.1101 14.4523 29.0891 14.4973C29.0891 14.6323 29.1311 14.6323 29.2361 14.6323V14.6323Z" fill="#FF0016"/>
<path fill-rule="evenodd" clip-rule="evenodd" d="M29.2238 14.3914C29.2279 14.3884 29.2282 14.3864 29.2282 14.3855H29.25C29.25 14.3869 29.2506 14.389 29.254 14.3918C29.2575 14.3947 29.2633 14.3975 29.271 14.3997C29.2864 14.4041 29.3072 14.4055 29.3269 14.4029C29.3469 14.4002 29.3638 14.3937 29.3731 14.3842C29.3776 14.3797 29.3803 14.3746 29.3811 14.3687C29.3819 14.3627 29.3809 14.355 29.3763 14.3451L29.396 14.3359C29.407 14.3595 29.4114 14.3794 29.4114 14.3968C29.4114 14.4142 29.4069 14.4285 29.4012 14.4408C29.3984 14.4468 29.3952 14.4524 29.3922 14.4576C29.3915 14.4589 29.3907 14.4602 29.39 14.4614C29.3878 14.4652 29.3858 14.4687 29.3839 14.4722C29.3789 14.4815 29.376 14.4894 29.376 14.498C29.376 14.5655 29.3658 14.6042 29.3404 14.6246C29.3278 14.6348 29.3124 14.6395 29.2957 14.6417C29.2792 14.6439 29.2602 14.6439 29.2397 14.6439H29.2386C29.2128 14.6439 29.1899 14.6439 29.1706 14.6417C29.1511 14.6395 29.1339 14.635 29.1199 14.625C29.0914 14.6046 29.0812 14.5654 29.0812 14.498V14.4956L29.0823 14.4934C29.0894 14.4781 29.0843 14.4673 29.0748 14.4472C29.0738 14.4451 29.0728 14.443 29.0718 14.4408C29.0637 14.4235 29.0554 14.4025 29.0559 14.3737C29.0558 14.3732 29.0557 14.3728 29.0556 14.3723C29.0533 14.361 29.0553 14.3488 29.0613 14.3359L29.0817 14.343C29.0793 14.3532 29.0781 14.3625 29.0777 14.371C29.0793 14.3755 29.0823 14.3798 29.0868 14.3837C29.0981 14.3935 29.1178 14.4002 29.1406 14.4029C29.1631 14.4055 29.1867 14.4042 29.2042 14.3996C29.2131 14.3973 29.2196 14.3944 29.2238 14.3914ZM29.3897 14.3984C29.3893 14.3988 29.389 14.3991 29.3886 14.3995C29.3743 14.414 29.3518 14.4215 29.3298 14.4244C29.3075 14.4274 29.2837 14.426 29.265 14.4206C29.2557 14.4179 29.2469 14.414 29.2403 14.4086C29.2398 14.4082 29.2392 14.4078 29.2387 14.4073C29.238 14.4079 29.2373 14.4085 29.2366 14.409C29.2294 14.4142 29.2199 14.418 29.2097 14.4207C29.1891 14.426 29.1628 14.4274 29.1381 14.4245C29.118 14.4221 29.0975 14.4166 29.0819 14.4069C29.0845 14.416 29.088 14.4241 29.0915 14.4316C29.0925 14.4337 29.0935 14.4359 29.0946 14.4382C29.1035 14.4564 29.1131 14.4762 29.103 14.5003C29.1032 14.5663 29.114 14.5941 29.1326 14.6073C29.1422 14.6142 29.1551 14.6181 29.1731 14.6201C29.191 14.6222 29.2127 14.6222 29.2391 14.6222C29.2603 14.6222 29.2779 14.6221 29.2928 14.6202C29.3075 14.6182 29.3185 14.6144 29.3268 14.6077C29.3434 14.5943 29.3542 14.5656 29.3542 14.498C29.3542 14.4841 29.3591 14.4724 29.3647 14.462C29.3668 14.458 29.3692 14.454 29.3714 14.4502C29.3721 14.449 29.3728 14.4478 29.3734 14.4467C29.3763 14.4417 29.3791 14.4367 29.3815 14.4316C29.3861 14.4217 29.3894 14.4111 29.3897 14.3984Z" fill="black"/>
<path d="M29.1319 14.3644L28.9219 14.2969ZM29.1319 14.3644H28.9219ZM29.1319 14.3869L28.9429 14.4544ZM29.2999 14.3644L29.5099 14.2969ZM29.2999 14.3644H29.5519ZM29.2999 14.3869L29.5099 14.4544Z" fill="black"/>
<path fill-rule="evenodd" clip-rule="evenodd" d="M28.9285 14.2852L29.1385 14.3527L29.1352 14.363V14.3739H28.9252V14.3521H29.0659L28.9219 14.3059L28.9285 14.2852ZM29.3725 14.3521L29.5165 14.3059L29.5099 14.2852L29.2999 14.3527L29.3032 14.363V14.3739H29.5552V14.3521H29.3725ZM29.5099 14.4634L29.2999 14.3959L29.3065 14.3752L29.5165 14.4427L29.5099 14.4634ZM28.9425 14.4428L29.1315 14.3753L29.1389 14.3957L28.9499 14.4632L28.9425 14.4428Z" fill="black"/>
<path d="M27.4562 13.8008H27.6063H27.4562ZM27.4562 13.9508H27.1562H27.4562ZM27.4562 14.2508H27.1562H27.3062H27.4562ZM27.4562 15.1508C27.4562 15.0008 27.3062 15.1508 27.3062 15.1508H27.4562ZM27.4562 15.1508C27.4562 15.1508 27.3062 15.4508 27.4562 15.4508V15.3008V15.1508ZM30.0062 15.6008C30.0062 15.6008 29.7063 15.7508 29.8563 15.9008V15.6008H30.0062ZM30.0062 15.7508V16.0508V15.9008V15.7508ZM30.0062 15.4508L29.8563 15.6008H30.0062V15.4508ZM31.6562 15.7508V15.9008V15.7508ZM31.6562 15.6008C31.6562 15.6008 31.5062 15.6008 31.6562 15.6008V15.6008ZM31.6562 15.9008V16.0508H31.8062V15.9008H31.6562ZM28.6562 14.7008V15.1508V14.7008Z" fill="#0051BA"/>
</g>
<defs>
<clipPath id="clip0_4046_22482">
<rect width="60" height="45" fill="white"/>
</clipPath>
</defs>
</svg>
