<svg width="60" height="45" viewBox="0 0 60 45" fill="none" xmlns="http://www.w3.org/2000/svg">
<g clip-path="url(#clip0_4046_22538)">
<path d="M0 0H60V45H0V0Z" fill="white"/>
<path d="M0 0H60V13.5H0V0Z" fill="black"/>
<path d="M0 31.5H60V45H0V31.5Z" fill="#006600"/>
<path d="M21.9609 35.8594L22.4672 36.1406L35.6016 13.3594C36.3609 13.1906 36.7828 12.4594 37.2047 11.7281C37.4859 11.2219 38.6109 9.28125 39.0891 6.75C37.7547 7.93572 36.6241 9.33241 35.7422 10.8844C35.3203 11.6156 34.8984 12.3469 35.0953 13.1062L21.9609 35.8594Z" fill="black"/>
<path fill-rule="evenodd" clip-rule="evenodd" d="M39.3017 6.37109L39.2252 6.77609C38.7624 9.22597 37.6999 11.1266 37.3648 11.7262C37.3503 11.752 37.3372 11.7755 37.3256 11.7964L37.325 11.7974L37.3207 11.8049C37.1124 12.1659 36.8961 12.5409 36.6344 12.8462C36.3823 13.1403 36.0806 13.3789 35.6913 13.4818L22.5178 36.3308L21.7656 35.9129L34.9434 13.0846C34.8552 12.6886 34.9193 12.3048 35.0524 11.9369C35.1903 11.5561 35.4064 11.1815 35.6148 10.8201L35.6179 10.8149C35.6179 10.8148 35.618 10.8146 35.6181 10.8145C36.5076 9.2493 37.6479 7.84072 38.9936 6.64488L39.3017 6.37109ZM38.8621 7.14565C37.6772 8.25655 36.6657 9.54023 35.8624 10.9538L35.8619 10.9546C35.6496 11.3227 35.4455 11.6773 35.3169 12.0326C35.1892 12.3854 35.1404 12.7277 35.2294 13.071L35.2438 13.1267L22.1521 35.8059L22.4124 35.9505L35.5086 13.2355L35.569 13.2221C35.9092 13.1465 36.1798 12.9444 36.4209 12.6632C36.6637 12.3799 36.868 12.0267 37.0802 11.6589C37.0916 11.6384 37.1044 11.6155 37.1184 11.5905C37.4313 11.0306 38.3735 9.34492 38.8621 7.14565Z" fill="black"/>
<path d="M21.9609 35.8594L22.4672 36.1406L35.6016 13.3594C36.3609 13.1906 36.7828 12.4594 37.2047 11.7281C37.4859 11.2219 38.6109 9.28125 39.0891 6.75C37.7547 7.93572 36.6241 9.33241 35.7422 10.8844C35.3203 11.6156 34.8984 12.3469 35.0953 13.1062L21.9609 35.8594Z" fill="white"/>
<path d="M60.05 15.75H35.3469C34.5031 13.5 31.6906 9 30.0031 9C28.3156 9 25.5031 13.5 24.6594 15.75H-0.015625V29.25H24.6594C25.5031 31.5 28.3156 36 30.0031 36C31.6906 36 34.5031 31.5 35.3469 29.25H60.05V15.75Z" fill="#BB0000"/>
<path d="M35.3438 29.25C36.1875 27 36.75 24.75 36.75 22.5C36.75 20.25 36.1875 18 35.3438 15.75C34.5 18 33.9375 20.25 33.9375 22.5C33.9375 24.75 34.5 27 35.3438 29.25Z" fill="black"/>
<path d="M30 24.1875C30.6213 24.1875 31.125 23.432 31.125 22.5C31.125 21.568 30.6213 20.8125 30 20.8125C29.3787 20.8125 28.875 21.568 28.875 22.5C28.875 23.432 29.3787 24.1875 30 24.1875Z" fill="white"/>
<path d="M30.2812 24.1328C30.2812 24.1328 31.4062 26.3828 31.4062 30.0391C31.4062 33.6953 30.2812 35.9453 30.2812 35.9453V24.1328Z" fill="white"/>
</g>
<defs>
<clipPath id="clip0_4046_22538">
<rect width="60" height="45" fill="white"/>
</clipPath>
</defs>
</svg>
