<svg width="60" height="45" viewBox="0 0 60 45" fill="none" xmlns="http://www.w3.org/2000/svg">
<g clip-path="url(#clip0_4046_22551)">
<path fill-rule="evenodd" clip-rule="evenodd" d="M-3.78906 0H63.7812V45H-3.78906V0Z" fill="#FF0000"/>
<path fill-rule="evenodd" clip-rule="evenodd" d="M16.7354 22.9463C17.9307 21.4873 20.418 22.9111 22.4482 21.8652C20.04 21.9971 18.7305 20.7051 16.832 20.8896C18.8008 19.6768 20.4795 21.2852 22.6768 20.6436C19.7676 20.3975 19.8906 19.0879 17.2363 18.9033C19.5918 17.9014 20.752 19.9404 23.0635 19.4746C20.3389 18.8506 19.9873 17.251 17.9658 16.9082C20.9189 16.4687 20.7256 18.209 23.6172 18.4199C20.6816 17.1631 21.4463 16.0645 18.9941 15.1064C21.7451 15.0449 21.5605 16.9521 24.3555 17.4443C21.9648 15.9326 22.2549 14.5527 20.2949 13.4717C22.624 13.5156 22.8438 15.8975 25.2256 16.6357C23.1074 14.957 23.6611 13.5332 21.833 12.0303C24.1533 12.5752 23.8105 14.6318 26.2275 15.9502C24.4346 13.9639 25.1201 12.54 23.5645 10.9141C25.7969 11.626 24.9443 13.5859 27.2559 15.4492C25.9375 13.2607 26.7549 11.8633 25.4453 10.0264C27.5195 11.0898 26.5176 13.0938 28.4336 15.0801C27.5283 12.8389 28.4336 11.4502 27.5107 9.46387C29.2861 10.7822 28.2314 12.918 29.6641 14.957C29.1367 12.1445 30.3496 11.6875 29.9717 9.22656C31.3164 10.8789 29.8135 12.5313 30.8506 14.9658C30.7188 12.1973 32.1953 11.5557 31.9404 9.34082C33.2676 11.3271 31.1934 13.0586 32.0635 15.1855C32.2832 12.5664 34.0059 11.8809 34.0322 9.8418C35.0869 11.7139 32.8018 13.0674 33.1709 15.5547C33.918 12.8125 35.7549 12.4785 35.9834 10.6328C36.6074 12.7949 34.1025 13.7969 34.252 16.2051C34.999 13.7705 37.293 13.4805 37.7676 11.6875C38.0576 13.9727 35.7988 14.3857 35.1572 16.917C36.3438 14.8516 38.4268 14.6846 39.3584 13.0498C39.2881 15.3174 36.7393 15.6162 35.957 17.7344C37.4248 15.9326 39.2705 16.2402 40.7383 14.6494C40.5801 16.6973 37.9873 16.583 36.6074 18.7012C38.1982 17.2334 40.5977 17.6729 41.8193 16.4072C41.7578 18.2178 38.5762 18.0771 37.0732 19.7031C38.9189 18.6836 41.2744 19.2812 42.6279 18.3408C42.3818 19.9229 39.0244 19.5537 37.416 20.8018C39.6309 20.1865 41.3447 21.127 43.1289 20.4502C42.2588 21.9883 39.209 21.0127 37.5918 22.0146C39.5254 21.6895 41.5645 22.8584 43.3135 22.4805C42.7422 23.8164 39.3936 22.3926 37.6006 23.2275C39.7451 23.21 41.1426 24.5898 43.1377 24.4932C42.0566 25.7061 39.1211 24.0449 37.4072 24.3262C39.499 24.7656 41.0986 26.4883 42.6807 26.5762C41.3711 27.5693 38.9453 25.3018 36.9678 25.583C39.0068 26.1279 40.7119 28.4395 41.8721 28.4922C40.6152 29.3535 38.1367 26.5146 36.4404 26.6201C38.5059 27.5518 39.4463 29.916 40.8086 30.25C39.1299 30.7861 37.4775 27.6836 35.6758 27.5693C37.7676 28.8877 37.8818 30.9092 39.4902 31.8057C37.7939 32.2188 36.5898 28.7119 34.8057 28.4131C36.5195 29.6699 36.7832 32.3682 37.917 33.2119C36.1943 33.2998 35.5703 29.6348 33.8037 29.1074C35.3154 30.373 34.9551 33.1152 36.1328 34.293C34.3398 33.915 34.5684 30.7246 32.6963 29.6436C34.041 31.3486 33.3555 33.7656 34.2344 35.1279C32.4854 34.4248 33.2412 31.5596 31.5801 29.9424C32.4854 31.7529 31.5098 33.8623 32.2305 35.6113C30.6309 34.8291 31.7031 31.4453 30.4814 30.1006C31.0439 32.1924 30.0068 33.9238 30.4287 35.7959C28.7939 33.9062 30.6748 31.999 29.2598 30.0742C29.6289 32.2803 28.082 33.8271 28.3281 35.6729C27.0361 34.1611 29.0312 31.7441 28.0205 29.8369C28.2314 32.0078 26.2363 33.915 26.377 35.2861C25.3223 33.5283 27.5459 31.4541 26.9482 29.459C26.8252 31.5332 24.8037 32.6582 24.4258 34.5479C23.749 32.4648 26.1484 30.9619 25.9375 28.9141C25.252 30.8564 23.3008 31.6387 22.6152 33.5283C22.0527 31.4453 24.9004 30.3467 24.9707 28.167C24.0918 30.2061 21.7627 30.6631 20.9893 32.2275C20.6992 30.1621 23.96 29.2393 24.083 27.2793C23.0283 29.1602 20.4795 29.2393 19.6006 30.7334C19.4688 28.6768 22.9053 28.4219 23.4414 26.2686C22.3955 27.8682 19.6006 27.666 18.4316 28.9668C18.6162 27.0596 22.334 26.9453 22.9316 25.2227C21.543 26.5586 18.9766 26.0137 17.5264 27.0684C18.335 25.1875 21.8242 25.583 22.6064 24.2295C21.0684 25.0293 18.335 24.2471 16.9814 25.0557C18.2119 23.2803 20.9189 24.3438 22.457 23.1221C19.9609 23.4824 18.458 22.4893 16.7266 22.9463H16.7354Z" fill="#FFFF00"/>
<path fill-rule="evenodd" clip-rule="evenodd" d="M38.751 22.5078C38.751 24.8213 37.8319 27.0401 36.196 28.676C34.5601 30.3119 32.3414 31.231 30.0278 31.231C27.7143 31.231 25.4955 30.3119 23.8596 28.676C22.2237 27.0401 21.3047 24.8213 21.3047 22.5078C21.3047 20.1955 22.2233 17.9778 23.8584 16.3427C25.4934 14.7076 27.7111 13.7891 30.0234 13.7891C32.3358 13.7891 34.5534 14.7076 36.1885 16.3427C37.8236 17.9778 38.7422 20.1955 38.7422 22.5078H38.751Z" fill="#FFFF00"/>
<path fill-rule="evenodd" clip-rule="evenodd" d="M37.623 22.5264C37.623 24.538 36.8239 26.4673 35.4015 27.8897C33.979 29.3122 32.0497 30.1113 30.0381 30.1113C28.0264 30.1113 26.0972 29.3122 24.6747 27.8897C23.2523 26.4673 22.4531 24.538 22.4531 22.5264C22.4531 20.5147 23.2523 18.5854 24.6747 17.163C26.0972 15.7405 28.0264 14.9414 30.0381 14.9414C32.0497 14.9414 33.979 15.7405 35.4015 17.163C36.8239 18.5854 37.623 20.5147 37.623 22.5264V22.5264Z" fill="#FF0000"/>
<path fill-rule="evenodd" clip-rule="evenodd" d="M36.5723 22.5439C36.5723 24.2712 35.8861 25.9277 34.6647 27.1491C33.4434 28.3705 31.7868 29.0566 30.0596 29.0566C28.3323 29.0566 26.6758 28.3705 25.4544 27.1491C24.233 25.9277 23.5469 24.2712 23.5469 22.5439C23.5469 20.8167 24.233 19.1601 25.4544 17.9388C26.6758 16.7174 28.3323 16.0313 30.0596 16.0312C31.7868 16.0313 33.4434 16.7174 34.6647 17.9388C35.8861 19.1601 36.5723 20.8167 36.5723 22.5439V22.5439Z" fill="#FFFF00"/>
<path fill-rule="evenodd" clip-rule="evenodd" d="M24.5117 18.2822C26.3135 18.2383 28.5547 18.4053 30.04 19.583C31.6269 18.5927 33.4951 18.1511 35.3574 18.3262L36.3242 20.0928C34.8219 19.9557 33.3095 20.2037 31.9297 20.8135C32.9158 21.5408 33.7087 22.4987 34.2388 23.6035C34.769 24.7082 35.0203 25.926 34.9707 27.1504C34.7334 27.4492 34.3555 27.7744 34.1182 28.0732C34.4697 25.5684 33.1514 22.7734 31.2266 21.3057C32.791 23.5557 33.7139 25.5771 33.459 28.3721L32.5801 28.9346C32.9844 26.4736 32.4043 23.5732 30.585 21.9033C31.6396 23.4414 32.6768 26.21 32.0264 29.0225C31.7451 29.1104 31.3057 29.3477 31.0244 29.4268C31.369 28.2728 31.4625 27.0586 31.2988 25.8655C31.1351 24.6724 30.7179 23.5282 30.0752 22.5098C28.8623 24.25 28.4668 26.9043 29.1523 29.3652C28.8184 29.2773 28.5635 29.1719 28.2207 29.0928C27.7197 26.4561 28.4141 23.4678 29.6182 21.9121C28.3877 22.624 27.2363 25.665 27.5615 28.7676L26.7441 28.3896C26.3486 26.0781 27.3945 23.0635 28.8975 21.3232C27.1924 22.3955 25.8037 25.041 26.041 27.8799C25.7773 27.6514 25.54 27.5371 25.2764 27.2998C24.9775 24.8213 26.4189 22.3252 28.0977 20.8311C26.6826 20.1895 25.4609 20.0664 23.7031 20.0928C23.9756 19.5215 24.2305 18.8535 24.5117 18.2734V18.2822Z" fill="#FF0000"/>
</g>
<defs>
<clipPath id="clip0_4046_22551">
<rect width="60" height="45" fill="white"/>
</clipPath>
</defs>
</svg>
