<svg width="60" height="45" viewBox="0 0 60 45" fill="none" xmlns="http://www.w3.org/2000/svg">
<g clip-path="url(#clip0_4046_22559)">
<path d="M0 0H60V45H0V0Z" fill="#032EA1"/>
<path d="M0 11.25H60V33.75H0V11.25Z" fill="#E00025"/>
<path d="M23.6562 21.207H36.4587V26.1345H23.6562V21.207Z" fill="white"/>
<path fill-rule="evenodd" clip-rule="evenodd" d="M23.6016 21.2086L23.6578 21.1523H36.4603L36.5166 21.2086V26.1361L36.4603 26.1923H23.6578L23.6016 26.1361V21.2086ZM23.7141 21.2648V26.0798H36.4041V21.2648H23.7141Z" fill="black"/>
<path d="M35.8062 23.9214H36.2V25.7777H35.8062V23.9214ZM23.6562 23.0102H36.4587V23.5727H23.6562V23.0102ZM23.6562 22.2227H36.4587V22.7402H23.6562V22.2227Z" fill="white"/>
<path fill-rule="evenodd" clip-rule="evenodd" d="M23.6016 22.2203L23.6578 22.1641H36.4603L36.5166 22.2203V22.7378L36.4603 22.7941H23.6578L23.6016 22.7378V22.2203ZM23.7141 22.2766V22.6816H36.4041V22.2766H23.7141ZM23.6016 23.0078L23.6578 22.9516H36.4603L36.5166 23.0078V23.5703L36.4603 23.6266H23.6578L23.6016 23.5703V23.0078ZM23.7141 23.0641V23.5141H36.4041V23.0641H23.7141ZM35.7516 23.9191L35.8078 23.8628H36.2016L36.2578 23.9191V25.7753L36.2016 25.8316H35.8078L35.7516 25.7753V23.9191ZM35.8641 23.9753V25.7191H36.1453V23.9753H35.8641Z" fill="black"/>
<path d="M23.6562 21.457H36.4587V21.9408H23.6562V21.457Z" fill="white"/>
<path fill-rule="evenodd" clip-rule="evenodd" d="M23.6094 21.4569L23.66 21.4062H36.4625L36.5131 21.4569V21.9406L36.4625 21.9912H23.66L23.6094 21.9406V21.4569ZM23.7106 21.5075V21.89H36.4119V21.5075H23.7106Z" fill="black"/>
<path d="M27.0359 23.918H27.4409V25.7742H27.0359V23.918ZM32.5484 23.918H32.9534V25.7742H32.5484V23.918ZM23.7734 23.918H24.1672V25.7742H23.7734V23.918ZM24.5609 23.918H24.9547V25.7742H24.5609V23.918ZM25.4047 23.918H25.7984V25.7742H25.4047V23.918ZM26.2484 23.918H26.6422V25.7742H26.2484V23.918ZM33.3134 23.918H33.7184V25.7742H33.3134V23.918ZM34.1572 23.918H34.5622V25.7742H34.1572V23.918ZM35.0009 23.918H35.4059V25.7742H35.0009V23.918Z" fill="white"/>
<path fill-rule="evenodd" clip-rule="evenodd" d="M23.7109 23.9195L23.7672 23.8633H24.1609L24.2172 23.9195V25.7758L24.1609 25.832H23.7672L23.7109 25.7758V23.9195ZM23.8234 23.9758V25.7195H24.1047V23.9758H23.8234ZM24.4984 23.9195L24.5547 23.8633H24.9484L25.0047 23.9195V25.7758L24.9484 25.832H24.5547L24.4984 25.7758V23.9195ZM24.6109 23.9758V25.7195H24.8922V23.9758H24.6109ZM25.3422 23.9195L25.3984 23.8633H25.7922L25.8484 23.9195V25.7758L25.7922 25.832H25.3984L25.3422 25.7758V23.9195ZM25.4547 23.9758V25.7195H25.7359V23.9758H25.4547ZM26.1859 23.9195L26.2422 23.8633H26.6359L26.6922 23.9195V25.7758L26.6359 25.832H26.2422L26.1859 25.7758V23.9195ZM26.2984 23.9758V25.7195H26.5797V23.9758H26.2984ZM26.9734 23.9195L27.0297 23.8633H27.4347L27.4909 23.9195V25.7758L27.4347 25.832H27.0297L26.9734 25.7758V23.9195ZM27.0859 23.9758V25.7195H27.3784V23.9758H27.0859ZM32.4859 23.9195L32.5422 23.8633H32.9472L33.0034 23.9195V25.7758L32.9472 25.832H32.5422L32.4859 25.7758V23.9195ZM32.5984 23.9758V25.7195H32.8909V23.9758H32.5984ZM33.2509 23.9195L33.3072 23.8633H33.7122L33.7684 23.9195V25.7758L33.7122 25.832H33.3072L33.2509 25.7758V23.9195ZM33.3634 23.9758V25.7195H33.6559V23.9758H33.3634ZM34.0947 23.9195L34.1509 23.8633H34.5559L34.6122 23.9195V25.7758L34.5559 25.832H34.1509L34.0947 25.7758V23.9195ZM34.2072 23.9758V25.7195H34.4997V23.9758H34.2072ZM34.9384 23.9195L34.9947 23.8633H35.3997L35.4559 23.9195V25.7758L35.3997 25.832H34.9947L34.9384 25.7758V23.9195ZM35.0509 23.9758V25.7195H35.3434V23.9758H35.0509Z" fill="black"/>
<path d="M18.6484 26.3853C18.8837 26.2572 19.0608 26.0438 19.1434 25.7891H40.8672C40.9498 26.0438 41.1269 26.2572 41.3622 26.3853H18.6484Z" fill="white"/>
<path fill-rule="evenodd" clip-rule="evenodd" d="M19.106 25.7305H40.9115L40.9242 25.7694C41.0023 26.0105 41.17 26.2124 41.3925 26.3336L41.3656 26.4392H18.6519L18.625 26.3336C18.8476 26.2124 19.0152 26.0105 19.0934 25.7694L19.106 25.7305ZM19.187 25.843C19.1171 26.0341 18.9959 26.2012 18.8382 26.3267H41.1794C41.0216 26.2012 40.9005 26.0341 40.8306 25.843H19.187Z" fill="black"/>
<path d="M29.7359 13.703C29.7359 13.703 29.7247 13.2417 29.9947 13.2305C30.2534 13.2305 30.2422 13.703 30.2422 13.703H29.7359ZM28.3297 19.8342V19.2155C28.3297 18.9005 28.0147 18.878 28.0147 18.653C28.0147 18.653 27.9697 18.3155 28.0597 18.158C28.1834 18.608 28.3972 18.5292 28.3972 18.338C28.3972 18.1805 28.2847 18.023 28.0259 17.6292C27.9359 17.5055 27.9922 17.1117 28.1047 16.9655C28.1497 17.303 28.2059 17.4717 28.3522 17.4717C28.4422 17.4717 28.5097 17.4155 28.5097 17.2467C28.5097 17.0217 28.3634 16.9092 28.2847 16.7067C28.2459 16.6059 28.237 16.4961 28.2589 16.3904C28.2808 16.2847 28.3328 16.1875 28.4084 16.1105C28.4647 16.448 28.4534 16.583 28.5997 16.583C28.9034 16.4817 28.5997 16.043 28.5322 15.9305C28.4647 15.8067 28.6447 15.548 28.6447 15.548C28.7347 15.8517 28.7572 15.8742 28.8697 15.8405C29.0047 15.8067 28.9822 15.6155 28.8247 15.458C28.7234 15.3455 28.7347 15.1992 28.8472 15.0867C28.9597 15.3005 29.0947 15.2892 29.1059 15.1542L29.0159 14.6592H30.9734L30.8722 15.143C30.8497 15.278 31.0297 15.3117 31.1422 15.0867C31.2547 15.1992 31.2659 15.3567 31.1647 15.458C31.0072 15.6155 30.9847 15.8067 31.1197 15.8405C31.2322 15.8742 31.2547 15.8405 31.3447 15.548C31.3447 15.548 31.5134 15.7167 31.4572 15.9305C31.3897 16.043 31.0859 16.493 31.3897 16.583C31.5359 16.583 31.5247 16.448 31.5809 16.1105C31.6547 16.1887 31.7045 16.2865 31.7245 16.3921C31.7444 16.4978 31.7336 16.607 31.6934 16.7067C31.6259 16.9092 31.4684 17.0217 31.4684 17.2467C31.4684 17.4155 31.5472 17.4717 31.6372 17.4717C31.7834 17.4717 31.8397 17.3142 31.8847 16.9655C31.9972 17.1117 32.0534 17.5055 31.9634 17.6405C31.7047 18.023 31.5809 18.1805 31.5809 18.338C31.5809 18.5292 31.8059 18.608 31.9184 18.158C32.0197 18.3155 31.9747 18.653 31.9747 18.653C31.9747 18.878 31.6709 18.9005 31.6597 19.2155V19.8342H28.3297ZM29.1397 14.6592L29.0947 14.3105H30.8834L30.8384 14.6592H29.1397ZM29.2522 14.2992L29.2297 14.018H30.7484L30.7147 14.2992H29.2522ZM29.5109 14.0067L29.4772 13.7142H30.4897L30.4784 14.0067H29.5109ZM33.2234 26.3817C32.9984 26.303 32.6609 26.0555 32.6609 25.8192V23.0855L32.9534 22.703H27.0359L27.3172 23.0855V25.8192C27.3172 26.0555 27.0922 26.303 26.8672 26.3817H33.2234Z" fill="white"/>
<path d="M28.0703 23.918H28.4753V25.7742H28.0703V23.918ZM31.4903 23.918H31.8953V25.7742H31.4903V23.918Z" fill="white"/>
<path fill-rule="evenodd" clip-rule="evenodd" d="M28.0156 23.9195L28.0719 23.8633H28.4769L28.5331 23.9195V25.7758L28.4769 25.832H28.0719L28.0156 25.7758V23.9195ZM28.1281 23.9758V25.7195H28.4206V23.9758H28.1281ZM31.4356 23.9195L31.4919 23.8633H31.8969L31.9531 23.9195V25.7758L31.8969 25.832H31.4919L31.4356 25.7758V23.9195ZM31.5481 23.9758V25.7195H31.8406V23.9758H31.5481Z" fill="black"/>
<path d="M26.9253 19.5977V22.7027H33.0003V19.5977C32.9301 19.6233 32.867 19.6652 32.8162 19.72C32.7653 19.7747 32.7282 19.8408 32.7078 19.9127V21.2402H27.2291V19.9127C27.2291 19.9127 27.1616 19.6877 26.9141 19.5977H26.9253Z" fill="white"/>
<path fill-rule="evenodd" clip-rule="evenodd" d="M33.0547 19.5156V22.7573H26.8672V19.5961H26.9023L26.9122 19.5398H26.9797V19.5632C27.0893 19.6143 27.1622 19.6895 27.2084 19.7548C27.2347 19.792 27.2526 19.8261 27.264 19.8513C27.2697 19.8639 27.2738 19.8743 27.2766 19.8818C27.278 19.8855 27.279 19.8886 27.2797 19.8908L27.2806 19.8935L27.2809 19.8943L27.281 19.8947L27.281 19.8948C27.281 19.8948 27.2811 19.8949 27.2272 19.9111L27.2811 19.8949L27.2834 19.9028V21.1823H32.6497V19.9032L32.6518 19.8957C32.6746 19.8153 32.7162 19.7414 32.7731 19.6801C32.83 19.6188 32.9006 19.5719 32.9791 19.5432L33.0547 19.5156ZM27.1709 19.9204C27.169 19.9153 27.166 19.9075 27.1615 19.8977C27.1525 19.8779 27.1381 19.8501 27.1166 19.8198C27.0862 19.7769 27.0421 19.7292 26.9797 19.6907V22.6448H32.9422V19.6855C32.9103 19.7051 32.8811 19.729 32.8555 19.7566C32.8124 19.803 32.7805 19.8586 32.7622 19.9191V21.2948H27.1709V19.9204Z" fill="black"/>
<path d="M32.1691 26.38C31.9666 26.3012 31.5391 26.0537 31.5391 25.8175V22.7575C31.5841 22.5887 31.8091 22.4875 31.9553 22.375H27.9391C28.1303 22.4875 28.3441 22.5662 28.4228 22.7575V25.8175C28.4228 26.0537 28.0853 26.3012 27.8828 26.38H32.1691Z" fill="white"/>
<path fill-rule="evenodd" clip-rule="evenodd" d="M27.7266 22.3203H32.1148L31.9837 22.4211C31.9452 22.4507 31.902 22.4793 31.8599 22.507L31.859 22.5077C31.8166 22.5356 31.7753 22.5629 31.7372 22.5916C31.6615 22.6487 31.6085 22.7045 31.5894 22.7669V25.8191C31.5894 25.8612 31.6087 25.9092 31.6481 25.9618C31.6872 26.0139 31.7427 26.0659 31.8064 26.1147C31.934 26.2124 32.0868 26.2915 32.1835 26.3291L32.1631 26.4378H27.8769L27.8565 26.3291C27.9508 26.2925 28.0799 26.2148 28.1847 26.118C28.2918 26.0191 28.3606 25.9124 28.3606 25.8191V22.7706C28.3264 22.6948 28.2656 22.6377 28.1862 22.5852C28.1447 22.5578 28.0995 22.5324 28.0515 22.5063C28.0418 22.5011 28.032 22.4958 28.0221 22.4904C27.9835 22.4696 27.9435 22.4479 27.9046 22.425L27.7266 22.3203ZM28.1512 22.4328C28.1842 22.4514 28.2169 22.4707 28.2482 22.4914C28.3398 22.5519 28.4234 22.6272 28.4689 22.7376L28.4731 22.7479V25.8191C28.4731 25.9619 28.3732 26.0971 28.261 26.2007C28.2111 26.2467 28.1563 26.2889 28.1013 26.3253H31.921C31.8596 26.2898 31.7965 26.2488 31.738 26.204C31.6695 26.1516 31.6055 26.0925 31.5581 26.0293C31.511 25.9665 31.4769 25.895 31.4769 25.8191V22.7517L31.4788 22.7446C31.5064 22.6409 31.5874 22.5637 31.6694 22.5018C31.7014 22.4777 31.7352 22.4547 31.7682 22.4328H28.1512Z" fill="black"/>
<path d="M32.7053 22.4109V20.2059H32.1541V19.9922H27.7891V20.2172H27.2266V22.4109H32.7053ZM31.3103 26.3822C31.1078 26.3034 30.8266 26.0559 30.8266 25.8197V23.2097L30.9841 22.9734H28.9928L29.1616 23.1984V25.8197C29.1616 26.0559 28.8691 26.3034 28.6778 26.3822H31.3103Z" fill="white"/>
<path fill-rule="evenodd" clip-rule="evenodd" d="M27.7344 19.9336H32.2119V20.1473H32.7631V22.4648H27.1719V20.1586H27.7344V19.9336ZM27.8469 20.0461V20.2711H27.2844V22.3523H32.6506V20.2598H32.0994V20.0461H27.8469ZM28.8819 22.9148H31.0907L30.8844 23.2244V25.8173C30.8844 25.9144 30.9433 26.022 31.035 26.119C31.1256 26.215 31.2397 26.2914 31.3323 26.3274L31.3119 26.4361H28.6794L28.658 26.3278C28.7456 26.2918 28.8601 26.215 28.9524 26.1187C29.0459 26.0212 29.1069 25.9137 29.1069 25.8173V23.2148L28.8819 22.9148ZM29.1069 23.0273L29.2194 23.1773V25.8173C29.2194 25.9572 29.1341 26.0916 29.0336 26.1966C28.9886 26.2435 28.9387 26.2865 28.8881 26.3236H31.0983C31.0472 26.2864 30.9976 26.2433 30.9532 26.1963C30.8536 26.0908 30.7719 25.9566 30.7719 25.8173V23.1903L30.8805 23.0273H29.1069Z" fill="black"/>
<path d="M29.4766 22.9727H30.4891V26.3814H29.4766V22.9727Z" fill="white"/>
<path fill-rule="evenodd" clip-rule="evenodd" d="M29.4219 22.918H30.5469V26.4392H29.4219V22.918ZM29.5344 23.0305V26.3267H30.4344V23.0305H29.5344Z" fill="black"/>
<path d="M31.0209 22.2205C31.0209 21.9955 31.6734 21.9842 32.0109 21.793H27.9609C28.2984 21.9842 28.9397 21.9955 28.9397 22.2205L29.0747 22.6592L30.7622 22.7267L31.0209 22.2205Z" fill="white"/>
<path fill-rule="evenodd" clip-rule="evenodd" d="M27.9297 21.8396L27.9574 21.7344H32.0074L32.0352 21.8396C31.945 21.8907 31.8359 21.9287 31.726 21.9605C31.6573 21.9804 31.5854 21.9986 31.5166 22.0161C31.4764 22.0263 31.4372 22.0362 31.4004 22.0461C31.2976 22.0735 31.2113 22.1006 31.1513 22.1329C31.0896 22.166 31.0737 22.1944 31.0737 22.2181L31.0675 22.2437L30.8088 22.75L30.7564 22.7806L29.0689 22.7131L29.0174 22.6734L28.8824 22.2347L28.8799 22.2181C28.8799 22.1939 28.864 22.1656 28.8038 22.1327C28.7448 22.1005 28.66 22.0735 28.5587 22.046C28.5219 22.0361 28.4827 22.026 28.4424 22.0156C28.375 21.9983 28.3044 21.9802 28.2369 21.9605C28.1281 21.9286 28.0198 21.8906 27.9297 21.8396ZM28.2496 21.8469C28.2559 21.8488 28.2622 21.8506 28.2685 21.8525C28.3348 21.8719 28.4013 21.8889 28.467 21.9058C28.5078 21.9162 28.5482 21.9266 28.5881 21.9374C28.6892 21.9648 28.7858 21.9947 28.8576 22.0339C28.9257 22.071 28.9879 22.1258 28.9922 22.2089L29.1132 22.6023L30.725 22.6667L30.9618 22.2034C30.9686 22.123 31.0308 22.0698 31.098 22.0337C31.1709 21.9946 31.2688 21.9648 31.3713 21.9374C31.4112 21.9267 31.4516 21.9165 31.4923 21.9062C31.5594 21.8892 31.6273 21.872 31.6947 21.8524C31.701 21.8506 31.7074 21.8487 31.7137 21.8469H28.2496Z" fill="black"/>
<path d="M31.805 19.8327C31.805 19.2814 31.8275 19.0789 31.9963 19.0789V20.8114C31.58 20.9689 31.2875 21.4864 31.2875 21.4864H28.6775C28.6775 21.4864 28.385 20.9689 27.9688 20.8114V19.0677C28.1713 19.0677 28.1713 19.2927 28.1713 19.8214L31.805 19.8327ZM31.9963 19.6077C31.9963 18.9777 32.5475 18.9102 32.5475 18.9102V19.4727C32.3338 19.4614 32.2325 19.6527 32.2325 19.9227C32.2325 20.2039 32.4012 20.2039 32.4012 20.2039V21.8014H31.9963V19.6077Z" fill="white"/>
<path fill-rule="evenodd" clip-rule="evenodd" d="M32.6053 18.8477V19.533L32.5461 19.5299C32.46 19.5254 32.4001 19.56 32.3586 19.6239C32.3148 19.6913 32.2903 19.7943 32.2903 19.9237C32.2903 20.0527 32.3285 20.105 32.3544 20.1266C32.3683 20.1382 32.3819 20.1437 32.3915 20.1464C32.3963 20.1477 32.4001 20.1483 32.4022 20.1486C32.4029 20.1486 32.4035 20.1487 32.4038 20.1487H32.4591V21.8587H31.9416V20.8987C31.7788 20.981 31.6371 21.1182 31.5304 21.2452C31.4695 21.3178 31.4211 21.3857 31.3881 21.4353C31.3716 21.4601 31.3589 21.4803 31.3505 21.4942C31.3462 21.5011 31.3431 21.5065 31.341 21.5101L31.3387 21.514L31.3381 21.515L31.338 21.5151L31.3219 21.5437H28.6462L28.6301 21.5152L28.63 21.515L28.6295 21.514L28.6271 21.5101C28.6251 21.5065 28.6219 21.5011 28.6176 21.4942C28.6092 21.4803 28.5965 21.4601 28.58 21.4353C28.547 21.3857 28.4986 21.3178 28.4377 21.2452C28.3147 21.0987 28.1451 20.9387 27.9504 20.8651L27.9141 20.8513V19.0125H27.9703C28.0323 19.0125 28.0863 19.0302 28.1278 19.073C28.1671 19.1136 28.1891 19.1705 28.2026 19.2359C28.2274 19.3559 28.229 19.533 28.2291 19.7664L31.7504 19.7773C31.7512 19.5328 31.7577 19.3558 31.784 19.2379C31.7982 19.1742 31.8198 19.1201 31.8557 19.0818C31.8939 19.0409 31.9429 19.0237 31.9978 19.0237H32.0541V19.1735C32.1073 19.0879 32.174 19.0243 32.2414 18.9775C32.3161 18.9257 32.3905 18.8953 32.4461 18.8779C32.474 18.8692 32.4974 18.8636 32.5141 18.8602C32.5225 18.8585 32.5292 18.8574 32.534 18.8566C32.5363 18.8562 32.5382 18.8559 32.5396 18.8557L32.5413 18.8555L32.5419 18.8554L32.5421 18.8554C32.5421 18.8554 32.5422 18.8554 32.5491 18.9112L32.5422 18.8554L32.6053 18.8477ZM32.4928 18.9813C32.4886 18.9826 32.4842 18.9839 32.4797 18.9853C32.432 19.0002 32.3686 19.0262 32.3055 19.0699C32.1817 19.1559 32.0541 19.3135 32.0541 19.6087V21.7462H32.3466V20.25C32.3272 20.243 32.3047 20.2316 32.2824 20.213C32.224 20.1643 32.1778 20.076 32.1778 19.9237C32.1778 19.7832 32.2039 19.6555 32.2642 19.5626C32.3167 19.4817 32.3939 19.4297 32.4928 19.419V18.9813ZM31.9416 19.1549C31.9403 19.1561 31.939 19.1574 31.9378 19.1587C31.922 19.1755 31.9063 19.2066 31.8938 19.2624C31.8687 19.3747 31.8628 19.5564 31.8628 19.8337V19.8901L28.1166 19.8785V19.8225C28.1166 19.555 28.1163 19.3739 28.0924 19.2587C28.0806 19.2018 28.0646 19.1694 28.047 19.1513C28.0413 19.1454 28.0346 19.1402 28.0266 19.1361V20.7746C28.232 20.8632 28.4036 21.0296 28.5239 21.1729C28.5881 21.2493 28.6389 21.3207 28.6737 21.373C28.6895 21.3967 28.702 21.4165 28.711 21.4312H31.2571C31.2661 21.4165 31.2787 21.3967 31.2944 21.373C31.3292 21.3207 31.3801 21.2493 31.4443 21.1729C31.5646 21.0296 31.7361 20.8632 31.9416 20.7746V19.1549Z" fill="black"/>
<path d="M27.9653 19.6077C27.9653 18.9777 27.4141 18.9102 27.4141 18.9102V19.4727C27.6278 19.4614 27.7291 19.6527 27.7291 19.9227C27.7291 20.2039 27.5603 20.2039 27.5603 20.2039V21.8014H27.9653V19.6077Z" fill="white"/>
<path fill-rule="evenodd" clip-rule="evenodd" d="M27.4225 18.8554L27.4156 18.9112C27.4225 18.8554 27.4224 18.8554 27.4225 18.8554L27.4226 18.8554L27.4228 18.8554L27.4234 18.8555L27.4251 18.8557C27.4264 18.8559 27.4283 18.8562 27.4307 18.8566C27.4355 18.8574 27.4422 18.8585 27.4506 18.8602C27.4673 18.8636 27.4907 18.8692 27.5186 18.8779C27.5742 18.8953 27.6486 18.9257 27.7233 18.9775C27.8751 19.0828 28.0231 19.2739 28.0231 19.6087V21.8587H27.5056V20.1487H27.5609C27.5612 20.1487 27.5617 20.1486 27.5625 20.1486C27.5646 20.1483 27.5684 20.1477 27.5732 20.1464C27.5828 20.1437 27.5964 20.1382 27.6102 20.1266C27.6362 20.105 27.6744 20.0527 27.6744 19.9237C27.6744 19.7943 27.6499 19.6913 27.6061 19.6239C27.5646 19.56 27.5047 19.5254 27.4186 19.5299L27.3594 19.533V18.8477L27.4225 18.8554ZM27.6181 20.25V21.7462H27.9106V19.6087C27.9106 19.3135 27.783 19.1559 27.6592 19.0699C27.5961 19.0262 27.5327 19.0002 27.485 18.9853C27.4804 18.9839 27.4761 18.9826 27.4719 18.9813V19.419C27.5708 19.4297 27.6479 19.4817 27.7005 19.5626C27.7608 19.6555 27.7869 19.7832 27.7869 19.9237C27.7869 20.076 27.7407 20.1643 27.6823 20.213C27.66 20.2316 27.6374 20.243 27.6181 20.25Z" fill="black"/>
<path fill-rule="evenodd" clip-rule="evenodd" d="M30.9656 15.3009H29.0306V15.2109H30.9656V15.3009ZM31.1681 15.9084H28.8056V15.8184H31.1681V15.9084ZM31.3819 16.6397H28.5806V16.5497H31.3819V16.6397ZM31.6631 17.5284H28.3444V17.4384H31.6631V17.5284ZM31.6856 18.5409H28.2656V18.4509H31.6856V18.5409Z" fill="black"/>
<path fill-rule="evenodd" clip-rule="evenodd" d="M28.9106 21.882H27.2344V21.7695H32.7019V21.882H31.0481V22.6245H28.9106V21.882ZM29.0231 21.882V22.512H30.9356V21.882H29.0231Z" fill="black"/>
<path d="M28.7266 20.1595C29.0641 20.5645 29.0191 21.2508 29.0191 21.6558H30.9766C30.9766 21.2508 30.9316 20.5645 31.2691 20.1595H28.7266ZM29.8178 15.547L29.5478 15.4008V15.007C29.6603 15.0408 29.7728 15.052 29.7953 15.232C29.8291 14.9733 29.9078 14.9958 30.0091 14.8945C30.1216 14.9958 30.1778 14.9733 30.2228 15.232C30.2228 15.052 30.3578 15.0408 30.4591 15.007V15.4008L30.2003 15.5358L29.8178 15.547Z" fill="white"/>
<path fill-rule="evenodd" clip-rule="evenodd" d="M30.0021 14.8164L30.0418 14.8521C30.0645 14.8726 30.0845 14.8873 30.1044 14.902C30.107 14.904 30.1096 14.9059 30.1122 14.9078C30.1342 14.9241 30.1577 14.9421 30.1791 14.967C30.1981 14.9892 30.2141 15.0153 30.2279 15.0485C30.2403 15.0361 30.2538 15.0256 30.2679 15.0166C30.2971 14.998 30.3288 14.9861 30.3574 14.9769C30.3706 14.9727 30.3838 14.9689 30.3961 14.9653L30.3992 14.9644C30.4127 14.9605 30.4249 14.9569 30.4364 14.9531L30.5104 14.9284V15.4343L30.21 15.591L29.7994 15.6031L29.4867 15.4337V14.9308L29.5591 14.9525C29.5683 14.9553 29.5792 14.9584 29.5907 14.9616C29.6083 14.9665 29.6272 14.9718 29.6431 14.977C29.672 14.9863 29.7027 14.9983 29.7313 15.017C29.7473 15.0276 29.762 15.0398 29.7751 15.0539C29.7903 15.0173 29.8087 14.9891 29.8308 14.9653C29.8524 14.942 29.8763 14.9246 29.8971 14.9094C29.8979 14.9088 29.8988 14.9082 29.8996 14.9076C29.9217 14.8915 29.9424 14.8761 29.9644 14.8541L30.0021 14.8164ZM30.0055 14.9683C29.9913 14.9799 29.9779 14.9897 29.966 14.9984C29.943 15.0152 29.9272 15.0268 29.9132 15.0419C29.8881 15.0689 29.8624 15.1145 29.8462 15.2387L29.7346 15.2384C29.725 15.1618 29.6984 15.13 29.6695 15.1111C29.6531 15.1003 29.6332 15.092 29.6086 15.084C29.6054 15.083 29.6023 15.082 29.5992 15.0811V15.3667L29.8264 15.4897L30.1808 15.4793L30.3979 15.3661V15.0821C30.3958 15.0828 30.3938 15.0834 30.3917 15.0841C30.3664 15.0922 30.3454 15.1006 30.3283 15.1115C30.3118 15.122 30.2992 15.1346 30.2903 15.1514C30.2812 15.1685 30.2742 15.1935 30.2742 15.2314L30.1625 15.2411C30.1404 15.1143 30.1172 15.0677 30.0936 15.0402C30.0812 15.0257 30.0668 15.0142 30.0452 14.9982C30.0428 14.9964 30.0403 14.9945 30.0377 14.9926C30.0279 14.9854 30.0171 14.9775 30.0055 14.9683ZM28.6016 20.1027H31.3843L31.3074 20.1949C31.149 20.3849 31.0777 20.6447 31.0472 20.9134C31.0229 21.1279 31.0251 21.3418 31.027 21.5239C31.0275 21.5698 31.0279 21.6138 31.0279 21.6552V21.7114H28.9579V21.6552C28.9579 21.6138 28.9584 21.5698 28.9588 21.5239C28.9607 21.3418 28.9629 21.1279 28.9386 20.9134C28.9081 20.6447 28.8368 20.3849 28.6784 20.1949L28.6016 20.1027ZM28.8329 20.2152C28.9638 20.4161 29.0233 20.6617 29.0504 20.9007C29.0756 21.1229 29.0732 21.3458 29.0713 21.5282C29.0711 21.5525 29.0708 21.5761 29.0707 21.5989H30.9152C30.915 21.5761 30.9147 21.5525 30.9145 21.5282C30.9126 21.3458 30.9103 21.1229 30.9355 20.9007C30.9626 20.6617 31.0221 20.4161 31.153 20.2152H28.8329Z" fill="black"/>
<path d="M29.7937 16.1911L29.3438 15.8761V15.5273C29.5125 15.5611 29.6812 15.5836 29.7037 15.7748C29.7487 15.4936 29.85 15.3586 30.0075 15.2461C30.1537 15.3586 30.255 15.4936 30.3113 15.7748C30.3225 15.5836 30.5025 15.5611 30.6488 15.5273V15.8873L30.21 16.1911H29.7937Z" fill="white"/>
<path fill-rule="evenodd" clip-rule="evenodd" d="M30.0103 15.1758L30.0434 15.2012C30.1204 15.2605 30.1876 15.3273 30.2427 15.4176C30.275 15.4705 30.3026 15.5305 30.3257 15.6006C30.3491 15.5757 30.3764 15.5567 30.4049 15.5419C30.4662 15.5099 30.5408 15.4936 30.6034 15.4799C30.6153 15.4773 30.6268 15.4747 30.6377 15.4722L30.7066 15.4563V15.9165L30.2291 16.247H29.7776L29.2891 15.9051V15.4584L29.3563 15.4719C29.3652 15.4737 29.3743 15.4754 29.3835 15.4772C29.4573 15.4917 29.5392 15.5077 29.6057 15.5416C29.6352 15.5567 29.6629 15.5758 29.6868 15.6007C29.708 15.5308 29.7346 15.4707 29.767 15.4176C29.8226 15.3264 29.8933 15.2593 29.9764 15.2L30.0103 15.1758ZM29.863 15.4762C29.8172 15.5513 29.7825 15.6479 29.7609 15.7834L29.6494 15.7811C29.6448 15.7416 29.6331 15.7138 29.6179 15.6932C29.6026 15.6723 29.5817 15.6557 29.5546 15.6418C29.5124 15.6203 29.461 15.6078 29.4016 15.5956V15.8465L29.813 16.1345H30.194L30.5941 15.8576V15.5973C30.5429 15.6089 30.4963 15.6211 30.457 15.6416C30.4303 15.6555 30.41 15.6719 30.3958 15.6923C30.3817 15.7123 30.3712 15.7392 30.369 15.7778L30.2577 15.7856C30.2305 15.6496 30.193 15.5521 30.1467 15.4762C30.1081 15.413 30.0622 15.3628 30.0078 15.3169C29.9492 15.363 29.9015 15.4131 29.863 15.4762Z" fill="black"/>
<path d="M29.7572 17.1919L29.2509 16.7419V16.2131C29.4309 16.2581 29.6334 16.2806 29.6559 16.5619C29.7122 16.1681 29.8247 15.9544 29.9934 15.7969C30.1734 15.9544 30.2859 16.1681 30.3534 16.5619C30.3759 16.2806 30.5784 16.2581 30.7584 16.2131V16.7419L30.2409 17.1919H29.7572ZM30.7022 17.7881L30.2522 18.4294H29.7234L29.2622 17.7881H30.7022ZM28.9922 18.8569C29.2172 18.9806 29.3072 19.2394 29.3297 19.7119H30.6347C30.6572 19.2394 30.7472 18.9806 30.9722 18.8569H28.9922Z" fill="white"/>
<path fill-rule="evenodd" clip-rule="evenodd" d="M29.9959 15.7188L30.0341 15.7522C30.1914 15.8898 30.2979 16.0663 30.3691 16.3438C30.3967 16.3039 30.4314 16.2729 30.4712 16.2486C30.5428 16.2049 30.6302 16.1843 30.7058 16.1665C30.7206 16.163 30.7348 16.1596 30.7485 16.1562L30.8184 16.1388V16.7652L30.2656 17.2458H29.7395L29.1984 16.7648V16.1388L29.2683 16.1562C29.2819 16.1596 29.2962 16.163 29.3109 16.1665C29.3865 16.1843 29.474 16.2049 29.5455 16.2486C29.5834 16.2718 29.6167 16.301 29.6436 16.3382C29.7086 16.0642 29.8127 15.8898 29.9587 15.7534L29.9959 15.7188ZM29.9983 15.8724C29.8616 16.0156 29.7659 16.2135 29.7153 16.5675L29.6035 16.564C29.5936 16.4398 29.5461 16.3808 29.4868 16.3446C29.4371 16.3142 29.3779 16.2984 29.3109 16.2822V16.7143L29.7822 17.1333H30.2236L30.7059 16.7139V16.2822C30.6388 16.2984 30.5796 16.3142 30.5299 16.3446C30.4706 16.3808 30.4231 16.4398 30.4132 16.564L30.3017 16.5691C30.2407 16.2132 30.1438 16.0155 29.9983 15.8724ZM29.1561 17.7296H30.8141L30.2851 18.4833H29.6983L29.1561 17.7296ZM29.3756 17.8421L29.7559 18.3708H30.2266L30.5977 17.8421H29.3756ZM28.9688 18.9038L28.9959 18.7983H30.9759L31.003 18.9038C30.807 19.0116 30.717 19.2401 30.6945 19.7122L30.692 19.7658H29.2797L29.2772 19.7122C29.2547 19.2401 29.1648 19.0116 28.9688 18.9038ZM29.1598 18.9108C29.3039 19.064 29.3656 19.3065 29.3867 19.6533H30.5851C30.6061 19.3065 30.6678 19.064 30.8119 18.9108H29.1598Z" fill="black"/>
<path d="M30.9938 17.7736V17.1436C30.8969 17.1642 30.8069 17.2091 30.7321 17.2741C30.6573 17.339 30.6003 17.4218 30.5662 17.5148C30.5662 17.2898 30.285 16.8061 29.9813 16.5586C29.6775 16.8286 29.385 17.2786 29.3963 17.5036C29.34 17.3348 29.1938 17.1998 28.9688 17.1436V17.7848L30.9938 17.7736Z" fill="white"/>
<path fill-rule="evenodd" clip-rule="evenodd" d="M29.9454 16.5172L30.0183 16.5156C30.1766 16.6446 30.3268 16.8329 30.4374 17.0168C30.4929 17.109 30.5391 17.2013 30.5716 17.2858C30.5796 17.3064 30.5868 17.3268 30.5932 17.3469C30.6228 17.3048 30.6576 17.2663 30.6968 17.2322C30.7787 17.161 30.8774 17.1118 30.9836 17.0892L31.0516 17.1442V17.7742L30.9956 17.8305L28.9706 17.8417L28.9141 17.7855V17.1442L28.984 17.0897C29.1541 17.1322 29.2856 17.2181 29.3704 17.3319C29.3761 17.3144 29.3824 17.2968 29.3894 17.2791C29.4216 17.1969 29.4684 17.108 29.5246 17.0187C29.6368 16.8402 29.7892 16.656 29.9454 16.5172ZM29.9842 16.6342C29.8491 16.761 29.7182 16.9221 29.6198 17.0786C29.5663 17.1636 29.5231 17.2462 29.4941 17.3201C29.4648 17.3951 29.4518 17.4567 29.454 17.5014L29.3444 17.522C29.3009 17.3915 29.195 17.2802 29.0266 17.2199V17.7289L30.9391 17.7183V17.2186C30.8774 17.2406 30.8203 17.274 30.7705 17.3172C30.703 17.3758 30.6514 17.4507 30.6206 17.5348L30.5116 17.5155C30.5116 17.4693 30.4967 17.4043 30.4666 17.3262C30.4369 17.2489 30.3938 17.1626 30.341 17.0748C30.244 16.9136 30.1166 16.7514 29.9842 16.6342Z" fill="black"/>
<path d="M31.0878 18.8556V18.2256C30.8516 18.2931 30.6941 18.4169 30.6266 18.5969C30.6266 18.3719 30.3228 17.8881 29.9853 17.6406C29.6478 17.9219 29.3328 18.3606 29.3441 18.5969C29.2878 18.4281 29.1191 18.2931 28.8828 18.2256V18.8669L31.0878 18.8556Z" fill="white"/>
<path fill-rule="evenodd" clip-rule="evenodd" d="M29.9431 17.5959L30.0123 17.5938C30.1878 17.7224 30.3525 17.9107 30.4733 18.0948C30.5338 18.1871 30.5841 18.2795 30.6195 18.3642C30.6292 18.3875 30.638 18.4106 30.6455 18.4332C30.7385 18.3093 30.8825 18.2225 31.0661 18.17L31.1378 18.2241V18.8541L31.0819 18.9104L28.8768 18.9216L28.8203 18.8654V18.2241L28.892 18.17C29.0697 18.2208 29.2172 18.31 29.3098 18.428C29.3168 18.4069 29.3249 18.3855 29.334 18.364C29.3691 18.2808 29.42 18.1917 29.4813 18.1023C29.6037 17.9237 29.7703 17.7398 29.9431 17.5959ZM29.981 17.7113C29.8285 17.8439 29.6826 18.0075 29.5741 18.1659C29.5158 18.2509 29.469 18.3334 29.4376 18.4077C29.4059 18.4829 29.3918 18.5456 29.394 18.5927L29.2844 18.6131C29.2415 18.4843 29.1187 18.3706 28.9328 18.3016V18.8088L31.0253 18.7981V18.3014C30.8419 18.3684 30.7257 18.4745 30.673 18.6151L30.5641 18.5954C30.5641 18.55 30.5483 18.4856 30.5157 18.4075C30.4835 18.3305 30.4368 18.2443 30.3792 18.1565C30.2722 17.9934 30.1303 17.8291 29.981 17.7113Z" fill="black"/>
<path d="M31.3578 20.1711V19.4286C31.1235 19.5018 30.9212 19.6525 30.7841 19.8561C30.7841 19.4623 30.3341 18.8436 29.9853 18.6523C29.6253 18.8548 29.1866 19.4848 29.1866 19.8561C29.0459 19.6511 28.8396 19.5003 28.6016 19.4286V20.1711H31.3578Z" fill="white"/>
<path fill-rule="evenodd" clip-rule="evenodd" d="M29.9515 18.6058L30.0061 18.6055C30.1912 18.707 30.3969 18.9172 30.5556 19.1489C30.6796 19.3299 30.7805 19.5319 30.8181 19.714C30.9554 19.557 31.134 19.4401 31.3348 19.3774L31.4078 19.431V20.1735L31.3516 20.2298H28.5953L28.5391 20.1735V19.431L28.6115 19.3772C28.8168 19.439 28.9997 19.5569 29.1405 19.7162C29.178 19.5412 29.2763 19.3424 29.3981 19.1619C29.5553 18.9289 29.7609 18.713 29.9515 18.6058ZM29.9794 18.7199C29.8167 18.8205 29.6353 19.0114 29.4913 19.2248C29.3383 19.4516 29.2366 19.6902 29.2366 19.8585L29.1339 19.8904C29.0151 19.7171 28.8466 19.5846 28.6516 19.5097V20.1173H31.2953V19.5106C31.1043 19.5865 30.94 19.7185 30.8245 19.89L30.7216 19.8585C30.7216 19.6789 30.617 19.4375 30.4628 19.2125C30.3178 19.0009 30.137 18.8155 29.9794 18.7199Z" fill="black"/>
<path d="M31.1956 21.8248V21.0598C30.9256 21.1611 30.8581 21.4086 30.7681 21.5886C30.8019 20.8123 30.3406 19.9911 29.9806 19.7773C29.6206 19.9911 29.1481 20.8348 29.1931 21.5773C29.1031 21.4198 29.0244 21.1611 28.7656 21.0598V21.8136L31.1956 21.8248Z" fill="white"/>
<path fill-rule="evenodd" clip-rule="evenodd" d="M29.3858 20.4564C29.5451 20.122 29.7593 19.8457 29.9535 19.7305H30.0109C30.2049 19.8457 30.4163 20.1162 30.5744 20.4494C30.701 20.7163 30.7964 21.0296 30.8213 21.3478C30.8907 21.2149 30.9908 21.0787 31.1774 21.0087L31.2534 21.0613V21.8263L31.1969 21.8826L28.7669 21.8713L28.7109 21.8151V21.0613L28.7877 21.009C28.9316 21.0653 29.0241 21.1652 29.0913 21.2683C29.1091 21.2955 29.1251 21.323 29.1399 21.3501C29.1614 21.0391 29.2576 20.7254 29.3858 20.4564ZM29.4873 20.5048C29.3326 20.8294 29.2291 21.2164 29.2508 21.5754L29.1458 21.6067C29.1276 21.5749 29.1097 21.5388 29.0917 21.5025C29.0865 21.492 29.0813 21.4815 29.076 21.471C29.0522 21.4235 29.027 21.3755 28.9971 21.3297C28.9521 21.2607 28.8974 21.198 28.8234 21.1521V21.7591L31.1409 21.7698V21.1497C30.995 21.234 30.9314 21.3737 30.8674 21.5145C30.852 21.5483 30.8366 21.5821 30.82 21.6152L30.7135 21.5876C30.7299 21.2108 30.626 20.8206 30.4728 20.4976C30.3275 20.1913 30.1421 19.9542 29.9822 19.8455C29.8222 19.9547 29.6341 20.1968 29.4873 20.5048Z" fill="black"/>
<path d="M31.0153 22.9716V22.2066C30.7341 22.2741 30.7228 22.3753 30.6328 22.5441C30.6666 22.0828 30.3403 21.5541 29.9803 21.3516C29.6203 21.5541 29.3053 22.0828 29.3278 22.5441C29.2378 22.3753 29.2266 22.2741 28.9453 22.2066V22.9716H31.0153Z" fill="white"/>
<path fill-rule="evenodd" clip-rule="evenodd" d="M29.9819 21.2891L30.0095 21.3046C30.2003 21.4119 30.3785 21.6031 30.5047 21.825C30.5948 21.9834 30.66 22.1605 30.6835 22.3378C30.6922 22.3255 30.7016 22.3135 30.712 22.3018C30.7718 22.2352 30.8572 22.1891 31.0037 22.1539L31.0731 22.1373V23.0299H28.8906V22.1373L28.96 22.1539C29.1065 22.1891 29.1919 22.2352 29.2517 22.3018C29.2634 22.3148 29.2737 22.3282 29.2832 22.342C29.3082 22.1636 29.3733 21.9851 29.4632 21.8253C29.5878 21.6035 29.7632 21.4121 29.9543 21.3046L29.9819 21.2891ZM29.5612 21.8804C29.4441 22.0888 29.3749 22.3258 29.3856 22.5434L29.2797 22.5726C29.2681 22.5507 29.2578 22.53 29.2483 22.511C29.2474 22.5093 29.2466 22.5076 29.2458 22.506C29.2372 22.4886 29.2294 22.4729 29.2215 22.4579C29.2042 22.4254 29.1881 22.3994 29.168 22.377C29.1367 22.3421 29.0909 22.3104 29.0031 22.2824V22.9174H30.9606V22.2824C30.8729 22.3104 30.8271 22.3421 30.7958 22.377C30.7756 22.3994 30.7595 22.4254 30.7423 22.4579C30.7344 22.4729 30.7266 22.4886 30.718 22.5059C30.7172 22.5076 30.7163 22.5093 30.7155 22.511C30.706 22.53 30.6957 22.5507 30.684 22.5726L30.5783 22.542C30.5941 22.3254 30.5253 22.089 30.4069 21.8806C30.2948 21.6836 30.1413 21.5169 29.9819 21.4189C29.823 21.5167 29.672 21.6832 29.5612 21.8804Z" fill="black"/>
<path d="M19.1581 25.7869V23.4919C19.0794 23.1994 18.8206 22.9294 18.6406 22.8844V20.8594L19.0569 21.0844L19.5406 23.2106V25.7981L19.1581 25.7869Z" fill="white"/>
<path fill-rule="evenodd" clip-rule="evenodd" d="M18.5859 20.7656L19.1076 21.0476L19.5984 23.2049V25.8566L19.1034 25.8421V23.5001C19.066 23.3663 18.9877 23.2359 18.8968 23.1332C18.803 23.0272 18.7026 22.9581 18.6285 22.9395L18.5859 22.9289V20.7656ZM18.6984 20.9543V22.8441C18.7929 22.8807 18.894 22.9602 18.981 23.0586C19.0826 23.1734 19.1719 23.3216 19.214 23.4778L19.2159 23.485V25.7329L19.4859 25.7408V23.2175L19.0092 21.1223L18.6984 20.9543Z" fill="black"/>
<path d="M19.1581 25.7964V23.4902C19.0794 23.1977 18.8206 22.9277 18.6406 22.8827V20.7227C18.9219 20.7227 19.0569 21.0827 19.0569 21.0827L19.5406 23.2089V25.7852L19.1581 25.7964Z" fill="white"/>
<path fill-rule="evenodd" clip-rule="evenodd" d="M18.5859 20.668H18.6422C18.8088 20.668 18.9274 20.7746 19.0004 20.87C19.0376 20.9185 19.065 20.9667 19.0832 21.0026C19.0923 21.0206 19.0991 21.0357 19.1037 21.0465C19.1061 21.0519 19.1078 21.0562 19.1091 21.0592L19.1105 21.0629L19.1109 21.0639L19.111 21.0643L19.1111 21.0644C19.1111 21.0644 19.1111 21.0645 19.0584 21.0842L19.1111 21.0644L19.1124 21.068L19.5984 23.2041V25.8413L19.1034 25.8559V23.4993C19.066 23.3655 18.9877 23.2352 18.8968 23.1324C18.803 23.0264 18.7026 22.9573 18.6285 22.9388L18.5859 22.9281V20.668ZM19.0045 21.1008C19.0036 21.0986 19.0023 21.0953 19.0004 21.091C18.9966 21.0821 18.9907 21.0691 18.9827 21.0533C18.9668 21.0217 18.9429 20.9799 18.9111 20.9384C18.8573 20.8682 18.7865 20.8057 18.6984 20.7865V22.8433C18.7929 22.8799 18.894 22.9595 18.981 23.0579C19.0826 23.1727 19.1719 23.3208 19.214 23.4771L19.2159 23.4843V25.74L19.4859 25.7321V23.2168L19.0045 21.1008Z" fill="black"/>
<path d="M18.8594 26.3823C19.0506 26.3036 19.3319 26.0561 19.3319 25.8198V22.9398L19.1969 22.7148H24.1131L23.9219 22.9398V25.8198C23.9301 25.9391 23.9699 26.054 24.0371 26.1528C24.1043 26.2516 24.1965 26.3308 24.3044 26.3823H18.8594Z" fill="white"/>
<path fill-rule="evenodd" clip-rule="evenodd" d="M19.0955 22.6602H24.2327L23.9761 22.9621V25.8194C23.984 25.928 24.0203 26.0327 24.0816 26.1227C24.1432 26.2133 24.2277 26.2859 24.3266 26.3331L24.3024 26.4402H18.8574L18.8359 26.3319C18.9231 26.296 19.0347 26.2195 19.1241 26.1234C19.2146 26.0262 19.2736 25.9185 19.2736 25.8214V22.957L19.0955 22.6602ZM19.2942 22.7727L19.3861 22.9258V25.8214C19.3861 25.9605 19.3045 26.0947 19.2065 26.2C19.1627 26.2471 19.1138 26.2904 19.0639 26.3277H24.1146C24.0668 26.2863 24.0244 26.2387 23.9886 26.186C23.9158 26.0789 23.8727 25.9545 23.8637 25.8253L23.8636 25.8233V22.9207L23.9895 22.7727H19.2942Z" fill="black"/>
<path d="M23.3009 26.3819C23.1097 26.3031 22.8284 26.0556 22.8284 25.8194V23.0856L23.2334 22.7031H19.9034L20.3084 23.0856V25.8194C20.3084 26.0556 20.0272 26.3031 19.8359 26.3819H23.3009Z" fill="white"/>
<path fill-rule="evenodd" clip-rule="evenodd" d="M19.7578 22.6484H23.3708L22.8805 23.1114V25.8209C22.8805 25.9181 22.9396 26.0257 23.03 26.1229C23.1194 26.219 23.231 26.2955 23.3182 26.3314L23.2968 26.4397H19.8318L19.8104 26.3314C19.8976 26.2955 20.0092 26.219 20.0986 26.1229C20.189 26.0257 20.248 25.9181 20.248 25.8209V23.1114L19.7578 22.6484ZM20.0408 22.7609L20.3605 23.0629V25.8209C20.3605 25.9601 20.2789 26.0943 20.1809 26.1996C20.1371 26.2467 20.0882 26.2899 20.0384 26.3272H23.0902C23.0404 26.2899 22.9915 26.2467 22.9476 26.1996C22.8497 26.0943 22.768 25.9601 22.768 25.8209V23.0629L23.0878 22.7609H20.0408Z" fill="black"/>
<path d="M22.8394 26.3814C22.6481 26.3027 22.3556 26.0552 22.3556 25.8189V23.3439L22.6256 22.9727H20.5106L20.7806 23.3439V25.8189C20.7806 26.0552 20.4994 26.3027 20.2969 26.3814H22.8394Z" fill="white"/>
<path fill-rule="evenodd" clip-rule="evenodd" d="M20.3971 22.918H22.733L22.4088 23.3638V25.8205C22.4088 25.9168 22.4698 26.0243 22.5633 26.1219C22.6556 26.2181 22.7701 26.2949 22.8577 26.331L22.8363 26.4392H20.2938L20.2734 26.3305C20.366 26.2945 20.4801 26.2181 20.5707 26.1222C20.6624 26.0251 20.7213 25.9175 20.7213 25.8205V23.3638L20.3971 22.918ZM20.618 23.0305L20.8338 23.3272V25.8205C20.8338 25.9597 20.7521 26.0939 20.6525 26.1994C20.6082 26.2464 20.5585 26.2895 20.5074 26.3267H22.6276C22.577 26.2896 22.5271 26.2466 22.4821 26.1997C22.3816 26.0948 22.2963 25.9604 22.2963 25.8205V23.3272L22.5121 23.0305H20.618Z" fill="black"/>
<path d="M21.0737 22.9727H22.075V26.3927H21.0625L21.0737 22.9727Z" fill="white"/>
<path fill-rule="evenodd" clip-rule="evenodd" d="M21.0194 22.918H22.133V26.4505H21.0078L21.0194 22.918ZM21.1316 23.0305L21.1207 26.338H22.0205V23.0305H21.1316Z" fill="black"/>
<path d="M19.6847 23.9172H20.0897V25.7734H19.6847V23.9172ZM23.1497 23.9172H23.5434V25.7734H23.1384L23.1497 23.9172ZM19.3359 20.7897H19.8309V22.7022H19.3359V20.7897ZM19.3359 20.4297H19.8197V20.7897H19.3359V20.4297ZM23.3409 21.2059H24.0272V22.6684H23.3409V21.2059Z" fill="white"/>
<path fill-rule="evenodd" clip-rule="evenodd" d="M19.2812 20.4313L19.3375 20.375H19.8213L19.8775 20.4313V20.78L19.8888 20.7913V22.7038L19.8325 22.76H19.3375L19.2812 22.7038V20.4313ZM19.3938 20.8475V22.6475H19.7763V20.8475H19.3938ZM19.765 20.735H19.3938V20.4875H19.765V20.735ZM23.2862 21.2075L23.3425 21.1513H24.0287L24.085 21.2075V22.67L24.0287 22.7263H23.3425L23.2862 22.67V21.2075ZM23.3987 21.2638V22.6138H23.9725V21.2638H23.3987ZM19.63 23.9187L19.6862 23.8625H20.0913L20.1475 23.9187V25.775L20.0913 25.8313H19.6862L19.63 25.775V23.9187ZM19.7425 23.975V25.7188H20.035V23.975H19.7425ZM23.095 23.9184L23.1512 23.8625H23.545L23.6012 23.9187V25.775L23.545 25.8313H23.14L23.0838 25.7747L23.095 23.9184ZM23.2072 23.975L23.1966 25.7188H23.4887V23.975H23.2072Z" fill="black"/>
<path d="M19.8231 22.6797V19.4172C19.9581 19.4172 19.9806 19.9009 20.2956 19.9009C20.4644 19.9009 20.4531 19.6984 20.3519 19.5409C20.2731 19.3947 20.1719 19.2034 20.3069 18.8322C20.4081 19.1134 20.6556 19.2034 20.6106 19.0347C20.5319 18.7309 20.2956 18.6747 20.4756 18.2134C20.5319 18.5959 20.7794 18.5847 20.7231 18.3597C20.6556 18.1009 20.5094 17.9884 20.6894 17.6284C20.7906 18.0447 20.9144 18.0222 20.9144 17.7634C20.9144 17.3809 20.9144 16.9759 21.3869 16.8297C21.3869 16.8297 21.4206 16.4922 21.6006 16.4922C21.7694 16.4922 21.8031 16.8297 21.8031 16.8297C22.2869 16.9759 22.2756 17.3922 22.2756 17.7634C22.2756 18.0222 22.3994 18.0447 22.5006 17.6284C22.6806 17.9884 22.5344 18.1009 22.4669 18.3597C22.4106 18.5847 22.6581 18.5959 22.7144 18.2134C22.8944 18.6747 22.6581 18.7309 22.5794 19.0347C22.5344 19.2034 22.7819 19.1134 22.8831 18.8322C23.0181 19.2034 22.9169 19.3947 22.8381 19.5409C22.7481 19.6984 22.7256 19.9009 22.8944 19.9009C23.2094 19.9009 23.2319 19.4284 23.3669 19.4284V22.6797H19.8231ZM19.0469 20.2159V22.7022H19.3281V20.2159C19.2269 20.1597 19.1369 20.1597 19.0469 20.2159Z" fill="white"/>
<path fill-rule="evenodd" clip-rule="evenodd" d="M21.4444 16.8369L21.4407 16.874L21.4051 16.885C21.1862 16.9527 21.0813 17.0773 21.028 17.2283C20.9728 17.3848 20.9722 17.5713 20.9722 17.765C20.9722 17.8327 20.9643 17.8911 20.947 17.933C20.9385 17.9538 20.9254 17.9759 20.9047 17.9911C20.8814 18.0083 20.8525 18.0133 20.8241 18.0042C20.7991 17.9961 20.7792 17.9785 20.7636 17.9601C20.7475 17.9411 20.7325 17.9167 20.7184 17.888C20.7062 17.8632 20.694 17.8341 20.6821 17.8005C20.655 17.8919 20.6569 17.9602 20.67 18.0219C20.6802 18.0695 20.6975 18.1151 20.7181 18.1681L20.7201 18.1733C20.7398 18.2241 20.7619 18.281 20.7791 18.3471L20.7793 18.3476C20.7953 18.4116 20.7927 18.4717 20.7658 18.5162C20.7519 18.5391 20.7317 18.5573 20.7062 18.5672C20.6808 18.577 20.6538 18.5771 20.6283 18.5702C20.5786 18.5567 20.5341 18.5165 20.4996 18.4603C20.4913 18.4469 20.4834 18.4322 20.476 18.4164C20.4708 18.4458 20.4681 18.4723 20.4675 18.4967C20.4658 18.5623 20.4789 18.6141 20.4995 18.6628C20.5152 18.6999 20.5343 18.7336 20.556 18.7717C20.5643 18.7862 20.5729 18.8013 20.5818 18.8175C20.6133 18.8745 20.6452 18.9396 20.6666 19.022C20.6792 19.0693 20.68 19.1323 20.6265 19.1638C20.6029 19.1777 20.5768 19.1793 20.5547 19.1762C20.5324 19.1731 20.51 19.1647 20.4888 19.1534C20.4328 19.1238 20.3716 19.0668 20.3209 18.987C20.2946 19.0994 20.2942 19.1893 20.3063 19.2635C20.3228 19.3649 20.363 19.4415 20.402 19.514C20.4561 19.5989 20.4895 19.7003 20.4826 19.7861C20.4791 19.83 20.4645 19.8743 20.4315 19.9078C20.3977 19.9422 20.3511 19.9588 20.2972 19.9588C20.1038 19.9588 20.0054 19.8076 19.9434 19.6862C19.93 19.6601 19.9176 19.634 19.9062 19.6098C19.904 19.6051 19.9018 19.6005 19.8996 19.5959C19.8931 19.5821 19.8869 19.5693 19.8809 19.5573V22.625H23.3122V19.5659C23.3061 19.5777 23.2999 19.5904 23.2933 19.6041C23.2911 19.6085 23.2889 19.6131 23.2867 19.6177C23.2753 19.6412 23.2629 19.6668 23.2495 19.6924C23.1871 19.8115 23.0886 19.9588 22.8959 19.9588C22.842 19.9588 22.7955 19.9422 22.7624 19.907C22.7302 19.8729 22.7172 19.8283 22.7146 19.7849C22.7095 19.6999 22.7427 19.5991 22.7905 19.5152C22.8297 19.4424 22.8702 19.3655 22.8868 19.2635C22.8989 19.1893 22.8985 19.0994 22.8722 18.987C22.8215 19.0668 22.7603 19.1238 22.7043 19.1534C22.6831 19.1647 22.6607 19.1731 22.6384 19.1762C22.6163 19.1793 22.5902 19.1777 22.5666 19.1638C22.5132 19.1322 22.514 19.0693 22.5265 19.0219C22.5479 18.9396 22.5799 18.8745 22.6113 18.8175C22.6202 18.8013 22.6288 18.7862 22.6371 18.7717C22.6588 18.7336 22.6779 18.6999 22.6937 18.6628C22.7143 18.6141 22.7273 18.5623 22.7256 18.4967C22.725 18.4723 22.7223 18.4458 22.7171 18.4164C22.7097 18.4322 22.7018 18.4469 22.6936 18.4603C22.659 18.5165 22.6145 18.5567 22.5648 18.5702C22.5394 18.5771 22.5123 18.577 22.4869 18.5672C22.4614 18.5573 22.4412 18.5391 22.4273 18.5162C22.4004 18.4717 22.3979 18.4116 22.4139 18.3476L22.414 18.3471C22.4312 18.281 22.4533 18.2241 22.473 18.1733L22.4751 18.1681C22.4956 18.1151 22.5129 18.0695 22.5231 18.0219C22.5363 17.9602 22.5381 17.8919 22.511 17.8005C22.4991 17.8341 22.487 17.8632 22.4748 17.888C22.4606 17.9167 22.4456 17.9411 22.4295 17.9601C22.414 17.9785 22.394 17.9961 22.369 18.0042C22.3407 18.0133 22.3118 18.0083 22.2884 17.9911C22.2677 17.9759 22.2547 17.9538 22.2461 17.933C22.2288 17.8911 22.2209 17.8327 22.2209 17.765C22.2209 17.758 22.2209 17.751 22.2209 17.744C22.221 17.5625 22.2211 17.3841 22.1691 17.2319C22.1172 17.0799 22.0125 16.9528 21.7884 16.8851L21.7525 16.8742L21.7487 16.8369L21.7487 16.8363L21.7484 16.834C21.7481 16.8318 21.7477 16.8286 21.7472 16.8243C21.746 16.8158 21.7442 16.8035 21.7414 16.7887C21.736 16.7588 21.7271 16.7196 21.7136 16.6811C21.6999 16.6419 21.6827 16.607 21.6622 16.5829C21.6424 16.5597 21.6231 16.55 21.6022 16.55C21.5771 16.55 21.5555 16.561 21.5347 16.5841C21.513 16.6082 21.4949 16.6429 21.4806 16.6819C21.4666 16.7202 21.4574 16.7592 21.4518 16.789C21.449 16.8037 21.4471 16.816 21.446 16.8244C21.4454 16.8287 21.445 16.8319 21.4447 16.834L21.4445 16.8364L21.4444 16.8369ZM21.8556 16.7886C21.8546 16.7824 21.8534 16.7757 21.8521 16.7684C21.846 16.735 21.8359 16.6898 21.8198 16.6439C21.804 16.5987 21.7812 16.5492 21.7479 16.5101C21.7139 16.47 21.6657 16.4375 21.6022 16.4375C21.5373 16.4375 21.4872 16.4687 21.451 16.5089C21.4158 16.548 21.3917 16.5977 21.375 16.6431C21.3581 16.6892 21.3476 16.7346 21.3413 16.7681C21.3398 16.7756 21.3386 16.7825 21.3376 16.7888C21.1062 16.87 20.9838 17.0155 20.922 17.1908C20.8597 17.3673 20.8597 17.5722 20.8597 17.7596V17.765C20.8597 17.8204 20.8536 17.8594 20.8458 17.8828C20.8382 17.8728 20.8292 17.8583 20.8193 17.8382C20.7959 17.7909 20.7704 17.7186 20.7456 17.6167L20.7093 17.4675L20.6406 17.6048C20.5462 17.7938 20.5343 17.9249 20.56 18.0453C20.5723 18.1031 20.593 18.1568 20.6132 18.2088L20.6146 18.2124C20.6346 18.2641 20.6546 18.3156 20.6702 18.3752C20.6822 18.4235 20.6749 18.4491 20.6695 18.458C20.6683 18.46 20.6673 18.4611 20.6667 18.4616C20.6665 18.4617 20.6663 18.4619 20.6661 18.462C20.6659 18.4621 20.6658 18.4622 20.6657 18.4622C20.6656 18.4623 20.6634 18.4632 20.6579 18.4617C20.6457 18.4584 20.6214 18.4437 20.5954 18.4014C20.5701 18.3602 20.5461 18.2969 20.5328 18.2068L20.502 17.9968L20.4248 18.1946C20.3782 18.3139 20.3572 18.4105 20.355 18.4937C20.3529 18.5779 20.37 18.6456 20.3959 18.7066C20.4144 18.7504 20.4383 18.7923 20.461 18.8323C20.4687 18.8457 20.4762 18.8589 20.4833 18.8718C20.5127 18.9251 20.5397 18.9809 20.5577 19.0504L20.5578 19.0507C20.5591 19.0553 20.5599 19.0592 20.5605 19.0624C20.5553 19.0607 20.549 19.058 20.5415 19.0541C20.4872 19.0253 20.4082 18.9448 20.3614 18.8147L20.3087 18.6684L20.2556 18.8145C20.1853 19.0077 20.1752 19.1581 20.1953 19.2815C20.2152 19.4042 20.2645 19.4959 20.3039 19.5692L20.3049 19.5711L20.3061 19.5729C20.3525 19.6451 20.3748 19.7229 20.3705 19.7771C20.3684 19.8034 20.3605 19.8196 20.3513 19.829C20.3429 19.8375 20.3276 19.8463 20.2972 19.8463C20.1756 19.8463 20.1052 19.7555 20.0435 19.635C20.031 19.6106 20.0195 19.5863 20.0081 19.5622C20.0058 19.5573 20.0036 19.5525 20.0013 19.5477C19.9879 19.5194 19.9742 19.4912 19.96 19.4663C19.946 19.4419 19.9295 19.4174 19.9092 19.3984C19.8883 19.3789 19.8601 19.3625 19.8247 19.3625H19.7684V22.7375H23.4247V19.3738H23.3684C23.3335 19.3738 23.3054 19.3895 23.2844 19.4088C23.2641 19.4273 23.2475 19.4514 23.2334 19.4753C23.2192 19.4996 23.2055 19.5273 23.1921 19.5549C23.1898 19.5596 23.1875 19.5643 23.1852 19.5691C23.1738 19.5926 23.1623 19.6164 23.1499 19.6402C23.0885 19.7573 23.0182 19.8463 22.8959 19.8463C22.8655 19.8463 22.8515 19.8375 22.8442 19.8298C22.836 19.8211 22.8285 19.8052 22.8269 19.7782C22.8236 19.7228 22.8465 19.6439 22.8885 19.5704L22.8889 19.5698L22.8892 19.5692C22.9286 19.4959 22.9779 19.4042 22.9979 19.2815C23.0179 19.1581 23.0078 19.0077 22.9376 18.8145L22.8844 18.6684L22.8318 18.8147C22.7849 18.9448 22.7059 19.0253 22.6516 19.0541C22.6442 19.058 22.6378 19.0607 22.6327 19.0624C22.6332 19.0592 22.6341 19.0553 22.6353 19.0507L22.6354 19.0504C22.6534 18.9809 22.6805 18.9251 22.7098 18.8718C22.717 18.8589 22.7245 18.8457 22.7321 18.8323C22.7549 18.7923 22.7788 18.7504 22.7973 18.7066C22.8231 18.6456 22.8403 18.5779 22.8381 18.4937C22.8359 18.4105 22.8149 18.3139 22.7683 18.1946L22.6912 17.9968L22.6603 18.2068C22.647 18.2969 22.623 18.3602 22.5977 18.4014C22.5717 18.4437 22.5474 18.4584 22.5352 18.4617C22.5297 18.4632 22.5275 18.4623 22.5275 18.4622C22.5274 18.4622 22.5273 18.4622 22.5272 18.4621C22.527 18.462 22.5267 18.4618 22.5264 18.4616C22.5259 18.4611 22.5248 18.46 22.5236 18.458C22.5182 18.4491 22.5109 18.4235 22.5229 18.3752C22.5385 18.3156 22.5585 18.2641 22.5785 18.2124L22.5799 18.2088C22.6001 18.1568 22.6208 18.1031 22.6331 18.0453C22.6588 17.9249 22.647 17.7938 22.5525 17.6048L22.4838 17.4675L22.4475 17.6167C22.4227 17.7186 22.3972 17.7909 22.3739 17.8382C22.3639 17.8583 22.3549 17.8728 22.3474 17.8828C22.3395 17.8594 22.3334 17.8204 22.3334 17.765C22.3334 17.7558 22.3334 17.7466 22.3335 17.7372C22.3336 17.5617 22.3338 17.366 22.2756 17.1956C22.2151 17.0186 22.0925 16.87 21.8556 16.7886ZM22.6321 19.0764C22.632 19.0765 22.6318 19.076 22.6317 19.0747C22.6321 19.0757 22.6322 19.0764 22.6321 19.0764ZM20.561 19.0764C20.5609 19.0764 20.561 19.0757 20.5614 19.0747C20.5613 19.076 20.5611 19.0765 20.561 19.0764ZM20.574 19.065C20.5741 19.065 20.5742 19.065 20.5742 19.065ZM19.1848 20.1191C19.243 20.1191 19.3002 20.1368 19.357 20.1683L19.3859 20.1844V22.76H18.9922V20.1863L19.0186 20.1698C19.0711 20.137 19.1263 20.1191 19.1848 20.1191ZM19.1047 20.2506V22.6475H19.2734V20.2522C19.2409 20.2378 19.2117 20.2316 19.1848 20.2316C19.1588 20.2316 19.1324 20.2375 19.1047 20.2506Z" fill="black"/>
<path d="M19.0703 21.8269C19.4191 22.0069 19.7678 22.2206 19.8578 22.7044H19.0703V21.8269ZM23.9303 21.0844V22.7044H24.1553V21.0844C24.0878 21.0506 23.9866 21.0394 23.9303 21.0844Z" fill="white"/>
<path fill-rule="evenodd" clip-rule="evenodd" d="M24.0421 20.9963C24.0911 20.998 24.1412 21.0113 24.182 21.0317L24.2131 21.0473V22.7583H23.8756V21.055L23.8967 21.0381C23.9392 21.0041 23.9939 20.9946 24.0421 20.9963ZM23.9881 21.1149V22.6458H24.1006V21.1198C24.0808 21.1135 24.0591 21.1094 24.0382 21.1087C24.0181 21.108 24.0013 21.1104 23.9881 21.1149ZM19.0156 21.7322L19.0977 21.7745C19.4475 21.9551 19.8194 22.1796 19.9147 22.6917L19.9271 22.7583H19.0156V21.7322ZM19.1281 21.9177V22.6458H19.7896C19.6953 22.2707 19.4266 22.0784 19.1281 21.9177Z" fill="black"/>
<path d="M24.1512 21.828C23.8025 21.9967 23.4537 22.1992 23.3637 22.6942H24.1512V21.828ZM21.8338 18.0367L22.0362 17.868V17.643C21.9687 17.643 21.9237 17.6767 21.8675 17.7555C21.8457 17.6832 21.8095 17.6161 21.7612 17.5581C21.7129 17.5001 21.6534 17.4525 21.5862 17.418C21.5181 17.45 21.4572 17.4954 21.4069 17.5514C21.3567 17.6075 21.3182 17.673 21.2937 17.7442C21.2375 17.6655 21.2037 17.6542 21.125 17.6317V17.8567L21.3275 18.0367H21.8338Z" fill="white"/>
<path fill-rule="evenodd" clip-rule="evenodd" d="M21.5889 17.3555L21.6135 17.3681C21.6874 17.4061 21.7528 17.4585 21.806 17.5223C21.8381 17.5608 21.8653 17.603 21.8871 17.6479C21.8968 17.6388 21.9069 17.6307 21.9175 17.6234C21.954 17.5984 21.9933 17.5869 22.0378 17.5869H22.0941V17.8945L21.8557 18.0932H21.3077L21.0703 17.8822V17.5573L21.142 17.5778C21.1801 17.5887 21.2158 17.5989 21.2487 17.6191C21.2593 17.6255 21.2692 17.6327 21.2788 17.6409C21.3026 17.5952 21.3321 17.5526 21.3666 17.5141C21.4219 17.4524 21.4889 17.4025 21.5639 17.3673L21.5889 17.3555ZM21.5867 17.4817C21.5355 17.5094 21.4893 17.5457 21.4504 17.5892C21.4052 17.6396 21.3705 17.6986 21.3485 17.7627L21.313 17.866L21.2495 17.7771C21.2237 17.7409 21.2064 17.7251 21.19 17.7151C21.1877 17.7136 21.1853 17.7123 21.1828 17.711V17.8316L21.3504 17.9807H21.8149L21.9816 17.8418V17.7159C21.9814 17.716 21.9812 17.7162 21.981 17.7163C21.9623 17.7291 21.9416 17.7509 21.9148 17.7883L21.8483 17.8815L21.8152 17.7719C21.7956 17.7069 21.763 17.6465 21.7195 17.5943C21.682 17.5493 21.6371 17.5113 21.5867 17.4817ZM24.2091 21.7384V22.7507H23.2979L23.31 22.6843C23.4053 22.1602 23.778 21.947 24.1283 21.7775L24.2091 21.7384ZM23.4348 22.6382H24.0966V21.9187C23.7977 22.0699 23.5287 22.2542 23.4348 22.6382Z" fill="black"/>
<path d="M21.9463 18.5872L22.0362 18.3734V18.0922C21.9687 18.0922 21.9237 18.1259 21.8675 18.2047C21.8457 18.1324 21.8095 18.0653 21.7612 18.0073C21.7129 17.9494 21.6534 17.9017 21.5862 17.8672C21.5181 17.8992 21.4572 17.9446 21.4069 18.0007C21.3567 18.0567 21.3182 18.1223 21.2938 18.1934C21.2375 18.1147 21.2038 18.1034 21.125 18.0922V18.3734L21.215 18.5872H21.9463Z" fill="white"/>
<path fill-rule="evenodd" clip-rule="evenodd" d="M21.5889 17.8047L21.6135 17.8173C21.6874 17.8553 21.7528 17.9077 21.806 17.9715C21.8381 18.01 21.8653 18.0522 21.8871 18.0971C21.8968 18.088 21.9069 18.0799 21.9175 18.0727C21.954 18.0477 21.9933 18.0361 22.0378 18.0361H22.0941V18.385L21.9852 18.6436H21.1792L21.0703 18.385V18.0275L21.1345 18.0367C21.174 18.0423 21.2114 18.0489 21.2467 18.0685C21.258 18.0748 21.2685 18.0821 21.2786 18.0904C21.3024 18.0446 21.332 18.0019 21.3666 17.9633C21.4219 17.9017 21.4889 17.8517 21.5639 17.8165L21.5889 17.8047ZM21.5867 17.9309C21.5355 17.9586 21.4893 17.9949 21.4504 18.0384C21.4052 18.0888 21.3705 18.1478 21.3485 18.2119L21.313 18.3152L21.2495 18.2263C21.2234 18.1898 21.2067 18.175 21.1921 18.1669C21.1891 18.1652 21.1861 18.1638 21.1828 18.1624V18.3623L21.2539 18.5311H21.9105L21.9816 18.3623V18.1651C21.9814 18.1652 21.9812 18.1654 21.981 18.1655C21.9623 18.1783 21.9416 18.2001 21.9148 18.2376L21.8483 18.3307L21.8152 18.2211C21.7956 18.1561 21.763 18.0957 21.7195 18.0435C21.682 17.9986 21.6371 17.9605 21.5867 17.9309Z" fill="black"/>
<path d="M21.975 19.3303L22.2675 18.9591V18.5991C22.155 18.5991 22.0988 18.6553 22.02 18.7791C21.9413 18.5203 21.795 18.4753 21.5925 18.3516C21.3787 18.4641 21.2325 18.5203 21.165 18.7678C21.075 18.6441 21.0188 18.6103 20.9062 18.5991V18.9591L21.21 19.3303H21.975Z" fill="white"/>
<path fill-rule="evenodd" clip-rule="evenodd" d="M21.5883 18.2852L21.6156 18.3018C21.6437 18.319 21.6719 18.3353 21.6997 18.3513C21.7656 18.3892 21.8289 18.4257 21.8822 18.4695C21.9409 18.5179 21.9899 18.5764 22.0286 18.6585C22.048 18.6346 22.0682 18.6137 22.0903 18.5965C22.1393 18.5584 22.194 18.5411 22.2612 18.5411H22.3175V18.9768L21.996 19.3848H21.1771L20.8438 18.9774V18.5352L20.9056 18.5413C20.9667 18.5475 21.0186 18.5603 21.0682 18.5922C21.0931 18.6082 21.1162 18.6282 21.1391 18.6526C21.1748 18.5719 21.2226 18.5127 21.2819 18.4639C21.3466 18.4106 21.4253 18.3699 21.5095 18.3263C21.5262 18.3177 21.543 18.309 21.5601 18.3L21.5883 18.2852ZM21.3534 18.5507C21.2912 18.602 21.2439 18.6677 21.213 18.7809L21.1822 18.8939L21.1133 18.7991C21.0695 18.739 21.0379 18.7064 21.0074 18.6868C20.992 18.6769 20.9757 18.6696 20.9562 18.6641V18.9372L21.2304 19.2723H21.9415L22.205 18.9378V18.6611C22.1879 18.6664 22.1733 18.6745 22.1594 18.6853C22.1296 18.7084 22.1002 18.7462 22.0612 18.8075L21.9955 18.9107L21.9599 18.7937C21.9236 18.6744 21.8734 18.608 21.8106 18.5564C21.7649 18.5187 21.7143 18.4896 21.6531 18.4544C21.6316 18.442 21.6087 18.4289 21.5843 18.4143C21.5754 18.419 21.5666 18.4235 21.5581 18.4279C21.474 18.4715 21.4081 18.5057 21.3534 18.5507Z" fill="black"/>
<path d="M22.0472 20.0587C22.0472 20.0587 22.4072 19.755 22.4184 19.5862V19.1925C22.2834 19.2037 22.1597 19.2375 22.0584 19.4063C21.9684 19.08 21.8334 18.99 21.5859 18.8438C21.3272 18.99 21.1922 19.08 21.1134 19.4063C21.0009 19.2375 20.8884 19.2038 20.7422 19.1813V19.5862C20.8367 19.7647 20.9624 19.9247 21.1134 20.0587H22.0472Z" fill="white"/>
<path fill-rule="evenodd" clip-rule="evenodd" d="M21.5881 18.7812L21.6161 18.7978C21.739 18.8704 21.8417 18.9332 21.924 19.0216C21.9887 19.0911 22.0391 19.1743 22.0802 19.2866C22.1178 19.2453 22.1584 19.2149 22.2017 19.1927C22.2718 19.1568 22.345 19.1448 22.4153 19.1389L22.4763 19.1338V19.5906L22.4761 19.5925C22.4723 19.6504 22.4402 19.7115 22.4038 19.7653C22.3661 19.821 22.3178 19.8772 22.2711 19.9268C22.2242 19.9766 22.1778 20.0209 22.1432 20.0526C22.1259 20.0685 22.1114 20.0813 22.1013 20.0902C22.0962 20.0946 22.0922 20.0981 22.0894 20.1004L22.0862 20.1032L22.0854 20.1039L22.0851 20.1041L22.085 20.1042C22.085 20.1042 22.085 20.1042 22.0487 20.0612L22.085 20.1042L22.0693 20.1175H21.0936L21.0777 20.1033C20.9216 19.9648 20.7917 19.7994 20.694 19.615L20.6875 19.6027V19.1182L20.7523 19.1281C20.8269 19.1396 20.8994 19.1548 20.9686 19.1918C21.0119 19.2149 21.0523 19.2458 21.0912 19.2873C21.1288 19.175 21.1776 19.0915 21.2426 19.0216C21.3253 18.9328 21.4313 18.8699 21.5598 18.7972L21.5881 18.7812ZM22.0278 20.005C22.0374 19.9966 22.0509 19.9846 22.0672 19.9697C22.1004 19.9392 22.1447 19.8969 22.1892 19.8497C22.2339 19.8022 22.2777 19.7509 22.3107 19.7022C22.3442 19.6526 22.3614 19.6131 22.3638 19.5866V19.2583C22.3238 19.2649 22.2872 19.2754 22.253 19.2929C22.2031 19.3184 22.1542 19.3611 22.1082 19.4377L22.0407 19.5502L22.0058 19.4237C21.9625 19.2666 21.9098 19.1715 21.8416 19.0983C21.7774 19.0293 21.6969 18.9769 21.5869 18.9113C21.4716 18.9771 21.389 19.0295 21.3249 19.0983C21.2574 19.1708 21.2075 19.2652 21.1697 19.4219L21.1395 19.5469L21.0682 19.4399C21.016 19.3617 20.9663 19.3181 20.9155 19.291C20.8804 19.2722 20.8429 19.2602 20.8 19.251V19.5746C20.8872 19.736 21.001 19.8815 21.1366 20.005H22.0278Z" fill="black"/>
<path d="M22.1978 21.4108C22.1978 21.4108 22.6928 20.882 22.7041 20.6683V20.0608C22.5241 20.0833 22.3441 20.207 22.2091 20.4658C22.0966 19.9595 21.9166 19.6108 21.5903 19.3633C21.2528 19.6108 21.0728 19.9595 20.9603 20.4658C20.8253 20.207 20.6566 20.0833 20.4766 20.0608V20.6683C20.5103 20.882 20.9716 21.4108 20.9716 21.4108H22.1978Z" fill="white"/>
<path fill-rule="evenodd" clip-rule="evenodd" d="M21.5924 19.293L21.6259 19.3183C21.936 19.5536 22.117 19.8756 22.2331 20.3188C22.3647 20.1272 22.5285 20.0261 22.6986 20.0048L22.7619 19.9969V20.6696L22.7618 20.6711C22.7582 20.7399 22.718 20.8237 22.67 20.9034C22.6202 20.9859 22.5557 21.0741 22.4925 21.1544C22.4291 21.2349 22.3661 21.3084 22.3191 21.3619C22.2956 21.3886 22.276 21.4103 22.2622 21.4254C22.2554 21.4329 22.25 21.4388 22.2462 21.4428L22.242 21.4474L22.2409 21.4486L22.2405 21.449C22.2405 21.4491 22.2404 21.4491 22.1994 21.4106L22.2405 21.449L22.2238 21.4669H20.9475L20.9307 21.4476L20.9731 21.4106C20.9307 21.4476 20.9307 21.4476 20.9307 21.4476L20.9293 21.446L20.9253 21.4414C20.9219 21.4374 20.9168 21.4315 20.9104 21.424C20.8976 21.4089 20.8793 21.3872 20.8572 21.3605C20.8131 21.3072 20.7538 21.2337 20.6933 21.1534C20.633 21.0732 20.5709 20.9853 20.5215 20.9034C20.4734 20.8235 20.4329 20.7422 20.4226 20.6769L20.4219 20.6726V19.9969L20.4851 20.0048C20.6559 20.0262 20.8112 20.1277 20.9397 20.318C21.0559 19.875 21.2379 19.553 21.5586 19.3178L21.5924 19.293ZM20.9989 21.3544H22.1747C22.1761 21.3529 22.1776 21.3513 22.1791 21.3496C22.1925 21.3349 22.2116 21.3137 22.2347 21.2875C22.2808 21.2351 22.3423 21.1631 22.4041 21.0847C22.466 21.0061 22.5273 20.9221 22.5736 20.8453C22.621 20.7667 22.6469 20.7047 22.6494 20.6665V20.1292C22.5118 20.1675 22.3721 20.2777 22.2605 20.4917L22.1892 20.6284L22.1557 20.4778C22.0489 19.997 21.8823 19.669 21.5913 19.4341C21.2903 19.6689 21.1237 19.9967 21.0168 20.4778L20.9833 20.6284L20.912 20.4917C20.8 20.277 20.6687 20.1676 20.5344 20.1293V20.6634C20.5421 20.7051 20.5715 20.7684 20.6179 20.8453C20.6645 20.9226 20.724 21.007 20.7832 21.0857C20.8423 21.1643 20.9005 21.2364 20.9439 21.2888C20.9656 21.315 20.9835 21.3363 20.9961 21.351C20.997 21.3522 20.998 21.3533 20.9989 21.3544Z" fill="black"/>
<path d="M22.1978 22.2083C22.1978 22.2083 22.6141 21.792 22.7041 21.612V21.0045C22.5241 21.027 22.3441 21.1508 22.2091 21.3983C22.179 21.1936 22.1088 20.9968 22.0027 20.8192C21.8965 20.6416 21.7564 20.4867 21.5903 20.3633C21.2528 20.6108 21.0728 20.892 20.9603 21.3983C20.8253 21.1508 20.6566 21.027 20.4766 21.0045V21.612C20.5891 21.792 20.9716 22.2083 20.9716 22.2083H22.1978Z" fill="white"/>
<path fill-rule="evenodd" clip-rule="evenodd" d="M21.5921 20.293L21.6254 20.3177C21.7974 20.4456 21.9425 20.606 22.0525 20.79C22.1376 20.9324 22.2004 21.0867 22.2389 21.2476C22.3697 21.0676 22.5312 20.9693 22.6986 20.9483L22.7619 20.9404V21.6249L22.7559 21.6368C22.7306 21.6876 22.6844 21.7513 22.6324 21.816C22.5797 21.8816 22.5184 21.9514 22.4603 22.0151C22.4022 22.0789 22.347 22.137 22.3063 22.1791C22.2859 22.2002 22.2692 22.2173 22.2575 22.2291C22.2517 22.235 22.2471 22.2397 22.244 22.2428L22.2404 22.2464L22.2392 22.2476L22.2392 22.2477C22.2392 22.2477 22.2392 22.2477 22.1994 22.2079L22.2392 22.2477L22.2227 22.2641H20.9484L20.9317 22.2459L20.9731 22.2079C20.9317 22.2459 20.9317 22.246 20.9317 22.2459L20.9273 22.2411L20.9149 22.2275C20.9041 22.2157 20.8887 22.1987 20.8698 22.1776C20.832 22.1356 20.7804 22.0777 20.7253 22.0141C20.6162 21.8882 20.4894 21.7358 20.4304 21.6414L20.4219 21.6278V20.9404L20.4851 20.9483C20.6554 20.9696 20.8106 21.0707 20.9391 21.254C20.9916 21.0576 21.0578 20.895 21.1446 20.7539C21.2504 20.582 21.3852 20.4447 21.5586 20.3175L21.5921 20.293ZM20.9979 22.1516H22.1759C22.1764 22.1512 22.1769 22.1507 22.1774 22.1502C22.1888 22.1386 22.2053 22.1217 22.2254 22.1009C22.2655 22.0594 22.32 22.0021 22.3772 21.9394C22.4344 21.8765 22.494 21.8086 22.5447 21.7455C22.5914 21.6874 22.6283 21.6361 22.6494 21.5978V21.0726C22.5114 21.1109 22.3716 21.2202 22.26 21.4248L22.1794 21.5725L22.155 21.4061C22.126 21.2087 22.0583 21.0189 21.9559 20.8477C21.8607 20.6884 21.7372 20.548 21.5915 20.4334C21.444 20.5464 21.3304 20.6666 21.2404 20.8128C21.1434 20.9704 21.0722 21.1609 21.0168 21.4101L20.9843 21.5564L20.9125 21.4248C20.8005 21.2195 20.6691 21.111 20.5344 21.0728V21.5951C20.5914 21.682 20.7056 21.8196 20.8103 21.9404C20.8649 22.0034 20.916 22.0608 20.9534 22.1024C20.9721 22.1232 20.9873 22.14 20.9979 22.1516Z" fill="black"/>
<path d="M22.3666 22.6795C22.2541 22.1508 22.1416 21.757 21.5678 21.3633C20.9828 21.757 20.8816 22.1508 20.7578 22.6795H22.3666Z" fill="white"/>
<path fill-rule="evenodd" clip-rule="evenodd" d="M21.5687 21.2969L21.6003 21.3185C21.8935 21.5197 22.0717 21.7231 22.1904 21.9459C22.3084 22.1674 22.3659 22.405 22.4222 22.6694L22.4367 22.7374H20.6875L20.7037 22.6683C20.7653 22.4048 20.8229 22.1671 20.9408 21.9459C21.0596 21.723 21.238 21.5195 21.537 21.3182L21.5687 21.2969ZM20.8295 22.6249H22.2975C22.246 22.3898 22.1914 22.187 22.0911 21.9988C21.9862 21.802 21.8296 21.6183 21.5681 21.4332C21.3016 21.6183 21.145 21.802 21.0401 21.9988C20.9398 22.187 20.8854 22.3895 20.8295 22.6249Z" fill="black"/>
<path d="M22.6703 22.9733V22.2083C22.4003 22.3208 22.1641 22.467 22.0741 22.6358C21.9841 22.2083 21.7928 22.0283 21.5566 21.7695C21.3203 22.0283 21.1628 22.2195 21.0616 22.6358C20.9716 22.467 20.7353 22.3095 20.4766 22.2083V22.9733H22.6703Z" fill="white"/>
<path fill-rule="evenodd" clip-rule="evenodd" d="M21.5581 21.6875L21.5997 21.733C21.6179 21.753 21.636 21.7726 21.6539 21.792C21.8438 21.998 22.007 22.1751 22.101 22.505C22.1488 22.4513 22.2082 22.4016 22.2743 22.356C22.3826 22.2814 22.5129 22.215 22.6502 22.1578L22.7281 22.1253V23.0309H20.4219V22.1273L20.4986 22.1573C20.6315 22.2093 20.7595 22.2761 20.8665 22.3523C20.9328 22.3995 20.9924 22.4513 21.0401 22.5066C21.1452 22.1555 21.3006 21.9696 21.5166 21.733L21.5581 21.6875ZM21.5583 21.8544C21.3481 22.0875 21.2099 22.2719 21.1178 22.6505L21.0829 22.7938L21.0135 22.6636C20.9742 22.5899 20.9002 22.5144 20.8013 22.4439C20.7232 22.3883 20.6317 22.3374 20.5344 22.2941V22.9184H22.6156V22.2955C22.5129 22.3422 22.4182 22.3935 22.3382 22.4486C22.2377 22.5179 22.1643 22.5905 22.1253 22.6636L22.0525 22.8002L22.0206 22.6488C21.9408 22.2697 21.7809 22.0961 21.5701 21.8671C21.5662 21.8629 21.5623 21.8586 21.5583 21.8544Z" fill="black"/>
<path d="M16.2 29.1736H43.7963V30.5798H16.2V29.1736ZM15.4688 30.5798H44.5275V31.9861H15.4688V30.5798ZM17.6513 27.0586H42.3338V27.9698H17.6513V27.0586Z" fill="white"/>
<path fill-rule="evenodd" clip-rule="evenodd" d="M17.5966 27H42.3916V28.0237H17.5966V27ZM17.7091 27.1125V27.9112H42.2791V27.1125H17.7091ZM16.1453 29.115H43.8541V30.5212H44.5853V32.04H15.4141V30.5212H16.1453V29.115ZM16.2578 30.5212H43.7416V29.2275H16.2578V30.5212ZM15.5266 30.6337V31.9275H44.4728V30.6337H15.5266Z" fill="black"/>
<path d="M16.9297 27.9681H43.0747V29.1606H16.9297V27.9681ZM18.0772 26.3594H41.9272V27.0569H18.0772V26.3594Z" fill="white"/>
<path fill-rule="evenodd" clip-rule="evenodd" d="M18.0225 26.3047H41.985V27.1147H18.0225V26.3047ZM18.135 26.4172V27.0022H41.8725V26.4172H18.135ZM16.875 27.9134H43.1325V29.2184H16.875V27.9134ZM16.9875 28.0259V29.1059H43.02V28.0259H16.9875Z" fill="black"/>
<path d="M20.6641 26.3594H22.4641V31.9844H20.6641V26.3594Z" fill="white"/>
<path fill-rule="evenodd" clip-rule="evenodd" d="M20.6094 26.3047H22.5219V32.0422H20.6094V26.3047ZM20.7219 26.4172V31.9297H22.4094V26.4172H20.7219Z" fill="black"/>
<path d="M21.0737 26.3594H22.075V31.9844H21.0625L21.0737 26.3594ZM29.0612 26.3594H30.8612V31.9844H29.0612V26.3594Z" fill="white"/>
<path fill-rule="evenodd" clip-rule="evenodd" d="M21.0193 26.3047H22.1329V32.0422H21.0078L21.0193 26.3047ZM21.1316 26.4172L21.1205 31.9297H22.0204V26.4172H21.1316ZM29.0067 26.3047H30.9192V32.0422H29.0067V26.3047ZM29.1192 26.4172V31.9297H30.8067V26.4172H29.1192Z" fill="black"/>
<path d="M29.4766 26.3594H30.4891V31.9844H29.4766V26.3594ZM37.5203 26.3594H39.3203V31.9844H37.5203V26.3594Z" fill="white"/>
<path fill-rule="evenodd" clip-rule="evenodd" d="M29.4219 26.3047H30.5469V32.0422H29.4219V26.3047ZM29.5344 26.4172V31.9297H30.4344V26.4172H29.5344ZM37.4656 26.3047H39.3781V32.0422H37.4656V26.3047ZM37.5781 26.4172V31.9297H39.2656V26.4172H37.5781Z" fill="black"/>
<path d="M37.9141 26.3594H38.9266V31.9844H37.9141V26.3594Z" fill="white"/>
<path fill-rule="evenodd" clip-rule="evenodd" d="M37.8594 26.3047H38.9844V32.0422H37.8594V26.3047ZM37.9719 26.4172V31.9297H38.8719V26.4172H37.9719Z" fill="black"/>
<path fill-rule="evenodd" clip-rule="evenodd" d="M40.8766 25.843H19.1641V25.7305H40.8766V25.843ZM22.0891 27.1142H21.0541V27.0017H22.0891V27.1142ZM30.4591 27.1142H29.4916V27.0017H30.4591V27.1142ZM38.9416 27.1142H37.9066V27.0017H38.9416V27.1142ZM22.0891 27.8117H21.0541V27.6992H22.0891V27.8117ZM30.4591 27.8117H29.4916V27.6992H30.4591V27.8117ZM38.9416 27.8117H37.9066V27.6992H38.9416V27.8117ZM22.0891 28.5205H21.0541V28.408H22.0891V28.5205ZM30.4591 28.5205H29.4916V28.408H30.4591V28.5205ZM38.9416 28.5205H37.9066V28.408H38.9416V28.5205ZM22.0891 29.218H21.0541V29.1055H22.0891V29.218ZM30.4591 29.218H29.4916V29.1055H30.4591V29.218ZM38.9416 29.218H37.9066V29.1055H38.9416V29.218ZM22.0891 29.9267H21.0541V29.8142H22.0891V29.9267ZM30.4591 29.9267H29.4916V29.8142H30.4591V29.9267ZM38.9416 29.9267H37.9066V29.8142H38.9416V29.9267ZM22.0891 30.6242H21.0541V30.5117H22.0891V30.6242ZM30.4591 30.6242H29.4916V30.5117H30.4591V30.6242ZM38.9416 30.6242H37.9066V30.5117H38.9416V30.6242ZM22.0891 31.333H21.0541V31.2205H22.0891V31.333ZM30.4591 31.333H29.4916V31.2205H30.4591V31.333ZM38.9416 31.333H37.9066V31.2205H38.9416V31.333Z" fill="black"/>
</g>
<defs>
<clipPath id="clip0_4046_22559">
<rect width="60" height="45" fill="white"/>
</clipPath>
</defs>
</svg>
