<svg width="60" height="45" viewBox="0 0 60 45" fill="none" xmlns="http://www.w3.org/2000/svg">
<g clip-path="url(#clip0_4046_22659)">
<path fill-rule="evenodd" clip-rule="evenodd" d="M-6.85156 0H66.6074V26.9385H-6.85156V0Z" fill="#E73E2D"/>
<path fill-rule="evenodd" clip-rule="evenodd" d="M25.5469 24.7939C23.8418 23.458 20.6602 23.915 20.1328 20.2852C22.5674 22.1748 22.1279 20.1797 25.7578 21.9814L25.5469 24.7939Z" fill="#FEC74A"/>
<path fill-rule="evenodd" clip-rule="evenodd" d="M20.0312 20.1133L20.1776 20.2269C20.7827 20.6966 21.2033 20.9201 21.5487 21.0232C21.8928 21.1259 22.1677 21.1111 22.4918 21.0924L22.4971 21.0921C22.821 21.0735 23.1889 21.0523 23.7028 21.1494C24.2186 21.2468 24.8783 21.4627 25.79 21.9153L25.8351 21.9376L25.6099 24.9398L25.4998 24.8535C25.0833 24.5272 24.5741 24.3085 24.0289 24.1071C23.8879 24.0551 23.7443 24.0041 23.5994 23.9527C23.1876 23.8065 22.7657 23.6568 22.3653 23.4681C21.8221 23.212 21.3111 22.8812 20.9026 22.3812C20.4937 21.8807 20.1914 21.2155 20.0579 20.2967L20.0312 20.1133ZM20.2353 20.4587C20.3772 21.2595 20.6561 21.8433 21.0183 22.2866C21.408 22.7636 21.8979 23.0826 22.4291 23.333C22.8221 23.5182 23.2336 23.6643 23.6434 23.8097C23.7897 23.8616 23.9357 23.9135 24.0806 23.967C24.5826 24.1523 25.0682 24.3571 25.4816 24.6532L25.6786 22.0268C24.7988 21.5938 24.1655 21.3889 23.675 21.2962C23.1792 21.2025 22.8262 21.2228 22.5042 21.2414L22.5004 21.2416C22.1763 21.2603 21.8777 21.2773 21.506 21.1664C21.1664 21.065 20.7705 20.8584 20.2353 20.4587Z" fill="#D8AA3F"/>
<path fill-rule="evenodd" clip-rule="evenodd" d="M26.0061 23.1494C24.7844 21.3564 21.6115 20.8115 22.2268 17.1992C23.9758 19.7393 24.1604 17.7002 27.0783 20.5303L26.0061 23.1494Z" fill="#FEC74A"/>
<path fill-rule="evenodd" clip-rule="evenodd" d="M22.1806 17.0078L22.2849 17.1593C22.7196 17.7906 23.0529 18.1311 23.351 18.334C23.6479 18.5361 23.9145 18.6053 24.2293 18.6861L24.2323 18.6868C24.5474 18.7677 24.9054 18.8595 25.3674 19.1098C25.83 19.3604 26.3941 19.7683 27.1269 20.4791L27.1632 20.5143L26.0192 23.3087L25.9409 23.1939C25.6424 22.7558 25.2229 22.3915 24.7642 22.0325C24.6467 21.9406 24.5265 21.8489 24.4052 21.7565C24.0559 21.49 23.6981 21.2171 23.3732 20.9136C22.9338 20.5031 22.5484 20.0314 22.313 19.4304C22.0773 18.8289 21.994 18.1035 22.1497 17.1891L22.1806 17.0078ZM22.2688 17.3965C22.1572 18.2018 22.2432 18.8429 22.4521 19.3759C22.6767 19.9491 23.0455 20.403 23.4752 20.8044C23.7941 21.1024 24.1432 21.3687 24.4909 21.6338C24.6133 21.7272 24.7356 21.8204 24.8563 21.9149C25.2789 22.2456 25.6802 22.5896 25.9848 22.9982L26.9866 20.5512C26.2783 19.8688 25.7361 19.4795 25.2962 19.2412C24.8504 18.9996 24.507 18.9115 24.1937 18.8312L24.1911 18.8305C23.8769 18.7499 23.5873 18.6756 23.2669 18.4575C22.9736 18.2578 22.6585 17.9407 22.2688 17.3965Z" fill="#D8AA3F"/>
<path fill-rule="evenodd" clip-rule="evenodd" d="M26.5574 21.9746C26.1179 19.8564 23.3933 18.1426 25.3445 15.0312C25.9773 18.0547 26.9265 16.2441 28.5437 19.9707L26.5574 21.9746Z" fill="#FEC74A"/>
<path fill-rule="evenodd" clip-rule="evenodd" d="M25.3762 14.832L25.4142 15.0134C25.5715 15.765 25.747 16.2086 25.9432 16.5113C26.1386 16.8129 26.3573 16.9796 26.6165 17.1751L26.6231 17.1801C26.8816 17.3751 27.1756 17.5968 27.5051 18.0023C27.8368 18.4105 28.2026 19.0025 28.6088 19.9384L28.6289 19.9848L26.5091 22.1235L26.4808 21.9872C26.3734 21.4698 26.1258 20.9741 25.8396 20.4679C25.7664 20.3384 25.6906 20.2081 25.6141 20.0767C25.3934 19.6973 25.1671 19.3086 24.983 18.9038C24.7341 18.3566 24.5586 17.7731 24.5709 17.1269C24.5833 16.4801 24.7839 15.7766 25.2778 14.989L25.3762 14.832ZM26.5963 21.8232L28.4515 19.9516C28.0573 19.0512 27.7046 18.4848 27.3892 18.0965C27.0711 17.7052 26.789 17.4924 26.532 17.2985L26.5265 17.2944C26.2672 17.0988 26.0289 16.9184 25.8178 16.5926C25.6249 16.295 25.4572 15.8803 25.308 15.2274C24.897 15.9305 24.7313 16.5568 24.7203 17.1298C24.7085 17.7462 24.8757 18.3069 25.119 18.8419C25.2998 19.2393 25.5205 19.6186 25.7401 19.9961C25.8174 20.1288 25.8945 20.2613 25.9697 20.3943C26.2332 20.8605 26.4719 21.3305 26.5963 21.8232Z" fill="#D8AA3F"/>
<path fill-rule="evenodd" clip-rule="evenodd" d="M27.8322 20.8848C28.0695 18.7314 26.0041 16.2617 28.8078 13.9062C28.4914 16.9736 29.9503 15.5498 30.3459 19.584L27.8322 20.8848V20.8848Z" fill="#FEC74A"/>
<path fill-rule="evenodd" clip-rule="evenodd" d="M28.8976 13.7266L28.8787 13.9101C28.8 14.6726 28.8326 15.1484 28.9276 15.4967C29.0223 15.8437 29.1802 16.0699 29.3675 16.3358L29.3714 16.3414C29.5584 16.6067 29.7708 16.9082 29.9604 17.3954C30.151 17.8852 30.3174 18.5597 30.4168 19.5729L30.4217 19.6233L27.8631 20.9473L27.8288 20.881L27.7545 20.8728C27.8125 20.3468 27.7301 19.7984 27.6138 19.2283C27.5837 19.0805 27.5512 18.931 27.5184 18.7801C27.4257 18.3531 27.3306 17.9156 27.2799 17.4761C27.2111 16.879 27.2226 16.2701 27.4318 15.6596C27.6412 15.0485 28.0466 14.4416 28.7563 13.8453L28.8976 13.7266ZM27.9151 20.7522L30.2631 19.5372C30.1641 18.5615 30.0024 17.9153 29.8211 17.4496C29.6382 16.9793 29.4343 16.69 29.2484 16.4262L29.2454 16.4218C29.058 16.1559 28.8858 15.9108 28.7835 15.536C28.6901 15.1935 28.6561 14.7475 28.7125 14.0809C28.1073 14.6224 27.7586 15.1666 27.5731 15.708C27.3736 16.2903 27.361 16.8751 27.4284 17.459C27.4781 17.8905 27.5708 18.3173 27.6631 18.7421C27.6962 18.8944 27.7293 19.0465 27.7602 19.1985C27.8673 19.7234 27.9491 20.2446 27.9151 20.7522Z" fill="#D8AA3F"/>
<path fill-rule="evenodd" clip-rule="evenodd" d="M28.9766 20.0146C30.0664 18.1426 29.1963 15.0488 32.7207 14.0469C31.1738 16.71 33.0898 16.0068 31.7979 19.8477L28.9766 20.0146V20.0146Z" fill="#FEC74A"/>
<path fill-rule="evenodd" clip-rule="evenodd" d="M32.8725 13.9219L32.7796 14.0818C32.3951 14.7438 32.2297 15.19 32.1737 15.5457C32.1178 15.9 32.1692 16.1702 32.2313 16.4888L32.2326 16.4954C32.2945 16.8134 32.365 17.1749 32.3384 17.6967C32.3118 18.2211 32.1874 18.9042 31.8629 19.8689L31.8468 19.9167L28.9752 20.0867L28.9708 20.0121L28.9062 19.9745C29.1725 19.5171 29.3206 18.9824 29.4471 18.4145C29.4793 18.2699 29.5101 18.123 29.5412 17.9749C29.6316 17.5446 29.7241 17.1037 29.8587 16.6793C30.0404 16.1066 30.3006 15.5562 30.7418 15.0852C31.1835 14.6137 31.8024 14.2261 32.6945 13.9725L32.8725 13.9219ZM29.1019 19.9295L31.7373 19.7735C32.0468 18.8432 32.1639 18.1878 32.1892 17.6891C32.2148 17.1856 32.1472 16.8387 32.0856 16.5225L32.0846 16.5174C32.0225 16.1987 31.9657 15.9053 32.0261 15.5224C32.0812 15.1727 32.2331 14.7531 32.5577 14.1697C31.7835 14.4161 31.2421 14.7697 30.8509 15.1873C30.4299 15.6366 30.1787 16.1645 30.0011 16.7245C29.869 17.1411 29.7787 17.5712 29.6888 17.9995C29.6574 18.1491 29.626 18.2985 29.5929 18.447C29.4764 18.9699 29.339 19.4794 29.1019 19.9295Z" fill="#D8AA3F"/>
<path fill-rule="evenodd" clip-rule="evenodd" d="M30.6172 20.2416C32.252 18.8178 32.4102 15.601 36.0664 15.768C33.7549 17.807 35.8027 17.7455 33.3418 20.9887L30.6172 20.2416Z" fill="#FEC74A"/>
<path fill-rule="evenodd" clip-rule="evenodd" d="M30.7658 20.206L33.3106 20.9037C33.9035 20.117 34.2252 19.5308 34.4091 19.0646C34.5955 18.592 34.6417 18.2398 34.6838 17.9188L34.6842 17.9162C34.7264 17.5943 34.7652 17.298 34.9431 16.954C35.1059 16.6393 35.3827 16.2889 35.8757 15.8375C35.0642 15.8258 34.4391 15.9899 33.9359 16.2625C33.3944 16.5557 32.9886 16.9774 32.642 17.4527C32.3859 17.804 32.1645 18.1808 31.9442 18.556C31.8652 18.6905 31.7863 18.8248 31.706 18.9576C31.4285 19.4165 31.1351 19.8555 30.7658 20.206ZM33.8647 16.1311C34.4329 15.8234 35.1421 15.6516 36.0677 15.6938L36.2523 15.7023L36.1137 15.8245C35.5392 16.3313 35.2414 16.7026 35.0758 17.0227C34.911 17.3415 34.8744 17.6145 34.8321 17.937L34.8318 17.9397C34.7894 18.2627 34.7413 18.6297 34.5481 19.1194C34.3547 19.6096 34.0173 20.2198 33.3992 21.0343L33.3687 21.0746L30.4609 20.2773L30.566 20.1858C30.9654 19.8379 31.2769 19.3785 31.5781 18.8803C31.6562 18.7511 31.7338 18.619 31.812 18.4858C32.0335 18.1088 32.2604 17.7225 32.5213 17.3647C32.8757 16.8787 33.2971 16.4385 33.8647 16.1311Z" fill="#D8AA3F"/>
<path fill-rule="evenodd" clip-rule="evenodd" d="M32.0781 21.0843C34.0557 20.1966 35.1455 17.1732 38.5908 18.4036C35.7783 19.678 37.7559 20.223 34.46 22.596L32.0781 21.0843V21.0843Z" fill="#FEC74A"/>
<path fill-rule="evenodd" clip-rule="evenodd" d="M32.0791 21.0848L32.0391 21.1479L34.4636 22.6867L34.5046 22.6571C35.3324 22.0611 35.8323 21.5775 36.1598 21.166C36.4864 20.7556 36.6393 20.4193 36.7739 20.1231L36.7756 20.1192C36.9102 19.8231 37.0252 19.5724 37.2767 19.3154C37.5292 19.0573 37.9236 18.7889 38.6226 18.4722L38.7909 18.3959L38.6169 18.3338C37.7448 18.0223 37.0168 17.9785 36.384 18.1058C35.7519 18.233 35.2207 18.5299 34.7402 18.8904C34.3853 19.1566 34.0548 19.4604 33.7321 19.757C33.6195 19.8604 33.5079 19.963 33.3966 20.0628C32.9634 20.4511 32.5317 20.7997 32.0485 21.0166L32.0791 21.0848ZM33.4963 20.174C33.0972 20.5318 32.6887 20.8662 32.2334 21.0942L34.4582 22.5063C35.2537 21.9295 35.7315 21.4643 36.0429 21.073C36.358 20.677 36.5047 20.3543 36.6385 20.0599L36.6396 20.0574C36.7742 19.7614 36.8982 19.4886 37.1699 19.2109C37.4182 18.9571 37.7863 18.7025 38.3912 18.4148C37.6191 18.166 36.974 18.1395 36.4135 18.2523C35.8105 18.3736 35.2997 18.6574 34.8299 19.0099C34.4815 19.2713 34.159 19.5677 33.8379 19.8628C33.7242 19.9672 33.6107 20.0715 33.4963 20.174Z" fill="#D8AA3F"/>
<path fill-rule="evenodd" clip-rule="evenodd" d="M33.2969 22.414C35.4414 22.1152 37.3398 19.5136 40.3018 21.6757C37.252 22.1064 38.9834 23.1787 35.1602 24.5322L33.2969 22.4052V22.414Z" fill="#FEC74A"/>
<path fill-rule="evenodd" clip-rule="evenodd" d="M33.2785 22.4892L35.1417 24.6161L35.1895 24.5992C36.1497 24.2592 36.7649 23.9356 37.195 23.6331C37.6232 23.3318 37.8651 23.0531 38.078 22.8078L38.0818 22.8034C38.2949 22.5579 38.4765 22.3504 38.7902 22.1752C39.1052 21.9993 39.5586 21.8533 40.3166 21.7463L40.4989 21.7205L40.3502 21.612C39.6004 21.0647 38.9137 20.8159 38.2702 20.7591C37.6274 20.7023 37.0337 20.8376 36.471 21.0487C36.0538 21.2052 35.6495 21.4051 35.2551 21.6002C35.1195 21.6673 34.9851 21.7338 34.8517 21.7978C34.3424 22.042 33.8452 22.2509 33.3375 22.3298L33.2266 22.2032V22.4964L33.2785 22.4892ZM34.9163 21.9325C34.4349 22.1633 33.9512 22.3695 33.453 22.4616L35.1873 24.4414C36.1112 24.1108 36.7001 23.7986 37.109 23.5109C37.5223 23.2201 37.7545 22.9526 37.9662 22.7087L37.969 22.7055C38.1821 22.46 38.3785 22.234 38.7174 22.0448C39.0271 21.8718 39.4514 21.7316 40.1113 21.6261C39.4396 21.167 38.8272 20.9583 38.2571 20.9079C37.6439 20.8538 37.0736 20.9822 36.5234 21.1886C36.1139 21.3422 35.7195 21.5372 35.3269 21.7314C35.19 21.7992 35.0533 21.8668 34.9163 21.9325Z" fill="#D8AA3F"/>
<path fill-rule="evenodd" clip-rule="evenodd" d="M40.9463 22.8164L31.0938 23.0361L31.5068 25.6904L40.9463 22.8164Z" fill="#FEC74A"/>
<path fill-rule="evenodd" clip-rule="evenodd" d="M40.9456 22.7422L40.969 22.8883L31.4473 25.7874L31.0078 22.9638L40.9456 22.7422ZM31.1817 23.1094L31.5684 25.5944L40.4057 22.9037L31.1817 23.1094Z" fill="#D8AA3F"/>
<path fill-rule="evenodd" clip-rule="evenodd" d="M39.498 19.1953L30.375 22.7021L31.8955 25.6289L39.498 19.1953V19.1953Z" fill="#FEC74A"/>
<path fill-rule="evenodd" clip-rule="evenodd" d="M39.4667 19.125L39.4935 19.1947L39.5418 19.2518L31.8678 25.7458L30.2656 22.6618L39.4667 19.125ZM39.1083 19.4228L30.4753 22.7413L31.9141 25.5109L39.1083 19.4228Z" fill="#D8AA3F"/>
<path fill-rule="evenodd" clip-rule="evenodd" d="M32.249 24.6719L36.9687 16.0938L29.7266 22.835L32.249 24.6719Z" fill="#FEC74A"/>
<path fill-rule="evenodd" clip-rule="evenodd" d="M36.9179 16.0391L37.0342 16.1298L32.2736 24.7822L29.6094 22.842L36.9179 16.0391ZM29.8438 22.8279L32.2245 24.5616L36.6789 16.4656L29.8438 22.8279Z" fill="#D8AA3F"/>
<path fill-rule="evenodd" clip-rule="evenodd" d="M32.1543 23.959L33.666 14.3438L28.9375 22.8867L32.1543 23.959Z" fill="#FEC74A"/>
<path fill-rule="evenodd" clip-rule="evenodd" d="M33.6002 14.3086L33.7393 14.3564L32.2139 24.0588L28.8281 22.9302L33.6002 14.3086ZM29.0459 22.8453L32.0937 23.8612L33.526 14.7511L29.0459 22.8453Z" fill="#D8AA3F"/>
<path fill-rule="evenodd" clip-rule="evenodd" d="M31.582 23.1777L30 13.4922L28.2422 23.2217L31.582 23.1777Z" fill="#FEC74A"/>
<path fill-rule="evenodd" clip-rule="evenodd" d="M29.9302 13.4766L30.0774 13.4778L31.6734 23.249L28.1562 23.2952L29.9302 13.4766ZM28.3355 23.1434L31.498 23.1018L30 13.9306L28.3355 23.1434Z" fill="#D8AA3F"/>
<path fill-rule="evenodd" clip-rule="evenodd" d="M30.7686 22.3516L26.1719 14.2656L27.9297 24.0918L30.7686 22.3516Z" fill="#FEC74A"/>
<path fill-rule="evenodd" clip-rule="evenodd" d="M26.0938 14.2766L26.2322 14.2266L30.8646 22.3753L27.8708 24.2105L26.0938 14.2766ZM26.3175 14.6789L27.9794 23.9688L30.6633 22.3235L26.3175 14.6789Z" fill="#D8AA3F"/>
<path fill-rule="evenodd" clip-rule="evenodd" d="M30.0576 22.29L22.9297 16.2695L27.9922 24.8828L30.0576 22.29V22.29Z" fill="#FEC74A"/>
<path fill-rule="evenodd" clip-rule="evenodd" d="M22.8594 16.3059L22.972 16.2109L30.0999 22.2314L30.0517 22.2885L30.1101 22.3351L27.977 25.0129L22.8594 16.3059ZM29.948 22.2988L23.21 16.6076L27.9956 24.7497L29.948 22.2988Z" fill="#D8AA3F"/>
<path fill-rule="evenodd" clip-rule="evenodd" d="M20.4219 19.2383L28.0684 25.5576L29.2461 22.2529L20.4219 19.2383Z" fill="#FEC74A"/>
<path fill-rule="evenodd" clip-rule="evenodd" d="M20.375 19.2963L20.4467 19.168L29.3426 22.2071L28.1037 25.6835L20.375 19.2963ZM20.7853 19.4415L28.0345 25.4325L29.151 22.2995L20.7853 19.4415Z" fill="#D8AA3F"/>
<path fill-rule="evenodd" clip-rule="evenodd" d="M27.9912 22.9287L19 22.7969L27.9561 25.7852L27.9912 22.9287V22.9287Z" fill="#FEC74A"/>
<path fill-rule="evenodd" clip-rule="evenodd" d="M18.9766 22.8682L19.0013 22.7227L27.9925 22.8545L27.9914 22.9292L28.0661 22.9301L28.0297 25.8889L18.9766 22.8682ZM27.9158 23.0028L19.4813 22.8791L27.8828 25.6824L27.9158 23.0028Z" fill="#D8AA3F"/>
<path fill-rule="evenodd" clip-rule="evenodd" d="M35.2808 24.5381C35.3101 25.2645 35.1924 25.9894 34.9346 26.6692C34.6768 27.3489 34.2844 27.9696 33.7808 28.494C33.2772 29.0183 32.6728 29.4355 32.004 29.7205C31.3352 30.0054 30.6157 30.1523 29.8887 30.1523C29.1617 30.1523 28.4422 30.0054 27.7733 29.7205C27.1045 29.4355 26.5002 29.0183 25.9966 28.494C25.493 27.9696 25.1005 27.3489 24.8428 26.6692C24.585 25.9894 24.4672 25.2645 24.4966 24.5381C24.5528 23.1457 25.1455 21.829 26.1506 20.8637C27.1556 19.8985 28.4951 19.3594 29.8887 19.3594C31.2822 19.3594 32.6217 19.8985 33.6268 20.8637C34.6319 21.829 35.2245 23.1457 35.2808 24.5381V24.5381Z" fill="#FEC74A"/>
<path fill-rule="evenodd" clip-rule="evenodd" d="M29.8931 19.4346C28.5188 19.4346 27.1979 19.9662 26.2067 20.9181C25.2156 21.87 24.6311 23.1685 24.5756 24.5416C24.5467 25.258 24.6628 25.9728 24.917 26.6432C25.1712 27.3135 25.5582 27.9256 26.0548 28.4427C26.5515 28.9598 27.1474 29.3712 27.807 29.6522C28.4666 29.9333 29.1761 30.0781 29.8931 30.0781C30.61 30.0781 31.3196 29.9333 31.9791 29.6522C32.6387 29.3712 33.2347 28.9598 33.7313 28.4427C34.2279 27.9256 34.6149 27.3135 34.8691 26.6432C35.1233 25.9728 35.2394 25.258 35.2105 24.5416C35.1551 23.1685 34.5706 21.87 33.5794 20.9181C32.5883 19.9662 31.2673 19.4346 29.8931 19.4346ZM26.1032 20.8104C27.1222 19.8317 28.4802 19.2852 29.8931 19.2852C31.3059 19.2852 32.664 19.8317 33.6829 20.8104C34.7019 21.789 35.3028 23.1239 35.3598 24.5356C35.3895 25.2721 35.2702 26.007 35.0088 26.6961C34.7475 27.3853 34.3496 28.0146 33.8391 28.5462C33.3285 29.0778 32.7158 29.5008 32.0377 29.7897C31.3596 30.0786 30.6301 30.2275 29.8931 30.2275C29.156 30.2275 28.4265 30.0786 27.7484 29.7897C27.0704 29.5008 26.4576 29.0778 25.9471 28.5462C25.4365 28.0146 25.0386 27.3853 24.7773 26.6961C24.516 26.007 24.3966 25.2721 24.4263 24.5356C24.4833 23.1239 25.0842 21.789 26.1032 20.8104Z" fill="#D8AA3F"/>
<path fill-rule="evenodd" clip-rule="evenodd" d="M-6.9209 26.6641H66.8984V44.998H-6.92969L-6.9209 26.6641Z" fill="#005989"/>
<path fill-rule="evenodd" clip-rule="evenodd" d="M-6.96484 39.9004C-5.59375 40.5332 -3.625 42.124 -1.51562 42.124C2 42.0977 2.08789 39.7158 5.65625 39.8301C9.2334 39.918 8.58301 42.4316 13.4082 42.4229C17.3984 42.4053 18.6816 39.373 22.127 39.7334C24.6758 39.6016 25.7129 42.6074 29.624 42.6514C33.6846 42.7393 35.1699 39.373 37.71 39.6543C40.4346 39.6543 41.3135 42.3613 45.1191 42.3789C49.9707 42.4053 50.8232 39.5664 53.8467 39.7422C56.0088 39.6982 57.7139 41.8252 60.8779 41.8779C63.3916 41.9219 65.5098 40.0146 66.9424 39.3291L67.0039 36.0947C65.5098 36.6484 63.2773 38.4766 61.0537 38.4941C57.8369 38.6172 55.8594 36.3848 53.627 36.4111C50.9551 36.4375 49.8916 39.1621 45.3652 39.1621C41.2168 39.1621 40.2676 36.4111 37.5957 36.4111C34.9854 36.4287 34.1855 39.3994 29.6592 39.3467C25.9678 39.3027 24.5352 36.5078 21.9248 36.5342C19.1562 36.5342 16.2998 39.25 13.2236 39.1182C9.00488 38.9424 8.08203 36.5342 5.31348 36.5342C3.24805 36.5342 1.00684 38.7842 -1.48047 38.8193C-3.95898 38.8633 -6.74512 36.5781 -7 36.5342L-6.96484 39.9004V39.9004ZM-6.96484 33.4844C-5.59375 34.126 -3.625 35.7168 -1.51562 35.7168C2 35.6904 2.08789 33.3086 5.65625 33.4141C9.2334 33.502 8.58301 36.0244 13.4082 36.0068C17.3984 36.0068 18.6816 32.9658 22.127 33.3262C24.6758 33.1943 25.7129 36.2002 29.624 36.2354C33.6846 36.3232 35.1699 32.9658 37.71 33.2471C40.4346 33.2471 41.3135 35.9541 45.1191 35.9717C49.9707 35.998 50.8232 33.1592 53.8467 33.335C56.0088 33.291 57.7139 35.418 60.8779 35.4707C63.3916 35.5146 65.5098 33.6074 66.9424 32.9219L67.0039 29.6875C65.5098 30.2412 63.2773 32.0605 61.0537 32.0869C57.8369 32.2012 55.8594 29.9775 53.627 30.0039C50.9551 30.0303 49.8916 32.7549 45.3652 32.7549C41.2168 32.7549 40.2676 30.0039 37.5957 30.0039C34.9854 30.0215 34.1855 32.9922 29.6592 32.9395C25.9678 32.8955 24.5352 30.1006 21.9248 30.127C19.1562 30.127 16.2998 32.834 13.2236 32.7021C9.00488 32.5264 8.08203 30.1182 5.31348 30.1182C3.24805 30.1182 1.00684 32.377 -1.48047 32.4121C-3.95898 32.4473 -6.74512 30.1709 -7 30.127L-6.96484 33.4932V33.4844Z" fill="white"/>
<path fill-rule="evenodd" clip-rule="evenodd" d="M-6.96484 27.1582C-5.59375 27.791 -3.625 29.373 -1.52441 29.373C1.99121 29.3555 2.0791 26.9648 5.64746 27.0791C9.21582 27.167 8.56543 29.6807 13.3906 29.6719C17.3721 29.6631 18.6641 26.6221 22.0918 26.9912C24.6406 26.8594 25.6777 29.8652 29.5889 29.9004C33.6406 29.9883 35.126 26.6221 37.6748 26.9033C40.3818 26.9033 41.2783 29.6104 45.0752 29.6279C49.9092 29.6543 50.7617 26.8154 53.7939 26.9912C55.9473 26.9473 57.6523 29.0742 60.8076 29.127C63.3301 29.1709 65.4395 27.2637 66.8721 26.5781L66.9336 23.3438C65.4395 23.9062 63.2158 25.7256 60.9834 25.7432C57.7842 25.8662 55.7979 23.6426 53.5654 23.6602C50.9023 23.6865 49.8389 26.4111 45.3037 26.4111C41.1729 26.4111 40.2236 23.6602 37.5518 23.6602C34.9414 23.6865 34.1416 26.6484 29.6328 26.5957C25.9414 26.5518 24.5088 23.7656 21.8984 23.7832C19.1299 23.7832 16.2734 26.499 13.2148 26.3672C8.9873 26.1914 8.07324 23.7832 5.30469 23.7832C3.23926 23.7832 1.00684 26.0332 -1.48047 26.0684C-3.95898 26.1123 -6.73633 23.8359 -7 23.7832L-6.96484 27.1494V27.1582Z" fill="white"/>
<path fill-rule="evenodd" clip-rule="evenodd" d="M19.6094 6.67773C24.9707 6.30859 24.0039 5.85156 26.1572 5.5C28.8818 5.87793 29.1895 7.52148 30.71 8.53223C30.71 8.53223 30.1387 10.4658 28.2754 10.1934C28.0205 9.41992 29.1719 9.17383 25.8584 7.15234C23.9248 7.03809 20.4707 7.49512 19.6182 6.67773H19.6094ZM36.2471 9.65723L32.3799 9.81543V10.7734C34.9902 10.8613 35.4561 10.5098 36.2471 9.65723Z" fill="#FFC84B"/>
<path fill-rule="evenodd" clip-rule="evenodd" d="M26.1632 5.42188L26.175 5.42352C27.5561 5.61509 28.329 6.1293 28.9469 6.72367C29.1505 6.91955 29.3389 7.12588 29.5252 7.33001C29.6183 7.432 29.7109 7.53344 29.8047 7.63275C30.0882 7.93305 30.3878 8.22035 30.7606 8.46822L30.8093 8.50053L30.7927 8.55651L30.7169 8.53409C30.7927 8.55651 30.7927 8.55655 30.7927 8.5566L30.7926 8.55673L30.7925 8.55713L30.7921 8.55846L30.7907 8.56317C30.7894 8.56721 30.7876 8.57302 30.7851 8.58047C30.7802 8.59538 30.7729 8.61688 30.7629 8.64396C30.743 8.6981 30.7125 8.77465 30.6701 8.86543C30.5855 9.04673 30.4524 9.28623 30.259 9.51757C29.8706 9.98206 29.2365 10.4147 28.2708 10.2735L28.2225 10.2664L28.2072 10.22C28.1405 10.0178 28.162 9.8472 28.1815 9.69235C28.1826 9.68429 28.1836 9.67626 28.1846 9.66828C28.2046 9.50705 28.2186 9.35729 28.1469 9.17116C28.0743 8.9825 27.91 8.7481 27.5526 8.43273C27.198 8.11982 26.6581 7.73136 25.841 7.23204C25.2553 7.19877 24.536 7.21698 23.7894 7.23588C23.308 7.24807 22.8152 7.26054 22.3396 7.25968C21.7326 7.25858 21.1557 7.23551 20.6757 7.16068C20.1995 7.08645 19.8023 6.95909 19.5703 6.7367L19.6139 6.69119L19.6108 6.60069C22.29 6.41622 23.3817 6.21012 24.071 6.00823C24.2849 5.94556 24.4628 5.88216 24.6394 5.81921C25.0268 5.6811 25.4081 5.54515 26.1514 5.4238L26.1632 5.42188ZM19.8421 6.74304C20.0465 6.86331 20.3388 6.94805 20.7 7.00437C21.1679 7.0773 21.7351 7.10038 22.3399 7.10148C22.8049 7.10232 23.2932 7.09003 23.7733 7.07795C24.5349 7.05878 25.2758 7.04014 25.87 7.07525L25.8896 7.07641L25.9065 7.08668C26.7366 7.59314 27.2904 7.99031 27.6573 8.31411C28.0239 8.6376 28.209 8.89208 28.2946 9.11431C28.3811 9.33907 28.3622 9.5222 28.3416 9.68781C28.3408 9.69387 28.34 9.69991 28.3393 9.70592C28.3214 9.84904 28.3055 9.97645 28.3437 10.1238C29.213 10.2333 29.7813 9.84218 30.1376 9.41609C30.3199 9.19809 30.4461 8.97123 30.5268 8.79849C30.5671 8.71225 30.5958 8.63987 30.6144 8.58933C30.6175 8.58096 30.6203 8.57319 30.6228 8.56606C30.2588 8.31654 29.9641 8.03204 29.6897 7.74135C29.592 7.63791 29.4975 7.53439 29.4036 7.43146C29.2194 7.22972 29.0373 7.03018 28.8372 6.83768C28.2417 6.2648 27.5011 5.76949 26.1651 5.58187C25.4437 5.7004 25.0838 5.82889 24.7046 5.96428C24.5258 6.02811 24.3427 6.09348 24.1154 6.16005C23.4291 6.3611 22.3652 6.56231 19.8421 6.74304ZM36.4425 9.57221L36.312 9.7129C35.9147 10.141 35.5893 10.4546 35.028 10.6448C34.4718 10.8332 33.6904 10.8983 32.3841 10.8544L32.3077 10.8518V9.74136L36.4425 9.57221ZM32.4659 9.89323V10.6987C33.7232 10.7375 34.4605 10.67 34.9772 10.4949C35.4393 10.3384 35.7298 10.0944 36.0635 9.74605L32.4659 9.89323Z" fill="#D8AA3F"/>
<path fill-rule="evenodd" clip-rule="evenodd" d="M22.9531 9.49176C23.6299 9.14899 23.9639 9.28962 24.5527 9.27204C24.9482 10.0015 25.3262 10.0631 26.2051 10.1509C26.594 10.7273 27.1153 11.202 27.7255 11.5354C28.3356 11.8688 29.0168 12.0511 29.7119 12.067C32.3398 11.9966 33.1748 10.1597 34.9414 9.95758H36.8047C36.4971 9.43024 36.251 9.12262 35.5742 9.08747C34.1855 9.01715 32.3926 9.05231 30.8281 9.40387L28.6221 9.95758C27.9717 9.64118 26.3984 7.98883 25.3877 8.02399C24.7988 8.18219 24.7988 8.38434 24.5088 8.61286C23.9375 8.85895 23.3662 8.7359 22.9531 9.49176V9.49176Z" fill="#FFC84B"/>
<path fill-rule="evenodd" clip-rule="evenodd" d="M28.6339 9.87885L30.813 9.3319L30.8148 9.33147C32.3886 8.97781 34.1891 8.94287 35.5811 9.01334L35.5811 9.01335C35.9314 9.03154 36.1782 9.12102 36.3775 9.28004C36.574 9.43675 36.7183 9.65654 36.8723 9.92043C36.8858 9.94354 36.8858 9.97208 36.8725 9.99528C36.8592 10.0185 36.8345 10.0328 36.8077 10.0328H34.9488C34.2063 10.1189 33.6339 10.5001 32.9984 10.9233C32.8986 10.9898 32.7973 11.0573 32.6935 11.1248C31.9306 11.6212 31.051 12.1064 29.717 12.1421C29.7157 12.1422 29.7145 12.1422 29.7133 12.1421C29.0062 12.126 28.3134 11.9405 27.6927 11.6015C27.0824 11.268 26.5594 10.7954 26.166 10.2223C25.7469 10.18 25.4295 10.1409 25.1693 10.0204C24.9061 9.89845 24.7075 9.69692 24.5122 9.34829C24.3734 9.35077 24.2503 9.34551 24.1347 9.34056C23.7686 9.32491 23.4766 9.31242 22.9899 9.5589L22.9562 9.49225L22.8906 9.45642C23.107 9.06051 23.3686 8.89112 23.6497 8.79124C23.7669 8.74959 23.8879 8.71989 24.0068 8.69074C24.0272 8.68573 24.0476 8.68074 24.0678 8.6757C24.2045 8.64173 24.3393 8.60533 24.4732 8.5486C24.5376 8.49704 24.587 8.44671 24.6341 8.3962C24.6429 8.38675 24.6518 8.37718 24.6607 8.36753C24.7005 8.32443 24.7418 8.27973 24.7893 8.23702C24.9096 8.12871 25.0681 8.03382 25.3714 7.95233C25.3768 7.95086 25.3825 7.95001 25.3882 7.94982C25.66 7.94036 25.9616 8.04394 26.2654 8.20091C26.5705 8.3586 26.8861 8.57457 27.1877 8.79956C27.3957 8.95469 27.599 9.11557 27.7882 9.26533C27.8731 9.33251 27.9551 9.39745 28.0335 9.45863C28.2766 9.6484 28.4818 9.7998 28.6339 9.87885ZM23.1559 9.32038C23.5529 9.16486 23.8421 9.17738 24.1599 9.19113C24.284 9.1965 24.4126 9.20206 24.5536 9.19785C24.5818 9.19701 24.608 9.21212 24.6215 9.23692C24.8145 9.59297 24.9977 9.7762 25.2321 9.88479C25.4723 9.99604 25.773 10.0328 26.2156 10.0771C26.2377 10.0793 26.2576 10.0912 26.2701 10.1096C26.6523 10.6761 27.1647 11.1427 27.7644 11.4703C28.3635 11.7977 29.0323 11.9768 29.7148 11.9927C31.0076 11.9577 31.859 11.4895 32.612 10.9996C32.7133 10.9337 32.8131 10.8671 32.9122 10.801C33.5469 10.3777 34.1529 9.97346 34.936 9.88385C34.9388 9.88353 34.9416 9.88336 34.9445 9.88336H36.6764C36.5495 9.67522 36.4315 9.51424 36.2844 9.39685C36.1146 9.26144 35.8999 9.17953 35.5735 9.16256C34.1883 9.09243 32.4033 9.12778 30.8485 9.47705L28.6433 10.0305C28.6263 10.0348 28.6083 10.0329 28.5924 10.0253C28.4215 9.94208 28.1949 9.77421 27.9415 9.57641C27.8616 9.51401 27.7787 9.44837 27.6933 9.38081C27.5049 9.23168 27.3046 9.07315 27.0984 8.91932C26.7991 8.69607 26.4912 8.48577 26.1968 8.33365C25.9045 8.18263 25.6335 8.09318 25.4018 8.09889C25.1219 8.17502 24.9876 8.25951 24.8892 8.34807C24.8474 8.38575 24.8117 8.42435 24.7722 8.46706C24.7628 8.47718 24.7533 8.48753 24.7433 8.49815C24.6924 8.55278 24.635 8.61144 24.5581 8.67203C24.553 8.67605 24.5474 8.67939 24.5414 8.68196C24.3926 8.74604 24.2448 8.78568 24.1039 8.8207C24.0827 8.82595 24.0618 8.83109 24.0411 8.83617C23.922 8.86542 23.8092 8.89312 23.6997 8.93203C23.504 9.00158 23.3205 9.10645 23.1559 9.32038Z" fill="#D8AA3F"/>
<path fill-rule="evenodd" clip-rule="evenodd" d="M25.6128 8.70048C25.62 8.74096 25.6183 8.78254 25.6077 8.82229C25.5972 8.86203 25.578 8.89898 25.5516 8.93052C25.5252 8.96206 25.4922 8.98742 25.455 9.00483C25.4177 9.02223 25.3771 9.03125 25.3359 9.03125C25.2948 9.03125 25.2542 9.02223 25.2169 9.00483C25.1797 8.98742 25.1467 8.96206 25.1203 8.93052C25.0939 8.89898 25.0747 8.86203 25.0641 8.82229C25.0536 8.78254 25.0518 8.74096 25.0591 8.70048C25.0707 8.6355 25.1048 8.57669 25.1554 8.53433C25.206 8.49196 25.2699 8.46875 25.3359 8.46875C25.4019 8.46875 25.4658 8.49196 25.5165 8.53433C25.5671 8.57669 25.6012 8.6355 25.6128 8.70048V8.70048Z" fill="#FFC84B"/>
<path fill-rule="evenodd" clip-rule="evenodd" d="M25.3403 8.54395C25.2919 8.54395 25.2449 8.56099 25.2078 8.5921C25.1706 8.62321 25.1456 8.66641 25.137 8.71412C25.1317 8.74385 25.133 8.77439 25.1407 8.80358C25.1485 8.83276 25.1626 8.85989 25.1819 8.88306C25.2013 8.90622 25.2256 8.92484 25.2529 8.93763C25.2803 8.95041 25.3101 8.95703 25.3403 8.95703C25.3705 8.95703 25.4004 8.95041 25.4277 8.93763C25.4551 8.92484 25.4793 8.90622 25.4987 8.88306C25.5181 8.85989 25.5322 8.83276 25.5399 8.80358C25.5477 8.77439 25.549 8.74385 25.5436 8.71412C25.5351 8.66641 25.5101 8.62321 25.4729 8.5921C25.4357 8.56099 25.3888 8.54395 25.3403 8.54395ZM25.1119 8.47753C25.1759 8.42391 25.2568 8.39453 25.3403 8.39453C25.4239 8.39453 25.5047 8.42391 25.5688 8.47753C25.6329 8.53114 25.676 8.60558 25.6907 8.68781C25.6999 8.73905 25.6977 8.79168 25.6843 8.84198C25.671 8.89228 25.6467 8.93904 25.6133 8.97896C25.5799 9.01887 25.5381 9.05097 25.491 9.073C25.4438 9.09503 25.3924 9.10645 25.3403 9.10645C25.2883 9.10645 25.2369 9.09503 25.1897 9.073C25.1425 9.05097 25.1008 9.01887 25.0674 8.97896C25.034 8.93904 25.0097 8.89228 24.9963 8.84198C24.983 8.79167 24.9808 8.73905 24.9899 8.68781C25.0046 8.60558 25.0478 8.53114 25.1119 8.47753Z" fill="#D8AA3F"/>
<path fill-rule="evenodd" clip-rule="evenodd" d="M27.4148 9.47656C31.3611 4.72168 34.8064 5.30176 39.3064 4.97656C39.4558 5.53027 39.3943 6.35645 37.2585 7.08594C34.323 7.52539 29.0759 10.6191 29.0496 10.6191C28.074 10.5664 27.3884 9.54688 27.4148 9.47656V9.47656Z" fill="#FFC84B"/>
<path fill-rule="evenodd" clip-rule="evenodd" d="M39.3668 4.89062L39.3837 4.95362C39.4623 5.24477 39.4867 5.61665 39.2046 6.00915C38.9267 6.39591 38.3588 6.79173 37.2851 7.15845L37.2783 7.16077L37.2712 7.16183C35.8171 7.37951 33.7816 8.25732 32.099 9.08596C31.2594 9.49948 30.5104 9.89936 29.9695 10.1959C29.6992 10.3442 29.4808 10.4666 29.3293 10.5519C29.2985 10.5693 29.2704 10.5851 29.2452 10.5993C29.2084 10.6201 29.1777 10.6374 29.1535 10.6509C29.1332 10.6623 29.1172 10.6713 29.1059 10.6774C29.1003 10.6804 29.0953 10.6831 29.0914 10.6851C29.0895 10.686 29.087 10.6873 29.0844 10.6885C29.0831 10.689 29.0808 10.69 29.0778 10.6911C29.0763 10.6916 29.0727 10.6928 29.0705 10.6934C29.067 10.6942 29.0571 10.6956 29.0505 10.6959H29.0484L29.0463 10.6958C28.5324 10.668 28.1003 10.3865 27.8035 10.11C27.6545 9.9711 27.5373 9.83139 27.4585 9.72093C27.4192 9.66585 27.3886 9.61686 27.3683 9.57796C27.3583 9.55875 27.3497 9.54009 27.3441 9.52326C27.3413 9.51492 27.3385 9.50498 27.337 9.4944C27.3358 9.48569 27.334 9.46697 27.3417 9.44645L27.4158 9.47422L27.3549 9.42371C29.3377 7.03468 31.1995 5.98096 33.1343 5.48645C34.5273 5.13044 35.9599 5.06482 37.493 4.99458C38.08 4.96769 38.6818 4.94012 39.3017 4.89533L39.3668 4.89062ZM27.5028 9.4933C27.5045 9.49675 27.5064 9.50056 27.5086 9.50473C27.5245 9.53525 27.5508 9.57786 27.5873 9.62907C27.6601 9.73119 27.7704 9.86285 27.9114 9.99423C28.1904 10.2542 28.581 10.5051 29.0338 10.5365C29.0439 10.531 29.058 10.5231 29.0761 10.513C29.1001 10.4995 29.1306 10.4823 29.1672 10.4617C29.1924 10.4474 29.2206 10.4316 29.2516 10.4141C29.4035 10.3286 29.6224 10.2058 29.8935 10.0572C30.4356 9.75991 31.1868 9.35888 32.0291 8.94403C33.7079 8.11726 35.7598 7.22999 37.2407 7.00644C38.2983 6.64436 38.8272 6.26323 39.0761 5.91683C39.3021 5.60233 39.3033 5.30762 39.2467 5.05786C38.64 5.10063 38.0542 5.12747 37.4848 5.15355C35.9582 5.22349 34.5496 5.28802 33.1735 5.63973C31.2825 6.12304 29.4565 7.14972 27.5028 9.4933Z" fill="#D8AA3F"/>
<path fill-rule="evenodd" clip-rule="evenodd" d="M35.4493 6.36849C35.4513 6.32485 35.4883 6.29107 35.5319 6.29305L38.4411 6.42489C38.4847 6.42687 38.5185 6.46385 38.5165 6.50749C38.5145 6.55113 38.4776 6.58491 38.4339 6.58293L35.5247 6.45109C35.4811 6.44911 35.4473 6.41213 35.4493 6.36849ZM35.1331 6.84893C35.1367 6.80539 35.1749 6.77303 35.2185 6.77664L37.3366 6.95242C37.3802 6.95603 37.4125 6.99426 37.4089 7.03779C37.4053 7.08133 37.3671 7.1137 37.3235 7.11008L35.2054 6.9343C35.1618 6.93069 35.1295 6.89247 35.1331 6.84893Z" fill="#D9A43E"/>
</g>
<defs>
<clipPath id="clip0_4046_22659">
<rect width="60" height="45" fill="white"/>
</clipPath>
</defs>
</svg>
