<svg width="60" height="45" viewBox="0 0 60 45" fill="none" xmlns="http://www.w3.org/2000/svg">
<g clip-path="url(#clip0_4046_22710)">
<path fill-rule="evenodd" clip-rule="evenodd" d="M0 0H67.5703V11.25H0V0Z" fill="#FFFF00"/>
<path fill-rule="evenodd" clip-rule="evenodd" d="M0 11.25H67.5703V22.5H0V11.25Z" fill="white"/>
<path fill-rule="evenodd" clip-rule="evenodd" d="M0 22.5H67.5703V33.75H0V22.5Z" fill="#BE0027"/>
<path fill-rule="evenodd" clip-rule="evenodd" d="M0 33.75H67.5703V45H0V33.75Z" fill="#3B5AA3"/>
<path fill-rule="evenodd" clip-rule="evenodd" d="M0 0V45L33.5654 22.5615L0 0Z" fill="#239E46"/>
<path fill-rule="evenodd" clip-rule="evenodd" d="M13.8184 12.4273C6.3477 12.0493 2.92876 18.0083 2.93754 22.6138C2.91997 28.063 8.08793 32.5454 12.8516 32.2818C10.2852 31.0689 7.13872 27.6499 7.12114 22.5874C7.09477 18.0083 9.71391 14.0181 13.8272 12.4273H13.8184Z" fill="white"/>
<path fill-rule="evenodd" clip-rule="evenodd" d="M13.7129 17.3125L12.6582 16.4951L11.375 16.8994L11.832 15.6338L11.0586 14.5439L12.3945 14.5967L13.1855 13.5156L13.5635 14.8076L14.8291 15.2295L13.7217 15.9766L13.7129 17.3125ZM13.6865 21.8916L12.6318 21.0654L11.3486 21.4697L11.8145 20.2129L11.0322 19.123L12.377 19.167L13.168 18.0947L13.5371 19.3779L14.8115 19.8086L13.6953 20.5557L13.6865 21.8916ZM13.7041 26.5146L12.6494 25.6885L11.375 26.0928L11.832 24.8359L11.0586 23.7461L12.3945 23.79L13.1855 22.7178L13.5635 24.001L14.8291 24.4229L13.7217 25.1787L13.7041 26.5146ZM13.6865 31.1729L12.6318 30.3555L11.3398 30.7598L11.8057 29.4941L11.0234 28.4043L12.3682 28.457L13.1592 27.376L13.5283 28.668L14.8027 29.0898L13.6865 29.8369V31.1729Z" fill="white"/>
</g>
<defs>
<clipPath id="clip0_4046_22710">
<rect width="60" height="45" fill="white"/>
</clipPath>
</defs>
</svg>
