<svg width="60" height="45" viewBox="0 0 60 45" fill="none" xmlns="http://www.w3.org/2000/svg">
<g clip-path="url(#clip0_4046_22719)">
<path fill-rule="evenodd" clip-rule="evenodd" d="M-2.4375 0.015625H62.3906V44.9541H-2.4375V0.015625Z" fill="#FFE900"/>
<path fill-rule="evenodd" clip-rule="evenodd" d="M-2.46875 0.0175781L-2.39844 32.4141L48.0508 0L-2.46875 0.0175781V0.0175781Z" fill="#35A100"/>
<path fill-rule="evenodd" clip-rule="evenodd" d="M62.4727 44.957L62.3496 11.2773L11.4609 44.9834L62.4727 44.957Z" fill="#C70000"/>
<path fill-rule="evenodd" clip-rule="evenodd" d="M-2.44531 34.8555L-2.40137 44.998L8.61133 44.9805L62.374 8.93652L62.3213 0.121094L51.4404 0.015625L-2.43652 34.8555H-2.44531Z" fill="black"/>
<path fill-rule="evenodd" clip-rule="evenodd" d="M40.4727 13.7637L39.6113 10.0547L42.5381 12.4277L45.8779 10.2656L44.3486 13.8955L47.2842 16.2686L43.3994 16.1367L41.8789 19.7666L41.0088 16.0576L37.1328 15.9258L40.4727 13.7637ZM16.2852 29.4961L15.415 25.7783L18.3418 28.1514L21.6816 25.9893L20.1523 29.6191L23.0879 31.9922L19.2119 31.8604L17.6826 35.4902L16.8213 31.7813L12.9453 31.6494L16.2852 29.4961Z" fill="white"/>
</g>
<defs>
<clipPath id="clip0_4046_22719">
<rect width="60" height="45" fill="white"/>
</clipPath>
</defs>
</svg>
