<svg width="60" height="45" viewBox="0 0 60 45" fill="none" xmlns="http://www.w3.org/2000/svg">
<g clip-path="url(#clip0_4046_22726)">
<path fill-rule="evenodd" clip-rule="evenodd" d="M67.7722 44.9559H-7.125V0.0351562H67.7722V44.9559Z" fill="white"/>
<path fill-rule="evenodd" clip-rule="evenodd" d="M-7.17188 -0.0078125H67.8132V45.0008H-7.17188V-0.0078125ZM-7.08397 0.080095V44.9129H67.7253V0.080095H-7.08397Z" fill="black"/>
<path fill-rule="evenodd" clip-rule="evenodd" d="M67.7722 36.8242H-7.125V44.9557H67.7722V36.8242Z" fill="#3E5698"/>
<path fill-rule="evenodd" clip-rule="evenodd" d="M67.7722 34.9423H-7.125V10.0469H67.7722V34.9423Z" fill="#C60000"/>
<path fill-rule="evenodd" clip-rule="evenodd" d="M67.7722 0.046875H-7.125V8.16953H67.7722V0.046875Z" fill="#3E5698"/>
<path fill-rule="evenodd" clip-rule="evenodd" d="M28.4298 22.498C28.4298 28.0802 23.7707 32.6074 18.004 32.6074C12.2372 32.6074 7.57812 28.0802 7.57812 22.498C7.57812 16.9159 12.2372 12.4062 18.004 12.4062C23.7619 12.4062 28.4298 16.9247 28.4298 22.5068V22.498Z" fill="white"/>
<path fill-rule="evenodd" clip-rule="evenodd" d="M15.0107 23.7801L10 20.2023L16.2414 20.1847L18.2369 14.3477L20.0918 20.1583L26.3332 20.1232L21.2434 23.745L23.1158 29.5557L18.1051 25.9778L13.0064 29.6084L15.0107 23.7801Z" fill="#C40000"/>
</g>
<defs>
<clipPath id="clip0_4046_22726">
<rect width="60" height="45" fill="white"/>
</clipPath>
</defs>
</svg>
