<svg width="60" height="45" viewBox="0 0 60 45" fill="none" xmlns="http://www.w3.org/2000/svg">
<g clip-path="url(#clip0_4046_22735)">
<rect width="60" height="45" fill="white"/>
<path fill-rule="evenodd" clip-rule="evenodd" d="M45.6328 39.2046L48.5901 34.8203L50.3438 36.0032L47.3865 40.3875L45.6328 39.2046Z" fill="black"/>
<path fill-rule="evenodd" clip-rule="evenodd" d="M49.0625 34.1187L52.0198 29.7344L53.7735 30.9173L50.8162 35.3016L49.0625 34.1187Z" fill="black"/>
<path fill-rule="evenodd" clip-rule="evenodd" d="M43.1797 37.5484L46.137 33.1641L47.8907 34.347L44.9334 38.7313L43.1797 37.5484Z" fill="black"/>
<path fill-rule="evenodd" clip-rule="evenodd" d="M46.6094 32.4625L49.5666 28.0781L51.3204 29.261L48.3631 33.6454L46.6094 32.4625Z" fill="black"/>
<path fill-rule="evenodd" clip-rule="evenodd" d="M40.7266 35.8921L43.6838 31.5078L45.4376 32.6907L42.4803 37.075L40.7266 35.8921Z" fill="black"/>
<path fill-rule="evenodd" clip-rule="evenodd" d="M44.1562 30.8062L47.1135 26.4219L48.8673 27.6048L45.91 31.9891L44.1562 30.8062Z" fill="black"/>
<path fill-rule="evenodd" clip-rule="evenodd" d="M7.75373 29.7344L14.1414 39.2045L12.3877 40.3874L6 30.9173L7.75373 29.7344Z" fill="black"/>
<path fill-rule="evenodd" clip-rule="evenodd" d="M13.6365 33.1641L16.5938 37.5484L14.8401 38.7313L11.8828 34.347L13.6365 33.1641Z" fill="black"/>
<path fill-rule="evenodd" clip-rule="evenodd" d="M10.2069 28.0781L13.1641 32.4625L11.4104 33.6454L8.45312 29.261L10.2069 28.0781Z" fill="black"/>
<path fill-rule="evenodd" clip-rule="evenodd" d="M12.6678 26.4219L19.0555 35.892L17.3018 37.0749L10.9141 27.6048L12.6678 26.4219Z" fill="black"/>
<path fill-rule="evenodd" clip-rule="evenodd" d="M30.087 33.1157C23.6661 33.1157 18.4609 27.9063 18.4609 21.4802C18.4609 19.4049 19.0038 17.4565 19.9552 15.7695C19.55 16.5804 19.3221 17.4954 19.3221 18.4636C19.3221 21.7957 22.0211 24.0659 25.3505 24.0659C26.7886 24.0659 27.9744 23.7773 29.0105 22.5052C29.0833 22.4082 29.1558 22.3127 29.2282 22.2189L29.4451 21.9426C29.5172 21.8521 29.5894 21.7634 29.6615 21.6764L29.8779 21.4207C31.2499 19.8351 32.6519 18.8946 34.6083 18.8946C37.8188 18.8946 40.8437 20.6374 40.4213 25.1432C40.2721 26.7354 39.7788 28.186 38.7384 29.2372L38.7529 29.2371C36.6241 31.6175 33.5304 33.1157 30.087 33.1157Z" fill="#0047A0"/>
<path fill-rule="evenodd" clip-rule="evenodd" d="M29.6864 10.2695C36.1073 10.2695 41.3125 15.4789 41.3125 21.905C41.3125 23.9803 40.7696 25.9287 39.8182 27.6157C40.2234 26.8048 40.4513 25.8898 40.4513 24.9216C40.4513 21.5895 37.7523 19.3193 34.423 19.3193C32.9848 19.3193 31.7991 19.6079 30.7629 20.88C29.0893 23.1124 27.5334 24.4906 25.1651 24.4906C21.9547 24.4906 18.9298 22.7478 19.3521 18.242C19.5013 16.6498 19.9946 15.1992 21.0351 14.1479L21.0206 14.1481C23.1494 11.7676 26.2431 10.2695 29.6864 10.2695Z" fill="#CD2E3A"/>
<path fill-rule="evenodd" clip-rule="evenodd" d="M45.91 11.3984L48.8673 15.7828L47.1135 16.9657L44.1562 12.5813L45.91 11.3984Z" fill="black"/>
<path fill-rule="evenodd" clip-rule="evenodd" d="M42.4803 6.3125L45.4376 10.6968L43.6838 11.8797L40.7266 7.49541L42.4803 6.3125Z" fill="black"/>
<path fill-rule="evenodd" clip-rule="evenodd" d="M44.9334 4.65625L51.3211 14.1264L49.5674 15.3093L43.1797 5.83916L44.9334 4.65625Z" fill="black"/>
<path fill-rule="evenodd" clip-rule="evenodd" d="M50.8162 8.08594L53.7735 12.4703L52.0198 13.6532L49.0625 9.26884L50.8162 8.08594Z" fill="black"/>
<path fill-rule="evenodd" clip-rule="evenodd" d="M47.3865 3L50.3438 7.38433L48.5901 8.56723L45.6328 4.18291L47.3865 3Z" fill="black"/>
<path fill-rule="evenodd" clip-rule="evenodd" d="M10.9141 15.7826L17.3018 6.3125L19.0555 7.49541L12.6678 16.9656L10.9141 15.7826Z" fill="black"/>
<path fill-rule="evenodd" clip-rule="evenodd" d="M8.45312 14.1264L14.8408 4.65625L16.5946 5.83916L10.2069 15.3093L8.45312 14.1264Z" fill="black"/>
<path fill-rule="evenodd" clip-rule="evenodd" d="M6 12.4701L12.3877 3L14.1414 4.18291L7.75373 13.6531L6 12.4701Z" fill="black"/>
</g>
<defs>
<clipPath id="clip0_4046_22735">
<rect width="60" height="45" fill="white"/>
</clipPath>
</defs>
</svg>
