<svg width="60" height="45" viewBox="0 0 60 45" fill="none" xmlns="http://www.w3.org/2000/svg">
<g clip-path="url(#clip0_4046_22872)">
<path fill-rule="evenodd" clip-rule="evenodd" d="M0 0H60V45H0V0Z" fill="#00ABC2"/>
<path fill-rule="evenodd" clip-rule="evenodd" d="M5.63906 43.7783C5.94844 44.0783 5.84531 44.5752 6.69844 44.5096C7.99219 44.5096 8.02969 43.7221 8.02969 43.1689C8.02969 42.6158 6.08906 41.8471 5.99531 41.0314C5.90156 40.2158 6.44531 40.0002 6.89531 40.0002C7.33594 40.0002 7.64531 40.2533 7.64531 40.4783C7.64531 40.7033 7.43906 40.7783 7.12031 40.7783C6.80156 40.7783 7.26094 40.6189 6.98906 40.4971C6.71719 40.3752 6.53906 40.6846 6.53906 40.8721C6.53906 41.0783 7.21406 41.1346 7.66406 40.9939C7.75781 41.4346 7.79531 41.4627 7.16719 42.2127C7.61719 41.9221 7.65469 41.8564 8.15156 42.0252C7.65469 41.5939 8.02969 40.7314 8.03906 40.5158C8.04844 40.3002 7.94531 40.0377 7.75781 39.9064C7.39219 39.5783 6.61406 39.5596 6.14531 39.7752C5.46094 40.0752 5.42344 40.9752 5.60156 41.2752L7.49531 43.1877C7.62656 43.4127 7.68281 44.0502 6.87656 44.0783C6.03281 44.1439 5.73281 42.9908 5.58281 42.6064C5.38594 43.0283 5.16094 44.1814 4.30781 44.1158C3.50156 44.0877 3.35156 43.4596 3.48281 43.2252L5.42344 41.2564C5.61094 40.9564 5.57344 40.0564 4.88906 39.7564C4.42031 39.5408 3.64219 39.5689 3.28594 39.8877C3.07969 40.0189 2.96719 40.2721 2.98594 40.4971C3.00469 40.7221 3.37031 41.5752 2.88281 41.9971C3.37031 41.8377 3.41719 41.9033 3.86719 42.1846C3.23906 41.4439 3.28594 41.4158 3.37031 40.9658C3.82031 41.1158 4.49531 41.0596 4.49531 40.8627C4.49531 40.6658 4.30781 40.3377 4.03594 40.4689C3.77344 40.6002 4.22344 40.7596 3.90469 40.7596C3.59531 40.7596 3.37031 40.6939 3.37031 40.4783C3.37031 40.2627 3.67969 39.9814 4.12969 39.9814C4.57969 39.9814 5.11406 40.2064 5.02031 41.0221C4.92656 41.8377 2.95781 42.7189 2.95781 43.2721C2.95781 43.8346 3.08906 44.5002 4.38281 44.5002C5.22656 44.5658 5.32969 44.0689 5.63906 43.7689V43.7783Z" fill="#FFEC2D"/>
<path fill-rule="evenodd" clip-rule="evenodd" d="M5.5375 32.1823C5.84687 31.8823 6.1 31.001 6.94375 31.0573C8.2375 31.0573 8.725 31.7791 8.725 32.3323C8.725 32.8854 6.1 37.3948 6.00625 38.2104C5.9125 39.026 6.45625 39.251 6.89687 39.251C7.34687 39.251 7.65625 38.9979 7.65625 38.7635C7.65625 38.5291 7.43125 38.4823 7.12187 38.4823C6.8125 38.4823 7.25312 38.6416 6.99062 38.7635C6.72812 38.8854 6.54063 38.576 6.54063 38.3791C6.54063 38.1823 7.21563 38.1166 7.66563 38.2666C7.75 37.826 7.7875 37.7979 7.16875 37.0479C7.61875 37.3291 7.65625 37.4041 8.15312 37.2354C7.65625 37.6666 8.02188 38.5198 8.04063 38.7354C8.05938 38.951 7.94687 39.2229 7.75 39.3541C7.39375 39.6823 6.60625 39.6916 6.1375 39.4854C5.4625 39.176 5.425 38.2854 5.60312 37.9854L8.15312 32.4916C8.29375 32.2666 7.9375 31.5166 7.13125 31.4885C6.2875 31.4229 5.99688 32.3135 5.84688 32.6979L7 32.6041C7 32.6041 7.04687 32.7916 7 32.9041C6.61311 32.9324 6.22812 32.9825 5.84688 33.0541L5.8 33.6354H6.3625L6.325 33.8979C6.325 33.8979 5.84688 33.8604 5.8 33.8979C5.75313 33.926 5.70625 34.4791 5.70625 34.4791C5.70625 34.4791 5.6125 34.5166 5.51875 34.5166C5.425 34.5166 5.33125 34.4791 5.33125 34.4791C5.33125 34.4791 5.29375 33.926 5.24687 33.8979C5.2 33.8604 4.72188 33.8979 4.72188 33.8979L4.675 33.6354H5.24687L5.2 33.0541C5.2 33.0541 4.6375 32.9416 4.04688 32.9041C4.00937 32.7916 4.04688 32.6135 4.04688 32.6135L5.2 32.6979C5.05 32.3135 4.75937 31.4229 3.91562 31.4791C3.10937 31.5166 2.75312 32.2666 2.88437 32.4916L5.43437 37.9854C5.6125 38.276 5.575 39.176 4.9 39.4854C4.43125 39.6916 3.64375 39.6729 3.2875 39.3541C3.09062 39.2229 2.97812 38.9604 2.99687 38.7448C3.01562 38.5291 3.37187 37.6573 2.88437 37.2448C3.38125 37.4041 3.42812 37.3385 3.86875 37.0479C3.25 37.7979 3.2875 37.826 3.38125 38.2666C3.82187 38.1166 4.49687 38.1729 4.49687 38.3791C4.49687 38.5666 4.30937 38.8948 4.04688 38.7635C3.78438 38.6323 4.23437 38.4823 3.91562 38.4823C3.60625 38.4823 3.38125 38.5385 3.38125 38.7635C3.38125 38.9885 3.69062 39.251 4.13125 39.251C4.57187 39.251 5.11562 39.026 5.03125 38.2198C4.9375 37.4041 2.3125 32.876 2.3125 32.3323C2.3125 31.7698 2.8 31.0666 4.09375 31.0666C4.9375 31.001 5.24687 31.8823 5.54688 32.1823H5.5375Z" fill="#FFEC2D"/>
<path fill-rule="evenodd" clip-rule="evenodd" d="M5.5375 29.9423C5.84687 30.2423 6.1 31.1236 6.94375 31.0673C8.2375 31.0673 8.725 30.3455 8.725 29.7923C8.725 29.2392 6.1 24.7298 6.00625 23.9142C5.9125 23.0986 6.45625 22.8736 6.89687 22.8736C7.34687 22.8736 7.65625 23.1267 7.65625 23.3611C7.65625 23.5955 7.43125 23.6423 7.12187 23.6423C6.8125 23.6423 7.25312 23.4923 6.99062 23.3611C6.72812 23.2298 6.54063 23.5486 6.54063 23.7455C6.54063 23.9423 7.21563 24.008 7.66563 23.858C7.75 24.2986 7.7875 24.3267 7.16875 25.0767C7.61875 24.7955 7.65625 24.7205 8.15312 24.8892C7.65625 24.458 8.02188 23.6048 8.04063 23.3892C8.05938 23.1736 7.94687 22.9017 7.75 22.7705C7.39375 22.4517 6.60625 22.433 6.1375 22.6392C5.4625 22.9486 5.425 23.8392 5.60312 24.1392L8.15312 29.6236C8.29375 29.8486 7.9375 30.5986 7.13125 30.6267C6.2875 30.6923 5.99688 29.8017 5.84688 29.4173L7 29.5111C7 29.5111 7.04687 29.3236 7 29.2111C6.61311 29.1828 6.22812 29.1327 5.84688 29.0611L5.8 28.4798H6.3625L6.325 28.2173C6.325 28.2173 5.84688 28.2548 5.8 28.2173C5.75313 28.1892 5.70625 27.6361 5.70625 27.6361C5.70625 27.6361 5.6125 27.5986 5.51875 27.5986C5.425 27.5986 5.33125 27.6361 5.33125 27.6361C5.33125 27.6361 5.29375 28.1892 5.24687 28.2173C5.2 28.2548 4.72188 28.2173 4.72188 28.2173L4.675 28.4798H5.24687L5.2 29.0611C5.2 29.0611 4.6375 29.1736 4.04688 29.2111C4.00937 29.3236 4.04688 29.5017 4.04688 29.5017L5.2 29.4173C5.05 29.8017 4.75937 30.6923 3.91562 30.6361C3.10937 30.5986 2.75312 29.8486 2.88437 29.6236L5.43437 24.1392C5.6125 23.8392 5.575 22.9486 4.9 22.6392C4.43125 22.433 3.64375 22.4517 3.2875 22.7705C3.09062 22.9017 2.97812 23.1642 2.99687 23.3798C3.01562 23.5955 3.37187 24.458 2.88437 24.8798C3.38125 24.7205 3.42812 24.7861 3.86875 25.0767C3.25 24.3267 3.2875 24.2986 3.38125 23.858C3.82187 24.008 4.49687 23.9517 4.49687 23.7455C4.49687 23.558 4.30937 23.2298 4.04688 23.3611C3.78438 23.4923 4.23437 23.6423 3.91562 23.6423C3.60625 23.6423 3.38125 23.5861 3.38125 23.3611C3.38125 23.1361 3.69062 22.8736 4.13125 22.8736C4.57187 22.8736 5.11562 23.0986 5.03125 23.9048C4.9375 24.7205 2.3125 29.2486 2.3125 29.7923C2.3125 30.3548 2.8 31.058 4.09375 31.058C4.9375 31.1236 5.24687 30.2423 5.54688 29.9423H5.5375Z" fill="#FFEC2D"/>
<path fill-rule="evenodd" clip-rule="evenodd" d="M5.5375 15.0534C5.84687 14.7534 6.1 13.8721 6.94375 13.9284C8.2375 13.9284 8.725 14.6502 8.725 15.2034C8.725 15.7565 6.1 20.2659 6.00625 21.0909C5.9125 21.8971 6.45625 22.1221 6.89687 22.1221C7.34687 22.1221 7.65625 21.869 7.65625 21.644C7.65625 21.419 7.43125 21.344 7.12187 21.344C6.8125 21.344 7.25312 21.5127 6.99062 21.644C6.72812 21.7752 6.54063 21.4471 6.54063 21.2502C6.54063 21.0627 7.21563 20.9877 7.66563 21.1377C7.75 20.6971 7.7875 20.669 7.16875 19.919C7.61875 20.2096 7.65625 20.2752 8.15312 20.1065C7.65625 20.5377 8.02188 21.4002 8.04063 21.6065C8.05938 21.8127 7.94687 22.094 7.75 22.2252C7.39375 22.5534 6.60625 22.5627 6.1375 22.3565C5.4625 22.0471 5.425 21.1565 5.60312 20.8565L8.15312 15.3721C8.29375 15.1471 7.9375 14.3971 7.13125 14.369C6.2875 14.3034 5.99688 15.194 5.84688 15.5784L7 15.4846C7 15.4846 7.04687 15.6721 7 15.7846C6.4 15.8221 5.84688 15.9346 5.84688 15.9346L5.8 16.5159H6.3625L6.325 16.7784C6.325 16.7784 5.84688 16.7502 5.8 16.7784C5.75313 16.8065 5.70625 17.369 5.70625 17.369C5.70625 17.369 5.6125 17.3971 5.51875 17.3971C5.425 17.3971 5.33125 17.369 5.33125 17.369C5.33125 17.369 5.29375 16.8065 5.24687 16.7784C5.2 16.7502 4.72188 16.7784 4.72188 16.7784L4.675 16.5159H5.24687L5.2 15.9346C5.2 15.9346 4.6375 15.8221 4.04688 15.7846C4.00937 15.6721 4.04688 15.494 4.04688 15.494L5.2 15.5784C5.05 15.194 4.75937 14.3034 3.91562 14.3596C3.10937 14.3971 2.75312 15.1471 2.88437 15.3721L5.43437 20.8565C5.6125 21.1565 5.575 22.0471 4.9 22.3565C4.43125 22.5627 3.64375 22.544 3.2875 22.2252C3.09062 22.094 2.97812 21.8315 2.99687 21.6159C3.01562 21.4002 3.37187 20.5377 2.88437 20.1159C3.38125 20.2752 3.42812 20.2096 3.86875 19.919C3.25 20.669 3.2875 20.6971 3.38125 21.1377C3.82187 20.9877 4.49687 21.0534 4.49687 21.2502C4.49687 21.4377 4.30937 21.7659 4.04688 21.6346C3.78438 21.5127 4.23437 21.3534 3.91562 21.3534C3.60625 21.3534 3.38125 21.4096 3.38125 21.6346C3.38125 21.8596 3.69062 22.1221 4.13125 22.1221C4.57187 22.1221 5.11562 21.8971 5.03125 21.0909C4.9375 20.2752 2.3125 15.7565 2.3125 15.2034C2.3125 14.6502 2.8 13.9377 4.09375 13.9377C4.9375 13.8721 5.24687 14.7534 5.54688 15.0627L5.5375 15.0534Z" fill="#FFEC2D"/>
<path fill-rule="evenodd" clip-rule="evenodd" d="M5.5375 12.8134C5.84687 13.1134 6.1 14.004 6.94375 13.9384C8.2375 13.9384 8.725 13.2165 8.725 12.6634C8.725 12.1103 6.1 7.60092 6.00625 6.7853C5.9125 5.96967 6.45625 5.74467 6.89687 5.74467C7.34687 5.74467 7.65625 6.00717 7.65625 6.23217C7.65625 6.45717 7.43125 6.5228 7.12187 6.5228C6.8125 6.5228 7.25312 6.36342 6.99062 6.23217C6.72812 6.10092 6.54063 6.41967 6.54063 6.61655C6.54063 6.81342 7.21563 6.87905 7.66563 6.72905C7.75 7.16967 7.7875 7.1978 7.16875 7.9478C7.61875 7.66655 7.65625 7.59155 8.15312 7.7603C7.65625 7.33842 8.02188 6.47592 8.04063 6.2603C8.05938 6.04467 7.94687 5.7728 7.75 5.64155C7.39375 5.3228 6.60625 5.30405 6.1375 5.51967C5.4625 5.81967 5.425 6.71967 5.60312 7.0103L8.15312 12.504C8.29375 12.729 7.9375 13.479 7.13125 13.5165C6.2875 13.5728 5.99688 12.6915 5.84688 12.2978L7 12.3915C7 12.3915 7.04687 12.204 7 12.0915C6.61332 12.0661 6.22835 12.0191 5.84688 11.9509L5.8 11.3603H6.3625L6.325 11.0978C6.325 11.0978 5.84688 11.1353 5.8 11.0978C5.75313 11.0697 5.70625 10.5165 5.70625 10.5165C5.70625 10.5165 5.6125 10.479 5.51875 10.479C5.425 10.479 5.33125 10.5165 5.33125 10.5165C5.33125 10.5165 5.29375 11.0697 5.24687 11.0978C5.2 11.1353 4.72188 11.0978 4.72188 11.0978L4.675 11.3603H5.24687L5.2 11.9509C5.2 11.9509 4.6375 12.054 4.04688 12.0915C4.00937 12.2134 4.04688 12.3915 4.04688 12.3915L5.2 12.2978C5.05 12.6915 4.75937 13.5728 3.91562 13.5165C3.10937 13.479 2.75312 12.729 2.88437 12.504L5.43437 7.0103C5.6125 6.71967 5.575 5.81967 4.9 5.5103C4.43125 5.30405 3.64375 5.3228 3.2875 5.64155C3.09062 5.7728 2.97812 6.0353 2.99687 6.25092C3.01562 6.46655 3.37187 7.33842 2.88437 7.75092C3.38125 7.59155 3.42812 7.65717 3.86875 7.9478C3.25 7.1978 3.2875 7.16967 3.38125 6.72905C3.83125 6.87905 4.49687 6.8228 4.49687 6.61655C4.49687 6.42905 4.30937 6.10092 4.04688 6.23217C3.78438 6.36342 4.23437 6.5228 3.91562 6.5228C3.60625 6.5228 3.38125 6.45717 3.38125 6.23217C3.38125 6.00717 3.69062 5.74467 4.13125 5.74467C4.57187 5.74467 5.125 5.96967 5.03125 6.77592C4.9375 7.59155 2.3125 12.1197 2.3125 12.6634C2.3125 13.2259 2.8 13.9384 4.09375 13.9384C4.9375 14.004 5.24687 13.1134 5.54688 12.8134H5.5375Z" fill="#FFEC2D"/>
<path fill-rule="evenodd" clip-rule="evenodd" d="M5.63906 1.21762C5.94844 0.917621 5.84531 0.420746 6.69844 0.486371C7.99219 0.486371 8.02969 1.27387 8.02969 1.827C8.02969 2.38012 6.08906 3.14887 5.99531 3.9645C5.90156 4.78012 6.44531 4.99575 6.89531 4.99575C7.33594 4.99575 7.64531 4.74262 7.64531 4.51762C7.64531 4.29262 7.43906 4.21762 7.12031 4.21762C6.80156 4.21762 7.26094 4.377 6.98906 4.49887C6.71719 4.62075 6.53906 4.31137 6.53906 4.12387C6.53906 3.91762 7.21406 3.852 7.66406 4.002C7.75781 3.56137 7.79531 3.53325 7.16719 2.78325C7.61719 3.07387 7.65469 3.1395 8.15156 2.97075C7.65469 3.402 8.02969 4.2645 8.03906 4.48012C8.04844 4.69575 7.94531 4.95825 7.75781 5.0895C7.38281 5.43637 6.60469 5.43637 6.13594 5.23012C5.45156 4.93012 5.41406 4.03012 5.59219 3.73012L7.49531 1.80825C7.62656 1.58325 7.68281 0.945746 6.87656 0.917621C6.03281 0.851996 5.73281 2.00512 5.58281 2.3895C5.38594 1.96762 5.16094 0.805121 4.30781 0.870746C3.50156 0.898871 3.35156 1.527 3.48281 1.76137L5.42344 3.73012C5.61094 4.03012 5.57344 4.93012 4.88906 5.23012C4.42031 5.44575 3.64219 5.427 3.28594 5.09887C3.07969 4.96762 2.96719 4.7145 2.98594 4.4895C3.00469 4.2645 3.37031 3.41137 2.88281 2.9895C3.37031 3.14887 3.41719 3.08325 3.85781 2.802C3.23906 3.54262 3.28594 3.57075 3.37031 4.02075C3.82031 3.87075 4.49531 3.927 4.49531 4.12387C4.49531 4.32075 4.30781 4.64887 4.03594 4.51762C3.77344 4.38637 4.22344 4.227 3.90469 4.227C3.59531 4.227 3.37031 4.29262 3.37031 4.50825C3.37031 4.72387 3.67969 5.00512 4.12969 5.00512C4.57969 5.00512 5.11406 4.78012 5.02031 3.9645C4.92656 3.14887 2.95781 2.26762 2.95781 1.7145C2.95781 1.152 3.08906 0.486371 4.38281 0.486371C5.22656 0.420746 5.32969 0.917621 5.63906 1.21762V1.21762Z" fill="#FFEC2D"/>
<path d="M41.3895 19.3042C41.3895 14.8473 37.5772 11.2344 32.8744 11.2344C28.1717 11.2344 24.3594 14.8473 24.3594 19.3042C24.3594 23.761 28.1717 27.374 32.8744 27.374C37.5772 27.374 41.3895 23.761 41.3895 19.3042Z" fill="#FFEC2D"/>
<path fill-rule="evenodd" clip-rule="evenodd" d="M32.4736 6.42016C32.3935 6.42016 32.0133 9.10175 31.8732 9.70211C31.7331 11.0529 33.6743 11.0029 33.3541 9.65208L32.4736 6.41016V6.42016ZM33.154 32.4156C33.224 32.4156 33.8044 29.764 33.9945 29.1737C34.2246 27.8429 32.2835 27.7728 32.4936 29.1336L33.154 32.4156V32.4156ZM19.5859 19.2478C19.5859 19.3178 22.3776 19.8781 22.998 20.0583C24.3988 20.2884 24.4989 18.4573 23.058 18.6574L19.5859 19.2578V19.2478ZM46.7721 19.568C46.7721 19.4979 43.9504 19.0376 43.32 18.8776C41.9092 18.7075 41.8992 20.5385 43.32 20.2884L46.7721 19.568ZM22.4476 10.7427C22.3976 10.7928 24.2387 12.874 24.6089 13.3843C25.5695 14.3849 26.8402 12.9841 25.5695 12.3037L22.4476 10.7527V10.7427ZM43.5702 27.8529C43.6202 27.8028 41.599 25.8817 41.1787 25.4114C40.1281 24.4909 38.9975 25.9818 40.3182 26.5621L43.5702 27.8629V27.8529ZM26.6601 7.84101C26.6001 7.87102 27.4606 10.4526 27.6007 11.0629C28.081 12.3337 29.822 11.5032 28.9215 10.4125L26.6701 7.84101H26.6601ZM38.9774 31.0948C39.0475 31.0648 38.3771 28.4332 38.287 27.8229C37.8968 26.5221 36.1057 27.2225 36.9162 28.3832L38.9874 31.0848L38.9774 31.0948ZM42.0092 9.64207C41.9492 9.59204 39.7279 11.3031 39.1876 11.6433C38.1169 12.5438 39.5678 13.7645 40.3082 12.5738L42.0092 9.64207ZM23.6984 29.0236C23.7484 29.0736 26.0998 27.5227 26.6601 27.2125C27.7908 26.392 26.44 25.0712 25.6095 26.2119L23.7084 29.0236H23.6984ZM20.1963 14.605C20.1663 14.6651 22.5977 16.0759 23.128 16.4461C24.3788 17.0965 25.1092 15.3955 23.6784 15.1253L20.1963 14.605V14.605ZM45.5814 24.4509C45.6114 24.3908 43.28 22.8199 42.7797 22.4197C41.579 21.6792 40.7285 23.3302 42.1393 23.6904L45.5814 24.4509V24.4509ZM37.5166 7.1506C37.4465 7.13058 36.0557 9.49198 35.6855 10.0023C35.6862 10.1652 35.7379 10.3239 35.8333 10.456C35.9287 10.5881 36.0631 10.687 36.2176 10.7389C36.372 10.7908 36.5389 10.793 36.6947 10.7452C36.8505 10.6974 36.9874 10.6021 37.0863 10.4726L37.5166 7.1506ZM28.121 31.5951C28.191 31.6251 29.752 29.3538 30.1522 28.8635C30.8826 27.7028 29.1116 26.9624 28.7814 28.3031L28.121 31.5951V31.5951ZM20.3664 24.661C20.3964 24.721 23.1681 24.0606 23.8184 23.9606C25.1793 23.5803 24.4188 21.8993 23.2181 22.6798L20.3664 24.661ZM45.5914 14.3849C45.5714 14.3249 42.7597 14.7951 42.1093 14.8552C40.7085 15.1453 41.3589 16.8764 42.6096 16.1759L45.5914 14.3849V14.3849Z" fill="#FFEC2D"/>
<path fill-rule="evenodd" clip-rule="evenodd" d="M35.2369 6.59204C35.1668 6.58203 34.2263 9.13355 33.9461 9.69388C33.5359 10.9946 35.447 11.3148 35.417 9.93402L35.2469 6.58203L35.2369 6.59204ZM30.384 32.1972C30.454 32.2172 31.5847 29.7258 31.9049 29.1754C32.4052 27.9147 30.5241 27.4744 30.454 28.8452L30.374 32.1972H30.384ZM29.4134 6.84219C29.3434 6.8622 29.6035 9.5638 29.6035 10.1842C29.7936 11.515 31.6648 11.0547 31.0444 9.81395L29.4134 6.84219V6.84219ZM36.2175 32.0471C36.2875 32.0371 36.2175 29.3255 36.2675 28.7052C36.1774 27.3544 34.2663 27.6946 34.8066 28.9753L36.2074 32.0471H36.2175ZM24.5906 9.08352C24.5305 9.12354 25.8613 11.515 26.1115 12.0853C26.8319 13.256 28.3828 12.1553 27.2922 11.2248L24.5906 9.08352ZM41.0803 29.8859C41.1404 29.8458 39.9797 27.3644 39.7796 26.784C39.1492 25.5733 37.5282 26.5739 38.5388 27.5645L41.0803 29.8859ZM21.0685 12.4455C21.0284 12.5055 23.1797 14.2866 23.63 14.7469C24.7406 15.5874 25.7713 14.0264 24.4104 13.5362L21.0685 12.4455ZM44.5024 26.4238C44.5424 26.3638 42.5312 24.4426 42.111 23.9623C41.0703 23.0518 39.9297 24.5427 41.2504 25.123L44.5024 26.4238ZM19.5276 16.638C19.5075 16.708 22.1591 17.7186 22.7395 18.0088C24.0803 18.4591 24.5105 16.668 23.0496 16.628L19.5276 16.638V16.638ZM46.2834 22.4214C46.3134 22.3614 43.7419 21.1807 43.1816 20.8505C41.8808 20.3102 41.3105 22.0712 42.7613 22.2113L46.2834 22.4214ZM19.4375 21.7911C19.4475 21.8511 22.3092 21.8111 22.9596 21.8611C24.3804 21.7911 24.0402 19.98 22.6794 20.4703L19.4375 21.7911ZM46.4735 17.2884C46.4735 17.2183 43.6118 17.0683 42.9715 16.9782C41.5406 16.9582 41.7507 18.7893 43.1416 18.379L46.4735 17.2784V17.2884ZM21.889 27.1342C21.929 27.1943 24.4905 25.9735 25.0909 25.7434C26.3316 25.093 25.1909 23.6021 24.2003 24.6127L21.889 27.1342ZM44.1322 11.8952C44.0921 11.8351 41.4606 12.8858 40.8302 13.0759C39.5394 13.6462 40.57 15.2071 41.6307 14.2666L44.1322 11.8952V11.8952ZM26.0514 30.6763C26.1115 30.7063 27.9425 28.6251 28.4028 28.1848C29.2733 27.1142 27.6023 26.1837 27.1121 27.4844L26.0514 30.6763ZM40.0297 8.28304C39.9797 8.24302 37.9985 10.1942 37.5082 10.6044C36.5677 11.615 38.1686 12.6556 38.749 11.3949L40.0197 8.28304H40.0297Z" fill="#FFEC2D"/>
<path fill-rule="evenodd" clip-rule="evenodd" d="M19.856 24.6715C20.0089 25.1876 20.0307 28.0773 23.1097 30.8639C26.1669 33.6298 31.4078 34.2491 31.4078 34.2491C31.4078 34.2491 31.4296 34.6413 31.0584 34.6619C30.6872 34.7032 28.8965 34.3523 28.0012 34.0839C27.1277 33.8363 26.3416 33.3821 26.2543 33.4028C26.1451 33.4441 25.9704 33.733 25.7083 33.6918C25.4463 33.6505 24.1797 32.412 23.612 32.0817C22.4764 31.1539 21.471 30.0926 20.6203 28.9236C20.0089 27.9948 19.856 27.3755 19.6595 27.3755C19.463 27.3755 18.7423 27.8297 18.7423 27.8297C18.7423 27.8297 18.0872 26.9008 17.5195 25.4146C16.9299 23.9285 16.9954 23.0615 17.1264 22.9996C17.2793 22.9377 17.2793 24.0936 17.716 25.1463C18.1527 26.2196 18.7642 26.5499 18.7642 26.5499C18.7642 26.5499 18.3711 25.9926 18.0654 24.6096C17.7597 23.2267 17.6287 21.885 17.847 21.4721C18.0654 21.0593 18.2619 20.9355 18.2838 20.9561C18.3274 20.9974 17.9125 21.596 18.1964 23.1854C18.4803 24.7747 19.2446 26.1164 19.4193 26.0545C19.594 25.9926 19.3101 25.6623 19.2009 24.7335C19.0917 23.8046 19.3101 23.2267 19.5503 23.1441C19.6595 23.0615 19.8342 24.1761 19.856 24.6715V24.6715ZM17.716 27.3136C17.1264 26.7976 16.2093 25.0018 16.0127 25.0844C15.7944 25.1876 17.4976 27.7677 17.5413 27.9741C17.585 28.2218 17.9562 28.9236 17.6723 28.8204C17.3885 28.7172 15.3576 26.6944 15.5978 27.0866C15.838 27.4788 17.3666 29.2539 17.2793 29.3571C17.1919 29.4603 16.0127 28.3663 15.969 28.5108C15.9472 28.6347 17.1264 29.708 17.1046 29.8319C17.0827 29.9557 16.3403 29.1507 16.3403 29.3158C16.3403 29.4809 17.1046 30.286 17.1046 30.4098C17.1046 30.5337 16.4495 29.8319 16.6678 30.2034C16.8644 30.6162 17.4321 30.9671 17.4103 31.091C17.3884 31.2148 16.9299 30.9258 16.9299 30.9878C16.9299 31.0497 17.7815 31.3387 17.978 31.5657C18.1964 31.7928 19.594 33.3202 20.6422 34.0839C21.6903 34.8477 24.7038 36.1894 24.9222 36.1894C25.1187 36.1894 25.4244 35.7765 25.3589 35.6114C25.2934 35.4463 22.3454 34.4968 21.5375 33.795C20.7077 33.0932 18.6987 31.4006 18.524 31.318C18.3711 31.2148 17.9125 31.2561 17.9125 31.1529C17.9125 31.0497 18.5021 31.2148 18.4585 31.1529C18.4366 31.091 17.6505 30.7607 17.6723 30.6988C17.716 30.6369 18.2183 30.8226 18.2183 30.7607C18.2183 30.6988 17.3011 30.224 17.3448 30.1208C17.3666 30.0176 18.0217 30.4098 18.0217 30.3272C18.0217 30.286 17.1482 29.708 17.1701 29.6048C17.1919 29.5016 17.847 30.0589 17.8252 29.9351C17.8033 29.8112 17.3011 29.1094 17.3011 29.0268C17.3011 28.9236 18.0872 29.7286 18.1746 29.5635C18.2183 29.419 17.8907 28.0773 17.9125 28.0567C17.9344 28.0361 18.5021 28.3457 18.5895 28.1599C18.6987 27.9535 18.1964 27.6852 17.716 27.3136V27.3136ZM27.7828 37.4691C27.3679 37.531 27.1714 37.3865 27.4116 37.0563C27.7392 37.0563 28.6126 36.788 28.9184 36.6641C29.2241 36.5403 29.5516 36.3751 29.8137 36.1481C30.0757 35.8797 30.2504 36.2926 30.0976 36.5196C29.9884 36.6641 29.4861 36.9324 29.1149 37.0769C28.569 37.2421 28.0886 37.4898 27.7828 37.4691ZM30.5125 36.4164C30.2286 36.1274 30.4688 35.921 30.8837 35.694C31.4951 35.3843 31.3204 34.9509 32.1066 34.6C32.456 34.3936 37.3474 32.5359 38.9415 31.5451C40.5356 30.5543 45.0122 27.3549 46.2132 25.1463C47.3924 22.9583 46.8247 22.7932 46.9994 22.7106C47.1522 22.6074 47.3269 23.0202 47.3051 23.5156C47.2614 23.9904 46.8683 25.4353 46.9994 25.5798C47.1304 25.7242 48.79 24.4445 49.4888 22.8964C50.1876 21.3483 50.7116 19.7383 51.0392 19.7383C51.3886 19.7383 50.4714 22.3804 49.8818 23.4124C49.3141 24.4445 48.6371 24.9605 48.79 25.1876C48.9647 25.394 50.668 24.0523 51.2576 23.0615C51.8253 22.0501 52.3713 21.1625 52.4804 21.3483C52.3067 22.5574 51.8024 23.7029 51.0174 24.6715C50.1002 25.6623 49.0084 26.3848 49.1831 26.5293C49.3359 26.6944 50.5806 26.8595 51.869 26.0339C53.1792 25.1876 53.3102 23.9697 53.4631 24.0317C53.6378 24.0936 53.3102 25.7655 52.0655 26.7976C50.8208 27.8297 49.1831 27.9329 49.2267 28.1599C49.3141 28.3663 52.7862 27.2104 52.7206 27.4787C52.6551 27.7264 48.2222 29.3777 48.1786 29.5429C48.1786 29.6667 48.9429 29.708 50.1439 29.4397C51.3231 29.192 52.4586 28.3044 52.6115 28.5108C52.6551 28.7998 51.7598 29.5016 50.4059 29.8319C49.0302 30.1621 48.3533 30.5956 48.3096 30.6988C48.2877 30.802 50.7553 30.4098 50.7553 30.5337C50.7553 30.6575 47.5235 31.2561 47.5016 31.4212C47.4579 31.5657 50.5588 30.8226 50.5151 31.0084C50.4278 31.1529 46.3006 32.3088 46.3443 32.3707C46.3661 32.4533 49.7945 31.6689 49.729 31.7928C49.6416 31.9373 43.964 33.4441 43.9203 33.5473C43.8767 33.6298 48.9429 32.4739 48.8992 32.5771C48.8555 32.6803 46.2787 33.2789 46.2787 33.3409C46.2787 33.4028 48.3533 33.0312 48.3096 33.1345C48.2877 33.217 43.0687 34.4761 42.9595 34.6619C42.8503 34.8683 45.6673 34.1459 45.6236 34.5174C45.58 34.889 39.5748 36.788 39.553 36.437C39.5093 36.0861 43.1997 35.1986 43.1779 35.0954C43.1342 34.9922 41.0597 35.3018 41.016 35.116C40.9942 34.9096 42.3918 34.4968 42.2826 34.4142C42.1734 34.311 41.1252 34.7032 41.2126 34.4761C41.3218 34.2491 43.3089 33.3821 43.2652 33.3202C43.2434 33.2583 42.5446 33.5266 42.6101 33.3202C42.6975 33.0932 46.912 31.9373 46.8465 31.7928C46.781 31.6689 44.903 32.0817 44.7283 32.123C44.6628 31.9992 47.3488 31.0497 47.3051 30.8846C47.2177 30.7401 45.8638 31.4419 45.7765 31.2561C45.7328 31.0497 48.1567 30.1621 48.0039 30.0176C47.851 29.8731 46.7592 30.3892 46.6063 30.2447C46.4534 30.1002 48.8992 28.5108 48.5279 28.4695C48.1567 28.4489 47.6981 28.9649 47.6545 28.6347C47.6981 28.2218 49.5543 27.5407 49.1394 27.2104C48.4843 27.0246 46.2787 27.3549 45.3616 27.8709C44.4444 28.387 41.3873 31.2561 40.6448 31.7102C39.9023 32.1437 37.3693 33.1551 36.8889 33.3615C36.1464 33.6092 36.0154 33.9807 35.2511 34.3523C33.8754 34.7032 33.8972 35.0954 33.2421 35.3224C33.0019 35.3843 30.5343 36.499 30.5125 36.4164V36.4164ZM27.0622 37.8613C26.6473 38.0677 26.2761 38.5631 26.5163 38.7695C26.6473 39.0172 27.0622 38.2122 27.3898 38.2535L29.1367 38.336C30.0757 38.398 30.5343 38.1503 31.0584 38.1916C31.5825 38.2328 32.7398 37.9232 33.2858 37.9232C33.8317 37.9232 33.9409 37.9851 33.9845 37.7581C34.05 37.5517 32.2813 37.6962 31.4951 37.6755C30.709 37.6342 29.7263 37.82 29.1367 37.82C28.5908 37.7994 27.6518 37.6342 27.0622 37.8613V37.8613Z" fill="#FFEC2D"/>
<path d="M29.68 37.6143C29.68 37.4433 29.5137 37.3047 29.3087 37.3047C29.1037 37.3047 28.9375 37.4433 28.9375 37.6143C28.9375 37.7853 29.1037 37.9239 29.3087 37.9239C29.5137 37.9239 29.68 37.7853 29.68 37.6143Z" fill="#FFEC2D"/>
<path fill-rule="evenodd" clip-rule="evenodd" d="M38.3945 37.0155C38.7658 36.9535 39.7703 37.2838 40.469 37.4283C41.7356 37.903 44.094 37.676 44.094 37.903C44.094 38.1301 43.9411 38.3984 43.3952 38.4397C42.8493 38.481 41.4735 38.2333 41.5172 38.2333C41.5609 38.2333 42.6091 38.708 42.3033 38.8319C41.9976 38.9557 41.1023 38.5636 40.9495 38.6668C40.7966 38.77 41.7793 38.9557 41.6046 39.0177C41.4735 39.0796 40.7966 38.9351 40.5782 38.9557C40.3599 38.997 40.7529 39.2241 40.4909 39.3066C40.2288 39.4098 39.7921 39.1828 39.6174 39.2447C39.4209 39.3066 40.0105 39.6575 39.7484 39.6988C39.4864 39.7401 38.8749 39.5337 38.5255 39.4924C38.1762 39.4924 38.8531 39.8227 38.6347 39.8639C38.4164 39.8846 37.8049 39.5956 37.6521 39.5956C37.4992 39.5956 37.6521 40.0084 37.4337 40.0084C37.2153 40.0084 36.9533 39.6575 36.8223 39.6575C36.6912 39.6575 36.8223 40.0704 36.6039 40.0704C36.3855 40.0704 36.2982 39.6369 36.1235 39.6575C35.9051 39.6988 36.1235 40.2148 35.8178 40.1736C35.5339 40.1529 35.4902 39.6369 35.25 39.6575C35.0316 39.6988 35.2937 40.1736 35.0753 40.1736C34.8569 40.1736 34.8133 39.6988 34.5949 39.6575C34.3765 39.6369 34.4639 40.1116 34.3329 40.1116C34.2018 40.1116 34.0708 39.6575 33.9835 39.6575C33.9179 39.6575 33.9835 40.1116 33.7214 40.0704C33.4594 40.0291 33.4594 39.575 33.3939 39.5956C33.3065 39.6369 33.3065 39.9672 33.1318 39.9672C32.9571 39.9672 32.9353 39.6369 32.8698 39.6782C32.7824 39.6988 32.5204 40.1116 32.3457 40.0497C32.1492 39.9878 32.3894 39.6575 32.302 39.6575C32.2147 39.6575 31.9963 39.8846 31.8653 39.8639C31.7343 39.8433 31.8653 39.575 31.8216 39.575C31.7779 39.575 31.4504 39.7401 31.2975 39.7401C31.1447 39.7401 30.7298 39.9465 30.6206 39.7607C30.5114 39.5543 30.9045 39.5543 30.9918 39.3686C31.0573 39.1828 30.7734 38.6255 31.0791 38.4397C31.363 38.2333 32.302 38.708 33.6996 38.3778C36.2327 37.7379 38.198 36.9948 38.3945 37.0155V37.0155Z" fill="#FFEC2D"/>
</g>
<defs>
<clipPath id="clip0_4046_22872">
<rect width="60" height="45" fill="white"/>
</clipPath>
</defs>
</svg>
