<svg width="60" height="45" viewBox="0 0 60 45" fill="none" xmlns="http://www.w3.org/2000/svg">
<g clip-path="url(#clip0_4046_22895)">
<path fill-rule="evenodd" clip-rule="evenodd" d="M-3.75 33.75H63.75V45H-3.75V33.75ZM-3.75 0H63.75V11.25H-3.75V0Z" fill="#EE161F"/>
<path fill-rule="evenodd" clip-rule="evenodd" d="M-3.75 11.25H63.75V33.75H-3.75V11.25Z" fill="white"/>
<path d="M29.6562 11.4268C28.9707 12.7891 28.5137 12.7891 27.3711 13.7119C26.9141 14.1602 26.2285 14.3887 27.1426 14.8545C26.2197 15.3027 25.7627 15.5313 25.3057 16.4453L25.5342 16.6738C25.5342 16.6738 26.4131 16.252 26.4482 16.4453C26.6064 16.6299 25.3057 17.3242 25.1387 17.4385L24.1719 18.0537C23.0205 18.959 22.3262 18.7305 21.6494 20.1016L23.9346 19.873C24.3916 21.4727 22.792 21.7012 21.6494 22.3867L19.8125 23.5293C20.2783 25.1289 21.6494 24.2148 22.792 23.7578L23.0205 23.9863V24.4434L20.7354 25.5859C20.7354 25.5859 18.0283 27.1328 17.9844 27.1855C17.9668 27.2734 17.9844 27.6426 17.9844 27.6426C18.8984 27.8711 20.2695 28.0996 21.1924 27.6426C22.335 27.1855 22.5635 26.7285 23.9346 26.7285C22.6149 27.7582 21.03 28.3922 19.3643 28.5566V29.4707C20.7354 29.4707 21.6494 29.4707 22.792 29.2422L25.7627 28.3281C26.4482 28.3281 27.1426 29.0137 26.9053 29.6992C26.2285 32.2129 23.4775 31.7559 22.5635 33.8125L26.2197 32.4326C27.1338 31.9756 28.0479 31.5273 29.1904 31.7559C30.5615 32.2129 30.5615 33.127 32.3896 33.584L31.9326 32.4414C32.3896 32.6699 32.8467 32.6699 33.3125 32.8984C34.4551 33.3555 34.6836 33.8125 36.0547 33.584C34.9121 32.2129 34.6836 32.4414 33.7695 31.5273C32.8555 30.1563 32.3896 28.0996 33.7695 27.8711L35.3691 28.3281C36.9687 28.5566 36.9687 28.0996 39.2539 29.0137C40.6338 29.4707 41.0908 30.1562 42.6816 29.6992C42.0049 28.0996 39.4912 26.957 37.8828 26.5C39.7197 25.3574 39.2539 26.957 41.7764 26.2715V25.8145C39.957 24.4346 39.2627 23.292 36.749 23.292L40.6426 22.835V22.3779C40.6426 22.3779 36.8018 21.376 36.7139 21.332C36.7402 21.2178 36.8369 21.042 37.0918 20.9365C37.8213 21.4111 40.0186 21.3584 40.1504 21.3496C40.0801 20.7871 39.0342 20.3213 38.1289 19.8643C38.1289 19.8643 34.2002 17.4473 34.1826 17.2363C34.2617 16.6211 35.791 17.333 37.4346 17.8076C36.9775 16.8936 36.0635 16.4365 35.1494 16.208L36.5205 15.9795C35.6064 13.9229 33.3213 14.1514 31.9502 13.2373C31.0273 12.5518 31.0273 12.0947 29.6562 11.418V11.4268Z" fill="#00A850"/>
<path fill-rule="evenodd" clip-rule="evenodd" d="M27.1836 26.6313C27.3506 26.0952 27.5703 25.6118 26.5508 25.146C25.5312 24.6802 27.0605 27.0005 27.1836 26.6401V26.6313ZM28.3877 25.5503C28.1855 25.5766 28.0713 26.3237 28.4844 26.5346C28.9414 26.605 28.5723 25.5591 28.3877 25.5503ZM29.5742 25.4624C29.3633 25.5327 29.3545 26.5874 30.1016 26.394C30.8574 26.2094 30.1016 25.3833 29.5742 25.4712V25.4624ZM30.9629 22.7641C31.1211 22.5005 30.9541 21.4458 30.3125 21.8852C29.6621 22.3335 30.752 22.8344 30.9629 22.7641ZM29.5566 21.8852C29.7588 21.8061 29.7764 21.1557 29.2051 21.3315C28.6514 21.4985 29.4072 22.0171 29.5566 21.8852ZM28.291 22.1401C28.291 22.1401 27.8955 21.5952 27.5879 21.7094C27.21 22.0786 28.3174 22.1489 28.291 22.1401ZM23.9316 23.8803C24.0986 23.8979 25.3379 23.6782 25.7686 23.1948C26.1992 22.7114 23.5625 23.3969 23.5625 23.4057C23.5625 23.4145 23.8086 23.8364 23.9316 23.8803V23.8803ZM36.333 20.8042C36.3945 20.6899 35.6738 20.1802 35.2432 20.3823C35.1289 20.7602 36.333 20.8833 36.333 20.8042ZM33.8896 19.5737C34.0303 19.3803 33.582 18.5805 32.6855 19.0288C31.7891 19.4682 33.626 19.8901 33.8896 19.5825V19.5737ZM31.0684 19.1079C31.0684 19.1079 31.2881 18.3872 31.8242 18.5278C32.4395 18.9936 31.0947 19.1343 31.0684 19.1079ZM30.541 18.563C30.4531 18.3608 29.8994 18.4751 29.2578 18.9057C28.6074 19.3188 30.7344 19.0288 30.541 18.5542V18.563ZM32.1846 16.6206C32.1846 16.6206 32.7559 16.3569 32.9316 16.6206C33.1689 16.9985 32.1758 16.6206 32.1846 16.6206ZM31.7012 16.3657C31.5869 16.1372 30.9541 16.1108 30.9717 16.4536C30.8662 16.7173 31.7979 16.6645 31.7012 16.3657ZM30.1895 16.3657C30.1279 16.2339 29.2227 16.3657 28.959 16.9106C29.3984 17.1216 30.3916 16.7085 30.1895 16.3657ZM28.2559 16.9194C28.2559 16.9194 27.0781 17.6489 26.999 18.1762C27.0342 18.6333 28.4756 17.3501 28.4756 17.3501C28.4756 17.3501 28.5986 16.8403 28.2646 16.9194H28.2559ZM26.9463 16.2602C26.9814 16.1108 27.5352 15.768 27.5791 15.7944C27.623 15.9438 27.1309 16.3481 26.9463 16.2602ZM27.3242 19.0376C27.3506 18.8178 25.918 18.8354 26.4541 19.4946C26.9111 20.0483 27.4209 19.1343 27.3242 19.0376ZM26.0059 19.978C25.9355 19.8374 25.8301 19.4507 25.6367 19.4155C25.4697 19.4155 24.6084 19.5913 24.5381 19.7319C24.5029 19.8462 24.8984 20.5581 25.0303 20.5757C25.1885 20.6372 25.9883 20.0483 26.0146 19.978H26.0059ZM33.7754 24.8296C33.8193 24.6714 35.2959 24.1704 35.7969 24.6538C36.3945 25.4712 33.7402 25.0932 33.7754 24.8296ZM37.8184 25.7876C38.1436 25.2426 36.8252 24.5923 36.2715 25.2163C36.4648 25.9634 37.5547 26.2358 37.8184 25.7876Z" fill="white"/>
<path fill-rule="evenodd" clip-rule="evenodd" d="M27.5807 15.6526C27.5955 15.6533 27.6229 15.6567 27.6515 15.6738C27.6817 15.692 27.7041 15.7209 27.714 15.7547C27.7317 15.815 27.7185 15.8717 27.7035 15.9111C27.6877 15.9524 27.6635 15.9916 27.6375 16.0266C27.5852 16.0969 27.5121 16.1675 27.4344 16.2275C27.3568 16.2876 27.2677 16.3424 27.1804 16.3765C27.1013 16.4074 26.9874 16.4356 26.8858 16.3872C26.8261 16.3587 26.7942 16.2925 26.8094 16.228C26.8208 16.1795 26.8483 16.1384 26.8713 16.1093C26.8962 16.0776 26.9268 16.0464 26.9588 16.017C27.023 15.9582 27.1028 15.898 27.1802 15.8452C27.2578 15.7923 27.3369 15.7443 27.4013 15.7105C27.433 15.6939 27.4645 15.6789 27.4922 15.6687C27.5056 15.6638 27.523 15.6582 27.5416 15.655C27.551 15.6534 27.5647 15.6517 27.5807 15.6526ZM31.5875 16.1038C31.679 16.1394 31.7765 16.2018 31.8269 16.3028C31.8301 16.3091 31.8328 16.3157 31.835 16.3224C31.8587 16.3957 31.8516 16.4692 31.8169 16.5331C31.7846 16.5925 31.734 16.6344 31.685 16.6635C31.5879 16.7212 31.4605 16.7509 31.345 16.7607C31.23 16.7704 31.1026 16.7624 31.004 16.7243C30.9553 16.7054 30.897 16.6728 30.8591 16.6148C30.822 16.5582 30.8147 16.4938 30.8308 16.4327C30.8329 16.3093 30.892 16.2122 30.9801 16.1489C31.0681 16.0856 31.1788 16.0595 31.2806 16.0549C31.3841 16.0503 31.493 16.067 31.5875 16.1038ZM31.1443 16.3773C31.1216 16.3936 31.1103 16.4118 31.1121 16.4464C31.1124 16.4524 31.1123 16.4583 31.1119 16.4643C31.1565 16.4796 31.233 16.4879 31.3213 16.4805C31.4134 16.4727 31.4942 16.4497 31.5413 16.4217C31.5494 16.4169 31.5554 16.4126 31.5597 16.4091C31.5457 16.396 31.5223 16.3802 31.4855 16.3659C31.4298 16.3442 31.3602 16.3329 31.2933 16.3359C31.2249 16.339 31.1735 16.3563 31.1443 16.3773ZM30.3132 16.2988C30.2756 16.2269 30.2019 16.2022 30.1645 16.1926C30.1163 16.1803 30.0608 16.1767 30.005 16.178C29.8919 16.1807 29.7515 16.2047 29.6075 16.2503C29.3249 16.3399 28.9888 16.5262 28.8324 16.8494C28.8161 16.883 28.8139 16.9217 28.8262 16.957C28.8386 16.9923 28.8644 17.0212 28.8981 17.0374C29.0401 17.1055 29.2134 17.1183 29.3784 17.1027C29.5457 17.0868 29.719 17.0402 29.8705 16.9749C30.0197 16.9107 30.1602 16.8228 30.2511 16.7165C30.2972 16.6627 30.3358 16.5979 30.3506 16.5235C30.3657 16.4475 30.3538 16.37 30.3132 16.2988ZM29.1851 16.8245C29.2355 16.8289 29.2915 16.8284 29.3518 16.8227C29.4879 16.8097 29.6327 16.7711 29.7592 16.7166C29.8879 16.6612 29.9853 16.5946 30.0374 16.5337C30.0629 16.5039 30.0721 16.4818 30.0747 16.4688C30.0752 16.4664 30.0755 16.4641 30.0756 16.4617C30.0603 16.4598 30.0391 16.4585 30.0117 16.4592C29.9295 16.4611 29.8155 16.4794 29.6925 16.5184C29.5014 16.579 29.3121 16.6814 29.1851 16.8245ZM30.1028 16.4677C30.1026 16.4678 30.1013 16.4674 30.0991 16.4663C30.1018 16.4671 30.1029 16.4677 30.1028 16.4677ZM32.7627 16.3704C32.8662 16.3868 32.9763 16.4341 33.0486 16.5426C33.0494 16.5436 33.0501 16.5447 33.0507 16.5458C33.0848 16.6 33.1195 16.6737 33.1059 16.7528C33.089 16.8514 33.0122 16.8975 32.9539 16.9148C32.8991 16.9311 32.8383 16.931 32.7861 16.9268C32.7311 16.9225 32.6718 16.9123 32.614 16.8997C32.4981 16.8746 32.3767 16.8374 32.2863 16.8071C32.2408 16.7918 32.2022 16.778 32.1749 16.7679C32.1614 16.7629 32.1502 16.7586 32.1422 16.7554C32.1384 16.7539 32.1342 16.7522 32.1304 16.7506C32.1294 16.7501 32.1247 16.7481 32.1195 16.7454C32.118 16.7446 32.1152 16.7431 32.1119 16.7411C32.1098 16.7398 32.1015 16.7348 32.0924 16.7269C32.0871 16.722 32.0741 16.7076 32.0669 16.6977C32.0559 16.6775 32.044 16.6154 32.0513 16.5754C32.0667 16.5458 32.1017 16.5125 32.1269 16.4955C32.1257 16.4929 32.1257 16.4929 32.1257 16.4929L32.126 16.4927L32.1266 16.4925L32.1283 16.4917C32.1297 16.491 32.1317 16.4901 32.1342 16.489C32.1392 16.4868 32.1462 16.4838 32.1551 16.4801C32.1727 16.4727 32.1978 16.4626 32.2283 16.4514C32.2887 16.4293 32.3729 16.4022 32.4646 16.3838C32.5548 16.3658 32.6612 16.3544 32.7627 16.3704ZM28.6123 17.383C28.6123 17.383 28.6123 17.3831 28.4756 17.3501C28.5691 17.4551 28.5691 17.4551 28.5691 17.4551L28.5679 17.4562L28.5646 17.4591C28.5618 17.4616 28.5576 17.4652 28.5522 17.47C28.5414 17.4795 28.5257 17.4933 28.5056 17.5106C28.4656 17.5453 28.4085 17.5942 28.3399 17.6514C28.2029 17.7656 28.0189 17.914 27.8329 18.0485C27.6498 18.1809 27.4542 18.3076 27.2968 18.3705C27.2226 18.4002 27.1303 18.4271 27.0447 18.4098C26.9965 18.4 26.9478 18.3756 26.9113 18.3298C26.8763 18.2858 26.8624 18.2343 26.8588 18.187C26.858 18.1765 26.8584 18.1659 26.86 18.1554C26.8858 17.9834 26.9958 17.8139 27.1218 17.6662C27.251 17.5146 27.4127 17.3679 27.5682 17.2411C27.7243 17.1138 27.8773 17.0038 27.991 16.9257C28.048 16.8866 28.0953 16.8553 28.1286 16.8338C28.1452 16.823 28.1584 16.8146 28.1674 16.8089C28.1719 16.806 28.1754 16.8038 28.1779 16.8023L28.1807 16.8006L28.1817 16.7999C28.1817 16.7999 28.1818 16.7999 28.2559 16.9194L28.1818 16.7999C28.202 16.7873 28.2251 16.7802 28.2487 16.779C28.3598 16.7567 28.4641 16.7775 28.5396 16.8556C28.6085 16.9269 28.6289 17.0225 28.6354 17.092C28.6423 17.1658 28.636 17.2389 28.6289 17.2906C28.6253 17.3171 28.6213 17.3395 28.6182 17.3555C28.6166 17.3635 28.6152 17.37 28.6142 17.3747C28.6137 17.377 28.6133 17.3789 28.6129 17.3803L28.6125 17.3821L28.6124 17.3827L28.6123 17.3829L28.6123 17.383ZM28.3054 17.0544C28.2987 17.0587 28.2908 17.0638 28.2816 17.0698C28.2501 17.0902 28.2049 17.12 28.1502 17.1576C28.0406 17.2328 27.8943 17.3381 27.746 17.459C27.5971 17.5805 27.4496 17.7151 27.3358 17.8486C27.2486 17.9509 27.1893 18.0433 27.159 18.1216C27.1687 18.1184 27.1798 18.1144 27.1923 18.1094C27.315 18.0603 27.4865 17.9519 27.6681 17.8206C27.8468 17.6914 28.0253 17.5475 28.1597 17.4354C28.2268 17.3795 28.2826 17.3317 28.3215 17.298C28.3309 17.2899 28.3394 17.2825 28.3468 17.2761C28.3479 17.269 28.3491 17.2611 28.3502 17.2527C28.3559 17.2114 28.3594 17.1619 28.3553 17.1182C28.3514 17.0755 28.3419 17.0573 28.3384 17.0523C28.335 17.0517 28.3249 17.0506 28.3054 17.0544ZM28.4756 17.3501L28.5691 17.4551C28.5905 17.4361 28.6056 17.4108 28.6123 17.383L28.4756 17.3501ZM30.6394 18.4536C30.5838 18.3785 30.4964 18.3437 30.4142 18.3316C30.3146 18.3168 30.197 18.3298 30.0731 18.3606C29.8236 18.4227 29.5104 18.567 29.1809 18.788C29.1362 18.8165 29.0973 18.8457 29.0671 18.8763C29.0393 18.9044 29.0037 18.9488 28.995 19.0085C28.9842 19.0829 29.0195 19.1424 29.064 19.1776C29.1016 19.2074 29.146 19.2214 29.1804 19.229C29.2519 19.2451 29.3432 19.247 29.4371 19.2416C29.5336 19.236 29.6426 19.222 29.754 19.201C29.9745 19.1596 30.2176 19.0882 30.3974 18.9912C30.4862 18.9432 30.572 18.8825 30.6283 18.8054C30.6892 18.722 30.7175 18.6146 30.6712 18.5011C30.6638 18.4828 30.6528 18.4668 30.6394 18.4536ZM30.4118 18.6208C30.4069 18.6179 30.3958 18.6132 30.3731 18.6098C30.3242 18.6026 30.2468 18.6072 30.141 18.6335C29.9533 18.6802 29.7058 18.7877 29.4321 18.9601C29.5121 18.9549 29.6049 18.9429 29.702 18.9246C29.9078 18.8859 30.1195 18.8216 30.2638 18.7437C30.3371 18.7041 30.3807 18.6675 30.4012 18.6395C30.4072 18.6312 30.4104 18.6253 30.4118 18.6208ZM29.2622 19.0796C29.2621 19.0796 29.2624 19.0792 29.2632 19.0782C29.2626 19.0792 29.2622 19.0796 29.2622 19.0796ZM31.0684 19.1079L30.9338 19.0669C30.9187 19.1166 30.9322 19.1706 30.9689 19.2073C30.9938 19.2322 31.0213 19.2409 31.028 19.243L31.0282 19.2431C31.039 19.2465 31.0483 19.2481 31.0538 19.2489C31.0652 19.2506 31.0761 19.2512 31.0841 19.2514C31.101 19.2519 31.121 19.2512 31.1419 19.25C31.1845 19.2475 31.2406 19.2419 31.3035 19.2332C31.4286 19.2157 31.5896 19.1845 31.7325 19.1354C31.8039 19.1109 31.8752 19.0805 31.9365 19.0425C31.9961 19.0055 32.0581 18.9541 32.0946 18.8826C32.135 18.8036 32.1365 18.7149 32.0974 18.6292C32.0616 18.5507 31.9948 18.4805 31.9091 18.4157C31.8944 18.4046 31.8777 18.3965 31.8599 18.3918C31.5115 18.3004 31.2703 18.4974 31.1327 18.6807C31.0634 18.7732 31.0142 18.869 30.9825 18.9405C30.9665 18.9765 30.9547 19.0072 30.9467 19.0292C30.9427 19.0402 30.9396 19.0491 30.9375 19.0555C30.9364 19.0587 30.9356 19.0613 30.935 19.0632L30.9343 19.0656L30.934 19.0664L30.9339 19.0668C30.9339 19.0668 30.9338 19.0669 31.0684 19.1079ZM31.3577 18.8495C31.3328 18.8828 31.3108 18.9173 31.2919 18.9507C31.4017 18.9341 31.5308 18.9073 31.6413 18.8694C31.7012 18.8488 31.7511 18.8265 31.7883 18.8035C31.8271 18.7794 31.8407 18.7615 31.8441 18.7547C31.8442 18.7545 31.8443 18.7543 31.8444 18.7541C31.8442 18.7528 31.8434 18.7501 31.8415 18.7459C31.8342 18.7299 31.8134 18.6999 31.762 18.6577C31.5878 18.6236 31.459 18.7144 31.3577 18.8495ZM34.0249 19.6209C34.0194 19.6403 34.0097 19.6585 33.9964 19.674C33.9344 19.7464 33.8415 19.7825 33.7571 19.8021C33.6687 19.8225 33.5666 19.8298 33.4619 19.8282C33.2525 19.8248 33.0125 19.7848 32.8096 19.7197C32.708 19.6871 32.6115 19.6469 32.5311 19.599C32.4537 19.5529 32.3765 19.4911 32.3337 19.4089C32.2846 19.3146 32.289 19.2087 32.3518 19.1138C32.4072 19.03 32.5029 18.9618 32.6232 18.9027C33.1166 18.6562 33.5126 18.7459 33.7653 18.9516C33.8874 19.0509 33.9731 19.1753 34.0183 19.2939C34.0409 19.3532 34.0548 19.415 34.0557 19.4744C34.0563 19.5208 34.0489 19.5729 34.0249 19.6209ZM33.5877 19.1697C33.4274 19.0393 33.1512 18.9532 32.7484 19.1546L32.7474 19.1551C32.6438 19.2059 32.601 19.2468 32.5864 19.2689C32.5808 19.2773 32.5812 19.2775 32.5822 19.2781C32.5825 19.2783 32.5829 19.2785 32.5831 19.279C32.5906 19.2933 32.6154 19.3219 32.675 19.3574C32.7316 19.3911 32.807 19.4235 32.8955 19.4519C33.0727 19.5087 33.2853 19.544 33.4665 19.5469C33.5571 19.5484 33.6348 19.5417 33.6938 19.528C33.7328 19.519 33.7562 19.5087 33.7692 19.5011C33.7705 19.499 33.7718 19.4969 33.7732 19.4949C33.7737 19.4927 33.7746 19.4875 33.7744 19.4783C33.7742 19.4588 33.7692 19.4299 33.7555 19.394C33.7282 19.3223 33.6722 19.2384 33.5877 19.1697ZM27.4627 18.9982C27.4484 18.9146 27.3794 18.8651 27.3393 18.8434C27.2835 18.8132 27.2138 18.7952 27.1455 18.7846C27.0065 18.7631 26.8298 18.7658 26.6696 18.7988C26.5179 18.83 26.3402 18.8969 26.2493 19.0381C26.2001 19.1147 26.1817 19.2055 26.2006 19.3034C26.2186 19.397 26.2693 19.4903 26.345 19.5833L26.3456 19.5841C26.4819 19.7492 26.6413 19.8246 26.8083 19.8105C26.9654 19.7972 27.0982 19.7069 27.1959 19.6097C27.2953 19.511 27.3736 19.3905 27.4213 19.286C27.4449 19.2341 27.4637 19.1804 27.472 19.131C27.4761 19.1065 27.4787 19.0774 27.475 19.0475C27.4733 19.0338 27.4698 19.0165 27.4627 18.9982ZM26.5628 19.4054C26.5048 19.3339 26.483 19.2826 26.4767 19.25C26.4712 19.2216 26.4766 19.2046 26.4858 19.1903C26.512 19.1496 26.5903 19.1023 26.7264 19.0742C26.8541 19.0479 26.997 19.0462 27.1024 19.0626C27.1438 19.069 27.1732 19.0772 27.1916 19.0845C27.1923 19.0863 27.1929 19.088 27.1936 19.0898C27.19 19.1072 27.1813 19.1344 27.1654 19.1693C27.1304 19.246 27.0708 19.3376 26.9977 19.4102C26.9229 19.4845 26.8486 19.5249 26.7846 19.5303C26.7306 19.5348 26.655 19.5169 26.5628 19.4054ZM27.2114 19.0943C27.2114 19.0943 27.2109 19.094 27.2101 19.0934C27.211 19.094 27.2114 19.0943 27.2114 19.0943ZM25.3799 19.3067C25.4844 19.2882 25.581 19.2749 25.6367 19.2749C25.6452 19.2749 25.6536 19.2756 25.6619 19.2771C25.7535 19.2938 25.8225 19.3497 25.8717 19.4056C25.9213 19.462 25.9612 19.5302 25.9932 19.5943C26.0256 19.6592 26.0533 19.7264 26.0761 19.7832C26.0792 19.7907 26.0821 19.798 26.0849 19.805C26.0969 19.8347 26.1069 19.8596 26.1157 19.8802C26.121 19.8857 26.1258 19.8916 26.1302 19.8979C26.1565 19.9358 26.1625 19.9842 26.1463 20.0274C26.1345 20.0589 26.1132 20.0826 26.1059 20.0906L26.1055 20.0911C26.094 20.1038 26.0804 20.1171 26.0664 20.1299C26.0382 20.1559 26.0012 20.1868 25.9591 20.22C25.8748 20.2867 25.7643 20.3672 25.6498 20.4434C25.5359 20.5191 25.4144 20.5929 25.3088 20.6445C25.2564 20.6701 25.2034 20.6924 25.1547 20.706C25.117 20.7165 25.0552 20.73 24.9944 20.7119C24.9398 20.6992 24.8978 20.6638 24.8749 20.6428C24.8433 20.6139 24.8117 20.5773 24.7817 20.5387C24.7213 20.4607 24.6569 20.3605 24.5994 20.2597C24.5418 20.1588 24.4886 20.053 24.4516 19.963C24.4332 19.9183 24.4174 19.8742 24.4074 19.8348C24.4024 19.8151 24.3981 19.7937 24.3963 19.7722C24.3946 19.7526 24.3938 19.7225 24.4037 19.6906C24.406 19.6831 24.4088 19.6759 24.4123 19.669C24.4403 19.613 24.4924 19.5776 24.5266 19.5572C24.5666 19.5333 24.6148 19.5116 24.665 19.4921C24.766 19.4528 24.8918 19.416 25.0169 19.3846C25.1427 19.353 25.2715 19.3259 25.3799 19.3067ZM25.8989 19.9C25.899 19.8999 25.8984 19.9007 25.897 19.9023C25.8981 19.9008 25.8988 19.9 25.8989 19.9ZM25.8414 19.9532C25.8355 19.9387 25.8296 19.924 25.8238 19.9094C25.8209 19.9023 25.8181 19.8952 25.8153 19.8883C25.7926 19.8319 25.7686 19.7739 25.7417 19.7201C25.7144 19.6655 25.6872 19.6217 25.6605 19.5913C25.6419 19.5702 25.6282 19.5609 25.6198 19.5568C25.5844 19.5592 25.5182 19.5678 25.429 19.5836C25.3269 19.6017 25.2046 19.6274 25.0854 19.6574C24.9655 19.6875 24.8524 19.721 24.7669 19.7542C24.7337 19.7671 24.7071 19.779 24.687 19.7896C24.6929 19.8079 24.701 19.8301 24.7117 19.856C24.743 19.9321 24.7903 20.0268 24.8437 20.1203C24.8972 20.214 24.9542 20.3022 25.0039 20.3663C25.029 20.3986 25.0496 20.4215 25.0647 20.4353C25.0658 20.4362 25.0668 20.4371 25.0677 20.4379C25.0707 20.4373 25.0745 20.4364 25.0791 20.4351C25.1045 20.428 25.1402 20.4138 25.1854 20.3917C25.2751 20.348 25.3849 20.2817 25.494 20.2092C25.6026 20.137 25.7068 20.061 25.7848 19.9994C25.8062 19.9824 25.8252 19.967 25.8414 19.9532ZM25.0577 20.4395C25.0577 20.4395 25.0579 20.4395 25.0581 20.4395ZM25.0771 20.4453C25.0771 20.4453 25.0766 20.4451 25.0758 20.4444C25.0766 20.4449 25.0771 20.4452 25.0771 20.4453ZM24.6765 19.7479C24.6764 19.7469 24.6765 19.7471 24.6765 19.7482C24.6765 19.748 24.6765 19.7479 24.6765 19.7479ZM36.4667 20.8493C36.496 20.7714 36.4584 20.6998 36.4422 20.6727C36.4178 20.632 36.3823 20.5931 36.3447 20.5584C36.2681 20.4875 36.1593 20.4125 36.037 20.3495C35.9145 20.2865 35.7719 20.2323 35.6269 20.2081C35.4825 20.1841 35.3254 20.1884 35.1834 20.255C35.1473 20.2719 35.1201 20.3034 35.1086 20.3416C35.0827 20.4271 35.0947 20.5097 35.1344 20.5807C35.1715 20.6472 35.2293 20.6978 35.2882 20.7364C35.4053 20.8132 35.5639 20.8661 35.7127 20.9014C35.8642 20.9374 36.0194 20.9584 36.1387 20.9652C36.1975 20.9685 36.2527 20.9687 36.2963 20.9641C36.3167 20.9619 36.3438 20.9579 36.3696 20.948C36.3822 20.9432 36.4038 20.9337 36.4243 20.9149C36.4399 20.9007 36.4573 20.8787 36.4667 20.8493ZM35.4126 20.4794C35.4207 20.4862 35.4306 20.4934 35.4423 20.5012C35.5188 20.5513 35.6399 20.5951 35.7777 20.6278C35.8656 20.6487 35.9548 20.6638 36.0348 20.6735C35.9969 20.6484 35.9543 20.6233 35.9083 20.5996C35.8045 20.5462 35.69 20.5038 35.5807 20.4856C35.5196 20.4754 35.4632 20.4733 35.4126 20.4794ZM36.2033 20.822C36.2032 20.8219 36.2024 20.8206 36.2014 20.8181C36.203 20.8208 36.2035 20.8221 36.2033 20.822ZM29.6286 22.0071C29.7241 21.9601 29.7769 21.8634 29.8018 21.7816C29.8302 21.6885 29.8349 21.578 29.8064 21.4752C29.7774 21.3706 29.711 21.2659 29.592 21.2068C29.4742 21.1483 29.3287 21.1464 29.1641 21.197C29.0053 21.245 28.8756 21.3394 28.8651 21.4977C28.8561 21.6326 28.9432 21.7478 29.0194 21.8215C29.102 21.9015 29.209 21.9693 29.3094 22.0087C29.3595 22.0284 29.4144 22.0435 29.4681 22.0465C29.5131 22.049 29.5746 22.0437 29.6286 22.0071ZM29.4669 21.4587C29.4337 21.4422 29.3674 21.4287 29.2464 21.4659L29.2457 21.4662C29.1887 21.4833 29.162 21.5013 29.151 21.5115C29.148 21.5143 29.1464 21.5163 29.1457 21.5173C29.1462 21.5252 29.1557 21.5619 29.215 21.6194C29.2708 21.6734 29.3461 21.721 29.4122 21.7469C29.4445 21.7596 29.4684 21.7647 29.4826 21.7657C29.4896 21.7614 29.4969 21.7577 29.5045 21.7546C29.504 21.7548 29.5037 21.7549 29.5037 21.7549C29.5034 21.7544 29.5195 21.7434 29.5328 21.6996C29.5467 21.654 29.5486 21.5981 29.5354 21.5504C29.5226 21.5044 29.499 21.4746 29.4669 21.4587ZM29.4908 21.7657C29.4908 21.7657 29.4904 21.7658 29.4895 21.7658C29.4903 21.7657 29.4908 21.7656 29.4908 21.7657ZM28.4 22.0509C28.3997 22.0505 28.3993 22.0501 28.399 22.0497C28.3956 22.0451 28.3907 22.0386 28.3844 22.0306C28.3719 22.0145 28.354 21.9921 28.3316 21.9657C28.287 21.9132 28.2233 21.8435 28.1482 21.7768C28.074 21.7109 27.9831 21.6429 27.8837 21.5996C27.7842 21.5563 27.6621 21.5319 27.5389 21.5776C27.5205 21.5845 27.5037 21.5951 27.4896 21.6088C27.4316 21.6656 27.3844 21.733 27.3718 21.8121C27.3581 21.8983 27.3891 21.9716 27.4355 22.0255C27.4786 22.0755 27.5362 22.1111 27.5906 22.1371C27.6464 22.1638 27.7087 22.185 27.7701 22.202C27.8929 22.236 28.0248 22.2565 28.1226 22.2681C28.1719 22.2739 28.2139 22.2776 28.2435 22.2796C28.258 22.2805 28.2709 22.2812 28.2807 22.2814C28.284 22.2814 28.293 22.2816 28.3024 22.2808C28.305 22.2806 28.3108 22.28 28.3181 22.2786C28.3216 22.2779 28.328 22.2765 28.3356 22.274C28.3413 22.2721 28.3577 22.2664 28.3753 22.2533C28.3919 22.241 28.4335 22.2031 28.4321 22.1373C28.4312 22.0971 28.4143 22.0683 28.4 22.0509ZM27.6632 21.8351C27.6592 21.8402 27.6564 21.8444 27.6543 21.8477C27.6639 21.8564 27.6818 21.869 27.7119 21.8834C27.748 21.9006 27.7934 21.9166 27.8451 21.931C27.8682 21.9374 27.8919 21.9432 27.9159 21.9486C27.8672 21.9098 27.818 21.8778 27.7713 21.8574C27.726 21.8377 27.6909 21.8321 27.6632 21.8351ZM31.1588 22.45C31.1625 22.5872 31.144 22.7357 31.0835 22.8365C31.0662 22.8653 31.0392 22.8869 31.0074 22.8975C30.9476 22.9175 30.8796 22.9125 30.8253 22.9038C30.7658 22.8942 30.6998 22.8759 30.6329 22.8517C30.4997 22.8035 30.3501 22.7267 30.2273 22.6293C30.1091 22.5356 29.9917 22.4034 29.9706 22.2395C29.9474 22.0591 30.0455 21.8984 30.2327 21.7694L30.233 21.7692C30.417 21.6432 30.5975 21.6051 30.7591 21.6694C30.9126 21.7306 31.0093 21.8694 31.0671 22.0063C31.1263 22.1461 31.155 22.3067 31.1588 22.45ZM30.3922 22.0011C30.2543 22.0962 30.2447 22.1662 30.2496 22.2036C30.2565 22.2575 30.3028 22.3302 30.4021 22.409C30.4969 22.4841 30.6185 22.5474 30.7287 22.5873C30.7811 22.6063 30.8278 22.6188 30.8649 22.6252C30.8737 22.5837 30.8795 22.527 30.8777 22.4575C30.8746 22.3427 30.8512 22.2177 30.8081 22.1158C30.7638 22.0109 30.7083 21.952 30.655 21.9307C30.6098 21.9127 30.5289 21.9075 30.3922 22.0011ZM25.9526 23.1452C25.9409 23.2031 25.9065 23.2513 25.8736 23.2883C25.7488 23.4284 25.5726 23.5424 25.3854 23.6345C25.1968 23.7274 24.9883 23.8023 24.7909 23.8603C24.5933 23.9185 24.4041 23.9606 24.2528 23.9871C24.1772 24.0004 24.1101 24.0099 24.0554 24.0156C24.0044 24.0209 23.9538 24.0241 23.9169 24.0202L23.9316 23.8803L23.8843 24.0128C23.8455 23.9989 23.813 23.975 23.7893 23.9548C23.7639 23.9332 23.7393 23.9077 23.7165 23.8818C23.6708 23.8299 23.6249 23.7676 23.585 23.7094C23.5447 23.6507 23.5086 23.5934 23.4824 23.55C23.4694 23.5283 23.4585 23.5096 23.4506 23.4955C23.4467 23.4886 23.4431 23.4819 23.4401 23.4761C23.4387 23.4734 23.4367 23.4693 23.4347 23.4648C23.4338 23.4627 23.4319 23.4586 23.4301 23.4533C23.4292 23.4507 23.4276 23.4461 23.4262 23.4403C23.4252 23.4363 23.4219 23.4231 23.4219 23.4057C23.4258 23.3729 23.4466 23.3261 23.458 23.3116C23.4652 23.3042 23.478 23.2933 23.4832 23.2896C23.4925 23.2832 23.5006 23.2793 23.503 23.2782C23.5093 23.2753 23.5146 23.2733 23.5163 23.2727C23.5209 23.271 23.5254 23.2696 23.5285 23.2686C23.5353 23.2665 23.5441 23.264 23.554 23.2612C23.5743 23.2555 23.6033 23.2477 23.6394 23.2383C23.7116 23.2194 23.8138 23.1935 23.9348 23.1644C24.1766 23.1061 24.4954 23.0341 24.8014 22.9774C25.1039 22.9214 25.4058 22.8781 25.6082 22.882C25.6597 22.883 25.7096 22.887 25.754 22.8964C25.7952 22.9052 25.8484 22.9218 25.8909 22.9597C25.9433 23.0063 25.9669 23.0742 25.9526 23.1452ZM23.9712 23.7403C23.9856 23.7396 24.004 23.7382 24.0263 23.7359C24.073 23.731 24.1335 23.7225 24.2042 23.7101C24.3458 23.6853 24.5246 23.6455 24.7115 23.5905C24.8987 23.5354 25.0912 23.4659 25.2612 23.3822C25.3975 23.3151 25.5139 23.2415 25.6014 23.1632C25.4305 23.1601 25.1547 23.1981 24.8526 23.254C24.5533 23.3094 24.2398 23.3802 24.0007 23.4378C23.9157 23.4583 23.8402 23.4771 23.7785 23.4928C23.7906 23.5115 23.8035 23.5308 23.8169 23.5503C23.8538 23.6041 23.8925 23.6561 23.9276 23.696C23.945 23.7157 23.9596 23.7304 23.9712 23.7403ZM33.8928 24.902C33.8927 24.9019 33.8932 24.9014 33.8944 24.9003C33.8934 24.9015 33.8928 24.902 33.8928 24.902ZM34.0074 24.8346C34.0324 24.8228 34.0606 24.8105 34.0921 24.7977C34.2357 24.7397 34.4313 24.6798 34.6415 24.6391C34.8522 24.5984 35.0712 24.5781 35.2635 24.5951C35.4522 24.6118 35.5979 24.6628 35.6906 24.7469C35.7479 24.8286 35.745 24.8669 35.743 24.8757C35.7416 24.882 35.733 24.9062 35.6695 24.9354C35.5383 24.9956 35.2935 25.0191 35.0031 25.0066C34.72 24.9943 34.4198 24.9492 34.1952 24.892C34.1208 24.8731 34.0576 24.8535 34.0074 24.8346ZM35.2882 24.315C35.5127 24.3348 35.7362 24.3998 35.8945 24.5526C35.9003 24.5582 35.9056 24.5643 35.9104 24.5708C35.995 24.6865 36.0458 24.8124 36.0173 24.938C35.9881 25.0664 35.8877 25.1447 35.7869 25.191C35.5896 25.2815 35.2851 25.3003 34.991 25.2876C34.6897 25.2745 34.3703 25.2268 34.1258 25.1646C34.0045 25.1337 33.895 25.0975 33.8139 25.0571C33.7741 25.0372 33.7328 25.0123 33.7003 24.9804C33.6696 24.9502 33.6253 24.8916 33.636 24.811C33.6369 24.8045 33.6382 24.7982 33.6399 24.7919C33.6534 24.7432 33.6859 24.7099 33.7048 24.6926C33.7272 24.672 33.7538 24.6534 33.7809 24.6368C33.8354 24.6034 33.9064 24.5695 33.9866 24.537C34.1479 24.4718 34.361 24.4069 34.588 24.363C34.8145 24.3192 35.0614 24.2949 35.2882 24.315ZM37.9082 25.3019C38.0176 25.4635 38.0547 25.6657 37.9393 25.8594C37.8468 26.0162 37.6873 26.1001 37.5177 26.1308C37.3483 26.1616 37.1577 26.1423 36.9757 26.0841C36.6145 25.9685 36.2475 25.6848 36.1353 25.2515C36.1236 25.2062 36.1352 25.158 36.1663 25.1229C36.5012 24.7456 37.0455 24.7704 37.4297 24.9342C37.6255 25.0177 37.8022 25.1453 37.9082 25.3019ZM36.4312 25.2559C36.6566 25.0621 37.0133 25.0624 37.3194 25.1929C37.4817 25.2621 37.6082 25.3604 37.6753 25.4595C37.7388 25.5534 37.7446 25.6368 37.6976 25.7155L37.6971 25.7163C37.6578 25.7832 37.5823 25.8333 37.4675 25.8541C37.3524 25.875 37.209 25.8635 37.0614 25.8162C36.7876 25.7286 36.5337 25.5308 36.4312 25.2559ZM26.4153 24.9519C26.4745 24.9634 26.5393 24.9861 26.6092 25.0181C27.1352 25.2584 27.3846 25.5227 27.4498 25.8334C27.4812 25.9835 27.4663 26.1306 27.4359 26.2688C27.4122 26.3764 27.377 26.487 27.3435 26.5921C27.3367 26.6135 27.3299 26.6346 27.3234 26.6555C27.3222 26.6657 27.32 26.6758 27.3167 26.6856C27.2968 26.7439 27.2492 26.803 27.1678 26.8164C27.1034 26.827 27.0467 26.8026 27.0121 26.7838C26.9385 26.7438 26.8595 26.6695 26.7853 26.5876C26.6321 26.4188 26.4555 26.1682 26.3164 25.9228C26.2466 25.7997 26.1847 25.6752 26.1396 25.5605C26.0957 25.4487 26.0629 25.3343 26.0616 25.2354C26.061 25.1853 26.0682 25.1286 26.0955 25.0765C26.125 25.0202 26.1735 24.9781 26.2365 24.9576C26.2949 24.9384 26.3569 24.9406 26.4153 24.9519ZM27.0816 26.4875C27.0567 26.4651 27.0272 26.4357 26.9936 26.3987C26.8573 26.2484 26.6923 26.0156 26.5611 25.7841C26.4957 25.6688 26.4403 25.5566 26.4014 25.4576C26.3614 25.3556 26.3435 25.2793 26.3429 25.2317C26.3428 25.2294 26.3428 25.2272 26.3429 25.2252C26.348 25.2257 26.3543 25.2265 26.3618 25.228C26.3921 25.2339 26.4348 25.2476 26.4923 25.2739C26.9859 25.4994 27.1364 25.7097 27.1745 25.8912C27.1947 25.9872 27.1871 26.0906 27.1612 26.2084C27.1414 26.2984 27.1129 26.3889 27.0816 26.4875ZM27.1542 26.5403C27.1542 26.5404 27.1536 26.5402 27.1524 26.5397C27.1535 26.54 27.1541 26.5403 27.1542 26.5403ZM29.6074 25.3257C29.5821 25.3196 29.5552 25.3205 29.5297 25.329C29.4543 25.3541 29.4083 25.4147 29.3819 25.4638C29.3537 25.516 29.3352 25.5776 29.3241 25.6402C29.3018 25.7655 29.3049 25.9184 29.3426 26.0626C29.38 26.2061 29.4559 26.3558 29.5921 26.454C29.733 26.5556 29.9172 26.5868 30.1359 26.5304C30.35 26.4779 30.5023 26.3675 30.5481 26.1958C30.5912 26.0341 30.5238 25.8717 30.4325 25.7472C30.3382 25.6188 30.2004 25.5042 30.0493 25.4271C29.9157 25.3589 29.7605 25.3145 29.6074 25.3257ZM29.6249 25.6065C29.6164 25.6251 29.6075 25.6528 29.601 25.6894C29.5857 25.7756 29.5875 25.8875 29.6147 25.9916C29.6421 26.0963 29.6909 26.1785 29.7566 26.2258C29.8173 26.2696 29.9119 26.2978 30.0663 26.2579L30.0682 26.2574C30.2315 26.2175 30.2678 26.1555 30.2763 26.1234C30.2876 26.081 30.2748 26.0077 30.2057 25.9136C30.1395 25.8234 30.0368 25.7364 29.9215 25.6776C29.8164 25.624 29.7124 25.5994 29.6249 25.6065ZM29.6372 25.5853C29.6372 25.5854 29.637 25.5856 29.6365 25.5861C29.637 25.5855 29.6372 25.5853 29.6372 25.5853ZM28.3695 25.4108C28.3778 25.4097 28.3861 25.4094 28.3944 25.4098C28.4766 25.4137 28.5359 25.4687 28.5672 25.5029C28.6046 25.5437 28.6387 25.5958 28.6685 25.6505C28.7284 25.7606 28.7819 25.9021 28.8137 26.0407C28.8444 26.1744 28.8603 26.3284 28.8226 26.4525C28.8028 26.5177 28.765 26.5852 28.6963 26.6304C28.6266 26.6762 28.5448 26.6862 28.463 26.6736C28.4482 26.6713 28.4338 26.6667 28.4204 26.6599C28.1438 26.5186 28.0623 26.2104 28.0647 25.9718C28.066 25.8486 28.0889 25.7275 28.13 25.6306C28.1505 25.5823 28.1777 25.5347 28.2138 25.4959C28.2496 25.4572 28.3015 25.4197 28.3695 25.4108ZM28.3914 25.7346C28.4008 25.7488 28.4109 25.7656 28.4214 25.7849C28.4683 25.8711 28.5131 25.9884 28.5396 26.1036C28.5671 26.2236 28.5694 26.3185 28.5535 26.3709C28.5482 26.3882 28.5431 26.3941 28.5417 26.3954C28.5401 26.3961 28.5357 26.3974 28.5271 26.3974C28.4048 26.3215 28.3441 26.1586 28.3459 25.9747C28.3469 25.8814 28.3646 25.7977 28.3889 25.7405C28.3897 25.7384 28.3906 25.7365 28.3914 25.7346ZM28.3473 25.6811C28.3473 25.6811 28.3479 25.6814 28.3491 25.6824C28.3479 25.6817 28.3473 25.6812 28.3473 25.6811Z" fill="white"/>
</g>
<defs>
<clipPath id="clip0_4046_22895">
<rect width="60" height="45" fill="white"/>
</clipPath>
</defs>
</svg>
