<svg width="60" height="45" viewBox="0 0 60 45" fill="none" xmlns="http://www.w3.org/2000/svg">
<g clip-path="url(#clip0_4046_22910)">
<path d="M0 0H60V22.5H0V0Z" fill="#002B7F"/>
<path d="M0 22.5H60V45H0V22.5Z" fill="#CE1126"/>
<path d="M16.2281 9.17047L16.0856 13.858H11.3306C10.7456 12.718 10.2656 11.758 10.2656 10.4455C10.2656 9.35047 11.1281 8.48047 12.3656 8.48047C13.6781 8.48047 15.1256 8.92297 16.2281 9.17047V9.17047Z" fill="#FFD83D"/>
<path d="M10.8359 9.38891V12.0889ZM11.2109 9.11141V12.7114ZM11.6009 8.92391V13.2139ZM11.9759 8.83391V12.2014ZM12.3584 8.81891V12.2164ZM12.7409 8.69141V12.2164ZM13.1234 8.69141V12.2164ZM13.5059 8.72891V12.2539ZM13.8884 8.76641V12.2839ZM14.2709 8.98391V12.5089ZM14.6459 9.02141V12.9889ZM15.0359 9.02141V12.5464ZM15.4109 9.02141V12.5464Z" fill="#FFD83D"/>
<path fill-rule="evenodd" clip-rule="evenodd" d="M12.7347 8.63672C12.7658 8.63672 12.7909 8.6619 12.7909 8.69297V12.218C12.7909 12.249 12.7658 12.2742 12.7347 12.2742C12.7036 12.2742 12.6784 12.249 12.6784 12.218V8.69297C12.6784 8.6619 12.7036 8.63672 12.7347 8.63672ZM13.1172 8.63672C13.1483 8.63672 13.1734 8.6619 13.1734 8.69297V12.218C13.1734 12.249 13.1483 12.2742 13.1172 12.2742C13.0861 12.2742 13.0609 12.249 13.0609 12.218V8.69297C13.0609 8.6619 13.0861 8.63672 13.1172 8.63672ZM13.4997 8.67422C13.5308 8.67422 13.5559 8.6994 13.5559 8.73047V12.2555C13.5559 12.2865 13.5308 12.3117 13.4997 12.3117C13.4686 12.3117 13.4434 12.2865 13.4434 12.2555V8.73047C13.4434 8.6994 13.4686 8.67422 13.4997 8.67422ZM13.8822 8.71172C13.9133 8.71172 13.9384 8.7369 13.9384 8.76797V12.2855C13.9384 12.3165 13.9133 12.3417 13.8822 12.3417C13.8511 12.3417 13.8259 12.3165 13.8259 12.2855V8.76797C13.8259 8.7369 13.8511 8.71172 13.8822 8.71172ZM12.3522 8.76422C12.3833 8.76422 12.4084 8.7894 12.4084 8.82047V12.218C12.4084 12.249 12.3833 12.2742 12.3522 12.2742C12.3211 12.2742 12.2959 12.249 12.2959 12.218V8.82047C12.2959 8.7894 12.3211 8.76422 12.3522 8.76422ZM11.9697 8.77922C12.0008 8.77922 12.0259 8.8044 12.0259 8.83547V12.203C12.0259 12.234 12.0008 12.2592 11.9697 12.2592C11.9386 12.2592 11.9134 12.234 11.9134 12.203V8.83547C11.9134 8.8044 11.9386 8.77922 11.9697 8.77922ZM11.5947 8.86922C11.6258 8.86922 11.6509 8.8944 11.6509 8.92547V13.2155C11.6509 13.2465 11.6258 13.2717 11.5947 13.2717C11.5636 13.2717 11.5384 13.2465 11.5384 13.2155V8.92547C11.5384 8.8944 11.5636 8.86922 11.5947 8.86922ZM14.2647 8.92922C14.2958 8.92922 14.3209 8.9544 14.3209 8.98547V12.5105C14.3209 12.5415 14.2958 12.5667 14.2647 12.5667C14.2336 12.5667 14.2084 12.5415 14.2084 12.5105V8.98547C14.2084 8.9544 14.2336 8.92922 14.2647 8.92922ZM14.6397 8.96672C14.6708 8.96672 14.6959 8.9919 14.6959 9.02297V12.9905C14.6959 13.0215 14.6708 13.0467 14.6397 13.0467C14.6086 13.0467 14.5834 13.0215 14.5834 12.9905V9.02297C14.5834 8.9919 14.6086 8.96672 14.6397 8.96672ZM15.0297 8.96672C15.0608 8.96672 15.0859 8.9919 15.0859 9.02297V12.548C15.0859 12.579 15.0608 12.6042 15.0297 12.6042C14.9986 12.6042 14.9734 12.579 14.9734 12.548V9.02297C14.9734 8.9919 14.9986 8.96672 15.0297 8.96672ZM15.4047 8.96672C15.4358 8.96672 15.4609 8.9919 15.4609 9.02297V12.548C15.4609 12.579 15.4358 12.6042 15.4047 12.6042C15.3736 12.6042 15.3484 12.579 15.3484 12.548V9.02297C15.3484 8.9919 15.3736 8.96672 15.4047 8.96672ZM11.2047 9.05672C11.2358 9.05672 11.2609 9.0819 11.2609 9.11297V12.713C11.2609 12.744 11.2358 12.7692 11.2047 12.7692C11.1736 12.7692 11.1484 12.744 11.1484 12.713V9.11297C11.1484 9.0819 11.1736 9.05672 11.2047 9.05672ZM10.8297 9.33422C10.8608 9.33422 10.8859 9.3594 10.8859 9.39047V12.0905C10.8859 12.1215 10.8608 12.1467 10.8297 12.1467C10.7986 12.1467 10.7734 12.1215 10.7734 12.0905V9.39047C10.7734 9.3594 10.7986 9.33422 10.8297 9.33422Z" fill="black"/>
<path d="M13.2231 8.85156C14.0331 8.97906 15.8031 9.81156 15.6006 10.9291C15.3156 12.5191 14.3856 11.8816 13.1556 11.6566L12.2256 11.9641C11.8881 12.3016 11.4006 12.6166 11.0706 12.2041H10.5156V14.3641H16.6206V9.15156L13.2231 8.85156Z" fill="black"/>
<path fill-rule="evenodd" clip-rule="evenodd" d="M13.1689 8.84237C13.1725 8.81228 13.1994 8.79052 13.2296 8.79319L16.6271 9.09319C16.6562 9.09575 16.6784 9.12007 16.6784 9.14922V14.3617C16.6784 14.3928 16.6533 14.418 16.6222 14.418H10.5172C10.4861 14.418 10.4609 14.3928 10.4609 14.3617V12.2017C10.4609 12.1707 10.4861 12.1455 10.5172 12.1455H11.0722C11.0893 12.1455 11.1054 12.1532 11.1161 12.1666C11.1918 12.2612 11.2738 12.3111 11.3575 12.331C11.4419 12.3511 11.5332 12.342 11.6289 12.3097C11.8218 12.2445 12.0206 12.0887 12.1874 11.9219C12.1936 11.9157 12.2012 11.9111 12.2095 11.9083L13.1395 11.6008C13.1485 11.5979 13.158 11.5972 13.1673 11.5989C13.406 11.6426 13.6342 11.7018 13.8463 11.7569C13.9096 11.7733 13.9715 11.7893 14.0318 11.8045C14.2967 11.8711 14.5303 11.9203 14.7326 11.9149C14.9321 11.9095 15.0975 11.8513 15.2314 11.7049C15.3675 11.5559 15.4764 11.3098 15.5468 10.9168L15.5468 10.9167C15.6418 10.3927 15.2757 9.924 14.7608 9.56277C14.2491 9.20372 13.6121 8.96714 13.2159 8.90479C13.186 8.90007 13.1652 8.87247 13.1689 8.84237ZM13.8371 8.95977C14.1608 9.07918 14.5154 9.25314 14.8254 9.47068C15.3474 9.83693 15.7651 10.3433 15.6575 10.9367C15.5855 11.3387 15.4713 11.6091 15.3144 11.7808C15.1553 11.9549 14.9579 12.0214 14.7356 12.0273C14.516 12.0332 14.2686 11.9801 14.0043 11.9136C13.9424 11.898 13.8795 11.8817 13.8155 11.8651C13.6083 11.8113 13.3903 11.7547 13.1612 11.7122L12.2575 12.011C12.0883 12.1785 11.8785 12.3441 11.6649 12.4163C11.5552 12.4533 11.4417 12.4667 11.3314 12.4404C11.2275 12.4157 11.1309 12.3568 11.0458 12.258H10.5734V14.3055H16.5659V9.20072L13.8371 8.95977Z" fill="black"/>
<path d="M15.9613 8.84047C16.1642 8.84047 16.3288 8.67593 16.3288 8.47297C16.3288 8.27 16.1642 8.10547 15.9613 8.10547C15.7583 8.10547 15.5938 8.27 15.5938 8.47297C15.5938 8.67593 15.7583 8.84047 15.9613 8.84047Z" fill="#FFD83D"/>
<path fill-rule="evenodd" clip-rule="evenodd" d="M15.9581 8.18125C15.7966 8.18125 15.6656 8.31221 15.6656 8.47375C15.6656 8.63529 15.7966 8.76625 15.9581 8.76625C16.1197 8.76625 16.2506 8.63529 16.2506 8.47375C16.2506 8.31221 16.1197 8.18125 15.9581 8.18125ZM15.5156 8.47375C15.5156 8.22936 15.7137 8.03125 15.9581 8.03125C16.2025 8.03125 16.4006 8.22936 16.4006 8.47375C16.4006 8.71814 16.2025 8.91625 15.9581 8.91625C15.7137 8.91625 15.5156 8.71814 15.5156 8.47375Z" fill="black"/>
<path d="M15.1253 8.64125C15.3283 8.64125 15.4928 8.47671 15.4928 8.27375C15.4928 8.07079 15.3283 7.90625 15.1253 7.90625C14.9223 7.90625 14.7578 8.07079 14.7578 8.27375C14.7578 8.47671 14.9223 8.64125 15.1253 8.64125Z" fill="#FFD83D"/>
<path fill-rule="evenodd" clip-rule="evenodd" d="M15.1222 7.97813C14.9606 7.97813 14.8297 8.10908 14.8297 8.27063C14.8297 8.43217 14.9606 8.56312 15.1222 8.56312C15.2837 8.56312 15.4147 8.43217 15.4147 8.27063C15.4147 8.10908 15.2837 7.97813 15.1222 7.97813ZM14.6797 8.27063C14.6797 8.02624 14.8778 7.82812 15.1222 7.82812C15.3666 7.82812 15.5647 8.02624 15.5647 8.27063C15.5647 8.51501 15.3666 8.71312 15.1222 8.71312C14.8778 8.71312 14.6797 8.51501 14.6797 8.27063Z" fill="black"/>
<path d="M14.2816 8.43031C14.4845 8.43031 14.6491 8.26578 14.6491 8.06281C14.6491 7.85985 14.4845 7.69531 14.2816 7.69531C14.0786 7.69531 13.9141 7.85985 13.9141 8.06281C13.9141 8.26578 14.0786 8.43031 14.2816 8.43031Z" fill="#FFD83D"/>
<path fill-rule="evenodd" clip-rule="evenodd" d="M14.2784 7.77109C14.1169 7.77109 13.9859 7.90205 13.9859 8.06359C13.9859 8.22514 14.1169 8.35609 14.2784 8.35609C14.44 8.35609 14.5709 8.22514 14.5709 8.06359C14.5709 7.90205 14.44 7.77109 14.2784 7.77109ZM13.8359 8.06359C13.8359 7.81921 14.0341 7.62109 14.2784 7.62109C14.5228 7.62109 14.7209 7.81921 14.7209 8.06359C14.7209 8.30798 14.5228 8.50609 14.2784 8.50609C14.0341 8.50609 13.8359 8.30798 13.8359 8.06359Z" fill="black"/>
<path d="M13.43 8.28578C13.633 8.28578 13.7975 8.12125 13.7975 7.91828C13.7975 7.71532 13.633 7.55078 13.43 7.55078C13.227 7.55078 13.0625 7.71532 13.0625 7.91828C13.0625 8.12125 13.227 8.28578 13.43 8.28578Z" fill="#FFD83D"/>
<path fill-rule="evenodd" clip-rule="evenodd" d="M13.4347 7.62656C13.2731 7.62656 13.1422 7.75752 13.1422 7.91906C13.1422 8.08061 13.2731 8.21156 13.4347 8.21156C13.5962 8.21156 13.7272 8.08061 13.7272 7.91906C13.7272 7.75752 13.5962 7.62656 13.4347 7.62656ZM12.9922 7.91906C12.9922 7.67468 13.1903 7.47656 13.4347 7.47656C13.6791 7.47656 13.8772 7.67468 13.8772 7.91906C13.8772 8.16345 13.6791 8.36156 13.4347 8.36156C13.1903 8.36156 12.9922 8.16345 12.9922 7.91906Z" fill="black"/>
<path d="M12.5863 8.20375C12.7892 8.20375 12.9538 8.03921 12.9538 7.83625C12.9538 7.63329 12.7892 7.46875 12.5863 7.46875C12.3833 7.46875 12.2188 7.63329 12.2188 7.83625C12.2188 8.03921 12.3833 8.20375 12.5863 8.20375Z" fill="#FFD83D"/>
<path fill-rule="evenodd" clip-rule="evenodd" d="M12.5831 7.54453C12.4216 7.54453 12.2906 7.67549 12.2906 7.83703C12.2906 7.99857 12.4216 8.12953 12.5831 8.12953C12.7447 8.12953 12.8756 7.99857 12.8756 7.83703C12.8756 7.67549 12.7447 7.54453 12.5831 7.54453ZM12.1406 7.83703C12.1406 7.59265 12.3387 7.39453 12.5831 7.39453C12.8275 7.39453 13.0256 7.59265 13.0256 7.83703C13.0256 8.08142 12.8275 8.27953 12.5831 8.27953C12.3387 8.27953 12.1406 8.08142 12.1406 7.83703Z" fill="black"/>
<path d="M11.7581 8.25063C11.9611 8.25063 12.1256 8.08609 12.1256 7.88313C12.1256 7.68016 11.9611 7.51562 11.7581 7.51562C11.5552 7.51562 11.3906 7.68016 11.3906 7.88313C11.3906 8.08609 11.5552 8.25063 11.7581 8.25063Z" fill="#FFD83D"/>
<path fill-rule="evenodd" clip-rule="evenodd" d="M11.755 7.59141C11.5935 7.59141 11.4625 7.72236 11.4625 7.88391C11.4625 8.04545 11.5935 8.17641 11.755 8.17641C11.9165 8.17641 12.0475 8.04545 12.0475 7.88391C12.0475 7.72236 11.9165 7.59141 11.755 7.59141ZM11.3125 7.88391C11.3125 7.63952 11.5106 7.44141 11.755 7.44141C11.9994 7.44141 12.1975 7.63952 12.1975 7.88391C12.1975 8.12829 11.9994 8.32641 11.755 8.32641C11.5106 8.32641 11.3125 8.12829 11.3125 7.88391Z" fill="black"/>
<path d="M10.9612 8.52016C11.1642 8.52016 11.3288 8.35562 11.3288 8.15266C11.3288 7.94969 11.1642 7.78516 10.9612 7.78516C10.7583 7.78516 10.5938 7.94969 10.5938 8.15266C10.5938 8.35562 10.7583 8.52016 10.9612 8.52016Z" fill="#FFD83D"/>
<path fill-rule="evenodd" clip-rule="evenodd" d="M10.9659 7.86094C10.8044 7.86094 10.6734 7.99189 10.6734 8.15344C10.6734 8.31498 10.8044 8.44594 10.9659 8.44594C11.1275 8.44594 11.2584 8.31498 11.2584 8.15344C11.2584 7.99189 11.1275 7.86094 10.9659 7.86094ZM10.5234 8.15344C10.5234 7.90905 10.7216 7.71094 10.9659 7.71094C11.2103 7.71094 11.4084 7.90905 11.4084 8.15344C11.4084 8.39782 11.2103 8.59594 10.9659 8.59594C10.7216 8.59594 10.5234 8.39782 10.5234 8.15344Z" fill="black"/>
<path d="M10.2972 9.01625C10.5002 9.01625 10.6647 8.85171 10.6647 8.64875C10.6647 8.44579 10.5002 8.28125 10.2972 8.28125C10.0942 8.28125 9.92969 8.44579 9.92969 8.64875C9.92969 8.85171 10.0942 9.01625 10.2972 9.01625Z" fill="#FFD83D"/>
<path fill-rule="evenodd" clip-rule="evenodd" d="M10.2941 8.35313C10.1325 8.35313 10.0016 8.48408 10.0016 8.64563C10.0016 8.80717 10.1325 8.93812 10.2941 8.93812C10.4556 8.93812 10.5866 8.80717 10.5866 8.64563C10.5866 8.48408 10.4556 8.35313 10.2941 8.35313ZM9.85156 8.64563C9.85156 8.40124 10.0497 8.20312 10.2941 8.20312C10.5384 8.20312 10.7366 8.40124 10.7366 8.64563C10.7366 8.89001 10.5384 9.08812 10.2941 9.08812C10.0497 9.08812 9.85156 8.89001 9.85156 8.64563Z" fill="black"/>
<path d="M9.82063 9.69594C10.0236 9.69594 10.1881 9.5314 10.1881 9.32844C10.1881 9.12547 10.0236 8.96094 9.82063 8.96094C9.61766 8.96094 9.45312 9.12547 9.45312 9.32844C9.45312 9.5314 9.61766 9.69594 9.82063 9.69594Z" fill="#FFD83D"/>
<path fill-rule="evenodd" clip-rule="evenodd" d="M9.82531 9.03672C9.66377 9.03672 9.53281 9.16768 9.53281 9.32922C9.53281 9.49076 9.66377 9.62172 9.82531 9.62172C9.98686 9.62172 10.1178 9.49076 10.1178 9.32922C10.1178 9.16768 9.98686 9.03672 9.82531 9.03672ZM9.38281 9.32922C9.38281 9.08483 9.58093 8.88672 9.82531 8.88672C10.0697 8.88672 10.2678 9.08483 10.2678 9.32922C10.2678 9.5736 10.0697 9.77172 9.82531 9.77172C9.58093 9.77172 9.38281 9.5736 9.38281 9.32922Z" fill="black"/>
<path d="M9.59406 10.5084C9.79703 10.5084 9.96156 10.3439 9.96156 10.1409C9.96156 9.93797 9.79703 9.77344 9.59406 9.77344C9.3911 9.77344 9.22656 9.93797 9.22656 10.1409C9.22656 10.3439 9.3911 10.5084 9.59406 10.5084Z" fill="#FFD83D"/>
<path fill-rule="evenodd" clip-rule="evenodd" d="M9.59094 9.84531C9.42939 9.84531 9.29844 9.97627 9.29844 10.1378C9.29844 10.2994 9.42939 10.4303 9.59094 10.4303C9.75248 10.4303 9.88344 10.2994 9.88344 10.1378C9.88344 9.97627 9.75248 9.84531 9.59094 9.84531ZM9.14844 10.1378C9.14844 9.89343 9.34655 9.69531 9.59094 9.69531C9.83532 9.69531 10.0334 9.89343 10.0334 10.1378C10.0334 10.3822 9.83532 10.5803 9.59094 10.5803C9.34655 10.5803 9.14844 10.3822 9.14844 10.1378Z" fill="black"/>
<path d="M9.60188 11.3405C9.80484 11.3405 9.96937 11.1759 9.96937 10.973C9.96937 10.77 9.80484 10.6055 9.60188 10.6055C9.39891 10.6055 9.23438 10.77 9.23438 10.973C9.23438 11.1759 9.39891 11.3405 9.60188 11.3405Z" fill="#FFD83D"/>
<path fill-rule="evenodd" clip-rule="evenodd" d="M9.59875 10.6813C9.43721 10.6813 9.30625 10.8122 9.30625 10.9738C9.30625 11.1353 9.43721 11.2663 9.59875 11.2663C9.76029 11.2663 9.89125 11.1353 9.89125 10.9738C9.89125 10.8122 9.76029 10.6813 9.59875 10.6813ZM9.15625 10.9738C9.15625 10.7294 9.35436 10.5312 9.59875 10.5312C9.84314 10.5312 10.0412 10.7294 10.0412 10.9738C10.0412 11.2181 9.84314 11.4163 9.59875 11.4163C9.35436 11.4163 9.15625 11.2181 9.15625 10.9738Z" fill="black"/>
<path d="M9.76594 12.1569C9.9689 12.1569 10.1334 11.9923 10.1334 11.7894C10.1334 11.5864 9.9689 11.4219 9.76594 11.4219C9.56297 11.4219 9.39844 11.5864 9.39844 11.7894C9.39844 11.9923 9.56297 12.1569 9.76594 12.1569Z" fill="#FFD83D"/>
<path fill-rule="evenodd" clip-rule="evenodd" d="M9.76281 11.4977C9.60127 11.4977 9.47031 11.6286 9.47031 11.7902C9.47031 11.9517 9.60127 12.0827 9.76281 12.0827C9.92436 12.0827 10.0553 11.9517 10.0553 11.7902C10.0553 11.6286 9.92436 11.4977 9.76281 11.4977ZM9.32031 11.7902C9.32031 11.5458 9.51843 11.3477 9.76281 11.3477C10.0072 11.3477 10.2053 11.5458 10.2053 11.7902C10.2053 12.0345 10.0072 12.2327 9.76281 12.2327C9.51843 12.2327 9.32031 12.0345 9.32031 11.7902Z" fill="black"/>
<path d="M16.1206 8.96344L16.0831 9.45094C15.1606 9.30094 13.8556 8.79094 12.6331 8.79094C11.5081 8.79094 10.6381 9.24094 10.6381 10.3809C10.6381 11.4984 11.1106 12.5184 11.7406 13.5534L11.0881 13.8534C10.5031 12.7284 10.0156 11.7534 10.0156 10.4484C10.0156 9.35344 10.8781 8.27344 12.3631 8.27344C13.6756 8.27344 15.0181 8.72344 16.1206 8.96344V8.96344Z" fill="#FFD83D"/>
<path fill-rule="evenodd" clip-rule="evenodd" d="M12.3678 8.34531C10.9252 8.34531 10.0953 9.39075 10.0953 10.4453C10.0953 11.7058 10.5562 12.6538 11.1264 13.7523L11.6376 13.5173C11.0274 12.5034 10.5678 11.4903 10.5678 10.3778C10.5678 9.78593 10.7952 9.36461 11.1749 9.09422C11.5507 8.82666 12.0671 8.71281 12.6378 8.71281C13.2585 8.71281 13.8976 8.84218 14.4932 8.98873C14.6772 9.03401 14.8565 9.08074 15.0298 9.12592C15.3887 9.21949 15.7221 9.30641 16.0193 9.35997L16.0455 9.01953C15.7876 8.96204 15.5175 8.89405 15.2393 8.82398L15.2303 8.82171C14.9316 8.74644 14.6234 8.66879 14.309 8.59851C13.6736 8.45648 13.016 8.34531 12.3678 8.34531ZM16.1253 8.96031L16.1413 8.88703C15.867 8.82733 15.5776 8.75452 15.276 8.67852L15.2662 8.67605C14.9679 8.60091 14.6581 8.52285 14.3417 8.45212C13.7021 8.30915 13.0321 8.19531 12.3678 8.19531C10.8404 8.19531 9.94531 9.30988 9.94531 10.4453C9.94531 11.7707 10.4416 12.7605 11.0263 13.8849C11.0447 13.9204 11.0878 13.9352 11.1241 13.9185L11.7766 13.6185C11.7961 13.6095 11.8108 13.5927 11.817 13.5722C11.8233 13.5518 11.8205 13.5296 11.8094 13.5113C11.1812 12.4793 10.7178 11.474 10.7178 10.3778C10.7178 9.82969 10.9254 9.45601 11.2619 9.21641C11.6024 8.97396 12.0835 8.86281 12.6378 8.86281C13.2396 8.86281 13.8643 8.98845 14.4574 9.13439C14.6357 9.17827 14.8118 9.22417 14.9835 9.26893C15.379 9.37201 15.7515 9.46911 16.0758 9.52184C16.0965 9.52521 16.1177 9.51974 16.1342 9.50677C16.1507 9.49379 16.161 9.47449 16.1626 9.45356L16.2001 8.96606L16.1253 8.96031Z" fill="black"/>
<path d="M16.6456 3.98016L16.2556 4.70766L16.6456 5.42766L17.0281 4.70766L16.6456 3.97266V3.98016ZM16.6456 5.81016L16.2556 6.53016L16.6456 7.25766L17.0206 6.52266L16.6381 5.80266L16.6456 5.81016ZM15.2656 5.62266L15.8731 6.00516L16.4806 5.62266L15.8806 5.23266L15.2656 5.62266ZM16.8031 5.62266L17.4106 6.00516L18.0256 5.62266L17.4106 5.23266L16.8106 5.62266H16.8031Z" fill="#FFD83D"/>
<path fill-rule="evenodd" clip-rule="evenodd" d="M16.6325 3.90059C16.6661 3.89238 16.7009 3.90817 16.7168 3.93882L17.0993 4.67382C17.1107 4.69572 17.1106 4.72183 17.099 4.74363L16.7165 5.46363C16.7036 5.48803 16.6782 5.50333 16.6506 5.50344C16.623 5.50356 16.5975 5.48846 16.5844 5.46417L16.1944 4.74417C16.1823 4.72198 16.1823 4.69524 16.1942 4.67301L16.5766 3.95978C16.5818 3.93119 16.6034 3.9077 16.6325 3.90059ZM16.6513 4.13782L16.3455 4.70826L16.6497 5.26979L16.9481 4.70808L16.6513 4.13782ZM15.8451 5.17011C15.8699 5.15439 15.9016 5.15457 15.9262 5.17056L16.5262 5.56056C16.5476 5.5745 16.5605 5.59841 16.5603 5.62399C16.5601 5.64956 16.5469 5.67328 16.5253 5.68691L15.9178 6.06941C15.8934 6.08479 15.8623 6.08479 15.8379 6.06941L15.2304 5.68691C15.2086 5.6732 15.1954 5.64929 15.1953 5.62357C15.1953 5.59784 15.2084 5.57388 15.2301 5.56011L15.8451 5.17011ZM17.3744 5.17056C17.399 5.15457 17.4307 5.15439 17.4555 5.17011L18.0705 5.56011C18.0923 5.57392 18.1054 5.59797 18.1053 5.62377C18.1052 5.64957 18.0918 5.67351 18.0699 5.68713L17.4549 6.06963C17.4305 6.08479 17.3996 6.08471 17.3754 6.06941L16.7679 5.68691C16.7396 5.66911 16.7265 5.63475 16.7358 5.60265C16.7433 5.57653 16.7641 5.55703 16.7897 5.55067L17.3744 5.17056ZM16.9508 5.62484L17.4156 5.91747L17.8893 5.62283L17.4158 5.32257L16.9508 5.62484ZM15.4107 5.62322L15.8778 5.91732L16.3461 5.62244L15.8848 5.32257L15.4107 5.62322ZM16.5982 5.74315C16.6281 5.72106 16.6696 5.72415 16.6958 5.75041L16.7033 5.75791C16.7141 5.76862 16.721 5.78196 16.7238 5.79608L17.0915 6.48826C17.103 6.50987 17.1032 6.53573 17.0921 6.55753L16.7171 7.29253C16.7044 7.31739 16.679 7.33316 16.6511 7.33344C16.6232 7.33372 16.5974 7.31848 16.5842 7.29388L16.1942 6.56638C16.1823 6.54414 16.1823 6.51741 16.1944 6.49522L16.5678 5.80573C16.5671 5.78183 16.5779 5.75819 16.5982 5.74315ZM16.6479 5.97288L16.3455 6.53113L16.6487 7.09664L16.9408 6.52414L16.6479 5.97288Z" fill="black"/>
<path d="M16.6441 5.92484C16.8056 5.92484 16.9366 5.79389 16.9366 5.63234C16.9366 5.4708 16.8056 5.33984 16.6441 5.33984C16.4825 5.33984 16.3516 5.4708 16.3516 5.63234C16.3516 5.79389 16.4825 5.92484 16.6441 5.92484Z" fill="#FFD83D"/>
<path fill-rule="evenodd" clip-rule="evenodd" d="M16.6487 5.41172C16.5286 5.41172 16.4313 5.5091 16.4313 5.62922C16.4313 5.74934 16.5286 5.84672 16.6487 5.84672C16.7689 5.84672 16.8662 5.74934 16.8662 5.62922C16.8662 5.5091 16.7689 5.41172 16.6487 5.41172ZM16.2812 5.62922C16.2812 5.42625 16.4458 5.26172 16.6487 5.26172C16.8517 5.26172 17.0162 5.42625 17.0162 5.62922C17.0162 5.83218 16.8517 5.99672 16.6487 5.99672C16.4458 5.99672 16.2812 5.83218 16.2812 5.62922Z" fill="black"/>
<path d="M16.6469 8.28594C17.0818 8.28594 17.4344 7.93336 17.4344 7.49844C17.4344 7.06351 17.0818 6.71094 16.6469 6.71094C16.212 6.71094 15.8594 7.06351 15.8594 7.49844C15.8594 7.93336 16.212 8.28594 16.6469 8.28594Z" fill="#FFD83D"/>
<path fill-rule="evenodd" clip-rule="evenodd" d="M16.6437 6.78672C16.2502 6.78672 15.9313 7.10572 15.9313 7.49922C15.9313 7.89272 16.2502 8.21172 16.6437 8.21172C17.0373 8.21172 17.3562 7.89272 17.3562 7.49922C17.3562 7.10572 17.0373 6.78672 16.6437 6.78672ZM15.7812 7.49922C15.7812 7.02287 16.1674 6.63672 16.6437 6.63672C17.1201 6.63672 17.5062 7.02287 17.5062 7.49922C17.5062 7.97556 17.1201 8.36172 16.6437 8.36172C16.1674 8.36172 15.7812 7.97556 15.7812 7.49922Z" fill="black"/>
<path fill-rule="evenodd" clip-rule="evenodd" d="M16.4469 6.68359C16.478 6.68359 16.5031 6.70878 16.5031 6.73984V7.23484C16.5031 7.26486 16.4796 7.28959 16.4496 7.29103C16.2658 7.29988 16.0827 7.31967 15.9012 7.35031C15.8706 7.35548 15.8416 7.33484 15.8364 7.30421C15.8312 7.27358 15.8519 7.24455 15.8825 7.23938C16.0507 7.21098 16.2204 7.19167 16.3906 7.18154V6.73984C16.3906 6.70878 16.4158 6.68359 16.4469 6.68359ZM16.8444 6.68359C16.8755 6.68359 16.9006 6.70878 16.9006 6.73984V7.1814C17.0734 7.19125 17.2456 7.2106 17.4162 7.23938C17.4469 7.24454 17.4675 7.27356 17.4624 7.3042C17.4572 7.33483 17.4282 7.35548 17.3975 7.35031C17.2137 7.31931 17.0281 7.29952 16.8418 7.29104C16.8118 7.28967 16.7881 7.26491 16.7881 7.23484V6.73984C16.7881 6.70878 16.8133 6.68359 16.8444 6.68359ZM16.6491 7.56859L16.6494 7.56859C16.9076 7.56859 17.1661 7.59137 17.4097 7.63706C17.4403 7.64278 17.4604 7.67218 17.4547 7.70271C17.4489 7.73324 17.4196 7.75336 17.389 7.74763C17.1527 7.70332 16.9013 7.6811 16.6495 7.68109C16.3963 7.68225 16.1435 7.70455 15.894 7.74777C15.8634 7.75307 15.8343 7.73255 15.829 7.70194C15.8237 7.67133 15.8442 7.64222 15.8748 7.63692C16.1305 7.59262 16.3896 7.56977 16.6491 7.56859Z" fill="black"/>
<path d="M15.8837 8.82422C15.8087 10.0992 15.6587 11.4117 15.1562 12.3567L15.9662 12.0267C16.2512 10.9542 16.3112 9.56672 16.3937 8.90672L15.8837 8.82422V8.82422ZM17.4137 8.82422L16.8962 8.90672C16.9862 9.56672 17.0462 10.9542 17.3237 12.0267L18.1337 12.3567C17.6387 11.4117 17.4887 10.1067 17.4137 8.82422V8.82422Z" fill="#FFD83D"/>
<path fill-rule="evenodd" clip-rule="evenodd" d="M16.8813 8.8325L17.3988 8.75L17.4106 8.82406L17.4855 8.81969C17.5605 10.103 17.7104 11.3928 18.1971 12.3218C18.2117 12.3497 18.2073 12.3837 18.1861 12.407C18.165 12.4303 18.1315 12.4379 18.1023 12.426L17.2923 12.096C17.2704 12.0871 17.254 12.0683 17.248 12.0454C17.1079 11.5037 17.023 10.8843 16.962 10.3199C16.9354 10.0743 16.9135 9.84039 16.8935 9.62732C16.8672 9.34748 16.8443 9.10365 16.8188 8.9167C16.8133 8.87631 16.8411 8.83892 16.8813 8.8325ZM17.3407 8.91116L16.9769 8.96916C16.999 9.14754 17.02 9.37025 17.0434 9.6189C17.0634 9.83201 17.0852 10.0642 17.1111 10.3038C17.1706 10.8535 17.2521 11.4492 17.3839 11.9714L17.9765 12.2128C17.5528 11.2921 17.4126 10.089 17.3407 8.91116ZM15.8926 8.75003L16.4026 8.83253C16.4425 8.83897 16.4701 8.87581 16.465 8.91587C16.4442 9.08241 16.4247 9.29834 16.4024 9.54555C16.3375 10.2628 16.2488 11.2435 16.0356 12.0458C16.0296 12.0686 16.0132 12.0871 15.9914 12.096L15.1814 12.426C15.1522 12.4379 15.1186 12.4303 15.0975 12.4068C15.0763 12.3834 15.0721 12.3492 15.0869 12.3214C15.5808 11.3926 15.7307 10.0956 15.8058 8.81966L15.8806 8.82406L15.8926 8.75003ZM15.9505 8.91135C15.8787 10.0821 15.7383 11.2908 15.3088 12.2122L15.9001 11.9713C16.1028 11.1897 16.1877 10.251 16.2515 9.54595C16.2713 9.32733 16.289 9.13117 16.3076 8.96911L15.9505 8.91135Z" fill="black"/>
<path d="M16.6497 11.6016C15.6747 11.6016 14.9622 12.0516 14.9247 13.2216C14.6847 12.8016 13.6872 11.4966 12.7497 11.6691C12.1947 11.7741 11.6997 12.5466 11.7897 13.4241C11.3247 12.1041 9.98219 11.8866 8.99219 12.6741C9.86969 13.3866 10.2597 15.5091 10.9947 16.4241H22.2972C23.0322 15.5091 23.4222 13.3866 24.2997 12.6741C23.3172 11.8866 21.9672 12.1041 21.5097 13.4241C21.5847 12.5466 21.0972 11.7741 20.5347 11.6691C19.6047 11.4966 18.6072 12.8016 18.3672 13.2216C18.3297 12.0591 17.6172 11.6016 16.6422 11.6016H16.6497Z" fill="#FFD83D"/>
<path fill-rule="evenodd" clip-rule="evenodd" d="M16.6377 11.5274C16.6382 11.5273 16.6386 11.5273 16.6391 11.5273H16.6466M16.6479 11.5274C17.1424 11.5287 17.5808 11.6457 17.9018 11.9193C18.1833 12.1592 18.3661 12.5124 18.4222 12.9912C18.5814 12.7594 18.835 12.4425 19.1388 12.1682C19.537 11.8087 20.043 11.5029 20.5452 11.5961L20.5453 11.5961C20.855 11.6539 21.1334 11.8923 21.323 12.2201C21.4614 12.4592 21.5554 12.7502 21.5817 13.0654C21.8404 12.5842 22.2389 12.2914 22.6876 12.1865C23.2305 12.0596 23.8368 12.2102 24.3435 12.6163C24.3612 12.6305 24.3715 12.6519 24.3716 12.6746C24.3716 12.6973 24.3614 12.7188 24.3438 12.7331C24.1355 12.9022 23.9522 13.1586 23.7826 13.4687C23.6134 13.7781 23.4608 14.1354 23.3113 14.5022C23.2761 14.5887 23.241 14.6758 23.2059 14.7629C23.0928 15.0436 22.9798 15.3241 22.8619 15.5841C22.7076 15.9245 22.5423 16.2356 22.3525 16.4718C22.3383 16.4895 22.3168 16.4998 22.2941 16.4998H10.9916C10.9688 16.4998 10.9473 16.4895 10.9331 16.4718C10.7433 16.2356 10.5781 15.9245 10.4237 15.5841C10.3058 15.3241 10.1928 15.0436 10.0797 14.7629C10.0446 14.6758 10.0095 14.5887 9.97429 14.5022C9.82484 14.1354 9.67222 13.7781 9.50299 13.4687C9.33341 13.1586 9.1501 12.9022 8.94179 12.7331C8.92415 12.7187 8.91395 12.6972 8.91406 12.6745C8.91418 12.6517 8.92459 12.6303 8.94237 12.6161C9.45268 12.2102 10.0588 12.0596 10.6018 12.1865C11.0489 12.291 11.446 12.5821 11.7068 13.06C11.7303 12.7468 11.8229 12.4578 11.9597 12.2202C12.1484 11.8924 12.4267 11.654 12.7326 11.5962L12.733 11.5961C13.2387 11.503 13.7465 11.8085 14.1458 12.1682C14.4503 12.4424 14.704 12.7592 14.8632 12.991C14.9192 12.5093 15.1021 12.1558 15.384 11.9164C15.7051 11.6437 16.1435 11.5287 16.6377 11.5274M16.6428 11.6773C16.1673 11.6779 15.7667 11.7882 15.481 12.0308C15.1964 12.2725 15.0148 12.6552 14.9965 13.2247C14.9954 13.2583 14.9722 13.287 14.9396 13.2951C14.9071 13.3032 14.8731 13.2887 14.8564 13.2596C14.74 13.0558 14.4355 12.631 14.0454 12.2796C13.6517 11.925 13.192 11.6642 12.7603 11.7436C12.5113 11.7908 12.2647 11.9911 12.0897 12.2951C11.9156 12.5975 11.8178 12.9943 11.8612 13.4172C11.865 13.455 11.84 13.4897 11.803 13.498C11.7659 13.5063 11.7284 13.4856 11.7158 13.4498C11.491 12.8115 11.0578 12.4471 10.5676 12.3326C10.1 12.2233 9.57092 12.3392 9.10782 12.6785C9.30742 12.8622 9.47949 13.1131 9.63459 13.3967C9.80825 13.7142 9.96359 14.0784 10.1132 14.4456C10.149 14.5334 10.1844 14.6214 10.2197 14.709C10.3325 14.9891 10.4439 15.2654 10.5603 15.5221C10.7068 15.8452 10.859 16.1318 11.0279 16.3498H22.2577C22.4266 16.1318 22.5788 15.8452 22.7253 15.5221C22.8417 15.2654 22.9531 14.989 23.0659 14.709C23.1012 14.6214 23.1366 14.5334 23.1724 14.4456C23.322 14.0784 23.4774 13.7142 23.651 13.3967C23.8062 13.113 23.9783 12.862 24.178 12.6783C23.7183 12.3393 23.1894 12.2233 22.7218 12.3326C22.2316 12.4471 21.7985 12.8114 21.5774 13.4494C21.565 13.4851 21.528 13.5061 21.491 13.4982C21.454 13.4903 21.4286 13.4561 21.4318 13.4185C21.468 12.9949 21.3683 12.5978 21.1932 12.2952C21.0173 11.9912 20.7706 11.7908 20.5178 11.7436C20.0901 11.6643 19.6324 11.9247 19.2393 12.2796C18.8501 12.631 18.5456 13.0558 18.4292 13.2596C18.4125 13.2887 18.3786 13.3032 18.346 13.2951C18.3134 13.287 18.2902 13.2583 18.2891 13.2248C18.2709 12.6591 18.0893 12.2762 17.8045 12.0335C17.5188 11.79 17.1181 11.6779 16.6428 11.6773Z" fill="black"/>
<path d="M22.2803 16.4227C22.2803 16.8427 19.7603 17.3002 16.6478 17.3002C13.5353 17.3002 11.0078 16.8502 11.0078 16.4227C11.0078 16.0102 13.5353 15.7852 16.6478 15.7852C19.7528 15.7852 22.2803 16.0102 22.2803 16.4227Z" fill="black"/>
<path fill-rule="evenodd" clip-rule="evenodd" d="M11.1532 16.3226C11.0817 16.366 11.0656 16.4 11.0656 16.4203C11.0656 16.4449 11.0848 16.484 11.1566 16.5348C11.2257 16.5838 11.3311 16.6344 11.4719 16.6848C11.7528 16.7854 12.1621 16.8811 12.6712 16.9639C13.6886 17.1292 15.0955 17.2416 16.6494 17.2416C18.2032 17.2416 19.6082 17.1273 20.6237 16.9611C21.1319 16.8778 21.5403 16.7819 21.8205 16.6816C21.961 16.6314 22.0662 16.5811 22.1352 16.5326C22.207 16.4821 22.2256 16.4437 22.2256 16.4203C22.2256 16.4 22.2096 16.366 22.138 16.3226C22.0694 16.2809 21.9643 16.2399 21.8234 16.2009C21.5425 16.123 21.1331 16.0566 20.6241 16.0028C19.6068 15.8953 18.2009 15.8391 16.6494 15.8391C15.0941 15.8391 13.6863 15.8953 12.6681 16.0028C12.1586 16.0566 11.749 16.123 11.4679 16.2009C11.327 16.2399 11.2219 16.2809 11.1532 16.3226ZM12.6563 15.8909C13.68 15.7828 15.0921 15.7266 16.6494 15.7266C18.2029 15.7266 19.6132 15.7828 20.6359 15.8909C21.1469 15.9449 21.5635 16.0121 21.8535 16.0925C21.998 16.1325 22.1147 16.1768 22.1964 16.2264C22.2752 16.2742 22.3381 16.3375 22.3381 16.4203C22.3381 16.5019 22.278 16.5697 22.1999 16.6246C22.1189 16.6816 22.0028 16.7359 21.8584 16.7876C21.5689 16.8912 21.1528 16.9884 20.6419 17.0721C19.6193 17.2395 18.208 17.3541 16.6494 17.3541C15.0908 17.3541 13.6777 17.2414 12.6532 17.0749C12.1413 16.9917 11.7242 16.8947 11.434 16.7907C11.2892 16.7389 11.1728 16.6842 11.0916 16.6267C11.0129 16.571 10.9531 16.5026 10.9531 16.4203C10.9531 16.3375 11.0161 16.2742 11.0949 16.2264C11.1766 16.1768 11.2933 16.1325 11.4379 16.0925C11.728 16.0121 12.1449 15.9449 12.6563 15.8909Z" fill="black"/>
<path d="M16.6453 8.8375C16.7903 8.8375 16.9078 8.71997 16.9078 8.575C16.9078 8.43003 16.7903 8.3125 16.6453 8.3125C16.5003 8.3125 16.3828 8.43003 16.3828 8.575C16.3828 8.71997 16.5003 8.8375 16.6453 8.8375Z" fill="#FFD83D"/>
<path fill-rule="evenodd" clip-rule="evenodd" d="M16.6469 8.37031C16.533 8.37031 16.4406 8.46265 16.4406 8.57656C16.4406 8.69047 16.533 8.78281 16.6469 8.78281C16.7608 8.78281 16.8531 8.69047 16.8531 8.57656C16.8531 8.46265 16.7608 8.37031 16.6469 8.37031ZM16.3281 8.57656C16.3281 8.40052 16.4708 8.25781 16.6469 8.25781C16.8229 8.25781 16.9656 8.40052 16.9656 8.57656C16.9656 8.7526 16.8229 8.89531 16.6469 8.89531C16.4708 8.89531 16.3281 8.7526 16.3281 8.57656Z" fill="black"/>
<path d="M16.6447 9.42219C16.7979 9.42219 16.9222 9.29795 16.9222 9.14469C16.9222 8.99143 16.7979 8.86719 16.6447 8.86719C16.4914 8.86719 16.3672 8.99143 16.3672 9.14469C16.3672 9.29795 16.4914 9.42219 16.6447 9.42219Z" fill="#FFD83D"/>
<path fill-rule="evenodd" clip-rule="evenodd" d="M16.6462 8.925C16.5241 8.925 16.425 9.02406 16.425 9.14625C16.425 9.26844 16.5241 9.3675 16.6462 9.3675C16.7684 9.3675 16.8675 9.26844 16.8675 9.14625C16.8675 9.02406 16.7684 8.925 16.6462 8.925ZM16.3125 9.14625C16.3125 8.96192 16.4619 8.8125 16.6462 8.8125C16.8306 8.8125 16.98 8.96192 16.98 9.14625C16.98 9.33057 16.8306 9.48 16.6462 9.48C16.4619 9.48 16.3125 9.33057 16.3125 9.14625Z" fill="black"/>
<path d="M16.6434 10.0681C16.8133 10.0681 16.9509 9.93045 16.9509 9.76062C16.9509 9.5908 16.8133 9.45312 16.6434 9.45312C16.4736 9.45312 16.3359 9.5908 16.3359 9.76062C16.3359 9.93045 16.4736 10.0681 16.6434 10.0681Z" fill="#FFD83D"/>
<path fill-rule="evenodd" clip-rule="evenodd" d="M16.645 9.51094C16.5062 9.51094 16.3938 9.62343 16.3938 9.76219C16.3938 9.90095 16.5062 10.0134 16.645 10.0134C16.7838 10.0134 16.8963 9.90095 16.8963 9.76219C16.8963 9.62343 16.7838 9.51094 16.645 9.51094ZM16.2812 9.76219C16.2812 9.56129 16.4441 9.39844 16.645 9.39844C16.8459 9.39844 17.0088 9.56129 17.0088 9.76219C17.0088 9.96308 16.8459 10.1259 16.645 10.1259C16.4441 10.1259 16.2812 9.96308 16.2812 9.76219Z" fill="black"/>
<path d="M16.6494 10.7948C16.8441 10.7948 17.0019 10.637 17.0019 10.4423C17.0019 10.2477 16.8441 10.0898 16.6494 10.0898C16.4547 10.0898 16.2969 10.2477 16.2969 10.4423C16.2969 10.637 16.4547 10.7948 16.6494 10.7948Z" fill="#FFD83D"/>
<path fill-rule="evenodd" clip-rule="evenodd" d="M16.6431 10.1477C16.4795 10.1477 16.3469 10.2803 16.3469 10.4439C16.3469 10.6075 16.4795 10.7402 16.6431 10.7402C16.8067 10.7402 16.9394 10.6075 16.9394 10.4439C16.9394 10.2803 16.8067 10.1477 16.6431 10.1477ZM16.2344 10.4439C16.2344 10.2182 16.4174 10.0352 16.6431 10.0352C16.8689 10.0352 17.0519 10.2182 17.0519 10.4439C17.0519 10.6697 16.8689 10.8527 16.6431 10.8527C16.4174 10.8527 16.2344 10.6697 16.2344 10.4439Z" fill="black"/>
<path d="M16.6481 11.5853C16.8594 11.5853 17.0306 11.4141 17.0306 11.2028C17.0306 10.9916 16.8594 10.8203 16.6481 10.8203C16.4369 10.8203 16.2656 10.9916 16.2656 11.2028C16.2656 11.4141 16.4369 11.5853 16.6481 11.5853Z" fill="#FFD83D"/>
<path fill-rule="evenodd" clip-rule="evenodd" d="M16.6497 10.8742C16.4695 10.8742 16.3234 11.0203 16.3234 11.2005C16.3234 11.3807 16.4695 11.5267 16.6497 11.5267C16.8299 11.5267 16.9759 11.3807 16.9759 11.2005C16.9759 11.0203 16.8299 10.8742 16.6497 10.8742ZM16.2109 11.2005C16.2109 10.9582 16.4074 10.7617 16.6497 10.7617C16.892 10.7617 17.0884 10.9582 17.0884 11.2005C17.0884 11.4428 16.892 11.6392 16.6497 11.6392C16.4074 11.6392 16.2109 11.4428 16.2109 11.2005Z" fill="black"/>
<path d="M16.4969 11.9375C16.4519 11.9375 16.4144 11.975 16.4219 12.0425L16.4669 12.365C16.4819 12.4775 16.5419 12.44 16.5644 12.365C16.5794 12.275 16.5719 12.215 16.5794 12.0575C16.5794 11.975 16.5344 11.9375 16.4894 11.9375H16.4969ZM16.7969 11.9375C16.7519 11.9375 16.7144 11.975 16.7144 12.0575C16.7144 12.215 16.7144 12.275 16.7294 12.3575C16.7444 12.4475 16.8044 12.4775 16.8269 12.3575L16.8644 12.0425C16.8794 11.9675 16.8344 11.9375 16.7969 11.9375ZM16.2194 11.9825C16.1995 11.9825 16.1805 11.9904 16.1664 12.0045C16.1523 12.0185 16.1444 12.0376 16.1444 12.0575C16.1444 12.1325 16.1669 12.23 16.1744 12.3425C16.1894 12.455 16.2719 12.4175 16.2794 12.3425C16.2794 12.2825 16.2944 12.1775 16.2794 12.05C16.2794 12.005 16.2644 11.9825 16.2344 11.975C16.2294 11.9744 16.2244 11.9744 16.2194 11.975V11.9825ZM17.0519 11.9825C17.0294 11.9825 17.0069 12.005 16.9994 12.0575C16.9954 12.1528 17.0004 12.2482 17.0144 12.3425C17.0144 12.4175 17.1044 12.455 17.1119 12.3425C17.1119 12.23 17.1419 12.14 17.1419 12.065C17.1419 12.02 17.1044 11.99 17.0669 11.9825C17.0619 11.9819 17.0569 11.9819 17.0519 11.9825V11.9825ZM15.8969 12.11C15.8594 12.1175 15.8219 12.1625 15.8369 12.2075C15.8594 12.305 15.8819 12.41 15.8819 12.5075C15.8819 12.59 15.9494 12.56 15.9569 12.5075C15.9628 12.4076 15.9653 12.3076 15.9644 12.2075C15.9644 12.1325 15.9269 12.1025 15.8894 12.11H15.8969ZM17.3669 12.11C17.3444 12.1175 17.3219 12.1475 17.3219 12.2075L17.3369 12.5075C17.3369 12.56 17.4119 12.59 17.4119 12.5075C17.4119 12.41 17.4269 12.305 17.4494 12.2075C17.4644 12.1625 17.4269 12.1175 17.3969 12.11C17.3895 12.1081 17.3818 12.1081 17.3744 12.11H17.3669ZM12.9419 12.125C12.8969 12.125 12.8669 12.1775 12.8969 12.2375C12.9419 12.3425 12.9944 12.4025 13.0394 12.5075C13.0769 12.605 13.1444 12.545 13.1219 12.4775L13.0169 12.2C12.9944 12.1475 12.9644 12.125 12.9419 12.125ZM20.3519 12.125C20.3219 12.125 20.2994 12.1475 20.2769 12.2C20.2094 12.3425 20.1869 12.41 20.1644 12.4775C20.1494 12.5525 20.2094 12.605 20.2544 12.5075L20.3894 12.2375C20.4194 12.1775 20.3894 12.125 20.3519 12.125ZM13.2419 12.125C13.2044 12.14 13.1894 12.1775 13.2044 12.2225C13.2494 12.3125 13.3019 12.41 13.3394 12.5075C13.3694 12.59 13.4444 12.5675 13.4144 12.4925L13.3394 12.215C13.3094 12.14 13.2644 12.1175 13.2419 12.125V12.125ZM20.0294 12.125C19.9994 12.1325 19.9694 12.1625 19.9544 12.215C19.9019 12.365 19.8944 12.41 19.8719 12.4925C19.8419 12.5675 19.9169 12.59 19.9469 12.5075L20.0819 12.2225C20.0969 12.1775 20.0819 12.14 20.0519 12.125C20.0445 12.1231 20.0368 12.1231 20.0294 12.125V12.125ZM13.6169 12.2C13.5719 12.2075 13.5419 12.2675 13.5719 12.3425C13.6019 12.4325 13.6469 12.515 13.6919 12.62C13.7369 12.725 13.8044 12.7025 13.7894 12.635C13.7669 12.5675 13.7519 12.4625 13.6994 12.2975C13.6769 12.2225 13.6469 12.1925 13.6169 12.2V12.2ZM19.6769 12.2C19.6469 12.2 19.6094 12.2225 19.5869 12.2975C19.5419 12.4625 19.5119 12.5675 19.5044 12.635C19.4819 12.71 19.5569 12.725 19.5944 12.62C19.6394 12.515 19.6844 12.4325 19.7144 12.3425C19.7444 12.2675 19.7144 12.2075 19.6769 12.2V12.2ZM12.6869 12.2525C12.6419 12.2525 12.6119 12.3275 12.6344 12.38C12.6719 12.455 12.7019 12.485 12.7394 12.575C12.7844 12.665 12.8294 12.5975 12.8144 12.5375C12.7919 12.4775 12.7694 12.41 12.7544 12.3275C12.7394 12.2675 12.7094 12.2525 12.6794 12.2525H12.6869ZM20.6069 12.2525C20.5769 12.2525 20.5544 12.2675 20.5319 12.3275L20.4794 12.5375C20.4644 12.5975 20.5094 12.665 20.5544 12.575C20.5919 12.485 20.6144 12.4625 20.6594 12.38C20.6819 12.3275 20.6444 12.26 20.6069 12.2525V12.2525ZM15.5819 12.4625C15.5294 12.4625 15.4844 12.5225 15.5069 12.575C15.5219 12.665 15.5669 12.74 15.5894 12.8525C15.6194 12.95 15.6869 12.905 15.6794 12.8375C15.674 12.7367 15.6614 12.6365 15.6419 12.5375C15.6269 12.485 15.6044 12.4625 15.5744 12.4625H15.5819ZM17.7119 12.4625C17.6894 12.4625 17.6594 12.485 17.6519 12.5375C17.6299 12.6363 17.6148 12.7366 17.6069 12.8375C17.6069 12.905 17.6744 12.95 17.6969 12.8525L17.7869 12.575C17.8019 12.5225 17.7569 12.4625 17.7119 12.4625V12.4625ZM16.6469 12.5525C16.5869 12.5525 16.5794 12.6275 16.5794 12.68C16.5748 12.8508 16.5229 13.017 16.4294 13.16C16.3544 13.25 16.2569 13.2275 16.1669 13.175C16.0797 13.1275 15.9969 13.0722 15.9194 13.01C15.8144 12.935 15.7394 12.98 15.8594 13.1525C16.2044 13.6475 16.5794 14.0675 16.5794 14.8775C16.5794 14.975 16.6019 15.005 16.6469 15.005C16.6919 15.005 16.7069 14.975 16.7069 14.87C16.7069 14.0675 17.0819 13.6475 17.4269 13.145C17.5469 12.98 17.4719 12.935 17.3744 13.01C17.2973 13.0727 17.2144 13.1279 17.1269 13.175C17.0294 13.2275 16.9319 13.25 16.8644 13.16C16.7709 13.017 16.719 12.8508 16.7144 12.68C16.7069 12.6275 16.6994 12.5525 16.6394 12.5525H16.6469ZM13.9994 12.4325C13.9945 12.4317 13.9894 12.4317 13.9844 12.4325C13.9619 12.44 13.9544 12.4625 13.9619 12.5075L14.0444 12.8C14.0669 12.875 14.1494 12.8525 14.1344 12.7625L14.0894 12.53C14.0744 12.47 14.0294 12.4325 13.9994 12.4325ZM19.2944 12.4325C19.2569 12.4325 19.2194 12.47 19.2044 12.53C19.1744 12.635 19.1744 12.665 19.1594 12.755C19.1369 12.8525 19.2269 12.8675 19.2419 12.8L19.3319 12.5C19.3319 12.4625 19.3244 12.44 19.3019 12.4325C19.297 12.4317 19.2919 12.4317 19.2869 12.4325H19.2944ZM12.4244 12.4625C12.3794 12.4625 12.3494 12.5225 12.3944 12.5975C12.4394 12.6875 12.5219 12.7925 12.5594 12.86C12.5969 12.92 12.6644 12.875 12.6194 12.8C12.5744 12.725 12.5594 12.6275 12.4994 12.515C12.4945 12.4992 12.4844 12.4855 12.4709 12.476C12.4573 12.4665 12.441 12.4617 12.4244 12.4625ZM20.8619 12.4625C20.8394 12.4625 20.8094 12.4775 20.7869 12.515C20.7344 12.6275 20.7119 12.7175 20.6744 12.8C20.6294 12.875 20.6894 12.92 20.7269 12.86C20.7644 12.7925 20.8469 12.6875 20.8919 12.5975C20.9369 12.5225 20.9069 12.4625 20.8619 12.4625ZM10.0469 12.71C10.0019 12.71 9.98692 12.8 10.0319 12.86C10.0902 12.9337 10.1555 13.0015 10.2269 13.0625C10.2869 13.1225 10.3019 13.0475 10.2719 12.9875L10.1369 12.785C10.0994 12.7325 10.0694 12.71 10.0469 12.71ZM23.2394 12.71C23.2169 12.71 23.1869 12.7325 23.1569 12.785L23.0144 12.9875C22.9844 13.0475 22.9994 13.1225 23.0669 13.0625C23.1384 13.0016 23.2038 12.9338 23.2619 12.86C23.3069 12.8 23.2919 12.71 23.2394 12.71ZM10.4294 12.785C10.3844 12.785 10.3544 12.815 10.3919 12.8825L10.5344 13.1675C10.5719 13.2425 10.6844 13.265 10.6394 13.1525L10.5419 12.8675C10.5194 12.815 10.4669 12.7925 10.4294 12.7925V12.785ZM22.8644 12.785C22.8194 12.785 22.7669 12.815 22.7444 12.8675L22.6544 13.1525C22.6094 13.265 22.7219 13.2425 22.7594 13.1675C22.7969 13.0925 22.8569 12.98 22.8944 12.8825C22.9319 12.815 22.9019 12.785 22.8644 12.785V12.785ZM9.69442 12.815C9.63442 12.815 9.63442 12.8675 9.68692 12.905C9.75442 12.9575 9.83692 13.01 9.91192 13.0775C10.0094 13.1525 10.0394 13.0775 9.98692 13.0175C9.94192 12.9575 9.89692 12.8975 9.76942 12.83C9.73942 12.815 9.71692 12.815 9.69442 12.815ZM23.5919 12.815C23.5769 12.815 23.5469 12.815 23.5169 12.83C23.3969 12.8975 23.3444 12.9575 23.2919 13.0175C23.2469 13.085 23.2844 13.1525 23.3744 13.0775C23.4494 13.01 23.5394 12.9575 23.5994 12.905C23.6594 12.8675 23.6519 12.815 23.5994 12.815H23.5919ZM15.3719 12.8675C15.3344 12.8675 15.3119 12.905 15.3194 12.9575L15.3944 13.2275C15.4094 13.31 15.5069 13.31 15.4919 13.2275C15.4769 13.1525 15.4694 13.055 15.4394 12.935C15.4319 12.89 15.4094 12.8675 15.3794 12.86C15.3769 12.8598 15.3744 12.8598 15.3719 12.86V12.8675ZM17.9069 12.8675C17.8844 12.8675 17.8619 12.89 17.8469 12.9425C17.8169 13.055 17.8094 13.1525 17.7944 13.235C17.7794 13.31 17.8769 13.31 17.8919 13.2275L17.9669 12.9575C17.9819 12.905 17.9519 12.8675 17.9219 12.8675C17.917 12.8667 17.9119 12.8667 17.9069 12.8675V12.8675ZM13.1069 12.7175C13.0844 12.7175 13.0694 12.77 13.0919 12.845C13.1715 13.0611 13.2121 13.2897 13.2119 13.52C13.1894 13.61 13.1369 13.6175 13.0694 13.595C12.9958 13.5587 12.9256 13.516 12.8594 13.4675C12.7994 13.43 12.7319 13.475 12.8219 13.55C13.2719 13.925 13.5944 14.3525 13.7219 14.87C13.7369 14.975 13.8044 14.99 13.7894 14.87C13.6844 14.2175 13.6619 13.6775 13.8194 13.3475C13.8794 13.22 13.8194 13.1 13.7294 13.3025C13.6619 13.4375 13.5644 13.49 13.4819 13.3775C13.3647 13.1945 13.2642 13.0012 13.1819 12.8C13.1669 12.7475 13.1444 12.725 13.1219 12.7175C13.1194 12.7171 13.1169 12.7171 13.1144 12.7175H13.1069ZM20.1644 12.7175C20.1419 12.7175 20.1194 12.7475 20.1044 12.7925C20.0519 12.9425 19.8869 13.2575 19.8044 13.3775C19.7219 13.4975 19.6244 13.4375 19.5644 13.3025C19.4669 13.1 19.4144 13.22 19.4669 13.3475C19.6244 13.6775 19.6019 14.2175 19.5044 14.87C19.4819 14.99 19.5494 14.975 19.5794 14.87C19.7181 14.3432 20.0298 13.8784 20.4644 13.55C20.5544 13.475 20.4869 13.43 20.4269 13.475C20.3604 13.5186 20.2901 13.5563 20.2169 13.5875C20.1419 13.6175 20.0969 13.61 20.0744 13.5125C20.0594 13.4225 20.0894 13.22 20.2019 12.8375C20.2169 12.7775 20.2019 12.725 20.1794 12.7175C20.1746 12.7158 20.1693 12.7158 20.1644 12.7175V12.7175ZM10.8269 12.8975C10.7894 12.8975 10.7519 12.9275 10.7744 12.9875C10.8044 13.0925 10.8644 13.1975 10.8869 13.2575C10.9094 13.325 10.9769 13.295 10.9619 13.205L10.9244 12.9725C10.9244 12.9275 10.8719 12.8975 10.8269 12.8975ZM22.4594 12.8975C22.4144 12.8975 22.3694 12.9275 22.3619 12.9725L22.3319 13.205C22.3169 13.295 22.3844 13.325 22.4069 13.2575C22.4219 13.1975 22.4819 13.0925 22.5119 12.9875C22.5344 12.9275 22.5044 12.8975 22.4594 12.8975ZM12.2369 12.77C12.1919 12.7625 12.1844 12.8825 12.2219 12.935L12.4319 13.1675C12.4919 13.2425 12.5294 13.175 12.4919 13.115L12.2969 12.83C12.2744 12.7925 12.2519 12.77 12.2369 12.77V12.77ZM21.0494 12.77C21.0344 12.77 21.0119 12.7925 20.9894 12.83L20.7944 13.115C20.7569 13.175 20.7944 13.2425 20.8619 13.1675L21.0644 12.935C21.1019 12.8825 21.1019 12.7625 21.0494 12.77V12.77ZM11.1494 13.07C11.1194 13.07 11.0969 13.085 11.1119 13.145C11.1269 13.235 11.1494 13.295 11.1719 13.3775C11.1944 13.4525 11.2469 13.445 11.2469 13.37L11.2244 13.13C11.2212 13.112 11.212 13.0957 11.1984 13.0834C11.1849 13.0712 11.1676 13.0639 11.1494 13.0625V13.07ZM22.1369 13.07C22.1194 13.0696 22.1023 13.0755 22.0886 13.0864C22.0749 13.0974 22.0654 13.1128 22.0619 13.13L22.0394 13.37C22.0394 13.445 22.0994 13.46 22.1144 13.3775L22.1819 13.1525C22.1969 13.085 22.1669 13.0625 22.1369 13.0625V13.07ZM12.1319 13.175C12.0869 13.175 12.0494 13.2275 12.1019 13.295C12.1844 13.4075 12.2819 13.4825 12.3194 13.52C12.3494 13.565 12.4319 13.55 12.3794 13.4675L12.2069 13.205C12.1919 13.175 12.1619 13.1675 12.1319 13.175ZM21.1319 13.175C21.1169 13.175 21.0944 13.1825 21.0869 13.205L20.9069 13.4675C20.8544 13.55 20.9369 13.565 20.9744 13.5275C21.0044 13.4825 21.1019 13.4075 21.1919 13.295C21.2444 13.22 21.1994 13.175 21.1544 13.175C21.1494 13.1744 21.1444 13.1744 21.1394 13.175H21.1319ZM10.5794 13.4825C10.5494 13.4825 10.5344 13.5125 10.5794 13.58C10.6953 13.7205 10.7796 13.8842 10.8269 14.06C10.8344 14.165 10.7894 14.165 10.7444 14.165C10.6019 14.165 10.5344 14.06 10.4144 14.03C10.2869 14.0075 10.2644 14.0675 10.3544 14.135C10.7843 14.4069 11.1585 14.7581 11.4569 15.17C11.5319 15.3125 11.6294 15.3575 11.5769 15.23C11.4312 14.9375 11.3689 14.6106 11.3969 14.285C11.4344 14.075 11.4869 13.94 11.4794 13.82C11.4794 13.7075 11.4044 13.715 11.3819 13.82L11.3069 14.03C11.2769 14.0675 11.1719 14.09 11.0819 13.9625C10.9544 13.806 10.8139 13.6605 10.6619 13.5275C10.6394 13.505 10.6094 13.49 10.5869 13.4825H10.5794ZM22.7069 13.4825C22.6844 13.4825 22.6544 13.4975 22.6244 13.5275C22.4751 13.6608 22.3371 13.8063 22.2119 13.9625C22.1144 14.09 22.0094 14.0675 21.9869 14.0375C21.9527 13.9685 21.9275 13.8954 21.9119 13.82C21.8819 13.715 21.8144 13.7075 21.8069 13.82C21.8069 13.94 21.8519 14.075 21.8894 14.285C21.9269 14.495 21.8894 14.825 21.7169 15.23C21.6569 15.3575 21.7619 15.305 21.8369 15.17C22.1326 14.7583 22.5043 14.407 22.9319 14.135C23.0219 14.0675 23.0069 14.0075 22.8794 14.03C22.7519 14.06 22.6844 14.165 22.5494 14.165C22.5044 14.165 22.4519 14.165 22.4594 14.06C22.4669 13.9625 22.5944 13.73 22.7069 13.58C22.7519 13.505 22.7444 13.4825 22.7069 13.4825V13.4825Z" fill="black"/>
<path d="M11.2578 15.9502L11.4078 16.4077ZM11.5578 15.8602L11.6928 16.3252ZM11.8878 15.8002L11.9778 16.2802ZM12.1878 15.7477L12.2853 16.2202ZM12.5703 15.7102L12.6453 16.1902ZM12.9828 15.7102L13.0653 16.1827ZM13.3878 15.5752L13.4478 16.0552ZM13.7628 15.5977L13.8228 16.0777ZM14.1303 15.5527L14.1903 16.0327ZM14.4903 15.5077L14.5278 15.9952ZM14.8878 15.5077L14.9178 15.9952ZM15.2478 15.4852L15.2703 15.9727ZM15.6378 15.4627L15.6603 15.9427ZM16.0878 15.4477L16.1103 15.9352ZM22.0353 15.9502L21.8853 16.4077ZM21.7353 15.8602L21.6078 16.3252ZM21.4128 15.8002L21.3228 16.2802ZM21.1128 15.7477L21.0153 16.2202ZM20.7153 15.7102L20.6403 16.1902ZM20.3103 15.7102L20.2278 16.1902ZM19.9128 15.5752L19.8528 16.0552ZM19.5303 15.5977L19.4703 16.0777ZM19.1703 15.5527L19.1028 16.0327ZM18.8028 15.5077L18.7653 15.9952ZM18.4053 15.5077L18.3753 15.9952ZM18.0528 15.4852L18.0303 15.9727ZM17.6553 15.4627L17.6403 15.9427ZM17.2053 15.4477L17.1903 15.9352ZM16.6503 15.4102V15.9502Z" fill="#FFD83D"/>
<path fill-rule="evenodd" clip-rule="evenodd" d="M16.6441 15.3516C16.6751 15.3516 16.7003 15.3767 16.7003 15.4078V15.9478C16.7003 15.9789 16.6751 16.0041 16.6441 16.0041C16.613 16.0041 16.5878 15.9789 16.5878 15.9478V15.4078C16.5878 15.3767 16.613 15.3516 16.6441 15.3516ZM16.079 15.3891C16.11 15.3877 16.1363 15.4117 16.1378 15.4427L16.1603 15.9302C16.1617 15.9613 16.1377 15.9876 16.1067 15.989C16.0756 15.9904 16.0493 15.9664 16.0479 15.9354L16.0254 15.4479C16.024 15.4169 16.048 15.3906 16.079 15.3891ZM17.2008 15.3891C17.2319 15.39 17.2563 15.416 17.2553 15.447L17.2403 15.9345C17.2393 15.9656 17.2134 15.99 17.1823 15.989C17.1513 15.9881 17.1269 15.9621 17.1279 15.9311L17.1429 15.4436C17.1438 15.4125 17.1698 15.3881 17.2008 15.3891ZM15.6289 15.4041C15.66 15.4027 15.6863 15.4266 15.6878 15.4577L15.7103 15.9377C15.7117 15.9687 15.6877 15.995 15.6567 15.9965C15.6257 15.998 15.5993 15.974 15.5979 15.9429L15.5754 15.4629C15.5739 15.4319 15.5979 15.4056 15.6289 15.4041ZM17.6508 15.4041C17.6819 15.4051 17.7063 15.431 17.7053 15.4621L17.6903 15.9421C17.6893 15.9731 17.6634 15.9975 17.6323 15.9965C17.6013 15.9956 17.5769 15.9696 17.5779 15.9386L17.5929 15.4586C17.5938 15.4275 17.6198 15.4031 17.6508 15.4041ZM15.239 15.4266C15.27 15.4252 15.2963 15.4492 15.2978 15.4802L15.3203 15.9677C15.3217 15.9988 15.2977 16.0251 15.2667 16.0265C15.2356 16.0279 15.2093 16.0039 15.2079 15.9729L15.1854 15.4854C15.184 15.4544 15.208 15.4281 15.239 15.4266ZM18.0492 15.4266C18.0802 15.4281 18.1042 15.4544 18.1028 15.4854L18.0803 15.9729C18.0788 16.0039 18.0525 16.0279 18.0215 16.0265C17.9905 16.0251 17.9665 15.9988 17.9679 15.9677L17.9904 15.4802C17.9918 15.4492 18.0181 15.4252 18.0492 15.4266ZM14.4798 15.4492C14.5107 15.4468 14.5378 15.47 14.5402 15.501L14.5777 15.9885C14.58 16.0195 14.5569 16.0465 14.5259 16.0489C14.4949 16.0513 14.4679 16.0281 14.4655 15.9971L14.428 15.5096C14.4256 15.4787 14.4488 15.4516 14.4798 15.4492ZM18.8009 15.4492C18.8319 15.4516 18.855 15.4787 18.8527 15.5096L18.8152 15.9971C18.8128 16.0281 18.7857 16.0513 18.7548 16.0489C18.7238 16.0465 18.7006 16.0195 18.703 15.9885L18.7405 15.501C18.7429 15.47 18.7699 15.4468 18.8009 15.4492ZM14.8781 15.4492C14.9091 15.4473 14.9358 15.4709 14.9377 15.5019L14.9677 15.9894C14.9696 16.0204 14.946 16.047 14.915 16.049C14.884 16.0509 14.8573 16.0273 14.8554 15.9963L14.8254 15.5088C14.8235 15.4778 14.8471 15.4511 14.8781 15.4492ZM18.4025 15.4492C18.4335 15.4511 18.4571 15.4778 18.4552 15.5088L18.4252 15.9963C18.4233 16.0273 18.3966 16.0509 18.3656 16.049C18.3346 16.047 18.311 16.0204 18.3129 15.9894L18.3429 15.5019C18.3448 15.4709 18.3715 15.4473 18.4025 15.4492ZM19.1719 15.4946C19.2027 15.4989 19.2241 15.5274 19.2198 15.5581L19.1523 16.0381C19.148 16.0689 19.1195 16.0903 19.0887 16.086C19.058 16.0817 19.0365 16.0532 19.0409 16.0225L19.1084 15.5425C19.1127 15.5117 19.1411 15.4903 19.1719 15.4946ZM14.1171 15.4945C14.1479 15.4906 14.176 15.5125 14.1799 15.5433L14.2399 16.0233C14.2437 16.0542 14.2219 16.0823 14.1911 16.0861C14.1602 16.09 14.1321 16.0681 14.1283 16.0373L14.0683 15.5573C14.0644 15.5265 14.0863 15.4983 14.1171 15.4945ZM13.3746 15.517C13.4054 15.5131 13.4335 15.535 13.4374 15.5658L13.4974 16.0458C13.5012 16.0767 13.4794 16.1048 13.4486 16.1086C13.4177 16.1125 13.3896 16.0906 13.3858 16.0598L13.3258 15.5798C13.3219 15.549 13.3438 15.5208 13.3746 15.517ZM19.9136 15.517C19.9444 15.5208 19.9662 15.549 19.9624 15.5798L19.9024 16.0598C19.8985 16.0906 19.8704 16.1125 19.8396 16.1086C19.8088 16.1048 19.7869 16.0767 19.7908 16.0458L19.8508 15.5658C19.8546 15.535 19.8827 15.5131 19.9136 15.517ZM13.7496 15.5395C13.7804 15.5356 13.8085 15.5575 13.8124 15.5883L13.8724 16.0683C13.8762 16.0992 13.8544 16.1273 13.8236 16.1311C13.7927 16.135 13.7646 16.1131 13.7608 16.0823L13.7008 15.6023C13.6969 15.5715 13.7188 15.5434 13.7496 15.5395ZM19.5311 15.5395C19.5619 15.5434 19.5837 15.5715 19.5799 15.6023L19.5199 16.0823C19.516 16.1131 19.4879 16.135 19.4571 16.1311C19.4263 16.1273 19.4044 16.0992 19.4083 16.0683L19.4683 15.5883C19.4721 15.5575 19.5002 15.5356 19.5311 15.5395ZM12.9669 15.6524C12.9975 15.6471 13.0266 15.6675 13.032 15.6981L13.1145 16.1706C13.1198 16.2012 13.0994 16.2304 13.0688 16.2357C13.0381 16.2411 13.009 16.2206 13.0037 16.19L12.9212 15.7175C12.9158 15.6869 12.9363 15.6577 12.9669 15.6524ZM20.3136 15.6524C20.3442 15.6576 20.3648 15.6867 20.3595 15.7173L20.277 16.1973C20.2718 16.228 20.2427 16.2485 20.2121 16.2432C20.1814 16.238 20.1609 16.2089 20.1661 16.1783L20.2486 15.6983C20.2539 15.6677 20.283 15.6471 20.3136 15.6524ZM12.5554 15.6522C12.5861 15.6474 12.6149 15.6684 12.6197 15.6991L12.6947 16.1791C12.6994 16.2098 12.6785 16.2386 12.6478 16.2434C12.6171 16.2482 12.5883 16.2272 12.5835 16.1965L12.5085 15.7165C12.5037 15.6858 12.5247 15.657 12.5554 15.6522ZM20.7178 15.6522C20.7485 15.657 20.7694 15.6858 20.7647 15.7165L20.6897 16.1965C20.6849 16.2272 20.6561 16.2482 20.6254 16.2434C20.5947 16.2386 20.5737 16.2098 20.5785 16.1791L20.6535 15.6991C20.6583 15.6684 20.6871 15.6474 20.7178 15.6522ZM12.1702 15.6902C12.2006 15.6839 12.2304 15.7035 12.2367 15.7339L12.3342 16.2064C12.3404 16.2369 12.3209 16.2666 12.2904 16.2729C12.26 16.2792 12.2303 16.2596 12.224 16.2292L12.1265 15.7567C12.1202 15.7263 12.1398 15.6965 12.1702 15.6902ZM21.1179 15.6902C21.1484 15.6965 21.1679 15.7263 21.1617 15.7567L21.0642 16.2292C21.0579 16.2596 21.0281 16.2792 20.9977 16.2729C20.9673 16.2666 20.9477 16.2369 20.954 16.2064L21.0515 15.7339C21.0578 15.7035 21.0875 15.6839 21.1179 15.6902ZM11.8712 15.7425C11.9017 15.7368 11.9311 15.7569 11.9369 15.7874L12.0269 16.2674C12.0326 16.298 12.0125 16.3274 11.9819 16.3331C11.9514 16.3388 11.922 16.3187 11.9163 16.2882L11.8263 15.8082C11.8206 15.7776 11.8407 15.7483 11.8712 15.7425ZM21.4169 15.7425C21.4475 15.7483 21.4676 15.7776 21.4619 15.8082L21.3719 16.2882C21.3661 16.3187 21.3367 16.3388 21.3062 16.3331C21.2757 16.3274 21.2556 16.298 21.2613 16.2674L21.3513 15.7874C21.357 15.7569 21.3864 15.7368 21.4169 15.7425ZM11.5359 15.8038C11.5657 15.7951 11.5969 15.8123 11.6056 15.8421L11.7406 16.3071C11.7493 16.337 11.7321 16.3682 11.7023 16.3768C11.6724 16.3855 11.6412 16.3683 11.6326 16.3385L11.4976 15.8735C11.4889 15.8437 11.5061 15.8125 11.5359 15.8038ZM21.744 15.8036C21.7739 15.8118 21.7915 15.8427 21.7833 15.8727L21.6558 16.3377C21.6476 16.3676 21.6167 16.3853 21.5867 16.3771C21.5567 16.3688 21.5391 16.3379 21.5473 16.3079L21.6748 15.8429C21.683 15.813 21.714 15.7953 21.744 15.8036ZM11.2341 15.8944C11.2636 15.8847 11.2953 15.9008 11.305 15.9303L11.455 16.3878C11.4647 16.4173 11.4486 16.4491 11.4191 16.4588C11.3896 16.4684 11.3578 16.4524 11.3481 16.4228L11.1981 15.9653C11.1884 15.9358 11.2045 15.904 11.2341 15.8944ZM22.0466 15.8944C22.0761 15.904 22.0922 15.9358 22.0825 15.9653L21.9325 16.4228C21.9228 16.4524 21.8911 16.4684 21.8616 16.4588C21.832 16.4491 21.8159 16.4173 21.8256 16.3878L21.9756 15.9303C21.9853 15.9008 22.0171 15.8847 22.0466 15.8944Z" fill="black"/>
</g>
<defs>
<clipPath id="clip0_4046_22910">
<rect width="60" height="45" fill="white"/>
</clipPath>
</defs>
</svg>
