<svg width="60" height="45" viewBox="0 0 60 45" fill="none" xmlns="http://www.w3.org/2000/svg">
<g clip-path="url(#clip0_4046_22974)">
<path d="M0 0H60V45H0V0Z" fill="#FFB700"/>
<path d="M2.5 22.5008L10.75 2.50391H19V42.4977H10.75L2.5 22.5008Z" fill="#FF5B00"/>
<path d="M2.5 2.50391H10.75V42.4977H2.5V2.50391Z" fill="#005641"/>
<path d="M21.5 2.50391H57.7531V42.4977H21.5V2.50391Z" fill="#8D2029"/>
<path d="M54.3125 38.3047C54.3125 38.3047 54.65 38.9891 55.025 39.2797C55.5875 39.6922 56.7125 39.6547 57.2094 40.1516C57.7813 40.7234 57.1625 41.4828 57.1625 41.5578L57.2 41.9516C57.2 41.9516 56.8062 41.9516 56.6375 41.9797C56.3937 42.0172 56.3 42.2234 55.8313 42.1953C54.6781 42.1203 54.725 41.0703 54.6594 40.1797C54.6031 39.8422 54.4719 39.3922 54.3875 39.0547C54.3219 38.7734 54.3125 38.3047 54.3125 38.3047Z" fill="#FFB700"/>
<path fill-rule="evenodd" clip-rule="evenodd" d="M54.3094 38.3079C54.2578 38.3089 54.2578 38.3089 54.2578 38.3089L54.2578 38.3104L54.2579 38.3145C54.258 38.318 54.2582 38.3233 54.2584 38.3301C54.2587 38.3436 54.2594 38.3632 54.2603 38.3876C54.2623 38.4363 54.2655 38.5042 54.2708 38.581C54.2814 38.7337 54.3003 38.9247 54.3341 39.0696L54.3343 39.0704C54.3579 39.1647 54.3849 39.2671 54.4129 39.3728C54.4856 39.6484 54.5645 39.9473 54.605 40.189C54.6106 40.2654 54.6154 40.3435 54.6202 40.4225C54.6432 40.7971 54.6674 41.1911 54.786 41.5143C54.8586 41.7124 54.9678 41.8876 55.1362 42.0179C55.3047 42.1484 55.5285 42.2307 55.8248 42.25L55.825 42.25C56.0688 42.2646 56.218 42.218 56.3375 42.162C56.3668 42.1483 56.394 42.1341 56.4197 42.1207C56.4217 42.1196 56.4238 42.1185 56.4259 42.1174C56.4495 42.1051 56.4715 42.0935 56.4938 42.0828C56.5416 42.0599 56.5881 42.0422 56.6422 42.0338L56.6428 42.0337C56.7232 42.0203 56.8605 42.0133 56.9804 42.0098C57.0398 42.0081 57.0939 42.0072 57.1333 42.0068C57.1529 42.0065 57.1689 42.0064 57.1799 42.0064L57.1925 42.0063L57.1966 42.0063L57.2536 42.0063L57.2115 41.5643C57.2119 41.5632 57.2125 41.5618 57.2132 41.5602C57.2168 41.5523 57.2223 41.5415 57.2301 41.5271C57.2367 41.5151 57.2444 41.5014 57.2531 41.4858C57.2546 41.4831 57.2561 41.4804 57.2577 41.4776C57.2682 41.4587 57.28 41.4376 57.2925 41.4146C57.3422 41.3227 57.4035 41.1995 57.4465 41.0594C57.5329 40.7785 57.5472 40.4228 57.2427 40.1183C57.1116 39.9872 56.9409 39.8931 56.7534 39.819C56.5658 39.7448 56.3581 39.6893 56.1513 39.6372C56.1185 39.6289 56.0858 39.6207 56.0531 39.6126C55.8786 39.569 55.7067 39.5261 55.5465 39.4742C55.3566 39.4127 55.187 39.3399 55.0529 39.2417C54.8731 39.1022 54.6992 38.8652 54.5686 38.6588C54.5037 38.5563 54.4503 38.4626 54.4132 38.3947C54.3947 38.3607 54.3802 38.3332 54.3704 38.3142C54.3655 38.3047 54.3618 38.2974 54.3593 38.2924L54.3565 38.2869L54.3558 38.2855L54.3556 38.2852L54.2578 38.3089L54.3094 38.3079ZM54.3708 38.5301C54.3717 38.5443 54.3727 38.5589 54.3737 38.5739C54.3842 38.7256 54.4027 38.9095 54.4345 39.0458C54.4573 39.1369 54.4837 39.237 54.5112 39.3413C54.5846 39.6193 54.6659 39.9271 54.7071 40.1744L54.7075 40.1767L54.7077 40.1791C54.7136 40.2596 54.7186 40.3408 54.7236 40.422C54.7467 40.7963 54.7699 41.1712 54.8828 41.4788C54.9507 41.6639 55.0502 41.8209 55.1993 41.9364C55.3483 42.0517 55.5511 42.1288 55.8313 42.1471C56.0563 42.1605 56.1883 42.118 56.2937 42.0686C56.3207 42.056 56.3462 42.0427 56.3718 42.0293L56.3782 42.026C56.4015 42.0138 56.4252 42.0014 56.4492 41.9899C56.502 41.9645 56.5586 41.9424 56.6262 41.932C56.7146 41.9173 56.8584 41.9102 56.9774 41.9067C57.0375 41.905 57.0924 41.9041 57.1321 41.9036C57.1349 41.9036 57.1376 41.9036 57.1402 41.9036L57.1078 41.5635V41.561C57.1078 41.5509 57.1102 41.5421 57.112 41.5365C57.1139 41.5302 57.1165 41.524 57.1191 41.5181C57.1244 41.5063 57.1315 41.4926 57.1395 41.4779C57.1464 41.4652 57.1545 41.4509 57.1631 41.4354C57.1646 41.4327 57.1662 41.43 57.1677 41.4272C57.1782 41.4084 57.1897 41.3879 57.2018 41.3655C57.2502 41.2761 57.3078 41.1597 57.348 41.0291C57.4281 40.7685 57.4371 40.4586 57.1698 40.1912C57.0525 40.0739 56.8962 39.9863 56.7155 39.9149C56.5348 39.8434 56.3329 39.7893 56.1261 39.7372C56.0938 39.729 56.0614 39.721 56.0289 39.7129C55.8545 39.6693 55.6787 39.6254 55.5147 39.5723C55.3202 39.5094 55.1385 39.4323 54.9914 39.3245L54.9908 39.3241L54.9903 39.3236C54.7953 39.1725 54.6132 38.9222 54.4814 38.714C54.4394 38.6476 54.4021 38.5848 54.3708 38.5301Z" fill="black"/>
<path d="M34.0828 31.8531L34.2984 31.7219L34.3922 31.8531C34.5141 32.0219 34.8609 32.0125 35.0859 31.8531L35.2641 31.7125L35.4141 31.8438C35.6016 32.0219 35.9578 32.0219 36.1922 31.8438C36.3516 31.7313 36.3797 31.7219 36.4734 31.8156C36.5391 31.8719 36.7266 31.9281 36.8859 31.9563C37.1859 31.9938 37.1859 31.9938 37.3547 31.7313C37.5047 31.5156 37.5234 31.4313 37.4953 31.2156C37.4691 31.0509 37.4504 30.8851 37.4391 30.7188C37.4203 30.475 37.4297 30.475 37.7766 30.3438C37.9487 30.2909 38.1178 30.2283 38.2828 30.1563C38.4234 30.0719 38.8172 29.6125 38.8172 29.5188C38.8172 29.5 38.6672 29.4625 38.4797 29.4438C37.7297 29.35 37.6078 28.9563 38.0953 28.225C38.8734 27.0063 39.3516 25.8344 39.3516 25.0938C39.3516 24.7563 39.3797 24.6438 39.4172 24.7188C39.5953 25.0094 39.2766 26.2563 38.8078 27.1563L38.6203 27.5125L38.7984 27.475C38.8922 27.4469 39.4922 27.1938 40.1109 26.9125C41.8172 26.1438 42.3984 25.9938 43.5047 26.0406C44.4328 26.0781 44.8172 26.2563 45.4734 26.9406C45.8203 27.3156 46.1578 27.5688 46.7672 27.9531C48.0609 28.7594 48.1172 28.8344 48.1828 29.7906C48.2484 30.7563 48.2109 30.8125 47.4797 30.9719C46.8516 31.1125 46.4578 31.4031 46.3547 31.8156C46.2984 32.0219 46.4203 32.0313 46.7297 31.825L46.9641 31.675L47.0672 31.825C47.2078 32.0219 47.4891 32.0219 47.7234 31.825L47.9109 31.6844L48.0984 31.825C48.3797 32.0594 48.7547 32.0031 48.8672 31.7125C48.8859 31.6656 48.9422 31.675 49.0547 31.7781C49.2703 31.9656 49.8047 32.0406 49.8609 31.8906C49.8797 31.8344 49.8422 31.7031 49.7672 31.5906C49.4578 31.1219 49.3547 30.9063 49.3547 30.6531C49.3547 30.2969 49.4484 30.1188 49.8609 29.8375C50.3484 29.4813 50.4984 29.0313 50.1234 29.0313C49.8984 29.0313 49.6641 28.825 49.5141 28.4969C49.2141 27.8219 49.2797 27.0719 49.7297 25.8156C50.0747 25.0765 50.2478 24.2688 50.2359 23.4531C50.2359 22.7594 50.2172 22.6469 50.0672 22.2625C49.9499 21.9953 49.8053 21.7408 49.6359 21.5031L49.3734 21.1563L49.7016 20.875C50.7141 20.0406 50.5078 18.6719 49.2891 18.1469C48.9141 17.9781 48.8203 17.9688 48.1641 17.9688C47.7891 17.9688 47.1797 18.025 46.8516 18.0906C46.4111 18.1603 45.9662 18.1979 45.5203 18.2031C44.8828 18.2031 44.7703 18.1844 44.5266 18.0531C44.2734 17.9219 44.2266 17.8563 44.1797 17.5375C44.1752 17.5075 44.1634 17.479 44.1455 17.4545C44.1275 17.43 44.1039 17.4102 44.0766 17.3969C43.9828 17.3688 43.5891 17.7156 43.5328 17.8656C43.4953 17.95 43.4766 17.9406 43.3922 17.8375C43.3127 17.7353 43.2494 17.6215 43.2047 17.5C43.1109 17.1906 43.2328 16.9656 43.5984 16.7875L43.8797 16.6563L43.7109 16.5531C43.3734 16.3375 42.7922 16.4875 42.5859 16.8344C42.5203 16.9281 42.4547 17.0219 42.4359 17.0219C42.4172 17.0219 42.3047 16.9281 42.1922 16.8063C41.7516 16.375 41.9016 15.7375 42.4922 15.55C42.8016 15.4469 43.0828 15.5219 43.1391 15.7375C43.2328 16.0469 43.4953 15.6344 43.4484 15.25C43.4203 14.9969 43.4203 14.9875 43.5984 14.9875C43.8422 14.9875 44.3484 15.3063 44.5172 15.55C44.7047 15.8406 44.6859 16.3 44.4797 16.6375L44.3203 16.9L44.5359 16.8625C44.8359 16.7969 45.1359 16.6094 45.2859 16.375C45.365 16.2257 45.4094 16.0606 45.4159 15.8918C45.4224 15.723 45.3908 15.5549 45.3234 15.4C45.1828 15.1469 45.2016 15.1094 45.4078 15.1938C45.7453 15.3344 45.9328 15.4938 46.0641 15.7656C46.1953 16.0094 46.2047 16.0656 46.1391 16.3281C46.0942 16.488 46.0246 16.6398 45.9328 16.7781C45.8203 16.9281 45.8109 16.9563 45.9047 16.9563C46.0734 16.9563 46.4109 16.7969 46.5328 16.675C46.5984 16.6 46.6922 16.4406 46.7391 16.3L46.8328 16.0656L46.9266 16.2531C47.0672 16.5063 47.3484 16.7406 47.6859 16.8906C48.0516 17.0406 48.2016 17.05 48.0141 16.9094C47.8828 16.8156 47.6391 16.1125 47.7234 16.0469C48.128 16.2735 48.4975 16.5577 48.8203 16.8906C49.3547 17.3688 49.6922 17.5281 50.1797 17.5281C50.8078 17.5281 51.1734 16.9844 50.8922 16.4688C50.7328 16.1688 50.3672 16.1219 50.1422 16.375C50.0484 16.4969 50.0203 16.5906 50.0484 16.7219C50.0859 16.8719 50.0766 16.8906 49.9359 16.8906C49.7484 16.8906 49.3922 16.6563 48.7547 16.1219C47.8673 15.3582 46.8473 14.764 45.7453 14.3688C44.9988 14.1962 44.2279 14.155 43.4672 14.2469C42.8672 14.3594 42.1547 14.7063 41.7609 15.0719C41.0766 15.7281 41.0672 16.6 41.7328 17.3969L41.9203 17.6219L41.7984 17.8281C41.7068 17.9759 41.6613 18.1476 41.668 18.3214C41.6747 18.4951 41.7332 18.6629 41.8359 18.8031C41.9297 18.9344 42.0234 19.0375 42.0516 19.0375C42.0703 19.0375 42.0891 18.9531 42.0984 18.85C42.1172 18.5969 42.2297 18.4281 42.4172 18.3625C42.5859 18.2969 42.6984 18.3344 43.4672 18.6438C44.2828 18.9625 45.6234 18.9813 47.0484 18.7C47.6661 18.5574 48.3088 18.5638 48.9234 18.7188C49.5984 19 49.7484 19.7219 49.2609 20.2656C49.0453 20.5094 48.8484 20.6031 48.1641 20.7906C47.5682 20.9478 46.9488 20.9954 46.3359 20.9313C45.3234 20.9219 44.9578 20.9406 44.5547 21.025C44.0953 21.1188 43.8234 21.1281 42.5109 21.1L40.9828 21.0625L41.1516 21.1938C41.2419 21.274 41.3392 21.3462 41.4422 21.4094C41.5641 21.475 41.5547 21.4844 41.3859 21.55C41.2922 21.5875 41.0672 21.6156 40.8891 21.6156H40.5797L40.5422 21.8781C40.5169 22.0019 40.5169 22.1294 40.5422 22.2531C40.5797 22.3469 40.5609 22.3656 40.4672 22.3281C40.4016 22.3 40.2234 22.2531 40.0641 22.225C39.9033 22.1905 39.7463 22.1403 39.5953 22.075C39.4172 21.9813 39.3984 21.9813 39.3328 22.1031C39.2766 22.1969 38.7516 22.5906 38.6766 22.5906C38.6427 22.3474 38.5732 22.1105 38.4703 21.8875C38.3766 21.6906 38.2922 21.4656 38.2641 21.4C38.2359 21.2969 38.2172 21.2875 38.1703 21.3719C38.1422 21.4188 38.1047 21.5594 38.0766 21.6719C38.0437 21.8237 37.9868 21.9693 37.9078 22.1031L37.7672 22.3094L37.6734 22.1313C37.5797 21.9438 37.4297 21.7375 37.3734 21.7375C37.3547 21.7375 37.3266 21.7938 37.3078 21.8781C37.2609 22.0281 36.8953 22.4688 36.8016 22.4688C36.7734 22.4688 36.7453 22.3469 36.7453 22.1875C36.7453 22.0469 36.7172 21.9156 36.6797 21.9156C36.6422 21.9156 36.6141 21.9625 36.6141 22.0094C36.6141 22.1219 36.3047 22.4781 36.1922 22.4781C36.1547 22.4781 36.0797 22.5156 36.0328 22.5719C35.9203 22.6938 35.8266 22.675 35.8734 22.5344C35.8866 22.4143 35.8738 22.2928 35.8359 22.1781L35.7422 21.8781C35.7234 21.8313 35.6109 21.85 35.3672 21.925C34.9922 22.0469 34.8609 22.0188 35.0578 21.8688C35.1328 21.8125 35.2453 21.6156 35.3016 21.4375C35.3672 21.25 35.4609 21.0906 35.5078 21.0719C35.5734 21.0531 35.5734 21.0719 35.4891 21.1844C35.4348 21.2557 35.3993 21.3395 35.3859 21.4281C35.3859 21.475 35.3391 21.5969 35.2922 21.7C35.2359 21.7938 35.1984 21.8875 35.2078 21.8969C35.2172 21.9063 35.3672 21.85 35.5359 21.775L35.8359 21.625V21.7563C35.8359 21.8313 35.8734 22.0188 35.9203 22.1781L36.0047 22.4594L36.2109 22.3656C36.4172 22.2719 36.6141 21.9344 36.6141 21.6625C36.6141 21.5313 36.6891 21.55 36.7266 21.6906C36.7266 21.7281 36.7828 21.8875 36.8203 22.0375L36.9141 22.3L37.0547 22.1313C37.1391 22.0375 37.2328 21.85 37.2703 21.7281C37.3453 21.5031 37.4578 21.4 37.4578 21.5688C37.4578 21.6813 37.7766 22.1125 37.8328 22.075C37.8703 22.0563 37.9266 21.8969 37.9734 21.7188C38.0672 21.3438 38.2078 21.1 38.3016 21.1563C38.3391 21.175 38.3484 21.2125 38.3297 21.25C38.3109 21.2688 38.3859 21.5125 38.4984 21.775C38.5799 21.9718 38.6612 22.1687 38.7422 22.3656C38.7797 22.4594 38.8172 22.4594 39.0516 22.2438C39.1922 22.1125 39.3328 21.9719 39.3422 21.925C39.3703 21.85 39.3984 21.8594 39.5297 21.9438C39.8061 22.0898 40.1089 22.179 40.4203 22.2063C40.4391 22.1875 40.4578 22.0188 40.4578 21.8313L40.4672 21.4844L40.6547 21.5219C40.7484 21.55 40.9641 21.55 41.1234 21.5219L41.4047 21.4844L41.1516 21.2969C41.0109 21.2031 40.8703 21.0813 40.8328 21.025C40.8047 20.9688 40.6734 20.9125 40.5328 20.9031C40.1484 20.8656 39.4641 20.4906 39.4641 20.3031C39.4641 20.2656 39.5578 20.3313 39.6703 20.4344C39.9328 20.6688 40.2891 20.8094 40.6078 20.8094H40.8328L40.6922 20.6219C40.592 20.4765 40.5277 20.3094 40.5047 20.1344C40.4859 19.8531 40.4578 19.8156 40.1672 19.6188C39.9987 19.4993 39.8417 19.3644 39.6984 19.2156L39.5391 19.0375L39.4547 19.2531C39.4078 19.375 39.3609 19.4688 39.3328 19.4688C39.3141 19.4688 39.2203 19.3938 39.1453 19.3094C39.0926 19.2483 39.029 19.1974 38.9578 19.1594C38.9297 19.1594 38.8641 19.2719 38.7891 19.4125L38.6578 19.6656L38.5641 19.525C38.4807 19.4101 38.3865 19.3033 38.2828 19.2063C38.1703 19.1125 38.1234 19.0375 38.1609 19.0375C38.1984 19.0375 38.3203 19.1313 38.4422 19.2531L38.6484 19.4688L38.7422 19.3094C38.7963 19.199 38.8128 19.0738 38.7891 18.9531C38.7516 18.7844 38.7609 18.775 38.8172 18.8875C38.898 18.9933 38.9926 19.0879 39.0984 19.1688L39.3047 19.3375L39.4453 19.0844C39.5859 18.8219 39.5859 18.8219 39.6422 18.9813C39.7359 19.1781 40.3453 19.6844 40.8609 19.975C40.9547 20.0219 40.9172 19.8719 40.7672 19.5063C40.7221 19.3861 40.6968 19.2595 40.6922 19.1313C40.6922 18.9625 40.6453 18.8875 40.4297 18.7188C40.2956 18.6331 40.1835 18.5172 40.1021 18.3805C40.0207 18.2438 39.9724 18.09 39.9609 17.9313C39.9328 17.7719 39.8766 17.6031 39.8297 17.5469C39.7734 17.4531 39.7547 17.5094 39.7734 17.7906C39.7922 17.9875 39.7641 18.2313 39.7172 18.3344L39.6422 18.5219L39.5859 18.3625C39.5484 18.2781 39.3984 18.1281 39.2578 18.0344C39.1172 17.9406 39.0141 17.8469 39.0328 17.8281C39.0516 17.8094 39.2016 17.8938 39.3609 18.0156C39.6141 18.2125 39.6609 18.2313 39.6984 18.1469C39.7359 18.0531 39.6984 17.6219 39.6234 17.3219C39.5859 17.1719 39.5859 17.1719 39.7734 17.3594C39.9047 17.4906 39.9797 17.6594 40.0453 17.9406C40.1203 18.2969 40.1578 18.3625 40.4859 18.6531C40.6828 18.8313 40.8609 18.9625 40.8703 18.9531C40.8891 18.9344 40.9078 18.4844 40.9266 17.9406C40.9641 16.9 40.9266 16.6469 40.6734 16.3281L40.5422 16.1594L40.7484 15.9438C40.9795 15.7227 41.1339 15.4337 41.1891 15.1188L41.2266 14.8656L41.0016 15.0813C40.8141 15.2594 40.7203 15.2969 40.5047 15.2969C40.2891 15.2969 40.2047 15.2594 40.0641 15.1094C39.845 14.8985 39.578 14.7441 39.2859 14.6594C39.1734 14.6219 39.1359 14.6406 39.1359 14.7156C39.1359 14.7719 39.0797 14.9219 39.0047 15.0625L38.8734 15.3063L38.5922 15.025C38.4141 14.8656 38.2172 14.725 38.0578 14.6875C37.6734 14.5938 37.6547 14.5938 37.6547 14.8844C37.6547 15.325 37.4672 15.4094 37.1297 15.1188C36.8672 14.8938 36.6609 14.8375 36.1641 14.9031L35.7891 14.9406L35.8547 15.1094C35.9109 15.25 35.9016 15.3156 35.7797 15.475C35.5828 15.7375 35.3297 15.85 34.9359 15.85C34.7484 15.85 34.5234 15.8875 34.4297 15.9344C34.3359 15.9813 34.0922 16.0281 33.8953 16.0469C33.7078 16.0656 33.4922 16.1031 33.4266 16.1219C33.3328 16.1594 33.3328 16.1219 33.3609 15.9156C33.4078 15.5969 33.1734 15.3531 32.8266 15.3531C32.3672 15.3531 32.1609 15.7656 32.3391 16.3094C32.3755 16.4267 32.4068 16.5456 32.4328 16.6656C32.5559 16.9001 32.7212 17.1098 32.9203 17.2844C33.1641 17.5281 33.3891 17.7813 33.4266 17.8469C33.502 17.9447 33.598 18.0247 33.7078 18.0813L33.9141 18.1938L33.8859 17.9688C33.8578 17.725 33.9047 17.6875 34.0359 17.8656C34.0828 17.9219 34.2047 18.025 34.2984 18.0813C34.4578 18.175 34.4859 18.175 34.4859 18.1C34.4859 18.0438 34.5141 17.9219 34.5516 17.8281L34.6172 17.6594L34.7391 17.8938C34.8047 18.025 35.0203 18.3156 35.2172 18.55C35.6016 18.9906 35.8453 19.4875 35.7234 19.6C35.6672 19.6469 35.5359 19.6469 35.2547 19.5906C35.0484 19.5531 34.7859 19.525 34.6734 19.5438C34.4578 19.5719 34.4391 19.5438 34.5797 19.375C34.7203 19.1875 34.6922 19.1594 34.4109 19.1594C34.0828 19.1594 33.2672 19 32.9484 18.8781C32.6484 18.7563 32.5734 18.7844 32.4797 19.075L32.3203 19.6L32.2266 19.8813L32.5641 19.8531C32.7381 19.8349 32.9104 19.8036 33.0797 19.7594C33.1461 19.7373 33.216 19.7277 33.2859 19.7313C33.3047 19.7406 33.2578 19.8531 33.1922 19.9844L33.0609 20.2094L33.2672 20.1719C33.3797 20.1438 33.5484 20.0875 33.6422 20.0406C33.8109 19.9656 33.8297 19.9656 33.9609 20.1813C34.1203 20.4344 34.2422 20.425 34.2703 20.1531C34.2984 19.8719 34.3922 19.9094 34.5703 20.2844C34.7391 20.6406 34.9078 20.7719 34.9453 20.5656C34.9547 20.4906 35.0391 20.3781 35.1422 20.3031C35.3484 20.1625 35.4984 20.2094 35.5828 20.425C35.6766 20.6594 35.4703 20.8938 34.8891 21.25C34.3508 21.5472 33.8876 21.9636 33.535 22.4673C33.1824 22.9711 32.9497 23.5488 32.8547 24.1563C32.6766 25.2625 33.2297 26.4063 34.3172 27.2406C34.8422 27.6344 35.6766 28.0469 35.6203 27.8969C35.3953 27.2125 35.4047 25.9281 35.6297 25.7125C35.6672 25.675 35.6578 25.8063 35.6016 26.0031C35.4141 26.7438 35.5078 27.325 35.9766 28.6938C36.3891 29.9313 36.3328 30.4656 35.7328 30.8125C35.5453 30.925 35.4234 30.9438 34.9078 30.9344C34.3453 30.9344 34.2797 30.9344 34.1016 31.0844C33.8862 31.3044 33.7452 31.5863 33.6984 31.8906C33.6984 32.0125 33.8297 31.9938 34.0734 31.8531H34.0828Z" fill="#FFB700"/>
<path d="M43.1751 31.8277L43.4095 31.6777L43.5689 31.8277C43.7751 32.0246 44.0283 32.0152 44.2251 31.8183C44.3189 31.7246 44.3939 31.6683 44.4033 31.6777L44.4876 31.8277C44.5345 31.9121 44.6376 31.9496 44.8251 31.9683C45.0408 31.9777 45.1064 31.9683 45.2001 31.8371L45.2939 31.6777L45.5283 31.8277C46.1658 32.2402 46.5033 31.809 46.2126 30.9558C46.072 30.5246 46.1564 30.2808 46.6158 29.7371C46.8126 29.5027 46.972 29.2496 46.972 29.1746C46.972 29.0715 46.9345 29.0527 46.672 29.0621C46.4283 29.0621 46.3533 29.034 46.222 28.8933C46.0064 28.659 46.0251 28.3871 46.2595 28.0871L46.447 27.8527L46.1095 27.6277C45.8401 27.4287 45.5891 27.206 45.3595 26.9621C45.1549 26.7206 44.9047 26.5217 44.6231 26.377C44.3416 26.2322 44.0344 26.1443 43.7189 26.1183L43.2783 26.0715V26.409C43.2783 26.8308 43.4845 27.2433 44.0283 27.9371C44.647 28.7246 44.6845 28.8465 44.7126 29.8777L44.7408 30.7496L44.5533 30.9183C44.3939 31.0683 44.3283 31.0965 43.8033 31.1246C43.3064 31.1527 43.1939 31.1808 43.0533 31.3121C42.8887 31.4321 42.775 31.6093 42.7345 31.809C42.7064 31.9496 42.7158 31.9777 42.8189 31.9777C42.8845 31.9777 43.0439 31.9121 43.1751 31.8277V31.8277ZM29.8439 29.5777C29.9006 29.4945 29.933 29.3971 29.9376 29.2965C29.9376 29.2027 29.9939 29.1652 30.2376 29.1277L30.5283 29.0902L30.3408 28.9308C30.1064 28.7433 30.0783 28.6027 30.2845 28.6027C30.4908 28.6027 30.8283 28.3965 30.8845 28.2371C30.9126 28.1621 30.8845 28.0683 30.847 28.0215C30.7345 27.8902 30.5189 27.909 30.4814 28.059C30.4345 28.209 30.3689 28.209 30.2001 28.059C29.9658 27.8246 29.9564 27.3465 30.2001 27.0652C30.3033 26.934 30.3033 26.934 30.1626 26.7933C30.0126 26.6433 29.9001 26.3621 29.9751 26.2871C29.9939 26.2683 30.1158 26.2871 30.2376 26.334C30.4251 26.3902 30.4908 26.3902 30.5658 26.334C30.7814 26.1558 30.547 25.9308 30.1908 25.9871C30.0408 26.0058 29.9845 25.9871 29.9658 25.9121C29.947 25.8558 29.8251 25.7808 29.6845 25.7433C29.4314 25.6777 29.4314 25.6777 29.4314 25.8558C29.4314 26.0433 29.3189 26.0808 29.1126 25.959C28.9439 25.8652 28.7845 25.9402 28.7845 26.1183C28.7845 26.2871 28.9439 26.3621 29.2533 26.3433C29.4783 26.334 29.4876 26.5027 29.272 26.7465L29.1126 26.934L29.2345 27.1121C29.422 27.3746 29.4033 27.8152 29.2064 28.0402L29.047 28.209L28.9439 28.0683C28.7939 27.8808 28.597 27.8902 28.5408 28.0965C28.5126 28.2277 28.5408 28.284 28.7095 28.434C28.822 28.5277 28.9908 28.6027 29.0751 28.6027C29.2908 28.6027 29.2814 28.7808 29.0564 28.9496L28.8689 29.0902L29.1501 29.1277C29.3001 29.1558 29.4314 29.1933 29.4314 29.2215C29.4314 29.3433 29.6189 29.709 29.6751 29.709C29.7126 29.709 29.7876 29.6433 29.8439 29.5683V29.5777Z" fill="#FFB700"/>
<path d="M33.425 28.0203C33.6781 27.9266 34.2219 27.4578 34.2219 27.3547C34.2219 27.3172 34.0719 27.1484 33.8844 26.9797C33.5094 26.6422 33.0875 26.0516 32.975 25.7141C32.9188 25.5266 32.6469 25.2266 31.8781 24.4766L30.8563 23.4922L30.5656 23.5672C30.3969 23.6047 30.2 23.6422 30.125 23.6422C29.9844 23.6422 29.9844 23.6422 30.1719 23.7922L30.3594 23.9422L30.6406 23.7922C30.8938 23.6422 30.9031 23.6422 30.9313 23.7641C30.95 23.8297 30.9125 23.9516 30.8375 24.0359C30.7719 24.1203 30.7344 24.2234 30.7438 24.2516C30.7719 24.2797 30.7063 24.3453 30.6031 24.4016C30.4156 24.4953 30.275 24.8047 30.425 24.8047C30.5656 24.8047 30.8656 24.4297 30.8281 24.3078C30.8094 24.2422 30.8281 24.1766 30.8469 24.1578C30.9688 24.0922 30.9594 24.3828 30.8469 24.5328C30.7719 24.6078 30.7344 24.7016 30.7531 24.7391C30.7719 24.7672 30.7063 24.8328 30.6031 24.8891C30.4156 24.9828 30.275 25.2922 30.425 25.2922C30.575 25.2922 30.8656 24.9359 30.8375 24.8047C30.8188 24.7391 30.8188 24.6641 30.8469 24.6453C30.9313 24.6078 30.9688 24.8328 30.9031 24.9453C30.8859 24.977 30.8769 25.0124 30.8769 25.0484C30.8769 25.0845 30.8859 25.1199 30.9031 25.1516C30.9688 25.2734 30.9031 25.4984 30.7812 25.5734C30.7344 25.6016 30.7625 25.6672 30.8938 25.7609C31.0813 25.8922 31.0813 25.9109 31.0813 26.5109C31.0813 27.0172 31.1 27.1484 31.1938 27.2328C31.2875 27.3266 31.3063 27.3266 31.3063 27.2328C31.3063 27.1391 31.4938 27.0078 31.6344 27.0078C31.6813 27.0078 31.9531 27.2422 32.2438 27.5234C32.5344 27.8047 32.8438 28.0578 32.9281 28.0672L33.1344 28.1047C33.1625 28.1047 33.2938 28.0766 33.425 28.0109V28.0203ZM30.3031 25.5734C30.3031 25.4141 29.9656 25.2359 29.5625 25.1984C29.2344 25.1516 29.2344 25.1609 29.2344 25.3203C29.2344 25.4516 29.2812 25.5078 29.5156 25.6016C29.8719 25.7609 30.3031 25.7422 30.3031 25.5734Z" fill="#FFB700"/>
<path d="M30.667 25.5544C30.8357 25.4044 30.9107 25.2357 30.8076 25.2357C30.6951 25.2357 30.3951 25.4982 30.3951 25.6107C30.3951 25.7607 30.4513 25.7513 30.6763 25.5544H30.667ZM30.3201 25.0763C30.3295 24.9825 30.2732 24.9263 30.1045 24.8419C29.7295 24.6825 29.2982 24.5982 29.1951 24.6825C28.9982 24.8419 29.1295 25.0482 29.4388 25.0857C29.5701 25.095 29.7388 25.1325 29.8232 25.17C30.067 25.2638 30.292 25.2169 30.3201 25.0763V25.0763ZM30.3201 24.5794C30.3388 24.4576 30.2545 24.4107 29.5701 24.1669C29.0545 23.9794 28.8295 24.0732 28.9982 24.3825C29.0545 24.4857 29.1482 24.5325 29.3638 24.57C29.5232 24.5888 29.7388 24.6357 29.842 24.6732C30.1232 24.7669 30.292 24.7294 30.3107 24.5794H30.3201ZM30.6576 24.12C30.7607 24.0169 30.8451 23.895 30.8451 23.8388C30.8451 23.6982 30.442 23.9607 30.3857 24.1482C30.3295 24.3638 30.4326 24.3544 30.667 24.12H30.6576ZM30.3201 24.0919C30.3388 23.9419 30.0951 23.8107 29.6076 23.7075C29.242 23.6232 29.0826 23.67 29.1107 23.8388C29.1295 23.9325 29.2513 23.9982 29.5795 24.1013C30.1326 24.27 30.292 24.27 30.3201 24.0919V24.0919ZM30.7888 23.3982C31.4263 23.1169 31.4732 22.4138 30.8826 22.2263C30.6388 22.1513 30.4888 22.1982 30.3951 22.3575C30.3201 22.4888 30.367 22.7138 30.4607 22.7138C30.4982 22.7138 30.5263 22.7607 30.5263 22.8075C30.5263 23.0607 29.5701 23.1638 29.1763 22.9669C29.0357 22.9013 28.9888 22.7138 29.092 22.7138C29.1857 22.7138 29.242 22.5263 29.1951 22.4044C29.1388 22.2169 28.9513 22.1607 28.6982 22.2357C28.1076 22.3857 28.1263 23.0794 28.7263 23.3607C29.3901 23.6043 30.1166 23.6175 30.7888 23.3982V23.3982Z" fill="#FFB700"/>
<path d="M30.4047 22.8547C30.4422 22.8172 30.4234 22.7609 30.3672 22.7234C30.2359 22.6203 30.2453 22.4609 30.3859 22.2828C30.4984 22.1516 30.5078 21.9453 30.5453 19.9297C30.6109 16.4516 30.8734 13.8359 31.2109 13.1984C31.3516 12.9547 31.3328 12.9547 30.9766 13.1984C30.5092 13.5241 30.1319 13.9627 29.8797 14.4734C29.2984 15.5516 29.1016 17.0047 29.1016 20.1172C29.1016 21.8797 29.1109 22.1141 29.2141 22.2734C29.3078 22.4422 29.3078 22.4984 29.2516 22.6672C29.2047 22.7703 29.1859 22.8828 29.2047 22.9016C29.3359 23.0234 30.2734 22.9953 30.4047 22.8547ZM35.6641 19.5359C35.6922 19.5078 35.6453 19.3484 35.5703 19.1984C35.4578 18.9547 35.4109 18.9172 35.2516 18.9172C34.5019 18.852 33.7709 18.6486 33.0953 18.3172C32.6172 18.1016 32.4391 18.0547 32.3922 18.1109C32.2422 18.2516 32.4859 18.5797 32.8609 18.7578C33.4128 18.9567 33.9908 19.0735 34.5766 19.1047C34.8297 19.1047 34.8391 19.1047 34.6891 19.3203L34.5953 19.4703H34.8766L35.3453 19.5266C35.6266 19.5922 35.6266 19.5922 35.6641 19.5359V19.5359Z" fill="#FFB700"/>
<path d="M38.6291 21.1029C38.6291 21.0092 38.3572 20.7748 38.0947 20.6154C37.8791 20.4936 37.8416 20.4842 37.8416 20.5873C37.8416 20.7373 37.7104 21.1217 37.6541 21.1217C37.626 21.1217 37.5791 21.0467 37.5604 20.9623C37.5322 20.8686 37.4291 20.6811 37.326 20.5592L37.1385 20.3248L37.0072 20.5404C36.876 20.7467 36.6416 20.9436 36.5385 20.9436C36.5197 20.9436 36.5104 20.8311 36.5385 20.7092C36.5479 20.5592 36.5385 20.4467 36.4916 20.4279C36.4541 20.3998 36.4166 20.4092 36.4166 20.4467C36.4166 20.5217 36.0979 20.8779 36.0416 20.8779C36.0041 20.8779 35.9666 20.7842 35.9479 20.6529L35.8729 20.2029C35.8541 20.0904 35.901 20.1654 35.9666 20.3904L36.1166 20.7748L36.2666 20.5404C36.3345 20.4436 36.3853 20.3357 36.4166 20.2217C36.4166 20.1748 36.4447 20.1561 36.4822 20.1748C36.5197 20.1936 36.5666 20.3529 36.5854 20.5217L36.6322 20.8404L36.801 20.6529C36.8893 20.5589 36.9708 20.4586 37.0447 20.3529C37.1104 20.2404 37.1197 20.2404 37.2604 20.3529C37.3354 20.4279 37.4572 20.5873 37.5322 20.7186C37.6072 20.8498 37.6729 20.9436 37.6822 20.9342L37.7385 20.6342L37.776 20.3529C37.7854 20.3061 38.2822 20.6342 38.4697 20.7936C38.5822 20.8967 38.6947 20.9717 38.7135 20.9529C38.7322 20.9342 38.751 20.7842 38.751 20.6061C38.751 20.3436 38.7229 20.2686 38.5635 20.1279C38.376 19.9592 38.376 19.9592 38.301 20.0811C38.2072 20.2404 38.1041 20.2404 38.1041 20.0811C38.1041 19.9686 37.7479 19.5279 37.6635 19.5279C37.6354 19.5279 37.5604 19.6217 37.4947 19.7436C37.4291 19.8654 37.3541 19.9592 37.3354 19.9592C37.2416 19.9592 36.7447 19.3967 36.7447 19.3029C36.7447 19.2279 36.7822 19.2467 36.8666 19.3779C36.9504 19.5011 37.0479 19.6143 37.1572 19.7154C37.3447 19.8842 37.4197 19.8467 37.4947 19.5186C37.5229 19.4248 37.5604 19.3498 37.5885 19.3498C37.6635 19.3498 38.0947 19.8092 38.151 19.9592L38.2166 20.1092L38.2635 19.9404C38.3197 19.7342 38.3854 19.7342 38.4791 19.9217C38.5166 19.9967 38.7041 20.1654 38.8916 20.2779L39.2385 20.5029L39.3041 20.2779C39.3416 20.1561 39.3979 20.0904 39.4166 20.1279C39.4541 20.1748 39.3604 20.5498 39.2947 20.6248C39.2947 20.6342 39.1729 20.5686 39.051 20.4842L38.8166 20.3154V20.6154C38.8166 20.7748 38.7979 20.9717 38.7791 21.0467C38.7322 21.1967 38.6197 21.2342 38.6197 21.1029H38.6291ZM36.8947 18.7217C36.4822 18.3842 36.426 18.3092 36.426 18.1404L36.4354 17.9717L36.4635 18.1311C36.4822 18.2248 36.5947 18.3748 36.726 18.4873L36.9697 18.6748L37.1104 18.5061C37.1947 18.4123 37.2604 18.2998 37.2604 18.2623C37.2604 18.1498 37.2791 18.1592 37.5604 18.4029C37.8041 18.6186 37.8135 18.6186 37.8416 18.4779C37.8697 18.4029 37.8604 18.2529 37.8416 18.1498C37.7479 17.8686 37.7666 17.8311 37.8885 17.9998L38.1135 18.2623C38.2072 18.3654 38.2166 18.3654 38.2541 18.2342C38.2822 18.1498 38.301 18.0092 38.301 17.9154V17.7373L38.5166 17.9904C38.7322 18.2342 38.751 18.2436 38.8072 18.1217C38.8541 18.0561 38.8822 17.8967 38.8822 17.7748C38.8822 17.6061 38.901 17.5686 38.9385 17.6248C39.0135 17.7373 38.9666 18.0186 38.8354 18.2623L38.7416 18.4498L38.6197 18.2529C38.4604 18.0092 38.4041 18.0092 38.3104 18.2717C38.2166 18.5248 38.151 18.5436 38.0572 18.3467C38.001 18.2248 37.9822 18.2436 37.9447 18.5061L37.8979 18.7873L37.6166 18.5717L37.3354 18.3561L37.1947 18.4967C37.1291 18.5811 37.0729 18.6842 37.0729 18.7217C37.0729 18.8154 36.9979 18.8154 36.8947 18.7217V18.7217ZM40.551 17.4467C40.4104 17.3154 40.3072 17.1842 40.326 17.1654C40.3541 17.1373 40.3729 17.1279 40.3822 17.1467C40.473 17.2434 40.5668 17.3372 40.6635 17.4279C40.9822 17.7654 40.9166 17.7748 40.5604 17.4467H40.551ZM35.676 16.9404C35.5447 16.7529 35.5541 16.6404 35.7229 16.4342C35.8354 16.2936 35.8916 16.2748 36.0979 16.3029C36.2385 16.3123 36.5291 16.4342 36.7447 16.5654C37.0564 16.7516 37.413 16.8489 37.776 16.8467L37.6166 16.5842C37.4104 16.2748 37.4104 16.2373 37.6541 16.4248C37.8979 16.6217 38.1885 16.6779 38.8447 16.6592L39.1635 16.6498L38.976 16.4623C38.7229 16.2092 38.7979 16.1811 39.0885 16.4342C39.351 16.6686 39.3416 16.6873 38.7697 16.7436C38.5313 16.7676 38.2905 16.7518 38.0572 16.6967C37.7385 16.6029 37.7197 16.6123 37.7854 16.7154C37.8229 16.7811 37.8791 16.8279 37.9072 16.8279C37.9447 16.8279 37.9729 16.8654 37.9729 16.9029C37.9729 17.0248 37.2791 16.9123 36.9416 16.7529C36.1916 16.3686 36.0979 16.3311 35.9104 16.3873C35.8604 16.4065 35.8148 16.4355 35.7762 16.4725C35.7376 16.5095 35.7067 16.5539 35.6854 16.6029C35.5635 16.9123 36.0041 17.1561 36.1822 16.8842C36.2385 16.7998 36.2291 16.7529 36.1354 16.6498C36.0041 16.5186 36.0229 16.4998 36.1916 16.5561C36.3135 16.6029 36.3229 16.8936 36.2104 17.0061C36.0885 17.1279 35.7885 17.0998 35.676 16.9404Z" fill="black"/>
<path d="M38.6609 16.1795C38.5671 16.0857 38.6422 16.067 39.064 16.0576C39.589 16.0482 39.9078 15.9638 40.2828 15.7201C40.5828 15.5326 40.6672 15.5701 40.3765 15.767C40.1234 15.9545 39.7203 16.0857 39.3171 16.1232L38.839 16.1888C38.764 16.2076 38.6796 16.1982 38.6515 16.1795H38.6609Z" fill="black"/>
</g>
<defs>
<clipPath id="clip0_4046_22974">
<rect width="60" height="45" fill="white"/>
</clipPath>
</defs>
</svg>
