<svg width="60" height="45" viewBox="0 0 60 45" fill="none" xmlns="http://www.w3.org/2000/svg">
<g clip-path="url(#clip0_4046_22997)">
<path d="M0 0H60V45H0V0Z" fill="white"/>
<path d="M0 31.5H60V45H0V31.5Z" fill="#009543"/>
<path d="M0 0H60V13.5H0V0Z" fill="#00209F"/>
<path d="M29.9609 14.3455C29.7078 14.3455 29.4547 14.6268 29.4547 14.6268L29.4828 17.6643L28.5172 18.6674H29.2953V20.4018L24.7016 26.5893L24.0266 26.3455L22.8359 28.8768C22.8359 28.8768 25.7703 30.7143 30.0266 30.658C34.6953 30.6112 37.2359 28.7924 37.2359 28.7924L36.0172 26.2987L35.4078 26.5612L30.7578 20.4112V18.6205H31.5266L30.4766 17.6268V14.608C30.4766 14.608 30.2234 14.3268 29.9609 14.3362V14.3455Z" fill="black"/>
<path fill-rule="evenodd" clip-rule="evenodd" d="M30.5347 14.5547C30.5347 14.5547 30.5347 14.5547 30.479 14.6049L30.5347 14.5547L30.554 14.5761V17.5914L31.7173 18.6924H30.8352V20.3829L35.4346 26.4659L36.0556 26.1984L37.3336 28.8134L37.282 28.8503L37.2384 28.7893C37.282 28.8503 37.282 28.8503 37.2819 28.8503L37.2818 28.8504L37.2814 28.8508L37.2798 28.8519C37.2784 28.8529 37.2764 28.8543 37.2738 28.8561C37.2685 28.8597 37.2608 28.865 37.2507 28.8719C37.2303 28.8856 37.2002 28.9056 37.1602 28.9309C37.0804 28.9815 36.9616 29.0535 36.8046 29.1399C36.4906 29.3127 36.0239 29.5431 35.411 29.7747C34.1849 30.238 32.3739 30.7064 30.0298 30.7299C27.8908 30.7582 26.0842 30.3106 24.8123 29.856C24.1763 29.6287 23.6737 29.3995 23.3297 29.2269C23.1577 29.1406 23.0254 29.0685 22.9358 29.0178C22.891 28.9924 22.8569 28.9724 22.8339 28.9587C22.8224 28.9518 22.8137 28.9465 22.8078 28.9429L22.801 28.9388L22.7993 28.9377L22.7986 28.9373C22.7986 28.9373 22.7986 28.9372 22.8384 28.8737L22.7986 28.9373L22.7422 28.9019L23.9902 26.2487L24.677 26.4967L29.2227 20.3739V18.7393H28.3433L29.41 17.6312L29.3818 14.5952L29.4014 14.5735L29.4571 14.6237C29.4014 14.5735 29.4014 14.5735 29.4014 14.5735L29.4015 14.5733L29.4018 14.5731L29.4025 14.5722L29.4051 14.5694C29.4073 14.5671 29.4105 14.5637 29.4145 14.5595C29.4226 14.5512 29.4342 14.5394 29.4489 14.5254C29.4782 14.4975 29.5201 14.4602 29.5707 14.4228C29.6525 14.3622 29.7654 14.2947 29.8884 14.2739V14.2607L29.9607 14.2581C30.1174 14.2525 30.2634 14.3326 30.3634 14.4046C30.4148 14.4415 30.4572 14.4787 30.4868 14.5065C30.5016 14.5205 30.5133 14.5323 30.5215 14.5407C30.5255 14.5449 30.5287 14.5482 30.5309 14.5506L30.5336 14.5535L30.5343 14.5543L30.5346 14.5546L30.5347 14.5547ZM29.5324 14.6535L29.5605 17.6911L28.6959 18.5893H29.3727V20.4235L24.731 26.6756L24.0678 26.4362L22.9351 28.8443C22.9549 28.8559 22.9798 28.8703 23.0097 28.8872C23.0972 28.9368 23.2274 29.0078 23.397 29.0929C23.7362 29.2631 24.2332 29.4897 24.8628 29.7148C26.1222 30.1649 27.9108 30.6079 30.028 30.5799L30.0282 30.5799C32.3528 30.5566 34.1465 30.0922 35.3579 29.6344C35.9637 29.4055 36.424 29.1782 36.7323 29.0085C36.8864 28.9237 37.0026 28.8532 37.0799 28.8042C37.1048 28.7884 37.1256 28.7749 37.1424 28.7638L35.9836 26.3927L35.3859 26.6502L30.6852 20.4332V18.5424H31.3406L30.404 17.6559V14.6352C30.3984 14.6296 30.3917 14.623 30.3839 14.6157C30.3578 14.5911 30.3205 14.5585 30.2758 14.5263C30.2045 14.475 30.1214 14.43 30.0384 14.414V14.4174H29.9634C29.8618 14.4174 29.7516 14.4754 29.66 14.5433C29.6156 14.5762 29.5784 14.6092 29.5523 14.634C29.5447 14.6414 29.538 14.6479 29.5324 14.6535ZM30.0298 30.7299C30.0298 30.7299 30.0299 30.7299 30.0298 30.7299L30.029 30.6549L30.03 30.7299C30.0299 30.7299 30.0299 30.7299 30.0298 30.7299Z" fill="black"/>
<path fill-rule="evenodd" clip-rule="evenodd" d="M29.9226 15.2891C29.3455 15.2977 28.8665 15.4792 28.5108 15.8235C28.1529 16.1698 27.8848 16.7149 27.7979 17.5134C27.7176 18.2798 27.9374 19.2479 28.198 20.0574C28.3261 20.4555 28.4599 20.8027 28.5616 21.0501C28.5883 21.1152 28.6128 21.1733 28.6344 21.2235H31.3278C31.3509 21.1708 31.3776 21.1092 31.4067 21.0398C31.5124 20.7882 31.6508 20.4353 31.7815 20.0311C32.0479 19.2077 32.2629 18.2292 32.1538 17.4606L32.1537 17.4601C32.0377 16.6348 31.7959 16.1041 31.4549 15.7782C31.1211 15.459 30.6382 15.2851 29.9226 15.2891ZM31.5688 21.5985V21.9735H28.1528L28.0514 21.7583L28.3906 21.5985C28.0514 21.7583 28.0514 21.7583 28.0513 21.7582L28.051 21.7574L28.0502 21.7557L28.0473 21.7495C28.0448 21.7443 28.0414 21.7367 28.0369 21.727C28.028 21.7075 28.0152 21.6792 27.9991 21.6429C27.9669 21.5704 27.9215 21.4657 27.8679 21.3352C27.7607 21.0743 27.6196 20.7083 27.4841 20.2873C27.2174 19.4588 26.9544 18.3647 27.0521 17.4344L27.0521 17.4337L27.0522 17.433C27.1529 16.5068 27.4754 15.7818 27.9892 15.2845C28.5051 14.7853 29.1787 14.5497 29.9134 14.5392L29.915 14.5392L29.9165 14.5392C30.7563 14.5341 31.4542 14.7399 31.9732 15.2361C32.4853 15.7257 32.7686 16.4465 32.8963 17.3554C33.0308 18.3025 32.7678 19.4191 32.4951 20.262C32.3563 20.691 32.2099 21.0642 32.0982 21.3302C32.0423 21.4634 31.9949 21.5702 31.9612 21.6442C31.9443 21.6812 31.9309 21.7101 31.9215 21.73C31.9197 21.7338 31.9181 21.7373 31.9166 21.7404C31.9142 21.7455 31.9122 21.7497 31.9106 21.7531L31.9075 21.7594L31.9066 21.7612L31.9063 21.762C31.9062 21.7621 31.9062 21.7621 31.5688 21.5985Z" fill="black"/>
<path d="M24.425 27.3859C24.3687 27.4516 23.9844 28.2203 23.9844 28.2203L24.6406 28.0797L24.425 27.3859ZM24.8 28.3703L24.1063 28.5953L24.9406 28.9234L24.8 28.3703ZM25.1094 27.4047L25.4562 28.4266L26.3 28.1828L26.0844 27.6953L25.1094 27.4047V27.4047ZM25.6531 28.7922L25.7656 29.2047L26.8906 29.4859L26.4406 28.5297L25.6531 28.7922ZM26.8906 27.9203L27.2938 28.8766L28.1375 28.5484L27.8563 28.1266L26.8906 27.9203ZM27.4531 29.2234L27.5844 29.5797L28.8969 29.7672L28.3437 28.9047L27.4438 29.2234H27.4531ZM28.7094 28.1922L29.1969 29.0453L30.4156 28.5953L30.2844 28.2672L28.7094 28.2016V28.1922ZM29.4219 29.3547L29.675 29.8047L31.1938 29.7578L30.6313 28.9141L29.4125 29.3547H29.4219ZM31.025 28.2297L31.4375 28.9422L32.4125 28.4734L32.15 28.0984L31.025 28.2297V28.2297ZM32.6187 28.7734L31.6531 29.2516L31.9062 29.6734L33.2 29.4672L32.6187 28.7734V28.7734ZM32.9281 28.0234L33.425 28.6516L34.2406 28.0047L33.9594 27.7234L32.9281 28.0234ZM34.4188 28.3516L33.6406 28.9422L33.8469 29.3078L34.9156 29.0266L34.4188 28.3516V28.3516ZM35.4875 27.1328L35.675 27.4047L35.1406 28.2016L34.5875 27.4891L35.4875 27.1328V27.1328ZM35.8531 27.8172L36.1812 28.4734L35.525 28.6984L35.4687 28.3891L35.8437 27.8266L35.8531 27.8172Z" fill="white"/>
</g>
<defs>
<clipPath id="clip0_4046_22997">
<rect width="60" height="45" fill="white"/>
</clipPath>
</defs>
</svg>
