<svg width="60" height="45" viewBox="0 0 60 45" fill="none" xmlns="http://www.w3.org/2000/svg">
<g clip-path="url(#clip0_4046_23018)">
<path d="M-15 0H75V45H-15V0Z" fill="#239E46"/>
<path d="M-15 0H75V33.75H-15V0Z" fill="black"/>
<path d="M-15 0H75V11.25H-15V0Z" fill="#E70013"/>
<path d="M33.977 18.522C33.2462 18.0005 32.3859 17.6904 31.4905 17.6257C30.5951 17.561 29.6992 17.7442 28.9011 18.1551C28.1029 18.5661 27.4334 19.189 26.966 19.9554C26.4985 20.7219 26.2512 21.6023 26.2512 22.5C26.2512 23.3977 26.4985 24.2781 26.966 25.0446C27.4334 25.811 28.1029 26.4339 28.9011 26.8449C29.6992 27.2558 30.5951 27.439 31.4905 27.3743C32.3859 27.3096 33.2462 26.9995 33.977 26.478C33.1902 27.2645 32.1879 27.8001 31.0968 28.017C30.0057 28.234 28.8748 28.1225 27.8471 27.6967C26.8193 27.2709 25.9409 26.5499 25.3229 25.6249C24.7049 24.6999 24.375 23.6125 24.375 22.5C24.375 21.3875 24.7049 20.3001 25.3229 19.3751C25.9409 18.4501 26.8193 17.7291 27.8471 17.3033C28.8748 16.8775 30.0057 16.7661 31.0968 16.983C32.1879 17.1999 33.1902 17.7355 33.977 18.522M32.735 22.5L40.304 20.043L35.624 26.478V18.522L40.304 24.957L32.735 22.5Z" fill="white"/>
</g>
<defs>
<clipPath id="clip0_4046_23018">
<rect width="60" height="45" fill="white"/>
</clipPath>
</defs>
</svg>
