<svg width="60" height="45" viewBox="0 0 60 45" fill="none" xmlns="http://www.w3.org/2000/svg">
<g clip-path="url(#clip0_4046_23024)">
<path d="M60 0H0V45H60V0Z" fill="#C1272D"/>
<path fill-rule="evenodd" clip-rule="evenodd" d="M29.9965 15.043L31.6739 20.2073H37.0867L32.706 23.3847L34.3762 28.5267L29.9965 25.35L25.6167 28.5267L27.2869 23.3847L22.9062 20.2073H28.319L29.9965 15.043ZM27.9627 21.3042H26.2867L27.6431 22.2881L27.9627 21.3042ZM28.5765 22.9651L29.116 21.3042H30.8769L31.4164 22.9651L29.9965 23.995L28.5765 22.9651ZM28.2203 24.0617L27.7012 25.6598L29.0624 24.6725L28.2203 24.0617ZM30.9306 24.6725L32.2917 25.6598L31.7726 24.0617L30.9306 24.6725ZM32.3498 22.2881L33.7063 21.3042H32.0302L32.3498 22.2881ZM30.5206 20.2073H29.4723L29.9965 18.5935L30.5206 20.2073Z" fill="#006233"/>
</g>
<defs>
<clipPath id="clip0_4046_23024">
<rect width="60" height="45" fill="white"/>
</clipPath>
</defs>
</svg>
