<svg width="60" height="45" viewBox="0 0 60 45" fill="none" xmlns="http://www.w3.org/2000/svg">
<g clip-path="url(#clip0_4046_23031)">
<path fill-rule="evenodd" clip-rule="evenodd" d="M0 0H19.9969V45H0V0Z" fill="#00319C"/>
<path fill-rule="evenodd" clip-rule="evenodd" d="M20 0H40.0063V45H20V0Z" fill="#FFDE00"/>
<path fill-rule="evenodd" clip-rule="evenodd" d="M40 0H59.9969V45H40V0Z" fill="#DE2110"/>
<path fill-rule="evenodd" clip-rule="evenodd" d="M33.7891 30.0391L36.0578 33.3203C36.1891 33.5078 36.3109 33.6859 36.1234 33.8078C35.9359 33.9297 35.9922 34.4078 36.1234 34.5953C36.3766 34.9609 36.6859 35.0172 36.8734 34.8953L38.5984 33.8078C38.7859 33.6953 38.8516 33.3859 38.5984 33.0203C38.4578 32.8328 38.0359 32.5984 37.8484 32.7203C37.6516 32.8422 37.5203 32.6547 37.3984 32.4766L35.1203 29.1953" fill="#FF1900"/>
<path fill-rule="evenodd" clip-rule="evenodd" d="M35.143 29.1758L37.4213 32.4572C37.4831 32.5476 37.5433 32.6338 37.6106 32.6838C37.6435 32.7082 37.6764 32.7225 37.7105 32.7252C37.7441 32.7277 37.7823 32.7191 37.8266 32.6918C37.8822 32.6558 37.9523 32.6478 38.0244 32.656C38.097 32.6643 38.1751 32.6893 38.2504 32.7236C38.4002 32.792 38.5459 32.9004 38.6204 32.9998L38.6212 33.0008C38.879 33.3733 38.8226 33.7079 38.6114 33.8349L36.8871 34.922C36.887 34.922 36.8869 34.9221 36.8869 34.9221C36.6783 35.0575 36.3506 34.9863 36.0922 34.6132C36.0219 34.5127 35.9741 34.3395 35.9669 34.1776C35.9632 34.0961 35.9698 34.0152 35.9901 33.9459C36.0104 33.8768 36.0454 33.8158 36.1013 33.7795C36.1437 33.7519 36.1656 33.7233 36.1755 33.6949C36.1855 33.6664 36.1848 33.634 36.1743 33.5968C36.1527 33.5201 36.0934 33.4336 36.0267 33.3383L36.0266 33.3382L33.7578 30.0569L33.8118 30.0196L36.0804 33.3007C36.0805 33.3007 36.0804 33.3007 36.0804 33.3007C36.145 33.3929 36.2122 33.4893 36.2375 33.579C36.2504 33.6249 36.2532 33.6716 36.2374 33.7166C36.2216 33.7618 36.1884 33.8011 36.1371 33.8345C36.0992 33.8591 36.0709 33.9036 36.0531 33.9643C36.0354 34.0248 36.029 34.098 36.0324 34.1747C36.0393 34.3291 36.0852 34.4888 36.1461 34.5757L36.1462 34.5758C36.394 34.9338 36.6849 34.9752 36.8513 34.867L36.8517 34.8667L38.5773 33.7789C38.7407 33.6808 38.8154 33.3971 38.5676 33.0387C38.5013 32.9507 38.366 32.8485 38.2231 32.7833C38.1519 32.7509 38.0806 32.7284 38.017 32.7212C37.953 32.7139 37.9001 32.7223 37.8621 32.747L37.8615 32.7474C37.8074 32.7808 37.7555 32.7944 37.7054 32.7906C37.6557 32.7868 37.6112 32.7659 37.5715 32.7365C37.4936 32.6787 37.4272 32.5821 37.3672 32.4944C37.3671 32.4943 37.3671 32.4943 37.3671 32.4943L35.0891 29.2132L35.143 29.1758Z" fill="black"/>
<path fill-rule="evenodd" clip-rule="evenodd" d="M34.6746 27.724C35.6893 28.8766 36.0423 30.1981 35.464 30.663C34.8856 31.1279 33.5835 30.5694 32.5688 29.4168C31.5541 28.2642 31.2061 26.9388 31.7844 26.4738C32.3628 26.0089 33.6607 26.5627 34.6796 27.72L34.6746 27.724Z" fill="#A77B3B"/>
<path fill-rule="evenodd" clip-rule="evenodd" d="M31.6618 27.671C31.7997 28.191 32.1336 28.8002 32.6347 29.3693C33.1359 29.9386 33.7056 30.3582 34.217 30.5781C34.7342 30.8005 35.164 30.8084 35.4161 30.6057C35.6683 30.403 35.7337 29.997 35.5929 29.472C35.4537 28.953 35.1186 28.3447 34.6174 27.7755L34.5653 27.7162L34.5698 27.7126C34.0797 27.171 33.5316 26.7727 33.0386 26.561C32.5221 26.3393 32.0932 26.3323 31.841 26.5351C31.5887 26.7379 31.5222 27.145 31.6618 27.671ZM34.7923 27.7361L34.7977 27.7318L34.7455 27.6726C34.2299 27.0869 33.6413 26.6509 33.1037 26.4202C32.572 26.1919 32.0627 26.1544 31.7366 26.4166C31.4105 26.6787 31.3618 27.1668 31.5054 27.7079C31.6505 28.255 31.998 28.8849 32.5116 29.4683C33.0252 30.0516 33.6138 30.4875 34.1518 30.7188C34.6839 30.9476 35.1943 30.9865 35.5205 30.7243C35.8467 30.4621 35.894 29.9748 35.7492 29.4347C35.6078 28.9072 35.2775 28.3025 34.7923 27.7361Z" fill="black"/>
<path fill-rule="evenodd" clip-rule="evenodd" d="M24.5602 28.6953L22.5446 32.1359C22.4321 32.3234 22.3196 32.5109 22.1227 32.4172C21.9259 32.3047 21.504 32.5766 21.3915 32.7734C21.1665 33.1484 21.2509 33.4484 21.4571 33.5609L23.2571 34.5172C23.4446 34.6203 23.7634 34.5359 23.9884 34.1609C24.0915 33.9547 24.1196 33.4766 23.9227 33.3734C23.7259 33.2703 23.829 33.0734 23.9509 32.8859L25.9571 29.4453" fill="#FF1900"/>
<path fill-rule="evenodd" clip-rule="evenodd" d="M22.518 32.12L24.5335 28.6797L24.5901 28.7129L22.5745 32.1535L22.5743 32.1538L22.5725 32.1569C22.5176 32.2483 22.4592 32.3457 22.3885 32.4077C22.3521 32.4396 22.3108 32.4637 22.2634 32.4724C22.2155 32.4812 22.1646 32.4737 22.1102 32.4478L22.1091 32.4472L22.108 32.4466C22.0682 32.4239 22.0138 32.4189 21.9488 32.4309C21.8842 32.4429 21.8128 32.4709 21.7427 32.5091C21.6016 32.586 21.4737 32.6994 21.4215 32.7907L21.4212 32.7913C21.3115 32.9741 21.2792 33.1354 21.2967 33.2621C21.3141 33.3883 21.3809 33.482 21.4742 33.533C21.4743 33.533 21.4743 33.5331 21.4744 33.5331L23.2745 34.4894C23.4398 34.5803 23.7408 34.5124 23.9611 34.1461C24.0094 34.0489 24.0414 33.8842 24.0368 33.7304C24.0345 33.6536 24.0232 33.5816 24.0014 33.5235C23.9795 33.4651 23.9485 33.4241 23.9091 33.4035C23.8549 33.3751 23.8183 33.3385 23.7986 33.2945C23.7789 33.2508 23.7776 33.2034 23.7866 33.1561C23.8044 33.0636 23.8641 32.9627 23.9245 32.8697L25.9303 29.4297L25.987 29.4628L23.9804 32.9041L23.9799 32.9048C23.9187 32.9991 23.8661 33.0901 23.8511 33.1685C23.8437 33.2068 23.8459 33.2396 23.8584 33.2676C23.8709 33.2954 23.8953 33.3222 23.9395 33.3453C23.9985 33.3762 24.0378 33.4337 24.0628 33.5004C24.0879 33.5674 24.1 33.6471 24.1024 33.7285C24.1072 33.8906 24.0739 34.0674 24.0193 34.1766L24.0187 34.1777L24.0181 34.1788C23.7885 34.5614 23.4527 34.6621 23.2431 34.547C23.243 34.547 23.2429 34.5469 23.2429 34.5469L21.4433 33.5909L21.443 33.5907C21.3301 33.5292 21.2517 33.4167 21.2316 33.2711C21.2116 33.126 21.2496 32.9499 21.3647 32.7578C21.4252 32.6522 21.5644 32.5315 21.7113 32.4514C21.7854 32.4111 21.8635 32.38 21.9369 32.3664C22.0094 32.353 22.0811 32.3561 22.1395 32.389C22.183 32.4096 22.2197 32.4137 22.2516 32.4078C22.2841 32.4019 22.3149 32.385 22.3453 32.3583C22.4073 32.3039 22.4609 32.2153 22.518 32.1202C22.518 32.1201 22.518 32.1201 22.518 32.12Z" fill="black"/>
<path fill-rule="evenodd" clip-rule="evenodd" d="M31.0484 26.3048H29.2109C29.1547 26.3611 28.6297 29.6423 28.0672 30.8986C27.3828 32.4267 25.3297 33.7767 25.3297 33.7767C25.3297 33.7767 26.5578 34.1517 26.9234 34.3954C27.0172 34.3673 28.9859 33.9548 29.2109 31.5548C29.4359 33.9548 27.8422 35.0517 27.8422 35.0517C27.8422 35.0517 30.1297 35.7079 30.1297 37.2361C30.1297 35.7079 32.4172 35.0517 32.4172 35.0517C32.4172 35.0517 31.2734 33.9548 31.0391 31.5548C31.5078 33.9548 33.2422 34.3673 33.3359 34.3954C33.7016 34.1517 34.9297 33.7767 34.9297 33.7767C34.9297 33.7767 32.8766 32.4267 32.1922 30.8986C31.6297 29.6423 31.1047 26.3611 31.0484 26.3048V26.3048ZM23.2672 15.3642L26.6984 16.4611C27.8328 16.4611 28.9859 15.3642 28.9859 14.2673C29.0234 11.8298 28.0672 10.9861 27.8422 10.9861L28.2922 10.5548L27.6078 9.89857C27.6078 9.89857 27.8422 8.76419 30.1297 8.80169C32.4172 8.84857 32.4172 9.89857 32.4172 10.9861C32.4172 12.0736 31.2734 12.0829 31.2734 14.2673C31.2734 15.3642 32.4172 16.4611 33.5609 16.4611L36.9922 15.3642V26.3048H23.2578V15.3642H23.2672Z" fill="#A77B3B"/>
<path fill-rule="evenodd" clip-rule="evenodd" d="M27.6997 9.87629L28.4089 10.5564L27.9922 10.9558C27.9945 10.9571 27.9969 10.9585 27.9993 10.9598C28.0536 10.9916 28.1143 11.0384 28.1782 11.1004C28.3061 11.2245 28.4505 11.4136 28.5851 11.678C28.8545 12.2072 29.086 13.0407 29.0672 14.2695C29.067 14.8451 28.7653 15.4128 28.3242 15.8347C27.8828 16.2569 27.292 16.5423 26.7 16.5423H26.6876L23.3391 15.4719V26.2267H36.9141V15.4749L33.5749 16.5423H33.5625C32.9659 16.5423 32.3751 16.2569 31.9347 15.8346C31.4945 15.4124 31.1953 14.8444 31.1953 14.2689C31.1953 13.1588 31.4872 12.5947 31.7814 12.1714C31.8334 12.0967 31.8843 12.0275 31.933 11.9614C32.1607 11.6518 32.3391 11.4094 32.3391 10.9876C32.3391 10.437 32.3363 9.93092 32.0678 9.55122C31.8039 9.17822 31.2648 8.90621 30.1298 8.88293C28.9993 8.86442 28.3888 9.1355 28.0626 9.39956C27.8991 9.53191 27.8049 9.66421 27.7517 9.76164C27.7256 9.8095 27.7093 9.84908 27.6997 9.87629ZM30.992 26.3861H29.2705C29.2644 26.4109 29.257 26.444 29.2482 26.485C29.2275 26.5818 29.2003 26.7189 29.1673 26.8866C29.1609 26.9194 29.1542 26.9534 29.1473 26.9885C29.0839 27.3112 29.0026 27.7252 28.9084 28.1698C28.7002 29.1525 28.4268 30.2955 28.1415 30.9327C27.7921 31.7128 27.0971 32.4416 26.4961 32.972C26.1946 33.2381 25.9147 33.456 25.7102 33.6075C25.6318 33.6655 25.5645 33.7138 25.5112 33.7513C25.5246 33.7556 25.5386 33.7601 25.5533 33.7648C25.6746 33.8039 25.8403 33.8586 26.0175 33.9211C26.1946 33.9834 26.3839 34.0537 26.5524 34.1239C26.7029 34.1867 26.8408 34.251 26.9385 34.3111C27.0717 34.2761 27.5146 34.1518 27.9711 33.8028C28.4872 33.4084 29.0229 32.7248 29.1332 31.5489H29.2918C29.4062 32.7691 29.0581 33.6609 28.6795 34.248C28.4904 34.5412 28.2941 34.758 28.1445 34.9018C28.0937 34.9507 28.0482 34.9912 28.0102 35.0235C28.0693 35.0439 28.1443 35.0713 28.2307 35.1056C28.448 35.1922 28.7384 35.324 29.0295 35.5047C29.481 35.785 29.9487 36.1927 30.1312 36.7431C30.3138 36.1927 30.7815 35.785 31.233 35.5047C31.524 35.324 31.8145 35.1922 32.0318 35.1056C32.1296 35.0667 32.2128 35.0368 32.275 35.0157C32.2467 34.9834 32.2126 34.9428 32.1739 34.8938C32.0605 34.7503 31.9077 34.5345 31.7477 34.2432C31.4278 33.6603 31.0796 32.7758 30.9613 31.5641L31.1188 31.5411C31.3495 32.722 31.8899 33.4088 32.3797 33.8041C32.8087 34.1503 33.2017 34.2754 33.3247 34.3106C33.4224 34.2507 33.5599 34.1865 33.7101 34.1239C33.8786 34.0537 34.0679 33.9834 34.245 33.9211C34.4222 33.8586 34.5879 33.8039 34.7092 33.7648C34.7239 33.7601 34.7379 33.7556 34.7513 33.7513C34.698 33.7138 34.6307 33.6655 34.5523 33.6075C34.3478 33.456 34.0679 33.2381 33.7664 32.972C33.1654 32.4416 32.4704 31.7128 32.121 30.9327C31.8357 30.2955 31.5623 29.1525 31.3541 28.1698C31.2599 27.7252 31.1785 27.3112 31.1152 26.9885C31.1083 26.9534 31.1016 26.9194 31.0952 26.8866C31.0622 26.7189 31.035 26.5818 31.0143 26.485C31.0055 26.444 30.9981 26.4109 30.992 26.3861ZM32.4739 34.9958L32.5739 35.0916L32.4405 35.1299L32.4394 35.1302L32.4349 35.1316C32.4309 35.1328 32.4247 35.1346 32.4166 35.1371C32.4004 35.1421 32.3764 35.1497 32.3457 35.16C32.2844 35.1805 32.1965 35.2116 32.0908 35.2537C31.8792 35.338 31.5978 35.4658 31.317 35.6401C30.7508 35.9917 30.2109 36.517 30.2109 37.2376H30.0516C30.0516 36.517 29.5117 35.9917 28.9455 35.6401C28.6647 35.4658 28.3833 35.338 28.1717 35.2537C28.066 35.2116 27.9781 35.1805 27.9168 35.16C27.8861 35.1497 27.8621 35.1421 27.8459 35.1371C27.8378 35.1346 27.8316 35.1328 27.8276 35.1316L27.8231 35.1302L27.822 35.1299L27.8218 35.1298L27.6595 35.0833L27.7985 34.9877L27.7986 34.9876L27.7992 34.9872L27.802 34.9852C27.8046 34.9833 27.8087 34.9804 27.8141 34.9764C27.8249 34.9683 27.8411 34.956 27.8619 34.9393C27.9033 34.906 27.9629 34.8553 28.034 34.7869C28.1763 34.6501 28.3643 34.4427 28.5455 34.1616C28.8217 33.7335 29.0828 33.1335 29.1421 32.3492C28.913 33.1121 28.4866 33.6095 28.0679 33.9295C27.5638 34.3147 27.0728 34.4411 26.9662 34.4685C26.9574 34.4707 26.9512 34.4723 26.9479 34.4733L26.912 34.4841L26.8808 34.4633C26.7963 34.407 26.6571 34.3403 26.4911 34.271C26.3264 34.2024 26.1402 34.1332 25.9645 34.0714C25.789 34.0096 25.6248 33.9553 25.5044 33.9165C25.4442 33.8971 25.395 33.8816 25.3609 33.8709C25.3439 33.8656 25.3306 33.8614 25.3216 33.8587L25.3114 33.8555L25.3088 33.8547L25.3082 33.8545L25.308 33.8545L25.1457 33.8049L25.2875 33.7117L25.2877 33.7115L25.2888 33.7108L25.293 33.708C25.2968 33.7055 25.3024 33.7017 25.3099 33.6967C25.3248 33.6866 25.3469 33.6715 25.3754 33.6518C25.4322 33.6123 25.5145 33.5541 25.6153 33.4794C25.8171 33.33 26.0933 33.1149 26.3906 32.8525C26.9873 32.3259 27.661 31.6156 27.996 30.8676C28.2732 30.2485 28.5436 29.1228 28.7525 28.1367C28.8465 27.6934 28.9276 27.2805 28.9909 26.9577C28.9978 26.9227 29.0045 26.8887 29.011 26.8558C29.0439 26.6884 29.0713 26.5501 29.0923 26.4517C29.0975 26.4276 29.1023 26.4056 29.1068 26.3861H23.1797V15.2861H23.2812L26.7123 16.3829C27.2507 16.379 27.7985 16.1169 28.2141 15.7195C28.633 15.3189 28.9078 14.79 28.9078 14.2689V14.2677C28.9264 13.0593 28.6986 12.2523 28.443 11.7503C28.3152 11.4991 28.1807 11.3249 28.0671 11.2147C28.0103 11.1595 27.9597 11.1213 27.9188 11.0974C27.8756 11.0722 27.8509 11.0673 27.8437 11.0673H27.6454L28.1786 10.5564L27.5224 9.92715L27.5313 9.884L27.6094 9.90013C27.5313 9.884 27.5314 9.88393 27.5314 9.88384L27.5314 9.88366L27.5315 9.8832L27.5318 9.88199C27.532 9.88104 27.5323 9.87982 27.5326 9.87833C27.5333 9.87536 27.5343 9.87134 27.5357 9.86633C27.5385 9.85631 27.5426 9.84236 27.5487 9.82503C27.5609 9.79039 27.5807 9.74226 27.6118 9.6853C27.6741 9.5712 27.7813 9.42225 27.9624 9.27569C28.3252 8.98195 28.9756 8.70461 30.1326 8.72358L30.1329 8.72358C31.2852 8.7472 31.8898 9.02361 32.1979 9.45919C32.4985 9.88424 32.4985 10.4407 32.4984 10.9732V10.9876C32.4984 11.4658 32.2851 11.7542 32.0541 12.0666C32.007 12.1303 31.9592 12.195 31.9123 12.2624C31.6347 12.6618 31.3547 13.1946 31.3547 14.2689C31.3547 14.7902 31.6274 15.3191 32.045 15.7196C32.4593 16.1169 33.0071 16.379 33.5502 16.3829L37.0734 15.2566V26.3861H31.1557C31.1602 26.4056 31.165 26.4276 31.1702 26.4517C31.1912 26.5501 31.2186 26.6884 31.2515 26.8558C31.258 26.8887 31.2647 26.9227 31.2716 26.9578C31.335 27.2806 31.416 27.6934 31.51 28.1367C31.7189 29.1228 31.9893 30.2485 32.2665 30.8676C32.6015 31.6156 33.2752 32.3259 33.8719 32.8525C34.1692 33.1149 34.4454 33.33 34.6472 33.4794C34.748 33.5541 34.8303 33.6123 34.8871 33.6518C34.9156 33.6715 34.9377 33.6866 34.9526 33.6967C34.9601 33.7017 34.9657 33.7055 34.9695 33.708L34.9737 33.7108L34.9748 33.7115L34.975 33.7116L35.1168 33.8049L34.9545 33.8545L34.9543 33.8545L34.9537 33.8547L34.9511 33.8555L34.9409 33.8587C34.9319 33.8614 34.9186 33.8656 34.9016 33.8709C34.8675 33.8816 34.8183 33.8971 34.7581 33.9165C34.6377 33.9553 34.4735 34.0096 34.298 34.0714C34.1223 34.1332 33.9361 34.2024 33.7714 34.271C33.6054 34.3403 33.4662 34.407 33.3817 34.4633L33.3505 34.4841L33.3146 34.4733C33.3118 34.4725 33.3076 34.4713 33.3019 34.4698C33.2116 34.4446 32.7663 34.3209 32.2796 33.9282C31.9408 33.6548 31.5836 33.2524 31.3103 32.6656C31.468 33.2985 31.6842 33.7964 31.8874 34.1665C32.0427 34.4494 32.1905 34.6578 32.2989 34.795C32.3531 34.8635 32.3974 34.9143 32.4279 34.9476C32.4432 34.9643 32.455 34.9766 32.4628 34.9846C32.4667 34.9886 32.4696 34.9915 32.4715 34.9934L32.4735 34.9954L32.4739 34.9958ZM27.6873 9.91664C27.6873 9.91671 27.6873 9.9167 27.6873 9.91664Z" fill="black"/>
<path fill-rule="evenodd" clip-rule="evenodd" d="M28.9876 15.7812L29.2177 16.4446L29.6759 15.7866L29.8974 16.4731L30.1306 15.784L30.4694 16.4792L30.819 15.7844L31.0461 16.439L31.2696 15.799L31.282 15.8033L31.046 16.4788L30.8167 15.8179L30.4692 16.5087L30.1328 15.8183L29.8971 16.5148L29.6716 15.8157L29.2138 16.4732L28.9876 15.8211L28.7578 16.4788L28.5234 15.8033L28.5358 15.799L28.7578 16.439L28.9876 15.7812Z" fill="black"/>
<path fill-rule="evenodd" clip-rule="evenodd" d="M28.9844 15.8058L29.443 13.3984L29.4554 13.4008L28.9968 15.8082L28.9844 15.8058ZM30.8124 15.8076L30.5863 13.4002L30.5989 13.399L30.825 15.8064L30.8124 15.8076ZM31.2711 15.8076L31.045 13.4002L31.0576 13.399L31.2836 15.8064L31.2711 15.8076ZM29.669 15.807V13.3996H29.6816V15.807H29.669ZM30.1277 15.807V13.3996H30.1403V15.807H30.1277Z" fill="black"/>
<path fill-rule="evenodd" clip-rule="evenodd" d="M20.9697 8.80859C18.6829 9.90118 18.6829 12.0925 18.6829 13.1851C18.7604 14.1789 18.6829 35.0553 18.6829 35.0553C18.6829 35.0553 18.8315 33.8207 19.8263 32.8701L20.9632 31.7775L22.1066 30.6849C22.9464 29.9565 23.25 28.4936 23.25 27.401V12.0925C23.25 12.0925 23.25 10.9938 20.9632 8.80859H20.9697Z" fill="#A77B3B"/>
<path fill-rule="evenodd" clip-rule="evenodd" d="M20.9821 8.78881L20.9689 8.73047H20.7655L20.8285 8.79059C18.6031 9.92106 18.6031 12.1067 18.6031 13.1813V13.189L18.6034 13.192C18.6225 13.4366 18.6322 14.9229 18.6359 17.0225C18.6395 19.1193 18.6371 21.8219 18.6322 24.4935C18.6274 27.1651 18.6201 29.8057 18.6141 31.7784C18.611 32.7647 18.6083 33.5841 18.6063 34.1568C18.6053 34.4432 18.6046 34.6679 18.604 34.8211L18.6032 35.0555C18.6032 35.0557 18.6032 35.0558 18.6821 35.0561L18.6032 35.0558L18.7599 35.0655C18.7604 35.0655 18.7604 35.0655 18.7604 35.0655L18.7605 35.065L18.7608 35.0628C18.7611 35.0607 18.7615 35.0575 18.7621 35.0532C18.7634 35.0445 18.7654 35.0314 18.7682 35.0143C18.774 34.98 18.7834 34.9295 18.7978 34.8657C18.8266 34.7381 18.8753 34.5576 18.9546 34.3479C19.1132 33.928 19.3935 33.3929 19.88 32.928L19.8802 32.9278L21.0169 31.8354L21.0171 31.8352L22.159 30.7441C22.5935 30.3665 22.8849 29.8037 23.0679 29.2034C23.2514 28.6015 23.3281 27.9547 23.3281 27.4018V12.0933H23.2492C23.3281 12.0933 23.3281 12.0932 23.3281 12.0931L23.3281 12.093L23.3281 12.0925L23.3281 12.0912C23.3281 12.0903 23.3281 12.089 23.328 12.0875C23.3279 12.0845 23.3277 12.0805 23.3274 12.0753C23.3267 12.065 23.3254 12.0505 23.323 12.0317C23.3181 11.994 23.3085 11.9393 23.2898 11.8676C23.2525 11.7242 23.1788 11.513 23.0333 11.2343C22.7425 10.677 22.1649 9.84929 21.0169 8.75233L20.9821 8.78881ZM20.9496 8.90649C18.7662 9.98336 18.761 12.0954 18.761 13.1829C18.7805 13.4443 18.7901 14.9366 18.7937 17.0222C18.7974 19.1193 18.7949 21.8221 18.7901 24.4938C18.7852 27.1655 18.778 29.8061 18.7719 31.7789C18.7689 32.7652 18.7662 33.5846 18.7642 34.1574C18.7639 34.2489 18.7636 34.3342 18.7633 34.4128C18.7767 34.3738 18.7912 34.3335 18.8069 34.2921C18.9712 33.857 19.2626 33.2996 19.7708 32.8139C19.7709 32.8139 19.7709 32.8139 19.7709 32.8138" fill="black"/>
<path fill-rule="evenodd" clip-rule="evenodd" d="M22.1135 11.9844L20.9695 13.0776L19.8261 11.985L18.6281 13.1297L18.7372 13.2438L19.8261 12.2033L20.9695 13.2959L22.1122 12.2039C22.1424 12.2334 22.1838 12.2737 22.2328 12.3214C22.338 12.4239 22.4786 12.5605 22.62 12.6972C22.7614 12.8338 22.9037 12.9706 23.0125 13.0734C23.0668 13.1247 23.1131 13.1679 23.1467 13.1983C23.1635 13.2135 23.1778 13.2261 23.1886 13.2351C23.1939 13.2395 23.1994 13.244 23.2046 13.2477C23.207 13.2494 23.2108 13.2521 23.2154 13.2546C23.2176 13.2559 23.2215 13.258 23.2264 13.2599C23.2298 13.2613 23.2411 13.2657 23.2562 13.2657V13.1078C23.271 13.1078 23.2817 13.1121 23.2845 13.1131C23.2887 13.1148 23.2918 13.1165 23.2931 13.1172C23.2958 13.1188 23.2972 13.1199 23.2968 13.1195C23.2962 13.1191 23.294 13.1174 23.2897 13.1138C23.2813 13.1069 23.2689 13.096 23.2526 13.0812C23.2203 13.052 23.175 13.0098 23.1209 12.9586C23.0128 12.8565 22.871 12.7202 22.7297 12.5837C22.5885 12.4472 22.4481 12.3107 22.3429 12.2083C22.2904 12.1571 22.2466 12.1145 22.216 12.0846L22.1681 12.0378C22.1681 12.0378 22.168 12.0377 22.1128 12.0942L22.1681 12.0378L22.1135 11.9844Z" fill="black"/>
<path fill-rule="evenodd" clip-rule="evenodd" d="M22.1135 15.4766L20.9695 14.3834L19.8261 15.476L18.6281 14.3313L18.7372 14.2171L19.8261 15.2576L20.9695 14.165L22.1122 15.257C22.1424 15.2276 22.1838 15.1873 22.2328 15.1395C22.338 15.0371 22.4786 14.9004 22.62 14.7637C22.7614 14.6271 22.9037 14.4903 23.0125 14.3875C23.0668 14.3362 23.1131 14.2931 23.1467 14.2626C23.1635 14.2475 23.1778 14.2349 23.1886 14.2258C23.1939 14.2214 23.1994 14.217 23.2046 14.2133C23.207 14.2115 23.2108 14.2089 23.2154 14.2063C23.2176 14.205 23.2215 14.203 23.2264 14.201C23.2298 14.1997 23.2411 14.1953 23.2562 14.1953V14.3531C23.271 14.3531 23.2817 14.3489 23.2845 14.3478C23.2887 14.3461 23.2918 14.3444 23.2931 14.3437C23.2958 14.3422 23.2972 14.3411 23.2968 14.3414C23.2962 14.3418 23.294 14.3435 23.2897 14.3471C23.2813 14.3541 23.2689 14.365 23.2526 14.3797C23.2203 14.409 23.175 14.4512 23.1209 14.5023C23.0128 14.6044 22.871 14.7407 22.7297 14.8773C22.5885 15.0137 22.4481 15.1502 22.3429 15.2526C22.2904 15.3038 22.2466 15.3465 22.216 15.3763L22.1681 15.4232C22.1681 15.4232 22.168 15.4232 22.1128 15.3668L22.1681 15.4232L22.1135 15.4766Z" fill="black"/>
<path fill-rule="evenodd" clip-rule="evenodd" d="M22.1135 16.3516L20.9695 17.4447L19.8261 16.3522L18.6281 17.4969L18.7372 17.611L19.8261 16.5705L20.9695 17.6631L22.1122 16.5711C22.1424 16.6005 22.1838 16.6409 22.2328 16.6886C22.338 16.7911 22.4786 16.9277 22.62 17.0644C22.7614 17.201 22.9037 17.3378 23.0125 17.4406C23.0668 17.4919 23.1131 17.535 23.1467 17.5655C23.1635 17.5807 23.1778 17.5932 23.1886 17.6023C23.1939 17.6067 23.1994 17.6112 23.2046 17.6149C23.207 17.6166 23.2108 17.6193 23.2154 17.6218C23.2176 17.6231 23.2215 17.6252 23.2264 17.6271C23.2298 17.6285 23.2411 17.6329 23.2562 17.6329V17.475C23.271 17.475 23.2817 17.4792 23.2845 17.4803C23.2887 17.482 23.2918 17.4837 23.2931 17.4844C23.2958 17.4859 23.2972 17.487 23.2968 17.4867C23.2962 17.4863 23.294 17.4846 23.2897 17.481C23.2813 17.4741 23.2689 17.4632 23.2526 17.4484C23.2203 17.4192 23.175 17.3769 23.1209 17.3258C23.0128 17.2237 22.871 17.0874 22.7297 16.9509C22.5885 16.8144 22.4481 16.6779 22.3429 16.5755C22.2904 16.5243 22.2466 16.4817 22.216 16.4518L22.1681 16.4049C22.1681 16.4049 22.168 16.4049 22.1128 16.4613L22.1681 16.4049L22.1135 16.3516Z" fill="black"/>
<path fill-rule="evenodd" clip-rule="evenodd" d="M22.2188 30.686L22.2058 12.0898L21.9884 12.09L22.0013 30.6861L22.2188 30.686Z" fill="black"/>
<path fill-rule="evenodd" clip-rule="evenodd" d="M21.0859 31.7345L21.073 13.1836L20.867 13.1837L20.8799 31.7346L21.0859 31.7345Z" fill="black"/>
<path fill-rule="evenodd" clip-rule="evenodd" d="M19.9531 32.875L19.9402 12.0938L19.7222 12.0939L19.7351 32.8751L19.9531 32.875Z" fill="black"/>
<path fill-rule="evenodd" clip-rule="evenodd" d="M39.2803 8.80859C41.5671 9.90118 41.5671 12.0925 41.5671 13.1851C41.4896 14.1789 41.5671 35.0553 41.5671 35.0553C41.5671 35.0553 41.4185 33.8207 40.4237 32.8701L39.2868 31.7775L38.1434 30.6849C37.3036 29.9565 37 28.4936 37 27.401V12.0925C37 12.0925 37 10.9938 39.2868 8.80859H39.2803Z" fill="#A77B3B"/>
<path fill-rule="evenodd" clip-rule="evenodd" d="M39.2679 8.78881L39.2811 8.73047H39.4845L39.4215 8.79059C41.6469 9.92106 41.6469 12.1067 41.6469 13.1813V13.189L41.6466 13.192C41.6275 13.4366 41.6178 14.9229 41.6141 17.0225C41.6105 19.1193 41.6129 21.8219 41.6178 24.4935C41.6226 27.1651 41.6299 29.8057 41.6359 31.7784C41.639 32.7647 41.6417 33.5841 41.6437 34.1568C41.6447 34.4432 41.6454 34.6679 41.646 34.8211L41.6468 35.0555C41.6468 35.0557 41.6468 35.0558 41.5679 35.0561L41.6468 35.0558L41.4901 35.0655C41.4896 35.0655 41.4896 35.0655 41.4896 35.0655L41.4895 35.065L41.4892 35.0628C41.4889 35.0607 41.4885 35.0575 41.4879 35.0532C41.4866 35.0445 41.4846 35.0314 41.4818 35.0143C41.476 34.98 41.4666 34.9295 41.4522 34.8657C41.4234 34.7381 41.3747 34.5576 41.2954 34.3479C41.1368 33.928 40.8565 33.3929 40.37 32.928L40.3698 32.9278L39.2331 31.8354L39.2329 31.8352L38.091 30.7441C37.6565 30.3665 37.3651 29.8037 37.1821 29.2034C36.9986 28.6015 36.9219 27.9547 36.9219 27.4018V12.0933H37.0008C36.9219 12.0933 36.9219 12.0932 36.9219 12.0931L36.9219 12.093L36.9219 12.0925L36.9219 12.0912C36.9219 12.0903 36.9219 12.089 36.922 12.0875C36.9221 12.0845 36.9223 12.0805 36.9226 12.0753C36.9233 12.065 36.9246 12.0505 36.927 12.0317C36.9319 11.994 36.9415 11.9393 36.9602 11.8676C36.9975 11.7242 37.0712 11.513 37.2167 11.2343C37.5075 10.677 38.0851 9.84929 39.2331 8.75233L39.2679 8.78881ZM39.3004 8.90649C41.4838 9.98336 41.489 12.0954 41.489 13.1829C41.4695 13.4443 41.4599 14.9366 41.4563 17.0222C41.4526 19.1193 41.4551 21.8221 41.4599 24.4938C41.4648 27.1655 41.472 29.8061 41.4781 31.7789C41.4811 32.7652 41.4838 33.5846 41.4858 34.1574C41.4861 34.2489 41.4864 34.3342 41.4867 34.4128C41.4733 34.3738 41.4588 34.3335 41.4431 34.2921C41.2788 33.857 40.9874 33.2996 40.4792 32.8139C40.4791 32.8139 40.4791 32.8139 40.4791 32.8138" fill="black"/>
<path fill-rule="evenodd" clip-rule="evenodd" d="M38.1365 11.9844L39.2805 13.0776L40.4239 11.985L41.6219 13.1297L41.5128 13.2438L40.4239 12.2033L39.2805 13.2959L38.1378 12.2039C38.1076 12.2334 38.0662 12.2737 38.0172 12.3214C37.912 12.4239 37.7714 12.5605 37.63 12.6972C37.4886 12.8338 37.3463 12.9706 37.2375 13.0734C37.1832 13.1247 37.1369 13.1679 37.1033 13.1983C37.0865 13.2135 37.0722 13.2261 37.0614 13.2351C37.0561 13.2395 37.0506 13.244 37.0454 13.2477C37.043 13.2494 37.0392 13.2521 37.0346 13.2546C37.0324 13.2559 37.0285 13.258 37.0236 13.2599C37.0202 13.2613 37.0089 13.2657 36.9938 13.2657V13.1078C36.979 13.1078 36.9683 13.1121 36.9655 13.1131C36.9613 13.1148 36.9582 13.1165 36.9569 13.1172C36.9542 13.1188 36.9528 13.1199 36.9532 13.1195C36.9538 13.1191 36.956 13.1174 36.9603 13.1138C36.9687 13.1069 36.9811 13.096 36.9974 13.0812C37.0297 13.052 37.075 13.0098 37.1291 12.9586C37.2372 12.8565 37.379 12.7202 37.5203 12.5837C37.6615 12.4472 37.8019 12.3107 37.9071 12.2083C37.9596 12.1571 38.0034 12.1145 38.034 12.0846L38.0819 12.0378C38.0819 12.0378 38.082 12.0377 38.1372 12.0942L38.0819 12.0378L38.1365 11.9844Z" fill="black"/>
<path fill-rule="evenodd" clip-rule="evenodd" d="M38.1365 15.4766L39.2805 14.3834L40.4239 15.476L41.6219 14.3313L41.5128 14.2171L40.4239 15.2576L39.2805 14.165L38.1378 15.257C38.1076 15.2276 38.0662 15.1873 38.0172 15.1395C37.912 15.0371 37.7714 14.9004 37.63 14.7637C37.4886 14.6271 37.3463 14.4903 37.2375 14.3875C37.1832 14.3362 37.1369 14.2931 37.1033 14.2626C37.0865 14.2475 37.0722 14.2349 37.0614 14.2258C37.0561 14.2214 37.0506 14.217 37.0454 14.2133C37.043 14.2115 37.0392 14.2089 37.0346 14.2063C37.0324 14.205 37.0285 14.203 37.0236 14.201C37.0202 14.1997 37.0089 14.1953 36.9938 14.1953V14.3531C36.979 14.3531 36.9683 14.3489 36.9655 14.3478C36.9613 14.3461 36.9582 14.3444 36.9569 14.3437C36.9542 14.3422 36.9528 14.3411 36.9532 14.3414C36.9538 14.3418 36.956 14.3435 36.9603 14.3471C36.9687 14.3541 36.9811 14.365 36.9974 14.3797C37.0297 14.409 37.075 14.4512 37.1291 14.5023C37.2372 14.6044 37.379 14.7407 37.5203 14.8773C37.6615 15.0137 37.8019 15.1502 37.9071 15.2526C37.9596 15.3038 38.0034 15.3465 38.034 15.3763L38.0819 15.4232C38.0819 15.4232 38.082 15.4232 38.1372 15.3668L38.0819 15.4232L38.1365 15.4766Z" fill="black"/>
<path fill-rule="evenodd" clip-rule="evenodd" d="M38.1365 16.3516L39.2805 17.4447L40.4239 16.3522L41.6219 17.4969L41.5128 17.611L40.4239 16.5705L39.2805 17.6631L38.1378 16.5711C38.1076 16.6005 38.0662 16.6409 38.0172 16.6886C37.912 16.7911 37.7714 16.9277 37.63 17.0644C37.4886 17.201 37.3463 17.3378 37.2375 17.4406C37.1832 17.4919 37.1369 17.535 37.1033 17.5655C37.0865 17.5807 37.0722 17.5932 37.0614 17.6023C37.0561 17.6067 37.0506 17.6112 37.0454 17.6149C37.043 17.6166 37.0392 17.6193 37.0346 17.6218C37.0324 17.6231 37.0285 17.6252 37.0236 17.6271C37.0202 17.6285 37.0089 17.6329 36.9938 17.6329V17.475C36.979 17.475 36.9683 17.4792 36.9655 17.4803C36.9613 17.482 36.9582 17.4837 36.9569 17.4844C36.9542 17.4859 36.9528 17.487 36.9532 17.4867C36.9538 17.4863 36.956 17.4846 36.9603 17.481C36.9687 17.4741 36.9811 17.4632 36.9974 17.4484C37.0297 17.4192 37.075 17.3769 37.1291 17.3258C37.2372 17.2237 37.379 17.0874 37.5203 16.9509C37.6615 16.8144 37.8019 16.6779 37.9071 16.5755C37.9596 16.5243 38.0034 16.4817 38.034 16.4518L38.0819 16.4049C38.0819 16.4049 38.082 16.4049 38.1372 16.4613L38.0819 16.4049L38.1365 16.3516Z" fill="black"/>
<path fill-rule="evenodd" clip-rule="evenodd" d="M38.0312 30.686L38.0442 12.0898L38.2616 12.09L38.2487 30.6861L38.0312 30.686Z" fill="black"/>
<path fill-rule="evenodd" clip-rule="evenodd" d="M39.1719 31.7345L39.1848 13.1836L39.3908 13.1837L39.3779 31.7346L39.1719 31.7345Z" fill="black"/>
<path fill-rule="evenodd" clip-rule="evenodd" d="M40.3047 32.875L40.3176 12.0938L40.5356 12.0939L40.5227 32.8751L40.3047 32.875Z" fill="black"/>
<path fill-rule="evenodd" clip-rule="evenodd" d="M27.1193 28.3949C26.513 29.7852 25.4461 30.6912 24.7485 30.4134C24.0508 30.1357 23.9728 28.7739 24.579 27.3836C25.1853 25.9933 26.2581 25.0897 26.9558 25.3674C27.6534 25.6452 27.7339 27.0013 27.1252 28.3973L27.1193 28.3949Z" fill="#A77B3B"/>
<path fill-rule="evenodd" clip-rule="evenodd" d="M25.7873 25.8085C25.3674 26.1639 24.9543 26.7266 24.6551 27.4128C24.3558 28.0991 24.2271 28.775 24.2573 29.3096C24.2877 29.8499 24.4771 30.2194 24.7828 30.3411C25.0884 30.4627 25.4963 30.3311 25.9192 29.9713C26.3377 29.6153 26.7494 29.052 27.0486 28.3657L27.0802 28.2933L27.0856 28.2955C27.364 27.6316 27.4827 26.9842 27.4534 26.4691C27.4226 25.9298 27.2327 25.5616 26.9269 25.4398C26.6212 25.3181 26.2117 25.4493 25.7873 25.8085ZM27.1633 28.4963L27.1697 28.4989L27.2013 28.4265C27.5095 27.7197 27.6449 27.0195 27.6128 26.4569C27.5811 25.8998 27.3819 25.4511 26.9901 25.2951C26.5982 25.139 26.1224 25.3207 25.6844 25.6915C25.2419 26.066 24.8154 26.6503 24.5084 27.3544C24.2014 28.0583 24.066 28.7585 24.0978 29.3218C24.1292 29.8794 24.3276 30.3297 24.7197 30.4858C25.1117 30.6419 25.586 30.4594 26.0225 30.0881C26.4483 29.7259 26.8591 29.1681 27.1633 28.4963Z" fill="black"/>
<path fill-rule="evenodd" clip-rule="evenodd" d="M23.2578 16.4609H36.9922V23.0234H23.2578V16.4609Z" fill="#FF0000"/>
<path fill-rule="evenodd" clip-rule="evenodd" d="M23.2594 23.0234H36.9938V26.3047C36.9938 28.4891 33.5625 28.4891 30.1312 30.6734C26.6906 28.4984 23.25 28.4984 23.25 26.3047V23.0234H23.2594Z" fill="#564DFF"/>
<path fill-rule="evenodd" clip-rule="evenodd" d="M23.2031 16.3984H37.063V26.3133C37.063 26.8796 36.8395 27.3056 36.4527 27.6576C36.069 28.0068 35.5242 28.2836 34.8799 28.5574C34.5744 28.6872 34.2458 28.8168 33.8996 28.9533C32.7798 29.3947 31.475 29.9091 30.167 30.7431L30.1331 30.7648L30.0991 30.7431C28.7939 29.9093 27.49 29.395 26.3702 28.9532C26.0236 28.8165 25.6946 28.6868 25.3886 28.5566C24.744 28.2824 24.1986 28.0051 23.8143 27.655C23.4271 27.3021 23.2031 26.8749 23.2031 26.3072V16.3984ZM23.3294 16.5247V26.3072C23.3294 26.8351 23.5351 27.2297 23.8994 27.5616C24.2667 27.8963 24.7948 28.1668 25.4381 28.4404C25.7392 28.5685 26.0649 28.6969 26.4093 28.8328C27.521 29.2712 28.8278 29.7866 30.1331 30.615C31.4411 29.7864 32.7488 29.271 33.8604 28.8328C34.2045 28.6972 34.5298 28.569 34.8305 28.4412C35.4734 28.1679 36.0009 27.898 36.3677 27.5642C36.7315 27.2331 36.9368 26.8397 36.9368 26.3133V16.5247H23.3294Z" fill="#FFFF00"/>
<path fill-rule="evenodd" clip-rule="evenodd" d="M27.6084 16.8984C27.6084 16.8984 25.3203 18.5071 25.3203 20.0462C25.3203 21.5853 27.7215 22.1012 27.7215 22.1012C27.7215 22.1012 26.9211 22.1012 26.9211 24.1533C26.9211 25.1823 29.3222 24.6692 29.3222 25.1823C29.3222 25.6953 29.2906 26.9358 29.3222 27.7503C29.3222 28.2633 27.7215 27.7503 27.7215 28.2633C27.7215 28.5184 28.9243 29.8024 30.1271 29.8024C31.33 29.8024 32.5283 28.5184 32.5283 28.2633C32.5283 27.7503 30.9275 28.2633 30.9275 27.7503V25.1823C30.9275 24.6692 33.3287 25.1823 33.3287 24.1533C33.3287 22.1012 32.5283 22.1012 32.5283 22.1012C32.5283 22.1012 34.934 21.5882 34.934 20.0462C34.934 18.5042 32.6413 16.8984 32.6413 16.8984C32.6413 16.8984 33.9301 19.0201 33.9301 20.0462C33.9301 20.5592 33.3287 21.5882 31.7279 21.5882C31.7279 21.5882 31.3209 21.0722 30.9275 21.5882C30.9275 21.5882 30.4663 21.0722 30.1271 21.5882C30.0096 21.7621 29.8016 21.0722 29.3222 21.5882C29.1233 21.7244 28.9605 21.0722 28.5218 21.5882C27.7215 21.5882 26.1207 21.0722 26.1207 20.0462C26.1207 19.0201 27.6084 16.8984 27.6084 16.8984V16.8984Z" fill="#FFFF00"/>
<path fill-rule="evenodd" clip-rule="evenodd" d="M32.601 16.9238L32.6657 16.8633L32.6397 16.9003L32.601 16.9238ZM32.6981 22.1067C32.7579 22.0904 32.8319 22.069 32.9163 22.0419C33.1435 21.9692 33.447 21.8559 33.7508 21.6938C34.3554 21.3711 34.9776 20.8457 34.9776 20.0481C34.9776 19.6516 34.8304 19.2541 34.6132 18.8829C34.3958 18.5113 34.1066 18.1632 33.8186 17.8646C33.5304 17.5658 33.2424 17.3156 33.0265 17.1402C32.9185 17.0525 32.8284 16.9834 32.7653 16.9361C32.7338 16.9125 32.7089 16.8944 32.692 16.8821C32.6835 16.8759 32.6769 16.8713 32.6725 16.8681L32.6675 16.8645L32.6662 16.8636L32.6658 16.8634L32.6657 16.8633C32.6656 16.8633 32.6657 16.8633 32.6397 16.9003C32.601 16.9238 32.601 16.9238 32.601 16.9238L32.6011 16.9239L32.6019 16.9253L32.6046 16.9298C32.6071 16.9338 32.6106 16.9398 32.6153 16.9476C32.6247 16.9633 32.6385 16.9865 32.6561 17.0164C32.6912 17.0762 32.7414 17.1629 32.8016 17.2701C32.9222 17.4845 33.0828 17.781 33.2434 18.1093C33.4041 18.4378 33.5644 18.7975 33.6844 19.1384C33.8048 19.4803 33.8832 19.7994 33.8832 20.0481C33.8832 20.5304 33.3109 21.5359 31.7471 21.5448C31.7454 21.5428 31.7435 21.5407 31.7415 21.5385C31.7288 21.5245 31.7104 21.5053 31.687 21.484C31.6405 21.4418 31.5731 21.3899 31.4914 21.355C31.4093 21.3199 31.3111 21.3013 31.2056 21.3286C31.111 21.3531 31.0152 21.4132 30.9223 21.5224C30.91 21.5108 30.895 21.4972 30.8774 21.4827C30.8269 21.4407 30.7546 21.3893 30.67 21.3547C30.5853 21.3201 30.4854 21.3012 30.382 21.3287C30.2781 21.3563 30.1773 21.4291 30.0879 21.5649C30.0836 21.5712 30.0808 21.5732 30.08 21.5737C30.08 21.5737 30.0799 21.5737 30.0799 21.5737C30.0759 21.5734 30.0654 21.57 30.0444 21.5545C30.0282 21.5425 30.0108 21.5273 29.99 21.5091C29.9852 21.505 29.9803 21.5007 29.9752 21.4963C29.9486 21.4732 29.9181 21.4475 29.8842 21.4244C29.8161 21.3781 29.7305 21.3395 29.6267 21.3519C29.5245 21.3641 29.4137 21.4246 29.2913 21.5552C29.2774 21.5637 29.2657 21.5651 29.254 21.5633C29.2394 21.561 29.2215 21.553 29.1987 21.5375C29.1767 21.5226 29.1538 21.5035 29.1274 21.4816L29.1246 21.4792C29.0977 21.4568 29.0679 21.432 29.0357 21.4102C28.9709 21.3664 28.8912 21.3306 28.7948 21.347C28.7037 21.3624 28.6069 21.4227 28.4996 21.5447C28.1069 21.5404 27.5256 21.4132 27.0402 21.1636C26.5443 20.9086 26.1643 20.5347 26.1643 20.0481C26.1643 19.8006 26.2545 19.4823 26.3935 19.1404C26.5319 18.7997 26.7169 18.4401 26.9023 18.1117C27.0877 17.7834 27.2732 17.4869 27.4123 17.2725C27.4819 17.1653 27.5398 17.0787 27.5803 17.0189C27.6006 16.989 27.6165 16.9658 27.6273 16.9501C27.6327 16.9423 27.6369 16.9363 27.6397 16.9323L27.6428 16.9278L27.6438 16.9264C27.6438 16.9264 27.6438 16.9263 27.6068 16.9003C27.5808 16.8633 27.5807 16.8633 27.5807 16.8634L27.5806 16.8634L27.5803 16.8637L27.579 16.8646L27.5739 16.8682C27.5695 16.8713 27.563 16.876 27.5545 16.8822C27.5376 16.8945 27.5128 16.9126 27.4813 16.9363C27.4183 16.9836 27.3285 17.0528 27.2207 17.1407C27.0052 17.3163 26.7177 17.5667 26.4301 17.8657C26.1426 18.1645 25.8541 18.5127 25.6371 18.8841C25.4204 19.2552 25.2734 19.6524 25.2734 20.0481C25.2734 20.8443 25.8945 21.3696 26.4979 21.6926C26.8012 21.855 27.104 21.9686 27.3308 22.0415C27.4151 22.0686 27.4891 22.0902 27.5487 22.1066C27.4713 22.1448 27.3771 22.2124 27.284 22.3318C27.075 22.5997 26.8742 23.1245 26.8742 24.1552C26.8742 24.2934 26.9148 24.4077 26.9867 24.5014C27.0582 24.5944 27.1588 24.6647 27.2756 24.719C27.5081 24.827 27.815 24.8759 28.1152 24.9082C28.2208 24.9195 28.3253 24.9288 28.4261 24.9378C28.6155 24.9546 28.7918 24.9702 28.9375 24.9962C29.0489 25.0161 29.1364 25.0411 29.1952 25.0743C29.2526 25.1067 29.2754 25.1422 29.2754 25.1842C29.2754 25.3272 29.2729 25.5277 29.27 25.7603C29.2626 26.3576 29.2526 27.166 29.2754 27.753C29.2751 27.8029 29.2564 27.8381 29.223 27.8656C29.1874 27.895 29.1331 27.917 29.061 27.9324C28.9167 27.9633 28.7221 27.9635 28.5202 27.9635H28.5163C28.3192 27.9635 28.1153 27.9635 27.9605 27.9965C27.8825 28.0132 27.8117 28.0393 27.7598 28.082C27.7059 28.1265 27.6746 28.1873 27.6746 28.2652C27.6746 28.2892 27.6814 28.3151 27.6915 28.341C27.7017 28.3674 27.7165 28.3965 27.7349 28.4277C27.7718 28.49 27.8252 28.5631 27.892 28.6425C28.0257 28.8013 28.2159 28.9879 28.4437 29.1661C28.898 29.5215 29.5093 29.8496 30.1255 29.8496C30.7417 29.8496 31.3519 29.5215 31.8051 29.166C32.0323 28.9878 32.222 28.8012 32.3553 28.6424C32.4219 28.5631 32.475 28.4899 32.5118 28.4276C32.5302 28.3965 32.5449 28.3673 32.5551 28.3409C32.5651 28.3151 32.5719 28.2891 32.5719 28.2652C32.5719 28.1873 32.5406 28.1265 32.4867 28.082C32.4348 28.0393 32.364 28.0132 32.286 27.9965C32.1312 27.9635 31.9273 27.9635 31.7302 27.9635H31.7263C31.5244 27.9635 31.3298 27.9633 31.1855 27.9324C31.1134 27.917 31.0591 27.895 31.0235 27.8656C30.9899 27.8379 30.9711 27.8025 30.9711 27.7522V25.1842C30.9711 25.1422 30.9939 25.1067 31.0513 25.0743C31.1101 25.0411 31.1976 25.0161 31.309 24.9962C31.4547 24.9702 31.631 24.9546 31.8204 24.9378C31.9212 24.9288 32.0257 24.9195 32.1313 24.9082C32.4315 24.8759 32.7384 24.827 32.9709 24.719C33.0877 24.6647 33.1883 24.5944 33.2598 24.5014C33.3317 24.4077 33.3723 24.2934 33.3723 24.1552C33.3723 23.1245 33.1715 22.5997 32.9625 22.3318C32.8696 22.2126 32.7755 22.145 32.6981 22.1067ZM32.5266 22.1477L32.5172 22.0588L32.5176 22.0588L32.5187 22.0585L32.5237 22.0574C32.5281 22.0564 32.5347 22.0549 32.5433 22.0529C32.5606 22.0488 32.5861 22.0427 32.6187 22.0342C32.6838 22.0174 32.7769 21.9915 32.8888 21.9557C33.1126 21.8841 33.4106 21.7727 33.7082 21.6139C34.3065 21.2946 34.8871 20.7924 34.8871 20.0481C34.8871 19.6735 34.7477 19.2921 34.535 18.9286C34.3225 18.5654 34.0386 18.223 33.7534 17.9274C33.4685 17.632 33.1834 17.3843 32.9694 17.2105C32.9025 17.1561 32.8426 17.109 32.7919 17.0699C32.8179 17.1152 32.8478 17.1674 32.8805 17.2257C33.0016 17.4412 33.1632 17.7392 33.3247 18.0696C33.4863 18.3998 33.6482 18.7629 33.7698 19.1084C33.8911 19.4529 33.9737 19.7837 33.9737 20.0481C33.9737 20.5897 33.3483 21.6353 31.7263 21.6353H31.7043L31.6908 21.6181L31.6907 21.618L31.69 21.6172C31.6894 21.6164 31.6884 21.6152 31.687 21.6136C31.6843 21.6103 31.6801 21.6054 31.6745 21.5993C31.6634 21.5871 31.647 21.57 31.6261 21.551C31.584 21.5127 31.525 21.4678 31.4558 21.4382C31.387 21.4088 31.3097 21.3952 31.2283 21.4162C31.1469 21.4373 31.0557 21.4945 30.9619 21.6175L30.9287 21.6611L30.8922 21.6203L30.892 21.6201L30.8912 21.6192C30.8905 21.6184 30.8894 21.6172 30.8878 21.6155C30.8846 21.6122 30.8799 21.6073 30.8736 21.6011C30.8611 21.5888 30.8427 21.5715 30.8196 21.5523C30.7731 21.5137 30.7088 21.4684 30.6358 21.4385C30.5628 21.4087 30.4838 21.3953 30.4053 21.4161C30.3274 21.4369 30.2435 21.493 30.1633 21.6149L30.163 21.6154C30.1419 21.6466 30.112 21.6666 30.0738 21.664C30.042 21.6618 30.0132 21.644 29.9907 21.6273C29.9712 21.6129 29.9502 21.5946 29.9293 21.5763C29.9248 21.5724 29.9204 21.5685 29.9159 21.5646C29.8898 21.542 29.8626 21.5192 29.8332 21.4992C29.7747 21.4593 29.7111 21.433 29.6374 21.4418C29.5632 21.4507 29.4695 21.4963 29.3538 21.6209L29.3503 21.6246L29.3462 21.6274C29.312 21.6508 29.2762 21.6583 29.2401 21.6527C29.2061 21.6474 29.1752 21.6309 29.1479 21.6125C29.1221 21.595 29.096 21.5732 29.0709 21.5523L29.0666 21.5487C29.0395 21.526 29.0129 21.5041 28.9849 21.4852C28.9293 21.4475 28.8736 21.4254 28.8099 21.4362C28.7448 21.4472 28.6611 21.4942 28.5547 21.6194L28.5411 21.6353H28.5202C28.1126 21.6353 27.5053 21.5045 26.9988 21.2441C26.4943 20.9846 26.0738 20.5875 26.0738 20.0481C26.0738 19.7825 26.1696 19.4509 26.3096 19.1063C26.4501 18.7607 26.6371 18.3974 26.8235 18.0672C27.0101 17.7368 27.1966 17.4387 27.3364 17.2233C27.3657 17.1781 27.3929 17.1366 27.4177 17.0991C27.3758 17.1319 27.3289 17.1692 27.2779 17.2108C27.0643 17.3849 26.7798 17.6328 26.4954 17.9284C26.2108 18.2242 25.9274 18.5667 25.7153 18.9298C25.503 19.2932 25.3639 19.6743 25.3639 20.0481C25.3639 20.791 25.9435 21.2932 26.5406 21.6129C26.8376 21.7719 27.1351 21.8835 27.3585 21.9554C27.4702 21.9913 27.5631 22.0172 27.6281 22.0341C27.6606 22.0426 27.686 22.0488 27.7033 22.0529C27.7119 22.0549 27.7185 22.0564 27.7229 22.0574L27.7278 22.0585L27.729 22.0588L27.7293 22.0588L27.7199 22.1477C27.7199 22.1484 27.7199 22.1484 27.7199 22.1484L27.7194 22.1484C27.7185 22.1484 27.717 22.1485 27.7147 22.1487C27.7102 22.1491 27.703 22.1499 27.6936 22.1516C27.6747 22.1551 27.6467 22.1622 27.6126 22.1768C27.5445 22.2058 27.4507 22.2652 27.3553 22.3874C27.1641 22.6326 26.9647 23.1338 26.9647 24.1552C26.9647 24.2743 26.9992 24.369 27.0585 24.4462C27.1184 24.5242 27.2054 24.5866 27.3137 24.6369C27.5314 24.7381 27.8248 24.7859 28.1249 24.8182C28.2261 24.829 28.3284 24.8381 28.4282 24.847C28.6206 24.8642 28.8039 24.8805 28.9534 24.9071C29.0671 24.9274 29.1671 24.9545 29.2397 24.9955C29.3136 25.0372 29.3659 25.0979 29.3659 25.1842C29.3659 25.3291 29.3634 25.5312 29.3605 25.7649C29.3531 26.3621 29.3431 27.1658 29.3658 27.7505L29.3659 27.7513V27.7522C29.3659 27.8302 29.3346 27.891 29.2806 27.9354C29.2287 27.9782 29.158 28.0042 29.0799 28.0209C28.9252 28.054 28.7213 28.054 28.5242 28.054H28.5202C28.3184 28.054 28.1238 28.0542 27.9794 28.085C27.9074 28.1004 27.8531 28.1225 27.8174 28.1519C27.7838 28.1795 27.7651 28.215 27.7651 28.2652C27.7651 28.2732 27.7677 28.2872 27.7758 28.3082C27.7838 28.3286 27.796 28.3532 27.8128 28.3816C27.8464 28.4383 27.8964 28.5073 27.9612 28.5842C28.0906 28.7379 28.2762 28.9201 28.4995 29.0948C28.9473 29.4451 29.5389 29.7591 30.1255 29.7591C30.7121 29.7591 31.3026 29.4451 31.7492 29.0948C31.9719 28.9202 32.157 28.7379 32.286 28.5842C32.3505 28.5073 32.4004 28.4383 32.4338 28.3816C32.4506 28.3532 32.4628 28.3287 32.4707 28.3082C32.4788 28.2872 32.4814 28.2732 32.4814 28.2652C32.4814 28.215 32.4627 28.1795 32.4291 28.1519C32.3934 28.1225 32.3391 28.1004 32.2671 28.085C32.1227 28.0542 31.9281 28.054 31.7263 28.054H31.7223C31.5252 28.054 31.3213 28.054 31.1666 28.0209C31.0885 28.0042 31.0178 27.9782 30.9659 27.9354C30.9119 27.891 30.8806 27.8302 30.8806 27.7522V25.1842C30.8806 25.0979 30.9329 25.0372 31.0068 24.9955C31.0794 24.9545 31.1794 24.9274 31.2931 24.9071C31.4426 24.8805 31.6259 24.8642 31.8183 24.847C31.9181 24.8381 32.0204 24.829 32.1216 24.8182C32.4217 24.7859 32.7151 24.7381 32.9328 24.6369C33.0411 24.5866 33.1281 24.5242 33.188 24.4462C33.2473 24.369 33.2818 24.2743 33.2818 24.1552C33.2818 23.1338 33.0824 22.6326 32.8912 22.3874C32.7958 22.2652 32.702 22.2058 32.6339 22.1768C32.5998 22.1622 32.5718 22.1551 32.5529 22.1516C32.5435 22.1499 32.5363 22.1491 32.5318 22.1487C32.5308 22.1486 32.53 22.1485 32.5293 22.1485C32.5283 22.1484 32.5276 22.1484 32.5271 22.1484L32.5267 22.1484L32.5266 22.1484C32.5266 22.1484 32.5266 22.1484 32.5266 22.1477Z" fill="black"/>
<path fill-rule="evenodd" clip-rule="evenodd" d="M27.6579 26.0866C27.4951 26.1909 27.8659 27.8634 27.9744 27.9358C28.1372 28.0373 29.1004 28.0373 29.2587 27.9358C29.3717 27.8634 29.2587 26.2924 29.1004 26.1909C28.9376 26.0866 27.7709 26.017 27.6534 26.0866H27.6579Z" fill="#FFFF00"/>
<path fill-rule="evenodd" clip-rule="evenodd" d="M29.0035 26.112C29.0515 26.1238 29.094 26.1377 29.1212 26.1551C29.1405 26.1675 29.1547 26.1874 29.1654 26.2068C29.1767 26.2271 29.187 26.2519 29.1965 26.2797C29.2155 26.3354 29.2329 26.4077 29.2486 26.49C29.2801 26.6548 29.3057 26.8647 29.3227 27.0728C29.3398 27.2811 29.3483 27.489 29.3455 27.65C29.3441 27.7303 29.3398 27.8002 29.3319 27.8531C29.328 27.8794 29.323 27.9032 29.3164 27.9224C29.3107 27.939 29.3004 27.9627 29.2794 27.9762C29.2527 27.9933 29.2139 28.0058 29.1711 28.0155C29.1271 28.0255 29.074 28.0337 29.0154 28.0401C28.8983 28.0531 28.7562 28.0594 28.6146 28.0594C28.473 28.0594 28.3307 28.0531 28.2129 28.0402C28.1541 28.0337 28.1007 28.0255 28.0563 28.0155C28.013 28.0058 27.9739 27.9934 27.9469 27.9765L27.9462 27.9761L27.9457 27.9757C27.9359 27.9692 27.9286 27.9606 27.9234 27.9535C27.9178 27.9458 27.9125 27.9371 27.9076 27.9278C27.8977 27.9092 27.8875 27.8855 27.8771 27.8583C27.8562 27.8036 27.833 27.7304 27.8091 27.6455C27.7612 27.4755 27.7095 27.2552 27.6664 27.0341C27.6232 26.8132 27.5884 26.5902 27.5747 26.4152C27.5678 26.3279 27.566 26.2508 27.5716 26.1911C27.5735 26.1708 27.5763 26.1515 27.5805 26.1341H27.4844L27.6267 26.0499C27.6404 26.0418 27.6576 26.0368 27.6739 26.0332C27.6912 26.0295 27.7116 26.0265 27.7343 26.0241C27.7797 26.0193 27.8371 26.0167 27.902 26.0159C28.0319 26.0143 28.1951 26.0198 28.3593 26.0307C28.5235 26.0416 28.6895 26.058 28.8252 26.0784C28.893 26.0885 28.9539 26.0998 29.0035 26.112ZM27.6831 26.1242L27.6794 26.1265C27.6791 26.127 27.6761 26.1304 27.6726 26.1408C27.668 26.154 27.6642 26.1734 27.6617 26.1995C27.6568 26.2516 27.6582 26.3228 27.6649 26.4081C27.6783 26.5783 27.7124 26.7975 27.7552 27.0168C27.798 27.2359 27.8491 27.4538 27.8962 27.621C27.9198 27.7047 27.9421 27.7749 27.9616 27.826C27.9714 27.8516 27.9801 27.8714 27.9875 27.8853C27.9912 27.8923 27.9942 27.897 27.9964 27.9C27.9968 27.9005 27.9971 27.9009 27.9974 27.9013C28.0116 27.9094 28.0375 27.9185 28.0762 27.9272C28.1162 27.9363 28.166 27.9439 28.2228 27.9502C28.3364 27.9626 28.4753 27.9689 28.6146 27.9689C28.7539 27.9689 28.8925 27.9626 29.0055 27.9502C29.0621 27.944 29.1115 27.9363 29.151 27.9273C29.1884 27.9188 29.2132 27.9099 29.227 27.9021C29.2278 27.9006 29.2292 27.8977 29.2308 27.8929C29.2349 27.8812 29.2389 27.8636 29.2424 27.8399C29.2494 27.7926 29.2536 27.7271 29.255 27.6484C29.2578 27.4912 29.2494 27.2865 29.2325 27.0802C29.2156 26.8739 29.1904 26.6675 29.1597 26.507C29.1443 26.4265 29.1278 26.3589 29.1108 26.309C29.1023 26.284 29.094 26.2646 29.0863 26.2507C29.0825 26.2438 29.0791 26.2389 29.0764 26.2356C29.0737 26.2323 29.0723 26.2313 29.0723 26.2313C29.0723 26.2313 29.0723 26.2313 29.0723 26.2313C29.0588 26.2227 29.0293 26.2116 28.9818 26.1999C28.936 26.1886 28.8781 26.1778 28.8118 26.1679C28.6793 26.148 28.5158 26.1318 28.3533 26.121C28.1907 26.1102 28.03 26.1048 27.9031 26.1064C27.8396 26.1072 27.7852 26.1098 27.7437 26.1141C27.7229 26.1163 27.7061 26.1189 27.6932 26.1217C27.6893 26.1225 27.6859 26.1233 27.6831 26.1242Z" fill="black"/>
<path fill-rule="evenodd" clip-rule="evenodd" d="M32.6077 26.0866C32.7705 26.1909 32.3997 27.8634 32.2912 27.9358C32.1284 28.0373 31.1652 28.0373 31.007 27.9358C30.8939 27.8634 31.007 26.2924 31.1652 26.1909C31.328 26.0866 32.4947 26.017 32.6123 26.0866H32.6077Z" fill="#FFFF00"/>
<path fill-rule="evenodd" clip-rule="evenodd" d="M31.2543 26.112C31.2064 26.1238 31.1638 26.1377 31.1366 26.1551C31.1173 26.1675 31.1031 26.1874 31.0924 26.2068C31.0811 26.2271 31.0708 26.2519 31.0614 26.2797C31.0424 26.3354 31.0249 26.4077 31.0092 26.49C30.9777 26.6548 30.9521 26.8647 30.9351 27.0728C30.918 27.2811 30.9095 27.489 30.9123 27.65C30.9138 27.7303 30.918 27.8002 30.9259 27.8531C30.9298 27.8794 30.9348 27.9032 30.9414 27.9224C30.9471 27.939 30.9574 27.9627 30.9784 27.9762C31.0051 27.9933 31.0439 28.0058 31.0867 28.0155C31.1308 28.0255 31.1838 28.0337 31.2424 28.0401C31.3595 28.0531 31.5016 28.0594 31.6432 28.0594C31.7848 28.0594 31.9272 28.0531 32.0449 28.0402C32.1037 28.0337 32.1571 28.0255 32.2015 28.0155C32.2448 28.0058 32.2839 27.9934 32.311 27.9765L32.3116 27.9761L32.3122 27.9757C32.3219 27.9692 32.3292 27.9606 32.3344 27.9535C32.34 27.9458 32.3453 27.9371 32.3502 27.9278C32.3601 27.9092 32.3703 27.8855 32.3807 27.8583C32.4016 27.8036 32.4248 27.7304 32.4487 27.6455C32.4966 27.4755 32.5483 27.2552 32.5915 27.0341C32.6346 26.8132 32.6694 26.5902 32.6832 26.4152C32.69 26.3279 32.6918 26.2508 32.6862 26.1911C32.6843 26.1708 32.6815 26.1515 32.6773 26.1341H32.7734L32.6311 26.0499C32.6174 26.0418 32.6002 26.0368 32.5839 26.0332C32.5666 26.0295 32.5462 26.0265 32.5235 26.0241C32.4781 26.0193 32.4208 26.0167 32.3559 26.0159C32.2259 26.0143 32.0627 26.0198 31.8985 26.0307C31.7344 26.0416 31.5683 26.058 31.4326 26.0784C31.3648 26.0885 31.3039 26.0998 31.2543 26.112ZM32.5747 26.1242L32.5784 26.1265C32.5787 26.127 32.5817 26.1304 32.5852 26.1408C32.5898 26.154 32.5936 26.1734 32.5961 26.1995C32.601 26.2516 32.5996 26.3228 32.5929 26.4081C32.5796 26.5783 32.5454 26.7975 32.5026 27.0168C32.4599 27.2359 32.4087 27.4538 32.3616 27.621C32.338 27.7047 32.3157 27.7749 32.2962 27.826C32.2864 27.8516 32.2777 27.8714 32.2703 27.8853C32.2666 27.8923 32.2636 27.897 32.2614 27.9C32.2611 27.9005 32.2607 27.9009 32.2605 27.9013C32.2462 27.9094 32.2203 27.9185 32.1817 27.9272C32.1416 27.9363 32.0919 27.9439 32.035 27.9502C31.9214 27.9626 31.7825 27.9689 31.6432 27.9689C31.5039 27.9689 31.3653 27.9626 31.2523 27.9502C31.1957 27.944 31.1463 27.9363 31.1068 27.9273C31.0694 27.9188 31.0446 27.9099 31.0308 27.9021C31.03 27.9006 31.0286 27.8977 31.027 27.8929C31.0229 27.8812 31.0189 27.8636 31.0154 27.8399C31.0084 27.7926 31.0042 27.7271 31.0028 27.6484C31 27.4912 31.0084 27.2865 31.0253 27.0802C31.0422 26.8739 31.0674 26.6675 31.0981 26.507C31.1135 26.4265 31.13 26.3589 31.147 26.309C31.1555 26.284 31.1638 26.2646 31.1715 26.2507C31.1753 26.2438 31.1787 26.2389 31.1814 26.2356C31.1841 26.2323 31.1855 26.2313 31.1855 26.2313C31.1855 26.2313 31.1855 26.2313 31.1855 26.2313C31.199 26.2227 31.2285 26.2116 31.276 26.1999C31.3218 26.1886 31.3797 26.1778 31.446 26.1679C31.5785 26.148 31.742 26.1318 31.9045 26.121C32.0671 26.1102 32.2278 26.1048 32.3547 26.1064C32.4183 26.1072 32.4726 26.1098 32.5141 26.1141C32.5349 26.1163 32.5518 26.1189 32.5646 26.1217C32.5685 26.1225 32.5719 26.1233 32.5747 26.1242Z" fill="black"/>
<path fill-rule="evenodd" clip-rule="evenodd" d="M29.3038 25.4766C29.3038 25.6299 29.2162 25.7769 29.0603 25.8854C28.9043 25.9938 28.6928 26.0547 28.4722 26.0547C28.2517 26.0547 28.0401 25.9938 27.8842 25.8854C27.7282 25.7769 27.6406 25.6299 27.6406 25.4766C27.6406 25.3232 27.7282 25.1762 27.8842 25.0678C28.0401 24.9593 28.2517 24.8984 28.4722 24.8984C28.6928 24.8984 28.9043 24.9593 29.0603 25.0678C29.2162 25.1762 29.3038 25.3232 29.3038 25.4766V25.4766Z" fill="#FFFF00"/>
<path fill-rule="evenodd" clip-rule="evenodd" d="M28.4717 24.956C28.2604 24.956 28.0601 25.0145 27.9146 25.1156C27.7693 25.2167 27.6943 25.3487 27.6943 25.48C27.6943 25.6113 27.7693 25.7433 27.9146 25.8443C28.0601 25.9454 28.2604 26.0039 28.4717 26.0039C28.683 26.0039 28.8833 25.9454 29.0288 25.8443C29.1741 25.7433 29.2491 25.6113 29.2491 25.48C29.2491 25.3487 29.1741 25.2167 29.0288 25.1156C28.8833 25.0145 28.683 24.956 28.4717 24.956ZM27.8528 25.0267C28.0192 24.911 28.2419 24.8477 28.4717 24.8477C28.7015 24.8477 28.9242 24.911 29.0907 25.0267C29.2573 25.1425 29.3575 25.3046 29.3575 25.48C29.3575 25.6553 29.2573 25.8174 29.0907 25.9332C28.9242 26.0489 28.7015 26.1123 28.4717 26.1123C28.2419 26.1123 28.0192 26.0489 27.8528 25.9332C27.6862 25.8174 27.5859 25.6553 27.5859 25.48C27.5859 25.3046 27.6862 25.1425 27.8528 25.0267Z" fill="black"/>
<path fill-rule="evenodd" clip-rule="evenodd" d="M32.6085 25.4766C32.6085 25.6299 32.5209 25.777 32.365 25.8854C32.209 25.9938 31.9975 26.0547 31.7769 26.0547C31.5564 26.0547 31.3448 25.9938 31.1889 25.8854C31.0329 25.777 30.9453 25.6299 30.9453 25.4766C30.9453 25.3232 31.0329 25.1762 31.1889 25.0678C31.3448 24.9593 31.5564 24.8984 31.7769 24.8984C31.9975 24.8984 32.209 24.9593 32.365 25.0678C32.5209 25.1762 32.6085 25.3232 32.6085 25.4766V25.4766Z" fill="#FFFF00"/>
<path fill-rule="evenodd" clip-rule="evenodd" d="M31.7764 24.956C31.5651 24.956 31.3648 25.0145 31.2193 25.1156C31.074 25.2167 30.999 25.3487 30.999 25.48C30.999 25.6113 31.074 25.7433 31.2193 25.8443C31.3648 25.9454 31.5651 26.0039 31.7764 26.0039C31.9877 26.0039 32.188 25.9454 32.3335 25.8443C32.4788 25.7433 32.5539 25.6113 32.5539 25.48C32.5539 25.3487 32.4788 25.2167 32.3335 25.1156C32.188 25.0145 31.9877 24.956 31.7764 24.956ZM31.1574 25.0267C31.3239 24.911 31.5466 24.8477 31.7764 24.8477C32.0062 24.8477 32.2289 24.911 32.3954 25.0267C32.562 25.1425 32.6622 25.3046 32.6622 25.48C32.6622 25.6553 32.562 25.8174 32.3954 25.9333C32.2289 26.049 32.0062 26.1123 31.7764 26.1123C31.5466 26.1123 31.3239 26.049 31.1574 25.9333C30.9908 25.8174 30.8906 25.6553 30.8906 25.48C30.8906 25.3046 30.9908 25.1425 31.1574 25.0267Z" fill="black"/>
<path fill-rule="evenodd" clip-rule="evenodd" d="M31.575 28.8273C31.575 28.968 31.3875 29.0805 31.1719 29.0805C30.9469 29.0805 30.7688 28.968 30.7688 28.8273C30.7688 28.6867 30.9563 28.5742 31.1719 28.5742C31.3875 28.5742 31.575 28.6867 31.575 28.8273ZM29.4844 28.8273C29.4844 28.968 29.3062 29.0805 29.0906 29.0805C28.8656 29.0805 28.6875 28.968 28.6875 28.8273C28.6875 28.6867 28.8656 28.5742 29.0906 28.5742C29.3062 28.5742 29.4844 28.6867 29.4844 28.8273Z" fill="black"/>
<path fill-rule="evenodd" clip-rule="evenodd" d="M30.1309 20.626L29.6393 20.0057L28.8326 20.1081L28.946 19.3373L28.2969 18.8736L28.946 18.4038L28.8326 17.633L29.6393 17.7414L30.1309 17.1211L30.6224 17.7414L31.4228 17.633L31.3157 18.4038L31.9585 18.8736L31.3157 19.3433L31.4228 20.1081L30.6161 20.0057L30.1309 20.626Z" fill="#FFFF00"/>
<path fill-rule="evenodd" clip-rule="evenodd" d="M30.1264 17.0664L30.6326 17.7051L31.4581 17.5933L31.3476 18.3883L32.0115 18.8734L31.3476 19.3585L31.4581 20.1472L30.6265 20.0416L30.1266 20.6807L29.6201 20.0416L28.7881 20.1472L28.905 19.3527L28.2344 18.8736L28.905 18.3883L28.788 17.5933L29.6202 17.7051L30.1264 17.0664ZM30.1264 17.1755L29.6494 17.7774L28.8682 17.6724L28.9781 18.4191L28.3505 18.8733L28.9781 19.3216L28.8681 20.0687L29.6495 19.9696L30.1262 20.5711L30.5969 19.9696L31.3787 20.0688L31.2749 19.3278L31.8967 18.8734L31.2749 18.4191L31.3787 17.6724L30.6034 17.7774L30.1264 17.1755Z" fill="black"/>
<path fill-rule="evenodd" clip-rule="evenodd" d="M33.5625 23.0254L34.9384 23.6859L36.3144 23.0254L34.9384 22.3711L33.569 23.0254H33.5625Z" fill="#FFFF00"/>
<path fill-rule="evenodd" clip-rule="evenodd" d="M34.9378 22.332L36.3944 23.0247L34.9379 23.7238L33.5469 23.0561L33.5586 23.0045L33.5534 22.9935L34.9378 22.332ZM33.6455 23.0264L34.9379 23.6468L36.2332 23.025L34.9379 22.409L33.6455 23.0264Z" fill="black"/>
<path fill-rule="evenodd" clip-rule="evenodd" d="M23.7188 23.0254L25.0947 23.6859L26.4706 23.0254L25.0947 22.3711L23.7252 23.0254H23.7188Z" fill="#FFFF00"/>
<path fill-rule="evenodd" clip-rule="evenodd" d="M25.0941 22.332L26.5506 23.0247L25.0941 23.7238L23.7031 23.0561L23.7149 23.0045L23.7096 22.9935L25.0941 22.332ZM23.8018 23.0264L25.0941 23.6468L26.3895 23.025L25.0941 22.409L23.8018 23.0264Z" fill="black"/>
<path fill-rule="evenodd" clip-rule="evenodd" d="M35.68 26.9377C35.2587 26.6706 34.5491 26.8037 34.1514 27.022C33.7537 27.2403 33.3559 27.4585 33.3024 28.2495C32.8456 27.4894 33.2054 26.7866 33.8104 26.4546C34.1312 26.3039 34.4986 26.2703 34.8435 26.3603C35.1884 26.4502 35.487 26.6575 35.6832 26.9431L35.68 26.9377Z" fill="#FFFF00"/>
<path fill-rule="evenodd" clip-rule="evenodd" d="M33.2791 28.1346C33.3186 27.7969 33.4264 27.569 33.572 27.4002C33.7318 27.2148 33.9353 27.1031 34.1328 26.9948L34.135 26.9936C34.3382 26.882 34.6197 26.7928 34.9041 26.7652C35.1307 26.7432 35.3627 26.76 35.5591 26.8387C35.3725 26.6244 35.1206 26.4687 34.8364 26.3946C34.5002 26.3069 34.1419 26.3394 33.8288 26.4863C33.533 26.6488 33.2985 26.9013 33.1932 27.2043C33.0976 27.4797 33.1078 27.799 33.2791 28.1346ZM35.7057 26.9139C35.5045 26.6274 35.202 26.4195 34.8536 26.3287C34.5003 26.2365 34.1242 26.2709 33.7959 26.4252L33.7949 26.4256L33.794 26.4262C33.4852 26.5956 33.2377 26.8603 33.1262 27.1814C33.0143 27.5034 33.0401 27.8794 33.2735 28.2676L33.3317 28.3645L33.3392 28.2538C33.3655 27.864 33.4763 27.6188 33.6266 27.4445C33.7779 27.2691 33.9712 27.1627 34.1708 27.0531C34.3653 26.9464 34.6374 26.8599 34.9126 26.8332C35.1883 26.8064 35.4616 26.8401 35.6625 26.9675L35.6722 26.953L35.7152 26.9277L35.7076 26.9152L35.7057 26.9139Z" fill="black"/>
<path fill-rule="evenodd" clip-rule="evenodd" d="M26.2312 25.65C26.2312 25.7654 26.1832 25.8761 26.0978 25.9577C26.0124 26.0394 25.8965 26.0852 25.7757 26.0852C25.6549 26.0852 25.5391 26.0394 25.4537 25.9577C25.3683 25.8761 25.3203 25.7654 25.3203 25.65C25.3203 25.5346 25.3683 25.4239 25.4537 25.3423C25.5391 25.2607 25.6549 25.2148 25.7757 25.2148C25.8965 25.2148 26.0124 25.2607 26.0978 25.3423C26.1832 25.4239 26.2312 25.5346 26.2312 25.65V25.65Z" fill="#FFFF00"/>
<path fill-rule="evenodd" clip-rule="evenodd" d="M25.7792 25.2491C25.6671 25.2491 25.56 25.2917 25.4812 25.367C25.4024 25.4422 25.3585 25.5439 25.3585 25.6496C25.3585 25.7553 25.4024 25.857 25.4812 25.9322C25.56 26.0075 25.6671 26.05 25.7792 26.05C25.8913 26.05 25.9985 26.0075 26.0772 25.9322C26.156 25.857 26.1999 25.7553 26.1999 25.6496C26.1999 25.5439 26.156 25.4422 26.0772 25.367C25.9985 25.2917 25.8913 25.2491 25.7792 25.2491ZM25.4332 25.3168C25.5252 25.2288 25.6497 25.1797 25.7792 25.1797C25.9087 25.1797 26.0332 25.2288 26.1252 25.3168C26.2173 25.4048 26.2694 25.5244 26.2694 25.6496C26.2694 25.7747 26.2173 25.8944 26.1252 25.9824C26.0332 26.0704 25.9087 26.1195 25.7792 26.1195C25.6497 26.1195 25.5252 26.0704 25.4332 25.9824C25.3411 25.8944 25.2891 25.7747 25.2891 25.6496C25.2891 25.5244 25.3411 25.4048 25.4332 25.3168Z" fill="black"/>
<path fill-rule="evenodd" clip-rule="evenodd" d="M25.7702 27.1774C25.7702 27.2928 25.7222 27.4035 25.6368 27.4851C25.5514 27.5667 25.4356 27.6125 25.3148 27.6125C25.194 27.6125 25.0782 27.5667 24.9928 27.4851C24.9074 27.4035 24.8594 27.2928 24.8594 27.1774C24.8594 27.062 24.9074 26.9513 24.9928 26.8696C25.0782 26.788 25.194 26.7422 25.3148 26.7422C25.4356 26.7422 25.5514 26.788 25.6368 26.8696C25.7222 26.9513 25.7702 27.062 25.7702 27.1774V27.1774Z" fill="#FFFF00"/>
<path fill-rule="evenodd" clip-rule="evenodd" d="M25.3183 26.7765C25.2062 26.7765 25.099 26.819 25.0202 26.8943C24.9415 26.9696 24.8976 27.0713 24.8976 27.1769C24.8976 27.2826 24.9415 27.3843 25.0202 27.4596C25.099 27.5348 25.2062 27.5774 25.3183 27.5774C25.4303 27.5774 25.5375 27.5348 25.6163 27.4596C25.695 27.3843 25.739 27.2826 25.739 27.1769C25.739 27.0713 25.695 26.9696 25.6163 26.8943C25.5375 26.819 25.4303 26.7765 25.3183 26.7765ZM24.9722 26.8441C25.0643 26.7562 25.1888 26.707 25.3183 26.707C25.4478 26.707 25.5723 26.7562 25.6643 26.8441C25.7564 26.9321 25.8084 27.0518 25.8084 27.1769C25.8084 27.3021 25.7564 27.4218 25.6643 27.5098C25.5723 27.5977 25.4478 27.6469 25.3183 27.6469C25.1888 27.6469 25.0643 27.5977 24.9722 27.5098C24.8802 27.4218 24.8281 27.3021 24.8281 27.1769C24.8281 27.0518 24.8802 26.9321 24.9722 26.8441Z" fill="black"/>
<path fill-rule="evenodd" clip-rule="evenodd" d="M25.5515 26.3063C25.5515 26.4217 25.5035 26.5324 25.4181 26.614C25.3327 26.6956 25.2168 26.7415 25.096 26.7415C24.9753 26.7415 24.8594 26.6956 24.774 26.614C24.6886 26.5324 24.6406 26.4217 24.6406 26.3063C24.6406 26.1909 24.6886 26.0802 24.774 25.9986C24.8594 25.9169 24.9753 25.8711 25.096 25.8711C25.2168 25.8711 25.3327 25.9169 25.4181 25.9986C25.5035 26.0802 25.5515 26.1909 25.5515 26.3063V26.3063Z" fill="#FFFF00"/>
<path fill-rule="evenodd" clip-rule="evenodd" d="M25.0917 25.9054C24.9796 25.9054 24.8725 25.948 24.7937 26.0232C24.7149 26.0985 24.671 26.2002 24.671 26.3058C24.671 26.4115 24.7149 26.5132 24.7937 26.5885C24.8725 26.6637 24.9796 26.7063 25.0917 26.7063C25.2038 26.7063 25.311 26.6637 25.3897 26.5885C25.4685 26.5132 25.5124 26.4115 25.5124 26.3058C25.5124 26.2002 25.4685 26.0985 25.3897 26.0232C25.311 25.948 25.2038 25.9054 25.0917 25.9054ZM24.7457 25.973C24.8377 25.8851 24.9622 25.8359 25.0917 25.8359C25.2212 25.8359 25.3457 25.8851 25.4377 25.973C25.5298 26.061 25.5819 26.1807 25.5819 26.3058C25.5819 26.431 25.5298 26.5507 25.4377 26.6387C25.3457 26.7266 25.2212 26.7758 25.0917 26.7758C24.9622 26.7758 24.8377 26.7266 24.7457 26.6387C24.6536 26.5507 24.6016 26.431 24.6016 26.3058C24.6016 26.1807 24.6536 26.061 24.7457 25.973Z" fill="black"/>
<path fill-rule="evenodd" clip-rule="evenodd" d="M26.6921 27.1774C26.6921 27.2928 26.6441 27.4035 26.5587 27.4851C26.4733 27.5667 26.3575 27.6125 26.2367 27.6125C26.1159 27.6125 26 27.5667 25.9146 27.4851C25.8292 27.4035 25.7812 27.2928 25.7812 27.1774C25.7812 27.062 25.8292 26.9513 25.9146 26.8696C26 26.788 26.1159 26.7422 26.2367 26.7422C26.3575 26.7422 26.4733 26.788 26.5587 26.8696C26.6441 26.9513 26.6921 27.062 26.6921 27.1774V27.1774Z" fill="#FFFF00"/>
<path fill-rule="evenodd" clip-rule="evenodd" d="M26.2401 26.7765C26.1281 26.7765 26.0209 26.819 25.9421 26.8943C25.8634 26.9696 25.8195 27.0713 25.8195 27.1769C25.8195 27.2826 25.8634 27.3843 25.9421 27.4596C26.0209 27.5348 26.1281 27.5774 26.2401 27.5774C26.3522 27.5774 26.4594 27.5348 26.5382 27.4596C26.6169 27.3843 26.6608 27.2826 26.6608 27.1769C26.6608 27.0713 26.6169 26.9696 26.5382 26.8943C26.4594 26.819 26.3522 26.7765 26.2401 26.7765ZM25.8941 26.8441C25.9862 26.7562 26.1106 26.707 26.2401 26.707C26.3696 26.707 26.4941 26.7562 26.5862 26.8441C26.6783 26.9321 26.7303 27.0518 26.7303 27.1769C26.7303 27.3021 26.6783 27.4218 26.5862 27.5098C26.4941 27.5977 26.3696 27.6469 26.2401 27.6469C26.1106 27.6469 25.9862 27.5977 25.8941 27.5098C25.802 27.4218 25.75 27.3021 25.75 27.1769C25.75 27.0518 25.802 26.9321 25.8941 26.8441Z" fill="black"/>
<path fill-rule="evenodd" clip-rule="evenodd" d="M26.9187 26.3063C26.9187 26.4217 26.8707 26.5324 26.7853 26.614C26.6999 26.6956 26.584 26.7415 26.4632 26.7415C26.3424 26.7415 26.2266 26.6956 26.1412 26.614C26.0558 26.5324 26.0078 26.4217 26.0078 26.3063C26.0078 26.1909 26.0558 26.0802 26.1412 25.9986C26.2266 25.9169 26.3424 25.8711 26.4632 25.8711C26.584 25.8711 26.6999 25.9169 26.7853 25.9986C26.8707 26.0802 26.9187 26.1909 26.9187 26.3063V26.3063Z" fill="#FFFF00"/>
<path fill-rule="evenodd" clip-rule="evenodd" d="M26.4589 25.9054C26.3468 25.9054 26.2396 25.948 26.1609 26.0232C26.0821 26.0985 26.0382 26.2002 26.0382 26.3058C26.0382 26.4115 26.0821 26.5132 26.1609 26.5885C26.2396 26.6637 26.3468 26.7063 26.4589 26.7063C26.571 26.7063 26.6781 26.6637 26.7569 26.5885C26.8357 26.5132 26.8796 26.4115 26.8796 26.3058C26.8796 26.2002 26.8357 26.0985 26.7569 26.0232C26.6781 25.948 26.571 25.9054 26.4589 25.9054ZM26.1129 25.973C26.2049 25.8851 26.3294 25.8359 26.4589 25.8359C26.5884 25.8359 26.7129 25.8851 26.8049 25.973C26.897 26.061 26.949 26.1807 26.949 26.3058C26.949 26.431 26.897 26.5507 26.8049 26.6387C26.7129 26.7266 26.5884 26.7758 26.4589 26.7758C26.3294 26.7758 26.2049 26.7266 26.1129 26.6387C26.0208 26.5507 25.9688 26.431 25.9688 26.3058C25.9688 26.1807 26.0208 26.061 26.1129 25.973Z" fill="black"/>
<path fill-rule="evenodd" clip-rule="evenodd" d="M26.2312 26.5211C26.2312 26.6365 26.1832 26.7472 26.0978 26.8288C26.0124 26.9104 25.8965 26.9563 25.7757 26.9563C25.6549 26.9563 25.5391 26.9104 25.4537 26.8288C25.3683 26.7472 25.3203 26.6365 25.3203 26.5211C25.3203 26.4057 25.3683 26.295 25.4537 26.2134C25.5391 26.1318 25.6549 26.0859 25.7757 26.0859C25.8965 26.0859 26.0124 26.1318 26.0978 26.2134C26.1832 26.295 26.2312 26.4057 26.2312 26.5211V26.5211Z" fill="#FFFF00"/>
<path fill-rule="evenodd" clip-rule="evenodd" d="M25.7792 26.1202C25.6671 26.1202 25.56 26.1628 25.4812 26.2381C25.4024 26.3133 25.3585 26.415 25.3585 26.5207C25.3585 26.6264 25.4024 26.7281 25.4812 26.8033C25.56 26.8786 25.6671 26.9211 25.7792 26.9211C25.8913 26.9211 25.9985 26.8786 26.0772 26.8033C26.156 26.7281 26.1999 26.6264 26.1999 26.5207C26.1999 26.415 26.156 26.3133 26.0772 26.2381C25.9985 26.1628 25.8913 26.1202 25.7792 26.1202ZM25.4332 26.1879C25.5252 26.0999 25.6497 26.0508 25.7792 26.0508C25.9087 26.0508 26.0332 26.0999 26.1252 26.1879C26.2173 26.2759 26.2694 26.3955 26.2694 26.5207C26.2694 26.6458 26.2173 26.7655 26.1252 26.8535C26.0332 26.9415 25.9087 26.9906 25.7792 26.9906C25.6497 26.9906 25.5252 26.9415 25.4332 26.8535C25.3411 26.7655 25.2891 26.6458 25.2891 26.5207C25.2891 26.3955 25.3411 26.2759 25.4332 26.1879Z" fill="black"/>
<path fill-rule="evenodd" clip-rule="evenodd" d="M27.9156 11.2859C26.7531 11.2859 26.6031 11.4734 26.0781 11.6516C26.0781 11.1453 27.3719 10.5547 28.5156 10.5547C28.5156 10.9203 28.2156 11.2859 27.9156 11.2859Z" fill="#DA4500"/>
<path fill-rule="evenodd" clip-rule="evenodd" d="M29.6687 10.1242C29.6687 10.3586 29.4625 10.5555 29.2094 10.5555C28.9562 10.5555 28.75 10.3586 28.75 10.1148C28.75 9.87109 28.9562 9.68359 29.2094 9.68359C29.4625 9.68359 29.6687 9.87109 29.6687 10.1148V10.1242Z" fill="#CAC9C7"/>
<path fill-rule="evenodd" clip-rule="evenodd" d="M24.8658 8.59138V9.24569H26.0092V12.5234H26.7004V9.24569H27.8438V8.59138H26.7004V7.71484H26.0028V8.59138H24.8594H24.8658Z" fill="#FFFF00"/>
<path fill-rule="evenodd" clip-rule="evenodd" d="M25.9651 7.67969H26.7322V8.55622H27.8756V9.28H26.7322V12.5577H25.9715V9.28H24.8281V8.59095H24.8564V8.55622H25.9651V7.67969ZM24.8976 8.62568H26.0345V7.74915H26.6627V8.62568H27.8061V9.21054H26.6627V12.4883H26.041V9.21054H24.8976V8.62568Z" fill="black"/>
<path fill-rule="evenodd" clip-rule="evenodd" d="M28.5281 10.5539C27.5976 10.5007 26.6655 10.6248 25.7812 10.9195C25.7813 10.2445 26.5687 9.45703 27.9187 9.45703C28.2187 9.45703 28.5281 10.1883 28.5281 10.5539V10.5539Z" fill="#DA4500"/>
<path fill-rule="evenodd" clip-rule="evenodd" d="M16.6115 22.1722C16.2821 21.462 16.2897 21.2354 16.8758 22.0479L23.9356 35.432L23.7195 35.493L16.6152 22.175L16.6115 22.1722Z" fill="#008500"/>
<path fill-rule="evenodd" clip-rule="evenodd" d="M16.6236 22.1619C16.5421 21.9859 16.4815 21.8401 16.4455 21.7331C16.4274 21.6791 16.4156 21.6355 16.4105 21.603C16.4079 21.5867 16.407 21.5737 16.4077 21.5639C16.4083 21.5538 16.4104 21.5484 16.4125 21.5457C16.4142 21.5436 16.4166 21.542 16.4217 21.5424C16.4272 21.5429 16.4352 21.5456 16.4462 21.5522C16.468 21.5652 16.498 21.5911 16.5368 21.6319C16.614 21.713 16.7238 21.8504 16.8699 22.053L23.9217 35.4218L23.7281 35.4764L16.627 22.1644L16.6236 22.1619ZM16.552 21.6138C16.6306 21.6964 16.7414 21.8351 16.888 22.0384L16.8885 22.0392L23.9564 35.4384L23.7178 35.5057L16.6103 22.1818L16.6063 22.1787L16.6049 22.1757C16.5225 21.998 16.4609 21.8502 16.4242 21.741C16.4059 21.6865 16.3936 21.6412 16.3881 21.6063C16.3853 21.589 16.3842 21.5737 16.385 21.561C16.3858 21.5484 16.3886 21.5369 16.395 21.5287C16.4019 21.5198 16.4115 21.5163 16.4222 21.5171C16.4325 21.5179 16.4439 21.5226 16.4562 21.5299C16.4809 21.5447 16.5128 21.5726 16.552 21.6138Z" fill="black"/>
<path fill-rule="evenodd" clip-rule="evenodd" d="M21.4068 30.9755C21.4818 29.9818 19.663 28.913 19.588 28.9786C19.5224 29.0536 19.7005 29.6349 20.0474 29.9255C19.3912 29.588 18.6974 29.3818 18.6787 29.5224C18.6224 29.7286 19.7099 30.1974 19.8037 30.3849C19.8037 30.5161 18.9974 30.4974 19.0162 30.6286C19.0349 30.7599 21.2943 31.9036 21.4068 30.9755ZM19.588 28.088C19.663 27.0943 17.8443 26.0255 17.7787 26.0911C17.7037 26.1568 17.8818 26.738 18.2287 27.038C17.5724 26.7005 16.8787 26.4849 16.8599 26.6349C16.813 26.8318 17.8912 27.3099 17.9849 27.4974C17.9943 27.6286 17.188 27.6099 17.1974 27.7411C17.2162 27.8724 19.4755 29.0068 19.588 28.088ZM18.2005 25.463C18.2755 24.4693 16.4568 23.4005 16.3818 23.4661C16.3162 23.5318 16.4943 24.113 16.8412 24.413C16.1849 24.0755 15.4912 23.8599 15.4724 24.0099C15.4255 24.2068 16.5037 24.6849 16.5974 24.8724C16.5974 25.0036 15.8005 24.9849 15.8099 25.1161C15.8287 25.2474 18.088 26.3911 18.2005 25.463ZM16.8318 22.613C16.8974 21.6286 15.088 20.5505 15.013 20.6161C14.938 20.6911 15.1255 21.2724 15.463 21.5724C14.8068 21.2255 14.113 21.0193 14.1037 21.1693C14.0474 21.3661 15.1349 21.8443 15.2193 22.0224C15.2287 22.1536 14.4224 22.1443 14.4412 22.2755C14.4505 22.4068 16.7099 23.5411 16.8318 22.613V22.613Z" fill="#008F00"/>
<path fill-rule="evenodd" clip-rule="evenodd" d="M17.2992 22.4918C18.1804 21.9574 18.0023 19.9231 17.9085 19.9043C17.8054 19.8949 17.421 20.3731 17.3742 20.8231C17.271 20.1106 17.0367 19.4543 16.9054 19.5293C16.7085 19.6043 16.9429 20.7199 16.8398 20.8981C16.746 20.9918 16.2773 20.3543 16.1835 20.4481C16.071 20.5418 16.446 22.9512 17.3085 22.4918H17.2992ZM18.5742 24.9856C19.5867 24.7606 20.1398 22.7918 20.046 22.7449C19.9523 22.6981 19.4273 23.0262 19.2304 23.4387C19.3804 22.7356 19.3898 22.0418 19.2304 22.0699C19.0148 22.0793 18.8554 23.2043 18.696 23.3356C18.5742 23.3918 18.3492 22.6512 18.2273 22.6981C18.096 22.7543 17.6085 25.1449 18.5742 24.9856ZM20.0929 27.5356C21.021 27.0856 21.0304 25.0418 20.9367 25.023C20.8429 24.9949 20.421 25.4449 20.3273 25.8856C20.2898 25.1637 20.121 24.4981 19.9804 24.5637C19.7742 24.6199 19.9054 25.7449 19.7929 25.9137C19.6804 25.998 19.2773 25.3231 19.1648 25.4074C19.0523 25.4824 19.2023 27.9199 20.1023 27.5356H20.0929ZM21.7429 30.873C22.7085 30.5074 22.9429 28.4824 22.8492 28.4449C22.7554 28.4168 22.2867 28.8199 22.146 29.2512C22.1835 28.5293 22.0898 27.8449 21.9398 27.9012C21.7242 27.9387 21.7429 29.073 21.6117 29.2324C21.4898 29.298 21.1617 28.5949 21.0492 28.6699C20.9273 28.7262 20.8148 31.173 21.7429 30.873V30.873Z" fill="#008F00"/>
<path fill-rule="evenodd" clip-rule="evenodd" d="M23.874 34.3487C23.6283 34.7691 22.8515 34.8071 22.1295 34.422C21.4075 34.0368 21.0338 33.385 21.2794 32.9646C21.525 32.5442 22.3075 32.5092 23.0238 32.8913C23.7402 33.2735 24.1196 33.9283 23.874 34.3487Z" fill="#FF1900"/>
<path fill-rule="evenodd" clip-rule="evenodd" d="M21.9813 32.6645C21.672 32.6777 21.4296 32.7887 21.3154 32.9843C21.201 33.18 21.2281 33.4346 21.3778 33.6927C21.5272 33.9501 21.796 34.2053 22.1524 34.3954C22.5087 34.5855 22.8771 34.6703 23.1848 34.6567C23.4932 34.6431 23.7343 34.5314 23.8486 34.3358C23.9629 34.1402 23.9346 33.8848 23.7841 33.6263C23.634 33.3685 23.3651 33.1133 23.0116 32.9247C22.6581 32.7361 22.2897 32.6513 21.9813 32.6645ZM21.9796 32.5962C22.3029 32.5824 22.6839 32.6711 23.0467 32.8647C23.4095 33.0583 23.6885 33.3216 23.8458 33.5918C24.0027 33.8614 24.0413 34.1436 23.9099 34.3685C23.7786 34.5932 23.5085 34.7108 23.1866 34.725C22.8639 34.7392 22.4829 34.6504 22.1173 34.4554C21.7517 34.2603 21.4727 33.997 21.316 33.727C21.1598 33.4578 21.1228 33.1763 21.2541 32.9516C21.3854 32.7268 21.6571 32.61 21.9796 32.5962Z" fill="black"/>
<path fill-rule="evenodd" clip-rule="evenodd" d="M42.5225 20.2719L42.6441 19.9582L42.9715 20.0613L43.093 19.7476L43.4204 19.8507L43.3006 20.16L43.6373 20.2661L43.514 20.5842L43.1773 20.4781L42.8743 21.2602L42.5469 21.1571L42.8499 20.375L42.5225 20.2719V20.2719ZM41.8194 23.0349L42.1468 23.138L38.6289 32.2179L38.3015 32.1148L41.8194 23.0349Z" fill="#FFFF00"/>
<path fill-rule="evenodd" clip-rule="evenodd" d="M43.0852 19.732L43.4356 19.8423L43.3157 20.1516L43.6525 20.2577L43.5205 20.5983L43.1838 20.4922L42.8808 21.2743L42.5304 21.164L42.8334 20.3819L42.5175 20.2824L42.5219 20.2712L42.5104 20.2676L42.6363 19.9426L42.9637 20.0457L43.0852 19.732ZM42.5377 20.2636L42.8651 20.3667L42.5621 21.1487L42.8665 21.2446L43.1695 20.4625L43.5062 20.5686L43.6208 20.2729L43.284 20.1669L43.4039 19.8576L43.0995 19.7617L42.9779 20.0754L42.6506 19.9723L42.5377 20.2636ZM41.8116 23.0193L42.1619 23.1297L38.6353 32.232L38.285 32.1217L41.8116 23.0193ZM41.8258 23.049L38.3166 32.1064L38.621 32.2023L42.1302 23.1449L41.8258 23.049Z" fill="black"/>
<path fill-rule="evenodd" clip-rule="evenodd" d="M38.1923 31.9057L38.8565 32.1148L37.8858 34.6201L37.2217 34.4109L38.1923 31.9057ZM42.0973 21.3662L43.0935 21.6799C43.7529 21.8876 42.2575 23.3501 42.2575 23.3501L41.5981 23.1424C41.5981 23.1424 41.4332 21.1571 42.0973 21.3662V21.3662ZM43.0129 21.3868C42.9615 21.5194 42.7755 21.5798 42.5931 21.5223C42.4107 21.4649 42.3021 21.3117 42.3517 21.1836C42.4014 21.0555 42.5892 20.9907 42.7716 21.0481C42.954 21.1055 43.0625 21.2587 43.0112 21.3913L43.0129 21.3868Z" fill="#FFFF00"/>
<path fill-rule="evenodd" clip-rule="evenodd" d="M42.5147 21.0566C42.4414 21.0808 42.3857 21.1267 42.3626 21.1864C42.3395 21.2459 42.3528 21.3124 42.395 21.3717C42.4372 21.431 42.5077 21.4823 42.5968 21.5103C42.6858 21.5384 42.7752 21.5375 42.8481 21.5139C42.9201 21.4906 42.9754 21.4455 42.9999 21.3847C43.0227 21.3234 43.0095 21.2568 42.9681 21.1977C42.9261 21.1379 42.8556 21.0866 42.7665 21.0586C42.6776 21.0306 42.5878 21.0325 42.5147 21.0566ZM43.0237 21.3897C43.0487 21.3203 43.0328 21.2467 42.9887 21.1838C42.9436 21.1195 42.8686 21.0655 42.7752 21.0361C42.6817 21.0066 42.5865 21.0084 42.5077 21.0343C42.4291 21.0603 42.3661 21.1108 42.3396 21.1792C42.313 21.2478 42.3292 21.3221 42.3745 21.3857C42.3951 21.4147 42.4219 21.4417 42.4537 21.4653L42.101 21.3542C42.0152 21.3272 41.9413 21.3353 41.8786 21.3717C41.8164 21.4078 41.7669 21.4706 41.7274 21.5501C41.6484 21.709 41.6066 21.9394 41.5857 22.1747C41.5648 22.4104 41.5646 22.6525 41.5697 22.8356C41.5723 22.9272 41.5761 23.0041 41.5793 23.058C41.5809 23.085 41.5824 23.1063 41.5834 23.1208C41.584 23.1281 41.5844 23.1337 41.5847 23.1374L41.585 23.1417L41.5851 23.1431C41.5851 23.1431 41.5851 23.1432 41.5974 23.1417L41.5851 23.1432L41.5857 23.1506L42.2598 23.3629L42.2654 23.3574L42.2568 23.3493C42.2654 23.3574 42.2654 23.3574 42.2654 23.3574L42.2665 23.3563L42.2697 23.3531C42.2725 23.3503 42.2767 23.3462 42.2821 23.3408C42.2929 23.33 42.3087 23.3142 42.3285 23.2939C42.3682 23.2535 42.4241 23.1954 42.4892 23.1252C42.6192 22.9846 42.7859 22.795 42.932 22.5987C43.0779 22.4027 43.2041 22.1989 43.2522 22.0303C43.2763 21.946 43.2812 21.8691 43.2578 21.8061C43.2342 21.7425 43.1825 21.6948 43.0972 21.6679L42.7386 21.555C42.7796 21.5543 42.8189 21.5478 42.8548 21.5362C42.9318 21.5114 42.9937 21.4624 43.022 21.3941L43.0237 21.3897ZM42.0923 21.3767C42.0121 21.3514 41.9459 21.3596 41.8905 21.3917C41.8345 21.4242 41.7879 21.4822 41.7495 21.5594C41.6726 21.714 41.6311 21.9407 41.6102 22.1755C41.5894 22.41 41.5892 22.6512 41.5943 22.8338C41.5968 22.9251 41.6007 23.0017 41.6039 23.0555C41.6055 23.0824 41.6069 23.1036 41.608 23.118C41.6084 23.1242 41.6088 23.1291 41.6091 23.1327L42.2539 23.3358C42.2566 23.3331 42.2602 23.3295 42.2648 23.3249C42.2756 23.3142 42.2913 23.2984 42.3111 23.2782C42.3506 23.2379 42.4063 23.1801 42.4712 23.11C42.6009 22.9698 42.7669 22.7809 42.9122 22.5856C43.0578 22.39 43.1817 22.1892 43.2286 22.0252C43.252 21.9432 43.2557 21.8717 43.2346 21.815C43.2138 21.7589 43.1681 21.7155 43.0885 21.6904L42.0923 21.3767ZM38.1845 31.89L38.8716 32.1064L37.8923 34.6341L37.2052 34.4178L38.1845 31.89ZM38.8399 32.1217L38.1988 31.9198L37.2369 34.4025L37.878 34.6044L38.8399 32.1217Z" fill="black"/>
<path fill-rule="evenodd" clip-rule="evenodd" d="M38.7184 33.2059C38.9966 33.6073 38.6755 34.2843 37.9861 34.7206C37.2968 35.1569 36.5191 35.1752 36.2409 34.7738C35.9627 34.3723 36.2891 33.6919 36.9731 33.259C37.6571 32.8261 38.4402 32.8044 38.7184 33.2059Z" fill="#FF1900"/>
<path fill-rule="evenodd" clip-rule="evenodd" d="M36.2806 34.0451C36.1511 34.3137 36.143 34.5705 36.2725 34.7573C36.4021 34.9443 36.6514 35.0382 36.96 35.0294C37.2678 35.0207 37.6284 34.9095 37.9686 34.6942C38.3089 34.4789 38.5567 34.205 38.6852 33.9376C38.814 33.6695 38.8209 33.4136 38.6913 33.2266C38.5618 33.0397 38.3112 32.9466 38.0019 32.9558C37.6933 32.9649 37.3327 33.0762 36.9952 33.2897C36.6577 33.5033 36.4098 33.7772 36.2806 34.0451ZM36.2163 34.0156C36.3517 33.7347 36.6091 33.4519 36.9556 33.2326C37.3021 33.0133 37.675 32.8973 37.9985 32.8877C38.3212 32.8781 38.6013 32.9749 38.75 33.1894C38.8987 33.4039 38.8841 33.6872 38.7496 33.967C38.6148 34.2475 38.3574 34.5304 38.0082 34.7513C37.6591 34.9723 37.2861 35.0884 36.9632 35.0975C36.6411 35.1067 36.3624 35.009 36.2138 34.7945C36.0651 34.5799 36.0812 34.2958 36.2163 34.0156Z" fill="black"/>
</g>
<defs>
<clipPath id="clip0_4046_23031">
<rect width="60" height="45" fill="white"/>
</clipPath>
</defs>
</svg>
