<svg width="60" height="45" viewBox="0 0 60 45" fill="none" xmlns="http://www.w3.org/2000/svg">
<g clip-path="url(#clip0_4046_23251)">
<path d="M0 0H60V45H0V0Z" fill="#D20000"/>
<path d="M0 0H9L30 21.6937L51 0H60L0 45H9L30 23.3063L51 45H60L0 0ZM60 18V27L0 18V27L60 18ZM26.25 0L30 19.2844L33.75 0H26.25ZM26.25 45L30 25.7156L33.75 45H26.25Z" fill="#FFE600"/>
<path d="M30.0016 29.7297C33.9935 29.7297 37.2297 26.4935 37.2297 22.5016C37.2297 18.5096 33.9935 15.2734 30.0016 15.2734C26.0096 15.2734 22.7734 18.5096 22.7734 22.5016C22.7734 26.4935 26.0096 29.7297 30.0016 29.7297Z" fill="#FFE600"/>
<path fill-rule="evenodd" clip-rule="evenodd" d="M29.9984 16.0719C26.4491 16.0719 23.5719 18.9491 23.5719 22.4984C23.5719 26.0477 26.4491 28.925 29.9984 28.925C33.5477 28.925 36.425 26.0477 36.425 22.4984C36.425 18.9491 33.5477 16.0719 29.9984 16.0719ZM21.9688 22.4984C21.9688 18.0638 25.5638 14.4688 29.9984 14.4688C34.4331 14.4688 38.0281 18.0638 38.0281 22.4984C38.0281 26.9331 34.4331 30.5281 29.9984 30.5281C25.5638 30.5281 21.9688 26.9331 21.9688 22.4984Z" fill="#D20000"/>
</g>
<defs>
<clipPath id="clip0_4046_23251">
<rect width="60" height="45" fill="white"/>
</clipPath>
</defs>
</svg>
