<svg width="60" height="45" viewBox="0 0 60 45" fill="none" xmlns="http://www.w3.org/2000/svg">
<g clip-path="url(#clip0_4046_23267)">
<path d="M0 0H60V45H0V0Z" fill="#DA2032"/>
<path d="M20 0H40.0063V45H20V0Z" fill="#0066B3"/>
<path d="M10 20.793C12.0711 20.793 13.75 19.114 13.75 17.043C13.75 14.9719 12.0711 13.293 10 13.293C7.92893 13.293 6.25 14.9719 6.25 17.043C6.25 19.114 7.92893 20.793 10 20.793Z" fill="#FFD900"/>
<path d="M10.0016 19.425C12.259 19.425 14.0891 17.595 14.0891 15.3375C14.0891 13.08 12.259 11.25 10.0016 11.25C7.7441 11.25 5.91406 13.08 5.91406 15.3375C5.91406 17.595 7.7441 19.425 10.0016 19.425Z" fill="#DA2032"/>
<path d="M10.0016 18.7492C11.5083 18.7492 12.7297 17.5278 12.7297 16.0211C12.7297 14.5144 11.5083 13.293 10.0016 13.293C8.49486 13.293 7.27344 14.5144 7.27344 16.0211C7.27344 17.5278 8.49486 18.7492 10.0016 18.7492Z" fill="#FFD900"/>
<path d="M10.2812 7.16406C10.1428 7.22462 10.024 7.32242 9.9379 7.44657C9.85183 7.57072 9.80192 7.71634 9.79375 7.86719C9.775 8.10156 9.87813 8.36406 9.8875 8.58906C9.8875 8.98281 9.48438 9.11406 9.48438 9.66719C9.48438 9.85469 9.6625 10.0703 9.6625 10.5672C9.625 10.8297 9.475 10.8953 9.31562 10.9141C9.2705 10.9141 9.22584 10.905 9.18427 10.8875C9.1427 10.87 9.10506 10.8443 9.0736 10.8119C9.04213 10.7796 9.01747 10.7413 9.00107 10.6992C8.98467 10.6572 8.97687 10.6123 8.97813 10.5672C8.97788 10.4799 9.01149 10.3959 9.07188 10.3328C9.08371 10.3226 9.09624 10.3132 9.10938 10.3047C9.18438 10.2203 9.29688 10.1922 9.29688 9.98594C9.29688 9.88281 9.22187 9.77969 9.15625 9.59219C9.09063 9.40469 9.1375 9.10469 9.2875 8.92656C9.04375 9.02031 8.90312 9.24531 8.81875 9.45156C8.74375 9.70469 8.81875 9.84531 8.70625 10.0609C8.64062 10.1922 8.56562 10.2484 8.49062 10.3609C8.39687 10.4922 8.30312 10.7734 8.30312 10.9141C8.33502 11.3435 8.52814 11.745 8.84373 12.0381C9.15932 12.3311 9.57404 12.4939 10.0047 12.4939C10.4353 12.4939 10.8501 12.3311 11.1656 12.0381C11.4812 11.745 11.6743 11.3435 11.7062 10.9141C11.7062 10.7734 11.6031 10.4922 11.5187 10.3609C11.4344 10.2484 11.3594 10.1922 11.2938 10.0609C11.1813 9.84531 11.2562 9.70469 11.1719 9.45156C11.0969 9.24531 10.9563 9.02031 10.7125 8.92656C10.8625 9.11406 10.9 9.41406 10.8438 9.59219C10.7781 9.77969 10.7125 9.87344 10.7125 9.98594C10.7125 10.1922 10.8156 10.2203 10.9 10.3047C10.9099 10.3135 10.9193 10.3229 10.9281 10.3328C10.9885 10.3959 11.0221 10.4799 11.0219 10.5672C11.0231 10.6123 11.0153 10.6572 10.9989 10.6992C10.9825 10.7413 10.9579 10.7796 10.9264 10.8119C10.8949 10.8443 10.8573 10.87 10.8157 10.8875C10.7742 10.905 10.7295 10.9141 10.6844 10.9141C10.4969 10.8859 10.3563 10.8016 10.3375 10.5672C10.3375 9.91094 10.6188 9.87344 10.6188 9.38594C10.6188 8.69219 10 8.36406 10 7.85781C10 7.68906 10.0375 7.38906 10.2812 7.16406V7.16406ZM2.5 21.4703H5.90312V37.8297H2.5V21.4703ZM14.0875 21.4703H17.5V37.8297H14.0875V21.4703ZM6.5875 21.4703H13.4031L10 23.5141L6.5875 21.4703ZM6.5875 24.1891H13.4031V25.5578H6.5875V24.1891ZM6.5875 33.7422H13.4031V35.1109H6.5875V33.7422ZM6.5875 35.7859H13.4031L10 37.8297L6.5875 35.7859Z" fill="#FFD900"/>
<path d="M10.0062 33.075C11.8909 33.075 13.4188 31.5472 13.4188 29.6625C13.4188 27.7778 11.8909 26.25 10.0062 26.25C8.12158 26.25 6.59375 27.7778 6.59375 29.6625C6.59375 31.5472 8.12158 33.075 10.0062 33.075Z" fill="#FFD900"/>
<path d="M9.99432 28.5316C10.3709 28.5316 10.6761 28.2263 10.6761 27.8498C10.6761 27.4732 10.3709 27.168 9.99432 27.168C9.61776 27.168 9.3125 27.4732 9.3125 27.8498C9.3125 28.2263 9.61776 28.5316 9.99432 28.5316Z" fill="#DA2032"/>
<path d="M9.99432 32.1449C10.3709 32.1449 10.6761 31.8396 10.6761 31.4631C10.6761 31.0865 10.3709 30.7812 9.99432 30.7812C9.61776 30.7812 9.3125 31.0865 9.3125 31.4631C9.3125 31.8396 9.61776 32.1449 9.99432 32.1449Z" fill="#DA2032"/>
<path d="M9.99573 25.8398C10.5292 25.8398 11.0408 26.0518 11.418 26.429C11.7952 26.8062 12.0071 27.3178 12.0071 27.8512C12.0071 28.3846 11.7952 28.8962 11.418 29.2734C11.0408 29.6506 10.5292 29.8626 9.99573 29.8626C9.57078 29.8626 9.16324 30.0314 8.86276 30.3318C8.56227 30.6323 8.39346 31.0399 8.39346 31.4648C8.39346 31.8898 8.56227 32.2973 8.86276 32.5978C9.16324 32.8983 9.57078 33.0671 9.99573 33.0671V33.4762C9.46229 33.4762 8.95069 33.2643 8.57349 32.8871C8.19629 32.5099 7.98438 31.9983 7.98438 31.4648C7.98438 30.9314 8.19629 30.4198 8.57349 30.0426C8.95069 29.6654 9.46229 29.4535 9.99573 29.4535C10.4207 29.4535 10.8282 29.2847 11.1287 28.9842C11.4292 28.6837 11.598 28.2761 11.598 27.8512C11.598 27.4263 11.4292 27.0187 11.1287 26.7182C10.8282 26.4177 10.4207 26.2489 9.99573 26.2489V25.8398Z" fill="#DA2032"/>
</g>
<defs>
<clipPath id="clip0_4046_23267">
<rect width="60" height="45" fill="white"/>
</clipPath>
</defs>
</svg>
