<svg width="60" height="45" viewBox="0 0 60 45" fill="none" xmlns="http://www.w3.org/2000/svg">
<g clip-path="url(#clip0_4046_23280)">
<path d="M0 0H60V45H0V0Z" fill="#00785E"/>
<path d="M27.6562 10.1906L31.4531 12.9562L30 8.48438L28.5469 12.9562L32.3531 10.1906H27.6562Z" fill="#FBD116"/>
<path d="M29.9969 31.0898H20.3875C20.2664 30.9671 20.1476 30.8421 20.0312 30.7148H29.9969C30.0356 30.7285 30.069 30.7539 30.0925 30.7876C30.1161 30.8212 30.1285 30.8613 30.1281 30.9023C30.1281 30.9773 30.0813 31.0617 29.9969 31.0898ZM29.9969 28.1555C30.1054 27.9348 30.1446 27.6864 30.1094 27.443C30.0913 27.3189 30.0533 27.1986 29.9969 27.0867C29.1331 27.9087 28.09 28.5185 26.95 28.868C26.2357 29.085 25.4934 29.1956 24.7469 29.1961H18.8312C19.0039 29.4522 19.1852 29.7024 19.375 29.9461H25.0938C26.9688 29.9461 28.675 29.2711 29.9969 28.1555V28.1555ZM19.7219 25.8398C19.4302 25.9487 19.1235 26.012 18.8125 26.0273C19.525 26.8373 20.4018 27.4861 21.3847 27.9306C22.3675 28.3752 23.4338 28.6052 24.5125 28.6055C25.5376 28.6057 26.5521 28.3981 27.4947 27.9953C28.4374 27.5925 29.2886 27.0027 29.9969 26.2617C30.2603 24.4357 30.4013 22.5941 30.4188 20.7492C30.4413 18.6259 30.3003 16.504 29.9969 14.4023C29.3781 14.9648 28.2156 16.1555 27.6719 17.993C27.4679 18.6966 27.3669 19.426 27.3719 20.1586C27.3716 21.6612 27.8187 23.1298 28.6563 24.3773C27.6242 23.0505 27.0635 21.4177 27.0625 19.7367C27.0625 18.5742 27.325 17.468 27.7938 16.4836C27.4675 16.1378 27.2267 15.7204 27.0906 15.2648C26.4423 16.4081 26.1031 17.7006 26.1063 19.0148C26.1063 20.7023 26.6594 22.268 27.5969 23.5242C26.7151 22.5976 25.644 21.8718 24.4566 21.3962C23.2692 20.9206 21.9933 20.7063 20.7156 20.768C20.9747 21.0072 21.1904 21.2895 21.3531 21.6023C22.5557 21.6038 23.7454 21.8487 24.8508 22.3225C25.9561 22.7962 26.954 23.4888 27.7844 24.3586C26.1816 23.0149 24.1571 22.2781 22.0656 22.2773C20.8847 22.2751 19.7152 22.5077 18.625 22.9617C19.2097 24.5074 20.2814 25.8209 21.6784 26.7037C23.0754 27.5866 24.7217 27.9908 26.3687 27.8555C25.9281 27.9305 25.4781 27.9773 25.0187 27.9773C23.0451 27.9809 21.148 27.214 19.7313 25.8398H19.7219ZM29.9969 34.1648H25.0187C26.6032 34.793 28.2925 35.1143 29.9969 35.1117C30.0741 34.9674 30.1159 34.8067 30.1187 34.643C30.1174 34.4761 30.0756 34.312 29.9969 34.1648V34.1648ZM29.9969 31.868H21.2219C21.4588 32.0701 21.7027 32.264 21.9531 32.4492H29.9969C30.0727 32.3712 30.1162 32.2674 30.1187 32.1586C30.1207 32.1042 30.1109 32.05 30.0898 31.9999C30.0688 31.9497 30.0371 31.9047 29.9969 31.868ZM29.9969 33.0398H22.8063C23.2415 33.3155 23.6923 33.5659 24.1563 33.7898H29.9969C30.0721 33.6724 30.1112 33.5355 30.1094 33.3961C30.1047 33.2694 30.0658 33.1463 29.9969 33.0398V33.0398Z" fill="white"/>
<path d="M18.7969 16.3891L21.1781 18.6016L20.55 15.4141L19.1813 18.3578L22.0219 16.7828L18.7969 16.3891ZM22.2562 13.3891L25.5094 13.4453L22.9125 11.4766L23.8594 14.5984L24.9187 11.5141L22.2562 13.3891Z" fill="#FBD116"/>
</g>
<defs>
<clipPath id="clip0_4046_23280">
<rect width="60" height="45" fill="white"/>
</clipPath>
</defs>
</svg>
