<svg width="60" height="45" viewBox="0 0 60 45" fill="none" xmlns="http://www.w3.org/2000/svg">
<g clip-path="url(#clip0_4046_23416)">
<path d="M0 0H60V45H0V0Z" fill="#CD2A3E"/>
<path d="M0 6.75H60V38.25H0V6.75Z" fill="#006233"/>
<path d="M44.0625 14.4922C44.0625 18.2218 42.5809 21.7986 39.9437 24.4359C37.3065 27.0731 33.7296 28.5547 30 28.5547C26.2704 28.5547 22.6935 27.0731 20.0563 24.4359C17.4191 21.7986 15.9375 18.2218 15.9375 14.4922C15.625 15.6922 15.4675 16.9272 15.4688 18.1672C15.4688 22.0211 16.9997 25.7172 19.7249 28.4423C22.45 31.1675 26.1461 32.6984 30 32.6984C33.8539 32.6984 37.55 31.1675 40.2752 28.4423C43.0003 25.7172 44.5313 22.0211 44.5313 18.1672C44.5331 16.9272 44.3755 15.6921 44.0625 14.4922V14.4922Z" fill="#FFC400"/>
<path d="M30 8.79297L28.7344 12.6836H24.6562L27.9656 15.0836L26.7 18.9648L30.0094 16.5648L33.3187 18.9648L32.0531 15.0836L35.3625 12.6836H31.275L30 8.79297Z" fill="#FFC400"/>
</g>
<defs>
<clipPath id="clip0_4046_23416">
<rect width="60" height="45" fill="white"/>
</clipPath>
</defs>
</svg>
