<svg width="60" height="45" viewBox="0 0 60 45" fill="none" xmlns="http://www.w3.org/2000/svg">
<g clip-path="url(#clip0_4046_23421)">
<path d="M0 0H60V45H0V0Z" fill="#012169"/>
<path d="M36.0828 10.4062H55.3484L55.3203 24.1219C55.4797 29.625 52.0484 33.0469 45.7297 34.5938C41.2391 33.4688 36.0734 31.1719 36.0547 24.2812L36.0828 10.4062V10.4062Z" fill="white"/>
<path d="M36.5031 10.8203H54.9156L54.8969 23.9641C55.0469 29.2422 51.7656 32.5141 45.7281 33.9953C41.4344 32.9266 36.4938 30.7141 36.4844 24.1141L36.5031 10.8203V10.8203Z" fill="#00A2BD"/>
<path fill-rule="evenodd" clip-rule="evenodd" d="M36.5936 10.9031L36.575 24.1124C36.5797 27.3878 37.8064 29.5675 39.5606 31.0631C41.3131 32.5573 43.5975 33.3734 45.7345 33.9068C48.7339 33.1682 51.0396 31.9875 52.5775 30.3443C54.1168 28.6994 54.8932 26.5843 54.8188 23.9649L54.8187 23.9636L54.8374 10.9031H36.5936ZM36.5094 10.8187V10.7344H55.0064L54.9875 23.9613C55.0628 26.6195 54.2735 28.779 52.7007 30.4596C51.1294 32.1385 48.7827 33.3327 45.7545 34.0757L45.7342 34.0807L45.714 34.0756C43.5631 33.5402 41.2392 32.7161 39.4511 31.1916C37.6592 29.6638 36.411 27.4372 36.4062 24.1126V24.1124L36.425 10.8186L36.5094 10.8187Z" fill="black"/>
<path d="M54.7812 25.5195C54.1063 30.5539 50.225 32.757 45.7344 33.9289C41.75 32.8602 37.4656 31.1539 36.6406 25.5383L54.7812 25.5195Z" fill="#A53D08"/>
<path d="M44.9969 13.2672L44.9688 11.6172L46.2812 11.6266L46.2906 13.2672H49.8719L49.8812 14.5516L46.2906 14.5703L46.2625 29.7016L44.9875 29.7109L44.9688 14.5516L41.4062 14.5703V13.2578L44.9969 13.2672Z" fill="black"/>
<path fill-rule="evenodd" clip-rule="evenodd" d="M42.0908 26.1391L45.372 29.5422C46.5064 28.2953 45.7189 23.6359 44.2283 22.7828C44.0501 23.3359 43.7502 24.0016 43.422 24.2078C42.7189 24.6953 40.9751 25.2578 41.5564 25.6141C41.6876 25.4359 42.0345 25.2672 42.2033 25.6703C42.3908 26.3172 41.472 26.3547 41.472 26.3547C41.472 26.3547 40.8908 26.2797 40.7877 25.6984C40.6939 25.0984 41.6595 24.5547 41.7439 24.5172C41.8189 24.4891 43.0845 24.1422 43.3002 23.0266C43.572 21.9203 43.8439 22.0891 43.8908 22.0703C45.5502 22.2297 46.6283 25.1922 46.6939 27.2734C46.7502 29.3547 45.8501 30.7422 45.6814 30.8359C45.522 30.9203 41.7439 26.3453 41.7439 26.3453L42.1002 26.1391H42.0908Z" fill="#FF9A08"/>
<path fill-rule="evenodd" clip-rule="evenodd" d="M43.8916 22.0312L43.9006 22.0321C44.3266 22.073 44.7127 22.2936 45.0523 22.6304C45.3917 22.967 45.6864 23.4214 45.9301 23.9342C46.4176 24.9598 46.7047 26.2258 46.7376 27.2714L46.7377 27.2716C46.7659 28.3178 46.5539 29.1899 46.3133 29.8127C46.193 30.124 46.0654 30.3733 45.957 30.5511C45.9028 30.64 45.8531 30.7113 45.8112 30.7638C45.7903 30.7901 45.7711 30.8119 45.754 30.829C45.7373 30.8457 45.721 30.8595 45.7059 30.8679L45.7052 30.8682C45.6915 30.8755 45.6779 30.8741 45.6696 30.8723C45.6608 30.8704 45.6524 30.8667 45.645 30.8628C45.63 30.855 45.6127 30.8429 45.5939 30.8279C45.5558 30.7978 45.5059 30.7518 45.4464 30.693C45.327 30.5752 45.1658 30.4028 44.9774 30.1941C44.6004 29.7767 44.1129 29.2124 43.6306 28.6457C43.1483 28.079 42.6709 27.5096 42.3142 27.082C42.1358 26.8682 41.9876 26.6898 41.884 26.5648C41.8321 26.5023 41.7915 26.4532 41.7637 26.4197L41.7213 26.3684C41.7213 26.3683 41.7212 26.3683 41.7424 26.3509L41.7213 26.3684L41.7126 26.3579C41.6814 26.3649 41.6518 26.3705 41.625 26.3749C41.5824 26.3818 41.5463 26.3859 41.5209 26.3883C41.5081 26.3895 41.498 26.3902 41.491 26.3907C41.4875 26.3909 41.4848 26.391 41.4829 26.3911L41.4807 26.3913L41.4801 26.3913L41.4799 26.3913C41.4799 26.3913 41.4798 26.3913 41.4783 26.3538C41.4735 26.391 41.4735 26.391 41.4734 26.391L41.4732 26.391L41.4728 26.3909L41.4712 26.3907C41.4699 26.3905 41.4681 26.3902 41.4658 26.3899C41.4611 26.3891 41.4543 26.3879 41.4458 26.3863C41.4288 26.3829 41.4047 26.3774 41.3755 26.3691C41.3172 26.3523 41.2384 26.3237 41.156 26.2761C40.9907 26.1806 40.8109 26.0082 40.757 25.7041L40.7569 25.7034C40.7317 25.5423 40.778 25.3871 40.8595 25.2464C40.9408 25.1058 41.0584 24.9774 41.1802 24.8681C41.4233 24.6499 41.6891 24.5024 41.7349 24.4821L41.736 24.4816L41.737 24.4812C41.7417 24.4794 41.7504 24.4766 41.7627 24.4726C41.855 24.4427 42.1477 24.3475 42.4551 24.1474C42.8031 23.9208 43.1644 23.5627 43.2696 23.0186L43.2698 23.0177L43.27 23.0167C43.4062 22.4626 43.5442 22.2186 43.6608 22.1121C43.7205 22.0576 43.7748 22.0389 43.819 22.0339C43.8405 22.0315 43.8587 22.0324 43.8713 22.0331L43.8715 22.0331C43.8782 22.0335 43.8821 22.0337 43.8852 22.0336C43.8853 22.0336 43.8855 22.0336 43.8856 22.0336L43.8916 22.0312ZM43.887 22.0335C43.887 22.0335 43.887 22.0335 43.8869 22.0336ZM41.4783 26.3538L41.4734 26.391L41.4766 26.3914L41.4798 26.3913L41.4783 26.3538ZM41.4801 26.3162C41.4816 26.3161 41.4836 26.316 41.4861 26.3158C41.4925 26.3154 41.5019 26.3147 41.5139 26.3136C41.538 26.3114 41.5723 26.3075 41.6129 26.3009C41.686 26.2889 41.7785 26.2681 41.8684 26.2326L42.0402 26.1332L42.0088 26.1007H42.0843C42.1065 26.079 42.1262 26.0552 42.1427 26.0292C42.1957 25.9454 42.2176 25.8338 42.1741 25.682C42.1342 25.5873 42.0853 25.5297 42.0352 25.4969C41.9851 25.4642 41.9308 25.4544 41.8763 25.4606C41.7649 25.4732 41.6539 25.5525 41.5929 25.6354L41.5724 25.6632L41.5431 25.6452C41.4658 25.5978 41.4186 25.5418 41.4099 25.4753C41.4014 25.4096 41.4322 25.3461 41.4814 25.2876C41.5793 25.171 41.7709 25.0491 41.9959 24.9264C42.161 24.8363 42.3477 24.744 42.5346 24.6515C42.6039 24.6172 42.6733 24.5829 42.7416 24.5487C42.995 24.4218 43.2336 24.2963 43.4069 24.1761L43.4076 24.1757L43.4083 24.1752C43.5635 24.0777 43.7167 23.8674 43.8545 23.607C43.9915 23.3481 44.1102 23.0456 44.1988 22.7705L44.213 22.7264L44.2532 22.7494C44.636 22.9685 44.9689 23.4284 45.2357 24.007C45.5031 24.5868 45.7066 25.2915 45.8278 26.0077C45.9489 26.7239 45.9879 27.4533 45.9251 28.0828C45.8624 28.7108 45.6979 29.2458 45.406 29.5666L45.3791 29.5962L42.0955 26.1906C42.0447 26.2312 41.9872 26.2632 41.9293 26.2886C41.92 26.2926 41.9106 26.2965 41.9013 26.3003L41.8073 26.3547L41.8215 26.3719C41.8492 26.4054 41.8899 26.4545 41.9417 26.5169C42.0453 26.6418 42.1935 26.8202 42.3718 27.034C42.7284 27.4615 43.2056 28.0306 43.6877 28.5971C44.1699 29.1636 44.6568 29.7273 45.033 30.1439C45.2212 30.3523 45.3813 30.5234 45.4991 30.6397C45.5581 30.6979 45.6057 30.7416 45.6405 30.7692C45.6574 30.7826 45.6701 30.7912 45.6788 30.7959C45.6846 30.7914 45.692 30.7849 45.701 30.7759C45.7155 30.7614 45.7329 30.7418 45.7526 30.7171C45.792 30.6676 45.8399 30.5989 45.893 30.512C45.9989 30.3383 46.1245 30.093 46.2433 29.7856C46.4808 29.1709 46.6906 28.3087 46.6627 27.2737C46.63 26.2381 46.3452 24.9822 45.8624 23.9664C45.621 23.4586 45.3309 23.0123 44.9994 22.6836C44.6698 22.3568 44.3011 22.1478 43.8999 22.1074C43.8945 22.1084 43.8897 22.1086 43.8862 22.1086C43.8805 22.1087 43.8742 22.1084 43.8688 22.1081L43.8674 22.108C43.8551 22.1073 43.8423 22.1068 43.8274 22.1085C43.799 22.1117 43.7595 22.1235 43.7114 22.1675C43.6124 22.2578 43.4787 22.4823 43.3431 23.0337C43.2324 23.6047 42.8533 23.9776 42.496 24.2102C42.1783 24.4172 41.8735 24.5156 41.7856 24.544C41.7756 24.5473 41.7684 24.5496 41.7644 24.5511C41.7224 24.5702 41.4656 24.7127 41.2303 24.9239C41.1118 25.0303 41.0003 25.1526 40.9244 25.2839C40.8485 25.415 40.8093 25.5526 40.8309 25.6914C40.8802 25.9684 41.0425 26.1239 41.1935 26.2112C41.2694 26.255 41.3423 26.2815 41.3962 26.297C41.4231 26.3047 41.4452 26.3097 41.4604 26.3127C41.468 26.3142 41.4738 26.3152 41.4777 26.3158C41.4786 26.316 41.4794 26.3161 41.4801 26.3162ZM42.1606 26.1501L45.377 29.486C45.6363 29.1799 45.7903 28.6782 45.8504 28.0754C45.9124 27.4539 45.8741 26.7314 45.7538 26.0202C45.6335 25.3091 45.4316 24.611 45.1676 24.0384C44.9126 23.4855 44.6021 23.0545 44.2556 22.8383C44.1678 23.1041 44.0529 23.3924 43.9208 23.6421C43.7823 23.9039 43.6217 24.1294 43.449 24.2382C43.2708 24.3617 43.028 24.4892 42.7752 24.6158C42.7061 24.6504 42.6362 24.685 42.5665 24.7194C42.3801 24.8116 42.1955 24.9029 42.0318 24.9922C41.8056 25.1156 41.6263 25.2316 41.5388 25.3358C41.4952 25.3878 41.4797 25.4305 41.4843 25.4656C41.4881 25.4949 41.5071 25.528 41.5549 25.5629C41.628 25.478 41.7443 25.4001 41.8678 25.3861C41.9375 25.3782 42.0098 25.3907 42.0762 25.4341C42.1424 25.4774 42.1999 25.5492 42.2441 25.655L42.245 25.6569L42.2456 25.659C42.295 25.8296 42.2724 25.9645 42.2061 26.0693C42.1992 26.0802 42.1919 26.0906 42.1843 26.1007H42.246L42.1606 26.1501Z" fill="black"/>
<path d="M44.4906 22.9688L44.5094 29.1094ZM44.1156 23.0906L44.1437 28.6594ZM43.7219 23.8969L43.7406 28.3219ZM43.3937 24.2063L43.4125 27.8719ZM43.0469 24.375V27.4688ZM42.6719 24.6188V27.0656ZM42.3438 24.8156V26.6906Z" fill="#FF9A08"/>
<path fill-rule="evenodd" clip-rule="evenodd" d="M44.4781 29.1096L44.4594 22.969L44.5344 22.9688L44.5531 29.1094L44.4781 29.1096ZM44.1125 28.6597L44.0844 23.0909L44.1594 23.0906L44.1875 28.6593L44.1125 28.6597ZM43.7094 28.3221L43.6906 23.8971L43.7656 23.8968L43.7844 28.3218L43.7094 28.3221ZM43.3812 27.8722L43.3625 24.2066L43.4375 24.2062L43.4562 27.8718L43.3812 27.8722ZM43.0156 27.4689V24.3751H43.0906V27.4689H43.0156ZM42.6406 27.0657V24.6189H42.7156V27.0657H42.6406ZM42.3125 26.6907V24.8157H42.3875V26.6907H42.3125Z" fill="black"/>
<path fill-rule="evenodd" clip-rule="evenodd" d="M42.0206 26.5054C42.0362 26.4917 42.0599 26.4933 42.0736 26.5089L45.4486 30.3714C45.4622 30.387 45.4606 30.4107 45.445 30.4243C45.4294 30.438 45.4057 30.4364 45.3921 30.4208L42.0171 26.5583C42.0034 26.5427 42.005 26.519 42.0206 26.5054Z" fill="#FFDF00"/>
<path fill-rule="evenodd" clip-rule="evenodd" d="M45.5588 24.0335C45.5927 24.018 45.6327 24.0328 45.6483 24.0667L45.587 24.0949C45.6483 24.0667 45.6483 24.0666 45.6483 24.0667L45.6487 24.0675L45.6496 24.0694L45.653 24.077C45.6559 24.0837 45.6603 24.0935 45.6658 24.1063C45.6769 24.1319 45.693 24.1697 45.7128 24.2187C45.7525 24.3166 45.8074 24.4593 45.8688 24.6389C45.9916 24.9981 46.1402 25.5058 46.2441 26.1C46.4516 27.2872 46.4815 28.8277 45.7594 30.2197C45.7422 30.2528 45.7015 30.2657 45.6684 30.2485C45.6353 30.2314 45.6224 30.1906 45.6396 30.1575C46.3424 28.8027 46.3161 27.2963 46.1111 26.1233C46.0087 25.5375 45.8621 25.0367 45.7411 24.6826C45.6806 24.5055 45.6265 24.3652 45.5877 24.2694C45.5683 24.2215 45.5527 24.1847 45.542 24.16C45.5366 24.1476 45.5325 24.1383 45.5297 24.1321L45.5266 24.1252L45.5258 24.1235L45.5257 24.1231C45.5257 24.1231 45.5257 24.1231 45.5257 24.1231M45.5588 24.0335C45.5249 24.0491 45.5101 24.0892 45.5257 24.1231ZM41.4381 24.9226C41.4624 24.9508 41.4593 24.9934 41.4311 25.0178L41.4309 25.018L41.4298 25.0189C41.4288 25.0198 41.4273 25.0212 41.4252 25.023C41.4211 25.0267 41.415 25.0323 41.4073 25.0395C41.3918 25.0541 41.3699 25.0755 41.3446 25.1022C41.2936 25.156 41.23 25.2304 41.1769 25.3145C41.1233 25.3993 41.0834 25.4893 41.0744 25.575C41.0657 25.6576 41.0853 25.7377 41.1547 25.8109C41.1804 25.838 41.1792 25.8807 41.1521 25.9064C41.1251 25.932 41.0824 25.9308 41.0567 25.9038C40.9574 25.7989 40.9278 25.6786 40.9402 25.5608C40.9522 25.4461 41.0038 25.3358 41.0627 25.2424C41.1221 25.1484 41.192 25.0669 41.2466 25.0094C41.2739 24.9805 41.2977 24.9573 41.3148 24.9412C41.3233 24.9332 41.3302 24.927 41.335 24.9226C41.3374 24.9205 41.3393 24.9188 41.3406 24.9176L41.3422 24.9162L41.3426 24.9159L41.3428 24.9157C41.3428 24.9157 41.3429 24.9156 41.387 24.9667L41.3429 24.9156C41.3711 24.8913 41.4137 24.8944 41.4381 24.9226ZM41.7124 25.8442L41.7125 25.844L41.7132 25.8422C41.7139 25.8405 41.715 25.8379 41.7165 25.8345C41.7194 25.8278 41.7238 25.818 41.7296 25.8067C41.7412 25.7835 41.7573 25.7555 41.7761 25.7318C41.796 25.7068 41.8132 25.6941 41.8251 25.6901C41.8304 25.6883 41.8393 25.6855 41.8584 25.7021C41.8866 25.7265 41.9292 25.7235 41.9536 25.6953C41.978 25.6671 41.975 25.6245 41.9468 25.6001C41.8956 25.5557 41.8377 25.5436 41.7824 25.562C41.7336 25.5783 41.6963 25.6153 41.6705 25.6477C41.6436 25.6815 41.6228 25.7185 41.6089 25.746C41.6019 25.76 41.5964 25.772 41.5927 25.7807C41.5908 25.785 41.5893 25.7886 41.5883 25.7911L41.5871 25.7941L41.5867 25.795L41.5866 25.7953L41.5866 25.7954C41.5865 25.7954 41.5865 25.7955 41.6495 25.8199L41.5866 25.7954C41.5731 25.8302 41.5903 25.8694 41.6251 25.8828C41.6599 25.8963 41.699 25.879 41.7124 25.8442Z" fill="#FFDF00"/>
<path d="M46.312 16.4449C46.5276 16.2574 46.6495 16.1355 46.7901 16.1636C46.9307 16.1824 47.1182 16.1636 47.2588 16.1261C47.6278 16.0404 48.01 16.0277 48.3838 16.0886C48.4776 16.1074 48.6182 16.1543 48.8151 16.323C49.012 16.4918 49.3026 16.7918 49.2088 17.598C49.1151 18.4043 49.1432 18.7511 49.0963 19.2105C49.0213 20.0074 48.8432 20.6636 48.5338 20.6168C48.9557 21.3668 49.0026 22.023 49.2838 22.5386C49.5651 23.0543 49.7338 24.1136 49.6307 25.2574C49.5182 26.4105 49.2182 28.9793 50.1276 30.7136C49.9776 30.8168 49.612 30.7136 49.2838 30.3668C48.9557 30.0199 48.8151 30.0293 48.5526 30.2355C47.7276 30.8636 46.9588 31.623 45.8245 30.8636C45.562 30.6949 45.487 30.4886 45.6745 29.9543C46.1432 28.6418 46.3776 26.823 46.3026 25.9793V16.4449H46.312Z" fill="#008021"/>
<path fill-rule="evenodd" clip-rule="evenodd" d="M47.2607 16.1382C47.1187 16.176 46.9294 16.195 46.7867 16.176L46.7858 16.1759C46.7208 16.1629 46.6591 16.184 46.5854 16.2335C46.5248 16.2742 46.458 16.3328 46.3762 16.4044C46.3581 16.4203 46.3393 16.4368 46.3196 16.4539L46.3157 16.4574H46.3151V25.9771C46.3526 26.4006 46.3126 27.0672 46.2048 27.7915C46.0969 28.5163 45.9209 29.3 45.6862 29.9574C45.5926 30.224 45.5656 30.4061 45.5929 30.5417C45.62 30.6761 45.7011 30.767 45.8305 30.8502L45.8307 30.8504C46.1128 31.0392 46.3714 31.1331 46.6132 31.1586C46.855 31.1841 47.0809 31.1413 47.2978 31.0552C47.6555 30.9133 47.9871 30.6547 48.3238 30.392C48.3963 30.3354 48.4691 30.2787 48.5424 30.2228C48.6737 30.1197 48.7787 30.0621 48.894 30.0782C49.0083 30.0942 49.1285 30.1821 49.2925 30.3555C49.4553 30.5277 49.627 30.6388 49.7759 30.6942C49.9184 30.7472 50.0368 30.7481 50.1076 30.7071C49.6561 29.8391 49.5049 28.7659 49.4803 27.7663C49.4577 26.8428 49.5432 25.9807 49.6008 25.3999C49.6058 25.3493 49.6106 25.3007 49.6152 25.2545C49.6666 24.6837 49.6502 24.134 49.5859 23.6628C49.5216 23.1914 49.4094 22.7995 49.2699 22.5438C49.1441 22.3131 49.0649 22.0545 48.979 21.7739C48.9684 21.739 48.9576 21.7037 48.9466 21.6682C48.847 21.3461 48.7302 20.9957 48.52 20.6221L48.5059 20.597L48.5344 20.6013C48.6057 20.6121 48.6705 20.5829 48.7297 20.5178C48.7893 20.4524 48.8422 20.3519 48.8882 20.2237C48.9802 19.9676 49.0433 19.6057 49.0808 19.2076L49.0808 19.2075C49.0997 19.0219 49.1064 18.8548 49.1139 18.6677C49.1156 18.6238 49.1174 18.5788 49.1194 18.5322C49.13 18.287 49.1464 17.9984 49.1933 17.5948C49.24 17.1936 49.1908 16.9196 49.1065 16.7255C49.0222 16.5314 48.9021 16.4159 48.8044 16.3321C48.6094 16.165 48.4711 16.1192 48.3798 16.1009C48.0079 16.0403 47.6277 16.053 47.2607 16.1382ZM46.3051 16.4293C46.3231 16.4137 46.3404 16.3985 46.3571 16.3838C46.4389 16.3121 46.5075 16.252 46.5697 16.2102C46.6459 16.159 46.7153 16.1333 46.7908 16.1482C46.9292 16.1665 47.1145 16.1481 47.2537 16.111L47.2541 16.1109C47.6249 16.0248 48.0089 16.012 48.3845 16.0732L48.385 16.0733C48.4812 16.0925 48.624 16.1405 48.8227 16.3108C48.9218 16.3957 49.0455 16.5146 49.1323 16.7143C49.219 16.9139 49.2683 17.1931 49.2212 17.5981C49.1744 18.0008 49.158 18.2887 49.1475 18.5334C49.1455 18.5798 49.1437 18.6246 49.142 18.6685C49.1345 18.8557 49.1278 19.0238 49.1088 19.2103C49.0712 19.6091 49.0078 19.9738 48.9147 20.2332C48.8681 20.3629 48.8137 20.4674 48.7505 20.5368C48.6941 20.5988 48.6297 20.6335 48.5575 20.6316C48.7611 20.9992 48.8758 21.344 48.9734 21.6599C48.9845 21.6955 48.9952 21.7307 49.0059 21.7655C49.092 22.0466 49.1703 22.3023 49.2946 22.5303C49.4364 22.7903 49.5492 23.1859 49.6138 23.659C49.6784 24.1323 49.6948 24.6842 49.6432 25.2571L49.6432 25.2572C49.6386 25.3034 49.6338 25.352 49.6288 25.4026C49.5712 25.9835 49.4858 26.8439 49.5084 27.7656C49.533 28.7679 49.6853 29.8412 50.1385 30.7055L50.1443 30.7166L50.134 30.7237C50.0532 30.7792 49.9186 30.7773 49.766 30.7206C49.6126 30.6635 49.4374 30.5496 49.2721 30.3749C49.108 30.2014 48.9938 30.1206 48.8901 30.1061C48.7874 30.0917 48.6909 30.142 48.5597 30.245L48.5595 30.2451C48.4869 30.3004 48.4146 30.3569 48.3423 30.4133C48.0055 30.676 47.67 30.9378 47.3082 31.0814C47.0879 31.1688 46.8574 31.2127 46.6102 31.1866C46.3631 31.1605 46.1003 31.0647 45.8152 30.8738C45.6822 30.7883 45.5945 30.6918 45.5654 30.5473C45.5365 30.404 45.5657 30.2158 45.6596 29.948C45.8936 29.2929 46.0692 28.5109 46.177 27.7873C46.2847 27.0636 46.3244 26.3992 46.287 25.9789L46.2869 25.9777L46.287 16.4293H46.3051Z" fill="black"/>
<path d="M47.0924 15.6367C47.1672 15.8432 47.1638 16.07 47.083 16.2742C46.9893 16.4992 46.9612 16.743 47.1299 17.0617C47.383 16.6867 47.7487 16.7617 47.9737 16.5555C48.1799 16.3398 48.2268 16.1336 48.3862 16.0867C48.2268 15.9461 47.983 15.7867 48.0299 15.3836C48.0862 14.9711 48.658 14.6336 48.1424 14.0148C48.0653 13.9158 47.9646 13.8377 47.8495 13.7876C47.7344 13.7376 47.6086 13.7172 47.4836 13.7284C47.3586 13.7396 47.2384 13.782 47.134 13.8517C47.0296 13.9214 46.9444 14.0162 46.8862 14.1273C46.858 14.2023 46.9049 14.3523 46.8205 14.4461C46.7643 14.5211 46.6987 14.5867 46.6237 14.6336C46.5768 14.6711 46.5487 14.718 46.6049 14.7836C46.6237 14.8117 46.6612 14.8117 46.6987 14.8211L46.6237 14.9617C46.5955 14.9898 46.6049 15.018 46.6424 15.0555C46.5955 15.1773 46.6799 15.1961 46.6237 15.2898C46.5674 15.3742 46.5112 15.4773 46.6799 15.5711C46.7362 15.5992 46.9612 15.6461 47.0924 15.6367V15.6367ZM44.983 17.793C44.683 17.868 44.1955 17.7367 43.8299 17.7742C43.6612 17.793 43.5299 17.7086 43.5487 17.5492C43.5768 17.3898 43.6049 17.1367 43.5674 16.9117C43.5709 16.427 43.6932 15.9506 43.9237 15.5242C44.109 15.187 44.2298 14.8182 44.2799 14.4367C44.2799 14.2586 44.2987 14.0711 44.4487 13.968C44.5612 13.9023 44.5799 13.8367 44.6174 13.7805C44.7112 13.6398 44.8049 13.6117 44.8049 13.6867C44.8143 13.7336 44.8049 13.7805 44.758 13.8367C44.8518 13.7617 45.0205 13.668 45.058 13.6492C45.0955 13.6117 45.283 13.4805 45.2924 13.6117C45.3674 13.5742 45.4237 13.5742 45.4424 13.6117C45.4612 13.6586 45.4424 13.6773 45.4143 13.7055C45.4705 13.7055 45.5268 13.7898 45.4143 13.8742C45.4799 13.8555 45.5362 13.9492 45.433 14.0336C45.3393 14.1273 45.208 14.1836 45.1799 14.2586C45.1424 14.3336 44.8799 14.5305 44.7768 14.568C44.6737 14.6148 44.6643 14.6711 44.6643 14.8211C44.6643 16.4898 44.4768 16.3492 44.4768 16.7617C44.4768 16.8555 44.4487 16.9586 44.5518 16.9305C44.6643 16.893 44.8237 16.8461 44.983 16.8461V17.7836V17.793ZM45.0487 21.3742C45.5362 21.1305 46.0987 21.0367 46.3893 20.9617C46.7261 20.854 47.0524 20.7159 47.3643 20.5492C47.5987 20.4273 47.7862 20.268 47.9174 20.2211C48.0712 20.1722 48.1993 20.0643 48.2737 19.9211C48.643 19.2984 48.8643 18.5992 48.9205 17.8773C48.9205 17.5023 48.8268 17.0711 48.4518 17.3711C48.0693 17.7008 47.7841 18.1287 47.6268 18.6086C47.4768 19.2086 47.3455 19.3492 47.3174 19.4617C47.2799 19.5836 47.1674 19.5836 47.0174 19.6117C46.5437 19.6855 46.1012 19.8938 45.7424 20.2117C45.317 20.5266 44.8724 20.8146 44.4112 21.0742C44.0643 21.2711 43.9987 21.2898 43.9237 21.4492C43.8487 21.5992 43.7737 21.7305 43.7174 21.7867C43.6424 21.8617 43.6237 21.9367 43.6424 22.0305C43.6518 22.1055 43.6237 22.4242 43.6143 22.5367C43.6143 22.6492 43.6424 22.668 43.6799 22.6773C43.7174 22.6773 43.7737 22.6586 43.8018 22.5273C43.783 22.6586 43.9612 22.6211 43.9705 22.518C43.9705 22.6586 44.158 22.5742 44.158 22.443C44.158 22.5367 44.3174 22.4711 44.3174 22.443C44.3549 22.3211 44.383 22.2086 44.4299 22.1242C44.4862 21.993 44.5518 21.8242 44.683 21.7492C44.8237 21.6367 44.758 21.5242 45.0487 21.3742V21.3742ZM48.5549 30.2336C48.583 30.3555 48.6487 30.4867 48.6674 30.5711C48.6862 30.6461 48.6487 30.6742 48.6299 30.7211C48.5039 30.9823 48.4156 31.2601 48.3674 31.5461C48.3674 31.6586 48.2737 31.7711 48.2455 31.8461C48.1987 31.9211 48.2174 31.9867 48.3205 32.0617C48.358 32.0898 48.508 32.043 48.5174 31.968C48.583 32.0242 48.6674 32.0055 48.7143 31.9211C48.7705 31.968 48.8549 31.9398 48.9018 31.8555C48.9487 31.8836 49.0237 31.8273 49.0518 31.7805C49.1268 31.818 49.2018 31.7805 49.2018 31.6305C49.2018 31.593 49.2299 31.5367 49.2487 31.5086C49.2674 31.4711 49.2768 31.4055 49.2768 31.3492C49.2768 31.2836 49.3049 31.1617 49.3612 31.0867C49.4174 30.993 49.5018 30.8523 49.4643 30.7117C49.4268 30.5805 49.3705 30.5898 49.3237 30.4117C49.2018 30.2805 49.0424 30.1117 48.8737 30.093C48.7049 30.093 48.6112 30.1961 48.5549 30.2336V30.2336ZM45.4705 31.1617C45.6299 31.3117 45.9674 31.3117 46.2018 31.068C46.1174 31.0305 45.9205 30.9367 45.8455 30.8805C45.7409 30.9987 45.6133 31.0944 45.4705 31.1617V31.1617Z" fill="#FFE1CF"/>
<path fill-rule="evenodd" clip-rule="evenodd" d="M45.1907 13.5805C45.1401 13.6007 45.0855 13.6417 45.068 13.6592L45.0663 13.6609L45.0641 13.662C45.027 13.6806 44.8593 13.7738 44.7668 13.8478L44.7459 13.8265C44.7903 13.7732 44.7979 13.7308 44.7896 13.689L44.7893 13.6876V13.6861C44.7893 13.67 44.7843 13.6644 44.7809 13.6624C44.7766 13.6601 44.7675 13.659 44.7517 13.6659C44.7204 13.6794 44.6755 13.7188 44.6293 13.7882C44.6221 13.799 44.6155 13.8104 44.6086 13.8223C44.581 13.87 44.5488 13.9258 44.4561 13.98C44.3136 14.0783 44.2943 14.2576 44.2943 14.4361V14.4371L44.2942 14.438C44.2438 14.8214 44.1224 15.192 43.9362 15.5308C43.7071 15.9546 43.5854 16.4282 43.5818 16.9099C43.6194 17.1369 43.591 17.3911 43.5629 17.5508C43.5542 17.6253 43.5804 17.6807 43.6273 17.7159C43.675 17.7516 43.7458 17.7678 43.8276 17.7587L43.8278 17.7587C43.9955 17.7415 44.1885 17.7594 44.3757 17.7769C44.3945 17.7786 44.4132 17.7804 44.4318 17.7821C44.6322 17.8004 44.8218 17.8139 44.9674 17.7805V16.8606C44.8156 16.8634 44.6646 16.9078 44.5559 16.9441L44.5551 16.9443C44.5278 16.9518 44.5053 16.9517 44.4882 16.9414C44.4708 16.9309 44.4634 16.9124 44.4602 16.8937C44.457 16.8749 44.4574 16.8527 44.4584 16.8303C44.4587 16.8239 44.459 16.8175 44.4594 16.8112C44.4603 16.7945 44.4612 16.7777 44.4612 16.7611C44.4612 16.6566 44.4731 16.5868 44.4909 16.5149C44.4968 16.4911 44.5033 16.4673 44.5101 16.4421C44.5241 16.391 44.5396 16.334 44.5552 16.2588C44.6018 16.0353 44.6487 15.6544 44.6487 14.8205C44.6487 14.746 44.6508 14.6915 44.6673 14.6497C44.6844 14.6062 44.7162 14.5781 44.77 14.5537L44.771 14.5532C44.8202 14.5353 44.9101 14.478 44.9933 14.4148C45.0346 14.3834 45.0737 14.3509 45.1047 14.3217C45.1358 14.2925 45.1573 14.268 45.1655 14.2519C45.1737 14.2306 45.1888 14.2114 45.207 14.1936C45.2256 14.1755 45.2483 14.158 45.2724 14.1404C45.2813 14.1339 45.2904 14.1274 45.2996 14.1207C45.3409 14.0911 45.3843 14.0598 45.4218 14.0224L45.4223 14.0218L45.4229 14.0214C45.4715 13.9816 45.4791 13.9429 45.4719 13.9189C45.4647 13.8945 45.4421 13.8811 45.4178 13.888L45.4047 13.8616C45.4583 13.8214 45.4676 13.7846 45.4623 13.7608C45.4568 13.736 45.4347 13.7198 45.4137 13.7198H45.3774L45.4031 13.6942C45.4177 13.6796 45.427 13.67 45.4315 13.6592C45.4353 13.6499 45.4362 13.6379 45.4281 13.6173C45.4219 13.6054 45.4096 13.598 45.3879 13.598C45.3654 13.598 45.335 13.6063 45.2985 13.6245L45.2784 13.6345L45.2768 13.6122C45.2758 13.5975 45.2723 13.588 45.2682 13.582C45.2642 13.5762 45.259 13.5726 45.2524 13.5707C45.2379 13.5666 45.2164 13.5702 45.1907 13.5805ZM45.3035 13.589C45.3011 13.5799 45.2976 13.5719 45.2929 13.565C45.2847 13.553 45.2734 13.5456 45.2606 13.5419C45.2361 13.5349 45.2066 13.5418 45.1796 13.5526C45.1263 13.574 45.0701 13.6155 45.0486 13.6363C45.0152 13.6532 44.9022 13.7159 44.8106 13.7785C44.8235 13.7462 44.8252 13.7155 44.8193 13.6846C44.819 13.6638 44.8121 13.6455 44.7955 13.6362C44.7792 13.6271 44.759 13.63 44.7397 13.6383C44.7007 13.6553 44.6518 13.7002 44.6043 13.7715C44.5961 13.7838 44.5889 13.7962 44.5816 13.8088C44.5544 13.8558 44.5262 13.9044 44.4405 13.9544L44.4395 13.955C44.2827 14.0628 44.2644 14.2578 44.2643 14.4351C44.2144 14.8144 44.0942 15.1811 43.9099 15.5164L43.9098 15.5165C43.6782 15.945 43.5553 16.4239 43.5518 16.911L43.5518 16.9123L43.552 16.9136C43.5891 17.1361 43.5613 17.3872 43.5333 17.546L43.5331 17.5468C43.5232 17.6315 43.5532 17.6978 43.6093 17.7399C43.6648 17.7815 43.7439 17.7982 43.8309 17.7885M44.5468 16.9155C44.5228 16.922 44.5103 16.9197 44.5037 16.9157C44.4973 16.9118 44.4924 16.9039 44.4898 16.8886C44.4871 16.8734 44.4873 16.8541 44.4884 16.8317C44.4886 16.8258 44.489 16.8197 44.4893 16.8135C44.4902 16.7966 44.4912 16.7786 44.4912 16.7611C44.4912 16.6594 44.5027 16.592 44.52 16.5221C44.5256 16.4994 44.532 16.4761 44.5388 16.4512C44.5528 16.3996 44.5688 16.3409 44.5846 16.2649C44.6318 16.0385 44.6787 15.6553 44.6787 14.8205C44.6787 14.7449 44.6812 14.6963 44.6952 14.6607C44.7085 14.627 44.7328 14.6036 44.7819 14.5812C44.8358 14.5614 44.9285 14.5017 45.0114 14.4387C45.0533 14.4068 45.0933 14.3736 45.1252 14.3436C45.1567 14.3141 45.182 14.2861 45.1927 14.2647L45.1931 14.264L45.1933 14.2632C45.1993 14.2474 45.211 14.2316 45.228 14.2151C45.2449 14.1986 45.2662 14.1821 45.2901 14.1646C45.2986 14.1584 45.3073 14.1521 45.3164 14.1456C45.3575 14.1161 45.4032 14.0832 45.4425 14.0441C45.4966 13.9996 45.5123 13.9495 45.5007 13.9103C45.4934 13.8857 45.4753 13.867 45.4525 13.8596C45.4878 13.8233 45.4987 13.7862 45.4916 13.7543C45.4855 13.7268 45.4663 13.7057 45.4429 13.6959C45.4495 13.6882 45.4553 13.68 45.4591 13.6708C45.467 13.652 45.4661 13.6314 45.4557 13.6055L45.4552 13.6044C45.4425 13.579 45.4174 13.568 45.3879 13.568C45.3635 13.568 45.3348 13.5753 45.3035 13.589C45.3051 13.5955 45.3062 13.6025 45.3067 13.61M45.4429 13.6959C45.4336 13.692 45.4237 13.6898 45.4137 13.6898V13.7048L45.4243 13.7155L45.4255 13.7142C45.4314 13.7083 45.4375 13.7023 45.4429 13.6959ZM45.4525 13.8596C45.4394 13.8553 45.4247 13.8549 45.4095 13.8592L45.4137 13.8736L45.4227 13.8856C45.4341 13.877 45.444 13.8683 45.4525 13.8596ZM45.4425 14.0441C45.4427 14.0439 45.4428 14.0438 45.443 14.0436L45.4324 14.033L45.4419 14.0446C45.4421 14.0444 45.4423 14.0443 45.4425 14.0441ZM44.7819 14.5812C44.782 14.5812 44.7822 14.5811 44.7824 14.581L44.7762 14.5673L44.7813 14.5814C44.7815 14.5814 44.7817 14.5813 44.7819 14.5812ZM44.5468 16.9155C44.5469 16.9154 44.5471 16.9154 44.5472 16.9154L44.5512 16.9298L44.5464 16.9156C44.5466 16.9156 44.5467 16.9155 44.5468 16.9155ZM47.4816 13.7128C47.6091 13.7014 47.7375 13.7222 47.8549 13.7732C47.9722 13.8242 48.0749 13.9039 48.1535 14.0048C48.2836 14.161 48.346 14.3005 48.3645 14.429C48.383 14.5575 48.3573 14.6733 48.3139 14.7815C48.2809 14.8638 48.2373 14.9424 48.1949 15.0189C48.1818 15.0425 48.1688 15.0659 48.1563 15.0892C48.103 15.1883 48.0579 15.2847 48.0442 15.3848C48.0212 15.5826 48.0695 15.7196 48.1424 15.8244C48.2015 15.9094 48.2768 15.9734 48.346 16.0323C48.363 16.0467 48.3795 16.0608 48.3955 16.0748L48.4158 16.0928L48.3898 16.1005C48.3157 16.1223 48.2668 16.1811 48.2093 16.2656C48.1993 16.2802 48.1892 16.2955 48.1786 16.3114C48.1287 16.3867 48.0699 16.4752 47.9839 16.5652L47.9832 16.5659C47.9251 16.6192 47.8582 16.654 47.7874 16.6822C47.7446 16.6992 47.6994 16.7142 47.6537 16.7293C47.6247 16.7389 47.5956 16.7485 47.5667 16.7588C47.417 16.8122 47.2657 16.8858 47.1417 17.0695L47.1277 17.0902L47.116 17.0681C47.0307 16.907 46.9948 16.764 46.9924 16.6325C46.99 16.501 47.0211 16.3817 47.0685 16.2679C47.1466 16.0706 47.1511 15.8519 47.0814 15.6517C47.0154 15.6548 46.9305 15.6455 46.8548 15.6321C46.8146 15.625 46.7767 15.6167 46.7452 15.6084C46.714 15.6002 46.6881 15.5917 46.6726 15.5839L46.672 15.5836C46.585 15.5353 46.5518 15.4819 46.5518 15.4263C46.5518 15.3733 46.5826 15.3229 46.6103 15.2812C46.6232 15.2596 46.6275 15.2434 46.6281 15.2295C46.6287 15.2152 46.6256 15.2024 46.6214 15.1863L46.6211 15.1853C46.6171 15.1699 46.6125 15.1519 46.612 15.13C46.6116 15.1097 46.6147 15.0865 46.6245 15.0585C46.6087 15.0417 46.5972 15.025 46.5932 15.0078C46.5884 14.9871 46.5952 14.9685 46.6108 14.9521L46.6755 14.8309C46.6736 14.8305 46.6716 14.8302 46.6697 14.8298L46.6674 14.8293C46.6583 14.8276 46.6489 14.8257 46.64 14.8232C46.6223 14.8181 46.6045 14.8099 46.5923 14.7921C46.5626 14.7572 46.5531 14.7245 46.5604 14.6939C46.5674 14.6644 46.5895 14.6406 46.6137 14.6213L46.6143 14.6207L46.6151 14.6203C46.6881 14.5746 46.7525 14.5104 46.8079 14.4365L46.8083 14.4359L46.8088 14.4354C46.8472 14.3927 46.8565 14.3364 46.8588 14.2785C46.8594 14.2641 46.8595 14.2498 46.8597 14.2357L46.8597 14.2322C46.8598 14.2193 46.8599 14.2066 46.8603 14.1945C46.8612 14.1682 46.8635 14.1427 46.8715 14.1215L46.8718 14.1206L46.8722 14.1198C46.9317 14.0064 47.0186 13.9097 47.1251 13.8386C47.2315 13.7675 47.3541 13.7243 47.4816 13.7128ZM47.0918 15.6361L47.1059 15.631C47.1819 15.841 47.1785 16.0715 47.0964 16.2791L47.0963 16.2794C47.0499 16.3906 47.0201 16.5056 47.0224 16.6319C47.0246 16.7522 47.056 16.8836 47.1312 17.0321C47.2575 16.8559 47.4097 16.783 47.5567 16.7306C47.587 16.7197 47.6167 16.7099 47.6458 16.7003C47.6906 16.6855 47.7341 16.6711 47.7763 16.6543C47.8452 16.6269 47.9082 16.5938 47.9625 16.5441C48.0464 16.4564 48.1034 16.3705 48.1532 16.2954C48.1639 16.2793 48.1743 16.2637 48.1845 16.2487C48.236 16.173 48.285 16.1107 48.3564 16.0806C48.3471 16.0726 48.3375 16.0645 48.3278 16.0562C48.2583 15.9972 48.1794 15.9301 48.1177 15.8415C48.0407 15.7308 47.9905 15.5865 48.0144 15.3812L48.0144 15.3809C48.0289 15.2749 48.0763 15.1745 48.1299 15.075C48.1428 15.051 48.1561 15.0271 48.1693 15.0032C48.2115 14.9271 48.2538 14.8507 48.2861 14.7704C48.3282 14.6653 48.3523 14.5549 48.3348 14.4333C48.3173 14.3115 48.2579 14.1769 48.1303 14.0238L48.1299 14.0234C48.0544 13.9264 47.9557 13.8498 47.8429 13.8008C47.7301 13.7517 47.6068 13.7318 47.4843 13.7427C47.3618 13.7537 47.244 13.7952 47.1417 13.8635C47.0397 13.9317 46.9563 14.0242 46.8993 14.1328C46.8934 14.149 46.8911 14.1701 46.8903 14.1955C46.8899 14.2072 46.8898 14.2195 46.8897 14.2325L46.8897 14.2359C46.8895 14.25 46.8894 14.2647 46.8888 14.2797C46.8864 14.3387 46.877 14.4041 46.8315 14.455C46.7747 14.5306 46.7082 14.5973 46.6317 14.6452C46.6094 14.6632 46.5942 14.6815 46.5896 14.7009C46.5852 14.7194 46.5895 14.7427 46.6157 14.7732L46.6163 14.7739L46.6168 14.7746C46.6233 14.7844 46.6334 14.7901 46.6482 14.7943C46.6557 14.7965 46.6639 14.7981 46.6731 14.7999L46.6755 14.8004C46.6838 14.8019 46.6927 14.8037 46.7017 14.8059L46.7203 14.8106L46.6352 14.9701L46.6336 14.9717C46.6223 14.983 46.6203 14.992 46.6224 15.0011C46.6249 15.012 46.634 15.0259 46.6524 15.0442L46.6593 15.0511L46.6558 15.0602C46.6447 15.0891 46.6416 15.1112 46.642 15.1294C46.6424 15.1477 46.6463 15.1628 46.6504 15.1787L46.6504 15.1788L46.6505 15.179C46.6545 15.1946 46.6589 15.2115 46.6581 15.2308C46.6572 15.2506 46.651 15.2718 46.6359 15.2969L46.6355 15.2975C46.6071 15.3402 46.5818 15.3834 46.5818 15.4263C46.5818 15.4668 46.6048 15.5118 46.6863 15.5572C46.6989 15.5635 46.7222 15.5713 46.7528 15.5794C46.7834 15.5875 46.8205 15.5956 46.86 15.6026C46.9393 15.6166 47.0269 15.6257 47.0907 15.6211L47.0918 15.6361ZM48.9142 17.5948C48.929 17.6843 48.9349 17.7824 48.9349 17.8767V17.8779C48.8785 18.6018 48.6566 19.3032 48.2862 19.9278C48.21 20.0742 48.0789 20.1846 47.9216 20.2347C47.8581 20.2574 47.7801 20.3077 47.6871 20.3689C47.6825 20.372 47.6779 20.375 47.6733 20.3781C47.5841 20.4368 47.4828 20.5036 47.3706 20.5619C47.058 20.729 46.7309 20.8674 46.3932 20.9754L46.3924 20.9756C46.3322 20.9912 46.2607 21.0074 46.1808 21.0256C45.8727 21.0958 45.4405 21.1942 45.0549 21.387C44.9118 21.4608 44.8577 21.5246 44.8217 21.583C44.8134 21.5966 44.8059 21.6102 44.7983 21.624C44.7733 21.6694 44.7478 21.7155 44.6918 21.7603L44.6909 21.761L44.6899 21.7616C44.6275 21.7973 44.5799 21.8557 44.5407 21.9226C44.506 21.9817 44.4786 22.0462 44.4531 22.1059C44.4497 22.1139 44.4464 22.1218 44.4431 22.1295L44.4428 22.1302L44.4424 22.1309C44.4056 22.1972 44.3806 22.2812 44.3526 22.3755C44.3458 22.3982 44.3389 22.4214 44.3316 22.4452C44.3306 22.4538 44.3249 22.4606 44.3205 22.4649C44.3149 22.4704 44.3075 22.4757 44.2994 22.4804C44.2831 22.4898 44.2616 22.4983 44.2401 22.5027C44.219 22.5071 44.1954 22.508 44.1763 22.4996C44.1719 22.4977 44.1678 22.4953 44.1641 22.4924C44.1475 22.5413 44.1085 22.579 44.0695 22.5956C44.0438 22.6065 44.0151 22.6095 43.9919 22.5965C43.981 22.5904 43.9724 22.5815 43.9663 22.57C43.9452 22.6009 43.9098 22.6204 43.877 22.6248C43.8524 22.6281 43.8265 22.6234 43.808 22.6061C43.8039 22.6022 43.8004 22.5979 43.7973 22.5931C43.785 22.6245 43.7702 22.6466 43.7541 22.6618C43.7283 22.6862 43.7008 22.6917 43.6793 22.6917H43.6774L43.6756 22.6913C43.6552 22.6862 43.6342 22.6776 43.6195 22.6527C43.6056 22.6292 43.5987 22.593 43.5987 22.5361V22.5348C43.5994 22.5264 43.6002 22.5168 43.6011 22.5063C43.6062 22.4464 43.6138 22.3554 43.6198 22.2679C43.6233 22.2164 43.6262 22.1662 43.6277 22.1242C43.6291 22.0823 43.6291 22.0497 43.627 22.0322C43.6174 21.9838 43.6172 21.9393 43.6297 21.8967C43.6423 21.8539 43.6673 21.8143 43.7062 21.7755C43.7329 21.7487 43.765 21.7032 43.8 21.6448C43.8349 21.5867 43.8722 21.5168 43.9095 21.442C43.948 21.3604 43.9847 21.3138 44.0561 21.2629C44.1076 21.2263 44.1778 21.187 44.28 21.1298C44.3167 21.1093 44.3575 21.0864 44.4031 21.0605C44.8636 20.8014 45.3076 20.5138 45.7323 20.1994C46.0931 19.8799 46.538 19.6705 47.0143 19.5963C47.0349 19.5924 47.0557 19.589 47.0754 19.5857C47.0908 19.5831 47.1055 19.5806 47.119 19.5782C47.151 19.5723 47.1793 19.5661 47.2038 19.5572C47.2283 19.5483 47.2485 19.5369 47.2648 19.5212C47.2808 19.5057 47.2936 19.4852 47.3023 19.4571C47.3098 19.4273 47.3239 19.3963 47.3424 19.3582C47.3463 19.3501 47.3504 19.3417 47.3548 19.3328C47.3711 19.2994 47.3904 19.2601 47.4121 19.2113C47.4668 19.0879 47.5368 18.9035 47.6116 18.6043L47.6119 18.6033C47.77 18.1208 48.0568 17.6906 48.4414 17.3591L48.4418 17.3587C48.5367 17.2828 48.6166 17.2508 48.6836 17.2553C48.7516 17.2598 48.8023 17.3016 48.839 17.3628C48.8756 17.4237 48.8994 17.5055 48.9142 17.5948ZM44.1424 22.4423H44.1724C44.1724 22.4519 44.1744 22.4583 44.1771 22.4626C44.1796 22.4668 44.1833 22.4699 44.1884 22.4721C44.1991 22.4769 44.2153 22.4772 44.2341 22.4734C44.2524 22.4696 44.2708 22.4623 44.2844 22.4544C44.2912 22.4505 44.2963 22.4467 44.2994 22.4436C44.3008 22.4423 44.3015 22.4413 44.3018 22.4409V22.4401L44.3024 22.4379C44.3096 22.4146 44.3165 22.3914 44.3233 22.3686C44.3513 22.2742 44.3774 22.1863 44.4158 22.117C44.419 22.1095 44.4222 22.102 44.4255 22.0943C44.4508 22.0347 44.4791 21.9683 44.5148 21.9074C44.5551 21.8387 44.6056 21.7756 44.6739 21.7362C44.7243 21.6956 44.7461 21.6562 44.7704 21.6121C44.7784 21.5978 44.7866 21.5829 44.7962 21.5673C44.8353 21.5038 44.8936 21.4364 45.0412 21.3603L45.048 21.3736L45.0413 21.3602C45.4306 21.1655 45.868 21.066 46.176 20.9959C46.255 20.9779 46.3255 20.9619 46.3845 20.9467C46.7203 20.8392 47.0457 20.7016 47.3566 20.5354L47.3567 20.5353C47.4675 20.4777 47.5677 20.4117 47.657 20.3528C47.6616 20.3498 47.6661 20.3468 47.6706 20.3439C47.7627 20.2833 47.844 20.2305 47.9117 20.2063L47.9122 20.2062C48.0622 20.1585 48.1872 20.0533 48.2597 19.9136L48.2601 19.9128C48.6282 19.2923 48.8488 18.5955 48.9049 17.8761C48.9049 17.7831 48.899 17.6869 48.8846 17.5997C48.8701 17.512 48.8471 17.4344 48.8133 17.3782C48.7797 17.3222 48.7366 17.2889 48.6816 17.2852C48.6256 17.2815 48.5532 17.3081 48.4607 17.382C48.0806 17.7098 47.797 18.1351 47.6406 18.6121C47.5654 18.9126 47.4949 19.0984 47.4395 19.2234C47.4176 19.2729 47.398 19.3128 47.3816 19.3462C47.3773 19.355 47.3732 19.3633 47.3694 19.3713C47.3507 19.4097 47.3379 19.4383 47.3313 19.4647L47.3311 19.4655C47.3211 19.4981 47.3058 19.5232 47.2856 19.5428C47.2655 19.5622 47.2412 19.5755 47.2141 19.5853C47.1871 19.5952 47.1568 19.6018 47.1244 19.6077C47.1095 19.6104 47.0947 19.6129 47.0795 19.6154C47.0604 19.6186 47.0408 19.6219 47.0195 19.6258L47.0191 19.6259C46.5482 19.6993 46.1084 19.9063 45.7517 20.2223L45.7507 20.2232C45.3248 20.5384 44.8797 20.8268 44.4179 21.0867C44.3714 21.1131 44.33 21.1362 44.2931 21.1569C44.1917 21.2136 44.1236 21.2517 44.0735 21.2874C44.0067 21.3349 43.9731 21.3774 43.9366 21.455L43.9365 21.4553C43.8989 21.5305 43.8612 21.6012 43.8257 21.6602C43.7905 21.719 43.7569 21.7672 43.7274 21.7967C43.6912 21.8328 43.6694 21.8682 43.6585 21.9052C43.6477 21.9421 43.6475 21.9818 43.6565 22.0269L43.6567 22.028C43.6592 22.0481 43.6591 22.0832 43.6577 22.1253C43.6562 22.1677 43.6532 22.2183 43.6497 22.2699C43.6437 22.3577 43.636 22.449 43.631 22.5088C43.6301 22.5191 43.6293 22.5285 43.6287 22.5367C43.6287 22.5919 43.6358 22.6212 43.6453 22.6375C43.6538 22.6518 43.665 22.6575 43.6811 22.6617C43.6967 22.6614 43.7153 22.6572 43.7334 22.64C43.7527 22.6218 43.7728 22.5876 43.7865 22.5236L43.816 22.5288C43.8118 22.5585 43.819 22.5752 43.8286 22.5842C43.8385 22.5935 43.8542 22.5976 43.873 22.5951C43.9114 22.5899 43.9511 22.5588 43.955 22.516L43.9849 22.5173C43.9849 22.5493 43.9954 22.5641 44.0065 22.5703C44.0185 22.577 44.0366 22.577 44.0578 22.568C44.1001 22.55 44.1424 22.5009 44.1424 22.4423ZM48.5786 30.1959C48.6365 30.1504 48.7293 30.0773 48.873 30.0773H48.8739L48.8747 30.0774C48.9632 30.0873 49.048 30.1362 49.125 30.1978C49.2021 30.2595 49.2732 30.3353 49.334 30.4009L49.3366 30.4036L49.3375 30.4073C49.3605 30.4944 49.3854 30.535 49.4093 30.5703C49.4115 30.5735 49.4137 30.5767 49.4159 30.5799C49.4382 30.6126 49.4603 30.6449 49.4781 30.707L49.4782 30.7072C49.498 30.7816 49.4854 30.8552 49.4613 30.9213C49.4374 30.9871 49.4017 31.0467 49.3736 31.0934L49.373 31.0945L49.3725 31.0951C49.3459 31.1307 49.3254 31.178 49.3116 31.2251C49.2979 31.2721 49.2912 31.3175 49.2912 31.3486C49.2912 31.4056 49.2818 31.474 49.2614 31.5147L49.261 31.5155L49.2605 31.5163C49.2517 31.5296 49.2404 31.5498 49.2314 31.5712C49.2222 31.593 49.2162 31.6142 49.2162 31.6298C49.2162 31.7066 49.1971 31.759 49.1639 31.7867C49.1331 31.8123 49.094 31.8137 49.0566 31.7987C49.0406 31.821 49.0166 31.8433 48.9907 31.8584C48.9656 31.8731 48.9348 31.8829 48.9072 31.874C48.8829 31.9124 48.8505 31.9391 48.8158 31.9511C48.7827 31.9625 48.7479 31.9602 48.7181 31.9421C48.6938 31.979 48.6614 32.0029 48.6257 32.0112C48.5919 32.0191 48.5568 32.0127 48.5251 31.9922C48.5188 32.006 48.5089 32.0183 48.4974 32.0287C48.4798 32.0447 48.4574 32.0575 48.4345 32.0668C48.4117 32.0761 48.3876 32.0821 48.3664 32.0838C48.3462 32.0855 48.325 32.0836 48.311 32.0731M48.5543 30.233L48.546 30.2205C48.5553 30.2142 48.5662 30.2057 48.5786 30.1959M48.5713 30.2394C48.5852 30.2962 48.607 30.355 48.6281 30.4105C48.6298 30.4151 48.6316 30.4198 48.6334 30.4244C48.6535 30.4772 48.6725 30.527 48.6814 30.567C48.6915 30.6077 48.6865 30.6368 48.6759 30.6618C48.6711 30.6733 48.6652 30.6838 48.6597 30.6935L48.6588 30.6952C48.6529 30.7056 48.6475 30.7154 48.6432 30.726L48.6428 30.727C48.5177 30.9866 48.4297 31.2626 48.3818 31.5467C48.3814 31.6064 48.3567 31.6649 48.3297 31.7165C48.3199 31.7351 48.3097 31.7533 48.3 31.7704C48.2962 31.7771 48.2925 31.7837 48.2889 31.7901C48.2762 31.8129 48.2655 31.8332 48.259 31.8507L48.2584 31.8521L48.2576 31.8534C48.2358 31.8883 48.2305 31.9188 48.2404 31.9485C48.2506 31.9793 48.2781 32.0121 48.3287 32.049L48.3289 32.0491C48.3336 32.0526 48.3452 32.0555 48.3639 32.0539C48.3817 32.0524 48.4028 32.0473 48.4233 32.039C48.4438 32.0307 48.4629 32.0195 48.4773 32.0065C48.4917 31.9934 48.5002 31.9794 48.5019 31.9655L48.5054 31.9378L48.5265 31.956C48.5562 31.9813 48.5889 31.989 48.6188 31.982C48.649 31.975 48.6787 31.9525 48.7005 31.9132L48.7093 31.8973L48.7233 31.9089C48.7469 31.9287 48.7765 31.9329 48.806 31.9227C48.8359 31.9124 48.8661 31.8871 48.888 31.8476L48.8956 31.834L48.9089 31.842C48.925 31.8517 48.9488 31.8481 48.9756 31.8325C49.0017 31.8173 49.0256 31.7933 49.0383 31.7721L49.0454 31.7602L49.0579 31.7664C49.0919 31.7834 49.1225 31.7821 49.1447 31.7636C49.1678 31.7444 49.1862 31.7031 49.1862 31.6298C49.1862 31.608 49.1941 31.5823 49.2037 31.5596C49.2133 31.5369 49.2252 31.5153 49.235 31.5005C49.2519 31.4659 49.2612 31.4037 49.2612 31.3486C49.2612 31.314 49.2685 31.2657 49.2829 31.2166C49.2971 31.1679 49.3187 31.1171 49.3481 31.0777C49.3762 31.0308 49.4104 30.9737 49.4332 30.911C49.456 30.8483 49.4668 30.7813 49.4492 30.7151C49.4328 30.6578 49.4131 30.6289 49.3911 30.5968C49.3889 30.5936 49.3867 30.5904 49.3844 30.5871C49.3594 30.5502 49.3332 30.5071 49.3095 30.4186C49.2491 30.3535 49.1804 30.2806 49.1062 30.2212C49.0312 30.1612 48.9521 30.1165 48.8722 30.1073C48.7406 30.1076 48.6579 30.1723 48.5996 30.2178C48.5895 30.2257 48.5801 30.2331 48.5713 30.2394ZM45.8428 30.8595L45.8539 30.8678C45.8902 30.8951 45.9571 30.9321 46.0263 30.9673C46.0952 31.0023 46.1653 31.035 46.2072 31.0536L46.2268 31.0623L46.212 31.0777C45.9732 31.3261 45.6262 31.3288 45.4596 31.172L45.4699 31.1611L45.4635 31.1475C45.6045 31.0811 45.7304 30.9866 45.8337 30.8699L45.8428 30.8595ZM45.4969 31.1647C45.6517 31.2904 45.9545 31.2879 46.1753 31.0721C46.1325 31.0528 46.0722 31.0242 46.0127 30.994C45.9499 30.962 45.887 30.9277 45.8471 30.8999C45.748 31.0094 45.6291 31.0992 45.4969 31.1647Z" fill="black"/>
<path d="M47.0078 13.9677C47.0641 13.5927 47.3359 13.5927 47.5047 13.6396C47.5797 13.649 47.7484 13.6677 47.9172 13.6209C48.2359 13.5365 48.4797 13.649 48.4422 13.9584C48.5359 14.024 48.6297 14.174 48.6016 14.3052C48.5922 14.4365 48.6203 14.4927 48.7328 14.5021C48.8547 14.5209 49.1078 14.6709 48.9391 14.8771C49.0984 14.9709 49.2203 15.224 49.1359 15.3834C49.0516 15.5521 48.7984 15.5802 48.6859 15.4302C48.5641 15.4865 48.3766 15.4959 48.2547 15.374C48.1703 15.4677 47.9734 15.4584 47.9266 15.374C47.8891 15.2802 47.8328 15.2427 47.7484 15.2146C47.6641 15.1865 47.6547 14.9521 47.7859 14.924C47.7766 14.849 47.7859 14.774 47.8141 14.7365C47.8422 14.699 47.8141 14.624 47.7391 14.5677C47.6641 14.5021 47.5984 14.2865 47.6734 14.1552C47.5422 14.2021 47.2609 14.0709 47.2047 13.9865C47.1391 13.8927 47.0547 13.8927 47.0078 13.9677V13.9677Z" fill="#870F00"/>
<path fill-rule="evenodd" clip-rule="evenodd" d="M48.3045 13.6564C48.2129 13.6029 48.0767 13.5951 47.9192 13.6368C47.7475 13.6844 47.5764 13.6653 47.5012 13.6559L47.5002 13.6558L47.4992 13.6555C47.4162 13.6324 47.3097 13.6215 47.2179 13.6608C47.1356 13.6959 47.0624 13.7724 47.0289 13.9237C47.0494 13.9082 47.0731 13.9005 47.0984 13.9021C47.1393 13.9049 47.1802 13.9319 47.2145 13.9808L47.2147 13.981L47.2147 13.981C47.2271 13.9997 47.2532 14.0224 47.2891 14.0456C47.3246 14.0685 47.3683 14.0909 47.4144 14.1094C47.4606 14.1278 47.5088 14.1421 47.5532 14.149C47.5978 14.1558 47.6373 14.1549 47.667 14.1443L47.7028 14.1316L47.6839 14.1646C47.6488 14.226 47.646 14.3088 47.662 14.3856C47.6781 14.4623 47.7121 14.529 47.7462 14.5592C47.7851 14.5884 47.8125 14.623 47.8265 14.656C47.8403 14.6887 47.842 14.7228 47.8236 14.7473C47.8115 14.7633 47.8027 14.7888 47.7981 14.8205C47.7937 14.8519 47.7936 14.8882 47.7982 14.9246L47.7998 14.9374L47.7872 14.9401C47.7309 14.9521 47.702 15.0091 47.6987 15.0724C47.697 15.1035 47.7017 15.1342 47.7116 15.1584C47.7215 15.1829 47.7356 15.1984 47.7512 15.2036C47.7942 15.218 47.8312 15.2351 47.8624 15.2613C47.8936 15.2875 47.9182 15.3221 47.9376 15.3702C47.9474 15.3875 47.9654 15.4018 47.9896 15.4122C48.014 15.4226 48.0438 15.4285 48.0751 15.4291C48.1382 15.4302 48.2039 15.4098 48.2425 15.3669L48.2524 15.3559L48.2629 15.3664C48.3791 15.4826 48.5596 15.4746 48.6783 15.4198L48.6886 15.4151L48.6955 15.4242C48.7482 15.4945 48.8344 15.5236 48.9183 15.5147C49.0022 15.5057 49.0819 15.4589 49.1216 15.3794L49.1218 15.3791L49.1218 15.3791C49.1612 15.3046 49.1532 15.2063 49.1142 15.1134C49.0753 15.0208 49.0068 14.9366 48.9302 14.8916L48.9161 14.8833L48.9265 14.8706C48.967 14.821 48.9811 14.7763 48.9794 14.7371C48.9777 14.6978 48.9599 14.662 48.9326 14.6309C48.8778 14.5683 48.7876 14.5275 48.7294 14.5184C48.6715 14.5135 48.6311 14.4962 48.6079 14.4592C48.5853 14.4234 48.5811 14.3725 48.5858 14.3066L48.5859 14.3056L48.5861 14.3046C48.5993 14.2432 48.584 14.1762 48.5533 14.1159C48.5226 14.0557 48.4772 14.0036 48.4324 13.9722L48.4255 13.9674L48.4265 13.959C48.4447 13.8086 48.3947 13.7093 48.3045 13.6564ZM47.0061 13.9701L46.9922 13.968C47.0209 13.7768 47.1053 13.6782 47.2068 13.6349C47.3068 13.5922 47.4201 13.6045 47.5057 13.6281C47.581 13.6375 47.7466 13.6555 47.9117 13.6097L47.9119 13.6096L47.9119 13.6096C48.0731 13.5669 48.218 13.5733 48.3187 13.6322C48.4189 13.6908 48.4718 13.7996 48.4554 13.9541C48.5019 13.9887 48.5473 14.0422 48.5784 14.1032C48.6108 14.1668 48.6284 14.2401 48.6138 14.3096C48.6093 14.3744 48.6144 14.4169 48.6317 14.4442C48.6482 14.4705 48.678 14.4859 48.7323 14.4904L48.7332 14.4905L48.7332 14.4906C48.797 14.5004 48.8939 14.544 48.9538 14.6124C48.984 14.6469 49.0054 14.6885 49.0075 14.7359C49.0094 14.7797 48.9947 14.8267 48.9581 14.8758C49.0351 14.9259 49.1016 15.0107 49.1402 15.1025C49.1808 15.1995 49.1916 15.3073 49.1467 15.3921C49.102 15.4814 49.0131 15.5329 48.9213 15.5427C48.8328 15.5521 48.74 15.523 48.6799 15.4499C48.5582 15.5021 48.3773 15.51 48.2533 15.3961C48.2071 15.4396 48.1379 15.4583 48.0746 15.4572C48.0403 15.4566 48.0068 15.4502 47.9785 15.438C47.9503 15.426 47.9262 15.4078 47.9126 15.3832L47.9121 15.3824L47.9118 15.3816C47.8937 15.3364 47.8715 15.3057 47.8443 15.2828C47.8169 15.2598 47.7837 15.2441 47.7423 15.2303C47.7156 15.2214 47.6969 15.1971 47.6855 15.1689C47.6739 15.1404 47.6687 15.1055 47.6706 15.0709C47.674 15.0068 47.7027 14.9371 47.7689 14.9159C47.7655 14.8814 47.7659 14.8471 47.7703 14.8165C47.7751 14.7826 47.785 14.7518 47.8011 14.7304C47.8109 14.7174 47.8125 14.6952 47.8006 14.667C47.7888 14.6392 47.7648 14.6083 47.7289 14.5813L47.7281 14.5807L47.7281 14.5807C47.6873 14.545 47.6512 14.4713 47.6345 14.3913C47.6199 14.3214 47.6195 14.2436 47.646 14.1785C47.6165 14.1833 47.5832 14.182 47.5489 14.1768C47.5019 14.1695 47.4516 14.1545 47.404 14.1355C47.3564 14.1164 47.311 14.0932 47.2739 14.0692C47.2372 14.0455 47.2071 14.0203 47.1914 13.9968C47.16 13.952 47.126 13.9322 47.0966 13.9302C47.0678 13.9283 47.0394 13.9433 47.018 13.9775L47.0061 13.9701Z" fill="black"/>
<path fill-rule="evenodd" clip-rule="evenodd" d="M47.1737 13.9187C47.1753 13.9324 47.1818 13.9463 47.1949 13.9594L47.1737 13.9807C47.1563 13.9633 47.1464 13.9433 47.1439 13.9221C47.1415 13.9011 47.1467 13.8801 47.1576 13.8608C47.1793 13.8227 47.2238 13.7906 47.2821 13.774C47.3996 13.7406 47.576 13.7688 47.7571 13.9404L47.7574 13.9407C47.7914 13.9748 47.8461 13.9928 47.8999 13.9997C47.9264 14.0031 47.9521 14.0037 47.9739 14.0023C47.996 14.0008 48.0129 13.9975 48.0225 13.9936L48.0336 14.0215C48.0197 14.027 47.9992 14.0307 47.9758 14.0322C47.9522 14.0337 47.9245 14.0331 47.8961 14.0295C47.8397 14.0223 47.7773 14.0029 47.7363 13.9621C47.5612 13.7963 47.3955 13.773 47.2903 13.8028C47.2373 13.8179 47.2004 13.8462 47.1837 13.8756C47.1754 13.8903 47.1722 13.9049 47.1737 13.9187ZM47.9429 14.1629C47.8567 14.1447 47.7583 14.1537 47.675 14.1722L47.6685 14.1429C47.754 14.1239 47.8571 14.1141 47.9491 14.1335C48.0415 14.153 48.1239 14.2023 48.1638 14.302C48.1817 14.3466 48.2028 14.371 48.2255 14.3866C48.2472 14.4016 48.2711 14.4092 48.2985 14.4179C48.3005 14.4186 48.3025 14.4192 48.3045 14.4198C48.334 14.4293 48.3665 14.4404 48.3987 14.4642C48.4311 14.4881 48.4624 14.5241 48.4914 14.582C48.5475 14.6896 48.6167 14.7996 48.6937 14.8619C48.7321 14.8929 48.7712 14.9112 48.8108 14.9126C48.85 14.9141 48.8921 14.8991 48.9367 14.8589L48.9568 14.8812C48.9077 14.9254 48.8584 14.9444 48.8097 14.9426C48.7614 14.9408 48.7162 14.9187 48.6748 14.8852C48.5926 14.8187 48.5211 14.7037 48.4647 14.5957L48.4646 14.5955C48.4373 14.541 48.4089 14.509 48.3809 14.4884C48.3529 14.4677 48.3244 14.4577 48.2953 14.4484C48.2931 14.4477 48.2909 14.447 48.2887 14.4463C48.262 14.4378 48.234 14.4289 48.2085 14.4113C48.1802 14.3918 48.1556 14.3623 48.136 14.3131C48.1009 14.2253 48.0286 14.1809 47.9429 14.1629ZM48.1918 14.9225C48.1884 14.9798 48.1979 15.0334 48.2268 15.0664L48.2323 15.0727L48.2299 15.0806C48.2156 15.1285 48.2114 15.1788 48.2176 15.2284C48.2238 15.278 48.2402 15.3257 48.2659 15.3686L48.2402 15.384C48.2124 15.3376 48.1945 15.2858 48.1878 15.2321C48.1814 15.1811 48.1852 15.1293 48.1989 15.0797C48.1666 15.0378 48.1585 14.9776 48.1619 14.9207C48.1655 14.8603 48.1824 14.7997 48.2021 14.7602L48.2289 14.7736C48.2112 14.8092 48.1952 14.8658 48.1918 14.9225ZM46.7828 14.8923L46.6891 14.836L46.7045 14.8103L46.7982 14.8666L46.7828 14.8923ZM47.7877 14.9905C47.7762 14.9683 47.7693 14.946 47.7693 14.9263H47.7993C47.7993 14.9395 47.8041 14.957 47.8143 14.9767C47.8244 14.9962 47.8393 15.017 47.8583 15.0366C47.8964 15.0757 47.9498 15.1089 48.0114 15.1177L48.0072 15.1474C47.9376 15.1375 47.8784 15.1003 47.8368 15.0575C47.816 15.036 47.7992 15.0128 47.7877 14.9905ZM46.679 15.0888L46.6328 15.061L46.6482 15.0353L46.6958 15.0638L46.6964 15.0643C46.7302 15.0896 46.7826 15.0988 46.8187 15.0988V15.1288C46.7799 15.1288 46.7203 15.1193 46.679 15.0888ZM48.6522 15.135C48.6335 15.2474 48.6254 15.335 48.696 15.4232L48.6726 15.4419C48.5931 15.3426 48.6038 15.2427 48.6226 15.1301L48.6522 15.135ZM47.3343 15.5665C47.2709 15.6005 47.1986 15.6392 47.0926 15.6537L47.0885 15.6239C47.1888 15.6103 47.257 15.5739 47.3202 15.54L47.3225 15.5388C47.3845 15.5055 47.4435 15.4738 47.5218 15.4738V15.5038C47.4511 15.5038 47.398 15.5323 47.3343 15.5665Z" fill="black"/>
<path fill-rule="evenodd" clip-rule="evenodd" d="M47.9583 13.7109C48.1426 13.7471 48.3136 13.8326 48.453 13.9583L48.4329 13.9805C48.2975 13.8585 48.1315 13.7755 47.9526 13.7404L47.9583 13.7109ZM47.9256 14.5128C47.8989 14.4593 47.8842 14.3985 47.8842 14.3444H47.9142C47.9142 14.3935 47.9277 14.4498 47.9525 14.4994C47.9773 14.5491 48.0129 14.5907 48.0559 14.6122L48.0604 14.6145L48.0626 14.6189C48.0894 14.6726 48.188 14.8162 48.4042 14.7982L48.4067 14.8281C48.1786 14.8471 48.0705 14.6987 48.0381 14.6368C47.9895 14.6109 47.9516 14.5647 47.9256 14.5128ZM46.8906 18.1529C46.8151 17.6617 46.9284 17.3108 47.1184 17.0542L47.1425 17.0721C46.9576 17.3218 46.8459 17.6645 46.9202 18.1481C46.9671 18.3916 47.0236 18.6928 47.0248 18.9733C47.0259 19.2532 46.972 19.5166 46.7937 19.6805L46.7734 19.6584C46.942 19.5034 46.9959 19.2512 46.9948 18.9734C46.9936 18.6961 46.9376 18.3974 46.8907 18.1535L46.8906 18.1529L46.8906 18.1529ZM48.1102 20.5627C48.2561 20.552 48.4078 20.5686 48.5312 20.6018L48.5234 20.6308C48.4031 20.5984 48.2548 20.5821 48.1124 20.5926C47.9698 20.603 47.8348 20.6401 47.7396 20.7126L47.7395 20.7127C47.6426 20.7853 47.5081 20.8234 47.3713 20.8293C47.2345 20.8353 47.0935 20.8092 46.9829 20.7515L46.9968 20.7249C47.1018 20.7797 47.2374 20.8051 47.37 20.7993C47.5028 20.7936 47.6308 20.7566 47.7214 20.6887" fill="black"/>
<path fill-rule="evenodd" clip-rule="evenodd" d="M48.3771 20.711C48.4254 20.8137 48.4535 20.9829 48.4535 21.2459H48.4235C48.4235 20.9839 48.3953 20.8203 48.3499 20.7238C48.3273 20.6758 48.3009 20.6452 48.2722 20.6271C48.2519 20.6142 48.2298 20.6071 48.2062 20.605C48.1964 20.6047 48.1863 20.6047 48.176 20.6047L48.1751 20.5747C48.1861 20.574 48.197 20.5741 48.2077 20.575C48.248 20.576 48.2869 20.5798 48.3237 20.593C48.3708 20.6099 48.4131 20.6417 48.451 20.6998C48.5259 20.8145 48.5847 21.0335 48.6315 21.4505L48.6316 21.4508L48.6315 21.4508C48.6733 21.9235 48.756 22.1571 48.8615 22.4549C48.8978 22.5574 48.9368 22.6675 48.9778 22.7976L48.9778 22.7978C49.1707 23.4375 49.2175 24.2479 49.241 24.9849C49.2449 25.1086 49.2482 25.2302 49.2514 25.3485C49.2577 25.5832 49.2637 25.8054 49.2738 26.0063C49.289 26.3088 49.3136 26.5616 49.3623 26.7356L49.3334 26.7437C49.2837 26.5661 49.2591 26.3103 49.2438 26.0078C49.2337 25.8065 49.2277 25.5838 49.2214 25.3489C49.2182 25.2306 49.2149 25.1092 49.211 24.9858C49.1875 24.2486 49.1407 23.4419 48.9491 22.8066C48.9087 22.6781 48.87 22.5687 48.8338 22.4665C48.7279 22.1677 48.6437 21.9302 48.6017 21.4537C48.5548 21.0363 48.4964 20.8242 48.4259 20.7162C48.3913 20.6631 48.3541 20.6358 48.3139 20.6213C48.3379 20.643 48.359 20.6726 48.3771 20.711ZM47.7491 20.7455C47.8019 20.6459 47.8836 20.5943 47.9953 20.5749L48.0004 20.6044C47.8965 20.6225 47.8235 20.6693 47.7756 20.7596C47.727 20.8511 47.7035 20.9887 47.7035 21.1897C47.7035 21.318 47.6935 21.4666 47.6827 21.6281C47.6769 21.7148 47.6709 21.8052 47.666 21.8983C47.6519 22.1651 47.6473 22.4547 47.6846 22.744L47.6549 22.7478C47.6172 22.4559 47.6219 22.1642 47.636 21.8967C47.641 21.8025 47.6471 21.7115 47.6529 21.6245C47.6636 21.4639 47.6735 21.3171 47.6735 21.1897C47.6735 20.9875 47.6969 20.8438 47.7491 20.7455ZM47.5748 20.7615C47.5866 20.7588 47.5984 20.7561 47.6098 20.7532L47.6171 20.7823C47.6044 20.7855 47.592 20.7884 47.5798 20.7912C47.555 20.7969 47.5314 20.8023 47.5086 20.8097C47.4752 20.8206 47.4461 20.8351 47.4226 20.8591C47.376 20.9068 47.3473 20.997 47.3659 21.1882L47.3361 21.1911C47.3172 20.998 47.3447 20.8959 47.4012 20.8381C47.4293 20.8094 47.4634 20.7929 47.4993 20.7812C47.5233 20.7734 47.5492 20.7674 47.5748 20.7615ZM46.9553 20.8931C46.9157 20.9689 46.8925 21.079 46.8878 21.1903L46.8579 21.189C46.8626 21.0753 46.8863 20.9604 46.9287 20.8792C46.9499 20.8386 46.9764 20.8053 47.0087 20.7853C47.0415 20.765 47.0794 20.7592 47.1211 20.7722L47.1121 20.8008C47.0788 20.7904 47.0499 20.7951 47.0244 20.8109C46.9984 20.8269 46.9751 20.8552 46.9553 20.8931ZM48.0869 26.0125C48.6466 24.5285 48.6598 22.8938 48.1244 21.401L48.1526 21.3908C48.6899 22.8887 48.6772 24.5286 48.117 26.0179C48.2977 26.5221 48.4783 26.9702 48.6353 27.3596C48.6731 27.4533 48.7095 27.5437 48.7442 27.6306C48.9233 28.079 49.0577 28.4368 49.1002 28.6966L49.0706 28.7014C49.0287 28.4456 48.8958 28.091 48.7163 27.6417C48.6817 27.5549 48.6453 27.4647 48.6075 27.371C48.45 26.9803 48.2684 26.5297 48.0869 26.0228L48.085 26.0176L48.0869 26.0125ZM46.9886 22.454C46.9791 22.5842 46.9484 22.7492 46.8968 22.9558L46.8968 22.9559C46.7753 23.4279 46.785 23.6693 46.8149 23.8259C46.8224 23.8652 46.8313 23.8993 46.8398 23.9308C46.8413 23.9363 46.8428 23.9418 46.8442 23.9472C46.8511 23.9723 46.8576 23.9962 46.8626 24.0195C46.875 24.0769 46.8787 24.1322 46.8592 24.203L46.8303 24.195C46.8482 24.13 46.8449 24.0798 46.8333 24.0258C46.8284 24.0034 46.8222 23.9805 46.8154 23.9553C46.8139 23.9499 46.8123 23.9443 46.8108 23.9386C46.8022 23.9069 46.7932 23.8719 46.7855 23.8315C46.7545 23.6694 46.7455 23.4233 46.8677 22.9485C46.9192 22.7426 46.9494 22.5795 46.9587 22.4518C46.968 22.3239 46.9561 22.2334 46.9251 22.1714L46.9519 22.1579C46.9865 22.2272 46.998 22.3241 46.9886 22.454Z" fill="black"/>
<path fill-rule="evenodd" clip-rule="evenodd" d="M46.9324 23.0989C46.9109 22.9575 46.9028 22.8287 46.9269 22.7227L46.9562 22.7293C46.9334 22.8296 46.9406 22.9538 46.9621 23.0943C46.9775 23.1949 46.9999 23.3026 47.0233 23.4148C47.0326 23.4593 47.042 23.5046 47.0512 23.5504C47.1156 23.8712 47.1682 24.2171 47.0683 24.512L47.0399 24.5024C47.1368 24.2161 47.0863 23.8777 47.0218 23.5563C47.0127 23.511 47.0033 23.4661 46.9941 23.4218C46.9706 23.3092 46.9479 23.2003 46.9324 23.0989ZM46.5571 25.1515C46.5402 24.9642 46.5234 24.778 46.5234 24.6104H46.5534C46.5534 24.7765 46.5701 24.9613 46.587 25.1489C46.5891 25.172 46.5912 25.1952 46.5932 25.2184C46.612 25.4292 46.6285 25.6412 46.619 25.8299L46.619 25.8299C46.6046 26.1112 46.6908 26.2726 46.8103 26.4961C46.8439 26.559 46.8801 26.6269 46.9175 26.7037C47.5549 27.9597 47.9692 28.8535 47.9222 30.0391L47.9222 30.0397L47.9221 30.0397C47.9178 30.0919 47.9186 30.1566 47.9194 30.2276L47.9196 30.2407C47.9204 30.3166 47.921 30.3986 47.9151 30.4779C47.9092 30.5571 47.8967 30.6343 47.8711 30.7005C47.8454 30.7667 47.806 30.8227 47.746 30.8577L47.7309 30.8318C47.7834 30.8012 47.819 30.7516 47.8431 30.6896C47.8672 30.6274 47.8794 30.5535 47.8852 30.4756C47.891 30.3979 47.8904 30.317 47.8896 30.2411C47.8895 30.2365 47.8894 30.2319 47.8894 30.2274C47.8886 30.1571 47.8878 30.0912 47.8922 30.0376C47.9388 28.8608 47.5282 27.9734 46.8907 26.7171L46.8906 26.7169C46.8543 26.6424 46.8187 26.5758 46.7854 26.5135C46.665 26.2884 46.5742 26.1187 46.5891 25.8284C46.5891 25.8283 46.5891 25.8283 46.5891 25.8283L46.6041 25.8291L46.5891 25.8284C46.5891 25.8284 46.5891 25.8284 46.5891 25.8284C46.5984 25.642 46.5821 25.4321 46.5633 25.2211C46.5613 25.1979 46.5592 25.1747 46.5571 25.1515ZM47.0128 28.7811C47.0678 29.5093 46.9914 30.2415 46.7872 30.9427L46.7869 30.9437L46.7865 30.9446C46.744 31.0391 46.7055 31.0974 46.6682 31.1323C46.6302 31.1678 46.5936 31.1785 46.5572 31.1785V31.1485C46.5864 31.1485 46.6155 31.1404 46.6477 31.1103C46.6806 31.0796 46.717 31.0258 46.7587 30.9333C46.9617 30.2359 47.0376 29.5076 46.9829 28.7834L47.0128 28.7811ZM46.9932 30.8393C47.1514 30.4299 47.1515 29.9264 47.1142 29.6845L47.1439 29.68C47.1817 29.9255 47.1817 30.4346 47.0212 30.8501L46.9932 30.8393Z" fill="black"/>
<path fill-rule="evenodd" clip-rule="evenodd" d="M44.8588 13.9203L45.2806 13.6016L45.2987 13.6255L44.8768 13.9442L44.8588 13.9203ZM45.3831 13.6996C45.3929 13.6953 45.4026 13.6923 45.4115 13.6923V13.7223C45.4088 13.7223 45.4036 13.7234 45.3951 13.7271C45.3869 13.7306 45.3768 13.7362 45.3647 13.7437C45.3404 13.7589 45.3092 13.7814 45.2706 13.8106C45.237 13.8361 45.198 13.8665 45.1534 13.9013C45.1468 13.9064 45.1402 13.9116 45.1334 13.9169C45.0803 13.9582 45.0199 14.0051 44.9519 14.0567L44.9337 14.0328C45.0016 13.9813 45.0619 13.9345 45.1149 13.8932C45.1217 13.8879 45.1284 13.8827 45.1349 13.8776C45.1795 13.8429 45.2187 13.8123 45.2525 13.7867C45.2912 13.7574 45.3233 13.7342 45.3488 13.7183C45.3616 13.7103 45.373 13.704 45.3831 13.6996ZM44.5947 13.9873L44.7447 13.8373L44.7659 13.8585L44.6159 14.0085L44.5947 13.9873ZM45.2356 13.9863C45.3031 13.9305 45.3659 13.8819 45.4153 13.8621L45.4265 13.89C45.3822 13.9077 45.3231 13.9528 45.2547 14.0095C45.2366 14.0245 45.2179 14.0402 45.1987 14.0563C45.1466 14.1002 45.0913 14.1467 45.0362 14.188L45.0182 14.164C45.0726 14.1232 45.1269 14.0775 45.1788 14.0338C45.1981 14.0176 45.2171 14.0017 45.2356 13.9863ZM43.8124 22.3881C43.8132 22.4298 43.814 22.4763 43.814 22.5292H43.784C43.784 22.4781 43.7832 22.4325 43.7825 22.3911C43.781 22.3118 43.7798 22.2478 43.7853 22.1902C43.7937 22.101 43.818 22.026 43.8802 21.9304L43.9054 21.9467C43.8457 22.0385 43.8231 22.1089 43.8152 22.1931C43.8099 22.2489 43.811 22.3103 43.8124 22.3881ZM43.9871 22.4218C43.9858 22.452 43.9844 22.4848 43.9828 22.5205L43.9528 22.5191C43.9544 22.4839 43.9558 22.4515 43.9571 22.4214C43.9633 22.2758 43.9672 22.1864 43.98 22.123C43.988 22.0841 43.9994 22.0542 44.0171 22.0265C44.0347 21.9991 44.0581 21.9746 44.0889 21.9463L44.1092 21.9683C44.079 21.9962 44.0579 22.0186 44.0424 22.0427C44.027 22.0666 44.0168 22.0929 44.0094 22.129C43.9971 22.1899 43.9934 22.2762 43.9871 22.4218ZM44.1734 22.3894C44.1726 22.4081 44.1718 22.4268 44.1702 22.446L44.1403 22.4435C44.1418 22.4266 44.1425 22.4091 44.1433 22.391C44.145 22.3516 44.1469 22.3094 44.1558 22.2638C44.1691 22.1959 44.1982 22.119 44.2649 22.0237L44.2895 22.0409C44.2249 22.1331 44.1977 22.2061 44.1852 22.2695C44.1767 22.313 44.1751 22.3512 44.1734 22.3894ZM48.6522 29.0695C48.4889 28.5836 48.3184 28.076 48.127 27.7779L48.1523 27.7617C48.3457 28.0631 48.5173 28.5737 48.6799 29.0577C48.6878 29.0812 48.6957 29.1046 48.7035 29.1279C48.7885 29.3805 48.8712 29.6229 48.9538 29.822C49.0366 30.0218 49.1182 30.1754 49.2 30.2526L49.1794 30.2744C49.0924 30.1923 49.0088 30.033 48.9261 29.8335C48.8431 29.6333 48.76 29.3899 48.6751 29.1375C48.6675 29.1149 48.6599 29.0922 48.6522 29.0695ZM47.5345 30.2786C47.6182 29.9439 47.6184 29.4681 47.5249 28.9443L47.5544 28.939C47.6484 29.4652 47.6487 29.9457 47.5636 30.2859L47.5345 30.2786ZM48.4744 29.7338C48.4898 29.8312 48.4922 29.9353 48.4922 30.0198H48.4622C48.4622 29.9356 48.4598 29.8334 48.4448 29.7385C48.4297 29.6431 48.4021 29.5578 48.3536 29.5049L48.3757 29.4846C48.4304 29.5443 48.4591 29.6371 48.4744 29.7338ZM47.322 30.4011C47.3168 30.3561 47.312 30.316 47.3091 30.2836L47.339 30.2809C47.3418 30.312 47.3464 30.3513 47.3516 30.3956C47.3634 30.4964 47.3783 30.6233 47.3824 30.74C47.3853 30.8241 47.3828 30.9044 47.369 30.9671C47.3555 31.0285 47.3299 31.0793 47.2814 31.0935L47.2729 31.0648C47.3041 31.0556 47.3265 31.0208 47.3397 30.9607C47.3526 30.9017 47.3553 30.8244 47.3524 30.741C47.3484 30.6256 47.3338 30.5014 47.322 30.4011ZM49.0431 31.7684C49.0427 31.7681 49.0417 31.7673 49.0397 31.7673V31.7973C49.0259 31.7973 49.018 31.7867 49.0141 31.7775C49.0101 31.7679 49.0083 31.7551 49.0083 31.7401C49.0083 31.7098 49.0158 31.6659 49.0348 31.6088L49.0633 31.6183C49.0448 31.6737 49.0383 31.7142 49.0383 31.7401C49.0383 31.7532 49.0399 31.7615 49.0418 31.766C49.0429 31.7685 49.0434 31.7687 49.0431 31.7684ZM48.8824 31.7911C48.8835 31.8215 48.8941 31.8381 48.9058 31.8439L48.8923 31.8707C48.8665 31.8578 48.8537 31.8275 48.8524 31.7922C48.8511 31.7563 48.8614 31.7116 48.8856 31.6631L48.9125 31.6765C48.8898 31.7217 48.8813 31.7614 48.8824 31.7911ZM48.7203 31.8836C48.7217 31.9002 48.7259 31.9079 48.7299 31.9109L48.7119 31.9349C48.6972 31.9238 48.692 31.9046 48.6904 31.8861C48.6888 31.8668 48.6908 31.8437 48.6944 31.8199C48.6996 31.7848 48.7088 31.7456 48.717 31.7108C48.7199 31.6985 48.7226 31.6867 48.725 31.6759L48.7543 31.6824C48.7518 31.694 48.7489 31.7062 48.7459 31.7188C48.7379 31.7532 48.7291 31.7906 48.724 31.8244C48.7206 31.8474 48.719 31.8677 48.7203 31.8836ZM48.5245 31.9579C48.525 31.9589 48.5253 31.9592 48.5253 31.9592L48.5041 31.9804C48.4995 31.9758 48.4965 31.9698 48.4944 31.964C48.4923 31.9579 48.4907 31.9509 48.4897 31.9433C48.4876 31.928 48.4874 31.9089 48.4892 31.8876C48.4928 31.845 48.505 31.7918 48.5291 31.7386L48.5564 31.751C48.5338 31.8009 48.5224 31.8508 48.5191 31.8902C48.5174 31.9099 48.5177 31.9266 48.5194 31.9392C48.5203 31.9455 48.5214 31.9504 48.5227 31.954C48.5233 31.9557 48.5239 31.957 48.5245 31.9579Z" fill="black"/>
<path d="M46.9253 14.3141C47.0003 14.4078 47.0847 14.4078 47.094 14.4641C47.1128 14.5391 47.1222 14.5391 47.1316 14.5578C47.1503 14.5766 47.094 14.5766 47.0753 14.5578H46.9441C46.9066 14.5578 46.869 14.5109 46.8878 14.5109C46.9159 14.5016 46.9159 14.4922 46.9065 14.4734C46.9065 14.4453 46.9253 14.4172 46.9441 14.4078L46.9347 14.3797C46.9159 14.3516 46.9065 14.2859 46.9253 14.3047V14.3141ZM46.9722 14.2109C47.091 14.2279 47.2021 14.2802 47.2909 14.3609C47.3565 14.4359 47.3003 14.4172 47.2722 14.4172C47.2441 14.4172 47.1784 14.3984 47.1409 14.3609C47.0918 14.3093 47.0306 14.2706 46.9628 14.2484C46.9347 14.2484 46.9065 14.2109 46.9628 14.2109H46.9722Z" fill="black"/>
<path d="M0 0H30V22.5H0V0Z" fill="#012169"/>
<path d="M3.51562 0L14.9531 8.48438L26.3438 0H30V2.90625L18.75 11.2969L30 19.6406V22.5H26.25L15 14.1094L3.79688 22.5H0V19.6875L11.2031 11.3438L0 3V0H3.51562Z" fill="white"/>
<path d="M19.875 13.1719L30 20.625V22.5L17.2969 13.1719H19.875ZM11.25 14.1094L11.5312 15.75L2.53125 22.5H0L11.25 14.1094ZM30 0V0.140625L18.3281 8.95312L18.4219 6.89062L27.6562 0H30ZM0 0L11.2031 8.25H8.39062L0 1.96875V0Z" fill="#C8102E"/>
<path d="M11.2969 0V22.5H18.7969V0H11.2969ZM0 7.5V15H30V7.5H0Z" fill="white"/>
<path d="M0 9.04688V13.5469H30V9.04688H0ZM12.7969 0V22.5H17.2969V0H12.7969Z" fill="#C8102E"/>
</g>
<defs>
<clipPath id="clip0_4046_23421">
<rect width="60" height="45" fill="white"/>
</clipPath>
</defs>
</svg>
