<svg width="60" height="45" viewBox="0 0 60 45" fill="none" xmlns="http://www.w3.org/2000/svg">
<g clip-path="url(#clip0_4046_23455)">
<path fill-rule="evenodd" clip-rule="evenodd" d="M30 0H60V45H30V0Z" fill="#CE0000"/>
<path fill-rule="evenodd" clip-rule="evenodd" d="M0 0H30V45H0V0Z" fill="white"/>
<path fill-rule="evenodd" clip-rule="evenodd" d="M14.5448 13.2997C14.5448 13.4345 14.4099 13.5245 14.2451 13.5245C14.0652 13.5245 13.9453 13.4345 13.9453 13.3146C13.9453 13.1948 14.0652 13.0898 14.2451 13.0898C14.4099 13.0898 14.5448 13.1948 14.5448 13.3146V13.2997Z" fill="#F1EEEE"/>
<path fill-rule="evenodd" clip-rule="evenodd" d="M4.9375 12.2499V17.825H10.5276C10.5276 18.7542 11.4568 19.6834 12.386 19.6834V25.2585H17.9761V19.6834C18.9053 19.6834 19.8345 18.7542 19.8345 17.825H25.4096V12.2499H19.8195C19.8195 11.3207 18.8903 10.3915 17.9611 10.3915V4.81641H12.386V10.3915C11.4418 10.3915 10.5126 11.3207 10.5126 12.2499H4.9375Z" fill="#CC0000"/>
<path fill-rule="evenodd" clip-rule="evenodd" d="M5.13281 12.4296V17.645H10.7079C10.7079 18.5742 11.6371 19.5034 12.5663 19.5034V25.0785H17.7667V19.5184C18.6959 19.5184 19.6251 18.5892 19.6251 17.66H25.2152V12.4446H19.6401C19.6401 11.5154 18.7109 10.5862 17.7817 10.5862V4.99609H12.5663V10.5712C11.6371 10.5712 10.7079 11.5004 10.7079 12.4296H5.13281V12.4296Z" fill="#FFE600"/>
<path fill-rule="evenodd" clip-rule="evenodd" d="M5.3125 12.6249V17.4507H10.8876C10.8876 18.3799 11.8168 19.309 12.746 19.309V24.8842H17.5868V19.309C18.5159 19.309 19.4451 18.3799 19.4451 17.4507H25.0202V12.6249H19.4451C19.4451 11.6957 18.5159 10.7665 17.5868 10.7665V5.19141H12.746V10.7515C11.8168 10.7515 10.8876 11.6807 10.8876 12.6099H5.3125V12.6249Z" fill="#707070"/>
<path fill-rule="evenodd" clip-rule="evenodd" d="M5.50717 12.8046V17.2707H11.0823C11.0823 18.1999 12.0115 19.129 12.9407 19.129V24.6892H17.3918V19.1141C18.321 19.1141 19.2501 18.1849 19.2501 17.2557H24.8253V12.7896H19.2501C19.2501 11.8604 18.321 10.9312 17.3918 10.9312V5.37109H12.9407V10.9462C12.0115 10.9462 11.0823 11.8754 11.0823 12.8046H5.49219H5.50717Z" fill="#A0A0A0"/>
<path fill-rule="evenodd" clip-rule="evenodd" d="M12.9852 10.481C13.2999 10.8107 13.0452 11.605 12.3857 12.2644C11.7263 12.9238 10.947 13.1636 10.6173 12.8639C10.2876 12.5192 10.5573 11.7249 11.2168 11.0655C11.8762 10.406 12.6555 10.1663 12.9852 10.481Z" fill="#D0D0D0"/>
<path fill-rule="evenodd" clip-rule="evenodd" d="M12.5774 10.8709C12.9071 11.2006 12.8172 11.815 12.3826 12.2646C11.948 12.7143 11.3335 12.7892 11.0038 12.4595C10.6741 12.1298 10.764 11.5153 11.1986 11.0807C11.6332 10.6461 12.2477 10.5561 12.5774 10.8709V10.8709Z" fill="#808080"/>
<path fill-rule="evenodd" clip-rule="evenodd" d="M10.9453 11.8589L11.0652 11.739L11.5897 11.9938L11.335 11.4692L11.4699 11.3343L11.9944 12.3834L10.9453 11.8589ZM11.7246 11.0796L11.8745 10.9297L12.6538 11.739L12.5189 11.8589L11.7246 11.0796Z" fill="#D0D0D0"/>
<path fill-rule="evenodd" clip-rule="evenodd" d="M19.7169 12.8485C19.3872 13.1782 18.5929 12.9084 17.9485 12.249C17.304 11.5896 17.0193 10.8103 17.349 10.4806C17.6787 10.1509 18.473 10.4206 19.1324 11.08C19.7919 11.7395 20.0317 12.5188 19.7319 12.8485H19.7169Z" fill="#D0D0D0"/>
<path fill-rule="evenodd" clip-rule="evenodd" d="M19.3306 12.4602C19.0009 12.7899 18.3864 12.7 17.9518 12.2654C17.5172 11.8308 17.4272 11.2163 17.742 10.8866C18.0717 10.5569 18.7011 10.6468 19.1357 11.0814C19.5704 11.516 19.6603 12.1305 19.3306 12.4602Z" fill="#808080"/>
<path fill-rule="evenodd" clip-rule="evenodd" d="M18.337 10.8086L18.4719 10.9435L18.2022 11.468L18.7267 11.1983L18.8766 11.3481L17.8125 11.8577L18.337 10.8086V10.8086ZM19.1313 11.6029L19.2512 11.7228L18.4719 12.5171L18.337 12.3822L19.1313 11.6029Z" fill="#D0D0D0"/>
<path fill-rule="evenodd" clip-rule="evenodd" d="M17.3438 19.5952C17.0141 19.2655 17.2839 18.4712 17.9433 17.8117C18.6027 17.1523 19.3821 16.8976 19.7118 17.2123C20.0415 17.542 19.7717 18.3363 19.1123 18.9957C18.4529 19.6551 17.6736 19.9099 17.3438 19.5952V19.5952Z" fill="#D0D0D0"/>
<path fill-rule="evenodd" clip-rule="evenodd" d="M17.746 19.1907C17.4163 18.861 17.5062 18.2465 17.9408 17.8119C18.3754 17.3773 18.9899 17.2874 19.3196 17.6171C19.6493 17.9468 19.5594 18.5612 19.1248 18.9959C18.6901 19.4305 18.0757 19.5204 17.731 19.1907H17.746Z" fill="#808080"/>
<path fill-rule="evenodd" clip-rule="evenodd" d="M19.381 18.2003L19.2461 18.3502L18.7216 18.0804L18.9914 18.605L18.8565 18.7249L18.3319 17.6758L19.381 18.2003ZM18.6167 18.9946L18.4668 19.1295L17.6875 18.3352L17.8224 18.2003L18.6167 18.9946Z" fill="#D0D0D0"/>
<path fill-rule="evenodd" clip-rule="evenodd" d="M10.6191 17.227C10.9488 16.8973 11.7432 17.1671 12.3876 17.8115C13.032 18.4559 13.3018 19.2652 12.9871 19.58C12.6574 19.9097 11.863 19.6549 11.2036 18.9955C10.5442 18.3361 10.3044 17.5417 10.6041 17.227H10.6191Z" fill="#D0D0D0"/>
<path fill-rule="evenodd" clip-rule="evenodd" d="M11.0116 17.6171C11.3413 17.2874 11.9558 17.3773 12.3904 17.8119C12.825 18.2465 12.9149 18.861 12.5852 19.1907C12.2705 19.5204 11.641 19.4305 11.2064 18.9959C10.7718 18.5612 10.6819 17.9468 11.0116 17.6171Z" fill="#808080"/>
<path fill-rule="evenodd" clip-rule="evenodd" d="M12.0001 19.2671L11.8653 19.1172L12.135 18.6077L11.6105 18.8625L11.4606 18.7276L12.5247 18.203L12.0001 19.2521V19.2671ZM11.2058 18.4728L11.0859 18.3379L11.8653 17.5586L12.0001 17.6785L11.2058 18.4728Z" fill="#D0D0D0"/>
<path fill-rule="evenodd" clip-rule="evenodd" d="M15.1805 11.1651C13.0376 11.1651 11.3018 12.9004 11.3018 15.0421C11.3018 17.1839 13.0325 18.9191 15.1754 18.9191C17.3184 18.9191 19.0541 17.1786 19.0541 15.0421V15.0162H19.0591C19.0452 12.8864 17.3148 11.1651 15.1805 11.1651ZM19.1059 15.068H19.1111V15.0421C19.1111 12.8717 17.3521 11.1133 15.1805 11.1133C13.009 11.1133 11.25 12.8717 11.25 15.0421C11.25 17.2124 13.0038 18.971 15.1754 18.971C17.3383 18.971 19.0919 17.2213 19.1059 15.068Z" fill="#707070"/>
<path fill-rule="evenodd" clip-rule="evenodd" d="M15.1665 12.0786C13.5338 12.0786 12.2114 13.4007 12.2114 15.0325C12.2114 16.6643 13.5299 17.9864 15.1626 17.9864C16.7953 17.9864 18.1178 16.6603 18.1178 15.0325V15.0127H18.1216C18.111 13.39 16.7927 12.0786 15.1665 12.0786ZM18.1572 15.0522H18.1612V15.0325C18.1612 13.3788 16.8211 12.0391 15.1665 12.0391C13.512 12.0391 12.1719 13.3788 12.1719 15.0325C12.1719 16.6861 13.5081 18.0259 15.1626 18.0259C16.8106 18.0259 18.1466 16.6928 18.1572 15.0522Z" fill="#707070"/>
<path fill-rule="evenodd" clip-rule="evenodd" d="M13.8669 18.1991C13.8669 18.2487 13.8471 18.2964 13.812 18.3315C13.7769 18.3667 13.7292 18.3864 13.6795 18.3864C13.6298 18.3864 13.5822 18.3667 13.5471 18.3315C13.5119 18.2964 13.4922 18.2487 13.4922 18.1991C13.4922 18.1494 13.5119 18.1017 13.5471 18.0666C13.5822 18.0315 13.6298 18.0117 13.6795 18.0117C13.7292 18.0117 13.7769 18.0315 13.812 18.0666C13.8471 18.1017 13.8669 18.1494 13.8669 18.1991V18.1991ZM16.8343 18.1991C16.8343 18.2487 16.8145 18.2964 16.7794 18.3315C16.7443 18.3667 16.6966 18.3864 16.6469 18.3864C16.5972 18.3864 16.5496 18.3667 16.5145 18.3315C16.4793 18.2964 16.4596 18.2487 16.4596 18.1991C16.4596 18.1494 16.4793 18.1017 16.5145 18.0666C16.5496 18.0315 16.5972 18.0117 16.6469 18.0117C16.6966 18.0117 16.7443 18.0315 16.7794 18.0666C16.8145 18.1017 16.8343 18.1494 16.8343 18.1991ZM15.0358 18.1991V18.3939H14.796C14.5413 18.3939 14.5413 18.5887 14.796 18.5887H15.0358V18.7686C15.0358 18.9784 15.2606 18.9934 15.2756 18.7835V18.5737H15.5304C15.7852 18.5737 15.7852 18.3939 15.5304 18.3939H15.2906V18.1991C15.2906 18.0042 15.0358 18.0042 15.0358 18.1991Z" fill="#D0D0D0"/>
<path fill-rule="evenodd" clip-rule="evenodd" d="M14.2478 15.4437V15.5636C14.2478 15.5636 14.1878 15.6385 13.8132 15.6685C13.4385 15.6985 13.3785 15.6685 13.3785 15.6685C13.3935 15.7734 13.4685 15.9533 13.4385 16.1631C13.4535 16.4179 13.3785 16.6427 13.3785 16.6427C13.3785 16.6576 13.3336 16.6726 13.2587 16.6576C13.3186 16.5977 13.3186 16.4478 13.3186 16.208C13.3186 15.9982 13.0938 15.6535 13.1388 15.5636C13.1837 15.4737 14.2478 15.4437 14.2478 15.4437V15.4437ZM15.7165 15.054L16.6906 15.0391C16.6906 15.0391 16.8405 15.3388 16.8255 15.4887C16.8255 15.6385 16.7656 15.7884 16.7056 15.7135C16.6307 15.6385 16.7356 15.6535 16.7506 15.4887C16.7506 15.3088 16.6307 15.144 16.6307 15.144C16.6307 15.144 16.3609 15.2489 15.9713 15.2339C15.5816 15.2039 15.7615 15.054 15.7165 15.054Z" fill="#D0D0D0"/>
<path fill-rule="evenodd" clip-rule="evenodd" d="M16.697 15.0355L16.6971 15.0357L16.6975 15.0364L16.6987 15.0389C16.6998 15.0412 16.7015 15.0445 16.7035 15.0487C16.7076 15.0573 16.7134 15.0696 16.7203 15.0849C16.7342 15.1154 16.7525 15.1577 16.7704 15.2048C16.7883 15.2518 16.8057 15.3036 16.8177 15.3532C16.8297 15.4025 16.8365 15.4501 16.8327 15.4888C16.8327 15.5644 16.8176 15.6403 16.7945 15.6884C16.7831 15.7121 16.769 15.7307 16.7522 15.7377C16.7435 15.7413 16.7343 15.7417 16.725 15.7382C16.7161 15.7349 16.7077 15.7281 16.6997 15.7182C16.681 15.6995 16.6717 15.6846 16.6711 15.67C16.6705 15.6553 16.6789 15.643 16.688 15.6302C16.689 15.6288 16.6901 15.6273 16.6911 15.6258C16.7096 15.6002 16.7358 15.5638 16.7428 15.4881C16.7427 15.3998 16.7133 15.3149 16.6835 15.2518C16.6687 15.2203 16.6539 15.1943 16.6427 15.1762C16.6372 15.1672 16.6325 15.1601 16.6293 15.1553C16.6287 15.1544 16.6281 15.1535 16.6276 15.1528C16.6257 15.1534 16.6233 15.1543 16.6205 15.1553C16.6123 15.1581 16.6001 15.1622 16.5843 15.167C16.5528 15.1767 16.5066 15.1894 16.4483 15.2016C16.3317 15.2261 16.1662 15.2487 15.9707 15.2411L15.9704 15.2411C15.8726 15.2336 15.8097 15.2185 15.7699 15.1997C15.7298 15.1807 15.7123 15.1576 15.707 15.1341C15.7019 15.1117 15.7084 15.0905 15.7128 15.0762L15.713 15.0755C15.7141 15.0718 15.7151 15.0687 15.7157 15.0661C15.7162 15.0639 15.7165 15.0624 15.7166 15.0613C15.7164 15.0613 15.7163 15.0613 15.7162 15.0613L15.7161 15.0463L15.7162 15.0463L16.6949 15.0312L16.697 15.0355ZM15.7316 15.0611L16.6857 15.0464C16.6868 15.0485 16.6882 15.0515 16.69 15.0552C16.694 15.0637 16.6998 15.0759 16.7067 15.0911C16.7205 15.1214 16.7387 15.1634 16.7564 15.2101C16.7741 15.2567 16.7913 15.3079 16.8032 15.3567C16.8151 15.4056 16.8214 15.4515 16.8178 15.4877L16.8177 15.4884C16.8177 15.5626 16.8028 15.6363 16.781 15.6819C16.7699 15.705 16.7578 15.7191 16.7465 15.7239C16.7411 15.7261 16.7358 15.7263 16.7303 15.7242C16.7246 15.7221 16.7181 15.7173 16.7112 15.7085L16.7106 15.7079C16.6921 15.6894 16.6865 15.678 16.6861 15.6694C16.6858 15.6606 16.6906 15.6524 16.7002 15.6389C16.7012 15.6375 16.7022 15.636 16.7033 15.6346C16.7223 15.6081 16.7505 15.5691 16.7577 15.4891L16.7578 15.4884C16.7578 15.3969 16.7273 15.3096 16.6971 15.2454C16.682 15.2133 16.6669 15.1868 16.6555 15.1684C16.6498 15.1591 16.6451 15.1519 16.6417 15.147C16.6401 15.1445 16.6388 15.1426 16.6379 15.1413L16.6368 15.1398L16.6365 15.1395L16.6365 15.1394L16.633 15.1346L16.6277 15.1367L16.6275 15.1368L16.6269 15.137L16.6247 15.1379C16.6226 15.1386 16.6196 15.1397 16.6156 15.1411C16.6075 15.1439 16.5955 15.1479 16.5799 15.1527C16.5488 15.1623 16.5031 15.1748 16.4453 15.187C16.3296 15.2112 16.1654 15.2336 15.9714 15.2262C15.8744 15.2187 15.8137 15.2038 15.7763 15.1861C15.7391 15.1685 15.7257 15.1486 15.7216 15.1308C15.7174 15.1124 15.7228 15.0946 15.7273 15.0799C15.7284 15.0763 15.7295 15.0728 15.7303 15.0696C15.731 15.0668 15.7315 15.0639 15.7316 15.0611ZM13.1617 15.5539C13.1517 15.5589 13.1468 15.5634 13.1451 15.5667C13.1405 15.5761 13.1389 15.5896 13.1407 15.6075C13.1425 15.6253 13.1474 15.6464 13.1547 15.6703C13.169 15.717 13.192 15.7732 13.2167 15.8335L13.2184 15.8378C13.2437 15.8996 13.2705 15.9654 13.291 16.0289C13.3114 16.0924 13.3258 16.1542 13.3258 16.2078V16.2082C13.3258 16.3278 13.3258 16.4255 13.3182 16.5008C13.3115 16.5683 13.2986 16.6195 13.2728 16.6524C13.3034 16.6573 13.3279 16.6569 13.345 16.6538C13.3548 16.652 13.3618 16.6494 13.3661 16.6468C13.3705 16.6441 13.3707 16.6424 13.3707 16.6424C13.3707 16.6424 13.3707 16.6424 13.3707 16.6424L13.3707 16.6412L13.3711 16.64L13.3712 16.6399L13.3713 16.6394L13.3719 16.6375C13.3725 16.6359 13.3733 16.6334 13.3742 16.6301C13.3762 16.6235 13.3791 16.6138 13.3825 16.6013C13.3892 16.5764 13.3981 16.5406 13.4065 16.4968C13.4232 16.4091 13.4381 16.2898 13.4307 16.1633L13.4307 16.1625L13.4308 16.1618C13.4456 16.058 13.4345 15.9615 13.4177 15.8777C13.41 15.8389 13.401 15.8029 13.3928 15.77C13.3922 15.7674 13.3915 15.7647 13.3909 15.7621C13.3822 15.7273 13.3746 15.696 13.3708 15.6693L13.3688 15.6552L13.3815 15.6615L13.3818 15.6616C13.3821 15.6618 13.3828 15.662 13.3838 15.6624C13.3859 15.663 13.3894 15.664 13.3949 15.6651C13.406 15.6674 13.4248 15.6702 13.4555 15.672C13.5168 15.6757 13.6251 15.6758 13.8123 15.6608C13.9992 15.6458 14.1071 15.6197 14.1681 15.5975C14.1986 15.5864 14.2172 15.5764 14.2281 15.5693C14.2336 15.5657 14.2371 15.5629 14.2392 15.561C14.2395 15.5608 14.2397 15.5605 14.24 15.5603V15.4512L14.2357 15.4513C14.2279 15.4516 14.2165 15.4519 14.2019 15.4524C14.1727 15.4534 14.131 15.4549 14.0808 15.457C13.9804 15.4612 13.8461 15.4678 13.7103 15.4772C13.5746 15.4865 13.4376 15.4987 13.3318 15.5141C13.2788 15.5218 13.234 15.5303 13.201 15.5396C13.1846 15.5443 13.1713 15.549 13.1617 15.5539ZM14.2475 15.4435C14.2473 15.436 14.2473 15.436 14.2472 15.436L14.2442 15.4361L14.2353 15.4363C14.2275 15.4366 14.216 15.4369 14.2014 15.4374C14.1722 15.4384 14.1304 15.44 14.0802 15.4421C13.9797 15.4463 13.8452 15.4528 13.7093 15.4622C13.5734 15.4716 13.436 15.4838 13.3296 15.4993C13.2765 15.507 13.2308 15.5156 13.197 15.5252C13.1801 15.5299 13.1658 15.535 13.1549 15.5405C13.1444 15.5458 13.1357 15.5521 13.1317 15.56C13.1252 15.5731 13.1239 15.59 13.1258 15.609C13.1277 15.6281 13.133 15.6503 13.1404 15.6747C13.1549 15.7221 13.1781 15.7788 13.2026 15.8387L13.2046 15.8435C13.2299 15.9053 13.2565 15.9706 13.2767 16.0335C13.297 16.0965 13.3108 16.1565 13.3108 16.2078C13.3108 16.3278 13.3108 16.4248 13.3033 16.4993C13.2958 16.5741 13.281 16.6241 13.253 16.6521L13.2431 16.662L13.2569 16.6647C13.295 16.6724 13.326 16.6725 13.3477 16.6685C13.3585 16.6665 13.3675 16.6635 13.3739 16.6596C13.3797 16.6561 13.385 16.6508 13.3857 16.6438L13.3862 16.6421C13.3868 16.6404 13.3876 16.6378 13.3886 16.6344C13.3906 16.6277 13.3935 16.6179 13.3969 16.6053C13.4038 16.5801 13.4127 16.5438 13.4212 16.4996C13.4381 16.4113 13.4531 16.2911 13.4457 16.1631C13.4607 16.0574 13.4493 15.9593 13.4324 15.8747C13.4246 15.8356 13.4155 15.7992 13.4074 15.7665C13.4067 15.7638 13.4061 15.7611 13.4054 15.7585C13.398 15.7286 13.3915 15.702 13.3875 15.6789C13.3889 15.6792 13.3903 15.6795 13.392 15.6798C13.4039 15.6823 13.4234 15.6851 13.4546 15.687C13.5169 15.6908 13.6259 15.6907 13.8134 15.6757C14.0012 15.6607 14.1106 15.6344 14.1732 15.6116C14.2046 15.6002 14.2243 15.5897 14.2363 15.5818C14.2424 15.5779 14.2465 15.5746 14.2491 15.5722C14.2505 15.571 14.2514 15.5701 14.2521 15.5694C14.2525 15.569 14.2527 15.5687 14.2529 15.5685L14.2532 15.5682L14.2533 15.5681C14.2533 15.5681 14.2533 15.568 14.2475 15.5634L14.2533 15.568L14.255 15.566V15.4435H14.2475Z" fill="#707070"/>
<path fill-rule="evenodd" clip-rule="evenodd" d="M15.8357 15.3371C16.1954 15.3222 16.4352 15.3671 16.4352 15.3671C16.4352 15.3671 16.5851 15.6669 16.5851 15.8167C16.5701 15.9666 16.5251 16.1165 16.4502 16.0415C16.3903 15.9816 16.4802 15.9966 16.4952 15.8167C16.4952 15.6519 16.3753 15.472 16.3753 15.472C16.3753 15.472 16.1205 15.5769 15.7308 15.562C15.3412 15.532 15.4611 15.517 15.4161 15.502C15.3711 15.502 15.3562 15.6219 14.7717 15.6369C14.1722 15.6369 13.8725 15.502 13.8725 15.502C13.8725 15.502 13.8125 15.5919 13.4528 15.6219H13.0032C13.0182 15.7118 13.0931 15.8917 13.0782 16.1165C13.0782 16.3563 13.0032 16.596 13.0032 16.596H12.8983C12.9583 16.5511 12.9433 16.3862 12.9583 16.1614C12.9583 15.9366 12.7185 15.6069 12.7634 15.502C12.8234 15.4121 13.0931 15.502 13.1381 15.457C13.1831 15.3971 12.8983 15.0524 12.9583 14.7377C13.0032 14.423 13.3179 14.5129 13.6926 14.5129C14.0673 14.5279 14.8916 14.6328 15.1014 14.5129C15.3112 14.408 15.2213 14.0033 15.4011 13.7485C15.4608 13.6757 15.5365 13.6175 15.6222 13.5785C15.708 13.5395 15.8015 13.5208 15.8957 13.5237C16.0306 13.5237 16.1954 13.9733 16.1954 14.0783L16.1505 14.1382H16.0905V14.1832C15.9406 14.1981 15.9257 14.0633 15.8357 13.9733C15.8058 14.1232 15.9556 14.6328 15.9556 14.9625C15.9556 15.2322 15.8507 15.3521 15.8357 15.3371V15.3371Z" fill="#D0D0D0"/>
<path fill-rule="evenodd" clip-rule="evenodd" d="M15.8951 13.5309C15.8021 13.528 15.7097 13.5465 15.625 13.585C15.5404 13.6235 15.4657 13.6809 15.4068 13.7528C15.3258 13.8676 15.3002 14.0134 15.2763 14.1497C15.2741 14.1625 15.2718 14.1753 15.2695 14.1879C15.2564 14.2609 15.2423 14.3301 15.218 14.3876C15.1937 14.4452 15.1591 14.4919 15.1046 14.5192C15.0504 14.55 14.9581 14.5659 14.8456 14.5727C14.7325 14.5795 14.5978 14.5772 14.4581 14.5706C14.3185 14.5641 14.1736 14.5533 14.0404 14.5432C14.0344 14.5428 14.0285 14.5423 14.0225 14.5419C13.8963 14.5323 13.7814 14.5236 13.6921 14.52C13.6203 14.52 13.5506 14.5167 13.4847 14.5136C13.4646 14.5127 13.4448 14.5117 13.4255 14.5109C13.3426 14.5074 13.2673 14.506 13.2024 14.5144C13.1376 14.5227 13.084 14.5407 13.0438 14.5751C13.0039 14.6095 12.9764 14.661 12.9654 14.7384L12.9653 14.7388C12.9358 14.8937 12.9911 15.0567 13.0491 15.1896C13.0636 15.2227 13.0782 15.2539 13.0916 15.2826L13.0925 15.2844C13.1056 15.3123 13.1175 15.3379 13.1271 15.3604C13.1369 15.3833 13.1443 15.4034 13.1478 15.4199C13.1513 15.436 13.1515 15.4509 13.1438 15.4612L13.1431 15.4621C13.1359 15.4694 13.1248 15.4732 13.1125 15.4753C13.1 15.4774 13.085 15.4779 13.0685 15.4776C13.0465 15.4771 13.0211 15.475 12.9947 15.4729C12.9818 15.4718 12.9686 15.4707 12.9555 15.4698C12.9153 15.467 12.8753 15.4657 12.8417 15.4705C12.8082 15.4752 12.783 15.4859 12.7697 15.5053C12.7651 15.5166 12.7639 15.5315 12.766 15.5501C12.7682 15.5688 12.7737 15.5907 12.7817 15.615C12.7971 15.6618 12.8213 15.7169 12.8473 15.7761L12.8505 15.7834C12.8777 15.8452 12.9064 15.9111 12.9283 15.9756C12.9501 16.04 12.9654 16.1037 12.9654 16.1611V16.1616C12.9617 16.2177 12.9598 16.27 12.9582 16.3178L12.9579 16.3242C12.9564 16.3694 12.955 16.4105 12.9523 16.4464C12.9495 16.484 12.9452 16.5165 12.9377 16.5425C12.9325 16.5607 12.9256 16.5762 12.9162 16.5882H12.9973C12.9978 16.5867 12.9983 16.5849 12.9989 16.5829C13.001 16.5759 13.0039 16.5656 13.0074 16.5526C13.0144 16.5265 13.0237 16.4891 13.033 16.4443C13.0517 16.3547 13.0703 16.2353 13.0703 16.1161V16.1156C13.0778 16.0042 13.0629 15.9038 13.0443 15.8199C13.0353 15.7795 13.0255 15.7429 13.0168 15.7108L13.0158 15.7071C13.0069 15.6742 12.9993 15.6457 12.9955 15.6228L12.9941 15.6141H13.4522C13.6313 15.5991 13.7353 15.5693 13.7942 15.5435C13.8237 15.5306 13.8418 15.5188 13.8525 15.5103C13.8578 15.5061 13.8613 15.5027 13.8634 15.5005C13.8644 15.4994 13.8651 15.4986 13.8655 15.4981L13.8659 15.4975L13.8694 15.4922L13.8752 15.4949L13.8754 15.4949L13.876 15.4952L13.8786 15.4963C13.8808 15.4973 13.8843 15.4987 13.8889 15.5005C13.8982 15.5042 13.9121 15.5094 13.9307 15.5157C13.968 15.5282 14.0239 15.545 14.0986 15.5618C14.2479 15.5954 14.4721 15.6291 14.7712 15.6291C15.063 15.6216 15.2119 15.5879 15.2932 15.5565C15.3337 15.5409 15.3576 15.5257 15.3741 15.5145C15.376 15.5132 15.3778 15.5119 15.3795 15.5107C15.3854 15.5067 15.3907 15.503 15.3955 15.5003C15.4019 15.4967 15.4084 15.4942 15.4158 15.4942H15.417L15.4182 15.4946C15.4243 15.4966 15.4287 15.499 15.4317 15.5022C15.4347 15.5054 15.4357 15.5088 15.4362 15.5107C15.4363 15.5108 15.4363 15.5109 15.4363 15.511C15.4368 15.5128 15.4371 15.5134 15.4378 15.5142C15.4388 15.5152 15.441 15.5169 15.4466 15.519C15.4578 15.5234 15.48 15.5284 15.5243 15.5343C15.5683 15.5401 15.6337 15.5467 15.7309 15.5542C15.925 15.5616 16.0854 15.5392 16.1973 15.515C16.2532 15.5028 16.297 15.4903 16.3268 15.4807C16.3416 15.476 16.353 15.472 16.3607 15.4692C16.3645 15.4678 16.3674 15.4667 16.3693 15.4659L16.3714 15.4651L16.3719 15.4648L16.3721 15.4648L16.3778 15.4624L16.3812 15.4676L16.3813 15.4677L16.3816 15.4681L16.3826 15.4697C16.3835 15.4711 16.3848 15.4731 16.3864 15.4758C16.3898 15.4811 16.3945 15.4888 16.4002 15.4986C16.4115 15.5182 16.4266 15.5461 16.4417 15.5791C16.4718 15.645 16.5023 15.7324 16.5023 15.8164V15.817C16.4947 15.9086 16.4678 15.951 16.4506 15.9778L16.4505 15.978C16.4462 15.9846 16.4429 15.9898 16.4405 15.9945C16.4382 15.9992 16.4371 16.0029 16.437 16.0063C16.4368 16.0128 16.4404 16.0211 16.4552 16.0359C16.4728 16.0536 16.4867 16.0561 16.4977 16.0518C16.5099 16.047 16.522 16.0329 16.533 16.0099C16.5549 15.9643 16.5698 15.8906 16.5773 15.816C16.5772 15.7797 16.5681 15.7338 16.5541 15.685C16.5402 15.6361 16.5215 15.5849 16.5029 15.5382C16.4842 15.4915 16.4655 15.4495 16.4515 15.4191C16.4445 15.4039 16.4387 15.3917 16.4346 15.3832C16.4325 15.379 16.4309 15.3757 16.4299 15.3735C16.4281 15.3732 16.4257 15.3728 16.4227 15.3723C16.4155 15.3711 16.4047 15.3694 16.3908 15.3674C16.3628 15.3635 16.3217 15.3583 16.2694 15.3537C16.1667 15.3445 16.0209 15.3371 15.846 15.3439C15.844 15.3448 15.8419 15.3454 15.8398 15.3455C15.8365 15.3458 15.8329 15.3449 15.8301 15.3421L15.8354 15.3368L15.8351 15.3293C15.8374 15.3292 15.8398 15.3292 15.8421 15.3291C15.8453 15.3271 15.8496 15.3234 15.8549 15.3175C15.8662 15.3049 15.8803 15.2836 15.8942 15.2532C15.9218 15.1924 15.9478 15.0961 15.9478 14.9622C15.9478 14.7981 15.9105 14.589 15.8768 14.4015L15.8757 14.3956C15.8592 14.3042 15.8437 14.2181 15.8341 14.1454C15.8243 14.0715 15.8203 14.0104 15.8281 13.9716L15.8308 13.9578L15.8407 13.9677C15.8638 13.9908 15.8819 14.0166 15.8984 14.0417C15.9024 14.0479 15.9063 14.054 15.9101 14.06C15.9222 14.0787 15.9336 14.0966 15.9462 14.1127C15.9627 14.1337 15.9806 14.1511 16.0032 14.1623C16.0242 14.1728 16.0497 14.1783 16.0827 14.176V14.1304H16.1464L16.1876 14.0755C16.187 14.0499 16.1771 14.0043 16.1601 13.9492C16.1426 13.8926 16.1179 13.8269 16.089 13.7645C16.0601 13.702 16.0271 13.6431 15.9932 13.5999C15.9763 13.5784 15.9592 13.561 15.9426 13.549C15.9259 13.5371 15.9101 13.5309 15.8954 13.5309L15.8951 13.5309ZM15.8655 15.3282C16.0322 15.3227 16.1715 15.3299 16.2707 15.3387C16.3233 15.3434 16.3646 15.3486 16.3929 15.3526C16.407 15.3546 16.4178 15.3563 16.4251 15.3575C16.4288 15.3581 16.4315 15.3586 16.4334 15.3589L16.4355 15.3593L16.4361 15.3594L16.4362 15.3594L16.4349 15.3668L16.4416 15.3635L16.4417 15.3637L16.442 15.3643L16.4433 15.3669C16.4444 15.3691 16.446 15.3725 16.4481 15.3767C16.4522 15.3852 16.4581 15.3976 16.4651 15.4128C16.4792 15.4434 16.498 15.4856 16.5168 15.5326C16.5356 15.5796 16.5544 15.6314 16.5686 15.6809C16.5827 15.7303 16.5923 15.7779 16.5923 15.8164V15.8172C16.5847 15.8923 16.5696 15.9683 16.5466 16.0164C16.5351 16.0401 16.521 16.0588 16.5032 16.0658C16.4843 16.0731 16.4644 16.0663 16.4446 16.0465C16.4294 16.0313 16.4217 16.0191 16.422 16.0059C16.4222 15.9995 16.4242 15.9935 16.4271 15.9878C16.4298 15.9823 16.4336 15.9766 16.4376 15.9704L16.438 15.9697C16.4544 15.9442 16.48 15.9042 16.4873 15.8161C16.4873 15.7354 16.4579 15.6505 16.4281 15.5854C16.4132 15.5528 16.3983 15.5254 16.3872 15.5061C16.3816 15.4965 16.377 15.4889 16.3737 15.4837C16.3731 15.4827 16.3725 15.4818 16.372 15.4809C16.3703 15.4816 16.3682 15.4823 16.3658 15.4832C16.358 15.4861 16.3464 15.4902 16.3313 15.495C16.3012 15.5047 16.2569 15.5174 16.2004 15.5296C16.0875 15.5541 15.9258 15.5766 15.7302 15.5691L15.7299 15.5691C15.6325 15.5616 15.5667 15.555 15.5223 15.5492C15.478 15.5433 15.4543 15.5381 15.4412 15.533C15.4346 15.5305 15.43 15.5278 15.4269 15.5245C15.4236 15.521 15.4226 15.5175 15.4219 15.5153C15.4213 15.5132 15.4212 15.5129 15.4208 15.5125C15.4203 15.5119 15.4188 15.5107 15.4146 15.5092C15.4112 15.5094 15.4076 15.5107 15.4028 15.5134C15.3987 15.5157 15.3942 15.5188 15.3885 15.5228C15.3866 15.524 15.3847 15.5254 15.3825 15.5268C15.3653 15.5385 15.3405 15.5543 15.2986 15.5705C15.215 15.6028 15.0642 15.6366 14.7715 15.6441L14.7714 15.6441C14.471 15.6441 14.2457 15.6103 14.0953 15.5764C14.0201 15.5595 13.9636 15.5426 13.9259 15.5299C13.9071 15.5235 13.8929 15.5182 13.8834 15.5145C13.8796 15.513 13.8766 15.5117 13.8743 15.5108C13.8717 15.5136 13.8677 15.5174 13.8618 15.5221C13.85 15.5314 13.8307 15.5439 13.8002 15.5573C13.7393 15.5839 13.6335 15.614 13.4531 15.629L13.4525 15.6291L13.0119 15.6291C13.0159 15.6496 13.0225 15.6743 13.0303 15.7032L13.0313 15.7069C13.0399 15.7391 13.0499 15.7759 13.0589 15.8167C13.0777 15.9013 13.0928 16.0031 13.0853 16.1164C13.0853 16.2369 13.0665 16.3573 13.0477 16.4474C13.0383 16.4925 13.0289 16.5301 13.0218 16.5565C13.0183 16.5696 13.0154 16.58 13.0133 16.5871C13.0123 16.5906 13.0115 16.5933 13.0109 16.5951L13.0103 16.5972L13.0101 16.5978L13.0101 16.5979L13.0084 16.6032H12.8755L12.8935 16.5897C12.9066 16.5799 12.9163 16.563 12.9233 16.5384C12.9304 16.5139 12.9346 16.4826 12.9374 16.4453C12.94 16.4096 12.9414 16.3688 12.943 16.3235L12.9432 16.3173C12.9448 16.2696 12.9467 16.2171 12.9504 16.1609C12.9504 16.1059 12.9357 16.0442 12.9141 15.9804C12.8924 15.9166 12.864 15.8513 12.8368 15.7895L12.8334 15.7817C12.8075 15.7229 12.7831 15.6672 12.7675 15.6197C12.7593 15.5949 12.7535 15.572 12.7511 15.5518C12.7488 15.5317 12.7499 15.5135 12.7562 15.4987L12.7565 15.4981L12.7569 15.4975C12.7737 15.4723 12.8045 15.4606 12.8396 15.4556C12.8748 15.4506 12.9163 15.4521 12.9566 15.4549C12.9701 15.4558 12.9835 15.4569 12.9966 15.458C13.0227 15.4601 13.0473 15.4621 13.0689 15.4626C13.085 15.4629 13.0989 15.4624 13.11 15.4605C13.1209 15.4586 13.128 15.4556 13.1321 15.4518C13.1354 15.447 13.1364 15.4381 13.1332 15.4231C13.13 15.408 13.123 15.389 13.1133 15.3662C13.1039 15.344 13.092 15.3187 13.0788 15.2906L13.078 15.2889C13.0646 15.2603 13.0499 15.2289 13.0354 15.1956C12.9773 15.0625 12.9202 14.8959 12.9505 14.7361C12.962 14.6562 12.9907 14.601 13.0341 14.5638C13.0773 14.5266 13.1342 14.508 13.2005 14.4995C13.2668 14.491 13.3432 14.4924 13.4261 14.4959C13.4456 14.4968 13.4655 14.4977 13.4857 14.4987C13.5515 14.5018 13.6208 14.5051 13.6923 14.5051H13.6926C13.7822 14.5086 13.8974 14.5174 14.0235 14.5269C14.0295 14.5274 14.0355 14.5278 14.0415 14.5283C14.1748 14.5383 14.3194 14.5491 14.4589 14.5556C14.5983 14.5622 14.7324 14.5645 14.8447 14.5578C14.9573 14.551 15.0466 14.5351 15.0973 14.506L15.0977 14.5058C15.148 14.4807 15.1808 14.4374 15.2042 14.3818C15.2277 14.326 15.2417 14.2584 15.2548 14.1853C15.2571 14.1726 15.2593 14.1597 15.2616 14.1467C15.2854 14.011 15.3115 13.8617 15.3947 13.7439L15.395 13.7435C15.4554 13.6697 15.532 13.6108 15.6188 13.5714C15.7056 13.5319 15.8002 13.513 15.8955 13.5159C15.9144 13.516 15.9332 13.5238 15.9513 13.5369C15.9695 13.5499 15.9875 13.5685 16.005 13.5907C16.0399 13.6351 16.0735 13.6952 16.1026 13.7582C16.1318 13.8213 16.1567 13.8876 16.1744 13.9448C16.192 14.0017 16.2026 14.0505 16.2026 14.0779V14.0804L16.1539 14.1454H16.0977V14.1896L16.0909 14.1903C16.0523 14.1942 16.0218 14.1884 15.9965 14.1757C15.9712 14.1631 15.9517 14.1439 15.9344 14.1219C15.9214 14.1052 15.9094 14.0865 15.8972 14.0676C15.8935 14.0617 15.8897 14.0558 15.8858 14.05C15.8722 14.0291 15.8577 14.0083 15.8405 13.9893C15.8365 14.0257 15.8403 14.0787 15.8489 14.1435C15.8585 14.2157 15.874 14.3015 15.8905 14.3931L15.8915 14.3988C15.9252 14.586 15.9628 14.7965 15.9628 14.9622C15.9628 15.098 15.9364 15.1965 15.9078 15.2594C15.8935 15.2908 15.8786 15.3135 15.8661 15.3275C15.8659 15.3278 15.8657 15.328 15.8655 15.3282ZM16.4349 15.3668L16.4416 15.3635L16.4399 15.3601L16.4362 15.3594L16.4349 15.3668Z" fill="#707070"/>
<path fill-rule="evenodd" clip-rule="evenodd" d="M14.6457 14.856C14.6457 14.9609 14.1811 15.2157 14.1361 15.3056C14.1062 15.4105 14.256 15.4555 14.2111 15.5154C14.1661 15.5754 14.1212 15.5454 14.1062 15.5604L13.9263 15.1857C13.9263 15.1857 14.3759 14.9759 14.3609 14.886C14.346 14.7961 14.0312 14.7361 13.9713 14.5263C13.9113 14.3165 13.9413 13.8819 13.8964 13.7919C13.8514 13.702 13.2969 13.6121 13.2969 13.4922C13.2969 13.3423 13.8664 12.9826 13.9263 12.9227C13.9863 12.8627 14.0462 12.9826 13.9863 13.0276C13.9263 13.0875 13.4917 13.4322 13.4917 13.4772C13.4917 13.5372 13.8514 13.5971 13.9713 13.5971C14.1062 13.5971 14.1661 13.5372 14.1661 13.4772C14.1661 13.4322 14.0312 13.4322 14.0312 13.3273C14.0312 13.2224 14.1062 13.1475 14.2261 13.1475C14.286 13.1475 14.4059 13.2224 14.4059 13.3124C14.4059 13.4023 14.301 13.4173 14.286 13.4772C14.271 13.5521 14.4059 13.5971 14.5258 13.5971C14.6457 13.5971 15.0653 13.9118 15.1253 13.9718C15.2002 14.0167 15.2602 14.0167 15.2002 14.0767C15.1403 14.1366 15.1702 14.1966 15.1103 14.1366C15.0811 14.1078 15.0604 14.0715 15.0503 14.0317C15.0503 13.9868 14.6007 13.762 14.5258 13.8069C14.4659 13.8669 14.5258 14.5263 14.5258 14.5862C14.5258 14.6911 14.6607 14.6911 14.6457 14.856V14.856Z" fill="#D0D0D0"/>
<path fill-rule="evenodd" clip-rule="evenodd" d="M13.9672 12.9144C13.9572 12.9117 13.9449 12.9141 13.9313 12.9277C13.9234 12.9356 13.9074 12.9481 13.8862 12.9639C13.8649 12.9798 13.8376 12.9994 13.8067 13.0217L13.8061 13.0221C13.7444 13.0665 13.668 13.1215 13.5934 13.1793C13.5185 13.2373 13.4458 13.298 13.3918 13.3533C13.3649 13.381 13.3428 13.4072 13.3274 13.4309C13.312 13.4548 13.304 13.4753 13.304 13.4919C13.304 13.5038 13.311 13.5165 13.3256 13.53C13.3401 13.5434 13.3612 13.5567 13.3873 13.57C13.4394 13.5964 13.5097 13.6215 13.5818 13.6459C13.5986 13.6516 13.6155 13.6572 13.6323 13.6628C13.6874 13.6811 13.7413 13.6991 13.7861 13.7167C13.8154 13.7283 13.8412 13.7398 13.8611 13.7514C13.8807 13.7627 13.8961 13.7749 13.9027 13.7883C13.9089 13.8005 13.9135 13.818 13.9171 13.8391C13.9207 13.8603 13.9235 13.8858 13.9257 13.9142C13.9297 13.9647 13.932 14.0252 13.9344 14.0892C13.9347 14.0972 13.9351 14.1054 13.9354 14.1135C13.941 14.26 13.9485 14.4201 13.9782 14.5239C14.0073 14.6257 14.0984 14.6919 14.1865 14.7443C14.2029 14.7541 14.2193 14.7635 14.2351 14.7725C14.2612 14.7874 14.2856 14.8013 14.306 14.8148C14.3224 14.8257 14.3367 14.8366 14.3475 14.8478C14.3582 14.8591 14.3658 14.8711 14.368 14.8844C14.3704 14.8988 14.3634 14.9141 14.3522 14.9289C14.3408 14.9439 14.324 14.9599 14.3037 14.9763C14.2632 15.0089 14.208 15.0438 14.1527 15.0757C14.0972 15.1077 14.0414 15.1368 13.9994 15.1579C13.9784 15.1685 13.9608 15.177 13.9485 15.183C13.9434 15.1854 13.9392 15.1874 13.936 15.189L14.1091 15.5496C14.1134 15.5481 14.1179 15.5478 14.122 15.5477C14.1248 15.5476 14.1275 15.5476 14.1303 15.5476C14.1353 15.5476 14.1404 15.5476 14.1463 15.547C14.1631 15.5453 14.1836 15.5388 14.2048 15.5106C14.2096 15.5042 14.2115 15.4983 14.2117 15.4929C14.2119 15.4874 14.2104 15.4816 14.2071 15.4752C14.2011 15.4634 14.1904 15.4514 14.178 15.4373C14.1765 15.4356 14.1749 15.4338 14.1733 15.432C14.1453 15.4004 14.1124 15.36 14.1286 15.3032L14.1288 15.3026L14.1291 15.3019C14.1354 15.2894 14.1485 15.2748 14.1655 15.259C14.1828 15.243 14.2048 15.2251 14.2299 15.2059C14.265 15.179 14.3064 15.1493 14.3491 15.1188C14.367 15.106 14.3851 15.093 14.4031 15.08C14.464 15.036 14.5231 14.9917 14.5671 14.952C14.589 14.9321 14.6069 14.9136 14.6193 14.897C14.6319 14.8801 14.6379 14.8663 14.6379 14.8557H14.6454L14.6379 14.855C14.6416 14.8149 14.6361 14.7852 14.6261 14.7617C14.616 14.7381 14.6013 14.7201 14.5856 14.7035C14.5815 14.6991 14.5773 14.6948 14.5731 14.6906C14.5456 14.6627 14.518 14.6346 14.518 14.5859C14.518 14.5742 14.5156 14.5386 14.5123 14.4883C14.5114 14.4757 14.5105 14.4621 14.5096 14.4478C14.5049 14.3766 14.4993 14.2866 14.4955 14.1966C14.4918 14.1066 14.4899 14.0164 14.4927 13.9449C14.4941 13.9092 14.4967 13.8779 14.5009 13.8536C14.503 13.8414 14.5055 13.8308 14.5085 13.8221C14.5115 13.8136 14.5153 13.8062 14.5202 13.8013L14.5208 13.8007L14.5216 13.8002C14.5332 13.7932 14.5506 13.7921 14.5703 13.7941C14.5904 13.7961 14.6146 13.8015 14.6412 13.8093C14.6943 13.8248 14.7579 13.8503 14.819 13.8785C14.8801 13.9067 14.9389 13.9377 14.9825 13.9646C15.0043 13.978 15.0225 13.9905 15.0354 14.0012C15.0417 14.0066 15.047 14.0116 15.0508 14.0163C15.054 14.0203 15.0571 14.0252 15.0575 14.0303C15.0672 14.0685 15.0872 14.1033 15.1152 14.131C15.1227 14.1384 15.1285 14.1438 15.1332 14.1475C15.138 14.1513 15.1411 14.1529 15.1429 14.1535C15.1441 14.1538 15.1443 14.1536 15.1445 14.1535C15.1445 14.1535 15.1445 14.1535 15.1445 14.1535C15.1452 14.153 15.1465 14.1515 15.1482 14.148C15.1496 14.1452 15.1511 14.1416 15.1528 14.1374C15.1594 14.1213 15.1698 14.0958 15.1946 14.0711C15.2095 14.0562 15.2154 14.0464 15.2166 14.0397C15.2172 14.0367 15.2167 14.0343 15.2156 14.0321C15.2144 14.0297 15.2121 14.0271 15.2084 14.0242C15.2008 14.0183 15.189 14.0125 15.1735 14.0052L15.1723 14.0046C15.1574 13.9975 15.1397 13.989 15.1211 13.9779L15.1203 13.9774L15.1197 13.9768C15.0902 13.9473 14.9709 13.854 14.8435 13.7679C14.7799 13.7248 14.7146 13.6838 14.6578 13.6535C14.6294 13.6384 14.6032 13.626 14.5806 13.6174C14.5577 13.6088 14.5391 13.6043 14.5255 13.6043C14.4648 13.6043 14.4 13.5929 14.352 13.5718C14.328 13.5613 14.3077 13.548 14.2942 13.5321C14.2806 13.5159 14.2741 13.4968 14.2783 13.4754L14.2784 13.4751C14.2827 13.4581 14.2932 13.4447 14.3056 13.433C14.3142 13.425 14.3241 13.4173 14.334 13.4097C14.3383 13.4064 14.3425 13.4031 14.3466 13.3999C14.3743 13.3777 14.3981 13.3534 14.3981 13.312C14.3981 13.2704 14.3702 13.2311 14.3335 13.2017C14.2967 13.1723 14.2534 13.1547 14.2257 13.1547C14.1674 13.1547 14.1206 13.1729 14.0885 13.2032C14.0564 13.2335 14.0384 13.2764 14.0384 13.327C14.0384 13.3752 14.0689 13.3995 14.102 13.4179C14.1089 13.4217 14.1158 13.4252 14.1225 13.4287C14.1239 13.4294 14.1252 13.43 14.1265 13.4307C14.1344 13.4347 14.1421 13.4387 14.1487 13.4429C14.1615 13.451 14.1733 13.4614 14.1733 13.4769C14.1733 13.5096 14.1569 13.5417 14.1233 13.5654C14.0898 13.5891 14.0394 13.6043 13.971 13.6043C13.9103 13.6043 13.7898 13.5892 13.6846 13.5667C13.632 13.5554 13.5829 13.5422 13.5467 13.5279C13.5287 13.5208 13.5135 13.5132 13.5026 13.5053C13.4922 13.4977 13.4839 13.4882 13.4839 13.4769C13.4839 13.4741 13.4847 13.4714 13.4857 13.4689C13.4868 13.4664 13.4882 13.4638 13.49 13.4611C13.4934 13.4556 13.4984 13.4493 13.5045 13.4422C13.5168 13.4281 13.5342 13.4105 13.5551 13.3907C13.5969 13.351 13.6532 13.3017 13.7113 13.252C13.7542 13.2153 13.7982 13.1784 13.838 13.1449C13.8521 13.133 13.8657 13.1216 13.8786 13.1108C13.9279 13.0692 13.966 13.0367 13.9807 13.022L13.9814 13.0212C14.0074 13.0018 14.0083 12.9652 13.9943 12.939C13.9874 12.9261 13.9776 12.9172 13.9672 12.9144ZM14.6529 14.856C14.6527 14.8716 14.6443 14.8885 14.6313 14.9059C14.6181 14.9237 14.5994 14.9429 14.5771 14.9631C14.5325 15.0035 14.4727 15.0482 14.4118 15.0922C14.3937 15.1053 14.3755 15.1183 14.3576 15.1312C14.315 15.1616 14.274 15.191 14.239 15.2178C14.2141 15.2368 14.1925 15.2544 14.1757 15.27C14.1591 15.2853 14.148 15.2982 14.1428 15.308C14.1295 15.3559 14.1564 15.3902 14.1845 15.4221C14.1861 15.4239 14.1877 15.4257 14.1893 15.4274C14.2014 15.4411 14.2136 15.4548 14.2205 15.4684C14.2245 15.4763 14.227 15.4846 14.2267 15.4935C14.2264 15.5024 14.2231 15.5111 14.2167 15.5196C14.1929 15.5514 14.1685 15.5598 14.1478 15.5619C14.1412 15.5626 14.1346 15.5626 14.1291 15.5626C14.1266 15.5626 14.1244 15.5626 14.1225 15.5626C14.1155 15.5629 14.1126 15.5639 14.1111 15.5654L14.1037 15.5728L13.916 15.1818L13.9228 15.1786L13.9241 15.178L13.9278 15.1762C13.9311 15.1747 13.9359 15.1724 13.942 15.1695C13.9543 15.1636 13.9717 15.155 13.9927 15.1445C14.0345 15.1235 14.0901 15.0945 14.1452 15.0628C14.2004 15.031 14.2547 14.9965 14.2943 14.9646C14.3141 14.9486 14.3299 14.9335 14.3403 14.9198C14.3508 14.9059 14.3546 14.895 14.3532 14.8869C14.3517 14.8777 14.3462 14.8682 14.3366 14.8582C14.327 14.8481 14.3138 14.8379 14.2977 14.8273C14.2777 14.814 14.2541 14.8006 14.2284 14.7859C14.2125 14.7769 14.1959 14.7674 14.1788 14.7572C14.0908 14.7048 13.9946 14.636 13.9638 14.528C13.9335 14.4221 13.926 14.2599 13.9204 14.1141C13.9201 14.1059 13.9198 14.0978 13.9195 14.0898C13.917 14.0257 13.9147 13.9655 13.9108 13.9154C13.9086 13.8872 13.9059 13.8622 13.9023 13.8417C13.8987 13.8209 13.8944 13.8052 13.8893 13.795C13.8848 13.7858 13.8729 13.7755 13.8536 13.7643C13.8346 13.7533 13.8097 13.7421 13.7807 13.7307C13.7362 13.7132 13.6828 13.6954 13.6278 13.6771C13.611 13.6715 13.594 13.6658 13.577 13.6601C13.505 13.6358 13.4337 13.6103 13.3805 13.5833C13.3539 13.5699 13.3314 13.5558 13.3154 13.541C13.2995 13.5263 13.2891 13.5099 13.2891 13.4919C13.2891 13.471 13.2989 13.4475 13.3148 13.4228C13.3309 13.3979 13.3538 13.3709 13.3811 13.3429C13.4358 13.2868 13.5092 13.2256 13.5842 13.1675C13.659 13.1095 13.7356 13.0544 13.7973 13.01L13.798 13.0095C13.8289 12.9872 13.856 12.9677 13.8773 12.9519C13.8987 12.936 13.9137 12.9241 13.9207 12.9171C13.9371 12.9007 13.9548 12.8956 13.971 12.8999C13.9868 12.9041 13.9994 12.9168 14.0076 12.932C14.0235 12.9619 14.0244 13.0074 13.9909 13.033C13.9754 13.0484 13.9369 13.0812 13.8882 13.1222C13.8753 13.1331 13.8617 13.1445 13.8476 13.1564C13.8078 13.1899 13.7639 13.2268 13.7211 13.2634C13.663 13.313 13.6069 13.3621 13.5654 13.4015C13.5446 13.4213 13.5276 13.4385 13.5158 13.452C13.5099 13.4588 13.5055 13.4646 13.5026 13.4691C13.5011 13.4714 13.5002 13.4733 13.4995 13.4747C13.4993 13.4754 13.4991 13.476 13.499 13.4764C13.4989 13.4768 13.4989 13.4769 13.4989 13.4769C13.4989 13.4806 13.5018 13.4861 13.5115 13.4932C13.5208 13.5 13.5347 13.507 13.5522 13.5139C13.5872 13.5278 13.6355 13.5408 13.6878 13.552C13.7924 13.5744 13.9118 13.5893 13.971 13.5893C14.0374 13.5893 14.0844 13.5745 14.1146 13.5532C14.1447 13.532 14.1583 13.5042 14.1583 13.4769C14.1583 13.4699 14.1532 13.4635 14.1407 13.4556C14.1347 13.4518 14.1276 13.4481 14.1197 13.4441C14.1184 13.4434 14.1171 13.4427 14.1158 13.4421C14.1091 13.4386 14.1019 13.435 14.0947 13.431C14.0604 13.4119 14.0234 13.3837 14.0234 13.327C14.0234 13.2727 14.0429 13.2257 14.0782 13.1923C14.1136 13.1589 14.1642 13.1397 14.2257 13.1397C14.2581 13.1397 14.3046 13.1595 14.3428 13.19C14.381 13.2206 14.4131 13.2638 14.4131 13.312C14.4131 13.3606 14.3844 13.3888 14.3559 13.4116C14.3514 13.4152 14.3469 13.4187 14.3425 13.4221C14.3329 13.4295 14.3239 13.4364 14.3159 13.4439C14.3045 13.4547 14.2963 13.4656 14.293 13.4785C14.2898 13.4946 14.2945 13.5091 14.3057 13.5224C14.3171 13.536 14.3352 13.548 14.358 13.5581C14.4037 13.5782 14.4663 13.5893 14.5255 13.5893C14.5418 13.5893 14.5625 13.5946 14.5859 13.6034C14.6093 13.6123 14.6361 13.625 14.6648 13.6403C14.7223 13.6709 14.7881 13.7123 14.8519 13.7554C14.9784 13.841 15.098 13.9343 15.1296 13.9655C15.1473 13.9761 15.1641 13.9841 15.1789 13.9911L15.1799 13.9916C15.1949 13.9988 15.2084 14.0052 15.2176 14.0124C15.2223 14.016 15.2264 14.0202 15.229 14.0253C15.2316 14.0305 15.2325 14.0362 15.2314 14.0423C15.2293 14.0539 15.2203 14.0666 15.2052 14.0817C15.1829 14.104 15.1739 14.1257 15.1672 14.1419C15.1653 14.1467 15.1635 14.1509 15.1616 14.1547C15.1597 14.1586 15.1571 14.1628 15.1534 14.1655C15.1491 14.1687 15.144 14.1694 15.1388 14.1679C15.1341 14.1665 15.1292 14.1634 15.1239 14.1593C15.1186 14.155 15.1122 14.1492 15.1047 14.1416M14.5302 13.8126C14.5278 13.8153 14.5252 13.8199 14.5227 13.8271C14.52 13.8347 14.5177 13.8444 14.5157 13.8561C14.5116 13.8795 14.5091 13.9101 14.5077 13.9455C14.5049 14.0164 14.5067 14.1061 14.5105 14.196C14.5142 14.2858 14.5198 14.3756 14.5245 14.4468C14.5255 14.4609 14.5263 14.4743 14.5272 14.4869C14.5305 14.5373 14.533 14.5737 14.533 14.5859C14.533 14.6281 14.5559 14.6515 14.5833 14.6796C14.5876 14.684 14.592 14.6885 14.5965 14.6932C14.6126 14.7103 14.6288 14.7298 14.6399 14.7558C14.6509 14.7818 14.6567 14.8139 14.6529 14.856" fill="#707070"/>
<path fill-rule="evenodd" clip-rule="evenodd" d="M13.8672 13.582H14.6165V14.3464H13.8672V13.582Z" fill="#A7A7A7"/>
<path d="M16.251 16.3402L13.7915 12.6483C13.7686 12.6139 13.7382 12.5923 13.7236 12.6C13.7089 12.6078 13.7157 12.6421 13.7386 12.6765L16.1981 16.3684C16.2211 16.4028 16.2515 16.4244 16.2661 16.4166C16.2807 16.4088 16.274 16.3746 16.251 16.3402Z" fill="#808080"/>
<path fill-rule="evenodd" clip-rule="evenodd" d="M14.0664 12.9851C14.0664 13.0143 14.0534 13.0423 14.0304 13.0629C14.0073 13.0836 13.976 13.0952 13.9434 13.0952C13.9107 13.0952 13.8794 13.0836 13.8563 13.0629C13.8333 13.0423 13.8203 13.0143 13.8203 12.9851C13.8203 12.9559 13.8333 12.9279 13.8563 12.9072C13.8794 12.8866 13.9107 12.875 13.9434 12.875C13.976 12.875 14.0073 12.8866 14.0304 12.9072C14.0534 12.9279 14.0664 12.9559 14.0664 12.9851V12.9851Z" fill="#D0D0D0"/>
<path fill-rule="evenodd" clip-rule="evenodd" d="M13.9437 12.8836C13.913 12.8836 13.8837 12.8945 13.8622 12.9137C13.8407 12.9329 13.8289 12.9588 13.8289 12.9855C13.8289 13.0122 13.8407 13.038 13.8622 13.0572C13.8837 13.0764 13.913 13.0873 13.9437 13.0873C13.9745 13.0873 14.0038 13.0764 14.0253 13.0572C14.0467 13.038 14.0586 13.0122 14.0586 12.9855C14.0586 12.9588 14.0467 12.9329 14.0253 12.9137C14.0038 12.8945 13.9745 12.8836 13.9437 12.8836ZM13.8513 12.9015C13.8759 12.8795 13.9092 12.8672 13.9437 12.8672C13.9783 12.8672 14.0115 12.8795 14.0362 12.9015C14.0609 12.9236 14.075 12.9538 14.075 12.9855C14.075 13.0171 14.0609 13.0473 14.0362 13.0694C14.0115 13.0915 13.9783 13.1037 13.9437 13.1037C13.9092 13.1037 13.8759 13.0915 13.8513 13.0694C13.8266 13.0473 13.8125 13.0171 13.8125 12.9855C13.8125 12.9538 13.8266 12.9236 13.8513 12.9015Z" fill="#707070"/>
<path fill-rule="evenodd" clip-rule="evenodd" d="M16.2055 13.9749C16.2055 14.0199 15.9057 14.0798 15.591 14.0798C15.2613 14.0798 14.9766 14.0199 14.9766 13.9749C14.9766 13.93 15.2613 14.0499 15.576 14.0499C15.9207 14.0499 16.2055 13.93 16.2055 13.9749V13.9749Z" fill="#808080"/>
<path fill-rule="evenodd" clip-rule="evenodd" d="M13.9297 14.3477H14.5442V14.5725H13.9447L13.9297 14.3477Z" fill="#A7A7A7"/>
<path fill-rule="evenodd" clip-rule="evenodd" d="M15.9246 13.8068C15.8646 13.9267 15.8197 14.0017 15.8047 13.9867C15.8047 13.9867 15.8347 13.8668 15.8946 13.7619L16.0145 13.582C16.0295 13.597 15.9845 13.7019 15.9246 13.8068ZM16.0745 14.1066L15.9546 14.1815C15.9856 14.1294 16.0263 14.0836 16.0745 14.0466C16.1494 13.9867 16.2093 13.9567 16.2093 13.9717L16.0894 14.0916L16.0745 14.1066Z" fill="#808080"/>
<path fill-rule="evenodd" clip-rule="evenodd" d="M16.0135 13.9585L16.0884 14.1383L15.9685 13.9884L15.8936 13.8086L16.0135 13.9585ZM15.9536 14.438C15.9536 14.438 15.7737 14.468 15.5339 14.468C15.2941 14.468 15.0993 14.453 15.0993 14.438L15.5339 14.4081C15.7737 14.4081 15.9536 14.4081 15.9536 14.438ZM14.5448 14.3781C14.5448 14.3931 14.4099 14.4081 14.245 14.4081C14.0652 14.4081 13.9453 14.4081 13.9453 14.3781C13.9453 14.3781 14.0652 14.3481 14.245 14.3481C14.4099 14.3481 14.5448 14.3631 14.5448 14.3781Z" fill="#808080"/>
<path fill-rule="evenodd" clip-rule="evenodd" d="M13.1953 16.2967C13.1953 16.2967 13.3002 16.5365 13.7348 16.5365C14.1545 16.5365 14.3043 16.4616 14.1395 16.3417C13.9746 16.2218 13.6299 16.2517 13.6899 16.3566C13.7199 16.4765 13.555 16.5065 13.525 16.4316C13.4801 16.3566 13.3302 16.1169 13.6 16.1019C13.8847 16.0869 14.4692 15.997 14.6191 16.1618C14.7689 16.3267 14.4542 16.4616 14.694 16.5065C14.9188 16.5365 14.9638 16.4616 15.3684 16.4466C15.7731 16.4166 15.9379 16.5215 16.0728 16.5065C16.2227 16.5065 16.1927 16.2517 16.0728 16.2068C15.9679 16.1318 15.7581 16.1169 15.6981 16.0569C15.6532 15.982 15.5033 16.0569 15.5183 15.967C15.5183 15.8921 15.7281 16.012 15.7281 15.982L15.7581 15.952H15.7131L15.7281 15.922L15.6981 15.937L15.7131 15.907C15.7131 15.907 15.6681 15.937 15.6681 15.907H15.6382C15.6681 15.8771 15.6532 15.8771 15.6382 15.8621H15.5932V15.8171C15.5632 15.8171 15.5632 15.8171 15.5483 15.8471V15.7722C15.5483 15.7572 15.5782 15.7422 15.6232 15.7422C15.7281 15.7422 15.7731 15.8621 15.818 15.8621C15.848 15.8621 15.8929 15.7422 16.0278 15.7871L16.2526 15.8771C16.3276 15.922 16.2077 15.967 16.2526 16.0269C16.2976 16.0869 16.5674 16.2817 16.4924 16.5065C16.4175 16.7163 16.1927 16.7463 16.1927 16.8362C16.1627 16.9262 16.8371 16.8962 17.002 16.9261C17.1166 16.9469 17.2187 17.0114 17.2867 17.106L16.987 17.121C16.987 17.121 16.8371 17.046 16.4625 17.0311C16.0878 17.0311 15.9529 16.8812 15.803 16.8512L15.2036 16.8812L14.7539 16.8362C14.664 16.8212 14.1245 17.076 14.1245 17.136H13.7648C13.7648 17.136 13.8098 17.0011 14.0196 16.9861C14.2144 16.9561 14.4242 16.8662 14.4092 16.8063L14.4692 16.4166C14.4692 16.3267 14.5591 16.2667 14.5441 16.2368C14.5291 16.1768 14.2894 16.1318 14.0646 16.1318C13.8397 16.1318 13.6 16.1468 13.555 16.1918C13.525 16.2517 13.555 16.4166 13.6 16.3866C13.6449 16.3866 13.585 16.2667 13.6299 16.2517C13.727 16.2219 13.8281 16.2067 13.9297 16.2068C14.0496 16.2068 14.2444 16.3117 14.2444 16.3566C14.2444 16.3716 14.3043 16.4765 14.2144 16.5215C14.0648 16.5711 13.9071 16.5914 13.7498 16.5815C13.5932 16.5733 13.4401 16.5324 13.3002 16.4616C13.2403 16.4166 13.1953 16.3117 13.1953 16.2967V16.2967Z" fill="#D0D0D0"/>
<path fill-rule="evenodd" clip-rule="evenodd" d="M15.5586 15.7661C15.556 15.7688 15.5554 15.7707 15.5554 15.7718V15.8189C15.557 15.8172 15.5587 15.8156 15.5606 15.8143C15.5648 15.8115 15.5695 15.8104 15.5745 15.8098C15.5794 15.8093 15.5853 15.8093 15.5925 15.8093L15.6004 15.8093V15.8543H15.641L15.6432 15.8565C15.6456 15.8589 15.6479 15.8608 15.6503 15.8628C15.6513 15.8635 15.6522 15.8643 15.6532 15.8652C15.6562 15.8677 15.6602 15.8712 15.6618 15.8763C15.6637 15.8819 15.6622 15.8875 15.6591 15.8929C15.6579 15.8949 15.6565 15.897 15.6547 15.8992H15.6753V15.9067C15.6753 15.9096 15.6759 15.9109 15.6762 15.9115C15.6764 15.9119 15.6767 15.9121 15.6772 15.9123C15.679 15.9128 15.6826 15.9126 15.6879 15.9109C15.6929 15.9092 15.6981 15.9066 15.7021 15.9044C15.7041 15.9033 15.7058 15.9023 15.7069 15.9016L15.7082 15.9008L15.7085 15.9005L15.7086 15.9005M15.5854 15.8243C15.5816 15.8244 15.5786 15.8245 15.5761 15.8247C15.5723 15.8251 15.5704 15.8258 15.5689 15.8268C15.5675 15.8278 15.5658 15.8295 15.5635 15.8334C15.5611 15.8372 15.5584 15.8425 15.5546 15.8501L15.5404 15.8468V15.7718C15.5404 15.7655 15.5436 15.7599 15.548 15.7555C15.5524 15.7511 15.5585 15.7474 15.5656 15.7443C15.5799 15.7382 15.5996 15.7344 15.6229 15.7344C15.6785 15.7344 15.7178 15.7662 15.7481 15.7965C15.7547 15.8031 15.7607 15.8095 15.7664 15.8155C15.7741 15.8236 15.7811 15.8311 15.7881 15.8375C15.8003 15.8487 15.8096 15.8543 15.8177 15.8543C15.819 15.8543 15.8214 15.8536 15.8254 15.8507C15.8292 15.8478 15.8336 15.8437 15.8389 15.8384C15.8405 15.8368 15.8422 15.8351 15.844 15.8332C15.8534 15.8237 15.8649 15.812 15.8787 15.8015C15.8953 15.7888 15.9155 15.7774 15.9405 15.7722C15.9656 15.767 15.995 15.7681 16.0299 15.7797L16.0303 15.7799L16.2562 15.8702L16.2562 15.8703C16.2761 15.8823 16.2851 15.8956 16.2851 15.9107C16.2851 15.9246 16.2772 15.9381 16.2699 15.95C16.2691 15.9514 16.2682 15.9527 16.2674 15.9541C16.2605 15.9652 16.2541 15.9755 16.2511 15.9863C16.2479 15.9976 16.2486 16.0092 16.2583 16.0221C16.2636 16.0291 16.2723 16.0384 16.2839 16.0499C16.2898 16.0558 16.2961 16.062 16.3029 16.0686C16.3097 16.0752 16.3169 16.0823 16.3246 16.0899C16.3551 16.1202 16.391 16.1575 16.4231 16.2001C16.4873 16.285 16.5379 16.3926 16.4992 16.5086L16.4992 16.5087C16.4609 16.6159 16.3843 16.677 16.3184 16.7222C16.3088 16.7288 16.2994 16.735 16.2905 16.7409C16.2686 16.7556 16.249 16.7686 16.2335 16.7817C16.2116 16.8001 16.1999 16.8169 16.1999 16.8359V16.8371L16.1995 16.8383C16.1984 16.8416 16.1988 16.8442 16.2008 16.8471C16.2031 16.8503 16.2076 16.854 16.2151 16.8576C16.23 16.865 16.2536 16.8712 16.2842 16.8763C16.3453 16.8865 16.4315 16.8921 16.5243 16.8959C16.5811 16.8982 16.6402 16.8998 16.6972 16.9013C16.7332 16.9023 16.7684 16.9032 16.8017 16.9043C16.8875 16.9071 16.9611 16.9108 17.003 16.9185C17.1195 16.9396 17.2233 17.0051 17.2925 17.1013L17.3005 17.1125L16.9851 17.1282M16.0249 15.7939C15.9924 15.7831 15.9657 15.7823 15.9436 15.7869C15.9213 15.7915 15.9031 15.8017 15.8878 15.8134C15.8749 15.8233 15.8643 15.834 15.8548 15.8436C15.853 15.8455 15.8512 15.8473 15.8495 15.849C15.8442 15.8543 15.8391 15.8592 15.8342 15.8627C15.8295 15.8662 15.8239 15.8693 15.8177 15.8693C15.8033 15.8693 15.7902 15.8598 15.778 15.8485C15.7708 15.8419 15.763 15.8337 15.7549 15.8251C15.7492 15.8192 15.7434 15.813 15.7375 15.8071C15.7078 15.7774 15.6722 15.7494 15.6229 15.7494C15.6011 15.7494 15.5835 15.753 15.5715 15.7581C15.5655 15.7607 15.5612 15.7635 15.5586 15.7661M13.5608 16.1959C13.5544 16.2095 13.5509 16.2293 13.5502 16.2516C13.5495 16.2745 13.5518 16.2992 13.5564 16.3211C13.561 16.3432 13.5678 16.3617 13.5755 16.3726C13.5794 16.3781 13.583 16.3809 13.586 16.3819C13.5886 16.3828 13.5915 16.3827 13.5955 16.3801L13.5974 16.3788H13.5996C13.6034 16.3788 13.6051 16.3777 13.6062 16.3763C13.6076 16.3746 13.6089 16.3716 13.6095 16.3664C13.6108 16.3561 13.6091 16.3417 13.6072 16.3254C13.6053 16.3097 13.6033 16.2924 13.6048 16.278C13.6063 16.2637 13.6117 16.2495 13.6272 16.2443L13.6274 16.2443C13.7252 16.2142 13.827 16.1989 13.9293 16.199M13.5608 16.1959C13.5655 16.1916 13.5729 16.1872 13.5831 16.1829C13.5939 16.1784 13.6075 16.1742 13.6234 16.1704C13.6552 16.1628 13.6961 16.1568 13.7428 16.1521C13.8361 16.1428 13.952 16.139 14.0642 16.139C14.1762 16.139 14.2918 16.1502 14.3812 16.1688C14.4259 16.1782 14.4637 16.1893 14.4911 16.2016C14.5048 16.2078 14.5156 16.2141 14.5233 16.2205C14.5311 16.2269 14.5352 16.2329 14.5365 16.2383L14.5367 16.2391L14.5371 16.2398C14.539 16.2435 14.5382 16.2496 14.5319 16.2609C14.5275 16.2686 14.5215 16.2772 14.5145 16.2871C14.5117 16.2911 14.5088 16.2952 14.5058 16.2996C14.4852 16.3296 14.4616 16.3685 14.4614 16.4157L14.4013 16.8063L14.4017 16.8078C14.4029 16.8129 14.402 16.8188 14.398 16.8259C14.3939 16.8331 14.3869 16.841 14.3769 16.8494C14.3571 16.8661 14.3269 16.8835 14.2897 16.9003C14.2155 16.9337 14.1151 16.9634 14.0184 16.9783C13.912 16.986 13.8468 17.0241 13.808 17.0609C13.7887 17.0793 13.7761 17.0972 13.7683 17.1106C13.7644 17.1173 13.7617 17.1229 13.76 17.1268C13.7591 17.1288 13.7585 17.1303 13.7581 17.1314L13.7576 17.1327L13.7574 17.1331L13.7574 17.1332M14.2414 16.3324C14.2473 16.34 14.2516 16.3482 14.2516 16.3563C14.2516 16.3563 14.2516 16.3568 14.252 16.3583C14.2523 16.3596 14.2529 16.3614 14.2536 16.3635C14.2543 16.3656 14.2551 16.3681 14.2561 16.3708C14.257 16.3735 14.2581 16.3765 14.2591 16.3797C14.2634 16.3925 14.2683 16.409 14.2703 16.4267C14.2722 16.4443 14.2713 16.4635 14.2636 16.4815C14.2558 16.4997 14.2414 16.5159 14.2175 16.5279L14.2165 16.5284C14.066 16.5783 13.9073 16.5987 13.7491 16.5886C13.5915 16.5804 13.4373 16.5393 13.2965 16.4679L13.2953 16.4673L13.2954 16.4672C13.2642 16.4438 13.2373 16.4052 13.2184 16.3712C13.2089 16.3541 13.2013 16.3379 13.196 16.325C13.1934 16.3185 13.1913 16.3128 13.1899 16.3081C13.1885 16.3037 13.1875 16.2995 13.1875 16.2964M14.2414 16.3324C14.2353 16.3246 14.2268 16.3164 14.2164 16.3081ZM14.2164 16.3081C14.1958 16.2915 14.1672 16.2739 14.135 16.2578ZM14.135 16.2578C14.0709 16.2258 13.991 16.199 13.9293 16.199Z" fill="#808080"/>
<path fill-rule="evenodd" clip-rule="evenodd" d="M15.9259 15.92C15.9259 15.9259 15.9247 15.9317 15.9224 15.9372C15.9202 15.9426 15.9169 15.9476 15.9127 15.9518C15.9085 15.9559 15.9036 15.9592 15.8981 15.9615C15.8926 15.9638 15.8868 15.9649 15.8809 15.9649C15.875 15.9649 15.8691 15.9638 15.8637 15.9615C15.8582 15.9592 15.8533 15.9559 15.8491 15.9518C15.8449 15.9476 15.8416 15.9426 15.8394 15.9372C15.8371 15.9317 15.8359 15.9259 15.8359 15.92C15.8359 15.908 15.8407 15.8966 15.8491 15.8882C15.8575 15.8797 15.869 15.875 15.8809 15.875C15.8928 15.875 15.9043 15.8797 15.9127 15.8882C15.9211 15.8966 15.9259 15.908 15.9259 15.92V15.92Z" fill="black"/>
<path d="M18.2487 15.2183L18.4885 15.2632L18.8932 14.9935L18.8632 15.1433L18.6534 15.2782L18.5335 15.3381L18.6084 15.458L18.7433 15.6679L18.7133 15.8177L18.4585 15.3831L18.2187 15.3381L18.2487 15.2183V15.2183ZM17.8441 13.4498L18.2937 13.24L18.1738 12.9702L18.2337 12.9402L18.5335 13.5997L18.4885 13.6296L18.3536 13.3449L17.904 13.5697L17.8441 13.4498V13.4498ZM17.1247 12.5806L17.5443 12.1909L17.6343 12.2808V12.9402L17.964 12.6405L18.0389 12.7304L17.6193 13.1201L17.5293 13.0302V12.3707L17.1996 12.6705L17.1247 12.5806ZM15.2663 11.8312L15.3413 11.2617H15.4612L15.3862 11.7863L15.8358 11.8312V11.9062L15.2663 11.8312ZM14.3521 11.9211L14.2472 11.3516L14.3671 11.3217L14.457 11.8312L14.9066 11.7413V11.8162L14.3521 11.9211V11.9211ZM12.6586 12.7454L12.6137 12.7005L12.9134 12.4607L13.0633 12.6105C13.0311 12.6753 12.9908 12.7358 12.9434 12.7904C12.9045 12.8455 12.8592 12.8958 12.8085 12.9402C12.7452 12.9909 12.6744 13.0313 12.5987 13.0601C12.5237 13.0751 12.4488 13.0901 12.4038 13.0601C12.3465 13.054 12.2933 13.0274 12.254 12.9852C12.2236 12.9412 12.2079 12.8888 12.209 12.8353C12.209 12.7754 12.224 12.7005 12.269 12.6405C12.2989 12.5806 12.3589 12.5206 12.4188 12.4757C12.4687 12.4334 12.5242 12.3981 12.5837 12.3707L12.7186 12.3408C12.7485 12.3408 12.7935 12.3408 12.8235 12.3707L12.7635 12.4457C12.7352 12.4336 12.7043 12.4285 12.6736 12.4307L12.5837 12.4457C12.5455 12.4658 12.5102 12.491 12.4788 12.5206C12.4338 12.5506 12.3888 12.5806 12.3739 12.6255C12.3486 12.6516 12.3283 12.6821 12.3139 12.7154V12.7904C12.3139 12.8353 12.3289 12.8803 12.3589 12.9103L12.4638 12.9852L12.6137 12.9702C12.7516 12.912 12.8635 12.8054 12.9284 12.6705L12.8684 12.5806L12.6586 12.7454V12.7454ZM12.6436 16.8968L12.164 17.2415L11.8044 16.7319L11.8643 16.687L12.164 17.0916L12.2989 16.9867L12.0591 16.642L12.1041 16.612L12.3589 16.9567L12.5687 16.8069L12.6436 16.8968V16.8968ZM11.9392 16.1474C12.0142 16.1325 12.0591 16.0875 12.0891 16.0126V15.7878C12.0655 15.7104 12.0183 15.6423 11.9542 15.5929C11.9093 15.548 11.8343 15.533 11.7744 15.548C11.727 15.5583 11.6846 15.5848 11.6545 15.6229C11.6395 15.6529 11.6095 15.6978 11.6095 15.7428L11.6245 15.9077C11.6545 15.9976 11.6845 16.0575 11.7444 16.1175C11.7894 16.1624 11.8643 16.1774 11.9392 16.1474V16.1474ZM11.9842 16.2673C11.9403 16.2813 11.8934 16.2831 11.8485 16.2726C11.8037 16.262 11.7625 16.2395 11.7294 16.2074C11.6495 16.1354 11.5922 16.0416 11.5646 15.9376C11.5346 15.8477 11.5346 15.7878 11.5346 15.6978C11.5346 15.6079 11.5646 15.5779 11.5945 15.533C11.6287 15.4796 11.6826 15.4419 11.7444 15.4281C11.7947 15.4168 11.8472 15.4221 11.8943 15.4431C11.9542 15.473 11.9992 15.503 12.0441 15.563C12.1362 15.6939 12.1787 15.8532 12.164 16.0126C12.1586 16.0718 12.138 16.1286 12.1041 16.1774C12.0741 16.2224 12.0292 16.2523 11.9842 16.2673V16.2673ZM12.0292 15.0984H11.4297V14.6787L11.4597 14.4989L11.5196 14.394C11.5318 14.3831 11.546 14.3749 11.5615 14.3697C11.5769 14.3646 11.5933 14.3626 11.6095 14.364C11.6545 14.364 11.6845 14.379 11.7144 14.4239C11.7294 14.4689 11.7594 14.5289 11.7594 14.6188C11.7792 14.5555 11.8154 14.4986 11.8643 14.4539L12.0292 14.3041V14.4539L11.9093 14.5588L11.8193 14.6488C11.8015 14.6664 11.7863 14.6866 11.7744 14.7087C11.7719 14.7286 11.7719 14.7487 11.7744 14.7686V14.8286L11.7594 14.9785H12.0292V15.0984V15.0984ZM11.6995 14.9635V14.7087C11.7045 14.6639 11.7045 14.6186 11.6995 14.5738C11.6941 14.5518 11.6839 14.5313 11.6695 14.5139C11.6587 14.4986 11.6427 14.4879 11.6245 14.4839C11.5945 14.4839 11.5646 14.4989 11.5496 14.5289L11.5196 14.6787V14.9785H11.7144L11.6995 14.9635ZM13.303 12.4307V11.7563L13.4229 11.6814L14.0374 11.9811L13.9175 12.056L13.7377 11.9661L13.4229 12.1609V12.3707L13.303 12.4307V12.4307ZM13.408 12.086L13.6777 11.9361L13.5278 11.8462C13.4814 11.824 13.4363 11.799 13.393 11.7713L13.408 11.8912V12.086V12.086ZM16.1955 11.9062L16.825 11.6514L16.9299 11.7263L16.8849 12.4157L16.78 12.3258L16.795 12.131L16.4953 11.9062L16.3004 11.9811L16.1955 11.9062V11.9062ZM16.5552 11.8762L16.81 12.056V11.8762C16.8169 11.8257 16.8269 11.7756 16.8399 11.7263C16.808 11.7553 16.7728 11.7804 16.735 11.8012L16.5552 11.8762ZM18.0988 14.0193L18.6683 13.8844L18.7583 14.2891L18.7882 14.4689L18.7583 14.5738C18.7506 14.5884 18.74 14.6013 18.7271 14.6116C18.7142 14.6219 18.6993 14.6295 18.6833 14.6338C18.6384 14.6338 18.5934 14.6338 18.5634 14.6038C18.5139 14.5536 18.4778 14.4918 18.4585 14.4239C18.461 14.4489 18.461 14.474 18.4585 14.4989L18.3986 14.6188L18.2787 14.7986L18.2487 14.6488L18.3386 14.4989L18.3986 14.409C18.4189 14.3723 18.4292 14.331 18.4286 14.2891C18.4253 14.2638 18.4203 14.2387 18.4136 14.2141L18.3836 14.0793L18.1288 14.1392L18.0988 14.0193V14.0193ZM18.4435 14.0643L18.5035 14.319C18.5035 14.364 18.5335 14.409 18.5485 14.4389C18.5485 14.4689 18.5784 14.4839 18.5934 14.4989L18.6534 14.5139C18.6683 14.5139 18.6983 14.4839 18.6983 14.4539C18.7104 14.4047 18.7104 14.3533 18.6983 14.3041L18.6234 14.0193L18.4435 14.0643V14.0643Z" fill="#D0D0D0"/>
</g>
<defs>
<clipPath id="clip0_4046_23455">
<rect width="60" height="45" fill="white"/>
</clipPath>
</defs>
</svg>
