<svg width="60" height="45" viewBox="0 0 60 45" fill="none" xmlns="http://www.w3.org/2000/svg">
<g clip-path="url(#clip0_4046_23513)">
<path fill-rule="evenodd" clip-rule="evenodd" d="M0 0H60V45H0V0Z" fill="#F41408"/>
<path fill-rule="evenodd" clip-rule="evenodd" d="M0 30H60V45H0V30Z" fill="#21873B"/>
<path fill-rule="evenodd" clip-rule="evenodd" d="M0 0H60V15H0V0Z" fill="black"/>
<path fill-rule="evenodd" clip-rule="evenodd" d="M20.6698 13.2188C22.7605 8.60625 28.5917 6.39375 33.6823 8.29688C34.8771 8.7019 35.976 9.34765 36.9113 10.1942C37.8465 11.0408 38.5982 12.0702 39.1198 13.2188H20.6698ZM18.2323 13.8187C16.578 13.7061 14.9353 13.4616 13.3198 13.0875C12.9355 12.9656 12.9167 12.75 12.9636 12.5906C13.0105 12.4313 13.2542 12.2531 13.5448 12.3094C14.0698 12.4406 16.2448 12.9656 18.2323 13.8187V13.8187ZM29.9136 5.76562C29.5198 3.79688 29.4261 1.64062 29.4636 1.26562C29.5011 0.9 29.7167 0.84375 29.9042 0.84375C30.0917 0.84375 30.3448 1.0125 30.3448 1.28437C30.3448 1.78125 30.3355 3.81563 29.9136 5.78438V5.76562ZM31.0011 5.8125C30.8456 4.3107 30.8362 2.79737 30.973 1.29375C31.048 0.928125 31.273 0.88125 31.4511 0.9C31.6386 0.909375 31.873 1.09688 31.8448 1.36875C31.798 1.86563 31.6011 3.89062 31.0011 5.8125ZM31.9761 5.93437C31.9573 3.9375 32.2573 1.78125 32.3605 1.43438C32.4636 1.06875 32.698 1.04062 32.8761 1.06875C33.0636 1.09687 33.2792 1.30313 33.2323 1.56563C33.1386 2.0625 32.7448 4.05937 31.9761 5.93437V5.93437ZM33.0073 6.14062C33.1761 4.15312 33.6917 2.03438 33.8323 1.6875C33.973 1.34062 34.2073 1.33125 34.3761 1.36875C34.5636 1.41563 34.7511 1.63125 34.6855 1.89375C34.5355 2.37188 33.9636 4.33125 33.0167 6.14062H33.0073ZM34.0292 6.44062C34.3948 4.47187 35.1073 2.4 35.2761 2.0625C35.4542 1.73438 35.6792 1.73438 35.8573 1.79063C36.0261 1.84688 36.2042 2.09062 36.1105 2.33437C35.5458 3.76481 34.849 5.13951 34.0292 6.44062V6.44062ZM34.9761 6.79688C35.5198 4.85625 36.4292 2.85938 36.6355 2.53125C36.8417 2.2125 37.0667 2.24063 37.2355 2.31563C37.4042 2.38125 37.5542 2.63438 37.4323 2.87813C37.198 3.32813 36.2605 5.16563 34.9761 6.79688ZM35.9136 7.2375C36.4712 5.80428 37.1617 4.4264 37.9761 3.12187C38.2011 2.82187 38.4355 2.86875 38.5948 2.95312C38.642 2.98107 38.6832 3.01814 38.7158 3.06217C38.7485 3.10619 38.7721 3.1563 38.7852 3.20954C38.7983 3.26279 38.8006 3.31811 38.7921 3.37228C38.7836 3.42644 38.7643 3.47836 38.7355 3.525C38.4542 3.95625 37.3386 5.71875 35.9136 7.2375ZM36.7948 7.75312C37.7042 5.93437 38.9792 4.09688 39.2417 3.81563C39.5042 3.53438 39.7292 3.6 39.8792 3.69375C39.924 3.72543 39.9619 3.76571 39.9909 3.81223C40.0199 3.85875 40.0393 3.91059 40.0481 3.9647C40.0568 4.01882 40.0546 4.07413 40.0418 4.12741C40.0289 4.18069 40.0055 4.23086 39.973 4.275C39.6448 4.6875 38.3605 6.34687 36.7855 7.74375L36.7948 7.75312ZM37.6198 8.33438C38.7073 6.59063 40.1511 4.86563 40.4417 4.6125C40.723 4.35 40.948 4.425 41.0886 4.5375C41.1296 4.57319 41.163 4.6168 41.1867 4.66571C41.2104 4.71462 41.224 4.76783 41.2266 4.82213C41.2293 4.87642 41.2209 4.93069 41.202 4.98167C41.1831 5.03264 41.1541 5.07927 41.1167 5.11875C40.7605 5.50312 39.3261 7.05938 37.6198 8.33438ZM38.398 8.98125C39.3491 7.72738 40.4095 6.56031 41.5667 5.49375C41.8761 5.25937 42.0823 5.35312 42.2136 5.46562C42.2525 5.50526 42.2827 5.55249 42.3025 5.60436C42.3223 5.65623 42.3311 5.71163 42.3285 5.76708C42.3258 5.82253 42.3118 5.87683 42.2872 5.92659C42.2625 5.97635 42.2279 6.02049 42.1855 6.05625C41.8011 6.4125 40.2167 7.84688 38.398 8.98125ZM39.1105 9.68438C40.173 8.50886 41.3403 7.43254 42.598 6.46875C42.9355 6.25313 43.1323 6.36563 43.2542 6.49688C43.3667 6.61875 43.3948 6.90938 43.1605 7.07812C41.8859 8.05886 40.5311 8.93068 39.1105 9.68438V9.68438ZM39.7198 10.4156C40.892 9.32447 42.156 8.33643 43.498 7.4625C43.8448 7.275 44.0323 7.40625 44.1355 7.54688C44.248 7.67812 44.2386 7.96875 44.0042 8.11875C43.5542 8.4 41.7261 9.58125 39.7198 10.4156V10.4156ZM40.273 11.1938C41.5408 10.2046 42.8892 9.32334 44.3042 8.55938C44.6792 8.4 44.8573 8.54062 44.9511 8.68125C45.0448 8.83125 45.0073 9.1125 44.7636 9.24375C43.3192 10.0152 41.8142 10.6673 40.2636 11.1938H40.273ZM40.7792 12.0938C42.1448 11.2139 43.5809 10.4487 45.073 9.80625C45.4573 9.675 45.6167 9.83437 45.6917 9.98438C45.7761 10.1344 45.7198 10.4156 45.448 10.5281C44.9511 10.7344 42.9167 11.5969 40.7792 12.0938ZM41.173 12.9562C42.6172 12.1845 44.1223 11.5323 45.673 11.0063C46.0667 10.9125 46.2073 11.0813 46.273 11.2406C46.3292 11.3906 46.2448 11.6719 45.973 11.7563C45.4573 11.9344 43.348 12.6281 41.173 12.9562ZM41.4917 13.875C43.0025 13.2214 44.5639 12.6916 46.1605 12.2906C46.5542 12.2344 46.6855 12.4031 46.7323 12.5719C46.7792 12.7313 46.6667 12.9937 46.3855 13.0687C45.8511 13.1906 43.6855 13.725 41.4917 13.875V13.875ZM28.8542 5.8125C28.4095 4.36379 28.105 2.8757 27.9448 1.36875C27.9448 1.00313 28.1605 0.91875 28.3386 0.9C28.5261 0.890625 28.8073 1.04062 28.8261 1.30312C28.873 1.8 29.0698 3.825 28.8636 5.8125H28.8542ZM27.823 5.93437C27.2366 4.53111 26.7876 3.07429 26.4823 1.58437C26.4448 1.20937 26.6511 1.11563 26.8292 1.0875C27.0167 1.05938 27.298 1.18125 27.3542 1.44375C27.6475 2.92314 27.8044 4.42631 27.823 5.93437V5.93437ZM26.7917 6.14062C26.0717 4.78694 25.4816 3.3681 25.0292 1.90312C24.9542 1.5375 25.1511 1.425 25.3292 1.37812C25.5073 1.34062 25.798 1.43438 25.8823 1.69688C26.023 2.175 26.6042 4.13438 26.7823 6.13125L26.7917 6.14062ZM25.8073 6.42188C24.9697 5.13187 24.2541 3.76659 23.6698 2.34375C23.5667 1.9875 23.7448 1.85625 23.9136 1.8C24.0917 1.74375 24.3917 1.81875 24.4948 2.0625C24.6823 2.53125 25.4511 4.44375 25.8073 6.4125V6.42188ZM24.8605 6.75C23.8995 5.53326 23.0522 4.23093 22.3292 2.85938C22.198 2.5125 22.3667 2.3625 22.5355 2.29688C22.7042 2.22187 23.0042 2.27812 23.1355 2.52187C23.3698 2.97187 24.3073 4.81875 24.8605 6.75ZM23.8948 7.21875C22.8168 6.08429 21.844 4.85424 20.9886 3.54375C20.8292 3.21562 20.9792 3.05625 21.1386 2.97188C21.298 2.8875 21.6073 2.91562 21.7573 3.15C22.0386 3.58125 23.1636 5.33437 23.8948 7.21875ZM23.0136 7.725C21.8361 6.67576 20.7538 5.5244 19.7792 4.28438C19.5823 3.96563 19.7136 3.79688 19.873 3.69375C20.0136 3.6 20.3417 3.6 20.5011 3.825C20.8198 4.22812 22.1042 5.8875 23.0136 7.71563V7.725ZM22.198 8.2875C20.9235 7.33339 19.7346 6.26999 18.6448 5.10938C18.4198 4.80937 18.5417 4.64062 18.6823 4.52812C18.7814 4.46672 18.8984 4.44071 19.0142 4.45433C19.13 4.46795 19.2377 4.5204 19.3198 4.60312C19.6761 4.97812 21.1198 6.54375 22.198 8.2875ZM21.4011 8.94375C20.0399 8.09609 18.7539 7.13318 17.5573 6.06562C17.2948 5.78437 17.398 5.59688 17.5292 5.475C17.624 5.40509 17.7399 5.36975 17.8576 5.37487C17.9753 5.37998 18.0877 5.42525 18.1761 5.50313C18.5698 5.85 20.1448 7.28438 21.4011 8.93438V8.94375ZM20.7073 9.6C19.272 8.86034 17.9015 8.00105 16.6105 7.03125C16.3292 6.76875 16.4136 6.58125 16.5355 6.45C16.648 6.31875 16.9573 6.25313 17.1823 6.42188C18.4475 7.38018 19.627 8.4467 20.7073 9.60938V9.6ZM20.0511 10.3687C18.548 9.74635 17.0992 9.00003 15.7198 8.1375C15.4105 7.90313 15.4761 7.69687 15.5792 7.56562C15.6823 7.425 15.9823 7.33125 16.2261 7.48125C16.6761 7.77188 18.5042 8.93437 20.0511 10.3687ZM19.4605 11.1938C17.3792 10.5375 15.2511 9.54375 14.923 9.32812C14.5855 9.12187 14.6417 8.91563 14.7261 8.76562C14.8105 8.61562 15.1011 8.50312 15.3636 8.63437C15.8323 8.8875 17.7823 9.9 19.4605 11.1938V11.1938ZM18.9636 12.0375C16.8261 11.5406 14.623 10.725 14.2667 10.5375C13.9198 10.35 13.9386 10.1437 14.023 9.99375C14.098 9.84375 14.3698 9.70312 14.6417 9.80625C15.1386 10.0219 17.173 10.875 18.9636 12.0375ZM18.5698 12.8812C16.9355 12.63 15.324 12.2475 13.7511 11.7375C13.3761 11.5875 13.3948 11.3719 13.4511 11.2219C13.5167 11.0625 13.7792 10.9031 14.0511 10.9875C14.5761 11.1656 16.6761 11.8594 18.5698 12.8812Z" fill="#F31509"/>
<path fill-rule="evenodd" clip-rule="evenodd" d="M18.2323 13.8169C16.578 13.7042 14.9353 13.4597 13.3198 13.0856C12.9355 12.9637 12.9167 12.7481 12.9636 12.5887C13.0105 12.4294 13.2542 12.2512 13.5448 12.3075C14.0698 12.4387 16.2448 12.9637 18.2323 13.8169V13.8169Z" fill="#F31509"/>
<path fill-rule="evenodd" clip-rule="evenodd" d="M12.1328 13.2656H47.8703V14.4469H12.1328V13.2656Z" fill="black"/>
</g>
<defs>
<clipPath id="clip0_4046_23513">
<rect width="60" height="45" fill="white"/>
</clipPath>
</defs>
</svg>
