<svg width="60" height="45" viewBox="0 0 60 45" fill="none" xmlns="http://www.w3.org/2000/svg">
<g clip-path="url(#clip0_4046_23968)">
<path d="M0 0H60V45H0V0Z" fill="#CC0000"/>
<path d="M0.046875 3.74219H59.9531V7.34219H0.046875V3.74219ZM0.046875 11.1203H59.9531V14.7203H0.046875V11.1203ZM0.046875 18.5078H59.9531V22.1078H0.046875V18.5078Z" fill="white"/>
<path d="M0 0.046875H30V26.2969H0V0.046875Z" fill="#000066"/>
<path d="M19.455 6.91875L20.0175 10.7344L22.1738 7.54688L21.0113 11.2219L24.3394 9.27188L21.705 12.0844L25.5488 11.7844L21.9581 13.1719L25.5488 14.5594L21.705 14.2594L24.3394 17.0719L21.0113 15.1219L22.1644 18.8063L20.0081 15.6094L19.4456 19.425L18.8925 15.6094L16.7363 18.7969L17.8988 15.1219L14.5706 17.0719L17.1956 14.2594L13.3519 14.5594L16.9519 13.1719L13.3613 11.7844L17.205 12.0844L14.5706 9.27188L17.8988 11.2219L16.7363 7.5375L18.8925 10.7344L19.455 6.91875ZM16.3331 7.07813C15.3184 6.62829 14.2073 6.439 13.1008 6.52744C11.9943 6.61588 10.9274 6.97925 9.99699 7.58457C9.06654 8.18988 8.30199 9.01798 7.77274 9.9937C7.24348 10.9694 6.96627 12.0619 6.96627 13.1719C6.96627 14.2819 7.24348 15.3743 7.77274 16.3501C8.30199 17.3258 9.06654 18.1539 9.99699 18.7592C10.9274 19.3645 11.9943 19.7279 13.1008 19.8163C14.2073 19.9048 15.3184 19.7155 16.3331 19.2656C15.2124 20.0698 13.8916 20.5492 12.516 20.6513C11.1404 20.7534 9.76331 20.4741 8.53614 19.8443C7.30898 19.2144 6.27929 18.2583 5.56031 17.0811C4.84134 15.9039 4.46094 14.5513 4.46094 13.1719C4.46094 11.7925 4.84134 10.4398 5.56031 9.26266C6.27929 8.08547 7.30898 7.12937 8.53614 6.49949C9.76331 5.86961 11.1404 5.59036 12.516 5.69245C13.8916 5.79453 15.2124 6.274 16.3331 7.07813V7.07813Z" fill="#FFCC00"/>
<path d="M0.046875 25.8945H59.9531V29.4945H0.046875V25.8945ZM0.046875 33.2258H59.9531V36.8258H0.046875V33.2258ZM0 41.4008H59.9062V45.0008H0V41.4008Z" fill="white"/>
</g>
<defs>
<clipPath id="clip0_4046_23968">
<rect width="60" height="45" fill="white"/>
</clipPath>
</defs>
</svg>
