<svg width="60" height="45" viewBox="0 0 60 45" fill="none" xmlns="http://www.w3.org/2000/svg">
<g clip-path="url(#clip0_4046_23974)">
<path fill-rule="evenodd" clip-rule="evenodd" d="M0 0H67.5V14.0625H0V0Z" fill="#009A00"/>
<path fill-rule="evenodd" clip-rule="evenodd" d="M0 14.0625H67.5V15.4688H0V14.0625Z" fill="white"/>
<path fill-rule="evenodd" clip-rule="evenodd" d="M0 15.4688H67.5V29.5312H0V15.4688Z" fill="black"/>
<path fill-rule="evenodd" clip-rule="evenodd" d="M0 29.5312H67.5V30.9375H0V29.5312Z" fill="white"/>
<path fill-rule="evenodd" clip-rule="evenodd" d="M0 30.9375H67.5V45H0V30.9375Z" fill="#FFCA00"/>
<path fill-rule="evenodd" clip-rule="evenodd" d="M0 0V45L29.5312 22.5L0 0Z" fill="#FF0000"/>
<path fill-rule="evenodd" clip-rule="evenodd" d="M17.4492 29.2656L12.9492 25.9697L8.44922 29.2656L10.1982 23.9658L5.67188 20.7051L11.2529 20.7227L12.9492 15.4141L14.6543 20.7314L20.2354 20.7051L15.709 23.9658L17.4492 29.2656Z" fill="#FFCA00"/>
<path fill-rule="evenodd" clip-rule="evenodd" d="M9.03125 25.5693H12.2832C12.5469 25.8594 13.1182 25.9824 13.6719 25.5693C14.6914 25.0068 16.6602 25.5693 16.6602 25.5693L17.0469 25.1563L16.1064 22.0625L15.7637 21.6934C15.7637 21.6934 15.0342 21.2539 13.6543 21.4033C12.2744 21.5527 11.791 21.3594 11.791 21.3594C11.791 21.3594 10.5869 21.5 10.2441 21.6758L9.85742 22.0625L9.03125 25.5693V25.5693Z" fill="white"/>
<path fill-rule="evenodd" clip-rule="evenodd" d="M11.8104 21.3121C11.8104 21.3121 11.8104 21.312 11.8104 21.3121C11.8104 21.312 11.8103 21.312 11.8103 21.312C11.8029 21.3091 11.7948 21.308 11.7869 21.3089L11.7925 21.3569C11.7869 21.3089 11.7869 21.3089 11.7869 21.3089L11.7833 21.3093L11.7731 21.3106C11.7641 21.3116 11.751 21.3132 11.7341 21.3154C11.7004 21.3196 11.6518 21.3258 11.5925 21.3337C11.474 21.3497 11.3122 21.3729 11.1397 21.4015C10.9672 21.4302 10.7834 21.4644 10.6208 21.5027C10.4596 21.5406 10.3149 21.5835 10.2235 21.6303C10.2191 21.6326 10.215 21.6356 10.2114 21.6392L9.8247 22.0259C9.81835 22.0322 9.81389 22.0402 9.81183 22.049L8.98591 25.5548C8.98491 25.5586 8.98438 25.5627 8.98438 25.5669C8.98438 25.5936 9.00602 25.6152 9.03271 25.6152H12.2637C12.5513 25.9135 13.1389 26.0242 13.6995 25.6077C14.1949 25.3359 14.9267 25.3339 15.5444 25.404C15.8521 25.4389 16.1284 25.4913 16.3277 25.535C16.4274 25.5569 16.5077 25.5765 16.5631 25.5907C16.5907 25.5977 16.6121 25.6034 16.6266 25.6074C16.6304 25.6084 16.6338 25.6093 16.6366 25.6101C16.6391 25.6108 16.6412 25.6114 16.643 25.6119L16.6471 25.613L16.6481 25.6133L16.6483 25.6134C16.6657 25.6183 16.6845 25.6132 16.6969 25.5999L17.0836 25.1868C17.0954 25.1742 17.0996 25.1563 17.0946 25.1398L16.1542 22.046C16.152 22.039 16.1483 22.0325 16.1433 22.0272L15.8006 21.658C15.7975 21.6547 15.794 21.6518 15.7901 21.6495L15.7651 21.6909C15.7901 21.6495 15.7901 21.6495 15.7901 21.6495L15.7898 21.6493L15.7892 21.649L15.7873 21.6479C15.7857 21.6469 15.7833 21.6456 15.7802 21.6438C15.7741 21.6404 15.7651 21.6355 15.7533 21.6294C15.7297 21.6172 15.6948 21.6001 15.6488 21.5802C15.5567 21.5404 15.42 21.4893 15.2399 21.443C14.8798 21.3505 14.3466 21.2775 13.6506 21.3528C12.9634 21.4272 12.501 21.4161 12.2115 21.3868C12.0668 21.3722 11.9654 21.353 11.9007 21.3378C11.8683 21.3301 11.8452 21.3235 11.8304 21.3188C11.823 21.3165 11.8177 21.3147 11.8145 21.3135C11.8128 21.3129 11.8117 21.3125 11.811 21.3123L11.8104 21.3121ZM15.7347 21.7291C15.7341 21.7288 15.7336 21.7285 15.733 21.7282C15.7278 21.7253 15.7197 21.7209 15.7089 21.7153C15.6872 21.704 15.6543 21.6879 15.6104 21.669C15.5226 21.631 15.3907 21.5816 15.2159 21.5367C14.8663 21.4469 14.3448 21.3749 13.661 21.4489C12.9682 21.5239 12.499 21.5131 12.2018 21.483C12.0532 21.468 11.9475 21.4482 11.8785 21.4319C11.8439 21.4237 11.8185 21.4164 11.8015 21.4111C11.7956 21.4092 11.7908 21.4076 11.7868 21.4063L11.7847 21.4065C11.7758 21.4076 11.7628 21.4092 11.7461 21.4113C11.7126 21.4155 11.6644 21.4216 11.6054 21.4296C11.4875 21.4454 11.3268 21.4684 11.1555 21.4969C10.9841 21.5254 10.8026 21.5592 10.643 21.5968C10.4865 21.6336 10.355 21.6731 10.2743 21.713L9.90279 22.0845L9.09377 25.5186H12.2847C12.2983 25.5186 12.3113 25.5243 12.3204 25.5344C12.5655 25.8039 13.1083 25.9281 13.6444 25.5281C13.6462 25.5268 13.6481 25.5256 13.65 25.5246C14.1741 25.2354 14.9348 25.2375 15.5553 25.3079C15.8671 25.3433 16.1468 25.3964 16.3484 25.4406C16.4493 25.4627 16.5307 25.4826 16.587 25.497C16.6118 25.5033 16.6317 25.5086 16.6463 25.5125L16.994 25.1412L16.0649 22.0848L15.7347 21.7291Z" fill="black"/>
<path fill-rule="evenodd" clip-rule="evenodd" d="M12.3305 25.584C12.5473 25.7355 12.7554 25.8032 12.9639 25.7973C13.1726 25.7914 13.3873 25.7116 13.617 25.5581C13.4635 25.3719 13.2504 25.2264 13.0003 25.1136C12.8012 25.209 12.6482 25.3081 12.5367 25.3939C12.4642 25.4498 12.4093 25.4999 12.3708 25.5395C12.354 25.5569 12.3407 25.5718 12.3305 25.584ZM12.8827 25.064C12.7137 25.1506 12.5798 25.2388 12.4777 25.3173C12.4018 25.3758 12.3434 25.4289 12.3014 25.4722C12.2605 25.5144 12.2326 25.5497 12.2205 25.5724C12.2093 25.5935 12.2152 25.6197 12.2344 25.634C12.4783 25.8146 12.7194 25.9009 12.9666 25.8939C13.2131 25.887 13.4595 25.7875 13.7148 25.6083C13.7255 25.6008 13.7327 25.5892 13.7348 25.5763C13.7368 25.5633 13.7335 25.5501 13.7256 25.5396C13.5734 25.3382 13.3616 25.182 13.1156 25.061C13.1405 25.0503 13.166 25.0397 13.192 25.0291C13.7822 24.7909 14.6943 24.6113 16.0096 24.7905C16.036 24.7941 16.0604 24.7756 16.064 24.7491C16.0676 24.7227 16.0491 24.6983 16.0226 24.6947C14.6924 24.5135 13.7632 24.6943 13.1559 24.9395C13.1009 24.9616 13.0486 24.9843 12.9989 25.0073C12.903 24.966 12.8029 24.9295 12.6998 24.8971C12.2785 24.7649 11.8034 24.7016 11.3585 24.6757C10.9134 24.6497 10.4967 24.661 10.1914 24.6788C10.0387 24.6877 9.91373 24.6982 9.82687 24.7065C9.78343 24.7107 9.74951 24.7143 9.7264 24.7169C9.71485 24.7181 9.706 24.7192 9.70001 24.7199L9.69319 24.7207L9.69143 24.7209L9.69084 24.721C9.69081 24.721 9.69079 24.721 9.69678 24.769L9.69084 24.721C9.66435 24.7243 9.6455 24.7485 9.64881 24.775C9.65213 24.8014 9.67629 24.8202 9.70278 24.8169L9.69678 24.769C9.70278 24.8169 9.70276 24.8169 9.70278 24.8169L9.70326 24.8169L9.70487 24.8167L9.71136 24.8159C9.71713 24.8152 9.72576 24.8142 9.73708 24.813C9.75973 24.8104 9.79316 24.8069 9.83607 24.8028C9.9219 24.7946 10.0456 24.7842 10.197 24.7753C10.4998 24.7577 10.9126 24.7465 11.3529 24.7722C11.7935 24.7979 12.26 24.8604 12.6709 24.9894C12.7435 25.0122 12.8142 25.037 12.8827 25.064Z" fill="black"/>
<path fill-rule="evenodd" clip-rule="evenodd" d="M12.9297 25.082L12.9561 21.6719L13.0615 21.6727L13.0352 25.0828L12.9297 25.082ZM16.2971 24.4431L15.717 21.7272L15.8201 21.7052L16.4002 24.421L16.2971 24.4431Z" fill="black"/>
<path fill-rule="evenodd" clip-rule="evenodd" d="M10.2907 21.6263C10.3167 21.6323 10.3329 21.6582 10.3269 21.6842L10.0017 23.0905C9.99568 23.1165 9.96972 23.1327 9.94371 23.1267C9.9177 23.1207 9.90149 23.0947 9.9075 23.0687L10.2327 21.6625C10.2387 21.6364 10.2647 21.6202 10.2907 21.6263Z" fill="black"/>
<path fill-rule="evenodd" clip-rule="evenodd" d="M6.9375 25.9375L7.69336 26.834C7.78125 26.8867 7.86914 26.8867 7.94824 26.834L9.07324 25.4805L9.54785 24.8916C9.62695 24.8037 9.64453 24.707 9.63574 24.6279L10.5498 23.8105L10.7432 23.8281C10.6553 23.8105 10.5937 23.7666 10.6553 23.6699L10.8662 23.5117L11.0244 23.7139C11.0244 23.7139 10.7959 24.0127 10.7695 24.0127H10.5234L10.0488 24.4434L10.2598 24.6191L10.5674 25.4805L10.9541 25.208L10.708 24.3291L11.2441 23.7402L11.042 23.4238L11.1826 23.248C11.1826 23.248 13.0547 24.4258 13.7842 24.1094C13.8018 24.1094 13.8281 23.2656 13.8281 23.2656C13.8281 23.2656 11.877 23.0635 11.833 22.6768C11.7891 22.29 12.2725 22.2373 12.2725 22.2373L12.0615 21.9561L12.1055 21.7979L12.4482 22.2197L13.2129 21.5693L17.7393 26.7197C17.9854 26.623 18.0381 26.5615 18.0557 26.3154L13.626 21.2266L13.96 20.8662C14.0303 20.7871 14.0479 20.7607 14.0479 20.6377L14.5752 20.1895C14.7133 20.2368 14.8311 20.3298 14.9092 20.4531L16.3506 19.249C16.3857 19.2842 16.5 19.3193 16.5791 19.2842L18.9434 17.0078L16.3682 18.8271L16.2803 18.7656C16.2803 18.6865 16.3682 18.6777 16.2803 18.5371C16.1748 18.4141 16.0254 18.6514 16.0078 18.6514C15.9814 18.6514 15.6299 18.5283 15.5508 18.3701L15.5332 18.7832L14.874 19.3984L14.373 19.3721L13.6523 20.0752L13.5645 20.3389L13.6787 20.5762C13.6787 20.5762 13.292 20.9102 13.292 20.8926C13.292 20.8662 13.2129 20.7871 13.2041 20.7783L13.5381 20.4795L13.582 20.2773L13.4766 20.1016C13.4414 20.1279 13.0195 20.5762 12.9932 20.5234L11.7627 19.1611L11.833 18.9063L11.0684 18.0713C10.7871 17.9746 10.3389 17.957 10.251 18.5723C10.1807 18.7129 9.60059 18.5898 9.60059 18.5898L9.28418 18.6602L7.49121 21.1826L8.48437 22.3779L10.5234 19.8027L10.585 19.0732L11.0068 19.5479C11.1562 19.5654 11.2881 19.5742 11.4199 19.5039L12.624 20.8486L12.4219 21.0508L12.5977 21.2441L12.8086 21.1035L12.8877 21.2178C12.791 21.2705 12.7119 21.3496 12.6152 21.4023C12.457 21.2969 12.2988 21.165 12.3076 20.9629L11.6309 21.5254L11.6045 21.6309L9.5918 23.3008L9.41602 23.3271L9.37207 23.8545L10.6816 22.7646V22.6064L10.8135 22.7207L11.833 21.9033C11.833 21.9033 11.9033 21.9912 11.877 21.9912C11.8506 21.9912 10.9717 22.8086 10.9717 22.8086L10.9541 22.8965L10.7959 23.0371L10.708 22.9668L9.47754 24.0566H9.30176L8.625 24.7334C8.44922 24.751 8.2998 24.7686 8.15039 24.8652L6.9375 25.9375V25.9375Z" fill="black"/>
<path fill-rule="evenodd" clip-rule="evenodd" d="M18.9785 16.9746C18.9946 16.9941 18.993 17.0227 18.9748 17.0402L16.6105 19.3166C16.6065 19.3205 16.6018 19.3236 16.5966 19.3259C16.5446 19.3491 16.485 19.3478 16.4365 19.3379C16.4065 19.3317 16.3761 19.3212 16.351 19.3074L14.9381 20.4878C14.9274 20.4967 14.9134 20.5006 14.8996 20.4984C14.8858 20.4963 14.8737 20.4883 14.8662 20.4765C14.7989 20.3702 14.6996 20.2882 14.5829 20.2421L14.0939 20.6578C14.0928 20.7092 14.0877 20.7485 14.0728 20.7845C14.0561 20.825 14.0285 20.8571 13.994 20.8959L13.9933 20.8966L13.6888 21.2251L18.09 26.2813C18.0985 26.2909 18.1027 26.3036 18.1018 26.3164C18.0929 26.4406 18.0748 26.5306 18.0189 26.6012C17.9639 26.6707 17.8776 26.714 17.7548 26.7623C17.7359 26.7697 17.7143 26.7645 17.7008 26.7492L13.2059 21.6345L12.4775 22.2541C12.4675 22.2625 12.4547 22.2666 12.4417 22.2654C12.4287 22.2642 12.4168 22.2579 12.4086 22.2478L12.1249 21.8986L12.1124 21.9436L12.309 22.2059C12.3194 22.2198 12.3216 22.2382 12.3147 22.2541C12.3078 22.27 12.2929 22.281 12.2756 22.2829L12.2748 22.283C12.2741 22.2831 12.273 22.2832 12.2715 22.2834C12.2684 22.2839 12.2637 22.2846 12.2576 22.2856C12.2455 22.2876 12.228 22.2909 12.2071 22.2961C12.1649 22.3065 12.1099 22.3239 12.0569 22.3522C12.0038 22.3806 11.9547 22.4186 11.9214 22.4691C11.8887 22.5187 11.8692 22.5831 11.8789 22.6689C11.8821 22.6972 11.9042 22.732 11.958 22.7718C12.0106 22.8106 12.0859 22.8484 12.1787 22.8844C12.3638 22.9562 12.6086 23.0171 12.8544 23.0664C13.0998 23.1155 13.344 23.1527 13.527 23.1777C13.6185 23.1901 13.6945 23.1995 13.7477 23.2057C13.7743 23.2089 13.7952 23.2112 13.8094 23.2128C13.8165 23.2136 13.8219 23.2141 13.8256 23.2145L13.8297 23.215L13.8309 23.2151C13.8309 23.2151 13.831 23.2151 13.826 23.2632C13.8743 23.2647 13.8743 23.2647 13.8743 23.2647L13.8743 23.2649L13.8743 23.2653L13.8732 23.301C13.8724 23.3241 13.8713 23.3571 13.8699 23.3967C13.8672 23.4759 13.8633 23.5815 13.8589 23.6871C13.8545 23.7926 13.8496 23.8985 13.8446 23.9781C13.8421 24.0178 13.8396 24.0516 13.8371 24.0757C13.8359 24.0875 13.8345 24.0982 13.833 24.1064C13.8323 24.1101 13.8312 24.1154 13.8293 24.1207C13.8285 24.1229 13.8266 24.1282 13.8227 24.1337C13.8211 24.1361 13.8133 24.1473 13.7984 24.1525C13.6013 24.2367 13.3356 24.219 13.0567 24.1529C12.7743 24.0859 12.4686 23.967 12.1877 23.8389C11.9064 23.7107 11.6483 23.5727 11.4607 23.4668C11.3668 23.4138 11.2904 23.3688 11.2375 23.337C11.2193 23.3261 11.2039 23.3168 11.1915 23.3092L11.0993 23.4245L11.2828 23.7118C11.2945 23.7302 11.2925 23.7542 11.2778 23.7703L10.7597 24.3394L10.9985 25.1925C11.0041 25.2122 10.9966 25.2333 10.9798 25.2451L10.5931 25.5175C10.5808 25.5262 10.5651 25.5287 10.5507 25.5241C10.5363 25.5195 10.5248 25.5085 10.5198 25.4943L10.2166 24.6454L10.0158 24.4781C10.005 24.4691 9.99869 24.4559 9.99839 24.4419C9.9981 24.428 10.0039 24.4145 10.0142 24.4051L10.4888 23.9745C10.4977 23.9664 10.5093 23.9619 10.5213 23.9619H10.7531C10.7603 23.9552 10.7702 23.9449 10.7824 23.9313C10.8067 23.9042 10.8371 23.8676 10.8672 23.8304C10.8971 23.7934 10.9263 23.7563 10.9481 23.7284C10.9528 23.7223 10.9572 23.7167 10.9611 23.7116L10.8552 23.5764L10.6896 23.7006C10.6803 23.7168 10.6773 23.7278 10.6768 23.7346C10.6762 23.741 10.6776 23.7444 10.68 23.7475C10.6872 23.7573 10.7086 23.7699 10.7505 23.7783C10.7757 23.7833 10.7926 23.8072 10.7889 23.8326C10.7852 23.8581 10.7623 23.8762 10.7367 23.8738L10.5643 23.8582L9.68365 24.6456C9.68742 24.731 9.6632 24.8304 9.58258 24.9205L9.10832 25.5089L7.98331 26.8624C7.98033 26.866 7.97684 26.8692 7.97295 26.8718C7.87682 26.9358 7.76871 26.9344 7.66638 26.873C7.66181 26.8703 7.65773 26.8668 7.6543 26.8627L6.89844 25.9662L6.93539 25.9351L6.90338 25.8988L8.11627 24.8266C8.11807 24.825 8.12 24.8235 8.12202 24.8222C8.27711 24.7219 8.43228 24.7017 8.6009 24.6846L9.26547 24.02C9.27454 24.011 9.28683 24.0059 9.29965 24.0059H9.4571L10.6739 22.9282C10.6915 22.9126 10.7177 22.9119 10.7361 22.9266L10.7922 22.9715L10.9078 22.8687L10.9222 22.7967C10.9242 22.7867 10.9292 22.7777 10.9367 22.7708L10.9696 22.8062C10.9367 22.7708 10.9366 22.7708 10.9367 22.7708L10.9745 22.7356C10.9986 22.7132 11.0331 22.6813 11.0745 22.643C11.1573 22.5663 11.2681 22.4641 11.3797 22.3618C11.4912 22.2596 11.6038 22.1572 11.6901 22.0804C11.711 22.0618 11.7303 22.0447 11.7479 22.0294L10.8416 22.756C10.8234 22.7706 10.7974 22.7701 10.7797 22.7548L10.7279 22.7099V22.7622C10.7279 22.7766 10.7215 22.7902 10.7105 22.7994L9.40089 23.8892C9.38591 23.9017 9.36492 23.9039 9.34764 23.8949C9.33037 23.8859 9.32017 23.8675 9.32179 23.848L9.36574 23.3207C9.3676 23.2984 9.38457 23.2802 9.40674 23.2769L9.56919 23.2525L11.5593 21.6013L11.5819 21.5112C11.5843 21.5013 11.59 21.4923 11.5979 21.4858L12.2746 20.9233C12.2893 20.9111 12.3099 20.9086 12.327 20.9171C12.3441 20.9256 12.3546 20.9434 12.3538 20.9626C12.3467 21.1261 12.4666 21.2407 12.6151 21.3429C12.6505 21.3213 12.6844 21.2959 12.7204 21.2689L12.7216 21.268C12.7515 21.2456 12.7829 21.2221 12.8164 21.2004L12.7938 21.1676L12.6224 21.2819C12.6025 21.2952 12.5759 21.2919 12.5598 21.2742L12.384 21.0809C12.3666 21.0618 12.3673 21.0324 12.3856 21.0142L12.5554 20.8444L11.4061 19.5609C11.2713 19.6204 11.1368 19.6096 10.9991 19.5934C10.9873 19.592 10.9765 19.5864 10.9686 19.5775L10.6216 19.1871L10.5695 19.8044C10.5687 19.8138 10.5651 19.8229 10.5592 19.8303L8.52017 22.4055C8.51112 22.4169 8.49741 22.4237 8.48284 22.4238C8.46827 22.424 8.4544 22.4176 8.44509 22.4064L7.45192 21.2111C7.43792 21.1942 7.43701 21.17 7.4497 21.1522L9.24267 18.6297C9.24961 18.62 9.25991 18.6131 9.27159 18.6105L9.58799 18.5402C9.59475 18.5387 9.60174 18.5387 9.60851 18.5401L9.60883 18.5402L9.60998 18.5404L9.61464 18.5414C9.61876 18.5422 9.62487 18.5434 9.63271 18.545C9.64839 18.548 9.67093 18.5522 9.69824 18.5568C9.75296 18.566 9.82628 18.5767 9.90144 18.5832C9.97714 18.5897 10.0522 18.5915 10.1114 18.584C10.1411 18.5802 10.1644 18.5743 10.181 18.5668C10.1927 18.5616 10.1991 18.5566 10.2025 18.5527C10.202 18.5561 10.2015 18.5595 10.201 18.563L10.2489 18.5698L10.2056 18.5482C10.205 18.5494 10.2041 18.5509 10.2025 18.5527C10.2499 18.239 10.3912 18.0747 10.5678 18.0072C10.7414 17.9409 10.9368 17.9732 11.082 18.0231C11.0896 18.0258 11.0965 18.0303 11.1019 18.0362L11.8666 18.8712C11.8778 18.8834 11.8819 18.9006 11.8775 18.9167L11.8142 19.146L11.7965 19.1263L11.7606 19.1587L11.8072 19.1715L11.8142 19.146L13.0087 20.4684C13.0036 20.4718 12.9993 20.4743 12.9959 20.4761C12.9934 20.4774 12.9922 20.4778 12.9921 20.4778C12.9921 20.4778 12.9936 20.4773 12.9963 20.4771C12.9993 20.4768 13.0061 20.4767 13.0143 20.4803C13.019 20.4824 13.0232 20.4854 13.0267 20.4888C13.0298 20.492 13.0324 20.4956 13.0343 20.4994C13.0323 20.4955 13.0299 20.4918 13.0269 20.4886L13.0087 20.4684C13.0176 20.4625 13.0289 20.4542 13.0426 20.4433C13.0846 20.4097 13.1395 20.3591 13.196 20.3049C13.2521 20.2509 13.3087 20.1943 13.3536 20.1494L13.354 20.149C13.3762 20.1268 13.3958 20.1073 13.4108 20.0925C13.4246 20.079 13.4378 20.0662 13.4455 20.0605C13.4564 20.0522 13.4703 20.0491 13.4837 20.0517C13.4972 20.0543 13.5089 20.0625 13.5159 20.0743L13.5692 20.163L13.5351 20.2652L13.5327 20.2646L13.5286 20.2834L13.4641 20.1758C13.4693 20.1706 13.4741 20.1658 13.4785 20.1615C13.4859 20.1542 13.492 20.1484 13.4966 20.144C13.5007 20.1402 13.5028 20.1384 13.5033 20.1379C13.5035 20.1378 13.5035 20.1378 13.5035 20.1378L13.4745 20.0991L13.433 20.124L13.4641 20.1758C13.4519 20.1878 13.4377 20.202 13.422 20.2178L13.4218 20.218C13.3769 20.2628 13.3198 20.3199 13.263 20.3746C13.2062 20.4291 13.1486 20.4823 13.103 20.5188C13.0806 20.5367 13.0587 20.5525 13.0401 20.5621C13.0314 20.5665 13.0187 20.5722 13.0046 20.5734C12.9971 20.5741 12.9863 20.5737 12.9751 20.5687C12.9659 20.5646 12.9583 20.5583 12.9527 20.5507L12.9552 20.5534L12.9911 20.521L12.9478 20.5426C12.9492 20.5454 12.9509 20.5481 12.9527 20.5507L11.7247 19.1911C11.7136 19.1788 11.7096 19.1618 11.714 19.1458L11.7772 18.9167L11.7953 18.9365L11.8309 18.9038L11.7843 18.891L11.7772 18.9167L11.039 18.1107C11.0429 18.112 11.0467 18.1133 11.0505 18.1146L11.0663 18.0689L11.0306 18.1015L11.039 18.1107C10.905 18.0665 10.7411 18.0445 10.6023 18.0975C10.4645 18.1502 10.3389 18.2818 10.2967 18.5767C10.296 18.5818 10.2944 18.5868 10.2921 18.5914C10.2765 18.6226 10.2489 18.6424 10.2205 18.6551C10.1919 18.6678 10.1584 18.6754 10.1237 18.6798C10.0544 18.6887 9.97128 18.6862 9.89318 18.6795C9.81453 18.6728 9.73844 18.6616 9.68219 18.6521C9.65402 18.6474 9.6307 18.643 9.61438 18.6399C9.60817 18.6387 9.60297 18.6377 9.59889 18.6368L9.60897 18.6346L9.59848 18.5874C9.58845 18.6347 9.58846 18.6347 9.58847 18.6347L9.58897 18.6348L9.59031 18.6351L9.59538 18.6361C9.59644 18.6363 9.59761 18.6366 9.59889 18.6368M9.31071 18.7009L9.32147 18.6857L9.28207 18.6577L9.29256 18.7049L9.31071 18.7009ZM13.5277 20.2874L13.5286 20.2834L13.5289 20.2838L13.5277 20.2874ZM13.515 20.3461C13.5133 20.3378 13.5138 20.3292 13.5165 20.3211L13.5277 20.2874L13.515 20.3461ZM13.5826 20.4899L13.5188 20.3574C13.517 20.3538 13.5158 20.35 13.515 20.3461L13.4921 20.4515L13.1698 20.7399C13.1599 20.7487 13.154 20.7613 13.1537 20.7745C13.1533 20.7878 13.1584 20.8007 13.1678 20.8101C13.1721 20.8143 13.193 20.8353 13.2127 20.858C13.2226 20.8695 13.2313 20.8804 13.2372 20.8893C13.2397 20.893 13.2412 20.8956 13.2421 20.8973C13.2439 20.9091 13.2503 20.9237 13.2663 20.9327C13.2809 20.9411 13.2948 20.9391 13.2986 20.9385C13.3075 20.9371 13.3145 20.9334 13.3165 20.9324L13.3166 20.9323C13.3225 20.9293 13.3288 20.925 13.3343 20.9211C13.3461 20.9128 13.3622 20.9005 13.3804 20.8859C13.4172 20.8567 13.466 20.8162 13.5144 20.7755C13.5628 20.7348 13.6113 20.6935 13.6476 20.6624C13.6658 20.6468 13.6809 20.6338 13.6915 20.6247L13.7079 20.6106L13.7081 20.6104L13.6766 20.5737L13.7082 20.6103C13.7247 20.596 13.7296 20.5724 13.7202 20.5528L13.616 20.3365L13.6211 20.313L13.6924 20.0992L14.3895 19.419L14.8694 19.4443C14.8825 19.445 14.8953 19.4403 14.9049 19.4313L15.5641 18.8161C15.5734 18.8074 15.5789 18.7955 15.5794 18.7828L15.5917 18.4936C15.6011 18.5017 15.6107 18.5094 15.6205 18.5169C15.6682 18.5531 15.7232 18.5848 15.7753 18.6109C15.8277 18.637 15.8782 18.658 15.9175 18.6726C15.9372 18.6798 15.9544 18.6856 15.9679 18.6896C15.9746 18.6917 15.9808 18.6933 15.9862 18.6946C15.99 18.6955 15.9979 18.6973 16.0057 18.6973C16.0185 18.6973 16.0279 18.6924 16.0312 18.6905C16.0355 18.6881 16.0389 18.6855 16.0411 18.6837C16.0456 18.6801 16.0497 18.6759 16.0531 18.6724C16.0584 18.6668 16.0649 18.6594 16.0716 18.6519C16.0734 18.6499 16.0752 18.6479 16.0769 18.6459C16.0949 18.6258 16.1165 18.6023 16.1399 18.5828C16.1642 18.5626 16.1852 18.5511 16.2017 18.5483C16.2128 18.5464 16.2245 18.5476 16.2392 18.5636C16.2579 18.594 16.2652 18.6142 16.2677 18.6275C16.2701 18.6399 16.2686 18.6477 16.2658 18.6552C16.2641 18.6597 16.2619 18.6644 16.2586 18.6707C16.2578 18.6721 16.2569 18.6738 16.256 18.6756C16.2532 18.6806 16.2499 18.6869 16.247 18.6928C16.2383 18.7107 16.2298 18.7335 16.2298 18.7632C16.2298 18.779 16.2375 18.7937 16.2504 18.8028L16.3383 18.8643C16.355 18.876 16.3773 18.876 16.3939 18.8642L18.4486 17.4126L16.5502 19.2404C16.524 19.2497 16.49 19.2502 16.456 19.2432C16.4175 19.2353 16.3907 19.2205 16.3827 19.2124C16.365 19.1947 16.3367 19.1934 16.3175 19.2095L14.9167 20.3796C14.834 20.2695 14.7199 20.1862 14.5888 20.1413C14.5726 20.1358 14.5548 20.1391 14.5418 20.1502L14.0144 20.5984C14.0036 20.6076 13.9974 20.6211 13.9974 20.6353C13.9974 20.6955 13.9929 20.7249 13.9835 20.7475C13.9739 20.7706 13.9577 20.7912 13.9221 20.8313L13.9224 20.8309L13.9579 20.8638L13.9217 20.8317L13.5884 21.1913C13.5716 21.2094 13.5712 21.2372 13.5874 21.2559L18.0038 26.3295C17.9947 26.4385 17.9775 26.4978 17.9432 26.5411C17.9092 26.584 17.8538 26.6174 17.7509 26.6597L13.2471 21.535C13.2297 21.5152 13.1996 21.513 13.1795 21.5301L12.4525 22.1484L12.1409 21.7649C12.1295 21.7509 12.1112 21.7444 12.0935 21.7481C12.0758 21.7518 12.0616 21.7651 12.0568 21.7825L12.0128 21.9407C12.0088 21.9551 12.0117 21.9706 12.0207 21.9826L12.1852 22.2019C12.1848 22.202 12.1844 22.2021 12.184 22.2022C12.1369 22.2138 12.0737 22.2337 12.0114 22.2669C11.9492 22.3001 11.8856 22.3478 11.8407 22.4159C11.7951 22.4849 11.7706 22.5722 11.7829 22.6798C11.7906 22.7482 11.8392 22.8042 11.9005 22.8495C11.963 22.8957 12.0474 22.9372 12.1437 22.9745C12.3367 23.0494 12.588 23.1116 12.8354 23.1612C13.0834 23.2109 13.3298 23.2484 13.5139 23.2735C13.6061 23.286 13.6828 23.2954 13.7364 23.3018C13.7516 23.3035 13.7649 23.3051 13.7763 23.3064C13.7755 23.3287 13.7745 23.3585 13.7733 23.3933C13.7706 23.4724 13.7667 23.5777 13.7623 23.683C13.7579 23.7884 13.753 23.8935 13.7481 23.9721C13.7456 24.0115 13.7432 24.0436 13.7409 24.0657C13.7407 24.0678 13.7405 24.0698 13.7403 24.0717C13.5742 24.1341 13.3427 24.1213 13.079 24.0588C12.8052 23.9939 12.506 23.8778 12.2278 23.7509C11.9498 23.6242 11.6943 23.4876 11.5082 23.3826C11.4152 23.3301 11.3396 23.2855 11.2873 23.2541C11.2611 23.2385 11.2408 23.2261 11.2271 23.2176C11.2202 23.2134 11.2149 23.2101 11.2114 23.2079L11.2075 23.2055L11.2065 23.2049L11.2063 23.2047C11.2063 23.2047 11.2063 23.2047 11.1805 23.2456L11.2063 23.2047C11.1855 23.1916 11.1581 23.1962 11.1428 23.2154L11.0021 23.3912C10.9892 23.4074 10.988 23.43 10.9992 23.4474L11.1814 23.7326L10.6702 24.2941C10.6589 24.3064 10.6549 24.3237 10.6594 24.3397L10.8962 25.1857L10.5894 25.4019L10.3032 24.6004C10.3003 24.5923 10.2952 24.5851 10.2886 24.5796L10.1204 24.4394L10.54 24.0586H10.7674C10.7786 24.0586 10.7871 24.055 10.791 24.0532C10.7956 24.051 10.7995 24.0485 10.8024 24.0465C10.8081 24.0424 10.8138 24.0375 10.8189 24.0328C10.8293 24.0231 10.8415 24.0102 10.8544 23.9958C10.8803 23.9669 10.912 23.9288 10.9423 23.8912C10.9728 23.8536 11.0024 23.816 11.0243 23.7878C11.0353 23.7738 11.0444 23.762 11.0507 23.7538L11.0581 23.7442L11.0605 23.741L11.0607 23.7409C11.074 23.7234 11.0739 23.699 11.0604 23.6816L10.9022 23.4795C10.886 23.4588 10.8561 23.4548 10.8351 23.4706L10.6242 23.6288C10.6195 23.6323 10.6155 23.6366 10.6124 23.6415C10.5944 23.6697 10.5828 23.6982 10.5804 23.7265C10.5794 23.7391 10.5802 23.7513 10.5828 23.7628L10.5521 23.76C10.5387 23.7588 10.5255 23.7631 10.5155 23.7721L9.60141 24.5895C9.58976 24.5999 9.58387 24.6153 9.58559 24.6308C9.59307 24.6981 9.57848 24.7805 9.50981 24.8568C9.50923 24.8575 9.50866 24.8581 9.50811 24.8588L9.03396 25.4471L9.07114 25.478L9.0335 25.4477L7.91369 26.795C7.85506 26.8316 7.79149 26.8328 7.72282 26.794L7.00279 25.94L8.17754 24.9015C8.31503 24.8135 8.4527 24.7966 8.6277 24.7791C8.63881 24.7779 8.64918 24.773 8.65708 24.7651L9.31968 24.1025H9.47543C9.48724 24.1025 9.49864 24.0982 9.50748 24.0904L10.7075 23.0275L10.7636 23.0724C10.782 23.0871 10.8083 23.0864 10.8259 23.0708L10.9841 22.9302C10.992 22.9232 10.9973 22.9138 10.9994 22.9035L11.0139 22.8309L11.0403 22.8065C11.0643 22.7841 11.0988 22.7522 11.1401 22.7139C11.2229 22.6373 11.3335 22.5352 11.445 22.4331C11.5564 22.331 11.6686 22.229 11.7544 22.1526C11.7974 22.1144 11.8335 22.0828 11.8595 22.0609C11.8726 22.0499 11.8827 22.0417 11.8896 22.0365C11.8906 22.0357 11.8915 22.035 11.8923 22.0344C11.8968 22.0329 11.9015 22.0308 11.9061 22.0276C11.9184 22.0191 11.9248 22.0073 11.9274 21.9967C11.9317 21.9796 11.9266 21.9644 11.9247 21.9591C11.9198 21.9449 11.9106 21.9297 11.9033 21.9185C11.8953 21.9062 11.8867 21.8943 11.8801 21.8856C11.8769 21.8812 11.874 21.8776 11.872 21.875L11.8696 21.8719L11.8689 21.871L11.8687 21.8708L11.8687 21.8707C11.8687 21.8707 11.8687 21.8707 11.8661 21.8727L11.8687 21.8707C11.8607 21.8607 11.849 21.8542 11.8362 21.8528C11.8235 21.8514 11.8107 21.8551 11.8007 21.8632L10.8126 22.6553L10.7112 22.5675C10.6969 22.5551 10.6767 22.5522 10.6595 22.56C10.6422 22.5679 10.6312 22.5851 10.6312 22.604V22.7395L9.42772 23.7411L9.45891 23.3668L9.59686 23.3461C9.60558 23.3448 9.61377 23.3412 9.62056 23.3355L11.6333 21.6656C11.6412 21.6591 11.6468 21.6501 11.6493 21.6401L11.6718 21.55L12.265 21.057C12.3013 21.2329 12.4532 21.3513 12.5863 21.4401C12.6013 21.4501 12.6205 21.4509 12.6363 21.4423C12.6877 21.4143 12.734 21.3796 12.7771 21.3472L12.7784 21.3463C12.8228 21.313 12.864 21.2822 12.9087 21.2578C12.9208 21.2512 12.9295 21.2398 12.9326 21.2265C12.9358 21.2132 12.9331 21.1991 12.9253 21.1878L12.8462 21.0736C12.8312 21.0519 12.8016 21.0462 12.7797 21.0609L12.6033 21.1784L12.4865 21.0499L12.6561 20.8804C12.6742 20.8622 12.675 20.8331 12.6579 20.8139L11.4538 19.4692C11.439 19.4526 11.4147 19.4483 11.3951 19.4588C11.2826 19.5188 11.1694 19.5154 11.0286 19.4995L10.619 19.0387C10.6061 19.0242 10.5859 19.0188 10.5676 19.0249C10.5493 19.031 10.5363 19.0475 10.5347 19.0667L10.4744 19.7817L8.48137 22.2988L7.55004 21.1779L7.52851 21.2082L7.4891 21.1802L7.52629 21.1493L7.55004 21.1779M8.48137 22.2988L8.44437 22.3455L8.48227 22.3755L8.51945 22.3446L8.48137 22.2988ZM10.4744 19.7817L10.4732 19.7962L10.5213 19.8003L10.4834 19.7703L10.4744 19.7817ZM11.0286 19.4995C11.0226 19.4988 11.0165 19.4981 11.0104 19.4974L11.0047 19.5454L11.0409 19.5133L11.0286 19.4995ZM12.4865 21.0499L12.4555 21.0158L12.4198 21.0483L12.454 21.0825L12.4865 21.0499ZM12.6033 21.1784L12.5687 21.2015L12.5956 21.2417L12.6313 21.2092L12.6033 21.1784ZM12.265 21.057L12.3364 20.9976L12.3055 20.9605L12.2572 20.9584C12.2557 20.9931 12.2585 21.026 12.265 21.057ZM11.6718 21.55L11.6757 21.5347L11.6288 21.523L11.6597 21.5601L11.6718 21.55ZM9.45891 23.3668L9.46208 23.3287L9.41391 23.3247L9.42108 23.3725L9.45891 23.3668ZM9.42772 23.7411L9.33904 23.8149L9.36996 23.8521L9.41814 23.8561L9.42772 23.7411ZM10.6312 22.7395V22.7622H10.6795L10.6486 22.7251L10.6312 22.7395ZM10.8126 22.6553L10.7811 22.6805L10.8114 22.7183L10.843 22.6817L10.8126 22.6553ZM11.8923 22.0344C11.8942 22.033 11.8953 22.0323 11.8958 22.0319C11.8963 22.0316 11.8955 22.0322 11.8938 22.033C11.893 22.0334 11.8913 22.0342 11.8888 22.035C11.8868 22.0356 11.8817 22.0371 11.8748 22.0371C11.8796 22.0371 11.8857 22.0365 11.8923 22.0344ZM10.7075 23.0275L10.738 23.0005L10.7059 22.9644L10.6757 23.0021L10.7075 23.0275ZM9.31968 24.1025L9.33383 24.0884L9.29965 24.0542V24.1025H9.31968ZM8.17754 24.9015L8.1803 24.899L8.14828 24.8628L8.17455 24.9034C8.17554 24.9027 8.17654 24.9021 8.17754 24.9015ZM7.72282 26.794C7.7206 26.7927 7.71836 26.7914 7.71612 26.7901L7.69125 26.8315L7.72821 26.8004L7.72282 26.794ZM7.91369 26.795L7.90896 26.8006L7.94614 26.8315L7.91932 26.7913C7.91745 26.7926 7.91557 26.7938 7.91369 26.795ZM10.5828 23.7628C10.5862 23.7781 10.5928 23.7923 10.6022 23.805C10.6323 23.8457 10.6857 23.8639 10.7316 23.8731L10.7411 23.8257L10.7454 23.7775L10.5828 23.7628ZM10.54 24.0586L10.5538 24.0461L10.5213 24.0103V24.0586H10.54ZM10.1204 24.4394L10.0777 24.4038L10.0467 24.4409L10.0792 24.4767L10.1204 24.4394ZM10.5894 25.4019L10.5374 25.4385L10.5653 25.478L10.6108 25.4618L10.5894 25.4019ZM10.8962 25.1857L10.9054 25.2186L10.952 25.2056L10.9242 25.1661L10.8962 25.1857ZM11.1814 23.7326L11.2013 23.7638L11.242 23.7378L11.2063 23.7053L11.1814 23.7326ZM13.7622 24.0628C13.7504 24.0683 13.7442 24.0773 13.7431 24.0789C13.7399 24.0836 13.7385 24.0876 13.7382 24.0883C13.7378 24.0894 13.7376 24.0901 13.7376 24.0901C13.7376 24.0902 13.7377 24.0897 13.738 24.0886C13.7386 24.0852 13.7394 24.0796 13.7403 24.0717C13.7477 24.0689 13.7551 24.066 13.7622 24.0628ZM13.7622 24.0628C13.7676 24.0604 13.7742 24.0586 13.7821 24.0586C13.7755 24.0586 13.7689 24.06 13.7628 24.0626C13.7626 24.0627 13.7624 24.0628 13.7622 24.0628ZM12.2704 22.2349L12.2317 22.2639L12.1852 22.2019C12.2083 22.1962 12.2278 22.1925 12.2417 22.1902C12.2488 22.189 12.2544 22.1882 12.2584 22.1877C12.2604 22.1874 12.262 22.1872 12.2631 22.187L12.2645 22.1869L12.2649 22.1868L12.265 22.1868C12.265 22.1868 12.2651 22.1868 12.2704 22.2349ZM12.4525 22.1484L12.4148 22.1805L12.4461 22.2173L12.4837 22.1868L12.4525 22.1484ZM17.7509 26.6597C17.7409 26.6638 17.7304 26.668 17.7195 26.6723L17.7372 26.7173L17.7735 26.6854L17.7509 26.6597ZM18.0038 26.3295L18.0171 26.3447L18.0536 26.313L18.0053 26.3095C18.0049 26.3164 18.0043 26.323 18.0038 26.3295ZM14.9167 20.3796L14.8761 20.4136L14.9071 20.4507L14.9479 20.4248C14.9381 20.4093 14.9277 20.3942 14.9167 20.3796ZM16.5502 19.2404L16.5435 19.2469L16.577 19.2817L16.5574 19.2376C16.5551 19.2386 16.5527 19.2395 16.5502 19.2404ZM16.2392 18.5636C16.24 18.5644 16.2407 18.5652 16.2415 18.5661L16.2782 18.5347L16.2372 18.5603C16.2379 18.5614 16.2386 18.5625 16.2392 18.5636ZM15.5917 18.4936L15.597 18.3697L15.5487 18.3677L15.5054 18.3893C15.5249 18.4282 15.5562 18.4631 15.5917 18.4936ZM14.3895 19.419L14.4047 19.4042L14.3709 19.3696L14.3684 19.4179L14.3895 19.419ZM13.6924 20.0992L13.6961 20.088L13.6502 20.0728L13.684 20.1074L13.6924 20.0992ZM13.6144 20.3331L13.616 20.3365L13.5832 20.4873C13.583 20.4882 13.5828 20.489 13.5826 20.4899L13.617 20.5613C13.6079 20.5691 13.597 20.5784 13.5847 20.5889C13.5485 20.6199 13.5003 20.661 13.4521 20.7015C13.4039 20.7421 13.3559 20.7819 13.3202 20.8103C13.3155 20.814 13.3111 20.8175 13.307 20.8207C13.3002 20.8118 13.2929 20.803 13.2858 20.7948C13.281 20.7892 13.2761 20.7838 13.2714 20.7786L13.5682 20.5131C13.5751 20.5069 13.5801 20.4988 13.5826 20.4899M13.307 20.8207C13.2952 20.83 13.2856 20.8372 13.2787 20.8421C13.2744 20.8451 13.2723 20.8463 13.2719 20.8466C13.2719 20.8466 13.2718 20.8466 13.2719 20.8466C13.2721 20.8465 13.2729 20.8461 13.2743 20.8455C13.2754 20.8451 13.2787 20.8438 13.2834 20.843C13.2865 20.8425 13.2998 20.8406 13.314 20.8487C13.3331 20.8595 13.3382 20.8784 13.3382 20.8901C13.3382 20.8763 13.3335 20.8645 13.3303 20.8577C13.3267 20.8499 13.3221 20.8423 13.3175 20.8355C13.3143 20.8306 13.3107 20.8257 13.307 20.8207ZM13.2714 20.7786L13.2342 20.8119L13.202 20.7759L13.2362 20.7417C13.2397 20.7452 13.2546 20.7601 13.2714 20.7786ZM13.6144 20.3331L13.6211 20.313L13.6272 20.2852C13.6298 20.2732 13.6277 20.2606 13.6214 20.25L13.5692 20.163L13.6044 20.0575C13.6068 20.0502 13.611 20.0435 13.6165 20.0382L14.3372 19.335C14.3468 19.3256 14.36 19.3206 14.3735 19.3214L14.8539 19.3466L14.8389 19.3607L14.8719 19.396L14.8745 19.3477L14.8539 19.3466L15.4836 18.7589L15.4828 18.7787L15.5311 18.7808L15.4981 18.7454L15.4836 18.7589L15.5004 18.3656C15.5013 18.3436 15.517 18.325 15.5386 18.3204C15.5601 18.3158 15.5821 18.3264 15.5919 18.3461C15.6069 18.376 15.637 18.408 15.679 18.4399C15.7203 18.4712 15.7697 18.4999 15.8186 18.5244C15.8674 18.5488 15.9146 18.5684 15.9511 18.5819C15.9674 18.5879 15.9813 18.5926 15.992 18.5959C15.9886 18.5997 15.9857 18.6029 15.9832 18.6056C15.9806 18.6083 15.9796 18.6091 15.9799 18.6089C15.98 18.6088 15.9815 18.6075 15.9843 18.606C15.986 18.605 15.994 18.6006 16.0057 18.6006C16.0081 18.6006 16.0098 18.6008 16.0102 18.6009C16.0107 18.601 16.0101 18.6009 16.008 18.6004C16.0053 18.5998 16.0012 18.5987 15.9956 18.597C15.9944 18.5967 15.9933 18.5963 15.992 18.5959C15.994 18.5937 15.9961 18.5913 15.9985 18.5887C16.0004 18.5865 16.0025 18.5841 16.0048 18.5816C16.023 18.5611 16.0487 18.533 16.078 18.5085C16.1065 18.4848 16.1437 18.4601 16.1855 18.453C16.232 18.4451 16.2779 18.4601 16.3149 18.5032C16.3164 18.505 16.3179 18.507 16.3192 18.509C16.3429 18.5471 16.3571 18.5797 16.3627 18.6096C16.3687 18.6409 16.3647 18.6666 16.3565 18.6888C16.3526 18.6992 16.348 18.7083 16.3441 18.7157C16.3426 18.7185 16.3413 18.7209 16.3402 18.7231C16.3379 18.7274 16.336 18.7309 16.334 18.735C16.3329 18.7372 16.332 18.7393 16.3312 18.7413L16.3059 18.7236L16.2782 18.7632H16.3265C16.3265 18.7554 16.328 18.7488 16.3312 18.7413L16.3659 18.7656L16.3382 18.7852L16.3661 18.8247L16.3938 18.7851L16.3659 18.7656L18.9134 16.9659C18.934 16.9513 18.9624 16.9551 18.9785 16.9746M13.617 20.5613C13.6212 20.5576 13.6251 20.5543 13.6285 20.5514L13.6449 20.5372L13.6766 20.5737L13.6331 20.5947L13.617 20.5613ZM13.2421 20.8973C13.2423 20.8977 13.2425 20.8981 13.2426 20.8983C13.2438 20.9009 13.2415 20.8974 13.2415 20.8901C13.2415 20.8923 13.2417 20.8948 13.2421 20.8973ZM13.4921 20.4515L13.4887 20.4668L13.536 20.4771L13.5037 20.441L13.4921 20.4515ZM13.826 23.2632L13.8743 23.2647C13.8751 23.2394 13.8561 23.2177 13.8309 23.2151L13.826 23.2632Z" fill="black"/>
</g>
<defs>
<clipPath id="clip0_4046_23974">
<rect width="60" height="45" fill="white"/>
</clipPath>
</defs>
</svg>
