<svg width="60" height="45" viewBox="0 0 60 45" fill="none" xmlns="http://www.w3.org/2000/svg">
<g clip-path="url(#clip0_4046_23990)">
<path fill-rule="evenodd" clip-rule="evenodd" d="M0 0H60V45H0V0Z" fill="white"/>
<path fill-rule="evenodd" clip-rule="evenodd" d="M-2.47656 0.01875L-2.40156 32.4187L48.0453 0L-2.47656 0.01875Z" fill="#3662A2"/>
<path fill-rule="evenodd" clip-rule="evenodd" d="M62.4703 44.9617L62.3391 11.2773L11.4609 44.9805L62.4609 44.9617H62.4703Z" fill="#38A100"/>
<path fill-rule="evenodd" clip-rule="evenodd" d="M-2.4375 34.8555L-2.4 44.9992L8.61563 44.9898L62.3813 8.94297L62.3156 0.121094L51.4406 0.0273438L-2.4375 34.8461V34.8555Z" fill="#C70000"/>
<path fill-rule="evenodd" clip-rule="evenodd" d="M20.5828 16.125L18.5391 14.8875L17.3578 16.9594L16.2141 14.8781L14.1516 16.0875L14.2078 13.7062L11.8266 13.725L13.0641 11.6812L10.9922 10.5094L13.0734 9.35625L11.8734 7.29375L14.2547 7.35L14.2453 4.95938L16.2797 6.19687L17.4609 4.125L18.6047 6.20625L20.6672 4.99687L20.6109 7.37812L22.9922 7.35938L21.7547 9.40313L23.8266 10.575L21.7453 11.7281L22.9453 13.7906L20.5641 13.7344L20.5828 16.125Z" fill="#FFE700"/>
<path fill-rule="evenodd" clip-rule="evenodd" d="M21.7844 10.5383C21.7844 12.9383 19.825 14.8789 17.4156 14.8789C15.0063 14.8789 13.0469 12.9383 13.0469 10.5383C13.0469 8.13828 14.9969 6.20703 17.4156 6.20703C19.8344 6.20703 21.7844 8.14766 21.7844 10.5383V10.5383Z" fill="#3662A2"/>
<path fill-rule="evenodd" clip-rule="evenodd" d="M20.8359 10.5391C20.8359 11.4466 20.4754 12.317 19.8337 12.9587C19.192 13.6004 18.3216 13.9609 17.4141 13.9609C16.5065 13.9609 15.6362 13.6004 14.9944 12.9587C14.3527 12.317 13.9922 11.4466 13.9922 10.5391C13.9922 9.63152 14.3527 8.76116 14.9944 8.11943C15.6362 7.4777 16.5065 7.11719 17.4141 7.11719C18.3216 7.11719 19.192 7.4777 19.8337 8.11943C20.4754 8.76116 20.8359 9.63152 20.8359 10.5391V10.5391Z" fill="#FFE700"/>
</g>
<defs>
<clipPath id="clip0_4046_23990">
<rect width="60" height="45" fill="white"/>
</clipPath>
</defs>
</svg>
