<svg width="60" height="45" viewBox="0 0 60 45" fill="none" xmlns="http://www.w3.org/2000/svg">
<g clip-path="url(#clip0_4046_23999)">
<path d="M0 0H60V45H0V0Z" fill="#009543"/>
<path d="M0 0H60V30H0V0Z" fill="#ED4135"/>
<path d="M0 0H60V15H0V0Z" fill="#0035AD"/>
<path d="M22.4969 37.2477C30.6413 37.2477 37.2437 30.6453 37.2437 22.5008C37.2437 14.3563 30.6413 7.75391 22.4969 7.75391C14.3524 7.75391 7.75 14.3563 7.75 22.5008C7.75 30.6453 14.3524 37.2477 22.4969 37.2477Z" fill="#FAE600"/>
<path fill-rule="evenodd" clip-rule="evenodd" d="M22.5031 8.00078C14.4959 8.00078 8.00469 14.492 8.00469 22.4992C8.00469 30.5065 14.4959 36.9977 22.5031 36.9977C30.5104 36.9977 37.0016 30.5065 37.0016 22.4992C37.0016 14.492 30.5104 8.00078 22.5031 8.00078ZM7.50781 22.4992C7.50781 14.2175 14.2214 7.50391 22.5031 7.50391C30.7848 7.50391 37.4984 14.2175 37.4984 22.4992C37.4984 30.7809 30.7848 37.4945 22.5031 37.4945C14.2214 37.4945 7.50781 30.7809 7.50781 22.4992Z" fill="black"/>
<path d="M20 24.7039H24.9969ZM20 21.0008H24.9969ZM22.5031 7.80078V33.0008Z" fill="black"/>
<path fill-rule="evenodd" clip-rule="evenodd" d="M22.2031 20.7008V7.80078H22.8031V20.7008H24.9969V21.3008H22.8031V24.4039H24.9969V25.0039H22.8031V33.0008H22.2031V25.0039H20V24.4039H22.2031V21.3008H20V20.7008H22.2031Z" fill="black"/>
<path d="M16.5547 36.0376C22.5734 38.5032 28.2172 36.197 28.2172 36.197C28.2172 36.197 26.0891 33.8907 25.0016 32.9907C23.9328 32.1095 20.8016 32.147 19.7328 32.9907C18.6252 33.9548 17.5646 34.9716 16.5547 36.0376V36.0376Z" fill="black"/>
<path d="M22.5016 31.6984C23.4128 31.6984 24.1516 30.6239 24.1516 29.2984C24.1516 27.973 23.4128 26.8984 22.5016 26.8984C21.5903 26.8984 20.8516 27.973 20.8516 29.2984C20.8516 30.6239 21.5903 31.6984 22.5016 31.6984Z" fill="black"/>
<path d="M22.4969 24.1133C23.5997 24.1133 24.4937 23.5466 24.4937 22.8477C24.4937 22.1487 23.5997 21.582 22.4969 21.582C21.394 21.582 20.5 22.1487 20.5 22.8477C20.5 23.5466 21.394 24.1133 22.4969 24.1133Z" fill="black"/>
<path d="M22.4969 18.9938C23.5997 18.9938 24.4937 18.0997 24.4937 16.9969C24.4937 15.894 23.5997 15 22.4969 15C21.394 15 20.5 15.894 20.5 16.9969C20.5 18.0997 21.394 18.9938 22.4969 18.9938Z" fill="black"/>
<path d="M24.8969 9.55234C24.8969 9.55234 25.0656 9.83359 24.7094 10.4898C22.9656 13.6305 21.2125 13.6961 20.8844 13.968C20.5094 14.268 20.3594 14.2492 20.3594 14.2492C20.3875 13.9773 20.4062 12.8805 20.425 12.7773C20.6969 11.3055 22.9094 11.3242 24.6437 9.82422C24.9156 9.58984 24.8969 9.54297 24.8969 9.54297V9.55234ZM19.0469 16.3023C19.0469 16.3023 19.45 17.4273 19.4969 18.5523C19.5906 20.3523 21.3156 20.3992 22.4969 20.3992V19.3961C21.6063 19.3961 20.8375 19.2648 20.2 17.9523C19.8646 17.3697 19.4787 16.8176 19.0469 16.3023V16.3023ZM19 30.7961C19 30.7961 19.6281 30.018 20.3688 28.1992C20.7438 27.2523 21.6625 26.6992 22.4969 26.6992V25.293C20.5938 25.293 19.6844 25.9961 19.5906 27.0367C19.4713 28.3008 19.2741 29.5563 19 30.7961V30.7961Z" fill="black"/>
<path d="M25.95 16.3047C25.95 16.3047 25.5469 17.4297 25.5 18.5547C25.4062 20.3547 23.6813 20.4016 22.5 20.4016V19.4078C23.3906 19.4078 24.1594 19.2766 24.7969 17.9547C25.1344 17.3734 25.5187 16.8203 25.95 16.3047ZM25.9969 30.8078C25.9969 30.8078 25.3688 30.0203 24.6281 28.2016C24.2531 27.2547 23.3344 26.7016 22.5 26.7016V25.3141C24.4031 25.3141 25.3125 26.0172 25.4062 27.0578C25.5259 28.3188 25.7232 29.5711 25.9969 30.8078V30.8078Z" fill="black"/>
</g>
<defs>
<clipPath id="clip0_4046_23999">
<rect width="60" height="45" fill="white"/>
</clipPath>
</defs>
</svg>
