<svg width="60" height="45" viewBox="0 0 60 45" fill="none" xmlns="http://www.w3.org/2000/svg">
<g clip-path="url(#clip0_4046_24032)">
<path d="M0 0H60V45H0V0Z" fill="#0067C6"/>
<path d="M0 15H60V30H0V15Z" fill="white"/>
<path d="M23.25 22.4531L24 22.5V22.3875L23.7188 22.3688L23.7375 22.0125L24.0469 21.7875L24.0563 21.6469L23.7281 21.8812C23.7188 21.8062 23.6719 21.7219 23.5969 21.6937C23.5219 21.675 23.4469 21.675 23.3812 21.7219C23.3062 21.7781 23.2875 21.8719 23.2875 21.9562L23.25 22.4531V22.4531ZM23.3625 22.35L23.3906 21.975C23.4 21.9187 23.4094 21.8438 23.4656 21.8063C23.4775 21.7983 23.4911 21.7932 23.5052 21.7912C23.5194 21.7893 23.5339 21.7907 23.5474 21.7952C23.561 21.7997 23.5734 21.8073 23.5836 21.8173C23.5938 21.8274 23.6015 21.8396 23.6063 21.8531C23.6438 21.9469 23.625 22.05 23.6156 22.1531L23.6063 22.3594L23.3625 22.35V22.35ZM23.3438 21.3L24.075 21.4688L24.2438 20.7562C24.2094 20.7501 24.175 20.7438 24.1406 20.7375L24 21.3375L23.775 21.2906L23.9062 20.7469L23.8031 20.7188L23.6719 21.2625L23.4844 21.2156L23.6156 20.6344L23.5031 20.6156L23.3438 21.3V21.3ZM23.6063 20.3156L24.3187 20.5687L24.3562 20.4656L24.075 20.3719L24.1875 20.0438C24.2063 19.95 24.225 19.8563 24.1781 19.7625C24.1563 19.7334 24.128 19.7098 24.0954 19.6935C24.0629 19.6772 24.027 19.6688 23.9906 19.6688C23.8969 19.6688 23.8406 19.7344 23.8031 19.8094C23.7469 19.9031 23.7094 20.0156 23.6813 20.1281L23.6063 20.3156V20.3156ZM23.7469 20.25L23.8594 19.9313C23.8875 19.875 23.9156 19.8094 23.9813 19.7906C23.9943 19.7879 24.0077 19.788 24.0207 19.7909C24.0337 19.7938 24.0459 19.7994 24.0565 19.8074C24.0672 19.8154 24.076 19.8256 24.0824 19.8372C24.0888 19.8489 24.0927 19.8617 24.0938 19.875C24.1125 19.9688 24.0656 20.0625 24.0375 20.1562L23.9719 20.3344L23.7469 20.25V20.25ZM24 19.4062L24.4031 19.65C24.4781 19.6875 24.5719 19.7063 24.6562 19.6688C24.7579 19.5998 24.8363 19.5018 24.8812 19.3875C24.9187 19.2938 24.9563 19.1813 24.9 19.0875C24.8438 18.9938 24.7406 18.9563 24.6469 18.9L24.3938 18.75L24.3375 18.8438L24.7125 19.0687C24.7781 19.1062 24.825 19.1625 24.8156 19.2469C24.7969 19.3327 24.7584 19.413 24.7031 19.4813C24.6656 19.5375 24.5906 19.5844 24.5156 19.575C24.4406 19.5563 24.375 19.5 24.3094 19.4625L24.0563 19.3219L24 19.4156V19.4062ZM24.5437 18.5344L25.1344 18.9844L25.4156 18.6281C25.4719 18.5437 25.5094 18.4406 25.4812 18.3469C25.4638 18.3108 25.4374 18.2798 25.4046 18.2568C25.3718 18.2338 25.3336 18.2197 25.2937 18.2156C25.2469 18.2156 25.2 18.2437 25.1813 18.2531C25.2 18.1687 25.1344 18.0938 25.0687 18.075C24.975 18.0469 24.8812 18.1031 24.825 18.1688L24.6375 18.4031L24.5437 18.5344ZM24.6937 18.5062C24.7594 18.4125 24.825 18.3188 24.9 18.2438C24.9375 18.2063 24.9938 18.15 25.0406 18.1875C25.0875 18.2063 25.1063 18.2719 25.0781 18.3094C25.0406 18.3938 24.9844 18.45 24.9281 18.525L24.8531 18.6281L24.6937 18.5062V18.5062ZM24.9375 18.6937L25.1531 18.4125C25.1906 18.375 25.2469 18.3188 25.3031 18.3375C25.3594 18.3469 25.3969 18.4031 25.3781 18.4594C25.35 18.5531 25.275 18.6281 25.2094 18.7125L25.1156 18.8344L24.9281 18.6937H24.9375ZM25.2188 17.7375L25.7344 18.2812L26.175 17.8594L26.1 17.7844L25.7438 18.1219H25.7344L25.2937 17.6531L25.2188 17.7375ZM25.875 17.1562L26.3344 17.7469L26.4281 17.6813L25.9594 17.0906L25.875 17.1562ZM26.55 16.6969C26.4767 16.7399 26.4129 16.7973 26.3625 16.8656C26.3199 16.922 26.2961 16.9903 26.2944 17.061C26.2927 17.1316 26.3133 17.201 26.3531 17.2594C26.3894 17.319 26.4413 17.3676 26.5031 17.4C26.5607 17.4303 26.6258 17.4433 26.6906 17.4375C26.7809 17.4256 26.8674 17.3935 26.9437 17.3438C27.0218 17.299 27.0865 17.2343 27.1312 17.1562C27.1687 17.0812 27.1781 17.0063 27.1594 16.9313L27.0656 16.9688C27.0844 17.1188 26.9906 17.1937 26.8781 17.25C26.7094 17.3625 26.55 17.3531 26.4469 17.2031C26.3438 17.025 26.4469 16.8844 26.5969 16.7906C26.7 16.725 26.8031 16.6781 26.8969 16.7438L26.9812 16.6688C26.9268 16.6296 26.8608 16.6098 26.7937 16.6125C26.7094 16.6125 26.6344 16.65 26.55 16.7062V16.6969ZM27.4406 16.2562L27.3562 17.1L27.4781 17.0531L27.4969 16.7906L27.8719 16.6406L28.0781 16.8094L28.1906 16.7625L27.5531 16.2094L27.4406 16.2562ZM27.5344 16.35L27.7875 16.5563L27.5062 16.6688L27.5344 16.3406V16.35ZM29.0813 15.7875L29.1281 16.5375L29.5312 16.5187C29.6438 16.5 29.7563 16.4813 29.8219 16.3875C29.9156 16.2938 29.9344 16.1344 29.8875 16.0031C29.8698 15.9461 29.8368 15.8951 29.7922 15.8554C29.7476 15.8158 29.693 15.7891 29.6344 15.7781C29.5219 15.7594 29.4094 15.7781 29.2969 15.7781L29.0813 15.7969V15.7875ZM29.1937 15.8906L29.5219 15.8812C29.5817 15.8785 29.6408 15.8949 29.6906 15.9281C29.7656 15.9844 29.8125 16.0687 29.8031 16.1625C29.799 16.2148 29.7788 16.2646 29.7452 16.3049C29.7116 16.3452 29.6663 16.3741 29.6156 16.3875C29.5594 16.4063 29.4938 16.4063 29.4375 16.4156L29.2312 16.425L29.1937 15.8906V15.8906ZM30.1312 15.75L30.0844 16.5L30.8156 16.5375V16.4344L30.1969 16.3969L30.2063 16.1719L30.7688 16.2V16.0969L30.2156 16.0687L30.225 15.8625L30.825 15.9V15.7875L30.1219 15.75H30.1312ZM32.0813 16.0594L31.8094 16.7625L31.9031 16.8L32.1281 16.2375V16.2188L32.1469 16.2469L32.4094 16.9969L32.5312 17.0438L32.8031 16.3406L32.7094 16.3031L32.4938 16.8656L32.4844 16.8844L32.4656 16.8563L32.2125 16.1063L32.0813 16.0594ZM33.0938 16.5L32.7469 17.1562L32.6531 17.1094L32.9906 16.4437L33.0938 16.5ZM33.6562 16.8281C33.5881 16.7825 33.5117 16.7506 33.4313 16.7344C33.3619 16.7147 33.2881 16.7177 33.2206 16.7431C33.1532 16.7684 33.0956 16.8146 33.0563 16.875C33.02 16.9343 33.0006 17.0024 33 17.0719C33 17.1375 33.0094 17.2031 33.0563 17.2687C33.0938 17.3344 33.15 17.3906 33.2438 17.4562C33.3193 17.5076 33.4061 17.5398 33.4969 17.55C33.5711 17.5521 33.6438 17.5289 33.7031 17.4844L33.6281 17.4C33.4969 17.4938 33.3938 17.4281 33.2906 17.3625C33.1219 17.25 33.0563 17.1 33.1594 16.9406C33.2719 16.7719 33.45 16.8187 33.6 16.9125C33.6937 16.9781 33.7875 17.0531 33.7688 17.1656L33.8625 17.2031C33.8736 17.1392 33.8638 17.0734 33.8344 17.0156C33.7969 16.9406 33.7406 16.8844 33.6562 16.8281V16.8281ZM34.3688 17.3625L33.5906 17.6813L33.6844 17.7656L33.9281 17.6719L34.2375 17.9344L34.1719 18.1875L34.2656 18.2719L34.4625 17.4469L34.3688 17.3625V17.3625ZM34.3406 17.4938L34.2656 17.8125L34.0312 17.625L34.3406 17.4938ZM34.9406 17.8875L34.3594 18.3563L34.425 18.45L34.6594 18.2625L34.8844 18.5438L34.8187 18.9188L34.9031 19.0219L34.9781 18.6281C35.0438 18.675 35.1375 18.7031 35.2125 18.6656C35.2781 18.6281 35.3438 18.5719 35.3438 18.4969C35.3438 18.3938 35.2781 18.3094 35.2219 18.2344L34.9406 17.8875V17.8875ZM34.9219 18.0375L35.1656 18.3375C35.2031 18.3938 35.25 18.4688 35.2031 18.525C35.175 18.5813 35.1 18.5813 35.0531 18.5438C34.9594 18.4781 34.9031 18.3844 34.8281 18.3L34.7344 18.1969L34.9219 18.0375ZM35.8125 19.0781L34.9688 19.1156L35.0344 19.2281L35.2969 19.2188L35.5031 19.575L35.3531 19.7906L35.4187 19.9031L35.8781 19.1906L35.8125 19.0781V19.0781ZM35.7469 19.1906L35.5594 19.4719L35.4187 19.2094L35.7469 19.1906ZM36.3 20.0719C36.2531 19.95 36.1781 19.8187 36.0469 19.7531C35.976 19.7204 35.8963 19.7118 35.8201 19.7287C35.7439 19.7457 35.6753 19.7872 35.625 19.8469C35.5312 19.9406 35.5312 20.0813 35.5594 20.2125C35.5875 20.3531 35.6531 20.4937 35.7469 20.5969L35.6906 20.6156L35.7281 20.7188L36.0844 20.5969L35.9437 20.2125L35.8688 20.2406L35.9625 20.5219L35.85 20.5687C35.7483 20.4739 35.6793 20.3491 35.6531 20.2125C35.625 20.1094 35.625 19.9875 35.7 19.9125C35.7937 19.8187 35.9437 19.7906 36.0469 19.8656C36.15 19.9406 36.2062 20.0625 36.2344 20.1844C36.2625 20.2688 36.2531 20.3625 36.1969 20.4281C36.1781 20.4281 36.1969 20.4563 36.2063 20.4656L36.2344 20.5125C36.2661 20.4882 36.2919 20.457 36.3098 20.4213C36.3277 20.3856 36.3371 20.3462 36.3375 20.3063C36.3394 20.2265 36.3266 20.1471 36.3 20.0719V20.0719ZM36.5156 20.6625L36.0938 20.7375C36.029 20.7469 35.9676 20.7727 35.9156 20.8125C35.875 20.8492 35.8484 20.8989 35.8406 20.9531V21.1781C35.8687 21.2719 35.8969 21.3375 35.9344 21.3937C35.9625 21.45 36 21.4875 36.0469 21.4875C36.1084 21.5034 36.1729 21.5034 36.2344 21.4875L36.6562 21.4125L36.6375 21.3094L36.225 21.3844C36.0375 21.4219 35.9812 21.3281 35.9437 21.1594C35.9156 20.9906 35.9437 20.8781 36.1219 20.85L36.5344 20.7656L36.5156 20.6625V20.6625ZM36.7406 21.9375L35.9625 21.6L35.9719 21.7313L36.2156 21.825L36.2438 22.2375L36.0188 22.3781L36.0281 22.5L36.75 22.0594L36.7406 21.9375V21.9375ZM36.6281 22.0031L36.3469 22.1813L36.3281 21.8812L36.6281 22.0031V22.0031ZM23.8312 23.8781L23.7188 23.9062L23.8406 24.3656L23.9531 24.3375L23.8312 23.8781ZM36.1687 23.8781L36.2812 23.9062L36.1594 24.3656L36.0469 24.3375L36.1687 23.8781ZM24.9938 25.8L24.15 25.8938L24.225 25.9969L24.4875 25.9688L24.7125 26.3063L24.5813 26.5406L24.6562 26.6344L25.0594 25.9031L24.9938 25.8V25.8ZM24.9281 25.9219L24.7688 26.2031L24.6 25.9594L24.9281 25.9219ZM25.3125 26.2594L24.7781 26.7562L24.8531 26.8313L25.3031 26.4094L25.0594 27.0656L25.1531 27.15L25.7906 26.9625L25.35 27.3656L25.425 27.4406L25.9594 26.9437L25.8469 26.8313L25.1906 27.0188L25.4344 26.3906L25.3125 26.2594ZM26.0906 27.0469L25.6406 27.6562L26.2219 28.0875L26.2875 28.0031L25.7906 27.6281L25.9313 27.4406L26.3719 27.7875L26.4375 27.6937L25.9969 27.3656L26.1188 27.2063L26.5875 27.5625L26.6531 27.4688L26.0906 27.0469V27.0469ZM26.8219 27.5906L26.475 28.2469L26.5687 28.3031L26.7094 28.0406L27.0281 28.2094L27.1031 28.5844L27.225 28.65L27.1406 28.2562C27.225 28.2844 27.3281 28.2656 27.375 28.2C27.4219 28.1437 27.4594 28.0781 27.4313 28.0031C27.4125 27.9094 27.3094 27.8531 27.2344 27.8063L26.8219 27.5906V27.5906ZM26.8688 27.7312L27.2063 27.9187C27.2625 27.9562 27.3281 28.0031 27.3187 28.0687C27.3187 28.1344 27.2531 28.1625 27.1969 28.1531C27.0844 28.1344 26.9906 28.0687 26.8969 28.0219L26.7562 27.9469L26.8688 27.7312ZM27.675 28.0312L27.3938 28.725L27.4875 28.7719L27.7688 28.0781L27.675 28.0312ZM28.35 28.2656C28.272 28.2371 28.1892 28.2244 28.1062 28.2281C28.034 28.2293 27.9641 28.2536 27.9067 28.2975C27.8493 28.3414 27.8076 28.4025 27.7875 28.4719C27.7704 28.5364 27.7704 28.6042 27.7875 28.6687C27.7875 28.7437 27.825 28.8 27.8812 28.8562C27.9459 28.9136 28.0229 28.9553 28.1062 28.9781C28.1935 29.0091 28.2875 29.0156 28.3781 28.9969C28.4519 28.9827 28.5183 28.9428 28.5656 28.8844L28.4719 28.8281C28.3781 28.95 28.2563 28.9219 28.1344 28.875C27.9469 28.8094 27.8438 28.6875 27.9 28.5C27.9656 28.3125 28.1531 28.3125 28.3125 28.3594C28.425 28.3969 28.5281 28.4531 28.5375 28.5563L28.65 28.575C28.6448 28.5045 28.615 28.4381 28.5656 28.3875C28.505 28.3296 28.4309 28.2878 28.35 28.2656V28.2656ZM29.1 28.4344L28.6125 29.1188L28.7344 29.1375L28.8844 28.9219L29.2969 28.9875L29.3812 29.2312L29.5031 29.25L29.2219 28.4531L29.1 28.4344ZM29.1469 28.5563L29.2594 28.875L28.9594 28.8281L29.1469 28.5563ZM30.8625 28.4437C30.7688 28.4531 30.7031 28.4812 30.6375 28.5281C30.5755 28.5642 30.5267 28.6191 30.498 28.6849C30.4694 28.7506 30.4624 28.8238 30.4781 28.8938C30.4875 28.9594 30.5156 29.0156 30.5719 29.0813C30.6094 29.1281 30.6656 29.1563 30.7406 29.175C30.8062 29.1938 30.9 29.1938 31.0031 29.175C31.0969 29.1563 31.1906 29.1188 31.2469 29.0625C31.3018 29.0138 31.3383 28.9475 31.35 28.875H31.2375C31.2094 29.025 31.0969 29.0625 30.975 29.0813C30.7781 29.1188 30.6281 29.0531 30.5906 28.8656C30.5531 28.6687 30.7125 28.575 30.8719 28.5375C30.9937 28.5187 31.1063 28.5094 31.1719 28.6031L31.2656 28.5656C31.2304 28.5096 31.1777 28.4667 31.1156 28.4437C31.0326 28.4223 30.9455 28.4223 30.8625 28.4437V28.4437ZM31.3594 28.35L31.575 29.0719L32.2781 28.8656L32.2406 28.7625L31.65 28.9406L31.5844 28.7156L32.1188 28.5563L32.0906 28.4625L31.5563 28.6125L31.5 28.425L32.0625 28.2562L32.0344 28.1531L31.3594 28.35ZM32.175 28.0969L32.4844 28.7812L32.5781 28.7344L32.3156 28.1719L33.0469 28.5H33.0938L33.1875 28.4531L32.8688 27.7688L32.775 27.8156L33.0375 28.3781L32.2875 28.0406L32.175 28.0969V28.0969ZM33 27.7125L33.0563 27.8063L33.3187 27.6188H33.3375L33.6844 28.1531L33.7781 28.0875L33.4313 27.5625V27.5531L33.7031 27.3656L33.6469 27.2812L33 27.7125ZM33.75 27.1875L34.2562 27.75L34.3406 27.6656L34.1438 27.45L34.4062 27.2063L34.7812 27.2625L34.8938 27.1687L34.4906 27.1125C34.5375 27.0469 34.5563 26.9438 34.5094 26.8688C34.4719 26.8031 34.4156 26.7469 34.3313 26.7562C34.2375 26.7562 34.1437 26.8312 34.0781 26.8875L33.75 27.1969V27.1875ZM33.9 27.1969L34.1813 26.9344C34.2375 26.8969 34.3125 26.85 34.3688 26.8875C34.4344 26.9156 34.4344 26.9906 34.3969 27.0375C34.3406 27.1312 34.2562 27.1969 34.1719 27.2812L34.0687 27.375L33.9 27.1875V27.1969ZM34.6219 26.3156L34.9594 27.0938L35.0344 27L34.9406 26.7562L35.1937 26.4375L35.4469 26.4938L35.5312 26.4L34.7063 26.2125L34.6219 26.3156V26.3156ZM34.7531 26.3438L35.0813 26.4094L34.8938 26.6438L34.7531 26.3438ZM34.95 25.8938L35.5781 26.2969L35.9062 25.7906L35.8125 25.7344L35.5594 26.1375L35.55 26.1562H35.5406L35.0062 25.8L34.95 25.8938Z" fill="#C8A400"/>
<path d="M29.9941 16.9805L27.6316 21.068L26.4766 23.0705H33.5116L32.4091 21.1655L29.9941 16.9805V16.9805Z" fill="white"/>
<path opacity="0.6" d="M29.9925 16.9805L29.8125 17.2805L29.9925 21.4055L30.1725 17.2805L29.9925 16.9805Z" fill="#17C0EB"/>
<path opacity="0.6" fill-rule="evenodd" clip-rule="evenodd" d="M29.9963 16.9727L30.1801 17.279L30 21.4051H29.9925L29.8125 17.279L29.9963 16.9727ZM29.8201 17.2809L29.9963 21.3189L30.1725 17.2809L29.9963 16.9872L29.8201 17.2809Z" fill="#17C0EB"/>
<path d="M29.9997 20.8125H29.9922L29.9997 21.0375L30.0072 20.8125H29.9997Z" fill="white"/>
<path d="M29.9941 19.9336C29.1951 19.9327 28.4228 20.2203 27.8191 20.7436L26.7241 22.6486C26.6848 22.8538 26.6648 23.0622 26.6641 23.2711H27.0391C27.0772 22.5141 27.4048 21.8007 27.9541 21.2784C28.5034 20.7562 29.2324 20.4649 29.9903 20.4649C30.7483 20.4649 31.4772 20.7562 32.0265 21.2784C32.5758 21.8007 32.9034 22.5141 32.9416 23.2711H33.3166C33.3183 23.0624 33.3008 22.854 33.2641 22.6486L32.1691 20.7436C31.565 20.2209 30.7929 19.9334 29.9941 19.9336Z" fill="#FF0000"/>
<path d="M29.9966 20.0039C29.149 20.0021 28.3339 20.3303 27.7241 20.9189L26.8241 22.4864C26.7603 22.7415 26.7276 23.0034 26.7266 23.2664H27.0491C27.1023 22.521 27.4359 21.8235 27.9828 21.3142C28.5297 20.8049 29.2493 20.5218 29.9966 20.5218C30.7439 20.5218 31.4634 20.8049 32.0103 21.3142C32.5572 21.8235 32.8909 22.521 32.9441 23.2664H33.2666C33.2659 23.0009 33.2332 22.7365 33.1691 22.4789L32.2691 20.9189C31.6592 20.3303 30.8442 20.0021 29.9966 20.0039V20.0039Z" fill="#FF6600"/>
<path d="M29.9997 20.0625C29.5465 20.0613 29.0983 20.1563 28.6846 20.3412C28.2708 20.526 27.9011 20.7966 27.5997 21.135L26.9472 22.26C26.8432 22.5873 26.7926 22.9292 26.7972 23.2725H27.0447C27.0828 22.5155 27.4104 21.8021 27.9597 21.2799C28.509 20.7576 29.238 20.4663 29.9959 20.4663C30.7539 20.4663 31.4828 20.7576 32.0321 21.2799C32.5814 21.8021 32.909 22.5155 32.9472 23.2725H33.2097C33.2097 22.92 33.1497 22.5825 33.0522 22.2675L32.3922 21.135C32.0919 20.7972 31.7234 20.5269 31.311 20.342C30.8986 20.1572 30.4516 20.0619 29.9997 20.0625V20.0625Z" fill="#FFFF00"/>
<path d="M29.9938 20.1208C29.4765 20.1205 28.967 20.2476 28.5105 20.4909C28.054 20.7342 27.6645 21.0862 27.3763 21.5158L27.1663 21.8833C26.9537 22.3149 26.8434 22.7897 26.8438 23.2708H27.0463C27.0995 22.5254 27.4331 21.8278 27.98 21.3186C28.5269 20.8093 29.2465 20.5262 29.9938 20.5262C30.741 20.5262 31.4606 20.8093 32.0075 21.3186C32.5544 21.8278 32.888 22.5254 32.9413 23.2708H33.1438C33.1441 22.7897 33.0338 22.3149 32.8213 21.8833L32.6113 21.5083C32.323 21.0787 31.9335 20.7267 31.477 20.4834C31.0205 20.2401 30.511 20.113 29.9938 20.1133V20.1208Z" fill="#00FF00"/>
<path d="M29.9963 20.1758C29.5898 20.1758 29.1874 20.256 28.812 20.4117C28.4366 20.5675 28.0957 20.7957 27.8086 21.0835C27.5216 21.3712 27.2942 21.7127 27.1393 22.0885C26.9845 22.4642 26.9053 22.8669 26.9063 23.2733H27.0488C27.102 22.5279 27.4356 21.8303 27.9825 21.3211C28.5294 20.8118 29.249 20.5287 29.9963 20.5287C30.7436 20.5287 31.4631 20.8118 32.01 21.3211C32.5569 21.8303 32.8906 22.5279 32.9438 23.2733H33.0863C33.0872 22.8669 33.008 22.4642 32.8532 22.0885C32.6984 21.7127 32.4709 21.3712 32.1839 21.0835C31.8968 20.7957 31.5559 20.5675 31.1805 20.4117C30.8051 20.256 30.4027 20.1758 29.9963 20.1758V20.1758Z" fill="#00CCFF"/>
<path d="M29.9987 20.2344C29.1951 20.2344 28.4245 20.5536 27.8562 21.1218C27.288 21.6901 26.9688 22.4608 26.9688 23.2644H27.0737C27.0737 22.4886 27.3819 21.7446 27.9305 21.1961C28.479 20.6475 29.223 20.3394 29.9987 20.3394C30.7745 20.3394 31.5185 20.6475 32.067 21.1961C32.6156 21.7446 32.9237 22.4886 32.9237 23.2644H33.0288C33.0248 22.4634 32.7038 21.6965 32.136 21.1315C31.5682 20.5665 30.7998 20.2494 29.9987 20.2494V20.2344Z" fill="#0000FF"/>
<path d="M29.9939 20.3044C29.5994 20.3043 29.2089 20.3828 28.8451 20.5354C28.4813 20.6879 28.1515 20.9114 27.875 21.1927C27.5985 21.4741 27.3809 21.8078 27.2347 22.1742C27.0886 22.5406 27.0169 22.9325 27.0239 23.3269H27.0839V23.2669C27.0919 22.4951 27.4061 21.7581 27.9574 21.218C28.5088 20.6779 29.2521 20.3789 30.0239 20.3869C30.7957 20.3948 31.5327 20.7091 32.0728 21.2604C32.6129 21.8118 32.9119 22.5551 32.9039 23.3269H32.9639V23.2669C32.9639 22.8768 32.8871 22.4906 32.7378 22.1303C32.5886 21.77 32.3698 21.4426 32.094 21.1668C31.8182 20.891 31.4908 20.6722 31.1305 20.523C30.7701 20.3737 30.3839 20.2969 29.9939 20.2969V20.3044Z" fill="#800080"/>
<path d="M30.0269 21.6075C29.9744 21.6075 29.9369 21.57 29.8919 21.5625C29.87 21.5818 29.8536 21.6065 29.8444 21.6342C29.8352 21.6618 29.8335 21.6915 29.8394 21.72C29.8619 21.7275 29.8619 21.75 29.9069 21.7875C29.9519 21.825 29.9444 21.84 29.9369 21.9375C29.9369 21.9675 29.9444 22.05 29.9819 22.0575C30.0194 22.065 30.0569 22.035 30.0644 21.9675C30.0719 21.915 30.0944 21.8775 30.1169 21.8475C30.1394 21.705 30.1019 21.6525 30.0269 21.6075Z" fill="#510000"/>
<path d="M29.7892 21.2631C29.7442 21.2631 29.6692 21.3381 29.6392 21.3006C29.6242 21.2781 29.6167 21.2331 29.6392 21.1956C29.673 21.121 29.7312 21.0602 29.8042 21.0231C29.9767 20.9181 30.0967 20.9481 30.1792 21.0981C30.2617 21.2331 30.3442 21.3831 30.3517 21.5031C30.3517 21.5406 30.3742 21.6081 30.3367 21.6456C30.2392 21.7506 29.9917 21.5331 29.8492 21.5706C29.8042 21.5781 29.7442 21.6156 29.6992 21.5856C29.6692 21.5631 29.6992 21.5106 29.7217 21.4881C29.7667 21.4506 29.8342 21.3081 29.8267 21.2481C29.8267 21.2181 29.8267 21.2631 29.7892 21.2631V21.2631Z" fill="#FF0000"/>
<path d="M29.7703 21.1964C29.6803 21.2264 29.6953 21.2714 29.6503 21.3089C29.6653 21.3164 29.7103 21.3314 29.7553 21.2864C29.7703 21.2714 29.7928 21.2639 29.8078 21.2639L29.7553 21.3164C29.7108 21.3531 29.6749 21.3992 29.6503 21.4514C29.6278 21.5114 29.6203 21.5789 29.6278 21.5864C29.6278 21.5864 29.6578 21.6464 29.7403 21.6764C29.8903 21.7364 29.9203 21.8639 30.0778 21.8639C30.1978 21.8639 30.1828 21.7814 30.2803 21.7964C30.3553 21.8114 30.4078 21.7439 30.3253 21.7064C30.1916 21.6801 30.054 21.6801 29.9203 21.7064C29.8903 21.4064 29.9203 21.5114 29.9128 21.3764C29.9053 21.2489 29.8603 21.2414 29.9128 21.1289C29.8753 21.2039 29.8228 21.1889 29.7628 21.1889L29.7703 21.1964Z" fill="url(#paint0_linear_4046_24032)"/>
<path d="M30.07 20.9844L30.0625 21.0294L30.085 21.1044L30.1 21.1794C30.1 21.2019 30.13 21.2094 30.1525 21.2244C30.1825 21.2469 30.1525 21.2994 30.175 21.3069C30.19 21.3069 30.2125 21.2319 30.2125 21.2169V21.1644C30.2008 21.1415 30.1883 21.1189 30.175 21.0969C30.1704 21.0891 30.1654 21.0816 30.16 21.0744C30.1433 21.0491 30.1231 21.0264 30.1 21.0069C30.0927 21.0015 30.0852 20.9965 30.0775 20.9919L30.0625 20.9844H30.07Z" fill="#FF2A2A"/>
<path d="M30.092 21.5543L29.942 21.5018C29.8445 21.4718 29.747 21.4118 29.6795 21.4418C29.657 21.4493 29.657 21.4718 29.6495 21.5093C29.6495 21.5468 29.612 21.6068 29.6495 21.5843C29.6945 21.5543 29.8295 21.6443 29.8745 21.6668C29.897 21.6818 29.9495 21.7118 29.957 21.7418C29.972 21.7868 29.957 21.8768 29.957 21.9218C29.957 21.9593 29.972 22.0568 30.0095 22.0718C30.0545 22.0793 30.092 22.0418 30.107 21.9743C30.1295 21.9068 30.137 21.8693 30.167 21.8318C30.197 21.7943 30.227 21.7718 30.2645 21.7643C30.3095 21.7643 30.3695 21.8018 30.3695 21.7493C30.3695 21.7193 30.3395 21.6893 30.3545 21.6443C30.362 21.6068 30.3245 21.6143 30.287 21.5993L30.0845 21.5543H30.092Z" fill="url(#paint1_linear_4046_24032)"/>
<path d="M29.88 21.6673C29.85 21.6523 29.7075 21.5548 29.655 21.5923C29.6325 21.5923 29.625 21.5923 29.625 21.5698L29.64 21.5023C29.64 21.4798 29.655 21.4423 29.6775 21.4273C29.73 21.3823 29.85 21.4648 29.91 21.4873L29.88 21.6673V21.6673Z" fill="#910000"/>
<path d="M30.1281 21.8567C30.1956 21.7367 30.2406 21.7517 30.3231 21.7517C30.3531 21.7517 30.3606 21.7292 30.3531 21.6992C30.3306 21.7442 30.2256 21.6992 30.1656 21.7217C30.0531 21.7742 30.0756 21.9992 30.0156 22.0217C30.0756 22.0742 30.0981 21.8942 30.1281 21.8567V21.8567Z" fill="#FF3A3A"/>
<path d="M26.4766 23.0703L25.7266 24.3678H34.2691L33.5191 23.0778H26.4841L26.4766 23.0703Z" fill="white"/>
<path d="M26.2181 24.1057C26.1003 24.1055 25.9825 24.113 25.8656 24.1282L25.8281 24.1957C26.0081 24.1732 26.1806 24.1432 26.3681 24.1432C26.6081 24.1432 26.8331 24.2032 27.0956 24.2032H27.4406C27.7031 24.2032 27.9206 24.1432 28.1681 24.1432C28.4156 24.1432 28.6406 24.2032 28.9031 24.2032H29.2481C29.5106 24.2032 29.7281 24.1432 29.9756 24.1432C30.2231 24.1432 30.4481 24.2032 30.7106 24.2032H31.0481C31.3106 24.2032 31.5356 24.1432 31.7831 24.1432C32.0306 24.1432 32.2556 24.2032 32.5181 24.2032H32.8556C33.1181 24.2032 33.3431 24.1432 33.5906 24.1432C33.7856 24.1432 33.9656 24.1807 34.1531 24.1957L34.1156 24.1207C34.006 24.1093 33.8958 24.1043 33.7856 24.1057H33.4481C33.1856 24.1057 32.9606 24.1582 32.7131 24.1657C32.4656 24.1657 32.2406 24.1057 31.9781 24.1057H31.6406C31.3781 24.1057 31.1531 24.1582 30.9056 24.1657C30.6581 24.1657 30.4331 24.1057 30.1706 24.1057H29.8406C29.5781 24.1057 29.3531 24.1582 29.1056 24.1657C28.8581 24.1657 28.6331 24.1057 28.3706 24.1057H28.0331C27.7706 24.1057 27.5456 24.1582 27.2981 24.1657C27.0506 24.1657 26.8331 24.1057 26.5706 24.1057H26.2256H26.2181Z" fill="url(#paint2_linear_4046_24032)"/>
<path d="M26.4841 23.0625V23.0775H33.5116L33.5041 23.0625H26.4841V23.0625ZM26.4691 23.085L26.4616 23.1075H33.5191L33.5116 23.085H26.4616H26.4691ZM26.4541 23.115L26.4391 23.1375H33.5491L33.5341 23.115H26.4541V23.115ZM26.4316 23.1525L26.4091 23.19H33.5791L33.5566 23.1525H26.4316ZM26.4016 23.205L26.3791 23.2425H33.6091L33.5866 23.205H26.4016V23.205ZM26.3716 23.2575L26.3566 23.2875H33.6316L33.6166 23.2575H26.3716V23.2575ZM26.3416 23.31L26.3266 23.34H33.6691L33.6466 23.31H26.3416ZM26.3116 23.3625L26.2891 23.4075H33.6991L33.6766 23.3625H26.3191H26.3116Z" fill="url(#paint3_linear_4046_24032)"/>
<path d="M26.7969 23.4219C27.0519 23.4744 27.0744 23.4219 27.0744 23.4219H26.7969ZM32.9094 23.4219C32.9094 23.4219 32.9319 23.4744 33.1869 23.4219H32.9094Z" fill="url(#paint4_linear_4046_24032)"/>
<path d="M32.2881 22.2734C32.1606 22.2734 32.1231 22.3409 32.1231 22.3409C31.9206 23.1359 31.2381 23.9384 30.4281 23.9384H29.8281V24.7484H34.4331L33.9681 23.9234C33.2406 23.8184 32.6481 23.0759 32.4606 22.3409C32.4606 22.3409 32.4156 22.2734 32.2881 22.2734V22.2734Z" fill="url(#paint5_linear_4046_24032)"/>
<path d="M32.2891 22.3099C32.2291 22.3099 32.1991 22.3174 32.1766 22.3324L32.1541 22.3549C32.0416 22.7701 31.8247 23.1497 31.5241 23.4574C31.2241 23.7649 30.8491 23.9749 30.4291 23.9749H29.8516V24.7174H34.4191L33.9916 23.9674C33.6391 23.9149 33.3166 23.7274 33.0616 23.4574C32.7609 23.1497 32.544 22.7701 32.4316 22.3549L32.4091 22.3324C32.3722 22.3131 32.3304 22.3053 32.2891 22.3099V22.3099Z" fill="#97C924"/>
<path d="M32.2891 22.3125H32.3191V23.1225C32.3119 23.2929 32.2602 23.4584 32.1691 23.6025C32.1316 23.7225 32.0941 23.6775 31.9966 23.82C31.8701 23.8636 31.7394 23.8938 31.6066 23.91C31.4191 23.94 31.0066 23.97 30.7891 23.9175C31.0682 23.8321 31.3211 23.6773 31.5241 23.4675C31.5799 23.4078 31.6324 23.3453 31.6816 23.28C31.7651 23.1761 31.8404 23.0658 31.9066 22.95L31.9816 22.8C32.0174 22.7291 32.05 22.6565 32.0791 22.5825C32.108 22.5089 32.1331 22.4338 32.1541 22.3575L32.1766 22.335L32.2216 22.32L32.2966 22.3125H32.2891Z" fill="#EDE71F"/>
<path d="M32.2428 22.4141C32.2053 22.8641 32.0703 23.4041 31.7403 23.7491C31.6203 23.8466 31.4628 23.9441 31.3203 23.9216C31.8228 23.5091 32.1303 22.8716 32.2353 22.4141H32.2428Z" fill="#C6CB24"/>
<path d="M31.8306 23.1953C31.7556 23.3978 31.4706 23.6978 31.1706 23.9453H30.9531C31.1406 23.9303 31.5756 23.5703 31.8306 23.1953V23.1953Z" fill="#9ECB34"/>
<path d="M30.1638 22.3487C30.3738 23.1362 31.0487 23.9388 31.8587 23.9388H32.4663V24.7487H27.5312V23.9388H28.1313C28.9413 23.9388 29.6238 23.1362 29.8263 22.3412C29.8263 22.3412 29.8712 22.2812 29.9987 22.2812C30.1262 22.2812 30.1638 22.3412 30.1638 22.3412V22.3487Z" fill="url(#paint6_linear_4046_24032)"/>
<path d="M30 22.3095C30.06 22.3095 30.09 22.3245 30.1125 22.332L30.135 22.3545C30.2474 22.7697 30.4643 23.1493 30.765 23.457C31.065 23.7645 31.44 23.9745 31.86 23.9745H32.4375V24.717H27.5625V23.967H28.14C28.5525 23.967 28.935 23.7645 29.235 23.457C29.5329 23.1485 29.7472 22.769 29.8575 22.3545L29.88 22.332C29.9172 22.3136 29.9587 22.3058 30 22.3095V22.3095Z" fill="#97C924"/>
<path d="M29.9475 22.3127C29.94 22.3124 29.9325 22.3124 29.925 22.3127L29.88 22.3352L29.8575 22.3577C29.8366 22.4341 29.8116 22.5092 29.7825 22.5827C29.7561 22.6591 29.726 22.7342 29.6925 22.8077C29.669 22.856 29.644 22.9035 29.6175 22.9502C29.5513 23.066 29.4761 23.1764 29.3925 23.2802C29.3432 23.3429 29.2906 23.403 29.235 23.4602C29.0329 23.6727 28.7799 23.8302 28.5 23.9177C28.71 23.9702 28.8 23.9177 28.9875 23.8877C29.1375 23.8652 29.3025 23.8427 29.4375 23.7977C29.55 23.6477 29.5125 23.7002 29.55 23.5802C29.64 23.4152 29.775 23.2652 29.805 23.0777C29.925 22.8527 29.9475 22.4327 29.9475 22.3127V22.3127Z" fill="#EDE71F"/>
<path d="M29.9459 22.418C29.9159 22.868 29.7734 23.408 29.4434 23.753C29.3234 23.8505 29.1734 23.948 29.0234 23.9255C29.5334 23.513 29.8409 22.8755 29.9459 22.418Z" fill="#C6CB24"/>
<path d="M29.5341 23.1953C29.371 23.4902 29.1458 23.7461 28.8741 23.9453H28.6641C28.8516 23.9303 29.2791 23.5703 29.5341 23.1953Z" fill="#9ECB34"/>
<path d="M30.0704 22.3203L30.1079 22.3353L30.1379 22.3578C30.1592 22.434 30.1842 22.5091 30.2129 22.5828C30.2392 22.6592 30.2693 22.7343 30.3029 22.8078L30.3779 22.9503C30.444 23.0661 30.5192 23.1764 30.6029 23.2803C30.6522 23.343 30.7048 23.4031 30.7604 23.4603C30.9611 23.6812 31.2137 23.8488 31.4954 23.9478C30.9479 23.9478 30.7154 23.9028 30.5204 23.6478C30.3786 23.4977 30.2711 23.3186 30.2054 23.1228C30.1679 22.9728 30.0554 22.6353 30.0629 22.3203H30.0704Z" fill="#EDE71F"/>
<path d="M30.1094 22.418C30.1394 22.868 30.2744 23.318 30.6044 23.663C30.7244 23.768 30.8744 23.858 31.0244 23.8355C30.5532 23.4937 30.2268 22.9881 30.1094 22.418V22.418Z" fill="#C6CB24"/>
<path d="M28.8559 22.2734C28.7209 22.2734 28.6834 22.3409 28.6834 22.3409C28.4959 23.0759 27.7984 24.0134 27.0709 24.1259L26.7109 24.7484H30.3859V23.9009C29.7259 23.7209 29.1934 23.0234 29.0209 22.3409C29.0209 22.3409 28.9834 22.2809 28.8484 22.2809L28.8559 22.2734Z" fill="url(#paint7_linear_4046_24032)"/>
<path d="M28.8569 22.3091C28.7969 22.3091 28.7594 22.3241 28.7369 22.3316L28.7144 22.3541C28.5882 22.7656 28.3818 23.148 28.1069 23.4791C27.8519 23.8016 27.3794 24.1241 27.0569 24.1541L26.7344 24.7166H30.3344V23.9141C30.0636 23.8248 29.8189 23.6702 29.6219 23.4641C29.3201 23.1543 29.1031 22.7721 28.9919 22.3541L28.9694 22.3316C28.9346 22.3142 28.8957 22.3064 28.8569 22.3091V22.3091Z" fill="#97C924"/>
<path d="M28.75 22.4141C28.705 23.0891 28.33 23.9516 27.9025 24.0941C27.76 24.1466 27.52 24.1616 27.4375 24.1691C27.7682 23.9853 28.0566 23.7342 28.284 23.4318C28.5114 23.1295 28.6727 22.7827 28.7575 22.4141H28.75Z" fill="#93BC30"/>
<path d="M28.8578 22.3127H28.8203V23.1227C28.8203 23.2952 28.8878 23.4377 28.9703 23.6027L28.9853 23.6402C29.0228 23.7227 29.0453 23.7527 29.1578 23.8427C29.4799 24.0726 29.8738 24.179 30.2678 24.1427C30.1853 24.0752 30.0953 24.0152 30.0128 23.9627L30.3503 23.9252C30.0723 23.8344 29.822 23.6744 29.6228 23.4602C29.5866 23.4239 29.5515 23.3864 29.5178 23.3477L29.4728 23.2877C29.3841 23.1817 29.3038 23.0689 29.2328 22.9502C29.2062 22.9011 29.1812 22.851 29.1578 22.8002C29.1118 22.7053 29.0717 22.6076 29.0378 22.5077C29.0212 22.4582 29.0062 22.4082 28.9928 22.3577L28.9703 22.3352C28.9561 22.3281 28.941 22.323 28.9253 22.3202C28.9008 22.3142 28.8755 22.3117 28.8503 22.3127H28.8578Z" fill="#EDE71F"/>
<path d="M28.8984 22.4141C28.9359 22.8641 29.0709 23.4041 29.4009 23.7491C29.5209 23.8466 29.6709 23.9441 29.8209 23.9216C29.3634 23.5278 29.0408 23.0006 28.8984 22.4141V22.4141Z" fill="#CCD11E"/>
<path d="M29.2188 23.0466C29.4617 23.5217 29.8436 23.9115 30.3138 24.1641H30.5013C30.1713 23.9841 29.6388 23.7291 29.2263 23.0391L29.2188 23.0466Z" fill="#9ECB34"/>
<path d="M34.2338 24.352C34.1888 24.367 33.9037 24.337 33.7537 24.352L33.6562 24.3745H33.4088C33.1388 24.3745 32.9063 24.4495 32.6513 24.4495C32.3963 24.4495 32.1638 24.3745 31.9013 24.3745H31.6463C31.3763 24.3745 31.1438 24.4495 30.8888 24.4495C30.6338 24.4495 30.4013 24.3745 30.1388 24.3745H29.8838C29.6138 24.3745 29.3813 24.4495 29.1338 24.4495C28.8713 24.4495 28.6463 24.3745 28.3763 24.3745H28.1213C27.8513 24.3745 27.6263 24.4495 27.3713 24.4495C27.1088 24.4495 26.8838 24.3745 26.6138 24.3745H26.3588C26.1488 24.3745 25.8938 24.4195 25.6913 24.4345L25.2188 25.252H34.7738L34.2338 24.352Z" fill="white"/>
<path d="M33.5947 24.2344H33.5497C33.3097 24.2419 33.1297 24.3169 32.7097 24.3169C32.2897 24.3169 32.2447 24.2419 31.7647 24.2569C31.3147 24.2569 31.1347 24.3469 30.8872 24.3469C30.6472 24.3469 30.2572 24.2944 29.9497 24.3244C29.6497 24.3544 29.2897 24.4219 29.0497 24.4219C28.7572 24.4219 28.4647 24.3694 28.1647 24.3994C27.8572 24.4294 27.7147 24.5119 27.3322 24.5119C27.0022 24.5119 26.6572 24.4594 26.3722 24.4594C26.1172 24.4594 25.8322 24.5344 25.6222 24.5644L25.5547 24.6769C25.7272 24.6544 26.1997 24.5794 26.3647 24.5794C26.5447 24.5794 27.1672 24.6169 27.5122 24.6019C27.8647 24.5944 27.9022 24.5119 28.3147 24.5119C28.5997 24.5119 28.8097 24.5419 29.1022 24.5419C29.2897 24.5419 29.4547 24.4519 29.7322 24.4519L29.9422 24.4444C30.1747 24.4069 30.5722 24.4444 30.8422 24.4594C31.0897 24.4744 31.2547 24.4144 31.5172 24.4069L31.8472 24.3994C32.1097 24.3844 32.3272 24.4444 32.5747 24.4444C32.8147 24.4294 33.0547 24.3694 33.3097 24.3694L33.6472 24.3544C33.8197 24.3544 34.0897 24.3544 34.2697 24.3919L34.2097 24.2869C34.0297 24.2794 33.8122 24.2344 33.5947 24.2344V24.2344Z" fill="url(#paint8_linear_4046_24032)"/>
<path d="M26.2697 25.1091C26.0147 25.1091 25.7897 25.1691 25.5497 25.1766C25.4593 25.1742 25.3692 25.1667 25.2797 25.1541L25.2422 25.2141H25.6922C25.9547 25.2141 26.1722 25.1541 26.4122 25.1466C26.6597 25.1541 26.8772 25.2216 27.1397 25.2216H27.4772C27.7322 25.2216 27.9572 25.1541 28.1972 25.1466C28.4447 25.1541 28.6697 25.2216 28.9247 25.2216H29.2622C29.5247 25.2216 29.7422 25.1541 29.9897 25.1466C30.2297 25.1541 30.4472 25.2216 30.7097 25.2216H31.0472C31.3022 25.2216 31.5272 25.1541 31.7747 25.1466C32.0147 25.1541 32.2397 25.2216 32.4947 25.2216H32.8322C33.0947 25.2216 33.3122 25.1541 33.5522 25.1466C33.7997 25.1541 34.0172 25.2216 34.2797 25.2216H34.6172L34.7522 25.2141L34.7147 25.1541C34.6397 25.1616 34.5572 25.1766 34.4747 25.1766C34.2272 25.1766 34.0097 25.1016 33.7472 25.1016H33.4097C33.1547 25.1016 32.9297 25.1766 32.6897 25.1766C32.4422 25.1691 32.2247 25.1016 31.9622 25.1016H31.6247C31.3697 25.1016 31.1447 25.1766 30.9047 25.1766C30.6572 25.1691 30.4397 25.1016 30.1772 25.1016H29.8397C29.5772 25.1016 29.3597 25.1766 29.1197 25.1766C28.8722 25.1691 28.6547 25.1016 28.3922 25.1016H28.0547C27.7997 25.1016 27.5747 25.1766 27.3347 25.1766C27.0872 25.1691 26.8697 25.1016 26.6072 25.1016H26.2697V25.1091Z" fill="url(#paint9_linear_4046_24032)"/>
<path d="M25.7891 24.3527L25.6016 24.6677C25.8191 24.6302 26.1341 24.5402 26.4041 24.5402C26.6741 24.5402 27.0041 24.6077 27.3341 24.6152C27.7091 24.6152 27.8591 24.5252 28.1591 24.4952C28.4666 24.4652 28.7591 24.5327 29.0591 24.5402C29.2916 24.5402 29.6516 24.4577 29.9591 24.4277C30.2591 24.3902 30.5366 24.4502 30.8966 24.4502C31.2641 24.4577 31.3241 24.3602 31.7666 24.3527C32.2466 24.3452 32.2916 24.4202 32.7116 24.4202C33.0266 24.4352 33.3041 24.3527 33.5891 24.3377C33.8741 24.3152 34.0016 24.3377 34.2116 24.3377L34.0691 24.0977L26.4716 24.2702L25.7891 24.3527Z" fill="#97C924"/>
<path d="M33.75 24.3438L34.05 24.3662C34.1224 24.3749 34.1949 24.3824 34.2675 24.3888L34.2375 24.3513C34.1925 24.3663 33.9075 24.3363 33.7575 24.3513L33.75 24.3438Z" fill="white"/>
<path d="M30 16.8672L27.5906 21.0391L25.125 25.3141H34.875L32.4656 21.1328L30 16.8766V16.8672ZM30 17.0922L32.3625 21.1891L34.6781 25.2016H25.3219L27.6844 21.0953L30 17.0922Z" fill="#C8A400"/>
</g>
<defs>
<linearGradient id="paint0_linear_4046_24032" x1="29.8978" y1="21.6839" x2="30.0403" y2="21.2564" gradientUnits="userSpaceOnUse">
<stop stop-color="#510000"/>
<stop offset="0.3" stop-color="#8A0000"/>
<stop offset="1" stop-color="#AA0000"/>
</linearGradient>
<linearGradient id="paint1_linear_4046_24032" x1="30.0995" y1="21.8543" x2="30.212" y2="21.5543" gradientUnits="userSpaceOnUse">
<stop stop-color="#FF2A2A"/>
<stop offset="1" stop-color="#FF0000"/>
</linearGradient>
<linearGradient id="paint2_linear_4046_24032" x1="25.8281" y1="23.8132" x2="40.0706" y2="23.8132" gradientUnits="userSpaceOnUse">
<stop stop-color="#002255"/>
<stop offset="0.5" stop-color="#0044AA"/>
<stop offset="1" stop-color="#002255"/>
</linearGradient>
<linearGradient id="paint3_linear_4046_24032" x1="25.8316" y1="23.8125" x2="40.0741" y2="23.8125" gradientUnits="userSpaceOnUse">
<stop stop-color="#002255"/>
<stop offset="0.5" stop-color="#0044AA"/>
<stop offset="1" stop-color="#002255"/>
</linearGradient>
<linearGradient id="paint4_linear_4046_24032" x1="25.8294" y1="23.8119" x2="40.0719" y2="23.8119" gradientUnits="userSpaceOnUse">
<stop stop-color="#002255"/>
<stop offset="0.5" stop-color="#0044AA"/>
<stop offset="1" stop-color="#002255"/>
</linearGradient>
<linearGradient id="paint5_linear_4046_24032" x1="28.8531" y1="23.3759" x2="28.8531" y2="23.8184" gradientUnits="userSpaceOnUse">
<stop stop-color="#F5F549"/>
<stop offset="1" stop-color="#97C924"/>
</linearGradient>
<linearGradient id="paint6_linear_4046_24032" x1="28.8588" y1="23.3762" x2="28.8588" y2="23.8187" gradientUnits="userSpaceOnUse">
<stop stop-color="#F5F549"/>
<stop offset="1" stop-color="#97C924"/>
</linearGradient>
<linearGradient id="paint7_linear_4046_24032" x1="28.8559" y1="23.3759" x2="28.8559" y2="23.8184" gradientUnits="userSpaceOnUse">
<stop stop-color="#F5F549"/>
<stop offset="1" stop-color="#97C924"/>
</linearGradient>
<linearGradient id="paint8_linear_4046_24032" x1="25.5556" y1="24.2361" x2="34.2805" y2="24.2361" gradientUnits="userSpaceOnUse">
<stop stop-color="#002255"/>
<stop offset="0.5" stop-color="#0044AA"/>
<stop offset="1" stop-color="#002255"/>
</linearGradient>
<linearGradient id="paint9_linear_4046_24032" x1="25.2753" y1="25.1046" x2="34.7187" y2="25.1046" gradientUnits="userSpaceOnUse">
<stop stop-color="#002255"/>
<stop offset="0.5" stop-color="#0044AA"/>
<stop offset="1" stop-color="#002255"/>
</linearGradient>
<clipPath id="clip0_4046_24032">
<rect width="60" height="45" fill="white"/>
</clipPath>
</defs>
</svg>
