<svg width="60" height="45" viewBox="0 0 60 45" fill="none" xmlns="http://www.w3.org/2000/svg">
<g clip-path="url(#clip0_4046_24103)">
<path d="M0 0H60V45H0V0Z" fill="white"/>
<path fill-rule="evenodd" clip-rule="evenodd" d="M0.578125 44.4277H33.8711L12.083 22.332L34.6973 22.3584L0.586914 0.570312V44.4277H0.578125Z" fill="#CE0000"/>
<path fill-rule="evenodd" clip-rule="evenodd" d="M-0.0234375 -0.535156L36.7732 22.9688L13.5305 22.9417L35.3169 45.0357H0.574219V44.4292H-0.0234375V-0.535156ZM1.18945 43.8228H32.4175L10.6277 21.7254L32.6136 21.751L1.18945 1.67879V43.8228Z" fill="#000063"/>
<path fill-rule="evenodd" clip-rule="evenodd" d="M15.8809 32.6797L13.5078 33.4707L15.3711 35.2109L12.8662 35.0527L13.8945 37.3555L11.6533 36.2744L11.6973 38.7881L10.0449 36.9512L9.10449 39.2891L8.2959 36.9775L6.51172 38.7881L6.66992 36.3535L4.30566 37.3555L5.41309 35.1582L2.83789 35.2109L4.72754 33.6025L2.32812 32.6797L4.70117 31.8887L2.8291 30.1484L5.3252 30.3066L4.30566 28.0039L6.55566 29.085L6.51172 26.5713L8.16406 28.4082L9.10449 26.0703L9.9043 28.3818L11.6973 26.5713L11.5303 29.0059L13.9033 28.0039L12.7871 30.2012L15.3711 30.1484L13.4814 31.7568L15.8809 32.6797ZM13.0332 16.4463L12.04 17.1846L12.5322 17.5889C13.6872 16.7821 14.6162 15.6927 15.2305 14.4248C15.3887 16.2969 13.6748 20.4893 9.19238 20.5332C8.3731 20.5437 7.55986 20.3917 6.7996 20.0862C6.03934 19.7807 5.34711 19.3277 4.76286 18.7533C4.17861 18.1788 3.71392 17.4943 3.39559 16.7394C3.07727 15.9844 2.91162 15.1738 2.9082 14.3545C3.78711 15.9541 4.33203 16.7275 5.7207 17.5625L6.13379 17.1758L5.20215 16.3936L6.40625 16.0771L5.75586 14.9873L7.02148 15.0752L6.86328 13.8096L7.9707 14.46L8.32227 13.2734L9.11328 14.2227L9.86035 13.3174L10.2646 14.5479L11.3018 13.8271L11.1699 15.084L12.418 14.9346L11.8291 16.0947L13.0332 16.4463V16.4463Z" fill="white"/>
</g>
<defs>
<clipPath id="clip0_4046_24103">
<rect width="60" height="45" fill="white"/>
</clipPath>
</defs>
</svg>
