<svg width="60" height="45" viewBox="0 0 60 45" fill="none" xmlns="http://www.w3.org/2000/svg">
<g clip-path="url(#clip0_4046_24110)">
<path fill-rule="evenodd" clip-rule="evenodd" d="M-7.49219 0H82.5078V45H-7.49219V0Z" fill="#002170"/>
<path fill-rule="evenodd" clip-rule="evenodd" d="M-7.49219 20.5742H82.5078V24.4326H-7.49219V20.5742Z" fill="#FFB20D"/>
<path fill-rule="evenodd" clip-rule="evenodd" d="M19.0332 38.4961L16.1328 35.5957L15.21 39.5859L14.1553 35.6309L11.3516 38.6191L12.415 34.6641L8.50391 35.8506L11.4043 32.9502L7.41406 32.0186L11.3691 30.9639L8.38086 28.1689L12.3359 29.2236L11.1406 25.3125L14.041 28.2129L14.9727 24.2227L16.0273 28.1777L18.8223 25.1895L17.7676 29.1445L21.6787 27.958L18.7783 30.8584L22.7686 31.7812L18.8135 32.8359L21.8018 35.6484L17.8467 34.5762L19.0332 38.4961Z" fill="white"/>
</g>
<defs>
<clipPath id="clip0_4046_24110">
<rect width="60" height="45" fill="white"/>
</clipPath>
</defs>
</svg>
