<svg width="60" height="45" viewBox="0 0 60 45" fill="none" xmlns="http://www.w3.org/2000/svg">
<g clip-path="url(#clip0_4046_24115)">
<path d="M0 0H60V45H0V0Z" fill="#FEDD00"/>
<path d="M0 0H30V22.5H0V0Z" fill="#012169"/>
<path d="M3.51562 0L14.9531 8.48438L26.3438 0H30V2.90625L18.75 11.2969L30 19.6406V22.5H26.25L15 14.1094L3.79688 22.5H0V19.6875L11.2031 11.3438L0 3V0H3.51562Z" fill="white"/>
<path d="M19.875 13.1719L30 20.625V22.5L17.2969 13.1719H19.875ZM11.25 14.1094L11.5312 15.75L2.53125 22.5H0L11.25 14.1094ZM30 0V0.140625L18.3281 8.95312L18.4219 6.89062L27.6562 0H30ZM0 0L11.2031 8.25H8.39062L0 1.96875V0Z" fill="#C8102E"/>
<path d="M11.2969 0V22.5H18.7969V0H11.2969ZM0 7.5V15H30V7.5H0Z" fill="white"/>
<path d="M0 9.04688V13.5469H30V9.04688H0ZM12.7969 0V22.5H17.2969V0H12.7969Z" fill="#C8102E"/>
<path d="M14.9969 15.0758C17.1094 15.0758 18.8219 13.3633 18.8219 11.2508C18.8219 9.13829 17.1094 7.42578 14.9969 7.42578C12.8844 7.42578 11.1719 9.13829 11.1719 11.2508C11.1719 13.3633 12.8844 15.0758 14.9969 15.0758Z" fill="#012169"/>
<path d="M15.0016 7.42422L17.2516 14.343L11.3641 10.068H18.6391L12.7516 14.343M6.25469 9.21484L7.56719 13.2836L4.11719 10.7805H8.40156L4.93281 13.293M23.7484 9.21484L25.0703 13.2836L21.6109 10.7711H25.8953L22.4266 13.2836M15.0016 16.7148L16.3234 20.7836L12.8547 18.2711H17.1391L13.6703 20.7836M15.0016 1.71484L16.3234 5.78359L12.8547 3.27109H17.1391L13.6703 5.78359" fill="#FEDD00"/>
</g>
<defs>
<clipPath id="clip0_4046_24115">
<rect width="60" height="45" fill="white"/>
</clipPath>
</defs>
</svg>
