<svg width="60" height="45" viewBox="0 0 60 45" fill="none" xmlns="http://www.w3.org/2000/svg">
<g clip-path="url(#clip0_4046_24693)">
<path d="M0 0H60V45H0V0Z" fill="white"/>
<path d="M7.5 0H52.5V45H7.5V0Z" fill="white"/>
<path fill-rule="evenodd" clip-rule="evenodd" d="M26.0005 31.9492C26.0005 31.9492 27.013 31.1242 28.0068 31.1242C29.0005 31.1242 29.263 31.8086 29.9568 31.8648C30.6412 31.9211 31.213 31.1805 32.0662 31.1523C32.9193 31.1242 33.988 31.7523 33.988 31.7523L30.2568 32.8773L26.0005 31.9398V31.9492ZM23.8537 30.7305L36.5474 30.7961C36.5474 30.7961 35.4505 29.6055 34.1568 29.5773C32.863 29.5586 33.2193 30.1398 32.2349 30.2148C31.2412 30.2992 30.9974 29.6148 30.088 29.6336C29.188 29.6617 28.663 30.2148 27.9787 30.243C27.2849 30.2711 26.413 29.5586 25.888 29.5867C25.363 29.6148 23.4974 30.4023 23.4974 30.4023L23.8537 30.7398V30.7305ZM22.2318 29.2305L37.888 29.2773C38.1412 28.9211 37.1193 28.068 36.1912 27.993C35.4224 28.0211 34.8787 28.7898 34.2412 28.818C33.6037 28.8461 32.8912 28.0211 32.1787 28.0492C31.4662 28.0773 30.7255 28.818 30.013 28.818C29.2912 28.818 28.7755 28.0211 27.8662 28.0211C26.9568 28.0211 26.5537 28.893 25.8599 28.8461C25.1755 28.7898 24.5662 27.9648 23.9099 27.9648C23.2537 27.9648 22.1568 28.9492 21.9412 28.9023C21.7162 28.8367 22.213 29.3055 22.2318 29.2211V29.2305Z" fill="#083D9C"/>
<path fill-rule="evenodd" clip-rule="evenodd" d="M23.3165 28.0328C23.5188 27.9395 23.7253 27.8711 23.9099 27.8711C24.0936 27.8711 24.2693 27.9288 24.4364 28.0104C24.603 28.0918 24.7672 28.2002 24.9264 28.3064L24.9354 28.3124C25.2583 28.5277 25.5571 28.7269 25.8669 28.7526C26.1639 28.7724 26.4029 28.6039 26.699 28.3951C26.7087 28.3883 26.7184 28.3814 26.7282 28.3745C27.0294 28.1624 27.3792 27.9273 27.8662 27.9273C28.3492 27.9273 28.7253 28.1399 29.0581 28.3391C29.0748 28.3491 29.0915 28.3591 29.108 28.369C29.4269 28.5605 29.6998 28.7242 30.013 28.7242C30.3421 28.7242 30.6841 28.5524 31.0526 28.3609C31.063 28.3556 31.0733 28.3502 31.0837 28.3448C31.432 28.1638 31.8044 27.9702 32.175 27.9555C32.5632 27.9402 32.9438 28.1565 33.2847 28.3523C33.2932 28.3572 33.3016 28.362 33.3101 28.3669C33.4758 28.4621 33.6336 28.5528 33.7876 28.6198C33.9492 28.6902 34.098 28.7304 34.237 28.7243C34.3782 28.7181 34.5183 28.6707 34.6647 28.5973C34.7974 28.5309 34.9298 28.4461 35.0702 28.3561C35.0855 28.3463 35.1009 28.3364 35.1165 28.3265C35.426 28.1287 35.7744 27.9144 36.1877 27.8993L36.1932 27.8991L36.1987 27.8995C36.6854 27.9389 37.1899 28.1803 37.5405 28.456C37.7158 28.5938 37.8588 28.745 37.9417 28.8905C38.0225 29.0326 38.0599 29.1973 37.9645 29.3316L37.9363 29.3712L22.2318 29.3242C22.2213 29.3255 22.2115 29.3252 22.2029 29.3241L22.138 29.3239V29.3019C22.1225 29.2938 22.1075 29.2843 22.0941 29.2752C22.0422 29.2399 21.9808 29.1871 21.9288 29.135C21.8797 29.0859 21.8267 29.0256 21.8037 28.9752C21.7977 28.9619 21.79 28.9417 21.7891 28.918C21.7882 28.8916 21.7962 28.8545 21.8295 28.8277C21.8583 28.8044 21.8907 28.8019 21.9092 28.8023C21.9264 28.8027 21.9435 28.8059 21.9594 28.8101C21.9613 28.81 21.9648 28.8095 21.9705 28.8082C21.983 28.8053 22.0005 28.7994 22.0236 28.7895C22.0697 28.7695 22.1286 28.7374 22.1994 28.6952C22.2838 28.6447 22.3787 28.5837 22.4827 28.5169C22.5545 28.4707 22.6306 28.4218 22.7105 28.3717C22.903 28.2511 23.1124 28.1269 23.3165 28.0328ZM22.2318 29.2108L22.2321 29.1393C22.2311 29.139 22.2284 29.1383 22.2242 29.1379C22.2197 29.1374 22.2105 29.137 22.199 29.1401C22.1867 29.1433 22.1723 29.1504 22.1601 29.1635C22.1481 29.1763 22.1426 29.1903 22.1403 29.2008L22.2318 29.2108ZM22.2321 29.1393L22.2321 29.1367L37.8294 29.1834C37.8403 29.1381 37.8299 29.0732 37.7787 28.9833C37.7122 28.8664 37.5891 28.7327 37.4246 28.6034C37.0969 28.3457 36.629 28.1239 36.1891 28.0869C35.836 28.1016 35.5297 28.2849 35.2174 28.4845C35.2019 28.4944 35.1863 28.5044 35.1707 28.5144C35.0318 28.6034 34.8908 28.6938 34.7487 28.765C34.5898 28.8446 34.4229 28.9038 34.2453 28.9116C34.0655 28.9196 33.8863 28.8673 33.7127 28.7917C33.5489 28.7204 33.3826 28.6248 33.2197 28.5312C33.2103 28.5258 33.2008 28.5203 33.1913 28.5149C32.8385 28.3122 32.5066 28.1301 32.1824 28.1429C31.8543 28.1558 31.5144 28.3324 31.1486 28.5224L31.1391 28.5273C30.7811 28.7133 30.3965 28.9117 30.013 28.9117C29.6458 28.9117 29.3298 28.7215 29.0245 28.5377C29.0036 28.5251 28.9826 28.5125 28.9618 28.5C28.6289 28.3007 28.2925 28.1148 27.8662 28.1148C27.4438 28.1148 27.1373 28.3157 26.8362 28.5278C26.8202 28.539 26.8043 28.5503 26.7883 28.5617C26.5105 28.7582 26.2193 28.9643 25.8536 28.9396L25.8529 28.9396L25.8522 28.9395C25.493 28.91 25.1583 28.6866 24.8533 28.483C24.843 28.4761 24.8326 28.4692 24.8224 28.4624C24.6617 28.3552 24.5076 28.2539 24.3541 28.1789C24.2009 28.104 24.0544 28.0586 23.9099 28.0586C23.7664 28.0586 23.5897 28.1132 23.395 28.2031C23.2021 28.292 23.0008 28.411 22.8101 28.5306C22.7347 28.5778 22.6602 28.6258 22.5886 28.6717C22.4818 28.7403 22.3817 28.8046 22.2956 28.8561C22.2229 28.8995 22.1556 28.9367 22.0979 28.9616C22.0792 28.9697 22.0605 28.9769 22.0421 28.9827C22.0482 28.9891 22.0546 28.9957 22.0614 29.0025C22.1077 29.0488 22.16 29.0933 22.1995 29.1201C22.2092 29.1267 22.2172 29.1316 22.2235 29.135C22.2283 29.1377 22.2311 29.1389 22.2321 29.1393ZM33.4203 29.5693C33.5969 29.5121 33.8282 29.4788 34.1581 29.4836L34.1588 29.4836C34.8323 29.4983 35.4482 29.8145 35.8905 30.1201C36.1127 30.2736 36.2935 30.4261 36.4189 30.5403C36.4817 30.5974 36.5307 30.6451 36.5641 30.6787C36.5809 30.6955 36.5937 30.7087 36.6025 30.7179C36.6069 30.7225 36.6103 30.7261 36.6126 30.7285L36.6153 30.7314L36.6162 30.7324L36.6163 30.7325C36.6163 30.7325 36.6164 30.7326 36.5474 30.7961L36.6163 30.7325L36.7623 30.891L23.9474 30.8247V30.9578L23.3288 30.3718L23.461 30.316L23.4974 30.4023C23.461 30.316 23.4609 30.316 23.461 30.316L23.4611 30.3159L23.4664 30.3137L23.4823 30.307C23.4962 30.3012 23.5166 30.2927 23.5427 30.2819C23.5949 30.2602 23.6701 30.2292 23.7619 30.192C23.9455 30.1175 24.1958 30.0179 24.4628 29.9173C24.7296 29.8169 25.0139 29.7151 25.265 29.6366C25.5129 29.559 25.7385 29.5008 25.883 29.4931C26.0342 29.485 26.2021 29.53 26.3715 29.5936C26.5205 29.6494 26.6797 29.7233 26.8398 29.7975C26.863 29.8083 26.8862 29.819 26.9094 29.8297C27.2846 30.0031 27.6547 30.1623 27.9749 30.1493C28.2729 30.137 28.5395 30.0188 28.845 29.8834C28.868 29.8732 28.8912 29.8629 28.9146 29.8525C29.2454 29.7065 29.6158 29.5546 30.0851 29.5399L30.0861 29.5399C30.5431 29.5304 30.844 29.6906 31.1271 29.8412C31.1427 29.8495 31.1582 29.8578 31.1737 29.866C31.4678 30.0217 31.7574 30.1613 32.227 30.1214L32.2278 30.1214C32.4637 30.1034 32.6134 30.0557 32.7255 29.9977C32.8173 29.9502 32.8856 29.8957 32.9619 29.8347C32.9813 29.8192 33.0013 29.8033 33.0222 29.787C33.1246 29.7073 33.242 29.627 33.4203 29.5693ZM23.6666 30.4335L23.8813 30.6369L36.3169 30.7012C36.3091 30.6939 36.301 30.6865 36.2927 30.6789C36.172 30.569 35.9977 30.4221 35.784 30.2744C35.3545 29.9777 34.7752 29.6847 34.1551 29.6711C33.8384 29.6665 33.6291 29.6988 33.478 29.7477C33.3285 29.7961 33.2308 29.8623 33.1374 29.9349C33.1201 29.9484 33.1025 29.9625 33.0846 29.9768C33.0069 30.039 32.9215 30.1074 32.8116 30.1642C32.6733 30.2357 32.4985 30.2887 32.2424 30.3083C31.7185 30.3527 31.3894 30.1923 31.086 30.0317C31.0719 30.0242 31.0579 30.0168 31.044 30.0094C30.76 29.8585 30.4975 29.719 30.0905 29.7273C29.66 29.7409 29.318 29.8794 28.9903 30.0241C28.9651 30.0352 28.9399 30.0464 28.9147 30.0576C28.6166 30.1901 28.318 30.3229 27.9825 30.3366C27.6089 30.3518 27.1962 30.1688 26.8307 30C26.8071 29.989 26.7837 29.9782 26.7605 29.9674C26.5996 29.8928 26.4475 29.8223 26.3057 29.7691C26.1423 29.7079 26.0043 29.6744 25.8931 29.6803C25.7751 29.6867 25.5706 29.7374 25.321 29.8155C25.0747 29.8925 24.7941 29.9929 24.5289 30.0928C24.2638 30.1926 24.015 30.2917 23.8324 30.3657C23.7682 30.3918 23.7122 30.4147 23.6666 30.4335ZM25.987 31.8409L25.9068 31.8232V32.1465L26.0337 32.0431L30.2605 32.9742L34.2204 31.7802L34.0355 31.6715L33.988 31.7523C34.0355 31.6715 34.0356 31.6715 34.0355 31.6715L34.0354 31.6715L34.0352 31.6713L34.0345 31.6709L34.032 31.6694C34.0298 31.6682 34.0265 31.6663 34.0224 31.6639C34.014 31.6591 34.0017 31.6522 33.9859 31.6434C33.9543 31.6259 33.9083 31.601 33.8506 31.5713C33.7353 31.5119 33.5726 31.4331 33.3826 31.3551C33.0056 31.2002 32.51 31.0439 32.0631 31.0586C31.6126 31.0735 31.2386 31.2762 30.9068 31.456L30.9035 31.4578C30.562 31.6429 30.2736 31.7968 29.9645 31.7714L29.9644 31.7714C29.6853 31.7488 29.4847 31.6171 29.2466 31.4608C29.2136 31.4392 29.1798 31.417 29.1451 31.3946C28.8618 31.2122 28.5296 31.0305 28.0068 31.0305C27.4866 31.0305 26.9684 31.2455 26.586 31.4545C26.3937 31.5596 26.2331 31.6647 26.1205 31.7435C26.0641 31.783 26.0197 31.8159 25.9892 31.8392C25.9884 31.8397 25.9877 31.8403 25.987 31.8409ZM26.2315 31.8947L30.2531 32.7805L33.7448 31.7278C33.6346 31.6716 33.4846 31.5996 33.3114 31.5285C32.9408 31.3763 32.4754 31.2327 32.0693 31.246C31.668 31.2593 31.3305 31.4397 30.9929 31.6227L30.9761 31.6318C30.6526 31.8072 30.318 31.9886 29.9492 31.9583C29.6191 31.9315 29.3767 31.7716 29.1415 31.6164C29.1088 31.5948 29.0762 31.5733 29.0435 31.5523C28.7736 31.3784 28.4777 31.218 28.0068 31.218C27.5333 31.218 27.0483 31.4155 26.676 31.619C26.4929 31.719 26.3396 31.8192 26.2315 31.8947Z" fill="#083D9C"/>
<path fill-rule="evenodd" clip-rule="evenodd" d="M28.2469 20.521L31.8469 21.4773V16.3398C30.1969 16.4335 28.8281 13.2085 31.7344 12.9929C28.875 12.5804 28.5469 13.321 28.2188 14.1179L28.2469 20.521V20.521Z" fill="#FF0000"/>
<path fill-rule="evenodd" clip-rule="evenodd" d="M28.9762 12.9965C29.49 12.7471 30.317 12.6701 31.7511 12.8769C31.8103 12.8855 31.8536 12.9372 31.8515 12.997C31.8494 13.0568 31.8027 13.1054 31.743 13.1098C31.0377 13.1621 30.6147 13.395 30.3868 13.6915C30.1586 13.9882 30.1093 14.3704 30.1964 14.7566C30.2835 15.1434 30.5059 15.5238 30.8043 15.8009C31.1027 16.078 31.4678 16.244 31.8402 16.2228C31.8724 16.221 31.9039 16.2325 31.9274 16.2546C31.9508 16.2768 31.9641 16.3076 31.9641 16.3398V21.4773C31.9641 21.5137 31.9472 21.548 31.9183 21.5702C31.8895 21.5924 31.852 21.5999 31.8168 21.5906L28.2168 20.6343L28.2469 20.5211L28.1297 20.5216L28.1016 14.1185C28.1015 14.103 28.1045 14.0876 28.1104 14.0733C28.2742 13.6754 28.452 13.2509 28.9762 12.9965ZM28.3637 20.4308L31.7297 21.3249V16.4582C31.3238 16.4446 30.9458 16.2522 30.6448 15.9726C30.3132 15.6646 30.0657 15.2429 29.9677 14.8082C29.8696 14.3729 29.9199 13.9143 30.2009 13.5486C30.3741 13.3234 30.6285 13.1416 30.973 13.0222C30.0121 12.9411 29.4405 13.0316 29.0785 13.2073C28.6497 13.4155 28.497 13.7511 28.336 14.1409L28.3637 20.4308Z" fill="black"/>
<path fill-rule="evenodd" clip-rule="evenodd" d="M25.9688 24.2539L34.0969 24.282Z" fill="#083D9C"/>
<path fill-rule="evenodd" clip-rule="evenodd" d="M25.7344 24.2531C25.7348 24.1237 25.8401 24.0191 25.9696 24.0195L34.0977 24.0477C34.2271 24.0481 34.3317 24.1534 34.3312 24.2828C34.3308 24.4123 34.2255 24.5169 34.0961 24.5164L25.9679 24.4883C25.8385 24.4878 25.7339 24.3825 25.7344 24.2531Z" fill="#083D9C"/>
<path fill-rule="evenodd" clip-rule="evenodd" d="M26.9113 22.0314C27.0148 22.035 27.0957 22.1219 27.0921 22.2254L27.0856 22.4089L27.2474 22.2122C27.3131 22.1322 27.4313 22.1207 27.5113 22.1864C27.5913 22.2522 27.6028 22.3703 27.537 22.4503L27.0945 22.9886L27.4671 23.4842C27.5293 23.567 27.5126 23.6845 27.4299 23.7467C27.3471 23.809 27.2296 23.7923 27.1673 23.7096L26.8494 23.2867L26.4964 23.716C26.4306 23.7959 26.3125 23.8075 26.2325 23.7417C26.1525 23.6759 26.141 23.5578 26.2067 23.4778L26.6175 22.9782L26.2017 22.4252C26.1395 22.3424 26.1561 22.2249 26.2389 22.1626C26.3217 22.1004 26.4392 22.1171 26.5014 22.1998L26.7081 22.4746L26.7173 22.2121C26.721 22.1087 26.8078 22.0277 26.9113 22.0314ZM28.4488 22.0314C28.5523 22.035 28.6332 22.1219 28.6296 22.2254L28.6231 22.4089L28.7849 22.2122C28.8506 22.1322 28.9688 22.1207 29.0488 22.1864C29.1288 22.2522 29.1403 22.3703 29.0745 22.4503L28.6334 22.9869L29.005 23.4847C29.0669 23.5677 29.0498 23.6852 28.9668 23.7471C28.8839 23.8091 28.7664 23.792 28.7044 23.709L28.3881 23.2852L28.0339 23.716C27.9681 23.7959 27.85 23.8075 27.77 23.7417C27.69 23.6759 27.6785 23.5578 27.7442 23.4778L28.1571 22.9757L27.7388 22.4153C27.6769 22.3323 27.6939 22.2148 27.7769 22.1529C27.8599 22.0909 27.9774 22.108 28.0393 22.191L28.2458 22.4676L28.2548 22.2121C28.2585 22.1087 28.3453 22.0277 28.4488 22.0314ZM30.0144 22.0314C30.1179 22.035 30.1989 22.1219 30.1952 22.2254L30.1887 22.4089L30.3505 22.2122C30.4163 22.1322 30.5344 22.1207 30.6144 22.1864C30.6944 22.2522 30.7059 22.3703 30.6402 22.4503L30.199 22.9869L30.5706 23.4847C30.6325 23.5677 30.6155 23.6852 30.5325 23.7471C30.4495 23.8091 30.332 23.792 30.2701 23.709L29.9537 23.2852L29.5995 23.716C29.5338 23.7959 29.4156 23.8075 29.3356 23.7417C29.2556 23.6759 29.2441 23.5578 29.3099 23.4778L29.7227 22.9757L29.3044 22.4153C29.2425 22.3323 29.2596 22.2148 29.3425 22.1529C29.4255 22.0909 29.543 22.108 29.605 22.191L29.8114 22.4676L29.8204 22.2121C29.8241 22.1086 29.9109 22.0277 30.0144 22.0314ZM33.1926 22.0314C33.296 22.035 33.377 22.1219 33.3733 22.2254L33.3664 22.4208L33.538 22.2122C33.6038 22.1322 33.7219 22.1207 33.8019 22.1864C33.8819 22.2522 33.8934 22.3703 33.8277 22.4503L33.3816 22.9929L33.7487 23.4847C33.8106 23.5677 33.7936 23.6852 33.7106 23.7471C33.6276 23.8091 33.5101 23.792 33.4482 23.709L33.1363 23.2912L32.787 23.716C32.7213 23.7959 32.6031 23.8075 32.5231 23.7417C32.4431 23.6759 32.4316 23.5578 32.4974 23.4778L32.9053 22.9817L32.4826 22.4153C32.4206 22.3323 32.4377 22.2148 32.5207 22.1529C32.6037 22.0909 32.7211 22.108 32.7831 22.191L32.9895 22.4676L32.9986 22.2121C33.0022 22.1087 33.0891 22.0277 33.1926 22.0314ZM31.6247 22.0313C31.7283 22.0337 31.8102 22.1196 31.8078 22.2232L31.8032 22.4179L31.9724 22.2122C32.0381 22.1322 32.1563 22.1207 32.2363 22.1864C32.3163 22.2522 32.3278 22.3703 32.262 22.4503L31.8178 22.9906L32.1836 23.4854C32.2452 23.5687 32.2275 23.6861 32.1443 23.7477C32.061 23.8092 31.9436 23.7916 31.882 23.7083L31.5723 23.2892L31.2214 23.716C31.1556 23.7959 31.0375 23.8075 30.9575 23.7417C30.8775 23.6759 30.866 23.5578 30.9317 23.4778L31.3424 22.9783L30.9258 22.4146C30.8642 22.3313 30.8818 22.2139 30.9651 22.1523C31.0484 22.0908 31.1658 22.1084 31.2274 22.1917L31.4271 22.4619L31.4329 22.2143C31.4353 22.1108 31.5212 22.0289 31.6247 22.0313Z" fill="black"/>
<path fill-rule="evenodd" clip-rule="evenodd" d="M20.5047 24.3383L23.9641 24.3664V22.2008L20.0078 22.0039L20.5047 24.3383ZM20.3359 21.3383L24.0203 21.7039L23.9922 20.1664L20.3922 18.732L20.3359 21.3477V21.3383ZM21.0859 18.2727L23.9078 19.6414L24.3109 19.2195C24.3109 19.2195 24.0484 19.0414 24.0672 18.8727C24.0672 18.7133 24.3297 18.6852 24.3297 18.4977C24.3297 18.3383 24.0484 18.3102 24.0391 18.1508C24.0203 17.9633 24.2641 17.7758 24.2641 17.7758L21.7141 15.5539L21.0766 18.2727H21.0859ZM39.6484 24.3664H35.9922L35.9641 22.2477L39.9766 21.9477L39.6484 24.3664ZM36.0203 21.7508L40.3609 21.2258L39.4234 18.7227L35.9922 20.1852L36.0203 21.7508ZM39.1797 18.0383L36.0484 19.6883C36.0016 19.5008 35.9641 19.332 35.7484 19.1914C35.7484 19.1914 35.9359 19.0789 35.9359 18.8914C35.9359 18.7039 35.6922 18.6664 35.6922 18.5633C35.6922 18.4602 35.9172 18.357 35.9359 18.1039C35.9078 17.9352 35.6922 17.6914 35.7297 17.6445L38.1672 15.7883L39.1797 18.0383V18.0383ZM32.3922 21.7039L33.9578 21.6383L33.9859 21.0102L32.3922 21.7039V21.7039ZM27.6109 21.657L25.9703 21.6102V20.9539L27.6203 21.657H27.6109ZM27.6109 21.4695L25.9703 20.6258V19.5195C25.9703 19.5195 25.7828 19.5477 25.8016 19.332C25.8109 18.8727 27.0109 20.1664 27.6203 20.5883L27.6109 21.4695V21.4695ZM32.3922 21.3664V20.6445C32.3922 20.6445 33.8734 19.3133 34.1828 19.0602C34.1828 19.3414 34.0141 19.5477 34.0141 19.5477V20.5977L32.3922 21.3664V21.3664ZM22.7828 15.357L24.4516 17.2039C24.4891 17.0352 24.8734 17.007 25.2578 17.0352C25.6328 17.0633 25.9422 17.007 25.9422 17.2789C25.9422 17.5508 25.7547 17.5133 25.7547 17.7102C25.7547 17.907 26.0359 17.8883 26.0359 18.132C26.0359 18.3758 25.8297 18.3289 25.8297 18.5164C25.8297 18.6758 26.0547 18.6852 26.0547 18.6852L27.6109 20.1945V18.582L24.4047 13.5477L22.7828 15.357V15.357ZM25.3516 13.4445L27.5359 17.8977C27.5359 17.8977 27.5547 13.7914 27.9203 13.5758L27.3109 12.4508L25.3516 13.4445V13.4445ZM34.8203 13.6227L32.3828 17.9539V16.1258C32.3828 16.1258 32.5891 15.8258 32.2703 15.8445C31.9516 15.8727 31.5672 15.8258 31.5672 15.8258L32.5422 12.3945L34.8203 13.6133V13.6227ZM37.3141 15.4695C37.2859 15.5164 35.6734 17.157 35.6734 17.157C35.5984 16.9695 35.1109 17.0633 34.6422 17.0633C34.1828 17.0633 34.1172 17.2133 34.1453 17.3352C34.1922 17.6445 34.3516 17.4102 34.3516 17.7102C34.3516 18.0008 34.1266 17.8977 34.0984 18.1039C34.1266 18.357 34.4547 18.2914 34.2578 18.4789L32.3922 20.2789V18.5727L35.8703 13.1727L37.3141 15.4695Z" fill="#EF7D08"/>
<path fill-rule="evenodd" clip-rule="evenodd" d="M29.0437 25.1609C28.2656 26.4547 26.175 26.0703 25.6781 25.1609C25.5375 25.1234 25.6219 19.5828 25.6219 19.5828C25.6219 19.5828 25.3875 19.4797 25.3781 19.3016C25.3688 19.1328 25.6969 19.1141 25.6969 18.8984C25.6969 18.6828 25.3594 18.7672 25.35 18.5422C25.35 18.3359 25.7156 18.3547 25.6969 18.1672C25.6781 17.9422 25.2938 17.9797 25.275 17.7734C25.275 17.6141 25.5562 17.4734 25.6312 17.3984C25.5438 17.4004 25.4562 17.4004 25.3688 17.3984L24.7688 17.4078C24.3375 17.4078 24.7688 17.5016 24.7688 17.7453C24.7688 17.9047 24.5531 18.0172 24.5344 18.1484C24.525 18.2984 24.8344 18.3922 24.8438 18.5703C24.8438 18.7203 24.5344 18.7297 24.5437 18.8797C24.5625 19.1141 24.825 19.1703 24.8156 19.3203C24.8156 19.4609 24.4781 19.5172 24.4688 19.6297C24.4875 19.8547 24.525 25.3297 24.525 25.3297C25.0594 28.1234 28.1625 28.8266 29.0437 25.1609ZM31.0969 25.1609C31.875 26.4547 33.9656 26.0703 34.4531 25.1609C34.6031 25.1234 34.5188 19.5828 34.5188 19.5828C34.5188 19.5828 34.7531 19.4797 34.7625 19.3016C34.7719 19.1328 34.4625 19.1141 34.4625 18.8984C34.4625 18.6828 34.7812 18.7672 34.7812 18.5422C34.7812 18.3359 34.4531 18.3547 34.4719 18.1484C34.4906 17.9328 34.7531 17.9609 34.7625 17.7547C34.7719 17.5766 34.6031 17.4734 34.5188 17.3984H34.7719L35.3719 17.4078C35.7937 17.4078 35.3719 17.5016 35.3719 17.7453C35.3719 17.9047 35.5875 18.0172 35.6062 18.1484C35.6062 18.2984 35.3063 18.3922 35.2969 18.5703C35.2969 18.7203 35.6063 18.7297 35.5969 18.8797C35.5781 19.1141 35.3156 19.1703 35.3156 19.3203C35.325 19.4609 35.6625 19.5172 35.6625 19.6297L35.6156 25.3297C35.0812 28.1234 31.9688 28.8266 31.0969 25.1609V25.1609Z" fill="#FF0000"/>
<path fill-rule="evenodd" clip-rule="evenodd" d="M25.739 17.3524C25.7578 17.3964 25.748 17.4474 25.7141 17.4813C25.6871 17.5083 25.6465 17.5371 25.6128 17.5611L25.6118 17.5618C25.609 17.5638 25.6061 17.5658 25.6033 17.5678C25.5681 17.5928 25.5324 17.6182 25.4987 17.6454C25.462 17.6751 25.433 17.7029 25.4139 17.7284C25.3988 17.7486 25.394 17.7617 25.3927 17.7688C25.3945 17.7759 25.3997 17.7841 25.4162 17.7963C25.4422 17.8157 25.4786 17.8319 25.5333 17.8561L25.5343 17.8565C25.5822 17.8777 25.6466 17.9061 25.6991 17.9484C25.7567 17.9947 25.8054 18.0616 25.8136 18.1565C25.8226 18.2498 25.78 18.3181 25.728 18.3639C25.6852 18.4015 25.63 18.429 25.5903 18.4487C25.5878 18.45 25.5853 18.4513 25.5829 18.4525C25.5355 18.4762 25.505 18.4925 25.4846 18.5106C25.4704 18.5232 25.4676 18.5307 25.4672 18.5399C25.4684 18.5585 25.4739 18.5648 25.4826 18.5719C25.4989 18.5853 25.5238 18.5965 25.5702 18.6149C25.5724 18.6158 25.5746 18.6167 25.5769 18.6176C25.6151 18.6327 25.6722 18.6552 25.7181 18.6926C25.7752 18.7392 25.8141 18.8069 25.8141 18.8984C25.8141 19.0749 25.6755 19.1652 25.601 19.2138C25.6 19.2144 25.599 19.2151 25.598 19.2157C25.5944 19.2181 25.5909 19.2204 25.5875 19.2226C25.5481 19.2482 25.5235 19.2643 25.506 19.2814C25.498 19.2893 25.4956 19.2937 25.4951 19.2947C25.4951 19.2947 25.4951 19.2941 25.4951 19.2951L25.4952 19.2954C25.4972 19.3337 25.5254 19.3762 25.5769 19.4177C25.6005 19.4366 25.6244 19.4516 25.6426 19.4618C25.6516 19.4668 25.6588 19.4706 25.6636 19.4729C25.666 19.4741 25.6677 19.4749 25.6686 19.4753L25.6693 19.4756L25.6692 19.4756M25.5037 19.652C25.4817 19.6385 25.4561 19.6212 25.4301 19.6003C25.3621 19.5457 25.2685 19.4476 25.2611 19.3079C25.2563 19.2208 25.2979 19.1572 25.3419 19.114C25.3774 19.0793 25.4231 19.0497 25.4576 19.0275C25.4619 19.0247 25.466 19.022 25.47 19.0194C25.5581 18.962 25.5797 18.9351 25.5797 18.8984C25.5797 18.8822 25.5764 18.8795 25.5699 18.8743C25.555 18.8621 25.5312 18.8516 25.4837 18.8327C25.4822 18.8321 25.4806 18.8315 25.4791 18.8309C25.4399 18.8154 25.3815 18.7922 25.3337 18.753C25.2769 18.7062 25.2367 18.6389 25.2329 18.5471C25.2328 18.5454 25.2328 18.5438 25.2328 18.5422C25.2328 18.4493 25.2765 18.382 25.329 18.3353C25.3754 18.2941 25.4333 18.2652 25.4748 18.2445C25.4759 18.2439 25.477 18.2434 25.4781 18.2428C25.5271 18.2183 25.5554 18.2035 25.5732 18.1879C25.5774 18.1842 25.5795 18.1817 25.5804 18.1804C25.5804 18.18 25.5803 18.1795 25.5803 18.1788L25.5801 18.1769C25.5787 18.1599 25.5725 18.1473 25.5522 18.1311C25.5273 18.111 25.4914 18.0938 25.4386 18.0705C25.4354 18.0691 25.4321 18.0676 25.4288 18.0661C25.3836 18.0463 25.3245 18.0203 25.2762 17.9843C25.2196 17.9422 25.1669 17.8786 25.1583 17.784C25.158 17.7805 25.1578 17.777 25.1578 17.7734C25.1578 17.6986 25.1907 17.6355 25.2263 17.5879C25.2454 17.5625 25.2673 17.5387 25.29 17.5169L24.8057 17.5244C24.8462 17.5779 24.8859 17.6521 24.8859 17.7453C24.8859 17.8751 24.7989 17.9748 24.747 18.0343L24.7469 18.0345C24.7407 18.0415 24.7349 18.0482 24.7293 18.0545C24.7068 18.0801 24.6888 18.1005 24.6738 18.1213C24.6615 18.1382 24.6555 18.1497 24.6527 18.157C24.6546 18.1606 24.6585 18.167 24.6666 18.1766C24.6865 18.1999 24.7157 18.2243 24.7571 18.2588L24.7572 18.2589C24.7945 18.29 24.8421 18.3297 24.8801 18.3753C24.919 18.4219 24.9566 18.4847 24.9608 18.5642C24.9609 18.5662 24.9609 18.5683 24.9609 18.5703C24.9609 18.655 24.9149 18.7135 24.8711 18.7505C24.8325 18.7829 24.7847 18.8079 24.7503 18.8259C24.7483 18.8269 24.7464 18.8279 24.7445 18.8288C24.7033 18.8504 24.6791 18.864 24.664 18.8772C24.663 18.8781 24.6622 18.8788 24.6615 18.8795C24.6696 18.9435 24.7077 18.9879 24.77 19.0458C24.7743 19.0497 24.7788 19.0539 24.7835 19.0583C24.8109 19.0834 24.8456 19.1152 24.8719 19.1488C24.9052 19.1912 24.9364 19.2494 24.9328 19.3241C24.9313 19.4086 24.8795 19.467 24.8383 19.5017C24.7957 19.5376 24.7426 19.5666 24.7009 19.5889C24.6947 19.5922 24.6888 19.5954 24.683 19.5985C24.6451 19.6186 24.6165 19.6338 24.5945 19.6494C24.5917 19.6513 24.5894 19.6531 24.5874 19.6547C24.592 19.7749 24.5972 20.136 24.6026 20.6139C24.6088 21.159 24.6152 21.8646 24.6211 22.5631C24.6269 23.2616 24.6322 23.953 24.636 24.4698C24.6379 24.7283 24.6395 24.943 24.6405 25.0932L24.6421 25.3181C24.9052 26.6743 25.7812 27.4889 26.6625 27.5507C27.4444 27.6055 28.3002 27.0687 28.781 25.6516C28.3538 26.0161 27.784 26.1418 27.2472 26.104C26.5514 26.055 25.866 25.7278 25.5849 25.2343C25.5794 25.228 25.5756 25.2224 25.5733 25.2188C25.5638 25.2042 25.5581 25.1896 25.5547 25.1796C25.5476 25.1589 25.5426 25.1348 25.5387 25.1114C25.5307 25.0632 25.5241 24.9974 25.5184 24.9189C25.5071 24.7608 25.4988 24.539 25.4929 24.2762C25.481 23.75 25.4783 23.0527 25.4801 22.3575C25.4818 21.6621 25.488 20.968 25.4937 20.4478C25.4966 20.1877 25.4993 19.971 25.5013 19.8194C25.5023 19.7487 25.5031 19.6922 25.5037 19.652ZM24.525 25.3297C24.4078 25.3305 24.4078 25.3305 24.4078 25.3304L24.4062 25.0948C24.4051 24.9447 24.4036 24.73 24.4017 24.4716C24.3979 23.9548 24.3926 23.2634 24.3867 22.565C24.3809 21.8666 24.3744 21.1613 24.3683 20.6166C24.3621 20.0676 24.3562 19.6901 24.352 19.6394C24.3514 19.6329 24.3514 19.6264 24.352 19.62C24.3591 19.5348 24.424 19.4829 24.4593 19.458C24.4945 19.4331 24.5383 19.4099 24.5745 19.3907C24.58 19.3878 24.5854 19.3849 24.5905 19.3822C24.6343 19.3588 24.6662 19.3403 24.6872 19.3226C24.6931 19.3176 24.6966 19.314 24.6986 19.3117C24.6985 19.3113 24.6984 19.3108 24.6981 19.3102C24.6971 19.3077 24.6945 19.3023 24.6876 19.2935C24.674 19.2762 24.6559 19.2595 24.6281 19.2338C24.6226 19.2287 24.6167 19.2233 24.6104 19.2175C24.5421 19.1539 24.4402 19.0544 24.4269 18.889L24.4268 18.887C24.4214 18.8012 24.465 18.74 24.5093 18.7011C24.5482 18.667 24.5973 18.6413 24.632 18.6232C24.6334 18.6225 24.6346 18.6218 24.6359 18.6212C24.6774 18.5994 24.703 18.5856 24.72 18.5712C24.7222 18.5694 24.7238 18.568 24.725 18.5667C24.7223 18.5571 24.7155 18.5439 24.7001 18.5254C24.6779 18.4987 24.647 18.4722 24.607 18.4389C24.6048 18.437 24.6025 18.4351 24.6002 18.4332C24.5653 18.4041 24.5218 18.368 24.4882 18.3286C24.4519 18.2859 24.4123 18.2226 24.4174 18.1411C24.4176 18.138 24.4179 18.1349 24.4184 18.1319C24.427 18.0712 24.4569 18.0211 24.4841 17.9837C24.5063 17.953 24.5334 17.9222 24.5564 17.8961C24.5613 17.8907 24.5659 17.8854 24.5703 17.8804C24.6309 17.811 24.6516 17.7747 24.6516 17.7453C24.6516 17.7207 24.641 17.6941 24.6158 17.662C24.5965 17.6372 24.577 17.6187 24.555 17.5979C24.5453 17.5886 24.5351 17.5789 24.5242 17.568L24.5238 17.5676C24.5119 17.5558 24.4858 17.5297 24.4716 17.4967C24.4631 17.477 24.4538 17.4434 24.4651 17.4044C24.4767 17.3644 24.5036 17.34 24.5248 17.3268C24.5601 17.3048 24.6034 17.2988 24.6329 17.2957C24.6682 17.2921 24.713 17.2906 24.7678 17.2906L25.3669 17.2813C25.3684 17.2812 25.3699 17.2812 25.3714 17.2813C25.4571 17.2832 25.5429 17.2832 25.6286 17.2813C25.6764 17.2802 25.7202 17.3083 25.739 17.3524M24.7285 18.5628C24.7285 18.5628 24.7284 18.563 24.7281 18.5634C24.7283 18.563 24.7285 18.5628 24.7285 18.5628ZM34.4092 17.3568C34.4265 17.3113 34.4701 17.2813 34.5188 17.2813H34.7719L34.7737 17.2813L35.3728 17.2906C35.4265 17.2906 35.4705 17.2921 35.5053 17.2958C35.5343 17.2988 35.5775 17.3049 35.6128 17.3274C35.6341 17.341 35.6604 17.3656 35.6716 17.4051C35.6824 17.4434 35.6735 17.4763 35.6653 17.4958C35.6514 17.5287 35.6258 17.5548 35.6142 17.5668L35.6138 17.5671C35.6031 17.578 35.5931 17.5878 35.5836 17.597C35.5621 17.6179 35.5432 17.6363 35.5243 17.661C35.4997 17.693 35.4891 17.7199 35.4891 17.7453C35.4891 17.7747 35.5097 17.811 35.5703 17.8804C35.5747 17.8854 35.5794 17.8907 35.5842 17.8961C35.6072 17.9222 35.6343 17.953 35.6566 17.9837C35.6837 18.0211 35.7136 18.0712 35.7223 18.1319C35.723 18.1374 35.7234 18.1429 35.7234 18.1484C35.7234 18.227 35.6839 18.2877 35.6478 18.3293C35.615 18.3672 35.5733 18.4024 35.5394 18.431C35.5364 18.4335 35.5336 18.4359 35.5308 18.4383C35.4917 18.4714 35.4616 18.4979 35.4401 18.5243C35.4249 18.5429 35.4182 18.5565 35.4155 18.5667C35.4168 18.5679 35.4184 18.5694 35.4206 18.5712C35.4376 18.5856 35.4632 18.5994 35.5047 18.6212L35.5086 18.6232C35.5433 18.6413 35.5925 18.667 35.6313 18.7011C35.6756 18.74 35.7192 18.8012 35.7138 18.887L35.7137 18.889C35.7004 19.0546 35.5984 19.1541 35.5283 19.2181C35.5203 19.2255 35.5129 19.2322 35.5061 19.2383C35.4796 19.2622 35.4616 19.2786 35.4471 19.2959C35.4418 19.3024 35.4384 19.3074 35.4363 19.311C35.4389 19.3137 35.4426 19.3171 35.4477 19.3212C35.4706 19.3398 35.5037 19.3586 35.5478 19.3822C35.5518 19.3843 35.5559 19.3865 35.5602 19.3888C35.5973 19.4085 35.6428 19.4327 35.6789 19.4591C35.7139 19.4848 35.7797 19.5402 35.7797 19.6297L35.7797 19.6307L35.7328 25.3307C35.7327 25.3377 35.7321 25.3448 35.7307 25.3517C35.4569 26.7832 34.5139 27.7128 33.491 27.7845C32.4552 27.857 31.4254 27.0485 30.9829 25.1881L31.0969 25.1609L31.1973 25.1005C31.5565 25.6977 32.223 25.9163 32.8757 25.8702C33.5349 25.8237 34.1325 25.5111 34.3498 25.1056C34.3527 25.1003 34.3558 25.0953 34.3594 25.0906C34.3604 25.086 34.3618 25.0797 34.3632 25.0715C34.3698 25.0347 34.3762 24.9779 34.3822 24.9014C34.394 24.7495 34.4029 24.5325 34.4095 24.2706C34.4227 23.7475 34.4262 23.0527 34.425 22.358C34.4238 21.6636 34.418 20.9702 34.4124 20.4504C34.4096 20.1905 34.4069 19.974 34.4049 19.8225C34.4039 19.7468 34.4031 19.6873 34.4025 19.6467L34.4016 19.5847C34.4016 19.5846 34.4016 19.5846 34.5188 19.5828L34.4016 19.5847C34.4009 19.5377 34.4283 19.4948 34.4712 19.4757C34.4712 19.4757 34.4712 19.4757 34.4712 19.4757C34.4712 19.4757 34.4713 19.4757 34.4713 19.4756C34.4714 19.4756 34.4713 19.4757 34.4713 19.4756C34.4713 19.4756 34.4714 19.4756 34.4714 19.4756C34.4715 19.4756 34.4714 19.4756 34.4714 19.4756C34.4715 19.4756 34.4715 19.4756 34.4716 19.4755L34.472 19.4753C34.473 19.4749 34.4747 19.4741 34.477 19.4729C34.4818 19.4706 34.4891 19.4668 34.498 19.4618C34.5162 19.4516 34.5401 19.4366 34.5637 19.4177C34.6152 19.3762 34.6435 19.3337 34.6455 19.2954L34.6455 19.2951C34.6456 19.2929 34.6454 19.2926 34.6451 19.2921C34.6445 19.2907 34.6423 19.2864 34.635 19.2788C34.6189 19.2621 34.5962 19.2463 34.5588 19.2205C34.5557 19.2184 34.5526 19.2162 34.5493 19.2139L34.5476 19.2127C34.4759 19.1631 34.3453 19.0727 34.3453 18.8984C34.3453 18.8094 34.3808 18.7424 34.4355 18.6949C34.4792 18.657 34.5336 18.634 34.5691 18.6189C34.5715 18.6179 34.5737 18.617 34.5759 18.616C34.6193 18.5975 34.64 18.5872 34.6527 18.5756C34.6582 18.5707 34.6641 18.5653 34.6641 18.5422C34.6641 18.5273 34.6602 18.5183 34.6474 18.5055C34.6296 18.4877 34.6036 18.4719 34.5601 18.4463L34.5567 18.4443C34.52 18.4227 34.4669 18.3915 34.4262 18.3475C34.3784 18.2957 34.3472 18.2264 34.3551 18.1381M34.637 19.652C34.6375 19.6922 34.6383 19.7487 34.6393 19.8194C34.6413 19.9711 34.644 20.1877 34.6468 20.4479C34.6523 20.9681 34.6582 21.6622 34.6594 22.3576C34.6605 23.0528 34.657 23.7501 34.6438 24.2765C34.6372 24.5393 34.6281 24.7613 34.6158 24.9196C34.6097 24.9981 34.6026 25.0642 34.5939 25.1127C34.5897 25.1363 34.5843 25.1608 34.5766 25.1819C34.5728 25.1922 34.5666 25.207 34.5564 25.2218C34.5541 25.2251 34.5508 25.2297 34.5463 25.2348C34.2693 25.7283 33.5861 26.055 32.8922 26.104C32.3555 26.1419 31.7851 26.0158 31.3578 25.6501C31.8352 27.0683 32.6914 27.6055 33.4746 27.5507C34.3572 27.4889 35.2355 26.6741 35.4985 25.318L35.5451 19.6518C35.5437 19.6507 35.5421 19.6495 35.5404 19.6482C35.5187 19.6323 35.4886 19.6163 35.4471 19.5941L35.4374 19.5889C35.3959 19.5668 35.3429 19.5381 35.2998 19.5031C35.258 19.469 35.2043 19.412 35.1987 19.3281C35.1985 19.3255 35.1984 19.3229 35.1984 19.3203C35.1984 19.2451 35.2324 19.1877 35.2667 19.1463C35.293 19.1146 35.3271 19.084 35.3544 19.0594C35.36 19.0544 35.3653 19.0496 35.3702 19.0451C35.433 18.9877 35.471 18.9433 35.4791 18.8795C35.4784 18.8788 35.4776 18.8781 35.4766 18.8772C35.4615 18.864 35.4373 18.8504 35.3961 18.8288C35.3942 18.8279 35.3923 18.8269 35.3904 18.8259C35.356 18.8079 35.3081 18.7829 35.2696 18.7505C35.2257 18.7135 35.1797 18.655 35.1797 18.5703C35.1797 18.5691 35.1797 18.5679 35.1797 18.5666C35.1798 18.5658 35.1798 18.565 35.1798 18.5642C35.184 18.4858 35.2201 18.4233 35.2583 18.3764C35.2956 18.3305 35.3423 18.2907 35.3794 18.2594L35.383 18.2563C35.422 18.2233 35.4503 18.1994 35.4706 18.1759C35.4795 18.1656 35.4842 18.1584 35.4866 18.1538C35.4834 18.1465 35.4775 18.1359 35.4669 18.1213C35.4518 18.1005 35.4338 18.0801 35.4113 18.0545C35.4057 18.0482 35.3999 18.0415 35.3937 18.0345L35.3936 18.0343C35.3417 17.9748 35.2547 17.8751 35.2547 17.7453C35.2547 17.6523 35.2938 17.5781 35.3337 17.5244L34.8077 17.5162C34.8514 17.5801 34.8847 17.6611 34.8795 17.7605C34.8719 17.9231 34.7583 17.9978 34.6926 18.041C34.6901 18.0427 34.6877 18.0443 34.6853 18.0458C34.6136 18.0932 34.5926 18.1125 34.5886 18.1586L34.5886 18.159C34.5872 18.1738 34.59 18.1794 34.5984 18.1885C34.6127 18.204 34.636 18.2191 34.6789 18.2443C34.6811 18.2456 34.6833 18.2468 34.6855 18.2482C34.7215 18.2693 34.7725 18.2992 34.8131 18.3398C34.8613 18.3879 34.8984 18.454 34.8984 18.5422C34.8984 18.6316 34.8645 18.7 34.8102 18.7493C34.7649 18.7903 34.7085 18.8143 34.6719 18.8299L34.6678 18.8316C34.6232 18.8507 34.6023 18.8605 34.5891 18.872L34.5887 18.8723C34.5838 18.8766 34.5797 18.8801 34.5797 18.8984C34.5797 18.9383 34.6017 18.9651 34.6827 19.0212C34.6864 19.0238 34.6902 19.0264 34.6943 19.0292C34.7268 19.0515 34.7704 19.0814 34.8041 19.1166C34.8465 19.1607 34.8842 19.2236 34.8795 19.3081L34.7625 19.3016L34.8795 19.3077C34.8795 19.3078 34.8795 19.3079 34.8795 19.3081C34.872 19.4477 34.7785 19.5457 34.7105 19.6003C34.6845 19.6212 34.6589 19.6385 34.637 19.652ZM35.4891 18.1476C35.4891 18.1476 35.4891 18.1477 35.4891 18.1478ZM35.5545 19.6603C35.5544 19.6603 35.554 19.6599 35.5533 19.6589C35.5542 19.6599 35.5545 19.6603 35.5545 19.6603ZM35.4121 18.5628C35.4121 18.5628 35.4123 18.563 35.4125 18.5634C35.4122 18.563 35.4121 18.5628 35.4121 18.5628ZM25.7738 25.0932C25.7727 25.0883 25.7714 25.0816 25.7699 25.0728C25.7637 25.0357 25.7577 24.9787 25.7522 24.9021C25.7413 24.75 25.7331 24.5328 25.7272 24.2709C25.7153 23.7477 25.7127 23.0528 25.7145 22.3581C25.7162 21.6636 25.7224 20.9702 25.7281 20.4504C25.7309 20.1905 25.7337 19.974 25.7357 19.8225C25.7367 19.7468 25.7376 19.6873 25.7381 19.6467L25.739 19.5847C25.739 19.5846 25.739 19.5846 25.6219 19.5828M25.7765 25.1037C25.7764 25.1036 25.7764 25.1036 25.7764 25.1035C25.7766 25.104 25.7766 25.1041 25.7765 25.1037ZM25.7738 25.0932C25.7764 25.0969 25.7788 25.1008 25.781 25.1047C26.003 25.5111 26.6035 25.8237 27.2637 25.8702C27.9176 25.9163 28.5842 25.6977 28.9433 25.1005C28.9731 25.051 29.0346 25.0306 29.0882 25.0525C29.1417 25.0744 29.1712 25.1321 29.1577 25.1883C28.7105 27.0485 27.6807 27.857 26.6461 27.7845C25.6242 27.7128 24.6837 26.783 24.4099 25.3517C24.4086 25.3447 24.4079 25.3375 24.4078 25.3304L24.525 25.3297" fill="black"/>
<path fill-rule="evenodd" clip-rule="evenodd" d="M28.2828 27.7125H31.7797C31.8078 27.6844 30.9922 26.4938 30.0359 26.5875C28.9578 26.6156 28.2266 27.7125 28.2828 27.7125ZM39.4297 27.6188H34.6484C34.6484 27.6188 35.2672 27.2625 35.4359 26.925C35.7453 27.0938 35.6609 27.2625 36.2797 27.2906C36.8984 27.3188 37.4891 26.5875 38.0797 26.6156C38.6703 26.6437 39.4297 27.6469 39.4297 27.6281V27.6188ZM20.5859 27.6188H25.3672C25.3672 27.6188 24.7484 27.2625 24.5797 26.925C24.2703 27.0938 24.3547 27.2625 23.7359 27.2906C23.1172 27.3188 22.5172 26.5875 21.9359 26.6156C21.3453 26.6437 20.5859 27.6469 20.5859 27.6281V27.6188ZM20.9422 26.1188L24.3453 26.1469C24.3453 26.1469 24.1297 25.6781 24.1016 25.1062C23.2203 24.8062 22.5078 25.7625 21.8703 25.7906C21.2422 25.8188 20.5859 25.1062 20.5859 25.1062L20.9422 26.1188ZM39.1297 26.1188L35.7172 26.1469C35.7172 26.1469 35.9328 25.6781 35.9609 25.1062C36.8422 24.8062 37.5547 25.7625 38.1922 25.7906C38.8203 25.8188 39.4766 25.1062 39.4766 25.1062L39.1203 26.1188H39.1297ZM29.1547 26.1562L30.8797 26.1094C30.8797 26.1094 30.9078 25.5844 30.0078 25.5844C29.1078 25.5844 29.1828 26.1844 29.1547 26.1562V26.1562ZM28.1047 25.4156C28.4339 25.2716 28.7048 25.0205 28.8734 24.7031L27.6922 24.7312C27.6922 24.7312 27.1484 25.0594 26.8766 25.4156H28.1047ZM31.9297 25.4156C31.6004 25.2716 31.3295 25.0205 31.1609 24.7031L32.3422 24.7312C32.3422 24.7312 32.8859 25.0594 33.1578 25.4156H31.9297Z" fill="#083D9C"/>
<path fill-rule="evenodd" clip-rule="evenodd" d="M29.0339 24.6055L28.9587 24.747C28.7802 25.083 28.4934 25.3489 28.1448 25.5014L28.1268 25.5093H26.6896L26.8045 25.3586C26.9486 25.1699 27.161 24.9926 27.3328 24.8645C27.4196 24.7999 27.4976 24.7467 27.554 24.7096C27.5822 24.6911 27.605 24.6765 27.6209 24.6665C27.6289 24.6615 27.6351 24.6577 27.6394 24.655L27.6443 24.652L27.6457 24.6512L27.6461 24.651L27.6462 24.6509C27.6462 24.6509 27.6462 24.6509 27.6947 24.7311L27.6462 24.6509L27.6676 24.638L29.0339 24.6055ZM27.7224 24.8242C27.7218 24.8246 27.7212 24.825 27.7206 24.8253C27.7057 24.8347 27.684 24.8485 27.657 24.8663C27.6029 24.9018 27.528 24.9529 27.4448 25.0149C27.3278 25.1021 27.1974 25.2085 27.0859 25.3218H28.0873C28.3387 25.2079 28.553 25.0273 28.7075 24.8008L27.7224 24.8242ZM31.0055 24.6055L32.3718 24.638L32.3931 24.6509L32.3447 24.7311C32.3931 24.6509 32.3931 24.6509 32.3931 24.6509L32.3937 24.6512L32.395 24.652L32.4 24.655C32.4043 24.6577 32.4105 24.6615 32.4184 24.6665C32.4343 24.6765 32.4572 24.6911 32.4854 24.7096C32.5418 24.7467 32.6198 24.7999 32.7065 24.8645C32.8784 24.9926 33.0908 25.1699 33.2348 25.3586L33.3498 25.5093H31.9126L31.8946 25.5014C31.546 25.3489 31.2591 25.083 31.0806 24.747L31.0055 24.6055ZM32.317 24.8242C32.3176 24.8246 32.3182 24.825 32.3187 24.8253C32.3336 24.8347 32.3554 24.8485 32.3824 24.8663C32.4364 24.9018 32.5114 24.9529 32.5945 25.0149C32.7116 25.1021 32.8419 25.2085 32.9535 25.3218H31.9521C31.7007 25.2079 31.4864 25.0273 31.3319 24.8008L32.317 24.8242ZM22.8514 25.2434C23.2226 25.0365 23.653 24.8535 24.1343 25.0174L24.1946 25.0379L24.1977 25.1015C24.2113 25.3775 24.2702 25.6297 24.3262 25.8136C24.3541 25.9053 24.3811 25.9795 24.401 26.0305C24.411 26.0559 24.4191 26.0756 24.4247 26.0887C24.4275 26.0952 24.4297 26.1001 24.4311 26.1033L24.4326 26.1068L24.433 26.1075L24.433 26.1076L24.4947 26.2417L20.8781 26.2118L20.5 25.1372L20.6573 25.0427C20.6574 25.0426 20.6574 25.0426 20.6574 25.0426L20.6576 25.0429L20.6588 25.0441C20.6599 25.0453 20.6616 25.0471 20.6639 25.0495C20.6685 25.0543 20.6754 25.0616 20.6846 25.0708C20.7029 25.0894 20.7301 25.1162 20.7646 25.1484C20.8339 25.2128 20.9325 25.2983 21.0498 25.3828C21.2886 25.5546 21.5876 25.7094 21.8686 25.6969C22.0069 25.6908 22.1561 25.6337 22.3231 25.5464C22.4209 25.4953 22.5164 25.4388 22.6164 25.3796C22.6912 25.3353 22.7686 25.2895 22.8514 25.2434ZM20.8012 25.4285L21.0113 26.0254L24.2085 26.0519C24.1902 26.0023 24.1687 25.9403 24.1468 25.8682C24.0923 25.6892 24.0344 25.4463 24.0145 25.1766C23.6375 25.0733 23.2893 25.214 22.9427 25.4072C22.8702 25.4476 22.7953 25.4918 22.7204 25.536C22.6147 25.5984 22.5089 25.6609 22.4099 25.7126C22.2364 25.8032 22.0574 25.8762 21.8769 25.8842C21.5298 25.8997 21.1867 25.7123 20.9403 25.535C20.8905 25.4991 20.8439 25.4631 20.8012 25.4285ZM36.053 25.1766C36.0331 25.4463 35.9752 25.6892 35.9207 25.8682C35.8988 25.9403 35.8773 26.0023 35.8589 26.0519L39.0562 26.0255L39.2663 25.4285C39.2236 25.4631 39.177 25.4991 39.1272 25.535C38.8808 25.7123 38.5376 25.8997 38.1905 25.8842C38.01 25.8762 37.831 25.8032 37.6576 25.7126C37.5586 25.6609 37.4528 25.5984 37.3471 25.536C37.2722 25.4918 37.1973 25.4476 37.1248 25.4072C36.7782 25.214 36.43 25.0733 36.053 25.1766ZM39.4102 25.0427L39.5675 25.1372L39.2112 26.1497L39.1326 26.1221L39.133 26.2124L39.1322 26.2124L35.5728 26.2417M39.4102 25.0427C39.4101 25.0426 39.4101 25.0426 39.4101 25.0426ZM39.4101 25.0426L39.4099 25.0429L39.4087 25.0441C39.4076 25.0453 39.4059 25.0471 39.4036 25.0495C39.399 25.0543 39.3921 25.0616 39.3829 25.0708C39.3646 25.0894 39.3374 25.1162 39.3029 25.1484C39.2336 25.2128 39.135 25.2983 39.0177 25.3828C38.7789 25.5546 38.4799 25.7094 38.1989 25.6969C38.0606 25.6908 37.9114 25.6337 37.7444 25.5464C37.6466 25.4953 37.5511 25.4388 37.4511 25.3796C37.3763 25.3353 37.2989 25.2895 37.2161 25.2434C36.8449 25.0365 36.4145 24.8535 35.9332 25.0174L35.8729 25.0379L35.8698 25.1015C35.8562 25.3775 35.7973 25.6297 35.7413 25.8136C35.7134 25.9053 35.6864 25.9795 35.6665 26.0305C35.6565 26.0559 35.6484 26.0756 35.6428 26.0887C35.6414 26.092 35.6401 26.0949 35.639 26.0974C35.638 26.0998 35.6371 26.1017 35.6364 26.1033L35.6349 26.1068L35.6345 26.1075M29.1787 25.8289C29.2976 25.6499 29.5374 25.4905 30.0103 25.4905C30.4785 25.4905 30.728 25.6277 30.8568 25.788C30.92 25.8666 30.9499 25.9458 30.9638 26.006C30.9708 26.0361 30.9739 26.0616 30.9752 26.0803C30.9758 26.0896 30.976 26.0973 30.976 26.103C30.976 26.1047 30.976 26.1063 30.976 26.1076C30.976 26.1085 30.976 26.1094 30.976 26.1102L30.9759 26.1126L30.9758 26.1135L30.9758 26.1139L30.9758 26.1141C30.9758 26.1142 30.9758 26.1143 30.8822 26.1093L30.9758 26.1143L30.9712 26.2006L29.1767 26.2494C29.1325 26.2583 29.1 26.2315 29.0909 26.2224L29.1572 26.1561L29.1547 26.0631C29.1445 26.0636 29.1336 26.066 29.122 26.0711C29.1022 26.0797 29.0906 26.093 29.0853 26.1002C29.0797 26.1077 29.0766 26.1144 29.0753 26.1176C29.0733 26.1222 29.0723 26.126 29.0719 26.1275C29.072 26.1268 29.0723 26.1255 29.0727 26.1235C29.073 26.1213 29.0736 26.1181 29.0742 26.1141C29.0762 26.1013 29.0796 26.0807 29.084 26.0594C29.0965 26.0001 29.1213 25.9153 29.1787 25.8289ZM29.2771 26.0591L30.7727 26.0184C30.7616 25.985 30.7427 25.9454 30.7107 25.9055C30.6285 25.8033 30.4421 25.678 30.0103 25.678C29.5832 25.678 29.4106 25.8186 29.3349 25.9326C29.3056 25.9767 29.2881 26.0208 29.2771 26.0591ZM31.8766 27.7131C31.8763 27.7238 31.8737 27.7535 31.8485 27.7787L31.821 27.8061H28.2853C28.2641 27.8061 28.2366 27.7989 28.215 27.7758C28.1955 27.7552 28.1906 27.7321 28.1892 27.7197C28.1866 27.6971 28.1925 27.6783 28.1945 27.6719C28.1999 27.6546 28.2092 27.6361 28.2183 27.6196C28.2378 27.5846 28.2686 27.538 28.3089 27.4843C28.3899 27.3764 28.5138 27.2338 28.674 27.0905C28.9922 26.8059 29.4639 26.5097 30.0327 26.4938C30.5498 26.4445 31.0174 26.7406 31.3423 27.0347C31.5071 27.1837 31.6401 27.3366 31.7305 27.4545C31.7756 27.5134 31.8109 27.5646 31.8345 27.6032C31.8461 27.6221 31.8561 27.64 31.8631 27.6552C31.8663 27.6623 31.8707 27.6727 31.8735 27.6843C31.8748 27.6898 31.877 27.7002 31.8766 27.7131ZM31.2166 27.1737C30.9024 26.8895 30.4853 26.6378 30.0476 26.6807L30.0442 26.681L30.0409 26.6811C29.533 26.6943 29.1012 26.96 28.799 27.2303C28.6486 27.3648 28.5329 27.4982 28.4589 27.5968C28.4532 27.6043 28.4479 27.6116 28.4428 27.6186H31.6189C31.6077 27.603 31.5952 27.5863 31.5817 27.5686C31.4971 27.4583 31.3717 27.3141 31.2166 27.1737ZM36.778 27.2793C36.6192 27.3465 36.4517 27.3921 36.2779 27.3842C35.9606 27.3697 35.8063 27.3187 35.6903 27.2371C35.6499 27.2086 35.6138 27.1758 35.5812 27.1461C35.571 27.1369 35.5612 27.1279 35.5517 27.1195C35.5273 27.098 35.5013 27.0763 35.4702 27.0546C35.3619 27.2132 35.1862 27.3624 35.0375 27.4734C35.0134 27.4914 34.9898 27.5086 34.9668 27.5249H39.2175C39.1394 27.4364 39.0344 27.3223 38.9139 27.2071C38.7845 27.0834 38.6392 26.9606 38.4921 26.8674C38.3436 26.7733 38.2018 26.7151 38.0777 26.7091C37.95 26.7031 37.8173 26.7379 37.676 26.7991C37.5365 26.8595 37.3955 26.9425 37.2473 27.0296L37.2403 27.0338C37.0918 27.1212 36.9362 27.2123 36.778 27.2793ZM39.4652 27.5249C39.4633 27.5226 39.4613 27.5203 39.4593 27.5179C39.4381 27.4931 39.4095 27.4595 39.3748 27.4199C39.2934 27.3269 39.178 27.2001 39.0434 27.0716C38.9092 26.9433 38.7539 26.8113 38.5925 26.709C38.4325 26.6077 38.2579 26.53 38.0866 26.5219C37.9191 26.5139 37.7564 26.5599 37.6015 26.627C37.4512 26.6922 37.3015 26.7802 37.1571 26.8652L37.1452 26.8722C36.9949 26.9606 36.8499 27.0453 36.7049 27.1066C36.5604 27.1677 36.422 27.203 36.2864 27.1969C35.985 27.1832 35.8721 27.1358 35.7982 27.0838C35.7682 27.0626 35.7443 27.0408 35.7144 27.0137C35.7027 27.003 35.6901 26.9916 35.6758 26.979C35.6273 26.9361 35.5688 26.8892 35.4833 26.8426L35.398 26.7961L35.3546 26.883C35.2811 27.03 35.101 27.192 34.9253 27.3232C34.8397 27.3871 34.7591 27.4409 34.6998 27.4786C34.6703 27.4975 34.6461 27.5123 34.6294 27.5224C34.6211 27.5274 34.6147 27.5312 34.6104 27.5338L34.6056 27.5366L34.6044 27.5372L34.6042 27.5374L34.3002 27.7124H39.3905C39.3944 27.7143 39.3999 27.7167 39.4067 27.7186C39.4149 27.7209 39.4327 27.7246 39.4544 27.7193C39.4803 27.7129 39.5019 27.6961 39.5144 27.6732C39.5249 27.654 39.5259 27.6363 39.5259 27.628V27.5249H39.4652ZM23.3143 27.1065C23.4595 27.1677 23.5985 27.203 23.7342 27.1969C24.0356 27.1832 24.1485 27.1358 24.2224 27.0838C24.2524 27.0626 24.2764 27.0408 24.3062 27.0137C24.3179 27.003 24.3305 26.9916 24.3448 26.979C24.3933 26.9361 24.4518 26.8892 24.5373 26.8426L24.6226 26.7961L24.666 26.883C24.7395 27.03 24.9196 27.192 25.0953 27.3232C25.1809 27.3871 25.2615 27.4409 25.3208 27.4786C25.3504 27.4975 25.3745 27.5123 25.3912 27.5224C25.3995 27.5274 25.4059 27.5312 25.4103 27.5338L25.4151 27.5366L25.4162 27.5372L25.4164 27.5374M21.934 26.5219C22.0994 26.5139 22.261 26.5601 22.4153 26.6271C22.5639 26.6917 22.7127 26.7789 22.8567 26.8633C22.8617 26.8662 22.8667 26.8692 22.8718 26.8721C23.0226 26.9605 23.1685 27.0452 23.3143 27.1065" fill="#083D9C"/>
<path fill-rule="evenodd" clip-rule="evenodd" d="M-3.75 33.75H63.75V45H-3.75V33.75ZM-3.75 0H63.75V11.25H-3.75V0Z" fill="#DE2010"/>
</g>
<defs>
<clipPath id="clip0_4046_24693">
<rect width="60" height="45" fill="white"/>
</clipPath>
</defs>
</svg>
