<svg width="60" height="45" viewBox="0 0 60 45" fill="none" xmlns="http://www.w3.org/2000/svg">
<g clip-path="url(#clip0_4046_24710)">
<path fill-rule="evenodd" clip-rule="evenodd" d="M0.148438 0L0.101562 45H60.1016L0.148438 0Z" fill="black"/>
<path fill-rule="evenodd" clip-rule="evenodd" d="M60.0547 45L60.1016 0H0.101562L60.0547 45Z" fill="#FF0000"/>
<path d="M37.1512 11.1993L36.3604 11.1579C36.1106 10.5772 35.4239 10.3699 34.9868 10.6187C34.1819 10.6188 33.3771 10.605 32.5727 10.5772L34.0503 11.2201C34.4457 12.2362 35.6944 12.4436 35.6944 12.4436C35.5695 14.2684 33.8422 12.2154 32.3854 13.2523C31.3448 13.8744 31.3448 14.6002 30.7829 15.8029C30.5956 16.1347 29.8672 17.0057 29.8672 17.0057L31.0951 16.902L30.6996 17.4204L32.1564 17.213L31.8443 17.5034C32.0524 17.5448 33.5092 17.1508 33.5092 17.1508L33.4051 17.6278L35.0701 17.0264C35.0701 17.0264 35.403 17.296 35.6944 17.4204L35.9025 16.5909L36.735 16.7983L36.9431 15.9688C38.1918 17.6278 38.608 19.2867 40.8973 19.7015L40.6891 18.872C41.2977 19.1375 41.9013 19.414 42.4997 19.7015L42.6871 19.349C43.686 20.054 44.4976 20.0333 45.0596 20.1162L44.6433 19.0794L45.0596 19.2867L44.4352 17.6278L45.0596 17.8352L44.2271 16.5909L44.5393 16.3836L44.4352 15.7615C45.6839 16.1762 47.3488 16.7983 47.5569 18.2499C47.765 20.531 45.2677 21.1531 43.6028 20.9457C44.8514 21.9825 47.1407 21.5678 48.1813 20.531C48.5975 20.1162 48.8056 19.4941 49.0137 18.872C49.2219 19.4941 49.6381 20.3236 49.6381 21.1531C49.43 23.0194 46.9326 23.6415 45.2677 23.8489C47.1407 24.8857 50.4705 23.6415 50.6787 20.9457C50.6787 18.6646 49.2219 17.6278 48.5975 16.5909L48.3894 15.4711L49.0137 15.7615C49.0137 15.7615 48.6391 15.0771 48.5975 14.932C48.5975 14.932 47.9524 13.1693 47.7234 12.7753L48.1813 12.8583L46.4747 10.7224L46.9534 10.6809C46.9534 10.6809 44.9763 9.12564 44.4352 8.91827L45.0596 8.7109C43.8109 8.08879 42.3541 8.50353 41.1054 9.33301L41.3135 8.7109L40.9389 8.75238V8.02658L41.3135 7.46669L40.6891 7.25932L41.1054 6.22247L40.481 6.42984L40.6891 5.39299C40.6891 5.39299 40.2313 5.60036 39.9399 5.57962C40.0595 5.3487 40.1705 5.11353 40.2729 4.87457C40.0648 4.56351 40.2729 3.94141 40.2729 3.94141C38.8161 4.14878 38.608 4.35614 37.7755 5.60036C36.5269 7.88142 36.9431 8.91827 37.1512 11.1993Z" fill="#FFCC00"/>
<path fill-rule="evenodd" clip-rule="evenodd" d="M40.1151 4.07849C39.4952 4.17406 39.1412 4.27576 38.8528 4.47468C38.5366 4.69282 38.2885 5.03458 37.8712 5.65823C37.2558 6.78352 37.0544 7.5945 37.0291 8.40199C37.0118 8.95222 37.0754 9.49773 37.151 10.1458C37.1881 10.464 37.2281 10.8071 37.2628 11.1875L37.2748 11.3189L36.2813 11.2668L36.2532 11.2016C36.0282 10.6784 35.4143 10.5041 35.0412 10.7166L35.0149 10.7315L34.9847 10.7315C34.3766 10.7316 33.7686 10.7238 33.1607 10.708L34.1373 11.1328L34.1546 11.1772C34.338 11.6484 34.721 11.9368 35.0691 12.109C35.2424 12.1947 35.4041 12.2501 35.5224 12.284C35.5815 12.3009 35.6294 12.3124 35.6623 12.3196C35.6787 12.3232 35.6913 12.3257 35.6996 12.3273C35.702 12.3278 35.704 12.3282 35.7057 12.3285C35.7069 12.3287 35.7079 12.3289 35.7087 12.329L35.7107 12.3294L35.7109 12.3294L35.711 12.3294C35.7111 12.3294 35.7111 12.3294 35.711 12.3294L35.8133 12.3464L35.8062 12.4499C35.7741 12.9188 35.6354 13.1931 35.3696 13.2987C35.2445 13.3484 35.105 13.3541 34.9634 13.3403C34.8215 13.3264 34.6675 13.2919 34.5098 13.2529C34.4674 13.2424 34.4247 13.2317 34.3816 13.2208C33.7678 13.0661 33.0825 12.8934 32.4495 13.3439L32.4457 13.3466L32.4418 13.3489C31.9427 13.6473 31.6969 13.9666 31.5051 14.3586C31.4108 14.5514 31.3298 14.7614 31.238 14.9994L31.2284 15.0242C31.1331 15.2712 31.0265 15.5453 30.8842 15.8499L30.8824 15.8538L30.8802 15.8577C30.7813 16.0329 30.5461 16.341 30.3422 16.5983C30.2636 16.6974 30.1885 16.7904 30.1256 16.8676L31.34 16.765L30.9574 17.2666L32.4989 17.0471L32.1716 17.3516C32.3342 17.321 32.5326 17.2763 32.726 17.2301C32.9202 17.1837 33.108 17.1359 33.2474 17.0997C33.3171 17.0816 33.3746 17.0665 33.4147 17.0558C33.4347 17.0505 33.4504 17.0463 33.461 17.0435L33.4771 17.0391C33.4771 17.0391 33.4772 17.0391 33.507 17.1494L33.4771 17.0391L33.6587 16.99L33.5587 17.4486L35.0897 16.8956L35.1398 16.9362L35.1399 16.9363L35.1405 16.9367L35.143 16.9388C35.1453 16.9406 35.1488 16.9434 35.1534 16.947C35.1627 16.9543 35.1763 16.9649 35.1937 16.9781C35.2284 17.0045 35.2777 17.0411 35.3359 17.0814C35.4189 17.139 35.5174 17.2024 35.6156 17.255L35.8173 16.4511L36.6497 16.6584L36.8883 15.7075L37.0322 15.8987C37.3326 16.2978 37.5852 16.6967 37.8243 17.0745C37.8363 17.0934 37.8482 17.1122 37.8601 17.131C38.111 17.527 38.3482 17.8973 38.6165 18.2283C39.1201 18.8495 39.7323 19.3317 40.7403 19.5526L40.5196 18.6729L40.7327 18.7658C41.309 19.0173 41.8809 19.2786 42.4481 19.5496L42.6448 19.1794L42.7508 19.2542C43.5672 19.8304 44.2466 19.9062 44.7839 19.9661C44.816 19.9697 44.8477 19.9732 44.8789 19.9768L44.4232 18.8417L44.848 19.0533L44.2417 17.4424L44.7771 17.6202L44.0662 16.5578L44.4122 16.3279L44.2891 15.5918L44.4691 15.6516C45.0931 15.8589 45.8344 16.1219 46.4464 16.5196C47.0597 16.9182 47.5573 17.4614 47.6679 18.2322L47.6683 18.2351L47.6685 18.2381C47.7226 18.8307 47.6011 19.3223 47.3562 19.721C47.112 20.1185 46.7496 20.4165 46.3323 20.6311C45.6375 20.9884 44.7801 21.1202 44.0217 21.0923C44.5753 21.396 45.2681 21.484 45.9542 21.4011C46.7932 21.2998 47.6 20.9452 48.0985 20.4486C48.4918 20.0566 48.6927 19.4634 48.9032 18.8343L49.0116 18.5104L49.1199 18.8343C49.1682 18.9788 49.2282 19.1351 49.2926 19.3032L49.3036 19.3319C49.3719 19.51 49.4442 19.7001 49.5101 19.8971C49.6417 20.2905 49.7502 20.7188 49.7502 21.1516V21.158L49.7495 21.1643C49.6391 22.154 48.9211 22.8021 48.0467 23.2245C47.3025 23.5841 46.4281 23.7892 45.6683 23.9066C46.5257 24.2258 47.6101 24.1366 48.5464 23.6924C49.61 23.1877 50.4605 22.2354 50.5622 20.9398C50.5613 19.8291 50.2072 19.0223 49.7745 18.363C49.5591 18.0346 49.3244 17.7433 49.1016 17.4665L49.0949 17.4582C48.8717 17.181 48.6583 16.9156 48.4975 16.6484L48.4868 16.6307L48.2344 15.2726L48.7489 15.5119C48.7386 15.4924 48.7282 15.4726 48.7178 15.4526C48.6681 15.3576 48.6168 15.2573 48.5751 15.1712C48.5364 15.0913 48.5013 15.0144 48.4868 14.9664L48.4808 14.9501C48.476 14.9371 48.469 14.9181 48.46 14.8936C48.4419 14.8448 48.4159 14.7745 48.3839 14.689C48.32 14.5179 48.2323 14.2857 48.1376 14.0413C47.9462 13.5474 47.7313 13.0186 47.6225 12.8313L47.4982 12.6174L47.8996 12.6901L46.2501 10.6255L46.6511 10.5908C46.6241 10.5699 46.595 10.5475 46.5642 10.5238C46.3708 10.375 46.1074 10.1746 45.8272 9.96785C45.5469 9.76093 45.2506 9.54825 44.9912 9.37469C44.7282 9.19868 44.5135 9.07005 44.3922 9.02353L44.0937 8.90915L44.7373 8.69537C43.6039 8.27685 42.3101 8.66702 41.1664 9.42675L40.8893 9.61083L41.1463 8.84269L40.8225 8.87854V7.99045L41.1329 7.5264L40.5357 7.32803L40.9054 6.40713L40.3281 6.59887L40.5336 5.57513C40.5095 5.58373 40.4838 5.59253 40.4571 5.60127C40.3048 5.65098 40.0992 5.70422 39.9297 5.69216L39.7565 5.67983L39.8363 5.52566C39.9458 5.31415 40.0481 5.09903 40.143 4.88067C40.0993 4.79474 40.078 4.6992 40.0692 4.60697C40.0584 4.49339 40.0657 4.37719 40.0795 4.27475C40.0892 4.2022 40.1023 4.13502 40.1151 4.07849ZM40.6399 5.28746L40.8429 5.19552L40.6296 6.25794L41.301 6.03493L40.8383 7.18773L41.4897 7.4041L41.051 8.05984V8.62333L41.4764 8.57624L41.3134 9.06344C42.5153 8.34083 43.8982 8.00427 45.1083 8.6072L45.3561 8.73064L44.7292 8.93885C44.8454 9.00616 44.9783 9.09106 45.1183 9.18477C45.3819 9.36114 45.6813 9.57616 45.9629 9.78399C46.2446 9.99194 46.5093 10.1933 46.7035 10.3427C46.8006 10.4173 46.8802 10.479 46.9354 10.5221C46.9631 10.5436 46.9847 10.5605 46.9993 10.572L47.0218 10.5896L47.0218 10.5896C47.0219 10.5897 47.0219 10.5897 46.9512 10.6795L47.0218 10.5896L47.249 10.7684L46.695 10.8164L48.4586 13.0236L47.9261 12.9271C48.0482 13.1916 48.209 13.5931 48.3507 13.9587C48.4458 14.2042 48.5338 14.4373 48.598 14.609C48.6301 14.6948 48.6562 14.7654 48.6743 14.8144C48.6834 14.839 48.6905 14.8582 48.6953 14.8712L48.7026 14.8912C48.7026 14.8912 48.7026 14.8913 48.5953 14.9305L48.7026 14.8913L48.704 14.8951L48.7052 14.8991C48.7123 14.9241 48.7387 14.9848 48.7808 15.0716C48.821 15.1546 48.8711 15.2526 48.9203 15.3468C48.9695 15.4409 49.0174 15.5305 49.053 15.5967C49.0708 15.6297 49.0855 15.6569 49.0958 15.6758L49.1076 15.6976L49.1115 15.7047L49.1117 15.7051L49.1118 15.7051L49.2788 16.0103L48.5401 15.6668L48.7039 16.5481C48.854 16.7936 49.0526 17.0414 49.2729 17.3149L49.2821 17.3263C49.5034 17.6012 49.744 17.8999 49.9656 18.2376C50.4168 18.9253 50.7907 19.7763 50.7907 20.9443V20.9487L50.7904 20.9531C50.6825 22.3511 49.7646 23.3672 48.6443 23.8988C47.5272 24.4289 46.1865 24.4879 45.2102 23.9474L44.9031 23.7774L45.2514 23.734C46.0792 23.6309 47.1054 23.4255 47.9473 23.0188C48.7879 22.6127 49.4216 22.0184 49.5216 21.1453C49.5206 20.7507 49.4213 20.3517 49.2934 19.9696C49.2293 19.7778 49.1585 19.592 49.0902 19.4137L49.0785 19.3831C49.057 19.327 49.0357 19.2714 49.015 19.2168C48.836 19.7334 48.6255 20.246 48.2598 20.6105C47.7176 21.1507 46.8595 21.5219 45.9816 21.628C45.1038 21.734 44.184 21.5772 43.5276 21.0322L43.227 20.7826L43.6147 20.8309C44.4306 20.9325 45.4467 20.8296 46.2278 20.4279C46.617 20.2278 46.9439 19.9555 47.1615 19.6014C47.378 19.249 47.4906 18.8083 47.4412 18.2618C47.3428 17.5825 46.9043 17.0897 46.3219 16.7112C45.7927 16.3674 45.1563 16.1255 44.5771 15.9289L44.662 16.4363L44.3836 16.6212L45.3377 18.0472L44.6243 17.8103L45.2668 19.5173L44.8591 19.3142L45.2375 20.2569L45.0407 20.2278C44.9557 20.2153 44.8636 20.2051 44.7647 20.1942C44.2476 20.1372 43.5474 20.06 42.7258 19.514L42.547 19.8505L42.4481 19.803C41.9209 19.5498 41.3896 19.305 40.8545 19.0689L41.049 19.844L40.8747 19.8125C39.6989 19.5994 38.9996 19.0638 38.439 18.3722C38.1611 18.0293 37.9171 17.6479 37.6671 17.2533C37.6556 17.2351 37.644 17.2169 37.6325 17.1987C37.4322 16.8824 37.2264 16.5573 36.9926 16.2309L36.8159 16.9353L35.9834 16.7279L35.7705 17.5766L35.6474 17.5241C35.491 17.4573 35.3274 17.3536 35.2057 17.2692C35.1442 17.2266 35.0921 17.188 35.0553 17.16C35.0525 17.1579 35.0499 17.1559 35.0473 17.1539L33.2472 17.8041L33.3555 17.3077C33.3395 17.3119 33.3226 17.3163 33.3048 17.3209C33.1646 17.3573 32.9752 17.4055 32.7792 17.4523C32.5834 17.4992 32.3797 17.545 32.2111 17.5766C32.127 17.5924 32.05 17.605 31.9863 17.6122C31.9277 17.6189 31.8655 17.6231 31.8198 17.614L31.6008 17.5703L31.8097 17.3761L30.4375 17.5714L30.8458 17.0361L29.6016 17.1412L29.7774 16.9309L29.7775 16.9308L29.7854 16.9213C29.7908 16.9149 29.7986 16.9054 29.8087 16.8932C29.8289 16.8689 29.8579 16.8338 29.8934 16.7905C29.9644 16.704 30.0608 16.5853 30.1631 16.4563C30.3685 16.1972 30.5893 15.9065 30.6791 15.7491C30.8168 15.4539 30.9204 15.1876 31.0152 14.9419L31.0264 14.913C31.1168 14.6785 31.2011 14.4601 31.2998 14.2582C31.5082 13.8322 31.7818 13.4782 32.3207 13.1551C33.0425 12.644 33.8285 12.844 34.4276 12.9965C34.4744 13.0084 34.5201 13.0201 34.5646 13.0311C34.7217 13.0699 34.8616 13.1007 34.9856 13.1128C35.1098 13.1249 35.208 13.117 35.2852 13.0863C35.4131 13.0355 35.5285 12.9011 35.5695 12.5327C35.5385 12.5253 35.5014 12.5157 35.4595 12.5037C35.3313 12.4669 35.1561 12.407 34.9678 12.3138C34.603 12.1334 34.1779 11.8228 33.9598 11.3048L32.5249 10.6806L32.5745 10.4616C33.3679 10.489 34.1617 10.5028 34.9555 10.503C35.4386 10.2508 36.1415 10.4681 36.4327 11.0459L37.0229 11.0769C36.9926 10.7628 36.9585 10.4703 36.9262 10.1932C36.8495 9.53394 36.7829 8.96199 36.8007 8.39483C36.8274 7.54443 37.0417 6.69752 37.6731 5.54406L37.6756 5.53961L37.6784 5.53539C38.0918 4.91751 38.3636 4.53453 38.7231 4.28658C39.0854 4.03659 39.5261 3.93056 40.2546 3.82685L40.4378 3.80078L40.3791 3.97614L40.3791 3.97628L40.3788 3.97723L40.3773 3.98166C40.3761 3.98573 40.3741 3.99196 40.3717 4.00013C40.3667 4.01649 40.3598 4.04054 40.3521 4.07051C40.3367 4.13064 40.3182 4.21353 40.306 4.30506C40.2936 4.39702 40.288 4.49467 40.2967 4.58523C40.3054 4.67653 40.3279 4.75315 40.3657 4.80959L40.4002 4.86113L40.3758 4.91813C40.2988 5.09774 40.217 5.27523 40.1304 5.4504C40.2141 5.43554 40.3032 5.41113 40.3862 5.38403C40.4586 5.36039 40.5225 5.33606 40.5682 5.31764C40.591 5.30845 40.6092 5.30078 40.6216 5.29546C40.6278 5.29281 40.6325 5.29074 40.6356 5.28937L40.639 5.28786L40.6397 5.28752L40.6399 5.28746Z" fill="#FFCC00"/>
<path fill-rule="evenodd" clip-rule="evenodd" d="M45.0156 14.5977C45.1197 14.7843 46.3059 15.3442 47.18 15.8419C46.9511 14.888 45.2237 14.6806 45.0156 14.5977Z" fill="#FF0000"/>
<path fill-rule="evenodd" clip-rule="evenodd" d="M44.6875 14.3125L45.0676 14.464C45.0808 14.4693 45.1178 14.4791 45.1896 14.4955C45.2112 14.5004 45.2353 14.5059 45.2614 14.5117C45.3143 14.5236 45.3755 14.5374 45.441 14.5528C45.6382 14.5994 45.8875 14.6645 46.139 14.7583C46.3896 14.8518 46.6488 14.9761 46.8624 15.1437C47.0768 15.3119 47.2524 15.5296 47.3196 15.8094L47.3979 16.1358L47.1062 15.9697C46.8105 15.8013 46.4803 15.6266 46.1664 15.4604C46.0183 15.382 45.8738 15.3056 45.7383 15.2326C45.5286 15.1197 45.3399 15.0149 45.1963 14.9258C45.1247 14.8814 45.0616 14.8393 45.0118 14.8007C44.9671 14.7661 44.9155 14.7215 44.8868 14.6699L44.6875 14.3125ZM45.8668 14.9715C45.8699 14.9731 45.873 14.9748 45.8762 14.9765C46.0078 15.0474 46.1501 15.1227 46.297 15.2005C46.4562 15.2847 46.6208 15.3719 46.7833 15.4594C46.7521 15.4295 46.7186 15.4005 46.6829 15.3725C46.5018 15.2305 46.2732 15.1188 46.0374 15.0308C45.9803 15.0096 45.9233 14.9898 45.8668 14.9715Z" fill="#FF0000"/>
<path fill-rule="evenodd" clip-rule="evenodd" d="M16.4094 37.4055L15.0781 36.5617L13.2969 37.4148L13.7 35.8961L12.3406 34.4805L13.9062 34.3867L14.8438 32.6617L15.4156 34.1148L17.3563 34.4711L16.1375 35.4648L16.4094 37.4055ZM19.8031 29.9992L19.1844 29.718L18.5938 30.0555L18.6875 29.3805L18.1812 28.9211L18.8469 28.7992L19.1281 28.1805L19.4562 28.7805L20.1312 28.8555L19.6625 29.343L19.8031 29.9992ZM22.8031 25.7617L21.4437 25.1055L20.1406 25.8367L20.3563 24.3648L19.25 23.3523L20.7219 23.0898L21.3406 21.7398L22.0531 23.0523L23.5344 23.2211L22.5031 24.2992L22.8031 25.7617ZM16.6344 19.8555L15.0406 19.0586L13.4937 19.9117L13.7562 18.168L12.4625 16.9492L14.2156 16.668L14.9656 15.0742L15.7812 16.6398L17.5438 16.8555L16.2969 18.1117L16.6344 19.8555ZM10.9344 25.9867L9.34062 25.0492L7.74687 26.0148L8.15 24.2055L6.73438 22.9867L8.58125 22.818L9.30312 21.1023L10.0437 22.8086L11.9 22.9586L10.5031 24.1773L10.9344 25.9867Z" fill="white"/>
</g>
<defs>
<clipPath id="clip0_4046_24710">
<rect width="60" height="45" fill="white"/>
</clipPath>
</defs>
</svg>
