<svg width="60" height="45" viewBox="0 0 60 45" fill="none" xmlns="http://www.w3.org/2000/svg">
<g clip-path="url(#clip0_4046_24719)">
<path d="M0 0H60V22.5H0V0Z" fill="#0038A8"/>
<path d="M0 22.5H60V45H0V22.5Z" fill="#CE1126"/>
<path d="M38.9719 22.5L0 45V0" fill="white"/>
<path d="M2.50313 3.97656L3.84375 5.15781L5.4 4.29531L4.70625 5.93594L6.01875 7.15469L4.2375 7.00469L3.47812 8.61719L3.075 6.88281L1.3125 6.65781L2.84062 5.72031L2.50313 3.97656ZM32.8594 20.1297L32.8969 21.9109L34.5844 22.5016L32.8969 23.0828L32.8594 24.8641L31.7812 23.4484L30.075 23.9641L31.0875 22.5016L30.075 21.0391L31.7812 21.5547L32.8594 20.1297ZM3.4875 36.3859L4.2375 37.9984L6.01875 37.8484L4.71562 39.0672L5.40938 40.7078L3.85312 39.8547L2.50313 41.0172L2.84062 39.2641L1.3125 38.3453L3.08438 38.1203L3.4875 36.3859ZM14.1937 13.0422L13.6125 13.6234L13.9031 18.0297L13.6219 18.0578L13.0875 14.0359L12.6094 14.5047L13.3219 18.1047C12.7457 18.2181 12.1977 18.4443 11.7094 18.7703L9.675 15.7328H9L11.475 18.9484C11.398 19.0085 11.3229 19.071 11.25 19.1359L8.33438 15.8078H7.50937V16.6328L10.8281 19.5391L10.6406 19.7734L7.425 17.3078V17.9734L10.4719 20.0078C10.1531 20.4953 9.91875 21.0391 9.80625 21.6203L6.21563 20.9078L5.7375 21.3766L9.75937 21.9109C9.74062 22.0047 9.73125 22.1078 9.73125 22.2016L5.325 21.9203L4.74375 22.5016L5.325 23.0828L9.73125 22.7922L9.75937 23.0828L5.7375 23.6172L6.20625 24.0859L9.80625 23.3734C9.91964 23.9496 10.1459 24.4976 10.4719 24.9859L7.425 27.0203V27.6953L10.6406 25.2297C10.7007 25.3067 10.7632 25.3817 10.8281 25.4547L7.50937 28.3609V29.1859H8.34375L11.25 25.8672L11.4844 26.0547L9 29.2703H9.675L11.7094 26.2234C12.1875 26.5422 12.7406 26.7766 13.3219 26.8891L12.6094 30.4891L13.0781 30.9578L13.6125 26.9359C13.7062 26.9547 13.8 26.9641 13.9031 26.9641L13.6219 31.3703L14.1937 31.9516L14.7844 31.3703L14.4938 26.9641L14.775 26.9359L15.3094 30.9672L15.7875 30.4891L15.075 26.8891C15.6511 26.7757 16.1991 26.5495 16.6875 26.2234L18.7219 29.2703H19.3969L16.9219 26.0547C16.9989 25.9946 17.0739 25.9321 17.1469 25.8672L20.0625 29.1859H20.8875V28.3609L17.5687 25.4547L17.7562 25.2297L20.9719 27.6953V27.0203L17.925 24.9859C18.2437 24.5078 18.4781 23.9547 18.5906 23.3734L22.1813 24.0859L22.6594 23.6172L18.6375 23.0828C18.6563 22.9891 18.6656 22.8953 18.6656 22.7922L23.0719 23.0734L23.6531 22.5016L23.0719 21.9203L18.6656 22.2016L18.6375 21.9203L22.6594 21.3859L22.1906 20.9172L18.5906 21.6203C18.4772 21.0442 18.251 20.4962 17.925 20.0078L20.9719 17.9734V17.3078L17.7562 19.7734C17.6962 19.6964 17.6337 19.6214 17.5687 19.5484L20.8875 16.6422V15.8078H20.0625L17.1562 19.1359C17.0802 19.0708 17.0021 19.0083 16.9219 18.9484L19.3969 15.7328H18.7219L16.6875 18.7703C16.2094 18.4516 15.6563 18.2172 15.075 18.1047L15.7875 14.5141L15.3187 14.0453L14.7844 18.0578L14.4938 18.0297L14.775 13.6234L14.1937 13.0422Z" fill="#FCD116"/>
</g>
<defs>
<clipPath id="clip0_4046_24719">
<rect width="60" height="45" fill="white"/>
</clipPath>
</defs>
</svg>
