<svg width="60" height="45" viewBox="0 0 60 45" fill="none" xmlns="http://www.w3.org/2000/svg">
<g clip-path="url(#clip0_4046_24724)">
<path fill-rule="evenodd" clip-rule="evenodd" d="M-3.75781 0H63.7422V45H-3.75781V0Z" fill="#0C590B"/>
<path fill-rule="evenodd" clip-rule="evenodd" d="M-3.75781 0H13.1611V45H-3.75781V0Z" fill="white"/>
<path fill-rule="evenodd" clip-rule="evenodd" d="M40.0742 19.8125L37.332 19.2324L35.8906 21.6318L35.5918 18.8545L32.8672 18.2217L35.416 17.0791L35.1787 14.293L37.0596 16.3672L39.6348 15.2773L38.2373 17.7031L40.083 19.8125H40.0742Z" fill="white"/>
<path fill-rule="evenodd" clip-rule="evenodd" d="M41.1025 26.8965C40.5176 28.1728 39.6862 29.321 38.656 30.2749C37.6258 31.2287 36.4172 31.9696 35.0997 32.4548C33.7822 32.9399 32.3818 33.1599 30.979 33.1019C29.5762 33.044 28.1987 32.7093 26.9257 32.1172C24.343 30.9214 22.3411 28.7486 21.3603 26.0767C20.3796 23.4049 20.5005 20.4529 21.6963 17.8701C22.2901 16.5425 23.1552 15.3538 24.236 14.3805C25.3168 13.4072 26.5893 12.6708 27.9716 12.2188C27.6097 12.5201 27.2636 12.8398 26.9345 13.1768C25.2198 15.0758 24.3095 17.5665 24.3956 20.1237C24.4817 22.6809 25.5576 25.1047 27.3962 26.8841C29.2348 28.6635 31.6926 29.6593 34.2512 29.6616C36.8099 29.6639 39.2694 28.6725 41.1113 26.8965H41.1025Z" fill="white"/>
</g>
<defs>
<clipPath id="clip0_4046_24724">
<rect width="60" height="45" fill="white"/>
</clipPath>
</defs>
</svg>
