<svg width="60" height="45" viewBox="0 0 60 45" fill="none" xmlns="http://www.w3.org/2000/svg">
<g clip-path="url(#clip0_4046_24838)">
<path d="M24 0H60V45H24V0Z" fill="#FF0000"/>
<path d="M0 0H24V45H0V0Z" fill="#006600"/>
<path fill-rule="evenodd" clip-rule="evenodd" d="M31.8281 28.707C28.8 28.6133 14.9531 19.9695 14.8594 18.582L15.6188 17.3164C16.9969 19.3133 31.1531 27.7227 32.55 27.4227L31.8281 28.707Z" fill="#FFFF00"/>
<path fill-rule="evenodd" clip-rule="evenodd" d="M15.6147 17.2891C15.6243 17.2888 15.6333 17.2933 15.6388 17.3012C15.8085 17.5471 16.1774 17.8946 16.6992 18.3152C17.2201 18.735 17.891 19.2257 18.6621 19.7578C20.2042 20.8218 22.146 22.0505 24.0886 23.2075C26.0312 24.3645 27.9742 25.4496 29.5185 26.2266C30.2907 26.6151 30.9628 26.9264 31.4851 27.131C31.7463 27.2334 31.9694 27.3089 32.1486 27.354C32.329 27.3996 32.4606 27.4132 32.541 27.3959C32.5518 27.3936 32.563 27.3978 32.5695 27.4068C32.5761 27.4157 32.5768 27.4276 32.5714 27.4372L31.8495 28.7216C31.8444 28.7307 31.8346 28.7362 31.8241 28.7359C31.4407 28.7241 30.8895 28.5773 30.2205 28.3291C29.5507 28.0806 28.7601 27.7294 27.897 27.3066C26.1705 26.4609 24.1521 25.3278 22.2256 24.1545C20.2992 22.9812 18.4641 21.7672 17.1046 20.7596C16.4249 20.2559 15.8635 19.8033 15.4688 19.4329C15.2716 19.2477 15.1153 19.0825 15.0067 18.9413C14.8991 18.8013 14.8347 18.6805 14.8282 18.5847C14.8278 18.579 14.8292 18.5733 14.8321 18.5683L15.5915 17.3027C15.5964 17.2945 15.6052 17.2894 15.6147 17.2891ZM15.6177 17.3685L14.8851 18.5894C14.8936 18.6665 14.9482 18.7729 15.0513 18.907C15.1573 19.0448 15.3111 19.2077 15.5073 19.3919C15.8997 19.7601 16.4591 20.2112 17.1381 20.7144C18.4958 21.7207 20.3294 22.9337 22.2549 24.1064C24.1804 25.2792 26.1973 26.4114 27.9217 27.2561C28.7839 27.6785 29.5727 28.0288 30.2401 28.2764C30.8982 28.5205 31.4358 28.6638 31.8089 28.6791L32.4949 27.4584C32.4039 27.4638 32.282 27.4457 32.1348 27.4086C31.9524 27.3626 31.7268 27.2862 31.4646 27.1834C30.9399 26.9778 30.2661 26.6657 29.4932 26.2768C27.9473 25.499 26.0031 24.4132 24.0598 23.2558C22.1165 22.0984 20.1735 20.869 18.6301 19.8041C17.8584 19.2716 17.1863 18.78 16.6639 18.359C16.1661 17.9578 15.8018 17.6188 15.6177 17.3685Z" fill="black"/>
<path fill-rule="evenodd" clip-rule="evenodd" d="M15.4545 17.1367C15.1826 17.868 19.0733 20.268 23.742 23.118C28.4201 25.9586 32.4514 27.7117 32.742 27.468L32.8826 27.2055C32.8264 27.2992 32.6951 27.3273 32.4795 27.2617C31.2139 26.8961 27.9233 25.3867 23.8451 22.9117C19.7576 20.4367 16.2139 18.1586 15.6608 17.193C15.6177 17.1024 15.5983 17.0024 15.6045 16.9023H15.5858L15.4733 17.1086L15.4545 17.1367V17.1367ZM31.8889 28.743C31.842 28.8367 31.7389 28.8367 31.5608 28.818C30.4358 28.6961 27.0045 27.0273 22.9452 24.5992C18.2202 21.768 14.3202 19.1992 14.7514 18.5242L14.8639 18.318L14.8827 18.3273C14.5077 19.4711 22.5795 24.0836 23.0576 24.3836C27.7264 27.2711 31.6639 28.968 32.0108 28.5273L31.8889 28.743V28.743Z" fill="#FFFF00"/>
<path fill-rule="evenodd" clip-rule="evenodd" d="M15.5658 16.8897C15.5707 16.8806 15.5802 16.875 15.5905 16.875H15.6092C15.617 16.875 15.6244 16.8782 15.6297 16.8839C15.6351 16.8895 15.6378 16.8971 15.6373 16.9049C15.6314 16.9998 15.6497 17.0947 15.6904 17.1807C15.8262 17.417 16.1473 17.7372 16.6207 18.1249C17.0936 18.5122 17.7154 18.9643 18.4481 19.4639C19.9135 20.463 21.8208 21.651 23.8644 22.8884L23.8645 22.8885C27.9421 25.3632 31.2301 26.8709 32.492 27.2355L32.4924 27.2356C32.5981 27.2678 32.6802 27.276 32.7412 27.2664C32.8012 27.2569 32.8401 27.2304 32.8633 27.1918C32.8711 27.1787 32.888 27.1743 32.9012 27.1818C32.9145 27.1893 32.9194 27.2061 32.9122 27.2195L32.7715 27.482C32.7698 27.4852 32.7676 27.488 32.7648 27.4903C32.7385 27.5124 32.6967 27.5195 32.6491 27.5194C32.5998 27.5192 32.5372 27.5111 32.4628 27.4959C32.3138 27.4653 32.1128 27.4053 31.8663 27.3179C31.3732 27.143 30.695 26.8575 29.8801 26.4759C28.2502 25.7125 26.072 24.5636 23.7321 23.1428L23.7321 23.1428C21.3979 21.7179 19.2573 20.4049 17.7343 19.3568C16.9729 18.8328 16.3648 18.3742 15.9637 18.0004C15.7634 17.8136 15.6134 17.6468 15.522 17.5026C15.4315 17.3597 15.3941 17.2321 15.4329 17.1277L15.4592 17.1375L15.4358 17.1219L15.4539 17.0948L15.5658 16.8897ZM15.4845 17.1503C15.4571 17.2284 15.4823 17.3348 15.5696 17.4725C15.6571 17.6107 15.803 17.7736 16.0021 17.9592C16.4 18.3301 17.0053 18.7868 17.7662 19.3104C19.2877 20.3575 21.4268 21.6696 23.7613 23.0947C26.0996 24.5145 28.2761 25.6625 29.904 26.4249C30.718 26.8062 31.3945 27.0908 31.8851 27.2649C32.1306 27.3519 32.3288 27.411 32.4741 27.4408C32.5469 27.4557 32.6053 27.463 32.6493 27.4631C32.69 27.4633 32.7133 27.4571 32.7249 27.4499L32.8002 27.3095C32.7846 27.3149 32.7678 27.3191 32.75 27.3219C32.6774 27.3334 32.5861 27.3229 32.4763 27.2895C31.2068 26.9227 27.9137 25.4117 23.8353 22.9366C21.7915 21.699 19.8831 20.5104 18.4164 19.5103C17.6831 19.0103 17.0598 18.5572 16.585 18.1684C16.1113 17.7804 15.7822 17.4541 15.6411 17.2077C15.6407 17.2071 15.6404 17.2065 15.6401 17.2058C15.6061 17.1344 15.5862 17.0574 15.5812 16.9789L15.5027 17.1228C15.5023 17.1236 15.5019 17.1243 15.5014 17.125L15.4845 17.1503ZM14.8439 18.3053C14.8512 18.292 14.8677 18.2868 14.8812 18.2936L14.8999 18.303C14.9124 18.3092 14.9184 18.3236 14.9141 18.3369C14.8935 18.3997 14.9009 18.4775 14.9382 18.5709C14.9755 18.6641 15.0415 18.7701 15.1335 18.887C15.3175 19.121 15.6021 19.3947 15.9574 19.6932C16.6675 20.2901 17.6552 20.9825 18.6704 21.6491C20.2859 22.71 21.9669 23.7029 22.7086 24.1409C22.8993 24.2536 23.0279 24.3296 23.0773 24.3605C25.4108 25.8037 27.5613 26.9492 29.1712 27.6787C29.9764 28.0435 30.6456 28.3039 31.1346 28.4456C31.3793 28.5165 31.5775 28.5573 31.7245 28.5669C31.7981 28.5718 31.8575 28.5687 31.9029 28.5585C31.9484 28.5482 31.9772 28.5313 31.9934 28.5107C32.0025 28.4992 32.0189 28.4966 32.0312 28.5048C32.0434 28.513 32.0472 28.5292 32.04 28.542L31.9184 28.757C31.8902 28.813 31.8441 28.8406 31.7836 28.8511C31.7252 28.8613 31.6511 28.856 31.5626 28.8467L31.5625 28.8467C31.2773 28.8158 30.8489 28.6875 30.3053 28.4758C29.7611 28.2639 29.0991 27.9677 28.3457 27.5995C26.839 26.8631 24.9656 25.8385 22.9354 24.6241L22.9354 24.6241C20.5728 23.2084 18.4157 21.858 16.903 20.7768C16.1469 20.2363 15.5506 19.7624 15.1701 19.3807C14.98 19.19 14.8423 19.0209 14.7657 18.8769C14.6899 18.7343 14.6702 18.6082 14.7319 18.5107L14.8439 18.3053ZM31.8936 28.7438L31.8691 28.7299L31.9384 28.6073C31.931 28.6095 31.9232 28.6116 31.9153 28.6134C31.8626 28.6252 31.7973 28.6281 31.7208 28.6231C31.5679 28.613 31.3651 28.571 31.1189 28.4996C30.6262 28.3568 29.9542 28.0952 29.148 27.7299C27.5354 26.9992 25.3828 25.8525 23.0476 24.4083L23.0474 24.4082C22.9992 24.378 22.8724 24.3031 22.6839 24.1917C21.9448 23.7552 20.2574 22.7586 18.6395 21.6962C17.6238 21.0292 16.634 20.3353 15.9212 19.7363C15.5649 19.4369 15.2768 19.1602 15.0893 18.9218C14.9955 18.8026 14.926 18.6919 14.886 18.5918C14.8615 18.5305 14.8477 18.4722 14.8466 18.4178L14.7808 18.5385C14.7805 18.539 14.7802 18.5396 14.7798 18.5401C14.7344 18.6113 14.7422 18.7128 14.8154 18.8505C14.8881 18.9872 15.0212 19.1517 15.2099 19.341C15.587 19.7193 16.1802 20.191 16.9358 20.731C18.4465 21.8108 20.6019 23.1603 22.9643 24.5759C24.9935 25.7896 26.8654 26.8134 28.3704 27.5489C29.1229 27.9167 29.7834 28.2123 30.3257 28.4234C30.8687 28.6348 31.2911 28.7607 31.5684 28.7908C31.658 28.8002 31.7245 28.8043 31.774 28.7957C31.821 28.7875 31.8498 28.7685 31.8685 28.7312L31.8936 28.7438Z" fill="black"/>
<path fill-rule="evenodd" clip-rule="evenodd" d="M24.0141 19.425C27.0328 19.3969 30.7641 19.0125 32.9203 18.15L32.4516 17.4C31.1859 18.1031 27.4359 18.5719 23.9859 18.6375C19.9172 18.6 17.0391 18.2156 15.5953 17.25L15.1641 18.0563C17.8078 19.1813 20.5266 19.4156 24.0141 19.425" fill="#FFFF00"/>
<path fill-rule="evenodd" clip-rule="evenodd" d="M15.5932 17.2235C15.6009 17.2216 15.609 17.223 15.6156 17.2274C16.3324 17.7068 17.4081 18.0435 18.8153 18.2648C20.2219 18.486 21.9569 18.5914 23.9905 18.6102C25.7144 18.5773 27.5131 18.4438 29.0387 18.2307C29.8015 18.1242 30.4958 17.9978 31.078 17.8542C31.6607 17.7106 32.1295 17.5502 32.4426 17.3762C32.4557 17.3689 32.4722 17.3732 32.4801 17.3859L32.9489 18.1359C32.9533 18.1429 32.9543 18.1516 32.9517 18.1595C32.9491 18.1674 32.9432 18.1738 32.9354 18.1769C30.7741 19.0414 27.0384 19.4258 24.019 19.4539C24.0189 19.4539 24.0188 19.4539 24.0187 19.4539C24.0033 19.4538 23.9908 19.4414 23.9906 19.426C23.9905 19.4105 24.003 19.3978 24.0185 19.3977C24.0185 19.3977 24.0186 19.3977 24.0187 19.3977C20.5446 19.3883 17.8375 19.1555 15.2081 18.0432L15.6102 17.2913C16.337 17.7683 17.4132 18.1013 18.8066 18.3204C20.2171 18.5421 21.9553 18.6476 23.9904 18.6664L23.9904 18.6664L23.9912 18.6664C25.7171 18.6336 27.5183 18.4999 29.0465 18.2864C29.8106 18.1797 30.5068 18.053 31.0915 17.9089C31.6616 17.7683 32.1272 17.6108 32.4465 17.4382L32.8833 18.1371C30.7275 18.9888 27.0222 19.3697 24.0187 19.3977M15.5932 17.2235C15.5855 17.2254 15.5789 17.2305 15.5752 17.2375ZM15.5752 17.2375L15.1439 18.0438ZM24.0187 19.4539C20.5303 19.4445 17.8069 19.2102 15.1577 18.0829C15.1505 18.0798 15.1448 18.0738 15.1422 18.0664C15.1396 18.0589 15.1402 18.0507 15.1439 18.0438" fill="black"/>
<path fill-rule="evenodd" clip-rule="evenodd" d="M33.0438 18.1672C32.9688 18.2891 31.5625 18.7672 29.5 19.1234C27.6819 19.399 25.8451 19.5337 24.0063 19.5266C22.2444 19.5332 20.4841 19.4204 18.7375 19.1891C16.5719 18.8516 15.4562 18.3828 15.0344 18.2141L15.1375 18.0078C16.3281 18.4766 17.4531 18.7578 18.7656 18.9641C20.4995 19.1982 22.2473 19.3141 23.9969 19.3109C25.8262 19.3129 27.6532 19.1781 29.4625 18.9078C31.5719 18.5609 32.725 18.1203 32.8937 17.9234L33.0438 18.1766V18.1672ZM32.6313 17.4078C32.4063 17.5953 31.2625 17.9984 29.2563 18.3172C27.5238 18.5678 25.7755 18.6932 24.025 18.6922C21.9625 18.6922 20.2656 18.5422 18.9813 18.3547C16.9375 18.0922 15.85 17.6047 15.4562 17.4734L15.5781 17.2672C15.8875 17.4266 16.9281 17.8484 19 18.1391C20.6655 18.3622 22.3446 18.4687 24.025 18.4578C25.763 18.4583 27.4988 18.333 29.2188 18.0828C31.2344 17.8016 32.3219 17.2953 32.4906 17.1641L32.6313 17.4078V17.4078ZM14.0875 23.0609C15.9438 24.0641 20.0781 24.5609 23.9875 24.5984C27.55 24.6078 32.1812 24.0547 33.9156 23.1359L33.8687 22.1328C33.325 22.9766 28.3563 23.7922 23.95 23.7641C19.5438 23.7266 15.4469 23.0516 14.0781 22.1703V23.0609" fill="#FFFF00"/>
<path fill-rule="evenodd" clip-rule="evenodd" d="M32.4929 17.1372C32.5009 17.1388 32.5078 17.1437 32.5119 17.1508L32.6525 17.3945L32.6281 17.4086L32.6461 17.4302C32.5863 17.4801 32.469 17.5418 32.2986 17.611C32.1272 17.6806 31.8995 17.7589 31.6164 17.8411C31.0503 18.0055 30.2616 18.1862 29.2575 18.3457L29.2572 18.3458C27.5234 18.5966 25.7737 18.7221 24.0219 18.7211L24.0219 18.693V18.7211C24.0219 18.7211 24.0219 18.7211 24.0219 18.7211C21.9581 18.7211 20.26 18.571 18.9743 18.3833C18.9744 18.3833 18.9745 18.3834 18.9745 18.3834L18.9781 18.3555L18.9741 18.3833C18.9741 18.3833 18.9742 18.3833 18.9743 18.3833C17.2266 18.1588 16.176 17.7698 15.6619 17.5794C15.5739 17.5468 15.5016 17.52 15.4442 17.5009C15.4362 17.4982 15.4298 17.492 15.4268 17.4841C15.4238 17.4761 15.4246 17.4672 15.4289 17.4599L15.5508 17.2537C15.5584 17.2408 15.5746 17.2361 15.5879 17.243C15.8936 17.4005 16.931 17.8216 19.0007 18.112C19.0007 18.112 19.0006 18.112 19.0006 18.112L18.9969 18.1398L19.0008 18.112C19.0008 18.112 19.0007 18.112 19.0007 18.112C20.6649 18.3349 22.3427 18.4413 24.0217 18.4305L24.0219 18.4305C25.7586 18.431 27.493 18.3058 29.2116 18.0558L29.2117 18.0557C30.218 17.9153 30.9921 17.7188 31.5354 17.5412C31.8071 17.4524 32.0209 17.3684 32.177 17.2985C32.334 17.2283 32.4309 17.1732 32.4702 17.1426C32.4767 17.1377 32.4849 17.1357 32.4929 17.1372ZM32.5915 17.4014L32.4786 17.2057C32.4254 17.2409 32.3321 17.2908 32.2 17.3499C32.0418 17.4207 31.8261 17.5054 31.5529 17.5947C31.0063 17.7734 30.229 17.9706 29.2196 18.1114C27.4984 18.3618 25.7613 18.4873 24.022 18.4867C22.3403 18.4976 20.6599 18.391 18.9931 18.1677L18.993 18.1677C16.9685 17.8837 15.9256 17.4743 15.5858 17.305L15.4949 17.4588C15.5468 17.4768 15.6088 17.4997 15.6812 17.5266C16.1958 17.7171 17.2407 18.104 18.9817 18.3276L18.9822 18.3276L18.9822 18.3276C20.2652 18.5149 21.9607 18.6648 24.0219 18.6648H24.0219C25.771 18.6658 27.5178 18.5406 29.2489 18.2902C30.251 18.1309 31.0373 17.9507 31.6008 17.7871C31.8825 17.7052 32.1083 17.6276 32.2774 17.5589C32.4294 17.4971 32.5336 17.4434 32.5915 17.4014ZM32.8931 17.8962C32.9021 17.897 32.9102 17.9021 32.9148 17.9099L33.0527 18.1426C33.0624 18.1472 33.0688 18.157 33.0688 18.168V18.1773C33.0688 18.19 33.0603 18.2011 33.0481 18.2045C33.0467 18.2048 33.0454 18.2051 33.044 18.2053C33.0388 18.2097 33.033 18.2139 33.0271 18.218C33.0108 18.2293 32.9897 18.2415 32.9642 18.2545C32.9134 18.2805 32.8432 18.311 32.7555 18.3449C32.5798 18.4129 32.3317 18.4954 32.0219 18.5852C31.4021 18.7648 30.5339 18.9736 29.5017 19.1519L29.5011 19.152C27.6815 19.4278 25.8434 19.5626 24.0031 19.5555C22.24 19.5621 20.4785 19.4492 18.7307 19.2177L18.73 19.2176L18.73 19.2176C16.6413 18.8921 15.5274 18.4445 15.0703 18.2608C15.0529 18.2538 15.0364 18.2472 15.0208 18.241C15.0135 18.238 15.0078 18.2322 15.005 18.2248C15.0022 18.2175 15.0026 18.2093 15.0061 18.2023L15.1092 17.996C15.1157 17.983 15.1311 17.9771 15.1447 17.9824C16.3329 18.4502 17.4558 18.731 18.7666 18.937C20.4991 19.1709 22.2455 19.2867 23.9937 19.2836H23.9938C25.8217 19.2855 27.6472 19.1509 29.455 18.8808C30.5086 18.7075 31.3229 18.5109 31.8944 18.3333C32.1802 18.2445 32.4049 18.1605 32.5684 18.0867C32.6501 18.0498 32.7161 18.0156 32.7666 17.9848C32.8176 17.9537 32.8511 17.9272 32.8693 17.9059C32.8752 17.899 32.884 17.8954 32.8931 17.8962ZM33.0018 18.167L32.8848 17.9696C32.8619 17.9897 32.832 18.0108 32.7959 18.0328C32.7428 18.0652 32.6746 18.1004 32.5915 18.1379C32.4253 18.213 32.1983 18.2977 31.9111 18.387C31.3365 18.5656 30.5196 18.7627 29.4639 18.9363L29.4635 18.9364C27.6529 19.2069 25.8245 19.3418 23.9938 19.3398C22.2429 19.343 20.4939 19.227 18.7587 18.9927L18.7581 18.9926L18.7581 18.9926C17.4528 18.7875 16.3321 18.5082 15.148 18.0442L15.0701 18.2001C15.077 18.2029 15.0841 18.2057 15.0914 18.2087C15.5465 18.3916 16.656 18.8374 18.7384 19.162C20.4836 19.3932 22.2425 19.5058 24.003 19.4992H24.0032C25.8406 19.5064 27.6758 19.3717 29.4924 19.0965C30.5225 18.9185 31.3886 18.7102 32.0062 18.5312C32.3151 18.4417 32.5616 18.3596 32.7352 18.2925C32.822 18.2589 32.8902 18.2292 32.9386 18.2044C32.9628 18.192 32.9816 18.1811 32.9952 18.1717C32.9976 18.17 32.9998 18.1684 33.0018 18.167ZM33.8729 22.1064C33.8847 22.1096 33.8931 22.1201 33.8937 22.1323L33.9406 23.1354C33.9411 23.1463 33.9353 23.1565 33.9257 23.1616C33.0537 23.6235 31.4578 23.9919 29.6378 24.2439C27.8166 24.496 25.7669 24.632 23.9843 24.6273L23.9841 24.6273C22.0284 24.6086 20.0162 24.4749 18.2604 24.2204C16.5094 23.9666 15.0103 23.5921 14.0771 23.0898C14.0764 23.0898 14.0757 23.0898 14.075 23.0898C14.0595 23.0898 14.0469 23.0773 14.0469 23.0617V22.1711C14.0469 22.1608 14.0525 22.1513 14.0615 22.1464C14.0706 22.1415 14.0816 22.1419 14.0902 22.1474C14.7692 22.5846 16.1303 22.973 17.8764 23.2566C19.6209 23.5399 21.7452 23.718 23.9471 23.7367C26.1486 23.7508 28.4908 23.554 30.3501 23.2484C31.2799 23.0956 32.0882 22.9157 32.6975 22.7216C33.0022 22.6245 33.2565 22.5241 33.451 22.4222C33.6464 22.3198 33.7781 22.2175 33.842 22.1184C33.8486 22.1081 33.8611 22.1033 33.8729 22.1064ZM14.1031 23.0399C15.0271 23.5375 16.5182 23.911 18.2685 24.1647C20.0213 24.4188 22.0309 24.5524 23.9846 24.5711M14.1031 23.0399V22.222Z" fill="black"/>
<path fill-rule="evenodd" clip-rule="evenodd" d="M34.0125 22.9203V23.1547C33.75 23.4734 32.1187 23.9422 30.075 24.2797C28.0446 24.5715 25.995 24.7094 23.9437 24.6922C21.9987 24.7088 20.0554 24.574 18.1312 24.2891C16.6955 24.1232 15.2926 23.744 13.9688 23.1641V22.8922C14.8781 23.4922 17.3344 23.9422 18.1594 24.0734C19.6406 24.2984 21.5437 24.4672 23.9437 24.4672C26.4656 24.4672 28.4812 24.2891 30.0375 24.0547C31.5094 23.8391 33.6 23.2859 34.0125 22.9203V22.9203ZM34.0125 22.0766V22.3109C33.75 22.6203 32.1187 23.0891 30.075 23.4266C28.0448 23.7216 25.9952 23.8626 23.9437 23.8484C21.9989 23.8599 20.0559 23.7251 18.1312 23.4453C16.6955 23.2794 15.2926 22.9002 13.9688 22.3203V22.0391C14.8781 22.6484 17.3437 23.0891 18.1594 23.2203C20.0745 23.5008 22.0082 23.6356 23.9437 23.6234C26.4656 23.6234 28.4906 23.4359 30.0375 23.2016C31.5094 22.9953 33.6 22.4422 34.0125 22.0766V22.0766ZM23.9813 28.5266C19.7063 28.5078 16.0406 27.3641 15.2625 27.1766L15.825 28.0578C18.4546 28.9891 21.2295 29.4432 24.0188 29.3984C27.2719 29.3047 30.1125 29.0516 32.1094 28.0766L32.6906 27.1578C31.3313 27.8047 26.6906 28.5266 23.9719 28.5266" fill="#FFFF00"/>
<path fill-rule="evenodd" clip-rule="evenodd" d="M13.9524 22.015C13.9615 22.0101 13.9727 22.0107 13.9813 22.0165C14.4313 22.318 15.2703 22.5796 16.1028 22.7824C16.9336 22.9849 17.753 23.1277 18.1605 23.1933C20.0742 23.4736 22.0064 23.6083 23.9404 23.5961L23.9406 23.5961C26.4611 23.5961 28.4847 23.4087 30.0302 23.1745L30.0305 23.1745C30.7651 23.0716 31.6545 22.882 32.4116 22.6725C32.7902 22.5678 33.1353 22.4582 33.4111 22.3521C33.6883 22.2456 33.8918 22.1439 33.9907 22.0563L34.0094 22.0773H34.0375V22.3117C34.0375 22.3184 34.0351 22.3248 34.0308 22.3299C33.995 22.3722 33.9376 22.4152 33.8628 22.4589C33.7877 22.5028 33.6932 22.5484 33.5816 22.595C33.3585 22.6884 33.0649 22.7868 32.7163 22.886C32.0189 23.0844 31.0991 23.2862 30.0765 23.4551L30.0759 23.4552C28.0444 23.7504 25.9934 23.8915 23.9406 23.8773C21.9945 23.8888 20.0504 23.754 18.1245 23.474C16.6861 23.3077 15.2806 22.9278 13.9543 22.3469C13.9441 22.3424 13.9375 22.3323 13.9375 22.3211V22.0398C13.9375 22.0295 13.9432 22.0199 13.9524 22.015ZM33.9812 22.1357C33.8647 22.2206 33.6724 22.3119 33.4313 22.4046C33.1532 22.5116 32.8063 22.6217 32.4266 22.7267C31.6675 22.9368 30.7757 23.1269 30.0384 23.2302C28.4902 23.4647 26.4639 23.6523 23.9407 23.6523C23.9407 23.6523 23.9407 23.6523 23.9406 23.6523V23.6242L23.9408 23.6523C23.9408 23.6523 23.9407 23.6523 23.9407 23.6523C22.0038 23.6645 20.0687 23.5297 18.1522 23.2489L18.1518 23.2489L18.1518 23.2489C17.7436 23.1832 16.9225 23.0401 16.0894 22.8371C15.2836 22.6407 14.4619 22.3873 13.9937 22.0917V22.0398H13.9656L13.95 22.0632C13.9642 22.0727 13.9788 22.0822 13.9937 22.0917V22.3027C13.9881 22.3002 13.9825 22.2978 13.9769 22.2953L13.9656 22.3211H13.9937V22.3027C15.3101 22.8773 16.7045 23.2533 18.1314 23.4182L18.1322 23.4182L18.1322 23.4183C20.0554 23.6979 21.997 23.8325 23.9405 23.8211L23.9408 23.8211C25.9908 23.8352 28.0389 23.6943 30.0676 23.3995C30.0675 23.3996 30.0674 23.3996 30.0673 23.3996L30.0719 23.4273L30.0678 23.3995C30.0677 23.3995 30.0677 23.3995 30.0676 23.3995C31.0886 23.2309 32.0061 23.0296 32.7009 22.8319C33.0484 22.7331 33.3396 22.6353 33.5599 22.5431C33.6701 22.4971 33.7622 22.4526 33.8345 22.4104C33.902 22.3709 33.9508 22.3342 33.9812 22.3011V22.3117H34.0094L33.9879 22.2935C33.9858 22.296 33.9836 22.2985 33.9812 22.3011V22.1357ZM13.9523 22.8682C13.9614 22.8633 13.9725 22.8638 13.9811 22.8695C14.4312 23.1665 15.268 23.4281 16.0993 23.6321C16.9291 23.8357 17.7485 23.9809 18.1606 24.0464C19.6403 24.2712 21.542 24.4398 23.9406 24.4398C26.4612 24.4398 28.4754 24.2618 30.0302 24.0277L30.0303 24.0276C30.765 23.92 31.6544 23.7281 32.4116 23.5174C32.7902 23.4121 33.1353 23.3022 33.4111 23.196C33.6883 23.0893 33.8918 22.9877 33.9907 22.9L34.0094 22.9211H34.0375V23.1555C34.0375 23.162 34.0352 23.1683 34.0311 23.1733C33.9953 23.2169 33.9378 23.261 33.8631 23.3056C33.7879 23.3505 33.6934 23.3968 33.5818 23.4442C33.3585 23.5388 33.065 23.6382 32.7163 23.738C32.0189 23.9376 31.0991 24.1393 30.0765 24.3082L30.0759 24.3083C28.0441 24.6004 25.9932 24.7383 23.9406 24.7211C21.9944 24.7377 20.0498 24.6028 18.1244 24.3177C16.6861 24.1515 15.2806 23.7716 13.9543 23.1906C13.9441 23.1861 13.9375 23.176 13.9375 23.1648V22.893C13.9375 22.8826 13.9432 22.8731 13.9523 22.8682ZM33.9812 22.9795C33.8647 23.0644 33.6724 23.1557 33.4313 23.2485C33.1532 23.3556 32.8063 23.466 32.4267 23.5716C31.6675 23.7828 30.7757 23.9753 30.0385 24.0833C28.4808 24.3179 26.4638 24.4961 23.9406 24.4961C21.5393 24.4961 19.6348 24.3272 18.152 24.102L18.1518 24.102C17.7389 24.0363 16.9177 23.8908 16.0859 23.6867C15.2811 23.4892 14.4616 23.2357 13.9937 22.9444V23.1464C15.3101 23.7211 16.7045 24.097 18.1314 24.2619L18.1322 24.262L18.1322 24.262C20.0549 24.5467 21.9968 24.6814 23.9404 24.6648H23.9409C25.9906 24.6821 28.0386 24.5443 30.0676 24.2527C31.0886 24.0841 32.0061 23.8827 32.7009 23.6839C33.0483 23.5845 33.3395 23.4858 33.5598 23.3924C33.67 23.3457 33.762 23.3004 33.8342 23.2573C33.9019 23.217 33.9508 23.1793 33.9812 23.1451V22.9795ZM32.7085 27.1399C32.7169 27.1493 32.718 27.163 32.7113 27.1736L32.13 28.0924C32.1272 28.0968 32.1233 28.1003 32.1186 28.1026C30.1155 29.0806 27.2689 29.3336 24.0164 29.4273L24.0161 29.4273C21.2234 29.4721 18.4452 29.0176 15.8125 28.0851C15.8066 28.083 15.8015 28.079 15.7982 28.0737L15.2357 27.1925C15.2295 27.1828 15.2298 27.1704 15.2365 27.161C15.2431 27.1517 15.2548 27.1473 15.266 27.15C15.3613 27.173 15.4996 27.2102 15.6769 27.2579C16.9498 27.6004 20.2289 28.4827 23.9775 28.4992C25.3341 28.4984 27.168 28.3184 28.8335 28.0578C30.5039 27.7964 31.9999 27.4546 32.6754 27.1332C32.6867 27.1278 32.7002 27.1306 32.7085 27.1399ZM23.967 28.5554C23.9676 28.5555 23.9682 28.5555 23.9687 28.5555C23.9717 28.5555 23.9746 28.5555 23.9776 28.5555M23.967 28.5554C20.2144 28.5373 16.9322 27.654 15.6618 27.3121C15.5238 27.275 15.4096 27.2442 15.321 27.2217L15.8404 28.0353C18.4641 28.9633 21.2324 29.4157 24.015 29.3711C27.2648 29.2774 30.0965 29.0246 32.0867 28.0556L32.6133 27.2233C31.8947 27.5368 30.4448 27.8626 28.8422 28.1133C27.1755 28.3742 25.3389 28.5546 23.9785 28.5555" fill="black"/>
<path fill-rule="evenodd" clip-rule="evenodd" d="M32.3344 27.8734C32.249 27.9999 32.1615 28.1249 32.0719 28.2484C31.1344 28.5859 29.6344 28.9422 29.0156 29.0359C27.3553 29.3453 25.6702 29.5022 23.9813 29.5047C20.1938 29.4484 17.0906 28.7078 15.6375 28.0703L15.5156 27.8734L15.5344 27.8359L15.7313 27.9203C18.3994 28.8032 21.1896 29.262 24 29.2797C25.7625 29.2797 27.5156 29.0828 28.9313 28.8297C31.1063 28.3891 31.9875 28.0609 32.2594 27.9109L32.325 27.8734H32.3344ZM32.8313 27.0484C32.7695 27.1583 32.707 27.2676 32.6438 27.3766C32.1375 27.5641 30.7687 27.9578 28.7719 28.2391C27.4594 28.4172 26.6437 28.5953 24.0281 28.6422C21.0381 28.6122 18.0664 28.1705 15.1969 27.3297L15.0938 27.0953C18.0092 27.9011 21.0134 28.342 24.0375 28.4078C26.4281 28.3609 27.45 28.1828 28.7531 28.0047C31.0781 27.6484 32.25 27.2547 32.5969 27.1516C32.5971 27.1453 32.5971 27.1391 32.5969 27.1328L32.8406 27.0391L32.8313 27.0484Z" fill="#FFFF00"/>
<path fill-rule="evenodd" clip-rule="evenodd" d="M32.8611 27.0206C32.8683 27.0317 32.8668 27.0464 32.8574 27.0558L32.8507 27.0625C32.7896 27.1713 32.7276 27.2796 32.6649 27.3876C32.6617 27.3932 32.6565 27.3975 32.6504 27.3998C32.1419 27.5882 30.7711 27.9823 28.7727 28.2638L28.7725 28.2638C28.5693 28.2914 28.378 28.319 28.19 28.3461C27.1639 28.494 26.2377 28.6275 24.0255 28.6672L24.0247 28.6672C21.0321 28.6371 18.0579 28.1951 15.1858 27.3536C15.1779 27.3512 15.1714 27.3455 15.168 27.3379L15.0649 27.1035C15.0605 27.0936 15.0622 27.082 15.0694 27.0738C15.0765 27.0656 15.0877 27.0622 15.0981 27.0651C18.0112 27.8702 21.0129 28.3107 24.0344 28.3766C26.1631 28.3348 27.2051 28.1889 28.3291 28.0316C28.4661 28.0124 28.6044 27.9931 28.746 27.9737C30.8654 27.649 32.0253 27.2931 32.4755 27.155C32.5096 27.1446 32.5396 27.1353 32.5657 27.1275C32.5666 27.1168 32.5735 27.1074 32.5837 27.1034L32.8274 27.0097C32.8398 27.0049 32.8538 27.0095 32.8611 27.0206ZM32.7694 27.0923L32.6219 27.149C32.6219 27.1491 32.6219 27.1493 32.6219 27.1494C32.6214 27.1615 32.6134 27.172 32.6018 27.1754C32.5714 27.1844 32.5347 27.1957 32.4914 27.209C32.0404 27.3473 30.8776 27.704 28.7543 28.0294L28.7538 28.0294C28.6122 28.0488 28.4739 28.0681 28.3368 28.0873C27.2121 28.2448 26.1674 28.391 24.0349 28.4328L24.0338 28.4328L24.0338 28.4328C21.0271 28.3673 18.0401 27.9314 15.1402 27.135L15.2142 27.3033C18.0773 28.1409 21.0419 28.581 24.0249 28.6109C26.2333 28.5713 27.1568 28.4382 28.182 28.2904C28.37 28.2633 28.5615 28.2357 28.7649 28.2081C30.7478 27.9288 32.1099 27.5386 32.6214 27.3506C32.6712 27.2647 32.7205 27.1786 32.7694 27.0923ZM15.5061 27.8202C15.5128 27.8069 15.5286 27.8011 15.5423 27.807L15.7381 27.8909C18.4031 28.7726 21.1899 29.2307 23.997 29.2484C25.7574 29.2484 27.5086 29.0518 28.9229 28.7989C31.0973 28.3584 31.9746 28.031 32.2425 27.8833C32.2426 27.8833 32.2426 27.8832 32.2427 27.8832L32.3079 27.8459C32.3122 27.8435 32.317 27.8422 32.3219 27.8422H32.3312C32.3417 27.8422 32.3512 27.8479 32.3561 27.8571C32.361 27.8663 32.3604 27.8774 32.3546 27.886C32.269 28.0128 32.1813 28.1381 32.0915 28.2618C32.0882 28.2664 32.0836 28.2699 32.0783 28.2718C31.1392 28.6098 29.638 28.9664 29.0172 29.0606C27.3553 29.3702 25.6686 29.5272 23.9782 29.5297L23.9777 29.5297C20.1875 29.4734 17.0805 28.7323 15.6231 28.0929C15.6179 28.0907 15.6135 28.0868 15.6105 28.082L15.4886 27.8851C15.4835 27.8768 15.483 27.8665 15.4873 27.8577L15.5061 27.8202ZM15.5449 27.8693L15.6537 28.0449C17.1059 28.6798 20.2005 29.4173 23.9783 29.4734C25.6654 29.471 27.3488 29.3142 29.0073 29.0052L29.0083 29.005L29.0083 29.005C29.6235 28.9118 31.1148 28.5578 32.0511 28.2218C32.1173 28.1304 32.1824 28.0381 32.2463 27.9451C31.9455 28.1024 31.0504 28.4253 28.9337 28.8541L28.9331 28.8543C27.5161 29.1076 25.7613 29.3047 23.9969 29.3047L23.9967 29.3047C21.1834 29.2869 18.3902 28.8278 15.7193 27.9439C15.7185 27.9436 15.7178 27.9434 15.717 27.943L15.5449 27.8693Z" fill="black"/>
<path fill-rule="evenodd" clip-rule="evenodd" d="M32.8844 22.275C32.8938 25.0875 31.45 27.6187 30.2969 28.725C28.5938 30.386 26.3194 31.332 23.9406 31.3687C21.1 31.4156 18.4281 29.5687 17.7063 28.7531C16.0914 27.0406 15.1722 24.7879 15.1281 22.4344C15.2969 19.3594 16.5063 17.2219 18.25 15.75C19.9439 14.3555 22.0748 13.6021 24.2688 13.6219C25.5495 13.684 26.8031 14.0129 27.9494 14.5876C29.0956 15.1624 30.1091 15.9702 30.925 16.9594C32.0969 18.3844 32.6125 19.9312 32.8844 22.275V22.275ZM23.9594 12.6563C26.582 12.6562 29.0984 13.6929 30.9599 15.5403C32.8214 17.3878 33.8771 19.8962 33.8969 22.5187C33.8969 23.8201 33.6406 25.1086 33.1426 26.3109C32.6446 27.5132 31.9147 28.6056 30.9945 29.5257C30.0743 30.4459 28.9819 31.1758 27.7797 31.6738C26.5774 32.1718 25.2888 32.4281 23.9875 32.4281C22.6862 32.4281 21.3976 32.1718 20.1954 31.6738C18.9931 31.1758 17.9007 30.4459 16.9805 29.5257C16.0604 28.6056 15.3304 27.5132 14.8324 26.3109C14.3345 25.1086 14.0781 23.8201 14.0781 22.5187C14.0688 17.0812 18.5125 12.6563 23.9594 12.6563" fill="#FFFF00"/>
<path fill-rule="evenodd" clip-rule="evenodd" d="M30.9369 15.5611C29.0807 13.7188 26.5715 12.6851 23.9563 12.6852C18.5248 12.6852 14.0938 17.0976 14.1031 22.5195L14.1031 22.5195C14.1031 23.8172 14.3587 25.1021 14.8553 26.3009C15.3519 27.4998 16.0797 28.5891 16.9973 29.5066C17.9148 30.4242 19.0042 31.152 20.203 31.6486C21.4018 32.1452 22.6868 32.4008 23.9844 32.4008C25.282 32.4008 26.5669 32.1452 27.7658 31.6486C28.9646 31.152 30.0539 30.4242 30.9715 29.5066C31.889 28.5891 32.6169 27.4998 33.1135 26.3009C33.6101 25.1021 33.8656 23.8172 33.8656 22.5196C33.8459 19.9045 32.7931 17.4032 30.9369 15.5611ZM23.9563 12.6289C26.5863 12.6288 29.1098 13.6684 30.9766 15.5211C32.8433 17.3738 33.902 19.8893 33.9219 22.5193L33.9219 22.5195C33.9219 23.8245 33.6648 25.1168 33.1654 26.3224C32.666 27.5281 31.934 28.6236 31.0113 29.5464C30.0885 30.4692 28.993 31.2012 27.7873 31.7006C26.5816 32.2 25.2894 32.457 23.9844 32.457C22.6794 32.457 21.3871 32.2 20.1815 31.7006C18.9758 31.2012 17.8803 30.4692 16.9575 29.5464C16.0347 28.6236 15.3027 27.5281 14.8033 26.3224C14.3039 25.1168 14.0469 23.8246 14.0469 22.5196C14.0375 17.0664 18.494 12.6289 23.9563 12.6289ZM24.2648 13.6508C22.0777 13.6312 19.9536 14.3823 18.2649 15.7724C16.5275 17.2389 15.3217 19.3688 15.1532 22.4357C15.1974 24.7818 16.1137 27.0274 17.7236 28.7346L17.7242 28.7353L17.7242 28.7353C18.0821 29.1396 18.9273 29.8033 20.0384 30.36C21.1492 30.9166 22.5227 31.3647 23.9371 31.3414H23.9371C26.3086 31.3048 28.5762 30.3617 30.2741 28.7056L30.2743 28.7055C31.4223 27.6042 32.8619 25.0808 32.8531 22.2775C32.5816 19.9376 32.0671 18.397 30.9002 16.9781C30.0868 15.9919 29.0764 15.1865 27.9336 14.6136C26.7911 14.0407 25.5415 13.7127 24.2648 13.6508ZM32.8813 22.2758L32.9092 22.2725C32.637 19.9258 32.1202 18.373 30.9436 16.9423L30.9436 16.9423C30.1252 15.9501 29.1086 15.1398 27.9589 14.5633C26.8091 13.9868 25.5517 13.6568 24.267 13.5946L24.267 13.5945L24.2659 13.5945C22.0653 13.5747 19.928 14.3304 18.229 15.7291L18.2287 15.7293C16.4789 17.2063 15.2661 19.3511 15.0969 22.4336C15.0969 22.4343 15.0969 22.435 15.0969 22.4357C15.1411 24.796 16.0629 27.0553 17.6824 28.7729C18.0465 29.1842 18.8981 29.8516 20.0132 30.4103C21.129 30.9694 22.5117 31.4212 23.938 31.3977C26.3238 31.3608 28.605 30.412 30.3132 28.7461C30.3132 28.7461 30.3132 28.7461 30.3132 28.7461L30.2938 28.7258L30.3134 28.7459C30.3134 28.746 30.3133 28.746 30.3132 28.7461" fill="black"/>
<path fill-rule="evenodd" clip-rule="evenodd" d="M23.9844 12.6094C29.4406 12.6094 33.8844 17.0531 33.8844 22.5094C33.8844 27.9656 29.4406 32.4094 23.9938 32.4094C18.5469 32.4094 14.0938 27.9656 14.0938 22.5094C14.0938 17.0531 18.5375 12.6094 23.9938 12.6094H23.9844ZM14.3 22.5C14.3 27.825 18.6781 32.1844 23.9844 32.1844C29.2906 32.1844 33.6688 27.825 33.6688 22.5C33.6688 17.175 29.2906 12.8156 23.9844 12.8156C18.6781 12.8156 14.3 17.175 14.3 22.5Z" fill="#FFFF00"/>
<path fill-rule="evenodd" clip-rule="evenodd" d="M23.9938 12.6383C18.5552 12.6408 14.1266 17.071 14.1266 22.5102C14.1266 27.9509 18.5671 32.382 23.9984 32.382C29.4298 32.382 33.8609 27.9509 33.8609 22.5102C33.8609 17.071 29.4323 12.6408 23.9938 12.6383ZM23.999 12.582C29.4662 12.5874 33.9172 17.0417 33.9172 22.5102C33.9172 27.9819 29.4609 32.4383 23.9984 32.4383C18.536 32.4383 14.0703 27.982 14.0703 22.5102C14.0703 17.0417 18.5213 12.5874 23.9885 12.582C23.9887 12.582 23.9889 12.582 23.9891 12.582H23.9984C23.9986 12.582 23.9988 12.582 23.999 12.582ZM14.2766 22.5008C14.2766 17.1602 18.6673 12.7883 23.9891 12.7883C29.3108 12.7883 33.7016 17.1602 33.7016 22.5008C33.7016 27.8413 29.3108 32.2133 23.9891 32.2133C18.6673 32.2133 14.2766 27.8413 14.2766 22.5008ZM23.9891 12.8445C18.6983 12.8445 14.3328 17.1913 14.3328 22.5008C14.3328 27.8102 18.6983 32.157 23.9891 32.157C29.2798 32.157 33.6453 27.8102 33.6453 22.5008C33.6453 17.1913 29.2798 12.8445 23.9891 12.8445Z" fill="black"/>
<path fill-rule="evenodd" clip-rule="evenodd" d="M23.9953 13.4336C26.3974 13.441 28.699 14.3985 30.3975 16.097C32.096 17.7956 33.0535 20.0971 33.0609 22.4992C33.0535 24.9022 32.0963 27.2047 30.3981 28.9047C28.6998 30.6047 26.3982 31.5643 23.9953 31.5742C19.0266 31.5742 14.9297 27.4867 14.9297 22.4992C14.9396 20.0979 15.8979 17.7978 17.5959 16.0998C19.2939 14.4018 21.594 13.4435 23.9953 13.4336V13.4336ZM15.1453 22.4992C15.1453 27.3742 19.1391 31.3492 23.9953 31.3492C28.8516 31.3492 32.8453 27.3648 32.8453 22.4992C32.8453 17.6242 28.8516 13.6492 23.9953 13.6492C21.6512 13.6591 19.4059 14.5947 17.7483 16.2522C16.0908 17.9098 15.1552 20.1551 15.1453 22.4992V22.4992Z" fill="#FFFF00"/>
<path fill-rule="evenodd" clip-rule="evenodd" d="M30.3823 16.1177C28.689 14.4245 26.3946 13.4699 24 13.4625C21.6062 13.4724 19.3132 14.4277 17.6204 16.1204C15.9277 17.8132 14.9724 20.1062 14.9625 22.5001C14.9625 27.472 19.0467 31.5468 23.9999 31.5469C26.3954 31.537 28.6898 30.5804 30.3829 28.8856C32.0758 27.1909 33.0301 24.8955 33.0375 22.5C33.0301 20.1054 32.0755 17.811 30.3823 16.1177ZM24 13.4344L24.0001 13.4062C26.4096 13.4137 28.7183 14.3742 30.4221 16.0779C32.1258 17.7817 33.0863 20.0904 33.0938 22.4999V22.5001C33.0863 24.9105 32.1262 27.2201 30.4226 28.9254C28.7191 30.6307 26.4105 31.5932 24.0001 31.6031H24C19.0157 31.6031 14.9062 27.503 14.9062 22.5L14.9063 22.4999C14.9162 20.0912 15.8774 17.7839 17.5807 16.0807C19.2839 14.3774 21.5912 13.4162 23.9999 13.4063L24 13.4344ZM24 13.6219C28.8717 13.6219 32.8781 17.6094 32.8781 22.5C32.8781 27.3812 28.8718 31.3781 24 31.3781C19.1283 31.3781 15.1219 27.3906 15.1219 22.5H15.15L15.1219 22.4999C15.1318 20.1483 16.0703 17.8959 17.7331 16.2331C19.3959 14.5703 21.6483 13.6318 23.9999 13.6219L24 13.6219ZM15.1781 22.5001C15.1782 27.3595 19.1593 31.3219 24 31.3219C28.8407 31.3219 32.8219 27.3501 32.8219 22.5C32.8219 17.6406 28.8408 13.6782 24.0001 13.6781C21.6634 13.688 19.4252 14.6206 17.7729 16.2729C16.1206 17.9252 15.188 20.1634 15.1781 22.5001Z" fill="black"/>
<path fill-rule="evenodd" clip-rule="evenodd" d="M24.4 12.5625H23.5469V32.4656H24.3906L24.4 12.5625Z" fill="#FFFF00"/>
<path fill-rule="evenodd" clip-rule="evenodd" d="M23.5156 12.5633C23.5156 12.5477 23.5282 12.5352 23.5438 12.5352H24.3969C24.4043 12.5352 24.4115 12.5381 24.4168 12.5434C24.422 12.5487 24.425 12.5558 24.425 12.5633L24.4156 32.4664C24.4156 32.4819 24.403 32.4945 24.3875 32.4945H23.5438C23.5282 32.4945 23.5156 32.4819 23.5156 32.4664V12.5633ZM23.5719 12.5914V32.4383H24.3594L24.3687 12.5914H23.5719Z" fill="black"/>
<path fill-rule="evenodd" clip-rule="evenodd" d="M24.3047 12.4492H24.5203V32.5773H24.3141V12.4492H24.3047ZM23.4609 12.4492H23.6859V32.5773H23.4703V12.4492H23.4609Z" fill="#FFFF00"/>
<path fill-rule="evenodd" clip-rule="evenodd" d="M23.4375 12.45C23.4375 12.4345 23.4501 12.4219 23.4656 12.4219H23.6906C23.7062 12.4219 23.7187 12.4345 23.7187 12.45V32.5781C23.7187 32.5937 23.7062 32.6063 23.6906 32.6063H23.475C23.4595 32.6063 23.4469 32.5937 23.4469 32.5781V12.471C23.4411 12.4658 23.4375 12.4583 23.4375 12.45ZM23.5031 12.4781V32.55H23.6625V12.4781H23.5031ZM24.2812 12.45C24.2812 12.4345 24.2938 12.4219 24.3094 12.4219H24.525C24.5405 12.4219 24.5531 12.4345 24.5531 12.45V32.5781C24.5531 32.5937 24.5405 32.6063 24.525 32.6063H24.3187C24.3032 32.6063 24.2906 32.5937 24.2906 32.5781V12.471C24.2849 12.4658 24.2812 12.4583 24.2812 12.45ZM24.3469 12.4781V32.55H24.4969V12.4781H24.3469Z" fill="black"/>
<path fill-rule="evenodd" clip-rule="evenodd" d="M33.8938 22.8937V22.1625L33.2938 21.6L29.8906 20.7L24.9969 20.2031L19.0906 20.5031L14.8906 21.4969L14.0469 22.125V22.8656L16.1938 21.9L21.2938 21.1031H26.1969L29.7969 21.4969L32.2906 22.0969L33.8938 22.8937Z" fill="#FFFF00"/>
<path fill-rule="evenodd" clip-rule="evenodd" d="M25.0001 20.1758C25.0016 20.1757 25.003 20.1758 25.0044 20.1759L29.8982 20.6728C29.8996 20.6729 29.9011 20.6732 29.9025 20.6736L33.3056 21.5736C33.3101 21.5748 33.3143 21.5771 33.3177 21.5803L33.9177 22.1428C33.9233 22.1481 33.9266 22.1555 33.9266 22.1633V22.8945C33.9266 22.9043 33.9215 22.9133 33.9133 22.9184C33.905 22.9236 33.8946 22.924 33.8859 22.9197L32.2856 22.1243L29.7967 21.5254L26.2 21.132H21.3006L16.2065 21.928L14.0631 22.8921C14.0544 22.896 14.0443 22.8952 14.0363 22.89C14.0283 22.8848 14.0234 22.8759 14.0234 22.8664V22.1258C14.0234 22.1169 14.0276 22.1085 14.0348 22.1032L14.8785 21.4751C14.8816 21.4728 14.8851 21.4712 14.8888 21.4703L19.0888 20.4765C19.0905 20.4761 19.0922 20.4759 19.0939 20.4758L25.0001 20.1758ZM19.0993 20.5319L14.9074 21.5237L14.0797 22.1399V22.8229L16.1869 21.8751C16.1892 21.8741 16.1916 21.8734 16.1941 21.873L21.2941 21.0761C21.2955 21.0759 21.297 21.0758 21.2984 21.0758H26.2016C26.202 21.0758 26.2024 21.0758 26.2028 21.0758C26.2034 21.0758 26.204 21.0759 26.2046 21.0759L29.8046 21.4697C29.8058 21.4698 29.807 21.47 29.8081 21.4703L32.3019 22.0703C32.3039 22.0708 32.3059 22.0715 32.3078 22.0725L33.8703 22.8491V22.1755L33.2844 21.6262L29.8903 20.7285L25.0009 20.2321L19.0993 20.5319Z" fill="black"/>
<path fill-rule="evenodd" clip-rule="evenodd" d="M24 20.9817C26.3344 20.9817 28.5937 21.1974 30.4031 21.5442C32.2594 21.9192 33.5625 22.388 34.0125 22.9036V23.1661C33.4687 22.5099 31.7156 22.0411 30.3562 21.7599C28.575 21.4224 26.325 21.1974 23.9906 21.1974C21.5437 21.1974 19.2563 21.4411 17.4938 21.7786C16.0875 22.0599 14.2031 22.6224 13.9688 23.1661V22.8942C14.0906 22.5192 15.4969 21.9567 17.4656 21.5536C19.2375 21.2067 21.525 20.9817 23.9906 20.9817H24ZM24 20.1286C26.1469 20.1243 28.2899 20.3126 30.4031 20.6911C32.2594 21.0661 33.5625 21.5349 34.0125 22.0599V22.313C33.4687 21.6661 31.7156 21.188 30.3562 20.9161C28.575 20.5692 26.325 20.3536 23.9906 20.3536C21.8148 20.3467 19.6431 20.5413 17.5031 20.9349C16.1437 21.188 14.1844 21.7692 13.9688 22.313V22.0505C14.1 21.6755 15.525 21.0849 17.4656 20.7099C19.2469 20.363 21.525 20.1286 24 20.1286V20.1286ZM23.9437 15.7974C27.6281 15.7786 30.8438 16.313 32.3156 17.063L32.85 18.0005C31.575 17.3067 28.1062 16.5942 23.9531 16.688C20.5688 16.7161 16.95 17.063 15.1406 18.038L15.7781 16.9692C17.2688 16.1911 20.775 15.7974 23.9437 15.7974" fill="#FFFF00"/>
<path fill-rule="evenodd" clip-rule="evenodd" d="M28.9519 16.1705C27.5051 15.9457 25.7816 15.8169 23.9408 15.8263C23.9407 15.8263 23.9407 15.8263 23.9406 15.8263M28.9519 16.1705C30.3944 16.3945 31.5598 16.7137 32.2922 17.085ZM32.2922 17.085L32.7748 17.9317C32.116 17.5974 30.9626 17.2644 29.4823 17.0219C27.9349 16.7685 26.0278 16.6137 23.9496 16.6606C22.2567 16.6747 20.5047 16.7685 18.9493 16.9808C17.4443 17.1862 16.1207 17.503 15.2128 17.9675L15.7951 16.9913C16.5366 16.6065 17.7783 16.3152 19.2323 16.1202C20.6898 15.9246 22.3572 15.8263 23.9405 15.8263M23.9406 15.77C22.3552 15.77 20.6852 15.8685 19.2248 16.0644C17.7654 16.2602 16.5119 16.5536 15.762 16.9451C15.7574 16.9475 15.7535 16.9511 15.7508 16.9556L15.1133 18.0244C15.1069 18.0352 15.1084 18.0491 15.1172 18.0582C15.1259 18.0673 15.1397 18.0695 15.1508 18.0635C16.0509 17.5785 17.4038 17.2485 18.9569 17.0365C20.5093 16.8247 22.2588 16.7309 23.9502 16.7169L23.9506 16.7169C26.0255 16.67 27.9292 16.8246 29.4732 17.0775C31.018 17.3304 32.2002 17.6814 32.8334 18.026C32.8445 18.032 32.8582 18.0299 32.867 18.0209C32.8758 18.012 32.8775 17.9983 32.8713 17.9873L32.3369 17.0498C32.3342 17.0451 32.3302 17.0412 32.3253 17.0387C31.5854 16.6617 30.41 16.34 28.9606 16.1149C27.5105 15.8896 25.784 15.7606 23.9406 15.77ZM30.3947 20.7195C28.2832 20.3413 26.142 20.1532 23.9969 20.1575L23.9969 20.1294V20.1575C21.5235 20.1575 19.2472 20.3917 17.4679 20.7382L17.4678 20.7382C16.4988 20.9255 15.6591 21.1665 15.0458 21.4071C14.7391 21.5275 14.4898 21.6475 14.3094 21.7602C14.2192 21.8165 14.1469 21.8707 14.0934 21.9217C14.0415 21.9712 14.0088 22.0163 13.9937 22.0562V22.2074C14.0233 22.1669 14.0609 22.127 14.1049 22.0878C14.1837 22.0177 14.285 21.9483 14.4037 21.8802C14.641 21.7441 14.9503 21.612 15.2945 21.4892C15.9829 21.2437 16.814 21.0348 17.4949 20.908L17.4949 20.908C19.6365 20.5141 21.81 20.3194 23.9876 20.3263C26.3235 20.3263 28.5753 20.542 30.3585 20.8893L30.3586 20.8893C31.039 21.0254 31.8185 21.2132 32.4963 21.4481C32.8352 21.5656 33.1493 21.6951 33.4131 21.836C33.647 21.961 33.8428 22.0958 33.9812 22.2404V22.0711C33.7591 21.8172 33.3292 21.5734 32.7222 21.3464C32.1101 21.1174 31.3219 20.9068 30.3947 20.7195ZM23.9968 20.1013C26.1454 20.097 28.29 20.2854 30.405 20.6642L30.4056 20.6643C31.3345 20.852 32.1259 21.0633 32.7419 21.2937C33.3567 21.5236 33.8008 21.7741 34.0307 22.0423C34.0351 22.0474 34.0375 22.0539 34.0375 22.0606V22.3138C34.0375 22.3256 34.0301 22.3361 34.019 22.3402C34.0079 22.3442 33.9954 22.3409 33.9878 22.3319C33.8552 22.1741 33.6473 22.0249 33.3866 21.8856C33.1263 21.7465 32.8151 21.6182 32.4779 21.5013C31.8034 21.2675 31.0267 21.0803 30.3477 20.9445C28.5684 20.598 26.3203 20.3825 23.9875 20.3825H23.9874C21.8133 20.3756 19.6433 20.5701 17.5051 20.9633C16.8265 21.0896 15.9984 21.2979 15.3134 21.5422C14.9708 21.6644 14.6649 21.7953 14.4317 21.929C14.3151 21.9959 14.2173 22.0631 14.1423 22.1298C14.0672 22.1967 14.0165 22.2618 13.9918 22.3241C13.9868 22.3367 13.9736 22.3439 13.9603 22.3414C13.9471 22.3389 13.9375 22.3273 13.9375 22.3138V22.0513C13.9375 22.0481 13.938 22.045 13.9391 22.042C13.9576 21.9891 13.9977 21.9353 14.0546 21.881C14.1117 21.8265 14.1874 21.7701 14.2796 21.7125C14.464 21.5972 14.7168 21.4758 15.0253 21.3548C15.6424 21.1126 16.4856 20.8708 17.4572 20.683C19.2403 20.3358 21.5202 20.1013 23.9968 20.1013ZM23.9875 21.0106C21.5235 21.0106 19.2379 21.2355 17.468 21.582C16.4848 21.7833 15.6427 22.0243 15.0317 22.2615C14.7261 22.3801 14.4791 22.4974 14.3014 22.6079C14.2126 22.6632 14.1417 22.7163 14.0897 22.7665C14.0391 22.8153 14.0077 22.8599 13.9937 22.8996V23.0638C14.0771 22.9511 14.2208 22.8413 14.4035 22.7359C14.6371 22.6011 14.9403 22.4704 15.2791 22.3482C15.957 22.1039 16.7811 21.8926 17.4851 21.7518L17.4853 21.7518C19.2496 21.4139 21.5389 21.17 23.9875 21.17C26.3235 21.17 28.5753 21.3952 30.3584 21.733L30.3588 21.7331C31.039 21.8738 31.8185 22.0616 32.4963 22.2966C32.8352 22.414 33.1493 22.5435 33.4131 22.6851C33.647 22.8106 33.8428 22.9463 33.9812 23.0928V22.915C33.7591 22.6656 33.3292 22.4242 32.7222 22.1983C32.1101 21.9705 31.3218 21.7599 30.3946 21.5726C28.5872 21.2261 26.3296 21.0106 23.9969 21.0106H23.9875ZM17.4571 21.5268C19.231 21.1795 21.5203 20.9544 23.9875 20.9544H23.9969C26.3328 20.9544 28.594 21.1701 30.4053 21.5174L30.4056 21.5174C31.3345 21.7051 32.1259 21.9164 32.7418 22.1456C33.3566 22.3744 33.8007 22.6225 34.0306 22.8859C34.035 22.891 34.0375 22.8976 34.0375 22.9044V23.1669C34.0375 23.1787 34.0301 23.1893 34.0189 23.1933C34.0078 23.1974 33.9953 23.194 33.9877 23.1848C33.8551 23.0248 33.6472 22.8745 33.3866 22.7346C33.1262 22.595 32.8151 22.4666 32.4779 22.3497C31.8035 22.1159 31.0268 21.9287 30.3477 21.7882C28.5683 21.4511 26.3201 21.2263 23.9875 21.2263C21.5424 21.2263 19.2567 21.4698 17.496 21.807C16.7938 21.9474 15.9727 22.158 15.2982 22.4012C14.9609 22.5228 14.6611 22.6522 14.4316 22.7846C14.2005 22.9179 14.0461 23.0512 13.9915 23.178C13.9862 23.1903 13.973 23.1971 13.9599 23.1944C13.9469 23.1917 13.9375 23.1802 13.9375 23.1669V22.895C13.9375 22.8921 13.938 22.8891 13.9389 22.8863C13.9561 22.8333 13.995 22.7797 14.0506 22.726C14.1065 22.6721 14.1808 22.6167 14.2717 22.5601C14.4535 22.4471 14.704 22.3283 15.0113 22.209C15.6261 21.9704 16.4714 21.7286 17.4569 21.5268L17.4571 21.5268Z" fill="black"/>
<path fill-rule="evenodd" clip-rule="evenodd" d="M23.9953 16.566C25.919 16.5336 27.8419 16.6685 29.7422 16.9692C31.2422 17.2504 32.6766 17.6629 32.8828 17.8879L33.0422 18.1692C32.5453 17.8504 31.2984 17.4848 29.7047 17.1848C28.1109 16.8848 26.0766 16.7817 23.9859 16.791C21.6141 16.7817 19.7672 16.9035 18.1922 17.1848C17.1065 17.337 16.0523 17.663 15.0703 18.1504L15.2297 17.8598C15.7922 17.5785 16.6641 17.2317 18.1453 16.9598C19.7859 16.6598 21.6516 16.5754 23.9953 16.566V16.566ZM23.9953 15.7223C26.0016 15.7035 27.9891 15.816 29.5359 16.0973C30.5381 16.2461 31.508 16.563 32.4047 17.0348L32.6391 17.4098C32.2453 16.9692 30.7641 16.5473 29.4422 16.3223C27.9047 16.0504 26.0016 15.9473 23.9953 15.9285C22.1277 15.9119 20.262 16.0499 18.4172 16.341C17.4526 16.4755 16.5157 16.7635 15.6422 17.1942L15.8484 16.8848C16.3922 16.6035 17.2734 16.341 18.3797 16.1254C20.2367 15.8304 22.1152 15.6924 23.9953 15.7129V15.7223ZM28.9078 26.6254C27.2829 26.3441 25.6348 26.2185 23.9859 26.2504C17.8453 26.3254 15.8672 27.516 15.6234 27.8723L15.1547 27.1223C16.7297 25.9973 20.0672 25.3598 24.0234 25.416C26.0766 25.4535 27.8484 25.5942 29.3297 25.8848L28.9078 26.6348" fill="#FFFF00"/>
<path fill-rule="evenodd" clip-rule="evenodd" d="M18.3893 16.1539C17.2884 16.3685 16.4131 16.6292 15.8725 16.9072L15.7277 17.1244C16.5771 16.7175 17.4845 16.4441 18.4177 16.314C20.264 16.0226 22.1312 15.8845 24.0003 15.9012L24.0003 15.9012C26.007 15.92 27.9119 16.0231 29.4517 16.2954C30.1136 16.408 30.8157 16.57 31.402 16.7592C31.6951 16.8538 31.9599 16.9553 32.1764 17.0611C32.3088 17.1259 32.4242 17.1927 32.5171 17.261L32.3896 17.0569C31.4976 16.5886 30.5331 16.2739 29.5365 16.1259L29.5356 16.1258L29.5356 16.1258C27.9911 15.8449 26.0056 15.7325 24.0003 15.7512C23.9928 15.7513 23.9855 15.7483 23.9802 15.7431C23.9797 15.7426 23.9793 15.7421 23.9788 15.7416C22.1074 15.7224 20.2377 15.8603 18.3893 16.1539ZM24.0208 15.6948C24.0157 15.6892 24.0084 15.6857 24.0003 15.6856C22.1186 15.6651 20.2385 15.8032 18.38 16.0984L18.38 16.0984L18.379 16.0986C17.272 16.3144 16.3876 16.5775 15.8402 16.8606C15.836 16.8628 15.8324 16.866 15.8297 16.87L15.6235 17.1794C15.6164 17.1899 15.6173 17.2039 15.6257 17.2135C15.6341 17.2231 15.6479 17.2258 15.6593 17.2202C16.5301 16.7908 17.4641 16.5037 18.4258 16.3697L18.4258 16.3697L18.4263 16.3696C20.2695 16.0787 22.1337 15.9408 23.9997 15.9575C26.0055 15.9762 27.9068 16.0793 29.442 16.3508L29.4422 16.3508C30.1021 16.4631 30.8015 16.6246 31.3847 16.8127C31.6763 16.9068 31.9384 17.0074 32.1517 17.1117C32.3656 17.2162 32.528 17.3233 32.6228 17.4293C32.6325 17.4402 32.649 17.4418 32.6606 17.4331C32.6723 17.4243 32.6753 17.4081 32.6676 17.3957L32.4332 17.0207C32.4306 17.0165 32.4269 17.013 32.4225 17.0107C31.5231 16.5375 30.5504 16.2196 29.5452 16.0703C28.0014 15.7897 26.0206 15.677 24.0208 15.6948ZM29.7421 16.9977C27.8435 16.6973 25.9224 16.5625 24.0005 16.595L24 16.5668L24.0001 16.595C21.6567 16.6043 19.7931 16.6887 18.1551 16.9882C16.6832 17.2584 15.8151 17.6025 15.2548 17.8818L15.1424 18.0868C16.1042 17.6198 17.1333 17.3063 18.1924 17.1578C19.7696 16.8762 21.6181 16.7543 23.9906 16.7637C26.0818 16.7543 28.1182 16.8575 29.7146 17.1579C30.5121 17.3081 31.2232 17.4747 31.7974 17.6438C32.3063 17.7936 32.7096 17.946 32.97 18.0914L32.8647 17.9055C32.8417 17.8814 32.8009 17.8529 32.7415 17.8209C32.6809 17.7882 32.6032 17.753 32.5103 17.7159C32.3245 17.6417 32.08 17.5605 31.7945 17.4774C31.2237 17.3113 30.4912 17.1381 29.7421 16.9977ZM23.9997 16.5387C21.6557 16.5481 19.7881 16.6325 18.1449 16.9329L18.1449 16.9329C16.6612 17.2052 15.7868 17.5529 15.2218 17.8354C15.2167 17.838 15.2125 17.842 15.2097 17.8471L15.0503 18.1377C15.0444 18.1485 15.0462 18.1618 15.0547 18.1707C15.0632 18.1795 15.0765 18.1819 15.0875 18.1764C16.0668 17.6903 17.118 17.3652 18.2008 17.2134L18.2008 17.2135L18.2018 17.2133C19.7745 16.9324 21.6195 16.8106 23.9905 16.82H23.9908C26.0807 16.8106 28.113 16.9137 29.7042 17.2132C30.5004 17.3631 31.2096 17.5293 31.7815 17.6977C32.3542 17.8664 32.7868 18.0366 33.0317 18.1936C33.0426 18.2006 33.0568 18.1993 33.0662 18.1904C33.0756 18.1815 33.0777 18.1673 33.0713 18.1561L32.912 17.8748C32.9109 17.873 32.9097 17.8713 32.9082 17.8697C32.8792 17.838 32.8308 17.8051 32.7682 17.7714C32.705 17.7374 32.6252 17.7012 32.5311 17.6637C32.3431 17.5885 32.0966 17.5068 31.8102 17.4234C31.2373 17.2567 30.5028 17.0831 29.7521 16.9423L29.7521 16.9423L29.7513 16.9422C27.8494 16.6412 25.925 16.5062 23.9997 16.5387ZM15.1973 27.1307L15.6306 27.8239C15.7103 27.7301 15.8796 27.6002 16.1612 27.4549C16.479 27.2909 16.9429 27.1057 17.5907 26.9295C18.8861 26.5772 20.9183 26.2606 23.9902 26.2231C23.9903 26.2231 23.9903 26.2231 23.9903 26.2231L23.9906 26.2512L23.9901 26.2231C23.9901 26.2231 23.9902 26.2231 23.9902 26.2231C25.6358 26.1913 27.2806 26.3161 28.9025 26.5959L28.888 26.6218C28.8827 26.6311 28.8834 26.6422 28.8887 26.6506C27.2717 26.3719 25.6318 26.2476 23.9912 26.2793L23.991 26.2793C20.9223 26.3168 18.8951 26.633 17.6054 26.9838C16.9606 27.1592 16.5005 27.3431 16.187 27.5049C15.8722 27.6674 15.7081 27.8059 15.6513 27.889C15.646 27.8968 15.637 27.9014 15.6275 27.9012C15.6181 27.901 15.6093 27.896 15.6043 27.888L15.1355 27.138C15.1276 27.1254 15.1309 27.1088 15.143 27.1002C15.9353 26.5343 17.1681 26.0926 18.6955 25.7994C20.2235 25.506 22.0489 25.3606 24.0285 25.3887L24.0286 25.3887C26.0826 25.4262 27.8563 25.5669 29.3398 25.858C29.3486 25.8597 29.3561 25.8656 29.3599 25.8738C29.3637 25.882 29.3633 25.8915 29.3589 25.8994L28.937 26.6494C28.9294 26.6629 28.9122 26.6677 28.8987 26.6601C28.8945 26.6577 28.8912 26.6544 28.8887 26.6506M29.2908 25.9057L28.9025 26.5959ZM29.2908 25.9057C29.3035 25.9082 29.3163 25.9107 29.329 25.9132L29.3344 25.8856L29.3099 25.8718L29.2908 25.9057ZM29.2908 25.9057C27.8196 25.6206 26.0624 25.4821 24.0277 25.445L24.0281 25.4168L24.0276 25.445C24.0276 25.445 24.0277 25.445 24.0277 25.445C22.0511 25.4168 20.2296 25.5621 18.7061 25.8546C17.1958 26.1446 15.9808 26.5789 15.1973 27.1307" fill="black"/>
<path fill-rule="evenodd" clip-rule="evenodd" d="M23.9563 26.1477C25.6625 26.1758 27.3313 26.2414 28.9531 26.5414L28.8406 26.7477C27.3406 26.4664 25.7281 26.3727 23.9656 26.3727C21.6875 26.3539 19.4 26.5695 17.4031 27.1414C16.775 27.3195 15.7344 27.7227 15.6219 28.0602L15.5094 27.8727C15.5469 27.6664 16.1656 27.2539 17.3469 26.9352C19.6344 26.2789 21.7719 26.157 23.9563 26.1477ZM24.0312 25.2852C25.8322 25.2833 27.6297 25.4402 29.4031 25.7539L29.2812 25.9695C27.5496 25.6519 25.7918 25.4981 24.0312 25.5102C21.7625 25.5102 19.3531 25.6789 17.1594 26.3164C16.4563 26.5227 15.2281 26.9727 15.1906 27.3195L15.0781 27.1133C15.0969 26.7945 16.1563 26.3727 17.1125 26.1008C19.3156 25.4539 21.7344 25.2945 24.0312 25.2852V25.2852Z" fill="#FFFF00"/>
<path fill-rule="evenodd" clip-rule="evenodd" d="M29.3638 25.7755C27.6047 25.4667 25.822 25.3123 24.036 25.3141C21.74 25.3235 19.3244 25.4828 17.1251 26.1286L17.1249 26.1286C16.6475 26.2643 16.1452 26.4373 15.7603 26.6158C15.5677 26.7051 15.4057 26.7952 15.2911 26.882C15.2338 26.9255 15.1893 26.9674 15.1587 27.0073C15.1305 27.0442 15.1153 27.0778 15.1116 27.1081L15.1877 27.2477C15.2005 27.2207 15.2184 27.1941 15.2403 27.168C15.2809 27.1197 15.3367 27.0713 15.4035 27.0234C15.5371 26.9277 15.718 26.8316 15.9184 26.7404C16.3197 26.5581 16.8038 26.3936 17.1561 26.2902L17.1562 26.2902C19.3536 25.6516 21.766 25.4828 24.0358 25.4828C25.7914 25.4708 27.5443 25.6235 29.2713 25.9391L29.3638 25.7755ZM24.0359 25.286L24.0359 25.2578C25.8385 25.256 27.6377 25.413 29.4127 25.727C29.4217 25.7286 29.4294 25.7345 29.4333 25.7427C29.4371 25.751 29.4368 25.7606 29.4323 25.7685L29.3104 25.9842C29.3045 25.9946 29.2927 26.0002 29.2809 25.998C27.5509 25.6807 25.7949 25.527 24.0361 25.5391L24.0359 25.5391C21.7683 25.5391 19.362 25.7078 17.1719 26.3442C16.8211 26.4471 16.3397 26.6107 15.9417 26.7916C15.7426 26.8821 15.5655 26.9765 15.4363 27.0691C15.3716 27.1154 15.3199 27.1607 15.2834 27.2042C15.2467 27.2478 15.2271 27.2877 15.2233 27.3233C15.222 27.3356 15.2128 27.3455 15.2008 27.3479C15.1887 27.3503 15.1765 27.3446 15.1706 27.3338L15.0581 27.1275C15.0556 27.1229 15.0544 27.1177 15.0547 27.1124C15.0575 27.065 15.0795 27.0183 15.1141 26.9731C15.1488 26.9278 15.1975 26.8824 15.2571 26.8372C15.3763 26.7468 15.5425 26.6547 15.7366 26.5647C16.1251 26.3846 16.6305 26.2107 17.1094 26.0746C19.3163 25.4266 21.7381 25.2672 24.0358 25.2578L24.0359 25.286ZM23.9614 26.1203V26.1203C25.6678 26.1485 27.3386 26.2141 28.9629 26.5145C28.9718 26.5162 28.9793 26.522 28.9832 26.5301C28.9871 26.5383 28.9868 26.5478 28.9825 26.5557L28.87 26.7619C28.8642 26.7726 28.8521 26.7783 28.8401 26.7761C27.3425 26.4953 25.7319 26.4016 23.9703 26.4016L23.9701 26.4016C21.6936 26.3828 19.409 26.5983 17.4156 27.1692L17.4155 27.1693C17.1025 27.258 16.6868 27.4028 16.3358 27.5673C16.1602 27.6495 16.0016 27.7363 15.8804 27.8229C15.7578 27.9105 15.6783 27.9945 15.6532 28.0698C15.6498 28.0803 15.6405 28.0877 15.6296 28.0889C15.6187 28.0901 15.6081 28.0848 15.6024 28.0754L15.4899 27.8879C15.4864 27.8821 15.4852 27.8751 15.4864 27.8684C15.4976 27.807 15.5496 27.7371 15.6322 27.6638C15.716 27.5893 15.8357 27.5072 15.9904 27.4222C16.2998 27.2522 16.7519 27.0686 17.344 26.9089C19.6351 26.2516 21.7756 26.1297 23.9608 26.1203L23.9614 26.1203ZM23.9608 26.1766C21.7774 26.186 19.643 26.3078 17.3593 26.963L17.3589 26.9631L17.3589 26.9631C16.7699 27.122 16.3221 27.3041 16.0175 27.4715C15.8651 27.5553 15.7492 27.635 15.6696 27.7058C15.5948 27.7723 15.5555 27.8277 15.544 27.8687L15.6231 28.0006C15.6662 27.9246 15.7466 27.8494 15.8477 27.7772C15.9728 27.6878 16.1348 27.5993 16.3119 27.5163C16.6663 27.3503 17.0849 27.2045 17.4001 27.1152C19.4003 26.5423 21.6907 26.3266 23.9704 26.3453C25.7259 26.3453 27.3338 26.4383 28.8304 26.7171L28.9145 26.5628C27.3072 26.2693 25.6533 26.2045 23.9608 26.1766Z" fill="black"/>
<path fill-rule="evenodd" clip-rule="evenodd" d="M32.7516 27.2336L32.0203 28.3867L29.8922 26.5023L24.3984 22.7992L18.1922 19.3961L14.9766 18.2992L15.6609 17.0242L15.8953 16.9023L17.8922 17.3992L24.4922 20.8023L28.2984 23.2023L31.4953 25.4992L32.7984 26.9992L32.7516 27.2336Z" fill="#FFFF00"/>
<path fill-rule="evenodd" clip-rule="evenodd" d="M15.887 16.8782C15.8931 16.875 15.9001 16.8742 15.9068 16.8758L17.9037 17.3727C17.9058 17.3732 17.9078 17.374 17.9098 17.375L24.5098 20.7781C24.5105 20.7785 24.5112 20.7789 24.5119 20.7793L28.3181 23.1793C28.3186 23.1796 28.3191 23.18 28.3195 23.1803L31.5164 25.4772C31.5182 25.4784 31.5198 25.4799 31.5212 25.4816L32.8244 26.9816C32.8301 26.9881 32.8324 26.997 32.8307 27.0055L32.7838 27.2399C32.7832 27.2433 32.7819 27.2465 32.78 27.2494L32.0488 28.4026C32.0443 28.4095 32.0371 28.4142 32.0289 28.4153C32.0208 28.4165 32.0125 28.414 32.0064 28.4086L29.8796 26.5254L24.3885 22.824L18.1855 19.4227L14.9722 18.3266C14.9644 18.324 14.9581 18.318 14.9551 18.3103C14.9521 18.3026 14.9526 18.294 14.9565 18.2867L15.6408 17.0117C15.6435 17.0067 15.6476 17.0027 15.6526 17L15.887 16.8782ZM15.9035 16.933L15.6863 17.0459L15.0217 18.2841L18.206 19.3703C18.2075 19.3708 18.209 19.3714 18.2104 19.3722L24.4166 22.7753C24.4174 22.7758 24.4181 22.7762 24.4188 22.7767L29.9126 26.4798C29.9136 26.4805 29.9146 26.4813 29.9155 26.4821L32.0189 28.3446L32.7297 27.2237L32.7728 27.008L31.4809 25.5209L28.2874 23.2265L24.4829 20.8276L17.8869 17.4265L15.9035 16.933Z" fill="black"/>
<path fill-rule="evenodd" clip-rule="evenodd" d="M14.8641 18.3263C15.4266 17.9513 19.5703 19.7888 23.9203 22.4138C28.2422 25.0388 32.3859 28.0013 32.0109 28.5544L31.8891 28.7513L31.8328 28.7982C31.8422 28.7888 31.9078 28.7044 31.8328 28.5076C31.6453 27.8982 28.7016 25.5544 23.8359 22.6107C19.0828 19.7888 15.1266 18.0826 14.7422 18.5701L14.8641 18.3263V18.3263ZM32.9016 27.2232C33.2578 26.5107 29.4141 23.6138 24.6422 20.7919C19.7672 18.0263 16.2422 16.3951 15.5953 16.8826L15.4641 17.1544C15.4641 17.1638 15.4641 17.1357 15.5016 17.1076C15.6141 17.0138 15.8109 17.0138 15.8953 17.0138C17.0016 17.0326 20.1609 18.4857 24.5953 21.0263C26.5453 22.1513 32.8078 26.1826 32.7797 27.3076C32.7797 27.4013 32.7891 27.4201 32.7516 27.4763L32.9109 27.2326L32.9016 27.2232Z" fill="#FFFF00"/>
<path fill-rule="evenodd" clip-rule="evenodd" d="M18.5492 17.5924C20.122 18.2855 22.223 19.3853 24.6608 20.7683L24.6612 20.7685C27.0478 22.1798 29.2027 23.6102 30.7168 24.7771C31.4737 25.3604 32.0713 25.8786 32.4577 26.2962C32.6508 26.5049 32.7923 26.6896 32.8743 26.8457C32.9508 26.9914 32.9791 27.119 32.9395 27.2185C32.9452 27.2276 32.9453 27.2394 32.9392 27.2487L32.7833 27.487C32.7822 27.4889 32.7809 27.4908 32.7797 27.4927C32.7711 27.5056 32.7537 27.5091 32.7408 27.5006C32.7278 27.492 32.7242 27.4747 32.7327 27.4617L32.7328 27.4615C32.734 27.4598 32.7351 27.4582 32.7361 27.4566C32.7504 27.4342 32.7547 27.4205 32.7564 27.404C32.7574 27.3941 32.7574 27.3827 32.7571 27.3669C32.7569 27.3514 32.7563 27.3321 32.7563 27.3083L32.7563 27.3076C32.7579 27.2436 32.737 27.1666 32.6933 27.0771C32.6496 26.9879 32.5841 26.8881 32.4986 26.7789C32.3277 26.5607 32.0791 26.3078 31.7728 26.0314C31.1604 25.4787 30.3203 24.8349 29.4176 24.1906C27.6125 22.9021 25.5602 21.6135 24.586 21.0515C22.3692 19.7814 20.4716 18.7834 18.9902 18.1007C18.2495 17.7593 17.6132 17.4969 17.0934 17.3188C16.573 17.1405 16.1717 17.0474 15.8998 17.0427C15.8575 17.0427 15.7893 17.0428 15.7181 17.0541C15.6462 17.0655 15.5748 17.0879 15.5243 17.13C15.5239 17.1303 15.5235 17.1306 15.5231 17.1308C15.5082 17.1421 15.5015 17.1526 15.4986 17.1584C15.4971 17.1613 15.4965 17.1634 15.496 17.1647C15.496 17.1649 15.4956 17.166 15.4952 17.167C15.4951 17.1673 15.4942 17.1697 15.4926 17.1722C15.492 17.1731 15.4889 17.1779 15.483 17.1814C15.4793 17.1835 15.4732 17.1859 15.4656 17.185C15.4579 17.1841 15.4523 17.1803 15.4489 17.1769C15.4436 17.1716 15.442 17.1657 15.4417 17.1646C15.4417 17.1646 15.4417 17.1645 15.4417 17.1645C15.4412 17.1626 15.441 17.161 15.4409 17.1603C15.4407 17.1589 15.4407 17.1578 15.4407 17.1574C15.4406 17.1566 15.4406 17.1556 15.4406 17.1552C15.4406 17.151 15.4416 17.1468 15.4434 17.143L15.5747 16.8711C15.5766 16.8671 15.5795 16.8636 15.5831 16.8609C15.6715 16.7943 15.805 16.7664 15.9751 16.7698C16.1459 16.7732 16.3581 16.8083 16.6079 16.8724C17.1077 17.0005 17.763 17.2459 18.5492 17.5924ZM32.8128 27.3392L32.8806 27.2355C32.8772 27.228 32.8772 27.2191 32.8811 27.2114C32.9192 27.1352 32.9039 27.0231 32.8245 26.8719C32.7458 26.7222 32.6082 26.5416 32.4164 26.3344C32.0332 25.9203 31.4384 25.4043 30.6824 24.8216C29.1708 23.6566 27.018 22.2276 24.6328 20.8171C22.1957 19.4345 20.0967 18.3358 18.5266 17.6438C17.7413 17.2978 17.0893 17.0539 16.5939 16.9268C16.3462 16.8633 16.1387 16.8293 15.9739 16.826C15.8124 16.8228 15.696 16.8492 15.6223 16.9019L15.5531 17.0451C15.6026 17.0207 15.6577 17.0067 15.7093 16.9985C15.7853 16.9865 15.8574 16.9865 15.8996 16.9865H15.9005C16.1817 16.9912 16.59 17.0868 17.1116 17.2656C17.6339 17.4446 18.272 17.7078 19.0137 18.0496C20.4972 18.7333 22.3964 19.7321 24.614 21.0027C25.5898 21.5656 27.6437 22.8552 29.4503 24.1448C30.3536 24.7896 31.1957 25.4348 31.8105 25.9896C32.1178 26.2669 32.3691 26.5223 32.5429 26.7442C32.6298 26.8552 32.6978 26.9585 32.7438 27.0524C32.7895 27.146 32.8143 27.2322 32.8125 27.3087C32.8125 27.3199 32.8126 27.33 32.8128 27.3392ZM14.8904 18.3467L14.8196 18.4883C14.8302 18.4843 14.8413 18.4808 14.8529 18.4777C14.9078 18.4631 14.9753 18.4578 15.054 18.4607C15.2114 18.4663 15.4185 18.5046 15.6689 18.5726C16.1701 18.7086 16.8507 18.965 17.6668 19.3244C19.2994 20.0433 21.4777 21.1759 23.855 22.5873L23.8552 22.5874C26.2886 24.0596 28.2418 25.3821 29.6103 26.4128C30.2945 26.9282 30.8329 27.3709 31.2123 27.7232C31.4019 27.8994 31.5522 28.0533 31.6611 28.1826C31.769 28.3107 31.8387 28.4173 31.8641 28.4992C31.8936 28.5768 31.9024 28.6389 31.901 28.687L31.9923 28.5394C32.0102 28.513 32.0163 28.4774 32.0065 28.4296C31.9966 28.3814 31.971 28.3231 31.929 28.255C31.8449 28.1188 31.6988 27.9494 31.4977 27.7516C31.0958 27.3564 30.4792 26.8531 29.7149 26.2844C28.1865 25.1472 26.0709 23.7508 23.9104 22.4386C21.7362 21.1266 19.6138 20.0116 17.965 19.2715C17.1406 18.9014 16.4352 18.6254 15.9013 18.4654C15.6343 18.3853 15.4111 18.3346 15.2379 18.3154C15.1513 18.3057 15.0779 18.3041 15.0183 18.3103C14.9623 18.3162 14.9201 18.3288 14.8904 18.3467ZM14.8688 18.3271L14.8532 18.3037C14.8936 18.2768 14.9478 18.2611 15.0124 18.2544C15.0774 18.2476 15.155 18.2496 15.2441 18.2594C15.4221 18.2792 15.6489 18.331 15.9175 18.4115C16.4547 18.5725 17.1626 18.8496 17.9881 19.2202C19.6393 19.9614 21.7637 21.0775 23.9395 22.3905C26.1009 23.7033 28.2182 25.1007 29.7484 26.2393C30.5134 26.8085 31.1325 27.3136 31.5372 27.7115C31.7393 27.9103 31.8892 28.0835 31.9768 28.2254C32.0206 28.2964 32.0499 28.361 32.0616 28.4183C32.0734 28.4757 32.0679 28.5279 32.0393 28.5705L31.9177 28.7669C31.9161 28.7695 31.9141 28.7718 31.9118 28.7737L31.8555 28.8206C31.844 28.8302 31.8269 28.829 31.8167 28.8179C31.8066 28.8068 31.807 28.7897 31.8176 28.7791C31.8178 28.7789 31.8219 28.7743 31.827 28.7645C31.832 28.7546 31.8378 28.7397 31.8414 28.7191C31.8486 28.6781 31.8472 28.6129 31.8112 28.5184C31.811 28.5178 31.8108 28.5172 31.8106 28.5166C31.789 28.4462 31.7257 28.3466 31.6181 28.2189C31.5112 28.0919 31.3627 27.9397 31.174 27.7645C30.7966 27.4139 30.2598 26.9725 29.5764 26.4578C28.2098 25.4284 26.2583 24.1071 23.8262 22.6356C21.4503 21.2251 19.2741 20.0937 17.6441 19.3759C16.829 19.0169 16.1514 18.7618 15.6542 18.6268C15.4054 18.5593 15.2031 18.5223 15.052 18.5169C14.9765 18.5142 14.915 18.5194 14.8673 18.5321C14.8197 18.5447 14.788 18.5641 14.769 18.5883C14.76 18.5996 14.744 18.6023 14.7318 18.5946C14.7196 18.5869 14.7153 18.5712 14.7217 18.5583L14.8436 18.3145L14.8688 18.3271Z" fill="black"/>
<path d="M18.0547 23.6019C18.0562 24.3782 18.2116 25.1464 18.512 25.8622C18.8124 26.578 19.2518 27.2271 19.8047 27.7719C20.3509 28.3265 21.0014 28.7676 21.7188 29.0696C22.4362 29.3717 23.2063 29.5288 23.9847 29.5319C25.5601 29.5318 27.0708 28.9059 28.1847 27.7919C28.7357 27.2441 29.173 26.5928 29.4716 25.8755C29.7702 25.1581 29.9242 24.3889 29.9247 23.6119V15.6919L18.0547 15.6719V23.6019V23.6019Z" fill="white"/>
<path fill-rule="evenodd" clip-rule="evenodd" d="M18.0234 15.6367L29.9635 15.6568V23.6118C29.963 24.3934 29.8081 25.1672 29.5077 25.8888C29.2073 26.6104 28.7674 27.2655 28.2132 27.8166C28.2132 27.8166 28.2132 27.8166 28.2132 27.8166M19.7837 27.7966C20.3331 28.3544 20.9874 28.798 21.709 29.1018C22.4307 29.4056 23.2053 29.5637 23.9883 29.5668H23.9885C25.5731 29.5667 27.0927 28.9371 28.2132 27.8166M19.7837 27.7966C19.2276 27.2485 18.7856 26.5956 18.4835 25.8756C18.1813 25.1556 18.0249 24.3828 18.0234 23.6019L18.0234 15.6367M18.0934 23.6018C18.0949 24.3734 18.2494 25.1371 18.548 25.8486C18.8466 26.5601 19.2834 27.2053 19.833 27.7469L19.8334 27.7473C20.3763 28.2986 21.023 28.737 21.7362 29.0373C22.4493 29.3375 23.2148 29.4937 23.9886 29.4968C25.5546 29.4967 27.0564 28.8745 28.1637 27.7671L28.1638 27.767C28.7115 27.2224 29.1463 26.575 29.4431 25.8619C29.7399 25.1488 29.893 24.3842 29.8935 23.6118V15.7267L18.0934 15.7068V23.6018Z" fill="black"/>
<path d="M18.2812 23.6136C18.2834 24.3582 18.4329 25.0951 18.7212 25.7816C19.0096 26.4682 19.431 27.0908 19.9613 27.6136C21.0259 28.6839 22.4717 29.2881 23.9813 29.2936C25.4882 29.2945 26.934 28.6975 28.0013 27.6336C28.5297 27.11 28.9493 26.487 29.2359 25.8005C29.5225 25.114 29.6705 24.3775 29.6713 23.6336V15.9336H18.3012V23.6136M27.4013 18.2436V23.1336L27.3913 23.6436C27.3946 24.0904 27.3078 24.5332 27.136 24.9456C26.9642 25.358 26.7109 25.7314 26.3913 26.0436C25.7553 26.6818 24.8922 27.0414 23.9913 27.0436C23.0513 27.0436 22.2213 26.6436 21.6013 26.0236C20.9631 25.3877 20.6035 24.5245 20.6013 23.6236V18.2236L27.4013 18.2436Z" fill="#FF0000"/>
<path fill-rule="evenodd" clip-rule="evenodd" d="M18.27 15.9062H29.69V23.6313C29.6892 24.3785 29.5406 25.1182 29.2527 25.8078C28.9648 26.4973 28.5434 27.123 28.0127 27.649C26.9407 28.7175 25.4886 29.3171 23.975 29.3163C22.4588 29.3107 21.0067 28.7039 19.9373 27.629C19.4048 27.1039 18.9816 26.4785 18.6919 25.789C18.4023 25.0994 18.2521 24.3593 18.25 23.6113L18.275 23.6113H18.27V15.9062ZM18.3 23.6113C18.3021 24.3526 18.451 25.0861 18.738 25.7696C19.0251 26.4531 19.4447 27.073 19.9726 27.5935L19.9727 27.5937C21.0327 28.6592 22.4721 29.2607 23.9751 29.2663C25.4754 29.2671 26.9148 28.6727 27.9774 27.6136C28.5035 27.0923 28.9212 26.4719 29.2066 25.7885C29.4919 25.105 29.6392 24.3719 29.64 23.6312V15.9563H18.32V23.6113H18.3ZM20.57 18.1962L27.42 18.2163V23.1313L27.42 23.1318L27.41 23.6411C27.41 23.6412 27.41 23.6413 27.41 23.6414C27.4134 24.0914 27.3259 24.5375 27.1528 24.9529C26.9797 25.3683 26.7245 25.7445 26.4026 26.0591C25.762 26.7018 24.8925 27.0641 23.9851 27.0663C23.0377 27.0663 22.2015 26.6631 21.5774 26.039C20.9345 25.3984 20.5722 24.5289 20.57 23.6213V18.1962ZM20.62 18.2463V23.6212C20.6222 24.5155 20.9792 25.3723 21.6127 26.0036C22.2286 26.6195 23.0524 27.0163 23.985 27.0163C24.8792 27.0141 25.7361 26.6571 26.3673 26.0236L26.3676 26.0234C26.6847 25.7136 26.9361 25.3429 27.1067 24.9336C27.2772 24.5243 27.3634 24.0848 27.36 23.6415L27.36 23.6408L27.37 23.1313V18.2662L20.62 18.2463Z" fill="black"/>
<path d="M19.0156 17.9417C19.0256 17.3917 19.4156 17.2617 19.4156 17.2617C19.4256 17.2617 19.8456 17.4017 19.8456 17.9517H19.0156" fill="#FFFF00"/>
<path d="M18.6756 17.2717L18.6056 17.9017H19.0256C19.0256 17.3817 19.4256 17.3017 19.4256 17.3017C19.4356 17.3017 19.8256 17.4117 19.8356 17.9017H20.2556L20.1756 17.2617H18.6756V17.2717ZM18.5756 17.9117H20.2756C20.3056 17.9117 20.3356 17.9417 20.3356 17.9817C20.3356 18.0317 20.3056 18.0617 20.2756 18.0617H18.5756C18.5456 18.0617 18.5156 18.0317 18.5156 17.9817C18.5156 17.9417 18.5456 17.9117 18.5856 17.9117H18.5756Z" fill="#FFFF00"/>
<path fill-rule="evenodd" clip-rule="evenodd" d="M18.6522 17.2344H20.1993L20.2805 17.8845C20.3253 17.8865 20.3622 17.9293 20.3622 17.9794C20.3622 18.0383 20.3255 18.0844 20.2772 18.0844H18.5772C18.5289 18.0844 18.4922 18.0383 18.4922 17.9794C18.4922 17.929 18.5284 17.8896 18.5772 17.8849V17.8844H18.5837L18.6522 17.268V17.2344ZM18.7007 17.2844L18.6351 17.8744H19.0025C19.0087 17.6221 19.1088 17.4722 19.211 17.3853C19.2634 17.3408 19.3157 17.3133 19.3551 17.2969C19.3677 17.2917 19.3789 17.2876 19.3885 17.2844H18.7007ZM19.4272 17.2994C19.4259 17.2927 19.4249 17.2879 19.4242 17.2844L19.4272 17.2994ZM19.4638 17.2844C19.4751 17.2885 19.489 17.2942 19.5047 17.3016C19.5446 17.3204 19.5967 17.3507 19.6488 17.3969C19.7501 17.4869 19.8503 17.6362 19.8614 17.8744H20.2289L20.1551 17.2844H19.4638ZM19.8117 17.8844C19.8031 17.6561 19.7087 17.517 19.6156 17.4343C19.5677 17.3918 19.5198 17.364 19.4834 17.3468C19.4652 17.3383 19.45 17.3324 19.4392 17.3287C19.4341 17.327 19.4301 17.3258 19.4273 17.325C19.4248 17.3256 19.4213 17.3266 19.417 17.3278C19.4069 17.3308 19.3921 17.3357 19.3743 17.3431C19.3386 17.3579 19.291 17.3829 19.2434 17.4234C19.1508 17.5021 19.0561 17.6411 19.0523 17.8844H19.8117ZM18.5872 17.9344C18.561 17.9344 18.5422 17.9532 18.5422 17.9794C18.5422 18.0205 18.5655 18.0344 18.5772 18.0344H20.2772C20.2889 18.0344 20.3122 18.0205 20.3122 17.9794C20.3122 17.9506 20.291 17.9344 20.2772 17.9344H18.5872Z" fill="black"/>
<path d="M19.1947 17.9005C19.1947 17.5705 19.4247 17.4805 19.4247 17.4805C19.4247 17.4805 19.6547 17.5805 19.6547 17.9005H19.1947ZM18.6147 17.0005H20.2447C20.2747 17.0005 20.3047 17.0405 20.3047 17.0805C20.3047 17.1105 20.2747 17.1405 20.2447 17.1405H18.6147C18.5847 17.1405 18.5547 17.1105 18.5547 17.0705C18.5547 17.0405 18.5847 17.0105 18.6147 17.0105V17.0005ZM19.2347 18.0505H20.1947C20.2247 18.0505 20.2547 18.0805 20.2547 18.1205C20.2547 18.1605 20.2247 18.1905 20.1947 18.1905H18.6447C18.6047 18.1905 18.5847 18.1605 18.5847 18.1205C18.5847 18.0805 18.6047 18.0505 18.6447 18.0505H19.2347ZM19.7347 16.9905H19.8547V17.0705H19.9447V16.9905H20.0747V17.0805H20.1647V16.9805H20.2847V17.1805C20.2847 17.2205 20.2647 17.2405 20.2347 17.2405H19.7947C19.7647 17.2405 19.7347 17.2205 19.7347 17.1905V16.9905ZM20.1947 17.2605L20.2247 17.9005H19.7947L19.8247 17.2505H20.1947" fill="#FFFF00"/>
<path fill-rule="evenodd" clip-rule="evenodd" d="M20.1413 16.9531H20.3113V17.0134C20.3233 17.0316 20.3313 17.0546 20.3313 17.0781C20.3313 17.098 20.3229 17.1163 20.3113 17.1304V17.1781C20.3113 17.202 20.3053 17.2236 20.2913 17.2396C20.277 17.256 20.2571 17.2631 20.2363 17.2631H20.2215L20.2525 17.9231H19.7701L19.8005 17.2631H19.7963C19.776 17.2631 19.7555 17.2565 19.7397 17.2441C19.7235 17.2315 19.7113 17.2122 19.7113 17.1881V17.1631H18.6162C18.57 17.1631 18.5312 17.1194 18.5312 17.0681C18.5312 17.045 18.5426 17.024 18.5573 17.0092C18.5665 17 18.5782 16.9921 18.5912 16.9875V16.9731H19.7113V16.9631H19.8813V16.9731H19.9213V16.9631H20.1013V16.9731H20.1413V16.9531ZM20.1413 17.0231H20.1013V17.0531H20.1413V17.0231ZM20.0513 17.0231V17.1031H20.1913V17.0231H20.2463C20.2493 17.0231 20.2549 17.025 20.2613 17.031V17.1084C20.256 17.1116 20.2507 17.1131 20.2463 17.1131H19.7613V17.0231H19.8313V17.0931H19.9713V17.0231H20.0513ZM19.9213 17.0231H19.8813V17.0431H19.9213V17.0231ZM19.7113 17.0231H18.6412V17.0331H18.6162C18.6094 17.0331 18.6004 17.0368 18.5927 17.0446C18.5849 17.0523 18.5813 17.0613 18.5813 17.0681C18.5813 17.0969 18.6025 17.1131 18.6162 17.1131H19.7113V17.0231ZM19.7613 17.1631V17.1881C19.7613 17.194 19.764 17.1997 19.7704 17.2046C19.777 17.2098 19.7865 17.2131 19.7963 17.2131H20.2363C20.2454 17.2131 20.2505 17.2103 20.2537 17.2067C20.2572 17.2026 20.2613 17.1942 20.2613 17.1781V17.1615C20.2564 17.1626 20.2514 17.1631 20.2463 17.1631H19.7613ZM19.8501 17.2731L19.8224 17.8731H20.2001L20.1719 17.2731H19.8501ZM19.4362 17.4552L19.4263 17.4781L19.4171 17.4548L19.4268 17.4511L19.4362 17.4552ZM19.4258 17.5059C19.4203 17.5087 19.4127 17.5128 19.4036 17.5185C19.3837 17.5311 19.3568 17.5512 19.3298 17.5811C19.2791 17.6373 19.2271 17.7291 19.2217 17.8731H19.6308C19.6252 17.7339 19.5734 17.6422 19.5225 17.5847C19.4955 17.5541 19.4684 17.533 19.4483 17.5196C19.4391 17.5134 19.4314 17.5089 19.4258 17.5059ZM19.4171 17.4548C19.4172 17.4548 19.4171 17.4548 19.4263 17.4781C19.4362 17.4552 19.4362 17.4552 19.4362 17.4552L19.4364 17.4553L19.4366 17.4554L19.4373 17.4557C19.4379 17.456 19.4387 17.4563 19.4397 17.4568C19.4417 17.4578 19.4444 17.4591 19.4479 17.461C19.4548 17.4647 19.4645 17.4703 19.4761 17.478C19.4991 17.4933 19.5296 17.5172 19.56 17.5516C19.6212 17.6207 19.6813 17.7315 19.6813 17.8981V17.9231H19.1713V17.8981C19.1713 17.7267 19.2312 17.6158 19.2927 17.5476C19.3232 17.5138 19.3538 17.4908 19.377 17.4762C19.3886 17.4689 19.3983 17.4637 19.4053 17.4602C19.4088 17.4585 19.4116 17.4572 19.4136 17.4563C19.4146 17.4559 19.4154 17.4555 19.416 17.4553L19.4167 17.455L19.417 17.4549L19.4171 17.4548ZM18.6208 18.0837C18.6153 18.0905 18.6112 18.1019 18.6112 18.1181C18.6112 18.1343 18.6153 18.1457 18.6208 18.1525C18.6256 18.1586 18.6332 18.1631 18.6462 18.1631H20.1963C20.21 18.1631 20.2313 18.1469 20.2313 18.1181C20.2313 18.0894 20.21 18.0731 20.1963 18.0731H18.6462C18.6332 18.0731 18.6256 18.0777 18.6208 18.0837ZM18.5817 18.0525C18.5969 18.0336 18.6193 18.0231 18.6462 18.0231H20.1963C20.2425 18.0231 20.2813 18.0669 20.2813 18.1181C20.2813 18.1694 20.2425 18.2131 20.1963 18.2131H18.6462C18.6193 18.2131 18.5969 18.2027 18.5817 18.1837C18.5672 18.1655 18.5612 18.1419 18.5612 18.1181C18.5612 18.0943 18.5672 18.0707 18.5817 18.0525Z" fill="black"/>
<path d="M19.0953 16.6602V17.0002H18.6953V16.6602H19.0953Z" fill="#FFFF00"/>
<path fill-rule="evenodd" clip-rule="evenodd" d="M18.6719 16.6367H19.1219V17.0267H18.6719V16.6367ZM18.7219 16.6867V16.9767H19.0719V16.6867H18.7219Z" fill="black"/>
<path d="M18.625 16.3984H18.745V16.4984H18.835V16.3984H18.955V16.4984H19.045V16.3984H19.165V16.5984C19.165 16.6384 19.145 16.6584 19.115 16.6584H18.685C18.6691 16.6584 18.6538 16.6521 18.6426 16.6409C18.6313 16.6296 18.625 16.6144 18.625 16.5984V16.3984V16.3984Z" fill="#FFFF00"/>
<path fill-rule="evenodd" clip-rule="evenodd" d="M18.6516 16.425V16.6C18.6516 16.6093 18.6553 16.6182 18.6618 16.6248C18.6684 16.6313 18.6773 16.635 18.6866 16.635H19.1166C19.1258 16.635 19.1308 16.6321 19.134 16.6285C19.1375 16.6245 19.1416 16.6161 19.1416 16.6V16.425H19.0716V16.525H18.9316V16.425H18.8616V16.525H18.7216V16.425H18.6516ZM18.6266 16.4V16.375H18.7716V16.475H18.8116V16.375H18.9816V16.475H19.0216V16.375H19.1916V16.6C19.1916 16.6239 19.1856 16.6455 19.1716 16.6615C19.1573 16.6779 19.1374 16.685 19.1166 16.685H18.6866C18.664 16.685 18.6424 16.676 18.6265 16.6601C18.6105 16.6442 18.6016 16.6225 18.6016 16.6V16.4H18.6266Z" fill="black"/>
<path d="M19.3906 16.5606C19.3906 16.5006 19.4806 16.5006 19.4806 16.5606V16.7206H19.3906V16.5606Z" fill="black"/>
<path d="M18.8594 16.7794C18.8594 16.7194 18.9394 16.7194 18.9394 16.7794V16.8994H18.8594V16.7794Z" fill="black"/>
<path d="M23.2578 22.7402C23.256 22.9512 23.3347 23.155 23.4778 23.3102C23.5446 23.3848 23.6263 23.4448 23.7175 23.4861C23.8088 23.5274 23.9077 23.5492 24.0078 23.5502C24.2178 23.5502 24.4078 23.4502 24.5378 23.3102C24.681 23.155 24.7597 22.9512 24.7578 22.7402V21.6602H23.2578V22.7402Z" fill="#003399"/>
<path d="M23.6109 22.2219C23.6938 22.2219 23.7609 22.1547 23.7609 22.0719C23.7609 21.989 23.6938 21.9219 23.6109 21.9219C23.5281 21.9219 23.4609 21.989 23.4609 22.0719C23.4609 22.1547 23.5281 22.2219 23.6109 22.2219Z" fill="white"/>
<path d="M24.4391 22.2219C24.5219 22.2219 24.5891 22.1547 24.5891 22.0719C24.5891 21.989 24.5219 21.9219 24.4391 21.9219C24.3562 21.9219 24.2891 21.989 24.2891 22.0719C24.2891 22.1547 24.3562 22.2219 24.4391 22.2219Z" fill="white"/>
<path d="M24.0172 22.6203C24.1 22.6203 24.1672 22.5532 24.1672 22.4703C24.1672 22.3875 24.1 22.3203 24.0172 22.3203C23.9343 22.3203 23.8672 22.3875 23.8672 22.4703C23.8672 22.5532 23.9343 22.6203 24.0172 22.6203Z" fill="white"/>
<path d="M23.6109 23.0383C23.6938 23.0383 23.7609 22.9711 23.7609 22.8883C23.7609 22.8054 23.6938 22.7383 23.6109 22.7383C23.5281 22.7383 23.4609 22.8054 23.4609 22.8883C23.4609 22.9711 23.5281 23.0383 23.6109 23.0383Z" fill="white"/>
<path d="M24.4391 23.0383C24.5219 23.0383 24.5891 22.9711 24.5891 22.8883C24.5891 22.8054 24.5219 22.7383 24.4391 22.7383C24.3562 22.7383 24.2891 22.8054 24.2891 22.8883C24.2891 22.9711 24.3562 23.0383 24.4391 23.0383Z" fill="white"/>
</g>
<defs>
<clipPath id="clip0_4046_24838">
<rect width="60" height="45" fill="white"/>
</clipPath>
</defs>
</svg>
