<svg width="60" height="45" viewBox="0 0 60 45" fill="none" xmlns="http://www.w3.org/2000/svg">
<g clip-path="url(#clip0_4046_24901)">
<path fill-rule="evenodd" clip-rule="evenodd" d="M-9.66406 0H69.6766V45H-9.66406V0Z" fill="#4AADD6"/>
<path fill-rule="evenodd" clip-rule="evenodd" d="M38.0547 21.7582C38.1009 23.3871 37.8056 25.0084 37.1863 26.5263C36.567 28.0442 35.6363 29.4279 34.4491 30.5957C33.2619 31.7635 31.8423 32.6917 30.2741 33.3255C28.7059 33.9593 27.021 34.2859 25.3188 34.2859C23.6165 34.2859 21.9316 33.9593 20.3634 33.3255C18.7952 32.6917 17.3756 31.7635 16.1884 30.5957C15.0012 29.4279 14.0705 28.0442 13.4512 26.5263C12.8319 25.0084 12.5366 23.3871 12.5828 21.7582C12.5366 20.1292 12.8319 18.5079 13.4512 16.99C14.0705 15.4721 15.0012 14.0884 16.1884 12.9206C17.3756 11.7528 18.7952 10.8246 20.3634 10.1908C21.9316 9.55701 23.6165 9.23047 25.3188 9.23047C27.021 9.23047 28.7059 9.55701 30.2741 10.1908C31.8423 10.8246 33.2619 11.7528 34.4491 12.9206C35.6363 14.0884 36.567 15.4721 37.1863 16.99C37.8056 18.5079 38.1009 20.1292 38.0547 21.7582V21.7582Z" fill="#FFDE00"/>
</g>
<defs>
<clipPath id="clip0_4046_24901">
<rect width="60" height="45" fill="white"/>
</clipPath>
</defs>
</svg>
