<svg width="60" height="45" viewBox="0 0 60 45" fill="none" xmlns="http://www.w3.org/2000/svg">
<g clip-path="url(#clip0_4046_25526)">
<path d="M0 0H60V45H0V0Z" fill="#20603D"/>
<path d="M0 0H60V33.75H0V0Z" fill="#FAD201"/>
<path d="M0 0H60V22.5H0V0Z" fill="#00A1DE"/>
<path d="M55.1625 11.7578L50.1375 12.0516L54.9125 13.6391L49.9875 12.6203L54.1938 15.3828L49.6938 13.1203L53.0313 16.8891L49.275 13.5453L51.5375 18.0453L48.7688 13.8391L49.7813 18.7578L48.2 13.9891L47.9063 19.0141L47.8438 11.6953L55.1625 11.7578Z" fill="#E5BE01"/>
<path d="M47.9094 13.9008C49.0934 13.9008 50.0531 12.941 50.0531 11.757C50.0531 10.5731 49.0934 9.61328 47.9094 9.61328C46.7254 9.61328 45.7656 10.5731 45.7656 11.757C45.7656 12.941 46.7254 13.9008 47.9094 13.9008Z" fill="#E5BE01"/>
<path fill-rule="evenodd" clip-rule="evenodd" d="M47.9063 9.72031C46.781 9.72031 45.8688 10.6325 45.8688 11.7578C45.8688 12.8831 46.781 13.7953 47.9063 13.7953C49.0315 13.7953 49.9438 12.8831 49.9438 11.7578C49.9438 10.6325 49.0315 9.72031 47.9063 9.72031ZM45.6562 11.7578C45.6562 10.5152 46.6636 9.50781 47.9063 9.50781C49.1489 9.50781 50.1563 10.5152 50.1563 11.7578C50.1563 13.0005 49.1489 14.0078 47.9063 14.0078C46.6636 14.0078 45.6562 13.0005 45.6562 11.7578Z" fill="#00A1DE"/>
</g>
<defs>
<clipPath id="clip0_4046_25526">
<rect width="60" height="45" fill="white"/>
</clipPath>
</defs>
</svg>
