<svg width="60" height="45" viewBox="0 0 60 45" fill="none" xmlns="http://www.w3.org/2000/svg">
<g clip-path="url(#clip0_4046_25535)">
<path fill-rule="evenodd" clip-rule="evenodd" d="M-3.75 0H63.75V45H-3.75V0Z" fill="#199D00"/>
<path fill-rule="evenodd" clip-rule="evenodd" d="M13.2555 12.7547C13.1852 13.8093 13.0797 15.655 13.985 15.8484C15.066 15.9539 14.4684 14.0203 14.8639 13.6687C14.9342 13.4929 15.066 13.4929 15.0748 13.7127V15.3562C15.0748 15.8836 15.4264 16.0418 15.6901 16.1472C15.9713 16.1297 16.1647 16.1472 16.2701 16.4109L16.4108 19.2498C16.4108 19.2498 17.0612 19.4431 17.0963 17.6589C17.1227 16.6043 16.8854 15.7341 17.026 15.532C17.026 15.3298 17.2897 15.3211 17.4655 15.4177C17.7467 15.6111 17.8697 15.8572 18.3092 15.7693C18.9772 15.5759 19.3815 15.2507 19.3903 14.741C19.3771 14.24 19.2728 13.7456 19.0826 13.282C19.1178 13.1941 18.9596 12.9568 18.9948 12.8689C19.109 13.0623 19.2936 13.0447 19.3287 12.8689C19.2145 12.4998 19.0387 12.1394 18.7574 11.99C18.5201 11.7791 18.1686 11.8142 18.0543 12.2537C17.984 12.7547 18.2301 13.3435 18.5905 13.8357C18.6696 14.0203 18.775 14.3367 18.7311 14.6179C18.5377 14.7322 18.3444 14.6795 18.1774 14.5125C18.1774 14.5125 17.65 14.117 17.65 14.0203C17.7906 13.1238 17.6764 13.0183 17.5973 12.7634C17.5446 12.4207 17.3776 12.3064 17.2457 12.0779C17.1139 11.9373 16.9381 11.9373 16.8502 12.0779C16.6129 12.4822 16.7272 13.3523 16.8942 13.7478C17.0172 14.1082 17.2018 14.3367 17.1139 14.3367C17.0436 14.5388 16.8942 14.4861 16.7799 14.2488C16.6513 13.7494 16.5892 13.2352 16.5953 12.7195C16.5514 12.3152 16.4987 11.4539 16.2262 11.2254C16.068 11.0144 15.8307 11.1199 15.7428 11.3132C15.7196 11.7059 15.7284 12.0998 15.7692 12.491C15.9449 13.1414 16.0065 13.7214 16.0944 14.3806C16.1207 15.2683 15.5846 14.7673 15.611 14.3191C15.7263 13.7556 15.7173 13.1737 15.5846 12.614C15.4967 12.3855 15.4 12.3328 15.1803 12.3679C15.0133 12.3679 14.5826 12.8338 14.4596 13.6248C14.4596 13.6248 14.3541 14.0291 14.3102 14.3894C14.2487 14.7937 13.985 15.0925 13.7916 14.3367C13.6334 13.783 13.528 12.4382 13.2643 12.7547H13.2555Z" fill="white"/>
<path fill-rule="evenodd" clip-rule="evenodd" d="M16.2031 17.0693L13.3906 18.4229C13.417 17.7812 14.7178 16.6299 15.6143 16.6211C16.1855 16.6299 16.0449 16.8408 16.1943 17.0693H16.2031Z" fill="white"/>
<path fill-rule="evenodd" clip-rule="evenodd" d="M15.7015 17.9472C14.225 21.7705 19.1732 22.3066 19.7269 18.1054C19.7797 17.9297 19.9906 17.7627 20.0258 18.0439C19.9115 21.8496 16.1937 22.1045 15.5609 20.9092C15.4121 20.4979 15.3376 20.0633 15.3412 19.6259C15.2533 18.8789 14.8578 19.1689 14.7963 19.9072C14.7347 20.3203 14.7523 20.4345 14.7523 20.8301C14.9457 23.8359 19.7357 22.5439 20.5179 20.0654C20.931 18.6943 20.4476 17.6836 20.6674 17.6836C21.142 18.1933 21.8099 17.7539 21.9594 17.5781C22.0209 17.4902 22.1791 17.4287 22.2846 17.5429C22.6537 17.8066 23.3041 17.6836 23.4447 17.2177C23.5238 16.7519 23.5853 16.2773 23.6029 15.7939C23.2953 15.8818 23.0756 15.9433 23.0492 16.0752L22.9877 16.4795C22.9613 16.6113 22.7064 16.6113 22.6888 16.4443C22.5746 15.917 22.1 15.8554 21.8099 16.664C21.6254 16.8222 21.2738 16.8574 21.2387 16.6201C21.2826 16.0752 21.0629 16.0049 20.6234 16.2597L20.2015 13.0781C20.3773 13.0781 20.5531 13.2099 20.7201 12.999C20.5443 12.4277 20.1488 11.2676 19.9291 11.1797C19.8324 11.0566 19.7445 11.1357 19.6039 11.1709C19.3754 11.2412 19.1644 11.4345 19.2347 11.8213C19.4984 13.4736 19.6742 14.7304 19.9467 16.3916C19.9906 16.5761 19.8324 16.831 19.6215 16.8047C19.2699 16.5674 19.182 16.084 18.5668 16.1015C18.1273 16.1015 17.6351 16.5849 17.5736 17.042C17.4945 17.4111 17.4681 17.8066 17.5736 18.123C17.8812 18.4922 18.2504 18.457 18.5756 18.3779C18.8392 18.2636 19.059 18 19.1556 18.0615C19.2172 18.1406 19.1644 19.0195 17.8988 19.6875C17.1342 20.039 16.5189 20.1093 16.1937 19.4853C15.9916 19.0898 16.2113 17.6045 15.7015 17.9472V17.9472Z" fill="white"/>
<path fill-rule="evenodd" clip-rule="evenodd" d="M22.0004 14.0625C22.2905 13.957 23.6967 12.3398 23.6967 12.3398L23.4858 12.164C23.4067 12.1025 23.4155 12.0322 23.4858 11.9707C23.8374 11.7597 23.7231 11.3203 23.5473 11.1093C23.428 11.0512 23.2967 11.0217 23.1639 11.0232C23.0312 11.0247 22.9006 11.0572 22.7827 11.1181C22.5366 11.3554 22.4838 11.7334 22.6772 11.9619C22.8618 12.0498 23.0463 12.2431 22.9233 12.3486C22.3432 12.9638 20.77 14.0273 20.9545 14.0625C20.9897 14.1152 21.9653 14.1152 21.9916 14.0625H22.0004ZM13.475 19.7753C12.9477 20.6191 12.9038 21.8759 13.1938 22.2539C13.352 22.4296 13.6069 22.5087 13.7915 22.4472C14.1254 22.3066 14.2749 21.6298 14.1958 21.3925C14.0815 21.2167 13.9936 21.1904 13.8793 21.331C13.6508 21.8056 13.5542 21.4804 13.5278 21.2167C13.5026 20.7702 13.5262 20.3222 13.5981 19.8808C13.6596 19.5117 13.5981 19.6171 13.475 19.7753V19.7753ZM36.0717 18.4306C35.562 17.3232 34.85 16.2333 34.6303 15.8203C33.9454 14.7375 33.2183 13.682 32.4506 12.6562C31.9057 12.0058 33.3471 12.9287 32.2749 11.6279L31.4926 10.9687C31.3168 10.8457 30.895 10.6171 30.8247 10.9863C30.7895 11.3203 30.8071 11.496 30.8598 11.7685C30.9038 11.9443 31.1674 12.2519 31.2993 12.4277C33.1011 14.8143 34.6837 17.3588 36.0278 20.0302C36.2563 19.916 36.2036 18.6152 36.0717 18.4306V18.4306Z" fill="white"/>
<path fill-rule="evenodd" clip-rule="evenodd" d="M33.8313 22.103C33.7259 22.2173 34.0774 22.7007 34.5345 22.7007C35.2903 22.6128 35.9583 22.1909 36.5735 21.0659C36.8235 20.6917 36.983 20.2644 37.0393 19.8178C37.1138 17.6842 36.9427 15.5491 36.5296 13.4546C36.5032 13.2788 36.5296 13.0679 36.5472 13.0151C36.5999 12.9536 36.7669 13.0151 36.8548 12.8657C36.9866 12.7339 36.5032 11.6352 36.2395 11.2221C36.1516 11.0288 36.1077 10.9057 35.9495 11.2397C35.7586 11.6082 35.6677 12.0204 35.6858 12.435C36.0462 14.9399 36.1604 17.1284 36.389 19.6333C36.4153 19.8794 36.3802 20.2309 36.2132 20.3716C35.55 21.11 34.7383 21.7 33.8313 22.103V22.103ZM44.0706 22.0942C43.5257 22.4106 43.5257 22.771 43.9651 22.7798C44.721 22.6919 45.6175 22.6303 46.2327 21.6987C46.45 21.2599 46.5756 20.7814 46.6018 20.2925C46.7125 18.1917 46.5738 16.0852 46.1888 14.0171C46.1712 13.8413 46.0921 13.4282 46.1184 13.3755C46.1712 13.2524 46.4173 13.3843 46.5052 13.2436C46.6282 13.1118 45.8636 12.1274 45.5911 11.7055C45.5032 11.5122 45.4681 11.3891 45.3011 11.7231C45.124 12.095 45.0687 12.5133 45.1429 12.9184C45.5472 15.643 45.846 17.6821 45.9075 20.0903C45.8723 20.3188 45.8636 20.4419 45.7581 20.7319C45.5208 21.0307 45.2571 21.4175 45.011 21.602C44.7649 21.7778 44.2376 21.9536 44.0706 22.0942V22.0942Z" fill="white"/>
<path fill-rule="evenodd" clip-rule="evenodd" d="M44.4725 19.663C44.4725 19.0214 44.4813 18.4765 44.4637 17.9931C44.458 17.5837 44.3683 17.1798 44.2 16.8065C44.0418 16.4462 44.1385 16.1561 44.0594 15.7694C43.9891 15.3827 44.0067 14.8026 43.9012 14.3544C43.8661 14.1786 43.7782 13.6073 43.8045 13.5458C43.8485 13.4227 44.0155 13.5458 44.1034 13.4052C44.2264 13.2733 43.6639 11.8231 43.3827 11.41C43.286 11.2255 43.0926 11.287 42.8729 11.5858C42.6532 11.788 42.7323 12.2362 42.8202 12.6669C43.3563 15.5058 43.7694 18.0809 43.6815 20.7792C43.6463 21.0077 44.4725 20.0936 44.4725 19.663V19.663ZM40.4559 16.1474C40.1131 16.1298 39.4012 15.4706 39.1903 15.0927C39.1557 15.0003 39.141 14.9017 39.1471 14.8033C39.1531 14.7049 39.1798 14.6088 39.2254 14.5214C39.3573 14.4335 39.5506 14.3456 39.7 14.4335C39.7 14.4335 39.8495 14.6444 39.8231 14.6708C39.9989 14.7587 40.0868 14.7147 40.1043 14.6356C40.1131 14.5038 40.0516 14.4247 40.0516 14.2841C40.1307 13.8798 40.5789 13.8183 40.7547 14.0731C40.8778 14.2313 40.9305 14.5565 40.9393 14.7763C40.9393 14.8905 40.7635 14.7587 40.6493 14.7763C40.5526 14.8114 40.5262 14.9345 40.5174 15.0399C40.4998 15.33 40.4647 15.7958 40.4559 16.1386V16.1474ZM34.1454 20.3661C34.2332 19.5048 34.1102 17.9667 34.1014 17.4569C34.0544 16.1459 33.9459 14.8378 33.7762 13.537C33.6707 12.7987 34.075 13.6161 34.0223 13.1854C33.8905 12.4559 33.4862 11.955 33.0028 11.2958C32.8534 11.0761 32.8534 11.0321 32.6161 11.3485C32.3524 11.9374 32.5809 12.3505 32.6512 12.8163C32.994 14.328 33.1961 15.7167 33.2928 17.0966C33.394 18.53 33.4058 19.9683 33.328 21.4032C33.5916 21.412 33.9959 20.9901 34.1454 20.3661Z" fill="white"/>
<path fill-rule="evenodd" clip-rule="evenodd" d="M45.6447 18.9854C45.0383 17.9659 44.133 16.8761 43.8869 16.463C43.0719 15.3249 42.2159 14.2167 41.3205 13.1407C40.5735 12.3497 41.6721 13.0089 41.1799 12.3936C40.7668 11.9454 40.6526 11.796 40.2922 11.5235C40.1164 11.4093 40.011 11.1895 39.9406 11.5675C39.9126 11.8948 39.9067 12.2237 39.9231 12.5518C39.9231 12.7013 40.0813 12.9913 40.2219 13.1671C42.0412 15.4083 44.0363 17.6934 45.636 20.5675C45.8645 20.4532 45.7854 19.1612 45.636 18.9854H45.6447Z" fill="white"/>
<path fill-rule="evenodd" clip-rule="evenodd" d="M18.2771 17.1126C18.2331 17.1917 18.1365 17.2884 18.1716 17.3851C18.2331 17.473 18.2947 17.4993 18.4001 17.4993C18.4968 17.4993 18.6374 17.5257 18.6638 17.473C18.7165 17.4115 18.7517 17.2972 18.7165 17.1829C18.6111 16.9193 18.3298 17.0247 18.2771 17.1126V17.1126Z" fill="#1BA400"/>
<path fill-rule="evenodd" clip-rule="evenodd" d="M38.6289 31.8622C39.4375 31.8973 39.9648 31.9061 40.6768 31.9852L41.5205 31.8973C42.4521 31.8095 42.4873 33.2245 42.4873 33.2245C42.4873 34.0595 42.1621 34.1034 41.749 34.1913C41.5117 34.2264 41.3975 34.0507 41.2656 33.8749C41.0668 33.9386 40.8551 33.9507 40.6504 33.91C40.3076 33.8925 39.9736 33.8925 39.6396 33.8661C39.2881 33.8397 39.0947 33.91 38.7344 33.8749C38.6641 33.9891 38.5586 34.1473 38.3477 34.1034C38.1719 34.077 37.9521 33.5761 38.0137 33.1805C38.1455 32.8993 38.1016 32.996 38.1016 32.8729C34.7969 32.785 31.4658 32.6356 28.2314 32.6796C25.7002 32.6884 23.2041 32.7938 20.6992 32.8993C19.3633 32.8817 18.3437 32.6708 17.6406 31.6425C17.7109 31.6425 21.0508 31.827 22.0264 31.7655C23.8281 31.7479 25.4805 31.5985 27.3174 31.5458C30.9385 31.6073 34.5332 31.6073 38.1543 31.8622C37.8027 31.6249 37.8027 31.0712 38.3301 30.9305C38.374 30.8954 38.4004 31.203 38.4795 31.1942C38.9102 31.1679 38.7168 31.7479 38.6289 31.8622V31.8622ZM24.0742 11.8934C23.5293 13.4579 24.3906 15.1805 24.9883 15.0136C25.4277 15.1893 25.6914 14.3632 25.8672 13.4667C25.999 13.2118 26.0869 13.1854 26.1484 13.3173C26.1309 14.5126 26.2363 14.785 26.5439 15.1454C27.2295 15.6727 27.8008 15.2157 27.8447 15.1718L28.3721 14.6356C28.4951 14.5038 28.6533 14.5038 28.8203 14.6093C28.9873 14.7587 28.9609 15.0136 29.3125 15.1893C29.6113 15.3124 30.2354 15.2245 30.3848 14.9696C30.5781 14.6268 30.6309 14.5126 30.7188 14.3895C30.8594 14.205 31.0967 14.2841 31.0967 14.3456C31.0703 14.4511 30.9297 14.5477 31.0264 14.7411C31.2021 14.8641 31.2373 14.785 31.334 14.7587C31.6855 14.5829 31.9492 13.827 31.9492 13.827C31.958 13.5458 31.7998 13.5634 31.6943 13.6337L31.4219 13.8182C31.2461 13.8446 30.9209 13.9589 30.7539 13.704C30.5869 13.4052 30.5869 12.9745 30.4639 12.6669C30.4639 12.6493 30.2354 12.1835 30.4463 12.1571C30.5518 12.1747 30.7715 12.2362 30.8066 12.0516C30.9121 11.8671 30.5781 11.3485 30.3408 11.0848C30.1387 10.8651 29.8574 10.8388 29.585 11.0673C29.3916 11.243 29.418 11.4364 29.3828 11.621C29.3495 11.7532 29.348 11.8915 29.3786 12.0245C29.4091 12.1574 29.4708 12.2812 29.5586 12.3856C29.752 12.7548 30.0947 13.2382 29.9805 13.9237C29.9805 13.9237 29.7783 14.2401 29.4268 14.1962C29.2773 14.1698 29.04 14.1083 28.917 13.1591C28.8203 12.4559 28.9346 11.454 28.6357 10.9882C28.5215 10.6981 28.4424 10.4257 28.1787 10.9091C28.1084 11.1024 27.8008 11.3925 28.0205 11.9813C28.2284 12.512 28.2892 13.0889 28.1963 13.6513C28.0645 13.8446 28.0381 13.9061 27.8711 14.0907C27.6426 14.3544 27.3877 14.2841 27.1943 14.1874C27.0186 14.0731 26.8779 14.0116 26.79 13.6161C26.8076 13.0009 26.8428 11.9901 26.7285 11.7792C26.5615 11.4452 26.2891 11.5682 26.1748 11.6737C25.652 12.2545 25.3019 12.9699 25.1641 13.7391C25.0059 14.2489 24.8389 14.0995 24.7246 13.8973C24.4434 13.6337 24.417 11.5507 24.0742 11.8934V11.8934Z" fill="white"/>
<path fill-rule="evenodd" clip-rule="evenodd" d="M25.7281 15.3014C25.983 15.1256 25.8688 15.0025 26.2379 15.3717C26.7144 16.2147 26.991 17.1559 27.0465 18.1226C27.0289 18.3512 27.1871 18.4918 27.2662 18.4391C27.3014 17.9117 28.5934 17.1734 29.7799 17.068C29.9557 17.024 29.8678 16.6812 29.8941 16.5055C29.8238 15.8463 30.2633 15.2486 30.8785 15.2047C31.7223 15.3277 32.0035 15.776 32.0211 16.4527C31.9244 17.7711 30.5533 17.9908 29.7887 18.0963C29.6744 18.1402 29.6217 18.193 29.7887 18.2545L33.0055 18.2721L33.1725 18.3599C33.19 18.4478 33.1197 18.3775 32.9967 18.5885C32.8197 18.8993 32.709 19.2435 32.6715 19.5992C31.7135 19.9156 30.7203 20.0387 29.7184 20.1705C29.3668 20.3463 29.191 20.5836 29.2613 20.8473C29.3844 21.1373 30.1578 21.4361 30.1578 21.4449C30.3072 21.5328 30.4742 21.7525 30.1139 22.2008C28.5494 22.1305 27.3277 21.4625 26.9059 20.5221C26.7828 20.4254 26.6422 20.5221 26.5543 20.6451C25.9391 21.4361 25.3414 22.1392 24.2955 22.526C23.6803 22.6842 23.0387 22.4293 22.7398 22.025C22.5377 21.7877 22.5465 21.5328 22.4762 21.4801C22.1334 21.6295 19.233 22.8599 19.6022 22.2799C20.3053 21.5328 21.5357 20.9703 22.608 20.232C22.6871 19.9771 22.8277 19.1334 23.2496 18.8609C23.276 18.8609 23.1881 19.3531 23.1969 19.5641C23.1969 19.7398 23.1793 19.8014 23.2145 19.7574C23.2936 19.7135 24.5943 18.6851 24.7086 18.3687C24.8316 18.193 24.735 17.7359 24.735 17.7183C24.4889 17.0855 24.1461 17.0328 24.0231 16.7164C23.9088 16.3033 23.9615 15.8287 24.1988 15.6881C24.4098 15.5035 24.6559 15.5211 24.8932 15.732C25.1568 15.9693 25.3854 16.4351 25.4557 16.7779C25.4117 16.9098 25.1041 16.69 25.0162 16.7516C25.1854 16.946 25.2979 17.1831 25.3414 17.4371C25.5172 18.1578 25.4645 18.4391 25.2887 18.9049C24.7086 20.1266 23.9703 20.4869 23.3199 20.9439C23.3023 20.9439 23.2936 21.2516 23.5309 21.4185C23.6188 21.5064 23.9615 21.5504 24.357 21.4185C25.202 20.9493 25.8852 20.2354 26.317 19.3707C26.3917 18.7127 26.3196 18.0463 26.1061 17.4195C25.8512 16.8307 25.5523 15.9957 25.5523 15.9781C25.5436 15.609 25.5699 15.4859 25.7281 15.3014V15.3014ZM17.3082 11.9088C17.6773 12.0846 18.3805 12.0055 18.3453 11.4078L18.3277 11.1353C18.2574 10.9596 18.0465 11.0035 18.0025 11.1793C17.985 11.2408 18.0289 11.3375 17.9762 11.3639C17.941 11.399 17.8268 11.3814 17.8268 11.2144C17.8268 11.1617 17.7916 11.109 17.7652 11.0738C17.7477 11.0562 17.7301 11.0562 17.6861 11.0562C17.6334 11.0562 17.6334 11.065 17.607 11.109C17.5982 11.1529 17.5807 11.1969 17.5807 11.2496C17.5807 11.3111 17.5455 11.3287 17.5104 11.3375C17.4576 11.3375 17.4664 11.3375 17.4225 11.3199C17.4049 11.2935 17.3785 11.2848 17.3785 11.232L17.3522 11.0914C17.3346 11.065 17.2994 11.0474 17.2643 11.0387C17.0621 11.0387 17.0445 11.276 17.0621 11.3639C17.0445 11.3814 17.0357 11.7945 17.3082 11.9088V11.9088Z" fill="white"/>
<path fill-rule="evenodd" clip-rule="evenodd" d="M28.1642 16.496C28.5333 16.6718 29.421 16.5751 29.2013 16.0038L29.1837 15.7226C29.1046 15.5468 28.9025 15.5907 28.8585 15.7753C28.841 15.8281 28.8849 15.9247 28.8234 15.9511C28.797 15.9863 28.674 15.9687 28.6827 15.8105C28.6827 15.7577 28.6476 15.6962 28.6212 15.6611C28.5949 15.6523 28.5861 15.6435 28.5333 15.6435C28.4894 15.6435 28.4894 15.6611 28.463 15.705C28.4454 15.7489 28.4367 15.7929 28.4367 15.8456C28.4279 15.8984 28.4015 15.9159 28.3576 15.9335C28.3136 15.9335 28.3224 15.9335 28.2872 15.9072C28.2609 15.8808 28.2345 15.872 28.2345 15.8281L28.2081 15.6874C28.1906 15.6611 28.1554 15.6435 28.1202 15.6347C27.9181 15.6347 27.9005 15.8632 27.9093 15.9511C27.9005 15.9687 27.8917 16.3905 28.173 16.496H28.1642ZM34.4923 14.5976C34.8615 14.7734 35.5558 14.6943 35.5294 14.1054L35.5119 13.8241C35.4327 13.6484 35.2306 13.6923 35.1867 13.8681C35.1691 13.9296 35.213 14.0263 35.1515 14.0614C35.1251 14.0878 35.0021 14.0702 35.0109 13.9032C35.0109 13.8505 34.9757 13.7978 34.9493 13.7626C34.923 13.745 34.9142 13.745 34.8615 13.745C34.8175 13.745 34.8175 13.7626 34.7911 13.8066L34.7648 13.9384C34.756 13.9999 34.7296 14.0263 34.6857 14.0263C34.6417 14.0263 34.6505 14.0263 34.6154 14.0087C34.589 13.9823 34.5626 13.9736 34.5626 13.9296C34.5626 13.8857 34.5538 13.8154 34.5363 13.7802C34.5187 13.7538 34.4835 13.745 34.4484 13.7363C34.2462 13.7363 34.2286 13.9648 34.2374 14.0527C34.2286 14.0702 34.2199 14.4833 34.5011 14.5976H34.4923ZM37.7706 19.37C37.129 20.0995 37.4103 21.3036 37.5597 21.5673C37.7706 21.9892 37.9376 22.2616 38.3507 22.4726C38.7286 22.745 39.0275 22.5781 39.1857 22.3847C39.5636 21.9892 39.5724 20.9784 39.7482 20.7851C39.8712 20.4159 40.1876 20.4775 40.337 20.6445C40.4768 20.8429 40.6642 21.0031 40.882 21.1103C41.2335 21.4179 41.6554 21.4794 42.0773 21.1982C42.3585 21.0312 42.5431 20.829 42.7101 20.4159C42.8859 19.9238 42.798 17.6386 42.754 16.2851L42.3849 14.3954C42.3849 14.3779 42.341 13.4989 42.297 13.2968C42.297 13.2089 42.2706 13.1825 42.3585 13.1913C42.4552 13.2792 42.464 13.2792 42.5343 13.3056C42.6222 13.3232 42.7101 13.1562 42.6486 13.0156L41.7697 11.3808C41.6993 11.3105 41.6027 11.2402 41.4884 11.3984C41.421 11.4594 41.3673 11.534 41.331 11.6174C41.2946 11.7007 41.2764 11.7908 41.2775 11.8818C41.3038 12.2685 41.3654 12.664 41.3917 13.0507L41.7433 15.037C41.8576 16.4433 41.8839 17.6034 41.9982 19.0185C41.9806 19.6161 41.796 20.1347 41.6202 20.2138C41.6202 20.2138 41.3566 20.3632 41.1808 20.1962C41.049 20.1435 40.5304 19.3261 40.5304 19.3261C40.2667 19.0888 40.091 19.1503 39.9064 19.3261C39.379 19.8359 39.1505 20.7675 38.7902 21.4179C38.7023 21.5673 38.4386 21.6816 38.1574 21.4091C37.4367 20.4159 37.8585 19.0097 37.7706 19.37V19.37ZM34.6593 11.1347C34.9933 11.2665 35.2218 11.9433 35.1515 12.2773C35.0812 12.6728 34.9054 13.1122 34.7824 13.0595C34.6417 13.0068 34.8702 12.6552 34.7384 12.2861C34.6681 12.04 34.2111 11.6005 34.2638 11.4775C34.1759 11.205 34.4572 11.082 34.6593 11.1259V11.1347Z" fill="white"/>
<path fill-rule="evenodd" clip-rule="evenodd" d="M38.8404 19.7745C38.902 18.9659 38.7877 18.4737 38.7701 17.9991C38.7525 17.5245 38.234 13.9034 38.1285 13.5518C37.9967 12.8663 38.6295 13.464 38.5592 13.0597C38.3395 12.5675 37.8033 11.838 37.6363 11.4073C37.5309 11.2315 37.5748 11.0558 37.3463 11.3634C37.1495 11.9027 37.0803 12.4803 37.1441 13.0509C37.6891 15.8897 38.2428 18.2452 38.1549 20.9434C38.4186 20.9434 38.7086 20.3546 38.8404 19.7745V19.7745ZM44.5006 12.2774C44.8082 12.4268 44.984 13.2706 44.9488 13.5079C44.8873 13.9474 44.7291 14.422 44.6149 14.3604C44.483 14.3077 44.6412 13.71 44.5797 13.5255C44.5094 13.2618 44.0963 12.7872 44.1402 12.6466C44.0524 12.3477 44.316 12.2247 44.5006 12.2774V12.2774ZM22.027 18.2452C22.317 18.3595 22.4928 18.9747 22.4664 19.1505C22.3961 19.4757 22.2467 19.8272 22.1324 19.7745C22.0182 19.7393 22.1588 19.2999 22.1061 19.1593C22.0797 18.8341 21.6754 18.6583 21.6842 18.5177C21.6139 18.254 21.86 18.21 22.0357 18.2452H22.027Z" fill="white"/>
<path fill-rule="evenodd" clip-rule="evenodd" d="M29.0277 19.1777C29.3969 19.1953 29.5814 19.4941 29.2386 19.6172C28.8871 19.7314 28.5619 19.8281 28.5531 20.3203C28.6849 21.0234 28.3773 20.7773 28.2015 20.6895C27.9906 20.5312 27.3929 20.1621 27.3051 19.3711C27.2963 19.1865 27.4457 19.0195 27.683 19.0195C28.0345 19.1162 28.5619 19.125 29.0277 19.1777V19.1777Z" fill="#1B9D00"/>
<path fill-rule="evenodd" clip-rule="evenodd" d="M14.3029 10.9322C14.7248 11.0552 14.7512 11.6881 14.7248 11.8726C14.6633 12.2066 14.5139 12.567 14.4084 12.523C14.2854 12.4791 14.4084 12.022 14.3469 11.8814C14.2854 11.6881 13.925 11.3189 13.9602 11.2134C13.8811 10.9937 14.1359 10.8882 14.3029 10.9322V10.9322ZM22.7316 13.8853C22.3977 14.0611 22.2746 14.5884 22.4768 14.9048C22.6701 15.1685 22.9689 15.0718 23.0041 15.0718C23.3293 15.107 23.5227 14.4654 23.5227 14.4654C23.5227 14.4654 23.5314 14.2896 23.1535 14.6324C22.9865 14.6588 22.9777 14.5972 22.9338 14.5093C22.8936 14.342 22.909 14.1661 22.9777 14.0084C23.0393 13.8502 22.9162 13.7798 22.7316 13.8853ZM25.1926 10.6861C25.0168 10.8004 24.6916 11.1431 24.6828 11.5298C24.674 11.7496 24.6301 11.7496 24.7707 11.8814C24.885 12.0396 24.9816 12.0308 25.1926 11.9166C25.2451 11.8835 25.2902 11.8398 25.325 11.7884C25.3598 11.7369 25.3836 11.6788 25.3947 11.6177C25.4475 11.3716 25.1311 11.7408 25.0959 11.4595C25.0256 11.1959 25.2277 11.0904 25.4211 10.8443C25.4211 10.6685 25.4211 10.5543 25.1838 10.6861H25.1926ZM27.1613 11.0377C27.0838 11.3577 27.0368 11.6843 27.0207 12.0132C26.968 12.2593 27.2844 12.3648 27.4162 12.0484C27.6272 11.4771 27.6271 11.231 27.6447 10.9937C27.5832 10.6158 27.3283 10.6246 27.1613 11.0377ZM39.6418 17.3922C39.677 17.3482 41.3996 16.1265 41.3996 16.1265C41.5754 16.065 41.5314 16.7593 41.4523 16.7506C40.9181 17.2654 40.3036 17.6899 39.633 18.0074C39.5451 18.0689 39.466 17.5416 39.633 17.3922H39.6418ZM41.1975 17.3746C41.5051 17.524 41.6281 18.4117 41.593 18.649C41.593 19.1236 41.3029 19.4927 41.1799 19.44C41.0568 19.3785 41.1975 18.8511 41.1359 18.6666C41.0656 18.4029 40.8107 17.9195 40.8547 17.7789C40.7668 17.48 41.0129 17.3218 41.2062 17.3746H41.1975ZM31.0021 21.189C31.1447 21.0226 31.3105 20.8776 31.4943 20.7584C31.6701 20.6705 31.8283 20.8287 31.8195 20.8199C31.8459 20.9957 31.7141 21.1451 31.758 21.3736C31.7932 21.4615 31.8195 21.567 31.9865 21.5318C32.259 21.3121 32.5139 21.2945 32.7775 21.2857C32.9973 21.2945 33.0061 21.6548 32.8654 21.6548C32.3645 21.7603 32.1447 21.9009 31.7844 22.0328C31.6086 22.1382 31.468 22.0064 31.468 21.9976C31.468 21.9888 31.3713 21.9009 31.4328 21.6724C31.4504 21.4966 31.3801 21.3912 31.2219 21.4088C31.1164 21.4791 31.0109 21.5142 30.9582 21.3824C30.9318 21.2945 30.923 21.2418 31.0021 21.189V21.189ZM43.008 21.6636C43.0783 21.7515 43.1311 21.8394 42.9992 21.9976L42.674 22.2789C42.6213 22.3668 42.5861 22.525 42.7619 22.5689C43.0783 22.6568 43.8166 22.1734 43.8166 22.1646C43.9396 22.0767 43.9045 21.9009 43.8869 21.9009C43.8166 21.8218 43.6584 21.8746 43.5529 21.857C43.5002 21.857 43.3332 21.8394 43.4123 21.6812C43.4713 21.6036 43.5187 21.5177 43.5529 21.4263C43.5969 21.3209 43.5529 21.2506 43.3771 21.189C43.1926 21.1539 43.1135 21.1715 42.9113 21.189C42.8059 21.2066 42.7707 21.2593 42.7443 21.3912C42.7531 21.5933 42.8762 21.5845 43.008 21.6548V21.6636Z" fill="white"/>
<path fill-rule="evenodd" clip-rule="evenodd" d="M31.0661 16.6737C31.0222 16.7615 30.864 16.7615 30.7146 16.6737C30.5651 16.5858 30.4773 16.4451 30.53 16.366C30.5827 16.2869 30.7321 16.2869 30.8815 16.366C31.031 16.4451 31.1101 16.5946 31.0661 16.6737ZM23.2439 11.9627C23.156 11.9891 23.0329 11.91 22.9802 11.7869C22.9274 11.6639 22.9538 11.5584 23.0417 11.5321C23.1296 11.5057 23.2439 11.5936 23.3054 11.7078C23.3669 11.8221 23.3317 11.9451 23.2351 11.9715L23.2439 11.9627Z" fill="#259F00"/>
<path fill-rule="evenodd" clip-rule="evenodd" d="M38.7216 32.9609C39.5478 32.9961 40.3212 32.9609 41.1386 33.0049C41.288 33.1367 41.1825 33.4443 41.0859 33.4268L40.4003 33.4004C40.3915 33.1367 39.7235 33.1807 39.7411 33.4092C39.3808 33.4531 39.0556 33.4004 38.6864 33.3828C38.581 33.251 38.5986 33.0137 38.7216 32.9609V32.9609Z" fill="#209000"/>
</g>
<defs>
<clipPath id="clip0_4046_25535">
<rect width="60" height="45" fill="white"/>
</clipPath>
</defs>
</svg>
