<svg width="60" height="45" viewBox="0 0 60 45" fill="none" xmlns="http://www.w3.org/2000/svg">
<g clip-path="url(#clip0_4046_25554)">
<path fill-rule="evenodd" clip-rule="evenodd" d="M0 44.5781L86.7832 0H0V44.5781Z" fill="#0000D6"/>
<path fill-rule="evenodd" clip-rule="evenodd" d="M90 0L2.39062 45H90V0Z" fill="#006000"/>
<path fill-rule="evenodd" clip-rule="evenodd" d="M90 0H85.1748L0 42.6621V45H4.8252L90 2.42578V0Z" fill="#FFCC00"/>
<path fill-rule="evenodd" clip-rule="evenodd" d="M6.27344 0.800781L7.31055 3.83301H10.6943L7.96094 5.6875L9.00684 8.71094L6.27344 6.85645L3.54004 8.71973L4.58594 5.69629L1.85254 3.82422H5.22754L6.27344 0.800781ZM23.0693 0.800781L24.1152 3.83301H27.499L24.7568 5.69629L25.8115 8.71973L23.0605 6.85645L20.3359 8.72852L21.3818 5.70508L18.6396 3.83301H22.0234L23.0693 0.800781ZM23.0693 13.501L24.1152 16.5332H27.499L24.7568 18.3965L25.8115 21.4199L23.0693 19.5479L20.3447 21.4199L21.3906 18.3965L18.6484 16.5244H22.0322L23.0693 13.501ZM14.7197 7.22559L15.7656 10.249H19.1406L16.416 12.1211L17.4531 15.1445L14.7285 13.2725L11.9863 15.1445L13.041 12.1211L10.2988 10.249H13.6826L14.7197 7.22559ZM6.27344 13.501L7.31055 16.5332H10.6943L7.96094 18.3965L9.00684 21.4199L6.27344 19.5479L3.54004 21.4199L4.59473 18.3965L1.84375 16.5244H5.21875L6.27344 13.501Z" fill="white"/>
</g>
<defs>
<clipPath id="clip0_4046_25554">
<rect width="60" height="45" fill="white"/>
</clipPath>
</defs>
</svg>
