<svg width="60" height="45" viewBox="0 0 60 45" fill="none" xmlns="http://www.w3.org/2000/svg">
<g clip-path="url(#clip0_4046_25575)">
<path fill-rule="evenodd" clip-rule="evenodd" d="M-1.875 0H65.625V45H-1.875V0Z" fill="white"/>
<path fill-rule="evenodd" clip-rule="evenodd" d="M-1.875 0H65.625V22.5H-1.875V0Z" fill="#DF0000"/>
<path fill-rule="evenodd" clip-rule="evenodd" d="M13.6904 3.76767C11.9146 4.14929 10.3241 5.13026 9.18608 6.54587C8.04802 7.96148 7.43165 9.72553 7.44045 11.5419C7.44924 13.3582 8.08267 15.1162 9.23438 16.5207C10.3861 17.9252 11.986 18.8908 13.7654 19.2552C12.746 19.5501 11.6784 19.641 10.6239 19.5224C9.56932 19.4039 8.54854 19.0784 7.62007 18.5645C6.6916 18.0506 5.87371 17.3585 5.21331 16.5279C4.5529 15.6972 4.06298 14.7443 3.77163 13.7239C3.19298 11.6727 3.45 9.47591 4.48651 7.61371C5.52302 5.75151 7.25468 4.37546 9.30288 3.78642C10.8029 3.35517 12.1904 3.34579 13.6998 3.76767H13.6904Z" fill="white"/>
<path fill-rule="evenodd" clip-rule="evenodd" d="M12.4688 10.3133L12.9281 11.7195L11.7094 10.857L10.5094 11.7383L10.95 10.3133L9.75 9.44141L11.2406 9.42266L11.7094 8.01641L12.1781 9.42266H13.6594L12.4688 10.3133ZM14.1094 15.1883L14.5781 16.6039L13.3594 15.7414L12.15 16.6133L12.6 15.1977L11.4 14.3164L12.8906 14.307L13.35 12.8914L13.8187 14.2977H15.3187L14.1094 15.1883ZM19.5938 15.1508L20.0531 16.5758L18.8344 15.7039L17.6344 16.5758L18.075 15.1602L16.875 14.2883L18.3656 14.2695L18.8344 12.8633L19.3031 14.2695H20.7844L19.5938 15.1508ZM21.225 10.3133L21.6844 11.7289L20.4656 10.8664L19.2656 11.7383L19.7156 10.3227L18.5062 9.44141L20.0062 9.43203L20.4562 8.01641L20.925 9.42266H22.425L21.225 10.3133ZM16.8844 7.09766L17.3531 8.52266L16.1344 7.65078L14.925 8.53203L15.375 7.10703L14.175 6.22578L15.6562 6.21641L16.125 4.80078L16.5938 6.20703H18.0938L16.8844 7.09766Z" fill="white"/>
</g>
<defs>
<clipPath id="clip0_4046_25575">
<rect width="60" height="45" fill="white"/>
</clipPath>
</defs>
</svg>
