<svg width="60" height="45" viewBox="0 0 60 45" fill="none" xmlns="http://www.w3.org/2000/svg">
<g clip-path="url(#clip0_4046_25673)">
<path fill-rule="evenodd" clip-rule="evenodd" d="M-4.125 0H85.875V45H-4.125V0Z" fill="white"/>
<path fill-rule="evenodd" clip-rule="evenodd" d="M-4.125 29.9961H85.875V44.999H-4.125V29.9961Z" fill="#D50000"/>
<path fill-rule="evenodd" clip-rule="evenodd" d="M-4.125 15.0039H85.875V29.998H-4.125V15.0039Z" fill="#0000BF"/>
<path fill-rule="evenodd" clip-rule="evenodd" d="M21.4014 8.17285C21.0498 13.5869 20.8389 16.5576 20.0215 17.9287C19.125 19.4053 18.2637 20.4863 14.7744 21.7959C11.2939 20.4863 10.4326 19.4053 9.53613 17.9287C8.70996 16.5576 8.50781 13.5869 8.15625 8.17285L8.66602 7.99707C9.70313 7.68066 10.4766 7.42578 11.0479 7.31152C11.8652 7.13574 12.5684 6.94238 14.7656 6.89844C16.9629 6.93359 17.666 7.14453 18.4834 7.32031C19.0459 7.44336 19.8545 7.67188 20.8828 7.99707L21.4014 8.17285Z" fill="#D50000"/>
<path fill-rule="evenodd" clip-rule="evenodd" d="M20.8896 7.99707C20.5557 13.4023 20.2744 15.8809 19.835 17.0674C18.9912 19.1064 17.6553 20.2227 14.7725 21.2861C11.8896 20.2227 10.5537 19.1064 9.70117 17.0674C9.26172 15.8721 8.99805 13.4023 8.66406 7.98828C9.68359 7.67188 10.4746 7.42578 11.0459 7.31152C11.8633 7.13574 12.5664 6.93359 14.7637 6.89844C16.9609 6.93359 17.6641 7.13574 18.4814 7.31152C19.295 7.49672 20.0987 7.72259 20.8896 7.98828V7.99707Z" fill="#0000BF"/>
<path fill-rule="evenodd" clip-rule="evenodd" d="M14.7676 9.64844L14.8994 9.97363L15.5146 10.0615L15.1191 10.2988L15.4971 10.5537L14.9434 10.6416L14.7676 10.9404L14.5918 10.6328L14.0645 10.5625L14.416 10.2988L14.0469 10.0615L14.6357 9.97363L14.7676 9.64844V9.64844Z" fill="#FFDF00"/>
<path fill-rule="evenodd" clip-rule="evenodd" d="M19.6348 15.7852L19.292 15.5215L19.0547 15.1172L18.5801 14.7041L18.3252 14.291L17.8506 13.8604L17.6221 13.4473L17.3584 13.2451L17.2002 13.0781L16.7607 13.4561L16.5322 13.8691L16.2422 14.1328L15.917 13.8779L15.6797 13.4561L14.7744 11.8477L13.8691 13.4561L13.6318 13.8779L13.3066 14.1328L13.0166 13.8691L12.7793 13.4561L12.3486 13.0781L12.1816 13.2363L11.9268 13.4473L11.6982 13.8604L11.2236 14.291L10.9688 14.7041L10.4941 15.1172L10.2568 15.5215L9.91406 15.7852C10.1073 16.9949 10.6797 18.1121 11.5488 18.9756C12.4917 19.7825 13.585 20.3949 14.7656 20.7773C15.9553 20.4034 17.0559 19.7903 18 18.9756C18.5098 18.4482 19.459 17.2793 19.6348 15.7852V15.7852Z" fill="white"/>
<path fill-rule="evenodd" clip-rule="evenodd" d="M16.2139 7.37598L16.3545 7.70117L16.9697 7.78906L16.5654 8.02637L16.9521 8.28125L16.3984 8.36914L16.2227 8.66797L16.0469 8.36035L15.5195 8.29004L15.8711 8.02637L15.502 7.78906L16.082 7.70117L16.2227 7.37598H16.2139ZM13.3135 7.37598L13.4541 7.70117L14.0693 7.78027L13.6738 8.01758L14.0518 8.27246L13.498 8.36035L13.3223 8.65918L13.1465 8.36035L12.6191 8.28125L12.9707 8.01758L12.6016 7.78027L13.1904 7.69238L13.3223 7.36719L13.3135 7.37598Z" fill="#FFDF00"/>
<path fill-rule="evenodd" clip-rule="evenodd" d="M18.8789 17.8428H18.2285L17.6133 17.7988L16.8838 17.4473H16.0576L15.3457 17.7988L14.7744 17.8516L14.2119 17.7988L13.5 17.4473H12.665L11.9268 17.7988L11.3203 17.8516L10.6523 17.8428L10.3359 17.2979L10.3447 17.2803L11.3291 17.4473L11.9355 17.4033L12.665 17.043H13.4912L14.2119 17.3945L14.7744 17.4473L15.3457 17.3945L16.0576 17.043H16.8838L17.6221 17.3945L18.2285 17.4473L19.1777 17.2715L19.1953 17.3066L18.8701 17.8428H18.8789ZM11.2852 18.6777L11.9355 18.6338L12.665 18.2822H13.4912L14.2119 18.6338L14.7744 18.6777L15.3369 18.6338L16.0576 18.2822H16.8838L17.6133 18.6338L18.2725 18.6777L18.6943 18.1504H18.6855L18.2285 18.2734L17.6221 18.2295L16.8926 17.8779H16.0664L15.3457 18.2295L14.7832 18.2822L14.2119 18.2295L13.5 17.8779H12.665L11.9268 18.2295L11.3203 18.2822L10.8809 18.168V18.1855L11.2764 18.6777H11.2852Z" fill="#0000BF"/>
</g>
<defs>
<clipPath id="clip0_4046_25673">
<rect width="60" height="45" fill="white"/>
</clipPath>
</defs>
</svg>
