<svg width="60" height="45" viewBox="0 0 60 45" fill="none" xmlns="http://www.w3.org/2000/svg">
<g clip-path="url(#clip0_4046_25690)">
<path d="M0 0H60V45H0V0Z" fill="#EE1C25"/>
<path d="M0 0H60V30H0V0Z" fill="#0B4EA2"/>
<path d="M0 0H60V15H0V0Z" fill="white"/>
<path d="M21.8453 34.7633C17.8141 32.8227 12.0391 28.9602 12.0391 21.3383C12.0391 13.707 12.4141 10.2383 12.4141 10.2383H31.2859C31.2859 10.2383 31.6516 13.707 31.6516 21.3383C31.6516 28.9695 25.8766 32.8133 21.8453 34.7633Z" fill="white"/>
<path d="M21.8438 33.75C18.1406 31.9688 12.8438 28.425 12.8438 21.4313C12.8438 14.4375 13.1813 11.25 13.1813 11.25H30.5062C30.5062 11.25 30.8344 14.4375 30.8344 21.4313C30.8437 28.4344 25.5469 31.9688 21.8438 33.75Z" fill="#EE1C25"/>
<path d="M22.6312 19.5945C23.6344 19.6133 25.5938 19.6508 27.3281 19.0695C27.3281 19.0695 27.2906 19.6977 27.2906 20.4195C27.2906 21.1414 27.3375 21.7695 27.3375 21.7695C25.7438 21.2352 23.7656 21.2258 22.6312 21.2352V25.0977H21.0563V21.2352C19.9313 21.2258 17.9531 21.2352 16.3594 21.7695C16.3594 21.7695 16.4062 21.1414 16.4062 20.4195C16.4062 19.6883 16.3594 19.0695 16.3594 19.0695C18.0938 19.6508 20.0531 19.6133 21.0469 19.5945V17.1664C20.1375 17.1664 18.825 17.2039 17.3344 17.7008C17.3344 17.7008 17.3812 17.082 17.3812 16.3508C17.3812 15.6289 17.3344 15.0008 17.3344 15.0008C18.825 15.4977 20.1375 15.5445 21.0469 15.5352C21 13.9977 20.55 12.0664 20.55 12.0664C20.55 12.0664 21.4781 12.132 21.8438 12.132C22.2188 12.132 23.1375 12.0664 23.1375 12.0664C23.1375 12.0664 22.6875 13.9977 22.6406 15.5352C23.55 15.5445 24.8625 15.4977 26.3531 15.0008C26.3531 15.0008 26.3063 15.6289 26.3063 16.3508C26.3063 17.082 26.3531 17.7008 26.3531 17.7008C25.1517 17.3134 23.8932 17.1327 22.6312 17.1664V19.6039V19.5945Z" fill="white"/>
<path d="M21.8422 24.6836C19.9766 24.6836 18.9828 27.2617 18.9828 27.2617C18.9828 27.2617 18.4203 26.043 16.9016 26.043C15.8703 26.043 15.1203 26.9523 14.6328 27.8055C16.5078 30.7773 19.4984 32.6148 21.8422 33.7492C24.1859 32.6242 27.1859 30.7773 29.0516 27.8055C28.5641 26.9617 27.8141 26.043 26.7828 26.043C25.2641 26.043 24.7016 27.2617 24.7016 27.2617C24.7016 27.2617 23.7172 24.6836 21.8422 24.6836Z" fill="#0B4EA2"/>
</g>
<defs>
<clipPath id="clip0_4046_25690">
<rect width="60" height="45" fill="white"/>
</clipPath>
</defs>
</svg>
