<svg width="60" height="45" viewBox="0 0 60 45" fill="none" xmlns="http://www.w3.org/2000/svg">
<g clip-path="url(#clip0_4046_26462)">
<path fill-rule="evenodd" clip-rule="evenodd" d="M0 0H67.5V22.5H29.9971L0 0Z" fill="#ED2939"/>
<path fill-rule="evenodd" clip-rule="evenodd" d="M0 45H67.5V22.5H29.9971L0 45Z" fill="#002395"/>
<path fill-rule="evenodd" clip-rule="evenodd" d="M0 0L29.9971 22.5L0 45V0Z" fill="white"/>
<path d="M15.1436 16.9795L15.1523 16.6279C15.1523 16.6279 14.9678 16.3291 15.1875 16.0127C15.1875 16.0127 14.7217 15.7666 14.8359 15.3799C14.8359 15.3799 14.4141 15.2744 14.4404 14.8174C14.4404 14.8174 14.001 14.791 13.9482 14.4043C13.9482 14.4043 13.5 14.4746 13.2979 14.1055C13.2979 14.1055 12.8584 14.1934 12.7354 13.8857C12.7354 13.8857 12.3047 14.0264 12.0586 13.666C12.0586 13.666 11.6016 13.8506 11.417 13.5078C11.2324 13.8506 10.7754 13.666 10.7754 13.666C10.5293 14.0264 10.0986 13.877 10.0986 13.877C9.97559 14.1846 9.54492 14.0967 9.54492 14.0967C9.34277 14.4746 8.89453 14.3955 8.89453 14.3955C8.85059 14.7822 8.40234 14.8174 8.40234 14.8174C8.41503 14.9418 8.38311 15.0666 8.31228 15.1696C8.24144 15.2727 8.1363 15.3472 8.01562 15.3799C8.12988 15.7578 7.66406 16.0039 7.66406 16.0039C7.89258 16.3291 7.70801 16.6191 7.70801 16.6191L7.69922 16.9443L15.1436 16.9795" fill="#FFFF00"/>
<path fill-rule="evenodd" clip-rule="evenodd" d="M11.4286 13.4805L11.4416 13.505C11.5286 13.6693 11.6804 13.7085 11.8134 13.706C11.8799 13.7048 11.941 13.693 11.9856 13.6816C12.0079 13.6759 12.0259 13.6702 12.0384 13.666C12.0446 13.664 12.0494 13.6622 12.0527 13.661C12.0543 13.6604 12.0555 13.66 12.0563 13.6597L12.0572 13.6593L12.0574 13.6592L12.0686 13.6548L12.0754 13.6646C12.198 13.8411 12.3644 13.8925 12.5009 13.8999C12.5693 13.9036 12.63 13.8962 12.6737 13.8879C12.6955 13.8837 12.7131 13.8793 12.725 13.876C12.731 13.8743 12.7356 13.873 12.7387 13.872C12.7395 13.8717 12.7402 13.8715 12.7408 13.8713C12.7413 13.8711 12.7418 13.871 12.7422 13.8709L12.743 13.8706L12.7432 13.8705M10.7891 13.6592L10.7893 13.6593L10.7902 13.6597C10.791 13.66 10.7922 13.6604 10.7938 13.661C10.797 13.6622 10.8018 13.664 10.8081 13.666C10.8206 13.6702 10.8387 13.6759 10.861 13.6816C10.9057 13.693 10.9672 13.7048 11.0343 13.706C11.1686 13.7085 11.3231 13.6692 11.4151 13.5047L11.4286 13.4805" fill="black"/>
<path d="M14.9717 16.541C13.8027 16.4268 12.458 16.1455 11.4209 16.7344C10.7178 16.3213 9.75098 16.3477 8.9248 16.4268C8.47656 16.5146 7.94922 16.5146 7.47461 16.585L7.4043 16.5938C6.55176 16.6553 5.77832 16.4004 5.03125 16.0664C5.27734 17.4023 5.53223 18.7646 5.66406 20.1621C5.94531 22.2363 4.68848 23.9678 5.18945 26.0156C5.49707 27 6.57812 27.5713 7.5625 27.6855C8.5145 27.7457 9.46057 27.8779 10.3926 28.0811C10.5584 28.1219 10.7202 28.1778 10.876 28.248C11.0959 28.3441 11.2934 28.4847 11.4561 28.6611C11.9834 28.1074 12.7744 27.9492 13.5391 27.8701C14.9277 27.7031 16.6416 27.791 17.4941 26.5342V26.4639C17.96 25.7607 17.8984 24.7061 17.6963 23.915C17.6787 23.6426 17.6084 23.3965 17.5645 23.1328C16.7207 20.8916 17.4502 18.3691 17.8105 16.1016C17.3555 16.3303 16.8701 16.4931 16.3691 16.585C15.9736 16.6377 15.5342 16.6201 15.1387 16.5938L14.9629 16.5498" fill="#FF0000"/>
<path d="M16.7148 22.9844C16.7148 23.125 16.7939 23.248 16.8203 23.3799C16.9873 24.3643 17.1367 25.665 16.1348 26.2715C15.0098 26.9746 13.5508 26.6758 12.2588 27.0537C11.9951 27.124 11.6436 27.3613 11.4678 27.5283C11.3447 27.4492 11.2305 27.335 11.0811 27.2646C10.0176 26.7021 8.62891 26.8867 7.43359 26.5791C6.82715 26.3945 6.20313 25.9199 6.04492 25.3047C5.6582 23.6875 6.58984 22.3076 6.48438 20.6992C6.41406 19.4687 6.20312 18.2998 5.92188 17.1484C6.8623 17.5879 7.94336 17.6582 8.99805 17.4473C9.81155 17.2979 10.6504 17.3739 11.4238 17.667C11.8281 17.4912 12.3027 17.4121 12.7422 17.3682C13.5596 17.4561 14.4473 17.5967 15.2998 17.5967C15.8711 17.5615 16.3896 17.4033 16.8818 17.1836C16.5918 19.082 16.0205 21.0684 16.7148 22.9844Z" fill="#80CFE1"/>
<path d="M15.0293 23.3623V21.5693H15.2402L12.5156 19.8115L12.5068 18.8887H12.7705L11.3994 17.9219L10.0459 18.8887H10.3096V19.8115L7.59375 21.5693H7.81348V23.3535H15.0293" fill="white"/>
<path fill-rule="evenodd" clip-rule="evenodd" d="M11.4038 17.8398L12.9613 18.9619H12.5732L12.5822 19.775L15.447 21.6313H15.0914V23.3639H15.031V23.4143H7.75629V21.6313H7.39062L10.2547 19.7754L10.2457 18.9518H9.85572L11.4038 17.8398ZM14.9705 23.2934V21.5104H15.0381L12.462 19.8412L12.4509 18.841H12.5867L11.4037 17.9888L10.2312 18.8309H10.3652L10.3763 19.8407L7.79951 21.5104H7.87718V23.2934H14.9705Z" fill="black"/>
<path d="M15.876 25.708V26.2617H7.07812V25.6992H15.8672" fill="white"/>
<path fill-rule="evenodd" clip-rule="evenodd" d="M7.01562 25.6406H15.9428V26.3256H7.01562V25.6406ZM7.13652 25.7615V26.2047H15.8219V25.7615H7.13652Z" fill="black"/>
<path d="M7.6582 25.6738V23.7842H8.00977L7.99219 25.6914L8.00977 23.793L7.5 23.7842V23.3711L15.3574 23.3887V23.7842H14.8828V25.7002L14.874 23.7842H15.2256L15.2432 25.6826" fill="white"/>
<path fill-rule="evenodd" clip-rule="evenodd" d="M7.44531 23.3125L15.4253 23.3227V23.8465H15.2947L15.3044 25.6795L15.1835 25.6801L15.1738 23.8465H14.942L14.9518 25.6993L14.9518 25.6996L14.8309 25.7006L14.8309 25.7002L14.8101 23.7256H15.3044V23.4435L7.56621 23.4335V23.7179L7.59645 23.7191V23.7155H8.07063L8.0704 23.738L8.07062 23.738L8.04984 25.6905L7.92896 25.6892L7.94827 23.8541L7.71734 23.8449V25.6697H7.59645V23.8401L7.44531 23.834V23.3125Z" fill="black"/>
<path fill-rule="evenodd" clip-rule="evenodd" d="M8.21875 23.8281H9.40768V25.2082H9.33715L9.33658 25.2686L8.21875 25.258V23.8281ZM9.28678 25.1472V23.949H8.33964V25.1382L9.28678 25.1472Z" fill="black"/>
<path fill-rule="evenodd" clip-rule="evenodd" d="M13.4001 23.8398H14.5684L14.5794 25.2702H13.4001V23.8398ZM13.521 23.9607V25.1494H14.4576L14.4485 23.9607H13.521ZM8.57381 24.1017H9.12797V24.9882H8.52344V24.1622H8.57381V24.1017ZM8.64433 24.2226V24.8673H9.00707V24.2226H8.64433Z" fill="black"/>
<path fill-rule="evenodd" clip-rule="evenodd" d="M13.3906 21.6914H14.5695V23.1218H13.3906V21.6914ZM13.5115 21.8123V23.0009H14.4486V21.8123H13.5115ZM13.6828 24.109H14.2874V24.9954H13.6828V24.109ZM13.8037 24.2299V24.8745H14.1665V24.2299H13.8037Z" fill="black"/>
<path fill-rule="evenodd" clip-rule="evenodd" d="M8.21875 21.6836H9.3976V23.0636H9.33715V23.114H8.21875V21.6836ZM9.27671 22.9931V21.8045H8.33964V22.9931H9.27671ZM13.6697 21.9656H14.2743V22.8521H13.6697V21.9656ZM13.7906 22.0865V22.7312H14.1534V22.0865H13.7906Z" fill="black"/>
<path fill-rule="evenodd" clip-rule="evenodd" d="M10.1378 21.6836H11.3167V23.0636H11.2562V23.114H10.1378V21.6836ZM11.1958 22.9931V21.8045H10.2587V22.9931H11.1958ZM8.51562 21.9556H9.12016V22.842H8.51562V21.9556ZM8.63652 22.0765V22.7211H8.99926V22.0765H8.63652Z" fill="black"/>
<path fill-rule="evenodd" clip-rule="evenodd" d="M11.6108 21.6836L12.7897 21.6948V23.1252L11.6108 23.114V21.6836ZM11.7317 21.8056V22.9943L12.6688 23.0032V21.8146L11.7317 21.8056ZM10.4219 21.9561H11.0264V22.8426H10.4219V21.9561ZM10.5428 22.077V22.7217H10.9055V22.077H10.5428Z" fill="black"/>
<path fill-rule="evenodd" clip-rule="evenodd" d="M11.8906 21.9531H12.5052V22.8396H11.8906V21.9531ZM12.0115 22.074V22.7187H12.3843V22.074H12.0115Z" fill="black"/>
<path d="M12.9805 22.6562L12.998 25.6973H9.93066L9.92188 22.6562H12.9717" fill="white"/>
<path fill-rule="evenodd" clip-rule="evenodd" d="M10.5359 19.0039H12.2891V19.8904H10.5359V19.0039ZM10.6568 19.1248V19.7695H12.1682V19.1248H10.6568ZM10.4255 20.0515H12.4096L14.2882 21.4215H8.54688L10.4255 20.0515ZM10.4649 20.1724L8.91784 21.3006H13.9173L12.3702 20.1724H10.4649ZM9.87073 22.6H13.0446L13.0551 25.763H9.88121L9.87073 22.6ZM9.99202 22.7209L9.99449 23.4663H12.9266L12.9241 22.7209H9.99202ZM12.927 23.5872H12.6821V25.6421H12.9338L12.927 23.5872ZM12.5612 25.6421V23.5872H10.3546V25.6421H12.5612ZM10.2337 25.6421V23.5872H9.99489L10.0017 25.6421H10.2337Z" fill="black"/>
<path fill-rule="evenodd" clip-rule="evenodd" d="M10.699 18.7624H12.1239L11.4114 18.2559L10.699 18.7624ZM11.4114 18.1711L11.3815 18.1289L10.3203 18.8833H12.5026L11.4414 18.1289L11.4114 18.1711ZM10.9832 19.1956H11.8497V19.6992H10.9832V19.1956ZM11.1041 19.3164V19.5783H11.7288V19.3164H11.1041Z" fill="black"/>
<path d="M15.0664 17.7539C15.3213 17.7539 15.3828 18.8086 15.3828 19.3359C15.6113 19.4062 16.0947 19.7139 16.3145 19.9863H13.8359C14.0469 19.7139 14.5303 19.4063 14.75 19.3447C14.75 18.8174 14.8027 17.7451 15.0664 17.7627" fill="white"/>
<path fill-rule="evenodd" clip-rule="evenodd" d="M14.8723 18.3598C14.8262 18.6871 14.8111 19.0819 14.8111 19.3473V19.3929L14.7673 19.4054C14.671 19.4329 14.5011 19.5217 14.3262 19.6404C14.1951 19.7292 14.0663 19.8315 13.9679 19.9316H16.1783C16.0799 19.8316 15.9508 19.7293 15.819 19.6405C15.6429 19.5219 15.4707 19.4332 15.3696 19.4056L15.325 19.3935V19.3473C15.325 19.0819 15.3099 18.6871 15.2627 18.36C15.2389 18.1958 15.2076 18.0525 15.1677 17.9516C15.1477 17.901 15.127 17.8649 15.107 17.8425C15.0875 17.8206 15.0731 17.8162 15.063 17.8162C15.0552 17.8162 15.042 17.8197 15.0231 17.8417C15.0039 17.8641 14.9838 17.9002 14.9644 17.9509C14.9258 18.052 14.8954 18.1955 14.8723 18.3598ZM14.9315 17.7628C14.9641 17.7249 15.0079 17.6953 15.063 17.6953C15.1185 17.6953 15.1632 17.7239 15.1972 17.762C15.2307 17.7995 15.2577 17.8503 15.2801 17.9071C15.3253 18.0213 15.3582 18.1757 15.3823 18.3427C15.4282 18.6598 15.4442 19.036 15.4458 19.303C15.5648 19.3448 15.7281 19.4335 15.8865 19.5402C16.0663 19.6613 16.2487 19.8116 16.3601 19.9549L16.436 20.0524H13.7102L13.7861 19.9549C13.8976 19.8116 14.0799 19.6614 14.2583 19.5403C14.415 19.434 14.5756 19.3456 14.6904 19.3036C14.6919 19.0366 14.7079 18.6602 14.7525 18.3429C14.776 18.176 14.808 18.0217 14.8515 17.9078C14.8732 17.851 14.8992 17.8003 14.9315 17.7628ZM15.5568 17.6953H15.9401L15.8387 17.8836C15.8489 17.9018 15.8604 17.9267 15.8684 17.957C15.884 18.0167 15.8848 18.095 15.839 18.1791L15.9356 18.34H15.5104L15.6092 18.1754C15.6087 18.1743 15.6082 18.1731 15.6077 18.1719C15.5988 18.1505 15.588 18.1203 15.5807 18.0854C15.5685 18.0268 15.5646 17.946 15.6068 17.8729L15.5568 17.7813V17.6953ZM15.724 18.1363C15.7626 18.0756 15.761 18.0241 15.7514 17.9877C15.7462 17.9677 15.7383 17.9514 15.7318 17.9402C15.7285 17.9347 15.7257 17.9306 15.7239 17.928C15.723 17.9268 15.7223 17.926 15.722 17.9256C15.722 17.9255 15.7219 17.9255 15.7219 17.9254C15.7219 17.9254 15.7219 17.9254 15.7219 17.9253C15.7219 17.9253 15.7219 17.9254 15.7219 17.9253L15.719 17.9219C15.6907 17.9608 15.6887 18.0109 15.6991 18.0607C15.7044 18.0862 15.7124 18.1089 15.7193 18.1254C15.721 18.1295 15.7226 18.1331 15.724 18.1363ZM15.7257 17.8384L15.7377 17.8162H15.7135L15.7257 17.8384ZM16.2073 17.8162L16.2194 17.8384L16.2314 17.8162H16.2073ZM16.2127 17.9219C16.1844 17.9608 16.1824 18.0109 16.1928 18.0607C16.1981 18.0862 16.2062 18.1089 16.213 18.1254C16.2147 18.1295 16.2163 18.1331 16.2178 18.1363C16.2563 18.0756 16.2547 18.0241 16.2451 17.9877C16.2399 17.9677 16.232 17.9514 16.2255 17.9402C16.2222 17.9347 16.2194 17.9306 16.2176 17.928C16.2167 17.9268 16.2161 17.926 16.2157 17.9256L16.2157 17.9255L16.2156 17.9253L16.2127 17.9219ZM16.1041 18.1782C16.1032 18.1762 16.1023 18.1741 16.1014 18.1719C16.0925 18.1505 16.0817 18.1203 16.0744 18.0854C16.0622 18.0268 16.0584 17.946 16.1005 17.8729L16.0579 17.7948L16.1109 17.7658V17.6953H16.4338L16.3324 17.8836C16.3426 17.9017 16.3541 17.9267 16.3621 17.957C16.3777 18.0167 16.3785 18.095 16.3327 18.1791L16.4293 18.34H16.0232L16.1041 18.1782ZM16.5028 17.7054H16.9316L16.8268 17.8849C16.8368 17.9029 16.848 17.9274 16.8558 17.957C16.8714 18.0167 16.8722 18.095 16.8265 18.1791L16.923 18.34H16.5169L16.5978 18.1782C16.5969 18.1762 16.596 18.1741 16.5951 18.1719C16.5862 18.1505 16.5754 18.1203 16.5681 18.0854C16.5559 18.0268 16.5521 17.946 16.5942 17.8729L16.5028 17.7054ZM16.7115 18.1363C16.75 18.0756 16.7484 18.0241 16.7389 17.9877C16.7336 17.9677 16.7257 17.9514 16.7192 17.9402C16.7159 17.9347 16.7131 17.9306 16.7113 17.928C16.7104 17.9268 16.7098 17.926 16.7095 17.9256C16.7094 17.9255 16.7094 17.9255 16.7094 17.9255C16.7093 17.9254 16.7092 17.9253 16.7093 17.9253L16.7064 17.9219C16.6781 17.9608 16.6761 18.0109 16.6865 18.0607C16.6918 18.0862 16.6999 18.1089 16.7067 18.1254C16.7084 18.1295 16.71 18.1331 16.7115 18.1363ZM16.7135 17.8392L16.721 17.8263H16.7065L16.7135 17.8392ZM9.97771 22.6815H10.395L10.3053 22.861C10.3148 22.88 10.326 22.9071 10.3335 22.9401C10.3471 23 10.3483 23.0794 10.3065 23.1639L10.404 23.3262H9.96875L10.0675 23.1616C10.067 23.1605 10.0665 23.1593 10.066 23.1581C10.0571 23.1367 10.0463 23.1065 10.039 23.0716C10.0267 23.0127 10.0229 22.9312 10.0659 22.8578L9.97771 22.6815ZM10.1864 23.1986L10.1823 23.2053H10.1904L10.1864 23.1986ZM10.1866 23.1313C10.2258 23.0675 10.2253 23.0096 10.2156 22.9669C10.2106 22.9449 10.203 22.9268 10.1968 22.9144C10.1938 22.9083 10.1911 22.9037 10.1893 22.9008C10.1885 22.8994 10.1878 22.8984 10.1875 22.8979C10.1874 22.8978 10.1874 22.8978 10.1873 22.8977C10.1873 22.8976 10.1873 22.8976 10.1873 22.8976L10.1866 22.8966L10.1824 22.9015C10.1493 22.9413 10.1464 22.9942 10.1574 23.0469C10.1627 23.0724 10.1708 23.0951 10.1776 23.1116C10.181 23.1197 10.184 23.1261 10.1861 23.1303C10.1862 23.1306 10.1864 23.131 10.1866 23.1313ZM10.1864 22.8284L10.1994 22.8024H10.1733L10.1864 22.8284ZM10.4311 22.6815H10.8484L10.7587 22.861C10.7682 22.88 10.7794 22.9071 10.7869 22.9401C10.8005 23 10.8018 23.0794 10.76 23.1639L10.8574 23.3262H10.4222L10.5209 23.1616C10.5204 23.1605 10.5199 23.1593 10.5194 23.1581C10.5105 23.1367 10.4997 23.1065 10.4924 23.0716C10.4801 23.0127 10.4763 22.9312 10.5193 22.8578L10.4311 22.6815ZM10.6398 23.1986L10.6357 23.2053H10.6438L10.6398 23.1986ZM10.64 23.1313C10.6792 23.0675 10.6787 23.0096 10.669 22.9669C10.664 22.9449 10.6565 22.9268 10.6503 22.9144C10.6472 22.9083 10.6445 22.9037 10.6428 22.9008C10.6419 22.8994 10.6413 22.8984 10.6409 22.8979C10.6409 22.8978 10.6408 22.8978 10.6408 22.8977L10.6407 22.8976L10.64 22.8966L10.6358 22.9015C10.6027 22.9413 10.5998 22.9942 10.6108 23.0469C10.6161 23.0724 10.6242 23.0951 10.631 23.1116C10.6344 23.1197 10.6374 23.1261 10.6395 23.1303C10.6397 23.1306 10.6398 23.131 10.64 23.1313ZM10.6398 22.8284L10.6528 22.8024H10.6268L10.6398 22.8284ZM10.9248 22.6815H11.3421L11.2524 22.861C11.2619 22.88 11.2731 22.9071 11.2806 22.9401C11.2942 23 11.2955 23.0794 11.2537 23.1639L11.3511 23.3262H10.9349L11.0158 23.1644C11.015 23.1624 11.0141 23.1603 11.0131 23.1581C11.0042 23.1367 10.9934 23.1065 10.9861 23.0716C10.9739 23.0127 10.97 22.9312 11.013 22.8578L10.9248 22.6815ZM11.1337 23.199L11.1305 23.2053H11.1375L11.1337 23.199ZM11.1337 23.1313C11.1729 23.0675 11.1724 23.0096 11.1627 22.9669C11.1577 22.9449 11.1502 22.9268 11.144 22.9144C11.1409 22.9083 11.1382 22.9037 11.1365 22.9008C11.1356 22.8994 11.135 22.8984 11.1346 22.8979C11.1346 22.8978 11.1345 22.8977 11.1345 22.8977C11.1344 22.8976 11.1344 22.8976 11.1344 22.8976C11.1344 22.8976 11.1344 22.8976 11.1344 22.8976L11.1337 22.8966L11.1295 22.9015C11.0964 22.9413 11.0935 22.9942 11.1045 23.0469C11.1098 23.0724 11.1179 23.0951 11.1247 23.1116C11.1281 23.1197 11.1311 23.1261 11.1332 23.1303C11.1334 23.1306 11.1335 23.131 11.1337 23.1313ZM11.1335 22.8284L11.1465 22.8024H11.1205L11.1335 22.8284Z" fill="black"/>
<path d="M11.4697 29.6025C12.6123 29.6025 14.0186 29.3652 14.6777 29.0312L16.1279 28.8994L16.1631 30.666C14.9326 31.3428 12.1025 31.4922 11.4785 31.4834C10.8545 31.4834 7.98926 31.3428 6.75 30.666L6.76758 28.8906L8.21777 29.0225C9.25418 29.4238 10.3585 29.6208 11.4697 29.6025" fill="#FFFF00"/>
<path fill-rule="evenodd" clip-rule="evenodd" d="M6.75482 28.8789L8.22495 29.0116L8.22757 29.0129C8.55798 29.1831 9.08511 29.3263 9.67286 29.427C10.2603 29.5276 10.9068 29.5854 11.4751 29.5854C12.0485 29.5854 12.685 29.5276 13.261 29.427C13.8373 29.3264 14.3519 29.1831 14.6824 29.0129L14.6851 29.0116L16.145 28.8891L16.1756 30.6771L16.1677 30.6815C15.5553 31.0205 14.5376 31.2272 13.598 31.3481C12.658 31.469 11.7934 31.5044 11.4851 31.4993C11.172 31.4993 10.2974 31.464 9.34598 31.3431C8.3951 31.2222 7.36473 31.0155 6.74228 30.6715L6.73438 30.6671L6.75482 28.8789ZM6.78467 28.9119L6.7648 30.6493C7.3825 30.9877 8.40291 31.1927 9.34979 31.3131C10.3001 31.4339 11.1735 31.4691 11.4852 31.4691L11.4855 31.4691C11.7919 31.4741 12.6552 31.4389 13.5942 31.3181C14.5296 31.1978 15.5374 30.9928 16.1451 30.6595L16.1153 28.9219L14.6936 29.0412C14.3589 29.2129 13.842 29.3562 13.2662 29.4568C12.6885 29.5577 12.0504 29.6157 11.4751 29.6157C10.9049 29.6157 10.2567 29.5577 9.66776 29.4568C9.08069 29.3562 8.55111 29.2129 8.21636 29.0412L6.78467 28.9119Z" fill="black"/>
<path d="M3.02708 22.0625L4.30149 22.4668L3.91477 24.5322L2.71067 24.7256C2.71067 24.7256 2.50852 23.6357 3.02708 22.0625Z" fill="#FFFF00"/>
<path fill-rule="evenodd" clip-rule="evenodd" d="M3.02226 22.0469L4.31872 22.4583L3.93146 24.547L2.69728 24.7423L2.6946 24.7278L2.70946 24.7251C2.6946 24.7278 2.6946 24.7279 2.6946 24.7278L2.69455 24.7276L2.69444 24.727L2.694 24.7245C2.69363 24.7223 2.69309 24.7191 2.6924 24.7149C2.69103 24.7064 2.68911 24.6939 2.68685 24.6773C2.68233 24.6443 2.67647 24.5954 2.6711 24.5318C2.66035 24.4048 2.65151 24.2191 2.65909 23.9842C2.67424 23.5146 2.75506 22.8483 3.01754 22.061L3.02226 22.0469ZM2.72188 24.7078L3.90564 24.5204L4.28414 22.4791L3.04152 22.0847C2.7838 22.8627 2.70428 23.5209 2.68929 23.9852C2.68176 24.2188 2.69055 24.4033 2.70121 24.5293C2.70654 24.5923 2.71234 24.6407 2.71679 24.6732C2.71882 24.6881 2.72058 24.6997 2.72188 24.7078Z" fill="black"/>
<path d="M3.90723 24.5117L2.70312 24.7227L3.46777 23.6328L3.90723 24.5117Z" fill="#7E7E7E"/>
<path fill-rule="evenodd" clip-rule="evenodd" d="M3.481 23.6094L3.94492 24.5264L2.67969 24.7372L3.481 23.6094ZM2.74643 24.6955L3.89939 24.5034L3.47664 23.6677L2.74643 24.6955Z" fill="black"/>
<path d="M2.25814 23.5547L3.48861 23.6426C3.51498 24.6797 3.64681 28.6523 8.39291 28.8721L8.24349 30.3223C2.46908 30.375 2.02963 25.4443 2.26693 23.5547" fill="#FFFF00"/>
<path fill-rule="evenodd" clip-rule="evenodd" d="M2.27813 23.5741C2.16473 24.5219 2.21863 26.216 3.01489 27.6682C3.41487 28.3976 4.00212 29.0659 4.84968 29.5482C5.67409 30.0173 6.74557 30.3108 8.13201 30.3126L8.22653 30.2923L8.23083 30.3123C8.23263 30.3122 8.23443 30.3122 8.23623 30.3122L8.38432 28.891C6.01181 28.776 4.79187 27.7277 4.16221 26.5746C3.53729 25.4303 3.4948 24.1846 3.47939 23.6528L2.27813 23.5741ZM8.1352 30.3429C8.17324 30.3429 8.21151 30.3427 8.25002 30.3423L8.2635 30.3422L8.41769 28.8623L8.40171 28.8616C6.02895 28.751 4.81461 27.7063 4.18873 26.5602C3.56215 25.4128 3.52431 24.1619 3.5092 23.6382L3.5088 23.6245L2.26584 23.543L2.26485 23.558L2.24985 23.5562C2.13375 24.505 2.18407 26.2159 2.98839 27.6827C3.3907 28.4164 3.98169 29.0891 4.83473 29.5745C5.63733 30.0311 6.67116 30.3216 7.99674 30.3417L6.77562 30.6045L6.78198 30.6341L8.1352 30.3429Z" fill="black"/>
<path d="M19.8125 22.0781L18.5469 22.4824L18.9512 24.5391L20.1641 24.7324C20.1641 24.7324 20.3574 23.6514 19.8125 22.0781Z" fill="#FFFF00"/>
<path fill-rule="evenodd" clip-rule="evenodd" d="M19.8277 22.0547L19.8325 22.0686C20.1051 22.8609 20.191 23.5298 20.2086 24.0007C20.2175 24.2362 20.2093 24.4222 20.1988 24.5495C20.1936 24.6131 20.1878 24.662 20.1834 24.6951C20.1811 24.7117 20.1792 24.7243 20.1778 24.7327C20.1772 24.737 20.1766 24.7402 20.1762 24.7423L20.1758 24.7448L20.1757 24.7454L20.1757 24.7456C20.1757 24.7456 20.1756 24.7457 20.1608 24.7429L20.1757 24.7456L20.1729 24.7603L18.9389 24.5547L18.5312 22.4662L19.8277 22.0547ZM20.1484 24.7255C20.1497 24.7174 20.1514 24.7059 20.1534 24.6911C20.1578 24.6585 20.1635 24.6101 20.1687 24.547C20.1791 24.4209 20.1872 24.2361 20.1784 24.0019C20.161 23.5363 20.0764 22.8755 19.8087 22.0924L18.5661 22.4868L18.9645 24.5283L20.1484 24.7255Z" fill="black"/>
<path d="M18.9463 24.5225L20.1504 24.7422L19.377 23.6523L18.9375 24.5225" fill="#7E7E7E"/>
<path fill-rule="evenodd" clip-rule="evenodd" d="M19.3832 23.6289L20.1953 24.7571L18.9297 24.5357L19.3832 23.6289ZM19.3879 23.6871L18.9749 24.5129L20.1274 24.7146L19.3879 23.6871Z" fill="black"/>
<path d="M20.5908 23.5625L19.3604 23.6504C19.3428 24.6875 19.2461 28.6602 14.5 28.8799L14.6758 30.3213C20.4502 30.3916 20.8457 25.4521 20.5996 23.5625" fill="#FFFF00"/>
<path fill-rule="evenodd" clip-rule="evenodd" d="M20.6099 23.5508V23.576C20.7359 24.5199 20.7005 26.2277 19.9091 27.6915C19.5131 28.4239 18.9277 29.0954 18.0787 29.5792C17.2727 30.0386 16.2297 30.3284 14.8868 30.3414L16.1444 30.6033L16.1382 30.6329L14.7401 30.3417C14.7168 30.3416 14.6935 30.3414 14.67 30.3411L14.6567 30.3409L14.4922 28.8712L14.5083 28.8704C16.8811 28.7649 18.0853 27.7202 18.6998 26.5729C19.3151 25.4243 19.3403 24.171 19.3504 23.6472L19.3507 23.6333L20.6099 23.5508ZM14.7433 30.3115L14.6935 30.3011L14.6914 30.3111C14.6888 30.3111 14.6863 30.3111 14.6837 30.311L14.5258 28.8999C16.8982 28.7899 18.1081 27.7415 18.7264 26.5872C19.3401 25.4416 19.3701 24.1936 19.3804 23.6617L20.5803 23.583C20.7054 24.5238 20.669 26.2223 19.8825 27.6771C19.4888 28.4053 18.9072 29.0723 18.0638 29.553C17.2346 30.0255 16.1514 30.3185 14.7433 30.3115Z" fill="black"/>
<path d="M10.7078 30.4714C10.6726 30.4889 10.6199 30.4977 10.5759 30.4889L10.3474 30.4802L10.365 30.1901L10.5935 30.2077C10.6375 30.2077 10.6814 30.2165 10.699 30.2341C10.7429 30.2516 10.7605 30.2956 10.7605 30.3571C10.7605 30.4098 10.7341 30.445 10.699 30.4714M10.3211 30.9108L10.3386 30.568L10.6023 30.5856C10.6902 30.5944 10.7605 30.568 10.8045 30.5241C10.8484 30.4889 10.8748 30.4362 10.8748 30.3659C10.8792 30.3345 10.8767 30.3026 10.8676 30.2722C10.8585 30.2419 10.843 30.2139 10.822 30.1901C10.7746 30.1439 10.7123 30.1159 10.6463 30.111L10.2595 30.0846L10.2068 30.9108H10.3211ZM11.1472 30.2341H11.4285L11.5252 30.2516C11.5691 30.278 11.5867 30.3132 11.5867 30.3747C11.5867 30.4274 11.5779 30.4626 11.5427 30.4889C11.505 30.5091 11.4624 30.5182 11.4197 30.5153H11.1472V30.2341M11.1472 30.9548V30.6032L11.4109 30.612C11.4548 30.612 11.4988 30.612 11.5164 30.6296C11.5515 30.6471 11.5779 30.6823 11.5779 30.735V30.9372L11.5955 30.9636H11.7361V30.946C11.7275 30.9415 11.72 30.9352 11.7139 30.9277C11.7079 30.9201 11.7035 30.9114 11.7009 30.902C11.6952 30.879 11.6923 30.8554 11.6922 30.8317V30.7175C11.6922 30.6647 11.6746 30.6296 11.657 30.612C11.6394 30.5878 11.6149 30.5694 11.5867 30.5593C11.6218 30.5417 11.657 30.5153 11.6746 30.4889C11.6922 30.4538 11.7097 30.4186 11.7097 30.3659C11.7097 30.278 11.6658 30.2077 11.5867 30.1725C11.5368 30.1505 11.483 30.1385 11.4285 30.1374H11.033V30.9636H11.1472M12.0261 30.7878C11.9734 30.7228 11.9426 30.6428 11.9382 30.5593C11.9382 30.445 11.9558 30.3571 12.0086 30.2956C12.0353 30.2665 12.0679 30.2436 12.1044 30.2285C12.1408 30.2133 12.1801 30.2062 12.2195 30.2077C12.2577 30.2033 12.2963 30.2074 12.3327 30.2195C12.3692 30.2317 12.4025 30.2516 12.4304 30.278C12.492 30.3307 12.5183 30.4098 12.5271 30.5065C12.5339 30.5919 12.5156 30.6775 12.4744 30.7526C12.4304 30.8229 12.3601 30.8669 12.2547 30.8669C12.1492 30.8669 12.0789 30.8493 12.0173 30.7878M11.8855 30.2692C11.8346 30.3571 11.8102 30.4578 11.8152 30.5593C11.824 30.6823 11.8591 30.7878 11.9382 30.8581C11.9797 30.8987 12.0294 30.93 12.084 30.9497C12.1386 30.9694 12.1968 30.9771 12.2547 30.9723C12.3147 30.9717 12.3737 30.957 12.4271 30.9296C12.4805 30.9021 12.5268 30.8626 12.5623 30.8141C12.6245 30.7207 12.6553 30.6099 12.6502 30.4977C12.6471 30.3975 12.6099 30.3014 12.5447 30.2253C12.4656 30.1374 12.3513 30.0934 12.2019 30.1022C12.0613 30.1022 11.9558 30.1638 11.8855 30.2692M15.7527 29.0827C15.8406 29.0739 15.9109 29.0739 15.9724 29.0915C16.0603 29.1266 16.1218 29.1882 16.1658 29.2936L16.0515 29.3112C16.0322 29.2611 15.9945 29.2202 15.9461 29.197C15.8904 29.174 15.8293 29.1679 15.7703 29.1794C15.7347 29.1854 15.7008 29.1986 15.6705 29.2183C15.6403 29.2379 15.6144 29.2636 15.5945 29.2936C15.5505 29.3552 15.533 29.443 15.5505 29.5573C15.5599 29.6429 15.5969 29.7232 15.656 29.7858C15.7088 29.8386 15.7879 29.8561 15.8845 29.8473C15.953 29.8378 16.0156 29.8034 16.0603 29.7507C16.113 29.6979 16.1218 29.6276 16.1043 29.5309L15.8406 29.5749L15.8318 29.487L16.2009 29.4255L16.2713 29.8649H16.1922L16.1482 29.777L16.0603 29.8649C16.0164 29.9089 15.9548 29.9264 15.8845 29.944C15.7863 29.9614 15.6852 29.9393 15.6033 29.8825C15.5569 29.8464 15.5182 29.8013 15.4895 29.75C15.4608 29.6987 15.4427 29.6421 15.4363 29.5837C15.4219 29.524 15.42 29.462 15.4306 29.4015C15.4411 29.341 15.464 29.2834 15.4978 29.2321C15.5283 29.1896 15.5676 29.1541 15.6132 29.1283C15.6587 29.1025 15.7093 29.087 15.7615 29.0827M16.5877 29.0212L16.8513 28.9245C16.8865 28.9069 16.9216 28.9069 16.948 28.9069C17.0007 28.9069 17.0359 28.9421 17.0535 28.9948C17.0711 29.0475 17.0711 29.0915 17.0535 29.1266C17.0271 29.153 16.992 29.1794 16.9392 29.197L16.6931 29.2848L16.5877 29.0212M16.8513 29.6979L16.7283 29.3727L16.9744 29.2848C17.0046 29.27 17.0374 29.261 17.0711 29.2585C17.115 29.2673 17.1502 29.2936 17.1765 29.3464L17.2293 29.4694L17.2556 29.5309L17.2732 29.5573L17.405 29.5046V29.487C17.3787 29.487 17.3611 29.4782 17.3523 29.4518C17.3347 29.443 17.3259 29.4167 17.3172 29.3903L17.2732 29.2848C17.2556 29.2409 17.2293 29.2145 17.2117 29.197C17.184 29.1849 17.154 29.1789 17.1238 29.1794L17.1765 29.0739C17.1765 29.0388 17.1765 28.9948 17.1589 28.9509C17.1238 28.863 17.0711 28.8102 16.9832 28.8102C16.9263 28.8069 16.8693 28.8159 16.8162 28.8366L16.447 28.9684L16.7459 29.7419L16.8513 29.7067M17.8181 29.2936L17.3523 28.6081L17.8621 28.2741L17.9236 28.362L17.5017 28.6257L17.6423 28.8366L18.0379 28.5905L18.0906 28.6696L17.6951 28.9157L17.8533 29.153L18.2927 28.8718L18.3455 28.9597L17.8181 29.2936M18.2312 28.0807L18.363 27.9313C18.4334 27.861 18.4949 27.8346 18.5652 27.8434C18.6443 27.8434 18.7146 27.8874 18.7937 27.9577C18.8495 28.0044 18.8919 28.0651 18.9168 28.1335C18.9343 28.1862 18.9255 28.2302 18.9168 28.2741C18.9009 28.3064 18.8801 28.336 18.8552 28.362L18.7234 28.5026L18.2312 28.0807M18.9431 28.3972C19.0398 28.2917 19.0574 28.1862 19.0047 28.0456C18.9679 27.9746 18.9171 27.9118 18.8552 27.861C18.7808 27.7906 18.6848 27.7473 18.5828 27.738C18.4773 27.7292 18.3894 27.7643 18.3103 27.8522L18.0818 28.0983L18.7146 28.652L18.9431 28.4059M19.4353 27.7643L18.7058 27.3249L18.7673 27.237L19.4968 27.6677L19.4353 27.7555M19.7254 27.2634L18.9343 26.947L19.1629 26.3932L19.2595 26.4284L19.075 26.8854L19.3123 26.9733L19.488 26.5602L19.5759 26.5954L19.4002 27.0173L19.6638 27.1227L19.866 26.6657L19.9539 26.7009L19.7254 27.2634M20.0769 26.2966L19.2507 26.1208L19.2859 25.9889L20.0506 25.7253L19.3738 25.5759L19.4002 25.4792L20.2263 25.655L20.2 25.778L19.4353 26.0417L20.1121 26.1911L20.0857 26.2966M20.0154 25.2419L20.0242 25.1364C20.0769 25.1364 20.1121 25.1364 20.1472 25.1188C20.2088 25.0837 20.2351 25.0222 20.2527 24.9343C20.2576 24.8931 20.2547 24.8513 20.2439 24.8112C20.2263 24.7497 20.1912 24.7057 20.1297 24.7057C20.0769 24.697 20.0418 24.7057 20.0242 24.7321C19.9978 24.7585 19.9802 24.8024 19.9627 24.8639L19.9187 24.9694C19.9011 25.0397 19.8748 25.0925 19.8484 25.1188C19.8132 25.1716 19.7605 25.1891 19.6902 25.1804C19.6564 25.1786 19.6234 25.1698 19.5932 25.1547C19.5629 25.1396 19.5361 25.1184 19.5144 25.0925C19.4617 25.0397 19.4441 24.9606 19.4529 24.8639C19.4617 24.7761 19.4881 24.7057 19.5408 24.653C19.5847 24.6003 19.655 24.5651 19.7517 24.5827L19.7429 24.6882C19.699 24.6882 19.655 24.6882 19.6375 24.7145C19.5847 24.7409 19.5584 24.8024 19.5496 24.8815C19.5496 24.943 19.5496 24.987 19.5847 25.0222C19.6111 25.0573 19.6375 25.0749 19.6726 25.0749C19.7166 25.0749 19.7517 25.0749 19.7693 25.0397L19.8308 24.8903L19.866 24.7761C19.8836 24.7233 19.9099 24.6882 19.9363 24.653C19.9802 24.6091 20.0418 24.5915 20.1121 24.5915C20.2088 24.6003 20.2791 24.6442 20.3054 24.7145C20.3406 24.7848 20.3582 24.8552 20.3494 24.9518C20.3445 25.0386 20.3068 25.1203 20.2439 25.1804C20.1824 25.2331 20.1121 25.2507 20.0154 25.2419M2.82399 25.1891L2.85036 25.2946C2.79762 25.3034 2.76246 25.321 2.7361 25.3473C2.69215 25.3913 2.67457 25.4616 2.69215 25.5583C2.6982 25.5951 2.71007 25.6307 2.72731 25.6638C2.76246 25.7253 2.8152 25.7516 2.87672 25.7429C2.92067 25.7341 2.94703 25.7165 2.96461 25.6813L2.99098 25.5407V25.4264C2.99098 25.3561 3.00856 25.2946 3.01735 25.2682C3.04371 25.2155 3.09645 25.1804 3.16676 25.1628C3.23707 25.154 3.30739 25.1628 3.36012 25.2155C3.42164 25.2507 3.4568 25.321 3.47438 25.4089C3.49146 25.4858 3.48218 25.5663 3.44801 25.6374C3.41286 25.7077 3.36012 25.7429 3.26344 25.7604L3.24586 25.6638C3.27833 25.6521 3.30819 25.6342 3.33375 25.611C3.3777 25.5671 3.38649 25.5055 3.3777 25.4264C3.36012 25.3561 3.34254 25.3122 3.30739 25.2946C3.29269 25.283 3.27568 25.2746 3.2575 25.27C3.23931 25.2655 3.22036 25.2649 3.20192 25.2682C3.18253 25.2674 3.16339 25.2729 3.1475 25.284C3.1316 25.2952 3.11983 25.3112 3.11403 25.3298L3.10524 25.488L3.09645 25.6022C3.0961 25.6512 3.08405 25.6994 3.06129 25.7429C3.04702 25.7714 3.02591 25.796 2.99984 25.8144C2.97377 25.8328 2.94355 25.8444 2.91188 25.8483C2.82399 25.8659 2.7361 25.8395 2.69215 25.778C2.63843 25.7186 2.60196 25.6457 2.58668 25.5671C2.57669 25.5238 2.57544 25.479 2.58298 25.4352C2.59053 25.3914 2.60673 25.3496 2.63063 25.3122C2.65246 25.2801 2.68111 25.2532 2.71453 25.2334C2.74796 25.2137 2.78533 25.2016 2.82399 25.1979M2.77125 26.279L3.58864 26.0329L3.77321 26.6042L3.67653 26.6393L3.51832 26.1735L3.27223 26.2438L3.42164 26.6833L3.32496 26.7096L3.18434 26.2702L2.90309 26.3581L3.06129 26.8327L2.9734 26.8591L2.77125 26.279M3.1316 27.2721L3.87868 26.8766L3.96657 27.0173L3.44801 27.5534L4.19508 27.4304L4.27418 27.5622L3.52711 27.9577L3.47438 27.8698L3.91383 27.6325L3.99293 27.5973L4.10719 27.5358L3.36012 27.6677L3.30739 27.571L3.81715 27.0261L3.79078 27.0436L3.70289 27.0876C3.67764 27.1042 3.6512 27.1188 3.62379 27.1315L3.18434 27.36L3.1316 27.2721M4.52028 28.3708C4.48512 28.362 4.44996 28.3356 4.41481 28.3005L4.25661 28.1423L4.46754 27.9489L4.62575 28.1071C4.65206 28.1319 4.673 28.1618 4.68727 28.195C4.70485 28.2389 4.68727 28.2829 4.64332 28.3268C4.59938 28.362 4.55543 28.3796 4.52028 28.3708ZM3.92262 28.4411L4.18629 28.2038L4.36207 28.3884C4.43239 28.4499 4.49391 28.4763 4.55543 28.4763C4.62071 28.4754 4.68335 28.4503 4.73121 28.4059C4.7756 28.3581 4.80066 28.2954 4.80153 28.2302C4.80153 28.1774 4.77516 28.1159 4.72243 28.0632L4.45875 27.7995L3.84352 28.362L3.93141 28.4499M4.66969 29.1091L5.11793 28.4059L5.64528 28.7223L5.59254 28.8102L5.15309 28.5466L5.02125 28.7663L5.41676 29.0036L5.37282 29.0915L4.96852 28.8454L4.8191 29.0827L5.25856 29.3464L5.20582 29.4343L4.66969 29.1091ZM5.98805 28.9684L6.26051 29.0563L6.3484 29.1003C6.38356 29.1354 6.39235 29.1794 6.36598 29.2321C6.3484 29.2848 6.33082 29.32 6.28688 29.3288L6.15504 29.32L5.90016 29.2321L5.98805 28.9684M5.75953 29.6628L5.87379 29.3288L6.11989 29.4079C6.16383 29.4167 6.20778 29.4343 6.21657 29.4518C6.24293 29.4782 6.25172 29.5222 6.24293 29.5749L6.19899 29.7067L6.1902 29.7682V29.7946L6.32203 29.8386V29.821L6.30446 29.7595L6.32203 29.6979L6.35719 29.5925C6.36598 29.5397 6.37477 29.5046 6.35719 29.487C6.35719 29.4606 6.33082 29.4343 6.30446 29.4079C6.3484 29.4079 6.39235 29.3903 6.41871 29.3639C6.44508 29.3376 6.47145 29.3024 6.48024 29.2585C6.51539 29.1706 6.49782 29.0915 6.4275 29.0388C6.38569 29.0043 6.33807 28.9775 6.28688 28.9597L5.90895 28.8454L5.64528 29.6276L5.75953 29.6628" fill="#009FC5"/>
<path d="M6.90167 15.4322C6.98956 15.1949 7.89484 14.5533 10.8392 14.8346C10.8392 14.8346 11.3402 15.1422 11.6302 15.0982C11.806 15.0807 11.5423 15.1158 11.3138 14.9313C11.0941 14.7555 11.0501 14.3775 11.5511 14.3951C12.0609 14.4039 13.9505 14.5094 13.9857 14.6852C14.0208 14.8522 12.9837 14.9225 12.6058 14.9137C12.2191 14.9049 12.2542 15.0982 12.6409 15.0895C13.845 15.0367 15.1546 14.6149 16.5345 15.5992C16.7015 15.7135 16.1214 15.7311 15.6732 15.5465C15.6732 15.5465 14.4427 15.608 13.9153 15.5201C13.9153 15.5201 13.5198 15.8541 12.9837 15.819C13.054 15.9947 12.7903 16.6275 11.138 16.1441C10.8568 16.232 9.86359 16.399 9.96906 16.1002C9.70539 16.1002 9.24835 16.1881 9.17804 16.0387C9.10773 15.8893 9.98664 15.6695 10.1448 15.5113C10.1448 15.5113 8.28156 15.5289 7.92999 15.3971C7.92999 15.3971 6.83136 15.6432 6.90167 15.4322" fill="#BC715F"/>
<path d="M7.49702 18.0354C7.53217 17.9827 7.54975 17.8772 7.63764 17.886C7.81342 17.9299 7.94526 18.2727 8.16499 18.053C8.25288 18.0354 8.27924 18.1409 8.34077 18.1584C8.38471 18.343 8.54292 18.1145 8.64838 18.1321C8.89448 18.0266 9.18452 18.0002 9.47456 18.0442C9.47456 18.2375 9.33393 18.4397 9.15815 18.5452C9.15815 18.7209 9.33393 18.844 9.32514 19.0285C9.29877 19.0989 9.32514 19.2043 9.21967 19.2307C9.07905 19.2043 8.956 19.1955 8.84174 19.1164C8.82417 19.1077 8.81538 19.0813 8.78901 19.0901C8.77143 19.1516 8.8769 19.2131 8.91206 19.2746C8.84174 19.3889 8.73628 19.2834 8.6396 19.2834C8.61323 19.3537 8.6396 19.4328 8.56928 19.4768C8.45503 19.4768 8.42866 19.345 8.35835 19.2834C8.27924 19.3625 8.41108 19.4065 8.42866 19.468C8.37592 19.7141 8.38471 19.9514 8.14741 20.1096L7.98042 20.1887C7.93647 20.0657 7.96284 19.8811 7.93647 19.7493C7.84858 19.9075 7.76069 20.0481 7.62885 20.1799C7.45307 20.1272 7.36518 19.9338 7.33003 19.7668C7.29418 19.6747 7.2859 19.5741 7.30619 19.4774C7.32647 19.3806 7.37445 19.2919 7.44428 19.2219C7.40034 19.134 7.22456 19.1516 7.19819 19.011C6.93452 18.8352 6.80268 19.301 6.63569 19.0637C6.60981 18.9464 6.61225 18.8246 6.64282 18.7085C6.67339 18.5923 6.7312 18.4851 6.81147 18.3957C6.76752 18.3078 6.64448 18.3254 6.57417 18.2727C6.41596 18.1321 6.17866 17.9914 6.19624 17.7453C6.41683 17.6655 6.65566 17.6504 6.88457 17.7018C7.11348 17.7531 7.32293 17.8689 7.48823 18.0354" fill="#008737"/>
<path d="M7.72484 18.0088C7.71605 18.2109 7.85667 18.0615 7.97093 18.1846C7.88304 18.1494 7.82152 18.334 7.73363 18.2285L7.68089 18.2813C7.71605 18.3516 7.76878 18.3604 7.71605 18.4395C7.62816 18.4746 7.60179 18.3516 7.55785 18.3076C7.55785 18.29 7.57543 18.2549 7.54027 18.2373C7.48753 18.2813 7.4348 18.2988 7.36449 18.29C7.34691 18.2549 7.30296 18.2021 7.34691 18.167C7.41722 18.0791 7.52269 18.2021 7.57542 18.1406C7.58421 18.0791 7.53148 18.0088 7.60179 17.9648C7.64574 17.9736 7.70726 17.9473 7.72484 18.0088M8.26976 18.1758C8.27855 18.2109 8.25218 18.2637 8.30492 18.2988C8.37523 18.2637 8.44554 18.29 8.4807 18.3516C8.4807 18.3867 8.48949 18.4395 8.44554 18.457L8.34007 18.4307C8.34886 18.4131 8.31371 18.4043 8.30492 18.3779C8.26097 18.3691 8.22582 18.4043 8.19945 18.4307C8.22582 18.4658 8.28734 18.4922 8.26976 18.5361C8.20824 18.5977 8.18187 18.4834 8.11156 18.5186C8.05882 18.501 8.12035 18.4043 8.05003 18.3691C7.96214 18.3691 8.02367 18.5098 7.90941 18.457C7.87425 18.4131 7.8391 18.3516 7.87425 18.3076C7.90028 18.2922 7.93058 18.2856 7.96066 18.2887C7.99074 18.2919 8.019 18.3047 8.04125 18.3252C8.11156 18.2461 8.11156 17.9648 8.27855 18.1758M7.593 18.4658C7.63695 18.5361 7.57542 18.624 7.63695 18.6943C7.72484 18.5186 7.81273 18.7295 7.9182 18.7119C7.95335 18.7559 7.92699 18.8086 7.93578 18.8525C7.80394 18.8877 7.64574 18.9316 7.53148 18.8262L7.49632 18.8613C7.56664 18.9229 7.62816 19.002 7.57542 19.1074C7.47874 19.125 7.32054 19.1338 7.2766 19.0283C7.25023 18.9404 7.33812 18.8877 7.24144 18.8174C7.17992 18.9053 7.17992 19.0107 7.04808 18.9316C7.01034 18.9111 6.98198 18.8768 6.96888 18.8359C6.95579 18.7949 6.95897 18.7506 6.97777 18.7119C7.06566 18.5713 7.22386 18.7119 7.31175 18.6504C7.32933 18.5273 7.28539 18.4219 7.39964 18.3604C7.48753 18.3428 7.53148 18.4131 7.593 18.4658" fill="#FFFF00"/>
<path d="M7.9668 18.5458C7.92285 18.7479 7.77344 18.537 7.70312 18.5282C7.79102 18.3524 7.85254 18.5809 7.9668 18.5458ZM8.44141 18.7655C8.33594 18.7918 8.35352 18.66 8.30078 18.6073L8.34473 18.5721C8.37988 18.6161 8.40625 18.704 8.44141 18.7655" fill="white"/>
<path d="M8.29688 18.7218C8.32324 18.7921 8.22656 18.8537 8.31445 18.8976L8.38477 18.8361C8.46387 18.8537 8.54297 18.8713 8.5957 18.9416C8.64844 19.091 8.49902 19.091 8.41992 19.1349H8.33203C8.34961 19.0822 8.28809 19.0646 8.2793 19.047C8.26241 19.0411 8.24411 19.0404 8.22683 19.0451C8.20955 19.0498 8.19413 19.0597 8.18262 19.0734C8.2002 19.1613 8.31445 19.2492 8.2002 19.3283C8.09473 19.3283 7.93652 19.3634 7.94531 19.2228C7.91016 19.1349 8.05078 19.0207 7.90137 19.0119C7.84863 19.1261 7.7959 19.2228 7.66406 19.1261L7.68164 18.9679C7.80469 18.9679 7.9541 18.9943 8.00684 18.8537C8.04199 18.757 7.94531 18.6603 8.0332 18.59C8.16504 18.5548 8.23535 18.6427 8.29688 18.7218" fill="#FFFF00"/>
<path d="M8.20986 18.9511C8.23622 19.0302 8.15712 19.039 8.11318 19.0742C8.06044 19.0742 8.02529 19.0566 7.99013 19.0214C7.96376 18.9336 8.03408 18.916 8.07802 18.8808C8.13954 18.8544 8.16591 18.9248 8.20986 18.9511" fill="black"/>
<path d="M8.13281 19C8.12402 19.0176 8.09766 19.0088 8.08008 19.0176L8.0625 18.9297C8.10645 18.9297 8.15039 18.9385 8.13281 19Z" fill="white"/>
</g>
<defs>
<clipPath id="clip0_4046_26462">
<rect width="60" height="45" fill="white"/>
</clipPath>
</defs>
</svg>
