<svg width="60" height="45" viewBox="0 0 60 45" fill="none" xmlns="http://www.w3.org/2000/svg">
<g clip-path="url(#clip0_4046_26516)">
<path d="M0 0H60V45H0V0Z" fill="#3E5EB9"/>
<path d="M0 8.4375H60V36.5625H0V8.4375Z" fill="#FFD900"/>
<path d="M0 11.25H60V33.75H0V11.25Z" fill="#B10C0C"/>
<path d="M51.4056 17.3594L48.6719 18.3269L51.3944 19.2831L54.1281 18.3269L51.4056 17.3594Z" fill="white"/>
<path fill-rule="evenodd" clip-rule="evenodd" d="M51.403 17.3008L54.2946 18.3284L51.3916 19.3438L48.5 18.3282L51.403 17.3008ZM48.8383 18.3278L51.3917 19.2246L53.9562 18.3275L51.4029 17.4201L48.8383 18.3278Z" fill="black"/>
<path d="M49.5906 18H10.1144C9.92177 18 9.76562 18.1435 9.76562 18.3206C9.76562 18.4977 9.92177 18.6412 10.1144 18.6412H49.5906C49.7832 18.6412 49.9394 18.4977 49.9394 18.3206C49.9394 18.1435 49.7832 18 49.5906 18Z" fill="#FFD900"/>
<path fill-rule="evenodd" clip-rule="evenodd" d="M10.1159 18.0578C9.94985 18.0578 9.82344 18.1805 9.82344 18.3222C9.82344 18.4638 9.94985 18.5866 10.1159 18.5866H49.5922C49.7583 18.5866 49.8847 18.4638 49.8847 18.3222C49.8847 18.1805 49.7583 18.0578 49.5922 18.0578H10.1159ZM9.71094 18.3222C9.71094 18.1097 9.89681 17.9453 10.1159 17.9453H49.5922C49.8113 17.9453 49.9972 18.1097 49.9972 18.3222C49.9972 18.5347 49.8113 18.6991 49.5922 18.6991H10.1159C9.89681 18.6991 9.71094 18.5347 9.71094 18.3222Z" fill="black"/>
<path d="M48.985 18.6412C49.0688 18.6386 49.1486 18.6049 49.2089 18.5467C49.2692 18.4885 49.3057 18.4099 49.3112 18.3262C49.3084 18.2406 49.2732 18.1593 49.2126 18.0987C49.152 18.0381 49.0706 18.0028 48.985 18M48.67 18.6412C48.7518 18.636 48.8289 18.6011 48.8869 18.5431C48.9448 18.4851 48.9797 18.4081 48.985 18.3262C48.9824 18.2425 48.9487 18.1626 48.8905 18.1023C48.8322 18.042 48.7536 18.0055 48.67 18M48.3438 18.6412C48.4275 18.6386 48.5074 18.6049 48.5677 18.5467C48.628 18.4885 48.6645 18.4099 48.67 18.3262C48.6672 18.2406 48.6319 18.1593 48.5713 18.0987C48.5107 18.0381 48.4294 18.0028 48.3438 18" fill="#FFD900"/>
<path fill-rule="evenodd" clip-rule="evenodd" d="M48.3474 17.9453C48.4473 17.9486 48.5423 17.9897 48.6129 18.0604C48.6836 18.1311 48.7248 18.226 48.7281 18.3259L48.7282 18.3287L48.728 18.3315C48.7215 18.4291 48.6789 18.5208 48.6086 18.5887C48.5382 18.6566 48.4451 18.696 48.3473 18.699L48.3438 18.5866C48.4137 18.5844 48.4802 18.5563 48.5304 18.5078C48.58 18.4599 48.6103 18.3955 48.6155 18.3268C48.6125 18.2565 48.5832 18.1898 48.5334 18.14C48.4829 18.0895 48.4151 18.0601 48.3438 18.0578L48.3474 17.9453ZM48.9887 17.9453C49.0886 17.9486 49.1835 17.9897 49.2542 18.0604C49.3249 18.1311 49.366 18.226 49.3693 18.3259L49.3694 18.3287L49.3692 18.3315C49.3627 18.4291 49.3202 18.5208 49.2498 18.5887C49.1795 18.6566 49.0863 18.696 48.9886 18.699L48.9851 18.5866C49.0549 18.5844 49.1214 18.5563 49.1717 18.5078C49.2213 18.4599 49.2515 18.3955 49.2568 18.3268C49.2538 18.2565 49.2245 18.1898 49.1746 18.14C49.1242 18.0895 49.0564 18.0601 48.985 18.0578L48.9887 17.9453ZM48.6756 17.9454C48.7732 17.9519 48.8648 17.9944 48.9328 18.0648C49.0007 18.1352 49.04 18.2283 49.0431 18.326L49.0431 18.3287L49.043 18.3314C49.0368 18.4269 48.9961 18.5168 48.9285 18.5844C48.8608 18.652 48.7709 18.6927 48.6755 18.6989L48.6682 18.5866C48.7364 18.5822 48.8006 18.5532 48.8489 18.5049C48.8966 18.4572 48.9255 18.394 48.9305 18.3268C48.9277 18.258 48.8997 18.1925 48.8518 18.1429C48.8033 18.0927 48.7378 18.0623 48.6681 18.0577L48.6756 17.9454Z" fill="black"/>
<path d="M56.8484 22.0195H3.15219C2.89123 22.0195 2.67969 22.2361 2.67969 22.5033C2.67969 22.7704 2.89123 22.987 3.15219 22.987H56.8484C57.1094 22.987 57.3209 22.7704 57.3209 22.5033C57.3209 22.2361 57.1094 22.0195 56.8484 22.0195Z" fill="#FFD900"/>
<path fill-rule="evenodd" clip-rule="evenodd" d="M3.15156 22.0808C2.92615 22.0808 2.74094 22.2683 2.74094 22.5027C2.74094 22.737 2.92615 22.9245 3.15156 22.9245H56.8478C57.0732 22.9245 57.2584 22.737 57.2584 22.5027C57.2584 22.2683 57.0732 22.0808 56.8478 22.0808H3.15156ZM2.61719 22.5027C2.61719 22.2027 2.85507 21.957 3.15156 21.957H56.8478C57.1443 21.957 57.3822 22.2027 57.3822 22.5027C57.3822 22.8026 57.1443 23.0483 56.8478 23.0483H3.15156C2.85507 23.0483 2.61719 22.8026 2.61719 22.5027Z" fill="black"/>
<path d="M45.7703 22.4984C42.5547 25.7141 38.2703 32.1453 29.7016 32.1453C22.2016 32.1453 16.8484 25.7141 13.6328 22.4984C16.8391 19.2828 22.2016 12.8516 29.7016 12.8516C38.2703 12.8516 42.5547 19.2828 45.7703 22.4984V22.4984Z" fill="white"/>
<path fill-rule="evenodd" clip-rule="evenodd" d="M13.7136 22.4999C14.0389 22.8261 14.3854 23.1839 14.7532 23.5638C16.2018 25.0597 17.981 26.8972 20.0957 28.4843C22.7681 30.4901 25.9697 32.0906 29.7029 32.0906C36.9169 32.0906 41.0796 27.5197 44.143 24.1559C44.6908 23.5543 45.2035 22.9913 45.6922 22.5C45.2035 22.0087 44.6908 21.4457 44.143 20.8441C41.0796 17.4803 36.9169 12.9094 29.7029 12.9094C25.9697 12.9094 22.7658 14.5099 20.0922 16.5157C17.9655 18.1111 16.1785 19.9595 14.7282 21.4597C14.3694 21.8308 14.0312 22.1806 13.7136 22.4999ZM45.7717 22.5L45.8115 22.4602C45.3157 21.9645 44.7936 21.3909 44.2334 20.7754C41.1718 17.4117 36.9714 12.7969 29.7029 12.7969C25.9362 12.7969 22.7088 14.412 20.0246 16.4257C17.8901 18.0271 16.0949 19.884 14.6443 21.3845C14.2716 21.7701 13.9215 22.1321 13.5943 22.4603L13.5547 22.5001L13.5944 22.5398C13.9291 22.8745 14.2874 23.2445 14.6693 23.6389C16.1181 25.1352 17.9056 26.9812 20.0281 28.5743C22.7112 30.588 25.9362 32.2031 29.7029 32.2031C36.9714 32.2031 41.1718 27.5883 44.2334 24.2246C44.7936 23.6091 45.3157 23.0355 45.8115 22.5398L45.7717 22.5Z" fill="black"/>
<path d="M28.5766 16.2172C29.4391 17.1734 28.7172 17.5578 29.6266 17.6234C30.5828 17.6891 30.0391 18.6359 30.8453 18.6734C31.4078 18.6922 30.7891 20.9422 31.3234 21.6734C31.8766 22.4516 32.3359 21.9078 32.3547 22.4609C32.3547 23.0422 30.8547 22.9766 30.8266 24.7578C30.7797 25.7797 29.5516 25.8453 29.4953 26.5016C29.4203 27.1203 31.9141 27.4672 31.8766 28.0203C31.8484 28.5828 29.1859 28.4891 29.0641 29.1172C29.0078 29.6797 32.7203 30.1484 33.0203 31.7891C32.4578 31.9766 30.8922 32.1359 29.7016 32.1453C22.2016 32.1453 16.8484 25.7141 13.6328 22.4891C16.8484 19.2828 22.2016 12.8516 29.7016 12.8516C29.7016 12.8516 27.4797 14.8859 28.5766 16.2078V16.2172Z" fill="black"/>
<path d="M20.0312 21.6466V19.0703ZM21.5838 19.0703V21.6466ZM23.1363 19.0703V21.6466Z" fill="black"/>
<path fill-rule="evenodd" clip-rule="evenodd" d="M20.4169 19.0703V21.6466H19.6406V19.0703H20.4169ZM21.1931 21.6466V19.0703H21.9694V21.6466H21.1931ZM22.7456 21.6466V19.0703H23.5219V21.6466H22.7456Z" fill="white"/>
<path d="M53.475 22.1266C52.9875 22.9609 53.85 21.8453 55.95 23.2516C56.1635 23.4279 56.3385 23.6462 56.4643 23.893C56.5901 24.1397 56.6639 24.4096 56.6812 24.6859C56.5875 24.6203 56.5031 24.4703 56.4 24.3859C56.25 24.5359 56.55 25.2297 56.5875 25.5578C56.2594 25.3703 56.2875 25.2953 56.1844 25.0703C56.2031 25.3328 56.1187 26.0828 56.2594 26.3828C55.9969 26.3078 56.0156 26.1016 55.8844 26.0547C55.9781 26.3828 55.8 26.7297 55.8469 27.1047C55.6969 26.9547 55.5281 26.8328 55.4625 26.7766C55.4437 26.9641 55.1719 27.4141 55.1625 27.5828C55.1135 27.5514 55.0716 27.5102 55.0394 27.4618C55.0071 27.4134 54.9852 27.3588 54.975 27.3016C54.6775 27.6563 54.4255 28.0468 54.225 28.4641C53.7844 28.0891 52.6688 27.1516 52.5188 26.6453C52.3875 26.9266 52.2 27.0203 51.8438 27.2266C51.6937 26.4391 51.1406 25.5578 51.4312 24.8734C51.2343 24.9952 51.0434 25.1266 50.8594 25.2672C51.0271 24.5764 51.3509 23.9333 51.8059 23.3872C52.261 22.8412 52.8352 22.4067 53.4844 22.1172L53.475 22.1266Z" fill="#333333"/>
<path fill-rule="evenodd" clip-rule="evenodd" d="M53.3726 22.2238C52.7862 22.5088 52.2665 22.9154 51.8484 23.4171C51.4263 23.9236 51.1183 24.5145 50.9446 25.1495C51.0965 25.038 51.2528 24.9325 51.4131 24.8334L51.5385 24.7559L51.4809 24.8916C51.3425 25.2174 51.4033 25.5946 51.5237 25.9978C51.566 26.1396 51.615 26.2826 51.6644 26.4267C51.6851 26.4869 51.7058 26.5473 51.7261 26.6078C51.7873 26.7904 51.8445 26.9736 51.8832 27.1532C51.8856 27.1519 51.888 27.1505 51.8904 27.1491C52.2073 26.9663 52.3665 26.8745 52.4828 26.6253L52.535 26.5133L52.5702 26.6318C52.6049 26.7492 52.6979 26.8968 52.8297 27.0608C52.9606 27.2237 53.1264 27.3986 53.3021 27.5702C53.6302 27.8907 53.99 28.197 54.2158 28.389C54.4136 27.9887 54.6585 27.6135 54.9456 27.2713L55.0101 27.1944L55.0276 27.2932C55.0367 27.3441 55.0562 27.3926 55.0848 27.4356C55.1001 27.4585 55.1178 27.4796 55.1375 27.4985C55.1468 27.4658 55.1594 27.4306 55.1736 27.3947C55.2012 27.3245 55.2372 27.2454 55.2728 27.1671L55.2732 27.1664C55.3089 27.0878 55.3443 27.0101 55.3719 26.9405C55.4001 26.8695 55.4184 26.8115 55.4223 26.7717L55.4313 26.6824L55.4995 26.7408C55.5155 26.7546 55.5394 26.7735 55.5686 26.7966C55.6295 26.8448 55.7137 26.9113 55.7986 26.9881C55.7967 26.8522 55.8173 26.721 55.8367 26.5972C55.839 26.583 55.8412 26.5688 55.8434 26.5548C55.8704 26.3795 55.8895 26.2204 55.8458 26.0674L55.8207 25.9797L55.9066 26.0104C55.951 26.0262 55.9812 26.0554 56.0051 26.0865C56.0193 26.1051 56.0338 26.128 56.0474 26.1497C56.0546 26.1611 56.0615 26.1722 56.0681 26.182C56.0962 26.2241 56.13 26.2662 56.1867 26.2993C56.1699 26.2368 56.1585 26.1665 56.1508 26.0928C56.1384 25.9737 56.1352 25.8417 56.1358 25.7121C56.1363 25.6062 56.1393 25.501 56.1421 25.4052C56.1427 25.3838 56.1433 25.3629 56.1438 25.3425C56.1469 25.23 56.1486 25.1364 56.1441 25.0735L56.2335 25.0506C56.2532 25.0938 56.2685 25.1321 56.2819 25.1655C56.2863 25.1766 56.2905 25.1871 56.2946 25.1972C56.3113 25.238 56.3263 25.2708 56.347 25.302C56.3797 25.351 56.4295 25.4 56.531 25.465C56.5188 25.4064 56.5019 25.3403 56.4826 25.2696C56.4705 25.2254 56.4574 25.1793 56.4441 25.1324C56.4238 25.0607 56.403 24.9873 56.3846 24.9168C56.354 24.7998 56.3285 24.6855 56.3205 24.5899C56.3165 24.5421 56.3167 24.497 56.3238 24.4575C56.3308 24.4182 56.3454 24.3806 56.3733 24.3526L56.4033 24.3226L56.4362 24.3495C56.4895 24.3932 56.5375 24.4523 56.5806 24.5053C56.5827 24.508 56.5849 24.5106 56.587 24.5133C56.6016 24.5312 56.6156 24.5483 56.6292 24.5642C56.6005 24.3379 56.5329 24.1179 56.429 23.9141C56.3065 23.6738 56.1362 23.4611 55.9284 23.289C54.888 22.5928 54.1573 22.5225 53.7485 22.5213C53.697 22.5212 53.6504 22.5221 53.6085 22.5231C53.6029 22.5233 53.5973 22.5234 53.5918 22.5235C53.5567 22.5244 53.5247 22.5252 53.4966 22.5251C53.4642 22.5251 53.4346 22.524 53.4095 22.5202C53.3851 22.5165 53.3593 22.5095 53.3386 22.4936C53.3154 22.4757 53.3037 22.4506 53.3021 22.4222C53.3006 22.3965 53.3074 22.3688 53.3177 22.3406C53.3293 22.3086 53.3478 22.27 53.3726 22.2238ZM53.5189 22.1553L53.524 22.1502L53.4718 22.0742C52.816 22.3666 52.236 22.8055 51.7764 23.3571C51.3167 23.9086 50.9897 24.5582 50.8203 25.256L50.7891 25.3847L50.8943 25.3043C51.0418 25.1917 51.1936 25.085 51.3495 24.9844C51.2597 25.3097 51.3271 25.6672 51.4338 26.0246C51.4767 26.1683 51.5268 26.3142 51.5764 26.459C51.5969 26.5188 51.6173 26.5784 51.6372 26.6376C51.7055 26.8413 51.7673 27.0416 51.8042 27.2352L51.8165 27.3001L51.8737 27.267C51.8979 27.253 51.9213 27.2395 51.9441 27.2264C52.2167 27.0695 52.3923 26.9684 52.5186 26.7579C52.5705 26.8695 52.6546 26.9926 52.7566 27.1195C52.8908 27.2865 53.0596 27.4644 53.2366 27.6373C53.5704 27.9633 53.9364 28.2745 54.1616 28.466C54.1753 28.4776 54.1885 28.4889 54.2011 28.4996L54.2474 28.539L54.2737 28.4842C54.4598 28.0971 54.6904 27.7333 54.9609 27.4C54.9731 27.4306 54.9884 27.46 55.0068 27.4876C55.0427 27.5414 55.0893 27.5872 55.1437 27.6221L55.2113 27.6655L55.2158 27.5853C55.2177 27.5514 55.2336 27.498 55.2608 27.429C55.2874 27.3615 55.3222 27.2848 55.3581 27.206L55.3591 27.2039C55.3944 27.1263 55.4306 27.0469 55.4591 26.9751C55.4748 26.9356 55.4887 26.8969 55.499 26.8612C55.5047 26.8657 55.5105 26.8703 55.5165 26.875C55.5984 26.9398 55.713 27.0305 55.8202 27.1377L55.9168 27.2343L55.8999 27.0987C55.8791 26.933 55.9042 26.7726 55.9297 26.6099C55.9318 26.5963 55.9339 26.5827 55.936 26.5691C55.9553 26.4443 55.9726 26.3172 55.9624 26.1907C55.963 26.1916 55.9636 26.1926 55.9642 26.1936C55.9718 26.2057 55.9801 26.219 55.9901 26.234C56.0385 26.3066 56.1076 26.3862 56.253 26.4277L56.352 26.456L56.3083 26.3628C56.2765 26.2949 56.2561 26.1981 56.2441 26.0831C56.2322 25.9689 56.2289 25.8408 56.2295 25.7126C56.23 25.6079 56.233 25.5041 56.2358 25.4083C56.2364 25.3868 56.237 25.3657 56.2376 25.3451C56.238 25.3304 56.2383 25.3159 56.2387 25.3017C56.2476 25.3193 56.2575 25.3367 56.269 25.354C56.3219 25.4333 56.4045 25.5034 56.5707 25.5984L56.6511 25.6443L56.6405 25.5523C56.6307 25.4663 56.604 25.3583 56.573 25.2448C56.5604 25.1988 56.5471 25.152 56.5338 25.105C56.5137 25.0343 56.4936 24.9631 56.4753 24.8931C56.4449 24.7769 56.4212 24.6691 56.4139 24.5821C56.4103 24.5387 56.411 24.5024 56.4161 24.474C56.4169 24.4694 56.4178 24.4651 56.4188 24.4611C56.4493 24.4925 56.4792 24.5292 56.5103 24.5676L56.5142 24.5724C56.5588 24.6273 56.6076 24.6869 56.6608 24.7242L56.7406 24.78L56.7345 24.6828C56.7168 24.4001 56.6412 24.1239 56.5125 23.8715C56.3839 23.6191 56.2048 23.3957 55.9863 23.2153L55.9845 23.2138L55.9826 23.2125C54.924 22.5036 54.1742 22.4288 53.7488 22.4276C53.696 22.4274 53.6484 22.4284 53.6063 22.4294C53.6006 22.4295 53.5949 22.4297 53.5894 22.4298C53.5542 22.4307 53.5236 22.4314 53.4967 22.4314C53.4655 22.4313 53.4416 22.4302 53.4235 22.4275C53.4054 22.4247 53.3982 22.421 53.396 22.4194C53.3959 22.4189 53.3958 22.4181 53.3957 22.4169C53.3953 22.41 53.3971 22.3965 53.4058 22.3727C53.4228 22.326 53.4594 22.2573 53.5189 22.1553Z" fill="black"/>
<path d="M51.6562 26.2955C51.8625 25.8924 52.05 25.7612 52.1812 25.4987C52.4062 25.0487 52.4437 24.6737 52.65 24.7299C52.8375 24.7862 52.8375 24.9737 52.5844 25.4237C52.3313 25.8737 52.2094 25.9674 51.6562 26.2955ZM53.025 27.2518C53.0062 26.9518 53.0906 26.8205 53.0813 26.6237C53.0438 26.2674 52.9031 26.033 53.0906 26.0143C53.2781 26.0049 53.3625 26.1174 53.3625 26.4643C53.3625 26.8205 53.3062 26.9143 53.025 27.2518ZM54.0656 27.8518C53.9813 27.4299 54.0469 27.2424 53.9906 26.9612C53.8969 26.4737 53.7188 26.1549 53.8969 26.108C54.0656 26.0612 54.1781 26.2205 54.2437 26.7174C54.3 27.2049 54.2719 27.3455 54.0656 27.8612V27.8518ZM55.1438 24.8518C54.8906 24.6643 54.7406 24.6455 54.5813 24.5237C54.3 24.2987 54.15 24.0737 54.0562 24.1862C53.9625 24.2987 54.0281 24.4299 54.3375 24.6268C54.6469 24.8237 54.7313 24.8424 55.1438 24.8518V24.8518ZM54.9656 26.2768C54.8344 25.9955 54.6844 25.9299 54.6094 25.7518C54.4594 25.433 54.4594 25.1612 54.2812 25.2268C54.1219 25.3018 54.1031 25.4424 54.2812 25.7518C54.4688 26.0518 54.5625 26.108 54.9563 26.2768H54.9656Z" fill="#B3B3B3"/>
<path d="M5.04844 22.9328C5.01094 22.6891 5.06719 22.6516 4.91719 22.4641C5.14219 22.5578 5.14219 22.8109 5.41406 22.6328C5.50781 22.5859 5.55469 22.5859 5.43281 22.3047C5.71406 22.3234 6.62344 22.6328 6.77344 22.6422C7.15781 22.6609 7.86094 22.2391 8.34844 22.7547C8.81719 23.2234 8.64844 23.7203 8.64844 24.3672C8.46094 24.2734 8.55469 24.2453 8.34844 24.0016C8.49844 24.5828 8.34844 25.6047 8.34844 26.2141C8.27344 26.0641 8.28281 26.1297 8.20781 25.9797C8.02031 26.5328 7.77656 26.6359 7.77656 27.3016C7.70156 27.0391 7.77656 27.0953 7.69219 26.9641C7.50469 27.3859 6.19219 27.7422 6.69844 28.1641C6.24844 27.9016 6.04219 27.9203 5.85469 27.6953C5.76094 27.7422 5.68594 27.8547 5.61094 27.9953C4.81406 27.6391 5.09531 26.8516 4.47656 26.3172C4.36406 26.5422 4.41094 26.5141 4.28906 26.8703C4.17656 26.3734 4.13906 26.0547 3.99844 25.6891C3.87656 25.8953 3.88594 25.8109 3.66094 26.1203C3.56719 25.5203 3.42656 25.3703 3.47344 24.9672C3.24844 25.1359 3.39844 25.0609 3.16406 25.2672C3.38906 23.7203 4.34531 22.5672 5.03906 22.9234L5.04844 22.9328Z" fill="#333333"/>
<path fill-rule="evenodd" clip-rule="evenodd" d="M5.33539 22.2344L5.43509 22.241C5.5115 22.2461 5.62593 22.2703 5.75284 22.302C5.8811 22.3341 6.02671 22.3751 6.1674 22.4155C6.21026 22.4278 6.25261 22.4401 6.2939 22.4521C6.38866 22.4795 6.47784 22.5053 6.55469 22.5265C6.6098 22.5418 6.65787 22.5545 6.69653 22.5636C6.73612 22.5729 6.762 22.5776 6.77508 22.5785C6.86153 22.5826 6.96946 22.5619 7.09791 22.5329C7.11913 22.5281 7.14083 22.5231 7.16296 22.518C7.27192 22.4928 7.39109 22.4653 7.51229 22.4489C7.80564 22.409 8.12723 22.4315 8.39035 22.7093C8.63685 22.9561 8.71615 23.2125 8.73326 23.4875C8.74172 23.6234 8.73503 23.7642 8.72653 23.909C8.72546 23.9273 8.72435 23.9458 8.72324 23.9643C8.71553 24.0927 8.7076 24.225 8.7076 24.3643V24.4629L8.61941 24.4188C8.57013 24.3942 8.53486 24.3717 8.50786 24.3462C8.48374 24.3235 8.4685 24.3004 8.45564 24.2771C8.48122 24.5267 8.47695 24.8133 8.46378 25.0972C8.45663 25.2513 8.4469 25.4044 8.43753 25.5516C8.42205 25.795 8.4076 26.0222 8.4076 26.2112L8.29215 26.2385C8.2573 26.1687 8.24284 26.1502 8.22933 26.1328L8.22824 26.1314C8.22508 26.1274 8.22192 26.1233 8.21868 26.1189C8.1634 26.2582 8.10502 26.3694 8.05214 26.4702C8.02458 26.5227 7.99851 26.5724 7.97517 26.6217C7.89447 26.792 7.83572 26.9753 7.83572 27.2987L7.71619 27.3154C7.68124 27.1931 7.67707 27.1348 7.67565 27.096C7.60978 27.1754 7.51724 27.2489 7.41985 27.3172C7.34778 27.3678 7.26984 27.4177 7.19271 27.4665C7.18347 27.4724 7.17423 27.4782 7.16502 27.4841C7.09698 27.5271 7.03013 27.5694 6.96746 27.6117C6.8222 27.7097 6.7121 27.7997 6.66535 27.8845C6.64336 27.9243 6.63775 27.9589 6.64558 27.9916C6.6537 28.0255 6.67849 28.0667 6.73567 28.1144L6.66595 28.2138C6.48229 28.1067 6.34102 28.0478 6.22208 27.9981C6.19797 27.9881 6.17478 27.9784 6.15234 27.9688C6.03366 27.9179 5.93458 27.8681 5.84196 27.7716C5.81902 27.7897 5.7959 27.8139 5.77222 27.8446C5.73548 27.8921 5.69986 27.9519 5.66293 28.0211L5.63618 28.0713L5.58429 28.0481C5.16231 27.8594 5.02589 27.5531 4.91759 27.2401C4.90594 27.2065 4.89462 27.1728 4.88334 27.1393C4.79686 26.8822 4.71218 26.6305 4.4941 26.4151C4.46686 26.4754 4.45556 26.5121 4.44341 26.5574C4.44076 26.5673 4.43806 26.5777 4.43518 26.5887C4.41912 26.6504 4.39729 26.7342 4.34494 26.8872L4.27534 27.0906L4.22785 26.8809C4.1941 26.7319 4.16723 26.5999 4.14254 26.4786C4.09274 26.2339 4.05178 26.0327 3.98109 25.8227C3.9563 25.8566 3.93563 25.8788 3.91085 25.905L3.90799 25.9081C3.86874 25.9495 3.81647 26.0048 3.70844 26.1533L3.62171 26.2725L3.59895 26.1269C3.56244 25.8932 3.51902 25.7299 3.48187 25.5902C3.4719 25.5527 3.46239 25.5169 3.45358 25.4819C3.42161 25.355 3.39949 25.24 3.40154 25.0992C3.38429 25.1156 3.37757 25.1251 3.37076 25.1347L3.37021 25.1355C3.36958 25.1364 3.36895 25.1373 3.36831 25.1382C3.34586 25.1699 3.31959 25.2071 3.20254 25.3101L3.07812 25.4196L3.10198 25.2556C3.21579 24.4731 3.51477 23.7874 3.87664 23.3404C4.05748 23.1171 4.25651 22.9503 4.45917 22.863C4.63132 22.7888 4.80714 22.7718 4.97352 22.8276C4.97229 22.812 4.97137 22.7974 4.97059 22.7837C4.97014 22.7759 4.96974 22.7686 4.96936 22.7616C4.96765 22.7302 4.96635 22.7064 4.96294 22.6834C4.95563 22.634 4.93848 22.5876 4.86782 22.4993L4.93885 22.4049C5.00446 22.4323 5.05283 22.471 5.09173 22.508C5.10784 22.5233 5.12285 22.5389 5.13627 22.5528C5.13876 22.5554 5.1412 22.5579 5.14359 22.5604C5.15935 22.5766 5.17268 22.59 5.18571 22.6011C5.2109 22.6225 5.22993 22.6309 5.2518 22.631C5.27629 22.6311 5.31526 22.6207 5.37889 22.579L5.38186 22.577L5.38503 22.5754C5.39371 22.5711 5.40092 22.5676 5.40705 22.5646C5.42105 22.5579 5.42945 22.5538 5.43693 22.5486C5.44233 22.5448 5.44249 22.5437 5.44268 22.5424C5.4427 22.5422 5.44273 22.542 5.44276 22.5418C5.44402 22.5355 5.44448 22.5189 5.43402 22.4816C5.42386 22.4453 5.40524 22.3956 5.37512 22.3261L5.33539 22.2344ZM5.00113 22.9706C4.84904 22.8957 4.68155 22.8999 4.50739 22.9749C4.32861 23.052 4.14443 23.2034 3.97136 23.4171C3.65346 23.8098 3.38141 24.4026 3.25311 25.0893C3.25918 25.0815 3.26363 25.0752 3.26772 25.0694C3.26875 25.0679 3.26976 25.0665 3.27076 25.065C3.29619 25.0291 3.32097 25.0012 3.4351 24.9156L3.54857 24.8305L3.53219 24.9714C3.5099 25.163 3.53179 25.2934 3.57177 25.4522C3.58014 25.4854 3.58935 25.5201 3.59911 25.5568C3.62874 25.6681 3.66345 25.7986 3.69532 25.9681C3.75394 25.8935 3.79051 25.8549 3.82033 25.8234L3.82231 25.8213C3.86054 25.7809 3.88581 25.754 3.9442 25.6552L4.0083 25.5467L4.05353 25.6643C4.15492 25.9279 4.20423 26.1701 4.26405 26.4639C4.27492 26.5173 4.28614 26.5724 4.29808 26.6296C4.30575 26.6021 4.31181 26.5789 4.31729 26.5578C4.3202 26.5467 4.32295 26.5361 4.32569 26.5259C4.34444 26.4559 4.36239 26.4028 4.42028 26.2871L4.45532 26.217L4.51461 26.2682C4.80401 26.5181 4.90606 26.8229 4.99904 27.1006C5.01031 27.1343 5.02144 27.1676 5.03276 27.2003C5.13285 27.4895 5.24787 27.7444 5.58332 27.9128C5.61275 27.8607 5.64324 27.8121 5.67578 27.77C5.7186 27.7146 5.76745 27.667 5.82566 27.6379L5.86882 27.6164L5.89972 27.6534C5.9842 27.7548 6.07198 27.8017 6.20035 27.8568C6.22175 27.8659 6.24423 27.8753 6.26787 27.8852C6.34082 27.9156 6.42489 27.9506 6.52295 27.9988C6.51383 27.9374 6.5292 27.879 6.55863 27.8256C6.62145 27.7117 6.75627 27.6072 6.89929 27.5107C6.96356 27.4673 7.03205 27.424 7.0999 27.381C7.10911 27.3752 7.11831 27.3694 7.12748 27.3636C7.20468 27.3147 7.2804 27.2662 7.34983 27.2175C7.49188 27.1178 7.59545 27.0248 7.63472 26.9365L7.68059 26.8332L7.74167 26.9282C7.74261 26.9297 7.74355 26.9312 7.74446 26.9326C7.77131 26.7901 7.81398 26.6772 7.86502 26.5695C7.89176 26.513 7.91983 26.4596 7.94854 26.4049C8.01455 26.2793 8.08395 26.1471 8.14832 25.9573L8.19521 25.8189L8.26054 25.9496C8.27259 25.9737 8.2822 25.9917 8.29018 26.0056C8.29575 25.8609 8.30585 25.7019 8.31629 25.5374C8.32558 25.391 8.33514 25.2403 8.34204 25.0916C8.36081 24.6868 8.36008 24.2946 8.28765 24.0139L8.39318 23.9593C8.48754 24.0709 8.52306 24.1412 8.54756 24.1897C8.55112 24.1967 8.55444 24.2033 8.55767 24.2095C8.56799 24.2292 8.57594 24.2418 8.58724 24.2534C8.58996 24.1504 8.59591 24.0514 8.60159 23.9568C8.6027 23.9383 8.6038 23.92 8.60487 23.9018C8.61337 23.7569 8.61957 23.6228 8.61162 23.4951C8.59593 23.243 8.52534 23.0167 8.30357 22.7949L8.30296 22.7943L8.30238 22.7937C8.07811 22.5565 7.80465 22.5322 7.52869 22.5696C7.41357 22.5853 7.30087 22.6112 7.19197 22.6363C7.16941 22.6416 7.14702 22.6467 7.1248 22.6517C6.9983 22.6804 6.87436 22.7053 6.76869 22.7002L6.76786 22.7001C6.74332 22.6986 6.70809 22.6916 6.66851 22.6822C6.62763 22.6725 6.57785 22.6594 6.52222 22.644C6.44463 22.6226 6.35429 22.5964 6.25916 22.5689C6.21803 22.557 6.17601 22.5448 6.13373 22.5327C5.99317 22.4922 5.84932 22.4518 5.72328 22.4203C5.64909 22.4017 5.58259 22.3867 5.52731 22.3765C5.53743 22.4035 5.54542 22.4274 5.55138 22.4487C5.56348 22.4919 5.56922 22.531 5.56227 22.5657C5.55439 22.6051 5.53212 22.6307 5.50688 22.6484C5.49065 22.6597 5.46958 22.6699 5.45239 22.6782C5.44893 22.6799 5.44563 22.6814 5.44256 22.683C5.37155 22.729 5.30953 22.7531 5.25138 22.7528C5.18975 22.7526 5.14375 22.7253 5.10683 22.694C5.09925 22.6875 5.09185 22.6808 5.08466 22.6739C5.08813 22.7005 5.08963 22.7284 5.09117 22.757C5.09152 22.7635 5.09188 22.7701 5.09226 22.7767C5.09455 22.8165 5.09792 22.8624 5.10689 22.9207L5.13519 23.1047L5.00113 22.9706Z" fill="black"/>
<path d="M4.07031 25.4728C4.26719 24.9665 4.44531 24.8165 4.58594 24.4978C4.82031 23.9259 4.85781 23.4665 5.05469 23.5321C5.24219 23.6071 5.24219 23.8321 4.97969 24.3946C4.71719 24.9571 4.60469 25.0696 4.07031 25.4728V25.4728ZM4.83906 26.7196C4.91406 26.2696 5.04531 26.1196 5.10156 25.8196C5.19531 25.3134 5.14844 24.9384 5.32656 24.9571C5.51406 24.9759 5.55156 25.1728 5.42969 25.6696C5.30781 26.1853 5.22344 26.3071 4.82969 26.7196H4.83906ZM5.75781 27.6009C5.78594 27.1696 5.88906 26.9915 5.90781 26.7103C5.93594 26.2228 5.83281 25.8665 6.00156 25.8665C6.18906 25.8665 6.24531 26.0446 6.18906 26.5321C6.13281 27.0196 6.07656 27.1509 5.75781 27.6009V27.6009ZM7.74531 24.7509C7.37031 24.3759 7.14531 24.3009 6.90156 24.0571C6.47031 23.6259 6.25469 23.2321 6.09531 23.3728C5.94531 23.5134 6.03906 23.7196 6.49844 24.1228C6.94844 24.5446 7.10781 24.6009 7.75469 24.7509H7.74531ZM7.52031 26.2134C7.27656 25.8384 7.08906 25.7353 6.92969 25.4821C6.64844 25.0603 6.55469 24.6946 6.39531 24.779C6.23594 24.8728 6.27344 25.0603 6.57344 25.4821C6.88281 25.8946 6.99531 25.9696 7.52031 26.2134Z" fill="#B3B3B3"/>
<path d="M24.5094 14.5703C24.0594 15.4328 25.2875 14.2891 27.2094 15.7328C27.6765 16.2326 27.9777 16.8646 28.0719 17.5422C27.6803 17.417 27.3032 17.2504 26.9469 17.0453C26.9469 17.0453 27.7906 17.9078 27.7906 18.8828C27.4906 18.6953 27.3406 18.7234 27.2281 18.4984C27.2281 18.8078 27.5094 19.0141 27.5094 19.5016C27.3246 19.353 27.127 19.2212 26.9188 19.1078C27.2 19.6047 26.4031 20.5609 26.8062 20.8703C26.4679 20.8238 26.1426 20.7083 25.8507 20.5309C25.5589 20.3535 25.3065 20.118 25.1094 19.8391C24.9594 19.9328 24.9406 20.0922 24.9312 20.2703C24.9594 20.2797 23.8719 19.4547 23.975 19.1453C23.8509 19.3004 23.7788 19.4907 23.7687 19.6891C23.3578 19.3467 23.0469 18.8997 22.8687 18.3953C22.7 18.6203 22.6812 18.6203 22.5031 18.8641C22.3719 18.0484 22.3719 18.0766 22.6344 17.3828C22.4526 17.5081 22.2774 17.6427 22.1094 17.7859C22.2465 17.1057 22.5329 16.4644 22.9479 15.9083C23.3629 15.3523 23.8963 14.8953 24.5094 14.5703V14.5703Z" fill="#333333"/>
<path fill-rule="evenodd" clip-rule="evenodd" d="M24.4078 14.6795C23.8536 14.9955 23.3701 15.4227 22.9879 15.9348C22.6041 16.4491 22.3314 17.0369 22.1865 17.661C22.3233 17.5492 22.4647 17.443 22.6102 17.3427L22.7338 17.2575L22.6806 17.3979C22.6752 17.4123 22.6698 17.4265 22.6646 17.4403C22.5432 17.7607 22.4852 17.9139 22.4702 18.0804C22.4559 18.2384 22.4803 18.409 22.5342 18.7453C22.585 18.678 22.6206 18.634 22.6556 18.5914C22.6595 18.5867 22.6633 18.582 22.6671 18.5774C22.7113 18.5236 22.7566 18.4683 22.8337 18.3656L22.8862 18.2956L22.9154 18.3782C23.0807 18.8464 23.3624 19.2644 23.7333 19.5932C23.7585 19.4185 23.8299 19.2531 23.9408 19.1145L24.0219 19.1586C24.0139 19.1826 24.0158 19.2172 24.0339 19.2647C24.0517 19.3115 24.083 19.3653 24.1253 19.424C24.2098 19.5412 24.3327 19.6707 24.4598 19.7919C24.5865 19.9128 24.7157 20.024 24.8117 20.1045C24.8429 20.1307 24.8705 20.1535 24.8934 20.1725C24.9073 20.0275 24.9447 19.8867 25.0869 19.7978L25.1245 19.7743L25.1501 19.8105C25.3435 20.0842 25.5911 20.3152 25.8775 20.4893C26.128 20.6415 26.4036 20.7473 26.6909 20.802C26.648 20.7226 26.6395 20.6277 26.6491 20.5282C26.6633 20.381 26.7183 20.2117 26.7748 20.043C26.7782 20.0327 26.7816 20.0225 26.785 20.0123C26.839 19.8513 26.8929 19.6902 26.9194 19.5397C26.9475 19.3793 26.9427 19.2395 26.8804 19.1294L26.7996 18.9867L26.9436 19.0651C27.1243 19.1635 27.2972 19.2756 27.4607 19.4004C27.445 19.2175 27.3877 19.0782 27.3287 18.9514C27.3209 18.9346 27.3129 18.9179 27.305 18.9012C27.2439 18.7723 27.1837 18.6453 27.1837 18.4969L27.2725 18.4759C27.3231 18.5772 27.38 18.62 27.4624 18.6612C27.486 18.673 27.5125 18.6849 27.5418 18.6981C27.5988 18.7238 27.6665 18.7543 27.7441 18.7978C27.722 18.3539 27.5281 17.9364 27.3314 17.6217C27.2273 17.4551 27.1231 17.3184 27.0449 17.2236C27.0059 17.1761 26.9734 17.1392 26.9508 17.1142C26.9395 17.1017 26.9306 17.0922 26.9247 17.0858C26.9217 17.0827 26.9194 17.0803 26.9179 17.0787L26.9163 17.077L26.9158 17.0765C26.9158 17.0765 26.9158 17.0765 26.9228 17.0696C26.9277 17.0649 26.9357 17.057 26.9493 17.0438H26.9024V16.9627L26.9727 17.0031C27.3042 17.194 27.6539 17.3512 28.0166 17.4725C27.9129 16.8341 27.6221 16.2401 27.1803 15.7663C26.2311 15.0544 25.4555 14.9812 24.9721 14.9789C24.9113 14.9786 24.855 14.9795 24.8031 14.9803C24.7987 14.9804 24.7943 14.9805 24.7899 14.9805C24.7434 14.9813 24.7002 14.982 24.6613 14.9818C24.5789 14.9813 24.5057 14.977 24.4544 14.954C24.4269 14.9417 24.4029 14.923 24.3878 14.8946C24.373 14.8668 24.3697 14.8352 24.3732 14.8022C24.3769 14.7674 24.3887 14.7267 24.4078 14.6795ZM24.5118 14.5688L24.4898 14.5273C23.8706 14.8555 23.332 15.3171 22.9128 15.8788C22.4936 16.4404 22.2043 17.0881 22.0658 17.7751L22.0391 17.908L22.1422 17.8201C22.2702 17.7109 22.4025 17.6068 22.5387 17.508C22.4434 17.761 22.3914 17.9107 22.3768 18.072C22.3603 18.2552 22.3921 18.4527 22.4534 18.8338C22.4554 18.8457 22.4573 18.8577 22.4593 18.87L22.4771 18.9809L22.5434 18.8902C22.6318 18.7691 22.6805 18.7089 22.7281 18.6508C22.7319 18.6462 22.7358 18.6415 22.7396 18.6368C22.7732 18.5959 22.808 18.5536 22.8568 18.4902C23.0416 18.9694 23.3458 19.3941 23.7412 19.7235L23.8133 19.7836L23.818 19.6899C23.8253 19.545 23.8675 19.4047 23.9401 19.2807C23.942 19.2864 23.944 19.2922 23.9462 19.298C23.9681 19.3554 24.0045 19.4168 24.0493 19.4788C24.1388 19.603 24.2666 19.7372 24.3951 19.8597C24.5238 19.9826 24.6548 20.0952 24.7515 20.1764C24.7871 20.2063 24.8183 20.232 24.8429 20.2523C24.8516 20.2596 24.8595 20.2661 24.8665 20.2719C24.8741 20.2782 24.8805 20.2835 24.8857 20.2879L24.885 20.3019L24.9188 20.3132C24.9204 20.3137 24.9233 20.3146 24.9271 20.3152C24.9299 20.3156 24.9385 20.3167 24.9488 20.3133C24.9624 20.3088 24.9758 20.2972 24.9799 20.2792C24.9812 20.2736 24.9813 20.2685 24.9809 20.2642C24.9895 20.1053 25.0071 19.9831 25.1013 19.903C25.2978 20.1704 25.545 20.3969 25.8288 20.5694C26.1262 20.7501 26.4575 20.8678 26.8023 20.9152L26.9776 20.9393L26.8372 20.8316C26.755 20.7685 26.7295 20.6709 26.7424 20.5372C26.7554 20.4026 26.8064 20.2438 26.8637 20.0727C26.8673 20.0619 26.8709 20.0511 26.8746 20.0402C26.9279 19.8811 26.984 19.7137 27.0117 19.5559C27.0326 19.437 27.0382 19.3193 27.0121 19.2116C27.1765 19.3083 27.3337 19.4169 27.4824 19.5365L27.5587 19.5979V19.5C27.5587 19.2461 27.485 19.0653 27.4137 18.9119C27.4056 18.8946 27.3977 18.8777 27.3899 18.8613C27.3586 18.795 27.3303 18.735 27.3099 18.6756C27.3434 18.7032 27.3801 18.7248 27.4205 18.7451C27.449 18.7593 27.4783 18.7725 27.5095 18.7865C27.5822 18.8192 27.6647 18.8563 27.7682 18.921L27.8399 18.9658V18.8813C27.8399 18.381 27.6239 17.9127 27.4109 17.572C27.3196 17.4259 27.2283 17.3024 27.1537 17.2089C27.4446 17.3595 27.7477 17.4855 28.06 17.5853L28.131 17.608L28.1207 17.5342C28.0253 16.847 27.7198 16.2061 27.246 15.6993L27.2432 15.6963L27.2399 15.6938C26.2688 14.9643 25.4706 14.8875 24.9726 14.8852C24.9107 14.8849 24.8535 14.8857 24.8016 14.8866C24.7972 14.8867 24.7929 14.8867 24.7886 14.8868C24.7417 14.8876 24.6996 14.8883 24.6619 14.8881C24.5767 14.8876 24.5233 14.8821 24.4927 14.8685C24.4793 14.8624 24.4735 14.8562 24.4705 14.8506C24.4673 14.8444 24.4642 14.8332 24.4664 14.8121C24.4711 14.7677 24.4971 14.6982 24.5534 14.5904L24.5118 14.5688Z" fill="black"/>
<path d="M23.4062 18.7692C23.4813 18.1786 23.6312 17.9629 23.6875 17.5692C23.7625 16.9129 23.6687 16.4067 23.9125 16.4254C24.1375 16.4442 24.2125 16.6879 24.1 17.3629C23.9781 18.0286 23.875 18.1879 23.4156 18.7786L23.4062 18.7692ZM24.6531 19.8567C24.6062 19.3692 24.7 19.1442 24.6625 18.8254C24.6156 18.2629 24.4375 17.8692 24.6437 17.8411C24.85 17.8036 24.9625 17.9911 24.9812 18.5723C25 19.1348 24.9531 19.2942 24.6531 19.8567V19.8567ZM26.6031 20.7567C26.3875 20.3161 26.2 20.1942 26.0687 19.9129C25.825 19.4161 25.7687 19.0223 25.5906 19.0879C25.4031 19.1629 25.4125 19.3692 25.6844 19.8567C25.9469 20.3254 26.0688 20.4286 26.5938 20.7567H26.6031ZM27.2687 16.8661C26.725 16.5848 26.4531 16.5848 26.1062 16.3973C25.4969 16.0786 25.1406 15.7317 25.0187 15.9286C24.8875 16.1161 25.0562 16.3129 25.6844 16.6036C26.3125 16.8942 26.5094 16.9036 27.2594 16.8661H27.2687ZM27.4562 18.4879C27.0812 18.1692 26.8375 18.1129 26.5844 17.9067C26.1344 17.5317 25.9187 17.1848 25.7781 17.3254C25.6281 17.4754 25.7219 17.6629 26.1906 18.0098C26.6594 18.3567 26.8187 18.3942 27.4656 18.4879H27.4562Z" fill="#B3B3B3"/>
</g>
<defs>
<clipPath id="clip0_4046_26516">
<rect width="60" height="45" fill="white"/>
</clipPath>
</defs>
</svg>
