<svg width="60" height="45" viewBox="0 0 60 45" fill="none" xmlns="http://www.w3.org/2000/svg">
<g clip-path="url(#clip0_4046_26697)">
<path d="M0 0H60V45H0V0Z" fill="#002395"/>
<path d="M0 0H27.45V18.45H0V0Z" fill="white"/>
<path d="M0 0H9V18H0V0Z" fill="#002395"/>
<path d="M18 0H27V18H18V0Z" fill="#ED2939"/>
<path d="M39.9375 20.5859L41.3812 22.8922H45.5062V30.9359L42.4125 26.0984L38.25 32.7359H40.275L42.4125 28.9109L46.8 36.7859L51.1875 28.9109L53.325 32.7359H55.35L51.1875 26.0984L48.0938 30.9359V26.4922H49.95L51.3281 24.2984H48.0938V22.8922H52.2188L53.6625 20.5859H39.9375V20.5859ZM44.775 30.4297H40.275V32.0047H44.775V30.4297ZM53.325 30.4297H48.825V32.0047H53.325V30.4297Z" fill="white"/>
<path d="M46.7969 38.3633L48.1806 42.6383L44.5469 39.9945H49.0469L45.4131 42.6383L46.7969 38.3633Z" fill="white"/>
<path d="M41.7344 34.5391L43.1181 38.8141L39.4844 36.1703H43.9844L40.3506 38.8141L41.7344 34.5391Z" fill="white"/>
<path d="M51.8594 34.5391L53.2431 38.8141L49.6094 36.1703H54.1094L50.4756 38.8141L51.8594 34.5391Z" fill="white"/>
<path d="M37.4609 23.1758L38.8447 27.4508L35.2109 24.807H39.7109L36.0772 27.4508L37.4609 23.1758Z" fill="white"/>
<path d="M56.1406 23.1758L57.5244 27.4508L53.8906 24.807H58.3906L54.7569 27.4508L56.1406 23.1758Z" fill="white"/>
</g>
<defs>
<clipPath id="clip0_4046_26697">
<rect width="60" height="45" fill="white"/>
</clipPath>
</defs>
</svg>
