<svg width="60" height="45" viewBox="0 0 60 45" fill="none" xmlns="http://www.w3.org/2000/svg">
<g clip-path="url(#clip0_4046_26720)">
<path d="M0 0H60V45H0V0Z" fill="#006600"/>
<path d="M0 0H60V32.1469H0V0Z" fill="white"/>
<path d="M0 0H60V12.8531H0V0Z" fill="#CC0000"/>
<path d="M28.2031 21.8986C28.2915 21.7488 28.4258 21.6316 28.5862 21.5645C28.7466 21.4973 28.9245 21.4838 29.0932 21.526C29.2619 21.5682 29.4124 21.6637 29.5223 21.7985C29.6323 21.9332 29.6957 22.0999 29.7031 22.2736V25.4986H30.3031V22.283C30.3106 22.1093 30.374 21.9426 30.4839 21.8079C30.5938 21.6731 30.7444 21.5775 30.9131 21.5354C31.0818 21.4932 31.2596 21.5067 31.42 21.5738C31.5804 21.641 31.7148 21.7582 31.8031 21.908C31.8961 21.6237 31.9204 21.3213 31.874 21.0258C31.8276 20.7303 31.7118 20.45 31.5362 20.2078C31.3606 19.9656 31.1301 19.7685 30.8636 19.6326C30.5972 19.4966 30.3023 19.4258 30.0031 19.4258C29.704 19.4258 29.4091 19.4966 29.1426 19.6326C28.8761 19.7685 28.6457 19.9656 28.47 20.2078C28.2944 20.45 28.1787 20.7303 28.1323 21.0258C28.0859 21.3213 28.1102 21.6237 28.2031 21.908" fill="#F8C300"/>
<path d="M28.6328 21.0653C28.896 21.0109 29.1697 21.0404 29.4153 21.1497C29.6608 21.2591 29.8659 21.4427 30.0016 21.6747C30.1373 21.4427 30.3423 21.2591 30.5879 21.1497C30.8334 21.0404 31.1071 21.0109 31.3703 21.0653C31.331 20.7299 31.1699 20.4206 30.9176 20.1961C30.6652 19.9717 30.3393 19.8477 30.0016 19.8477C29.6639 19.8477 29.3379 19.9717 29.0856 20.1961C28.8333 20.4206 28.6721 20.7299 28.6328 21.0653" fill="white"/>
<path d="M29.7 24.2148C29.6602 24.6717 29.4922 25.1081 29.2155 25.4739C28.9387 25.8396 28.5644 26.1198 28.1356 26.2824C27.7067 26.4449 27.2407 26.4832 26.791 26.3927C26.3414 26.3023 25.9264 26.0868 25.5938 25.7711C25.4527 26.1311 25.231 26.4541 24.9457 26.7151C24.6604 26.9761 24.3191 27.1684 23.948 27.277C23.5769 27.3856 23.1858 27.4077 22.8048 27.3417C22.4238 27.2757 22.0629 27.1233 21.75 26.8961C21.9844 29.2398 25.5 28.7617 25.7625 26.4836C26.8594 28.4242 29.2875 27.8617 30 25.4898L29.7 24.2148Z" fill="#F8C300"/>
<path d="M27.3562 28.3672C26.8594 29.4266 25.8844 29.6047 25.0312 28.7516C25.0312 28.7516 25.3688 28.5078 25.7438 28.4422C25.6688 28.1516 25.8094 27.7391 26.0156 27.5234C26.2886 27.7025 26.4908 27.971 26.5875 28.2828C27.1031 28.2172 27.3562 28.3766 27.3562 28.3766V28.3672Z" fill="#F8C300"/>
<path fill-rule="evenodd" clip-rule="evenodd" d="M36.0859 31.2266C32.1139 30.0443 27.8835 30.0443 23.9114 31.2266L23.6172 30.2382C27.7812 28.9987 32.2161 28.9987 36.3801 30.2382L36.0859 31.2266Z" fill="#F8C300"/>
<path d="M30.9704 16.7681L28.4297 14.9221H31.5702L29.0295 16.7681L30 13.7812L30.9704 16.7681Z" fill="#F8C300"/>
</g>
<defs>
<clipPath id="clip0_4046_26720">
<rect width="60" height="45" fill="white"/>
</clipPath>
</defs>
</svg>
