<svg width="60" height="45" viewBox="0 0 60 45" fill="none" xmlns="http://www.w3.org/2000/svg">
<g clip-path="url(#clip0_4046_26731)">
<path d="M0 0H60V45H0V0Z" fill="#00247D"/>
<path d="M10.1344 33.2442C9.50625 33.2348 16.0219 29.7754 21.4688 25.3317C28.6125 19.5098 43.9969 10.2004 48.525 8.68169C48.9937 8.52231 47.5594 9.48794 47.3719 9.79731C42.5437 15.5161 46.3969 26.2973 52.4344 31.7254C54.2531 33.1129 54.1594 33.1879 57.525 33.3192V33.6379L10.1344 33.2442V33.2442ZM9.74063 33.8723C9.74063 33.8723 9.28125 34.2004 9.28125 34.4442C9.28125 34.7161 9.79688 35.0723 9.79688 35.0723L56.5312 35.5879L57.3938 35.0161L56.1938 34.2754L9.74063 33.8723V33.8723Z" fill="#FED100"/>
<path d="M10.0125 10.2297L9.6375 11.3734L10.6125 10.6703L11.5781 11.3734L11.2125 10.2297L12.1781 9.52656H10.9781L10.6125 8.38281L10.2375 9.52656H9.0375L10.0125 10.2297ZM17.3344 15.6109L18.1406 15.0203H17.1375L16.8281 14.0734L16.5187 15.0203H15.525L16.3312 15.6109L16.0219 16.5578L16.8281 15.9672L17.6437 16.5578L17.3344 15.6109ZM3.72188 16.8297L3.34688 15.6859L2.98125 16.8297H1.78125L2.74687 17.5328L2.38125 18.6766L3.34688 17.9734L4.32187 18.6766L3.94687 17.5328L4.92188 16.8297H3.72188ZM11.0438 28.2953L10.6125 26.9641L10.1812 28.2953H8.775L9.90937 29.1109L9.47812 30.4516L10.6125 29.6266L11.7469 30.4516L11.3062 29.1109L12.4406 28.2953H11.0438Z" fill="white"/>
</g>
<defs>
<clipPath id="clip0_4046_26731">
<rect width="60" height="45" fill="white"/>
</clipPath>
</defs>
</svg>
