<svg width="60" height="45" viewBox="0 0 60 45" fill="none" xmlns="http://www.w3.org/2000/svg">
<g clip-path="url(#clip0_4046_26741)">
<path fill-rule="evenodd" clip-rule="evenodd" d="M-3.75 0H63.75V45H-3.75V0Z" fill="#00843D"/>
<path fill-rule="evenodd" clip-rule="evenodd" d="M19.3906 12.084C21.8428 13.2617 24.7607 12.084 25.8154 10.4492C26.9053 8.91992 27.0371 6.3623 25.165 4.01562C28.0654 6.42383 28.7158 9.15723 27.2656 11.4072C25.332 13.9824 21.0605 13.9033 19.3906 12.084V12.084Z" fill="white"/>
<path fill-rule="evenodd" clip-rule="evenodd" d="M23.7451 6.09961L24.2373 6.1084L23.8506 6.41602L24 6.9082L23.5869 6.61816L23.1914 6.9082L23.3232 6.4248L22.9277 6.11719L23.4199 6.1084L23.5869 5.625L23.7451 6.09961ZM21.3105 9.1582H21.8027L21.416 9.47461L21.5654 9.95801L21.1523 9.66797L20.748 9.9668L20.8887 9.47461L20.4932 9.17578L20.9854 9.1582L21.1436 8.6748L21.3105 9.1582ZM21.4688 6.75H21.9697L21.5742 7.06641L21.7236 7.5498L21.3193 7.25977L20.915 7.55859L21.0557 7.06641L20.6602 6.75879L21.1523 6.75L21.3105 6.2666L21.4688 6.75ZM21.4688 4.33301H21.9697L21.5654 4.6582L21.7148 5.1416L21.3105 4.86035L20.9063 5.15039L21.0469 4.66699L20.6514 4.35937L21.1436 4.35059L21.3018 3.86719L21.4688 4.33301ZM18.7705 7.3916H19.2627L18.8672 7.70801L19.0166 8.19141L18.6123 7.90137L18.208 8.2002L18.3486 7.70801L17.9531 7.40918L18.4453 7.3916L18.6035 6.9082L18.7705 7.3916Z" fill="white"/>
<path fill-rule="evenodd" clip-rule="evenodd" d="M0.421875 0H14.8887V45H0.421875V0Z" fill="#CA3745"/>
<path fill-rule="evenodd" clip-rule="evenodd" d="M0.421875 11.7334V11.4082L1.01953 10.6084L0.905273 10.4414L1.25684 9.9668L1.14258 9.7998L0.905273 10.125L0.782226 9.9668L1.62598 8.8418L1.74902 9L1.62598 9.1582L1.87207 9.49219L2.46973 8.68359L1.86328 7.90137L1.62598 8.2002L1.74902 8.36719L1.62598 8.52539L0.782226 7.40039L0.905273 7.24219L1.14258 7.55859L1.26562 7.40039L0.905273 6.91699L1.01953 6.75879L0.421875 5.9502V5.625L1.26562 6.75L1.14258 6.9082L1.50293 7.3916L1.26562 7.7168L1.50293 8.0332L1.87207 7.55859L2.72461 8.70117L1.87207 9.80859L1.52051 9.3252L1.27441 9.65039L1.51172 9.97559L1.16016 10.4502L1.27441 10.6172L0.430664 11.7422L0.421875 11.7334Z" fill="#FAAE29"/>
<path fill-rule="evenodd" clip-rule="evenodd" d="M0.421875 7.71875L0.544922 8.03516V8.52734H0.905273L1.15137 8.68555L0.905273 8.85254H0.553711V9.32715L0.430664 9.65234V7.71875H0.421875Z" fill="#FAAE29"/>
<path fill-rule="evenodd" clip-rule="evenodd" d="M0.421875 19.4492V19.124L1.01953 18.3242L0.905273 18.1572L1.25684 17.6738L1.14258 17.5156L0.905273 17.8408L0.782226 17.6738L1.62598 16.5488L1.74902 16.7158L1.62598 16.874L1.87207 17.1992L2.46973 16.3906L1.86328 15.6084L1.62598 15.9072L1.74902 16.0742L1.62598 16.2324L0.782226 15.1074L0.905273 14.9404L1.14258 15.2568L1.26562 15.0986L0.905273 14.6152L1.01953 14.457L0.421875 13.6484V13.332L1.26562 14.457L1.14258 14.6152L1.50293 15.0986L1.26562 15.415L1.50293 15.7402L1.86328 15.2568L2.71582 16.3994L1.86328 17.5068L1.51172 17.0234L1.26562 17.3486L1.50293 17.665L1.15137 18.1484L1.26562 18.3154L0.421875 19.4404V19.4492Z" fill="#FAAE29"/>
<path fill-rule="evenodd" clip-rule="evenodd" d="M0.421875 15.4219L0.544922 15.7471V16.2305H0.905273L1.15137 16.3887L0.905273 16.5469H0.553711V17.0303L0.430664 17.3555V15.4219H0.421875Z" fill="#FAAE29"/>
<path fill-rule="evenodd" clip-rule="evenodd" d="M0.421875 27.1592V26.8428L1.01953 26.0342L0.905273 25.876L1.25684 25.3926L1.14258 25.2344L0.905273 25.5508L0.782226 25.3926L1.62598 24.2676L1.74902 24.4258L1.62598 24.5928L1.87207 24.918L2.46973 24.1094L1.86328 23.3184L1.62598 23.626L1.74902 23.7842L1.62598 23.9424L0.782226 22.8174L0.905273 22.6592L1.14258 22.9844L1.26562 22.8174L0.905273 22.3428L1.01953 22.1758L0.421875 21.376V21.0508L1.26562 22.1758L1.14258 22.3428L1.50293 22.8174L1.26562 23.1426L1.50293 23.4678L1.87207 22.9844L2.71582 24.127L1.86328 25.2344L1.51172 24.751L1.26562 25.0674L1.50293 25.3926L1.15137 25.876L1.26562 26.0342L0.421875 27.1592V27.1592Z" fill="#FAAE29"/>
<path fill-rule="evenodd" clip-rule="evenodd" d="M0.421875 23.1416L0.553711 23.4668V23.9502H0.905273L1.15137 24.1084L0.905273 24.2578H0.553711V24.7412L0.430664 25.0664V23.1328L0.421875 23.1416Z" fill="#FAAE29"/>
<path fill-rule="evenodd" clip-rule="evenodd" d="M0.421875 34.3896V34.0645L1.01953 33.2646L0.905273 33.1064L1.25684 32.623L1.14258 32.4648L0.905273 32.7813L0.782226 32.623L1.62598 31.498L1.74902 31.6563L1.62598 31.8145L1.87207 32.1397L2.46973 31.3398L1.86328 30.5488L1.62598 30.8564L1.74902 31.0146L1.62598 31.1729L0.782226 30.0479L0.905273 29.8897L1.14258 30.2148L1.26562 30.0479L0.905273 29.5645L1.01953 29.4063L0.421875 28.6064V28.2812L1.26562 29.4063L1.14258 29.5645L1.50293 30.0479L1.26562 30.373L1.50293 30.6895L1.87207 30.2148L2.71582 31.3574L1.86328 32.4648L1.51172 31.9814L1.26562 32.2979L1.50293 32.623L1.15137 33.1064L1.26562 33.2646L0.421875 34.3896V34.3896Z" fill="#FAAE29"/>
<path fill-rule="evenodd" clip-rule="evenodd" d="M0.421875 30.3721L0.544922 30.6885V31.1719H0.905273L1.15137 31.3389L0.905273 31.4971H0.553711V31.9805L0.430664 32.2969V30.3633L0.421875 30.3721Z" fill="#FAAE29"/>
<path fill-rule="evenodd" clip-rule="evenodd" d="M14.8877 11.7334V11.4082L14.29 10.6084L14.4131 10.4414L14.0527 9.9668L14.167 9.7998L14.4131 10.125L14.5361 9.9668L13.6924 8.8418L13.5693 9L13.6924 9.1582L13.4375 9.4834L12.8486 8.6748L13.4463 7.89258L13.6924 8.19141L13.5693 8.3584L13.6836 8.5166L14.5273 7.3916L14.4131 7.2334L14.167 7.5498L14.0527 7.3916L14.4043 6.9082L14.29 6.75L14.8877 5.94141V5.625L14.0527 6.75L14.167 6.9082L13.8154 7.3916L14.0527 7.7168L13.8066 8.0332L13.4463 7.5498L12.5938 8.69238L13.4463 9.7998L13.8066 9.31641L14.0527 9.6416L13.8066 9.9668L14.167 10.4414L14.0527 10.6084L14.8877 11.7334Z" fill="#FAAE29"/>
<path fill-rule="evenodd" clip-rule="evenodd" d="M14.8848 7.71875L14.7617 8.03516V8.52734H14.4102L14.1641 8.68555L14.4014 8.85254H14.7617V9.32715L14.8848 9.65234V7.71875V7.71875Z" fill="#FAAE29"/>
<path fill-rule="evenodd" clip-rule="evenodd" d="M14.9346 19.4521V19.127L14.3369 18.3271L14.4512 18.1602L14.0996 17.6768L14.2139 17.5186L14.4512 17.8437L14.5742 17.6768L13.7305 16.5518L13.6074 16.7187L13.7305 16.877L13.4844 17.2021L12.8867 16.3936L13.4932 15.6113L13.7305 15.9102L13.6074 16.0684L13.7305 16.2354L14.5742 15.1104L14.4512 14.9434L14.2139 15.2686L14.0908 15.1104L14.4512 14.627L14.3369 14.4688L14.9346 13.6602V13.3438L14.0908 14.4688L14.2139 14.627L13.8535 15.1104L14.0908 15.4268L13.8535 15.752L13.4932 15.2686L12.6406 16.4111L13.4932 17.5186L13.8447 17.0352L14.0908 17.3604L13.8535 17.6768L14.2051 18.1602L14.0908 18.3184L14.9346 19.4434V19.4521Z" fill="#FAAE29"/>
<path fill-rule="evenodd" clip-rule="evenodd" d="M14.9336 15.4258L14.8105 15.751V16.2344H14.4414L14.1953 16.3926L14.4414 16.5508H14.793V17.0342L14.9248 17.3594V15.4258H14.9336Z" fill="#FAAE29"/>
<path fill-rule="evenodd" clip-rule="evenodd" d="M14.8877 27.1592V26.8428L14.29 26.0342L14.4131 25.876L14.0527 25.3926L14.167 25.2344L14.4131 25.5508L14.5361 25.3926L13.6924 24.2676L13.5693 24.4258L13.6924 24.5928L13.4375 24.918L12.8486 24.1094L13.4463 23.3184L13.6924 23.626L13.5693 23.7842L13.6836 23.9424L14.5273 22.8174L14.4131 22.6592L14.167 22.9844L14.0527 22.8174L14.4043 22.3428L14.29 22.1758L14.8877 21.376V21.0508L14.0527 22.1758L14.167 22.3428L13.8154 22.8174L14.0527 23.1426L13.8066 23.4678L13.4463 22.9844L12.5938 24.127L13.4463 25.2344L13.8066 24.751L14.0527 25.0674L13.8066 25.3926L14.167 25.876L14.0527 26.0342L14.8789 27.1592H14.8877Z" fill="#FAAE29"/>
<path fill-rule="evenodd" clip-rule="evenodd" d="M14.8848 23.1406L14.7617 23.4658V23.9492H14.4102L14.1641 24.1074L14.4014 24.2656H14.7617V24.749L14.8848 25.0742V23.1406V23.1406Z" fill="#FAAE29"/>
<path fill-rule="evenodd" clip-rule="evenodd" d="M14.8877 34.3926V34.0674L14.29 33.2676L14.4131 33.1094L14.0527 32.626L14.167 32.4678L14.4131 32.7842L14.5361 32.626L13.6924 31.501L13.5693 31.6592L13.6924 31.8174L13.4375 32.1426L12.8486 31.3428L13.4463 30.5518L13.6924 30.8594L13.5693 31.0176L13.6836 31.1758L14.5273 30.0596L14.4131 29.9014L14.167 30.2266L14.0527 30.0596L14.4043 29.5762L14.29 29.418L14.8877 28.6182V28.293L14.0527 29.418L14.167 29.5762L13.8154 30.0596L14.0527 30.3848L13.8066 30.7012L13.4463 30.2266L12.5938 31.3691L13.4463 32.4766L13.8066 31.9932L14.0527 32.3096L13.8066 32.6348L14.167 33.1182L14.0527 33.2764L14.8877 34.4014V34.3926Z" fill="#FAAE29"/>
<path fill-rule="evenodd" clip-rule="evenodd" d="M14.8848 30.376L14.7617 30.6924V31.1758H14.4102L14.1641 31.3428L14.4014 31.501H14.7617V31.9844L14.8848 32.3008V30.3672V30.376Z" fill="#FAAE29"/>
<path fill-rule="evenodd" clip-rule="evenodd" d="M0.422851 3.0498V2.7334L1.02051 1.9248L0.90625 1.7666L1.25781 1.2832L1.14355 1.125L0.90625 1.4502L0.783203 1.2832L1.62695 0.158203L1.75 0.325195L1.62695 0.483398L1.87305 0.808594L2.4707 0H2.7168L1.87305 1.125L1.50391 0.641602L1.2666 0.966797L1.50391 1.2832L1.15234 1.7666L1.25781 1.93359L0.422851 3.05859V3.0498ZM0.422851 0H1.15234L0.90625 0.158203H0.554687V0.641602L0.414062 0.966797V0H0.422851ZM14.8896 3.0498V2.7334L14.292 1.9248L14.415 1.7666L14.0547 1.2832L14.1689 1.125L14.415 1.4502L14.5293 1.2832L13.6855 0.158203L13.5713 0.325195L13.6855 0.483398L13.4395 0.808594L12.8418 0H12.5957L13.4482 1.125L13.8086 0.641602L14.0547 0.966797L13.8086 1.2832L14.1689 1.7666L14.0547 1.9248L14.8896 3.0498V3.0498ZM14.8896 0H14.1689L14.4063 0.158203H14.7666V0.641602L14.8896 0.966797V0ZM6.45215 44.3584C6.45215 44.3584 6.97949 43.4443 8.28027 43.1719C9.58984 42.8906 9.81836 43.7783 10.5654 43.7783C11.3125 43.7783 12.499 43.1631 12.499 43.1631C12.499 43.1631 11.3125 44.332 10.3896 44.3057C9.48437 44.2793 9.17676 43.6904 8.23633 43.7783C7.30469 43.8662 6.45215 44.3848 6.45215 44.3584V44.3584Z" fill="#FAAE29"/>
<path fill-rule="evenodd" clip-rule="evenodd" d="M8.97559 44.3588C8.97559 44.3588 8.45703 43.4447 7.15625 43.1722C5.83789 42.891 5.61816 43.7787 4.87109 43.7787C4.12402 43.7787 2.9375 43.1635 2.9375 43.1635C2.9375 43.1635 4.12402 44.3324 5.03809 44.306C5.95215 44.2797 6.26855 43.6908 7.19141 43.7787C8.13184 43.8666 8.97559 44.3851 8.97559 44.3588Z" fill="#FAAE29"/>
<path fill-rule="evenodd" clip-rule="evenodd" d="M4.70512 42.8468C4.59086 42.6095 4.30082 41.5548 4.45024 41.423C4.68754 41.3351 5.30278 42.4162 5.24125 43.3742C4.83696 43.5939 3.48344 43.2863 3.49223 43.005C3.58891 42.6095 4.36235 42.7414 4.70512 42.8468Z" fill="#FAAE29"/>
<path fill-rule="evenodd" clip-rule="evenodd" d="M3.87812 41.924C3.8078 41.6603 3.68476 40.5529 3.86054 40.465C4.09784 40.4475 4.52851 41.6691 4.32636 42.592C3.89569 42.6975 2.61249 42.0207 2.67401 41.7482C2.83222 41.3967 3.55292 41.7307 3.87812 41.924V41.924Z" fill="#FAAE29"/>
<path fill-rule="evenodd" clip-rule="evenodd" d="M3.21352 40.9043C3.16079 40.623 3.14321 39.498 3.31899 39.4453C3.55629 39.4629 3.88149 40.7461 3.60024 41.6338C3.16079 41.6689 1.9479 40.79 2.03579 40.5352C2.21157 40.2012 2.91469 40.6494 3.21352 40.9043V40.9043Z" fill="#FAAE29"/>
<path fill-rule="evenodd" clip-rule="evenodd" d="M2.68826 39.8145C2.67068 39.5244 2.77615 38.4082 2.96072 38.3906C3.19803 38.4521 3.36502 39.7881 2.9783 40.6055C2.54764 40.5527 1.449 39.4365 1.57205 39.1992C1.78299 38.9092 2.42459 39.498 2.68826 39.8145Z" fill="#FAAE29"/>
<path fill-rule="evenodd" clip-rule="evenodd" d="M2.31745 38.6622C2.33503 38.3721 2.56354 37.2999 2.74811 37.3086C2.96784 37.4229 2.99421 38.7676 2.52839 39.5059C2.10651 39.3653 1.13092 38.0557 1.27155 37.836C1.52643 37.5899 2.08893 38.3018 2.32624 38.6622H2.31745Z" fill="#FAAE29"/>
<path fill-rule="evenodd" clip-rule="evenodd" d="M2.42431 37.3525C2.39794 38.4951 2.187 38.5127 1.80907 37.6689C1.63329 37.3438 1.61571 36.0254 1.76513 35.9727C1.98485 35.9727 2.41552 36.9131 2.42431 37.3525Z" fill="#FAAE29"/>
<path fill-rule="evenodd" clip-rule="evenodd" d="M10.6644 42.9806C10.7786 42.7346 11.0687 41.6799 10.9192 41.548C10.6819 41.4601 10.0755 42.5324 10.1282 43.4992C10.5325 43.7189 11.8948 43.4113 11.8773 43.1301C11.7806 42.7346 11.0159 42.8664 10.6644 42.9719V42.9806Z" fill="#FAAE29"/>
<path fill-rule="evenodd" clip-rule="evenodd" d="M11.4873 42.049C11.5664 41.7853 11.6807 40.6779 11.5137 40.59C11.2764 40.5725 10.8369 41.7853 11.0479 42.717C11.4698 42.8225 12.7617 42.1457 12.6914 41.8732C12.542 41.5129 11.8125 41.8557 11.4873 42.049V42.049Z" fill="#FAAE29"/>
<path fill-rule="evenodd" clip-rule="evenodd" d="M12.1564 41.0293C12.2091 40.748 12.2267 39.623 12.0509 39.5703C11.8136 39.5879 11.4884 40.8623 11.7784 41.75C12.2179 41.7852 13.4308 40.915 13.3429 40.6514C13.1495 40.3174 12.464 40.7744 12.1564 41.0293V41.0293Z" fill="#FAAE29"/>
<path fill-rule="evenodd" clip-rule="evenodd" d="M12.6843 39.9307C12.7018 39.6494 12.5964 38.5332 12.4118 38.5156C12.1745 38.5771 12.0075 39.9131 12.3942 40.7305C12.8337 40.6777 13.9235 39.5615 13.8093 39.3242C13.5895 39.0254 12.9567 39.623 12.6843 39.9307V39.9307Z" fill="#FAAE29"/>
<path fill-rule="evenodd" clip-rule="evenodd" d="M13.0573 38.7785C13.0485 38.4973 12.8112 37.4162 12.6355 37.4338C12.4069 37.5393 12.3806 38.8928 12.8552 39.6311C13.2771 39.4904 14.2439 38.1809 14.1032 37.9611C13.8483 37.7151 13.2858 38.427 13.0485 38.7785H13.0573Z" fill="#FAAE29"/>
<path fill-rule="evenodd" clip-rule="evenodd" d="M12.9531 37.4775C12.9883 38.6201 13.1904 38.6289 13.5684 37.7852C13.7441 37.4687 13.7617 36.1416 13.6123 36.0977C13.3926 36.0977 12.9619 37.0381 12.9531 37.4775Z" fill="#FAAE29"/>
<path fill-rule="evenodd" clip-rule="evenodd" d="M12.6542 28.9101H11.9348V29.3927H11.2416V29.8753H8.46872L7.99785 30.3717L8.23328 30.6199H9.39737L9.61973 30.3717H8.46872L8.69107 30.1235H10.313L9.61973 30.8543H8.01093L7.55314 30.6199L7.08227 30.8543H5.46039L4.76717 30.1235H6.38905L6.62448 30.3717H5.46039L5.69583 30.6199H6.85992L7.08227 30.3717L6.62448 29.8753H4.07395V29.3927H3.38072V28.9101H2.6875V26.704H3.38072V26.2214H4.07395V25.7251H6.62448L7.08227 25.2425L6.85992 24.9943H5.69583L5.46039 25.2425H6.62448L6.38905 25.4769H4.76717L5.46039 24.7461H7.09535L7.56622 24.9943L8.02401 24.7461H9.64589L10.3391 25.4769H8.71723L8.49488 25.2425H9.64589L9.41045 24.9943H8.25944L8.01093 25.2425L8.4818 25.7251H11.2547V26.2214H11.9479V26.704H12.6542V28.9101V28.9101Z" fill="#CA3745"/>
<path fill-rule="evenodd" clip-rule="evenodd" d="M5.45641 24.7383H7.09591L7.56508 24.9856L8.02121 24.7383H9.64768L10.3536 25.4825H8.71325L8.47815 25.2347H9.62917L9.40647 24.9999H8.26112L8.01927 25.2414L8.48353 25.7172H11.2603V26.2136H11.9535V26.6962H12.6598V28.909H12.6531V28.9157H11.9404V29.3983H11.2472V29.8809H8.47051L8.00601 30.3706L8.23507 30.612H9.39328L9.6036 30.3773H8.45259L8.68697 30.1157H10.3275L9.62152 30.8599H8.00821L7.552 30.6263L7.08275 30.8599H5.45641L4.75045 30.1157H6.39084L6.63901 30.3773H5.47492L5.69761 30.612H6.85582L7.0721 30.3706L6.62044 29.8809H4.06613V29.3983H3.37291V28.9157H2.67969V26.6962H3.37291V26.2136H4.06613V25.7172H6.6205L7.07204 25.2412L6.85582 24.9999H5.69761L5.47492 25.2347H6.63965L6.39072 25.4825H4.75045L5.45641 24.7383ZM12.6464 28.9023V26.7096H11.9401V26.227H11.2469V25.7307H8.47787L8.00039 25.2413L8.25557 24.9865H9.41224L9.66042 25.2481H8.5094L8.71902 25.4691H10.3224L9.6419 24.7517H8.02461L7.56517 25.0008L7.09259 24.7517H5.46218L4.7817 25.4691H6.38518L6.60712 25.2481H5.44367L5.69184 24.9865H6.86182L7.09031 25.2415L6.62627 25.7307H4.07956V26.227H3.38634V26.7096H2.69312V28.9023H3.38634V29.3849H4.07956V29.8675H6.62633L7.09025 30.3705L6.86182 30.6255H5.69184L5.44367 30.3639H6.60776L6.38506 30.1291H4.7817L5.46218 30.8464H7.07959L7.55208 30.6112L8.01145 30.8464H9.61575L10.2962 30.1291H8.69297L8.48265 30.3639H9.63366L9.39928 30.6255H8.2293L7.9875 30.3706L8.46473 29.8675H11.2338V29.3849H11.927V28.9023H12.6464Z" fill="black"/>
<path fill-rule="evenodd" clip-rule="evenodd" d="M2.92188 26.9588V28.6685H3.61509V29.1511H4.3083V29.6337H6.62991L7.55856 30.3714L8.48066 29.6406H11.0312V29.158L11.7244 29.1511V28.6685H12.4307V26.9519H11.7309V26.4693H11.0377V25.973H8.4872L7.5651 25.2422L6.63645 25.973H4.31484V26.4693H3.62163V26.9519H2.92842L2.92188 26.9588Z" fill="#00843D"/>
<path fill-rule="evenodd" clip-rule="evenodd" d="M7.56533 25.1836L8.5037 25.9273H11.0848V26.4236H11.778V26.9062H12.4778V28.7168H11.7715V29.199L11.0783 29.2059V29.6889H8.49716L7.55865 30.4327L6.61364 29.682H4.26143V29.1994H3.56821V28.7168H2.875V26.9414L2.90834 26.9062H3.57475V26.4236H4.26797V25.9273H6.6203L7.56533 25.1836ZM7.56512 25.3034L6.65286 26.0213H4.36197V26.5176H3.66876V27.0002H2.969V28.6228H3.66222V29.1054H4.35543V29.588H6.64644L7.55872 30.3127L8.46442 29.5949H10.9843V29.1128L11.6775 29.1059V28.6228H12.3838V27.0002H11.684V26.5176H10.9908V26.0213H8.47096L7.56512 25.3034Z" fill="#FAAE29"/>
<path fill-rule="evenodd" clip-rule="evenodd" d="M6.1619 26.2148L4.77344 27.438V26.2148H6.1619ZM8.93883 26.2148L10.3361 27.438V26.2148H8.93883V26.2148ZM6.1619 29.395L4.77344 28.1719V29.395H6.1619ZM8.93883 29.395L10.3361 28.1719V29.395H8.93883V29.395ZM9.40458 26.9487L8.93883 27.438H9.87033L9.40458 26.9487V26.9487ZM5.69615 26.9487L5.23919 27.438H6.1619L5.69615 26.9487ZM5.69615 28.6611L5.23919 28.1719H6.1619L5.69615 28.6611ZM9.40458 28.6611L8.93883 28.1719H9.87033L9.40458 28.6611V28.6611Z" fill="#CA3745"/>
<path fill-rule="evenodd" clip-rule="evenodd" d="M7.55169 29.8813L7.08594 29.3921H8.01744L7.55169 29.8813V29.8813ZM7.55169 27.4351L7.08594 26.9458H8.01744L7.55169 27.4351V27.4351ZM7.55169 25.7227L7.08594 26.223H8.01744L7.55169 25.7227V25.7227ZM7.55169 28.1689L7.08594 28.6582H8.01744L7.55169 28.1689V28.1689Z" fill="#FAAE29"/>
<path fill-rule="evenodd" clip-rule="evenodd" d="M8.94531 27.4414H9.8805V27.6827H8.95185L8.94531 27.4414Z" fill="#FAAE29"/>
<path fill-rule="evenodd" clip-rule="evenodd" d="M8.9375 27.4375H9.87949V27.6855H8.94422L8.9375 27.4375ZM8.9444 27.4442L8.95076 27.6788H9.87278V27.4442H8.9444Z" fill="black"/>
<path fill-rule="evenodd" clip-rule="evenodd" d="M5.46875 27.6836H5.92653V27.9318H5.46875V27.6836ZM9.17679 27.6836H9.63457V27.9318H9.17679V27.6836Z" fill="#CC0000"/>
<path fill-rule="evenodd" clip-rule="evenodd" d="M5.46875 27.6797H5.93325V27.9346H5.46875V27.6797ZM5.47546 27.6864V27.9279H5.92653V27.6864H5.47546ZM9.17679 27.6797H9.64128V27.9346H9.17679V27.6797ZM9.1835 27.6864V27.9279H9.63457V27.6864H9.1835Z" fill="black"/>
<path fill-rule="evenodd" clip-rule="evenodd" d="M7.09375 26.2227H8.01586V26.4639H7.09375V26.2227ZM7.09375 26.7052H8.01586V26.9534H7.09375V26.7052Z" fill="#990000"/>
<path fill-rule="evenodd" clip-rule="evenodd" d="M7.08594 26.2188H8.01476V26.4668H7.08594V26.2188ZM7.09265 26.2255V26.46H8.00804V26.2255H7.09265ZM7.08594 26.7013H8.01476V26.9562H7.08594V26.7013ZM7.09265 26.7081V26.9495H8.00804V26.7081H7.09265Z" fill="black"/>
<path fill-rule="evenodd" clip-rule="evenodd" d="M6.85938 26.4648H8.25234V26.713H6.85938V26.4648ZM7.09481 28.6709H8.01691V28.9053H7.09481V28.6709ZM7.09481 29.1535H8.01691V29.3948H7.09481V29.1535ZM6.85938 28.9122H8.25234V29.1535H6.85938V28.9122Z" fill="#990000"/>
<path fill-rule="evenodd" clip-rule="evenodd" d="M6.85156 26.4609H8.25125V26.7158H6.85156V26.4609ZM6.85828 26.4677V26.7091H8.24453V26.4677H6.85828ZM7.08699 28.667H8.01581V28.9082H7.08699V28.667ZM7.09371 28.6738V28.9014H8.0091V28.6738H7.09371ZM6.85156 28.9083H8.25125V29.1563H8.01581V29.3976H7.08699V29.1563H6.85156V28.9083ZM8.24453 29.1496V28.9151H6.85828V29.1496H8.24453ZM7.09371 29.1563V29.3909H8.0091V29.1563H7.09371Z" fill="black"/>
<path fill-rule="evenodd" clip-rule="evenodd" d="M8.94474 27.9309H9.87993V28.1722H8.95128L8.94474 27.9309ZM5.2367 27.4414H6.16535V27.6827H5.2367V27.4414ZM5.2367 27.924H6.16535V28.1722H5.2367V27.924ZM5.00781 27.6827H5.4656V27.9309H5.00781V27.6827ZM5.93646 27.6827H6.39424V27.9309H5.93646V27.6827ZM8.71585 27.6827H9.17364V27.9309H8.71585V27.6827ZM9.6445 27.6827H10.1023V27.9309H9.6445V27.6827Z" fill="#FAAE29"/>
<path fill-rule="evenodd" clip-rule="evenodd" d="M5.22889 27.4375H6.16425V27.6788H6.39314V27.9337H6.16425V28.175H5.22889V27.9337H5V27.6788H5.22889V27.4375ZM5.23561 27.6788H6.15754V27.4442H5.23561V27.6788ZM5.92865 27.6855H5.4645V27.9201H5.92865V27.6855ZM5.92865 27.9268H5.4645V27.9337H5.23561V28.1683H6.15754V27.9337H5.92865V27.9268ZM6.16425 27.927V27.9201H5.93536V27.6855H6.38643V27.927H6.16425ZM6.15754 27.927H5.93536V27.9268H6.15754V27.927ZM5.23561 27.927H5.45778V27.9268H5.23561V27.927ZM5.45778 27.9201V27.6855H5.00671V27.927H5.22889V27.9201H5.45778ZM8.70804 27.6788H9.17254V27.927H9.63668V27.6788H10.1012V27.9337H9.87883V28.175H8.94356L8.93702 27.9337H8.70804V27.6788ZM9.16582 27.927V27.6855H8.71475V27.927H9.16582ZM8.94374 27.9337L8.95009 28.1683H9.87212V27.9337H8.94374ZM10.0945 27.927V27.6855H9.6434V27.927H10.0945Z" fill="black"/>
<path d="M6.98073 29.0811C7.01324 29.0811 7.03959 29.0533 7.03959 29.0191C7.03959 28.9848 7.01324 28.957 6.98073 28.957C6.94823 28.957 6.92188 28.9848 6.92188 29.0191C6.92188 29.0533 6.94823 29.0811 6.98073 29.0811Z" fill="white"/>
<path d="M7.55105 29.0811C7.58355 29.0811 7.6099 29.0533 7.6099 29.0191C7.6099 28.9848 7.58355 28.957 7.55105 28.957C7.51854 28.957 7.49219 28.9848 7.49219 29.0191C7.49219 29.0533 7.51854 29.0811 7.55105 29.0811Z" fill="white"/>
<path d="M8.13698 29.0811C8.16949 29.0811 8.19584 29.0533 8.19584 29.0191C8.19584 28.9848 8.16949 28.957 8.13698 28.957C8.10448 28.957 8.07812 28.9848 8.07812 29.0191C8.07812 29.0533 8.10448 29.0811 8.13698 29.0811Z" fill="white"/>
<path d="M7.21511 28.8468C7.24762 28.8468 7.27397 28.819 7.27397 28.7847C7.27397 28.7504 7.24762 28.7227 7.21511 28.7227C7.1826 28.7227 7.15625 28.7504 7.15625 28.7847C7.15625 28.819 7.1826 28.8468 7.21511 28.8468Z" fill="white"/>
<path d="M7.8948 28.8468C7.9273 28.8468 7.95365 28.819 7.95365 28.7847C7.95365 28.7504 7.9273 28.7227 7.8948 28.7227C7.86229 28.7227 7.83594 28.7504 7.83594 28.7847C7.83594 28.819 7.86229 28.8468 7.8948 28.8468Z" fill="white"/>
<path d="M7.19948 29.3272C7.23199 29.3272 7.25834 29.2994 7.25834 29.2652C7.25834 29.2309 7.23199 29.2031 7.19948 29.2031C7.16698 29.2031 7.14062 29.2309 7.14062 29.2652C7.14062 29.2994 7.16698 29.3272 7.19948 29.3272Z" fill="white"/>
<path d="M7.8948 29.3389C7.9273 29.3389 7.95365 29.3112 7.95365 29.2769C7.95365 29.2426 7.9273 29.2148 7.8948 29.2148C7.86229 29.2148 7.83594 29.2426 7.83594 29.2769C7.83594 29.3112 7.86229 29.3389 7.8948 29.3389Z" fill="white"/>
<path d="M8.81667 27.8585C8.84918 27.8585 8.87553 27.8307 8.87553 27.7964C8.87553 27.7622 8.84918 27.7344 8.81667 27.7344C8.78417 27.7344 8.75781 27.7622 8.75781 27.7964C8.75781 27.8307 8.78417 27.8585 8.81667 27.8585Z" fill="white"/>
<path d="M9.40261 27.8585C9.43512 27.8585 9.46147 27.8307 9.46147 27.7964C9.46147 27.7622 9.43512 27.7344 9.40261 27.7344C9.3701 27.7344 9.34375 27.7622 9.34375 27.7964C9.34375 27.8307 9.3701 27.8585 9.40261 27.8585Z" fill="white"/>
<path d="M9.98073 27.8585C10.0132 27.8585 10.0396 27.8307 10.0396 27.7964C10.0396 27.7622 10.0132 27.7344 9.98073 27.7344C9.94823 27.7344 9.92188 27.7622 9.92188 27.7964C9.92188 27.8307 9.94823 27.8585 9.98073 27.8585Z" fill="white"/>
<path d="M9.05886 27.6124C9.09137 27.6124 9.11772 27.5846 9.11772 27.5503C9.11772 27.5161 9.09137 27.4883 9.05886 27.4883C9.02635 27.4883 9 27.5161 9 27.5503C9 27.5846 9.02635 27.6124 9.05886 27.6124Z" fill="white"/>
<path d="M9.74636 27.6124C9.77887 27.6124 9.80522 27.5846 9.80522 27.5503C9.80522 27.5161 9.77887 27.4883 9.74636 27.4883C9.71385 27.4883 9.6875 27.5161 9.6875 27.5503C9.6875 27.5846 9.71385 27.6124 9.74636 27.6124Z" fill="white"/>
<path d="M9.05105 28.0928C9.08355 28.0928 9.1099 28.0651 9.1099 28.0308C9.1099 27.9965 9.08355 27.9688 9.05105 27.9688C9.01854 27.9688 8.99219 27.9965 8.99219 28.0308C8.99219 28.0651 9.01854 28.0928 9.05105 28.0928Z" fill="white"/>
<path d="M9.74636 28.1046C9.77887 28.1046 9.80522 28.0768 9.80522 28.0425C9.80522 28.0082 9.77887 27.9805 9.74636 27.9805C9.71385 27.9805 9.6875 28.0082 9.6875 28.0425C9.6875 28.0768 9.71385 28.1046 9.74636 28.1046Z" fill="white"/>
<path d="M6.97292 26.6475C7.00543 26.6475 7.03178 26.6198 7.03178 26.5855C7.03178 26.5512 7.00543 26.5234 6.97292 26.5234C6.94042 26.5234 6.91406 26.5512 6.91406 26.5855C6.91406 26.6198 6.94042 26.6475 6.97292 26.6475Z" fill="white"/>
<path d="M7.55105 26.6475C7.58355 26.6475 7.6099 26.6198 7.6099 26.5855C7.6099 26.5512 7.58355 26.5234 7.55105 26.5234C7.51854 26.5234 7.49219 26.5512 7.49219 26.5855C7.49219 26.6198 7.51854 26.6475 7.55105 26.6475Z" fill="white"/>
<path d="M8.13698 26.6358C8.16949 26.6358 8.19584 26.608 8.19584 26.5738C8.19584 26.5395 8.16949 26.5117 8.13698 26.5117C8.10448 26.5117 8.07812 26.5395 8.07812 26.5738C8.07812 26.608 8.10448 26.6358 8.13698 26.6358Z" fill="white"/>
<path d="M7.19948 26.4014C7.23199 26.4014 7.25834 26.3737 7.25834 26.3394C7.25834 26.3051 7.23199 26.2773 7.19948 26.2773C7.16698 26.2773 7.14062 26.3051 7.14062 26.3394C7.14062 26.3737 7.16698 26.4014 7.19948 26.4014Z" fill="white"/>
<path d="M7.8948 26.4014C7.9273 26.4014 7.95365 26.3737 7.95365 26.3394C7.95365 26.3051 7.9273 26.2773 7.8948 26.2773C7.86229 26.2773 7.83594 26.3051 7.83594 26.3394C7.83594 26.3737 7.86229 26.4014 7.8948 26.4014Z" fill="white"/>
<path d="M7.19948 26.8819C7.23199 26.8819 7.25834 26.8541 7.25834 26.8199C7.25834 26.7856 7.23199 26.7578 7.19948 26.7578C7.16698 26.7578 7.14062 26.7856 7.14062 26.8199C7.14062 26.8541 7.16698 26.8819 7.19948 26.8819Z" fill="white"/>
<path d="M7.8948 26.8897C7.9273 26.8897 7.95365 26.8619 7.95365 26.8277C7.95365 26.7934 7.9273 26.7656 7.8948 26.7656C7.86229 26.7656 7.83594 26.7934 7.83594 26.8277C7.83594 26.8619 7.86229 26.8897 7.8948 26.8897Z" fill="white"/>
<path d="M5.12136 27.8819C5.15387 27.8819 5.18022 27.8541 5.18022 27.8199C5.18022 27.7856 5.15387 27.7578 5.12136 27.7578C5.08885 27.7578 5.0625 27.7856 5.0625 27.8199C5.0625 27.8541 5.08885 27.8819 5.12136 27.8819Z" fill="white"/>
<path d="M5.69948 27.8819C5.73199 27.8819 5.75834 27.8541 5.75834 27.8199C5.75834 27.7856 5.73199 27.7578 5.69948 27.7578C5.66698 27.7578 5.64062 27.7856 5.64062 27.8199C5.64062 27.8541 5.66698 27.8819 5.69948 27.8819Z" fill="white"/>
<path d="M6.27761 27.8702C6.31012 27.8702 6.33647 27.8424 6.33647 27.8081C6.33647 27.7739 6.31012 27.7461 6.27761 27.7461C6.2451 27.7461 6.21875 27.7739 6.21875 27.8081C6.21875 27.8424 6.2451 27.8702 6.27761 27.8702Z" fill="white"/>
<path d="M5.35573 27.6358C5.38824 27.6358 5.41459 27.608 5.41459 27.5738C5.41459 27.5395 5.38824 27.5117 5.35573 27.5117C5.32323 27.5117 5.29688 27.5395 5.29688 27.5738C5.29688 27.608 5.32323 27.6358 5.35573 27.6358Z" fill="white"/>
<path d="M6.04323 27.6358C6.07574 27.6358 6.10209 27.608 6.10209 27.5738C6.10209 27.5395 6.07574 27.5117 6.04323 27.5117C6.01073 27.5117 5.98438 27.5395 5.98438 27.5738C5.98438 27.608 6.01073 27.6358 6.04323 27.6358Z" fill="white"/>
<path d="M5.34792 28.1163C5.38043 28.1163 5.40678 28.0885 5.40678 28.0542C5.40678 28.02 5.38043 27.9922 5.34792 27.9922C5.31542 27.9922 5.28906 28.02 5.28906 28.0542C5.28906 28.0885 5.31542 28.1163 5.34792 28.1163Z" fill="white"/>
<path d="M6.04323 28.1241C6.07574 28.1241 6.10209 28.0963 6.10209 28.062C6.10209 28.0278 6.07574 28 6.04323 28C6.01073 28 5.98438 28.0278 5.98438 28.062C5.98438 28.0963 6.01073 28.1241 6.04323 28.1241Z" fill="white"/>
<path fill-rule="evenodd" clip-rule="evenodd" d="M8.46094 22.4824L8.85644 22.2891L9.26074 22.4824H8.46094ZM7.26563 22.4824L7.66113 22.2891L8.06543 22.4824H7.26563ZM6.07031 22.4824L6.46582 22.2891L6.87012 22.4824H6.07031ZM8.46094 18.1758L8.85644 18.3691L9.26074 18.1846H8.46094V18.1758ZM7.26563 18.1758L7.66113 18.3691L8.06543 18.1846H7.26563V18.1758ZM6.07031 18.1758L6.46582 18.3691L6.87012 18.1846H6.07031V18.1758Z" fill="white"/>
<path fill-rule="evenodd" clip-rule="evenodd" d="M8.12207 23.0361L7.65625 23.4141L7.19043 23.0361L6.72461 23.4141L6.25879 23.0361V23.2295L6.5752 23.4053L6.41699 23.5986V23.7832H6.5752L6.72461 23.6074L6.88281 23.7832H7.04102V23.6074L6.88281 23.4141L7.19043 23.2295L7.50684 23.4053L7.34863 23.5986V23.7832H7.50684L7.65625 23.6074L7.81445 23.7832H7.96387V23.6074L7.81445 23.4141L8.12207 23.2295L8.42969 23.4053L8.28027 23.5986V23.7832H8.42969L8.58789 23.6074L8.74609 23.7832H8.89551V23.6074L8.74609 23.4141L9.05371 23.2295V23.0273L8.58789 23.4053L8.12207 23.0273V23.0361ZM8.12207 17.6221L7.65625 17.2441L7.19043 17.6221L6.72461 17.2441L6.25879 17.6221V17.4375L6.5752 17.2441L6.41699 17.0684V16.875H6.5752L6.72461 17.0596L6.88281 16.875H7.04102V17.0596L6.88281 17.2529L7.19043 17.4287L7.50684 17.2529L7.34863 17.0596V16.875H7.50684L7.65625 17.0596L7.81445 16.875H7.96387V17.0596L7.81445 17.2529L8.12207 17.4287L8.42969 17.2529L8.28027 17.0596V16.875H8.42969L8.58789 17.0596L8.74609 16.875H8.89551V17.0596L8.74609 17.2529L9.05371 17.4287V17.6221L8.58789 17.2441L8.12207 17.6221V17.6221ZM11.6377 20.7334L12.1475 20.3291L11.6465 19.9248L12.1475 19.5205L11.6465 19.1162H11.8926L12.1475 19.3799L12.3936 19.248H12.6396V19.3887L12.3936 19.5205L12.6396 19.6523V19.793H12.3936L12.1475 19.6523L11.8926 19.9248L12.1475 20.1885L12.3936 20.0654H12.6396V20.1973L12.3936 20.3291L12.6396 20.4609V20.6016H12.3936L12.1475 20.4609L11.8926 20.7334L12.1475 20.9971L12.3936 20.8652H12.6396V21.0059L12.3936 21.1377L12.6396 21.2783V21.4102H12.3936L12.1475 21.2783L11.8926 21.542H11.6465L12.1475 21.1377L11.6465 20.7334H11.6377ZM3.6748 20.7334L3.17383 20.3291L3.6748 19.9248L3.17383 19.5205L3.6748 19.1162H3.41992L3.17383 19.3799L2.92773 19.248H2.66406V19.3887L2.92773 19.5117L2.67285 19.6436V19.7842H2.92773L3.17383 19.6436L3.41992 19.916L3.17383 20.1797L2.92773 20.0566H2.66406V20.1885L2.91895 20.3203L2.66406 20.4521V20.5928H2.92773L3.17383 20.4521L3.41992 20.7246L3.17383 20.9971L2.92773 20.8652H2.66406V20.9971L2.91895 21.1289L2.66406 21.2695V21.4014H2.92773L3.17383 21.2695L3.41992 21.5332H3.6748L3.17383 21.1289L3.6748 20.7246V20.7334Z" fill="#00843D"/>
<path fill-rule="evenodd" clip-rule="evenodd" d="M11.8368 22.1101H12.0393V22.2893H11.8368V22.1101ZM11.6343 22.2893H11.8368V22.4791H11.6456L11.6343 22.2893ZM10.6445 23.2276H10.8469V23.4174H10.6445V23.2276ZM10.8469 23.0378H11.0382V23.2276H10.8469V23.0378ZM4.26672 23.0378H4.46919V23.2276H4.25547L4.26672 23.0378ZM3.26562 22.1101H3.46809V22.2893H3.26562V22.1101ZM3.46809 22.2893H3.67056V22.4791H3.46809V22.2893ZM3.46809 18.1777H3.67056V18.3675H3.46809V18.1777ZM3.26562 18.3675H3.46809V18.5573H3.26562V18.3675ZM4.46919 17.25H4.66041V17.4398H4.48044L4.46919 17.25ZM4.26672 17.4398H4.46919V17.6295H4.25547L4.26672 17.4398ZM10.6445 17.25H10.8469V17.4398H10.6445V17.25ZM10.8469 17.4398H11.0382V17.6295H10.8469V17.4398ZM11.6343 18.1777H11.8368V18.3675H11.6456L11.6343 18.1777ZM11.8368 18.378H12.0393V18.5573H11.8368V18.378ZM4.48044 23.2276H4.67166V23.4174H4.48044V23.2276Z" fill="#00843D"/>
<path fill-rule="evenodd" clip-rule="evenodd" d="M4.45257 17.2344H4.67745V17.4568H4.48623V17.6466H4.23885L4.25203 17.4241H4.46381L4.45257 17.2344ZM4.49654 17.4241H4.64478V17.267H4.48723L4.49654 17.4241ZM4.45356 17.4568H4.28282L4.27351 17.6139H4.45356V17.4568ZM10.6288 17.2344H10.864V17.4241H11.0552V17.6466H10.8313V17.4568H10.6288V17.2344ZM10.864 17.4568V17.6139H11.0225V17.4568H10.864ZM10.8313 17.4241V17.267H10.6615V17.4241H10.8313ZM3.45247 18.1621H3.68761V18.3845H3.48514V18.5743H3.25V18.3519H3.45247V18.1621ZM3.45247 18.3845H3.28267V18.5416H3.45247V18.3845ZM3.48514 18.3519H3.65494V18.1948H3.48514V18.3519ZM11.6177 18.1621H11.8538V18.3624H12.0563V18.5743H11.8212V18.3845H11.6309L11.6177 18.1621ZM11.8538 18.3951V18.5416H12.0236V18.3951H11.8538ZM11.8212 18.3519V18.1948H11.6524L11.6617 18.3519H11.8212ZM3.25 22.0945H3.48514V22.2737H3.68761V22.4961H3.45247V22.3063H3.25V22.0945ZM3.48514 22.3063V22.4634H3.65494V22.3063H3.48514ZM3.45247 22.2737V22.1271H3.28267V22.2737H3.45247ZM11.8212 22.0945H12.0563V22.3063H11.8538V22.4961H11.6309L11.6177 22.2737H11.8212V22.0945ZM11.8212 22.3063H11.6524L11.6617 22.4634H11.8212V22.3063ZM11.8538 22.2737H12.0236V22.1271H11.8538V22.2737ZM4.25203 23.0222H4.48623V23.212H4.6887V23.4344H4.46481V23.2446H4.23885L4.25203 23.0222ZM4.49748 23.2446V23.4017H4.65603V23.2446H4.49748ZM4.45356 23.212V23.0549H4.28282L4.27351 23.212H4.45356ZM10.8313 23.0222H11.0552V23.2446H10.864V23.4344H10.6288V23.212H10.8313V23.0222ZM10.8313 23.2446H10.6615V23.4017H10.8313V23.2446ZM10.864 23.212H11.0225V23.0549H10.864V23.212Z" fill="black"/>
<path fill-rule="evenodd" clip-rule="evenodd" d="M7.04981 20.3291H6.46094V19.96H6.85645V19.6172H7.24316V19.3008H7.63867V19.6963C7.31348 19.6963 7.04981 19.96 7.04981 20.3291V20.3291Z" fill="white"/>
<path fill-rule="evenodd" clip-rule="evenodd" d="M8.22949 20.3291H8.81836V19.96H8.42285V19.6172H8.02734V19.3008H7.64062V19.6963C7.96582 19.6963 8.22949 19.96 8.22949 20.3291V20.3291Z" fill="#FAAE29"/>
<path fill-rule="evenodd" clip-rule="evenodd" d="M8.22949 20.3281H8.81836V20.6973H8.42285V21.04H8.02734V21.3564H7.64062V20.9609C7.96582 20.9609 8.22949 20.6973 8.22949 20.3281V20.3281Z" fill="white"/>
<path fill-rule="evenodd" clip-rule="evenodd" d="M7.04981 20.3281H6.46094V20.6973H6.85645V21.04H7.24316V21.3564H7.63867V20.9609C7.31348 20.9609 7.04981 20.6973 7.04981 20.3281V20.3281Z" fill="#FAAE29"/>
<path fill-rule="evenodd" clip-rule="evenodd" d="M8.22949 20.3281H7.64062V19.6953C7.96582 19.6953 8.22949 19.9854 8.22949 20.3281Z" fill="#00843D"/>
<path fill-rule="evenodd" clip-rule="evenodd" d="M8.22949 20.3281H7.64062V20.9609C7.96582 20.9609 8.22949 20.6797 8.22949 20.3281Z" fill="#CA3745"/>
<path fill-rule="evenodd" clip-rule="evenodd" d="M7.05469 20.3281H7.64356V20.9609C7.31836 20.9609 7.05469 20.6797 7.05469 20.3281V20.3281Z" fill="#00843D"/>
<path fill-rule="evenodd" clip-rule="evenodd" d="M7.05469 20.3281H7.64356V19.6953C7.31836 19.6953 7.05469 19.9854 7.05469 20.3281V20.3281Z" fill="#CA3745"/>
<path fill-rule="evenodd" clip-rule="evenodd" d="M8.25781 22.668L7.66016 22.29L7.0625 22.668L6.46484 22.29L5.86719 22.668V22.4834L6.2627 22.29L6.06934 22.1055V21.9209H6.2627L6.46484 22.1055L6.66699 21.9209H6.86914V22.1055L6.66699 22.29L7.0625 22.4834L7.4668 22.29L7.26465 22.1055V21.9209H7.4668L7.66016 22.1055L7.86231 21.9209H8.06445V22.1055L7.86231 22.29L8.25781 22.4834L8.66211 22.29L8.45996 22.1055V21.9209H8.66211L8.85547 22.1055L9.05762 21.9209H9.25977V22.1055L9.05762 22.29L9.45312 22.4834V22.6592L8.85547 22.29L8.25781 22.668V22.668ZM8.25781 18.001L7.66016 18.3701L7.0625 18.001L6.46484 18.3701L5.86719 18.001V18.1768L6.2627 18.3701L6.06934 18.5547V18.748H6.2627L6.46484 18.5547L6.66699 18.748H6.86914V18.5459L6.66699 18.3701L7.0625 18.1768L7.4668 18.3613L7.26465 18.5459V18.7393H7.4668L7.66016 18.5459L7.86231 18.7393H8.06445V18.5459L7.86231 18.3701L8.25781 18.1768L8.66211 18.3613L8.45996 18.5459V18.7393H8.66211L8.85547 18.5459L9.05762 18.7393H9.25977V18.5459L9.05762 18.3701L9.45312 18.1768V17.9922L8.85547 18.3613L8.25781 17.9922V18.001ZM10.4551 20.7959L10.1562 20.3301L10.4551 19.8643L10.1562 19.3984L10.4551 18.9326H10.3057L10.1562 19.2402L10.0068 19.082H9.85742V19.2402L10.0068 19.3984L9.85742 19.5566V19.7061H10.0068L10.1562 19.5566L10.3057 19.8643L10.1562 20.1719L10.0068 20.0225H9.85742V20.1719L10.0068 20.3301L9.85742 20.4883V20.6465H10.0068L10.1562 20.4883L10.3057 20.7959L10.1562 21.1123L10.0068 20.9541H9.85742V21.1123L10.0068 21.2617L9.85742 21.4199V21.5781H10.0068L10.1562 21.4199L10.3057 21.7363H10.4551L10.1562 21.2617L10.4551 20.7959V20.7959Z" fill="#00843D"/>
<path fill-rule="evenodd" clip-rule="evenodd" d="M5.86528 18.1904L5.07791 18.9284V21.7327L5.86528 22.4812H9.46472L10.2521 21.7432V18.9389L9.45347 18.1904H5.86528ZM5.66281 17.6211L3.67188 19.4977V21.1845L5.67406 23.0399H9.65594L11.6469 21.1739V19.4871L9.65594 17.6211H5.67406H5.66281Z" fill="#00843D"/>
<path fill-rule="evenodd" clip-rule="evenodd" d="M5.66032 17.5977H9.6707L11.6748 19.476V21.1817L9.6707 23.06H5.67168L3.65625 21.1923V19.4866L5.66032 17.5977ZM5.67761 17.6412L3.69981 19.5054V21.1733L5.68876 23.0165H9.65348L11.6313 21.1628V19.4949L9.65348 17.6412H5.67761ZM5.86283 18.1669H9.46824L10.28 18.9278V21.751L9.47948 22.5013H5.86274L5.06228 21.7403V18.9173L5.86283 18.1669ZM5.88005 18.2105L5.10584 18.9361V21.7217L5.88014 22.4577H9.46226L10.2365 21.7321V18.9467L9.45102 18.2105H5.88005Z" fill="black"/>
<path fill-rule="evenodd" clip-rule="evenodd" d="M6.6965 22.6641L7.01145 23.0436L7.3354 22.6641H6.6875H6.6965Z" fill="#FAAE29"/>
<path fill-rule="evenodd" clip-rule="evenodd" d="M7.36145 22.6523L7.0115 23.0623L6.69108 22.6762H6.68768V22.6721L6.6875 22.6719L6.68768 22.6717V22.6523H7.36145ZM6.72208 22.6762H7.30971L7.01176 23.0253L6.72208 22.6762Z" fill="black"/>
<path fill-rule="evenodd" clip-rule="evenodd" d="M6.6965 17.9961L7.01145 17.6166L7.3354 17.9961H6.6875H6.6965Z" fill="#FAAE29"/>
<path fill-rule="evenodd" clip-rule="evenodd" d="M7.36145 18.0078L7.0115 17.5978L6.69108 17.984H6.68768V17.988L6.6875 17.9883L6.68768 17.9884V18.0078H7.36145ZM6.72208 17.984H7.30971L7.01176 17.6349L6.72208 17.984Z" fill="black"/>
<path fill-rule="evenodd" clip-rule="evenodd" d="M7.97775 17.9961L8.2927 17.6166L8.61665 17.9961H7.96875H7.97775Z" fill="#FAAE29"/>
<path fill-rule="evenodd" clip-rule="evenodd" d="M8.6427 18.0078L8.29275 17.5978L7.97233 17.984H7.96893V17.988L7.96875 17.9883L7.96893 17.9884V18.0078H8.6427ZM8.00333 17.984H8.59096L8.29301 17.6349L8.00333 17.984Z" fill="black"/>
<path fill-rule="evenodd" clip-rule="evenodd" d="M7.97775 22.6641L8.2927 23.0436L8.61665 22.6641H7.96875H7.97775Z" fill="#FAAE29"/>
<path fill-rule="evenodd" clip-rule="evenodd" d="M8.6427 22.6523L8.29275 23.0623L7.97233 22.6762H7.96893V22.6721L7.96875 22.6719L7.96893 22.6717V22.6523H8.6427ZM8.00333 22.6762H8.59096L8.29301 23.0253L8.00333 22.6762Z" fill="black"/>
<path fill-rule="evenodd" clip-rule="evenodd" d="M6.06369 17.9961L6.37864 17.6166L6.70259 17.9961H6.05469H6.06369Z" fill="#CA3745"/>
<path fill-rule="evenodd" clip-rule="evenodd" d="M6.72863 18.0078L6.37869 17.5978L6.05827 17.984H6.05487V17.988L6.05469 17.9883L6.05487 17.9884V18.0078H6.72863ZM6.08927 17.984H6.6769L6.37895 17.6349L6.08927 17.984Z" fill="black"/>
<path fill-rule="evenodd" clip-rule="evenodd" d="M7.33712 17.9961L7.65207 17.6166L7.97602 17.9961H7.32812H7.33712Z" fill="#CA3745"/>
<path fill-rule="evenodd" clip-rule="evenodd" d="M8.00207 18.0078L7.65213 17.5978L7.3317 17.984H7.32831V17.988L7.32812 17.9883L7.32831 17.9884V18.0078H8.00207ZM7.36271 17.984H7.95034L7.65238 17.6349L7.36271 17.984Z" fill="black"/>
<path fill-rule="evenodd" clip-rule="evenodd" d="M8.61056 17.9961L8.92551 17.6166L9.24946 17.9961H8.60156H8.61056Z" fill="#CA3745"/>
<path fill-rule="evenodd" clip-rule="evenodd" d="M9.27551 18.0078L8.92556 17.5978L8.60514 17.984H8.60174V17.988L8.60156 17.9883L8.60174 17.9884V18.0078H9.27551ZM8.63614 17.984H9.22378L8.92582 17.6349L8.63614 17.984Z" fill="black"/>
<path fill-rule="evenodd" clip-rule="evenodd" d="M5.27344 22.1028L5.86394 22.6562H5.27344V22.1028Z" fill="#CA3745"/>
<path fill-rule="evenodd" clip-rule="evenodd" d="M5.25 22.6836H5.92697L5.25 22.0491V22.6836ZM5.299 22.6346V22.1622L5.80303 22.6346H5.299Z" fill="black"/>
<path fill-rule="evenodd" clip-rule="evenodd" d="M4.85938 20.793L5.16699 20.3271L4.85938 19.8613L5.1582 19.3955L4.85938 18.9297H5.00879L5.1582 19.2373L5.30762 19.0791H5.45703V19.2373L5.30762 19.3955L5.45703 19.5537V19.7031H5.30762L5.1582 19.5537L5.00879 19.8613L5.1582 20.1689L5.30762 20.0195H5.45703V20.1689L5.30762 20.3271L5.45703 20.4854V20.6436H5.30762L5.1582 20.4854L5.00879 20.793L5.1582 21.1094L5.30762 20.9512H5.45703V21.1094L5.30762 21.2588L5.45703 21.417V21.5752H5.30762L5.1582 21.417L5.00879 21.7334H4.85938L5.1582 21.2588L4.85938 20.793Z" fill="#00843D"/>
<path fill-rule="evenodd" clip-rule="evenodd" d="M10.6484 19.8259H11.4471L11.6495 19.9967L11.4471 20.1675H10.6597V19.8164L10.6484 19.8259Z" fill="#CA3745"/>
<path fill-rule="evenodd" clip-rule="evenodd" d="M10.6397 19.8396H10.6016L10.6707 19.7812V19.8086H11.4483L11.6691 19.9949L11.4483 20.1812H10.6397V19.8396ZM10.6707 19.8396H11.4369L11.621 19.9949L11.4369 20.1502H10.6707V19.8396Z" fill="black"/>
<path fill-rule="evenodd" clip-rule="evenodd" d="M5.26803 18.5586L4.86309 18.9381V21.7319L5.26803 22.1114H4.67188V18.5586H5.26803Z" fill="#CA3745"/>
<path fill-rule="evenodd" clip-rule="evenodd" d="M4.65625 18.5352H5.32927L4.89103 18.9459V21.7208L5.32927 22.1315H4.65625V18.5352ZM4.69981 18.5787V22.088H5.2191L4.84747 21.7397V18.927L5.2191 18.5787H4.69981Z" fill="black"/>
<path fill-rule="evenodd" clip-rule="evenodd" d="M6.06369 22.6641L6.37864 23.0436L6.70259 22.6641H6.05469H6.06369Z" fill="#CA3745"/>
<path fill-rule="evenodd" clip-rule="evenodd" d="M6.72863 22.6523L6.37869 23.0623L6.05827 22.6762H6.05487V22.6721L6.05469 22.6719L6.05487 22.6717V22.6523H6.72863ZM6.08927 22.6762H6.6769L6.37895 23.0253L6.08927 22.6762Z" fill="black"/>
<path fill-rule="evenodd" clip-rule="evenodd" d="M7.33712 22.6641L7.65207 23.0436L7.97602 22.6641H7.32812H7.33712Z" fill="#CA3745"/>
<path fill-rule="evenodd" clip-rule="evenodd" d="M8.00207 22.6523L7.65213 23.0623L7.3317 22.6762H7.32831V22.6721L7.32812 22.6719L7.32831 22.6717V22.6523H8.00207ZM7.36271 22.6762H7.95034L7.65238 23.0253L7.36271 22.6762Z" fill="black"/>
<path fill-rule="evenodd" clip-rule="evenodd" d="M8.61056 22.6641L8.92551 23.0436L9.24946 22.6641H8.60156H8.61056Z" fill="#CA3745"/>
<path fill-rule="evenodd" clip-rule="evenodd" d="M9.27551 22.6523L8.92556 23.0623L8.60514 22.6762H8.60174V22.6721L8.60156 22.6719L8.60174 22.6717V22.6523H9.27551ZM8.63614 22.6762H9.22378L8.92582 23.0253L8.63614 22.6762Z" fill="black"/>
<path fill-rule="evenodd" clip-rule="evenodd" d="M10.0445 18.5586L10.4494 18.9381V21.7319L10.0445 22.1114H10.6406V18.5586H10.0445Z" fill="#CA3745"/>
<path fill-rule="evenodd" clip-rule="evenodd" d="M10.6641 18.5352H9.99104L10.4293 18.9459V21.7208L9.99104 22.1315H10.6641V18.5352ZM10.6205 18.5787V22.088H10.1012L10.4728 21.7397V18.927L10.1012 18.5787H10.6205Z" fill="black"/>
<path fill-rule="evenodd" clip-rule="evenodd" d="M10.0469 22.1028L9.45637 22.6562H10.0469V22.1028Z" fill="#CA3745"/>
<path fill-rule="evenodd" clip-rule="evenodd" d="M10.0703 22.6836H9.39334L10.0703 22.0491V22.6836ZM10.0213 22.6346V22.1622L9.51728 22.6346H10.0213Z" fill="black"/>
<path fill-rule="evenodd" clip-rule="evenodd" d="M10.0469 18.5534L9.45637 18H10.0469V18.5534Z" fill="#CA3745"/>
<path fill-rule="evenodd" clip-rule="evenodd" d="M10.0703 17.9766H9.39334L10.0703 18.611V17.9766ZM10.0213 18.0256V18.498L9.51728 18.0256H10.0213Z" fill="black"/>
<path fill-rule="evenodd" clip-rule="evenodd" d="M5.27344 18.5534L5.86394 18H5.27344V18.5534Z" fill="#CA3745"/>
<path fill-rule="evenodd" clip-rule="evenodd" d="M5.25 17.9766H5.92697L5.25 18.611V17.9766ZM5.299 18.0256V18.498L5.80303 18.0256H5.299Z" fill="black"/>
<path fill-rule="evenodd" clip-rule="evenodd" d="M5.87266 18.1898L5.08528 18.9277V21.732L5.87266 22.4806H9.4721L10.2595 21.7426V18.9383L9.46085 18.1898H5.87266ZM5.87266 18L4.88281 18.9277V21.732L5.87266 22.6703H9.4721L10.4619 21.732V18.9277L9.46085 18H5.87266Z" fill="#00843D"/>
<path fill-rule="evenodd" clip-rule="evenodd" d="M5.86239 17.9766H9.46773L10.4821 18.9166V21.7397L9.47912 22.6904H5.86232L4.85938 21.7397V18.9166L5.86239 17.9766ZM5.87961 18.0201L4.90293 18.9355V21.721L5.87968 22.6469H9.46176L10.4385 21.721V18.9356L9.45065 18.0201H5.87961ZM5.86239 18.1663H9.4678L10.2796 18.9272V21.7504L9.47905 22.5007H5.8623L5.06184 21.7397V18.9166L5.86239 18.1663ZM5.87961 18.2099L5.1054 18.9355V21.721L5.8797 22.4571H9.46183L10.236 21.7315V18.9461L9.45058 18.2099H5.87961Z" fill="black"/>
<path fill-rule="evenodd" clip-rule="evenodd" d="M10.6484 20.1579H11.4471L11.6495 20.3287L11.4471 20.4995H10.6597V20.1484L10.6484 20.1579Z" fill="#FAAE29"/>
<path fill-rule="evenodd" clip-rule="evenodd" d="M10.6397 20.1755H10.6016L10.6707 20.1172V20.1445H11.4483L11.6691 20.3308L11.4483 20.5171H10.6397V20.1755ZM10.6707 20.1755H11.4369L11.621 20.3308L11.4369 20.4861H10.6707V20.1755Z" fill="black"/>
<path fill-rule="evenodd" clip-rule="evenodd" d="M10.6484 20.4939H11.4471L11.6495 20.6647L11.4471 20.8354H10.6597V20.4844L10.6484 20.4939Z" fill="#CA3745"/>
<path fill-rule="evenodd" clip-rule="evenodd" d="M10.6397 20.5076H10.6016L10.6707 20.4492V20.4766H11.4483L11.6691 20.6628L11.4483 20.8491H10.6397V20.5076ZM10.6707 20.5076H11.4369L11.621 20.6628L11.4369 20.8181H10.6707V20.5076Z" fill="black"/>
<path fill-rule="evenodd" clip-rule="evenodd" d="M10.6484 20.8259H11.4471L11.6495 20.9967L11.4471 21.1675H10.6597V20.8164L10.6484 20.8259Z" fill="#FAAE29"/>
<path fill-rule="evenodd" clip-rule="evenodd" d="M10.6397 20.8435H10.6016L10.6707 20.7852V20.8125H11.4483L11.6691 20.9988L11.4483 21.1851H10.6397V20.8435ZM10.6707 20.8435H11.4369L11.621 20.9988L11.4369 21.1541H10.6707V20.8435Z" fill="black"/>
<path fill-rule="evenodd" clip-rule="evenodd" d="M10.6484 19.4821H11.4471L11.6495 19.6529L11.4471 19.8238H10.6597V19.4727L10.6484 19.4821Z" fill="#FAAE29"/>
<path fill-rule="evenodd" clip-rule="evenodd" d="M10.6397 19.4997H10.6016L10.6707 19.4414V19.4687H11.4483L11.6691 19.655L11.4483 19.8413H10.6397V19.4997ZM10.6707 19.4997H11.4369L11.621 19.655L11.4369 19.8104H10.6707V19.4997Z" fill="black"/>
<path fill-rule="evenodd" clip-rule="evenodd" d="M4.67188 19.8259H3.87325L3.67078 19.9967L3.87325 20.1675H4.66063V19.8164L4.67188 19.8259Z" fill="#CA3745"/>
<path fill-rule="evenodd" clip-rule="evenodd" d="M4.67278 19.8396H4.71094L4.64179 19.7812V19.8086H3.86425L3.64341 19.9949L3.86425 20.1812H4.67278V19.8396ZM4.64179 19.8396H3.87557L3.69148 19.9949L3.87557 20.1502H4.64179V19.8396Z" fill="black"/>
<path fill-rule="evenodd" clip-rule="evenodd" d="M4.67188 20.1579H3.87325L3.67078 20.3287L3.87325 20.4995H4.66063V20.1484L4.67188 20.1579Z" fill="#FAAE29"/>
<path fill-rule="evenodd" clip-rule="evenodd" d="M4.67279 20.1755H4.71094L4.64179 20.1172V20.1445H3.86425L3.64341 20.3308L3.86425 20.5171H4.67279V20.1755ZM4.64179 20.1755H3.87558L3.69148 20.3308L3.87558 20.4861H4.64179V20.1755Z" fill="black"/>
<path fill-rule="evenodd" clip-rule="evenodd" d="M4.67188 20.4939H3.87325L3.67078 20.6647L3.87325 20.8354H4.66063V20.4844L4.67188 20.4939Z" fill="#CA3745"/>
<path fill-rule="evenodd" clip-rule="evenodd" d="M4.67278 20.5076H4.71094L4.64179 20.4492V20.4766H3.86425L3.64341 20.6628L3.86425 20.8491H4.67278V20.5076ZM4.64179 20.5076H3.87557L3.69148 20.6628L3.87557 20.8181H4.64179V20.5076Z" fill="black"/>
<path fill-rule="evenodd" clip-rule="evenodd" d="M4.67188 20.8259H3.87325L3.67078 20.9967L3.87325 21.1675H4.66063V20.8164L4.67188 20.8259Z" fill="#FAAE29"/>
<path fill-rule="evenodd" clip-rule="evenodd" d="M4.67279 20.8435H4.71094L4.64179 20.7852V20.8125H3.86425L3.64341 20.9988L3.86425 21.1851H4.67279V20.8435ZM4.64179 20.8435H3.87558L3.69148 20.9988L3.87558 21.1541H4.64179V20.8435Z" fill="black"/>
<path fill-rule="evenodd" clip-rule="evenodd" d="M4.67188 19.4821H3.87325L3.67078 19.6529L3.87325 19.8238H4.66063V19.4727L4.67188 19.4821Z" fill="#FAAE29"/>
<path fill-rule="evenodd" clip-rule="evenodd" d="M4.67279 19.4997H4.71094L4.64179 19.4414V19.4687H3.86425L3.64341 19.655L3.86425 19.8413H4.67279V19.4997ZM4.64179 19.4997H3.87558L3.69148 19.655L3.87558 19.8104H4.64179V19.4997Z" fill="black"/>
<path fill-rule="evenodd" clip-rule="evenodd" d="M3.46875 18.377V22.2777H4.46984V23.216H10.8476V22.2777H11.8374V18.377H10.8476V17.4492H4.46984V18.377H3.46875ZM3.67122 18.5562V22.109H4.66106V23.0367H10.6451V22.109H11.6462V18.5562H10.6451V17.639H4.66106V18.5667H3.67122V18.5562Z" fill="#970000"/>
<path fill-rule="evenodd" clip-rule="evenodd" d="M4.45422 17.4336H10.8646V18.3613H11.8545V22.2947H10.8646V23.233H4.45422V22.2947H3.45312V18.3613H4.45422V17.4336ZM4.48689 17.4663V18.394H3.48579V22.262H4.48689V23.2003H10.832V22.262H11.8218V18.394H10.832V17.4663H4.48689ZM4.64544 17.6234H10.6622V18.5406H11.6633V22.126H10.6622V23.0538H4.64544V22.126H3.65559V18.5569H3.67193V18.5511H4.64544V17.6234ZM3.68826 18.5838V22.0934H4.67811V23.0211H10.6295V22.0934H11.6306V18.5732H10.6295V17.656H4.67811V18.5838H3.68826Z" fill="black"/>
<path fill-rule="evenodd" clip-rule="evenodd" d="M12.6344 3.781L12.0382 3.06119V2.52387L11.4421 1.98654H10.2498L9.24866 1.44922H6.06541L5.06432 1.98654H3.872L3.27584 2.52387V3.06119L2.67969 3.77086V5.22062L3.27584 5.9303V6.47776L3.872 7.01508H5.06432L6.06541 7.55241H9.24866L10.2498 7.01508H11.4421L12.0495 6.47776V5.94043L12.6456 5.22062V3.77086L12.6344 3.781Z" fill="#CA3745"/>
<path fill-rule="evenodd" clip-rule="evenodd" d="M6.06177 1.43359H9.25308L10.2542 1.97092H11.4486L12.0546 2.51713V3.05581L12.6365 3.75831L12.662 3.73526V5.22679L12.0659 5.9466V6.48537L11.4485 7.03149H10.2542L9.25308 7.56882H6.06177L5.06068 7.03149H3.86624L3.26022 6.48528V5.93652L2.66406 5.22685V3.76542L3.26022 3.05575V2.51713L3.86624 1.97092H5.06068L6.06177 1.43359ZM12.63 3.80075L12.0226 3.06736V2.53139L11.4363 2.00295H10.2461L9.24503 1.46563H6.06983L5.06874 2.00295H3.87855L3.29226 2.53139V3.06742L2.6961 3.77709V5.21518L3.29226 5.92485V6.47102L3.87855 6.99946H5.06874L6.06983 7.53678H9.24503L10.2461 6.99946H11.4364L12.0338 6.47093V5.93506L12.63 5.21524V3.80075Z" fill="black"/>
<path fill-rule="evenodd" clip-rule="evenodd" d="M2.875 4.5V5.03613L3.47266 5.75684V6.29297L4.07031 6.83789H5.26562L6.26758 7.36523H7.65625V4.50879H2.875V4.5Z" fill="#FAAE29"/>
<path fill-rule="evenodd" clip-rule="evenodd" d="M5.98144 5.75781L5.25195 6.22363H4.8125L4.96191 6.37305L4.67188 6.68066L4.82129 6.83887L5.26074 6.68066L5.40137 6.83887L5.46289 6.42578L6.27148 5.93359L5.98144 5.75781V5.75781Z" fill="#CA3745"/>
<path fill-rule="evenodd" clip-rule="evenodd" d="M5.18164 5.39648L4.45215 5.8623H4.02148L4.16211 6.01172L3.88086 6.31934L4.02148 6.47754L4.46094 6.31934L4.60156 6.47754L4.67188 6.06445L5.47168 5.58105L5.18164 5.40527V5.39648ZM4.78613 4.67578L4.05664 5.1416H3.61719L3.7666 5.2998L3.47656 5.60742L3.62598 5.75684L4.06543 5.59863L4.20605 5.75684L4.26758 5.34375L5.07617 4.86035L4.78613 4.68457V4.67578Z" fill="#CA3745"/>
<path fill-rule="evenodd" clip-rule="evenodd" d="M12.4375 4.49902V3.96289L11.8398 3.24219V2.70605L11.2422 2.16113H10.0469L9.05371 1.625H7.65625V4.49902H12.4375V4.49902Z" fill="#FAAE29"/>
<path fill-rule="evenodd" clip-rule="evenodd" d="M7.6582 7.37402H7.28906L6.86719 7.01367H6.18164L5.8125 6.83789L5.99707 6.66211L6.36621 6.83789H6.73535L7.10449 6.29297L7.6582 6.46875V6.83789H7.10449L7.6582 7.36523V7.37402Z" fill="#CA3745"/>
<path fill-rule="evenodd" clip-rule="evenodd" d="M2.875 4.49902V3.96289L3.47266 3.24219V2.70605L4.07031 2.16113H5.26562L6.26758 1.625H7.65625V4.49902H2.875V4.49902Z" fill="white"/>
<path fill-rule="evenodd" clip-rule="evenodd" d="M7.6582 1.625H7.28906L6.86719 1.97656H6.18164L5.8125 2.16113L5.99707 2.33691L6.36621 2.16113H6.73535L7.10449 2.70605L7.6582 2.53027V2.16113H7.10449L7.6582 1.625Z" fill="#CA3745"/>
<path fill-rule="evenodd" clip-rule="evenodd" d="M7.65625 1.625H8.02539L8.45605 1.97656H9.13281L9.50195 2.16113L9.32617 2.33691L8.94824 2.16113H8.5791L8.20996 2.70605L7.65625 2.53027V2.16113H8.20996L7.65625 1.625V1.625Z" fill="#CA3745"/>
<path fill-rule="evenodd" clip-rule="evenodd" d="M12.4375 4.5V5.03613L11.8398 5.75684V6.29297L11.2422 6.83789H10.0469L9.05371 7.36523H7.65625V4.50879H12.4375V4.5Z" fill="white"/>
<path fill-rule="evenodd" clip-rule="evenodd" d="M7.6543 7.37598H8.02344L8.4541 7.01563H9.13086L9.5 6.83984L9.32422 6.66406L8.94629 6.83984H8.57715L8.20801 6.29492L7.6543 6.4707V6.83984H8.20801L7.6543 7.36719V7.37598ZM5.17578 3.59668L4.44629 3.13965H4.01562L4.15625 2.99023L3.875 2.68262L4.01562 2.52441L4.45508 2.68262L4.5957 2.52441L4.66602 2.9375L5.46582 3.4209L5.17578 3.59668V3.59668ZM9.3418 3.24512L10.0625 2.7793H10.502L10.3525 2.62988L10.6426 2.32227L10.502 2.16406L10.0625 2.32227L9.92188 2.16406L9.85156 2.57715L9.05176 3.06934L9.3418 3.24512V3.24512Z" fill="#CA3745"/>
<path fill-rule="evenodd" clip-rule="evenodd" d="M5.98242 3.24512L5.25293 2.7793H4.81348L4.96289 2.62988L4.67285 2.32227L4.82227 2.16406L5.26172 2.32227L5.40234 2.16406L5.46387 2.57715L6.27246 3.06055L5.98242 3.23633V3.24512ZM4.77832 4.32617L4.04883 3.86035H3.60937L3.75879 3.70215L3.46875 3.39453L3.63574 3.25391L4.0752 3.41211L4.21582 3.25391L4.27734 3.66699L5.08594 4.15039L4.7959 4.32617H4.77832Z" fill="#CA3745"/>
<path fill-rule="evenodd" clip-rule="evenodd" d="M3.23438 4.5H3.41016L3.59473 4.67578L3.7793 4.5H7.65527V7.01367H7.47949L7.65527 7.18945V7.38281L7.10156 6.84668V6.6709H7.28613V6.84668H7.4707V6.6709L5.97656 5.87988H4.71094V5.08887L4.15723 4.69336H3.78809L3.60352 4.86914L3.7793 5.04492H3.60352L3.23438 4.51758V4.5Z" fill="white"/>
<path fill-rule="evenodd" clip-rule="evenodd" d="M3.23438 4.49902H3.41016L3.59473 4.32324L3.7793 4.49902H7.65527V1.98535H7.47949L7.65527 1.80957V1.625L7.10156 2.16113V2.33691H7.28613V2.16113H7.4707V2.33691L5.97656 3.13672H4.71094V3.91895L4.15723 4.32324H3.78809L3.60352 4.14746L3.7793 3.96289H3.60352L3.23438 4.49902Z" fill="#FAAE29"/>
<path fill-rule="evenodd" clip-rule="evenodd" d="M4.07031 4.5H7.65625V6.65332L6.06543 5.75684H4.87012V5.03613L4.0791 4.5H4.07031Z" fill="#00843D"/>
<path fill-rule="evenodd" clip-rule="evenodd" d="M10.1406 3.60449L10.8701 3.13867H11.3096L11.1602 2.98926L11.4502 2.68164L11.3096 2.52344L10.8701 2.68164L10.7295 2.52344L10.6592 2.93652L9.85938 3.41992L10.1406 3.5957V3.60449ZM10.5449 4.3252L11.2744 3.85938H11.7051L11.5557 3.70117L11.8457 3.39355L11.7051 3.24414L11.2656 3.40234L11.125 3.24414L11.0547 3.65723L10.2549 4.14062L10.5449 4.31641V4.3252Z" fill="#CA3745"/>
<path fill-rule="evenodd" clip-rule="evenodd" d="M12.0859 4.49902H11.9014L11.7168 4.32324L11.5322 4.49902H7.65625V1.98535H7.84082L7.65625 1.80957V1.625L8.20996 2.16113V2.33691H8.02539V2.16113H7.84082V2.33691L9.33496 3.13672H10.6006V3.91895L11.1631 4.32324H11.5322L11.708 4.14746L11.5322 3.96289H11.708L12.0859 4.49902V4.49902Z" fill="white"/>
<path fill-rule="evenodd" clip-rule="evenodd" d="M11.2422 4.50098H7.65625V2.34766L9.25586 3.24414H10.4512V3.96484L11.251 4.50098H11.2422Z" fill="#00843D"/>
<path fill-rule="evenodd" clip-rule="evenodd" d="M9.34473 5.75781L10.0654 6.22363H10.5049L10.3555 6.37305L10.6455 6.68066L10.5049 6.83887L10.0654 6.68066L9.92481 6.83887L9.85449 6.42578L9.05469 5.93359L9.34473 5.75781V5.75781Z" fill="#CA3745"/>
<path fill-rule="evenodd" clip-rule="evenodd" d="M10.1406 5.39648L10.8701 5.8623H11.3096L11.1602 6.01172L11.4502 6.31934L11.3096 6.47754L10.8701 6.31934L10.7295 6.47754L10.6592 6.06445L9.85938 5.58105L10.1406 5.40527V5.39648ZM10.5449 4.67578L11.2744 5.1416H11.7051L11.5557 5.29102L11.8457 5.59863L11.7051 5.75684L11.2656 5.59863L11.125 5.75684L11.0547 5.34375L10.2549 4.86035L10.5449 4.68457V4.67578Z" fill="#CA3745"/>
<path fill-rule="evenodd" clip-rule="evenodd" d="M12.0859 4.5H11.9014L11.7168 4.67578L11.5322 4.5H7.65625V7.01367H7.84082L7.65625 7.18945V7.38281L8.20996 6.84668V6.6709H8.02539V6.84668H7.84082V6.6709L9.33496 5.87988H10.6006V5.08887L11.1631 4.69336H11.5322L11.708 4.86914L11.5322 5.04492H11.708L12.0859 4.51758V4.5Z" fill="#FAAE29"/>
<path fill-rule="evenodd" clip-rule="evenodd" d="M11.2422 4.50098H7.65625V6.6543L9.25586 5.75781H10.4512V5.03711L11.251 4.50098H11.2422ZM4.07031 4.50098H7.65625V2.34766L6.06543 3.24414H4.87012V3.96484L4.0791 4.50098H4.07031Z" fill="#CA3745"/>
<path fill-rule="evenodd" clip-rule="evenodd" d="M8.05273 4.49902L9.05469 3.96289H9.65234L9.45019 3.78711L9.85449 3.41797L9.65234 3.24219L9.05469 3.41797L8.85254 3.24219L8.76465 3.72559L7.65723 4.28809L8.05273 4.49902V4.49902ZM7.26172 4.49902L6.26855 5.03516H5.6709L5.86426 5.21094L5.46875 5.58008L5.6709 5.75586L6.26855 5.58008L6.46191 5.75586L6.5498 5.27246L7.65723 4.70996L7.26172 4.49902Z" fill="#CA3745"/>
<path fill-rule="evenodd" clip-rule="evenodd" d="M7.26074 4.49902L6.26758 3.96289H5.66992L5.87207 3.78711L5.47656 3.41797L5.67871 3.24219L6.27637 3.41797L6.46973 3.24219L6.55762 3.72559L7.66504 4.28809L7.26953 4.49902H7.26074ZM8.05176 4.49902L9.05371 5.03516H9.65137L9.44922 5.21094L9.85352 5.58008L9.65137 5.75586L9.05371 5.58008L8.85156 5.75586L8.76367 5.27246L7.65625 4.70996L8.05176 4.49902V4.49902Z" fill="#00843D"/>
<path fill-rule="evenodd" clip-rule="evenodd" d="M6.46094 4.49805L7.65625 3.60156L8.85156 4.49805L7.65625 5.39453L6.46094 4.49805V4.49805Z" fill="white"/>
<path fill-rule="evenodd" clip-rule="evenodd" d="M3.78516 4.86035L3.96973 5.03613L3.79395 5.21191H3.60059L3.04688 4.5H3.23145L3.60059 5.03613H3.78516L3.60937 4.86035L3.78516 4.68457H4.16309V4.86035H3.79395H3.78516Z" fill="#CA3745"/>
<path fill-rule="evenodd" clip-rule="evenodd" d="M3.78516 4.14062L3.96973 3.96484L3.79395 3.78906H3.60059L3.04688 4.50098H3.23145L3.60059 3.96484H3.78516L3.60937 4.14062L3.78516 4.31641H4.16309V4.14062H3.79395H3.78516ZM11.5371 4.86133L11.3613 5.03711L11.5371 5.21289H11.7217L12.2754 4.50098H12.0996L11.7217 5.03711H11.5459L11.7217 4.86133L11.5459 4.68555H11.168V4.86133H11.5371V4.86133Z" fill="#CA3745"/>
<path fill-rule="evenodd" clip-rule="evenodd" d="M11.5459 4.14062L11.3525 3.96484L11.5371 3.78906H11.7217L12.2754 4.50098H12.0996L11.7217 3.96484H11.5459L11.7217 4.14062L11.5459 4.31641H11.168V4.14062H11.5371H11.5459ZM7.47656 3.78906H7.8457V5.22168H7.47656V3.78906Z" fill="#CA3745"/>
<path fill-rule="evenodd" clip-rule="evenodd" d="M6.92188 4.14062H8.39844V4.86133H6.92188V4.14062Z" fill="#CA3745"/>
<path fill-rule="evenodd" clip-rule="evenodd" d="M5.96823 31.7969L2.65625 33.6227V36.5981L5.99948 38.4239H9.31147L12.6234 36.5981V33.6227L9.31147 31.8307H5.99948L5.96823 31.7969Z" fill="#00843D"/>
<path fill-rule="evenodd" clip-rule="evenodd" d="M5.97216 31.7773L6.00722 31.8153H9.31621L12.6403 33.6139V36.6086L9.31627 38.441H5.99596L2.64062 36.6086V33.6139L5.97216 31.7773ZM2.67313 33.6331V36.5893L6.00426 38.4085H9.30791L12.6078 36.5894V33.6332L9.30798 31.8478H5.993L5.96556 31.8181L2.67313 33.6331Z" fill="black"/>
<path fill-rule="evenodd" clip-rule="evenodd" d="M3.91406 34.833H4.10742V34.4551H4.51172V34.8242H4.71387V33.9629H4.51172V34.332H4.11621V33.9629H3.91406V34.8242V34.833ZM9.00293 37.6982H9.20508V37.3291H9.60059V37.6982H9.80273V36.8281H9.60938V37.1973H9.20508V36.8281H9.01172V37.6895L9.00293 37.6982ZM5.78613 33.3916H5.98828V33.0312H6.39258V33.4004H6.58594V32.5391H6.39258V32.9082H5.98828V32.5391H5.78613V33.4004V33.3916ZM8.73047 33.3916H8.93262V33.0312H9.33691V33.4004H9.53906V32.5391H9.33691V32.9082H8.93262V32.5391H8.73047V33.4004V33.3916ZM10.6113 34.833H10.8047V34.4551H11.209V34.8242H11.4111V33.9629H11.209V34.332H10.8047V33.9629H10.6113V34.8242V34.833ZM10.6113 36.2656H10.8047V35.8965H11.209V36.2656H11.4111V35.4043H11.209V35.7734H10.8047V35.4043H10.6113V36.2656Z" fill="#CC0000"/>
<path fill-rule="evenodd" clip-rule="evenodd" d="M7.66016 38.2666V35.1113H12.4854V36.5439L9.25977 38.2666H7.65137H7.66016ZM7.66016 31.9648V35.1113H2.84375V33.6787L6.05176 31.9648H7.66016Z" fill="#FAAE29"/>
<path fill-rule="evenodd" clip-rule="evenodd" d="M7.66016 31.9648V35.1113H12.4854V33.6787L9.25977 31.9648H7.65137H7.66016ZM7.66016 38.2666V35.1113H2.84375V36.5439L6.05176 38.2666H7.66016V38.2666Z" fill="white"/>
<path fill-rule="evenodd" clip-rule="evenodd" d="M10.2312 33.8324H12.1634L10.2312 32.9753V33.8324ZM12.4809 33.6869V35.1181H9.43294V33.978H8.78889L7.98155 33.5494V32.5468L8.4714 32.1101H7.82734V33.5494H7.66406V31.9727H9.26966L12.4809 33.6869V33.6869Z" fill="#FAAE29"/>
<path fill-rule="evenodd" clip-rule="evenodd" d="M7.66406 31.9688H9.27502L12.4872 33.6835L12.4851 33.6873H12.4894V35.1227H9.43294V33.9826H8.79211L7.98155 33.5524V32.5452L8.46444 32.1148H7.83591V33.5541H7.66406V31.9688ZM12.4809 33.6898L9.27287 31.9773H7.67263V33.5455H7.82734V32.1062H8.48692L7.99012 32.5491V33.5472L8.79424 33.9741H9.44151V35.1142H12.4809V33.6898ZM10.2312 32.9691L12.1694 33.8289L12.1677 33.8371H10.2312V32.9691ZM10.2398 32.9823V33.8285H12.1474L10.2398 32.9823Z" fill="black"/>
<path fill-rule="evenodd" clip-rule="evenodd" d="M6.04688 34.1094V36.1221H6.53027L7.65527 36.7021L8.78027 36.1221H9.26367V34.1182H8.78027L7.65527 33.5469L6.53027 34.1182H6.04688V34.1094Z" fill="#CA3745"/>
<path fill-rule="evenodd" clip-rule="evenodd" d="M5.0891 36.402H3.15694L5.0891 37.2591V36.402ZM2.83945 36.5475V35.1163H5.88737V36.2564H6.53142L7.33876 36.685V37.6876L6.84891 38.1243H7.49297V36.685H7.65625V38.2617H6.05065L2.83945 36.5475V36.5475Z" fill="#FAAE29"/>
<path fill-rule="evenodd" clip-rule="evenodd" d="M7.66406 38.2656H6.05311L2.84096 36.5509L2.84298 36.5471H2.83869V35.1116H5.89518V36.2517H6.53602L7.34657 36.682V37.6892L6.86368 38.1196H7.49222V36.6803H7.66406V38.2656ZM2.84726 36.5446L6.05525 38.2571H7.6555V36.6889H7.50078V38.1282H6.84121L7.33801 37.6853V36.6872L6.53389 36.2603H5.88662V35.1202H2.84726V36.5446ZM5.09691 37.2653L3.15873 36.4055L3.16047 36.3973H5.09691V37.2653ZM5.08835 37.2521V36.4059H3.18068L5.08835 37.2521Z" fill="black"/>
<path fill-rule="evenodd" clip-rule="evenodd" d="M5.0891 33.8324H3.15694L5.0891 32.9753V33.8324ZM2.83945 33.6869V35.1181H5.88737V33.978H6.53142L7.33876 33.5494V32.5468L6.84891 32.1101H7.49297V33.5494H7.65625V31.9727H6.05065L2.83945 33.6869V33.6869Z" fill="white"/>
<path fill-rule="evenodd" clip-rule="evenodd" d="M7.66406 31.9688H6.05311L2.84096 33.6835L2.84298 33.6873H2.83869V35.1227H5.89518V33.9826H6.53602L7.34657 33.5524V32.5452L6.86368 32.1148H7.49222V33.5541H7.66406V31.9688ZM2.84726 33.6898L6.05525 31.9773H7.6555V33.5455H7.50078V32.1062H6.84121L7.33801 32.5491V33.5472L6.53389 33.9741H5.88662V35.1142H2.84726V33.6898ZM5.09691 32.9691L3.15873 33.8289L3.16047 33.8371H5.09691V32.9691ZM5.08835 32.9823V33.8285H3.18068L5.08835 32.9823Z" fill="black"/>
<path fill-rule="evenodd" clip-rule="evenodd" d="M10.2312 36.402H12.1634L10.2312 37.2591V36.402ZM12.4809 36.5475V35.1163H9.43294V36.2564H8.78889L7.98155 36.685V37.6876L8.4714 38.1243H7.82734V36.685H7.66406V38.2617H9.26966L12.4809 36.5475V36.5475Z" fill="white"/>
<path fill-rule="evenodd" clip-rule="evenodd" d="M7.66406 38.2656H9.27502L12.4872 36.5509L12.4851 36.5471H12.4894V35.1116H9.43294V36.2517H8.79211L7.98155 36.682V37.6892L8.46444 38.1196H7.83591V36.6803H7.66406V38.2656ZM12.4809 36.5446L9.27287 38.2571H7.67263V36.6889H7.82734V38.1282H8.48692L7.99012 37.6853V36.6872L8.79424 36.2603H9.44151V35.1202H12.4809V36.5446ZM10.2312 37.2653L12.1694 36.4055L12.1677 36.3973H10.2312V37.2653ZM10.2398 37.2521V36.4059H12.1474L10.2398 37.2521Z" fill="black"/>
<path fill-rule="evenodd" clip-rule="evenodd" d="M3.80566 36.2627H3.99902V35.8232H4.40332V36.2627H4.60547V35.2607H4.40332V35.6914H3.99902V35.252H3.80566V36.2627ZM5.73047 37.6953H5.93262V37.2559H6.32812V37.6953H6.53027V36.6934H6.32812V37.124H5.93262V36.6846H5.73047V37.7041V37.6953ZM3.79688 33.9687H3.99902V34.3994H4.40332V33.96H4.60547V34.9795H4.40332V34.54H3.99902V34.9707H3.80566V33.9687H3.79688ZM5.73047 32.5361H5.93262V32.9668H6.32812V32.5273H6.53027V33.5381H6.32812V33.1074H5.93262V33.5469H5.73047V32.5361ZM8.78027 37.6953H8.98242V37.2559H9.38672V37.6953H9.58887V36.6934H9.38672V37.124H8.98242V36.6846H8.78027V37.7041V37.6953ZM10.7139 34.9707H10.916V34.54H11.3115V34.9795H11.5137V33.9687H11.3115V34.3994H10.9248V33.96H10.7227V34.9795L10.7139 34.9707Z" fill="#CA3745"/>
<path fill-rule="evenodd" clip-rule="evenodd" d="M8.78125 37.6982H8.9834V37.2588H9.38769V37.6982H9.58984V36.6963H9.38769V37.127H8.9834V36.6875H8.78125V37.707V37.6982Z" fill="#CA3745"/>
<path fill-rule="evenodd" clip-rule="evenodd" d="M8.78125 37.6953H8.9834V37.2559H9.38769V37.6953H9.58984V36.6934H9.38769V37.124H8.9834V36.6846H8.78125V37.7041V37.6953ZM10.7148 36.2627H10.917V35.8232H11.3125V36.2627H11.5146V35.2607H11.3125V35.6826H10.9258V35.252H10.7236V36.2627H10.7148ZM8.78125 33.5381H8.9834V33.1074H9.38769V33.5469H9.58984V32.5361H9.38769V32.9668H8.9834V32.5273H8.78125V33.5381Z" fill="#CA3745"/>
<path fill-rule="evenodd" clip-rule="evenodd" d="M7.8252 35.1123L8.4668 34.585H8.7832V34.8486H8.4668V34.9805H8.9502V34.4619H8.4668V34.0664H7.8252V34.4619H7.9834V34.1982H8.29981V34.4619L7.6582 34.9893L7.0166 34.4619V34.1982H7.3418V34.4619H7.5V34.0664H6.8584V34.4619H6.375V34.9893H6.8584V34.8574H6.5332V34.5938H6.8584L7.5 35.1211L6.8584 35.6396H6.5332V35.376H6.8584V35.2441H6.375V35.7715H6.8584V36.1582H7.5V35.7715H7.3418V36.0352H7.0166V35.7715L7.6582 35.2441L8.29981 35.7715V36.0352H7.9834V35.7715H7.8252V36.1582H8.4668V35.7715H8.9502V35.2441H8.4668V35.376H8.7832V35.6396H8.4668L7.8252 35.1123Z" fill="white"/>
<path fill-rule="evenodd" clip-rule="evenodd" d="M3.15751 12.9143L3.46593 12.5942H5.33459L6.73156 11.1875H8.60022L9.99719 12.6026H11.8659L12.1743 12.9143L11.8659 13.2259H9.98812L8.59115 14.641H6.72249L5.33459 13.2259H3.45686L3.14844 12.9143H3.15751Z" fill="#CA3745"/>
<path fill-rule="evenodd" clip-rule="evenodd" d="M3.3125 12.9395L3.48141 12.7863H5.40702L6.85122 11.3008H8.4559L9.90855 12.794H11.8342L11.9946 12.9471L11.8342 13.0926H9.90855L8.61636 14.4327H6.69076L5.40702 13.0926H3.47297L3.3125 12.9395V12.9395Z" fill="#CA3745"/>
<path fill-rule="evenodd" clip-rule="evenodd" d="M6.84664 11.2891H8.46151L9.91416 12.7823H11.8395L12.0128 12.9477L11.8393 13.105H9.91419L8.622 14.4451H6.68612L5.40239 13.105H3.46865L3.30469 12.9485L3.31302 12.9398L3.30491 12.9309L3.47727 12.7746H5.40244L6.84664 11.2891ZM3.33072 12.94L3.47832 13.0809H5.41268L6.69642 14.4209H8.61175L9.90394 13.0809H11.83L11.9774 12.9472L11.8298 12.8064H9.90397L8.45132 11.3132H6.85684L5.41263 12.7987H3.48658L3.33072 12.94Z" fill="black"/>
<path fill-rule="evenodd" clip-rule="evenodd" d="M8.44137 13.0722L9.05821 13.6955L8.74979 14.0072L8.58651 13.8555H8.44137V14.0072L8.59558 14.1672H8.91307L9.22149 13.8555V13.5355L8.59558 12.9121L9.22149 12.2804V11.9687L8.91307 11.6571H8.59558L8.44137 11.8087V11.9687H8.59558L8.75886 11.8087L9.06728 12.1288L8.44137 12.7521L7.82453 12.1288L8.44137 11.497V11.337H8.28716L7.67032 11.9687L7.0444 11.337H6.89019V11.497L7.50703 12.1288L6.89019 12.7521L6.26428 12.1288L6.58177 11.8087L6.73598 11.9687H6.89019V11.8087L6.73598 11.6571H6.41849L6.11007 11.9687V12.2804L6.73598 12.9121L6.11007 13.5355V13.8555L6.41849 14.1672H6.73598L6.89019 14.0072V13.8555H6.71784L6.56363 14.0072L6.24614 13.6955L6.87205 13.0722L7.48889 13.6955L6.87205 14.3272V14.4789H7.02626L7.65217 13.8555L8.26902 14.4789H8.42323V14.3272L7.80638 13.6955L8.42323 13.0722H8.44137ZM7.66125 12.2804L7.03533 12.9121L7.66125 13.5355L8.27809 12.9121L7.66125 12.2804ZM6.72691 14.6389V15.9024L6.88112 15.7339L7.03533 15.9024L7.18954 15.7339L7.34375 15.9024L7.50703 15.7339L7.66125 15.9024L7.81546 15.7339L7.96967 15.9024L8.12388 15.7339L8.27809 15.9024L8.4323 15.7339L8.59558 15.9024V14.6389H6.71784H6.72691ZM8.59558 11.1854V9.92188L8.4323 10.0903L8.27809 9.92188L8.12388 10.0903L7.96967 9.92188L7.81546 10.0903L7.66125 9.92188L7.49796 10.0903L7.34375 9.92188L7.18954 10.0903L7.03533 9.92188L6.88112 10.0903L6.72691 9.92188V11.1854H8.59558V11.1854ZM11.2262 12.6005V11.337L11.0811 11.5054L10.9269 11.337L10.7727 11.5054L10.6094 11.337L10.4552 11.5054L10.301 11.337L10.1468 11.5054L9.99254 11.337V12.6005H11.2353H11.2262ZM5.32995 12.6005V11.337L5.16667 11.5054L5.01246 11.337L4.85825 11.5054L4.70404 11.337L4.54983 11.5054L4.39562 11.337L4.23233 11.5054L4.07812 11.337V12.6005H5.32088H5.32995ZM11.2353 13.2238V14.4873L11.0811 14.3188L10.9269 14.4873L10.7727 14.3188L10.6094 14.4873L10.4552 14.3188L10.301 14.4873L10.1468 14.3188L9.99254 14.4873V13.2238H11.2353V13.2238ZM5.32088 13.2238V14.4873L5.16667 14.3188L5.01246 14.4873L4.85825 14.3188L4.70404 14.4873L4.54983 14.3188L4.39562 14.4873L4.23233 14.3188L4.07812 14.4873V13.2238H5.32088V13.2238Z" fill="#FAAE29"/>
<path fill-rule="evenodd" clip-rule="evenodd" d="M8.58707 14.6392V15.4226L8.75035 15.2626L8.90456 15.431L9.05878 15.2626L9.21299 15.431L9.3672 15.2626L9.52141 15.431L9.68469 15.2626L9.8389 15.431L9.99311 15.2626V13.2241L8.58707 14.6392V14.6392ZM6.72748 14.6392V15.4226L6.5642 15.2626L6.40999 15.431L6.25578 15.2626L6.10157 15.431L5.94736 15.2626L5.79315 15.431L5.63894 15.2626L5.48473 15.431L5.32144 15.2626V13.2241L6.72748 14.6392V14.6392ZM6.72748 11.1857V10.4023L6.5642 10.554L6.40999 10.4023L6.25578 10.554L6.10157 10.4023L5.94736 10.554L5.79315 10.4023L5.63894 10.554L5.48473 10.4023L5.32144 10.554V12.6008L6.72748 11.1857V11.1857ZM8.58707 11.1857V10.4023L8.75035 10.554L8.90456 10.4023L9.05878 10.554L9.21299 10.4023L9.3672 10.554L9.52141 10.4023L9.67562 10.554L9.8389 10.4023L9.99311 10.554V12.6008L8.58707 11.1857V11.1857ZM4.07869 14.1675L3.92448 14.0075L3.77027 14.176L3.61606 14.0075L3.46185 14.176L3.30764 14.0075L3.14436 14.176L2.99015 14.0075L2.83594 14.176V11.649L2.99015 11.8175L3.14436 11.649L3.30764 11.8175L3.46185 11.649L3.61606 11.8175L3.77027 11.649L3.92448 11.8175L4.07869 11.649V12.6008H3.46185L3.14436 12.9125L3.46185 13.2241H4.07869V14.1675V14.1675ZM11.2359 14.1675L11.3901 14.0075L11.5443 14.176L11.6985 14.0075L11.8618 14.176L12.016 14.0075L12.1702 14.176L12.3244 14.0075L12.4786 14.176V11.649L12.3244 11.8175L12.1702 11.649L12.016 11.8175L11.8618 11.649L11.6985 11.8175L11.5443 11.649L11.3901 11.8175L11.2359 11.649V12.6008H11.8618L12.1702 12.9125L11.8618 13.2241H11.2359V14.1675V14.1675Z" fill="#00843D"/>
<path fill-rule="evenodd" clip-rule="evenodd" d="M5.95964 14.7417C5.95964 14.7417 5.83264 14.8596 5.83264 14.927C5.83264 14.986 5.96871 15.1123 6.03221 15.1123C6.10478 15.1123 6.2227 14.986 6.2227 14.927C6.2227 14.8681 6.0957 14.7417 6.0957 14.7417V14.489C6.0957 14.489 6.36784 14.9186 6.36784 14.7333C6.36784 14.5985 6.0957 14.3711 6.0957 14.3711H5.95964C5.95964 14.3711 5.6875 14.6406 5.6875 14.7333C5.6875 14.9186 5.95964 14.489 5.95964 14.489V14.7417V14.7417Z" fill="white"/>
<path fill-rule="evenodd" clip-rule="evenodd" d="M7.58126 15.2215C7.58126 15.2215 7.42705 15.3899 7.42705 15.4742C7.42705 15.5584 7.59033 15.7437 7.6629 15.7437C7.75361 15.7437 7.88968 15.5668 7.88968 15.4826C7.88968 15.3983 7.73547 15.2215 7.73547 15.2215V14.8677C7.73547 14.8677 8.0076 15.4405 8.0076 15.1793C8.0076 15.0109 7.73547 14.6992 7.73547 14.6992H7.58126C7.58126 14.6992 7.26377 15.0867 7.30912 15.1793C7.30912 15.4405 7.58126 14.8677 7.58126 14.8677V15.2215V15.2215Z" fill="#CA3745"/>
<path d="M5.94787 13.0653C6.11756 13.0653 6.25512 12.9938 6.25512 12.9057C6.25512 12.8175 6.11756 12.7461 5.94787 12.7461C5.77819 12.7461 5.64062 12.8175 5.64062 12.9057C5.64062 12.9938 5.77819 13.0653 5.94787 13.0653Z" fill="#00843D"/>
<path d="M7.65881 13.0653C7.8285 13.0653 7.96606 12.9938 7.96606 12.9057C7.96606 12.8175 7.8285 12.7461 7.65881 12.7461C7.48912 12.7461 7.35156 12.8175 7.35156 12.9057C7.35156 12.9938 7.48912 13.0653 7.65881 13.0653Z" fill="#00843D"/>
<path d="M9.36975 13.0653C9.53944 13.0653 9.677 12.9938 9.677 12.9057C9.677 12.8175 9.53944 12.7461 9.36975 12.7461C9.20006 12.7461 9.0625 12.8175 9.0625 12.9057C9.0625 12.9938 9.20006 13.0653 9.36975 13.0653Z" fill="#00843D"/>
<path fill-rule="evenodd" clip-rule="evenodd" d="M5.92965 11.1017C5.92965 11.1017 5.80265 10.9754 5.80265 10.9164C5.80265 10.8574 5.93872 10.7227 5.99314 10.7227C6.06571 10.7227 6.18364 10.849 6.18364 10.908C6.18364 10.9754 6.05664 11.1017 6.05664 11.1017V11.3544C6.05664 11.3544 6.33785 10.9164 6.33785 11.1017C6.33785 11.2365 6.06571 11.4723 6.06571 11.4723H5.92965C5.92965 11.4723 5.64844 11.2028 5.64844 11.1101C5.64844 10.9248 5.92057 11.346 5.92057 11.346V11.0933L5.92965 11.1017Z" fill="white"/>
<path fill-rule="evenodd" clip-rule="evenodd" d="M7.54345 10.6115C7.54345 10.6115 7.38924 10.443 7.38924 10.3588C7.38924 10.2745 7.5616 10.0977 7.62509 10.0977C7.71581 10.0977 7.86095 10.2661 7.86095 10.3504C7.86095 10.4346 7.70674 10.6199 7.70674 10.6199V10.9568C7.70674 10.9568 7.97887 10.3925 7.97887 10.6536C7.97887 10.8221 7.70674 11.1421 7.70674 11.1421H7.53438C7.53438 11.1421 7.21689 10.7462 7.26225 10.6536C7.26225 10.4009 7.53438 10.9653 7.53438 10.9653V10.6115H7.54345Z" fill="#CA3745"/>
<path fill-rule="evenodd" clip-rule="evenodd" d="M9.26936 14.7406C9.26936 14.7406 9.14236 14.8585 9.14236 14.9259C9.14236 14.9848 9.27843 15.1112 9.34193 15.1112C9.4145 15.1112 9.53242 14.9848 9.53242 14.9259C9.53242 14.8669 9.40543 14.7406 9.40543 14.7406V14.4879C9.40543 14.4879 9.67756 14.9174 9.67756 14.7321C9.67756 14.5974 9.40543 14.3699 9.40543 14.3699H9.26029C9.26029 14.3699 8.98815 14.6395 8.98815 14.7321C8.98815 14.9174 9.26029 14.4879 9.26029 14.4879V14.7406H9.26936ZM9.24214 11.1017C9.24214 11.1017 9.11515 10.9754 9.11515 10.908C9.11515 10.8574 9.25122 10.7227 9.30564 10.7227C9.37821 10.7227 9.49614 10.849 9.49614 10.908C9.49614 10.9754 9.36914 11.1017 9.36914 11.1017V11.3544C9.36914 11.3544 9.65035 10.9164 9.65035 11.1017C9.65035 11.2365 9.37821 11.4723 9.37821 11.4723H9.24214C9.24214 11.4723 8.96094 11.2028 8.96094 11.1101C8.96094 10.9248 9.23307 11.346 9.23307 11.346V11.0933L9.24214 11.1017Z" fill="white"/>
<path fill-rule="evenodd" clip-rule="evenodd" d="M4.60695 13.864C4.60695 13.864 4.4346 13.9819 4.4346 14.0325C4.4346 14.0914 4.61602 14.2178 4.69766 14.2094C4.78838 14.2094 4.95166 14.0998 4.95166 14.0409C4.95166 13.9819 4.7793 13.864 4.7793 13.864V13.6281C4.7793 13.6281 5.08772 14.0072 5.08772 13.8387C5.08772 13.7208 4.7793 13.5102 4.7793 13.5102H4.60695C4.60695 13.5102 4.25318 13.7798 4.3076 13.8387C4.3076 14.0072 4.60695 13.6281 4.60695 13.6281V13.864V13.864ZM4.57067 12.0867C4.57067 12.0867 4.39831 11.9688 4.39831 11.9098C4.39831 11.8508 4.57974 11.7329 4.66138 11.7413C4.75209 11.7413 4.91537 11.8508 4.91537 11.9098C4.91537 11.9688 4.74302 12.0783 4.74302 12.0783V12.3141C4.74302 12.3141 5.05144 11.9351 5.05144 12.112C5.05144 12.2215 4.74302 12.432 4.74302 12.432H4.57067C4.57067 12.432 4.21689 12.1709 4.27132 12.112C4.27132 11.9435 4.57067 12.3141 4.57067 12.3141V12.0867V12.0867ZM10.5849 13.8219C10.5849 13.8219 10.4034 13.9398 10.4034 13.9988C10.4034 14.0577 10.5939 14.1757 10.6756 14.1757C10.7663 14.1757 10.9296 14.0577 10.9296 14.0072C10.9296 13.9398 10.7481 13.8219 10.7481 13.8219V13.5945C10.7481 13.5945 11.0566 13.9735 11.0566 13.7966C11.0566 13.6871 10.7572 13.4765 10.7572 13.4765H10.5758C10.5758 13.4765 10.2311 13.7376 10.2764 13.7966C10.2764 13.9735 10.5849 13.5945 10.5849 13.5945V13.8303V13.8219ZM10.5486 12.053C10.5486 12.053 10.3672 11.9351 10.3672 11.8761C10.3672 11.8171 10.5577 11.6992 10.6393 11.6992C10.73 11.6992 10.8933 11.8171 10.8933 11.8677C10.8933 11.9351 10.7119 12.0446 10.7119 12.0446V12.2804C10.7119 12.2804 11.0203 11.9014 11.0203 12.0698C11.0203 12.1878 10.7209 12.3983 10.7209 12.3983H10.5395C10.5395 12.3983 10.1948 12.1372 10.2402 12.0783C10.2402 11.9014 10.5486 12.2804 10.5486 12.2804V12.0446V12.053Z" fill="#CA3745"/>
<path fill-rule="evenodd" clip-rule="evenodd" d="M3.33606 13.8473C3.28164 13.7378 3.29978 13.6872 3.29978 13.6283C3.29978 13.5693 3.45399 13.4598 3.50841 13.4598C3.58098 13.4598 3.69891 13.5777 3.69891 13.6451C3.69891 13.7041 3.69891 13.7546 3.6717 13.8641L3.59913 13.6872C3.49934 13.9399 3.49027 13.9399 3.43585 13.6788L3.34513 13.8473H3.33606ZM3.33606 12.0363C3.29071 12.1458 3.29978 12.1963 3.29978 12.2553C3.29978 12.3143 3.45399 12.4238 3.51749 12.4238C3.59006 12.4238 3.70798 12.3058 3.70798 12.2384C3.70798 12.1795 3.70798 12.1289 3.68077 12.0194L3.59913 12.1963C3.50841 11.9436 3.49934 11.9436 3.43585 12.2048L3.34513 12.0363H3.33606ZM11.7269 13.822C11.6725 13.7125 11.6816 13.662 11.6816 13.603C11.6816 13.544 11.8448 13.4345 11.8993 13.4345C11.9718 13.4345 12.0898 13.5609 12.0898 13.6199C12.0898 13.6788 12.0898 13.7378 12.0625 13.8389L11.9809 13.662C11.8902 13.9147 11.8811 13.9231 11.8176 13.662L11.7269 13.822ZM11.7269 12.0194C11.6725 12.1205 11.6906 12.1711 11.6906 12.2384C11.6906 12.289 11.8448 12.4069 11.8993 12.4069C11.9718 12.4069 12.0988 12.2806 12.0988 12.2216C12.0988 12.1542 12.0988 12.1037 12.0716 11.9942L11.9809 12.1795C11.8902 11.9184 11.8902 11.9099 11.8267 12.1795L11.736 12.011L11.7269 12.0194Z" fill="white"/>
<path fill-rule="evenodd" clip-rule="evenodd" d="M6.70604 15.9362V15.4813H5.25465V14.5884H3.96654V14.2936H2.84171V11.5982H3.96654V11.3034H5.25465V10.4105H6.70604V9.96412H8.62913V10.4105H10.0805V11.3034H11.3596V11.6066H12.4935V14.2936H11.3686V14.5884H10.0896V15.4813H8.6382V15.9277H6.71511L6.70604 15.9362ZM6.54276 16.0793V15.6329H5.09137V14.7401H3.81233V14.4368H2.6875V11.455H3.81233V11.1602H5.09137V10.2589H6.54276V9.8125H8.79241V10.2589H10.2438V11.1602H11.5228V11.455H12.6477V14.4368H11.5228V14.7401H10.2347V15.6329H8.78334V16.0793H6.54276V16.0793Z" fill="#CA3745"/>
<path fill-rule="evenodd" clip-rule="evenodd" d="M6.53494 9.80859H8.79334V10.255H10.2447V11.1563H11.5238V11.4511H12.6486V14.4417H11.5238V14.7449H10.2357V15.6378H8.78427V16.0842H6.53932V16.0798H6.53494V15.6378H5.08355V14.7449H3.80452V14.4417H2.67969V11.4511H3.80452V11.1563H5.08355V10.255H6.53494V9.80859ZM6.54369 16.0754H8.77553V15.629H10.2269V14.7362H11.515V14.4329H12.6399V11.4599H11.515V11.165H10.236V10.2638H8.7846V9.81733H6.54369V10.2638H5.09229V11.165H3.81326V11.4599H2.68843V14.4329H3.81326V14.7362H5.09229V15.629H6.54369V16.0754ZM6.69823 9.96021H8.63006V10.4066H10.0815V11.2995H11.3605V11.6027H12.4944V14.2985H11.3696V14.5933H10.0905V15.4861H8.63913V15.9326H6.71338L6.69823 15.9466V15.4861H5.24683V14.5933H3.95873V14.2985H2.8339V11.5943H3.95873V11.2995H5.24683V10.4066H6.69823V9.96021ZM6.70697 9.96895V10.4154H5.25558V11.3082H3.96747V11.603H2.84264V14.2897H3.96747V14.5845H5.25558V15.4774H6.70697V15.9266L6.70995 15.9238H8.63039V15.4774H10.0818V14.5845H11.3608V14.2897H12.4856V11.6115H11.3517V11.3082H10.0727V10.4154H8.62132V9.96895H6.70697Z" fill="black"/>
</g>
<defs>
<clipPath id="clip0_4046_26741">
<rect width="60" height="45" fill="white"/>
</clipPath>
</defs>
</svg>
