<svg width="60" height="45" viewBox="0 0 60 45" fill="none" xmlns="http://www.w3.org/2000/svg">
<g clip-path="url(#clip0_4046_26971)">
<path fill-rule="evenodd" clip-rule="evenodd" d="M-3.75 0H63.75V45H-3.75V0Z" fill="#E70013"/>
<path fill-rule="evenodd" clip-rule="evenodd" d="M41.4121 22.4834C41.4121 25.4927 40.2167 28.3788 38.0887 30.5067C35.9608 32.6346 33.0748 33.8301 30.0654 33.8301C27.0561 33.8301 24.17 32.6346 22.0421 30.5067C19.9142 28.3788 18.7188 25.4927 18.7188 22.4834C18.7188 19.4741 19.9142 16.588 22.0421 14.4601C24.17 12.3322 27.0561 11.1367 30.0654 11.1367C33.0748 11.1367 35.9608 12.3322 38.0887 14.4601C40.2167 16.588 41.4121 19.4741 41.4121 22.4834V22.4834Z" fill="white"/>
<path fill-rule="evenodd" clip-rule="evenodd" d="M30.064 30.0049C28.112 29.9382 26.2623 29.1159 24.905 27.7114C23.5477 26.3069 22.7891 24.4302 22.7891 22.4771C22.7891 20.5239 23.5477 18.6472 24.905 17.2427C26.2623 15.8382 28.112 15.0159 30.064 14.9492C31.1011 14.9492 32.2877 15.1953 33.0875 15.7842C27.5855 15.9863 26.1881 20.6621 26.1881 22.543C26.1881 24.4238 27.0757 28.6162 33.0875 29.2402C32.4019 29.6797 31.1011 30.0049 30.064 30.0049Z" fill="#E70013"/>
<path fill-rule="evenodd" clip-rule="evenodd" d="M36.6904 25.6475L33.2715 24.3994L31.0127 27.2471L31.1445 23.6172L27.7344 22.3428L31.2324 21.3408L31.3818 17.7109L33.4209 20.7256L36.9189 19.7588L34.6777 22.6152L36.6904 25.6475Z" fill="#E70013"/>
</g>
<defs>
<clipPath id="clip0_4046_26971">
<rect width="60" height="45" fill="white"/>
</clipPath>
</defs>
</svg>
