<svg width="60" height="45" viewBox="0 0 60 45" fill="none" xmlns="http://www.w3.org/2000/svg">
<g clip-path="url(#clip0_4046_26995)">
<path d="M0 0H60V45H0V0Z" fill="#009FCA"/>
<path fill-rule="evenodd" clip-rule="evenodd" d="M55.6187 11.5031H58.2156L56.125 12.9281L56.9219 15.2438L54.8312 13.8094L52.75 15.2438L53.5469 12.9281L51.4562 11.5031H54.0344L54.8312 9.1875L55.6187 11.5031ZM49.1312 29.9531H51.7187L49.6281 31.3781L50.425 33.6937L48.3344 32.2594L46.2437 33.6937L47.05 31.3781L44.9594 29.9531H47.5281L48.325 27.6375L49.1312 29.9531ZM55.6187 25.7719H58.2156L56.125 27.1969L56.9219 29.5125L54.8312 28.0781L52.75 29.5125L53.5469 27.1969L51.4562 25.7719H54.0344L54.8312 23.4562L55.6187 25.7719ZM27.7281 39.1594H30.3156L28.2156 40.575L29.0219 42.8812L26.9312 41.4563L24.8406 42.8812L25.6469 40.575L23.5469 39.1406H26.1344L26.9312 36.8344L27.7281 39.1594ZM33.5969 31.9875H31.0094L33.1 30.5531L32.3031 28.2469L34.3937 29.6719L36.4844 28.2469L35.6781 30.5531L37.7687 31.9875H35.1906L34.3937 34.2937L33.5969 31.9875ZM41.2188 21.4406H38.6219L40.7125 20.0156L39.9156 17.7L42.0062 19.1344L44.0969 17.7L43.2906 20.0156L45.3812 21.4406H42.8031L42.0062 23.7562L41.2188 21.4406ZM47.6219 19.2562H45.0344L47.1344 17.8219L46.3281 15.5156L48.4187 16.9406L50.5094 15.5156L49.7031 17.8219L51.8031 19.2562H49.2156L48.4187 21.5625L47.6219 19.2562ZM41.2188 37.5H38.6219L40.7125 36.075L39.9344 33.75L42.025 35.175L44.1156 33.75L43.3094 36.0656L45.4 37.4906H42.8219L42.025 39.8063L41.2188 37.5ZM33.5969 39.3656H31.0094L33.1 37.9406L32.3031 35.625L34.3937 37.05L36.4844 35.625L35.6781 37.9313L37.7781 39.375H35.2L34.4031 41.6906L33.5969 39.3656Z" fill="#FFF40D"/>
<path d="M0 0H30V22.5H0V0Z" fill="#012169"/>
<path d="M3.51562 0L14.9531 8.48438L26.3438 0H30V2.90625L18.75 11.2969L30 19.6406V22.5H26.25L15 14.1094L3.79688 22.5H0V19.6875L11.2031 11.3438L0 3V0H3.51562Z" fill="white"/>
<path d="M19.875 13.1719L30 20.625V22.5L17.2969 13.1719H19.875ZM11.25 14.1094L11.5312 15.75L2.53125 22.5H0L11.25 14.1094ZM30 0V0.140625L18.3281 8.95312L18.4219 6.89062L27.6562 0H30ZM0 0L11.2031 8.25H8.39062L0 1.96875V0Z" fill="#C8102E"/>
<path d="M11.2969 0V22.5H18.7969V0H11.2969ZM0 7.5V15H30V7.5H0Z" fill="white"/>
<path d="M0 9.04688V13.5469H30V9.04688H0ZM12.7969 0V22.5H17.2969V0H12.7969Z" fill="#C8102E"/>
</g>
<defs>
<clipPath id="clip0_4046_26995">
<rect width="60" height="45" fill="white"/>
</clipPath>
</defs>
</svg>
