<svg width="60" height="45" viewBox="0 0 60 45" fill="none" xmlns="http://www.w3.org/2000/svg">
<g clip-path="url(#clip0_4046_27003)">
<path d="M0 0H67.5V45H0V0Z" fill="#FF0000"/>
<path d="M0 0H33.75V22.5H0V0Z" fill="#000095"/>
<path d="M14.4375 11.8969L14.2031 12.7969L15.0844 13.0406L14.9156 12.375L14.4375 11.8969ZM18.8344 12.375L18.6656 13.0406L19.5469 12.7969L19.3125 11.8969L18.8344 12.375ZM14.9156 10.125L14.4375 10.6031L14.6156 11.25L14.9156 10.125Z" fill="white"/>
<path d="M14.6156 11.25L14.4375 11.8969L14.9156 12.375L14.6156 11.25Z" fill="white"/>
<path d="M14.4359 10.6016L13.7891 11.2484L14.4359 11.8953L14.6141 11.2484L14.4359 10.6016ZM15.7484 13.2078L16.2266 13.6859L16.8734 13.5078L15.7484 13.2078ZM17.5203 13.6859L18.4203 13.9203L18.6641 13.0391L17.9984 13.2078L17.5203 13.6859Z" fill="white"/>
<path d="M18.0016 13.2094L18.6672 13.0406L18.8359 12.375L18.0016 13.2094ZM15.0859 13.0406L15.3297 13.9219L16.2297 13.6875L15.7516 13.2094L15.0859 13.0406ZM16.8766 13.5094L17.5234 13.6875L18.0016 13.2094L16.8766 13.5094Z" fill="white"/>
<path d="M16.2281 13.6891L16.875 14.3359L17.5219 13.6891L16.875 13.5109L16.2281 13.6891ZM15.0844 9.46094L14.2031 9.70469L14.4375 10.6047L14.9156 10.1266L15.0844 9.46094ZM14.9156 12.3766L15.0844 13.0422L15.75 13.2109L14.9156 12.3766ZM19.1344 11.2516L19.3125 10.6047L18.8344 10.1266L19.1344 11.2516Z" fill="white"/>
<path d="M15.7484 9.28906L15.0828 9.45781L14.9141 10.1234L15.7484 9.28906ZM18.8328 10.1234L18.6641 9.45781L17.9984 9.28906L18.8328 10.1234ZM19.3109 11.8953L19.9578 11.2484L19.3109 10.6016L19.1328 11.2484L19.3109 11.8953Z" fill="white"/>
<path d="M18.8359 10.1266L18.0016 9.29219L16.8766 8.99219L15.7516 9.29219L14.9172 10.1266L14.6172 11.2516L14.9172 12.3766L15.7516 13.2109L16.8766 13.5109L18.0016 13.2109L18.8359 12.3766L19.1359 11.2516L18.8359 10.1266Z" fill="white"/>
<path d="M18.8359 12.375L19.3141 11.8969L19.1359 11.25L18.8359 12.375ZM19.3141 10.6031L19.5484 9.70312L18.6672 9.45938L18.8359 10.125L19.3141 10.6031ZM18.6672 9.45938L18.4234 8.57812L17.5234 8.8125L18.0016 9.29062L18.6672 9.45938ZM16.2297 8.8125L15.3297 8.57812L15.0859 9.45938L15.7516 9.29062L16.2297 8.8125ZM16.8766 8.99063L16.2297 8.8125L15.7516 9.29062L16.8766 8.99063Z" fill="white"/>
<path d="M17.5203 8.81094L16.8734 8.16406L16.2266 8.81094L16.8734 8.98906L17.5203 8.81094Z" fill="white"/>
<path d="M17.9984 9.29062L17.5203 8.8125L16.8734 8.99063L17.9984 9.29062ZM16.2266 13.6875L15.3266 13.9219L15.7484 15.4781L16.8734 14.3344L16.2266 13.6875ZM15.7484 15.4781L16.8734 19.6875L17.9984 15.4781L16.8734 14.3344L15.7484 15.4781ZM15.0828 13.0406L14.2016 12.7969L13.7891 14.3344L15.3266 13.9219L15.0828 13.0406Z" fill="white"/>
<path d="M13.7906 14.3344L12.6656 18.5625L15.75 15.4781L15.3281 13.9219L13.7906 14.3344ZM12.6656 12.375L9.5625 15.4781L13.7906 14.3344L14.2031 12.7969L12.6656 12.375Z" fill="white"/>
<path d="M14.4359 11.8969L13.7891 11.25L12.6641 12.375L14.2016 12.7969L14.4359 11.8969ZM14.4359 10.6031L14.2016 9.70312L12.6641 10.125L13.7891 11.25L14.4359 10.6031Z" fill="white"/>
<path d="M12.6656 10.125L8.4375 11.25L12.6656 12.375L13.7906 11.25L12.6656 10.125ZM21.1031 12.375L19.5469 12.7969L19.9594 14.3344L24.1875 15.4781L21.1031 12.375Z" fill="white"/>
<path d="M18.6656 13.0406L18.4219 13.9219L19.9594 14.3344L19.5469 12.7969L18.6656 13.0406ZM17.5219 13.6875L16.875 14.3344L18 15.4781L18.4219 13.9219L17.5219 13.6875ZM19.3125 11.8969L19.5469 12.7969L21.1031 12.375L19.9594 11.25L19.3125 11.8969Z" fill="white"/>
<path d="M18 15.4766L21.1031 18.5609L19.9594 14.3328L18.4219 13.9203L18 15.4766ZM18.6656 9.45781L19.5469 9.70156L19.9594 8.16406L18.4219 8.57656L18.6656 9.45781Z" fill="white"/>
<path d="M21.1031 10.125L24.1875 7.04062L19.9594 8.16562L19.5469 9.70312L21.1031 10.125ZM19.9594 8.16562L21.1031 3.9375L18 7.04062L18.4219 8.57812L19.9594 8.16562ZM21.1031 12.375L25.3125 11.25L21.1031 10.125L19.9594 11.25L21.1031 12.375Z" fill="white"/>
<path d="M19.3109 10.6031L19.9578 11.25L21.1016 10.125L19.5453 9.70312L19.3109 10.6031ZM15.7484 7.04062L12.6641 3.9375L13.7891 8.16562L15.3266 8.57812L15.7484 7.04062Z" fill="white"/>
<path d="M15.0828 9.45781L15.3266 8.57656L13.7891 8.16406L14.2016 9.70156L15.0828 9.45781Z" fill="white"/>
<path d="M13.7906 8.16406L9.5625 7.03906L12.6656 10.1234L14.2031 9.70156L13.7906 8.16406ZM17.5219 8.81094L18.4219 8.57656L18 7.03906L16.875 8.16406L17.5219 8.81094Z" fill="white"/>
<path d="M18 7.04062L16.875 2.8125L15.75 7.04062L16.875 8.16562L18 7.04062Z" fill="white"/>
<path d="M16.2281 8.81094L16.875 8.16406L15.75 7.03906L15.3281 8.57656L16.2281 8.81094Z" fill="white"/>
<path d="M16.8766 16.0422C19.5224 16.0422 21.6672 13.8974 21.6672 11.2516C21.6672 8.60577 19.5224 6.46094 16.8766 6.46094C14.2308 6.46094 12.0859 8.60577 12.0859 11.2516C12.0859 13.8974 14.2308 16.0422 16.8766 16.0422Z" fill="#000095"/>
<path d="M16.8766 15.4797C19.2117 15.4797 21.1047 13.5867 21.1047 11.2516C21.1047 8.91643 19.2117 7.02344 16.8766 7.02344C14.5414 7.02344 12.6484 8.91643 12.6484 11.2516C12.6484 13.5867 14.5414 15.4797 16.8766 15.4797Z" fill="white"/>
</g>
<defs>
<clipPath id="clip0_4046_27003">
<rect width="60" height="45" fill="white"/>
</clipPath>
</defs>
</svg>
