<svg width="60" height="45" viewBox="0 0 60 45" fill="none" xmlns="http://www.w3.org/2000/svg">
<g clip-path="url(#clip0_4046_27041)">
<path fill-rule="evenodd" clip-rule="evenodd" d="M-3.75 30.0078H63.75V37.5049H-3.75V30.0078Z" fill="#FFE700"/>
<path fill-rule="evenodd" clip-rule="evenodd" d="M-3.75 22.5H63.75V29.9971H-3.75V22.5Z" fill="black"/>
<path fill-rule="evenodd" clip-rule="evenodd" d="M-3.75 15.0039H63.75V22.501H-3.75V15.0039Z" fill="#DE3908"/>
<path fill-rule="evenodd" clip-rule="evenodd" d="M-3.75 7.50781H63.75V15.0049H-3.75V7.50781Z" fill="#FFE700"/>
<path fill-rule="evenodd" clip-rule="evenodd" d="M-3.75 0H63.75V7.49707H-3.75V0Z" fill="black"/>
<path fill-rule="evenodd" clip-rule="evenodd" d="M37.002 22.501C37.002 24.3588 36.2639 26.1405 34.9503 27.4542C33.6366 28.7678 31.8549 29.5059 29.9971 29.5059C28.1393 29.5059 26.3575 28.7678 25.0439 27.4542C23.7302 26.1405 22.9922 24.3588 22.9922 22.501C22.9922 20.6432 23.7302 18.8614 25.0439 17.5478C26.3575 16.2341 28.1393 15.4961 29.9971 15.4961C31.8549 15.4961 33.6366 16.2341 34.9503 17.5478C36.2639 18.8614 37.002 20.6432 37.002 22.501V22.501Z" fill="#FFFDFF"/>
<path fill-rule="evenodd" clip-rule="evenodd" d="M30.002 15.541C28.1558 15.541 26.3853 16.2744 25.0798 17.5798C23.7744 18.8853 23.041 20.6558 23.041 22.502C23.041 24.3481 23.7744 26.1187 25.0798 27.4241C26.3853 28.7295 28.1558 29.4629 30.002 29.4629C31.8481 29.4629 33.6187 28.7295 34.9241 27.4241C36.2295 26.1187 36.9629 24.3481 36.9629 22.502C36.9629 20.6558 36.2295 18.8853 34.9241 17.5798C33.6187 16.2744 31.8481 15.541 30.002 15.541ZM25.0177 17.5177C26.3396 16.1958 28.1325 15.4531 30.002 15.4531C31.8714 15.4531 33.6643 16.1958 34.9862 17.5177C36.3081 18.8396 37.0508 20.6325 37.0508 22.502C37.0508 24.3714 36.3081 26.1643 34.9862 27.4862C33.6643 28.8081 31.8714 29.5508 30.002 29.5508C28.1325 29.5508 26.3396 28.8081 25.0177 27.4862C23.6958 26.1643 22.9531 24.3714 22.9531 22.502C22.9531 20.6325 23.6958 18.8396 25.0177 17.5177Z" fill="black"/>
<path fill-rule="evenodd" clip-rule="evenodd" d="M28.7695 17.1279L28.3125 16.293C28.4883 16.1172 28.7783 15.9766 29.2529 15.9766L29.2002 16.8994L28.7607 17.1279H28.7695Z" fill="#DE3108"/>
<path fill-rule="evenodd" clip-rule="evenodd" d="M28.3669 16.3023L28.7851 17.0665L29.1574 16.8729L29.206 16.022C28.7893 16.0304 28.5292 16.1522 28.3669 16.3023ZM28.8274 17.1436L29.2423 16.9278L29.2991 15.9336H29.2526C28.7688 15.9336 28.4667 16.0773 28.2811 16.2629L28.2578 16.2862L28.7307 17.15L28.752 17.1383L28.7604 17.1729H28.8434L28.8274 17.1436Z" fill="black"/>
<path fill-rule="evenodd" clip-rule="evenodd" d="M29.2119 16.9005L29.2734 15.9777C29.2734 15.9777 30.2139 15.925 30.7236 16.5402L30.2227 17.2609L29.2031 16.9093L29.2119 16.9005Z" fill="#FFE700"/>
<path fill-rule="evenodd" clip-rule="evenodd" d="M29.3095 16.0216L29.2521 16.8825L30.2004 17.2095L30.6631 16.5439C30.4184 16.2644 30.0786 16.1331 29.7931 16.0722C29.6465 16.0409 29.5154 16.0285 29.4211 16.0239C29.3739 16.0216 29.336 16.0213 29.3101 16.0215C29.3099 16.0215 29.3097 16.0216 29.3095 16.0216ZM29.164 16.8821L29.227 15.937L29.2658 15.9348L29.2683 15.9787C29.2658 15.9348 29.2658 15.9348 29.2658 15.9348L29.2659 15.9348L29.2661 15.9348L29.2667 15.9347L29.269 15.9346C29.271 15.9345 29.2738 15.9344 29.2775 15.9343C29.2848 15.9341 29.2956 15.9338 29.3093 15.9337C29.3368 15.9334 29.3763 15.9338 29.4253 15.9361C29.5232 15.9409 29.6592 15.9538 29.8114 15.9862C30.115 16.051 30.4886 16.1948 30.7523 16.5131L30.7736 16.5388L30.2346 17.3143L29.1172 16.9289L29.164 16.8821Z" fill="black"/>
<path fill-rule="evenodd" clip-rule="evenodd" d="M30.2266 17.252L30.6924 16.5312C31 16.8564 31.1318 17.085 31.1758 17.4365C31.1846 17.4453 30.4463 17.6211 30.4463 17.6123L30.2266 17.252V17.252Z" fill="#DE3108"/>
<path fill-rule="evenodd" clip-rule="evenodd" d="M30.6843 16.4609L30.7228 16.5016C31.0336 16.8302 31.1718 17.0667 31.2176 17.4294C31.2186 17.4352 31.2185 17.4415 31.217 17.4478C31.2141 17.4596 31.2072 17.4667 31.2049 17.469C31.1998 17.4739 31.1946 17.4766 31.1932 17.4773L31.1931 17.4774C31.1892 17.4794 31.1851 17.481 31.1823 17.4819C31.1761 17.4842 31.1675 17.4868 31.1577 17.4897C31.1377 17.4955 31.1091 17.5032 31.075 17.512C31.0066 17.5297 30.9149 17.5523 30.823 17.5743C30.7311 17.5963 30.6389 17.6178 30.5695 17.6332C30.5349 17.6409 30.5057 17.6472 30.485 17.6513C30.4747 17.6533 30.466 17.6549 30.4595 17.6559C30.4565 17.6563 30.4528 17.6568 30.4492 17.657C30.4479 17.6571 30.444 17.6573 30.4393 17.6567C30.4375 17.6564 30.4314 17.6555 30.4247 17.652C30.4201 17.6497 30.4113 17.6438 30.4057 17.6332L30.1875 17.2754L30.225 17.2525L30.1881 17.2286L30.6843 16.4609ZM30.2769 17.2532L30.4672 17.5652C30.4674 17.5652 30.4677 17.5651 30.4679 17.5651C30.4876 17.5612 30.516 17.5551 30.5504 17.5474C30.6192 17.5321 30.711 17.5107 30.8026 17.4888C30.8942 17.4669 30.9853 17.4444 31.053 17.4269C31.0827 17.4192 31.1076 17.4126 31.1259 17.4074C31.0813 17.1021 30.9633 16.8914 30.6972 16.6029L30.2769 17.2532ZM30.4834 17.5919L30.4816 17.5889C30.4822 17.5898 30.4828 17.5908 30.4834 17.5919Z" fill="black"/>
<path fill-rule="evenodd" clip-rule="evenodd" d="M28.995 29.1017C28.995 29.1017 29.8651 28.1085 31.5526 28.3195C31.2978 27.9064 30.4716 27.9591 30.4716 27.9591C30.4716 27.9591 30.2255 26.0255 30.4188 25.9201C30.6122 25.8146 31.4735 25.9288 31.4735 25.9288C31.579 25.9288 31.7724 25.63 31.6142 25.4367C31.4647 25.2433 31.0165 24.5138 31.2011 24.3644C31.3856 24.2238 32.3788 24.4523 32.3788 24.4523L29.5663 20.8488C29.5663 20.8488 29.2763 19.4865 29.8563 18.8273C30.5507 18.256 30.4716 17.632 30.454 17.6408C30.3573 17.0079 29.3993 16.5597 28.7489 17.1398C28.371 17.5968 28.6259 17.9484 28.6259 17.9484C28.6259 17.9484 27.6151 18.2208 27.58 18.3966C27.536 18.5724 28.7138 18.3703 28.7138 18.3703L28.5995 19.1701C28.5995 19.1701 26.3144 21.2443 28.0722 23.0372L28.1249 22.9669C28.1249 22.9669 28.7401 23.7228 29.3817 23.8898C29.997 24.505 29.9354 24.4171 29.9354 24.4171C29.9354 24.4171 30.0497 25.3927 29.9354 25.5861C29.786 25.5421 28.2392 25.4806 28.0106 25.5685C27.7997 25.6388 27.0087 25.5949 27.202 26.8956L27.4921 26.2365C27.4921 26.2365 27.4657 26.7023 27.6591 26.8693C27.6239 26.3771 27.8437 26.0431 27.8437 26.0431C27.8437 26.0431 27.8788 26.588 28.0019 26.6583C28.1249 26.7462 28.1249 25.7794 28.7929 25.8673C29.4433 25.9464 29.9267 25.9201 29.9267 25.9201C29.9267 25.9201 30.1464 27.8009 30.0761 27.9767C29.6015 27.8624 28.4589 28.0206 28.3886 28.3107C29.0565 28.2667 29.3642 28.3458 29.3642 28.3458C29.3642 28.3458 28.828 28.8292 28.995 29.1017V29.1017Z" fill="black"/>
<path fill-rule="evenodd" clip-rule="evenodd" d="M30.4919 17.6249C30.4368 17.2953 30.1623 17.0196 29.8228 16.8987C29.4782 16.7758 29.0605 16.8098 28.7231 17.1107C28.7216 17.1121 28.7202 17.1135 28.7189 17.1151C28.5232 17.3517 28.4891 17.5645 28.5068 17.7204C28.5156 17.7977 28.537 17.8599 28.5563 17.903C28.5598 17.9107 28.5632 17.9179 28.5665 17.9244C28.539 17.9322 28.5013 17.943 28.4566 17.9563C28.3609 17.9846 28.2328 18.0244 28.1035 18.0697C27.9744 18.115 27.8429 18.1662 27.7409 18.2176C27.69 18.2432 27.645 18.2696 27.6111 18.2962C27.5793 18.3211 27.5495 18.3519 27.5418 18.3884C27.5366 18.4103 27.5409 18.4318 27.5544 18.4497C27.5668 18.4659 27.5846 18.4762 27.6017 18.4831C27.6361 18.4969 27.6839 18.5037 27.7369 18.5066C27.8443 18.5126 27.9899 18.5035 28.1347 18.4892C28.2801 18.4748 28.4266 18.4549 28.5367 18.4387C28.5903 18.4308 28.6353 18.4237 28.6674 18.4185L28.5628 19.1511C28.5587 19.1549 28.5536 19.1598 28.5474 19.1657C28.5308 19.1816 28.5068 19.205 28.477 19.2355C28.4173 19.2963 28.3342 19.3851 28.2401 19.4972C28.052 19.7213 27.8191 20.0395 27.6414 20.4148C27.4637 20.7901 27.3404 21.2245 27.374 21.68C27.4077 22.1364 27.5987 22.6109 28.0444 23.0654C28.0525 23.0736 28.0637 23.0779 28.0752 23.0772C28.0867 23.0764 28.0973 23.0707 28.1043 23.0614L28.1272 23.0308C28.1454 23.0518 28.1707 23.0805 28.2024 23.1149C28.2708 23.1891 28.3686 23.2897 28.4868 23.3957C28.7195 23.6043 29.0352 23.8376 29.3618 23.9258C29.6641 24.228 29.8015 24.3588 29.8634 24.4141C29.8791 24.4281 29.8903 24.4377 29.8985 24.4441C29.8987 24.4442 29.8989 24.4444 29.8991 24.4446C29.8998 24.4501 29.9005 24.4567 29.9013 24.4641C29.9041 24.491 29.9081 24.5297 29.9126 24.5768C29.9215 24.6709 29.9321 24.7983 29.9393 24.9317C29.9464 25.0652 29.9499 25.2038 29.9446 25.3205C29.942 25.379 29.9372 25.4311 29.9297 25.4741C29.925 25.5017 29.9193 25.5241 29.9131 25.5414C29.8896 25.5374 29.8589 25.5338 29.8236 25.5302C29.7659 25.5244 29.6918 25.5187 29.6067 25.5134C29.4365 25.5028 29.2215 25.4937 29.0041 25.4888C28.7867 25.4838 28.5664 25.483 28.3859 25.4889C28.2957 25.4919 28.215 25.4966 28.1492 25.5033C28.0853 25.5099 28.0318 25.5188 27.9978 25.5317C27.9745 25.5394 27.9422 25.5459 27.9003 25.554L27.8962 25.5548C27.8559 25.5627 27.8087 25.5718 27.7587 25.5848C27.6551 25.6116 27.5365 25.6552 27.4304 25.7403C27.2152 25.913 27.0656 26.2442 27.1634 26.9019C27.166 26.9194 27.1798 26.933 27.1972 26.9353C27.2147 26.9377 27.2316 26.9282 27.2387 26.912L27.4564 26.4173C27.4583 26.4421 27.4608 26.4685 27.4643 26.4957C27.4733 26.5662 27.4887 26.6432 27.5148 26.7141C27.5407 26.7847 27.5784 26.8519 27.6337 26.8997C27.6458 26.9101 27.663 26.9123 27.6773 26.9051C27.6916 26.8979 27.7001 26.8829 27.699 26.8669C27.6819 26.6273 27.7268 26.4263 27.776 26.2851C27.7898 26.2454 27.804 26.2104 27.8172 26.1808C27.8223 26.2256 27.8291 26.2778 27.838 26.3313C27.8503 26.4047 27.8666 26.4818 27.8882 26.5457C27.899 26.5776 27.9115 26.6074 27.9261 26.6323C27.9401 26.656 27.9579 26.6784 27.9811 26.6922C27.9962 26.7024 28.0156 26.7078 28.0363 26.7011C28.0549 26.6951 28.0677 26.6814 28.0761 26.6698C28.0931 26.6467 28.1074 26.6112 28.1211 26.5734C28.1292 26.5509 28.1374 26.5265 28.1462 26.5005C28.1687 26.4339 28.1945 26.3573 28.2295 26.2795C28.2779 26.1721 28.3412 26.0688 28.43 25.9975C28.5174 25.9274 28.6318 25.8864 28.7882 25.907L28.7885 25.9071C29.1154 25.9468 29.4002 25.9601 29.6035 25.9634C29.7051 25.965 29.7864 25.9642 29.8423 25.963C29.8621 25.9625 29.8788 25.962 29.892 25.9616C29.8934 25.9737 29.8951 25.9886 29.8971 26.0061C29.903 26.0579 29.9113 26.132 29.921 26.2214C29.9405 26.4004 29.9658 26.6408 29.9888 26.8866C30.0119 27.1325 30.0327 27.3835 30.0433 27.5838C30.0487 27.684 30.0515 27.7709 30.0507 27.8379C30.0504 27.8715 30.0492 27.8994 30.0471 27.9213C30.0468 27.9244 30.0465 27.9273 30.0461 27.9301C29.7982 27.8811 29.4119 27.8949 29.0744 27.9536C28.8959 27.9846 28.7283 28.0287 28.5999 28.0842C28.5358 28.112 28.4799 28.1432 28.4372 28.1782C28.3947 28.213 28.3622 28.254 28.3506 28.3018C28.3476 28.3141 28.3507 28.327 28.3588 28.3366C28.3669 28.3462 28.3791 28.3514 28.3916 28.3506C28.7237 28.3288 28.9655 28.3376 29.1238 28.3516C29.1919 28.3577 29.2445 28.3648 29.2822 28.3708C29.2738 28.3792 29.2647 28.3886 29.2549 28.3987C29.2065 28.449 29.1435 28.5194 29.0855 28.5987C29.0278 28.6777 28.9737 28.7676 28.945 28.8571C28.9164 28.9464 28.9116 29.041 28.9618 29.1228L28.9955 29.1022C29.0252 29.1282 29.0252 29.1282 29.0252 29.1283L29.0253 29.1282L29.0256 29.1278L29.0273 29.1259C29.0289 29.1242 29.0313 29.1216 29.0345 29.1181C29.0409 29.1113 29.0508 29.1011 29.0639 29.088C29.0903 29.062 29.1301 29.0248 29.1831 28.9807C29.2892 28.8924 29.4483 28.7765 29.6597 28.6671C30.082 28.4483 30.7134 28.2548 31.5482 28.3592C31.5633 28.3611 31.5781 28.3541 31.5864 28.3413C31.5946 28.3285 31.5947 28.3121 31.5867 28.2992C31.4495 28.0767 31.163 27.9845 30.9233 27.9458C30.8017 27.9262 30.6885 27.9198 30.6058 27.9183C30.5644 27.9175 30.5306 27.9179 30.5069 27.9186C30.5069 27.9186 30.5068 27.9186 30.5068 27.9186C30.5052 27.906 30.5033 27.8902 30.5011 27.8716C30.4948 27.8186 30.4859 27.7428 30.4759 27.6515C30.4559 27.4688 30.4312 27.2243 30.4126 26.9766C30.3939 26.7287 30.3814 26.4786 30.3855 26.2845C30.3876 26.1872 30.3937 26.1055 30.4049 26.0457C30.4105 26.0157 30.4171 25.9928 30.4242 25.9768C30.4317 25.9598 30.4375 25.9556 30.4382 25.9552C30.4566 25.9452 30.4861 25.9364 30.5266 25.9296C30.5664 25.923 30.6142 25.919 30.6672 25.9169C30.7732 25.9129 30.8975 25.9172 31.0166 25.9248C31.1356 25.9325 31.2487 25.9434 31.3321 25.9524C31.3738 25.9569 31.408 25.961 31.4318 25.9639C31.4437 25.9653 31.453 25.9665 31.4593 25.9673L31.4664 25.9682L31.4682 25.9684L31.4687 25.9685L31.4688 25.9685C31.4705 25.9688 31.4722 25.9689 31.474 25.9689C31.5168 25.9689 31.5584 25.9404 31.5909 25.9073C31.6252 25.8724 31.657 25.8247 31.6796 25.7711C31.7245 25.6649 31.7371 25.5248 31.6456 25.4125C31.5725 25.3179 31.4248 25.0899 31.3185 24.8675C31.2652 24.7559 31.2234 24.6482 31.206 24.5605C31.1973 24.5167 31.1951 24.4801 31.1993 24.4517C31.2034 24.424 31.213 24.4067 31.226 24.396C31.2413 24.3845 31.2691 24.3741 31.3114 24.3673C31.3531 24.3606 31.4046 24.358 31.4629 24.3588C31.5794 24.3604 31.7189 24.3755 31.8539 24.3952C31.9887 24.4149 32.1179 24.4389 32.2134 24.458C32.2612 24.4676 32.3005 24.4759 32.3278 24.4819C32.3415 24.4848 32.3522 24.4872 32.3594 24.4888L32.3676 24.4907L32.3697 24.4911L32.3702 24.4913L32.3704 24.4913C32.3867 24.495 32.4036 24.4881 32.4126 24.474C32.4216 24.4599 32.4207 24.4416 32.4104 24.4284L29.6037 20.8322C29.6033 20.8305 29.6029 20.8285 29.6025 20.8262C29.6005 20.8163 29.5977 20.8016 29.5944 20.7825C29.5877 20.7445 29.5787 20.6893 29.5697 20.6209C29.5518 20.4841 29.5338 20.295 29.5338 20.0857C29.5338 19.6656 29.6062 19.1745 29.8844 18.8562C30.2363 18.5659 30.3938 18.261 30.4606 18.0279C30.494 17.9112 30.5047 17.8127 30.5057 17.7432C30.5062 17.7085 30.5043 17.6805 30.5015 17.6606C30.5001 17.651 30.4983 17.6419 30.4959 17.6346C30.4952 17.6324 30.4939 17.6288 30.4919 17.6249ZM29.5668 20.8492C29.5281 20.8575 29.5281 20.8575 29.5281 20.8574L29.528 20.8571L29.5278 20.8563L29.5272 20.8532C29.5266 20.8505 29.5258 20.8466 29.5248 20.8414C29.5228 20.831 29.5199 20.8158 29.5165 20.7963C29.5096 20.7572 29.5004 20.7009 29.4913 20.6312C29.473 20.492 29.4547 20.2993 29.4547 20.0857C29.4547 19.6608 29.527 19.1427 29.8271 18.8016C29.8285 18.8 29.83 18.7986 29.8317 18.7972C30.1724 18.5168 30.3219 18.225 30.3846 18.0061C30.416 17.8964 30.4257 17.8048 30.4266 17.742C30.427 17.7105 30.4253 17.6867 30.4232 17.6719C30.4226 17.6683 30.4221 17.6655 30.4217 17.6634C30.4185 17.6586 30.4163 17.6531 30.4154 17.6472C30.3697 17.3486 30.1191 17.0882 29.7963 16.9732C29.4759 16.859 29.0905 16.8905 28.7779 17.1678C28.5974 17.3872 28.5702 17.5778 28.5854 17.7115C28.5931 17.7792 28.6118 17.8335 28.6285 17.8706C28.6368 17.8891 28.6446 17.9033 28.6501 17.9127C28.6529 17.9173 28.6551 17.9208 28.6566 17.923C28.6573 17.9241 28.6578 17.9249 28.6581 17.9253L28.6584 17.9256C28.666 17.9362 28.6679 17.9498 28.6636 17.962C28.6593 17.9743 28.6492 17.9837 28.6366 17.987L28.6359 17.9872L28.6338 17.9878L28.6255 17.9901C28.6181 17.9921 28.6073 17.9951 28.5935 17.999C28.566 18.0067 28.5266 18.018 28.4791 18.0321C28.3842 18.0603 28.2574 18.0996 28.1296 18.1444C28.0016 18.1892 27.8739 18.2391 27.7765 18.2882C27.7277 18.3128 27.6879 18.3365 27.6598 18.3585C27.6315 18.3807 27.6217 18.3961 27.6195 18.4036C27.6198 18.4038 27.62 18.404 27.6203 18.4042C27.6227 18.4058 27.6262 18.4077 27.6313 18.4097C27.653 18.4185 27.69 18.4248 27.7412 18.4276C27.8423 18.4332 27.9828 18.4247 28.127 18.4105C28.2706 18.3963 28.4157 18.3766 28.5251 18.3604C28.5798 18.3524 28.6254 18.3452 28.6574 18.34C28.6734 18.3374 28.6859 18.3354 28.6945 18.3339L28.7042 18.3323L28.7075 18.3318C28.7199 18.3296 28.7327 18.3336 28.7418 18.3424C28.7509 18.3512 28.7552 18.3638 28.7534 18.3763L28.6391 19.1761C28.6378 19.1852 28.6334 19.1936 28.6265 19.1998L28.6262 19.2001L28.6251 19.2012L28.6204 19.2055C28.6163 19.2093 28.6101 19.2151 28.6021 19.2228C28.5861 19.2382 28.5627 19.2611 28.5334 19.2908C28.475 19.3505 28.3933 19.4377 28.3007 19.5481C28.1153 19.7689 27.8867 20.0814 27.7129 20.4487C27.539 20.8161 27.4206 21.2365 27.4529 21.6741C27.4843 22.1 27.6586 22.5452 28.0688 22.9768L28.0937 22.9437C28.101 22.9339 28.1124 22.9281 28.1246 22.9279C28.1367 22.9276 28.1483 22.933 28.156 22.9424L28.1564 22.9429L28.1577 22.9444C28.1583 22.9452 28.1592 22.9462 28.1602 22.9475C28.161 22.9484 28.1618 22.9494 28.1628 22.9506C28.1673 22.956 28.1741 22.9641 28.183 22.9744C28.2008 22.9951 28.2271 23.0249 28.2606 23.0613C28.3277 23.1341 28.4237 23.2329 28.5396 23.3368C28.7724 23.5455 29.0808 23.7709 29.3922 23.852C29.399 23.8538 29.4052 23.8573 29.4102 23.8623C29.7178 24.17 29.8555 24.301 29.9161 24.3551C29.9284 24.3661 29.9373 24.3737 29.9435 24.3788C29.9533 24.3807 29.9623 24.3863 29.9683 24.3949L29.9359 24.4176L29.8981 24.422C29.8981 24.422 29.8981 24.422 29.8981 24.422L29.9359 24.4176C29.9683 24.3949 29.9683 24.3949 29.9683 24.3949L29.9684 24.395L29.9684 24.3951L29.9686 24.3954L29.969 24.396C29.9692 24.3963 29.9695 24.3966 29.9697 24.397C29.9699 24.3973 29.97 24.3976 29.9702 24.3979C29.9709 24.399 29.9726 24.4019 29.9741 24.4055C29.9748 24.4072 29.9761 24.4107 29.9767 24.4153C29.977 24.4173 29.9775 24.4215 29.9768 24.4269C29.9776 24.434 29.9786 24.4437 29.9799 24.4557C29.9828 24.4829 29.9869 24.5219 29.9913 24.5693C30.0003 24.6642 30.0111 24.7927 30.0182 24.9275C30.0254 25.062 30.0291 25.2036 30.0236 25.3241C30.0209 25.3843 30.0159 25.4401 30.0077 25.4875C29.9996 25.5341 29.988 25.5762 29.97 25.6067C29.9607 25.6223 29.9421 25.6296 29.9247 25.6245C29.9103 25.6202 29.8736 25.6147 29.8157 25.6089C29.7594 25.6033 29.6863 25.5976 29.6018 25.5924C29.4328 25.5818 29.2188 25.5728 29.0023 25.5679C28.7857 25.5629 28.567 25.5621 28.3885 25.568C28.2993 25.5709 28.2205 25.5755 28.1573 25.582C28.0929 25.5887 28.0485 25.597 28.0253 25.6059C28.0247 25.6061 28.0242 25.6063 28.0236 25.6065C27.9943 25.6163 27.956 25.6238 27.9154 25.6316L27.9119 25.6323C27.8712 25.6403 27.8262 25.649 27.7785 25.6614C27.6805 25.6867 27.5738 25.7266 27.4799 25.802C27.3094 25.9388 27.169 26.2028 27.2239 26.7492L27.4563 26.221C27.464 26.2035 27.4832 26.194 27.5018 26.1985C27.5204 26.2029 27.5331 26.2201 27.532 26.2392M27.532 26.2392L27.532 26.2394L27.532 26.2402L27.5318 26.2439C27.5317 26.2471 27.5315 26.252 27.5313 26.2583C27.531 26.2709 27.5307 26.2893 27.531 26.3119C27.5315 26.3571 27.5342 26.4189 27.5428 26.4857C27.5513 26.5526 27.5656 26.6233 27.589 26.6868C27.5971 26.7088 27.6061 26.7295 27.6162 26.7488C27.6181 26.5505 27.6581 26.383 27.7013 26.2591C27.7272 26.1846 27.7544 26.1258 27.7751 26.0854C27.7855 26.0652 27.7943 26.0495 27.8006 26.0388C27.8038 26.0335 27.8063 26.0294 27.8081 26.0265C27.809 26.0251 27.8097 26.024 27.8102 26.0232L27.8108 26.0223L27.811 26.0219C27.811 26.0219 27.8111 26.0218 27.8441 26.0436L27.811 26.0219C27.8204 26.0077 27.8378 26.001 27.8542 26.0053C27.8707 26.0097 27.8825 26.0241 27.8836 26.041L27.8836 26.0414L27.8837 26.0425L27.884 26.0469C27.8843 26.0508 27.8847 26.0566 27.8853 26.064C27.8865 26.0788 27.8883 26.1001 27.8909 26.1259C27.896 26.1775 27.9042 26.2469 27.9161 26.3183C27.928 26.39 27.9435 26.4623 27.9631 26.5204C27.973 26.5494 27.9834 26.5737 27.9943 26.5921C28.002 26.6053 28.0091 26.6139 28.0149 26.6192C28.0236 26.6057 28.0339 26.582 28.0467 26.5465C28.0539 26.5266 28.0616 26.5038 28.07 26.4789C28.0928 26.4114 28.1207 26.3286 28.1574 26.2471C28.2079 26.1348 28.2776 26.0184 28.3805 25.9358C28.4848 25.8522 28.6208 25.8052 28.7983 25.8286C29.1218 25.8679 29.4037 25.881 29.6048 25.8843C29.7053 25.8859 29.7855 25.8851 29.8405 25.8839C29.868 25.8833 29.8892 25.8825 29.9035 25.882C29.9107 25.8817 29.9161 25.8815 29.9197 25.8813L29.9237 25.8811L29.9247 25.8811L29.9249 25.881C29.9458 25.8799 29.964 25.8952 29.9664 25.9159L29.9271 25.9205C29.9664 25.9159 29.9664 25.9159 29.9664 25.9159L29.9689 25.9372C29.9704 25.951 29.9728 25.9713 29.9757 25.9972C29.9816 26.0491 29.9899 26.1233 29.9997 26.2129C30.0192 26.3921 30.0445 26.6329 30.0676 26.8792C30.0907 27.1255 30.1116 27.3777 30.1223 27.5796C30.1277 27.6804 30.1306 27.7693 30.1298 27.8387C30.1295 27.8735 30.1282 27.9039 30.1258 27.9289C30.1235 27.9528 30.1199 27.9753 30.1132 27.9919C30.1059 28.0101 30.0864 28.0202 30.0673 28.0156C29.8376 27.9603 29.4394 27.9704 29.0879 28.0315C28.9127 28.062 28.7518 28.1047 28.6313 28.1568C28.571 28.1829 28.5224 28.2107 28.4873 28.2394C28.4757 28.2489 28.4659 28.2583 28.4578 28.2674C28.7575 28.2509 28.98 28.2594 29.1308 28.2729C29.2121 28.2801 29.2724 28.2887 29.3128 28.2957C29.333 28.2991 29.3481 28.3021 29.3584 28.3043C29.3635 28.3054 29.3674 28.3063 29.3701 28.3069L29.3732 28.3077L29.374 28.3079L29.3743 28.308L29.3744 28.308C29.3744 28.308 29.3745 28.308 29.3646 28.3463L29.3744 28.308C29.3885 28.3116 29.3995 28.3227 29.403 28.3369C29.4065 28.351 29.4019 28.3659 29.3911 28.3757C29.3911 28.3757 29.3911 28.3757 29.3911 28.3757L29.3908 28.3759L29.3898 28.3769L29.3855 28.3808C29.3818 28.3843 29.3763 28.3894 29.3693 28.3962C29.3553 28.4096 29.3354 28.4292 29.312 28.4535C29.2651 28.5023 29.2045 28.5698 29.1494 28.6454C29.0939 28.7213 29.0453 28.8033 29.0204 28.8812C29.0025 28.9368 28.9977 28.9874 29.0085 29.0316C29.0363 29.0042 29.0777 28.9655 29.1325 28.9199C29.2423 28.8285 29.4061 28.7093 29.6233 28.5968C30.0421 28.3799 30.6585 28.1885 31.4659 28.2703C31.3348 28.1277 31.1163 28.0571 30.9107 28.0239C30.7938 28.0051 30.6845 27.9988 30.6044 27.9973C30.5643 27.9966 30.5317 27.997 30.5091 27.9977C30.4978 27.998 30.4891 27.9983 30.4832 27.9986C30.4813 27.9987 30.4798 27.9988 30.4785 27.9988L30.4766 27.9989L30.475 27.999L30.4746 27.9991C30.4538 28.0004 30.4354 27.9853 30.4328 27.9646L30.472 27.9596C30.4328 27.9646 30.4328 27.9646 30.4328 27.9646L30.4328 27.9645L30.4328 27.9642L30.4321 27.959L30.4301 27.9427C30.4283 27.9285 30.4257 27.9076 30.4226 27.881C30.4162 27.8278 30.4073 27.7517 30.3973 27.6601C30.3772 27.4769 30.3524 27.2315 30.3337 26.9826C30.315 26.7339 30.3023 26.4808 30.3064 26.2828C30.3085 26.184 30.3148 26.0973 30.3272 26.0312C30.3333 25.9982 30.3413 25.9687 30.3518 25.9448C30.362 25.9219 30.3769 25.8986 30.4004 25.8858C30.4303 25.8695 30.4701 25.8588 30.5137 25.8516C30.5579 25.8443 30.6092 25.84 30.6642 25.8379C30.774 25.8337 30.9013 25.8382 31.0217 25.8459C31.1422 25.8536 31.2565 25.8647 31.3406 25.8738C31.3827 25.8783 31.4173 25.8824 31.4414 25.8854C31.448 25.8862 31.4539 25.8869 31.4588 25.8875C31.4629 25.888 31.4664 25.8885 31.4693 25.8888L31.4758 25.8897C31.4865 25.8887 31.5077 25.8792 31.5345 25.8519C31.5612 25.8247 31.5876 25.7856 31.6067 25.7403C31.6453 25.649 31.6503 25.5432 31.584 25.4622L31.5833 25.4613C31.5069 25.3624 31.356 25.1293 31.2471 24.9016C31.1928 24.7879 31.1478 24.6732 31.1284 24.576C31.1187 24.5274 31.115 24.4809 31.121 24.4401C31.1271 24.3989 31.1437 24.3608 31.1766 24.3341L31.1775 24.3334C31.2084 24.3099 31.2519 24.2968 31.2988 24.2892C31.3468 24.2815 31.4032 24.2789 31.464 24.2797C31.5856 24.2814 31.729 24.2971 31.8653 24.3169C32.0019 24.3368 32.1325 24.3612 32.229 24.3805C32.2476 24.3842 32.265 24.3878 32.2809 24.3911L29.5356 20.8736C29.5319 20.8688 29.5293 20.8633 29.5281 20.8574L29.5668 20.8492M30.4207 17.6591C30.4206 17.659 30.4207 17.6591 30.4207 17.6591Z" fill="black"/>
<path fill-rule="evenodd" clip-rule="evenodd" d="M29.2623 18.8799C29.2623 18.8799 27.6012 20.708 28.3219 22.1055C28.357 21.9121 28.3395 21.7891 28.3658 21.7979C28.3219 21.7715 28.568 21.9648 28.5504 21.9297C28.5504 21.8242 28.4801 21.6045 28.4801 21.6045L28.6998 21.666L28.568 21.4199L28.8932 21.4551C28.8932 21.4551 28.7789 21.1562 28.8141 21.1562L29.0777 21.1738C28.6031 20.3301 29.0514 19.627 29.2623 18.8711V18.8799Z" fill="#9CA69C"/>
<path fill-rule="evenodd" clip-rule="evenodd" d="M29.2682 18.8324C29.2878 18.8351 29.3024 18.8518 29.3024 18.8716V18.8804C29.3024 18.8887 29.2998 18.8968 29.2949 18.9035C29.2517 19.055 29.1995 19.2045 29.1478 19.3522C29.137 19.3831 29.1263 19.4139 29.1156 19.4446C29.0514 19.6298 28.9912 19.8129 28.9522 19.9981C28.8745 20.367 28.8813 20.7434 29.1127 21.1549C29.1199 21.1676 29.1195 21.1831 29.1117 21.1954C29.104 21.2077 29.0901 21.2147 29.0756 21.2138L28.8516 21.1988C28.8571 21.2243 28.8671 21.2585 28.8786 21.294C28.8905 21.3307 28.9035 21.3676 28.9136 21.3954C28.9186 21.4093 28.9229 21.4208 28.9259 21.4289L28.9294 21.4382L28.9303 21.4406L28.9306 21.4413L28.9306 21.4414C28.9355 21.4543 28.9334 21.4688 28.925 21.4797C28.9166 21.4906 28.9031 21.4964 28.8894 21.4949L28.6387 21.4678L28.7352 21.6478C28.7427 21.6618 28.7411 21.6789 28.7312 21.6913C28.7213 21.7036 28.7049 21.7089 28.6897 21.7046L28.539 21.6624C28.5437 21.6792 28.5489 21.6981 28.5541 21.7181C28.5709 21.7835 28.5892 21.8658 28.5904 21.924C28.5908 21.9258 28.5911 21.9277 28.5912 21.9298C28.592 21.9396 28.5892 21.957 28.5724 21.9676C28.5598 21.9756 28.5474 21.9741 28.5439 21.9736C28.539 21.9729 28.5348 21.9715 28.5323 21.9705C28.5229 21.967 28.5117 21.9602 28.502 21.954C28.4807 21.9404 28.452 21.9196 28.4249 21.8991C28.4121 21.8894 28.3993 21.8796 28.3877 21.8704C28.3875 21.8731 28.3873 21.8759 28.3872 21.8788C28.387 21.8807 28.3869 21.8827 28.3868 21.8847C28.3835 21.9385 28.3787 22.0174 28.3613 22.113C28.3583 22.1297 28.345 22.1426 28.3282 22.1451C28.3115 22.1476 28.295 22.1391 28.2873 22.1241C27.9176 21.4074 28.1607 20.5853 28.4872 19.951C28.6511 19.6327 28.8375 19.3586 28.9829 19.1642C29.0556 19.0669 29.1181 18.9895 29.1625 18.9363C29.1847 18.9097 29.2024 18.8892 29.2146 18.8752C29.218 18.8712 29.2211 18.8678 29.2236 18.8649C29.224 18.8636 29.2244 18.8623 29.2247 18.861C29.2301 18.8419 29.2486 18.8297 29.2682 18.8324ZM29.1645 19.0588C29.13 19.1017 29.09 19.153 29.0462 19.2115C28.9026 19.4036 28.7188 19.6739 28.5575 19.9872C28.2527 20.5794 28.0336 21.3146 28.3015 21.9665C28.3046 21.9333 28.3064 21.9041 28.3079 21.8795L28.3082 21.8739C28.3098 21.8481 28.3113 21.8244 28.3145 21.8079C28.3158 21.801 28.3184 21.7897 28.325 21.7798C28.3357 21.7553 28.361 21.7562 28.364 21.7564C28.37 21.7568 28.3746 21.7585 28.3759 21.759C28.3779 21.7598 28.3796 21.7605 28.3806 21.7611C28.3828 21.7622 28.3849 21.7634 28.3867 21.7644C28.393 21.7682 28.3979 21.7736 28.4012 21.7797C28.4022 21.7805 28.4033 21.7814 28.4045 21.7824C28.4204 21.7957 28.446 21.8159 28.4726 21.836C28.4833 21.8441 28.4939 21.852 28.5041 21.8593C28.4977 21.8211 28.4878 21.7781 28.4775 21.7379C28.4688 21.7044 28.4602 21.6741 28.4537 21.6522C28.4504 21.6412 28.4477 21.6324 28.4458 21.6263L28.4437 21.6194L28.4431 21.6176L28.4429 21.6171L28.4806 21.605M29.0096 21.1301C28.8002 20.7224 28.7982 20.3456 28.8748 19.9818C28.9149 19.7913 28.9766 19.6042 29.0409 19.4187C29.0517 19.3875 29.0626 19.3565 29.0734 19.3254C29.1045 19.2365 29.1355 19.1478 29.1645 19.0588" fill="#9CA69C"/>
<path fill-rule="evenodd" clip-rule="evenodd" d="M29.8397 17.3047C29.8397 17.3047 29.9276 17.9375 29.5761 18.1133C29.5321 18.1572 29.3124 18.2275 29.3475 18.3594C29.3827 18.5352 29.4794 18.5 29.6112 18.4648C29.9716 18.4033 30.3934 17.6387 29.8397 17.3047Z" fill="#9CA69C"/>
<path fill-rule="evenodd" clip-rule="evenodd" d="M29.7885 17.2188L29.8674 17.2663C30.0151 17.3554 30.0999 17.4749 30.1357 17.6059C30.1712 17.7359 30.1576 17.8738 30.1149 18.0003C30.0722 18.1268 29.9996 18.2441 29.9136 18.3342C29.8288 18.4231 29.7277 18.489 29.6257 18.5071C29.6205 18.5085 29.6153 18.5099 29.6101 18.5113C29.5839 18.5184 29.5574 18.5255 29.5328 18.5303C29.5027 18.5362 29.4705 18.5396 29.4397 18.5336C29.4071 18.5273 29.3781 18.5107 29.3552 18.481C29.3336 18.453 29.3192 18.4153 29.3097 18.3686C29.2851 18.2731 29.3555 18.2065 29.4118 18.1668C29.4404 18.1466 29.471 18.1293 29.496 18.1151C29.4975 18.1143 29.4989 18.1135 29.5003 18.1128C29.5135 18.1053 29.5247 18.0989 29.5338 18.0932C29.5434 18.0871 29.5481 18.0833 29.55 18.0815L29.555 18.0764L29.5614 18.0733C29.716 17.996 29.7795 17.8145 29.8011 17.637C29.8117 17.55 29.8118 17.468 29.8091 17.4075C29.8078 17.3774 29.8058 17.3527 29.8041 17.3358C29.8033 17.3273 29.8025 17.3207 29.802 17.3163C29.8018 17.3141 29.8015 17.3125 29.8014 17.3114L29.8013 17.3103L29.8012 17.31L29.7885 17.2188ZM29.8964 17.3942C29.8966 17.3973 29.8967 17.4004 29.8969 17.4037C29.8997 17.4673 29.8997 17.5545 29.8884 17.6477C29.8663 17.8288 29.799 18.0491 29.6064 18.149C29.5984 18.1559 29.5892 18.1622 29.5806 18.1675C29.5694 18.1746 29.5565 18.1819 29.5435 18.1893C29.5424 18.1899 29.5413 18.1905 29.5403 18.1911C29.5145 18.2057 29.4873 18.221 29.4625 18.2386C29.407 18.2777 29.3855 18.3117 29.395 18.3473L29.3954 18.3487L29.3957 18.35C29.4038 18.3906 29.4145 18.414 29.4249 18.4274C29.4342 18.4395 29.4441 18.4449 29.4566 18.4474C29.4708 18.4501 29.4898 18.4492 29.5159 18.4441C29.5372 18.4399 29.5599 18.4338 29.5859 18.4268C29.5921 18.4251 29.5984 18.4234 29.6049 18.4217L29.6069 18.4211L29.6088 18.4208C29.6863 18.4076 29.7722 18.3551 29.85 18.2735C29.9272 18.1925 29.9931 18.0863 30.0316 17.9722C30.0702 17.858 30.0808 17.7383 30.0509 17.6291C30.0276 17.5438 29.9792 17.4628 29.8964 17.3942Z" fill="#9CA69C"/>
<path fill-rule="evenodd" clip-rule="evenodd" d="M29.2246 17.8428C29.2246 17.8777 29.2107 17.9113 29.186 17.936C29.1613 17.9607 29.1277 17.9746 29.0928 17.9746C29.0578 17.9746 29.0243 17.9607 28.9996 17.936C28.9748 17.9113 28.9609 17.8777 28.9609 17.8428C28.9609 17.8078 28.9748 17.7743 28.9996 17.7496C29.0243 17.7248 29.0578 17.7109 29.0928 17.7109C29.1277 17.7109 29.1613 17.7248 29.186 17.7496C29.2107 17.7743 29.2246 17.8078 29.2246 17.8428V17.8428Z" fill="white"/>
<path fill-rule="evenodd" clip-rule="evenodd" d="M28.6942 18.3672C28.6063 18.4463 28.1492 18.9209 28.6063 19.0967C29.0721 18.9736 28.9403 18.8857 29.0457 18.7803C29.0457 18.5605 28.8172 18.5078 28.6942 18.376V18.3672Z" fill="#DE3108"/>
<path fill-rule="evenodd" clip-rule="evenodd" d="M28.7352 18.3591V18.2695L28.6618 18.3355C28.6163 18.3765 28.4747 18.5198 28.4029 18.6786C28.367 18.758 28.3455 18.8478 28.3696 18.9327C28.3945 19.0202 28.4645 19.0914 28.5876 19.1387L28.6008 19.1438L28.6146 19.1402C28.8478 19.0786 28.9449 19.023 28.9932 18.9595C29.014 18.9322 29.0245 18.9044 29.0326 18.8829C29.0338 18.8798 29.035 18.8768 29.0361 18.8739C29.0449 18.8513 29.0537 18.8325 29.0739 18.8124L29.0867 18.7995V18.7813C29.0867 18.6521 29.0178 18.5727 28.9404 18.5117C28.9128 18.4899 28.8825 18.4693 28.8537 18.4498C28.8433 18.4426 28.833 18.4357 28.8232 18.4288C28.7902 18.4059 28.7604 18.3836 28.7352 18.3591ZM28.6865 18.4339C28.6293 18.492 28.5347 18.6006 28.483 18.7148C28.4508 18.7859 28.4382 18.8526 28.4542 18.9087C28.4687 18.9598 28.51 19.0116 28.6061 19.0515C28.8275 18.9918 28.8952 18.9431 28.9232 18.9063C28.9359 18.8897 28.9418 18.8743 28.9501 18.8526C28.9514 18.8492 28.9528 18.8457 28.9542 18.8419C28.9633 18.8187 28.975 18.7922 28.9983 18.7647C28.9931 18.6837 28.9493 18.6306 28.886 18.5807C28.861 18.561 28.8346 18.543 28.8067 18.5241C28.7957 18.5166 28.7845 18.5089 28.773 18.501C28.7438 18.4807 28.7139 18.4588 28.6865 18.4339Z" fill="black"/>
<path fill-rule="evenodd" clip-rule="evenodd" d="M29.7034 22.8945C29.677 23 29.5716 23.3867 29.7122 23.6855C30.1165 23.5098 30.301 23.5625 30.4329 23.6504C30.1077 23.3867 29.9758 23.2725 29.7034 22.8945V22.8945Z" fill="#9CA69C"/>
<path fill-rule="evenodd" clip-rule="evenodd" d="M29.736 22.8711C30.0057 23.2453 30.1348 23.357 30.4583 23.6194C30.4747 23.6327 30.4777 23.6565 30.4652 23.6735C30.4527 23.6905 30.429 23.6947 30.4114 23.683C30.3504 23.6423 30.2785 23.6103 30.1744 23.6083C30.069 23.6063 29.9276 23.6349 29.7284 23.7215C29.7088 23.73 29.686 23.7214 29.6769 23.7021C29.6024 23.5437 29.5939 23.3644 29.6062 23.214C29.6178 23.0736 29.6478 22.9547 29.6625 22.8966C29.6636 22.8923 29.6646 22.8883 29.6655 22.8846L29.7039 22.8942L29.736 22.8711ZM29.7221 22.9863C29.9115 23.2424 30.0368 23.3705 30.2284 23.5326C30.2117 23.5308 30.1942 23.5296 30.176 23.5292C30.0624 23.527 29.9203 23.556 29.7333 23.6335C29.681 23.5013 29.6742 23.3527 29.6851 23.2205C29.6926 23.1292 29.7083 23.0474 29.7221 22.9863Z" fill="#9CA69C"/>
<path fill-rule="evenodd" clip-rule="evenodd" d="M30.3906 24.707L30.4082 25.6035C30.4082 25.6035 30.7246 25.6562 30.8652 25.6035C31.0059 25.5508 30.8652 24.9883 30.3906 24.707Z" fill="white"/>
<path fill-rule="evenodd" clip-rule="evenodd" d="M30.3634 24.6733C30.3758 24.6661 30.3911 24.6662 30.4035 24.6735C30.6491 24.819 30.8081 25.0371 30.8878 25.2261C30.9275 25.3204 30.9485 25.4096 30.9494 25.4807C30.9498 25.5162 30.9453 25.5494 30.9339 25.577C30.9223 25.6051 30.9024 25.6296 30.8718 25.641C30.831 25.6563 30.7801 25.6632 30.7291 25.6658C30.6776 25.6683 30.6232 25.6666 30.574 25.6632C30.5246 25.6599 30.4799 25.6548 30.4474 25.6506C30.4312 25.6485 30.418 25.6467 30.4089 25.6453C30.4043 25.6446 30.4007 25.644 30.3983 25.6436L30.3954 25.6432L30.3947 25.6431L30.3945 25.643C30.3945 25.643 30.3944 25.643 30.4009 25.604L30.3944 25.643C30.3756 25.6399 30.3617 25.6238 30.3613 25.6048L30.3438 24.7083C30.3435 24.6939 30.351 24.6806 30.3634 24.6733ZM30.4398 25.5698C30.4451 25.5706 30.4511 25.5714 30.4576 25.5722C30.4889 25.5762 30.532 25.5811 30.5794 25.5843C30.6268 25.5876 30.6778 25.5891 30.7252 25.5867C30.7732 25.5844 30.8145 25.578 30.844 25.567C30.8486 25.5652 30.8551 25.5606 30.8608 25.5467C30.8668 25.5324 30.8706 25.5108 30.8703 25.4817C30.8695 25.4238 30.852 25.3449 30.8149 25.2568C30.7476 25.0973 30.6189 24.9145 30.4243 24.7806L30.4398 25.5698Z" fill="white"/>
<path fill-rule="evenodd" clip-rule="evenodd" d="M32.6358 24.821C32.6358 24.821 32.0646 23.4323 30.5968 23.0808C29.129 22.7292 29.3224 21.1647 29.4366 21.0681C29.5069 20.9362 29.5509 20.7253 29.9728 20.9274C30.3946 21.1296 32.3458 22.1052 32.6271 22.1579C32.9083 22.2106 32.6622 24.8562 32.6446 24.821H32.6358Z" fill="#9CA69C"/>
<path fill-rule="evenodd" clip-rule="evenodd" d="M29.4943 21.0462C29.4873 21.0606 29.48 21.0757 29.4725 21.0898L29.4685 21.0972L29.4621 21.1026C29.4623 21.1025 29.4622 21.1025 29.462 21.1028C29.4611 21.104 29.4574 21.109 29.4521 21.1213C29.446 21.1353 29.4394 21.1548 29.4331 21.1797C29.4206 21.2293 29.4097 21.2971 29.4042 21.3779C29.3932 21.5395 29.404 21.7502 29.4629 21.9684C29.5804 22.403 29.8886 22.8677 30.6041 23.039C31.3499 23.2177 31.8673 23.6597 32.1975 24.0556C32.3627 24.2536 32.4815 24.4404 32.559 24.578C32.5819 24.6186 32.6012 24.6549 32.6171 24.686C32.6243 24.6194 32.633 24.5299 32.6421 24.4244C32.6632 24.181 32.6868 23.8526 32.7011 23.5215C32.7153 23.1902 32.7202 22.8575 32.7041 22.605C32.6961 22.4784 32.6829 22.3742 32.6638 22.301C32.6542 22.2642 32.6438 22.2378 32.6334 22.2209C32.6283 22.2125 32.6239 22.2076 32.6207 22.2049C32.6177 22.2024 32.6162 22.2021 32.616 22.2021C32.5761 22.1946 32.5111 22.172 32.4304 22.1401C32.3485 22.1076 32.247 22.0641 32.1322 22.013C31.9026 21.9107 31.6187 21.7773 31.3307 21.6394C31.0427 21.5014 30.7503 21.3588 30.5037 21.2381C30.4421 21.2079 30.3833 21.1791 30.3283 21.1521C30.1626 21.071 30.0298 21.0059 29.9508 20.9681C29.743 20.8685 29.6452 20.8793 29.5927 20.9111C29.5653 20.9277 29.5445 20.9532 29.5257 20.9853C29.5163 21.0013 29.5078 21.0183 29.4991 21.0361C29.4975 21.0394 29.4959 21.0428 29.4943 21.0462ZM32.5923 24.8387L32.5922 24.8386L32.592 24.838L32.5908 24.8353C32.5898 24.8328 32.5881 24.8291 32.586 24.8241C32.5816 24.8142 32.5749 24.7995 32.5659 24.7806C32.5477 24.7428 32.5201 24.688 32.4824 24.6211C32.407 24.4873 32.2912 24.305 32.13 24.1119C31.8077 23.7255 31.3056 23.2974 30.5836 23.1245C29.8313 22.9443 29.5023 22.451 29.3781 21.9913C29.3162 21.7624 29.305 21.5418 29.3165 21.3719C29.3223 21.287 29.3338 21.2139 29.3479 21.1581C29.355 21.1303 29.3629 21.1059 29.3715 21.0862C29.378 21.0711 29.3866 21.055 29.398 21.0426C29.4035 21.0319 29.4089 21.0207 29.4148 21.0086C29.4165 21.005 29.4183 21.0014 29.4201 20.9977C29.4289 20.9795 29.4387 20.96 29.4499 20.9408C29.4723 20.9026 29.5021 20.8633 29.5471 20.8359C29.6397 20.7798 29.7748 20.7863 29.9888 20.8888C30.0682 20.9269 30.2015 20.9922 30.3673 21.0734C30.4223 21.1004 30.4809 21.1291 30.5423 21.1591C30.7889 21.2798 31.081 21.4223 31.3687 21.5601C31.6564 21.6979 31.9394 21.8309 32.1679 21.9327C32.2822 21.9836 32.3825 22.0266 32.4628 22.0583C32.5443 22.0906 32.6018 22.11 32.6322 22.1157C32.6674 22.1223 32.6918 22.1479 32.7083 22.1749C32.7252 22.2025 32.7383 22.2383 32.7489 22.2789C32.7701 22.3603 32.7837 22.4711 32.7918 22.5994C32.8082 22.8567 32.8032 23.1931 32.7889 23.5253C32.7746 23.8579 32.7509 24.1875 32.7297 24.4319C32.7191 24.5541 32.7091 24.6552 32.7012 24.7248C32.6972 24.7595 32.6938 24.7868 32.6909 24.8052C32.6895 24.8141 32.6881 24.8221 32.6867 24.8281L32.6866 24.8282C32.6862 24.8302 32.6847 24.8361 32.6817 24.8419C32.6808 24.8437 32.6789 24.847 32.6759 24.8506C32.6734 24.8535 32.6666 24.8608 32.6549 24.8644C32.6486 24.8663 32.6424 24.8667 32.6365 24.866H32.6035L32.5923 24.8387Z" fill="black"/>
<path fill-rule="evenodd" clip-rule="evenodd" d="M31.251 23.0703C31.2246 23.0879 33.2109 24.248 32.6133 25.2412C33.1758 24.8633 33 24.2129 33 24.2129C33 24.2129 33.457 25.417 32.332 26.0059C32.4551 26.1113 32.5342 26.0937 32.5342 26.0937L32.3408 26.2783C32.3408 26.2783 32.2529 26.4277 33.0088 26.0586C32.8066 26.2256 32.7891 26.3486 32.7891 26.3486C32.7891 26.3486 32.8418 26.5068 33.334 26.0762C32.9385 26.5068 32.8506 26.7266 32.8506 26.7178C33.9316 26.6299 36.2783 23.1143 32.1123 22.0859L32.2969 22.2793L31.2422 23.0703H31.251Z" fill="#DE3108"/>
<path fill-rule="evenodd" clip-rule="evenodd" d="M32.0786 22.0666C32.0874 22.0514 32.1052 22.0438 32.1223 22.048C33.1692 22.3065 33.8133 22.7227 34.1696 23.2082C34.5264 23.6944 34.5906 24.2449 34.4884 24.7627C34.3863 25.2797 34.1182 25.7656 33.8077 26.1278C33.6523 26.309 33.4856 26.4602 33.3226 26.5691C33.1618 26.6765 33.002 26.7445 32.8588 26.7573C32.8514 26.7588 32.8414 26.7587 32.831 26.7526C32.8177 26.7447 32.8139 26.7323 32.8129 26.7286C32.8116 26.7238 32.8115 26.7199 32.8115 26.7183C32.8115 26.7092 32.8146 26.7008 32.8197 26.6942L32.8207 26.6924C32.8238 26.6865 32.8289 26.6766 32.8364 26.6632C32.8513 26.6362 32.8752 26.5952 32.9115 26.5404C32.9478 26.4857 32.9964 26.4173 33.0609 26.3356C32.9843 26.3826 32.9275 26.4051 32.8849 26.4132C32.8403 26.4218 32.8074 26.4153 32.7841 26.4004C32.7729 26.3932 32.7652 26.3848 32.7602 26.3775C32.7577 26.3739 32.7559 26.3706 32.7546 26.3679C32.754 26.3666 32.7534 26.3653 32.753 26.3643L32.7525 26.3628L32.7522 26.3622L32.7521 26.3619L32.7521 26.3618C32.7521 26.3617 32.752 26.3616 32.7896 26.3491C32.7504 26.3435 32.7504 26.3435 32.7504 26.3435L32.7504 26.3434L32.7504 26.3433L32.7505 26.343L32.7506 26.3423L32.7509 26.3404C32.7512 26.3388 32.7516 26.3368 32.7522 26.3344C32.7534 26.3295 32.7552 26.3228 32.758 26.3146C32.7636 26.298 32.7732 26.2751 32.7893 26.247C32.7994 26.2295 32.812 26.21 32.8277 26.1889C32.7357 26.231 32.6609 26.2626 32.6003 26.286C32.5014 26.3243 32.4379 26.3416 32.3966 26.3466C32.3761 26.3491 32.358 26.349 32.3428 26.3447C32.3263 26.3401 32.3108 26.3299 32.3031 26.3121C32.2962 26.2962 32.2988 26.2815 32.3009 26.274C32.302 26.2698 32.3034 26.2664 32.3045 26.264C32.3051 26.2627 32.3056 26.2616 32.3061 26.2608L32.3067 26.2596L32.307 26.2592L32.3071 26.2589L32.3072 26.2589C32.3072 26.2588 32.3072 26.2588 32.3413 26.2788L32.3072 26.2588C32.3091 26.2556 32.3114 26.2527 32.314 26.2502L32.4485 26.1218C32.4098 26.1087 32.3617 26.0834 32.3068 26.0364C32.2968 26.0278 32.2917 26.0149 32.2932 26.0019C32.2947 25.9888 32.3026 25.9774 32.3142 25.9713C32.8621 25.6845 33.0233 25.2501 33.0489 24.8863C33.0548 24.8031 33.0535 24.7236 33.0481 24.6504C33.0103 24.8564 32.9026 25.0953 32.6358 25.2745C32.6204 25.2849 32.5999 25.2831 32.5865 25.2704C32.5731 25.2576 32.5703 25.2372 32.5799 25.2213C32.7213 24.9863 32.711 24.7412 32.6127 24.501C32.5139 24.2594 32.3267 24.0251 32.119 23.8184C31.9117 23.6122 31.6863 23.4359 31.5139 23.3097C31.4365 23.253 31.37 23.2066 31.3205 23.1721C31.3149 23.1682 31.3095 23.1644 31.3043 23.1608C31.2791 23.1433 31.2589 23.129 31.2453 23.1188C31.2408 23.1155 31.2366 23.1122 31.2329 23.1091C31.2201 23.1058 31.2095 23.0963 31.2052 23.0833C31.1998 23.0672 31.2053 23.0494 31.2189 23.0392L32.238 22.2749L32.0842 22.1137C32.072 22.101 32.0698 22.0818 32.0786 22.0666ZM31.3111 23.0689C31.3217 23.0764 31.3345 23.0854 31.3496 23.096C31.3547 23.0996 31.3601 23.1033 31.3657 23.1072C31.4152 23.1417 31.4825 23.1886 31.5606 23.2458C31.7346 23.3732 31.9635 23.5522 32.1747 23.7624C32.3856 23.9721 32.5813 24.2152 32.6859 24.471C32.7701 24.6767 32.7958 24.8921 32.7222 25.104C32.8927 24.9397 32.9581 24.7456 32.9788 24.5809C32.9915 24.4798 32.9873 24.39 32.9799 24.3254C32.9762 24.2932 32.9717 24.2674 32.9682 24.2498C32.9664 24.241 32.9649 24.2343 32.9638 24.2299C32.9633 24.2277 32.9629 24.226 32.9626 24.225L32.9624 24.2239L32.9623 24.2237L32.9623 24.2237L32.9623 24.2237C32.9568 24.2033 32.9683 24.1823 32.9883 24.1758C33.0084 24.1693 33.03 24.1796 33.0375 24.1993L33.0005 24.2134C33.0375 24.1993 33.0375 24.1994 33.0375 24.1994L33.0375 24.1995L33.0376 24.1997L33.0379 24.2005L33.039 24.2034C33.0399 24.2059 33.0412 24.2095 33.0428 24.2142C33.046 24.2236 33.0505 24.2373 33.0558 24.2548C33.0664 24.2899 33.0801 24.3404 33.0931 24.4027C33.1188 24.5273 33.1413 24.6999 33.1278 24.8918C33.1016 25.2649 32.9388 25.7099 32.405 26.0119C32.4405 26.0355 32.4691 26.0464 32.4893 26.0515C32.5037 26.0551 32.5142 26.0558 32.5204 26.0558C32.5235 26.0558 32.5256 26.0556 32.5265 26.0555C32.5268 26.0555 32.5269 26.0554 32.527 26.0554C32.5441 26.0521 32.5613 26.0602 32.5696 26.0756C32.5779 26.0913 32.5748 26.1106 32.562 26.1228L32.415 26.2632C32.4485 26.2558 32.4985 26.2406 32.5718 26.2123C32.6684 26.1749 32.8035 26.1156 32.9919 26.0235C33.0099 26.0148 33.0317 26.0208 33.0425 26.0377C33.0534 26.0545 33.0499 26.0768 33.0345 26.0896C32.9367 26.1704 32.885 26.2393 32.8579 26.2864C32.8456 26.3079 32.8383 26.3249 32.8341 26.3366C32.8406 26.3381 32.8518 26.339 32.87 26.3355C32.9335 26.3234 33.0628 26.2618 33.3084 26.0469C33.3242 26.0331 33.3481 26.034 33.3628 26.049C33.3774 26.0641 33.3778 26.0879 33.3636 26.1034C33.1671 26.3173 33.0476 26.4783 32.9774 26.5841C32.9556 26.617 32.9385 26.6446 32.9254 26.6668C33.033 26.6428 33.1532 26.5871 33.2786 26.5033C33.4346 26.3991 33.5961 26.2531 33.7476 26.0763C34.0509 25.7225 34.3118 25.2488 34.4108 24.7473C34.5096 24.2467 34.447 23.7199 34.1058 23.255C33.7791 22.8098 33.1935 22.4165 32.237 22.1593L32.326 22.2525C32.3338 22.2607 32.3377 22.2718 32.3368 22.2831C32.3358 22.2943 32.3301 22.3046 32.3211 22.3114L31.3111 23.0689ZM32.7896 26.3491L32.7504 26.3435C32.7495 26.3496 32.7501 26.3558 32.752 26.3616L32.7896 26.3491Z" fill="black"/>
<path fill-rule="evenodd" clip-rule="evenodd" d="M31.3373 22.7303C31.601 22.9236 31.6977 22.9939 31.7328 23.0818C31.4867 23.0291 31.267 23.0467 31.267 23.0467C31.267 23.0467 30.7309 22.5369 30.6342 22.493C30.5639 22.493 30.142 22.2293 30.142 22.2293C29.9399 22.1238 29.7465 21.4119 30.5111 21.6141C30.8044 21.767 31.1068 21.902 31.4164 22.0184L32.3569 22.3172L32.9018 22.9236C32.9018 22.9236 31.935 22.449 31.8119 22.4402C32.0756 22.6512 32.225 22.95 32.225 22.95C31.9174 22.8621 31.6537 22.7742 31.3373 22.7303V22.7303Z" fill="white"/>
<path fill-rule="evenodd" clip-rule="evenodd" d="M30.0436 22.0409C30.0766 22.1157 30.1218 22.1705 30.1608 22.1908C30.1617 22.1913 30.1626 22.1918 30.1635 22.1923L30.1681 22.1952L30.1815 22.2036C30.1932 22.2107 30.2098 22.221 30.2301 22.2333C30.2706 22.2579 30.3252 22.2907 30.382 22.3235C30.4389 22.3563 30.4974 22.3888 30.5458 22.413C30.5701 22.4251 30.5911 22.4348 30.6079 22.4414C30.6162 22.4447 30.623 22.447 30.6282 22.4485C30.6329 22.4498 30.6349 22.45 30.6349 22.45C30.6349 22.45 30.6348 22.45 30.6347 22.45C30.6403 22.45 30.6459 22.4512 30.6511 22.4535C30.6677 22.4611 30.6898 22.4765 30.7135 22.4945C30.7382 22.5132 30.7677 22.5372 30.7999 22.5644C30.8643 22.6188 30.9408 22.687 31.014 22.7536C31.0872 22.8203 31.1574 22.8855 31.2092 22.9341C31.2352 22.9583 31.2565 22.9785 31.2714 22.9925L31.2822 23.0027C31.2882 23.0024 31.2956 23.0021 31.3043 23.0018C31.3295 23.001 31.3654 23.0004 31.4091 23.0015C31.4747 23.0032 31.5582 23.0087 31.6492 23.0228C31.635 23.0076 31.6175 22.991 31.5955 22.9722C31.5363 22.9215 31.4494 22.8578 31.3201 22.7629L31.3144 22.7587L31.3378 22.7269L31.3433 22.6877C31.6064 22.7242 31.8341 22.791 32.0767 22.8621C32.0986 22.8686 32.1208 22.8751 32.143 22.8816C32.1275 22.8562 32.1082 22.8262 32.0854 22.7934C32.0163 22.6941 31.9156 22.57 31.7877 22.4677C31.7742 22.4569 31.7693 22.4385 31.7756 22.4224C31.7819 22.4063 31.798 22.3961 31.8152 22.3974C31.837 22.3989 31.8707 22.4094 31.908 22.4229C31.9472 22.4371 31.9958 22.4567 32.05 22.4796C32.1586 22.5256 32.2915 22.586 32.4202 22.646C32.5362 22.7 32.649 22.7538 32.738 22.7966L32.3351 22.3482L31.4049 22.0526C31.4043 22.0524 31.4036 22.0522 31.403 22.052C31.0932 21.9356 30.7908 21.8006 30.4973 21.6478C30.3125 21.5995 30.1932 21.6084 30.1196 21.6425C30.048 21.6757 30.0133 21.7357 30.0037 21.8081C29.9939 21.882 30.011 21.9672 30.0436 22.0409ZM32.9023 22.9202C32.8848 22.9557 32.8848 22.9557 32.8848 22.9557L32.874 22.9504C32.8669 22.9469 32.8565 22.9418 32.8432 22.9354C32.8165 22.9224 32.7783 22.9038 32.7321 22.8815C32.6396 22.837 32.5151 22.7774 32.3868 22.7177C32.2584 22.6579 32.1265 22.5979 32.0192 22.5525C32.0046 22.5463 31.9905 22.5404 31.977 22.5348C32.0475 22.6087 32.1056 22.6839 32.1503 22.7482C32.1862 22.7998 32.2137 22.8447 32.2323 22.8768C32.2416 22.8928 32.2486 22.9057 32.2534 22.9146C32.2558 22.9191 32.2576 22.9226 32.2589 22.925L32.2603 22.9278L32.2607 22.9286L32.2608 22.9288L32.2609 22.9289C32.2609 22.9289 32.2609 22.9289 32.2255 22.9466L32.2609 22.9289C32.2679 22.9429 32.266 22.9598 32.2559 22.9718C32.2459 22.9839 32.2297 22.9889 32.2146 22.9846C32.1593 22.9688 32.1055 22.953 32.0527 22.9375C31.8627 22.8819 31.6858 22.83 31.4944 22.793C31.558 22.8403 31.608 22.8787 31.647 22.9122C31.7102 22.9663 31.7489 23.0109 31.77 23.0637C31.7755 23.0773 31.773 23.0927 31.7636 23.1039C31.7541 23.1151 31.7393 23.1202 31.725 23.1171C31.6051 23.0914 31.4912 23.0828 31.4071 23.0806C31.3651 23.0795 31.3308 23.0801 31.307 23.0809C31.2951 23.0813 31.2859 23.0817 31.2797 23.0821C31.2766 23.0823 31.2743 23.0824 31.2728 23.0825L31.2711 23.0827L31.2707 23.0827C31.2707 23.0827 31.2707 23.0827 31.2707 23.0827M31.2675 23.0433L31.2402 23.0719L31.2342 23.0662L31.2171 23.05C31.2023 23.036 31.181 23.016 31.1552 22.9918C31.1035 22.9434 31.0336 22.8784 30.9607 22.8121C30.8878 22.7458 30.8121 22.6783 30.7488 22.6248C30.7171 22.598 30.6889 22.575 30.6657 22.5575C30.6462 22.5426 30.6321 22.5331 30.6235 22.5282C30.6273 22.5288 30.6311 22.5291 30.6347 22.5291V22.4895L30.6183 22.5256C30.6198 22.5262 30.6215 22.5271 30.6235 22.5282C30.6089 22.5262 30.593 22.5206 30.5788 22.515C30.559 22.5072 30.5356 22.4963 30.5104 22.4837C30.4599 22.4585 30.3998 22.4251 30.3425 22.392C30.285 22.3588 30.2298 22.3257 30.189 22.3009C30.1686 22.2885 30.1517 22.2781 30.14 22.2709L30.1264 22.2624L30.1228 22.2602C30.0613 22.2274 30.0071 22.1541 29.9712 22.0728C29.9345 21.9896 29.9131 21.8897 29.9253 21.7977C29.9377 21.7042 29.9854 21.6176 30.0863 21.5708C30.1847 21.5252 30.3267 21.5208 30.5217 21.5724C30.5246 21.5732 30.5273 21.5742 30.5299 21.5756C30.8215 21.7276 31.122 21.8619 31.4299 21.9776L32.3693 22.2761C32.376 22.2782 32.3821 22.2821 32.3868 22.2873L32.9317 22.8938C32.9443 22.9079 32.9452 22.929 32.9338 22.9441C32.9224 22.9592 32.9018 22.9641 32.8848 22.9557L32.9023 22.9202M31.2707 23.0827C31.2707 23.0827 31.2707 23.0827 31.2707 23.0827C31.2595 23.0836 31.2484 23.0797 31.2402 23.0719L31.2675 23.0433" fill="black"/>
<path fill-rule="evenodd" clip-rule="evenodd" d="M27.5803 18.4859C27.5591 18.4912 27.5377 18.4782 27.5324 18.457C27.5272 18.4358 27.5401 18.4144 27.5613 18.4091L27.5708 18.4475C27.5613 18.4091 27.5613 18.4091 27.5613 18.4091L27.5718 18.4066C27.5786 18.4049 27.5886 18.4024 27.6014 18.3993C27.6269 18.3931 27.6635 18.3843 27.7077 18.3739C27.7961 18.353 27.9154 18.3254 28.0382 18.299C28.1609 18.2726 28.2878 18.2471 28.3914 18.2305C28.4431 18.2222 28.4897 18.216 28.5274 18.213C28.5462 18.2115 28.5634 18.2107 28.5782 18.211C28.5924 18.2113 28.6071 18.2125 28.6196 18.2164C28.6404 18.2228 28.6521 18.2449 28.6457 18.2658C28.6393 18.2867 28.6172 18.2984 28.5963 18.292C28.5945 18.2914 28.5886 18.2903 28.5767 18.2901C28.5654 18.2899 28.551 18.2904 28.5337 18.2918C28.499 18.2946 28.4548 18.3004 28.4039 18.3086C28.3024 18.3249 28.1771 18.35 28.0548 18.3763C27.9327 18.4026 27.814 18.43 27.7259 18.4509C27.6818 18.4613 27.6454 18.47 27.62 18.4762C27.6073 18.4793 27.5974 18.4817 27.5906 18.4834L27.5803 18.4859Z" fill="white"/>
<path fill-rule="evenodd" clip-rule="evenodd" d="M-3.75 37.5039H63.75V45.001H-3.75V37.5039Z" fill="#DE3908"/>
</g>
<defs>
<clipPath id="clip0_4046_27041">
<rect width="60" height="45" fill="white"/>
</clipPath>
</defs>
</svg>
