<svg width="60" height="45" viewBox="0 0 60 45" fill="none" xmlns="http://www.w3.org/2000/svg">
<g clip-path="url(#clip0_4046_27077)">
<path fill-rule="evenodd" clip-rule="evenodd" d="M0 0H85.5V3.46289H0V0ZM0 6.92578H85.5V10.3887H0V6.92578ZM0 13.8428H85.5V17.3145H0V13.8428ZM0 20.7686H85.5V24.2314H0V20.7686ZM0 27.6943H85.5V31.1572H0V27.6943ZM0 34.6113H85.5V38.0742H0V34.6113ZM0 41.5371H85.5V45H0V41.5371Z" fill="#BD3D44"/>
<path fill-rule="evenodd" clip-rule="evenodd" d="M0 3.46094H85.5V6.92383H0V3.46094ZM0 10.3867H85.5V13.8408H0V10.3867ZM0 17.3037H85.5V20.7666H0V17.3037ZM0 24.2295H85.5V27.6924H0V24.2295ZM0 31.1553H85.5V34.6182H0V31.1553ZM0 38.0723H85.5V41.5352H0V38.0723Z" fill="white"/>
<path fill-rule="evenodd" clip-rule="evenodd" d="M0 0H34.1982V24.2314H0V0Z" fill="#192F5D"/>
<path fill-rule="evenodd" clip-rule="evenodd" d="M2.84961 1.03906L3.16602 1.99707H4.16797L3.35938 2.58594L3.66699 3.55273L2.84961 2.95508L2.04102 3.54395L2.34863 2.58594L1.53125 1.99707H2.55078L2.84961 1.03906ZM8.55371 1.03906L8.86133 1.99707H9.87207L9.05469 2.58594L9.36231 3.55273L8.55371 2.95508L7.73633 3.54395L8.04395 2.58594L7.23535 1.99707H8.2373L8.55371 1.03906ZM14.249 1.03906L14.5654 1.99707H15.5586L14.75 2.58594L15.0576 3.55273L14.2402 2.95508L13.4316 3.54395L13.7393 2.58594L12.9219 1.99707H13.9326L14.249 1.03906ZM19.9531 1.03906L20.2607 1.99707H21.2715L20.4541 2.58594L20.7705 3.55273L19.9531 2.95508L19.1357 3.54395L19.4521 2.58594L18.6348 1.99707H19.6367L19.9531 1.03906ZM25.6484 1.03906L25.9648 1.99707H26.9668L26.1582 2.58594L26.4658 3.55273L25.6484 2.95508L24.8398 3.54395L25.1475 2.58594L24.3389 1.99707H25.3408L25.6484 1.03906ZM31.3525 1.03906L31.6602 1.99707H32.6709L31.8535 2.58594L32.1699 3.55273L31.3525 2.95508L30.5352 3.54395L30.8516 2.58594L30.0342 1.99707H31.0449L31.3525 1.03906ZM5.70606 3.46484L6.01367 4.42285H7.02441L6.20703 5.01172L6.50586 5.96973L5.71484 5.38086L4.89746 5.96973L5.1875 5.01172L4.39648 4.42285H5.39844L5.70606 3.46484ZM11.4014 3.46484L11.7178 4.42285H12.7197L11.9023 5.01172L12.2188 5.96973L11.4014 5.38086L10.584 5.96973L10.9004 5.01172L10.083 4.42285H11.0938L11.4014 3.46484ZM17.1055 3.46484L17.4131 4.42285H18.4238L17.6064 5.01172L17.9141 5.96973L17.1055 5.38086L16.2881 5.96973L16.5957 5.01172L15.7871 4.42285H16.7891L17.1055 3.46484ZM22.8008 3.46484L23.1172 4.42285H24.1191L23.3018 5.01172L23.6182 5.96973L22.8008 5.38086L21.9922 5.96973L22.2998 5.01172L21.4824 4.42285H22.502L22.8008 3.46484ZM28.5049 3.46484L28.8125 4.42285H29.8232L29.0059 5.01172L29.3135 5.96973L28.5049 5.38086L27.6875 5.96973L27.9951 5.01172L27.1865 4.42285H28.1885L28.5049 3.46484ZM2.84961 5.88184L3.16602 6.85742H4.16797L3.35938 7.44629L3.66699 8.4043L2.84961 7.80664L2.04102 8.4043L2.34863 7.4375L1.53125 6.84863H2.55078L2.84961 5.88184ZM8.55371 5.88184L8.86133 6.84863H9.87207L9.05469 7.4375L9.36231 8.39551L8.55371 7.79785L7.73633 8.39551L8.04395 7.42871L7.23535 6.83984H8.2373L8.55371 5.88184ZM14.249 5.88184L14.5654 6.84863H15.5586L14.75 7.4375L15.0576 8.39551L14.2402 7.79785L13.4316 8.39551L13.7393 7.42871L12.9219 6.83984H13.9326L14.249 5.88184ZM19.9531 5.88184L20.2607 6.84863H21.2715L20.4541 7.4375L20.7705 8.39551L19.9531 7.79785L19.1357 8.39551L19.4521 7.42871L18.6348 6.83984H19.6367L19.9531 5.88184ZM25.6484 5.88184L25.9648 6.84863H26.9668L26.1582 7.4375L26.4658 8.39551L25.6484 7.79785L24.8398 8.39551L25.1475 7.42871L24.3389 6.83984H25.3408L25.6484 5.88184ZM31.3525 5.88184L31.6602 6.84863H32.6709L31.8535 7.4375L32.1699 8.39551L31.3525 7.79785L30.5352 8.39551L30.8516 7.42871L30.0342 6.83984H31.0449L31.3525 5.88184ZM5.70606 8.30762L6.01367 9.26562H7.02441L6.20703 9.85449L6.51465 10.8213L5.70606 10.2236L4.88867 10.8125L5.19629 9.85449L4.3877 9.26562H5.38965L5.70606 8.30762ZM11.4014 8.30762L11.7178 9.26562H12.7197L11.9023 9.85449L12.2188 10.8213L11.4014 10.2236L10.584 10.8125L10.9004 9.85449L10.083 9.26562H11.0938L11.4014 8.30762ZM17.1055 8.30762L17.4131 9.26562H18.4238L17.6064 9.85449L17.9141 10.8213L17.1055 10.2236L16.2881 10.8125L16.5957 9.85449L15.7871 9.26562H16.7891L17.1055 8.30762ZM22.8008 8.30762L23.1172 9.26562H24.1191L23.3105 9.85449L23.6182 10.8213L22.8008 10.2236L21.9922 10.8125L22.2998 9.85449L21.4824 9.26562H22.502L22.8008 8.30762ZM28.5049 8.30762L28.8125 9.26562H29.8232L29.0059 9.85449L29.3135 10.8213L28.5049 10.2236L27.6875 10.8125L27.9951 9.85449L27.1865 9.26562H28.1885L28.5049 8.30762ZM2.84961 10.7334L3.16602 11.6914H4.16797L3.35938 12.2803L3.66699 13.2471L2.84961 12.6494L2.04102 13.2383L2.34863 12.2803L1.53125 11.6914H2.55078L2.84961 10.7334ZM8.55371 10.7334L8.86133 11.6914H9.87207L9.05469 12.2803L9.36231 13.2383L8.55371 12.6494L7.73633 13.2383L8.04395 12.2803L7.23535 11.6914H8.2373L8.55371 10.7334ZM14.249 10.7334L14.5654 11.6914H15.5586L14.75 12.2803L15.0576 13.2471L14.2402 12.6494L13.4316 13.2383L13.7393 12.2803L12.9219 11.6914H13.9326L14.249 10.7334ZM19.9531 10.7334L20.2607 11.6914H21.2715L20.4541 12.2803L20.7705 13.2471L19.9531 12.6494L19.1357 13.2383L19.4521 12.2803L18.6348 11.6914H19.6367L19.9531 10.7334ZM25.6484 10.7334L25.9648 11.6914H26.9668L26.1582 12.2803L26.4658 13.2471L25.6484 12.6494L24.8398 13.2383L25.1475 12.2803L24.3389 11.6914H25.3408L25.6484 10.7334ZM31.3525 10.7334L31.6602 11.6914H32.6709L31.8535 12.2803L32.1699 13.2471L31.3525 12.6494L30.5352 13.2383L30.8516 12.2803L30.0342 11.6914H31.0449L31.3525 10.7334ZM5.70606 13.1592L6.01367 14.1172H7.02441L6.20703 14.7061L6.51465 15.6641L5.70606 15.0664L4.88867 15.6641L5.19629 14.6973L4.3877 14.1084H5.38965L5.70606 13.1592ZM11.4014 13.1592L11.7178 14.1172H12.7197L11.9023 14.7061L12.2188 15.6641L11.4014 15.0664L10.584 15.6641L10.9004 14.6973L10.083 14.1084H11.0938L11.4014 13.1592ZM17.1055 13.1592L17.4131 14.1172H18.4238L17.6064 14.7061L17.9141 15.6641L17.1055 15.0664L16.2881 15.6641L16.5957 14.6973L15.7871 14.1084H16.7891L17.1055 13.1592ZM22.8008 13.1592L23.1172 14.1172H24.1191L23.3105 14.7061L23.6182 15.6641L22.8008 15.0664L21.9922 15.6641L22.2998 14.6973L21.4824 14.1084H22.502L22.8008 13.1592ZM28.5049 13.1592L28.8125 14.1172H29.8232L29.0059 14.7061L29.3135 15.6641L28.5049 15.0664L27.6875 15.6641L27.9951 14.6973L27.1865 14.1084H28.1885L28.5049 13.1592ZM2.84961 15.5762L3.16602 16.543H4.16797L3.35938 17.1318L3.66699 18.0811L2.84961 17.4922L2.04102 18.0811L2.34863 17.123L1.53125 16.5342H2.55078L2.84961 15.5762ZM8.55371 15.5762L8.86133 16.543H9.87207L9.05469 17.1318L9.37109 18.0811L8.55371 17.4922L7.73633 18.0811L8.05273 17.123L7.23535 16.5342H8.2373L8.55371 15.5762ZM14.249 15.5762L14.5654 16.543H15.5586L14.75 17.1318L15.0576 18.0811L14.2402 17.4922L13.4316 18.0811L13.7393 17.123L12.9219 16.5342H13.9326L14.249 15.5762ZM19.9531 15.5762L20.2607 16.543H21.2715L20.4541 17.1318L20.7705 18.0811L19.9531 17.4922L19.1357 18.0811L19.4521 17.123L18.6348 16.5342H19.6367L19.9531 15.5762ZM25.6484 15.5762L25.9648 16.543H26.9668L26.1582 17.1318L26.4658 18.0811L25.6484 17.4922L24.8398 18.0811L25.1475 17.123L24.3389 16.5342H25.3408L25.6484 15.5762ZM31.3525 15.5762L31.6602 16.543H32.6709L31.8535 17.1318L32.1699 18.0811L31.3525 17.4922L30.5352 18.0811L30.8516 17.123L30.0342 16.5342H31.0449L31.3525 15.5762ZM5.70606 18.002L6.01367 18.96H7.02441L6.20703 19.5488L6.51465 20.5156L5.70606 19.918L4.88867 20.5068L5.19629 19.5488L4.3877 18.96H5.38965L5.70606 18.002ZM11.4014 18.002L11.7178 18.96H12.7197L11.9023 19.5488L12.2188 20.5156L11.4014 19.918L10.584 20.5068L10.9004 19.5488L10.083 18.96H11.0938L11.4014 18.002ZM17.1055 18.002L17.4131 18.96H18.4238L17.6064 19.5488L17.9141 20.5156L17.1055 19.918L16.2881 20.5068L16.5957 19.5488L15.7871 18.96H16.7891L17.1055 18.002ZM22.8008 18.002L23.1172 18.96H24.1191L23.3105 19.5488L23.6182 20.5156L22.8008 19.918L21.9922 20.5068L22.2998 19.5488L21.4824 18.96H22.502L22.8008 18.002ZM28.5049 18.002L28.8125 18.96H29.8232L29.0059 19.5488L29.3135 20.5156L28.5049 19.918L27.6875 20.5068L27.9951 19.5488L27.1865 18.96H28.1885L28.5049 18.002ZM2.84961 20.4277L3.16602 21.3857H4.16797L3.35938 21.9746L3.66699 22.9326L2.84961 22.3438L2.04102 22.9326L2.34863 21.9658L1.53125 21.377H2.55078L2.84961 20.4277ZM8.55371 20.4277L8.86133 21.3857H9.87207L9.05469 21.9746L9.37109 22.9326L8.55371 22.3438L7.73633 22.9326L8.05273 21.9658L7.23535 21.377H8.2373L8.55371 20.4277ZM14.249 20.4277L14.5654 21.3857H15.5586L14.7676 21.9746L15.0752 22.9326L14.2578 22.3438L13.4492 22.9326L13.7568 21.9658L12.9395 21.377H13.9502L14.249 20.4277ZM19.9531 20.4277L20.2607 21.3857H21.2715L20.4541 21.9746L20.7705 22.9326L19.9531 22.3438L19.1357 22.9326L19.4521 21.9658L18.6348 21.377H19.6367L19.9531 20.4277ZM25.6484 20.4277L25.9648 21.3857H26.9668L26.1582 21.9746L26.4658 22.9326L25.6484 22.3438L24.8398 22.9326L25.1475 21.9658L24.3389 21.377H25.3408L25.6484 20.4277ZM31.3525 20.4277L31.6602 21.3857H32.6709L31.8535 21.9746L32.1699 22.9326L31.3525 22.3438L30.5352 22.9326L30.8516 21.9658L30.0342 21.377H31.0449L31.3525 20.4277Z" fill="white"/>
</g>
<defs>
<clipPath id="clip0_4046_27077">
<rect width="60" height="45" fill="white"/>
</clipPath>
</defs>
</svg>
