<svg width="60" height="45" viewBox="0 0 60 45" fill="none" xmlns="http://www.w3.org/2000/svg">
<g clip-path="url(#clip0_4046_27084)">
<path fill-rule="evenodd" clip-rule="evenodd" d="M0 0H60V45H0V0Z" fill="#4B92DB"/>
<path d="M33.5367 33.0172C33.3735 33.1942 33.1947 33.3561 33.0023 33.5009C31.8098 32.2634 30.4036 30.9022 29.0705 30.9022C28.2436 30.9022 27.653 31.5322 26.9555 31.9709C25.9936 32.5897 24.6717 32.9384 23.5411 32.4828C22.9016 32.2638 22.3338 31.8749 21.8986 31.3578C22.3773 31.6564 22.9199 31.8376 23.482 31.8865C24.0441 31.9353 24.6099 31.8506 25.133 31.6391C26.2411 31.1778 27.3773 30.5647 28.643 30.5647C30.5105 30.5647 32.288 31.8303 33.5367 33.0172ZM19.7217 29.1359C20.9592 30.5422 22.9786 30.0922 24.6267 30.4409C24.8573 30.4972 25.0767 30.5703 25.3242 30.5309C25.1273 30.4072 24.863 30.3903 24.638 30.3059C23.3555 29.8222 23.1586 28.4497 22.4555 27.5103C23.3555 28.1066 24.0923 28.9166 24.9305 29.6872C25.5212 30.1757 26.2358 30.4911 26.9948 30.5984C26.8148 30.6659 26.5786 30.6547 26.3761 30.6997C25.0261 31.0372 23.5298 31.5659 22.0898 31.0934C21.0856 30.7586 20.243 30.0604 19.7273 29.1359H19.7217ZM17.7417 25.8734C18.5123 27.6228 20.453 27.7634 21.7355 28.8322C21.9654 29.0364 22.2206 29.2103 22.4948 29.3497L22.5117 29.3384C22.1946 29.062 21.9097 28.7506 21.6623 28.4103C20.9255 27.3416 21.1673 25.8791 20.5992 24.7428C21.1269 25.3294 21.5648 25.991 21.8986 26.7059C22.3767 27.8422 22.5398 29.1416 23.6142 30.0078C22.4498 29.6253 21.1111 29.6984 20.0705 29.0178C18.968 28.2978 17.9498 27.1616 17.7417 25.8791V25.8734ZM16.9148 22.3409C17.0273 23.8822 18.6586 24.7034 19.4461 25.9691C19.6148 26.2391 19.7836 26.5203 20.0255 26.7341C19.9861 26.5709 19.8567 26.4247 19.778 26.2672C19.5197 25.6986 19.4169 25.0716 19.4798 24.4503C19.553 23.6628 19.8792 22.9316 19.7555 22.1047C20.4305 23.5616 20.2111 25.3784 20.5992 26.9478C20.6892 27.2966 20.8973 27.6003 21.0267 27.9322C20.3686 27.4259 19.5023 26.9759 18.7767 26.4134C18.0533 25.8934 17.4885 25.1826 17.1455 24.3603C16.9246 23.7115 16.8459 23.0228 16.9148 22.3409V22.3409ZM16.9598 19.5059C17.0386 19.1628 17.1005 18.8084 17.2467 18.4934C16.9655 19.9447 17.933 20.9909 18.2592 22.2509C18.383 22.7234 18.428 23.2241 18.6192 23.6684C18.6361 23.6741 18.653 23.6572 18.6642 23.6459C18.1861 22.3072 18.8892 21.0697 19.5642 20.0178C19.7296 19.7292 19.8474 19.4158 19.913 19.0897C19.9861 19.6972 19.8567 20.3947 19.7442 21.0191C19.6036 21.8234 19.328 22.5772 19.1086 23.3534C18.9898 23.8593 18.9802 24.3848 19.0805 24.8947L19.0073 24.8384C18.5011 23.9047 17.4998 23.1734 17.2017 22.1497C16.9167 21.2992 16.8339 20.394 16.9598 19.5059V19.5059ZM17.4942 17.9422C17.5126 16.9089 17.8905 15.9144 18.563 15.1297C18.5798 15.1184 18.5967 15.1016 18.6192 15.1072C17.9105 16.1759 18.5573 17.5372 18.4617 18.7578L18.3717 20.0066C18.383 20.0178 18.383 20.0572 18.4167 20.0403C18.4617 19.8997 18.473 19.7534 18.4955 19.6072C18.6642 18.5947 19.553 17.8972 20.3011 17.1884C20.4741 17.0251 20.6086 16.8252 20.6948 16.6034C20.633 17.1097 20.4923 17.6216 20.2673 18.0772C19.688 19.2472 18.5742 20.1922 18.3717 21.5253C18.2761 20.2484 17.4942 19.2978 17.4942 17.9422V17.9422ZM19.3505 14.2353C19.6738 13.8465 20.1041 13.561 20.588 13.4141C19.6598 14.0497 19.7105 15.1803 19.4292 16.1253C19.328 16.4684 19.1761 16.7947 19.0917 17.1491L19.1198 17.1716C19.2856 16.7461 19.5452 16.3635 19.8792 16.0522C20.5261 15.4447 21.4992 15.0734 21.8198 14.1791C21.803 15.4222 20.7455 16.3672 19.778 17.0984C19.3473 17.4234 18.997 17.8429 18.7542 18.3247C18.788 17.9872 18.8105 17.6947 18.7767 17.3628C18.6755 16.2772 18.608 15.0566 19.3561 14.2353H19.3505ZM23.0911 12.1484C22.4105 12.7503 21.9548 13.5209 21.4261 14.2128C20.993 14.7922 20.3911 15.1466 19.8792 15.6303C20.1605 15.0566 20.2055 14.3928 20.5598 13.8359C21.1617 12.8797 22.163 12.5084 23.0911 12.1484V12.1484Z" fill="white"/>
<path d="M38.3422 24.561L38.1453 24.4485C37.7177 25.3274 37.151 26.1315 36.4672 26.8298L35.2953 25.6485C35.8617 25.0635 36.3274 24.3887 36.6734 23.6516L36.4766 23.5391C36.1379 24.2596 35.6817 24.9186 35.1266 25.4891L34.0578 24.4204C34.5103 23.9529 34.8782 23.4105 35.1453 22.8173L34.9484 22.7048C34.6913 23.2805 34.336 23.8071 33.8984 24.261L32.7266 23.0891C33.0488 22.7462 33.3033 22.3454 33.4766 21.9079L33.2797 21.7954C33.1158 22.2122 32.874 22.5941 32.5672 22.9204L31.4891 21.8516C31.7917 21.5149 31.9703 21.0849 31.9953 20.6329H33.5141C33.5027 21.0309 33.4234 21.4241 33.2797 21.7954L33.4766 21.9079C33.6381 21.5015 33.7269 21.07 33.7391 20.6329H35.4078C35.3908 21.3478 35.2314 22.0521 34.9391 22.7048L35.1453 22.8173C35.4525 22.1291 35.6183 21.3863 35.6328 20.6329H37.1516C37.1348 21.6385 36.9047 22.6291 36.4766 23.5391L36.6734 23.6516C37.1168 22.7062 37.3533 21.677 37.3672 20.6329H39.0453C39.0296 21.9555 38.7223 23.2583 38.1453 24.4485L38.3422 24.561C38.9557 23.3055 39.2762 21.9271 39.2797 20.5298C39.2808 19.3377 39.0516 18.1567 38.6047 17.0516L38.3984 17.1454C38.8186 18.1858 39.0412 19.2953 39.0547 20.4173H37.3766C37.3665 19.5181 37.1917 18.6284 36.8609 17.7923L36.6547 17.886C36.9761 18.6919 37.1477 19.5497 37.1609 20.4173H35.6234C35.6129 19.7565 35.4859 19.1027 35.2484 18.486L35.0422 18.5798C35.267 19.1669 35.3876 19.7887 35.3984 20.4173H33.7484C33.7376 20.014 33.6616 19.615 33.5234 19.236L33.3172 19.3298C33.4429 19.6791 33.5125 20.0461 33.5234 20.4173H32.0047C31.9797 19.9652 31.8011 19.5352 31.4984 19.1985L32.5766 18.1204C32.9024 18.4659 33.1544 18.8742 33.3172 19.3204L33.5234 19.236C33.3501 18.762 33.0822 18.3282 32.7359 17.961L33.9172 16.7798C34.4145 17.2976 34.8034 17.9096 35.0609 18.5798L35.2672 18.486C34.9952 17.7905 34.5873 17.1563 34.0672 16.6204L35.1453 15.5516C35.7979 16.2259 36.3108 17.0224 36.6547 17.8954L36.8609 17.8016C36.5024 16.9034 35.9704 16.0847 35.2953 15.3923L36.4766 14.211C37.3031 15.0539 37.956 16.0509 38.3984 17.1454L38.6047 17.0516C38.1369 15.8997 37.4418 14.8539 36.5609 13.9766C35.6792 13.0901 34.6267 12.3916 33.4672 11.9235L33.3922 12.1391C34.4859 12.5787 35.4828 13.2285 36.3266 14.0516L35.1453 15.2329C34.4642 14.573 33.662 14.0509 32.7828 13.6954L32.6891 13.9016C33.5446 14.2481 34.3247 14.7576 34.9859 15.4016L33.9172 16.4704C33.4028 15.9731 32.7982 15.5786 32.1359 15.3079L32.0609 15.5141C32.6879 15.7736 33.2604 16.1489 33.7484 16.6204L32.5766 17.8016C32.2488 17.4919 31.8677 17.2442 31.4516 17.0704L31.3672 17.286C31.7547 17.4464 32.1104 17.675 32.4172 17.961L31.3297 19.0298C30.993 18.7271 30.563 18.5485 30.1109 18.5235V17.0048C30.5397 17.0183 30.9623 17.1105 31.3578 17.2766L31.4422 17.0704C31.02 16.8926 30.5688 16.7941 30.1109 16.7798V15.111C30.7766 15.1215 31.4345 15.255 32.0516 15.5048L32.1359 15.2985C31.4922 15.0371 30.8056 14.8973 30.1109 14.886V13.3673C30.9954 13.3809 31.8697 13.5589 32.6891 13.8923L32.7641 13.686C31.9203 13.3454 31.0207 13.1642 30.1109 13.1516V11.4735C31.2329 11.487 32.3424 11.7096 33.3828 12.1298L33.4578 11.9141C32.3573 11.476 31.1829 11.2532 29.9984 11.2579C28.56 11.255 27.1409 11.589 25.8547 12.2329L25.9484 12.4204C27.1727 11.813 28.5193 11.4924 29.8859 11.4829V13.1516C28.7892 13.1649 27.7095 13.4244 26.7266 13.911L26.8297 14.0985C27.7812 13.63 28.8254 13.3802 29.8859 13.3673V14.886C29.0731 14.9011 28.2733 15.093 27.5422 15.4485L27.6359 15.6454C28.3384 15.3066 29.1061 15.1243 29.8859 15.111V16.7798C29.3761 16.7964 28.8751 16.9176 28.4141 17.136L28.5078 17.3235C28.9408 17.1247 29.4097 17.0163 29.8859 17.0048V18.5235C29.6603 18.536 29.4384 18.5867 29.2297 18.6735L29.3234 18.861C29.5384 18.777 29.7677 18.7356 29.9984 18.7391C30.2315 18.7383 30.4624 18.7833 30.6779 18.8718C30.8935 18.9603 31.0895 19.0904 31.2547 19.2548C31.423 19.4214 31.5561 19.6201 31.6463 19.8391C31.7365 20.0581 31.7818 20.2929 31.7797 20.5298C31.7797 21.0022 31.592 21.4552 31.258 21.7893C30.9239 22.1233 30.4709 22.311 29.9984 22.311C29.7648 22.3107 29.5335 22.2641 29.3179 22.174C29.1023 22.0839 28.9066 21.952 28.7422 21.786C28.5762 21.6216 28.4443 21.4259 28.3542 21.2103C28.2641 20.9947 28.2175 20.7634 28.2172 20.5298C28.2163 20.2945 28.2623 20.0614 28.3524 19.8441C28.4425 19.6268 28.575 19.4297 28.7422 19.2641C28.9087 19.099 29.1063 18.9684 29.3234 18.8798L29.2203 18.6829C29.0143 18.7695 28.8242 18.8899 28.6578 19.0391L27.5891 17.961C27.8629 17.7034 28.1762 17.4913 28.5172 17.3329L28.4141 17.1454C28.0533 17.3107 27.721 17.5322 27.4297 17.8016L26.2484 16.6204C26.6576 16.2279 27.1258 15.9021 27.6359 15.6548L27.5422 15.4673C27.0116 15.7244 26.5245 16.0629 26.0984 16.4704L25.0203 15.3735C25.5536 14.8572 26.1641 14.4271 26.8297 14.0985L26.7359 13.911C26.0467 14.2487 25.4142 14.6915 24.8609 15.2235L23.6797 14.0329C24.3512 13.3809 25.1197 12.8369 25.9578 12.4204L25.8547 12.2235C24.0449 13.1334 22.5805 14.6077 21.6828 16.4235L21.8703 16.5173C22.2941 15.66 22.851 14.8753 23.5203 14.1923L24.7109 15.3829C24.1566 15.9526 23.6976 16.6079 23.3516 17.3235L23.5391 17.4266C23.8742 16.728 24.3206 16.0884 24.8609 15.5329L25.9391 16.6016C25.5023 17.0547 25.1443 17.5775 24.8797 18.1485L25.0672 18.2516C25.3245 17.7002 25.6732 17.1962 26.0984 16.761L27.2797 17.9423C26.9722 18.2646 26.7245 18.6392 26.5484 19.0485L26.7453 19.161C26.9075 18.7694 27.1394 18.4105 27.4297 18.1016L28.5078 19.1704C28.2039 19.51 28.0252 19.9434 28.0016 20.3985H26.4828C26.4948 19.9735 26.5837 19.5542 26.7453 19.161L26.5578 19.0485C26.3744 19.4758 26.2726 19.9337 26.2578 20.3985H24.5891C24.6021 19.657 24.7681 18.9261 25.0766 18.2516L24.8891 18.1579C24.5607 18.8603 24.382 19.6233 24.3641 20.3985H22.8453C22.8621 19.3687 23.102 18.3548 23.5484 17.4266L23.3516 17.3235C22.8901 18.2838 22.6437 19.3332 22.6297 20.3985H20.9516C20.968 19.0548 21.2851 17.7318 21.8797 16.5266L21.6828 16.4235C21.0539 17.6943 20.7266 19.0931 20.7266 20.511C20.7264 21.3963 20.8527 22.2771 21.1016 23.1266L21.3172 23.0704C21.0842 22.2753 20.9612 21.452 20.9516 20.6235H22.6297C22.6374 21.3127 22.7415 21.9975 22.9391 22.6579L23.1547 22.6016C22.9595 21.96 22.8553 21.2941 22.8453 20.6235H24.3734C24.3824 21.1709 24.4708 21.7141 24.6359 22.236L24.8609 22.1798C24.698 21.6766 24.6095 21.1523 24.5984 20.6235H26.2484C26.2603 21.0137 26.3331 21.3996 26.4641 21.7673L26.6797 21.711C26.5541 21.3616 26.4845 20.9946 26.4734 20.6235H27.9922C28.0172 21.0756 28.1958 21.5055 28.4984 21.8423L27.4203 22.9204C27.0936 22.5719 26.8416 22.1604 26.6797 21.711L26.4641 21.7673C26.6383 22.2562 26.913 22.7033 27.2703 23.0798L26.0797 24.261C25.5147 23.6701 25.0915 22.9584 24.8422 22.1798L24.6172 22.236C24.8812 23.0552 25.3303 23.8027 25.9297 24.4204L24.8609 25.4985C24.0733 24.685 23.4916 23.695 23.1641 22.611L22.9484 22.6673C23.2853 23.7899 23.8865 24.8155 24.7016 25.6579L23.5297 26.8391C22.4985 25.7854 21.7419 24.4944 21.3266 23.0798L21.1016 23.136C21.5388 24.6249 22.345 25.9793 23.4453 27.0735C24.189 27.8207 25.0545 28.4358 26.0047 28.8923L26.1172 28.6954C25.2167 28.268 24.3931 27.6947 23.6797 26.9985L24.8609 25.8173C25.4664 26.4006 26.1671 26.8762 26.9328 27.2235L27.0453 27.036C26.2961 26.6965 25.6111 26.2303 25.0203 25.6579L26.0891 24.5891C26.5843 25.0652 27.1626 25.4465 27.7953 25.7141L27.9078 25.5173C27.2923 25.2604 26.7297 24.8916 26.2484 24.4298L27.4297 23.2485C27.807 23.6025 28.2541 23.8739 28.7422 24.0454L28.8453 23.8485C28.3777 23.6869 27.9495 23.4281 27.5891 23.0891L28.6672 22.011C29.0039 22.3136 29.4339 22.4922 29.8859 22.5173V24.036C29.5347 24.0254 29.1871 23.9622 28.8547 23.8485L28.7328 24.036C29.1029 24.1714 29.4921 24.2474 29.8859 24.261V25.9298C29.2065 25.9182 28.5353 25.7782 27.9078 25.5173L27.7953 25.7048C28.457 25.9871 29.1667 26.1398 29.8859 26.1548V27.6735C28.9053 27.6588 27.9382 27.4418 27.0453 27.036L26.9328 27.2235C27.8596 27.6511 28.8654 27.881 29.8859 27.8985V29.5673C28.5813 29.5532 27.2954 29.2557 26.1172 28.6954L26.0047 28.8829C27.2511 29.4812 28.6159 29.7919 29.9984 29.7923C31.4797 29.7923 32.9047 29.4454 34.1797 28.7985L34.0672 28.5923C32.8405 29.2161 31.487 29.5496 30.1109 29.5673V27.8891C31.2185 27.8736 32.3083 27.6076 33.2984 27.111L33.2047 26.9141C32.2435 27.3952 31.1857 27.6516 30.1109 27.6641V26.1641C30.9456 26.1453 31.7656 25.9404 32.5109 25.5641L32.4078 25.3673C31.6934 25.7227 30.9088 25.9149 30.1109 25.9298V24.261C30.6412 24.2463 31.1622 24.1185 31.6391 23.886L31.5453 23.6798C31.098 23.8993 30.609 24.0208 30.1109 24.036V22.5173C30.563 22.4922 30.993 22.3136 31.3297 22.011L32.4078 23.0891C32.1483 23.3284 31.8544 23.5275 31.5359 23.6798L31.6391 23.886C31.9788 23.7214 32.2917 23.5065 32.5672 23.2485L33.7484 24.4204C33.3521 24.8021 32.9001 25.1214 32.4078 25.3673L32.5016 25.5641C33.0178 25.3096 33.492 24.9777 33.9078 24.5798L34.9766 25.6485C34.4509 26.1589 33.8502 26.5857 33.1953 26.9141L33.3078 27.111C33.9801 26.7724 34.5966 26.333 35.1359 25.8079L36.3078 26.9891C35.6468 27.6343 34.8912 28.1749 34.0672 28.5923L34.1797 28.7985C35.0567 28.3529 35.8574 27.7706 36.5516 27.0735C37.2844 26.3418 37.8897 25.4925 38.3422 24.561V24.561Z" fill="white"/>
<path d="M30.5343 18.3742H30.478V18.4398H30.5343V18.3742ZM30.3937 18.2805H30.4687V18.3367H30.3937V18.2805ZM30.2624 18.2617L30.3187 18.2711L30.328 18.2148H30.2624V18.2617ZM30.2062 18.243H30.1405V18.1773L30.2155 18.1867L30.2062 18.243ZM29.6624 18.168H29.7374V18.2242H29.6624V18.168ZM29.503 18.2805L29.5687 18.2898V18.2336H29.5124L29.503 18.2805ZM29.503 18.3742L29.4374 18.3461V18.2898L29.5218 18.318L29.503 18.3742ZM29.3718 18.4398V18.3836L29.4187 18.3742L29.428 18.4305L29.3718 18.4398ZM22.003 24.2148V24.168H21.9562V24.2617H22.0312V24.3836H22.0874V24.243L22.003 24.2148ZM22.7062 25.0586L22.6124 24.9648L22.528 24.8617L22.4905 24.768L22.4249 24.5992L22.5655 24.6742L22.6124 24.8055L22.678 24.8523L22.7437 24.993L22.7062 25.0586ZM24.6468 27.5992L24.6374 27.5148L24.553 27.4023L24.6749 27.4211L24.7874 27.5242L24.8437 27.6461L24.7687 27.6836L24.7405 27.6273L24.6468 27.5992ZM29.7093 18.9836H29.6155L29.5874 18.7773L29.6437 18.7398V18.6367H29.3155V18.5336L29.353 18.5055L29.278 18.4773L29.2218 18.5523L29.203 18.6367L29.1093 18.6555V18.7023H29.0437V18.8242L28.7812 19.0398L28.2562 19.0211C28.228 19.1148 28.1343 19.0211 28.1343 19.0211C28.1062 18.9555 27.9843 19.0211 27.9843 19.0211C27.9843 19.1148 27.7968 18.9648 27.7968 18.9648L27.478 18.7305C27.2905 18.5617 27.0093 18.7773 26.9999 18.8242C26.9999 18.9555 26.7843 18.8523 26.7843 18.8523C26.7843 18.8523 26.5968 18.7961 26.5687 18.8711C26.5405 18.9461 26.4187 18.9273 26.4187 18.9273L26.3999 18.9648L26.3062 18.9836L26.2874 19.0398L26.1749 19.0586H26.4562C26.5312 19.0398 26.428 19.218 26.3812 19.2086H26.2499L26.203 19.2648H26.0812L26.0249 19.3398L25.8468 19.3305C25.8468 19.3305 25.753 19.4148 25.753 19.443C25.7624 19.4711 25.7343 19.5555 25.7062 19.5555C25.678 19.5555 25.6218 19.6492 25.6405 19.668C25.6593 19.6961 25.5843 19.7898 25.5843 19.7898L25.5655 19.8836L25.5093 19.9117V20.1648L25.3968 20.2398V20.3523L25.228 20.5398L25.2468 20.6805L25.1062 20.8398L25.1249 20.9898L25.0405 21.018L25.0218 21.0836L24.9843 21.2805L25.078 21.2898C25.1249 21.2711 25.1155 21.4117 25.078 21.4398C25.0405 21.4586 24.9374 21.4961 24.9937 21.5336C25.0499 21.5711 24.8437 21.5617 24.8437 21.5055C24.8437 21.4398 24.7312 21.393 24.703 21.4117C24.6749 21.4305 24.628 21.3273 24.628 21.3273C24.5343 21.2336 24.2155 21.3367 24.2155 21.3367L24.1687 21.4961C24.0655 21.5055 23.9999 21.6836 23.9999 21.6836C23.9062 21.7117 23.8499 21.8148 23.878 21.843C23.9062 21.8711 23.8312 21.8805 23.8312 21.8805V22.0867L23.7843 22.1523V22.3867C23.8499 22.3867 23.8405 22.4805 23.8405 22.4805C23.7468 22.4992 23.7655 22.6211 23.7655 22.6211L23.5687 22.6867L23.5312 22.743H23.2874L23.2218 22.7992L23.1562 22.7336H22.6874L22.6687 22.6867L22.5749 22.668V22.5648H22.4249L22.3968 22.6305L22.2468 22.6398C22.2562 22.7336 22.0968 22.8742 22.078 22.8367C22.0593 22.7992 21.9562 22.6961 22.003 22.6773C22.0583 22.6609 22.1147 22.6483 22.1718 22.6398V22.5742L21.8249 22.5648L21.7874 22.6211L21.6468 22.6305V22.7805L21.5812 22.7992C21.5343 22.8273 21.5905 22.9305 21.5905 22.9305C21.6562 22.9961 21.5905 23.1086 21.5905 23.1086C21.5249 23.1648 21.628 23.268 21.628 23.268C21.703 23.2867 21.5812 23.343 21.5812 23.343C21.5999 23.4367 21.6562 23.4648 21.6562 23.4648C21.5999 23.5586 21.6937 23.6055 21.6937 23.6055L21.703 23.7648L21.7687 23.8023V23.9148L21.8062 23.9805H21.9562V23.7367C21.8155 23.5867 22.0593 23.5492 22.0687 23.6055C22.078 23.6617 22.1812 23.6992 22.1812 23.6992C22.1999 23.8398 22.3687 23.9242 22.4062 23.7742C22.453 23.6336 22.4999 23.718 22.5187 23.7836C22.5468 23.8586 22.7249 24.018 22.7249 24.018H22.8655L22.8843 24.1492C23.0437 24.1398 23.0905 24.1492 23.1562 24.3742C23.1719 24.4369 23.2022 24.495 23.2445 24.5439C23.2868 24.5928 23.3401 24.631 23.3999 24.6555L23.5312 24.6461C23.5312 24.5242 23.6624 24.6648 23.6624 24.7211C23.6624 24.7773 23.9155 24.993 23.9155 24.993L24.1687 25.0492L24.403 25.2367L24.5812 25.218H24.6562C24.703 25.0586 24.928 25.2273 24.9374 25.2836C24.9562 25.3398 25.1062 25.443 25.1249 25.3961C25.1437 25.3492 25.2468 25.3773 25.2655 25.518C25.2843 25.6586 25.3593 25.6305 25.3593 25.6305L25.8843 25.6211L26.0718 25.4617L26.5499 25.4523C26.7937 25.443 26.6437 25.1055 26.5968 25.1055C26.5124 25.0398 26.6249 24.768 26.6249 24.768L25.9405 24.1305C25.7812 24.1305 25.9218 23.9055 25.9218 23.9055C26.0437 23.8305 25.8937 23.6992 25.8937 23.6992C25.9124 23.5867 25.828 23.4555 25.828 23.4555C25.6593 23.343 25.7062 23.1273 25.7062 23.1273V22.968C25.5655 22.8367 25.7624 22.818 25.7624 22.818C25.828 22.7055 25.7155 22.6211 25.7155 22.6211V22.4992L25.5562 22.4805L25.5374 22.0305L25.1999 21.5523C25.1343 21.5336 25.1812 21.4117 25.1812 21.4117C25.2749 21.3648 25.1624 21.2523 25.1624 21.2523V21.0461L25.3499 21.0273L25.3968 20.9523H25.4905V20.7086C25.528 20.5773 25.6405 20.643 25.6405 20.643L25.7718 20.6523L25.8468 20.5117L25.8655 20.3992H25.7718C25.6499 20.3242 25.7062 20.0805 25.7062 20.0805C25.8937 19.8086 26.0905 19.968 26.0905 19.968L26.2218 19.9586C26.4187 20.0898 26.2405 20.3336 26.2405 20.3336C26.203 20.3898 26.2218 20.568 26.2218 20.568L26.2687 20.8773L26.1468 20.9711C26.053 21.0367 26.053 21.168 26.1562 21.1961C26.2312 21.2055 26.203 21.3836 26.0905 21.2617C25.9218 21.2617 26.1843 21.4117 26.1093 21.3742C26.278 21.468 26.2405 21.2992 26.2405 21.2992L26.4655 21.1211C26.5593 21.0555 26.6999 21.2617 26.6999 21.2898C26.6999 21.318 27.0749 21.2992 27.0749 21.2992C27.1687 21.3648 27.2155 21.543 27.2155 21.543C27.3093 21.4023 27.5343 21.5336 27.3749 21.6086C27.5249 21.7023 27.5249 21.7867 27.5249 21.7867C27.6468 21.7492 27.6468 21.843 27.6468 21.8711L27.6843 21.7305C27.5437 21.6273 27.8718 21.5898 27.778 21.7773L27.7218 21.8617L27.8155 21.9367V22.1523C28.0312 22.1336 27.9749 21.8805 27.9749 21.8805L28.0687 21.8617C28.0687 21.768 28.1343 21.8242 28.1343 21.8242C28.0687 21.5055 28.2843 21.4492 28.2843 21.4492C28.4062 21.4117 28.4155 21.1586 28.4155 21.1586C28.3218 21.1211 28.378 20.9898 28.4718 21.1023C28.5655 21.2148 28.4155 20.8773 28.4155 20.8773L28.3405 20.8117L28.2374 20.8023L28.228 20.6992H28.0593L28.0312 20.8305L27.9655 20.8492L27.9468 20.8117L27.9187 20.9055H27.7499L27.7405 20.8023L27.8343 20.7742L27.8812 20.718L27.9093 20.5586H28.0312L28.1905 20.5117C28.1905 20.3523 28.2843 20.3898 28.2843 20.3898L28.3405 20.4367L28.4249 20.5023V20.5586L28.378 20.5867L28.3687 20.6617L28.3968 20.7742H28.4624C28.4905 20.6148 28.6874 20.6148 28.7437 20.718L28.7999 20.5773C28.6687 20.5117 28.7999 20.4086 28.8374 20.4555C28.8749 20.5023 28.9593 20.3336 28.9593 20.3336C28.9593 20.3336 29.0249 20.4273 28.9593 20.3055C28.8937 20.193 29.0062 20.1367 29.0062 20.1367C28.9874 20.0242 29.128 20.043 29.128 20.043L29.1374 19.8836H29.0062C28.978 20.0148 28.8655 19.893 28.9218 19.8648C28.978 19.8367 29.0343 19.7805 29.0343 19.7805V19.6867L29.0905 19.668L29.0999 19.5742H29.2405L29.3624 19.518L29.3905 19.4711L29.5218 19.4617L29.7093 19.293L29.6905 19.218C29.578 19.218 29.6905 19.1242 29.6905 19.1242L29.7093 18.9836V18.9836Z" fill="white"/>
<path d="M25.9407 20.8703L25.7719 20.8516L25.7813 20.9172H25.8282C25.9032 21.0484 25.8376 21.3672 25.8376 21.3672C25.8376 21.3672 25.7251 21.3766 25.7063 21.3203C25.6876 21.2641 25.6407 21.4422 25.6782 21.4797C25.7157 21.5078 25.8469 21.4797 25.8657 21.5734C25.8657 21.6859 25.9407 21.5172 25.9407 21.5172V20.8609V20.8703Z" fill="white"/>
<path d="M25.9422 21.6766L25.9984 21.6672L26.0078 21.6016L25.8672 21.6953L25.7734 21.6391V21.8641L25.9234 22.0609L25.9797 21.9297L25.9984 21.8453L25.9328 21.8172L25.9422 21.6766ZM26.0172 22.2766V22.1828H25.9516V22.2672L26.0172 22.2766ZM25.9328 22.7266V22.6609L25.8578 22.6703V22.7359L25.9328 22.7266ZM26.0453 22.4359C26.0565 22.4359 26.0672 22.4315 26.0751 22.4236C26.0831 22.4157 26.0875 22.4049 26.0875 22.3938C26.0875 22.3826 26.0831 22.3718 26.0751 22.3639C26.0672 22.356 26.0565 22.3516 26.0453 22.3516C26.0395 22.3514 26.0337 22.3526 26.0284 22.355C26.0231 22.3574 26.0185 22.3611 26.0148 22.3656C26.0112 22.3702 26.0087 22.3755 26.0074 22.3812C26.0062 22.3869 26.0064 22.3928 26.0078 22.3984C26.0078 22.4172 26.0266 22.4359 26.0453 22.4359Z" fill="white"/>
<path d="M26.1078 22.6297C26.1285 22.6297 26.1453 22.6129 26.1453 22.5922C26.1453 22.5715 26.1285 22.5547 26.1078 22.5547C26.0871 22.5547 26.0703 22.5715 26.0703 22.5922C26.0703 22.6129 26.0871 22.6297 26.1078 22.6297Z" fill="white"/>
<path d="M26.1078 21.5438C26.1285 21.5438 26.1453 21.527 26.1453 21.5062C26.1453 21.4855 26.1285 21.4688 26.1078 21.4688C26.0871 21.4688 26.0703 21.4855 26.0703 21.5062C26.0703 21.527 26.0871 21.5438 26.1078 21.5438Z" fill="white"/>
<path d="M29.2906 20.1108L29.1969 20.1014L29.1688 20.1483H29.1219V20.2233H29.1688L29.1781 20.2795L29.1406 20.317L29.1219 20.3639L29.0469 20.3826L28.8781 20.542V20.617L28.8219 20.6826L28.7656 20.8326H28.5781L28.5312 21.0108L28.5594 21.1514L28.7281 21.217L28.7469 21.1233L28.8031 21.0951L28.8125 21.0014L28.85 20.9358L28.9062 20.8701L28.925 20.7951L29.0188 20.7389L29.1313 20.7108L29.1781 20.6545L29.1969 20.542V20.4576L29.2438 20.4014L29.3563 20.3545V20.167H29.3L29.2906 20.1108ZM29.5531 20.7576V20.617L29.5344 20.4951L29.3938 20.4295L29.3 20.5233L29.2719 20.6545V20.7483L29.1781 20.767L29.1594 21.0201L29.0844 21.0483L29.0938 21.142L29 21.1701L28.8875 21.1983L28.8688 21.3201L28.7938 21.367L28.7563 21.4889L28.7094 21.7608C28.7094 21.7608 28.8031 21.9201 28.8406 21.8451C28.8875 21.7701 28.9625 21.7514 28.9625 21.7514L28.9906 21.6951H29.2438C29.2625 21.6014 29.3844 21.6389 29.3844 21.6858C29.3844 21.7326 29.4781 21.6858 29.4781 21.6858L29.5438 21.592H29.6469L29.6562 21.4701L29.7031 21.442V21.2826C29.8531 21.2358 29.8344 21.0951 29.8344 21.0951L29.8719 21.0483L29.8531 20.9826C29.7781 20.9545 29.8156 20.8889 29.8625 20.9076C29.9094 20.9264 29.7969 20.8139 29.7969 20.8139C29.7406 20.8701 29.7031 20.767 29.7031 20.767H29.5531V20.7576ZM29.7031 21.9014C29.7031 22.0139 29.5531 22.0514 29.5531 22.0514L29.4594 22.0233L29.3938 21.9764V21.8451L29.4688 21.8358L29.4875 21.892L29.7031 21.9014ZM30.2094 21.292C30.2281 21.3858 30.2281 21.1608 30.2656 21.1701C30.3031 21.1795 30.275 21.0389 30.275 21.0389L30.1063 21.1608C30.1906 21.1701 30.2 21.2545 30.2094 21.292V21.292ZM30.7063 20.8045C30.7438 20.8889 30.7344 21.0108 30.875 21.1045C30.9219 21.1326 30.8469 21.1983 30.8 21.1701C30.7293 21.0989 30.6665 21.0204 30.6125 20.9358V20.8139C30.65 20.7389 30.6875 20.767 30.7063 20.8045ZM30.7344 23.7108L30.7625 23.7576L30.8281 23.6639L30.7719 23.6358L30.7063 23.6826L30.7344 23.7108ZM30.4719 23.5326V23.6451ZM31.8219 23.4014L31.8969 23.3545L31.8688 23.2983L31.7938 23.3451L31.8219 23.4014ZM33.1813 25.5014L33.2656 25.5483V25.7076C33.3875 25.8201 33.7531 25.7264 33.7531 25.6983L33.7344 25.342L33.6875 25.2951L33.6781 25.0608C33.7156 24.9389 33.4906 24.7608 33.4813 24.7983C33.4625 24.8358 33.3406 24.7983 33.3406 24.8451C33.3406 24.8826 33.2656 25.0701 33.3031 25.1358C33.3406 25.2014 33.275 25.2014 33.2656 25.267C33.2562 25.3326 33.1625 25.4545 33.1719 25.5108L33.1813 25.5014ZM32.975 25.1264C32.9563 25.2014 32.8813 25.2389 32.8531 25.2201C32.8156 25.1826 32.9 25.2576 32.9188 25.2951C32.9375 25.3326 32.9938 25.3326 33.0125 25.2951C33.0313 25.2576 33.0125 25.1733 33.0406 25.1358C33.0594 25.0983 32.9844 25.0889 32.975 25.1358V25.1264ZM32.5344 23.3826H32.6V23.5701H32.5344V23.3826ZM33.5094 21.5639C33.4625 21.5076 33.6969 21.4045 33.7344 21.5264C33.7719 21.6389 33.7344 21.6201 33.6969 21.6108C33.6594 21.6014 33.5656 21.6389 33.5094 21.5639ZM33.7063 20.2889V20.3451L33.8 20.3639L33.8094 20.3076L33.7063 20.2889ZM33.2844 20.4389L33.3594 20.4858H33.3875L33.4438 20.4483V20.467L33.5 20.4483L33.4813 20.4014V20.3733L33.4438 20.3826L33.3781 20.4295L33.3125 20.3826L33.2844 20.4389ZM35.1594 18.0014H35.0188C35.0188 18.0014 35.0656 18.0201 34.925 17.8983C34.8031 17.7764 34.7188 17.9264 34.7188 17.9264L34.5688 17.9451V18.0951L34.4938 18.1233V18.217H34.6063C34.6063 18.217 34.6063 18.3201 34.6344 18.2733C34.6625 18.2264 34.8969 18.2826 34.8781 18.4045C34.8688 18.4514 35.1125 18.5733 35.0844 18.7233C35.2063 18.742 35.1781 18.8639 35.1781 18.8639L35.3375 18.8826L35.3844 18.7889L35.4313 18.7983V18.742L35.3281 18.7139L35.3094 18.4045L35.2438 18.3576L35.2625 18.2826L35.1875 18.2545L35.225 18.1326L35.1594 18.0014V18.0014ZM35.5625 18.967H35.4875L35.3188 18.9858L35.225 19.1733C35.225 19.1733 35.2719 19.2014 35.3188 19.267C35.3469 19.3326 35.3656 19.717 35.2531 19.7826C35.1406 19.8483 35.2625 19.8108 35.2625 19.8108L35.2438 20.0264C35.2719 20.1201 35.3188 20.0733 35.3469 20.0264C35.375 19.9795 35.4031 19.9701 35.4406 19.9233C35.4781 19.8764 35.5344 19.7826 35.5438 19.717C35.5531 19.6514 35.6 19.5483 35.5719 19.5201C35.5438 19.492 35.6 19.3608 35.6 19.3608C35.6 19.3608 35.6375 19.2858 35.6 19.2108C35.5625 19.1358 35.6094 19.042 35.6375 19.0045L35.5625 18.967V18.967ZM35.675 19.3608L35.6844 19.2858H35.7406V19.3608H35.675ZM35.675 19.6233L35.6281 19.5951L35.6562 19.5389L35.7031 19.567L35.675 19.6233ZM35.5906 18.8733L35.5531 18.7795C35.5531 18.7795 35.5531 18.7045 35.5719 18.667C35.5906 18.6295 35.5344 18.592 35.5063 18.5733C35.4781 18.5733 35.4875 18.4983 35.4781 18.4608C35.4781 18.4233 35.4031 18.3951 35.4031 18.3951L35.3844 18.217C35.3844 18.1889 35.3 18.1514 35.3281 18.1233L35.4031 18.0389C35.4313 18.0201 35.375 17.8889 35.4219 17.917C35.4688 17.9451 35.4688 17.992 35.4875 18.0295C35.5063 18.067 35.4875 18.1983 35.525 18.2264C35.5719 18.2545 35.525 18.3576 35.5906 18.3576C35.6656 18.3576 35.6188 18.5358 35.6188 18.5358C35.6188 18.5358 35.6 18.667 35.6469 18.6764C35.6938 18.6858 35.6656 18.9108 35.6656 18.9108L35.5906 18.8639V18.8733ZM34.9906 17.3264C35.0188 17.3639 35.075 17.392 35.075 17.4295C35.075 17.467 35.0563 17.4951 35.1125 17.5045C35.1688 17.5139 35.2063 17.5045 35.225 17.542C35.2438 17.5889 35.2438 17.6733 35.225 17.7108C35.225 17.7483 35.2438 17.8045 35.2906 17.8045C35.3375 17.8045 35.3469 17.8045 35.3469 17.842C35.3469 17.8701 35.4031 17.7389 35.4031 17.7389C35.3563 17.7014 35.3094 17.617 35.3094 17.617L35.2719 17.4576C35.2719 17.4389 35.2063 17.4201 35.1781 17.4108C35.15 17.4108 35.1031 17.317 35.1031 17.317L34.9906 17.3264V17.3264ZM35.0844 17.242C35.0563 17.2045 35.0281 17.1764 34.9906 17.1576C34.9531 17.1389 34.925 17.1201 34.8875 17.1201C34.8767 17.1196 34.8662 17.1165 34.8569 17.1109C34.8476 17.1054 34.8398 17.0976 34.8342 17.0883C34.8287 17.0791 34.8255 17.0686 34.825 17.0577C34.8244 17.0469 34.8266 17.0362 34.8313 17.0264C34.85 16.9889 34.8031 16.9701 34.8031 16.9326C34.8031 16.8951 34.8313 16.8951 34.8781 16.9233C34.925 16.9514 34.9156 16.9608 34.9531 17.0076C34.9906 17.0545 35.0094 17.1014 35.0469 17.092C35.0844 17.0826 35.1125 17.1764 35.1406 17.1483C35.1875 17.1201 35.1781 17.2139 35.1781 17.2139L35.0844 17.242V17.242ZM33.9875 18.3108C34.0344 18.367 33.7063 18.3483 33.7063 18.3108C33.7063 18.2733 33.7344 18.142 33.8188 18.1701C33.9031 18.1983 33.9125 18.0014 33.9125 18.0014C33.9125 18.0014 33.8375 18.0108 33.9031 17.9733C33.9688 17.9358 33.9031 17.8795 33.875 17.8514L33.8188 17.7764H33.95C34.0063 17.7389 34.025 17.5608 34.025 17.5608C34.1375 17.5983 34.1938 17.5139 34.1938 17.5139L34.25 17.6264C34.2875 17.6733 34.1562 17.692 34.2031 17.7201C34.25 17.7483 34.2688 17.8326 34.25 17.8608C34.2312 17.8889 34.1281 17.8608 34.1281 17.8326C34.1281 17.8045 34.0906 17.8795 34.1281 17.9264C34.1656 17.9733 34.0813 18.0389 34.0625 18.0389C34.0437 18.0389 33.9219 18.0576 34.025 18.1139C34.1188 18.1701 34.2406 18.142 34.2406 18.142C34.2406 18.142 34.325 18.142 34.3531 18.1795C34.3813 18.2264 34.3438 18.2358 34.2969 18.2358L34.0156 18.217C34.0156 18.217 33.9594 18.2826 33.9875 18.3108V18.3108ZM33.3875 18.4045C33.4344 18.3951 33.5469 18.3858 33.575 18.4045C33.5844 18.442 33.5 18.4795 33.5 18.4795L33.3875 18.4983C33.35 18.4514 33.3406 18.4045 33.3875 18.4045ZM34.5969 17.6076C34.6719 17.5701 34.8313 17.5701 34.8219 17.5139C34.8125 17.4483 34.9156 17.4295 34.9156 17.4295L34.9438 17.542L35.0281 17.6076V17.7014L34.9625 17.7201C34.8594 17.7483 34.925 17.7951 34.925 17.7951H34.6906L34.6625 17.7014L34.5875 17.6076H34.5969ZM34.2219 17.092C34.2875 17.092 34.2125 17.3076 34.3625 17.2889C34.5125 17.2701 34.3625 17.3545 34.4844 17.3639C34.5969 17.3733 34.5688 17.2795 34.6063 17.2139C34.6438 17.1483 34.625 17.1108 34.5594 17.092C34.4938 17.0733 34.4938 17.0733 34.4656 16.9983C34.4563 16.9233 34.3719 16.9045 34.3719 16.9045L34.3531 16.792L34.2313 16.867L34.1094 17.0264C34.1094 17.1483 34.175 17.092 34.2313 17.092H34.2219ZM34.475 17.8889L34.5031 17.8326L34.5594 17.8608L34.5312 17.917L34.475 17.8889ZM34.3813 17.7951H34.4375V17.8701H34.3813V17.7951ZM34.4281 16.5389V16.6233H34.3813L34.3719 16.5483L34.4281 16.5389ZM34.2688 17.4201H34.325V17.467H34.2688V17.4201ZM34.1188 17.4201V17.3639H34.2125V17.4108L34.1188 17.4201ZM33.35 18.3389L33.2938 18.3108L33.3219 18.2451L33.3781 18.2733L33.35 18.3389ZM33.05 18.1608V18.1045H33.1438V18.1514L33.05 18.1608ZM31.4281 18.142L31.2219 18.1514V18.2076H31.4375L31.4281 18.142ZM31.0906 18.2264L31.0719 18.142L31.1281 18.1326L31.1469 18.217L31.0906 18.2264ZM31.0531 18.2826L31.0344 18.2358L31.0625 18.2264L31.0813 18.2733L31.0531 18.2826ZM31.5219 18.1233L31.5125 18.1889L31.6063 18.1983C31.6063 18.1983 31.6531 18.2358 31.6531 18.2639C31.6531 18.292 31.7188 18.3201 31.7563 18.3201C31.7938 18.3201 31.8969 18.2451 31.8969 18.2451C31.8969 18.2451 31.9438 18.1139 31.9062 18.1233C31.8687 18.1326 31.7938 18.1889 31.7844 18.1326C31.7844 18.0764 31.6625 18.1045 31.6625 18.1045L31.5125 18.1233H31.5219ZM31.9906 18.0295C31.9906 18.0483 31.9625 18.0858 32.0188 18.0951C32.075 18.1045 32.1781 18.0576 32.1875 18.1139C32.1969 18.1701 32.1969 18.2076 32.2812 18.2358C32.3347 18.2586 32.3919 18.2713 32.45 18.2733L32.6375 18.2545C32.6375 18.2545 32.7594 18.2826 32.7875 18.3014C32.8906 18.4139 32.9562 18.442 32.9844 18.3951C33.0125 18.3483 32.9844 18.2358 32.9656 18.2076C32.9656 18.1608 32.825 17.9826 32.7781 18.0201C32.7313 18.0576 32.7219 18.0201 32.6375 18.0483C32.5531 18.0764 32.375 18.0576 32.3656 18.0201C32.3656 17.9826 32.225 17.9639 32.225 17.9264C32.225 17.8889 32.1312 17.8326 32.1406 17.8983C32.15 17.9545 32.075 17.9826 32.0563 17.9639C32.0375 17.9451 31.9813 18.0201 31.9813 18.0201L31.9906 18.0295ZM34.1375 16.8108L34.2031 16.5951C34.1094 16.5764 34.1281 16.4733 34.1281 16.4733C34.1188 16.3795 33.9875 16.2858 33.9406 16.3233C33.8938 16.3514 33.9125 16.1264 33.9125 16.1264C33.9125 16.1264 33.9969 16.0701 34.0344 16.0983C34.0719 16.1264 33.7156 15.6201 33.6406 15.667C33.5656 15.7139 33.3969 15.6201 33.4062 15.5358C33.4156 15.442 33.0688 15.1608 33.0688 15.1608C33.0688 15.1608 32.9563 15.0858 32.9375 15.142C32.9187 15.1983 32.8812 15.2358 32.9375 15.2733C32.9938 15.3014 32.9844 15.2264 33.05 15.292C33.1156 15.3576 33.2375 15.442 33.1906 15.4983C33.1438 15.5545 33.0969 15.5733 33.0969 15.5733L33.1531 15.6483H33.2563L33.275 15.8076C33.275 15.8076 33.3875 15.8639 33.4156 15.9295C33.4438 15.9951 33.4438 16.0326 33.4156 16.0795C33.3875 16.117 33.3313 16.1733 33.3406 16.2483C33.35 16.3139 33.4344 16.342 33.4344 16.342H33.5L33.5563 16.3795V16.5014C33.6313 16.4826 33.7531 16.5951 33.7438 16.6514C33.7438 16.717 33.7625 16.6795 33.8563 16.7451C33.95 16.8108 33.9219 16.8201 33.9875 16.8764C34.0531 16.9233 34.1094 16.8951 34.1375 16.8014V16.8108Z" fill="white"/>
<path d="M32.5781 15.5258C32.5781 15.4883 32.55 15.357 32.6062 15.3664C32.6625 15.3664 32.625 15.3664 32.7 15.3945C32.775 15.4227 32.7656 15.3477 32.7656 15.3477H32.8688L33 15.4414L32.9812 15.5352H32.8875C32.8406 15.4695 32.7469 15.4977 32.7656 15.5633C32.7844 15.6289 32.7188 15.7508 32.6813 15.7602C32.6438 15.7695 32.5219 15.7695 32.5312 15.7133L32.5781 15.5258V15.5258ZM32.5031 15.2727V15.1883C32.5031 15.1883 32.5031 15.1133 32.4469 15.1133C32.3906 15.1133 32.3156 15.057 32.3344 15.0195C32.3531 14.982 32.175 14.9445 32.175 14.9445C32.175 14.9445 32.0156 14.7945 32.0813 14.8133C32.1281 14.832 32.1 14.7477 32.1 14.7477C32.1 14.7477 31.9875 14.7664 31.9594 14.7477C31.9312 14.7477 31.9406 14.6539 31.9406 14.6539C31.9406 14.6539 31.8281 14.6352 31.8281 14.6539C31.8281 14.6727 31.8656 14.6914 31.8844 14.7477C31.9031 14.8039 31.8938 14.8977 31.9781 14.9164C32.0719 14.9352 32.0812 14.9539 32.0906 14.9914C32.1 15.0289 32.2031 15.0383 32.2031 15.0383L32.2781 15.0758L32.5031 15.2633V15.2727ZM31.5 14.2977L31.4719 14.2227L31.3969 14.2039V14.2977H31.5ZM31.4719 13.9039C31.3781 13.8289 31.6031 13.9602 31.6031 13.9602C31.6781 13.9602 31.725 14.0164 31.725 14.0445C31.725 14.0727 31.8187 14.0633 31.8187 14.0633L31.8281 13.9977L31.7531 13.9039L31.6875 13.857C31.6875 13.857 31.5938 13.8477 31.5938 13.8195C31.5938 13.7914 31.5 13.932 31.4625 13.9039H31.4719ZM33.1875 13.9602C33.1594 14.0445 33.15 14.157 33.1031 14.157C33.0563 14.157 33.075 14.2789 33.075 14.2789L33.2344 14.2883C33.2719 14.2977 33.2719 14.3914 33.2719 14.3914C33.4125 14.3914 33.4687 14.5789 33.4594 14.6258C33.4312 14.6727 33.5062 14.6727 33.5062 14.6727C33.5062 14.6727 33.5063 14.8227 33.4875 14.8602C33.4688 14.8977 33.6094 14.9258 33.6469 14.982C33.6844 15.0383 33.6281 15.2258 33.6 15.2352C33.5719 15.2539 33.675 15.282 33.6656 15.3289C33.6563 15.3758 33.6937 15.3289 33.7031 15.4039L33.7312 15.6383L33.8625 15.6477C33.8813 15.5258 34.125 15.5164 34.1625 15.5352C34.3219 15.5914 34.4437 15.8352 34.4437 15.8914C34.4437 15.9477 34.3406 15.957 34.3406 15.957L34.3594 16.2383C34.5188 16.2852 34.6406 16.5195 34.6312 16.5477C34.6125 16.5852 34.7438 16.5758 34.7438 16.5758C34.7625 16.407 34.9219 16.4633 34.9313 16.5195C34.9313 16.5758 34.9688 16.707 34.9688 16.707L35.0156 16.782L35.0813 16.8477H35.175L35.2125 16.9039L35.325 16.9227C35.325 16.9227 35.4281 17.0352 35.4375 17.0633C35.4469 17.0914 35.5875 17.082 35.625 17.0914C35.6625 17.0914 35.7188 17.1289 35.7281 17.1758C35.7375 17.2227 35.7937 17.2977 35.7937 17.2977C35.7937 17.2977 35.9063 17.3258 35.9156 17.3633L35.9719 17.4852L36.0656 17.5602L36.075 17.6539H36.1781L36.2063 17.7758L36.375 17.7664L36.4688 17.7008C36.5556 17.6579 36.6298 17.5933 36.6844 17.5133C36.6937 17.4664 36.7125 17.3258 36.8063 17.3539C36.9 17.382 36.8344 17.1477 36.8344 17.1477C36.8344 17.1477 36.7031 17.0539 36.7125 17.007C36.7219 16.9602 36.5812 16.8664 36.5906 16.8195C36.6 16.7914 36.4688 16.707 36.4781 16.6695C36.4875 16.632 36.4125 16.5289 36.4125 16.5289L36.2812 16.407L36.2625 16.3133H36.15L35.925 16.032L35.9344 15.957H35.8688V15.8445L35.8031 15.807H35.7094L35.4938 15.5727L35.475 15.4695H35.3812L35.4 15.2727C35.4656 15.1789 35.4281 15.0195 35.4281 15.0195C35.4281 15.0195 35.2969 15.0852 35.2312 15.057C35.1656 15.0289 35.2594 14.9633 35.2594 14.9633V14.8883L35.2031 14.832C35.2031 14.832 35.0438 14.8508 35.0344 14.8227L34.9969 14.6727L34.9875 14.5133L34.9219 14.4852L34.9125 14.4195L34.8094 14.4289V14.3164L34.7531 14.2977L34.6969 14.2695L34.6875 14.157L34.4812 14.1477L34.4156 14.0539L34.3406 13.9414L34.1062 13.9227L34.05 13.8664L33.9563 13.8477L33.8906 13.8195L33.8625 13.8664H33.675V13.932C33.5813 13.9789 33.2063 13.932 33.2063 13.9695L33.1875 13.9602ZM34.1719 13.707C34.1531 13.6414 34.3594 13.5664 34.4062 13.6227C34.4531 13.6789 34.5844 13.6883 34.5938 13.9789C34.6031 14.0727 34.4344 13.8758 34.4344 13.8758L34.2937 13.8289C34.2187 13.8102 34.1813 13.7633 34.1719 13.7164V13.707ZM31.425 13.8289L31.3781 13.8008L31.4156 13.7164L31.4625 13.7445L31.425 13.8289ZM30.9469 12.8914L30.825 12.7695V12.6758L30.7875 12.6289L30.75 12.4977L30.6281 12.4602L30.5062 12.507L30.375 12.5914L30.2344 12.6102L30.1594 12.7039L30.4594 12.7227L30.5156 12.8164L30.7312 12.8352L30.8719 12.9758C30.9937 13.0227 31.0219 12.957 30.9469 12.8914V12.8914ZM30.9281 12.4227C30.9094 12.3477 30.7875 12.5352 30.9094 12.5727C31.0313 12.6102 31.1531 12.5727 31.1531 12.5727L31.1813 12.5164L31.65 12.5258C31.6875 12.4883 31.7063 12.432 31.7063 12.432C31.7063 12.432 31.8187 12.3945 31.8656 12.4133C31.9125 12.432 31.8656 12.282 31.8281 12.3008C31.7812 12.3195 31.6875 12.3008 31.6875 12.3008H31.5188C31.5094 12.2445 31.3594 12.2727 31.35 12.3008C31.3406 12.3477 31.2844 12.357 31.2844 12.357L31.0687 12.3758C31.05 12.432 30.9375 12.4695 30.9281 12.432V12.4227ZM30 14.0352C30.1406 14.082 30.1969 14.0352 30.2063 14.007C30.2156 13.9695 30.225 13.9602 30.2812 13.9508C30.3375 13.9414 30.2719 13.8289 30.2156 13.8383C30.1594 13.8383 30.1031 13.8195 30.0938 13.7727C30.0844 13.7164 29.9906 13.5945 29.9812 13.6883C29.9719 13.782 29.9156 13.782 29.925 13.857C29.9344 13.9227 29.9625 14.0164 30 14.0352V14.0352ZM28.9219 14.1383C28.9219 14.1008 29.1094 14.1008 29.1375 14.1289C29.1656 14.157 29.1469 14.2039 29.2312 14.2039C29.3156 14.2039 29.2781 14.2602 29.2688 14.2977C29.2688 14.3164 29.175 14.307 29.1562 14.2789C29.1562 14.2508 29.0062 14.2414 29.0062 14.2414C29.0062 14.2414 28.9313 14.1852 28.9219 14.1383V14.1383ZM32.1094 12.1039L32.0344 12.1602L31.9875 12.1133L31.9406 12.1602L32.0062 12.2258L32.025 12.2445L32.0437 12.2258L32.1375 12.1508L32.1094 12.1039ZM31.5938 11.9352L31.5281 11.8977L31.5 11.9445L31.575 11.9914H31.6031L31.7063 11.9258L31.6781 11.8789L31.5938 11.9352ZM31.2844 13.8852H31.275L31.1813 13.8758V13.932H31.2562L31.3125 14.0258L31.3594 13.9977L31.2937 13.9039L31.2844 13.8852ZM28.1906 16.5289L28.2 16.632H28.3406C28.3969 16.632 28.2937 16.5664 28.2937 16.5664C28.2937 16.5664 28.1812 16.5758 28.2 16.5289H28.1906ZM28.3781 16.5289L28.4062 16.4914L28.4625 16.5383L28.425 16.5758L28.3781 16.5289ZM26.6719 14.757L26.7094 14.7195L26.7656 14.7758L26.7281 14.8133L26.6719 14.757ZM29.3906 26.9727L29.2969 26.9258L29.2688 26.9727L29.325 27.0008L29.3063 27.0195L29.3438 27.0664L29.3906 27.0195L29.4187 26.9914L29.3906 26.9727ZM28.6594 26.2883L28.6219 26.2414L28.5656 26.2883L28.5375 26.3164L28.575 26.3352L28.6406 26.382L28.6687 26.3352L28.6312 26.307L28.6594 26.2883ZM35.6156 24.4883C35.6062 24.4414 35.55 24.4227 35.5406 24.4133L35.5219 24.4695L35.5406 24.4789L35.55 24.5258L35.5406 24.5445L35.5781 24.582C35.6156 24.5539 35.625 24.5164 35.6156 24.4883V24.4883ZM35.7094 24.3008H35.6156V24.2164L35.7094 24.2352V24.3008ZM37.8656 23.5695C37.9125 23.5414 37.9594 23.4945 37.9594 23.607C37.95 23.7102 37.9031 23.6727 37.8656 23.7102C37.8375 23.7477 37.8094 23.607 37.8656 23.5695ZM38.3438 23.1664C38.3436 23.1633 38.3436 23.1602 38.3438 23.157C38.3426 23.134 38.3362 23.1116 38.325 23.0914L38.2781 23.1195L38.2875 23.157C38.2875 23.1758 38.2875 23.1945 38.3063 23.2039C38.3156 23.2133 38.325 23.2133 38.3438 23.2039L38.3344 23.157L38.3438 23.1664V23.1664ZM38.2219 23.2133L38.2594 23.3258L38.3063 23.307C38.2949 23.27 38.2855 23.2325 38.2781 23.1945L38.2219 23.2133V23.2133ZM38.0156 23.4383H37.9594C37.9594 23.4758 37.9594 23.532 38.0062 23.532L38.025 23.4852L38.0156 23.4383V23.4383ZM37.7719 22.3133C37.7707 22.3027 37.7665 22.2927 37.7599 22.2844C37.7533 22.2761 37.7444 22.2699 37.7344 22.2664C37.6969 22.2477 37.6313 22.2758 37.5938 22.3039L37.6219 22.3508C37.6594 22.3227 37.7062 22.3133 37.7156 22.3133L37.7719 22.3039V22.3133ZM35.175 19.2758C35.1375 19.3133 35.0531 19.332 35.0531 19.332L35.025 19.4258L34.9875 19.4727V19.5664C34.9875 19.632 34.8938 19.6695 34.8938 19.6695L34.8562 19.7164H34.6031C34.5094 19.6789 34.575 19.5664 34.6312 19.5758C34.6875 19.5852 34.6219 19.4164 34.6219 19.4164L34.6969 19.407C34.6969 19.407 34.6969 19.2383 34.7344 19.2383C34.7625 19.2383 34.725 19.182 34.6875 19.1445C34.65 19.1164 34.5938 19.0227 34.5656 19.032H34.3781L34.35 19.0883L34.2469 19.107L34.2375 19.2008C34.1813 19.2758 33.9563 19.4164 34.05 19.182L34.0875 19.1164V19.032H33.9187C33.9187 19.032 33.825 18.9945 33.825 18.957V18.8727L33.6281 18.657L33.3938 18.6289L33.375 18.582L33.2344 18.5633C33.0656 18.4695 32.9156 18.5539 32.9531 18.6945C32.9719 18.8352 33.0188 18.8914 32.925 18.8914C32.8313 18.8914 32.8125 18.8164 32.8125 18.8164C32.8125 18.8164 32.7375 18.7883 32.7375 18.8258C32.7375 18.8633 32.7094 18.9383 32.7375 18.9758C32.7656 19.0133 32.7 19.0695 32.6719 19.0414C32.6437 19.0133 32.5781 18.9289 32.5875 18.9008C32.6063 18.8727 32.4562 18.6945 32.6062 18.6664C32.7562 18.6383 32.6062 18.5539 32.6531 18.5352L32.7281 18.4977H32.8031L32.85 18.4602L32.7281 18.4414L32.6531 18.432L32.5125 18.4227C32.434 18.4697 32.3743 18.5426 32.3438 18.6289C32.2687 18.7695 32.0906 18.5727 32.1562 18.4977C32.2219 18.4227 31.95 18.4883 31.9031 18.5258C31.8562 18.5633 31.7156 18.5445 31.7156 18.5445C31.6875 18.6289 31.5562 18.5352 31.5938 18.4789C31.6313 18.4227 31.6312 18.3852 31.6312 18.3852L31.5844 18.3664L31.5281 18.4789C31.4062 18.4789 31.3687 18.5539 31.3875 18.6008C31.4156 18.6477 31.35 18.5914 31.3313 18.657C31.3219 18.7227 31.35 18.7227 31.3969 18.7508C31.4531 18.7789 31.3687 18.7789 31.4062 18.8258C31.4438 18.8727 31.5563 18.8258 31.5 18.8914C31.425 18.957 31.3031 18.9289 31.3031 18.9289C31.2937 19.0227 31.1156 18.9945 31.0969 18.9664L30.9375 18.7695L30.75 18.7602C30.7406 18.6289 30.8437 18.6945 30.8812 18.5914C30.9187 18.4883 30.9375 18.3102 30.9375 18.3102C30.9375 18.3102 30.7875 18.3102 30.7781 18.3477C30.7687 18.3945 30.675 18.432 30.675 18.432C30.675 18.432 30.6 18.4602 30.6281 18.4977C30.6563 18.5352 30.5719 18.5539 30.5719 18.5539C30.5719 18.5539 30.5813 18.6102 30.5625 18.6383C30.4875 18.7133 30.3 18.6383 30.2719 18.6195L30.1594 18.5727L30.0469 18.4977L29.9156 18.5539L29.8781 18.5914H29.7375L29.7281 18.7039L29.9812 18.732L30 18.9664L29.8969 18.9289H29.8313L29.8031 18.8727H29.7469V19.0695L29.8031 19.1164L29.85 19.1633L29.9437 19.1727L29.9625 19.2945H30.1969L30.225 19.3508H30.3656L30.6375 19.632L30.6188 19.7258L30.5719 19.7445C30.5906 19.8102 30.45 19.7727 30.45 19.7727V19.8289L30.5156 19.8383L30.5813 19.8758L30.675 19.7164C30.7688 19.6508 30.825 19.7445 30.8344 19.8102C30.8344 19.857 30.7875 19.8477 30.7875 19.8477V19.9883L30.8438 20.007C30.9375 20.1195 30.8063 20.1852 30.8063 20.1852L30.7781 20.2789C30.75 20.3633 30.6469 20.3445 30.6469 20.3445L30.6094 20.4008L30.4969 20.4289L30.7219 20.457C30.7406 20.382 30.7969 20.3633 30.8156 20.4008C30.8531 20.4383 30.8531 20.5039 30.8531 20.5039L30.9094 20.5133L30.9 20.6164L30.9563 20.6352V20.9445L31.0219 21.0195C31.1344 20.9727 31.1344 21.0477 31.0781 21.0852C31.0219 21.1227 31.0594 21.2914 31.0594 21.2914L31.0125 21.3383V21.4133L30.9563 21.4508V21.5633C30.8625 21.5164 30.75 21.5352 30.7219 21.5633C30.6281 21.507 30.4594 21.5258 30.4594 21.5633C30.5156 21.6477 30.3938 21.657 30.3938 21.657L30.3281 21.7414C30.375 21.8352 30.2812 21.8445 30.2812 21.8445V22.032L30.1687 22.1258V22.3789C30.1687 22.4445 30.3188 22.4539 30.3469 22.4164C30.375 22.3789 30.4875 22.4914 30.4875 22.4914H30.5719L30.5906 22.3227L30.5344 22.2945V22.0133L30.6281 21.9195C30.7406 21.8727 30.7031 22.1539 30.7031 22.182C30.7031 22.2945 30.7594 22.2758 30.7969 22.257C30.8906 22.2195 30.825 22.3695 30.75 22.3508C30.675 22.3508 30.7219 22.4445 30.7219 22.4445L30.7688 22.4727L30.675 22.5383L30.6094 22.6227L30.5156 22.5945L30.4031 22.5852L30.3656 22.5195L30.3 22.5102L30.2906 22.6414L30.2438 22.6977L30.1312 22.8102C30.2812 22.8102 30.1125 22.9133 30.075 22.9133C30.1594 22.9414 30.0656 23.0258 29.85 22.9602V23.0258L29.775 23.0352L29.8406 23.1195H29.9156L29.8875 23.2883C29.8875 23.4102 29.5781 23.3258 29.55 23.2883V23.4758H29.4844L29.4938 23.5883V23.7477L29.5875 23.7289V23.7945L29.8406 23.8039L30.2063 23.4195L30.4219 23.3727C30.4406 23.2789 30.5344 23.3914 30.5344 23.3914C30.6281 23.382 30.6469 23.4477 30.6469 23.4477L30.7688 23.4664C30.8625 23.4945 30.8063 23.5039 30.8156 23.5414C30.8156 23.5977 30.8719 23.5789 30.8719 23.5789L30.8906 23.457L30.9469 23.4664L30.8906 23.4008L30.7875 23.3539L30.675 23.307C30.6 23.2039 30.6938 23.2133 30.7688 23.232H30.8906C30.8906 23.232 31.0312 23.4195 31.0312 23.4664C31.0312 23.5133 31.0969 23.5227 31.0969 23.5227H31.1813L31.2094 23.5789H31.2937L31.3219 23.6352H31.4906V23.5508L31.3406 23.5227L31.3313 23.4289L31.2188 23.4008C31.1812 23.2414 31.2469 23.1945 31.2937 23.2695H31.35L31.3313 23.1383L31.3969 23.1195L31.3781 22.9133L31.3219 22.8945V22.8289L31.5563 22.8383C31.5375 22.7164 31.5563 22.6602 31.5563 22.6602H31.6312V22.707L31.9219 22.7352L32.1281 22.5008C32.1188 22.482 32.1469 22.4727 32.1281 22.4539C32.0906 22.4258 32.0531 22.4539 32.0062 22.4258C31.9594 22.3977 32.0062 22.2383 32.0062 22.1914C31.9875 22.1539 32.1563 22.0977 32.1281 22.1914C32.1 22.2664 32.1281 22.3133 32.1281 22.3133C32.25 22.1914 32.3531 22.3133 32.3438 22.3508C32.3438 22.3789 32.4094 22.407 32.4563 22.3789C32.5031 22.3508 32.5594 22.4633 32.55 22.5195C32.5219 22.5758 32.3625 22.5664 32.3438 22.5102C32.3438 22.4539 32.3062 22.4727 32.2875 22.5008C32.2687 22.5289 32.1937 22.5477 32.1375 22.5195C32.133 22.5141 32.1298 22.5077 32.1281 22.5008L31.9219 22.7352H31.9313C32.0438 22.8008 31.9875 22.8852 31.95 22.9039C31.9125 22.9227 31.8562 22.9227 31.8562 22.9227L31.8281 22.9602L31.5844 22.9789L31.5656 23.0727C31.4531 23.0633 31.4062 23.1945 31.4344 23.2602C31.4625 23.3258 31.4344 23.382 31.4344 23.382L31.5281 23.4289L31.6687 23.3914C31.6875 23.2977 31.7625 23.2789 31.8375 23.2227C31.9125 23.1664 32.0344 23.3164 31.9969 23.4008C31.9594 23.4758 31.9594 23.5039 31.9594 23.5039L31.9688 23.5977L31.875 23.6258L31.8 23.6633V23.7102H31.5375L31.5 23.757L31.3781 23.7664L31.3406 23.832H31.2469C31.2469 23.832 31.1156 23.907 31.1719 23.982C31.2281 24.057 30.9375 24.0477 30.8719 23.9445C30.8531 24.0383 30.75 23.9445 30.75 23.9445L30.6469 23.9258L30.6375 23.7852C30.6187 23.6914 30.4406 23.6914 30.45 23.757C30.45 23.8227 30.1125 23.7852 30.1125 23.7852L30 23.832L29.8969 23.8977L29.8875 23.9445L29.7188 23.9633L29.6438 24.0008L29.6156 23.9445H29.5406L29.4656 24.0383C29.2781 24.057 29.0906 24.1695 29.1 24.2258C29.1187 24.2633 29.025 24.3195 29.025 24.3195L28.9406 24.3383L28.8844 24.432L28.7719 24.4602L28.7531 24.6664L28.6969 24.7039V24.7883L28.6312 24.807V24.8539H28.5375L28.5938 25.0039L28.6687 25.0414C28.8 25.0602 28.7438 25.2289 28.7438 25.2289H28.8187L28.8562 25.332L28.9313 25.4914C28.9594 25.6039 29.0438 25.5758 29.0813 25.5664C29.1188 25.557 29.1562 25.6789 29.1562 25.6789L29.5312 25.6883C29.5312 25.6883 29.5125 25.7258 29.5781 25.7445C29.6437 25.7633 30.075 25.782 30.0938 25.7539C30.075 25.6695 30.3281 25.6508 30.4313 25.7258C30.525 25.8008 30.675 25.7539 30.675 25.7539L30.8156 25.9227L30.9094 26.1383L31.0687 26.1852L31.1813 26.2133L31.2188 26.3727H31.3031L31.3313 26.4852C31.425 26.5602 31.3031 26.7195 31.3031 26.7195V26.9352L31.3781 26.9727L31.3688 27.0477L31.4906 27.1695H31.6312L31.9781 27.5539L32.2594 27.6477L32.3063 27.7977L32.3812 27.7883L32.4375 27.7414L32.6625 27.732L32.775 27.6195L32.8969 27.6008L33.9281 26.7195L33.8344 26.6633V26.457C34.0125 26.3352 34.0219 26.1102 33.8625 26.0914C33.7406 26.082 33.7969 25.9508 33.9094 25.932L33.975 25.9039V25.8195L34.1906 25.6227V25.4727L33.7219 25.0789C33.5156 25.0039 33.7219 24.5445 33.8625 24.5539C34.0031 24.5633 33.8531 23.8602 33.8531 23.8602L33.7781 23.8227L33.7969 23.5883H33.6937L33.525 23.8133L33.4781 23.9633C33.4594 24.1602 32.8781 24.1227 32.85 24.0945C32.8219 24.0664 32.625 23.982 32.625 23.982C32.625 23.982 32.475 23.8602 32.4469 23.8883C32.4188 23.9352 32.2875 23.8508 32.2875 23.8789C32.2875 23.907 32.1656 23.8039 32.1656 23.8039L31.9781 23.7383L32.1188 23.7102L32.0906 23.5977L32.3344 23.7195C32.3625 23.757 32.4844 23.7477 32.4844 23.7477L32.5219 23.7945C32.5219 23.7945 32.5969 23.7945 32.6438 23.8414C32.6906 23.907 32.9344 23.8602 32.9344 23.8602L33 23.9164L33.1031 23.9539H33.3938L33.4031 23.7758L33.4594 23.7195V23.607L33.5156 23.5508V23.457L33.5719 23.4383L33.5813 23.232L33.6281 23.2227V22.7633L33.4875 22.632C33.4781 22.6789 33.3281 22.6789 33.3281 22.6789C33.3281 22.6789 33.2906 22.7445 33.2625 22.7445C33.2344 22.7445 33.3 22.8383 33.2812 22.8852C33.2625 22.9414 33.1875 22.9414 33.1875 22.9414L33.0469 22.9789L33.0094 23.0258H32.8594L32.8406 22.9039L33.0094 22.857L33.1031 22.8102L33.15 22.7164C33.1594 22.6227 33.2719 22.632 33.2719 22.632C33.2719 22.632 33.4875 22.4445 33.4969 22.3695C33.5062 22.2758 33.5813 22.0414 33.7125 22.0414H33.9563C34.05 22.0039 34.0219 21.882 34.0219 21.882L34.1438 21.8633L34.1625 21.9289C34.1625 21.9289 34.3312 21.9477 34.35 21.9289C34.3687 21.8914 34.4062 21.8352 34.4437 21.8539C34.5 21.882 34.65 21.7883 34.65 21.7883C34.65 21.7227 34.8938 21.7508 34.8938 21.7508L34.9219 21.657C34.9219 21.657 34.7625 21.4414 34.7344 21.4414C34.7062 21.4414 34.5469 21.3102 34.5375 21.357C34.3875 21.3195 34.3969 21.1133 34.3969 21.1133L34.3406 20.982C34.3406 20.907 34.2 20.7477 34.1719 20.7664C34.1505 20.7541 34.1327 20.7363 34.1203 20.7149C34.1079 20.6935 34.1014 20.6692 34.1014 20.6445C34.1014 20.6198 34.1079 20.5955 34.1203 20.5741C34.1327 20.5527 34.1505 20.535 34.1719 20.5227C34.2094 20.5227 34.3031 20.382 34.3031 20.382L34.35 20.2508L34.5094 20.2039L34.5281 20.082L34.4344 20.0727C34.4344 20.0727 34.5281 19.8945 34.5844 19.8945C34.6406 19.8945 34.9406 19.8945 34.9594 19.8758C34.9969 19.857 35.0531 19.707 35.0531 19.6883C35.0531 19.6508 35.1281 19.6414 35.1469 19.632C35.1844 19.632 35.2406 19.5477 35.2688 19.5102C35.2875 19.4727 35.2219 19.2289 35.175 19.2758V19.2758Z" fill="white"/>
<path d="M30 22.6893C30.0094 22.6893 30.0281 22.7362 30.0563 22.7268C30.0844 22.7268 30.1031 22.7831 30.0656 22.7831C30.0469 22.7831 30.0469 22.8112 30.0469 22.8299C30.0469 22.8393 30.0469 22.8768 30.0188 22.9049C30 22.9237 29.9812 22.9049 29.9531 22.8956C29.925 22.8768 29.9063 22.8768 29.8688 22.8768C29.8406 22.8768 29.8688 22.9331 29.8688 22.9331C29.8688 22.9331 29.7187 22.9331 29.7469 22.9049C29.775 22.8862 29.8031 22.8768 29.7844 22.8674C29.7656 22.8487 29.7844 22.8393 29.7844 22.8112C29.7844 22.7831 29.85 22.7924 29.8313 22.7737C29.8125 22.7549 29.8313 22.6706 29.8688 22.7174L29.8875 22.6706C29.8687 22.6424 29.8875 22.6424 29.8406 22.6237C29.7937 22.6049 29.8313 22.5299 29.8313 22.5299V22.4643C29.85 22.3987 29.9906 22.3893 30 22.4549V22.5581L30.0469 22.5768C30.0469 22.5768 30.0375 22.6143 30 22.6143C29.9625 22.6143 30 22.6331 29.9812 22.6612L30 22.6987V22.6893ZM29.5312 22.7643C29.5594 22.7268 29.6062 22.5393 29.6625 22.5956C29.7187 22.6518 29.7562 22.5956 29.7562 22.5956C29.7562 22.5956 29.7844 22.6237 29.7656 22.6893C29.7562 22.7362 29.7375 22.7924 29.7094 22.8018C29.6719 22.8018 29.6438 22.8299 29.5969 22.8393C29.5594 22.8393 29.5406 22.7643 29.5406 22.7643H29.5312Z" fill="white"/>
</g>
<defs>
<clipPath id="clip0_4046_27084">
<rect width="60" height="45" fill="white"/>
</clipPath>
</defs>
</svg>
