<svg width="60" height="45" viewBox="0 0 60 45" fill="none" xmlns="http://www.w3.org/2000/svg">
<g clip-path="url(#clip0_4046_27097)">
<path fill-rule="evenodd" clip-rule="evenodd" d="M0 0H85.5V3.46875H0V0ZM0 6.92813H85.5V10.3969H0V6.92813ZM0 13.8469H85.5V17.3156H0V13.8469ZM0 20.7656H85.5V24.2344H0V20.7656ZM0 27.7031H85.5V31.1531H0V27.7031ZM0 34.6125H85.5V38.0813H0V34.6125ZM0 41.5312H85.5V45H0V41.5312Z" fill="#BD3D44"/>
<path fill-rule="evenodd" clip-rule="evenodd" d="M0 3.46875H85.5V6.92813H0V3.46875ZM0 10.3875H85.5V13.8469H0V10.3875ZM0 17.3063H85.5V20.775H0V17.3063ZM0 24.2344H85.5V27.7031H0V24.2344ZM0 31.1531H85.5V34.6219H0V31.1531ZM0 38.0719H85.5V41.5406H0V38.0719Z" fill="white"/>
<path fill-rule="evenodd" clip-rule="evenodd" d="M0 0H34.2V24.2344H0V0Z" fill="#192F5D"/>
<path fill-rule="evenodd" clip-rule="evenodd" d="M2.85313 1.03125L3.17188 1.99688H4.16563L3.35938 2.5875L3.66875 3.55313L2.85313 2.95313L2.04688 3.54375L2.34688 2.5875L1.53125 1.99688H2.55313L2.85313 1.03125ZM8.55312 1.03125L8.8625 1.99688H9.875L9.05938 2.5875L9.35938 3.55313L8.55312 2.95313L7.7375 3.54375L8.04688 2.5875L7.24062 1.99688H8.23438L8.55312 1.03125ZM14.2531 1.03125L14.5625 1.99688H15.5656L14.7594 2.5875L15.0687 3.55313L14.2531 2.95313L13.4375 3.54375L13.7469 2.5875L12.9312 1.99688H13.9437L14.2531 1.03125ZM19.9531 1.03125L20.2625 1.99688H21.275L20.4594 2.5875L20.7687 3.55313L19.9531 2.95313L19.1375 3.54375L19.4562 2.5875L18.6312 1.99688H19.6344L19.9531 1.03125ZM25.6531 1.03125L25.9625 1.99688H26.9656L26.1594 2.5875L26.4688 3.55313L25.6531 2.95313L24.8375 3.54375L25.1469 2.5875L24.3406 1.99688H25.3437L25.6531 1.03125ZM31.3531 1.03125L31.6625 1.99688H32.675L31.85 2.5875L32.1688 3.55313L31.3531 2.95313L30.5375 3.54375L30.8563 2.5875L30.0312 1.99688H31.0438L31.3531 1.03125ZM5.70312 3.46875L6.0125 4.425H7.03438L6.21875 5.00625L6.51875 5.97188L5.72188 5.38125L4.90625 5.97188L5.19688 5.00625L4.40938 4.425H5.4125L5.70312 3.46875ZM11.4031 3.46875L11.7219 4.425H12.725L11.9 5.00625L12.2188 5.97188L11.4031 5.38125L10.5875 5.97188L10.8969 5.00625L10.0812 4.425H11.0938L11.4031 3.46875ZM17.1031 3.46875L17.4125 4.425H18.425L17.6094 5.00625L17.9188 5.97188L17.1031 5.38125L16.2875 5.97188L16.5969 5.00625L15.7906 4.425H16.7844L17.1031 3.46875ZM22.8031 3.46875L23.1219 4.425H24.125L23.3 5.00625L23.6187 5.97188L22.8031 5.38125L21.9969 5.97188L22.2969 5.00625L21.4813 4.425H22.5031L22.8031 3.46875ZM28.5031 3.46875L28.8125 4.425H29.825L29.0094 5.00625L29.3188 5.97188L28.5031 5.38125L27.6875 5.97188L27.9969 5.00625L27.1906 4.425H28.1938L28.5031 3.46875ZM2.85313 5.86875L3.17188 6.84375H4.16563L3.35938 7.43438L3.66875 8.39063L2.85313 7.8L2.04688 8.39063L2.34688 7.43438L1.53125 6.84375H2.55313L2.85313 5.86875ZM8.55312 5.86875L8.8625 6.84375H9.875L9.05938 7.43438L9.35938 8.39063L8.55312 7.8L7.7375 8.39063L8.04688 7.425L7.24062 6.83438H8.23438L8.55312 5.86875ZM14.2531 5.86875L14.5625 6.83438H15.5656L14.7594 7.425L15.0687 8.38125L14.2531 7.79063L13.4375 8.38125L13.7469 7.41563L12.9312 6.825H13.9437L14.2531 5.86875ZM19.9531 5.86875L20.2625 6.83438H21.275L20.4594 7.425L20.7687 8.38125L19.9531 7.79063L19.1375 8.38125L19.4562 7.41563L18.6312 6.825H19.6344L19.9531 5.86875ZM25.6531 5.86875L25.9625 6.83438H26.9656L26.1594 7.425L26.4688 8.38125L25.6531 7.79063L24.8375 8.38125L25.1469 7.41563L24.3406 6.825H25.3437L25.6531 5.86875ZM31.3531 5.86875L31.6625 6.83438H32.675L31.85 7.425L32.1688 8.38125L31.3531 7.79063L30.5375 8.38125L30.8563 7.41563L30.0312 6.825H31.0438L31.3531 5.86875ZM5.70312 8.30625L6.0125 9.2625H7.03438L6.21875 9.85313L6.52812 10.8188L5.7125 10.2188L4.89688 10.8094L5.20625 9.85313L4.4 9.2625H5.40312L5.70312 8.30625ZM11.4031 8.30625L11.7219 9.2625H12.725L11.9 9.85313L12.2188 10.8188L11.4031 10.2188L10.5875 10.8094L10.8969 9.85313L10.0812 9.2625H11.0938L11.4031 8.30625ZM17.1031 8.30625L17.4125 9.2625H18.425L17.6094 9.85313L17.9188 10.8188L17.1031 10.2188L16.2875 10.8094L16.5969 9.85313L15.7906 9.2625H16.7844L17.1031 8.30625ZM22.8031 8.30625L23.1219 9.2625H24.125L23.3094 9.85313L23.6187 10.8188L22.8031 10.2188L21.9969 10.8094L22.2969 9.85313L21.4813 9.2625H22.5031L22.8031 8.30625ZM28.5031 8.30625L28.8125 9.2625H29.825L29.0094 9.85313L29.3188 10.8188L28.5031 10.2188L27.6875 10.8094L27.9969 9.85313L27.1906 9.2625H28.1938L28.5031 8.30625ZM2.85313 10.7344L3.17188 11.6906H4.16563L3.35938 12.2813L3.66875 13.2469L2.85313 12.6469L2.04688 13.2375L2.34688 12.2813L1.53125 11.6906H2.55313L2.85313 10.7344ZM8.55312 10.7344L8.8625 11.6906H9.875L9.05938 12.2813L9.35938 13.2375L8.55312 12.6469L7.7375 13.2375L8.04688 12.2813L7.24062 11.6906H8.23438L8.55312 10.7344ZM14.2531 10.7344L14.5625 11.6906H15.5656L14.7594 12.2813L15.0687 13.2469L14.2531 12.6469L13.4375 13.2375L13.7469 12.2813L12.9312 11.6906H13.9437L14.2531 10.7344ZM19.9531 10.7344L20.2625 11.6906H21.275L20.4594 12.2813L20.7687 13.2469L19.9531 12.6469L19.1375 13.2375L19.4562 12.2813L18.6312 11.6906H19.6344L19.9531 10.7344ZM25.6531 10.7344L25.9625 11.6906H26.9656L26.1594 12.2813L26.4688 13.2469L25.6531 12.6469L24.8375 13.2375L25.1469 12.2813L24.3406 11.6906H25.3437L25.6531 10.7344ZM31.3531 10.7344L31.6625 11.6906H32.675L31.85 12.2813L32.1688 13.2469L31.3531 12.6469L30.5375 13.2375L30.8469 12.2813L30.0219 11.6906H31.0344L31.3531 10.7344ZM5.70312 13.1531L6.0125 14.1188H7.03438L6.21875 14.7L6.52812 15.6656L5.7125 15.0656L4.89688 15.6656L5.20625 14.7L4.4 14.1094H5.40312L5.70312 13.1531ZM11.4031 13.1531L11.7219 14.1188H12.725L11.9 14.7L12.2188 15.6656L11.4031 15.0656L10.5875 15.6656L10.8969 14.7L10.0812 14.1094H11.0938L11.4031 13.1531ZM17.1031 13.1531L17.4125 14.1188H18.425L17.6094 14.7L17.9188 15.6656L17.1031 15.0656L16.2875 15.6656L16.5969 14.7L15.7906 14.1094H16.7844L17.1031 13.1531ZM22.8031 13.1531L23.1219 14.1188H24.125L23.3094 14.7L23.6187 15.6656L22.8031 15.0656L21.9969 15.6656L22.2969 14.7L21.4813 14.1094H22.5031L22.8031 13.1531ZM28.5031 13.1531L28.8125 14.1188H29.825L29.0094 14.7L29.3188 15.6656L28.5031 15.0656L27.6875 15.6656L27.9969 14.7L27.1906 14.1094H28.1938L28.5031 13.1531ZM2.85313 15.5719L3.17188 16.5375H4.16563L3.35938 17.1281L3.66875 18.075L2.85313 17.4938L2.04688 18.075L2.34688 17.1188L1.53125 16.5281H2.55313L2.85313 15.5719ZM8.55312 15.5719L8.8625 16.5375H9.875L9.05938 17.1281L9.36875 18.075L8.55312 17.4938L7.7375 18.075L8.05625 17.1188L7.24062 16.5281H8.23438L8.55312 15.5719ZM14.2531 15.5719L14.5625 16.5375H15.5656L14.7594 17.1281L15.0687 18.075L14.2531 17.4938L13.4375 18.075L13.7469 17.1188L12.9312 16.5281H13.9437L14.2531 15.5719ZM19.9531 15.5719L20.2625 16.5375H21.275L20.4594 17.1281L20.7687 18.075L19.9531 17.4938L19.1375 18.075L19.4562 17.1188L18.6312 16.5281H19.6344L19.9531 15.5719ZM25.6531 15.5719L25.9625 16.5375H26.9656L26.1594 17.1281L26.4688 18.075L25.6531 17.4938L24.8375 18.075L25.1469 17.1188L24.3406 16.5281H25.3437L25.6531 15.5719ZM31.3531 15.5719L31.6625 16.5375H32.675L31.85 17.1281L32.1688 18.075L31.3531 17.4938L30.5375 18.075L30.8563 17.1188L30.0312 16.5281H31.0438L31.3531 15.5719ZM5.70312 18L6.0125 18.9563H7.03438L6.21875 19.5469L6.52812 20.5125L5.7125 19.9125L4.89688 20.5031L5.20625 19.5469L4.4 18.9563H5.40312L5.70312 18ZM11.4031 18L11.7219 18.9563H12.725L11.9 19.5469L12.2188 20.5125L11.4031 19.9125L10.5875 20.5031L10.8969 19.5469L10.0812 18.9563H11.0938L11.4031 18ZM17.1031 18L17.4125 18.9563H18.425L17.6094 19.5469L17.9188 20.5125L17.1031 19.9125L16.2875 20.5031L16.5969 19.5469L15.7906 18.9563H16.7844L17.1031 18ZM22.8031 18L23.1219 18.9563H24.125L23.3094 19.5469L23.6187 20.5125L22.8031 19.9125L21.9969 20.5031L22.2969 19.5469L21.4813 18.9563H22.5031L22.8031 18ZM28.5031 18L28.8125 18.9563H29.825L29.0094 19.5469L29.3188 20.5125L28.5031 19.9125L27.6875 20.5031L27.9969 19.5469L27.1906 18.9563H28.1938L28.5031 18ZM2.85313 20.4281L3.17188 21.3844H4.16563L3.35938 21.975L3.66875 22.9313L2.85313 22.3406L2.04688 22.9313L2.34688 21.9656L1.53125 21.375H2.55313L2.85313 20.4281ZM8.55312 20.4281L8.8625 21.3844H9.875L9.05938 21.975L9.36875 22.9313L8.55312 22.3406L7.7375 22.9313L8.05625 21.9656L7.24062 21.375H8.23438L8.55312 20.4281ZM14.2531 20.4281L14.5625 21.3844H15.5656L14.7781 21.975L15.0875 22.9313L14.2719 22.3406L13.4562 22.9313L13.7656 21.9656L12.95 21.375H13.9625L14.2531 20.4281ZM19.9531 20.4281L20.2625 21.3844H21.275L20.4594 21.975L20.7687 22.9313L19.9531 22.3406L19.1375 22.9313L19.4562 21.9656L18.6312 21.375H19.6344L19.9531 20.4281ZM25.6531 20.4281L25.9625 21.3844H26.9656L26.1594 21.975L26.4688 22.9313L25.6531 22.3406L24.8375 22.9313L25.1469 21.9656L24.3406 21.375H25.3437L25.6531 20.4281ZM31.3531 20.4281L31.6625 21.3844H32.675L31.85 21.975L32.1688 22.9313L31.3531 22.3406L30.5375 22.9313L30.8563 21.9656L30.0312 21.375H31.0438L31.3531 20.4281Z" fill="white"/>
</g>
<defs>
<clipPath id="clip0_4046_27097">
<rect width="60" height="45" fill="white"/>
</clipPath>
</defs>
</svg>
