<svg width="60" height="45" viewBox="0 0 60 45" fill="none" xmlns="http://www.w3.org/2000/svg">
<g clip-path="url(#clip0_4046_27104)">
<path d="M0 0H60V45H0V0Z" fill="white"/>
<path d="M24.9375 4.99609H60V10.0023H24.9375V4.99609ZM24.9375 14.9992H60V19.9961H24.9375V14.9992ZM0 25.0023H60V29.9992H0V25.0023ZM0 34.9961H60V40.0023H0V34.9961Z" fill="#0038A8"/>
<path d="M11.9245 14.9423L12.7521 16.1781C9.35151 18.6391 11.4276 20.0943 9.01774 20.8821C10.5166 19.4193 8.78173 19.296 10.0446 16.2472" fill="#FCD116"/>
<path fill-rule="evenodd" clip-rule="evenodd" d="M11.9484 14.8284L12.8661 16.1988L12.8017 16.2455C11.958 16.8561 11.4579 17.4014 11.1433 17.886C10.829 18.3701 10.6971 18.7977 10.5943 19.1795C10.5828 19.222 10.5717 19.2641 10.5607 19.3058C10.4737 19.6357 10.393 19.9417 10.2088 20.2083C9.99782 20.5135 9.6577 20.7606 9.04456 20.961L8.70759 21.0712L8.96131 20.8236C9.33051 20.4633 9.49158 20.194 9.5542 19.9496C9.61726 19.7034 9.58392 19.4723 9.53925 19.1721L9.53908 19.1709C9.49475 18.873 9.44197 18.5183 9.48112 18.0457C9.52031 17.5726 9.65115 16.9849 9.96955 16.2162L10.0011 16.14L10.1536 16.2031L10.122 16.2793C9.80897 17.0351 9.6831 17.606 9.64556 18.0593C9.60803 18.5123 9.65832 18.8512 9.70246 19.1478L9.70365 19.1558C9.74702 19.4472 9.78605 19.7095 9.71404 19.9905C9.65894 20.2056 9.54079 20.4259 9.32318 20.6803C9.70501 20.5146 9.92696 20.3258 10.073 20.1145C10.2397 19.8732 10.3129 19.5969 10.4013 19.2628C10.4122 19.2216 10.4234 19.1796 10.4349 19.1366C10.5394 18.7486 10.6767 18.3016 11.0049 17.7962C11.3245 17.3039 11.8224 16.7599 12.6407 16.1587L11.8113 14.9202L11.9484 14.8284Z" fill="black"/>
<path fill-rule="evenodd" clip-rule="evenodd" d="M10.028 18.8726C10.1625 17.9665 10.3394 16.7744 11.265 15.2488L11.406 15.3344C10.4977 16.8315 10.3248 17.9969 10.1911 18.8976C10.1881 18.9183 10.185 18.9389 10.182 18.9594C10.1145 19.4124 10.052 19.8087 9.8973 20.1413C9.74005 20.4793 9.48952 20.7485 9.0558 20.9555L8.98473 20.8066C9.38575 20.6152 9.60747 20.3731 9.74769 20.0717C9.89047 19.7647 9.95057 19.3932 10.0188 18.9351C10.0218 18.9144 10.0249 18.8936 10.028 18.8726Z" fill="black"/>
<path d="M12.4937 12.4961H14.1437L12.4937 21.5711L10.8438 12.4961H12.4937V21.5711Z" fill="#FCD116"/>
<path fill-rule="evenodd" clip-rule="evenodd" d="M10.7422 12.4141H14.2399L12.491 22.0327L10.7422 12.4141ZM10.9399 12.5791L12.4085 20.6566V12.5791H10.9399ZM12.5735 12.5791V20.6566L14.0422 12.5791H12.5735Z" fill="black"/>
<path d="M12.4937 15.5226C14.1644 15.5226 15.5187 14.1683 15.5187 12.4977C15.5187 10.827 14.1644 9.47266 12.4937 9.47266C10.8231 9.47266 9.46875 10.827 9.46875 12.4977C9.46875 14.1683 10.8231 15.5226 12.4937 15.5226Z" fill="#FCD116"/>
<path fill-rule="evenodd" clip-rule="evenodd" d="M12.4903 9.55562C10.8652 9.55562 9.54781 10.873 9.54781 12.4981C9.54781 14.1232 10.8652 15.4406 12.4903 15.4406C14.1154 15.4406 15.4328 14.1232 15.4328 12.4981C15.4328 10.873 14.1154 9.55562 12.4903 9.55562ZM9.38281 12.4981C9.38281 10.7819 10.7741 9.39062 12.4903 9.39062C14.2065 9.39062 15.5978 10.7819 15.5978 12.4981C15.5978 14.2143 14.2065 15.6056 12.4903 15.6056C10.7741 15.6056 9.38281 14.2143 9.38281 12.4981Z" fill="black"/>
<path d="M14.7218 11.2861C14.5293 11.5061 14.4193 11.1211 13.7318 11.1211C13.0443 11.1211 12.9343 11.5336 12.8243 11.4511C12.7143 11.3686 13.4018 10.8736 13.6218 10.8461C13.8418 10.8186 14.4743 11.0386 14.7218 11.2861ZM13.9243 11.5336C14.1168 11.6986 13.9518 12.0561 13.7593 12.0561C13.5668 12.0561 13.2093 11.7261 13.3743 11.5061" fill="black"/>
<path d="M13.0156 11.7795C13.0431 11.4495 13.3181 11.3945 13.7581 11.3945C14.1981 11.3945 14.3906 11.7245 14.5556 11.807C14.3631 11.807 14.1981 11.532 13.7581 11.532C13.3181 11.532 13.3181 11.532 13.0156 11.807M13.0981 11.862C13.2081 11.697 13.3456 12.027 13.6481 12.027C13.9506 12.027 14.1156 11.9445 14.3081 11.807C14.5006 11.6695 14.0331 12.137 13.7306 12.137C13.4281 12.137 13.0156 11.972 13.0981 11.862Z" fill="black"/>
<path d="M14.0369 12.0303C14.3944 11.8378 14.1744 11.5628 14.0369 11.5078C14.0919 11.5628 14.3119 11.8378 14.0369 12.0303ZM12.4969 13.6803C12.6619 13.6803 12.7169 13.6253 12.9369 13.6253C13.1569 13.6253 13.6794 13.9278 13.9819 13.8178C13.3494 14.0653 13.5969 13.9003 12.4969 13.9003H12.3594M14.0919 14.0653C13.9819 13.8728 14.0094 13.9278 13.7894 13.6253C14.0094 13.7903 14.0644 13.8728 14.0919 14.0653ZM12.4969 14.3403C13.1844 14.3403 13.0744 14.2028 13.9819 13.8178C13.3219 13.9003 13.1844 14.1203 12.4969 14.1203H12.3594M12.4969 13.3228C12.6894 13.3228 12.7444 13.1853 12.9644 13.1853C13.1844 13.1853 13.4869 13.2678 13.6244 13.3778C13.6519 13.4053 13.5419 13.1578 13.3219 13.1303C13.1019 13.1028 13.1844 12.7453 12.9369 12.6903C12.9369 12.8003 13.0194 12.7728 13.0469 12.9378C13.0469 13.0753 12.7994 13.0753 12.7444 12.9378C12.7994 13.1578 12.6344 13.1578 12.4969 13.1578" fill="black"/>
<path d="M12.496 14.5859C12.3585 14.5859 12.001 14.6684 12.496 14.6684C12.991 14.6684 12.6335 14.5859 12.496 14.5859Z" fill="black"/>
</g>
<defs>
<clipPath id="clip0_4046_27104">
<rect width="60" height="45" fill="white"/>
</clipPath>
</defs>
</svg>
