<svg width="60" height="45" viewBox="0 0 60 45" fill="none" xmlns="http://www.w3.org/2000/svg">
<g clip-path="url(#clip0_4046_27124)">
<path d="M0 30H60V45H0V30Z" fill="#1EB53A"/>
<path d="M0 0H60V15H0V0Z" fill="#0099B5"/>
<path d="M0 14.3984H60V30.5984H0V14.3984Z" fill="#CE1126"/>
<path d="M0 15.3008H60V29.7008H0V15.3008Z" fill="white"/>
<path d="M12.6031 12.6008C15.5855 12.6008 18.0031 10.1831 18.0031 7.20078C18.0031 4.21844 15.5855 1.80078 12.6031 1.80078C9.62079 1.80078 7.20312 4.21844 7.20312 7.20078C7.20312 10.1831 9.62079 12.6008 12.6031 12.6008Z" fill="white"/>
<path d="M14.4 12.6008C17.3823 12.6008 19.8 10.1831 19.8 7.20078C19.8 4.21844 17.3823 1.80078 14.4 1.80078C11.4177 1.80078 9 4.21844 9 7.20078C9 10.1831 11.4177 12.6008 14.4 12.6008Z" fill="#0099B5"/>
<path d="M24.4748 10.4414L24.1328 11.4674L24.6548 11.6474" fill="white"/>
</g>
<defs>
<clipPath id="clip0_4046_27124">
<rect width="60" height="45" fill="white"/>
</clipPath>
</defs>
</svg>
