<svg width="60" height="45" viewBox="0 0 60 45" fill="none" xmlns="http://www.w3.org/2000/svg">
<g clip-path="url(#clip0_4046_28144)">
<path d="M0 0H60V45H0V0Z" fill="#009543"/>
<path d="M0 0H60V22.5H0V0Z" fill="#D21034"/>
<path d="M0 0L28 18.4738H59.9999V26.5264H28L0 45.0002" fill="black"/>
<path fill-rule="evenodd" clip-rule="evenodd" d="M-2.40625 3.6484L2.40804 -3.64844L29.3129 14.1028H64.3718V30.8974H29.3129L2.40804 48.6486L-2.40625 41.3517L26.1665 22.5001L-2.40625 3.6484Z" fill="#FDCE12"/>
<path fill-rule="evenodd" clip-rule="evenodd" d="M-1.3125 1.99181L1.31348 -1.98828L28.7161 16.0914H60.0004V20.8597H27.2848L-1.3125 1.99181ZM27.2848 24.144H60.0004V28.9123H28.7161L1.31348 46.992L-1.3125 43.0119L27.2848 24.144Z" fill="black"/>
<path d="M8.06328 26.8118V29.3697C10.2896 29.3697 14.6665 27.6644 14.6665 22.1602C14.6665 16.656 9.99591 15.6328 8.60328 15.6328C7.20117 15.6328 2.89062 16.637 2.89062 21.1276C2.89062 25.6371 7.12538 26.0539 7.95906 26.0539C8.79275 26.0539 11.9191 25.296 11.5591 21.9234C11.4657 22.7465 11.0719 23.5062 10.453 24.0569C9.83414 24.6076 9.03379 24.9105 8.20538 24.9076C5.93169 24.9076 4.51063 23.2213 4.51063 21.5539C4.51063 19.8865 5.89379 17.6507 8.29064 17.6507C10.6875 17.6507 12.4401 19.7823 12.4401 21.9234C12.4401 24.0739 10.7538 26.8023 8.06328 26.8023V26.8118Z" fill="#FDCE12"/>
<path d="M6.10156 23.4694L6.23419 23.5641C6.23419 23.5641 7.29525 21.1483 10.1279 19.4336C9.76789 19.6231 7.87315 20.5704 6.10156 23.4694V23.4694Z" fill="#FDCE12"/>
<path fill-rule="evenodd" clip-rule="evenodd" d="M10.0854 19.4121C10.0947 19.4071 10.1034 19.4026 10.1113 19.3984L10.1486 19.4644C8.73724 20.3188 7.76722 21.3478 7.1501 22.1631C6.84156 22.5708 6.62131 22.9249 6.47829 23.177C6.40678 23.303 6.35459 23.4034 6.32033 23.4722C6.3032 23.5067 6.29055 23.5332 6.28222 23.551C6.27805 23.5599 6.27496 23.5667 6.27293 23.5712L6.27067 23.5762L6.27013 23.5774L6.27 23.5777L6.25122 23.6205L6.08062 23.4986L6.10265 23.4678L6.07031 23.448C7.80802 20.6045 9.6651 19.6321 10.0854 19.4121ZM6.15341 23.4575L6.22007 23.5051C6.22824 23.4878 6.23901 23.4655 6.25248 23.4385C6.28731 23.3685 6.34015 23.2668 6.41237 23.1395C6.55682 22.885 6.77887 22.528 7.08967 22.1174C7.13767 22.054 7.18778 21.9893 7.24006 21.9235C6.88245 22.3601 6.5155 22.868 6.15341 23.4575Z" fill="#FDCE12"/>
<path d="M6.37383 23.0514C6.37383 23.0514 6.05173 22.3883 6.33594 22.0851C6.62015 21.7914 6.49699 22.8714 6.49699 22.8714L6.62015 22.6914C6.62015 22.6914 6.43068 21.8767 6.6391 21.7062C6.85699 21.5262 6.75278 22.4925 6.75278 22.4925L6.88541 22.3219C6.88541 22.3219 6.74331 21.5262 6.95173 21.3746C7.16963 21.223 7.03699 22.1325 7.03699 22.1325L7.18857 21.943C7.18857 21.943 7.07489 21.1851 7.33068 21.0051C7.58647 20.8251 7.3591 21.7251 7.3591 21.7251L7.52963 21.5356C7.52963 21.5356 7.45384 20.844 7.67173 20.683C7.88963 20.5314 7.70963 21.3461 7.70963 21.3461L7.86121 21.1756C7.86121 21.1756 7.81384 20.5314 8.02226 20.3798C8.24016 20.2283 8.04121 20.9956 8.04121 20.9956L8.20226 20.844C8.20226 20.844 8.16437 20.1904 8.42963 20.0672C8.69489 19.944 8.38226 20.6735 8.38226 20.6735L8.57174 20.5219C8.57174 20.5219 8.6191 19.764 8.84647 19.6977C9.07384 19.6219 8.75174 20.3609 8.75174 20.3609L8.91279 20.2283C8.91279 20.2283 8.99805 19.584 9.24437 19.5082C9.50016 19.423 9.09279 20.0956 9.09279 20.0956L9.25384 19.9725C9.25384 19.9725 9.43384 19.3282 9.67069 19.2525C9.89806 19.1861 9.42437 19.8682 9.42437 19.8682L9.58542 19.7546C9.58542 19.7546 9.84121 19.1672 10.0591 19.1293C10.2581 19.0914 9.81279 19.6125 9.81279 19.6125L10.0117 19.4988C10.0117 19.4988 10.3433 18.8925 10.4665 19.0725C10.5802 19.2619 9.99279 19.5367 9.99279 19.5367L9.80332 19.6504C9.80332 19.6504 10.5138 19.3093 10.5991 19.4798C10.6844 19.6504 9.62332 19.764 9.62332 19.764L9.45279 19.8777C9.45279 19.8777 10.1633 19.6882 10.0781 19.8682C9.98332 20.0482 9.28227 20.0104 9.28227 20.0104L9.12121 20.124C9.12121 20.124 9.83174 19.9535 9.737 20.124C9.64227 20.2756 8.95069 20.2661 8.95069 20.2661L8.78016 20.4083C8.78016 20.4083 9.47174 20.2188 9.36753 20.4367C9.27279 20.6451 8.477 20.6356 8.477 20.6356L8.28753 20.8251C8.28753 20.8251 9.017 20.5693 8.95069 20.7683C8.89384 20.9577 8.06016 21.0525 8.06016 21.0525L7.87068 21.2419C7.87068 21.2419 8.657 20.9861 8.42016 21.223C8.19279 21.4693 7.61489 21.5261 7.61489 21.5261L7.397 21.8104C7.397 21.8104 8.17384 21.3367 8.06016 21.6019C7.95594 21.8672 7.18857 22.0472 7.18857 22.0472L7.03699 22.2367C7.03699 22.2367 7.73805 21.8293 7.66226 22.0472C7.59594 22.284 6.84752 22.5209 6.84752 22.5209L6.72436 22.6914C6.72436 22.6914 7.54857 22.1988 7.48226 22.4546C7.40647 22.7009 6.62015 22.8809 6.62015 22.8809L6.52541 23.0419C6.52541 23.0419 7.28331 22.5967 7.28331 22.8146C7.30226 23.023 6.39278 23.2314 6.39278 23.2314L6.37383 23.0514V23.0514Z" fill="#FDCE12"/>
</g>
<defs>
<clipPath id="clip0_4046_28144">
<rect width="60" height="45" fill="white"/>
</clipPath>
</defs>
</svg>
