<svg width="60" height="45" viewBox="0 0 60 45" fill="none" xmlns="http://www.w3.org/2000/svg">
<g clip-path="url(#clip0_4046_28162)">
<path fill-rule="evenodd" clip-rule="evenodd" d="M0 0H60V45H0V0Z" fill="#CE1126"/>
<path fill-rule="evenodd" clip-rule="evenodd" d="M0 0H30V22.5H0V0Z" fill="#002B7F"/>
<path fill-rule="evenodd" clip-rule="evenodd" d="M16.8781 21.4969L14.9375 20.1844L13.0719 21.5062L13.6812 19.1719L11.9 17.7469L14.1969 17.6062L14.9562 15.3937L15.7812 17.6437L18.0312 17.7094L16.25 19.2375L16.8781 21.4969ZM16.5406 5.97187L14.9844 4.96875L13.4844 5.94375L13.8969 4.06875L12.5281 2.87812L14.3469 2.72812L15.0219 0.984375L15.7156 2.7375L17.5062 2.89687L16.1281 4.15312L16.5406 5.97187ZM9.69688 11.55L8.19688 10.5187L6.63125 11.55L7.11875 9.73125L5.70312 8.53125L7.50313 8.4375L8.15938 6.65625L8.79688 8.42812L10.6344 8.53125L9.22813 9.70312L9.69688 11.55ZM23.4406 10.3125L21.9969 9.375L20.5906 10.3125L21.0031 8.59687L19.6906 7.49062L21.4062 7.35L21.9969 5.7375L22.6531 7.36875L24.3125 7.4625L23.0281 8.61562L23.4406 10.3125ZM19.4 14.3812L18.4344 13.7812L17.4688 14.4L17.7219 13.2469L16.8594 12.4687L17.9844 12.375L18.4156 11.2875L18.875 12.375L19.9906 12.4687L19.1375 13.2469L19.4 14.3812Z" fill="white"/>
</g>
<defs>
<clipPath id="clip0_4046_28162">
<rect width="60" height="45" fill="white"/>
</clipPath>
</defs>
</svg>
