<svg width="60" height="45" viewBox="0 0 60 45" fill="none" xmlns="http://www.w3.org/2000/svg">
<g clip-path="url(#clip0_4046_28167)">
<path d="M0 0H60V45H0V0Z" fill="#244AA5"/>
<path d="M23.7156 21.074C23.7156 21.074 23.8281 20.999 23.8656 20.9896C23.9125 20.9896 24.0531 20.9334 24.0531 20.9334C24.0531 20.9334 24.1469 20.8865 24.1938 20.8865C24.25 20.8865 24.3438 20.9428 24.3813 20.9896C24.4094 21.0365 24.5688 21.1209 24.5688 21.1209C24.5688 21.1209 24.6813 21.1584 24.7094 21.1209C24.7281 21.0834 24.775 21.0553 24.8312 21.0553C24.8781 21.0553 24.8875 21.0084 24.8875 20.9709C24.8875 20.9334 24.9063 20.8865 24.9438 20.8396C24.9906 20.7928 25.0656 20.7646 25.0656 20.7646C25.0656 20.7646 25.1781 20.7178 25.1875 20.6521C25.2063 20.5865 25.3094 20.5396 25.375 20.5303C25.4406 20.5303 25.375 20.4928 25.5438 20.5115C25.7031 20.5303 25.7313 20.474 25.7313 20.4271C25.7406 20.3803 25.7313 20.3334 25.8344 20.3334C25.9375 20.3521 25.9844 20.3521 25.9844 20.2959C25.9844 20.2396 26.0781 20.2021 25.9188 20.1646C25.75 20.1178 25.7688 20.1553 25.75 20.0709C25.75 20.0053 25.75 20.0146 25.6469 20.0053C25.5344 19.9959 25.5906 19.9396 25.5812 19.8834C25.5719 19.8271 25.5437 19.7896 25.525 19.7615C25.4969 19.724 25.4406 19.724 25.4406 19.6678C25.4406 19.6115 25.4313 19.574 25.375 19.574C25.3094 19.574 25.2813 19.574 25.2813 19.5271C25.2813 19.4709 25.3 19.4334 25.3563 19.4334C25.4219 19.4334 25.45 19.3771 25.45 19.3209C25.4313 19.2646 25.4312 19.1428 25.4312 19.1428L25.5156 19.049C25.5156 19.049 25.7594 18.8521 25.7781 18.8146C25.7969 18.7771 25.8813 18.749 25.9188 18.824C25.9563 18.899 25.975 18.9178 26.0125 18.9553C26.0406 18.9928 26.1344 18.9646 26.1531 18.9271C26.1719 18.8896 26.1812 18.749 26.2375 18.674C26.2937 18.6084 26.3313 18.5709 26.3406 18.5053C26.35 18.4396 26.3875 18.3928 26.4531 18.3928C26.5094 18.3928 26.5469 18.3084 26.5469 18.2615C26.5469 18.2146 26.5844 18.1678 26.6594 18.149C26.7344 18.1396 26.7813 18.0928 26.8094 18.1678C26.8375 18.2428 26.8656 18.2334 26.9125 18.2615C26.9688 18.2896 27.0437 18.3178 27.0812 18.2896C27.1281 18.2521 27.1469 18.1959 27.2031 18.224C27.2594 18.2615 27.2969 18.224 27.3156 18.1584L27.3438 17.9803C27.3438 17.9803 27.3531 17.9334 27.4469 17.9334C27.5406 17.9334 27.475 17.8771 27.5219 17.8396C27.5781 17.8021 27.5781 17.7646 27.6437 17.7834C27.7094 17.8115 27.8125 17.7553 27.7656 17.6896C27.7094 17.6334 27.5969 17.5396 27.6625 17.4646C27.7281 17.3896 27.7562 17.2771 27.6906 17.2584C27.625 17.249 27.5219 17.2678 27.5125 17.2021C27.5031 17.1271 27.475 17.0709 27.5594 17.0615C27.6344 17.0521 27.7656 17.0521 27.8125 17.0146C27.85 16.9771 27.9813 16.949 27.9813 16.8459C27.9813 16.7334 28.0188 16.724 28.0375 16.6584C28.0469 16.6021 28.0469 16.4709 27.9906 16.4146C27.9344 16.349 27.8594 16.2646 27.85 16.2271C27.8313 16.1896 27.7844 16.1334 27.7 16.1053C27.625 16.0865 27.55 16.0678 27.55 16.0115C27.55 15.9459 27.6063 16.0209 27.6063 15.8615C27.6063 15.7021 27.5031 15.674 27.5031 15.674L27.3438 15.5803C27.3438 15.5803 27.0625 15.5053 26.9875 15.5053C26.9125 15.5053 26.8188 15.4303 26.9031 15.374C26.9969 15.3271 27.0156 15.2334 26.9875 15.1678C26.95 15.1021 26.9313 15.0459 26.8094 15.0178C26.6875 14.9896 26.6594 14.9615 26.7156 14.8865C26.7625 14.8209 26.7812 14.7646 26.8469 14.8209C26.9031 14.8678 27.0156 14.8865 27.1 14.849C27.1938 14.8115 27.2219 14.774 27.2687 14.8209C27.3062 14.8584 27.3625 14.8959 27.4281 14.8396C27.4938 14.774 27.6156 14.7646 27.6719 14.7928C27.7188 14.8303 27.8594 14.8209 27.8969 14.7928C27.9344 14.774 28.0281 14.699 28.0281 14.6709C28.0281 14.6428 28.0844 14.5584 28.1313 14.5303C28.1875 14.4928 28.2531 14.399 28.3094 14.399C28.3656 14.399 28.3844 14.3334 28.3844 14.3053C28.3844 14.2584 28.4312 14.174 28.4406 14.1459C28.4406 14.1178 28.5531 14.0709 28.6281 14.1459C28.7125 14.1928 28.8156 14.2209 28.8156 14.2209C28.8156 14.2209 28.9094 14.2396 28.975 14.2209C29.0046 14.2026 29.0387 14.193 29.0734 14.193C29.1082 14.193 29.1423 14.2026 29.1719 14.2209C29.2563 14.2771 29.3594 14.2771 29.3594 14.2771L29.3875 14.1553C29.3875 14.1178 29.4063 14.0428 29.3594 14.0146C29.3219 13.9865 29.2656 13.949 29.35 13.8834C29.4438 13.8271 29.4438 13.8365 29.5281 13.8365L29.7344 13.8459C29.8 13.8459 29.9031 13.9115 29.9031 13.9678C29.9031 14.024 29.95 14.0615 29.9969 14.099C30.0531 14.1271 30.1188 14.1553 30.0906 14.2115C30.0813 14.2584 30.0813 14.3053 30.1469 14.2865C30.2125 14.2771 30.2313 14.3146 30.2313 14.3709C30.2313 14.4178 30.25 14.4459 30.325 14.4646C30.3813 14.4834 30.4188 14.5303 30.4188 14.5771C30.4188 14.624 30.4 14.6615 30.4188 14.7084L30.5125 14.8396C30.5125 14.8396 30.6344 14.9803 30.475 14.9053C30.325 14.8396 30.2875 14.8115 30.2406 14.8115L30.1469 14.8584L30.025 14.8771C29.9687 14.8771 29.9125 14.9896 30.0063 15.0084C30.0906 15.0271 30.1187 15.0459 30.1187 15.1209C30.1187 15.1959 30.0906 15.1678 30.0438 15.2146C30.0063 15.2709 29.9687 15.2334 29.8937 15.2334C29.8187 15.2334 29.8 15.299 29.8 15.3553C29.8 15.4115 29.8281 15.4115 29.8563 15.449C29.8938 15.5053 29.95 15.5146 30.0063 15.4678C30.0531 15.4209 30.1 15.3834 30.1281 15.4771C30.1656 15.5709 30.2125 15.5709 30.2687 15.5709C30.3344 15.5709 30.3625 15.5709 30.4188 15.5334C30.4656 15.5053 30.5312 15.5334 30.5406 15.6178C30.5594 15.6928 30.6063 15.7115 30.6625 15.7396C30.7188 15.7678 30.7563 15.7865 30.7563 15.8334C30.775 15.8896 30.8031 15.9084 30.8594 15.8803C30.9156 15.8428 31 15.824 31.0375 15.8709L31.1219 15.9834V16.0865L31.3375 16.1615L31.3563 16.2553C31.3563 16.2834 31.3938 16.3115 31.45 16.2928H31.6C31.6 16.2928 31.675 16.2646 31.675 16.199C31.675 16.1428 31.7031 16.124 31.7687 16.124C31.8156 16.124 31.9375 16.1709 31.9656 16.1053C32.0031 16.049 32.0969 16.0303 32.1719 16.0584L32.4531 16.1709C32.4531 16.1709 32.425 16.1709 32.4906 16.274C32.5563 16.3771 32.6781 16.3771 32.6781 16.3771C32.6781 16.3771 32.6781 16.4709 32.7062 16.5084C32.725 16.5459 32.8281 16.5646 32.875 16.5271C32.9313 16.4896 33.0062 16.4334 33.0719 16.4334C33.1375 16.4334 33.1844 16.4334 33.1844 16.3959C33.1844 16.3584 33.1187 16.3303 33.1187 16.2646C33.1187 16.199 33.1844 16.2084 33.1938 16.1428C33.2031 16.0865 33.2687 16.1428 33.3156 16.1803C33.3625 16.2178 33.4094 16.2553 33.4094 16.2928C33.4094 16.3396 33.5031 16.4803 33.55 16.499C33.6062 16.5178 33.7469 16.5271 33.7938 16.4803C33.8313 16.424 33.9438 16.4053 33.9344 16.5271C33.925 16.649 33.8969 16.6584 33.9719 16.6959C34.0469 16.7334 34.0656 16.8834 34 16.9209C33.9344 16.9584 33.9063 16.9678 33.9063 17.0334C33.9063 17.099 33.8875 17.1834 33.9438 17.2209C34 17.2678 34.0375 17.2959 34.0375 17.3334C34.0375 17.3803 34.0938 17.5584 34.0938 17.5584C34.0938 17.5584 34.1312 17.7365 34.1125 17.774C34.1125 17.8209 34.0844 17.8865 34.1781 17.8771C34.2719 17.8678 34.3 17.8678 34.3 17.9428C34.3 18.0178 34.3375 18.0553 34.2813 18.0834C34.225 18.1209 34.1875 18.2146 34.2437 18.2334C34.3 18.2521 34.3375 18.2896 34.3563 18.3271C34.3656 18.3646 34.45 18.4396 34.5063 18.3928C34.5625 18.3553 34.5719 18.3365 34.6187 18.3271C34.6562 18.3178 34.6938 18.2896 34.6469 18.2334C34.6094 18.1865 34.5906 18.1396 34.6375 18.1021C34.6844 18.074 34.7031 17.9803 34.7031 17.9803C34.7031 17.9803 34.7688 17.8865 34.8438 17.9803C34.9188 18.074 34.9375 18.0365 34.9844 18.0365C35.0313 18.0365 35.0594 18.0834 35.0594 18.1303C35.0594 18.1865 35.1719 18.1771 35.1719 18.2521L35.1906 18.5334C35.1906 18.5334 35.1906 18.6365 35.2563 18.674C35.3219 18.7209 35.3125 18.7303 35.275 18.7678C35.2469 18.824 35.2563 18.9084 35.2563 18.9553C35.2563 19.0021 35.275 19.0021 35.2281 19.049C35.1719 19.0865 35.1437 19.1428 35.1812 19.199C35.2094 19.2553 35.2 19.2928 35.2844 19.3678C35.3781 19.4334 35.3687 19.4615 35.3687 19.5178C35.3687 19.5646 35.4531 19.6396 35.4531 19.6865C35.4531 19.7334 35.5188 19.799 35.575 19.8084C35.6313 19.8178 35.6875 19.9021 35.6875 19.9584L35.6969 20.1365C35.6969 20.1365 35.6969 20.1646 35.7531 20.1646C35.8187 20.1646 35.8656 20.2396 35.8844 20.1646C35.9031 20.0709 35.9781 20.0709 36.0156 20.0428C36.0531 20.0146 36.1469 19.9865 36.1938 20.0146C36.2406 20.0428 36.2875 20.0428 36.3344 20.0428L36.5781 20.0521C36.5781 20.0521 36.6344 20.0521 36.6719 20.1271C36.7 20.2021 36.7938 20.2959 36.7469 20.3334C36.6906 20.3803 36.6906 20.4553 36.7469 20.4553C36.8031 20.4553 36.8875 20.4553 36.8875 20.5021C36.8875 20.5584 36.8875 20.5959 36.9531 20.5678C37 20.5396 37.0375 20.5303 37.0562 20.5678C37.0844 20.6053 37.1219 20.6053 37.1781 20.6334C37.2344 20.6709 37.2531 20.6428 37.2906 20.6053C37.3187 20.5678 37.45 20.5303 37.45 20.5303C37.45 20.5303 37.6188 20.4834 37.6844 20.5021L37.8438 20.5678C37.8438 20.5678 37.8812 20.6615 37.8625 20.7271C37.8437 20.7834 37.8156 20.774 37.8438 20.8678C37.8625 20.9615 37.8156 20.9615 37.7781 20.9615C37.7313 20.9428 37.6844 20.9428 37.6844 21.0271C37.6844 21.1021 37.6469 21.1209 37.6469 21.1959C37.6469 21.2709 37.6469 21.2521 37.6 21.2896C37.5625 21.3178 37.5438 21.3646 37.6094 21.3834C37.675 21.3834 37.6563 21.4584 37.6563 21.4959L37.6469 21.6271C37.6469 21.6271 37.6469 21.674 37.5812 21.674C37.5156 21.674 37.4406 21.674 37.4312 21.7209C37.4125 21.7678 37.3375 21.8428 37.4031 21.899C37.4781 21.9459 37.4594 21.974 37.4125 21.9928C37.375 22.0209 37.3375 22.1146 37.4312 22.1428C37.5156 22.1803 37.5063 22.2084 37.45 22.2459C37.3938 22.2834 37.2906 22.3209 37.2906 22.3771C37.2906 22.4334 37.2625 22.4334 37.1969 22.4428C37.1312 22.4521 37.1031 22.5365 37.1781 22.6303C37.2531 22.7334 37.2719 22.724 37.3281 22.724C37.3844 22.724 37.3844 22.6303 37.3844 22.6303L37.6187 22.649C37.675 22.649 37.75 22.649 37.7969 22.6209C37.8438 22.5834 37.9562 22.5365 37.9562 22.6209C37.9562 22.7146 37.9844 22.7146 38.0313 22.7428C38.0875 22.7896 38.0969 22.7521 38.1437 22.8178C38.1906 22.874 38.2 22.8178 38.2375 22.7521C38.2656 22.6865 38.3313 22.6209 38.3875 22.6959C38.4344 22.7803 38.4344 22.7521 38.5 22.7521C38.5656 22.7521 38.5938 22.7896 38.5938 22.8365C38.5938 22.8834 38.65 22.8834 38.7344 22.874C38.8094 22.874 38.8187 22.9209 38.8469 22.9678C38.875 23.0146 38.8937 23.0053 38.9406 23.0053C38.9781 23.0053 39.025 23.0053 39.0531 22.9678C39.0906 22.9303 39.1281 22.874 39.175 22.9396C39.2219 22.9959 39.3063 22.9865 39.325 22.9209C39.3531 22.8459 39.4469 22.7896 39.5031 22.8646C39.5594 22.949 39.5969 22.949 39.6531 22.9584C39.7094 22.9584 39.7844 22.9584 39.8125 23.0146C39.85 23.0709 39.9531 23.1459 39.8781 23.2021C39.8031 23.2678 39.7187 23.3428 39.7844 23.3709C39.8432 23.3852 39.8958 23.4181 39.9344 23.4646C39.9813 23.5021 40.1219 23.5303 40.1875 23.5396C40.2531 23.5396 40.3 23.5584 40.375 23.4928C40.4594 23.4365 40.5344 23.4365 40.525 23.5209C40.5156 23.5959 40.5531 23.6896 40.5531 23.6896C40.5531 23.6896 40.6094 23.8209 40.6094 23.8678C40.6094 23.9146 40.6 23.924 40.7031 23.9896C40.7969 24.0459 40.7781 24.0834 40.8625 24.0271C40.9375 23.9709 40.9562 23.9334 40.9562 23.8865V23.7271C40.9562 23.7271 41.0688 23.7084 41.1063 23.6803C41.1531 23.6428 41.3219 23.5584 41.3687 23.5959C41.4156 23.6334 41.4625 23.624 41.5094 23.6053C41.5562 23.5865 41.6406 23.5865 41.6875 23.5865C41.725 23.5865 41.8 23.5959 41.8937 23.5303C41.9781 23.4553 41.9781 23.474 42.0344 23.5303C42.0812 23.5771 42.0813 23.6334 42.0531 23.6803C42.0156 23.7178 42.0531 23.8021 42.1281 23.8021C42.2031 23.8021 42.2219 23.849 42.2219 23.8959L42.25 24.0553C42.25 24.0928 42.25 24.1209 42.3813 24.149C42.4938 24.1771 42.475 24.2428 42.4937 24.299C42.5219 24.3459 42.5219 24.3928 42.4562 24.3928C42.3906 24.3928 42.3625 24.4209 42.3625 24.4678C42.3437 24.5146 42.25 24.5334 42.25 24.5334L42.1563 24.5146C42.1563 24.5146 42.0813 24.5146 42.0531 24.5521C42.0156 24.599 41.9594 24.674 41.9969 24.7396C42.0438 24.8146 42.0438 24.8521 41.9969 24.8896C41.9594 24.9178 41.9312 25.0678 41.8937 25.0396C41.8469 25.0021 41.8 25.0396 41.7531 25.0678C41.7062 25.0865 41.7156 25.2271 41.8 25.274C41.8937 25.3303 41.9125 25.3959 41.9125 25.3959L42.0063 25.5459C42.0063 25.5459 41.9781 25.574 41.9594 25.6303C41.9313 25.6771 41.8656 25.7803 41.9312 25.799C41.9969 25.8178 41.9688 25.9303 41.9031 25.9303C41.8375 25.9303 41.7625 25.8928 41.7531 25.9771C41.7437 26.0615 41.7063 26.0334 41.6406 26.024C41.575 26.024 41.4156 25.9771 41.3687 26.0521C41.3219 26.1365 41.3125 26.1646 41.2375 26.1553C41.1625 26.1553 41.1906 26.2771 41.2188 26.324L41.3125 26.4459C41.3125 26.4459 41.3781 26.4928 41.3781 26.5959C41.3781 26.6896 41.3312 26.6896 41.2844 26.6146C41.2469 26.549 41.1625 26.5584 41.1531 26.6334C41.1438 26.7178 41.125 26.8396 41.0594 26.8396C40.975 26.8396 40.9469 26.8584 40.9094 26.8959C40.8812 26.9334 40.825 27.0084 40.825 27.0459C40.825 27.0834 40.8156 27.1303 40.7594 27.1396C40.7031 27.149 40.6938 27.2521 40.6938 27.2521C40.6938 27.2521 40.5625 27.2803 40.5531 27.3271C40.5438 27.374 40.5625 27.4584 40.4594 27.4678C40.4173 27.4727 40.377 27.4871 40.3412 27.5098C40.3055 27.5325 40.2754 27.563 40.2531 27.599C40.2156 27.6459 40.2062 27.6928 40.2531 27.7396C40.3 27.7865 40.3281 27.9459 40.3844 27.974C40.4312 28.0021 40.4781 28.0209 40.4688 28.0959C40.4594 28.1803 40.3937 28.2365 40.4781 28.2365C40.5719 28.2365 40.6188 28.2553 40.5906 28.3303C40.5531 28.3959 40.5531 28.4053 40.4969 28.4334C40.4219 28.4709 40.3937 28.4709 40.3937 28.5459C40.3937 28.6209 40.4125 28.6303 40.3563 28.6584C40.3 28.6865 40.3 28.724 40.3 28.7896C40.3 28.8553 40.2813 28.8271 40.2156 28.8928C40.15 28.9678 40.0656 28.9678 40.0094 28.949C39.9531 28.9303 39.9438 28.9303 39.9344 28.8646C39.925 28.8084 39.8312 28.8084 39.775 28.8178C39.7187 28.8178 39.6437 28.8834 39.6437 28.8834C39.6437 28.8834 39.55 28.949 39.5875 28.9959C39.6344 29.0428 39.6063 29.1271 39.5313 29.1178C39.4563 29.1084 39.2875 29.1928 39.2313 29.1084C39.175 29.0146 39.025 28.9584 38.9969 29.0803C38.9781 29.1928 39.0625 29.1834 39.0531 29.3053C39.0531 29.4271 39.025 29.4271 38.9781 29.4646C38.9406 29.5021 38.9406 29.5396 38.9219 29.5865C38.9219 29.6334 38.9031 29.7459 38.9781 29.7834C39.0531 29.8303 39.0906 29.9334 39.0906 29.999C39.0906 30.0553 39.0906 30.1209 39.1656 30.1209C39.2406 30.1209 39.3062 30.1021 39.3156 30.0365C39.325 29.9709 39.475 29.924 39.4937 30.0646C39.4937 30.2053 39.4938 30.2803 39.5594 30.3365C39.6063 30.3928 39.6531 30.4771 39.7 30.5053C39.7375 30.5334 39.8125 30.7865 39.8125 30.7865C39.7094 30.8146 39.6813 30.9553 39.6156 30.974C39.5781 30.9928 39.5312 30.974 39.4937 31.0021C39.475 31.0303 39.475 31.0678 39.4375 31.0771C39.3531 31.1146 39.3719 30.9928 39.2687 31.0396C39.1844 31.0771 39.175 31.1803 39.0531 31.1334C38.9875 31.1146 38.95 30.8521 38.9312 30.7959L38.8281 30.6271C38.7531 30.5146 38.6125 30.6271 38.5656 30.5896C38.4906 30.5428 38.5188 30.4584 38.4063 30.449C38.1813 30.4303 38.3406 30.5896 38.2469 30.6178C38.0594 30.6834 38.0594 30.449 37.9281 30.5615C37.8813 30.599 38.0219 30.6271 37.9844 30.6928C37.9563 30.749 37.825 30.8428 37.825 30.9084C37.8438 31.0021 37.9375 31.0303 37.9656 31.0959C38.0594 31.3115 37.9187 31.4521 37.7125 31.2834C37.6 31.199 37.5719 31.0303 37.4031 31.049C37.3563 31.049 37.3469 31.0865 37.3094 31.0959C37.2625 31.0959 37.2344 31.0584 37.1875 31.0678C37.1219 31.0959 37.1875 31.1428 37.1688 31.1803C37.1688 31.1803 37.075 31.2459 37.075 31.274C37.0188 31.3303 37.0375 31.3865 36.9625 31.4428C36.9062 31.4896 36.8594 31.4615 36.7938 31.5365C36.7281 31.6021 36.7187 31.7146 36.6344 31.7803C36.5875 31.8178 36.5594 31.6771 36.5031 31.7709L36.4844 31.8084C36.4656 31.8365 36.4656 31.8459 36.4844 31.874C36.5969 32.099 36.3531 32.174 36.2781 32.3334C36.25 32.399 36.3344 32.4553 36.3062 32.5115L36.1656 32.6709C36.1656 32.6896 36.1469 32.7459 36.1281 32.7646C36.1094 32.7834 36.0344 32.7646 36.0344 32.8021C36.0344 32.8396 36.1094 32.8678 36.1281 32.8865C36.1469 32.9146 36.1094 32.9521 36.1281 32.9615C36.2406 33.0834 36.175 33.0459 36.2313 33.149C36.2406 33.1678 36.2781 33.1396 36.2969 33.1771C36.3063 33.2146 36.2594 33.2146 36.2781 33.2521C36.2781 33.2709 36.3719 33.3834 36.3719 33.3834C36.3719 33.4209 36.2031 33.4959 36.1656 33.4959C36.0625 33.4959 36.2594 33.2896 36.0906 33.2896C36.0156 33.2896 36.0063 33.449 35.9969 33.4771H35.9031C35.7906 33.4771 35.7156 33.6084 35.6781 33.6178C35.65 33.6271 35.5844 33.599 35.5375 33.6178C35.5 33.6178 35.4438 33.6646 35.4063 33.6646C35.3781 33.6646 35.3688 33.6459 35.3406 33.6271C35.2938 33.599 35.2 33.5896 35.1531 33.5709C35.1156 33.5709 35.0594 33.6084 35.0406 33.599C35.0125 33.5803 35.0688 33.5053 34.9844 33.4678L34.9188 33.3084C34.9469 33.2146 34.975 33.1209 34.9656 33.0178C34.9469 32.9146 34.7781 32.8303 34.7406 32.7365C34.7125 32.6803 34.6844 32.5115 34.6187 32.474C34.5473 32.4193 34.4895 32.3487 34.45 32.2678C34.45 32.249 34.4781 32.2115 34.45 32.174C34.4219 32.1459 34.375 32.1271 34.3563 32.0803C34.3469 32.0428 34.3563 31.9115 34.3094 31.8834C34.2625 31.8553 33.9344 31.8084 33.8406 31.799C33.8031 31.799 33.775 31.799 33.7469 31.7709L33.6906 31.7053L33.5969 31.724C33.5687 31.724 33.5219 31.7053 33.5031 31.724C33.4 31.7896 33.3719 31.8834 33.2687 31.9678C33.1656 32.0428 33.0531 32.0428 32.95 32.1271C32.8844 32.1834 32.8375 32.324 32.7719 32.3896C32.7438 32.4178 32.7062 32.3896 32.6969 32.399C32.6406 32.4646 32.5656 32.5115 32.5094 32.5678C32.5 32.5865 32.5094 32.6053 32.4906 32.6146L32.3687 32.6521H32.2563C32.2094 32.6709 32.2094 32.7271 32.0219 32.7646L31.975 32.7928L31.9188 32.8396H31.8344C31.7875 32.8396 31.7594 32.8865 31.7219 32.8865C31.6281 32.9053 31.4594 32.8396 31.3844 32.8771C31.3375 32.8865 31.2156 33.0365 31.1688 33.0459C31.1406 33.0553 31.1125 33.0459 31.075 33.0365L31.0187 33.2428L30.7938 33.4396C30.7656 33.4678 30.7563 33.5053 30.7188 33.5334C30.7 33.5615 30.6625 33.5803 30.625 33.5803C30.5875 33.5803 30.5219 33.5428 30.475 33.5428C30.4 33.524 30.1656 33.5146 30.1 33.5334C30.0156 33.5428 30.0438 33.7584 29.8563 33.7771L29.5469 33.8146C29.5375 33.8146 29.4719 33.7771 29.4063 33.7865C29.3781 33.7959 29.3031 33.8803 29.3031 33.899V33.9459L29.3219 33.9834C29.2844 34.0303 29.1906 34.1053 29.1625 34.1709L29.125 34.2084C29.1063 34.2271 28.975 34.274 28.9656 34.2928C28.9375 34.3678 29.0594 34.4428 29.0406 34.4709C29.0125 34.5646 28.8813 34.6584 28.8344 34.7521C28.825 34.7896 28.8813 34.9115 28.8813 34.949C28.8625 35.0709 28.825 35.2209 28.8344 35.3334L28.8531 35.4928L28.9188 35.5396L29.0875 35.8771C29.1156 36.0834 28.8062 36.0084 28.9937 36.2146C29.0125 36.2521 29.0313 36.2803 29.0688 36.3084L29.3312 36.524C29.3312 36.5615 29.1438 36.5896 29.1156 36.6178C29.0219 36.7115 28.9563 36.8615 28.8719 36.9553C28.8156 37.0021 28.7781 36.9459 28.7031 37.0771C28.6844 37.124 28.7031 37.2271 28.675 37.2646C28.6281 37.3021 28.6 37.2459 28.5531 37.2646C28.5344 37.2646 28.525 37.3303 28.5063 37.3396C28.4594 37.3865 28.0188 37.6209 27.9813 37.5928C27.9625 37.5834 27.9344 37.5084 27.9344 37.4896C27.9344 37.4615 27.8969 37.4053 27.8781 37.3959C27.7656 37.3021 27.5969 37.274 27.4844 37.3959C27.4563 37.424 27.4563 37.4709 27.4188 37.4896L27.2313 37.6396L27.1844 37.6865C27.1375 37.6865 27.0344 37.5646 26.9969 37.5271C26.9594 37.4709 26.8094 37.3396 26.8 37.274C26.8 37.049 26.6219 36.8146 26.5562 36.599H26.6594C26.7812 36.5146 26.7531 36.3178 26.9688 36.3928C26.9969 36.3553 26.9969 36.3178 27.0438 36.299C27.0625 36.2803 27.1 36.2709 27.1094 36.2521C27.1844 36.1396 27.2688 35.7084 27.1938 35.5959C27.1281 35.5021 27.0531 35.5021 27.0063 35.3428C26.9875 35.2959 27.0063 35.249 27.0063 35.1928L26.9125 34.9021C26.8938 34.874 26.8469 34.8553 26.8469 34.8365L26.8281 34.5459C26.7625 34.3396 26.5094 34.2178 26.5 34.1896L26.4063 34.0303C26.3688 33.9646 26.3688 33.9365 26.35 33.8803C26.3406 33.8521 26.2938 33.824 26.2938 33.7959C26.2938 33.7396 26.4438 33.6365 26.4344 33.5428C26.4344 33.5146 26.3406 33.4209 26.3594 33.374C26.3781 33.3178 26.4719 33.2053 26.4719 33.1396C26.4719 33.0646 26.3219 32.8959 26.3031 32.8209C26.2938 32.774 26.3594 32.7459 26.3406 32.7178C26.3219 32.6803 26.1719 32.5396 26.1531 32.5021C26.125 32.474 26.2 32.4365 26.1531 32.3803C26.0969 32.3334 26.1438 32.3428 26.125 32.3053C26.1063 32.2584 26.0594 32.2115 26.0313 32.1646C26.0125 32.1178 25.8813 31.649 25.8906 31.6209C25.8625 31.5928 25.825 31.5646 25.8062 31.5271L25.7687 31.4146C25.7687 31.4146 25.6188 31.3678 25.5906 31.3209C25.5719 31.2928 25.5625 31.1709 25.525 31.1146C25.5062 31.0865 25.4781 31.0959 25.4594 31.0771C25.4406 31.0584 25.4406 31.0303 25.4312 31.0115C25.3844 30.9553 25.3 31.0115 25.2437 30.7865C25.15 30.7303 25.0844 30.6928 25.0187 30.6178L24.9813 30.5803C24.925 30.5615 24.8406 30.5521 24.7938 30.5146C24.7656 30.5146 24.625 30.5146 24.6063 30.4959L24.5688 30.4209C24.4938 30.4115 24.3625 30.4209 24.2969 30.3646C24.25 30.3178 24.2406 30.1021 24.1469 30.1303C24.1346 30.1266 24.1216 30.1266 24.1094 30.1303C24.0438 30.0365 23.8375 30.0365 23.7531 29.9803C23.7344 29.9709 23.6594 29.9803 23.6594 29.9615L23.6688 29.8396L23.5656 29.7084C23.4812 29.6896 23.5094 29.6803 23.4719 29.6521C23.3312 29.6521 23.3125 29.6709 23.2281 29.7459C23.2094 29.7646 23.1625 29.774 23.1344 29.7834C23.0875 29.8115 23.0781 29.8959 23.0125 29.8584L22.9562 29.8115C22.9187 29.774 22.9 29.7928 22.8813 29.7365C22.7688 29.6709 22.4594 29.8771 22.3937 29.7365C22.3375 29.7084 22.3 29.7365 22.2531 29.699C22.2344 29.6803 22.3188 29.4178 22.0938 29.324L22.2438 29.2209C22.2625 29.1928 22.2438 29.1459 22.2438 29.1271C22.2438 29.0803 22.2719 28.9959 22.2625 28.9678C22.2625 28.9396 22.225 28.9115 22.2156 28.874C22.1969 28.8459 22.2156 28.799 22.1969 28.7615L22.1219 28.724C22.0656 28.6771 22.0094 28.649 21.9625 28.5928L21.925 28.5459C21.8875 28.5178 21.7563 28.4709 21.7563 28.4146C21.7563 28.3959 21.7938 28.3865 21.7938 28.3678C21.8031 28.3396 21.7938 28.3115 21.8219 28.2928C21.8781 28.199 22.0188 28.2459 22 28.0865C21.9906 28.0115 21.9344 27.9553 21.925 27.8803C21.8969 27.8615 21.8969 27.8334 21.8781 27.8146C21.7375 27.8053 21.7563 27.6646 21.7094 27.6271C21.5688 27.5334 21.4563 27.5896 21.6156 27.4021C21.6344 27.3365 21.475 27.2334 21.4469 27.2053C21.3906 27.149 21.4188 27.0271 21.3906 26.9709C21.3906 26.9428 21.2875 26.8865 21.2594 26.849L21.2125 26.7553V26.7459C21.2406 26.7178 21.2313 26.6709 21.2125 26.6521C21.2031 26.624 21.1563 26.6334 21.1469 26.6146C21.0156 26.5021 20.8656 26.4459 20.6875 26.3803C20.6406 26.3615 20.6594 26.324 20.6125 26.3053L20.3312 26.1928C20.3125 26.1928 20.2938 26.0896 20.275 26.0521L20.1906 25.9584C20.1906 25.8646 20.1344 25.8646 20.0594 25.8084V25.7521L20.1156 25.5553C20.125 25.5178 20.1719 25.4803 20.1625 25.4428L20.125 25.2271C20.05 25.0396 19.9656 25.0584 20.0125 24.8053C20.0125 24.749 20.0031 24.7209 20.0406 24.674L20.0594 24.6459L20.1719 24.5615C20.2094 24.5053 20.2375 24.3834 20.2844 24.3459L20.4531 24.2334C20.4719 24.2146 20.4906 24.149 20.4813 24.1209C20.4438 24.1021 20.4063 24.1115 20.3688 24.1021C20.35 24.1021 20.3031 24.0646 20.2656 24.0646C20.2562 24.0459 20.2375 24.0365 20.2375 24.0178L20.2188 23.999C20.1719 23.999 20.125 23.9709 20.0875 23.9521C20.0406 23.9334 19.975 23.9334 19.9281 23.9053C19.8344 23.8584 19.7406 23.7178 19.6562 23.699C19.5437 23.6709 19.4688 23.7084 19.3563 23.7178C19.2906 23.7178 19.2906 23.6803 19.2344 23.6615C19.1594 23.6334 19.2156 23.699 19.0469 23.6428C19.0187 23.624 19.0469 23.5678 19.0469 23.549H18.9531C18.8219 23.5115 18.8687 23.3803 18.8312 23.2959C18.8219 23.2771 18.7562 23.2771 18.7375 23.2771C18.7187 23.2771 18.7188 23.2584 18.7188 23.2584L18.7375 23.249C18.7562 23.2115 18.6719 23.1178 18.6719 23.099C18.6813 23.0709 18.8594 23.0428 18.8781 23.0428C18.8875 23.0146 18.8688 22.9959 18.8594 22.9771C18.8594 22.9303 18.8875 22.8646 18.9062 22.8178V22.799C18.85 22.7709 18.8406 22.7334 18.7938 22.7053C18.7938 22.6771 18.8219 22.6678 18.8312 22.6396C18.9156 22.4053 19.0469 22.5928 19.1594 22.3771C19.1687 22.3584 19.2063 22.3115 19.2156 22.274H19.2344C19.2531 22.274 19.2906 22.2928 19.3094 22.274C19.3281 22.2553 19.3563 22.2553 19.3844 22.2459H19.4313C19.6375 22.2084 19.5906 22.1334 19.7125 22.049C19.75 22.0209 19.8438 22.0115 19.8813 21.9928C19.9281 22.0209 19.9938 22.0865 20.0781 22.124C20.1437 22.1428 20.3594 22.1896 20.3969 22.2178C20.4438 22.2365 20.4531 22.2928 20.4906 22.3115C20.6125 22.3865 20.5375 22.274 20.6594 22.2928C20.7812 22.3209 20.875 22.424 20.9875 22.4709L21.0812 22.4615C21.1094 22.4521 21.2969 22.4146 21.3156 22.424L21.3906 22.4521C21.4188 22.4615 21.4375 22.4053 21.4656 22.4053C21.5406 22.424 21.5406 22.4521 21.6531 22.4428C21.6531 22.4428 21.7094 22.1334 21.7656 22.124C21.7938 22.1146 21.8781 22.1896 21.8969 22.199C21.9344 22.2084 21.8969 22.1334 21.8969 22.1334C21.8781 22.1053 21.8219 21.9178 21.8312 21.899C21.8312 21.899 21.8781 21.9178 21.9062 21.9084C21.9625 21.8896 22.0469 21.8709 22.0938 21.824L22.1875 21.6834C22.1969 21.6646 22.1687 21.6084 22.1875 21.5896L22.2719 21.5334C22.3094 21.4959 22.3094 21.4396 22.3656 21.4115C22.5531 21.3928 22.6188 21.2428 22.7969 21.224H22.8531L22.8906 21.2803C22.8906 21.2896 23.0125 21.3646 23.0312 21.3553C23.05 21.3553 23.0594 21.3271 23.0781 21.3178C23.1063 21.3271 23.2094 21.2709 23.2188 21.2334C23.2188 21.2334 23.2 21.2053 23.2094 21.1771C23.2562 21.1355 23.3063 21.0979 23.3594 21.0646H23.4906C23.5094 21.0834 23.5094 21.1209 23.5375 21.1209H23.65C23.6688 21.1209 23.6781 21.074 23.7156 21.074V21.074Z" fill="#D0A650"/>
<path d="M32.9938 6.88281L34.5031 11.5328L30.5469 8.65469H35.4406L31.4844 11.5328L32.9844 6.88281H32.9938ZM38.8813 7.92344L40.3813 12.5734L36.4344 9.69531H41.3188L37.3625 12.5734L38.8813 7.92344ZM44.4969 9.96719L45.9969 14.6172L42.05 11.7391H46.9344L42.9781 14.6266L44.4969 9.97656V9.96719Z" fill="white"/>
<path d="M27.0063 6.88281L25.4969 11.5328L29.4531 8.65469H24.5594L28.5156 11.5328L27.0156 6.88281H27.0063ZM21.1188 7.92344L19.6188 12.5734L23.5656 9.69531H18.6813L22.6375 12.5734L21.1188 7.92344ZM15.5312 9.96719L17.05 14.6172L13.0938 11.7391H17.9781L14.0219 14.6172L15.5312 9.96719V9.96719Z" fill="white"/>
</g>
<defs>
<clipPath id="clip0_4046_28167">
<rect width="60" height="45" fill="white"/>
</clipPath>
</defs>
</svg>
