<svg width="60" height="45" viewBox="0 0 60 45" fill="none" xmlns="http://www.w3.org/2000/svg">
<g clip-path="url(#clip0_4046_28224)">
<path d="M-0.210938 -0.0117188H92.0998V44.9782H-0.210938V-0.0117188Z" fill="#006400"/>
<path d="M-0.210938 6.41406H92.0998V38.5497H-0.210938V6.41406Z" fill="#FFD200"/>
<path d="M-0.210938 12.8438H92.0998V32.1251H-0.210938V12.8438Z" fill="#D40000"/>
<path d="M-0.210938 19.2695H92.0998V25.6967H-0.210938V19.2695Z" fill="black"/>
<path d="M-0.210938 -0.0117188V44.9782L30.5593 22.4832L-0.210938 -0.0117188Z" fill="black"/>
<path fill-rule="evenodd" clip-rule="evenodd" d="M-1.29688 -2.14844L32.3968 22.4837L-1.29688 47.1158V-2.14844ZM0.873073 2.1259V42.8414L28.7199 22.4837L0.873073 2.1259Z" fill="black"/>
<path d="M-0.210938 -0.0117188V44.9782L30.5593 22.4832L-0.210938 -0.0117188Z" fill="white"/>
<path d="M11.4903 11.1719L17.5894 29.457L1.63281 18.156H21.3587L5.39118 29.457L11.4903 11.1719Z" fill="#D40000"/>
<path d="M8.88868 27.1645L9.96564 26.9717L11.9547 26.8967L12.691 26.961L14.3394 27.2288L14.4603 27.0681V25.9112L14.6581 24.915L14.9878 23.9081L15.3504 23.1047L15.812 22.2692L16.5593 22.4513H16.7571L16.7791 22.312L15.1966 20.9945L13.5482 19.7626L11.1635 18.0273L10.9437 17.9737L10.6909 16.1527L10.5041 15.6064L10.2514 15.3922L9.77882 15.2422L9.25133 15.2636L9.00956 15.3922L8.50405 15.4993L8.24031 15.5421L8.06448 15.7456L8.0425 16.0027L8.77879 16.0242L8.96561 16.0991L8.94363 16.1741L8.52603 16.2277L8.32822 16.292L8.559 16.4633L8.80077 16.549L9.10847 16.6562L9.1744 16.8704L9.19638 19.6341L9.03154 20.0625L8.9766 20.8659L9.21836 21.83L8.60296 22.5156L8.2513 23.1261L8.18536 23.501L7.99854 23.876L7.97656 24.1116L8.09745 24.3687L8.56999 25.8898L8.81175 27.1431L8.88868 27.1645Z" fill="#FFCC00"/>
<path d="M9.45588 15.2009C9.25807 15.2009 9.17015 15.2224 8.98333 15.3188C8.82853 15.4051 8.65575 15.4564 8.47782 15.4687C8.20309 15.4687 7.9833 15.6615 7.9833 15.9079V16.0686L8.37892 16.0579C9.54379 16.09 8.48881 16.1971 8.4009 16.2079C8.11517 16.2614 8.46683 16.4864 8.8075 16.6042C9.17015 16.7113 9.14818 16.647 9.14818 18.211C9.14818 19.4857 9.14818 19.6678 9.03828 19.957C8.89542 20.3855 8.89542 21.0282 9.03828 21.4567C9.10422 21.6281 9.14818 21.778 9.14818 21.8102C9.14818 21.8316 8.97235 22.0351 8.76355 22.2708C8.37892 22.6992 8.14814 23.1384 8.14814 23.4491C8.13443 23.549 8.09679 23.6444 8.03825 23.7276C7.89539 23.9097 7.89539 24.2203 8.02726 24.3382C8.17012 24.4667 8.75256 26.6734 8.76355 27.0911C8.76355 27.2411 8.78553 27.2411 9.67567 27.0697C10.401 26.9304 12.1043 26.8983 12.9725 27.0054C13.3681 27.059 13.8296 27.1447 13.9945 27.1768C14.522 27.3161 14.5 27.3375 14.5 26.7162C14.504 25.7373 14.6941 24.7676 15.0605 23.8561C15.2705 23.3368 15.5241 22.8352 15.8187 22.3565C15.8187 22.3565 16.0165 22.3779 16.2583 22.4422C16.7089 22.5493 16.8407 22.5386 16.8407 22.335C16.8407 22.2279 16.3682 21.8423 14.0494 20.0856C13.1142 19.3394 12.1501 18.6283 11.1592 17.9539C11.0933 17.9539 11.0274 17.9218 11.0164 17.8789L10.8515 16.8613C10.7746 16.3364 10.6647 15.8222 10.6208 15.7151C10.4669 15.3937 10.1702 15.2331 9.67567 15.2009C9.60242 15.1986 9.52912 15.1986 9.45588 15.2009V15.2009ZM9.46687 15.3081H9.68665C10.412 15.3509 10.5438 15.5437 10.7416 16.8077C10.795 17.1421 10.839 17.4779 10.8735 17.8146C10.8735 17.9003 10.7746 18.0074 10.5218 18.1681C10.106 18.4526 9.73565 18.7955 9.42291 19.1858L9.28005 19.3786L9.24708 18.9287V17.6647C9.28005 16.7327 9.24708 16.647 8.93938 16.5399C8.68662 16.4542 8.35694 16.3685 8.44486 16.315C8.55475 16.2507 8.66464 16.2935 8.92839 16.2186C9.03828 16.1971 9.02729 16.2079 9.00531 16.1222C8.98334 15.9829 8.82948 15.9079 8.42288 15.9293C8.0932 15.9508 8.06023 15.9401 8.08221 15.8544C8.12616 15.683 8.30199 15.5759 8.57673 15.5437C8.74492 15.5247 8.90849 15.4776 9.06026 15.4045C9.18293 15.3326 9.32375 15.2955 9.46687 15.2973V15.3081ZM11.1043 18.0717H11.1482C11.3351 18.1039 16.7308 22.2172 16.7308 22.335C16.7308 22.3779 16.6869 22.41 16.621 22.41C16.577 22.41 15.2033 22.0351 13.5769 21.5745C10.9834 20.8247 10.6098 20.7176 10.4999 20.5783C10.4234 20.4842 10.3809 20.3681 10.3789 20.248C10.3769 20.128 10.4156 20.0107 10.4889 19.9142C10.5416 19.8518 10.5792 19.7785 10.5988 19.6999C10.5988 19.5714 10.324 19.8927 10.2691 20.0748C10.2141 20.2891 10.324 20.6533 10.4889 20.7711C10.5548 20.8247 11.0493 20.9853 11.5878 21.146C12.5109 21.4031 12.5769 21.4352 12.6208 21.5852C12.7307 21.9387 12.3461 22.3565 11.7966 22.4743C11.5906 22.5224 11.3964 22.6098 11.2252 22.7314C10.655 23.1917 10.018 23.5671 9.335 23.8454C9.29104 23.8776 9.23609 24.0489 9.20312 24.2096C9.13719 24.5631 9.11521 24.6167 9.00531 24.6167C8.95037 24.6167 8.93938 24.5845 8.98333 24.4667C9.06026 24.2525 9.04927 23.9954 8.97235 23.9954C8.9174 23.9954 8.89542 24.0704 8.89542 24.1882C8.89542 24.2953 8.86245 24.4239 8.81849 24.456C8.76355 24.5203 8.75256 24.4774 8.77454 24.2096C8.79652 24.0275 8.78553 23.8883 8.76355 23.8883C8.7086 23.8883 8.6097 24.1561 8.57673 24.3917C8.55475 24.531 8.55475 24.531 8.51079 24.3596C8.47782 24.231 8.48881 24.1454 8.58772 23.9847C8.65016 23.8683 8.68756 23.7407 8.69761 23.6098C8.69761 23.4705 8.80751 23.3312 9.32401 22.8278C9.65369 22.4957 10.0603 22.078 10.2032 21.8959C10.4559 21.5959 10.4669 21.5745 10.4559 21.2639C10.4559 21.0925 10.4339 20.9318 10.412 20.9104C10.346 20.8461 10.2581 21.1889 10.3021 21.371C10.324 21.5424 10.3021 21.5959 9.93941 22.0137C9.6785 22.3048 9.40345 22.5837 9.11521 22.8492C8.68662 23.2348 8.53277 23.4491 8.53277 23.6419C8.53277 23.7062 8.48881 23.8561 8.42288 23.9954C8.35694 24.1346 8.33496 24.2739 8.35694 24.306C8.37892 24.3382 8.35694 24.3382 8.32397 24.306C8.26903 24.2525 8.26903 24.1668 8.31298 23.9847C8.33814 23.894 8.3456 23.7995 8.33496 23.7062C8.28002 23.599 8.20309 23.7276 8.17012 23.9954C8.14814 24.1454 8.11517 24.2632 8.08221 24.2418C8.00528 24.1989 8.02726 23.9204 8.12616 23.7704C8.18111 23.6955 8.23606 23.5241 8.26903 23.3848C8.34595 22.9885 8.52178 22.6671 8.90641 22.2386C9.02959 22.108 9.14692 21.9721 9.25807 21.8316L9.14818 21.4781C9.00079 21.0005 8.99318 20.4922 9.1262 20.0106C9.26906 19.6035 9.55478 19.1965 10.0053 18.7573C10.4449 18.3395 10.8735 18.0824 11.1043 18.0717V18.0717ZM12.7527 21.5209C12.7666 21.5199 12.7806 21.5208 12.7939 21.5236C12.8072 21.5264 12.8195 21.531 12.8298 21.537C12.8402 21.5431 12.8485 21.5505 12.8542 21.5588C12.8598 21.5672 12.8627 21.5761 12.8626 21.5852C12.8558 21.5978 12.8432 21.6087 12.8265 21.6165C12.8097 21.6242 12.7897 21.6284 12.7692 21.6284C12.7486 21.6284 12.7286 21.6242 12.7119 21.6165C12.6951 21.6087 12.6825 21.5978 12.6758 21.5852C12.6752 21.5704 12.6825 21.5559 12.6966 21.5442C12.7106 21.5324 12.7304 21.5242 12.7527 21.5209V21.5209ZM13.0274 21.5531C13.0413 21.5521 13.0554 21.553 13.0687 21.5558C13.082 21.5585 13.0942 21.5631 13.1046 21.5692C13.115 21.5752 13.1232 21.5827 13.1289 21.591C13.1345 21.5993 13.1374 21.6083 13.1373 21.6173C13.1306 21.63 13.1179 21.6409 13.1012 21.6486C13.0845 21.6563 13.0644 21.6605 13.0439 21.6605C13.0234 21.6605 13.0033 21.6563 12.9866 21.6486C12.9699 21.6409 12.9572 21.63 12.9505 21.6173C12.9499 21.6025 12.9573 21.588 12.9713 21.5763C12.9853 21.5646 13.0052 21.5564 13.0274 21.5531V21.5531ZM13.3131 21.6066C13.327 21.6056 13.3411 21.6065 13.3544 21.6093C13.3677 21.6121 13.3799 21.6167 13.3903 21.6227C13.4007 21.6288 13.409 21.6362 13.4146 21.6445C13.4203 21.6528 13.4231 21.6618 13.423 21.6709C13.4163 21.6835 13.4037 21.6944 13.3869 21.7022C13.3702 21.7099 13.3502 21.7141 13.3296 21.7141C13.3091 21.7141 13.2891 21.7099 13.2723 21.7022C13.2556 21.6944 13.243 21.6835 13.2362 21.6709C13.2357 21.6561 13.243 21.6416 13.257 21.6298C13.271 21.6181 13.2909 21.6099 13.3131 21.6066V21.6066ZM13.5769 21.6602C13.5908 21.6592 13.6048 21.6601 13.6181 21.6629C13.6314 21.6657 13.6437 21.6702 13.654 21.6763C13.6644 21.6824 13.6727 21.6898 13.6784 21.6981C13.684 21.7064 13.6869 21.7154 13.6868 21.7245C13.68 21.7371 13.6674 21.748 13.6507 21.7557C13.6339 21.7635 13.6139 21.7676 13.5934 21.7676C13.5728 21.7676 13.5528 21.7635 13.5361 21.7557C13.5193 21.748 13.5067 21.7371 13.5 21.7245C13.4994 21.7096 13.5067 21.6951 13.5208 21.6834C13.5348 21.6717 13.5546 21.6635 13.5769 21.6602ZM12.8846 21.7245C12.8984 21.7235 12.9125 21.7244 12.9258 21.7271C12.9391 21.7299 12.9513 21.7345 12.9617 21.7406C12.9721 21.7466 12.9804 21.7541 12.986 21.7624C12.9917 21.7707 12.9945 21.7797 12.9945 21.7887C12.9877 21.8013 12.9751 21.8123 12.9583 21.82C12.9416 21.8277 12.9216 21.8319 12.901 21.8319C12.8805 21.8319 12.8605 21.8277 12.8437 21.82C12.827 21.8123 12.8144 21.8013 12.8076 21.7887C12.8071 21.7739 12.8144 21.7594 12.8284 21.7477C12.8425 21.736 12.8623 21.7278 12.8846 21.7245ZM13.1483 21.7673C13.1622 21.7663 13.1762 21.7672 13.1895 21.77C13.2028 21.7728 13.2151 21.7773 13.2255 21.7834C13.2358 21.7895 13.2441 21.7969 13.2498 21.8052C13.2554 21.8135 13.2583 21.8225 13.2582 21.8316C13.2515 21.8442 13.2388 21.8551 13.2221 21.8628C13.2054 21.8706 13.1853 21.8747 13.1648 21.8747C13.1443 21.8747 13.1242 21.8706 13.1075 21.8628C13.0908 21.8551 13.0781 21.8442 13.0714 21.8316C13.0708 21.8167 13.0782 21.8022 13.0922 21.7905C13.1062 21.7788 13.126 21.7706 13.1483 21.7673V21.7673ZM13.7198 21.7887C13.7336 21.7877 13.7477 21.7886 13.761 21.7914C13.7743 21.7942 13.7865 21.7988 13.7969 21.8048C13.8073 21.8109 13.8156 21.8183 13.8212 21.8266C13.8269 21.8349 13.8297 21.8439 13.8296 21.853C13.8229 21.8656 13.8103 21.8765 13.7935 21.8843C13.7768 21.892 13.7568 21.8962 13.7362 21.8962C13.7157 21.8962 13.6957 21.892 13.6789 21.8843C13.6622 21.8765 13.6496 21.8656 13.6428 21.853C13.6423 21.8382 13.6496 21.8237 13.6636 21.8119C13.6777 21.8002 13.6975 21.792 13.7198 21.7887ZM13.423 21.7887C13.4369 21.7877 13.451 21.7886 13.4643 21.7914C13.4776 21.7942 13.4898 21.7988 13.5002 21.8048C13.5106 21.8109 13.5189 21.8183 13.5245 21.8266C13.5302 21.8349 13.533 21.8439 13.5329 21.853C13.5262 21.8656 13.5136 21.8765 13.4968 21.8843C13.4801 21.892 13.4601 21.8962 13.4395 21.8962C13.419 21.8962 13.399 21.892 13.3822 21.8843C13.3655 21.8765 13.3529 21.8656 13.3461 21.853C13.3455 21.8382 13.3529 21.8237 13.3669 21.8119C13.3809 21.8002 13.4008 21.792 13.423 21.7887V21.7887ZM13.9725 21.853C13.9835 21.853 14.3791 21.9387 14.8517 22.0672L15.7198 22.3136L15.555 22.6028C15.4629 22.7577 15.3749 22.9149 15.2912 23.0742C15.1813 23.2884 15.1594 23.2884 14.6319 23.1706C14.0604 23.042 13.1593 22.9242 12.2362 22.8492L11.357 22.7742L11.6867 22.6564C11.8858 22.5817 12.0803 22.4959 12.2692 22.3993C12.4889 22.2815 12.5769 22.2601 12.9175 22.2922C13.4121 22.3243 13.7417 22.2279 13.8736 22.0351L13.9835 21.853H13.9725ZM13.0054 21.9173C13.0193 21.9163 13.0334 21.9172 13.0467 21.92C13.06 21.9227 13.0722 21.9273 13.0826 21.9334C13.093 21.9395 13.1013 21.9469 13.1069 21.9552C13.1126 21.9635 13.1154 21.9725 13.1153 21.9816C13.1086 21.9942 13.096 22.0051 13.0792 22.0128C13.0625 22.0205 13.0425 22.0247 13.0219 22.0247C13.0014 22.0247 12.9814 22.0205 12.9646 22.0128C12.9479 22.0051 12.9353 21.9942 12.9285 21.9816C12.928 21.9667 12.9353 21.9522 12.9493 21.9405C12.9633 21.9288 12.9832 21.9206 13.0054 21.9173V21.9173ZM13.6209 21.9173C13.6347 21.9163 13.6488 21.9172 13.6621 21.92C13.6754 21.9227 13.6876 21.9273 13.698 21.9334C13.7084 21.9395 13.7167 21.9469 13.7223 21.9552C13.728 21.9635 13.7308 21.9725 13.7307 21.9816C13.7224 21.992 13.7098 22.0008 13.6943 22.007C13.6788 22.0131 13.661 22.0164 13.6428 22.0164C13.6247 22.0164 13.6069 22.0131 13.5913 22.007C13.5758 22.0008 13.5632 21.992 13.5549 21.9816C13.5543 21.9667 13.5617 21.9522 13.5757 21.9405C13.5897 21.9288 13.6096 21.9206 13.6318 21.9173H13.6209ZM12.7417 21.9173C12.7556 21.9163 12.7696 21.9172 12.7829 21.92C12.7962 21.9227 12.8085 21.9273 12.8189 21.9334C12.8292 21.9395 12.8375 21.9469 12.8432 21.9552C12.8488 21.9635 12.8517 21.9725 12.8516 21.9816C12.8448 21.9942 12.8322 22.0051 12.8155 22.0128C12.7987 22.0205 12.7787 22.0247 12.7582 22.0247C12.7376 22.0247 12.7176 22.0205 12.7009 22.0128C12.6841 22.0051 12.6715 21.9942 12.6648 21.9816C12.6677 21.9686 12.6766 21.9565 12.6903 21.947C12.7041 21.9374 12.722 21.9308 12.7417 21.928V21.9173ZM13.3241 21.9387C13.3496 21.9366 13.3752 21.9411 13.3957 21.9511C13.4162 21.9611 13.43 21.9758 13.434 21.9923C13.4273 22.0049 13.4147 22.0158 13.3979 22.0235C13.3812 22.0313 13.3612 22.0354 13.3406 22.0354C13.3201 22.0354 13.3001 22.0313 13.2833 22.0235C13.2666 22.0158 13.254 22.0049 13.2472 21.9923C13.2501 21.9793 13.259 21.9672 13.2728 21.9577C13.2865 21.9481 13.3044 21.9415 13.3241 21.9387ZM12.5988 22.0565C12.6127 22.0555 12.6268 22.0564 12.6401 22.0592C12.6534 22.062 12.6656 22.0666 12.676 22.0726C12.6864 22.0787 12.6947 22.0861 12.7003 22.0944C12.7059 22.1027 12.7088 22.1117 12.7087 22.1208C12.702 22.1334 12.6894 22.1443 12.6726 22.1521C12.6559 22.1598 12.6359 22.164 12.6153 22.164C12.5948 22.164 12.5748 22.1598 12.558 22.1521C12.5413 22.1443 12.5287 22.1334 12.5219 22.1208C12.5213 22.106 12.5287 22.0915 12.5427 22.0797C12.5567 22.068 12.5766 22.0598 12.5988 22.0565V22.0565ZM12.8736 22.0565C12.889 22.0553 12.9046 22.0564 12.9192 22.0597C12.9338 22.0631 12.947 22.0687 12.9577 22.076C12.9684 22.0833 12.9763 22.0921 12.9808 22.1017C12.9853 22.1114 12.9862 22.1216 12.9835 22.1315C12.9767 22.1441 12.9641 22.155 12.9474 22.1628C12.9306 22.1705 12.9106 22.1747 12.8901 22.1747C12.8695 22.1747 12.8495 22.1705 12.8328 22.1628C12.816 22.155 12.8034 22.1441 12.7966 22.1315C12.7961 22.1167 12.8034 22.1022 12.8175 22.0905C12.8315 22.0787 12.8513 22.0705 12.8736 22.0672V22.0565ZM13.1593 22.078C13.1847 22.0759 13.2104 22.0803 13.2309 22.0903C13.2514 22.1003 13.2651 22.1151 13.2692 22.1315C13.2624 22.1441 13.2498 22.155 13.2331 22.1628C13.2163 22.1705 13.1963 22.1747 13.1758 22.1747C13.1552 22.1747 13.1352 22.1705 13.1185 22.1628C13.1017 22.155 13.0891 22.1441 13.0824 22.1315C13.0853 22.1186 13.0942 22.1065 13.1079 22.0969C13.1217 22.0873 13.1396 22.0807 13.1593 22.078ZM13.467 22.078C13.4809 22.077 13.4949 22.0779 13.5082 22.0806C13.5215 22.0834 13.5338 22.088 13.5442 22.0941C13.5545 22.1001 13.5628 22.1076 13.5685 22.1159C13.5741 22.1242 13.577 22.1332 13.5769 22.1422C13.5701 22.1548 13.5575 22.1658 13.5408 22.1735C13.524 22.1812 13.504 22.1854 13.4835 22.1854C13.4629 22.1854 13.4429 22.1812 13.4262 22.1735C13.4094 22.1658 13.3968 22.1548 13.3901 22.1422C13.3895 22.1274 13.3969 22.1129 13.4109 22.1012C13.4249 22.0895 13.4447 22.0813 13.467 22.078V22.078ZM11.2362 22.9456C12.5334 22.9792 13.8247 23.1298 15.0934 23.3955C15.1044 23.4062 15.0275 23.6633 14.9066 23.974L14.6868 24.6167C14.6758 24.6702 14.5989 24.6702 14.4121 24.6488C13.5 24.5096 10.8625 24.5203 9.8515 24.6702C9.26906 24.7559 9.19213 24.7452 9.23609 24.6274L9.34598 24.2525L9.41192 23.9632L10.0053 23.6633C10.4009 23.4666 10.7762 23.2334 11.1263 22.967H11.2252L11.2362 22.9456ZM8.26903 24.4667C8.30199 24.4667 8.36793 24.4988 8.44486 24.5524C8.55475 24.6167 8.68662 24.6702 8.74157 24.6702C9.02729 24.6702 9.18114 25.0666 9.42291 26.3841L9.51083 26.8555C9.5328 26.9626 9.51082 26.984 9.25807 27.0376C8.95037 27.1018 8.87344 27.1125 8.87344 27.0697C8.87344 26.9626 8.56574 25.6022 8.43387 25.1201C8.36823 24.9078 8.30959 24.6934 8.25804 24.4774C8.25971 24.4765 8.2616 24.476 8.26353 24.476C8.26546 24.476 8.26735 24.4765 8.26903 24.4774V24.4667ZM11.412 24.6809H11.7307L11.6208 24.7881C11.434 25.0023 11.3461 25.013 11.2142 24.8738C11.1679 24.8271 11.1306 24.7727 11.1043 24.7131C11.1043 24.6917 11.2471 24.6702 11.412 24.6702V24.6809ZM12.0823 24.6809H12.6758L12.5439 24.8095C12.39 24.9809 12.3791 24.9809 12.2142 24.8095L12.0823 24.6702V24.6809ZM12.9835 24.6809H13.1263C13.2033 24.6809 13.3461 24.6809 13.434 24.7024L13.5989 24.7345L13.445 24.8738C13.3571 24.9487 13.2802 25.013 13.2692 25.0023L13.1153 24.8309L12.9835 24.6702V24.6809ZM13.9176 24.7131L14.0494 24.7452C14.1264 24.7666 14.2912 24.7774 14.4121 24.7881H14.6319L14.467 24.9273C14.4073 24.9816 14.3409 25.0284 14.2692 25.0666C14.2582 25.0666 14.1593 24.9809 14.0824 24.8845L13.9176 24.7131V24.7131ZM10.5988 24.7238H10.6208C10.6317 24.7452 10.5878 24.8309 10.5109 24.9059L10.401 25.0559L10.2361 24.9273L10.0713 24.7881L10.335 24.7559L10.5988 24.7238V24.7238ZM10.8515 24.7452L11.0274 24.8952L11.2032 25.0559L10.8735 25.0773L10.5438 25.088L10.6977 24.9273L10.8515 24.7452ZM12.8296 24.7452C12.8626 24.7452 12.8846 24.7559 12.9175 24.7774C12.975 24.8301 13.0233 24.8916 13.0604 24.9595C13.1044 25.0451 13.0934 25.0666 12.9505 25.0666L12.6758 25.013L12.5439 24.9809L12.6868 24.8416C12.7527 24.7774 12.7966 24.7345 12.8406 24.7345L12.8296 24.7452ZM11.9175 24.7452C11.9724 24.7452 12.0274 24.7774 12.0933 24.8845C12.1703 25.0023 12.1703 25.0023 11.8735 25.0023H11.5768L11.7307 24.863C11.8076 24.7881 11.8735 24.7559 11.9175 24.7559V24.7452ZM13.7857 24.7666L13.9176 24.8952C14.0714 25.0344 14.0934 25.1201 13.9835 25.1094L13.6758 25.0773L13.434 25.0559L13.6099 24.9166L13.7857 24.7666V24.7666ZM9.91743 24.8416C9.93941 24.8416 10.0273 24.8952 10.0933 24.9702L10.2251 25.1094L9.9504 25.1523L9.56577 25.2058C9.48885 25.2272 9.51083 25.1737 9.67567 25.0344C9.78556 24.9273 9.89545 24.8416 9.91743 24.8416ZM9.51083 24.8416H9.55478C9.6427 24.863 9.6427 24.8845 9.48885 25.0344L9.32401 25.1951L9.26906 25.0559C9.2251 24.9487 9.23609 24.9166 9.335 24.8738C9.3913 24.8534 9.45077 24.8425 9.51083 24.8416V24.8416ZM14.5659 25.0344C14.5879 25.0344 14.5879 25.0559 14.5659 25.0987C14.544 25.1844 14.4451 25.2058 14.4451 25.1201C14.4451 25.0987 14.478 25.0666 14.522 25.0451H14.5549L14.5659 25.0344ZM12.2142 25.2058C13.0604 25.2058 13.9176 25.2273 14.1264 25.2487C14.467 25.2915 14.5 25.3022 14.5 25.4308C14.5 25.5807 14.456 25.5915 13.9945 25.5165C13.8626 25.4843 13.3022 25.4415 12.7637 25.3986C11.7186 25.3371 10.6698 25.3729 9.63171 25.5058C9.42291 25.5272 9.36796 25.5058 9.36796 25.4415C9.36796 25.3022 10.4889 25.2058 12.2142 25.2058V25.2058ZM11.0823 25.5165H11.6757L11.5439 25.6557C11.379 25.8271 11.368 25.8271 11.2142 25.6557L11.0823 25.5165ZM11.8516 25.5165L12.0054 25.6664L12.1593 25.8378L11.8406 25.8485H11.5219L11.6867 25.6771L11.8406 25.5165H11.8516ZM12.0823 25.5165H12.6758L12.5439 25.6557C12.39 25.8271 12.3791 25.8271 12.2142 25.6557L12.0823 25.5165ZM10.6757 25.5165C10.6977 25.5165 10.6757 25.57 10.5988 25.6771C10.5218 25.7736 10.4449 25.8485 10.4339 25.8485C10.412 25.8485 10.335 25.7843 10.2691 25.7093L10.1372 25.57H10.335C10.4356 25.5705 10.5356 25.5561 10.6317 25.5272C10.6462 25.5243 10.6612 25.5243 10.6757 25.5272V25.5165ZM10.8955 25.57L11.0383 25.6986L11.2032 25.8378L10.9175 25.8593L10.5988 25.8807L10.7526 25.72L10.8955 25.57V25.57ZM12.8076 25.57L12.9615 25.7414C13.1373 25.9235 13.1263 25.9342 12.7307 25.8593L12.5439 25.8271L12.6758 25.6986L12.8076 25.57V25.57ZM13.0274 25.57H13.2912C13.5769 25.57 13.6099 25.6129 13.445 25.7628C13.3131 25.87 13.3131 25.87 13.1593 25.7093L13.0274 25.57V25.57ZM9.66468 25.6236C9.79655 25.6236 9.78556 25.6343 9.62072 25.795C9.49984 25.9128 9.48885 25.9128 9.44489 25.8271C9.41192 25.72 9.51083 25.6343 9.66468 25.6236ZM13.9286 25.645C13.9725 25.645 14.0604 25.645 14.1483 25.6664L14.4011 25.7093L14.2582 25.8378L14.1264 25.9664L14.0055 25.8164L13.8956 25.645H13.9286V25.645ZM9.97238 25.6986C10.0053 25.6986 10.0383 25.72 10.0933 25.7736C10.2032 25.8807 10.2032 25.8807 10.1152 25.9235C10.0301 25.9508 9.94114 25.9653 9.8515 25.9664H9.67567L9.81853 25.8164C9.89545 25.7414 9.92842 25.7093 9.96139 25.6986H9.97238ZM13.7198 25.7307C13.7637 25.7307 13.7967 25.7521 13.8516 25.8378L13.9505 25.9664H13.7198C13.5659 25.9664 13.5 25.9449 13.5 25.9021C13.5219 25.8592 13.5769 25.795 13.6428 25.7628L13.7198 25.7307V25.7307ZM14.4231 25.87C14.4451 25.87 14.4451 25.8914 14.4451 25.9235C14.4451 26.0306 14.3462 26.1056 14.3022 26.0306C14.2912 25.9985 14.3132 25.9449 14.3571 25.9128L14.4231 25.87V25.87ZM11.5768 25.9985C12.5329 25.9985 13.5879 26.0628 14.2143 26.1699L14.3901 26.202V26.6734C14.3901 27.0268 14.3681 27.1447 14.3132 27.1447L13.7637 27.0376C12.493 26.8275 11.1984 26.7915 9.91743 26.9304L9.66468 26.9626L9.59874 26.5662C9.57143 26.4321 9.55671 26.2959 9.55478 26.1592C9.55478 26.1592 9.80754 26.1056 10.1043 26.0735C10.4669 26.0199 11.0054 25.9985 11.5768 25.9985V25.9985Z" fill="black"/>
<path d="M13.5058 23.3203C13.1761 23.3203 12.9453 23.5453 12.9453 23.8773C12.9453 24.3915 13.5387 24.6486 13.8904 24.2844C14.2421 23.9202 14.0003 23.3203 13.5058 23.3203V23.3203ZM13.5058 23.4489C13.5635 23.4489 13.6207 23.4599 13.674 23.4815C13.7273 23.503 13.7758 23.5346 13.8166 23.5744C13.8574 23.6141 13.8898 23.6614 13.9119 23.7134C13.934 23.7653 13.9453 23.8211 13.9453 23.8773C13.9453 24.1987 13.5827 24.4129 13.286 24.2737C12.9893 24.113 13.0112 23.6202 13.3299 23.4917C13.3818 23.4678 13.4376 23.4533 13.4948 23.4489H13.5058Z" fill="black"/>
<path d="M9.45708 15.5521C9.4112 15.5549 9.36791 15.5749 9.33547 15.6085C9.30303 15.6421 9.28373 15.6869 9.28125 15.7342C9.28125 15.7869 9.30151 15.8374 9.33758 15.8746C9.37364 15.9118 9.42256 15.9327 9.47356 15.9327C9.52457 15.9327 9.57348 15.9118 9.60955 15.8746C9.64562 15.8374 9.66588 15.7869 9.66588 15.7342C9.66464 15.7078 9.65813 15.6819 9.64677 15.6582C9.63542 15.6345 9.61945 15.6134 9.59986 15.5963C9.58027 15.5792 9.55749 15.5665 9.53292 15.5589C9.50836 15.5513 9.48254 15.549 9.45708 15.5521V15.5521ZM9.46807 15.6164C9.50304 15.6164 9.53659 15.6288 9.56132 15.6509C9.58605 15.673 9.59994 15.703 9.59994 15.7342C9.59994 15.7655 9.58605 15.7955 9.56132 15.8176C9.53659 15.8397 9.50304 15.8521 9.46807 15.8521C9.43309 15.8521 9.39955 15.8397 9.37482 15.8176C9.35009 15.7955 9.3362 15.7655 9.3362 15.7342C9.3362 15.7188 9.33961 15.7035 9.34624 15.6892C9.35286 15.6749 9.36258 15.6619 9.37482 15.6509C9.38707 15.64 9.4016 15.6313 9.4176 15.6254C9.4336 15.6195 9.45075 15.6164 9.46807 15.6164Z" fill="black"/>
</g>
<defs>
<clipPath id="clip0_4046_28224">
<rect width="60" height="45" fill="white"/>
</clipPath>
</defs>
</svg>
